<svg width="48" version="1.1" xmlns="http://www.w3.org/2000/svg" height="48">
<defs id="defs9">
<clipPath id="clipPath3613">
<rect width="84" x="6" y="6" rx="6" height="84" ry="6" style="fill:#fff;stroke:none" id="rect3615"/>
</clipPath>
<filter style="color-interpolation-filters:sRGB" id="filter3174">
<feGaussianBlur stdDeviation="1.71" id="feGaussianBlur3176"/>
</filter>
<linearGradient gradientTransform="scale(1.0058652,0.994169)" id="ButtonShadow" y1="92.539597" x1="45.447727" y2="7.0165396" x2="45.447727" gradientUnits="userSpaceOnUse">
<stop offset="0" id="stop3750"/>
<stop offset="1" style="stop-opacity:.588" id="stop3752"/>
</linearGradient>
</defs>
<path style="fill:#db8b34" id="path2989" d="m 4.5,5.6571 0,36.68 39,0 0,-36.7458 -12.6176,.0658 z "/>
<rect width="7.3133702" x="4.5000048" y="5.6033258" height="36.733669" style="fill:#f1c40f;fill-rule:evenodd;stroke:#003bc3;stroke-linecap:square;stroke-width:0;stroke-miterlimit:2" id="shape01"/>
<g style="display:none" id="layer2" transform="translate(-117.07208,111.09357)">
<rect width="86" x="5" y="7" rx="6" height="85" ry="6" style="opacity:.9;fill:url(#ButtonShadow);filter:url(#filter3174);stroke:none" id="rect3745"/>
</g>
<g style="fill:#fff;fill-rule:evenodd;stroke:none" id="g15">
<path id="path4178" d="m 14.6817,12.384 3.2813,5.625 0,8.7188 -11.5,.0312 z "/>
<path id="path4176" d="m 19.75,17.9531 12.2812,0 0,2.2935 c -4.78563,1.4264 -7.24079,5.30021 -6.31925,9.98775 h -5.962 z "/>
<path id="path1306" d="m 34.3498,21.5098 c 3.97729,0 7.1875,3.21021 7.1875,7.1875 0,3.97729 -3.21021,7.21875 -7.1875,7.21875 -3.97729,0 -7.21875,-3.24146 -7.21875,-7.21875 0,-3.97729 3.24146,-7.1875 7.21875,-7.1875 z "/>
</g>
</svg>
