<svg width="48" version="1.1" xmlns="http://www.w3.org/2000/svg" height="48">
<g style="stroke:none" id="layer1" transform="translate(-180.23661,-689.8125)">
<rect width="30" x="189.2366" y="698.8125" height="30" style="fill:none;fill-rule:evenodd" id="rect3332"/>
<rect width="39.000011" x="184.7366" y="695.43939" height="36.745777" style="fill:#ff8000" id="rect824"/>
<path style="fill:#fff;fill-rule:evenodd" id="path4112" d="m 204.2386,704.8125 0,12.8359 c -0.54474,-0.50772 -1.2551,-0.83598 -2.00196,-0.83593 -1.5709,9e-05 -2.99804,1.42933 -2.99804,3 0,1.57067 1.42714,2.9999 2.99804,3 1.57091,9e-05 3.00196,-1.42916 3.00196,-3 v -10.6152 c 2.09244,1.25511 3.39648,3.55901 3.39648,6.01563 0,0.63161 -0.10429,1.25103 -0.28712,1.84765 0.56004,-0.98918 0.88672,-2.10262 0.88672,-3.24804 0,-1.83447 -0.62808,-3.58424 -1.92383,-4.875 -0.59781,-0.59552 -2.05044,-1.6979 -2.07226,-4.07422 v -0.0508 h -0.004 -0.99609 z "/>
<g style="fill:none">
<circle cx="181.2366" cy="713.8125" id="path3280" r="1" d="m 182.2366,713.8125 c 0,0.55228 -0.44771,1 -1,1 -0.55228,0 -1,-0.44772 -1,-1 0,-0.55228 0.44772,-1 1,-1 0.55229,0 1,0.44772 1,1 z"/>
<circle cx="224.73662" cy="713.8125" id="circle3288" r="3.5" d="m 228.23662,713.8125 c 0,1.933 -1.56701,3.5 -3.5,3.5 -1.933,0 -3.5,-1.567 -3.5,-3.5 0,-1.933 1.567,-3.5 3.5,-3.5 1.93299,0 3.5,1.567 3.5,3.5 z"/>
<circle cx="227.23662" cy="713.8125" r="1" id="circle3282" d="m 228.23662,713.8125 c 0,0.55228 -0.44772,1 -1,1 -0.55229,0 -1,-0.44772 -1,-1 0,-0.55228 0.44771,-1 1,-1 0.55228,0 1,0.44772 1,1 z"/>
<circle cx="204.23662" cy="691.8125" id="circle3284" r="2" d="m 206.23662,691.8125 c 0,1.10457 -0.89543,2 -2,2 -1.10457,0 -2,-0.89543 -2,-2 0,-1.10457 0.89543,-2 2,-2 1.10457,0 2,0.89543 2,2 z"/>
<circle cx="204.23662" cy="735.8125" r="2" id="circle3286" d="m 206.23662,735.8125 c 0,1.10457 -0.89543,2 -2,2 -1.10457,0 -2,-0.89543 -2,-2 0,-1.10457 0.89543,-2 2,-2 1.10457,0 2,0.89543 2,2 z"/>
</g>
<text x="195.24442" y="728.8125" style="font-family:Century Schoolbook L;word-spacing:0;line-height:125%;font-weight:bold;letter-spacing:0;font-size:8px" id="text2998" xml:space="preserve"><tspan x="195.24442" y="728.8125" style="fill:#fff;font-family:DejaVu Sans" id="tspan3000">Ogg</tspan>
</text>
</g>
</svg>
