<svg width="48" version="1.1" xmlns="http://www.w3.org/2000/svg" height="48">
<path style="fill:#bdc3c7" id="rect4090" d="m 4.5,5.6271 0,36.7458 39,0 0,-36.6755 -12.6176,-.0703 z "/>
<g style="stroke:none;color:#000">
<g style="stroke-width:1.191">
<rect width="38.97208" x="4.5103312" y="17.786118" height="11.769146" style="opacity:.8;fill:#0082ff" id="rect3008"/>
<rect width="38.97208" x="4.5103312" y="29.530951" height="12.826255" style="opacity:.8;fill:#a5be4d" id="rect3010"/>
</g>
<text x="15.890625" y="40.31834" style="fill:#2c3e50;font-family:Century Schoolbook L;word-spacing:0;line-height:125%;font-weight:bold;letter-spacing:0;font-size:8px" id="text2999" xml:space="preserve"><tspan x="15.890625" y="40.31834" style="font-family:DejaVu Sans" id="tspan3001">Rar</tspan>
</text>
<rect width="38.97208" x="4.5808053" y="5.5746961" height="12.19199" style="opacity:.8;fill:#b043b0;stroke-width:1.191" id="rect3006"/>
</g>
<g style="stroke:#003bc3;stroke-linecap:square;fill-rule:evenodd;stroke-width:0" id="g3029" transform="matrix(1.1014812,0,0,0.87924401,-2.4353929,0.4284223)">
<rect width="5.4274774" x="21.275965" y="5.6290684" height="19.795769" style="fill:#34495e;stroke-miterlimit:2.013" id="shape0"/>
<g style="fill:#ecf0f1">
<rect width="3.2564054" x="21.302347" y="5.6349387" height="1.4654016" style="stroke-miterlimit:2.013" id="shape1"/>
<g style="stroke-miterlimit:2">
<rect width="3.2564054" x="23.465931" y="7.1004887" height="1.4654016" id="shape2"/>
<rect width="3.2564054" x="21.302462" y="8.5685101" height="1.4654016" id="shape3"/>
<rect width="3.2564054" x="23.46616" y="10.03407" height="1.4654016" id="shape4"/>
<rect width="3.2564054" x="21.29925" y="11.503496" height="1.4654016" id="shape5"/>
<rect width="3.2564054" x="23.462833" y="12.96901" height="1.4654016" id="shape6"/>
<rect width="3.2564054" x="21.29925" y="14.437004" height="1.4654016" id="shape7"/>
<rect width="3.2564054" x="23.462833" y="15.902609" height="1.4654016" id="shape8"/>
<rect width="3.2564054" x="21.277571" y="17.370695" height="1.4654016" id="shape9"/>
<rect width="3.2564054" x="23.441038" y="18.836208" height="1.4654016" id="shape10"/>
<rect width="3.2564054" x="21.277571" y="20.304295" height="1.4654016" id="shape11"/>
<rect width="3.2564054" x="23.441269" y="21.769808" height="1.4654016" id="shape12"/>
<rect width="3.2564054" x="21.274359" y="23.239271" height="1.4654016" id="shape13"/>
<rect width="5.4192996" x="21.285601" y="24.824669" height="9.7665815" id="shape17"/>
</g>
</g>
<rect width="3.1765904" x="22.427498" y="25.799717" height="2.3104672" style="fill:#2c3e50;stroke-miterlimit:2" id="shape18"/>
</g>
</svg>
