<svg width="48" version="1.1" xmlns="http://www.w3.org/2000/svg" height="48" xmlns:xlink="http://www.w3.org/1999/xlink">
<defs id="defs4"/>
<g style="fill:#4d4d4d" id="layer1" transform="matrix(1.1470591,0,0,0.91864444,-3.5294177,1.9525339)">
<path style="fill:#d35400" id="rect4090" d="M 0,0 0,40 34,40 34,0.06980703 23,0 z" transform="translate(7,4)"/>
</g>
<g style="stroke:#fff;stroke-width:.797" id="g27" transform="matrix(2.6415533,-1.8287422,2.1876085,2.2082197,-29.297691,19.492468)"/>
<g style="stroke:none">
<path style="fill:#fff" id="path3994" d="m 11.3425,10.2213 c -0.412218,0 -0.714919,0.297749 -0.702081,0.72071 v 3.29467 12.4805 6.62311 3.03156 0.263116 c 0,0.394531 0.255888,0.67247 0.624072,0.70927 0.02671,0.0027 0.05012,0.01144 0.07801,0.01144 h 1.78306 21.4839 1.78306 c 0.02576,0 0.05324,-0.0031 0.07801,-0.01144 0.368184,-0.0368 0.624072,-0.314739 0.624072,-0.70927 v -0.263116 -3.03156 -6.62311 -5.88008 c -3.32223,-3.40022 -7.035,-7.21058 -10.3522,-10.6158 h -15.1435 z "/>
<path style="fill:#d35400" id="path3998" d="m 11.3028,10.9507 0,3.8244 0,17.8473 0,3.8244 2.0746,0 22.8209,0 0,-3.8244 0,-11.6459 -9.7896,-10.0259 z "/>
</g>
<rect width="14.429908" x="16.65221" y="19.487537" height="8.6021214" style="fill:#fff;stroke:#fff;stroke-linejoin:bevel;stroke-linecap:round;stroke-width:2.04;stroke-dashoffset:2.25" id="rect3256"/>
</svg>
