<svg width="48" version="1.1" xmlns="http://www.w3.org/2000/svg" height="48" xmlns:xlink="http://www.w3.org/1999/xlink">
<defs id="defs4"/>
<g style="fill:#4d4d4d" id="layer1" transform="matrix(1.1470591,0,0,0.91864444,-3.5294177,1.9525339)">
<path id="rect4090" d="M 0,0 0,40 34,40 34,0.06980703 23,0 z" transform="translate(7,4)"/>
</g>
<g style="stroke:#fff;stroke-width:.797" id="g27" transform="matrix(2.6415533,-1.8287422,2.1876085,2.2082197,-29.297691,19.492468)"/>
<g style="stroke:none">
<path style="fill:#fff" id="path3994" d="m 11.807,10.4122 c -0.404235,0 -0.688484,0.297131 -0.688484,0.719686 v 3.29 12.4633 6.614 3.02725 0.262742 c 0,0.393971 0.250932,0.671515 0.611986,0.708263 0.0262,0.0027 0.04919,0.01298 0.0765,0.01142 h 1.74853 21.083 1.74853 c 0.02526,0 0.05221,-0.0031 0.0765,-0.01142 0.361054,-0.03675 0.611987,-0.314292 0.611987,-0.708263 v -0.262742 -3.02725 -6.614 -5.87173 c -3.25789,-3.39539 -6.90637,-7.20087 -10.1593,-10.6013 h -14.8578 z "/>
<path style="fill:#4d4d4d" id="path3998" d="m 11.7756,11.141 0,3.819 0,17.822 0,3.819 2.0344,0 22.3789,0 0,-3.819 0,-11.6294 -9.6001,-10.0116 z "/>
<g style="font-family:sans-serif;fill:#fff;text-align:start;word-spacing:0;line-height:125%;font-weight:bold;letter-spacing:0;font-size:11.50192165px" id="text3245" transform="scale(0.85930097,1.1637366)">
<path id="path4230" d="m 17.8697,20.4677 -2.2689,-3.072 2.1285,0 1.2861,1.8646 1.303,-1.8646 2.1285,0 -2.2689,3.0608 2.3813,3.2293 -2.1285,0 -1.4153,-1.9881 -1.3984,1.9881 -2.1285,0 2.3813,-3.2181 z "/>
<path id="path4232" d="m 28.2147,16.4746 0,2.9429 2.9316,0 0,1.3254 -2.9316,0 0,2.9429 -1.3366,0 0,-2.9429 -2.9316,0 0,-1.3254 2.9316,0 0,-2.9429 1.3366,0 z "/>
<path id="path4234" d="m 32.5055,17.3956 2.0106,0 1.6905,4.2683 1.4377,-4.2683 2.0106,0 -2.6452,6.8854 q -0.398748,1.05022 -0.932284,1.46582 -0.527921,0.421213 -1.39843,0.421213 h -1.16255 v -1.3198 h 0.629011 q 0.511072,0 0.741335,-0.162869 0.235879,-0.162869 0.365051,-0.584082 l .0562,-.1741 -2.8025,-6.5316 z "/>
</g>
</g>
</svg>
