<svg width="48" version="1.0" xmlns="http://www.w3.org/2000/svg" height="48">
<g style="stroke:none">
<path style="fill:#3880d9" id="path4148" d="m 34.1719,29.8253 0,-28.022 -32.3718,0 0,28.022 32.3718,0 z "/>
<path id="path4152" d="M 1.490625,0 C 0.6428655,0 0,0.64321898 0,1.490625 l 0,28.51875 C 0,30.856781 0.6428655,31.5 1.490625,31.5 l 33.01875,0 C 35.357134,31.5 36,30.856781 36,30.009375 L 36,1.490625 C 36,0.64321893 35.357134,0 34.509375,0 L 1.490625,0 Z M 2.7,2.7 l 30.6,0 0,26.1 -30.6,0 0,-26.1 z"/>
</g>
<g style="display:none" id="layer2" transform="translate(0,-48)">
<rect width="86" x="5" y="7" rx="6" height="85" ry="6" style="opacity:.9;fill:url(#ButtonShadow);filter:url(#filter3174);stroke:none" id="rect3745"/>
</g>
<g style="stroke:none">
<path style="fill:#3880d9" id="path3215" d="m 46.0195,42.2858 0,-30.3572 -35.0695,0 0,30.3572 35.0695,0 z "/>
<path id="path3174" d="M 10.614844,9.975 C 9.6964376,9.975 9,10.671821 9,11.589844 L 9,42.485156 C 9,43.403179 9.6964376,44.1 10.614844,44.1 l 35.770312,0 C 47.303562,44.1 48,43.403179 48,42.485156 L 48,11.589844 C 48,10.671821 47.303562,9.975 46.385156,9.975 l -35.770312,0 z M 11.925,12.9 l 33.15,0 0,28.275 -33.15,0 0,-28.275 z"/>
<path id="rect3535" d="m 21.1875,42.15 c -0.810225,0 -1.4625,0.652275 -1.4625,1.4625 h -1.4625 v 0.4875 c 0.8073,0 1.4625,0.6552 1.4625,1.4625 v 0.975 c 0,0.810225 0.652275,1.4625 1.4625,1.4625 h 14.625 c 0.810225,0 1.4625,-0.652275 1.4625,-1.4625 v -0.975 c 0,-0.8073 0.6552,-1.4625 1.4625,-1.4625 v -0.4875 h -1.4625 c 0,-0.810225 -0.652275,-1.4625 -1.4625,-1.4625 h -14.625 z "/>
<rect width="2.4375" x="32.07029" y="45.67675" rx="0.48750001" ry=".4875" height="0.97500002" style="fill:#7fff2a" id="rect3485"/>
<path style="fill:#f01a00" id="path2990" d="m 28.8,15.6 c -6.62745,0 -12,5.37268 -12,12 0,6.62757 5.37252,12 12,12 6.62687,0 12,-5.37237 12,-12 0,-6.62734 -5.37313,-12 -12,-12 z "/>
<path style="fill:#fff" id="path6495" d="m 20.9341,25.5512 15.7317,0 c 0.509603,0 0.914634,0.450167 0.914634,1.0061 v 2.08537 c 0,0.555931 -0.405031,1.0061 -0.914634,1.0061 h -15.7317 c -0.509603,0 -0.914634,-0.450167 -0.914634,-1.0061 v -2.08537 c 0,-0.55593 0.405031,-1.0061 0.914634,-1.0061 z "/>
</g>
</svg>
