<svg width="48" version="1.0" xmlns="http://www.w3.org/2000/svg" height="48">
<g style="stroke:none">
<path style="fill:#3880d9" id="path4148" d="m 34.1719,29.8253 0,-28.022 -32.3718,0 0,28.022 32.3718,0 z "/>
<path id="path4152" d="M 1.490625,0 C 0.6428655,0 0,0.64321898 0,1.490625 l 0,28.51875 C 0,30.856781 0.6428655,31.5 1.490625,31.5 l 33.01875,0 C 35.357134,31.5 36,30.856781 36,30.009375 L 36,1.490625 C 36,0.64321893 35.357134,0 34.509375,0 L 1.490625,0 Z M 2.7,2.7 l 30.6,0 0,26.1 -30.6,0 0,-26.1 z"/>
</g>
<g style="display:none" id="layer2" transform="translate(0,-48)">
<rect width="86" x="5" y="7" rx="6" height="85" ry="6" style="opacity:.9;fill:url(#ButtonShadow);filter:url(#filter3174);stroke:none" id="rect3745"/>
</g>
<g style="stroke:none;text-decoration-line:none;color:#000">
<path style="fill:#3880d9" id="path3215" d="m 46.0195,42.2858 0,-30.3572 -35.0695,0 0,30.3572 35.0695,0 z "/>
<path id="path3174" d="M 10.614844,9.975 C 9.6964376,9.975 9,10.671821 9,11.589844 L 9,42.485156 C 9,43.403179 9.6964376,44.1 10.614844,44.1 l 35.770312,0 C 47.303562,44.1 48,43.403179 48,42.485156 L 48,11.589844 C 48,10.671821 47.303562,9.975 46.385156,9.975 l -35.770312,0 z M 11.925,12.9 l 33.15,0 0,28.275 -33.15,0 0,-28.275 z"/>
<path id="rect3535" d="m 21.1875,42.15 c -0.810225,0 -1.4625,0.652275 -1.4625,1.4625 h -1.4625 v 0.4875 c 0.8073,0 1.4625,0.6552 1.4625,1.4625 v 0.975 c 0,0.810225 0.652275,1.4625 1.4625,1.4625 h 14.625 c 0.810225,0 1.4625,-0.652275 1.4625,-1.4625 v -0.975 c 0,-0.8073 0.6552,-1.4625 1.4625,-1.4625 v -0.4875 h -1.4625 c 0,-0.810225 -0.652275,-1.4625 -1.4625,-1.4625 h -14.625 z "/>
<rect width="2.4375" x="32.07029" y="45.67675" rx="0.48750001" ry=".4875" height="0.97500002" style="fill:#7fff2a" id="rect3485"/>
<g style="stroke-width:2;text-indent:0;line-height:normal;text-align:start;fill:#fff;font-family:Sans;text-transform:none">
<path id="path16189" d="m 30.0003,22.4 c 0,-0.429999 -0.07978,-0.95854 -0.421875,-1.21906 l -7.0784,-5.3906 -7.0781,5.4847 c -0.31658,0.245311 -0.421875,0.7245 -0.421875,1.125 v 1.6 l 6,.0234 v 7.47656 c -0.0105,0.792465 0.70746,1.5 1.5,1.5 0.79254,0 1.51121,-0.707535 1.5,-1.5 v -7.52344 l 6.0003,.0234 z "/>
<path id="path4230" d="m 42.0003,31.6903 c 0,0.429999 -0.07978,0.95854 -0.421875,1.21906 l -7.0784,5.3906 -7.0781,-5.4847 c -0.31658,-0.245311 -0.421875,-0.7245 -0.421875,-1.125 v -1.6 l 6,-.0234 v -7.47656 c -0.0105,-0.792465 0.70746,-1.5 1.5,-1.5 0.79254,0 1.5112,0.707535 1.5,1.5 v 7.52344 l 6.0003,-.0234 z "/>
</g>
</g>
</svg>
