<?xml version="1.0" encoding="UTF-8" standalone="no"?>
<!-- Created with Inkscape (http://www.inkscape.org/) -->

<svg
   xmlns:dc="http://purl.org/dc/elements/1.1/"
   xmlns:cc="http://creativecommons.org/ns#"
   xmlns:rdf="http://www.w3.org/1999/02/22-rdf-syntax-ns#"
   xmlns:svg="http://www.w3.org/2000/svg"
   xmlns="http://www.w3.org/2000/svg"
   xmlns:xlink="http://www.w3.org/1999/xlink"
   xmlns:sodipodi="http://sodipodi.sourceforge.net/DTD/sodipodi-0.dtd"
   xmlns:inkscape="http://www.inkscape.org/namespaces/inkscape"
   width="96"
   height="96"
   id="svg2"
   version="1.1"
   inkscape:version="0.48.4 r9939"
   sodipodi:docname="applications-science.svg">
  <defs
     id="defs4">
    <linearGradient
       id="linearGradient3914">
      <stop
         style="stop-color:#a96102;stop-opacity:1;"
         offset="0"
         id="stop3916" />
      <stop
         id="stop3922"
         offset="0.5"
         style="stop-color:#ffeeed;stop-opacity:1;" />
      <stop
         style="stop-color:#a86002;stop-opacity:1;"
         offset="1"
         id="stop3918" />
    </linearGradient>
    <linearGradient
       id="linearGradient3906">
      <stop
         style="stop-color:#dcdcdc;stop-opacity:1;"
         offset="0"
         id="stop3908" />
      <stop
         style="stop-color:#ff7400;stop-opacity:1;"
         offset="1"
         id="stop3910" />
    </linearGradient>
    <radialGradient
       inkscape:collect="always"
       xlink:href="#linearGradient3943"
       id="radialGradient3949"
       cx="130.29628"
       cy="980.51703"
       fx="130.29628"
       fy="980.51703"
       r="46.477013"
       gradientTransform="matrix(0.10205943,0.03401975,-0.10757989,0.32274001,-33.860017,676.47746)"
       gradientUnits="userSpaceOnUse"
       spreadMethod="repeat" />
    <linearGradient
       id="linearGradient3943">
      <stop
         style="stop-color:#ffc7af;stop-opacity:1;"
         offset="0"
         id="stop3945" />
      <stop
         style="stop-color:#858585;stop-opacity:1;"
         offset="1"
         id="stop3947" />
    </linearGradient>
    <linearGradient
       inkscape:collect="always"
       xlink:href="#linearGradient3914"
       id="linearGradient3985"
       gradientUnits="userSpaceOnUse"
       x1="10"
       y1="36"
       x2="30"
       y2="36" />
    <linearGradient
       inkscape:collect="always"
       xlink:href="#linearGradient3906"
       id="linearGradient3987"
       gradientUnits="userSpaceOnUse"
       x1="-10"
       y1="53"
       x2="53"
       y2="53"
       gradientTransform="matrix(1.333333,0,0,0.95890299,1.6666723,957.6362)" />
  </defs>
  <sodipodi:namedview
     id="base"
     pagecolor="#ffffff"
     bordercolor="#666666"
     borderopacity="1.0"
     inkscape:pageopacity="0.0"
     inkscape:pageshadow="2"
     inkscape:zoom="5.90625"
     inkscape:cx="-48.434733"
     inkscape:cy="48"
     inkscape:document-units="px"
     inkscape:current-layer="layer1"
     showgrid="true"
     inkscape:snap-page="true"
     inkscape:snap-global="true"
     inkscape:snap-center="true"
     inkscape:snap-object-midpoints="false"
     showguides="true"
     inkscape:guide-bbox="true"
     inkscape:snap-bbox="true"
     inkscape:object-paths="true"
     inkscape:object-nodes="true"
     inkscape:window-width="1305"
     inkscape:window-height="744"
     inkscape:window-x="61"
     inkscape:window-y="24"
     inkscape:window-maximized="1"
     inkscape:snap-midpoints="true"
     inkscape:snap-grids="true"
     inkscape:snap-to-guides="false">
    <inkscape:grid
       type="xygrid"
       id="grid3002"
       empspacing="5"
       visible="true"
       enabled="true"
       snapvisiblegridlinesonly="true" />
  </sodipodi:namedview>
  <metadata
     id="metadata7">
    <rdf:RDF>
      <cc:Work
         rdf:about="">
        <dc:format>image/svg+xml</dc:format>
        <dc:type
           rdf:resource="http://purl.org/dc/dcmitype/StillImage" />
        <dc:title />
      </cc:Work>
    </rdf:RDF>
  </metadata>
  <g
     inkscape:label="Layer 1"
     inkscape:groupmode="layer"
     id="layer1"
     transform="translate(0,-956.36218)">
    <rect
       style="fill:#ffffff;fill-opacity:0;fill-rule:nonzero;stroke:none"
       id="rect3775"
       width="96"
       height="96"
       x="0"
       y="956.36218"
       ry="0" />
    <path
       style="fill:#000000;fill-opacity:0.09589041;fill-rule:nonzero;stroke:none"
       d="m 3.353015,956.30662 c -1.884176,0 -3.4111555,1.43156 -3.4111555,3.19799 l 0,83.65949 c 0,1.7665 1.5269795,3.1981 3.4111555,3.1981 l 89.23583,0 c 1.884174,0 3.411155,-1.4316 3.411155,-3.1981 l 0,-83.65949 c 0,-1.76643 -1.526981,-3.19799 -3.411155,-3.19799 z"
       id="rect3772"
       inkscape:connector-curvature="0"
       sodipodi:nodetypes="sssssssss" />
    <path
       style="fill:#000000;fill-opacity:0.18721463;fill-rule:nonzero;stroke:none"
       d="m 1.0459761,1041.8066 0,7.4219 c 0,1.7392 1.461916,3.1337 3.2852054,3.1337 l 86.3836135,0 c 1.823288,0 3.285205,-1.3945 3.285205,-3.1337 l 0,-7.4219 -92.9540239,0 z"
       id="rect3785"
       inkscape:connector-curvature="0" />
    <path
       style="fill:#000000;fill-opacity:0.38356168;fill-rule:nonzero;stroke:none"
       d="m 1.0459761,1041.8066 0,5.3807 c 0,1.762 1.461916,3.1749 3.2852054,3.1749 l 86.3836135,0 c 1.823288,0 3.285205,-1.4129 3.285205,-3.1749 l 0,-5.3807 -92.9540239,0 z"
       id="rect3783"
       inkscape:connector-curvature="0" />
    <rect
       style="fill:#dd7500;fill-opacity:1;fill-rule:nonzero;stroke:none"
       id="rect2985"
       width="92.954025"
       height="89"
       x="1.045977"
       y="957.36218"
       ry="3.1511393" />
    <path
       style="fill:#000000;fill-opacity:0.38356168;fill-rule:nonzero;stroke:none"
       d="m 1,1042.3622 0.045976,2.7457 c 0.03024,1.8058 1.461916,3.2543 3.2852054,3.2543 l 86.3836136,0 c 1.823288,0 3.285205,-1.4481 3.285205,-3.2543 l -0.04598,-2.7457 z"
       id="rect3781"
       inkscape:connector-curvature="0"
       sodipodi:nodetypes="csssscc" />
    <rect
       style="fill:#ffffff;fill-opacity:0.15686275;fill-rule:nonzero;stroke:none"
       id="rect3770"
       width="92.954033"
       height="2.000005"
       x="1.045976"
       y="1040.3622" />
    <path
       style="fill:#000000;fill-opacity:0.40182651;fill-rule:evenodd;stroke:none"
       d="M 49.65625 90 L 90.84375 90 C 90.929371 90 90.978642 89.912886 91.0625 89.90625 L 55 59 L 17 62 L 49.65625 90 z "
       id="rect3989"
       transform="translate(0,956.36218)" />
    <path
       style="fill:url(#linearGradient3987);fill-opacity:1;fill-rule:evenodd;stroke:none"
       d="m 15.000003,994.0745 0,21.0959 c 0,3.9719 8.954305,7.1918 19.999996,7.1918 11.045693,0 19.999998,-3.2199 19.999998,-7.1918 l 0,-21.0959 -39.999994,0 z"
       id="rect3901"
       inkscape:connector-curvature="0" />
    <rect
       y="957.36218"
       x="25"
       height="42.999992"
       width="20"
       id="rect3999"
       style="fill:#ffffff;fill-opacity:0.09722224;fill-rule:evenodd;stroke:none" />
    <path
       sodipodi:type="arc"
       style="fill:#f2ce68;fill-opacity:1;fill-rule:evenodd;stroke:none"
       id="path3129"
       sodipodi:cx="20"
       sodipodi:cy="36"
       sodipodi:rx="10"
       sodipodi:ry="5"
       d="m 30,36 a 10,5 0 1 1 -20,0 10,5 0 1 1 20,0 z"
       transform="matrix(1.9999996,0,0,1.4383545,-4.9999933,942.77319)" />
    <rect
       style="fill:#ffffff;fill-opacity:0.22222224;fill-rule:evenodd;stroke:none"
       id="rect4001"
       width="10"
       height="42.999996"
       x="30"
       y="957.36218" />
    <path
       transform="matrix(1.5999998,0,0,1.0547933,3.0000053,956.5814)"
       d="m 30,36 a 10,5 0 1 1 -20,0 10,5 0 1 1 20,0 z"
       sodipodi:ry="5"
       sodipodi:rx="10"
       sodipodi:cy="36"
       sodipodi:cx="20"
       id="path3131"
       style="fill:url(#linearGradient3985);fill-opacity:1;fill-rule:evenodd;stroke:none"
       sodipodi:type="arc" />
    <rect
       y="957.36218"
       x="33"
       height="43.000008"
       width="4"
       id="rect4003"
       style="fill:#ffffff;fill-opacity:0.29166666;fill-rule:evenodd;stroke:none" />
    <path
       style="fill:#ffffff;fill-opacity:0.23287671;fill-rule:evenodd;stroke:none"
       d="m 34.999999,987.36218 c -11.045691,0 -19.999996,3.21986 -19.999996,7.19177 0,0.0797 0.0345,0.16063 0.04167,0.23973 0.30734,-3.87531 9.106902,-6.98201 19.95833,-6.98201 10.851426,0 19.650989,3.1067 19.958329,6.98201 0.0072,-0.0791 0.04167,-0.16 0.04167,-0.23973 0,-3.97191 -8.954303,-7.19177 -19.999996,-7.19177 z"
       id="path3938"
       inkscape:connector-curvature="0" />
    <path
       style="fill:#000000;fill-opacity:0.40182651;fill-rule:evenodd;stroke:none"
       d="m 15.041671,994.31423 c -0.0072,0.0791 -0.04167,0.16 -0.04167,0.23972 0,3.97193 8.954304,7.19175 19.999996,7.19175 11.045693,0 19.999997,-3.21982 19.999997,-7.19175 0,-0.0797 -0.0345,-0.16062 -0.04167,-0.23972 -0.307342,3.87531 -9.106903,6.98197 -19.958331,6.98197 -10.851428,0 -19.650988,-3.10666 -19.958329,-6.98197 z"
       id="path3943"
       inkscape:connector-curvature="0" />
    <path
       style="fill:#ffffff;fill-opacity:0.09722224;fill-rule:evenodd;stroke:none"
       d="M 19 1 L 19 38.1875 C 17.684394 49.480355 51 49.480355 51 38.1875 L 51 1 L 19 1 z M 33.375 32.9375 C 32.299254 32.973511 31.252015 33.05352 30.25 33.15625 C 28.746978 33.310345 27.339308 33.528169 26.0625 33.8125 C 27.339308 33.527529 28.746978 33.310761 30.25 33.15625 C 31.252015 33.053243 32.299254 32.973617 33.375 32.9375 z M 36.625 32.9375 C 37.700746 32.973617 38.747985 33.053243 39.75 33.15625 C 41.253022 33.310761 42.660692 33.527529 43.9375 33.8125 C 42.660692 33.528169 41.253022 33.310345 39.75 33.15625 C 38.747985 33.05352 37.700746 32.973511 36.625 32.9375 z "
       transform="translate(0,956.36218)"
       id="rect3997" />
  </g>
</svg>
