<?xml version="1.0" encoding="UTF-8" standalone="no"?>
<!-- Created with Inkscape (http://www.inkscape.org/) -->

<svg
   xmlns:dc="http://purl.org/dc/elements/1.1/"
   xmlns:cc="http://creativecommons.org/ns#"
   xmlns:rdf="http://www.w3.org/1999/02/22-rdf-syntax-ns#"
   xmlns:svg="http://www.w3.org/2000/svg"
   xmlns="http://www.w3.org/2000/svg"
   xmlns:sodipodi="http://sodipodi.sourceforge.net/DTD/sodipodi-0.dtd"
   xmlns:inkscape="http://www.inkscape.org/namespaces/inkscape"
   width="96"
   height="96"
   id="svg2"
   version="1.1"
   inkscape:version="0.48.4 r9939"
   sodipodi:docname="applications-internet.svg">
  <defs
     id="defs4" />
  <sodipodi:namedview
     id="base"
     pagecolor="#ffffff"
     bordercolor="#666666"
     borderopacity="1.0"
     inkscape:pageopacity="0.0"
     inkscape:pageshadow="2"
     inkscape:zoom="5.90625"
     inkscape:cx="46.573423"
     inkscape:cy="48"
     inkscape:document-units="px"
     inkscape:current-layer="layer1"
     showgrid="true"
     inkscape:snap-page="true"
     inkscape:snap-global="true"
     inkscape:snap-center="true"
     inkscape:snap-object-midpoints="false"
     showguides="true"
     inkscape:guide-bbox="true"
     inkscape:snap-bbox="true"
     inkscape:object-paths="true"
     inkscape:object-nodes="true"
     inkscape:window-width="1305"
     inkscape:window-height="744"
     inkscape:window-x="61"
     inkscape:window-y="24"
     inkscape:window-maximized="1"
     inkscape:snap-midpoints="false"
     inkscape:snap-grids="true"
     inkscape:snap-to-guides="false">
    <inkscape:grid
       type="xygrid"
       id="grid3002"
       empspacing="5"
       visible="true"
       enabled="true"
       snapvisiblegridlinesonly="true" />
  </sodipodi:namedview>
  <metadata
     id="metadata7">
    <rdf:RDF>
      <cc:Work
         rdf:about="">
        <dc:format>image/svg+xml</dc:format>
        <dc:type
           rdf:resource="http://purl.org/dc/dcmitype/StillImage" />
        <dc:title />
      </cc:Work>
    </rdf:RDF>
  </metadata>
  <g
     inkscape:label="Layer 1"
     inkscape:groupmode="layer"
     id="layer1"
     transform="translate(0,-956.36218)">
    <rect
       style="fill:#ffffff;fill-opacity:0;fill-rule:nonzero;stroke:none"
       id="rect3775"
       width="96"
       height="96"
       x="0"
       y="956.36218"
       ry="0" />
    <path
       style="fill:#000000;fill-opacity:0.09589041;fill-rule:nonzero;stroke:none"
       d="m 3.353015,956.30662 c -1.884176,0 -3.4111555,1.43156 -3.4111555,3.19799 l 0,83.65949 c 0,1.7665 1.5269795,3.1981 3.4111555,3.1981 l 89.23583,0 c 1.884174,0 3.411155,-1.4316 3.411155,-3.1981 l 0,-83.65949 c 0,-1.76643 -1.526981,-3.19799 -3.411155,-3.19799 z"
       id="rect3772"
       inkscape:connector-curvature="0"
       sodipodi:nodetypes="sssssssss" />
    <path
       style="fill:#000000;fill-opacity:0.18721463;fill-rule:nonzero;stroke:none"
       d="m 1.0459761,1041.8066 0,7.4219 c 0,1.7392 1.461916,3.1337 3.2852054,3.1337 l 86.3836135,0 c 1.823288,0 3.285205,-1.3945 3.285205,-3.1337 l 0,-7.4219 -92.9540239,0 z"
       id="rect3785"
       inkscape:connector-curvature="0" />
    <path
       style="fill:#000000;fill-opacity:0.38356168;fill-rule:nonzero;stroke:none"
       d="m 1.0459761,1041.8066 0,5.3807 c 0,1.762 1.461916,3.1749 3.2852054,3.1749 l 86.3836135,0 c 1.823288,0 3.285205,-1.4129 3.285205,-3.1749 l 0,-5.3807 -92.9540239,0 z"
       id="rect3783"
       inkscape:connector-curvature="0" />
    <rect
       style="fill:#00173a;fill-opacity:1;fill-rule:nonzero;stroke:none"
       id="rect2985-2"
       width="93"
       height="88.999962"
       x="0.9999969"
       y="957.36224"
       ry="3.1511383" />
    <g
       transform="matrix(1.1071429,0,0,1.0595234,-5.6428605,-62.283009)"
       id="g3775"
       style="fill:#040025;fill-opacity:1">
      <path
         transform="translate(0,956.36218)"
         id="path3773"
         d="m 6,73.59375 9.90625,-12.21875 -3.5625,-5.09375 2.34375,-16 4.0625,-2.09375 2.1875,-3.8125 -5.1875,-3 0.40625,-5.75 L 13,24.1875 6.09375,12.21875 6,11.625 6,73.59375 z"
         style="fill:#040025;fill-opacity:1;stroke:none"
         inkscape:connector-curvature="0" />
      <path
         transform="translate(0,956.36218)"
         id="path3765"
         d="m 90,48.59375 0,-39.625 C 90,8.1449218 89.66257,7.4125702 89.125,6.875 88.58743,6.3374298 87.855078,6 87.03125,6 l -39.625,0 -1.4375,2.4375 -2,-1.5625 -3.3125,0.84375 -1.21875,3.25 -7.65625,1.40625 -1.375,5.75 -2.5,-1.40625 -0.25,-4.6875 -8.125,-4.78125 -6,3.875 1.25,4.75 1.375,0.84375 4.0625,-0.1875 1.21875,2.28125 -3.09375,3.625 2.75,2.09375 -1.84375,5.09375 5.09375,2.96875 6.40625,0.84375 2.75,3.53125 6.71875,4.25 -2.09375,4.8125 5.40625,3.25 -2.34375,5.6875 3.9375,2.25 5.78125,12.40625 -4.75,1.84375 L 41.625,77.6875 6.65625,88.625 c 0.103703,0.151342 0.08948,0.37073 0.21875,0.5 C 7.4125702,89.66257 8.1449218,90 8.96875,90 l 78.0625,0 c 0.823828,0 1.55618,-0.33743 2.09375,-0.875 0.232339,-0.232339 0.229751,-0.607111 0.375,-0.90625 L 88.625,83.6875 90,83.59375 90,80.125 l -1.5625,-3.09375 -9.875,-6.3125 -2.90625,-8.75 6.21875,-11.75 8.125,-1.625 z m -56.1875,-31.375 0.65625,5.90625 -2,-3.34375 1.34375,-2.5625 z m -7.125,1.15625 4.78125,4.90625 -2.125,1.9375 -4.875,-4.59375 2.21875,-2.25 z m 6.65625,7.5 7.6875,10.5 -2.125,-0.25 -7.28125,-8.75 1.71875,-1.5 z"
         style="fill:#040025;fill-opacity:1;stroke:none"
         inkscape:connector-curvature="0" />
    </g>
    <path
       style="fill:#000000;fill-opacity:0.38356168;fill-rule:nonzero;stroke:none"
       d="m 1,1042.3622 0.045976,2.7457 c 0.03024,1.8058 1.461916,3.2543 3.2852054,3.2543 l 86.3836136,0 c 1.823288,0 3.285205,-1.4481 3.285205,-3.2543 l -0.04598,-2.7457 z"
       id="rect3781"
       inkscape:connector-curvature="0"
       sodipodi:nodetypes="csssscc" />
    <rect
       style="fill:#ffffff;fill-opacity:0.30000001;fill-rule:nonzero;stroke:none"
       id="rect3770"
       width="92.954033"
       height="2.000005"
       x="1.045976"
       y="1040.3622" />
    <path
       style="fill:#97ff00;fill-opacity:0.98148149;fill-rule:evenodd;stroke:none"
       d="m 47.662315,964.99335 c -18.777509,0 -33.999688,15.22179 -33.999688,33.99995 0,18.7768 15.222179,34 33.999688,34 18.777509,0 33.999688,-15.2232 33.999688,-34 0,-18.77816 -15.222179,-33.99995 -33.999688,-33.99995 z m 0,6.80068 c 0.812906,0 1.595837,0.0884 2.3906,0.1564 -1.63,0.2312 -3.483291,-0.068 -5.153071,0 0.914368,-0.0884 1.823596,-0.1564 2.762471,-0.1564 z m -4.568707,0.4216 c -0.412827,0.1224 -0.822629,0.2788 -1.168742,0.5304 1.755263,0.99551 -4.7965,0.51 -1.115614,0.95743 0.34374,0.068 3.247066,0.1496 0.956242,-0.26519 1.195093,0.46919 6.593406,-2.13384 3.346843,-0.5304 -1.084885,0.2448 2.630136,1.27023 1.328114,2.23107 -1.296073,1.27364 0.53482,4.3452 1.646857,1.4348 2.39672,-0.442 4.334549,-2.78732 5.312449,-4.19695 5.920056,1.27363 11.128493,4.48663 14.927997,8.92499 -0.244867,0 -0.495039,-0.068 -0.690621,-0.1564 -1.438321,0.4692 -2.720855,1.41372 -3.506214,1.48716 1.259462,3.58768 -0.768046,-2.40312 -0.903128,0.7446 -1.868781,1.55652 0.834455,4.95448 0,5.31216 -3.212535,-1.05672 1.445156,7.04683 -1.434357,3.34695 -1.754915,-2.09643 -2.133641,0.4284 -4.409335,-0.1632 -1.439001,2.32628 3.154661,0.374 1.381243,3.34696 1.156618,1.54159 1.872209,8.00699 4.621828,4.62199 2.099533,-0.5984 1.036462,-3.94131 -0.531216,-2.6568 -2.266112,-3.44419 1.985993,0.8677 3.399964,-0.068 2.188014,0.3264 1.270559,5.6032 3.346842,4.6743 -0.114987,-2.7111 2.565476,-5.272 3.506221,-1.8591 0.5729,0.5712 0.924684,2.7214 1.328114,3.878 -2.28796,12.7072 -13.408708,22.3659 -26.77476,22.3659 -15.022007,0 -27.199746,-12.1781 -27.199746,-27.2 0,-4.72121 1.231276,-9.14596 3.34685,-13.01516 2.687916,0.3536 1.295331,3.94672 0.849992,6.48107 0.02652,1.4314 2.006951,7.36099 1.115608,3.08108 0.439483,-0.83844 1.185076,5.02651 3.346849,4.51521 1.480094,0.2108 4.343681,4.5886 2.6031,1.1689 0.614515,-1.5708 -2.007944,-1.139 -0.584392,-3.0287 -2.451283,2.7166 -3.096113,-2.59761 -0.371892,-2.76217 1.266139,-0.96084 1.613612,0.3808 2.284357,1.32807 0.459816,-2.88051 2.695552,-5.54815 5.046821,-6.05611 2.269349,-0.46919 -2.309571,-1.68231 0.690614,-1.80607 1.983171,-1.44092 -0.239496,2.14811 1.806242,0.74324 -0.436627,-1.19748 -0.299607,-3.99296 -1.753107,-3.87668 -1.677164,-2.80568 -2.882953,5.35839 -3.984342,1.32668 -2.345611,-2.3698 2.563796,-1.82988 2.6031,-3.18648 1.173067,-1.01864 1.503248,-0.75888 1.859364,-0.2108 -1.904638,0.71468 -0.501976,1.10568 0.584391,1.75304 -0.826444,-1.52592 2.363373,-0.84728 0.584392,-2.55 -1.497196,-1.70748 -3.080106,-0.7684 -3.665599,0.79696 -0.05508,-1.50076 0.945301,-2.49492 -0.796864,-0.95608 -1.23505,0.969 -2.883056,1.0064 -1.009371,-0.1564 -0.0059,-0.6732 -2.050662,-0.4964 -2.603093,-0.7446 -1.558757,0.88128 0.834964,0.7888 0.584391,1.54088 1.538071,0.5032 -2.103028,-0.5236 -2.974977,-0.4216 -1.345216,0.1496 -2.776459,-0.2448 -4.1437,-0.2176 4.089524,-5.46856 10.198484,-9.32551 17.212333,-10.51823 z m 11.63427,9.61519 c -1.320192,0.204 -3.588528,1.9448 -3.293728,3.4 1.225876,0.238 1.146303,0.98804 0.265608,0.79628 -0.167756,1.91216 -3.073632,2.0128 -2.603099,3.66588 -2.875107,0.93907 0.141099,4.53899 1.062492,1.27499 0.974249,-2.44051 3.698572,0.7276 2.868714,1.06352 2.072367,-0.3808 -1.744586,-3.45983 0.425,-1.80675 0.680387,1.48171 1.817809,2.97635 1.646864,0.79695 1.235253,0.102 0.972712,-2.84511 2.549978,-1.22195 1.321545,0.068 3.188484,2.38067 2.49685,-0.79696 0.07405,-2.05768 3.645702,-0.79696 1.168729,-2.76216 0.100572,-1.81968 0.179112,-5.4332 -1.168729,-3.77196 -0.500684,-0.0816 -1.807072,0.3196 -2.656221,0.6392 -0.622132,-1.05672 -1.856732,-0.901 -2.762478,-1.275 z m -1.965614,11.74087 c -3.138443,-0.2992 -5.880351,2.73831 -6.056198,6.64021 -0.591804,3.9351 3.3345,4.0501 5.418699,3.8773 1.573335,2.8676 1.075657,6.4532 1.434371,9.7757 0.139671,3.4693 3.008195,3.9161 4.249963,0.7963 0.905678,-2.6636 2.272572,-4.7301 1.9656,-8.0213 1.183193,-1.1771 4.150935,-5.2822 0.903121,-4.5682 -1.830253,-2.0754 -2.279243,-8.87741 -5.737442,-6.26893 -1.378584,-0.5372 -1.65994,-1.3158 -2.178114,-2.23108 z m -18.327947,7.49021 c -2.217765,0.7011 -1.096479,2.8097 -2.284357,4.6219 0.175916,3.823 4.004253,6.1826 2.815593,10.678 0.622336,2.5283 -0.03604,3.4612 1.381242,5.7372 0.756622,1.3892 2.981078,0.9534 1.168736,-0.2652 -0.56848,-2.2794 -0.277372,-3.5856 1.009371,-4.9409 -0.388008,-0.5372 1.651155,-1.7108 1.487479,-3.2939 2.611402,-1.5837 3.940414,-8.2042 -0.159324,-8.181 -1.122761,-2.4882 -3.344911,-3.6972 -5.418693,-4.3554 z m 40.002751,0.3196 c 0.0646,-0.068 0.148716,0.068 0.26554,0.102 -0.04556,0.51 -0.08656,0.9948 -0.159324,1.4878 -0.238748,-0.7371 -0.34,-1.4463 -0.106216,-1.5946 z m -12.165512,7.8091 c -1.642879,0.6528 -1.905488,6.3852 -0.2125,2.8689 0.19788,-0.8065 0.848374,-2.3589 0.2125,-2.8689 z"
       id="path3002"
       inkscape:connector-curvature="0" />
  </g>
</svg>
