<?xml version="1.0" encoding="UTF-8" standalone="no"?>
<!-- Created with Inkscape (http://www.inkscape.org/) -->

<svg
   xmlns:dc="http://purl.org/dc/elements/1.1/"
   xmlns:cc="http://creativecommons.org/ns#"
   xmlns:rdf="http://www.w3.org/1999/02/22-rdf-syntax-ns#"
   xmlns:svg="http://www.w3.org/2000/svg"
   xmlns="http://www.w3.org/2000/svg"
   xmlns:xlink="http://www.w3.org/1999/xlink"
   xmlns:sodipodi="http://sodipodi.sourceforge.net/DTD/sodipodi-0.dtd"
   xmlns:inkscape="http://www.inkscape.org/namespaces/inkscape"
   width="96"
   height="96"
   id="svg2"
   version="1.1"
   inkscape:version="0.48.4 r9939"
   sodipodi:docname="applications-multimedia.svg">
  <defs
     id="defs4">
    <linearGradient
       id="linearGradient3781">
      <stop
         style="stop-color:#9cff00;stop-opacity:1;"
         offset="0"
         id="stop3783" />
      <stop
         style="stop-color:#ff0078;stop-opacity:1;"
         offset="1"
         id="stop3785" />
    </linearGradient>
    <linearGradient
       id="linearGradient3773">
      <stop
         style="stop-color:#000e24;stop-opacity:1;"
         offset="0"
         id="stop3775" />
      <stop
         style="stop-color:#500058;stop-opacity:1;"
         offset="1"
         id="stop3777" />
    </linearGradient>
    <linearGradient
       inkscape:collect="always"
       xlink:href="#linearGradient3773"
       id="linearGradient3779"
       x1="5.045979"
       y1="962.36218"
       x2="90.045982"
       y2="1037.3622"
       gradientUnits="userSpaceOnUse"
       gradientTransform="translate(-95.045979,0)" />
    <linearGradient
       inkscape:collect="always"
       xlink:href="#linearGradient3781"
       id="linearGradient3791"
       gradientUnits="userSpaceOnUse"
       x1="40"
       y1="987.36218"
       x2="40"
       y2="1012.3622"
       gradientTransform="matrix(0.98928433,0,0,0.98181747,0.42862679,18.180013)" />
  </defs>
  <sodipodi:namedview
     id="base"
     pagecolor="#ffffff"
     bordercolor="#666666"
     borderopacity="1.0"
     inkscape:pageopacity="0.0"
     inkscape:pageshadow="2"
     inkscape:zoom="4.1763494"
     inkscape:cx="48"
     inkscape:cy="48"
     inkscape:document-units="px"
     inkscape:current-layer="layer1"
     showgrid="true"
     inkscape:snap-page="true"
     inkscape:snap-global="true"
     inkscape:snap-center="true"
     inkscape:snap-object-midpoints="false"
     showguides="true"
     inkscape:guide-bbox="true"
     inkscape:snap-bbox="true"
     inkscape:object-paths="true"
     inkscape:object-nodes="true"
     inkscape:window-width="1305"
     inkscape:window-height="744"
     inkscape:window-x="61"
     inkscape:window-y="24"
     inkscape:window-maximized="1"
     inkscape:snap-midpoints="true"
     inkscape:snap-grids="true"
     inkscape:snap-to-guides="false">
    <inkscape:grid
       type="xygrid"
       id="grid3002"
       empspacing="5"
       visible="true"
       enabled="true"
       snapvisiblegridlinesonly="true" />
  </sodipodi:namedview>
  <metadata
     id="metadata7">
    <rdf:RDF>
      <cc:Work
         rdf:about="">
        <dc:format>image/svg+xml</dc:format>
        <dc:type
           rdf:resource="http://purl.org/dc/dcmitype/StillImage" />
        <dc:title />
      </cc:Work>
    </rdf:RDF>
  </metadata>
  <g
     inkscape:label="Layer 1"
     inkscape:groupmode="layer"
     id="layer1"
     transform="translate(0,-956.36218)">
    <rect
       style="fill:#ffffff;fill-opacity:0;fill-rule:nonzero;stroke:none"
       id="rect3775"
       width="96"
       height="96"
       x="0"
       y="956.36218"
       ry="0" />
    <path
       style="fill:#000000;fill-opacity:0.09589041;fill-rule:nonzero;stroke:none"
       d="m 3.353015,956.30662 c -1.884176,0 -3.4111555,1.43156 -3.4111555,3.19799 l 0,83.65949 c 0,1.7665 1.5269795,3.1981 3.4111555,3.1981 l 89.23583,0 c 1.884174,0 3.411155,-1.4316 3.411155,-3.1981 l 0,-83.65949 c 0,-1.76643 -1.526981,-3.19799 -3.411155,-3.19799 z"
       id="rect3772"
       inkscape:connector-curvature="0"
       sodipodi:nodetypes="sssssssss" />
    <path
       style="fill:#000000;fill-opacity:0.18721463;fill-rule:nonzero;stroke:none"
       d="m 1.0459761,1041.8066 0,7.4219 c 0,1.7392 1.461916,3.1337 3.2852054,3.1337 l 86.3836135,0 c 1.823288,0 3.285205,-1.3945 3.285205,-3.1337 l 0,-7.4219 -92.9540239,0 z"
       id="rect3785"
       inkscape:connector-curvature="0" />
    <path
       style="fill:#000000;fill-opacity:0.38356168;fill-rule:nonzero;stroke:none"
       d="m 1.0459761,1041.8066 0,5.3807 c 0,1.762 1.461916,3.1749 3.2852054,3.1749 l 86.3836135,0 c 1.823288,0 3.285205,-1.4129 3.285205,-3.1749 l 0,-5.3807 -92.9540239,0 z"
       id="rect3783"
       inkscape:connector-curvature="0" />
    <rect
       style="fill:url(#linearGradient3779);fill-opacity:1;fill-rule:nonzero;stroke:none"
       id="rect2985"
       width="92.954025"
       height="89"
       x="-94"
       y="957.36218"
       ry="3.1511393"
       transform="scale(-1,1)" />
    <path
       style="fill:#00bce2;fill-opacity:0.1415525;fill-rule:nonzero;stroke:none"
       d="M 31.40625 1 L 4.1875 1 C 3.3146344 1 2.5383184 1.3366816 1.96875 1.90625 C 1.3991816 2.4758184 1.03125 3.2833844 1.03125 4.15625 L 1.03125 4.75 C 3.9379343 4.1198863 6.9360866 3.75 10.03125 3.75 C 33.408294 3.75 52.375 22.67641 52.375 46.03125 C 52.375 69.38615 33.408294 88.3125 10.03125 88.3125 C 7.0188782 88.3125 4.0846968 87.972688 1.25 87.375 C 1.3709361 88.005824 1.533429 88.658429 1.96875 89.09375 C 2.5383184 89.663318 3.3146344 90 4.1875 90 L 33.3125 90 C 49.145766 81.610107 60.0625 65.184097 60.0625 46.03125 C 60.0625 26.103151 48.29569 9.025106 31.40625 1 z "
       id="path3780"
       transform="translate(0,956.36218)" />
    <path
       style="fill:url(#linearGradient3791);fill-opacity:1;fill-rule:evenodd;stroke:none"
       d="m 40,986.36218 0,27.00002 23,-13.5 z"
       id="rect3774"
       inkscape:connector-curvature="0"
       sodipodi:nodetypes="cccc" />
    <path
       sodipodi:nodetypes="cccc"
       inkscape:connector-curvature="0"
       id="path3793"
       d="m 40,986.36218 0,27.00002 7,-13.5 z"
       style="fill:#090a06;fill-opacity:0.28767126;fill-rule:evenodd;stroke:none" />
    <path
       style="fill:#000000;fill-opacity:0.24200913;fill-rule:evenodd;stroke:none"
       d="M 25,1 4.1875,1 C 3.3146344,1 2.5383184,1.3366816 1.96875,1.90625 c -0.5695684,0.5695684 -0.9375,1.3771344 -0.9375,2.25 l 0,82.6875 c 0,0.872866 0.3679316,1.680432 0.9375,2.25 C 2.5383184,89.663318 3.3146344,90 4.1875,90 L 25,90 z"
       id="path3000"
       transform="translate(0,956.36218)"
       inkscape:connector-curvature="0"
       sodipodi:nodetypes="csssssscc" />
    <rect
       style="opacity:0.80000000000000004;fill:#120000;fill-opacity:0.55251139;fill-rule:evenodd;stroke:none"
       id="rect3001"
       width="10"
       height="10"
       x="10"
       y="11"
       transform="translate(0,956.36218)"
       ry="3.1511393" />
    <rect
       ry="3.1511393"
       y="987.36218"
       x="10"
       height="10"
       width="10"
       id="rect3771"
       style="opacity:0.8;fill:#120000;fill-opacity:0.55251142;fill-rule:evenodd;stroke:none" />
    <rect
       style="opacity:0.8;fill:#120000;fill-opacity:0.55251142;fill-rule:evenodd;stroke:none"
       id="rect3773"
       width="10"
       height="10"
       x="10"
       y="1007.3622"
       ry="3.1511393" />
    <rect
       ry="3.1511393"
       y="1027.3622"
       x="10"
       height="10"
       width="10"
       id="rect3776"
       style="opacity:0.8;fill:#120000;fill-opacity:0.55251142;fill-rule:evenodd;stroke:none" />
    <path
       style="fill:#84ff00;fill-opacity:1;fill-rule:nonzero;stroke:none;opacity:1"
       d="M 47.526279,1027.3622 C 32.323936,1027.3622 20,1015.05 20,999.86219 c 0,-15.18785 12.323936,-27.50001 27.526279,-27.50001 15.202344,0 27.52628,12.31216 27.52628,27.50001 0,15.18771 -12.323936,27.50001 -27.526279,27.50001 z m 0,-4.2309 c 12.863523,0 23.299031,-10.4178 23.299031,-23.26911 0,-12.85129 -10.435508,-23.26932 -23.299031,-23.26932 -12.863522,0 -23.299029,10.41803 -23.299029,23.26932 0,12.85131 10.435507,23.26911 23.299029,23.26911 z"
       id="path3770"
       inkscape:connector-curvature="0" />
    <path
       style="fill:#000000;fill-opacity:0.38356168;fill-rule:nonzero;stroke:none"
       d="m 1,1042.3622 0.045976,2.7457 c 0.03024,1.8058 1.461916,3.2543 3.2852054,3.2543 l 86.3836136,0 c 1.823288,0 3.285205,-1.4481 3.285205,-3.2543 l -0.04598,-2.7457 z"
       id="rect3781"
       inkscape:connector-curvature="0"
       sodipodi:nodetypes="csssscc" />
    <rect
       style="fill:#ffffff;fill-opacity:0.15686275;fill-rule:nonzero;stroke:none"
       id="rect3770"
       width="92.954033"
       height="2.000005"
       x="1.045976"
       y="1040.3622" />
  </g>
</svg>
