<?xml version="1.0" encoding="UTF-8" standalone="no"?>
<!-- Created with Inkscape (http://www.inkscape.org/) -->

<svg
   xmlns:dc="http://purl.org/dc/elements/1.1/"
   xmlns:cc="http://creativecommons.org/ns#"
   xmlns:rdf="http://www.w3.org/1999/02/22-rdf-syntax-ns#"
   xmlns:svg="http://www.w3.org/2000/svg"
   xmlns="http://www.w3.org/2000/svg"
   xmlns:sodipodi="http://sodipodi.sourceforge.net/DTD/sodipodi-0.dtd"
   xmlns:inkscape="http://www.inkscape.org/namespaces/inkscape"
   width="96"
   height="96"
   id="svg2"
   version="1.1"
   inkscape:version="0.48.4 r9939"
   sodipodi:docname="applications-boardgames.svg">
  <defs
     id="defs4" />
  <sodipodi:namedview
     id="base"
     pagecolor="#ffffff"
     bordercolor="#666666"
     borderopacity="1.0"
     inkscape:pageopacity="0.0"
     inkscape:pageshadow="2"
     inkscape:zoom="5.90625"
     inkscape:cx="48"
     inkscape:cy="48"
     inkscape:document-units="px"
     inkscape:current-layer="layer1"
     showgrid="true"
     inkscape:snap-page="true"
     inkscape:snap-global="true"
     inkscape:snap-center="true"
     inkscape:snap-object-midpoints="false"
     showguides="true"
     inkscape:guide-bbox="true"
     inkscape:snap-bbox="true"
     inkscape:object-paths="true"
     inkscape:object-nodes="true"
     inkscape:window-width="1305"
     inkscape:window-height="744"
     inkscape:window-x="61"
     inkscape:window-y="24"
     inkscape:window-maximized="1"
     inkscape:snap-midpoints="true"
     inkscape:snap-grids="true"
     inkscape:snap-to-guides="false"
     inkscape:snap-nodes="true">
    <inkscape:grid
       type="xygrid"
       id="grid3002"
       empspacing="5"
       visible="true"
       enabled="true"
       snapvisiblegridlinesonly="true" />
  </sodipodi:namedview>
  <metadata
     id="metadata7">
    <rdf:RDF>
      <cc:Work
         rdf:about="">
        <dc:format>image/svg+xml</dc:format>
        <dc:type
           rdf:resource="http://purl.org/dc/dcmitype/StillImage" />
        <dc:title />
      </cc:Work>
    </rdf:RDF>
  </metadata>
  <g
     inkscape:label="Layer 1"
     inkscape:groupmode="layer"
     id="layer1"
     transform="translate(0,-956.36218)">
    <rect
       style="fill:#ffffff;fill-opacity:0;fill-rule:nonzero;stroke:none"
       id="rect3775"
       width="96"
       height="96"
       x="0"
       y="956.36218"
       ry="0" />
    <path
       style="fill:#000000;fill-opacity:0.09589041;fill-rule:nonzero;stroke:none"
       d="m 3.353015,956.30662 c -1.884176,0 -3.4111555,1.43156 -3.4111555,3.19799 l 0,83.65949 c 0,1.7665 1.5269795,3.1981 3.4111555,3.1981 l 89.23583,0 c 1.884174,0 3.411155,-1.4316 3.411155,-3.1981 l 0,-83.65949 c 0,-1.76643 -1.526981,-3.19799 -3.411155,-3.19799 z"
       id="rect3772"
       inkscape:connector-curvature="0"
       sodipodi:nodetypes="sssssssss" />
    <path
       style="fill:#000000;fill-opacity:0.18721463;fill-rule:nonzero;stroke:none"
       d="m 1.0459761,1041.8066 0,7.4219 c 0,1.7392 1.461916,3.1337 3.2852054,3.1337 l 86.3836135,0 c 1.823288,0 3.285205,-1.3945 3.285205,-3.1337 l 0,-7.4219 -92.9540239,0 z"
       id="rect3785"
       inkscape:connector-curvature="0" />
    <path
       style="fill:#000000;fill-opacity:0.38356168;fill-rule:nonzero;stroke:none"
       d="m 1.0459761,1041.8066 0,5.3807 c 0,1.762 1.461916,3.1749 3.2852054,3.1749 l 86.3836135,0 c 1.823288,0 3.285205,-1.4129 3.285205,-3.1749 l 0,-5.3807 -92.9540239,0 z"
       id="rect3783"
       inkscape:connector-curvature="0" />
    <rect
       style="fill:#262626;fill-opacity:1;fill-rule:nonzero;stroke:none"
       id="rect2985"
       width="92.954025"
       height="89"
       x="1.045977"
       y="957.36218"
       ry="3.1511393" />
    <path
       style="fill:#000000;fill-opacity:0.38356168;fill-rule:nonzero;stroke:none"
       d="m 1,1042.3622 0.045976,2.7457 c 0.03024,1.8058 1.461916,3.2543 3.2852054,3.2543 l 86.3836136,0 c 1.823288,0 3.285205,-1.4481 3.285205,-3.2543 l -0.04598,-2.7457 z"
       id="rect3781"
       inkscape:connector-curvature="0"
       sodipodi:nodetypes="csssscc" />
    <rect
       style="fill:#ffffff;fill-opacity:0.30000001;fill-rule:nonzero;stroke:none"
       id="rect3770"
       width="92.954033"
       height="2.000005"
       x="1.045976"
       y="1040.3622" />
    <path
       style="fill:#00a3dd;fill-opacity:1;fill-rule:evenodd;stroke:none"
       d="M 65 51 L 65 61 L 55 61 L 45 61 L 45 71 L 35 71 L 35 61 L 25 61 L 15 61 L 5 61 L 5 71 L 5 81 L 15 81 L 25 81 L 35 81 L 45 81 L 55 81 L 65 81 L 75 81 L 85 81 L 85 71 L 85 61 L 85 51 L 75 51 L 65 51 z M 67 53 L 73 53 L 73 59 L 67 59 L 67 53 z M 77 53 L 83 53 L 83 59 L 77 59 L 77 53 z M 7 63 L 13 63 L 13 69 L 7 69 L 7 63 z M 17 63 L 23 63 L 23 69 L 17 69 L 17 63 z M 27 63 L 33 63 L 33 69 L 27 69 L 27 63 z M 47 63 L 53 63 L 53 69 L 47 69 L 47 63 z M 57 63 L 63 63 L 63 69 L 57 69 L 57 63 z M 67 63 L 73 63 L 73 69 L 67 69 L 67 63 z M 77 63 L 83 63 L 83 69 L 77 69 L 77 63 z M 7 73 L 13 73 L 13 79 L 7 79 L 7 73 z M 17 73 L 23 73 L 23 79 L 17 79 L 17 73 z M 27 73 L 33 73 L 33 79 L 27 79 L 27 73 z M 37 73 L 43 73 L 43 79 L 37 79 L 37 73 z M 47 73 L 53 73 L 53 79 L 47 79 L 47 73 z M 57 73 L 63 73 L 63 79 L 57 79 L 57 73 z M 67 73 L 73 73 L 73 79 L 67 79 L 67 73 z M 77 73 L 83 73 L 83 79 L 77 79 L 77 73 z "
       transform="translate(0,956.36218)"
       id="rect3819" />
    <rect
       style="fill:#ffffff;fill-opacity:0.05241933;fill-rule:evenodd;stroke:none"
       id="rect3870"
       width="30"
       height="20"
       x="40"
       y="957.36218" />
    <rect
       y="957.36218"
       x="40"
       height="29.999998"
       width="10"
       id="rect3872"
       style="fill:#ffffff;fill-opacity:0.05241933;fill-rule:evenodd;stroke:none" />
    <rect
       style="fill:#ffffff;fill-opacity:0.05241933;fill-rule:evenodd;stroke:none"
       id="rect3874"
       width="2"
       height="29.999998"
       x="40"
       y="957.36218" />
    <rect
       y="957.36218"
       x="48"
       height="29.999998"
       width="2"
       id="rect3876"
       style="fill:#ffffff;fill-opacity:0.05241933;fill-rule:evenodd;stroke:none" />
    <rect
       style="fill:#ffffff;fill-opacity:0.05241933;fill-rule:evenodd;stroke:none"
       id="rect3878"
       width="2"
       height="20.999998"
       x="50"
       y="957.36218" />
    <rect
       y="957.36218"
       x="58"
       height="20.999998"
       width="4"
       id="rect3880"
       style="fill:#ffffff;fill-opacity:0.05241933;fill-rule:evenodd;stroke:none" />
    <rect
       style="fill:#ffffff;fill-opacity:0.05241933;fill-rule:evenodd;stroke:none"
       id="rect3882"
       width="2"
       height="20.999998"
       x="68"
       y="957.36218" />
    <path
       style="fill:#00a3dd;fill-opacity:1;fill-rule:evenodd;stroke:none"
       d="m 40,977.36218 0,10 0,10 10,0 0,-10 10,0 10,0 0,-10 -10,0 -10,0 -10,0 z m 2,2 6,0 0,6 -6,0 0,-6 z m 10,0 6,0 0,6 -6,0 0,-6 z m 10,0 6,0 0,6 -6,0 0,-6 z m -20,10 6,0 0,6 -6,0 0,-6 z"
       id="path3860"
       inkscape:connector-curvature="0" />
  </g>
</svg>
