<?xml version="1.0" encoding="UTF-8" standalone="no"?>
<!-- Created with Inkscape (http://www.inkscape.org/) -->

<svg
   xmlns:dc="http://purl.org/dc/elements/1.1/"
   xmlns:cc="http://creativecommons.org/ns#"
   xmlns:rdf="http://www.w3.org/1999/02/22-rdf-syntax-ns#"
   xmlns:svg="http://www.w3.org/2000/svg"
   xmlns="http://www.w3.org/2000/svg"
   xmlns:xlink="http://www.w3.org/1999/xlink"
   xmlns:sodipodi="http://sodipodi.sourceforge.net/DTD/sodipodi-0.dtd"
   xmlns:inkscape="http://www.inkscape.org/namespaces/inkscape"
   width="96"
   height="96"
   id="svg2"
   version="1.1"
   inkscape:version="0.48.4 r9939"
   sodipodi:docname="applications-education-miscellaneous.svg">
  <defs
     id="defs4">
    <linearGradient
       id="linearGradient3943">
      <stop
         style="stop-color:#ffc7af;stop-opacity:1;"
         offset="0"
         id="stop3945" />
      <stop
         style="stop-color:#858585;stop-opacity:1;"
         offset="1"
         id="stop3947" />
    </linearGradient>
    <radialGradient
       inkscape:collect="always"
       xlink:href="#linearGradient3943"
       id="radialGradient3850"
       cx="138.05731"
       cy="1238.4119"
       fx="138.05731"
       fy="1238.4119"
       r="46.5"
       gradientTransform="matrix(0.32258068,0.21505371,-0.06140772,0.09211161,86.513422,898.60034)"
       gradientUnits="userSpaceOnUse"
       spreadMethod="repeat" />
  </defs>
  <sodipodi:namedview
     id="base"
     pagecolor="#ffffff"
     bordercolor="#666666"
     borderopacity="1.0"
     inkscape:pageopacity="0.0"
     inkscape:pageshadow="2"
     inkscape:zoom="5.6875054"
     inkscape:cx="47.700413"
     inkscape:cy="50.836426"
     inkscape:document-units="px"
     inkscape:current-layer="layer1"
     showgrid="true"
     inkscape:snap-page="true"
     inkscape:snap-global="false"
     inkscape:snap-center="true"
     inkscape:snap-object-midpoints="false"
     showguides="true"
     inkscape:guide-bbox="true"
     inkscape:snap-bbox="true"
     inkscape:object-paths="true"
     inkscape:object-nodes="true"
     inkscape:window-width="1305"
     inkscape:window-height="744"
     inkscape:window-x="61"
     inkscape:window-y="24"
     inkscape:window-maximized="1"
     inkscape:snap-midpoints="false"
     inkscape:snap-grids="true"
     inkscape:snap-to-guides="false"
     inkscape:snap-nodes="true">
    <inkscape:grid
       type="xygrid"
       id="grid3002"
       empspacing="5"
       visible="true"
       enabled="true"
       snapvisiblegridlinesonly="true" />
  </sodipodi:namedview>
  <metadata
     id="metadata7">
    <rdf:RDF>
      <cc:Work
         rdf:about="">
        <dc:format>image/svg+xml</dc:format>
        <dc:type
           rdf:resource="http://purl.org/dc/dcmitype/StillImage" />
        <dc:title />
      </cc:Work>
    </rdf:RDF>
  </metadata>
  <g
     inkscape:label="Layer 1"
     inkscape:groupmode="layer"
     id="layer1"
     transform="translate(0,-956.36218)">
    <rect
       style="fill:#ffffff;fill-opacity:0;fill-rule:nonzero;stroke:none"
       id="rect3775"
       width="96"
       height="96"
       x="0"
       y="956.36218"
       ry="0" />
    <path
       style="fill:#000000;fill-opacity:0.09589041;fill-rule:nonzero;stroke:none"
       d="m 3.353015,956.30662 c -1.884176,0 -3.4111555,1.43156 -3.4111555,3.19799 l 0,83.65949 c 0,1.7665 1.5269795,3.1981 3.4111555,3.1981 l 89.23583,0 c 1.884174,0 3.411155,-1.4316 3.411155,-3.1981 l 0,-83.65949 c 0,-1.76643 -1.526981,-3.19799 -3.411155,-3.19799 z"
       id="rect3772"
       inkscape:connector-curvature="0"
       sodipodi:nodetypes="sssssssss" />
    <path
       style="fill:#000000;fill-opacity:0.18721463;fill-rule:nonzero;stroke:none"
       d="m 1.0459761,1041.8066 0,7.4219 c 0,1.7392 1.461916,3.1337 3.2852054,3.1337 l 86.3836135,0 c 1.823288,0 3.285205,-1.3945 3.285205,-3.1337 l 0,-7.4219 -92.9540239,0 z"
       id="rect3785"
       inkscape:connector-curvature="0" />
    <path
       style="fill:#000000;fill-opacity:0.38356168;fill-rule:nonzero;stroke:none"
       d="m 1.0459761,1041.8066 0,5.3807 c 0,1.762 1.461916,3.1749 3.2852054,3.1749 l 86.3836135,0 c 1.823288,0 3.285205,-1.4129 3.285205,-3.1749 l 0,-5.3807 -92.9540239,0 z"
       id="rect3783"
       inkscape:connector-curvature="0" />
    <rect
       style="fill:#f47c00;fill-opacity:1;fill-rule:nonzero;stroke:none"
       id="rect2985-4"
       width="93"
       height="89.000008"
       x="1"
       y="957.36212"
       ry="3.1511397" />
    <rect
       ry="3.1511397"
       y="957.36212"
       x="1"
       height="89.000008"
       width="93"
       id="rect3840"
       style="opacity:0.36625514;fill:url(#radialGradient3850);fill-opacity:1;fill-rule:nonzero;stroke:none" />
    <path
       style="fill:#000000;fill-opacity:0.38356168;fill-rule:nonzero;stroke:none"
       d="m 1,1042.3622 0.045976,2.7457 c 0.03024,1.8058 1.461916,3.2543 3.2852054,3.2543 l 86.3836136,0 c 1.823288,0 3.285205,-1.4481 3.285205,-3.2543 l -0.04598,-2.7457 z"
       id="rect3781"
       inkscape:connector-curvature="0"
       sodipodi:nodetypes="csssscc" />
    <rect
       style="fill:#ffffff;fill-opacity:0.30000001;fill-rule:nonzero;stroke:none"
       id="rect3770"
       width="92.954033"
       height="2.000005"
       x="1.045976"
       y="1040.3622" />
    <path
       inkscape:connector-curvature="0"
       style="font-size:medium;font-style:normal;font-variant:normal;font-weight:normal;font-stretch:normal;text-indent:0;text-align:start;text-decoration:none;line-height:normal;letter-spacing:normal;word-spacing:normal;text-transform:none;direction:ltr;block-progression:tb;writing-mode:lr-tb;text-anchor:start;baseline-shift:baseline;color:#000000;fill:#000000;fill-opacity:0.36529685;stroke:none;stroke-width:3;marker:none;visibility:visible;display:inline;overflow:visible;enable-background:accumulate;font-family:Sans;-inkscape-font-specification:Sans"
       d="m 3.6294646,957.627 c -0.608974,0.1238 -1.2345159,0.23292 -1.6607146,0.60645 -0.4261988,0.37353 -0.5507133,0.92176 -0.6919645,1.45548 l 43.8705365,38.4488 -43.8705365,38.44887 c 0.1412512,0.5337 0.2657657,1.0819 0.6919645,1.4555 0.4261987,0.3735 1.0517406,0.4826 1.6607146,0.6065 l 43.8705364,-38.4489 43.870537,38.4489 c 0.608974,-0.1239 1.234515,-0.233 1.660715,-0.6065 0.4262,-0.3736 0.550713,-0.9218 0.691964,-1.4555 L 49.85268,998.13773 93.723217,959.68893 c -0.141251,-0.53372 -0.265764,-1.08195 -0.691964,-1.45548 -0.4262,-0.37353 -1.051741,-0.48265 -1.660715,-0.60645 L 47.500001,996.07583 3.6294646,957.627 z"
       id="path3811" />
    <path
       inkscape:connector-curvature="0"
       style="fill:#002b00;fill-opacity:1;fill-rule:nonzero;stroke:none"
       d="m 7.7120537,963.78548 0,68.57672 79.5758953,0 0,-68.57672 -79.5758953,0 z"
       id="path3796" />
    <rect
       style="fill:#060000;fill-opacity:0.41095892;fill-rule:nonzero;stroke:none"
       id="rect3055"
       width="79.575897"
       height="6.2856951"
       x="7.7120538"
       y="963.78546" />
    <rect
       y="963.78546"
       x="7.7120538"
       height="3.0687637"
       width="79.575897"
       id="rect3825"
       style="fill:#060000;fill-opacity:0.41095892;fill-rule:nonzero;stroke:none" />
    <rect
       style="fill:#ffffff;fill-opacity:0.18264841;fill-rule:nonzero;stroke:none"
       id="rect3827"
       width="79.575897"
       height="1.8835815"
       x="7.7120538"
       y="1032.1876" />
    <path
       style="font-size:medium;font-style:normal;font-variant:normal;font-weight:normal;font-stretch:normal;text-indent:0;text-align:start;text-decoration:none;line-height:normal;letter-spacing:normal;word-spacing:normal;text-transform:none;direction:ltr;block-progression:tb;writing-mode:lr-tb;text-anchor:start;baseline-shift:baseline;color:#000000;fill:#ffffff;fill-opacity:0.31963471;stroke:none;stroke-width:3.99999976000000013;marker:none;visibility:visible;display:inline;overflow:visible;enable-background:accumulate;font-family:Sans;-inkscape-font-specification:Sans"
       d="m 56.929285,990.29757 c -9.876669,8.66335 -19.757575,17.32193 -29.631597,25.98833 -1.122346,0.9985 -2.244693,1.9972 -3.367039,2.9958 14.662897,0 29.325794,0 43.988691,0 0,-12.8882 0,-25.77633 0,-38.66449 -3.663351,3.22679 -7.326703,6.45357 -10.990055,9.68036 z m 7.345685,25.33973 c -10.230812,0 -20.461622,0 -30.692433,0 10.230811,-8.9875 20.461621,-17.97507 30.692433,-26.96262 0,8.98755 0,17.97512 0,26.96262 z"
       id="rect3008"
       inkscape:connector-curvature="0" />
    <path
       inkscape:connector-curvature="0"
       id="path3857"
       style="font-size:13.25027084000000066px;font-style:normal;font-variant:normal;font-weight:bold;font-stretch:normal;text-align:end;line-height:125%;letter-spacing:0px;word-spacing:0px;text-anchor:end;fill:#ffffff;fill-opacity:0.31963471;stroke:none;font-family:Georgia;-inkscape-font-specification:Georgia Bold"
       d="m 24.616503,1023.6182 -4.407304,0 0,-0.4754 c 0.205251,-0.016 0.446618,-0.055 0.724098,-0.1158 0.27747,-0.065 0.416207,-0.1442 0.416214,-0.2377 -7e-6,-0.033 -0.0038,-0.069 -0.01141,-0.1097 -0.0038,-0.041 -0.019,-0.095 -0.04562,-0.1645 l -0.689889,-1.7917 -2.793763,0 c -0.06462,0.1666 -0.136838,0.3616 -0.216658,0.585 -0.07602,0.2235 -0.142542,0.4226 -0.199555,0.5973 -0.07222,0.2276 -0.115933,0.3921 -0.131135,0.4936 -0.01141,0.1016 -0.01711,0.1727 -0.0171,0.2134 -1e-6,0.13 0.09122,0.2417 0.273675,0.3352 0.186249,0.089 0.494132,0.1543 0.923652,0.1949 l 0,0.4754 -3.318306,0 0,-0.4754 c 0.125435,-0.01 0.266073,-0.028 0.421916,-0.061 0.159643,-0.036 0.285077,-0.086 0.376303,-0.1462 0.155841,-0.098 0.286977,-0.2174 0.393407,-0.3596 0.110228,-0.1423 0.201453,-0.3108 0.273675,-0.5059 0.440918,-1.1416 0.881838,-2.2853 1.32276,-3.4311 0.444719,-1.1457 0.935052,-2.4092 1.471002,-3.7906 l 1.140311,0 c 0.744999,1.9583 1.328457,3.5063 1.750378,4.6439 0.421908,1.1376 0.781107,2.0802 1.077594,2.8277 0.0494,0.1219 0.112124,0.2336 0.188153,0.3352 0.07601,0.097 0.184341,0.191 0.324988,0.2804 0.106421,0.065 0.229954,0.1137 0.370601,0.1462 0.140629,0.033 0.267964,0.053 0.382005,0.061 l 0,0.4754 m -4.247661,-3.4981 -1.17452,-3.1324 -1.157416,3.1324 2.331936,0" />
    <path
       inkscape:connector-curvature="0"
       id="path3859"
       style="font-size:13.25027084000000066px;font-style:normal;font-variant:normal;font-weight:bold;font-stretch:normal;text-align:end;line-height:125%;letter-spacing:0px;word-spacing:0px;text-anchor:end;fill:#ffffff;fill-opacity:0.31963471;stroke:none;font-family:Georgia;-inkscape-font-specification:Georgia Bold"
       d="m 72.805113,975.61539 c 0.243258,0.17876 0.440912,0.40425 0.592962,0.67646 0.152033,0.26815 0.228053,0.58505 0.228062,0.95071 -9e-6,0.43878 -0.08743,0.81053 -0.262272,1.11524 -0.171054,0.30065 -0.418121,0.53834 -0.741202,0.71304 -0.3421,0.18689 -0.737408,0.31893 -1.185924,0.39612 -0.444727,0.0773 -0.969269,0.11578 -1.57363,0.11578 l -4.202047,0 0,-0.47534 c 0.117831,-0.0121 0.266072,-0.0304 0.444722,-0.0548 0.178648,-0.0244 0.304081,-0.0528 0.376302,-0.0854 0.140637,-0.0609 0.235662,-0.14017 0.285078,-0.23767 0.05321,-0.10157 0.07982,-0.23159 0.07982,-0.39004 l 0,-6.09426 c -2e-6,-0.14625 -0.0209,-0.26814 -0.06272,-0.36565 -0.04182,-0.0975 -0.142541,-0.18282 -0.302183,-0.25597 -0.117833,-0.0528 -0.254671,-0.0955 -0.410513,-0.12798 -0.155843,-0.0365 -0.292681,-0.065 -0.410511,-0.0854 l 0,-0.47535 4.3959,0 c 1.106096,10e-6 1.904313,0.16253 2.394653,0.48754 0.490327,0.32505 0.735493,0.80445 0.735501,1.43825 -8e-6,0.29254 -0.05512,0.55052 -0.165345,0.77398 -0.110237,0.21939 -0.267981,0.41035 -0.473229,0.57286 -0.186258,0.15033 -0.408619,0.28034 -0.667083,0.39003 -0.258476,0.1097 -0.535952,0.20112 -0.832427,0.27424 l 0,0.1158 c 0.296475,0.0325 0.604359,0.1036 0.923652,0.2133 0.319281,0.10562 0.596756,0.24376 0.832428,0.41441 m -1.835902,-2.60225 c -5e-6,-0.47942 -0.12734,-0.8532 -0.382003,-1.12136 -0.250874,-0.26813 -0.629077,-0.40221 -1.13461,-0.40222 -0.07223,10e-6 -0.16725,0.004 -0.285078,0.0121 -0.114036,0.004 -0.212862,0.008 -0.296481,0.0121 l 0,3.20558 0.296481,0 c 0.615763,0 1.069987,-0.15235 1.362672,-0.45707 0.292674,-0.30877 0.439014,-0.72521 0.439019,-1.24932 m 0.399109,4.15018 c -5e-6,-0.60129 -0.167251,-1.06242 -0.501736,-1.38339 -0.334497,-0.32096 -0.815328,-0.48144 -1.442495,-0.48145 -0.07223,1e-5 -0.169149,0.004 -0.290779,0.0121 -0.117836,0.004 -0.20526,0.008 -0.262271,0.0121 l 0,3.16293 c 0.0342,0.15032 0.140635,0.2783 0.319287,0.38393 0.178645,0.10157 0.395304,0.15236 0.649978,0.15236 0.452318,0 0.819118,-0.16251 1.1004,-0.48754 0.285072,-0.32503 0.427611,-0.7821 0.427616,-1.37121" />
    <path
       inkscape:connector-curvature="0"
       id="path3861"
       style="font-size:13.25027084000000066px;font-style:normal;font-variant:normal;font-weight:bold;font-stretch:normal;text-align:end;line-height:125%;letter-spacing:0px;word-spacing:0px;text-anchor:end;fill:#ffffff;fill-opacity:0.31963471;stroke:none;font-family:Georgia;-inkscape-font-specification:Georgia Bold"
       d="m 74.508008,1024.9884 c -0.592966,0 -1.147918,-0.1015 -1.664854,-0.3046 -0.516944,-0.2073 -0.967368,-0.5059 -1.35127,-0.8959 -0.376304,-0.3819 -0.672785,-0.8532 -0.889443,-1.4138 -0.216659,-0.5648 -0.324989,-1.1844 -0.324989,-1.8589 0,-0.6703 0.10833,-1.2899 0.324989,-1.8587 0.220459,-0.5729 0.528343,-1.0685 0.923652,-1.487 0.387705,-0.4103 0.853331,-0.7272 1.396882,-0.9507 0.543545,-0.2275 1.125103,-0.3413 1.744676,-0.3413 0.448517,0 0.857129,0.059 1.225834,0.1768 0.368695,0.1138 0.680381,0.2438 0.935057,0.39 l 0.353495,-0.3352 0.496036,0 0.05131,3.1569 -0.501737,0 c -0.285085,-0.963 -0.627178,-1.6699 -1.02628,-2.1209 -0.399115,-0.4509 -0.885647,-0.6764 -1.459599,-0.6764 -0.714599,0 -1.258147,0.3372 -1.630645,1.0116 -0.372504,0.6704 -0.558755,1.613 -0.558752,2.8278 -3e-6,0.6866 0.06272,1.2737 0.188151,1.7612 0.129233,0.4835 0.296477,0.8736 0.501737,1.1701 0.220457,0.3088 0.480828,0.5363 0.781114,0.6825 0.300277,0.1422 0.632868,0.2134 0.997772,0.2134 0.532139,0 1.005369,-0.1544 1.419687,-0.4632 0.418107,-0.3088 0.798211,-0.776 1.140312,-1.4017 l 0.490334,0.3169 c -0.163453,0.3576 -0.349704,0.6785 -0.558753,0.9629 -0.209064,0.2803 -0.45043,0.522 -0.724098,0.7252 -0.300288,0.2235 -0.632878,0.3982 -0.997772,0.5242 -0.361104,0.1259 -0.78872,0.1888 -1.28285,0.1888" />
    <path
       style="font-size:11px;font-style:normal;font-variant:normal;font-weight:normal;font-stretch:normal;text-align:end;line-height:125%;letter-spacing:0px;word-spacing:0px;text-anchor:end;fill:#ffffff;fill-opacity:1;stroke:none;font-family:Andale Mono;-inkscape-font-specification:Andale Mono"
       d="m 12.519574,978.9336 0,7.84375 0.96875,0 0,-3.3125 1.1875,0 c 0.329997,1e-5 0.62758,-0.0609 0.90625,-0.15625 0.278663,-0.10266 0.520746,-0.24683 0.71875,-0.4375 0.205329,-0.19799 0.358745,-0.44007 0.46875,-0.71875 0.109995,-0.28599 0.187495,-0.60207 0.1875,-0.96875 -5e-6,-0.37399 -0.06825,-0.68082 -0.15625,-0.9375 -0.088,-0.25666 -0.197088,-0.48757 -0.34375,-0.65625 -0.139338,-0.16865 -0.285421,-0.28699 -0.46875,-0.375 -0.176004,-0.0953 -0.37917,-0.15082 -0.5625,-0.1875 -0.176003,-0.044 -0.331337,-0.0864 -0.5,-0.0937 -0.161336,-0.007 -0.296253,1e-5 -0.40625,0 l -2,0 z m 5.25,0 0,7.84375 0.90625,0 0,-4.0625 c -2e-6,-0.21266 0.05166,-0.38457 0.125,-0.53125 0.07333,-0.15399 0.163915,-0.27966 0.28125,-0.375 0.117331,-0.0953 0.242998,-0.17474 0.375,-0.21875 0.139331,-0.044 0.281581,-0.0625 0.40625,-0.0625 0.20533,1e-5 0.351414,0.0443 0.46875,0.125 0.11733,0.0807 0.22258,0.18784 0.28125,0.3125 0.05866,0.11734 0.08641,0.23568 0.09375,0.375 0.01466,0.13934 0.03125,0.26501 0.03125,0.375 l 0,4.0625 0.90625,0 0,-4.1875 c -4e-6,-0.17599 -0.01659,-0.34982 -0.03125,-0.5625 -0.01467,-0.21999 -0.06092,-0.43432 -0.15625,-0.625 -0.09534,-0.19066 -0.232171,-0.34407 -0.4375,-0.46875 -0.205337,-0.13199 -0.49367,-0.21874 -0.875,-0.21875 -0.132003,1e-5 -0.290836,0.0498 -0.4375,0.0937 -0.139336,0.0367 -0.274252,0.0829 -0.40625,0.15625 -0.124669,0.0733 -0.233752,0.14734 -0.34375,0.25 -0.102668,0.10268 -0.191335,0.22643 -0.25,0.34375 l -0.03125,0 0,-2.625 -0.90625,0 z m 9.84375,0.21875 0,1.71875 -0.875,0 0,0.75 0.875,0 0,4.0625 c -10e-7,0.19067 0.0019,0.35334 0.03125,0.5 0.03667,0.14667 0.0995,0.27234 0.1875,0.375 0.088,0.0953 0.220999,0.16742 0.375,0.21875 0.153998,0.044 0.351748,0.0625 0.59375,0.0625 0.190664,0 0.344081,-0.0166 0.46875,-0.0312 0.124664,-0.0147 0.222581,-0.0166 0.28125,-0.0312 l 0,-0.75 c -0.05134,0.007 -0.128836,-0.007 -0.1875,0 -0.05867,0.007 -0.116086,0.0313 -0.21875,0.0312 -0.242002,1e-5 -0.419335,-0.0536 -0.5,-0.15625 -0.08067,-0.10266 -0.125002,-0.26533 -0.125,-0.5 l 0,-3.78125 1.03125,0 0,-0.75 -1.03125,0 0,-1.71875 -0.90625,0 z m -14.125,0.5625 1.09375,0 c 0.483997,1e-5 0.81858,0.11834 1.03125,0.375 0.212663,0.24934 0.312496,0.62251 0.3125,1.0625 -4e-6,0.52068 -0.118337,0.87568 -0.375,1.125 -0.25667,0.24934 -0.554253,0.37501 -0.90625,0.375 l -1.15625,0 0,-2.9375 z m 18.53125,1 c -0.704002,1e-5 -1.223251,0.18468 -1.53125,0.5 -0.308001,0.30801 -0.4375,0.77018 -0.4375,1.4375 l 0.90625,0 0,-0.0312 c -10e-7,-0.0513 0.02392,-0.15657 0.03125,-0.28125 0.01467,-0.13199 0.03508,-0.24299 0.09375,-0.375 0.066,-0.13199 0.180498,-0.24841 0.3125,-0.34375 0.139331,-0.10266 0.337081,-0.15624 0.59375,-0.15625 0.630664,1e-5 0.937497,0.29568 0.9375,0.875 -3e-6,0.12468 0.0073,0.22451 0,0.3125 -0.0073,0.088 -0.04975,0.15276 -0.09375,0.21875 -0.03667,0.066 -0.09217,0.12884 -0.1875,0.1875 -0.088,0.0513 -0.237586,0.10492 -0.40625,0.15625 l -1.21875,0.375 c -0.381334,0.11734 -0.660417,0.31509 -0.84375,0.59375 -0.176,0.27134 -0.28125,0.61326 -0.28125,1.03125 0,0.52801 0.118333,0.94201 0.375,1.25 0.263999,0.308 0.668749,0.46875 1.21875,0.46875 0.278664,0 0.555831,-0.0721 0.8125,-0.21875 0.263997,-0.154 0.47833,-0.361 0.625,-0.625 l 0.03125,0 c 0.0073,0.19067 0.01116,0.33484 0.0625,0.4375 0.05866,0.10267 0.13808,0.16742 0.21875,0.21875 0.088,0.044 0.193246,0.0864 0.28125,0.0937 0.09533,0.007 0.161996,0 0.25,0 0.117329,0 0.241079,-0.0166 0.34375,-0.0312 0.102662,-0.0147 0.182079,-0.0239 0.21875,-0.0312 l 0,-0.65625 c -0.02201,0.0147 -0.05709,0.0478 -0.09375,0.0625 -0.02934,0.007 -0.06634,1e-5 -0.125,0 -0.146671,1e-5 -0.259254,-0.0609 -0.28125,-0.15625 -0.022,-0.0953 -0.03125,-0.18783 -0.03125,-0.3125 l 0,-3.28125 c -4e-6,-0.15399 -0.0093,-0.34057 -0.03125,-0.53125 -0.01467,-0.19799 -0.07017,-0.38649 -0.1875,-0.5625 -0.110004,-0.17599 -0.289254,-0.32016 -0.53125,-0.4375 -0.242003,-0.11732 -0.58392,-0.18749 -1.03125,-0.1875 z m 4.84375,0 c -0.374002,1e-5 -0.688168,0.10526 -0.9375,0.28125 -0.242001,0.16868 -0.439751,0.39418 -0.59375,0.6875 -0.146667,0.28601 -0.222584,0.62601 -0.28125,1 -0.05867,0.37401 -0.09375,0.76026 -0.09375,1.15625 0,0.13201 -0.0073,0.30201 0,0.5 0.01467,0.19067 0.05708,0.37376 0.09375,0.59375 0.044,0.22001 0.08292,0.43626 0.15625,0.65625 0.08067,0.21267 0.180499,0.41776 0.3125,0.59375 0.139332,0.176 0.333249,0.3275 0.53125,0.4375 0.205332,0.11 0.432748,0.15625 0.71875,0.15625 0.293331,0 0.570497,-0.0794 0.8125,-0.21875 0.24933,-0.13933 0.42858,-0.31316 0.53125,-0.5625 l 0,0.75 c -4e-6,0.10267 0.0073,0.22834 0,0.375 -0.0073,0.154 -0.05167,0.29817 -0.125,0.4375 -0.066,0.13934 -0.18242,0.27967 -0.34375,0.375 -0.154003,0.10267 -0.362919,0.15625 -0.65625,0.15625 -0.242002,0 -0.472919,-0.0702 -0.65625,-0.1875 -0.183335,-0.11 -0.259251,-0.29116 -0.28125,-0.5625 l -0.9375,0 c 0.03667,0.36667 0.143833,0.64575 0.3125,0.84375 0.175999,0.20534 0.357165,0.3495 0.5625,0.4375 0.212665,0.0953 0.426998,0.14159 0.625,0.15625 0.205331,0.0147 0.349498,0.0312 0.4375,0.0312 0.293331,0 0.570497,-0.037 0.8125,-0.125 0.24933,-0.0807 0.448996,-0.21558 0.625,-0.40625 0.175996,-0.19066 0.310912,-0.442 0.40625,-0.75 0.102662,-0.30066 0.156246,-0.685 0.15625,-1.125 l 0,-5.53125 -0.875,0 0,0.75 -0.03125,0 c -0.02934,-0.11732 -0.07559,-0.23374 -0.15625,-0.34375 -0.07334,-0.10999 -0.171253,-0.20057 -0.28125,-0.28125 -0.110003,-0.0807 -0.228336,-0.13616 -0.375,-0.1875 -0.139336,-0.0513 -0.307419,-0.0937 -0.46875,-0.0937 z m 5.21875,0 c -0.425335,1e-5 -0.752585,0.11259 -1.03125,0.28125 -0.271334,0.16868 -0.494918,0.37026 -0.65625,0.65625 -0.154001,0.27868 -0.27775,0.62601 -0.34375,1 -0.05867,0.37401 -0.0625,0.76951 -0.0625,1.1875 0,0.41801 0.0038,0.81351 0.0625,1.1875 0.066,0.37401 0.189749,0.68276 0.34375,0.96875 0.161332,0.27867 0.384916,0.51884 0.65625,0.6875 0.278665,0.16867 0.605915,0.25 1.03125,0.25 0.42533,0 0.791163,-0.0813 1.0625,-0.25 0.27133,-0.16866 0.494913,-0.40883 0.65625,-0.6875 0.161329,-0.28599 0.253829,-0.59474 0.3125,-0.96875 0.066,-0.37399 0.09374,-0.76949 0.09375,-1.1875 -5e-6,-0.41799 -0.02775,-0.81349 -0.09375,-1.1875 -0.05867,-0.37399 -0.151171,-0.72132 -0.3125,-1 -0.154004,-0.28599 -0.377587,-0.48757 -0.65625,-0.65625 -0.271337,-0.16866 -0.63717,-0.28124 -1.0625,-0.28125 z m 5.28125,0 c -0.168669,1e-5 -0.336753,0.0351 -0.46875,0.0937 -0.124669,0.0513 -0.209835,0.12343 -0.3125,0.21875 -0.102669,0.0953 -0.200585,0.21909 -0.28125,0.34375 -0.07334,0.12468 -0.152752,0.26693 -0.21875,0.40625 l -0.03125,0 0,-0.90625 -0.90625,0 0,5.90625 0.90625,0 0,-3.71875 c -2e-6,-0.24199 0.04433,-0.44899 0.125,-0.625 0.088,-0.17599 0.195165,-0.32749 0.3125,-0.4375 0.124665,-0.11732 0.266914,-0.19866 0.40625,-0.25 0.139331,-0.0587 0.257664,-0.0937 0.375,-0.0937 0.146664,1e-5 0.246497,0.0166 0.3125,0.0312 0.07333,0.007 0.143497,-0.007 0.1875,0 l 0,-0.875 c -0.088,-0.044 -0.22292,-0.0937 -0.40625,-0.0937 z m 2.875,0 c -0.704002,1e-5 -1.223251,0.18468 -1.53125,0.5 -0.308001,0.30801 -0.4375,0.77018 -0.4375,1.4375 l 0.90625,0 0,-0.0312 c -10e-7,-0.0513 0.02392,-0.15657 0.03125,-0.28125 0.01467,-0.13199 0.03508,-0.24299 0.09375,-0.375 0.066,-0.13199 0.180498,-0.24841 0.3125,-0.34375 0.139331,-0.10266 0.337081,-0.15624 0.59375,-0.15625 0.630664,1e-5 0.937497,0.29568 0.9375,0.875 -3e-6,0.12468 0.0073,0.22451 0,0.3125 -0.0073,0.088 -0.04975,0.15276 -0.09375,0.21875 -0.03667,0.066 -0.09217,0.12884 -0.1875,0.1875 -0.088,0.0513 -0.237586,0.10492 -0.40625,0.15625 l -1.21875,0.375 c -0.381334,0.11734 -0.660417,0.31509 -0.84375,0.59375 -0.176,0.27134 -0.28125,0.61326 -0.28125,1.03125 0,0.52801 0.118333,0.94201 0.375,1.25 0.263999,0.308 0.668749,0.46875 1.21875,0.46875 0.278664,0 0.555831,-0.0721 0.8125,-0.21875 0.263997,-0.154 0.47833,-0.361 0.625,-0.625 l 0.03125,0 c 0.0073,0.19067 0.01116,0.33484 0.0625,0.4375 0.05866,0.10267 0.13808,0.16742 0.21875,0.21875 0.088,0.044 0.193246,0.0864 0.28125,0.0937 0.09533,0.007 0.161996,0 0.25,0 0.117329,0 0.241079,-0.0166 0.34375,-0.0312 0.102662,-0.0147 0.182079,-0.0239 0.21875,-0.0312 l 0,-0.65625 c -0.02201,0.0147 -0.05709,0.0478 -0.09375,0.0625 -0.02934,0.007 -0.06634,1e-5 -0.125,0 -0.146671,1e-5 -0.259254,-0.0609 -0.28125,-0.15625 -0.022,-0.0953 -0.03125,-0.18783 -0.03125,-0.3125 l 0,-3.28125 c -4e-6,-0.15399 -0.0093,-0.34057 -0.03125,-0.53125 -0.01467,-0.19799 -0.07017,-0.38649 -0.1875,-0.5625 -0.110004,-0.17599 -0.289254,-0.32016 -0.53125,-0.4375 -0.242003,-0.11732 -0.58392,-0.18749 -1.03125,-0.1875 z m 4.6875,0 c -0.256669,1e-5 -0.491418,0.059 -0.71875,0.125 -0.227335,0.066 -0.417751,0.17318 -0.59375,0.3125 -0.168667,0.13201 -0.303584,0.29468 -0.40625,0.5 -0.09533,0.20534 -0.15625,0.44743 -0.15625,0.71875 0,0.30068 0.04433,0.52809 0.125,0.71875 0.088,0.19067 0.211749,0.35142 0.34375,0.46875 0.139332,0.11734 0.292749,0.20792 0.46875,0.28125 0.175999,0.066 0.355248,0.12884 0.53125,0.1875 0.175998,0.0587 0.331331,0.12884 0.5,0.1875 0.175997,0.0587 0.336747,0.13076 0.46875,0.21875 0.13933,0.0807 0.26308,0.18051 0.34375,0.3125 0.088,0.12467 0.124997,0.27076 0.125,0.46875 -3e-6,0.21267 -0.05167,0.40659 -0.125,0.53125 -0.07334,0.12467 -0.140003,0.20792 -0.25,0.28125 -0.102669,0.0733 -0.233753,0.13426 -0.34375,0.15625 -0.110002,0.022 -0.176669,0.0313 -0.25,0.0312 -0.227335,1e-5 -0.415835,-0.0517 -0.5625,-0.125 -0.139335,-0.0733 -0.263085,-0.15658 -0.34375,-0.28125 -0.08067,-0.13199 -0.126918,-0.27616 -0.15625,-0.4375 -0.02933,-0.16866 -0.0625,-0.35524 -0.0625,-0.53125 l -0.90625,0 c 0,0.15401 0.0093,0.35909 0.03125,0.59375 0.022,0.23467 0.09408,0.46017 0.21875,0.6875 0.131999,0.22 0.322416,0.40117 0.59375,0.5625 0.278665,0.16134 0.688832,0.25 1.1875,0.25 0.271331,0 0.515331,-0.0443 0.75,-0.125 0.234663,-0.0733 0.42508,-0.18975 0.59375,-0.34375 0.168663,-0.154 0.310913,-0.33516 0.40625,-0.5625 0.09533,-0.23466 0.124996,-0.50449 0.125,-0.8125 -4e-6,-0.29333 -0.037,-0.53541 -0.125,-0.71875 -0.08067,-0.19066 -0.173171,-0.35141 -0.3125,-0.46875 -0.132004,-0.12466 -0.292753,-0.21524 -0.46875,-0.28125 -0.16867,-0.0733 -0.355253,-0.12883 -0.53125,-0.1875 -0.183336,-0.0587 -0.355252,-0.13616 -0.53125,-0.1875 -0.168669,-0.0513 -0.329419,-0.11416 -0.46875,-0.1875 -0.132002,-0.0807 -0.224502,-0.17124 -0.3125,-0.28125 -0.08067,-0.10999 -0.125001,-0.23024 -0.125,-0.40625 -10e-7,-0.20532 0.02041,-0.38266 0.09375,-0.5 0.07333,-0.12466 0.154665,-0.22257 0.25,-0.28125 0.102665,-0.0587 0.233748,-0.0791 0.34375,-0.0937 0.109998,-0.022 0.176664,-0.0312 0.25,-0.0312 0.337331,1e-5 0.570164,0.0833 0.6875,0.28125 0.124664,0.19801 0.187497,0.50101 0.1875,0.875 l 0.9375,0 c -4e-6,-0.17599 -0.03317,-0.38107 -0.0625,-0.59375 -0.022,-0.21999 -0.07017,-0.43432 -0.1875,-0.625 -0.117337,-0.19066 -0.320504,-0.33674 -0.5625,-0.46875 -0.242003,-0.13199 -0.574669,-0.21874 -1,-0.21875 z m -32.5625,0.15625 1.75,6.03125 -0.1875,0.5 c -0.05867,0.16134 -0.140002,0.3275 -0.25,0.4375 -0.102668,0.11 -0.256084,0.15625 -0.46875,0.15625 -0.227334,0 -0.430501,-0.009 -0.5625,-0.0312 l 0,0.71875 c 0.08067,0.007 0.193249,0.0239 0.28125,0.0312 0.09533,0.007 0.222916,0 0.40625,0 0.278665,0 0.511498,-0.037 0.6875,-0.125 0.175998,-0.0807 0.296248,-0.19708 0.40625,-0.34375 0.117331,-0.13933 0.215248,-0.31666 0.28125,-0.5 0.066,-0.18333 0.128831,-0.35716 0.1875,-0.5625 l 1.71875,-6.3125 -1.03125,0 -1.03125,4.75 -1.1875,-4.75 -1,0 z m 19.71875,0.59375 c 0.249331,1e-5 0.439747,0.0555 0.59375,0.1875 0.153997,0.12468 0.26308,0.31126 0.34375,0.53125 0.088,0.21268 0.158163,0.45668 0.1875,0.75 0.02933,0.28601 0.03125,0.59092 0.03125,0.90625 -4e-6,0.32267 -0.0019,0.62026 -0.03125,0.90625 -0.02934,0.28601 -0.0995,0.53001 -0.1875,0.75 -0.088,0.21267 -0.189753,0.39926 -0.34375,0.53125 -0.154003,0.12467 -0.351753,0.18751 -0.59375,0.1875 -0.234669,1e-5 -0.439752,-0.0628 -0.59375,-0.1875 -0.146668,-0.13199 -0.263085,-0.31858 -0.34375,-0.53125 -0.08067,-0.21999 -0.126918,-0.46399 -0.15625,-0.75 -0.02933,-0.28599 -0.03125,-0.58358 -0.03125,-0.90625 -10e-7,-0.31533 0.0019,-0.62024 0.03125,-0.90625 0.02933,-0.29332 0.07558,-0.53732 0.15625,-0.75 0.088,-0.21999 0.197082,-0.40657 0.34375,-0.53125 0.146665,-0.13199 0.359081,-0.18749 0.59375,-0.1875 z m -5.09375,0.0625 c 0.249331,1e-5 0.470997,0.0555 0.625,0.1875 0.153997,0.13201 0.255747,0.31126 0.34375,0.53125 0.088,0.22001 0.158163,0.47134 0.1875,0.75 0.02933,0.27134 0.03125,0.55776 0.03125,0.84375 -4e-6,0.30067 -0.0019,0.57976 -0.03125,0.84375 -0.02934,0.26401 -0.0995,0.48951 -0.1875,0.6875 -0.088,0.19067 -0.21367,0.32751 -0.375,0.4375 -0.154003,0.11001 -0.344419,0.18751 -0.59375,0.1875 -0.234669,1e-5 -0.423169,-0.0867 -0.5625,-0.21875 -0.139335,-0.13933 -0.239168,-0.29466 -0.3125,-0.5 -0.07334,-0.21266 -0.126918,-0.43816 -0.15625,-0.6875 -0.022,-0.25666 -0.03125,-0.50799 -0.03125,-0.75 -10e-7,-0.35199 0.0019,-0.68274 0.03125,-0.96875 0.03666,-0.28599 0.106832,-0.52074 0.1875,-0.71875 0.08067,-0.19799 0.173165,-0.35874 0.3125,-0.46875 0.139331,-0.10999 0.318581,-0.15624 0.53125,-0.15625 z m -4.09375,2.03125 0,1.53125 c -3e-6,0.15401 -0.02775,0.29817 -0.09375,0.4375 -0.066,0.13201 -0.171253,0.24109 -0.28125,0.34375 -0.110003,0.10267 -0.228336,0.19134 -0.375,0.25 -0.139336,0.0587 -0.283502,0.0938 -0.4375,0.0937 -0.315335,1e-5 -0.531585,-0.0979 -0.65625,-0.28125 -0.117335,-0.18333 -0.187501,-0.44199 -0.1875,-0.75 -10e-7,-0.25666 0.05166,-0.43049 0.125,-0.5625 0.08066,-0.13933 0.165832,-0.27966 0.3125,-0.375 0.102665,-0.066 0.235665,-0.11224 0.375,-0.15625 0.146664,-0.0513 0.290831,-0.081 0.4375,-0.125 0.153997,-0.0513 0.305497,-0.12883 0.4375,-0.1875 0.13933,-0.0587 0.255747,-0.13074 0.34375,-0.21875 z m 18.21875,0 0,1.53125 c -3e-6,0.15401 -0.02775,0.29817 -0.09375,0.4375 -0.066,0.13201 -0.171253,0.24109 -0.28125,0.34375 -0.110003,0.10267 -0.228336,0.19134 -0.375,0.25 -0.139336,0.0587 -0.283502,0.0938 -0.4375,0.0937 -0.315335,1e-5 -0.531585,-0.0979 -0.65625,-0.28125 -0.117335,-0.18333 -0.187501,-0.44199 -0.1875,-0.75 -10e-7,-0.25666 0.05166,-0.43049 0.125,-0.5625 0.08067,-0.13933 0.165832,-0.27966 0.3125,-0.375 0.102665,-0.066 0.235665,-0.11224 0.375,-0.15625 0.146664,-0.0513 0.290831,-0.081 0.4375,-0.125 0.153997,-0.0513 0.305497,-0.12883 0.4375,-0.1875 0.13933,-0.0587 0.255747,-0.13074 0.34375,-0.21875 z"
       id="text3866"
       inkscape:connector-curvature="0" />
  </g>
</svg>
