<?xml version="1.0" encoding="UTF-8" standalone="no"?>
<!-- Created with Inkscape (http://www.inkscape.org/) -->

<svg
   xmlns:dc="http://purl.org/dc/elements/1.1/"
   xmlns:cc="http://creativecommons.org/ns#"
   xmlns:rdf="http://www.w3.org/1999/02/22-rdf-syntax-ns#"
   xmlns:svg="http://www.w3.org/2000/svg"
   xmlns="http://www.w3.org/2000/svg"
   xmlns:sodipodi="http://sodipodi.sourceforge.net/DTD/sodipodi-0.dtd"
   xmlns:inkscape="http://www.inkscape.org/namespaces/inkscape"
   width="96"
   height="96"
   id="svg2"
   version="1.1"
   inkscape:version="0.48.4 r9939"
   sodipodi:docname="applications-puzzles.svg">
  <defs
     id="defs4" />
  <sodipodi:namedview
     id="base"
     pagecolor="#ffffff"
     bordercolor="#666666"
     borderopacity="1.0"
     inkscape:pageopacity="0.0"
     inkscape:pageshadow="2"
     inkscape:zoom="5.90625"
     inkscape:cx="48"
     inkscape:cy="48"
     inkscape:document-units="px"
     inkscape:current-layer="layer1"
     showgrid="true"
     inkscape:snap-page="true"
     inkscape:snap-global="true"
     inkscape:snap-center="true"
     inkscape:snap-object-midpoints="false"
     showguides="true"
     inkscape:guide-bbox="true"
     inkscape:snap-bbox="true"
     inkscape:object-paths="true"
     inkscape:object-nodes="true"
     inkscape:window-width="1305"
     inkscape:window-height="744"
     inkscape:window-x="61"
     inkscape:window-y="24"
     inkscape:window-maximized="1"
     inkscape:snap-midpoints="true"
     inkscape:snap-grids="true"
     inkscape:snap-to-guides="false">
    <inkscape:grid
       type="xygrid"
       id="grid3002"
       empspacing="5"
       visible="true"
       enabled="true"
       snapvisiblegridlinesonly="true" />
  </sodipodi:namedview>
  <metadata
     id="metadata7">
    <rdf:RDF>
      <cc:Work
         rdf:about="">
        <dc:format>image/svg+xml</dc:format>
        <dc:type
           rdf:resource="http://purl.org/dc/dcmitype/StillImage" />
        <dc:title />
      </cc:Work>
    </rdf:RDF>
  </metadata>
  <g
     inkscape:label="Layer 1"
     inkscape:groupmode="layer"
     id="layer1"
     transform="translate(0,-956.36218)">
    <rect
       style="fill:#ffffff;fill-opacity:0;fill-rule:nonzero;stroke:none"
       id="rect3775"
       width="96"
       height="96"
       x="0"
       y="956.36218"
       ry="0" />
    <path
       style="fill:#000000;fill-opacity:0.09589041;fill-rule:nonzero;stroke:none"
       d="m 3.353015,956.30662 c -1.884176,0 -3.4111555,1.43156 -3.4111555,3.19799 l 0,83.65949 c 0,1.7665 1.5269795,3.1981 3.4111555,3.1981 l 89.23583,0 c 1.884174,0 3.411155,-1.4316 3.411155,-3.1981 l 0,-83.65949 c 0,-1.76643 -1.526981,-3.19799 -3.411155,-3.19799 z"
       id="rect3772"
       inkscape:connector-curvature="0"
       sodipodi:nodetypes="sssssssss" />
    <path
       style="fill:#000000;fill-opacity:0.18721463;fill-rule:nonzero;stroke:none"
       d="m 1.0459761,1041.8066 0,7.4219 c 0,1.7392 1.461916,3.1337 3.2852054,3.1337 l 86.3836135,0 c 1.823288,0 3.285205,-1.3945 3.285205,-3.1337 l 0,-7.4219 -92.9540239,0 z"
       id="rect3785"
       inkscape:connector-curvature="0" />
    <path
       style="fill:#000000;fill-opacity:0.38356168;fill-rule:nonzero;stroke:none"
       d="m 1.0459761,1041.8066 0,5.3807 c 0,1.762 1.461916,3.1749 3.2852054,3.1749 l 86.3836135,0 c 1.823288,0 3.285205,-1.4129 3.285205,-3.1749 l 0,-5.3807 -92.9540239,0 z"
       id="rect3783"
       inkscape:connector-curvature="0" />
    <rect
       style="fill:#00b760;fill-opacity:1;fill-rule:nonzero;stroke:none"
       id="rect2985"
       width="92.954025"
       height="89"
       x="1.045977"
       y="957.36218"
       ry="3.1511393" />
    <path
       style="fill:#000000;fill-opacity:0.38356168;fill-rule:nonzero;stroke:none"
       d="m 1,1042.3622 0.045976,2.7457 c 0.03024,1.8058 1.461916,3.2543 3.2852054,3.2543 l 86.3836136,0 c 1.823288,0 3.285205,-1.4481 3.285205,-3.2543 l -0.04598,-2.7457 z"
       id="rect3781"
       inkscape:connector-curvature="0"
       sodipodi:nodetypes="csssscc" />
    <rect
       style="fill:#ffffff;fill-opacity:0.30000001;fill-rule:nonzero;stroke:none"
       id="rect3770"
       width="92.954033"
       height="2.000005"
       x="1.045976"
       y="1040.3622" />
    <rect
       style="opacity:1;fill:#ffffff;fill-opacity:0.18264841;fill-rule:evenodd;stroke:none"
       id="rect2991"
       width="36"
       height="37"
       x="58"
       y="28"
       transform="translate(0,956.36218)" />
    <rect
       y="997.36218"
       x="71"
       height="11"
       width="23"
       id="rect3761"
       style="fill:#ffffff;fill-opacity:0.18264842;fill-rule:evenodd;stroke:none" />
    <rect
       y="973.36218"
       x="47"
       height="10.999997"
       width="47"
       id="rect3763"
       style="fill:#ffffff;fill-opacity:0.18264842;fill-rule:evenodd;stroke:none" />
    <rect
       style="fill:#ffffff;fill-opacity:0.18264842;fill-rule:evenodd;stroke:none"
       id="rect3765"
       width="38"
       height="12.999997"
       x="1"
       y="996.36218" />
    <rect
       y="-1021.3622"
       x="1"
       height="10"
       width="53"
       id="rect3767"
       style="fill:#ffffff;fill-opacity:0.18264842;fill-rule:evenodd;stroke:none"
       transform="scale(1,-1)" />
    <rect
       style="fill:#ffffff;fill-opacity:0.18264842;fill-rule:evenodd;stroke:none"
       id="rect3769"
       width="47"
       height="10.999997"
       x="47"
       y="973.36218" />
    <path
       inkscape:connector-curvature="0"
       style="fill:#e5f8ef;fill-opacity:1;stroke:none"
       id="rect3558"
       d="m 46.72979,973.22284 c -3.142247,0 -5.6925,2.55026 -5.6925,5.69264 0,1.96376 1.015706,3.68079 2.530025,4.7039 l 0,0.98851 -12.650009,0 c -1.401634,0 -2.530005,1.12828 -2.530005,2.53004 l 0,12.29407 c 1.043256,-1.3089 2.624667,-2.17416 4.427504,-2.17416 3.142246,0 5.692499,2.55036 5.692499,5.69256 0,3.1422 -2.550253,5.6924 -5.692499,5.6924 -1.802837,0 -3.384248,-0.8651 -4.427504,-2.1743 l 0,12.2943 c 0,1.4015 1.128371,2.53 2.530005,2.53 l 12.294201,0 c -1.309097,-1.0431 -2.174217,-2.6246 -2.174217,-4.4275 0,-3.1424 2.550253,-5.6924 5.6925,-5.6924 3.14228,0 5.692515,2.55 5.692515,5.6924 0,1.8029 -0.865102,3.3844 -2.174231,4.4275 l 12.294216,0 c 1.401619,0 2.530007,-1.1285 2.530007,-2.53 l 0,-12.65 0.988312,0 c 1.023283,1.5143 2.740265,2.53 4.704185,2.53 3.142265,0 5.692518,-2.5502 5.692518,-5.6924 0,-3.1422 -2.550253,-5.69256 -5.692518,-5.69256 -1.96392,0 -3.680902,1.01576 -4.704185,2.53006 l -0.988312,0 0,-12.64997 c 0,-1.40176 -1.128388,-2.53004 -2.530007,-2.53004 l -12.650023,0 0,-0.98851 c 1.514316,-1.02311 2.530038,-2.74014 2.530038,-4.7039 0,-3.14238 -2.550235,-5.69264 -5.692515,-5.69264 z" />
  </g>
</svg>
