<?xml version="1.0" encoding="UTF-8" standalone="no"?>
<svg
   xmlns:dc="http://purl.org/dc/elements/1.1/"
   xmlns:cc="http://creativecommons.org/ns#"
   xmlns:rdf="http://www.w3.org/1999/02/22-rdf-syntax-ns#"
   xmlns:svg="http://www.w3.org/2000/svg"
   xmlns="http://www.w3.org/2000/svg"
   xmlns:xlink="http://www.w3.org/1999/xlink"
   xmlns:sodipodi="http://sodipodi.sourceforge.net/DTD/sodipodi-0.dtd"
   xmlns:inkscape="http://www.inkscape.org/namespaces/inkscape"
   width="48"
   version="1.0"
   height="48"
   id="svg2"
   inkscape:version="0.48.5 r10040"
   sodipodi:docname="debian-swirl.svg">
  <metadata
     id="metadata22">
    <rdf:RDF>
      <cc:Work
         rdf:about="">
        <dc:format>image/svg+xml</dc:format>
        <dc:type
           rdf:resource="http://purl.org/dc/dcmitype/StillImage" />
      </cc:Work>
    </rdf:RDF>
  </metadata>
  <defs
     id="defs20">
    <linearGradient
       y2="168.95639"
       x2="243.96431"
       y1="143.18951"
       x1="173.32414"
       gradientTransform="matrix(0.34085088,0,0,0.35156881,34.020411,40.200393)"
       gradientUnits="userSpaceOnUse"
       id="linearGradient4232"
       xlink:href="#linearGradient3845"
       inkscape:collect="always" />
    <linearGradient
       y2="168.95639"
       x2="243.96431"
       y1="143.18951"
       x1="173.32414"
       gradientUnits="userSpaceOnUse"
       id="linearGradient4230"
       xlink:href="#linearGradient3845"
       inkscape:collect="always" />
    <linearGradient
       y2="168.95639"
       x2="243.96431"
       y1="143.18951"
       x1="173.32414"
       gradientUnits="userSpaceOnUse"
       id="linearGradient4228"
       xlink:href="#linearGradient3845"
       inkscape:collect="always" />
    <linearGradient
       y2="318.40698"
       x2="190.86786"
       y1="263.18744"
       x1="234.0863"
       gradientTransform="matrix(0.37593835,0,0,0.35156881,-2.5397371,-1.6759008)"
       gradientUnits="userSpaceOnUse"
       id="linearGradient4226"
       xlink:href="#linearGradient3893-5-7"
       inkscape:collect="always" />
    <linearGradient
       y2="213.5795"
       x2="-34.195591"
       y1="142.31703"
       x1="-47.001347"
       gradientUnits="userSpaceOnUse"
       id="linearGradient4224"
       xlink:href="#linearGradient3893-5-7"
       inkscape:collect="always" />
    <linearGradient
       gradientTransform="matrix(0.34085088,0,0,0.35156881,34.020411,40.200393)"
       y2="168.95639"
       x2="243.96431"
       y1="143.18951"
       x1="173.32414"
       gradientUnits="userSpaceOnUse"
       id="linearGradient4207"
       xlink:href="#linearGradient3845"
       inkscape:collect="always" />
    <linearGradient
       y2="168.95639"
       x2="243.96431"
       y1="143.18951"
       x1="173.32414"
       gradientUnits="userSpaceOnUse"
       id="linearGradient4204"
       xlink:href="#linearGradient3845"
       inkscape:collect="always" />
    <linearGradient
       y2="168.95639"
       x2="243.96431"
       y1="143.18951"
       x1="173.32414"
       gradientUnits="userSpaceOnUse"
       id="linearGradient4202"
       xlink:href="#linearGradient3845"
       inkscape:collect="always" />
    <linearGradient
       y2="168.95639"
       x2="243.96431"
       y1="143.18951"
       x1="173.32414"
       gradientUnits="userSpaceOnUse"
       id="linearGradient4200"
       xlink:href="#linearGradient3845"
       inkscape:collect="always" />
    <linearGradient
       y2="168.95639"
       x2="243.96431"
       y1="143.18951"
       x1="173.32414"
       gradientUnits="userSpaceOnUse"
       id="linearGradient4198"
       xlink:href="#linearGradient3845"
       inkscape:collect="always" />
    <linearGradient
       y2="318.40698"
       x2="190.86786"
       y1="263.18744"
       x1="234.0863"
       gradientTransform="matrix(0.37593835,0,0,0.35156881,-2.5397371,-1.6759008)"
       gradientUnits="userSpaceOnUse"
       id="linearGradient4194"
       xlink:href="#linearGradient3893-5-7"
       inkscape:collect="always" />
    <linearGradient
       y2="168.95639"
       x2="243.96431"
       y1="143.18951"
       x1="173.32414"
       gradientUnits="userSpaceOnUse"
       id="linearGradient4187"
       xlink:href="#linearGradient3845"
       inkscape:collect="always" />
    <linearGradient
       y2="168.95639"
       x2="243.96431"
       y1="143.18951"
       x1="173.32414"
       gradientUnits="userSpaceOnUse"
       id="linearGradient4185"
       xlink:href="#linearGradient3845"
       inkscape:collect="always" />
    <linearGradient
       y2="168.95639"
       x2="243.96431"
       y1="143.18951"
       x1="173.32414"
       gradientUnits="userSpaceOnUse"
       id="linearGradient4183"
       xlink:href="#linearGradient3845"
       inkscape:collect="always" />
    <linearGradient
       y2="168.95639"
       x2="243.96431"
       y1="143.18951"
       x1="173.32414"
       gradientUnits="userSpaceOnUse"
       id="linearGradient4181"
       xlink:href="#linearGradient3845"
       inkscape:collect="always" />
    <linearGradient
       y2="318.40698"
       x2="190.86786"
       y1="263.18744"
       x1="234.0863"
       gradientTransform="matrix(2.2203789,0,0,2.1814021,-781.23813,-512.74321)"
       gradientUnits="userSpaceOnUse"
       id="linearGradient4179"
       xlink:href="#linearGradient3893-5-7"
       inkscape:collect="always" />
    <linearGradient
       y2="213.5795"
       x2="-34.195591"
       y1="142.31703"
       x1="-47.001347"
       gradientUnits="userSpaceOnUse"
       id="linearGradient4177"
       xlink:href="#linearGradient3893-5-7"
       inkscape:collect="always" />
    <linearGradient
       y2="213.5795"
       x2="-34.195591"
       y1="142.31703"
       x1="-47.001347"
       gradientUnits="userSpaceOnUse"
       id="linearGradient4167"
       xlink:href="#linearGradient3893-5-7"
       inkscape:collect="always" />
    <linearGradient
       y2="318.40698"
       x2="190.86786"
       y1="263.18744"
       x1="234.0863"
       gradientTransform="matrix(2.2203789,0,0,2.1814021,-781.23813,-512.74321)"
       gradientUnits="userSpaceOnUse"
       id="linearGradient4163"
       xlink:href="#linearGradient3893-5-7"
       inkscape:collect="always" />
    <linearGradient
       y2="168.95639"
       x2="243.96431"
       y1="143.18951"
       x1="173.32414"
       gradientUnits="userSpaceOnUse"
       id="linearGradient4156"
       xlink:href="#linearGradient3845"
       inkscape:collect="always" />
    <linearGradient
       y2="168.95639"
       x2="243.96431"
       y1="143.18951"
       x1="173.32414"
       gradientUnits="userSpaceOnUse"
       id="linearGradient4154"
       xlink:href="#linearGradient3845"
       inkscape:collect="always" />
    <linearGradient
       y2="168.95639"
       x2="243.96431"
       y1="143.18951"
       x1="173.32414"
       gradientUnits="userSpaceOnUse"
       id="linearGradient4152"
       xlink:href="#linearGradient3845"
       inkscape:collect="always" />
    <linearGradient
       y2="168.95639"
       x2="243.96431"
       y1="143.18951"
       x1="173.32414"
       gradientUnits="userSpaceOnUse"
       id="linearGradient4150"
       xlink:href="#linearGradient3845"
       inkscape:collect="always" />
    <linearGradient
       y2="318.40698"
       x2="190.86786"
       y1="263.18744"
       x1="234.0863"
       gradientTransform="matrix(2.2203789,0,0,2.1814021,-258.0462,-350.29138)"
       gradientUnits="userSpaceOnUse"
       id="linearGradient4148"
       xlink:href="#linearGradient3893-5-7"
       inkscape:collect="always" />
    <linearGradient
       y2="213.5795"
       x2="-34.195591"
       y1="142.31703"
       x1="-47.001347"
       gradientUnits="userSpaceOnUse"
       id="linearGradient4146"
       xlink:href="#linearGradient3893-5-7"
       inkscape:collect="always" />
    <linearGradient
       id="linearGradient4259">
      <stop
         style="stop-color:#0668b3;stop-opacity:1;"
         offset="0"
         id="stop4261" />
      <stop
         style="stop-color:#0668b3;stop-opacity:0;"
         offset="1"
         id="stop4263" />
    </linearGradient>
    <linearGradient
       inkscape:collect="always"
       xlink:href="#linearGradient3845"
       id="linearGradient3851"
       x1="173.32414"
       y1="143.18951"
       x2="243.96431"
       y2="168.95639"
       gradientUnits="userSpaceOnUse" />
    <linearGradient
       id="linearGradient3845">
      <stop
         style="stop-color:#e8ff00;stop-opacity:1;"
         offset="0"
         id="stop3847" />
      <stop
         style="stop-color:#ff8a0a;stop-opacity:1;"
         offset="1"
         id="stop3849" />
    </linearGradient>
    <linearGradient
       inkscape:collect="always"
       xlink:href="#linearGradient3845"
       id="linearGradient4109"
       gradientUnits="userSpaceOnUse"
       x1="173.32414"
       y1="143.18951"
       x2="243.96431"
       y2="168.95639" />
    <linearGradient
       id="linearGradient3314">
      <stop
         style="stop-color:#e8ff00;stop-opacity:1;"
         offset="0"
         id="stop3316" />
      <stop
         style="stop-color:#ff8a0a;stop-opacity:1;"
         offset="1"
         id="stop3318" />
    </linearGradient>
    <linearGradient
       inkscape:collect="always"
       xlink:href="#linearGradient3845"
       id="linearGradient4107"
       gradientUnits="userSpaceOnUse"
       x1="173.32414"
       y1="143.18951"
       x2="243.96431"
       y2="168.95639" />
    <linearGradient
       id="linearGradient3321">
      <stop
         style="stop-color:#e8ff00;stop-opacity:1;"
         offset="0"
         id="stop3323" />
      <stop
         style="stop-color:#ff8a0a;stop-opacity:1;"
         offset="1"
         id="stop3325" />
    </linearGradient>
    <linearGradient
       inkscape:collect="always"
       xlink:href="#linearGradient3845"
       id="linearGradient4111"
       gradientUnits="userSpaceOnUse"
       x1="173.32414"
       y1="143.18951"
       x2="243.96431"
       y2="168.95639" />
    <linearGradient
       id="linearGradient3328">
      <stop
         style="stop-color:#e8ff00;stop-opacity:1;"
         offset="0"
         id="stop3330" />
      <stop
         style="stop-color:#ff8a0a;stop-opacity:1;"
         offset="1"
         id="stop3332" />
    </linearGradient>
    <linearGradient
       y2="213.5795"
       x2="-34.195591"
       y1="142.31703"
       x1="-47.001347"
       gradientUnits="userSpaceOnUse"
       id="linearGradient4076"
       xlink:href="#linearGradient3893-5-7"
       inkscape:collect="always" />
    <linearGradient
       id="linearGradient3893-5-7">
      <stop
         style="stop-color:#0096ff;stop-opacity:1;"
         offset="0"
         id="stop3895-1-9" />
      <stop
         style="stop-color:#000062;stop-opacity:1;"
         offset="1"
         id="stop3897-9-5" />
    </linearGradient>
    <linearGradient
       inkscape:collect="always"
       xlink:href="#linearGradient4197"
       id="linearGradient4203"
       x1="-152.42574"
       y1="118.74149"
       x2="52.425728"
       y2="118.74149"
       gradientUnits="userSpaceOnUse" />
    <linearGradient
       id="linearGradient4197">
      <stop
         style="stop-color:#23ff17;stop-opacity:0.6438356;"
         offset="0"
         id="stop4199" />
      <stop
         style="stop-color:#13fd2c;stop-opacity:1;"
         offset="1"
         id="stop4201" />
    </linearGradient>
    <linearGradient
       inkscape:collect="always"
       xlink:href="#linearGradient4197"
       id="linearGradient3899"
       x1="-91.796867"
       y1="72.66201"
       x2="-9.8622341"
       y2="198.57687"
       gradientUnits="userSpaceOnUse" />
    <linearGradient
       id="linearGradient3343">
      <stop
         style="stop-color:#23ff17;stop-opacity:0.6438356;"
         offset="0"
         id="stop3345" />
      <stop
         style="stop-color:#13fd2c;stop-opacity:1;"
         offset="1"
         id="stop3347" />
    </linearGradient>
    <filter
       id="filter4309"
       inkscape:label="Ink bleed"
       inkscape:menu="Protrusions"
       inkscape:menu-tooltip="Inky splotches underneath the object"
       color-interpolation-filters="sRGB">
      <feGaussianBlur
         id="feGaussianBlur4311"
         result="result1"
         in="SourceGraphic"
         stdDeviation="1.3" />
      <feTurbulence
         id="feTurbulence4313"
         result="result0"
         numOctaves="4"
         baseFrequency="0.034" />
      <feDisplacementMap
         id="feDisplacementMap4315"
         in2="result0"
         result="result2"
         scale="19.6"
         yChannelSelector="G"
         xChannelSelector="R"
         in="result1" />
      <feColorMatrix
         id="feColorMatrix4317"
         values="2 0 0 0 0 0 2 0 0 0 0 0 2 0 0 0 0 0 0.7 0"
         result="result3" />
      <feGaussianBlur
         id="feGaussianBlur4319"
         result="result4"
         in="SourceGraphic"
         stdDeviation="1.1" />
      <feComposite
         id="feComposite4321"
         in2="result3"
         in="result4"
         result="fbSourceGraphic" />
      <feColorMatrix
         result="fbSourceGraphicAlpha"
         in="fbSourceGraphic"
         values="0 0 0 -1 0 0 0 0 -1 0 0 0 0 -1 0 0 0 0 1 0"
         id="feColorMatrix4505" />
      <feGaussianBlur
         id="feGaussianBlur4507"
         result="result1"
         in="fbSourceGraphic"
         stdDeviation="1.3" />
      <feTurbulence
         id="feTurbulence4509"
         result="result0"
         numOctaves="4"
         baseFrequency="0.034" />
      <feDisplacementMap
         id="feDisplacementMap4511"
         in2="result0"
         result="result2"
         scale="19.6"
         yChannelSelector="G"
         xChannelSelector="R"
         in="result1" />
      <feColorMatrix
         id="feColorMatrix4513"
         values="2 0 0 0 0 0 2 0 0 0 0 0 2 0 0 0 0 0 0.7 0"
         result="result3" />
      <feGaussianBlur
         id="feGaussianBlur4515"
         result="result4"
         in="fbSourceGraphic"
         stdDeviation="1.1" />
      <feComposite
         id="feComposite4517"
         in2="result3"
         in="result4" />
    </filter>
    <linearGradient
       inkscape:collect="always"
       xlink:href="#linearGradient3893-5-7"
       id="linearGradient4265"
       x1="234.0863"
       y1="263.18744"
       x2="190.86786"
       y2="318.40698"
       gradientUnits="userSpaceOnUse"
       gradientTransform="matrix(2.2203789,0,0,2.1814021,-258.0462,-350.29138)" />
    <linearGradient
       y2="213.5795"
       x2="-34.195591"
       y1="142.31703"
       x1="-47.001347"
       gradientUnits="userSpaceOnUse"
       id="linearGradient4076-0"
       xlink:href="#linearGradient3893-5-7-1"
       inkscape:collect="always" />
    <linearGradient
       id="linearGradient3893-5-7-1">
      <stop
         style="stop-color:#0096ff;stop-opacity:1;"
         offset="0"
         id="stop3895-1-9-2" />
      <stop
         style="stop-color:#000062;stop-opacity:1;"
         offset="1"
         id="stop3897-9-5-2" />
    </linearGradient>
    <linearGradient
       inkscape:collect="always"
       xlink:href="#linearGradient3893-5-7"
       id="linearGradient4262"
       gradientUnits="userSpaceOnUse"
       x1="-47.001347"
       y1="142.31703"
       x2="-34.195591"
       y2="213.5795" />
    <linearGradient
       inkscape:collect="always"
       xlink:href="#linearGradient3893-5-7"
       id="linearGradient4264"
       gradientUnits="userSpaceOnUse"
       gradientTransform="matrix(0.37593835,0,0,0.35156881,-2.5397371,-1.6759008)"
       x1="234.0863"
       y1="263.18744"
       x2="190.86786"
       y2="318.40698" />
    <linearGradient
       inkscape:collect="always"
       xlink:href="#linearGradient3845"
       id="linearGradient4266"
       gradientUnits="userSpaceOnUse"
       x1="173.32414"
       y1="143.18951"
       x2="243.96431"
       y2="168.95639" />
    <linearGradient
       inkscape:collect="always"
       xlink:href="#linearGradient3845"
       id="linearGradient4268"
       gradientUnits="userSpaceOnUse"
       x1="173.32414"
       y1="143.18951"
       x2="243.96431"
       y2="168.95639" />
    <linearGradient
       inkscape:collect="always"
       xlink:href="#linearGradient3845"
       id="linearGradient4270"
       gradientUnits="userSpaceOnUse"
       gradientTransform="matrix(0.34085088,0,0,0.35156881,34.020411,40.200393)"
       x1="173.32414"
       y1="143.18951"
       x2="243.96431"
       y2="168.95639" />
  </defs>
  <sodipodi:namedview
     pagecolor="#ffffff"
     bordercolor="#666666"
     borderopacity="1"
     objecttolerance="10"
     gridtolerance="10"
     guidetolerance="10"
     inkscape:pageopacity="0"
     inkscape:pageshadow="2"
     inkscape:window-width="1366"
     inkscape:window-height="701"
     id="namedview18"
     showgrid="false"
     inkscape:zoom="3.4766083"
     inkscape:cx="-32.846467"
     inkscape:cy="25.606428"
     inkscape:window-x="0"
     inkscape:window-y="0"
     inkscape:window-maximized="1"
     inkscape:current-layer="svg2" />
  <g
     id="g4217"
     transform="matrix(0.68521863,0,0,0.72816313,-40.786874,-44.339495)">
    <path
       transform="matrix(0.39242871,0,0,0.38592522,114.37394,48.385977)"
       d="m 28.822357,118.74149 c 0,42.37357 -35.2899712,76.72414 -78.822357,76.72414 -43.532386,0 -78.82236,-34.35057 -78.82236,-76.72414 0,-42.373567 35.289974,-76.724133 78.82236,-76.724133 43.5323858,0 78.822357,34.350566 78.822357,76.724133 z"
       sodipodi:ry="76.724136"
       sodipodi:rx="78.822357"
       sodipodi:cy="118.74149"
       sodipodi:cx="-50"
       id="path3000-0-7"
       style="fill:#ffffff;fill-opacity:1;stroke:url(#linearGradient4262);stroke-width:12.76015759;stroke-miterlimit:4;stroke-opacity:1;stroke-dasharray:none"
       sodipodi:type="arc" />
    <path
       inkscape:connector-curvature="0"
       id="path9-0-9-6-1"
       d="m 77.405468,81.795377 c -5.05409,0 -9.957317,5.465302 -9.957317,13.535399 0,8.276174 4.782219,14.205574 11.134845,14.205574 5.85613,0 10.259957,-3.41711 15.070247,-9.646163 0.05561,-0.07206 0.116914,-0.154097 0.175596,-0.230718 0.152695,-0.197917 0.313579,-0.412636 0.485472,-0.637218 2.639081,-3.43469 7.501959,-9.64561 10.070939,-8.811195 -0.25956,-0.318971 -1.13046,-0.780042 -2.03485,-0.780042 -2.01906,0 -4.475475,0.549136 -9.740401,6.569942 -0.04037,0.04636 -0.0832,0.085 -0.123947,0.131839 -0.0083,0.0091 -0.01244,0.02384 -0.02069,0.03294 -0.169181,0.195272 -0.341853,0.398901 -0.516456,0.604259 -0.0125,0.01488 -0.02865,0.02932 -0.04132,0.04395 -0.178229,0.210164 -0.353992,0.415762 -0.537112,0.637218 -0.150711,0.181823 -0.305227,0.365646 -0.454485,0.538341 -0.0221,0.02573 -0.03968,0.05145 -0.06197,0.0769 -0.109588,0.126584 -0.22131,0.251766 -0.330534,0.373542 -0.0567,0.06341 -0.108932,0.124804 -0.165266,0.186771 -0.09654,0.106164 -0.193032,0.20482 -0.289211,0.307622 -0.03568,0.03841 -0.07794,0.08314 -0.113625,0.120852 -4.441505,4.69929 -8.267816,5.72398 -10.546078,5.72398 -3.622528,0 -6.58071,-2.54023 -7.943131,-6.536984 0.955022,1.113152 2.395705,1.823764 4.007716,1.823764 2.875487,0 5.205902,-2.260485 5.205902,-5.042816 0,-2.782327 -2.330415,-5.031829 -5.205902,-5.031829 -2.186814,0 -4.052509,1.304477 -4.823715,3.153133 -1.41e-4,-0.02949 0,-0.05833 0,-0.08789 0,-6.251397 4.497677,-11.005451 8.397609,-10.953566 -0.161581,-0.134745 -0.896625,-0.307623 -1.642337,-0.307623 z"
       style="fill:url(#linearGradient4264);fill-opacity:1" />
    <a
       transform="matrix(0.34085088,0,0,0.35156881,34.020411,40.200393)"
       id="a3060"
       style="fill:url(#linearGradient4268);fill-opacity:1">
      <path
         sodipodi:type="arc"
         style="fill:url(#linearGradient4266);fill-opacity:1"
         id="path4842-96"
         sodipodi:cx="399.77542"
         sodipodi:cy="216.87712"
         sodipodi:rx="17.199152"
         sodipodi:ry="14.682203"
         d="m 416.97457,216.87712 c 0,8.10876 -7.70032,14.6822 -17.19915,14.6822 -9.49883,0 -17.19915,-6.57344 -17.19915,-14.6822 0,-8.10876 7.70032,-14.6822 17.19915,-14.6822 9.49883,0 17.19915,6.57344 17.19915,14.6822 z"
         transform="matrix(0.9158527,0,0,0.97598693,-137.04281,-62.021667)" />
    </a>
    <path
       style="fill:url(#linearGradient4270);fill-opacity:1"
       inkscape:connector-curvature="0"
       d="m 82.851785,99.440314 c 0.267664,0.318971 1.160676,0.780376 2.093295,0.780376 2.082084,0 4.616007,-0.542828 10.045278,-6.563634 l 0.001,0.0011 c 0.04163,-0.04635 0.08405,-0.09464 0.126077,-0.141471 0.0086,-0.0091 0.01694,-0.01899 0.02539,-0.02809 0.174458,-0.195271 0.35172,-0.395107 0.531772,-0.600469 0.01288,-0.01487 0.0258,-0.02981 0.03884,-0.04443 0.1838,-0.210168 0.369649,-0.424414 0.558487,-0.645867 0.155405,-0.181825 0.310066,-0.358601 0.463974,-0.531298 0.0228,-0.02574 0.04556,-0.05044 0.06855,-0.0759 0.113003,-0.126582 0.226008,-0.2498 0.338639,-0.371573 0.05846,-0.06341 0.117301,-0.126821 0.175395,-0.188792 0.09956,-0.10616 0.198924,-0.210407 0.298108,-0.313206 0.03678,-0.03842 0.07415,-0.07806 0.110951,-0.115772 4.580139,-4.69929 8.530459,-5.728254 10.879829,-5.728254 5.16945,0 9.02731,4.860213 9.02731,11.720727 0,6.251389 -4.63861,11.007599 -8.66028,10.955719 0.16661,0.13475 0.92645,0.31393 1.69545,0.31393 5.21185,0 10.26998,-5.47054 10.26998,-13.540636 0,-8.276179 -4.93093,-14.201393 -11.48184,-14.201393 -6.03894,0 -10.585463,3.418602 -15.545903,9.647656 -0.05734,0.07206 -0.116554,0.146513 -0.177072,0.223134 -0.15746,0.197915 -0.325189,0.409521 -0.502455,0.634096 -2.721446,3.434698 -7.731756,9.648383 -10.380928,8.813964 l 0,0 z"
       id="path3835-3-2-1" />
  </g>
</svg>
