<?xml version="1.0" encoding="UTF-8" standalone="no"?>
<svg
   xmlns:dc="http://purl.org/dc/elements/1.1/"
   xmlns:cc="http://creativecommons.org/ns#"
   xmlns:rdf="http://www.w3.org/1999/02/22-rdf-syntax-ns#"
   xmlns:svg="http://www.w3.org/2000/svg"
   xmlns="http://www.w3.org/2000/svg"
   xmlns:sodipodi="http://sodipodi.sourceforge.net/DTD/sodipodi-0.dtd"
   xmlns:inkscape="http://www.inkscape.org/namespaces/inkscape"
   width="48"
   version="1.1"
   height="48"
   id="svg2"
   inkscape:version="0.48.5 r10040"
   sodipodi:docname="folder-download.svg">
  <metadata
     id="metadata15">
    <rdf:RDF>
      <cc:Work
         rdf:about="">
        <dc:format>image/svg+xml</dc:format>
        <dc:type
           rdf:resource="http://purl.org/dc/dcmitype/StillImage" />
      </cc:Work>
    </rdf:RDF>
  </metadata>
  <defs
     id="defs13" />
  <sodipodi:namedview
     pagecolor="#ffffff"
     bordercolor="#666666"
     borderopacity="1"
     objecttolerance="10"
     gridtolerance="10"
     guidetolerance="10"
     inkscape:pageopacity="0"
     inkscape:pageshadow="2"
     inkscape:window-width="1366"
     inkscape:window-height="701"
     id="namedview11"
     showgrid="false"
     inkscape:zoom="4.9166667"
     inkscape:cx="29.341191"
     inkscape:cy="21.239643"
     inkscape:window-x="0"
     inkscape:window-y="0"
     inkscape:window-maximized="1"
     inkscape:current-layer="svg2" />
  <rect
     style="stroke:none"
     width="18"
     x="4"
     y="2.9586298"
     height="11.773318"
     id="folderTab" />
  <rect
     style="stroke:none"
     width="40"
     x="4"
     y="5.313652"
     height="35.319954"
     id="folderBackground" />
  <rect
     width="35.999992"
     x="6"
     y="7.6680799"
     height="32.965004"
     style="fill:#ffffff;stroke:none"
     id="folderPaper" />
  <rect
     width="43.999996"
     x="2"
     y="10.022959"
     height="32.965298"
     style="fill:#c0392b;stroke:none;fill-opacity:1"
     id="folderFront" />
  <path
     inkscape:connector-curvature="0"
     d="m 23.9387,17.0435 c -2.61818,1.55e-4 -5.22035,1.07847 -7.07031,2.92969 -1.84996,1.85122 -2.92578,4.45253 -2.92578,7.07031 0,2.61778 1.07582,5.21909 2.92578,7.07031 1.84996,1.85122 4.45214,2.92953 7.07031,2.92969 2.61817,1.55e-4 5.21994,-1.07846 7.07227,-2.92969 1.85232,-1.85123 2.93164,-4.45224 2.93164,-7.07031 0,-2.61808 -1.07932,-5.21908 -2.93164,-7.07031 -1.85232,-1.85123 -4.45409,-2.92984 -7.07227,-2.92969 z m 0,2 c 4.18908,-2.48e-4 8.00391,3.81108 8.00391,8 0,4.18892 -3.81483,8.00025 -8.00391,8 -4.18908,-2.48e-4 -7.99609,-3.81155 -7.99609,-8 0,-4.18845 3.80701,-7.99975 7.99609,-8 z m -1.9961,2 0,5 -4,0 6,7 6,-7 -4,0 0,-5 -4,0 z"
     id="folderGlyph"
     style="fill:#ffffff;stroke:none" />
</svg>
