<?xml version="1.0" encoding="UTF-8" standalone="no"?>
<!-- Created with Inkscape (http://www.inkscape.org/) -->

<svg
   xmlns:dc="http://purl.org/dc/elements/1.1/"
   xmlns:cc="http://creativecommons.org/ns#"
   xmlns:rdf="http://www.w3.org/1999/02/22-rdf-syntax-ns#"
   xmlns:svg="http://www.w3.org/2000/svg"
   xmlns="http://www.w3.org/2000/svg"
   xmlns:sodipodi="http://sodipodi.sourceforge.net/DTD/sodipodi-0.dtd"
   xmlns:inkscape="http://www.inkscape.org/namespaces/inkscape"
   width="48"
   height="48"
   id="svg865"
   version="1.1"
   inkscape:version="0.48.5 r10040"
   sodipodi:docname="folder-multimedia.svg">
  <defs
     id="defs867" />
  <sodipodi:namedview
     id="base"
     pagecolor="#ffffff"
     bordercolor="#666666"
     borderopacity="1.0"
     inkscape:pageopacity="0.0"
     inkscape:pageshadow="2"
     inkscape:zoom="12.775946"
     inkscape:cx="10.672791"
     inkscape:cy="16.902593"
     inkscape:document-units="px"
     inkscape:current-layer="folderLayer"
     showgrid="true"
     inkscape:window-width="1873"
     inkscape:window-height="1056"
     inkscape:window-x="47"
     inkscape:window-y="0"
     inkscape:window-maximized="1"
     borderlayer="true"
     inkscape:showpageshadow="false"
     showguides="false"
     inkscape:guide-bbox="true">
    <sodipodi:guide
       position="0,39.000017"
       orientation="30,0"
       id="guide4110" />
    <sodipodi:guide
       position="30,39.000017"
       orientation="0,-30"
       id="guide4116" />
    <sodipodi:guide
       position="30,9.0000174"
       orientation="0,18"
       id="guide4120" />
    <sodipodi:guide
       position="48,9.0000174"
       orientation="-30,0"
       id="guide4122" />
    <sodipodi:guide
       position="48,39.000017"
       orientation="0,-18"
       id="guide4124" />
    <sodipodi:guide
       position="4,41.000017"
       orientation="34,0"
       id="guide4164" />
    <sodipodi:guide
       position="22,41.000017"
       orientation="0,-18"
       id="guide4170" />
    <sodipodi:guide
       position="6,37.0002"
       orientation="27.999817,0"
       id="guide4174" />
    <sodipodi:guide
       position="6,9.0003836"
       orientation="0,35.999992"
       id="guide4176" />
    <sodipodi:guide
       position="41.999992,9.0003836"
       orientation="-27.999817,0"
       id="guide4178" />
    <sodipodi:guide
       position="41.999992,37.0002"
       orientation="0,-35.999992"
       id="guide4180" />
    <sodipodi:guide
       position="14,31.000017"
       orientation="20,0"
       id="guide4221" />
    <sodipodi:guide
       position="34,11.000017"
       orientation="-20,0"
       id="guide4225" />
    <sodipodi:guide
       position="34,31.000017"
       orientation="0,-20"
       id="guide4227" />
    <sodipodi:guide
       position="14,31.000017"
       orientation="11,0"
       id="guide4412" />
    <sodipodi:guide
       position="14,20.000017"
       orientation="6.123234e-17,1"
       id="guide4414" />
    <sodipodi:guide
       position="25,20.000017"
       orientation="-11,0"
       id="guide4416" />
    <sodipodi:guide
       position="25,31.000017"
       orientation="0,-11"
       id="guide4418" />
    <sodipodi:guide
       position="25,20.000017"
       orientation="9,0"
       id="guide4420" />
    <sodipodi:guide
       position="25,11.000017"
       orientation="0,9"
       id="guide4422" />
    <sodipodi:guide
       position="34,11.000017"
       orientation="-9,0"
       id="guide4424" />
    <sodipodi:guide
       position="34,20.000017"
       orientation="0,-9"
       id="guide4426" />
    <sodipodi:guide
       position="23.000001,35.000017"
       orientation="-1.9999999,0"
       id="guide4068" />
    <sodipodi:guide
       position="23.000001,37.000017"
       orientation="0,2"
       id="guide4070" />
    <sodipodi:guide
       position="25,37.000017"
       orientation="1.9999999,0"
       id="guide4072" />
    <sodipodi:guide
       position="25,35.000017"
       orientation="0,-2"
       id="guide4074" />
    <sodipodi:guide
       orientation="0,1"
       position="-5.0900019,45.012788"
       id="guide3049" />
    <sodipodi:guide
       orientation="0,1"
       position="14,5.0286766"
       id="guide3051" />
    <sodipodi:guide
       orientation="1,0"
       position="18.481902,18.990154"
       id="guide3071" />
  </sodipodi:namedview>
  <metadata
     id="metadata870">
    <rdf:RDF>
      <cc:Work
         rdf:about="">
        <dc:format>image/svg+xml</dc:format>
        <dc:type
           rdf:resource="http://purl.org/dc/dcmitype/StillImage" />
        <dc:title />
      </cc:Work>
    </rdf:RDF>
  </metadata>
  <g
     inkscape:groupmode="layer"
     id="folderLayer"
     inkscape:label="folder">
    <g
       id="g3910"
       transform="matrix(1.0181857,0,0,1.0181857,-0.43645647,-0.41778786)"
       style="opacity:0.3" />
    <g
       id="g3053"
       transform="matrix(1,0,0,1.1773318,0,-5.2823341)">
      <rect
         style="fill:#000000;fill-opacity:1;stroke:none"
         id="folderTab"
         width="18"
         height="10"
         x="4"
         y="6.9996953" />
      <rect
         y="9"
         x="4"
         height="30"
         width="40"
         id="folderBackground"
         style="fill:#000000;fill-opacity:1;stroke:none" />
      <rect
         y="10.9998"
         x="6"
         height="27.999756"
         width="35.999992"
         id="folderPaper"
         style="fill:#ffffff;fill-opacity:1;stroke:none" />
      <rect
         style="fill:#3498db;fill-opacity:1;stroke:none"
         id="folderFront"
         width="43.999996"
         height="28.000008"
         x="2"
         y="12.999983" />
    </g>
    <rect
       y="7.6680799"
       x="6"
       height="32.965004"
       width="35.999992"
       id="rect3849"
       style="fill:#ffffff;fill-opacity:1;stroke:none" />
    <rect
       style="fill:#3498db;fill-opacity:1;stroke:none"
       id="rect3851"
       width="43.999996"
       height="32.965298"
       x="2"
       y="10.022959" />
    <rect
       style="fill:none;stroke:none"
       id="rect3265"
       width="30"
       height="30"
       x="9.380971"
       y="11.101083" />
    <path
       style="fill:#ffffff;fill-opacity:1;stroke:none"
       inkscape:connector-curvature="0"
       id="path3009"
       d="m 39.055453,13.20393 c -0.05653,-0.0035 -0.09887,0.01409 -0.164267,0.03285 l -10.874468,1.938393 c 0.09903,1.486711 0.125904,2.991945 0.09856,4.500891 l 10.217405,-1.83978 v 10.578737 c -1e-6,0.216989 -0.423143,0.390552 -0.82133,0.229973 -1.482969,-0.59804 -3.732221,-0.860473 -5.453635,-0.361385 -2.692304,0.780574 -3.793817,3.709323 -2.95679,5.256516 0.837025,1.547192 4.005632,2.028331 6.669204,1.149863 1.816262,-0.59902 3.825566,-1.834051 4.139505,-3.581002 l -0.0328,-15.309601 c 0.0014,-0.01294 0,-0.05286 0,-0.06571 v -2.234019 c 0,-0.161819 -0.651775,-0.28527 -0.821331,-0.295679 z m -10.940071,6.472032 -5.059396,0.88709 -0.0328,12.484225 c -0.420141,1.428352 -2.323243,2.949126 -4.139506,3.548148 -2.663571,0.878471 -5.832178,0.430187 -6.669205,-1.11701 -0.837024,-1.547192 0.297342,-4.475944 2.989644,-5.256515 1.721414,-0.499087 3.937824,-0.236655 5.420781,0.361385 0.398188,0.160581 0.854186,-0.01298 0.854185,-0.229972 V 19.019003 18.78903 16.784984 c 10e-7,-0.215759 0.198391,-0.45082 0.459944,-0.525652 l 2.529646,-0.459944 c 0.182851,1.336237 0.06395,2.684091 -0.03285,3.876679 h 2.463992 c 0.143975,-1.181223 0.152019,-2.381495 0.03286,-4.008093 h -1.675514 l 2.75967,-0.492851 c -0.02271,-0.340885 -0.03424,-0.679248 -0.06571,-1.01845 -6.515598,0.629851 -13.080945,1.414045 -19.7119345,0.854185 0.7465671,8.12365 -1.6801191,15.804765 -0.2299726,22.668724 6.6303691,0.629849 13.2317021,1.204099 19.7447351,0.854183 -0.677853,-6.018374 0.246123,-12.497997 0.361385,-18.85775 z M 9.4219501,16.522053 h 2.4639929 c 0.04407,1.589045 0.03603,2.010228 -0.03286,3.153909 H 9.3562437 c 0.099895,-1.230708 0.2009829,-1.924925 0.065706,-3.153909 z m -0.2956264,4.927984 h 2.4639923 c -0.01174,1.329687 -0.236994,2.608009 -0.361385,3.975239 H 8.7977915 c 0.1243828,-1.329678 0.3660763,-2.510763 0.3285322,-3.975239 z m 14.8824583,0 h 2.562551 c -0.01174,1.329687 -0.138436,2.570467 -0.262825,3.975239 h -2.529699 c 0.01175,-1.329678 0.229966,-2.398127 0.229973,-3.975239 z M 8.732085,27.232204 h 2.463992 c 0.02961,1.379173 -0.0568,2.782073 -0.03285,3.97524 H 8.5021125 c 0.011743,-1.329678 0.160965,-2.261617 0.2299725,-3.97524 z m 14.94827,0 h 2.562551 c 0.02961,1.304078 -0.0568,2.744532 -0.03285,3.97524 h -2.661111 c 0.01174,-1.329678 -0.01269,-2.299158 0.131413,-3.97524 z m -12.582837,5.71646 c -0.01174,1.329679 0.176014,2.711269 0.164265,4.040947 -0.823475,0 -1.7719292,-0.09856 -2.5954044,-0.09856 -0.138443,-1.367231 -0.2088624,-2.547003 -0.1971194,-3.876681 0.8234742,0 1.8047828,-0.06571 2.6282588,-0.06571 z m 15.046776,0 c -0.01174,1.329679 0.17602,2.908388 0.164266,4.238067 h -2.496845 c 0.01174,-1.329679 -0.176019,-2.842682 -0.164266,-4.17236 0.823475,0 1.673369,-0.06571 2.496845,-0.06571 z" />
    <path
       inkscape:connector-curvature="0"
       style="fill:#ffffff;fill-opacity:1;stroke:none"
       id="path3005"
       d="m 24.468622,15.799388 0.788477,-0.131414 -0.788477,0 c 0.0065,0.04273 -0.0058,0.0887 0,0.131414 z" />
  </g>
</svg>
