<?xml version="1.0" encoding="UTF-8" standalone="no"?>
<!-- Created with Inkscape (http://www.inkscape.org/) -->

<svg
   xmlns:dc="http://purl.org/dc/elements/1.1/"
   xmlns:cc="http://creativecommons.org/ns#"
   xmlns:rdf="http://www.w3.org/1999/02/22-rdf-syntax-ns#"
   xmlns:svg="http://www.w3.org/2000/svg"
   xmlns="http://www.w3.org/2000/svg"
   xmlns:sodipodi="http://sodipodi.sourceforge.net/DTD/sodipodi-0.dtd"
   xmlns:inkscape="http://www.inkscape.org/namespaces/inkscape"
   width="48"
   height="48"
   id="svg865"
   version="1.1"
   inkscape:version="0.91 r13725"
   sodipodi:docname="folder-math.svg">
  <defs
     id="defs867" />
  <sodipodi:namedview
     id="base"
     pagecolor="#ffffff"
     bordercolor="#666666"
     borderopacity="1.0"
     inkscape:pageopacity="0.0"
     inkscape:pageshadow="2"
     inkscape:zoom="12.775946"
     inkscape:cx="-7.9738652"
     inkscape:cy="13.928254"
     inkscape:document-units="px"
     inkscape:current-layer="folderLayer"
     showgrid="true"
     inkscape:window-width="1873"
     inkscape:window-height="1056"
     inkscape:window-x="47"
     inkscape:window-y="0"
     inkscape:window-maximized="1"
     borderlayer="true"
     inkscape:showpageshadow="false"
     showguides="false"
     inkscape:guide-bbox="true">
    <sodipodi:guide
       position="0,39.000017"
       orientation="30,0"
       id="guide4110" />
    <sodipodi:guide
       position="30,39.000017"
       orientation="0,-30"
       id="guide4116" />
    <sodipodi:guide
       position="30,9.0000174"
       orientation="0,18"
       id="guide4120" />
    <sodipodi:guide
       position="48,9.0000174"
       orientation="-30,0"
       id="guide4122" />
    <sodipodi:guide
       position="48,39.000017"
       orientation="0,-18"
       id="guide4124" />
    <sodipodi:guide
       position="4,41.000017"
       orientation="34,0"
       id="guide4164" />
    <sodipodi:guide
       position="22,41.000017"
       orientation="0,-18"
       id="guide4170" />
    <sodipodi:guide
       position="6,37.0002"
       orientation="27.999817,0"
       id="guide4174" />
    <sodipodi:guide
       position="6,9.0003836"
       orientation="0,35.999992"
       id="guide4176" />
    <sodipodi:guide
       position="41.999992,9.0003836"
       orientation="-27.999817,0"
       id="guide4178" />
    <sodipodi:guide
       position="41.999992,37.0002"
       orientation="0,-35.999992"
       id="guide4180" />
    <sodipodi:guide
       position="14,31.000017"
       orientation="20,0"
       id="guide4221" />
    <sodipodi:guide
       position="34,11.000017"
       orientation="-20,0"
       id="guide4225" />
    <sodipodi:guide
       position="34,31.000017"
       orientation="0,-20"
       id="guide4227" />
    <sodipodi:guide
       position="14,31.000017"
       orientation="11,0"
       id="guide4412" />
    <sodipodi:guide
       position="14,20.000017"
       orientation="6.123234e-17,1"
       id="guide4414" />
    <sodipodi:guide
       position="25,20.000017"
       orientation="-11,0"
       id="guide4416" />
    <sodipodi:guide
       position="25,31.000017"
       orientation="0,-11"
       id="guide4418" />
    <sodipodi:guide
       position="25,20.000017"
       orientation="9,0"
       id="guide4420" />
    <sodipodi:guide
       position="25,11.000017"
       orientation="0,9"
       id="guide4422" />
    <sodipodi:guide
       position="34,11.000017"
       orientation="-9,0"
       id="guide4424" />
    <sodipodi:guide
       position="34,20.000017"
       orientation="0,-9"
       id="guide4426" />
    <sodipodi:guide
       position="23.000001,35.000017"
       orientation="-1.9999999,0"
       id="guide4068" />
    <sodipodi:guide
       position="23.000001,37.000017"
       orientation="0,2"
       id="guide4070" />
    <sodipodi:guide
       position="25,37.000017"
       orientation="1.9999999,0"
       id="guide4072" />
    <sodipodi:guide
       position="25,35.000017"
       orientation="0,-2"
       id="guide4074" />
    <sodipodi:guide
       orientation="0,1"
       position="-5.0900019,45.012788"
       id="guide3049" />
    <sodipodi:guide
       orientation="0,1"
       position="14,5.0286766"
       id="guide3051" />
    <sodipodi:guide
       orientation="1,0"
       position="18.481902,18.990154"
       id="guide3071" />
  </sodipodi:namedview>
  <metadata
     id="metadata870">
    <rdf:RDF>
      <cc:Work
         rdf:about="">
        <dc:format>image/svg+xml</dc:format>
        <dc:type
           rdf:resource="http://purl.org/dc/dcmitype/StillImage" />
        <dc:title />
      </cc:Work>
    </rdf:RDF>
  </metadata>
  <g
     inkscape:groupmode="layer"
     id="folderLayer"
     inkscape:label="folder">
    <g
       id="g3910"
       transform="matrix(1.0181857,0,0,1.0181857,-0.43645647,-0.41778786)"
       style="opacity:0.3" />
    <g
       id="g3053"
       transform="matrix(1,0,0,1.1773318,0,-5.2823341)">
      <rect
         style="fill:#000000;fill-opacity:1;stroke:none"
         id="folderTab"
         width="18"
         height="10"
         x="4"
         y="6.9996953" />
      <rect
         y="9"
         x="4"
         height="30"
         width="40"
         id="folderBackground"
         style="fill:#000000;fill-opacity:1;stroke:none" />
      <rect
         y="10.9998"
         x="6"
         height="27.999756"
         width="35.999992"
         id="folderPaper"
         style="fill:#ffffff;fill-opacity:1;stroke:none" />
      <rect
         style="fill:#3498db;fill-opacity:1;stroke:none"
         id="folderFront"
         width="43.999996"
         height="28.000008"
         x="2"
         y="12.999983" />
    </g>
    <rect
       y="7.6680799"
       x="6"
       height="32.965004"
       width="35.999992"
       id="rect3849"
       style="fill:#ffffff;fill-opacity:1;stroke:none" />
    <rect
       style="fill:#3498db;fill-opacity:1;stroke:none"
       id="rect3851"
       width="43.999996"
       height="32.965298"
       x="2"
       y="10.022959" />
    <rect
       style="fill:none;stroke:none"
       id="rect3265"
       width="30"
       height="30"
       x="9.380971"
       y="11.101083" />
    <g
       id="g4187"
       transform="matrix(1.0490401,0,0,1.0389179,-0.14050437,-0.49478987)">
      <path
         d="m 17.758759,14.724914 23.4375,0 c 0.528177,0 0.968431,0.300963 0.96875,0.65625 l 0,0.71875 c 0,0.355286 -0.440573,0.65625 -0.96875,0.65625 l -22.3125,0 -5.5938,21.0938 c -0.07809,0.295035 -0.430018,0.51667 -0.875,0.53125 -0.445301,0.01458 -0.847942,-0.180147 -0.96875,-0.46875 l -3.9374996,-9.4062 -2.0312,0.6875 c -0.444026,0.151162 -0.989896,0.03517 -1.25,-0.25 l -0.2188,-0.25 c -0.267117,-0.292891 -0.172669,-0.650561 0.25,-0.84375 l 4.1562,-1.9062 c 0.256598,-0.11729 0.584295,-0.13583 0.875,-0.0625 0.290385,0.07333 0.5147,0.235735 0.59375,0.4375 l 2.2811996,5.8438 4.6562,-16.9062 c 0.08064,-0.307257 0.473393,-0.53125 0.9375,-0.53125 z"
         id="path4144"
         inkscape:connector-curvature="0"
         style="fill:#ffffff;fill-opacity:1;stroke:none" />
      <path
         d="m 27.665059,20.568714 c 1.09828,1.47897 1.86135,3.09827 2.3125,4.875 1.13257,-1.43941 2.01553,-2.45508 2.59375,-3.03125 0.774211,-0.774289 1.404,-1.26665 1.90625,-1.5 0.502581,-0.233066 1.02696,-0.34375 1.59375,-0.34375 0.63537,0 1.12787,0.136564 1.46875,0.4375 0.341218,0.300357 0.5,0.707853 0.5,1.21875 0,0.481728 -0.159119,0.881364 -0.5,1.1875 -0.341218,0.305844 -0.772617,0.46875 -1.28125,0.46875 -0.369793,0 -0.801529,-0.06245 -1.28125,-0.1875 -0.480394,-0.125054 -0.783518,-0.1875 -0.96875,-0.1875 -0.485437,0 -0.967206,0.13974 -1.40625,0.4375 -0.60209,0.406927 -1.34032,1.2638 -2.21875,2.59375 0.978942,2.97268 1.75612,4.78422 2.34375,5.4375 0.345252,0.386999 0.70481,0.59375 1.0625,0.59375 0.299195,0 0.5624,-0.0781 0.78125,-0.21875 0.333486,-0.226136 0.84041,-0.781514 1.53125,-1.6875 l 0.625,0.3125 c -1.01357,1.46829 -2.00191,2.52486 -2.96875,3.125 -0.736896,0.464689 -1.44221,0.6875 -2.15625,0.6875 -0.737568,0 -1.35394,-0.153027 -1.84375,-0.4375 -0.489471,-0.284763 -0.932958,-0.731541 -1.3125,-1.375 -0.380214,-0.643749 -0.825705,-1.67629 -1.34375,-3.09375 -1.36084,1.48735 -2.4143,2.5664 -3.1875,3.25 -0.773203,0.684182 -1.42618,1.13379 -1.9375,1.34375 -0.511995,0.209384 -1.07433,0.3125 -1.65625,0.3125 -0.604107,0 -1.08284,-0.140318 -1.4375,-0.4375 -0.354665,-0.29718 -0.53125,-0.681165 -0.53125,-1.15625 0,-0.504832 0.209838,-0.923072 0.59375,-1.25 0.385256,-0.32664 0.874729,-0.5 1.46875,-0.5 0.313987,0 0.666149,0.08625 1.0625,0.25 0.581582,0.245485 0.994843,0.375 1.25,0.375 0.336511,0 0.638655,-0.0662 0.90625,-0.1875 0.347941,-0.151046 0.777981,-0.495747 1.3125,-1 0.324745,-0.311911 0.941807,-0.951287 1.8125,-1.96875 -1.11745,-3.52026 -1.99703,-5.65148 -2.625,-6.34375 -0.399376,-0.445339 -0.890851,-0.65625 -1.5,-0.65625 -0.316005,0 -0.730638,0.04586 -1.1875,0.125 l 0.1875,-0.5938 6.0312,-0.875 z"
         id="path39063"
         inkscape:connector-curvature="0"
         style="fill:#ffffff;fill-opacity:1;stroke:none" />
    </g>
  </g>
</svg>
