<?xml version="1.0" encoding="UTF-8" standalone="no"?>
<!-- Created with Inkscape (http://www.inkscape.org/) -->

<svg
   xmlns:dc="http://purl.org/dc/elements/1.1/"
   xmlns:cc="http://creativecommons.org/ns#"
   xmlns:rdf="http://www.w3.org/1999/02/22-rdf-syntax-ns#"
   xmlns:svg="http://www.w3.org/2000/svg"
   xmlns="http://www.w3.org/2000/svg"
   xmlns:sodipodi="http://sodipodi.sourceforge.net/DTD/sodipodi-0.dtd"
   xmlns:inkscape="http://www.inkscape.org/namespaces/inkscape"
   width="48"
   height="48"
   id="svg865"
   version="1.1"
   inkscape:version="0.48.5 r10040"
   sodipodi:docname="folder-bin.svg">
  <defs
     id="defs867" />
  <sodipodi:namedview
     id="base"
     pagecolor="#ffffff"
     bordercolor="#666666"
     borderopacity="1.0"
     inkscape:pageopacity="0.0"
     inkscape:pageshadow="2"
     inkscape:zoom="12.775946"
     inkscape:cx="35.935201"
     inkscape:cy="21.431352"
     inkscape:document-units="px"
     inkscape:current-layer="folderLayer"
     showgrid="true"
     inkscape:window-width="1873"
     inkscape:window-height="1056"
     inkscape:window-x="47"
     inkscape:window-y="0"
     inkscape:window-maximized="1"
     borderlayer="true"
     inkscape:showpageshadow="false"
     showguides="false"
     inkscape:guide-bbox="true">
    <sodipodi:guide
       position="0,39.000017"
       orientation="30,0"
       id="guide4110" />
    <sodipodi:guide
       position="30,39.000017"
       orientation="0,-30"
       id="guide4116" />
    <sodipodi:guide
       position="30,9.0000174"
       orientation="0,18"
       id="guide4120" />
    <sodipodi:guide
       position="48,9.0000174"
       orientation="-30,0"
       id="guide4122" />
    <sodipodi:guide
       position="48,39.000017"
       orientation="0,-18"
       id="guide4124" />
    <sodipodi:guide
       position="4,41.000017"
       orientation="34,0"
       id="guide4164" />
    <sodipodi:guide
       position="22,41.000017"
       orientation="0,-18"
       id="guide4170" />
    <sodipodi:guide
       position="6,37.0002"
       orientation="27.999817,0"
       id="guide4174" />
    <sodipodi:guide
       position="6,9.0003836"
       orientation="0,35.999992"
       id="guide4176" />
    <sodipodi:guide
       position="41.999992,9.0003836"
       orientation="-27.999817,0"
       id="guide4178" />
    <sodipodi:guide
       position="41.999992,37.0002"
       orientation="0,-35.999992"
       id="guide4180" />
    <sodipodi:guide
       position="14,31.000017"
       orientation="20,0"
       id="guide4221" />
    <sodipodi:guide
       position="34,11.000017"
       orientation="-20,0"
       id="guide4225" />
    <sodipodi:guide
       position="34,31.000017"
       orientation="0,-20"
       id="guide4227" />
    <sodipodi:guide
       position="14,31.000017"
       orientation="11,0"
       id="guide4412" />
    <sodipodi:guide
       position="14,20.000017"
       orientation="6.123234e-17,1"
       id="guide4414" />
    <sodipodi:guide
       position="25,20.000017"
       orientation="-11,0"
       id="guide4416" />
    <sodipodi:guide
       position="25,31.000017"
       orientation="0,-11"
       id="guide4418" />
    <sodipodi:guide
       position="25,20.000017"
       orientation="9,0"
       id="guide4420" />
    <sodipodi:guide
       position="25,11.000017"
       orientation="0,9"
       id="guide4422" />
    <sodipodi:guide
       position="34,11.000017"
       orientation="-9,0"
       id="guide4424" />
    <sodipodi:guide
       position="34,20.000017"
       orientation="0,-9"
       id="guide4426" />
    <sodipodi:guide
       position="23.000001,35.000017"
       orientation="-1.9999999,0"
       id="guide4068" />
    <sodipodi:guide
       position="23.000001,37.000017"
       orientation="0,2"
       id="guide4070" />
    <sodipodi:guide
       position="25,37.000017"
       orientation="1.9999999,0"
       id="guide4072" />
    <sodipodi:guide
       position="25,35.000017"
       orientation="0,-2"
       id="guide4074" />
    <sodipodi:guide
       orientation="0,1"
       position="-5.0900019,45.012788"
       id="guide3049" />
    <sodipodi:guide
       orientation="0,1"
       position="14,5.0286766"
       id="guide3051" />
    <sodipodi:guide
       orientation="1,0"
       position="18.481902,18.990154"
       id="guide3071" />
  </sodipodi:namedview>
  <metadata
     id="metadata870">
    <rdf:RDF>
      <cc:Work
         rdf:about="">
        <dc:format>image/svg+xml</dc:format>
        <dc:type
           rdf:resource="http://purl.org/dc/dcmitype/StillImage" />
        <dc:title></dc:title>
      </cc:Work>
    </rdf:RDF>
  </metadata>
  <g
     inkscape:groupmode="layer"
     id="folderLayer"
     inkscape:label="folder">
    <g
       id="g3910"
       transform="matrix(1.0181857,0,0,1.0181857,-0.43645647,-0.41778786)"
       style="opacity:0.3" />
    <g
       id="g3053"
       transform="matrix(1,0,0,1.1773318,0,-5.2823341)">
      <rect
         style="fill:#000000;fill-opacity:1;stroke:none"
         id="folderTab"
         width="18"
         height="10"
         x="4"
         y="6.9996953" />
      <rect
         y="9"
         x="4"
         height="30"
         width="40"
         id="folderBackground"
         style="fill:#000000;fill-opacity:1;stroke:none" />
      <rect
         y="10.9998"
         x="6"
         height="27.999756"
         width="35.999992"
         id="folderPaper"
         style="fill:#ffffff;fill-opacity:1;stroke:none" />
      <rect
         style="fill:#3498db;fill-opacity:1;stroke:none"
         id="folderFront"
         width="43.999996"
         height="28.000008"
         x="2"
         y="12.999983" />
    </g>
    <rect
       y="7.6680799"
       x="6"
       height="32.965004"
       width="35.999992"
       id="rect3849"
       style="fill:#ffffff;fill-opacity:1;stroke:none" />
    <rect
       style="fill:#3498db;fill-opacity:1;stroke:none"
       id="rect3851"
       width="43.999996"
       height="32.965298"
       x="2"
       y="10.022959" />
    <rect
       style="fill:none;stroke:none"
       id="rect3265"
       width="30"
       height="30"
       x="9.380971"
       y="11.101083" />
    <g
       id="layer1"
       transform="matrix(1.1736265,0,0,1.1736265,-3.2329091,-4.3458355)">
      <path
         d="m 25.0625,14.3438 c 2.05199,0.02317 5.0767,0.310551 6.75,0.6875 l 0.125,0.9062 c 0.934941,-1.19693 4.16475,0.675591 7.0625,2.125 -3.94655,-0.632701 -7.43373,-0.675666 -8.875,2 -3.0282,-1.04082 -4.00543,0.4329 -0.5625,0.4375 -1.53993,1.4053 -3.23452,2.64536 -4.4375,4.46875 -3.7944,-1.55756 -1.41917,0.207466 -0.15625,0.71875 0,0 -0.823146,0.546744 -1.53125,2.5 -0.922381,2.54432 -2.28232,1.78596 -3.125,0.96875 -1.79103,-1.7369 -2.34584,-2.16996 -0.21875,0.5625 -1.18324,1.64608 -3.13969,2.97174 -6.53125,3.4375 C 12.952188,35.19923 12.75,37 12.75,37 c 0,0 -0.947245,0.408792 -1.25,0.625 -0.302755,0.216208 -0.625,0.9375 -0.625,0.9375 l -0.2812,-0.1562 c 0.495505,-2.09555 1.21347,-4.01009 2.0625,-5.8125 -0.728278,-4.52914 0.0511,-8.18023 1.34375,-10.2812 0.37155,1.27568 0.540171,2.58836 1.28125,3.78125 -1.8033,-7.67686 0.778089,-7.65639 1.3125,-8.21875 0.421685,1.81429 0.793279,3.65766 1.71875,5.4375 -0.498846,-1.80885 -0.8815,-5.51829 -0.875,-5.96875 0.01115,-0.778731 3.03803,-2.41247 4.8125,-2.53125 0.03258,0.783925 0.150652,1.54471 0.34375,2.28125 0.03892,-1.01946 0.26414,-2.0026 0.3125,-2.46875 0.02361,-0.227547 0.925055,-0.29515 2.15625,-0.28125 z"
         id="path39063"
         style="fill:#ffffff;stroke:none"
         inkscape:connector-curvature="0" />
    </g>
  </g>
</svg>
