<?xml version="1.0" encoding="UTF-8" standalone="no"?>
<svg
   xmlns:dc="http://purl.org/dc/elements/1.1/"
   xmlns:cc="http://creativecommons.org/ns#"
   xmlns:rdf="http://www.w3.org/1999/02/22-rdf-syntax-ns#"
   xmlns:svg="http://www.w3.org/2000/svg"
   xmlns="http://www.w3.org/2000/svg"
   xmlns:sodipodi="http://sodipodi.sourceforge.net/DTD/sodipodi-0.dtd"
   xmlns:inkscape="http://www.inkscape.org/namespaces/inkscape"
   width="48"
   version="1.1"
   height="48"
   id="svg2"
   inkscape:version="0.48.5 r10040"
   sodipodi:docname="folder-videos.svg">
  <metadata
     id="metadata21">
    <rdf:RDF>
      <cc:Work
         rdf:about="">
        <dc:format>image/svg+xml</dc:format>
        <dc:type
           rdf:resource="http://purl.org/dc/dcmitype/StillImage" />
      </cc:Work>
    </rdf:RDF>
  </metadata>
  <defs
     id="defs19" />
  <sodipodi:namedview
     pagecolor="#ffffff"
     bordercolor="#666666"
     borderopacity="1"
     objecttolerance="10"
     gridtolerance="10"
     guidetolerance="10"
     inkscape:pageopacity="0"
     inkscape:pageshadow="2"
     inkscape:window-width="640"
     inkscape:window-height="480"
     id="namedview17"
     showgrid="false"
     inkscape:zoom="4.9166667"
     inkscape:cx="24"
     inkscape:cy="24"
     inkscape:window-x="0"
     inkscape:window-y="0"
     inkscape:window-maximized="0"
     inkscape:current-layer="svg2" />
  <rect
     style="stroke:none"
     id="folderTab"
     height="11.773318"
     y="2.9586298"
     x="4"
     width="18" />
  <rect
     style="stroke:none"
     id="folderBackground"
     height="35.319954"
     y="5.313652"
     x="4"
     width="40" />
  <rect
     id="folderPaper"
     style="fill:#ffffff;stroke:none"
     height="32.965004"
     y="7.6680799"
     x="6"
     width="35.999992" />
  <rect
     id="folderFront"
     style="fill:#27ae60;stroke:none;fill-opacity:1"
     height="32.965298"
     y="10.022959"
     x="2"
     width="43.999996" />
  <path
     style="fill:#ffffff;fill-rule:evenodd;stroke:none"
     inkscape:connector-curvature="0"
     d="m 14.6394,15.4952 0,21.3366 4.1909,0 0,-0.6628 c 0,-0.19029 0.296813,-0.342849 0.668119,-0.342849 h 8.88294 c 0.371305,0 0.683303,0.152559 0.683303,0.342849 v 0.662839 h 4.22129 v -21.3366 h -4.22129 v 1.01712 c 0,0.19029 -0.311998,0.342848 -0.683303,0.342848 h -8.88294 c -0.371306,0 -0.668119,-0.152558 -0.668119,-0.342848 v -1.01712 h -4.19093 z m 4.1606,1.9999 10.2344,0 0,8.1484 -10.2344,0 0,-8.1484 z m -3.2343,0.1257 1.8677,0 0,2.1371 -1.8677,0 0,-2.1371 z m 14.9264,0 1.8525,0 0,2.1371 -1.8525,0 0,-2.1371 z m -14.9264,7.4627 1.8677,0 0,2.1257 -1.8677,0 0,-2.1257 z m 14.9264,0 1.8525,0 0,2.1257 -1.8525,0 0,-2.1257 z M 18.8,27.1063 l 10.2344,0 0,8.1484 -10.2344,0 0,-8.1484 z m -3.2343,5.4513 1.8677,0 0,2.1371 -1.8677,0 0,-2.1371 z m 14.9264,0 1.8525,0 0,2.1371 -1.8525,0 0,-2.1371 z"
     id="folderGlyph-6" />
  <rect
     style="fill:#ffffff;fill-rule:evenodd;stroke:none"
     id="rect3025"
     ry="2.345692e-07"
     height="1.552201"
     rx="1.3516369"
     y="34.03019"
     x="18.481901"
     width="10.764833" />
  <rect
     style="fill:#ffffff;fill-rule:evenodd;stroke:none"
     id="rect3027"
     height="1.552201"
     ry="2.345692e-07"
     rx="1.3516369"
     y="17.07852"
     x="18.563597"
     width="10.764833" />
</svg>
