<?xml version="1.0" encoding="UTF-8" standalone="no"?>
<svg
   xmlns:dc="http://purl.org/dc/elements/1.1/"
   xmlns:cc="http://creativecommons.org/ns#"
   xmlns:rdf="http://www.w3.org/1999/02/22-rdf-syntax-ns#"
   xmlns:svg="http://www.w3.org/2000/svg"
   xmlns="http://www.w3.org/2000/svg"
   xmlns:sodipodi="http://sodipodi.sourceforge.net/DTD/sodipodi-0.dtd"
   xmlns:inkscape="http://www.inkscape.org/namespaces/inkscape"
   width="48"
   version="1.1"
   height="48"
   id="svg2"
   inkscape:version="0.48.5 r10040"
   sodipodi:docname="folder-music.svg">
  <metadata
     id="metadata15">
    <rdf:RDF>
      <cc:Work
         rdf:about="">
        <dc:format>image/svg+xml</dc:format>
        <dc:type
           rdf:resource="http://purl.org/dc/dcmitype/StillImage" />
      </cc:Work>
    </rdf:RDF>
  </metadata>
  <defs
     id="defs13" />
  <sodipodi:namedview
     pagecolor="#ffffff"
     bordercolor="#666666"
     borderopacity="1"
     objecttolerance="10"
     gridtolerance="10"
     guidetolerance="10"
     inkscape:pageopacity="0"
     inkscape:pageshadow="2"
     inkscape:window-width="1366"
     inkscape:window-height="701"
     id="namedview11"
     showgrid="false"
     inkscape:zoom="4.9166667"
     inkscape:cx="24"
     inkscape:cy="24"
     inkscape:window-x="0"
     inkscape:window-y="0"
     inkscape:window-maximized="1"
     inkscape:current-layer="svg2" />
  <rect
     style="stroke:none"
     width="18"
     x="4"
     y="2.9586298"
     height="11.773318"
     id="folderTab" />
  <rect
     style="stroke:none"
     width="40"
     x="4"
     y="5.313652"
     height="35.319954"
     id="folderBackground" />
  <rect
     width="35.999992"
     x="6"
     y="7.6680799"
     height="32.965004"
     style="fill:#ffffff;stroke:none"
     id="folderPaper" />
  <rect
     width="43.999996"
     x="2"
     y="10.022959"
     height="32.965298"
     style="fill:#27ae60;stroke:none;fill-opacity:1"
     id="folderFront" />
  <path
     inkscape:connector-curvature="0"
     d="m 19.0096,17.071 0,3.9628 0,9.3053 c -0.463641,-0.23894 -0.970553,-0.388962 -1.4973,-0.388932 -1.82705,10e-5 -3.48722,1.65201 -3.48722,3.46749 0,1.81538 1.66017,3.46739 3.48722,3.46749 1.82705,9.9e-5 3.49111,-1.65191 3.49111,-3.46749 v -12.3839 h 10.9659 v 9.30534 c -0.463638,-0.23894 -0.970552,-0.388962 -1.4973,-0.388932 -1.82705,10e-5 -3.48722,1.65201 -3.48722,3.46749 0,1.81538 1.66017,3.46739 3.48722,3.46749 1.82705,9.9e-5 3.49111,-1.65191 3.49111,-3.46749 v -12.3839 -3.96285 h -14.9536 z"
     id="folderGlyph"
     style="fill:#ffffff;fill-rule:evenodd;stroke:none" />
</svg>
