<svg width="48" version="1.1" xmlns="http://www.w3.org/2000/svg" height="48">
<defs id="defs867">
<clipPath id="clipPath3613">
<rect width="84" x="6" y="6" rx="6" ry="6" height="84" style="fill:#fff;stroke:none" id="rect3615"/>
</clipPath>
<filter style="color-interpolation-filters:sRGB" id="filter3174">
<feGaussianBlur stdDeviation="1.71" id="feGaussianBlur3176"/>
</filter>
<linearGradient gradientTransform="scale(1.0058652,0.994169)" id="ButtonShadow" y1="92.539597" y2="7.0165396" x1="45.447727" gradientUnits="userSpaceOnUse" x2="45.447727">
<stop offset="0" id="stop3750"/>
<stop offset="1" style="stop-opacity:.588" id="stop3752"/>
</linearGradient>
</defs>
<g id="folderLayer">
<g style="stroke:none">
<g id="g3053" transform="matrix(1,0,0,1.1773318,0,-5.2823341)">
<rect width="18" x="4" y="6.9996953" height="10" id="folderTab"/>
<rect width="40" x="4" y="9" height="30" id="folderBackground"/>
<rect width="35.999992" x="6" y="10.9998" height="27.999756" style="fill:#fff" id="folderPaper"/>
<rect width="43.999996" x="2" y="12.999983" height="28.000008" style="fill:#3498db" id="folderFront"/>
</g>
<rect width="35.999992" x="6" y="7.6680799" height="32.965004" style="fill:#fff" id="rect3849"/>
<rect width="43.999996" x="2" y="10.022959" height="32.965298" style="fill:#3498db" id="rect3851"/>
<rect width="30" x="9.380971" y="11.101083" height="30" style="fill:none" id="rect3265"/>
</g>
<g style="display:none" id="layer2" transform="matrix(0.67642562,0,0,0.67642562,-109.35974,12.713739)">
<rect width="86" x="5" y="7" rx="6" height="85" ry="6" style="opacity:.9;fill:url(#ButtonShadow);filter:url(#filter3174);stroke:none" id="rect3745"/>
</g>
<g style="stroke:none;fill:#fff;fill-rule:evenodd">
<g style="stroke-miterlimit:2">
<path id="path3159" d="m 11.2638,12.6746 1.5309,-1.3575 14.0454,13.7109 -2.096,1.9291 Z "/>
<path id="path3161" d="m 24.7165,26.9298 2.0961,-1.9291 3.5881,3.9474 -1.629,1.9142 z "/>
</g>
<path id="path3163" d="m 30.5828,29.8825 c 4.86479,-4.7355 3.6546,4.48104 10.5383,9.59364 -7.26991,2.4505 -16.3185,-3.96699 -10.5383,-9.59364 z "/>
</g>
</g>
</svg>
