<svg width="48" version="1.1" xmlns="http://www.w3.org/2000/svg" height="48">
<g style="fill-rule:evenodd" id="layer1" transform="translate(0,-1004.3622)">
<g style="fill:none;stroke:none">
<path id="path3265" d="m 27.5,1048.8622 c 0,1.933 -1.56809,3.5001 -3.50242,3.5001 -1.93434,0 -3.50242,-1.5671 -3.50242,-3.5001 0,-1.9331 1.56809,-3.5001 3.50242,-3.5001 1.93434,0 3.50242,1.567 3.50242,3.5001 z "/>
<path id="path3267" d="m 27.5,1007.8622 c 0,1.933 -1.56809,3.5001 -3.50242,3.5001 -1.93434,0 -3.50242,-1.5671 -3.50242,-3.5001 0,-1.9331 1.56809,-3.5001 3.50242,-3.5001 1.93434,0 3.50242,1.567 3.50242,3.5001 z "/>
<path id="path3269" d="m 11,1028.3622 c 0,3.0376 -2.46414,5.5002 -5.50381,5.5002 -3.03967,0 -5.50381,-2.4626 -5.50381,-5.5002 0,-3.0377 2.46414,-5.5002 5.50381,-5.5002 3.03967,0 5.50381,2.4625 5.50381,5.5002 z "/>
<path id="path3271" d="m 48,1028.3622 c 0,3.0376 -2.46414,5.5002 -5.50381,5.5002 -3.03967,0 -5.50381,-2.4626 -5.50381,-5.5002 0,-3.0377 2.46414,-5.5002 5.50381,-5.5002 3.03967,0 5.50381,2.4625 5.50381,5.5002 z "/>
<path id="path3293" d="m 27.5,1048.8622 c 0,1.933 -1.56809,3.5001 -3.50242,3.5001 -1.93434,0 -3.50242,-1.5671 -3.50242,-3.5001 0,-1.9331 1.56809,-3.5001 3.50242,-3.5001 1.93434,0 3.50242,1.567 3.50242,3.5001 z "/>
<path id="path3295" d="m 27.5,1007.8622 c 0,1.933 -1.56809,3.5001 -3.50242,3.5001 -1.93434,0 -3.50242,-1.5671 -3.50242,-3.5001 0,-1.9331 1.56809,-3.5001 3.50242,-3.5001 1.93434,0 3.50242,1.567 3.50242,3.5001 z "/>
<path id="path3297" d="m 11,1028.3622 c 0,3.0376 -2.46414,5.5002 -5.50381,5.5002 -3.03967,0 -5.50381,-2.4626 -5.50381,-5.5002 0,-3.0377 2.46414,-5.5002 5.50381,-5.5002 3.03967,0 5.50381,2.4625 5.50381,5.5002 z "/>
<path id="path3299" d="m 48,1028.3622 c 0,3.0376 -2.46414,5.5002 -5.50381,5.5002 -3.03967,0 -5.50381,-2.4626 -5.50381,-5.5002 0,-3.0377 2.46414,-5.5002 5.50381,-5.5002 3.03967,0 5.50381,2.4625 5.50381,5.5002 z "/>
</g>
<g style="stroke-linecap:square;stroke-miterlimit:2;stroke-width:0;stroke:#003bc3">
<g style="fill:#4d4d4d">
<rect width="27.522352" x="10.136148" y="1041.9908" height="3.3550119" id="shape1"/>
<rect width="14.182549" x="1031.1123" y="-25.7756" height="3.6105692" id="shape2" transform="matrix(0,1,-1,0,0,0)"/>
</g>
<g style="fill:#2980b9">
<rect width="8.658843" x="23.957609" y="1011.4441" height="7.9474607" id="shape11"/>
<rect width="8.658843" x="23.957609" y="1020.3849" height="7.9474607" id="shape21"/>
<rect width="8.658843" x="23.957609" y="1029.3258" height="7.9474607" id="shape3"/>
</g>
<g style="fill:#3498db">
<rect width="8.6444492" x="15.340664" y="1011.4442" height="7.947464" id="rect15"/>
<rect width="8.6444492" x="15.340664" y="1020.3853" height="7.947464" id="rect17"/>
<rect width="8.6444492" x="15.340664" y="1029.326" height="7.947464" id="shape31"/>
</g>
<g style="fill:#ecf0f1;fill-opacity:.875">
<rect width="1.3798267" x="15.937337" y="1012.6362" height="4.7605386" id="shape4"/>
<rect width="1.3798267" x="15.937337" y="1021.5771" height="4.7605386" id="shape5"/>
<rect width="1.3798267" x="15.974936" y="1030.5181" height="4.7605386" id="shape6"/>
</g>
</g>
</g>
</svg>
