<svg width="48" version="1.1" xmlns="http://www.w3.org/2000/svg" height="48">
<g id="layer1" transform="translate(0,-1004.3622)">
<g style="fill-rule:evenodd">
<g style="fill:none;stroke:none">
<path id="path3265" d="m 27.5,1048.8622 c 0,1.933 -1.56809,3.5001 -3.50242,3.5001 -1.93434,0 -3.50242,-1.5671 -3.50242,-3.5001 0,-1.9331 1.56809,-3.5001 3.50242,-3.5001 1.93434,0 3.50242,1.567 3.50242,3.5001 z "/>
<path id="path3267" d="m 27.5,1007.8622 c 0,1.933 -1.56809,3.5001 -3.50242,3.5001 -1.93434,0 -3.50242,-1.5671 -3.50242,-3.5001 0,-1.9331 1.56809,-3.5001 3.50242,-3.5001 1.93434,0 3.50242,1.567 3.50242,3.5001 z "/>
<path id="path3269" d="m 11,1028.3622 c 0,3.0376 -2.46414,5.5002 -5.50381,5.5002 -3.03967,0 -5.50381,-2.4626 -5.50381,-5.5002 0,-3.0377 2.46414,-5.5002 5.50381,-5.5002 3.03967,0 5.50381,2.4625 5.50381,5.5002 z "/>
<path id="path3271" d="m 48,1028.3622 c 0,3.0376 -2.46414,5.5002 -5.50381,5.5002 -3.03967,0 -5.50381,-2.4626 -5.50381,-5.5002 0,-3.0377 2.46414,-5.5002 5.50381,-5.5002 3.03967,0 5.50381,2.4625 5.50381,5.5002 z "/>
<path id="path3293" d="m 27.5,1048.8622 c 0,1.933 -1.56809,3.5001 -3.50242,3.5001 -1.93434,0 -3.50242,-1.5671 -3.50242,-3.5001 0,-1.9331 1.56809,-3.5001 3.50242,-3.5001 1.93434,0 3.50242,1.567 3.50242,3.5001 z "/>
<path id="path3295" d="m 27.5,1007.8622 c 0,1.933 -1.56809,3.5001 -3.50242,3.5001 -1.93434,0 -3.50242,-1.5671 -3.50242,-3.5001 0,-1.9331 1.56809,-3.5001 3.50242,-3.5001 1.93434,0 3.50242,1.567 3.50242,3.5001 z "/>
<path id="path3297" d="m 11,1028.3622 c 0,3.0376 -2.46414,5.5002 -5.50381,5.5002 -3.03967,0 -5.50381,-2.4626 -5.50381,-5.5002 0,-3.0377 2.46414,-5.5002 5.50381,-5.5002 3.03967,0 5.50381,2.4625 5.50381,5.5002 z "/>
<path id="path3299" d="m 48,1028.3622 c 0,3.0376 -2.46414,5.5002 -5.50381,5.5002 -3.03967,0 -5.50381,-2.4626 -5.50381,-5.5002 0,-3.0377 2.46414,-5.5002 5.50381,-5.5002 3.03967,0 5.50381,2.4625 5.50381,5.5002 z "/>
</g>
<g style="stroke-width:0;stroke:#003bc3;stroke-linecap:square;stroke-miterlimit:2" id="g3015" transform="matrix(1.686369,0,0,1.9525138,-7.7060693,972.74554)">
<g style="fill:#4d4d4d">
<rect width="16.32048" x="10.580257" y="35.46471" height="1.7183038" id="shape1"/>
<rect width="7.2637377" x="29.893166" y="-19.854296" height="2.1410315" id="shape2" transform="matrix(0,1,-1,0,0,0)"/>
</g>
<g style="fill:#2980b9">
<rect width="7.79809" x="18.769802" y="19.819849" height="4.0703735" id="shape11"/>
<rect width="7.79809" x="18.769802" y="24.399019" height="4.0703735" id="shape21"/>
<rect width="7.79809" x="18.769802" y="28.978189" height="4.0703735" id="shape3"/>
</g>
<g style="fill:#3498db">
<rect width="7.7851276" x="11.009444" y="19.819931" height="4.0703754" id="rect15"/>
<rect width="7.7851276" x="11.009444" y="24.399183" height="4.0703754" id="rect17"/>
<rect width="7.7851276" x="11.009444" y="28.978271" height="4.0703754" id="shape31"/>
</g>
<g style="fill:#ecf0f1;fill-opacity:.875">
<rect width="1.2426618" x="11.546803" y="20.430439" height="2.4381588" id="shape4"/>
<rect width="1.2426618" x="11.546803" y="25.009609" height="2.4381588" id="shape5"/>
<rect width="1.2426618" x="11.580665" y="29.588779" height="2.4381588" id="shape6"/>
</g>
</g>
</g>
</g>
</svg>
