<svg width="48" version="1.1" xmlns="http://www.w3.org/2000/svg" height="48">
<path style="fill:#1a1a1a;stroke:none" id="path3798-9" d="m 24.3952,7.1644 c -4.99239,0 -9.03617,3.8077 -9.03617,8.4932 0.01212,0.5369 0.01563,1.1366 0.07116,1.8045 -0.790083,0.4235 -0.89448,2.0837 -0.189735,3.7534 0.271754,0.6438 0.645292,1.1642 1.01983,1.5879 0.01248,0.014 0.03486,0.034 0.04744,0.048 0.0894,0.4412 0.152766,0.7776 0.260886,1.2752 0.334945,1.0104 1.72209,2.9134 2.94091,4.5474 0.121546,1.2604 0.125962,2.5121 -0.118585,3.9458 -3.50817,2.9268 -12.4886,4.2361 -12.4751,7.2661 l -0.166,1.1545 35.2909,0 -0.166,-1.1549 c -0.01431,-2.5932 -9.0337,-4.2361 -12.4989,-7.266 -0.140299,-1.1607 -0.166287,-2.2975 -0.09487,-3.4407 1.10813,-1.7189 2.5701,-3.9339 2.94091,-5.0526 0.136281,-0.5793 0.202478,-0.9702 0.30832,-1.4676 0.327231,-0.4022 0.635972,-0.8713 0.87753,-1.4436 0.66926,-1.5857 0.587239,-3.1182 -0.09487,-3.6331 0.04767,-0.689 0.09866,-1.3359 0.118585,-1.9248 6e-6,-4.6855 -4.04378,-8.4932 -9.03617,-8.4932 z"/>
</svg>
