<?xml version="1.0" encoding="UTF-8" standalone="no"?>
<svg
   xmlns:dc="http://purl.org/dc/elements/1.1/"
   xmlns:cc="http://creativecommons.org/ns#"
   xmlns:rdf="http://www.w3.org/1999/02/22-rdf-syntax-ns#"
   xmlns:svg="http://www.w3.org/2000/svg"
   xmlns="http://www.w3.org/2000/svg"
   xmlns:xlink="http://www.w3.org/1999/xlink"
   xmlns:sodipodi="http://sodipodi.sourceforge.net/DTD/sodipodi-0.dtd"
   xmlns:inkscape="http://www.inkscape.org/namespaces/inkscape"
   width="48"
   version="1.1"
   height="48"
   id="svg2"
   inkscape:version="0.48.5 r10040"
   sodipodi:docname="user-home.svg">
  <metadata
     id="metadata15">
    <rdf:RDF>
      <cc:Work
         rdf:about="">
        <dc:format>image/svg+xml</dc:format>
        <dc:type
           rdf:resource="http://purl.org/dc/dcmitype/StillImage" />
      </cc:Work>
    </rdf:RDF>
  </metadata>
  <defs
     id="defs13">
    <linearGradient
       y2="168.95639"
       x2="243.96431"
       y1="143.18951"
       x1="173.32414"
       gradientUnits="userSpaceOnUse"
       id="linearGradient4230"
       xlink:href="#linearGradient3845"
       inkscape:collect="always" />
    <linearGradient
       gradientTransform="matrix(0.34085088,0,0,0.35156881,34.020411,40.200393)"
       y2="168.95639"
       x2="243.96431"
       y1="143.18951"
       x1="173.32414"
       gradientUnits="userSpaceOnUse"
       id="linearGradient4207"
       xlink:href="#linearGradient3845"
       inkscape:collect="always" />
    <linearGradient
       y2="168.95639"
       x2="243.96431"
       y1="143.18951"
       x1="173.32414"
       gradientUnits="userSpaceOnUse"
       id="linearGradient4204"
       xlink:href="#linearGradient3845"
       inkscape:collect="always" />
    <linearGradient
       y2="168.95639"
       x2="243.96431"
       y1="143.18951"
       x1="173.32414"
       gradientUnits="userSpaceOnUse"
       id="linearGradient4202"
       xlink:href="#linearGradient3845"
       inkscape:collect="always" />
    <linearGradient
       y2="168.95639"
       x2="243.96431"
       y1="143.18951"
       x1="173.32414"
       gradientUnits="userSpaceOnUse"
       id="linearGradient4200"
       xlink:href="#linearGradient3845"
       inkscape:collect="always" />
    <linearGradient
       y2="168.95639"
       x2="243.96431"
       y1="143.18951"
       x1="173.32414"
       gradientUnits="userSpaceOnUse"
       id="linearGradient4198"
       xlink:href="#linearGradient3845"
       inkscape:collect="always" />
    <linearGradient
       y2="318.40698"
       x2="190.86786"
       y1="263.18744"
       x1="234.0863"
       gradientTransform="matrix(0.37593835,0,0,0.35156881,-2.5397371,-1.6759008)"
       gradientUnits="userSpaceOnUse"
       id="linearGradient4194"
       xlink:href="#linearGradient3893-5-7"
       inkscape:collect="always" />
    <linearGradient
       y2="168.95639"
       x2="243.96431"
       y1="143.18951"
       x1="173.32414"
       gradientUnits="userSpaceOnUse"
       id="linearGradient4187"
       xlink:href="#linearGradient3845"
       inkscape:collect="always" />
    <linearGradient
       y2="168.95639"
       x2="243.96431"
       y1="143.18951"
       x1="173.32414"
       gradientUnits="userSpaceOnUse"
       id="linearGradient4185"
       xlink:href="#linearGradient3845"
       inkscape:collect="always" />
    <linearGradient
       y2="168.95639"
       x2="243.96431"
       y1="143.18951"
       x1="173.32414"
       gradientUnits="userSpaceOnUse"
       id="linearGradient4183"
       xlink:href="#linearGradient3845"
       inkscape:collect="always" />
    <linearGradient
       y2="168.95639"
       x2="243.96431"
       y1="143.18951"
       x1="173.32414"
       gradientUnits="userSpaceOnUse"
       id="linearGradient4181"
       xlink:href="#linearGradient3845"
       inkscape:collect="always" />
    <linearGradient
       y2="318.40698"
       x2="190.86786"
       y1="263.18744"
       x1="234.0863"
       gradientTransform="matrix(2.2203789,0,0,2.1814021,-781.23813,-512.74321)"
       gradientUnits="userSpaceOnUse"
       id="linearGradient4179"
       xlink:href="#linearGradient3893-5-7"
       inkscape:collect="always" />
    <linearGradient
       y2="213.5795"
       x2="-34.195591"
       y1="142.31703"
       x1="-47.001347"
       gradientUnits="userSpaceOnUse"
       id="linearGradient4177"
       xlink:href="#linearGradient3893-5-7"
       inkscape:collect="always" />
    <linearGradient
       y2="213.5795"
       x2="-34.195591"
       y1="142.31703"
       x1="-47.001347"
       gradientUnits="userSpaceOnUse"
       id="linearGradient4167"
       xlink:href="#linearGradient3893-5-7"
       inkscape:collect="always" />
    <linearGradient
       y2="318.40698"
       x2="190.86786"
       y1="263.18744"
       x1="234.0863"
       gradientTransform="matrix(2.2203789,0,0,2.1814021,-781.23813,-512.74321)"
       gradientUnits="userSpaceOnUse"
       id="linearGradient4163"
       xlink:href="#linearGradient3893-5-7"
       inkscape:collect="always" />
    <linearGradient
       y2="168.95639"
       x2="243.96431"
       y1="143.18951"
       x1="173.32414"
       gradientUnits="userSpaceOnUse"
       id="linearGradient4156"
       xlink:href="#linearGradient3845"
       inkscape:collect="always" />
    <linearGradient
       y2="168.95639"
       x2="243.96431"
       y1="143.18951"
       x1="173.32414"
       gradientUnits="userSpaceOnUse"
       id="linearGradient4154"
       xlink:href="#linearGradient3845"
       inkscape:collect="always" />
    <linearGradient
       y2="168.95639"
       x2="243.96431"
       y1="143.18951"
       x1="173.32414"
       gradientUnits="userSpaceOnUse"
       id="linearGradient4152"
       xlink:href="#linearGradient3845"
       inkscape:collect="always" />
    <linearGradient
       y2="168.95639"
       x2="243.96431"
       y1="143.18951"
       x1="173.32414"
       gradientUnits="userSpaceOnUse"
       id="linearGradient4150"
       xlink:href="#linearGradient3845"
       inkscape:collect="always" />
    <linearGradient
       y2="318.40698"
       x2="190.86786"
       y1="263.18744"
       x1="234.0863"
       gradientTransform="matrix(2.2203789,0,0,2.1814021,-258.0462,-350.29138)"
       gradientUnits="userSpaceOnUse"
       id="linearGradient4148"
       xlink:href="#linearGradient3893-5-7"
       inkscape:collect="always" />
    <linearGradient
       y2="213.5795"
       x2="-34.195591"
       y1="142.31703"
       x1="-47.001347"
       gradientUnits="userSpaceOnUse"
       id="linearGradient4146"
       xlink:href="#linearGradient3893-5-7"
       inkscape:collect="always" />
    <linearGradient
       id="linearGradient4259">
      <stop
         style="stop-color:#0668b3;stop-opacity:1;"
         offset="0"
         id="stop4261" />
      <stop
         style="stop-color:#0668b3;stop-opacity:0;"
         offset="1"
         id="stop4263" />
    </linearGradient>
    <linearGradient
       inkscape:collect="always"
       xlink:href="#linearGradient3845"
       id="linearGradient3851"
       x1="173.32414"
       y1="143.18951"
       x2="243.96431"
       y2="168.95639"
       gradientUnits="userSpaceOnUse" />
    <linearGradient
       id="linearGradient3845">
      <stop
         style="stop-color:#e8ff00;stop-opacity:1;"
         offset="0"
         id="stop3847" />
      <stop
         style="stop-color:#ff8a0a;stop-opacity:1;"
         offset="1"
         id="stop3849" />
    </linearGradient>
    <linearGradient
       inkscape:collect="always"
       xlink:href="#linearGradient3845"
       id="linearGradient4109"
       gradientUnits="userSpaceOnUse"
       x1="173.32414"
       y1="143.18951"
       x2="243.96431"
       y2="168.95639" />
    <linearGradient
       id="linearGradient3314">
      <stop
         style="stop-color:#e8ff00;stop-opacity:1;"
         offset="0"
         id="stop3316" />
      <stop
         style="stop-color:#ff8a0a;stop-opacity:1;"
         offset="1"
         id="stop3318" />
    </linearGradient>
    <linearGradient
       inkscape:collect="always"
       xlink:href="#linearGradient3845"
       id="linearGradient4107"
       gradientUnits="userSpaceOnUse"
       x1="173.32414"
       y1="143.18951"
       x2="243.96431"
       y2="168.95639" />
    <linearGradient
       id="linearGradient3321">
      <stop
         style="stop-color:#e8ff00;stop-opacity:1;"
         offset="0"
         id="stop3323" />
      <stop
         style="stop-color:#ff8a0a;stop-opacity:1;"
         offset="1"
         id="stop3325" />
    </linearGradient>
    <linearGradient
       inkscape:collect="always"
       xlink:href="#linearGradient3845"
       id="linearGradient4111"
       gradientUnits="userSpaceOnUse"
       x1="173.32414"
       y1="143.18951"
       x2="243.96431"
       y2="168.95639" />
    <linearGradient
       id="linearGradient3328">
      <stop
         style="stop-color:#e8ff00;stop-opacity:1;"
         offset="0"
         id="stop3330" />
      <stop
         style="stop-color:#ff8a0a;stop-opacity:1;"
         offset="1"
         id="stop3332" />
    </linearGradient>
    <linearGradient
       y2="213.5795"
       x2="-34.195591"
       y1="142.31703"
       x1="-47.001347"
       gradientUnits="userSpaceOnUse"
       id="linearGradient4076"
       xlink:href="#linearGradient3893-5-7"
       inkscape:collect="always" />
    <linearGradient
       id="linearGradient3893-5-7">
      <stop
         style="stop-color:#0096ff;stop-opacity:1;"
         offset="0"
         id="stop3895-1-9" />
      <stop
         style="stop-color:#000062;stop-opacity:1;"
         offset="1"
         id="stop3897-9-5" />
    </linearGradient>
    <linearGradient
       inkscape:collect="always"
       xlink:href="#linearGradient4197"
       id="linearGradient4203"
       x1="-152.42574"
       y1="118.74149"
       x2="52.425728"
       y2="118.74149"
       gradientUnits="userSpaceOnUse" />
    <linearGradient
       id="linearGradient4197">
      <stop
         style="stop-color:#23ff17;stop-opacity:0.6438356;"
         offset="0"
         id="stop4199" />
      <stop
         style="stop-color:#13fd2c;stop-opacity:1;"
         offset="1"
         id="stop4201" />
    </linearGradient>
    <linearGradient
       inkscape:collect="always"
       xlink:href="#linearGradient4197"
       id="linearGradient3899"
       x1="-91.796867"
       y1="72.66201"
       x2="-9.8622341"
       y2="198.57687"
       gradientUnits="userSpaceOnUse" />
    <linearGradient
       id="linearGradient3343">
      <stop
         style="stop-color:#23ff17;stop-opacity:0.6438356;"
         offset="0"
         id="stop3345" />
      <stop
         style="stop-color:#13fd2c;stop-opacity:1;"
         offset="1"
         id="stop3347" />
    </linearGradient>
    <filter
       id="filter4309"
       inkscape:label="Ink bleed"
       inkscape:menu="Protrusions"
       inkscape:menu-tooltip="Inky splotches underneath the object"
       color-interpolation-filters="sRGB">
      <feGaussianBlur
         id="feGaussianBlur4311"
         result="result1"
         in="SourceGraphic"
         stdDeviation="1.3" />
      <feTurbulence
         id="feTurbulence4313"
         result="result0"
         numOctaves="4"
         baseFrequency="0.034" />
      <feDisplacementMap
         id="feDisplacementMap4315"
         in2="result0"
         result="result2"
         scale="19.6"
         yChannelSelector="G"
         xChannelSelector="R"
         in="result1" />
      <feColorMatrix
         id="feColorMatrix4317"
         values="2 0 0 0 0 0 2 0 0 0 0 0 2 0 0 0 0 0 0.7 0"
         result="result3" />
      <feGaussianBlur
         id="feGaussianBlur4319"
         result="result4"
         in="SourceGraphic"
         stdDeviation="1.1" />
      <feComposite
         id="feComposite4321"
         in2="result3"
         in="result4"
         result="fbSourceGraphic" />
      <feColorMatrix
         result="fbSourceGraphicAlpha"
         in="fbSourceGraphic"
         values="0 0 0 -1 0 0 0 0 -1 0 0 0 0 -1 0 0 0 0 1 0"
         id="feColorMatrix4505" />
      <feGaussianBlur
         id="feGaussianBlur4507"
         result="result1"
         in="fbSourceGraphic"
         stdDeviation="1.3" />
      <feTurbulence
         id="feTurbulence4509"
         result="result0"
         numOctaves="4"
         baseFrequency="0.034" />
      <feDisplacementMap
         id="feDisplacementMap4511"
         in2="result0"
         result="result2"
         scale="19.6"
         yChannelSelector="G"
         xChannelSelector="R"
         in="result1" />
      <feColorMatrix
         id="feColorMatrix4513"
         values="2 0 0 0 0 0 2 0 0 0 0 0 2 0 0 0 0 0 0.7 0"
         result="result3" />
      <feGaussianBlur
         id="feGaussianBlur4515"
         result="result4"
         in="fbSourceGraphic"
         stdDeviation="1.1" />
      <feComposite
         id="feComposite4517"
         in2="result3"
         in="result4" />
    </filter>
    <linearGradient
       inkscape:collect="always"
       xlink:href="#linearGradient3893-5-7"
       id="linearGradient4265"
       x1="234.0863"
       y1="263.18744"
       x2="190.86786"
       y2="318.40698"
       gradientUnits="userSpaceOnUse"
       gradientTransform="matrix(2.2203789,0,0,2.1814021,-258.0462,-350.29138)" />
    <linearGradient
       y2="213.5795"
       x2="-34.195591"
       y1="142.31703"
       x1="-47.001347"
       gradientUnits="userSpaceOnUse"
       id="linearGradient4076-0"
       xlink:href="#linearGradient3893-5-7-1"
       inkscape:collect="always" />
    <linearGradient
       id="linearGradient3893-5-7-1">
      <stop
         style="stop-color:#0096ff;stop-opacity:1;"
         offset="0"
         id="stop3895-1-9-2" />
      <stop
         style="stop-color:#000062;stop-opacity:1;"
         offset="1"
         id="stop3897-9-5-2" />
    </linearGradient>
    <linearGradient
       inkscape:collect="always"
       xlink:href="#linearGradient3845"
       id="linearGradient3556"
       gradientUnits="userSpaceOnUse"
       x1="173.32414"
       y1="143.18951"
       x2="243.96431"
       y2="168.95639" />
    <linearGradient
       inkscape:collect="always"
       xlink:href="#linearGradient3845"
       id="linearGradient3571"
       gradientUnits="userSpaceOnUse"
       x1="173.32414"
       y1="143.18951"
       x2="243.96431"
       y2="168.95639" />
    <linearGradient
       inkscape:collect="always"
       xlink:href="#linearGradient3845"
       id="linearGradient3588"
       gradientUnits="userSpaceOnUse"
       x1="173.32414"
       y1="143.18951"
       x2="243.96431"
       y2="168.95639" />
  </defs>
  <sodipodi:namedview
     pagecolor="#ffffff"
     bordercolor="#666666"
     borderopacity="1"
     objecttolerance="10"
     gridtolerance="10"
     guidetolerance="10"
     inkscape:pageopacity="0"
     inkscape:pageshadow="2"
     inkscape:window-width="1366"
     inkscape:window-height="701"
     id="namedview11"
     showgrid="false"
     inkscape:zoom="4.9166667"
     inkscape:cx="18.838217"
     inkscape:cy="19.035628"
     inkscape:window-x="0"
     inkscape:window-y="0"
     inkscape:window-maximized="1"
     inkscape:current-layer="svg2" />
  <rect
     style="stroke:none"
     width="18"
     x="4"
     y="2.9586298"
     height="11.773318"
     id="folderTab" />
  <rect
     style="stroke:none"
     width="40"
     x="4"
     y="5.313652"
     height="35.319954"
     id="folderBackground" />
  <rect
     width="35.999992"
     x="6"
     y="7.6680799"
     height="32.965004"
     style="fill:#ffffff;stroke:none"
     id="folderPaper" />
  <rect
     width="43.999996"
     x="2"
     y="10.022959"
     height="32.965298"
     style="fill:#3498db;stroke:none"
     id="folderFront" />
  <path
     inkscape:connector-curvature="0"
     d="m -9.9469015,13.630964 -1.4140995,1.4141 0.0059,0.0059 -8.5859,8.5859 1.4141,1.4141 8.5858995,-8.5859 8.5859,8.5859 1.41409999,-1.4141 -2.00589999,-2.0059 0.0059,0 0,-8 -2,0 0,6.0059 -4.5859,-4.5859 0.0059,-0.0059 -1.4141,-1.4141 -0.0059,0.0059 -0.0059,-0.0059 z m -7.9940995,13 0,7 2,0 13.9999995,0 0,-2 0,-5 -2,0 0,5 -11.9999995,0 0,-5 z"
     id="folderGlyph"
     style="fill:#ffffff;fill-rule:evenodd;stroke:none" />
  <g
     id="g4369"
     transform="matrix(1.7295859,0,0,1.8316898,-45.111028,-3.8522937)">
    <path
       transform="matrix(0.06786345,0,0,0.0656921,43.376718,8.8357422)"
       d="m 28.822357,118.74149 c 0,42.37357 -35.2899712,76.72414 -78.822357,76.72414 -43.532386,0 -78.82236,-34.35057 -78.82236,-76.72414 0,-42.373567 35.289974,-76.724133 78.82236,-76.724133 43.5323858,0 78.822357,34.350566 78.822357,76.724133 z"
       sodipodi:ry="76.724136"
       sodipodi:rx="78.822357"
       sodipodi:cy="118.74149"
       sodipodi:cx="-50"
       id="path3000-0-7"
       style="fill:none;stroke:#ffffff;stroke-width:12.76015759;stroke-miterlimit:4;stroke-opacity:1;stroke-dasharray:none"
       sodipodi:type="arc" />
    <path
       inkscape:connector-curvature="0"
       id="path9-0-9-6-1"
       d="m 36.983689,14.522682 c -0.874013,0 -1.721938,0.930303 -1.721938,2.303993 0,1.408768 0.826999,2.418069 1.925571,2.418069 1.012712,0 1.774273,-0.58166 2.606127,-1.641968 0.0096,-0.01227 0.02022,-0.02623 0.03037,-0.03927 0.0264,-0.03369 0.05423,-0.07024 0.08395,-0.108467 0.45638,-0.584653 1.297327,-1.641874 1.741586,-1.49984 -0.04489,-0.05429 -0.195493,-0.132778 -0.351891,-0.132778 -0.349159,0 -0.773953,0.09347 -1.684426,1.118333 -0.007,0.0079 -0.01438,0.01447 -0.02143,0.02244 -0.0015,0.0015 -0.0022,0.0041 -0.0036,0.0056 -0.02926,0.03324 -0.05912,0.0679 -0.08931,0.102857 -0.0022,0.0025 -0.0049,0.005 -0.0071,0.0075 -0.03082,0.03577 -0.06122,0.07077 -0.09289,0.108467 -0.02606,0.03095 -0.05278,0.06224 -0.07859,0.09164 -0.0038,0.0044 -0.0069,0.0088 -0.01071,0.01309 -0.01895,0.02155 -0.03827,0.04286 -0.05716,0.06358 -0.0098,0.01079 -0.01884,0.02124 -0.02858,0.03179 -0.0167,0.01807 -0.03338,0.03486 -0.05002,0.05236 -0.0062,0.0065 -0.01348,0.01415 -0.01965,0.02057 -0.768079,0.799912 -1.429769,0.974334 -1.823754,0.974334 -0.626452,0 -1.138015,-0.432397 -1.373622,-1.112724 0.165155,0.189481 0.414295,0.310441 0.693063,0.310441 0.497264,0 0.900267,-0.384779 0.900267,-0.858387 0,-0.473607 -0.403003,-0.856517 -0.900267,-0.856517 -0.37817,0 -0.700808,0.222048 -0.834175,0.536726 -2.3e-5,-0.005 0,-0.0099 0,-0.01496 0,-1.064111 0.777792,-1.873345 1.452216,-1.864513 -0.02794,-0.02294 -0.155055,-0.05236 -0.284014,-0.05236 z"
       style="fill:#ffffff;fill-opacity:1" />
    <a
       transform="matrix(0.058944,0,0,0.05984396,29.481029,7.442394)"
       id="a3060"
       style="fill:#ffffff;fill-opacity:1">
      <path
         sodipodi:type="arc"
         style="fill:#ffffff;fill-opacity:1"
         id="path4842-96"
         sodipodi:cx="399.77542"
         sodipodi:cy="216.87712"
         sodipodi:rx="17.199152"
         sodipodi:ry="14.682203"
         d="m 416.97457,216.87712 c 0,8.10876 -7.70032,14.6822 -17.19915,14.6822 -9.49883,0 -17.19915,-6.57344 -17.19915,-14.6822 0,-8.10876 7.70032,-14.6822 17.19915,-14.6822 9.49883,0 17.19915,6.57344 17.19915,14.6822 z"
         transform="matrix(0.9158527,0,0,0.97598693,-137.04281,-62.021667)" />
    </a>
    <path
       style="fill:#ffffff;fill-opacity:1"
       inkscape:connector-curvature="0"
       d="m 37.925531,17.526199 c 0.04629,0.0543 0.200719,0.132835 0.361998,0.132835 0.360059,0 0.798255,-0.0924 1.737149,-1.11726 l 1.66e-4,1.94e-4 c 0.0072,-0.0079 0.01453,-0.01611 0.0218,-0.02408 0.0015,-0.0015 0.0029,-0.0032 0.0044,-0.0048 0.03017,-0.03324 0.06082,-0.06725 0.09196,-0.102211 0.0022,-0.0025 0.0045,-0.0051 0.0067,-0.0076 0.03178,-0.03577 0.06392,-0.07224 0.09658,-0.109939 0.02688,-0.03095 0.05362,-0.06104 0.08024,-0.09044 0.004,-0.0044 0.0079,-0.0086 0.01186,-0.01292 0.01954,-0.02155 0.03908,-0.04252 0.05856,-0.06325 0.01011,-0.01079 0.02028,-0.02159 0.03033,-0.03214 0.01722,-0.01807 0.0344,-0.03581 0.05155,-0.05331 0.0064,-0.0065 0.01282,-0.01329 0.01919,-0.01971 0.792053,-0.799912 1.475188,-0.975062 1.881469,-0.975062 0.893964,0 1.561111,0.827304 1.561111,1.995099 0,1.06411 -0.802163,1.873711 -1.497639,1.86488 0.02881,0.02294 0.160213,0.05344 0.293197,0.05344 0.901295,0 1.776008,-0.931194 1.776008,-2.304884 0,-1.408769 -0.852714,-2.417357 -1.985576,-2.417357 -1.044326,0 -1.830565,0.581913 -2.688384,1.642221 -0.0099,0.01227 -0.02016,0.02494 -0.03062,0.03798 -0.02723,0.03369 -0.05624,0.06971 -0.08689,0.107936 -0.470625,0.584653 -1.337067,1.642345 -1.795194,1.500311 l 0,0 z"
       id="path3835-3-2-1" />
  </g>
</svg>
