<svg width="96" version="1.0" xmlns="http://www.w3.org/2000/svg" height="96" xmlns:xlink="http://www.w3.org/1999/xlink">
<defs id="defs2410">
<clipPath id="clipPath3613-5">
<rect width="84" x="6" y="6" rx="6" ry="6" height="84" style="fill:#fff;stroke:none" id="rect3615-0"/>
</clipPath>
<clipPath id="clipPath3613">
<rect width="84" x="6" y="6" rx="6" height="84" ry="6" style="fill:#fff;stroke:none" id="rect3615"/>
</clipPath>
<clipPath id="clipPath3724">
<path style="opacity:.2;fill:#f0f;stroke:none" id="path3726" d="m 32,24 0,48 48,0 0,-48 -48,0 z  m 25.375,6 c 2.27735,3.2e-05 4.36882,0.380506 6.28125,1.125 1.91238,0.729957 3.58186,1.76942 4.96875,3.15625 1.40143,1.37229 2.47624,3.07712 3.25,5.0625 0.773686,1.97082 1.15621,4.17452 1.15625,6.65625 -3.7e-05,0.905125 -0.0728,1.83031 -0.21875,2.75 -0.131423,0.905122 -0.316414,1.76164 -0.59375,2.59375 -0.262809,0.817528 -0.607927,1.59718 -1.03125,2.3125 -0.408793,0.700737 -0.91404,1.31821 -1.46875,1.84375 -0.554778,0.525553 -1.19095,0.943436 -1.90625,1.25 -0.70076,0.291976 -1.46581,0.437505 -2.3125,0.4375 -0.656962,5e-06 -1.24113,-0.124767 -1.78125,-0.34375 -0.525574,-0.218973 -0.995464,-0.51003 -1.375,-0.875 -0.379588,-0.364957 -0.68935,-0.78284 -0.9375,-1.25 -0.233601,-0.481744 -0.381183,-0.989043 -0.46875,-1.5 h -0.09375 c -0.262798,0.540154 -0.605863,1.08076 -1,1.5625 -0.394183,0.481758 -0.849475,0.885043 -1.375,1.25 -0.51097,0.35037 -1.09309,0.639375 -1.75,0.84375 -0.642356,0.204384 -1.3513,0.312505 -2.125,0.3125 -1.1241,5e-06 -2.1241,-0.216236 -3,-0.625 -0.861328,-0.408753 -1.58897,-0.988816 -2.1875,-1.71875 -0.598552,-0.744518 -1.05384,-1.61975 -1.375,-2.65625 -0.30658,-1.03648 -0.468761,-2.18201 -0.46875,-3.4375 -1.1e-05,-1.47444 0.232881,-2.83621 0.65625,-4.0625 0.437944,-1.22626 1.04082,-2.26572 1.84375,-3.15625 0.817503,-0.890489 1.81545,-1.59738 2.96875,-2.09375 1.15327,-0.496327 2.44432,-0.749977 3.875,-0.75 0.656913,2.3e-05 1.31179,0.03538 1.96875,0.09375 0.656911,0.05842 1.27644,0.147833 1.875,0.25 0.598515,0.102212 1.15987,0.212386 1.65625,0.34375 0.510923,0.116811 0.914207,0.226984 1.25,0.34375 l -.5,9.125 c -0.01463,0.321181 -0.01667,0.576883 -0.03125,0.78125 -2.6e-05,0.189793 -2.6e-05,0.351973 0,0.46875 -2.6e-05,0.1168 -2.6e-05,0.191618 0,0.25 -2.6e-05,0.05841 -2.6e-05,0.112466 0,0.15625 -2.6e-05,0.773733 0.07274,1.40991 0.21875,1.90625 0.160557,0.49636 0.345548,0.895538 0.59375,1.1875 0.248147,0.291979 0.537152,0.476969 0.84375,0.59375 0.321139,0.102197 0.664205,0.156258 1,0.15625 0.671503,8e-06 1.23902,-0.218286 1.75,-0.65625 0.510917,-0.452546 0.945451,-1.05337 1.28125,-1.8125 0.350332,-0.759113 0.606034,-1.63434 0.78125,-2.65625 0.175149,-1.02188 0.281217,-2.1113 0.28125,-3.25 -3.3e-05,-2.07297 -0.341046,-3.92539 -0.96875,-5.53125 -0.627769,-1.62041 -1.48429,-2.98424 -2.59375,-4.09375 -1.10952,-1.10946 -2.43593,-1.93063 -3.96875,-2.5 -1.51827,-0.583913 -3.17315,-0.874971 -4.96875,-0.875 -2.46717,2.9e-05 -4.64805,0.40126 -6.53125,1.21875 -1.88322,0.802947 -3.46534,1.91517 -4.75,3.375 -1.27008,1.44528 -2.21807,3.18752 -2.875,5.1875 -0.65694,1.98542 -1.00001,4.1663 -1,6.53125 -6e-06,2.20439 0.305651,4.13573 0.875,5.84375 0.583935,1.70803 1.42175,3.14462 2.53125,4.3125 1.12408,1.16789 2.5066,2.05771 4.15625,2.65625 1.66422,0.59854 3.57275,0.90625 5.71875,0.90625 0.890491,0 1.76367,-0.0541 2.625,-0.15625 0.875889,-0.10219 1.72831,-0.23107 2.53125,-0.40625 0.817493,-0.17519 1.58255,-0.37478 2.3125,-0.59375 0.7299,-0.23358 1.40349,-0.47058 2.03125,-0.71875 v 3.09375 c -1.2555,0.55474 -2.67338,0.99133 -4.25,1.3125 -1.57666,0.32116 -3.32096,0.46875 -5.21875,0.46875 -2.61315,0 -4.94162,-0.38048 -7,-1.125 -2.04381,-0.74453 -3.7881,-1.8027 -5.21875,-3.21875 -1.41606,-1.43066 -2.47423,-3.17495 -3.21875,-5.21875 -0.744528,-2.05839 -1.125,-4.38685 -1.125,-7 -2e-06,-2.74451 0.419933,-5.32252 1.28125,-7.6875 0.861309,-2.37954 2.09625,-4.419 3.6875,-6.15625 1.60583,-1.7372 3.54972,-3.10102 5.8125,-4.09375 2.27736,-0.992669 4.80746,-1.49997 7.625,-1.5 z  m -.4688,11.5312 c -1.08031,2.1e-05 -2.00549,0.201662 -2.75,0.625 -0.729944,0.423377 -1.31411,0.970138 -1.78125,1.65625 -0.45257,0.686149 -0.795635,1.46785 -1,2.34375 -0.204394,0.875927 -0.312515,1.7824 -0.3125,2.6875 -1.5e-05,1.94162 0.363808,3.34285 1.09375,4.21875 0.74451,0.861322 1.75911,1.28126 3,1.28125 0.802901,8e-06 1.49314,-0.147575 2.0625,-0.46875 0.569321,-0.335758 1.01002,-0.807701 1.375,-1.40625 0.364941,-0.613129 0.653946,-1.32412 0.84375,-2.15625 0.189758,-0.846703 0.316583,-1.77394 0.375,-2.78125 l .3125,-5.5625 c -0.408782,-0.116768 -0.89943,-0.224889 -1.46875,-0.3125 -0.554766,-0.10217 -1.13688,-0.124979 -1.75,-0.125 z "/>
</clipPath>
<clipPath id="clipPath3674">
<g style="fill:#fff;font-family:Droid Sans;text-align:start;stroke:none;line-height:125%;font-size:44.84671402px" id="g3676" transform="translate(0,-0.500001)">
<path id="path3678" d="m 73.0365,46.0073 c -3.7e-05,0.905125 -0.07303,1.81753 -0.218978,2.73723 -0.131423,0.905122 -0.335803,1.77373 -0.613139,2.60584 -0.262809,0.817528 -0.605874,1.58395 -1.0292,2.29927 -0.408793,0.700737 -0.890545,1.31388 -1.44526,1.83942 -0.554778,0.525553 -1.18981,0.941611 -1.90511,1.24818 -0.70076,0.291976 -1.47448,0.437961 -2.32117,0.437956 -0.656962,5e-06 -1.2555,-0.109484 -1.79562,-0.328467 -0.525574,-0.218973 -0.978128,-0.510943 -1.35766,-0.875913 -0.379588,-0.364957 -0.693456,-0.781015 -0.941606,-1.24818 -0.233601,-0.481744 -0.394185,-0.978094 -0.481752,-1.48905 h -0.08759 c -0.262798,0.540154 -0.591265,1.0511 -0.985402,1.53285 -0.394183,0.481758 -0.854037,0.905116 -1.37956,1.27007 -0.51097,0.35037 -1.09491,0.627742 -1.75182,0.832117 -0.642356,0.204384 -1.35038,0.306574 -2.12409,0.306569 -1.1241,5e-06 -2.1241,-0.204375 -3,-0.613139 -0.861328,-0.408753 -1.59125,-0.978095 -2.18978,-1.70803 -0.598552,-0.744518 -1.05841,-1.63503 -1.37956,-2.67153 -0.30658,-1.03648 -0.459865,-2.18247 -0.459854,-3.43796 -1.1e-05,-1.47444 0.211668,-2.8248 0.635037,-4.0511 0.437944,-1.22626 1.05838,-2.28465 1.86131,-3.17518 0.817503,-0.890489 1.8029,-1.58392 2.9562,-2.08029 1.15327,-0.496327 2.44524,-0.744502 3.87591,-0.744525 0.656913,2.3e-05 1.31385,0.02922 1.9708,0.08759 0.656911,0.05842 1.28465,0.138709 1.88321,0.240876 0.598515,0.102212 1.14596,0.219001 1.64234,0.350365 0.510923,0.116811 0.93428,0.233599 1.27007,0.350365 l -.5036,9.1095 c -0.01463,0.321181 -0.02922,0.583955 -0.0438,0.788322 -2.6e-05,0.189793 -2.6e-05,0.343077 0,0.459854 -2.6e-05,0.1168 -2.6e-05,0.204391 0,0.262773 -2.6e-05,0.05841 -2.6e-05,0.109501 0,0.153285 -2.6e-05,0.773733 0.07297,1.40877 0.218978,1.90511 0.160557,0.49636 0.364937,0.89052 0.613139,1.18248 0.248147,0.291979 0.525519,0.496358 0.832117,0.613139 0.321139,0.102197 0.649606,0.153292 0.985401,0.153284 0.671503,8e-06 1.26274,-0.21897 1.77372,-0.656934 0.510917,-0.452546 0.934274,-1.05839 1.27007,-1.81752 0.350332,-0.759113 0.613105,-1.64962 0.788321,-2.67153 0.175149,-1.02188 0.26274,-2.10218 0.262773,-3.24088 -3.3e-05,-2.07297 -0.313901,-3.91239 -0.941605,-5.51825 -0.627769,-1.62041 -1.49638,-2.98538 -2.60584,-4.09489 -1.10952,-1.10946 -2.43068,-1.94888 -3.9635,-2.51825 -1.51827,-0.583913 -3.1752,-0.875883 -4.9708,-0.875912 -2.46717,2.9e-05 -4.64235,0.408787 -6.52555,1.22628 -1.88322,0.802947 -3.46716,1.93433 -4.75182,3.39416 -1.27008,1.44528 -2.23358,3.1679 -2.89051,5.16788 -0.65694,1.98542 -0.985407,4.1606 -0.985401,6.52555 -6e-06,2.20439 0.284665,4.16059 0.854014,5.86861 0.583935,1.70803 1.43065,3.14599 2.54015,4.31387 1.12408,1.16788 2.51094,2.0511 4.16058,2.64964 1.66422,0.59854 3.56933,0.897809 5.71533,0.89781 0.890491,-1e-06 1.7664,-0.0511 2.62774,-0.153284 0.875889,-0.102191 1.71531,-0.240877 2.51825,-0.416059 0.817493,-0.175182 1.59121,-0.372263 2.32117,-0.591241 0.7299,-0.233576 1.40873,-0.474452 2.0365,-0.722627 v 3.08759 c -1.2555,0.554742 -2.67156,0.992697 -4.24818,1.31387 -1.57666,0.321164 -3.31389,0.481748 -5.21168,0.481752 -2.61315,-4e-06 -4.94892,-0.372266 -7.0073,-1.11679 -2.04381,-0.744528 -3.78103,-1.82482 -5.21168,-3.24088 -1.41606,-1.43066 -2.49635,-3.16788 -3.24088,-5.21168 -0.744528,-2.05839 -1.11679,-4.39415 -1.11679,-7.0073 -2e-06,-2.74451 0.430654,-5.29925 1.29197,-7.66423 0.861309,-2.37954 2.08758,-4.43793 3.67883,-6.17518 1.60583,-1.7372 3.54013,-3.10216 5.80292,-4.09489 2.27736,-0.992669 4.8248,-1.48902 7.64234,-1.48905 2.27735,3.2e-05 4.37224,0.372295 6.28467,1.11679 1.91238,0.729957 3.56201,1.78835 4.94891,3.17518 1.40143,1.37229 2.48902,3.05112 3.26277,5.0365 0.773686,1.97082 1.16055,4.1971 1.16058,6.67883 m -21.9635,2.8248 c -1.5e-05,1.94162 0.364948,3.35037 1.09489,4.22628 0.74451,0.861322 1.73721,1.29198 2.9781,1.29197 0.802901,8e-06 1.48903,-0.160576 2.05839,-0.481751 0.569321,-0.335758 1.03647,-0.802911 1.40146,-1.40146 0.364941,-0.613129 0.642313,-1.33576 0.832117,-2.16788 0.189758,-0.846703 0.313846,-1.77371 0.372263,-2.78102 l .3066,-5.5401 c -0.408782,-0.116768 -0.897833,-0.218958 -1.46715,-0.306569 -0.554766,-0.10217 -1.13871,-0.153264 -1.75182,-0.153285 -1.08031,2.1e-05 -1.99272,0.211699 -2.73723,0.635037 -0.729944,0.423377 -1.32848,0.978121 -1.79562,1.66423 -0.45257,0.686149 -0.781037,1.46717 -0.985402,2.34307 -0.204394,0.875927 -0.306584,1.76644 -0.306569,2.67153"/>
</g>
</clipPath>
<filter width="1.3839999" x="-0.192" y="-0.192" height="1.3839999" style="color-interpolation-filters:sRGB" id="filter3794">
<feGaussianBlur stdDeviation="5.28" id="feGaussianBlur3796"/>
</filter>
<filter style="color-interpolation-filters:sRGB" id="filter3174-4">
<feGaussianBlur stdDeviation="1.71" id="feGaussianBlur3176-2"/>
</filter>
<filter style="color-interpolation-filters:sRGB" id="filter3174">
<feGaussianBlur stdDeviation="1.71" id="feGaussianBlur3176"/>
</filter>
<linearGradient gradientTransform="matrix(0,1,1,0,-10,58)" xlink:href="#linearGradient3778" id="linearGradient3940" y1="24" x1="10" y2="24" gradientUnits="userSpaceOnUse" x2="18"/>
<linearGradient gradientTransform="matrix(0,1,1,0,-10,34)" xlink:href="#linearGradient3778" id="linearGradient3905" y1="24" x1="10" y2="24" gradientUnits="userSpaceOnUse" x2="18"/>
<linearGradient gradientTransform="translate(0,24)" xlink:href="#linearGradient3745" id="linearGradient3900" y1="22" x1="9" y2="26" gradientUnits="userSpaceOnUse" x2="9"/>
<linearGradient id="linearGradient3737">
<stop offset="0" style="stop-color:#fff" id="stop3739"/>
<stop offset="1" style="stop-color:#fff;stop-opacity:0" id="stop3741"/>
</linearGradient>
<linearGradient gradientTransform="translate(0,12)" xlink:href="#linearGradient3745" id="linearGradient3913" y1="22" x1="9" y2="26" gradientUnits="userSpaceOnUse" x2="9"/>
<linearGradient xlink:href="#linearGradient3737" id="linearGradient3613" y1="20.220806" y2="138.66119" x1="48" gradientUnits="userSpaceOnUse" x2="48"/>
<linearGradient id="linearGradient3778">
<stop offset="0" id="stop3780"/>
<stop offset="0.5" style="stop-opacity:0" id="stop3786"/>
<stop offset="1" style="stop-color:#fff" id="stop3782"/>
</linearGradient>
<linearGradient gradientTransform="scale(1.0058652,0.994169)" id="ButtonShadow" y1="92.539597" x1="45.447727" y2="7.0165396" x2="45.447727" gradientUnits="userSpaceOnUse">
<stop offset="0" id="stop3750"/>
<stop offset="1" style="stop-opacity:.588" id="stop3752"/>
</linearGradient>
<linearGradient gradientTransform="matrix(0,1,1,0,-10,22)" xlink:href="#linearGradient3778" id="linearGradient3918" y1="24" x1="10" y2="24" gradientUnits="userSpaceOnUse" x2="18"/>
<linearGradient gradientTransform="translate(0,36)" xlink:href="#linearGradient3745" id="linearGradient3926" y1="22" x1="9" y2="26" gradientUnits="userSpaceOnUse" x2="9"/>
<linearGradient gradientTransform="translate(0,48)" xlink:href="#linearGradient3745" id="linearGradient3935" y1="22" x1="9" y2="26" gradientUnits="userSpaceOnUse" x2="9"/>
<linearGradient gradientTransform="matrix(0,1,1,0,-10,22)" xlink:href="#linearGradient3778" id="linearGradient3983" y1="24" x1="10" y2="24" gradientUnits="userSpaceOnUse" x2="18"/>
<linearGradient id="linearGradient3745">
<stop offset="0" style="stop-color:#8a8a8a" id="stop3747"/>
<stop offset="0.40964222" style="stop-color:#d5d5d5" id="stop3753"/>
<stop offset="0.72741055" style="stop-color:#6f6f6f" id="stop3755"/>
<stop offset="1" style="stop-color:#373737" id="stop3749"/>
</linearGradient>
<linearGradient gradientTransform="scale(1.0058652,0.994169)" xlink:href="#ButtonShadow" id="linearGradient4273" y1="92.539597" x1="45.447727" y2="7.0165396" gradientUnits="userSpaceOnUse" x2="45.447727"/>
<linearGradient gradientTransform="matrix(0,1,1,0,-10,46)" xlink:href="#linearGradient3778" id="linearGradient3931" y1="24" x1="10" y2="24" gradientUnits="userSpaceOnUse" x2="18"/>
<linearGradient gradientTransform="translate(0,12)" xlink:href="#linearGradient3745" id="linearGradient3985" y1="22" x1="9" y2="26" gradientUnits="userSpaceOnUse" x2="9"/>
</defs>
<g style="display:none" id="layer2">
<rect width="86" x="5" y="7" rx="6" height="85" ry="6" style="opacity:.9;fill:url(#ButtonShadow);filter:url(#filter3174);stroke:none" id="rect3745"/>
</g>
<g style="stroke:none">
<path style="fill:#791422" id="rect2419" d="m 8,26.976 64,0 c 3.324,0 6,2.676 6,6 v 57 c 0,3.324 -2.676,6 -6,6 h -64 c -3.324,0 -6,-2.676 -6,-6 v -57 c 0,-3.324 2.676,-6 6,-6 z "/>
<path style="opacity:.15;fill:#fff" id="rect3650" d="m 20,26.976 1,0 0,69 -1,0 z"/>
<path style="opacity:.4" id="rect3648" d="m 19,26.976 1,0 0,68.9 -1,0 z"/>
<path style="fill:#222;fill-rule:evenodd" id="rect3059" d="m 1.9758,26.983 17.5418,0 0,69.017 -17.5418,0 z "/>
<g style="font-family:'Century Schoolbook L';word-spacing:0;line-height:125%;letter-spacing:0" id="g3058" transform="matrix(0.95383379,0,0,0.95383379,-5.4580524,20.253565)">
<text x="31.65205" y="69.728043" style="opacity:.3;font-weight:500;font-size:65.51024628px" id="text3076" xml:space="preserve" transform="scale(0.98057542,1.0198094)"><tspan x="31.65205" y="69.728043" id="tspan3078">@</tspan>
</text>
<text x="31.037222" y="69.217628" style="fill:#fff;font-weight:500;font-size:64.23773956px" id="text3072" xml:space="preserve"><tspan x="31.037222" y="69.217628" id="tspan3074">@</tspan>
</text>
</g>
<g id="g3053" transform="translate(-4,13.976)">
<g id="g3942">
<path style="opacity:.3;fill:url(#linearGradient3918)" id="path3875" d="m 10,36 c 0,-2.20914 1.79086,-4 4,-4 2.20914,0 4,1.79086 4,4 0,2.20914 -1.79086,4 -4,4 -2.20914,0 -4,-1.79086 -4,-4 z m 1,0 c 0,1.65685 1.34315,3 3,3 1.65685,0 3,-1.34315 3,-3 0,-1.65685 -1.34315,-3 -3,-3 -1.65685,0 -3,1.34315 -3,3 z"/>
<path style="opacity:.6;fill:#7f7f7f" id="path3879" d="m 17,36 a 3,3 0 0 1 -6,0 3,3 0 1 1 6,0 z"/>
<rect width="12" x="4" y="34" rx="2" ry="2" height="4" style="fill:url(#linearGradient3913)" id="rect3881"/>
<rect width="12" x="4" y="34" rx="2" ry="2" height="4" style="opacity:.8;fill:#7f7f7f" id="rect3883"/>
</g>
<g id="g3948">
<path style="opacity:.3;fill:url(#linearGradient3905)" id="path3859" d="m 10,48 c 0,-2.20914 1.79086,-4 4,-4 2.20914,0 4,1.79086 4,4 0,2.20914 -1.79086,4 -4,4 -2.20914,0 -4,-1.79086 -4,-4 z m 1,0 c 0,1.65685 1.34315,3 3,3 1.65685,0 3,-1.34315 3,-3 0,-1.65685 -1.34315,-3 -3,-3 -1.65685,0 -3,1.34315 -3,3 z"/>
<path style="opacity:.6;fill:#7f7f7f" id="path3863" d="m 17,48 a 3,3 0 0 1 -6,0 3,3 0 1 1 6,0 z"/>
<rect width="12" x="4" y="46" rx="2" ry="2" height="4" style="fill:url(#linearGradient3900)" id="rect3865"/>
<rect width="12" x="4" y="46" rx="2" ry="2" height="4" style="opacity:.8;fill:#7f7f7f" id="rect3867"/>
</g>
<g id="g3954">
<path style="opacity:.3;fill:url(#linearGradient3931)" id="path3843" d="m 10,60 c 0,-2.20914 1.79086,-4 4,-4 2.20914,0 4,1.79086 4,4 0,2.20914 -1.79086,4 -4,4 -2.20914,0 -4,-1.79086 -4,-4 z m 1,0 c 0,1.65685 1.34315,3 3,3 1.65685,0 3,-1.34315 3,-3 0,-1.65685 -1.34315,-3 -3,-3 -1.65685,0 -3,1.34315 -3,3 z"/>
<path style="opacity:.6;fill:#7f7f7f" id="path3847" d="m 17,60 a 3,3 0 0 1 -6,0 3,3 0 1 1 6,0 z"/>
<rect width="12" x="4" y="58" rx="2" ry="2" height="4" style="fill:url(#linearGradient3926)" id="rect3849"/>
<rect width="12" x="4" y="58" rx="2" ry="2" height="4" style="opacity:.8;fill:#7f7f7f" id="rect3851"/>
</g>
<g id="g3960">
<path style="opacity:.3;fill:url(#linearGradient3940)" id="path3827" d="m 10,72 c 0,-2.20914 1.79086,-4 4,-4 2.20914,0 4,1.79086 4,4 0,2.20914 -1.79086,4 -4,4 -2.20914,0 -4,-1.79086 -4,-4 z m 1,0 c 0,1.65685 1.34315,3 3,3 1.65685,0 3,-1.34315 3,-3 0,-1.65685 -1.34315,-3 -3,-3 -1.65685,0 -3,1.34315 -3,3 z"/>
<path style="opacity:.6;fill:#7f7f7f" id="path3831" d="m 17,72 a 3,3 0 0 1 -6,0 3,3 0 1 1 6,0 z"/>
<rect width="12" x="4" y="70" rx="2" ry="2" height="4" style="fill:url(#linearGradient3935)" id="rect3833"/>
<rect width="12" x="4" y="70" rx="2" ry="2" height="4" style="opacity:.8;fill:#7f7f7f" id="rect3835"/>
</g>
<g id="g3973" transform="translate(0,-12)">
<path style="opacity:.3;fill:url(#linearGradient3983)" id="path3975" d="m 10,36 c 0,-2.20914 1.79086,-4 4,-4 2.20914,0 4,1.79086 4,4 0,2.20914 -1.79086,4 -4,4 -2.20914,0 -4,-1.79086 -4,-4 z m 1,0 c 0,1.65685 1.34315,3 3,3 1.65685,0 3,-1.34315 3,-3 0,-1.65685 -1.34315,-3 -3,-3 -1.65685,0 -3,1.34315 -3,3 z"/>
<path style="opacity:.6;fill:#7f7f7f" id="path3977" d="m 17,36 a 3,3 0 0 1 -6,0 3,3 0 1 1 6,0 z"/>
<rect width="12" x="4" y="34" rx="2" height="4" ry="2" style="fill:url(#linearGradient3985)" id="rect3979"/>
<rect width="12" x="4" y="34" rx="2" height="4" ry="2" style="opacity:.8;fill:#7f7f7f" id="rect3981"/>
</g>
</g>
</g>
<g style="display:none" id="g23" transform="translate(-147.80682,53.533839)">
<g id="layer2-9">
<rect width="86" x="5" y="7" rx="6" height="85" ry="6" style="opacity:.9;fill:url(#linearGradient4273);filter:url(#filter3174-4);stroke:none" id="rect3745-3"/>
</g>
<g id="layer5">
<rect width="66" x="15" y="15" rx="12" height="66" ry="12" style="opacity:.1;fill:url(#linearGradient3613);filter:url(#filter3794);stroke:#fff;stroke-linecap:round;stroke-width:.5;clip-path:url(#clipPath3613)" id="rect3171"/>
</g>
</g>
<g id="g4289" transform="translate(147.80682,-53.53384)">
<circle cx="95.740486" cy="-56.685902" style="fill:#0a0" id="circle3581_2_" r="26" transform="matrix(-0.96592582,0.25881907,-0.25881907,-0.96592582,0,0)"/>
<path style="fill:#fff;fill-rule:evenodd;stroke:none" id="rect3232" d="m -81.8701,63.2805 0,12.19 -12.19,0 0,8.1267 12.19,0 0,12.19 8.1267,0 0,-12.19 12.19,0 0,-8.1267 -12.19,0 0,-12.19 -8.1267,0 z "/>
</g>
</svg>
