<svg width="48" version="1.1" xmlns="http://www.w3.org/2000/svg" height="48">
<g style="stroke-linecap:round;image-rendering:auto;isolation:auto;fill-rule:evenodd;stroke-width:12;color-interpolation:sRGB;shape-rendering:auto;solid-opacity:1;stroke:none;text-rendering:auto;line-height:normal;color-rendering:auto;solid-color:#000000;text-transform:none;text-decoration-style:solid;mix-blend-mode:normal;font-family:sans-serif;white-space:normal;text-decoration-line:none;color:#000;text-align:start;text-decoration-color:#000000;text-indent:0">
<path style="opacity:.6;color-interpolation-filters:linearRGB;fill:#fff" id="path4140" d="m 42.5732,7.0953 a 5.70054,6.0006 0 0,0 -4.44938,1.9082 l -14.992,16.4961 14.992,16.4961 a 5.70054,6.0006 0 1,0 8.23824,-8.29492 l -7.4534,-8.2012 7.4534,-8.2012 a 5.70054,6.0006 0 0,0 -3.78884,-10.2031 Z "/>
<path style="color-interpolation-filters:linearRGB;fill:#919191" id="path4137" d="m 41.1764,5.5957 a 5.73074,6.0006 0 0,0 -4.47296,1.9082 l -15.0715,16.4961 15.0715,16.4961 a 5.73074,6.0006 0 1,0 8.28189,-8.29492 l -7.4929,-8.2012 7.4929,-8.2012 a 5.73074,6.0006 0 0,0 -3.80892,-10.2031 z "/>
<path style="opacity:.6;color-interpolation-filters:linearRGB;fill:#fff" id="path4156" d="m 20.9412,7.0953 a 5.70054,6.0006 0 0,0 -4.44938,1.9082 l -14.992,16.4961 14.992,16.4961 a 5.70054,6.0006 0 1,0 8.23824,-8.29492 l -7.4534,-8.2012 7.4534,-8.2012 a 5.70054,6.0006 0 0,0 -3.78884,-10.2031 Z "/>
<path style="color-interpolation-filters:linearRGB;fill:#919191" id="path4158" d="m 19.5445,5.5957 a 5.73074,6.0006 0 0,0 -4.47296,1.9082 l -15.0715,16.4961 15.0715,16.4961 a 5.73074,6.0006 0 1,0 8.28189,-8.29492 l -7.4929,-8.2012 7.4929,-8.2012 a 5.73074,6.0006 0 0,0 -3.80892,-10.2031 z "/>
</g>
</svg>
