<svg width="48" version="1.1" xmlns="http://www.w3.org/2000/svg" height="48">
<g style="stroke-linecap:round;image-rendering:auto;isolation:auto;fill-rule:evenodd;stroke-width:12;color-interpolation:sRGB;shape-rendering:auto;solid-opacity:1;stroke:none;text-rendering:auto;line-height:normal;color-rendering:auto;solid-color:#000000;text-transform:none;text-decoration-style:solid;mix-blend-mode:normal;font-family:sans-serif;white-space:normal;text-decoration-line:none;color:#000;text-align:start;text-decoration-color:#000000;text-indent:0">
<path style="opacity:.6;color-interpolation-filters:linearRGB;fill:#fff" id="path4192" d="m 7.0999,42.5269 a 6.0006,5.74918 0 0,1 1.9082,-4.48735 l 16.4961,-15.12 16.4961,15.12 a 6.0006,5.74918 0 1,1 -8.29492,8.30854 l -8.2012,-7.517 -8.2012,7.517 a 6.0006,5.74918 0 0,1 -10.2031,-3.82118 Z "/>
<path style="color-interpolation-filters:linearRGB;fill:#919191" id="path4137" d="m 5.6001,41.0442 a 6.0006,5.73074 0 0,1 1.9082,-4.47296 l 16.4961,-15.0715 16.4961,15.0715 a 6.0006,5.73074 0 1,1 -8.29492,8.28189 l -8.2012,-7.4929 -8.2012,7.4929 a 6.0006,5.73074 0 0,1 -10.2031,-3.80892 z "/>
<path style="opacity:.6;color-interpolation-filters:linearRGB;fill:#fff" id="path4156" d="m 7.0999,21.0272 a 6.0006,5.74918 0 0,1 1.9082,-4.48735 l 16.4961,-15.12 16.4961,15.12 a 6.0006,5.74918 0 1,1 -8.29492,8.30854 l -8.2012,-7.517 -8.2012,7.517 a 6.0006,5.74918 0 0,1 -10.2031,-3.82118 Z "/>
<path style="color-interpolation-filters:linearRGB;fill:#919191" id="path4158" d="m 5.6001,19.5445 a 6.0006,5.73074 0 0,1 1.9082,-4.47296 l 16.4961,-15.0715 16.4961,15.0715 a 6.0006,5.73074 0 1,1 -8.29492,8.28189 l -8.2012,-7.4929 -8.2012,7.4929 a 6.0006,5.73074 0 0,1 -10.2031,-3.80892 z "/>
</g>
</svg>
