<svg width="48" version="1.1" xmlns="http://www.w3.org/2000/svg" height="48" xmlns:xlink="http://www.w3.org/1999/xlink">
<defs id="defs7">
<clipPath id="clipPath3613">
<rect width="84" x="6" y="6" rx="6" height="84" ry="6" style="fill:#fff;stroke:none" id="rect3615"/>
</clipPath>
<filter width="1.3839999" x="-0.192" y="-0.192" height="1.3839999" style="color-interpolation-filters:sRGB" id="filter3794">
<feGaussianBlur stdDeviation="5.28" id="feGaussianBlur3796"/>
</filter>
<filter style="color-interpolation-filters:sRGB" id="filter3174">
<feGaussianBlur stdDeviation="1.71" id="feGaussianBlur3176"/>
</filter>
<linearGradient gradientTransform="scale(1.0058652,0.994169)" id="ButtonShadow" y1="92.539597" x1="45.447727" y2="7.0165396" x2="45.447727" gradientUnits="userSpaceOnUse">
<stop offset="0" id="stop3750"/>
<stop offset="1" style="stop-opacity:.588" id="stop3752"/>
</linearGradient>
<linearGradient id="linearGradient3613" xlink:href="#linearGradient3737" y1="20.220806" x1="48" y2="138.66119" x2="48" gradientUnits="userSpaceOnUse"/>
<linearGradient id="linearGradient3737">
<stop offset="0" style="stop-color:#fff" id="stop3739"/>
<stop offset="1" style="stop-color:#fff;stop-opacity:0" id="stop3741"/>
</linearGradient>
</defs>
<path style="fill:#1a1a1a;stroke:none" id="path3798-9" d="m 17.645364,7.1644 c -4.99239,0 -9.03617,3.8077 -9.03617,8.4932 0.01212,0.5369 0.01563,1.1366 0.07116,1.8045 -0.790083,0.4235 -0.89448,2.0837 -0.189735,3.7534 0.271754,0.6438 0.645292,1.1642 1.01983,1.5879 0.01248,0.014 0.03486,0.034 0.04744,0.048 0.0894,0.4412 0.152766,0.7776 0.260886,1.2752 0.334945,1.0104 1.72209,2.9134 2.94091,4.5474 0.121546,1.2604 0.125962,2.5121 -0.118585,3.9458 C 9.13293,35.5466 0.1525,36.8559 0.166,39.8859 L 0,41.0404 l 35.2909,0 -0.166,-1.1549 c -0.01431,-2.5932 -9.0337,-4.2361 -12.4989,-7.266 -0.140299,-1.1607 -0.166287,-2.2975 -0.09487,-3.4407 1.10813,-1.7189 2.5701,-3.9339 2.94091,-5.0526 0.136281,-0.5793 0.202478,-0.9702 0.30832,-1.4676 0.327231,-0.4022 0.635972,-0.8713 0.87753,-1.4436 0.66926,-1.5857 0.587239,-3.1182 -0.09487,-3.6331 0.04767,-0.689 0.09866,-1.3359 0.118585,-1.9248 6e-6,-4.6855 -4.04378,-8.4932 -9.03617,-8.4932 z"/>
<g style="display:none" id="g23" transform="translate(-179.60714,18.647481)">
<g id="layer2">
<rect width="86" x="5" y="7" rx="6" ry="6" height="85" style="opacity:.9;fill:url(#ButtonShadow);filter:url(#filter3174);stroke:none" id="rect3745"/>
</g>
<g id="layer5">
<rect width="66" x="15" y="15" rx="12" ry="12" height="66" style="opacity:.1;fill:url(#linearGradient3613);filter:url(#filter3794);stroke:#fff;stroke-linecap:round;stroke-width:.5;clip-path:url(#clipPath3613)" id="rect3171"/>
</g>
</g>
<circle cx="-30.442755" cy="-21.615704" style="fill:#0a0" id="circle3581_2_" r="13" transform="matrix(-0.96592582,0.25881907,-0.25881907,-0.96592582,0,0)"/>
<path style="fill:#fff;fill-rule:evenodd;stroke:none" id="rect3232" d="m 32.9683,4.8733 0,6.095 -6.095,0 0,4.0633 6.095,0 0,6.095 4.0633,0 0,-6.095 6.095,0 0,-4.0633 -6.095,0 0,-6.095 -4.0633,0 z "/>
</svg>
