<svg width="48" version="1.1" xmlns="http://www.w3.org/2000/svg" height="48">
<g style="stroke:none">
<path style="fill:#1a1a1a" id="path3798-9" d="m 17.645364,7.164 c -4.99239,0 -9.03617,3.8077 -9.03617,8.4932 0.01212,0.5369 0.01563,1.1366 0.07116,1.8045 -0.790083,0.4235 -0.89448,2.0837 -0.189735,3.7534 0.271754,0.6438 0.645292,1.1642 1.01983,1.5879 0.01248,0.014 0.03486,0.034 0.04744,0.048 0.0894,0.4412 0.152766,0.7776 0.260886,1.2752 0.334945,1.0104 1.72209,2.9134 2.94091,4.5474 0.121546,1.2604 0.125962,2.5121 -0.118585,3.9458 C 9.13293,35.5462 0.1525,36.8555 0.166,39.8855 L 0,41.04 l 35.2909,0 -0.166,-1.1549 c -0.01431,-2.5932 -9.0337,-4.2361 -12.4989,-7.266 -0.140299,-1.1607 -0.166287,-2.2975 -0.09487,-3.4407 1.10813,-1.7189 2.5701,-3.9339 2.94091,-5.0526 0.136281,-0.5793 0.202478,-0.9702 0.30832,-1.4676 0.327231,-0.4022 0.635972,-0.8713 0.87753,-1.4436 0.66926,-1.5857 0.587239,-3.1182 -0.09487,-3.6331 0.04767,-0.689 0.09866,-1.3359 0.118585,-1.9248 6e-6,-4.6855 -4.04378,-8.4932 -9.03617,-8.4932 z"/>
<g id="layer1" transform="matrix(0.68292683,0,0,0.68292683,17.609756,-2.3902439)">
<path style="fill:#3e659e" id="path3006" d="M 24,3.5 C 12.6781,3.5 3.5,12.67832 3.5,24 3.5,35.3221 12.67806,44.5 24,44.5 35.3209,44.5 44.5,35.3222 44.5,24 44.5,12.6783 35.3209,3.5 24,3.5 Z"/>
<g style="fill:#fff" id="g4142">
<path id="path3004" d="m 23.567,8.0402 c 2.15593,0 3.90176,1.74583 3.90176,3.90176 0,2.15593 -1.74583,3.90176 -3.90176,3.90176 -2.15593,0 -3.90176,-1.74583 -3.90176,-3.90176 0,-2.15593 1.74583,-3.90176 3.90176,-3.90176 z"/>
<path id="path6495" d="m 18.5938,21.0397 8.75,0 0,14.7688 3.25,0 0,2.5 -12,0 0,-2.5 3.25,0 0,-12.2688 -3.25,0 z"/>
</g>
</g>
</g>
</svg>
