<svg width="48" version="1.0" xmlns="http://www.w3.org/2000/svg" height="48" xmlns:xlink="http://www.w3.org/1999/xlink">
<defs id="defs12">
<clipPath id="clipPath3613">
<rect width="84" x="6" y="6" rx="6" height="84" ry="6" style="fill:#fff;stroke:none" id="rect3615"/>
</clipPath>
<filter width="1.3839999" x="-0.192" y="-0.192" height="1.3839999" style="color-interpolation-filters:sRGB" id="filter3794">
<feGaussianBlur stdDeviation="5.28" id="feGaussianBlur3796"/>
</filter>
<filter style="color-interpolation-filters:sRGB" id="filter3174">
<feGaussianBlur stdDeviation="1.71" id="feGaussianBlur3176"/>
</filter>
<linearGradient gradientTransform="scale(1.0058652,0.994169)" id="ButtonShadow" y1="92.539597" x1="45.447727" y2="7.0165396" x2="45.447727" gradientUnits="userSpaceOnUse">
<stop offset="0" id="stop3750"/>
<stop offset="1" style="stop-opacity:.588" id="stop3752"/>
</linearGradient>
<linearGradient id="linearGradient3613" xlink:href="#linearGradient3737" y1="20.220806" x1="48" y2="138.66119" x2="48" gradientUnits="userSpaceOnUse"/>
<linearGradient id="linearGradient3737">
<stop offset="0" style="stop-color:#fff" id="stop3739"/>
<stop offset="1" style="stop-color:#fff;stop-opacity:0" id="stop3741"/>
</linearGradient>
</defs>
<g id="layer1" transform="translate(-10.7151,0)">
<g style="fill:#e7161d" id="g5">
<path id="path3105" d="m 16.6012,20.0187 c -0.883167,1.56569 -2.36026,4.41668 -2.83518,6.26288 -1.21382,4.71865 -1.33129,9.85199 -1.51679,12.7445 -0.0091,0.127426 0.03804,0.236189 0.139475,0.31382 l 8.0373,6.0846 c 0.121205,0.093 0.28348,0.09438 0.400991,0.03488 0.117505,-0.05949 0.212438,-0.178512 0.209212,-0.331254 -0.07223,-7.19102 1.13655,-15.3906 2.57367,-22.3897 l -.8369,-.523 c 0,0 -2.99483,-1.68684 -6.17178,-2.19674 z "/>
<path id="path23453" d="m 22.4338,23.4167 c 2.48926,6.14021 5.67471,15.0615 7.61589,21.1005 0.03939,0.120329 0.157205,0.188794 0.261515,0.209213 0.104314,0.02042 0.214526,0.0093 0.296386,-0.08717 2.20273,-2.54689 4.59925,-4.79077 6.57277,-6.69481 0.0022,-0.0017 -0.0022,-0.01572 0,-0.01743 0.06355,-0.06233 0.10541,-0.137254 0.104606,-0.226648 -0.0094,-0.313607 -0.114436,-0.776329 -0.296383,-1.39475 -0.182131,-0.619038 -0.451045,-1.37541 -0.767113,-2.24903 -0.632117,-1.74722 -1.49145,-3.89807 -2.44081,-5.99743 -0.578048,-1.27826 -2.49243,-5.96189 -3.10038,-7.10073 -5.32988,-0.83564 -5.96817,0.774776 -8.24647,2.45824 z"/>
</g>
<path style="fill:#ffcb00" id="path3107" d="m 23.5467,2.5 -2.9115,2.4931 -3.6961,-1.0461 -1.1158,3.6612 -3.6612,1.1158 l 1.0461,3.6961 -2.4931,2.9115 2.8767,2.5454 -.5056,3.8007 3.7833,.5753 1.6388,3.4694 3.4869,-1.5517 3.2602,2.0398 2.0921,-3.2079 3.8356,-.0349 .0349,-3.8356 3.2079,-2.0921 -2.0398,-3.2602 1.5691,-3.5043 -3.4869,-1.6214 -.5753,-3.7833 -3.8007,.5056 -2.5454,-2.8767 Z "/>
</g>
<g style="display:none" id="g23" transform="translate(-168.33336,95.790782)">
<g id="layer2">
<rect width="86" x="5" y="7" rx="6" ry="6" height="85" style="opacity:.9;fill:url(#ButtonShadow);filter:url(#filter3174);stroke:none" id="rect3745"/>
</g>
<g id="layer5">
<rect width="66" x="15" y="15" rx="12" ry="12" height="66" style="opacity:.1;fill:url(#linearGradient3613);filter:url(#filter3794);stroke:#fff;stroke-linecap:round;stroke-width:.5;clip-path:url(#clipPath3613)" id="rect3171"/>
</g>
</g>
<circle cx="-30.442757" cy="-21.615704" style="fill:#0a0" id="circle3581_2_" r="13" transform="matrix(-0.96592582,0.25881907,-0.25881907,-0.96592582,0,0)"/>
<path style="fill:#fff;fill-rule:evenodd;stroke:none" id="rect3232" d="m 32.9683,4.8733 0,6.095 -6.095,0 0,4.0633 6.095,0 0,6.095 4.0633,0 0,-6.095 6.095,0 0,-4.0633 -6.095,0 0,-6.095 -4.0633,0 z "/>
</svg>
