<svg width="48" version="1.0" xmlns="http://www.w3.org/2000/svg" height="48">
<defs id="defs4"/>
<g id="layer2">
<g id="g3937" transform="matrix(0,1,1,0,-59.94765,-1.061)">
<path style="fill:#ecf0f1" id="rect4090" d="m 2.0634,61.9477 45.9976,0 0,43.8147 -46,.1853 .0024,-14.3607 z "/>
<g style="stroke:none;letter-spacing:0">
<path style="fill:#2b89c5" id="path3939" d="m 19.6883,62.9661 c 1.28412,0.0063 2.44449,1.38928 2.4375,2.24457 v 4.77066 l 21.1306,-.0208 c 1.29454,-0.0047 1.87622,0.782071 1.86919,1.64429 v 4.65971 c 0.007,0.862218 -0.574646,1.64897 -1.86919,1.64429 h -21.1306 v 4.75086 c 0.0088,0.620647 -0.563228,1.8285 -1.40567,2.09383 -0.842447,0.265328 -1.91094,0.174047 -2.62558,-0.224303 l -12.0004,-9.3246 c -1.12955,-0.610832 -1.12955,-1.92845 8.88178e-16,-2.53928 l 12.0004,-9.3246 c 0.443334,-0.244017 1.01866,-0.379262 1.59375,-0.374648 z "/>
<g style="line-height:100%;text-align:start;word-spacing:0;font-family:'Bitstream Vera Sans';font-size:23.31949043px">
<text x="87.043785" y="21.936001" style="font-weight:bold" id="text2992" xml:space="preserve" transform="matrix(0,1,1,0,0,0)"><tspan x="87.043785" y="21.936001" id="tspan2994">A</tspan>
</text>
<text x="87.285881" y="45.186001" style="font-weight:bold" id="text2996" xml:space="preserve" transform="matrix(0,1,1,0,0,0)"><tspan x="87.285881" y="45.186001" id="tspan2998">Z</tspan>
</text>
</g>
</g>
</g>
</g>
</svg>
