<?xml version="1.0" encoding="UTF-8" standalone="no"?>
<!-- Created with Inkscape (http://www.inkscape.org/) -->

<svg
   xmlns:dc="http://purl.org/dc/elements/1.1/"
   xmlns:cc="http://creativecommons.org/ns#"
   xmlns:rdf="http://www.w3.org/1999/02/22-rdf-syntax-ns#"
   xmlns:svg="http://www.w3.org/2000/svg"
   xmlns="http://www.w3.org/2000/svg"
   xmlns:xlink="http://www.w3.org/1999/xlink"
   xmlns:sodipodi="http://sodipodi.sourceforge.net/DTD/sodipodi-0.dtd"
   xmlns:inkscape="http://www.inkscape.org/namespaces/inkscape"
   width="96"
   height="96"
   id="svg2"
   version="1.1"
   inkscape:version="0.48.4 r9939"
   sodipodi:docname="4kvideodownloader.svg">
  <defs
     id="defs4">
    <linearGradient
       id="linearGradient3827">
      <stop
         style="stop-color:#ffffff;stop-opacity:1;"
         offset="0"
         id="stop3829" />
      <stop
         style="stop-color:#00a5db;stop-opacity:1;"
         offset="1"
         id="stop3831" />
    </linearGradient>
    <radialGradient
       inkscape:collect="always"
       xlink:href="#linearGradient3827"
       id="radialGradient3833"
       cx="55"
       cy="997.15991"
       fx="55"
       fy="997.15991"
       r="46.5"
       gradientTransform="matrix(1,0,0,0.95698884,0,43.091259)"
       gradientUnits="userSpaceOnUse" />
  </defs>
  <sodipodi:namedview
     id="base"
     pagecolor="#ffffff"
     bordercolor="#666666"
     borderopacity="1.0"
     inkscape:pageopacity="0.0"
     inkscape:pageshadow="2"
     inkscape:zoom="5.90625"
     inkscape:cx="48"
     inkscape:cy="48"
     inkscape:document-units="px"
     inkscape:current-layer="layer1"
     showgrid="true"
     inkscape:snap-page="true"
     inkscape:snap-global="false"
     inkscape:snap-center="true"
     inkscape:snap-object-midpoints="false"
     showguides="true"
     inkscape:guide-bbox="true"
     inkscape:snap-bbox="true"
     inkscape:object-paths="true"
     inkscape:object-nodes="true"
     inkscape:window-width="1305"
     inkscape:window-height="744"
     inkscape:window-x="61"
     inkscape:window-y="24"
     inkscape:window-maximized="1"
     inkscape:snap-midpoints="false"
     inkscape:snap-grids="true"
     inkscape:snap-to-guides="false">
    <inkscape:grid
       type="xygrid"
       id="grid3002"
       empspacing="5"
       visible="true"
       enabled="true"
       snapvisiblegridlinesonly="true" />
  </sodipodi:namedview>
  <metadata
     id="metadata7">
    <rdf:RDF>
      <cc:Work
         rdf:about="">
        <dc:format>image/svg+xml</dc:format>
        <dc:type
           rdf:resource="http://purl.org/dc/dcmitype/StillImage" />
        <dc:title />
      </cc:Work>
    </rdf:RDF>
  </metadata>
  <g
     inkscape:label="Layer 1"
     inkscape:groupmode="layer"
     id="layer1"
     transform="translate(0,-956.36218)">
    <rect
       style="fill:#ffffff;fill-opacity:0;fill-rule:nonzero;stroke:none"
       id="rect3775"
       width="96"
       height="96"
       x="0"
       y="956.36218"
       ry="0" />
    <path
       style="fill:#000000;fill-opacity:0.09589041;fill-rule:nonzero;stroke:none"
       d="m 3.353015,956.30662 c -1.884176,0 -3.4111555,1.43156 -3.4111555,3.19799 l 0,83.65949 c 0,1.7665 1.5269795,3.1981 3.4111555,3.1981 l 89.23583,0 c 1.884174,0 3.411155,-1.4316 3.411155,-3.1981 l 0,-83.65949 c 0,-1.76643 -1.526981,-3.19799 -3.411155,-3.19799 z"
       id="rect3772"
       inkscape:connector-curvature="0"
       sodipodi:nodetypes="sssssssss" />
    <path
       style="fill:#000000;fill-opacity:0.18721463;fill-rule:nonzero;stroke:none"
       d="m 1.0459761,1041.8066 0,7.4219 c 0,1.7392 1.461916,3.1337 3.2852054,3.1337 l 86.3836135,0 c 1.823288,0 3.285205,-1.3945 3.285205,-3.1337 l 0,-7.4219 -92.9540239,0 z"
       id="rect3785"
       inkscape:connector-curvature="0" />
    <path
       style="fill:#000000;fill-opacity:0.38356168;fill-rule:nonzero;stroke:none"
       d="m 1.0459761,1041.8066 0,5.3807 c 0,1.762 1.461916,3.1749 3.2852054,3.1749 l 86.3836135,0 c 1.823288,0 3.285205,-1.4129 3.285205,-3.1749 l 0,-5.3807 -92.9540239,0 z"
       id="rect3783"
       inkscape:connector-curvature="0" />
    <rect
       style="fill:url(#radialGradient3833);fill-opacity:1;fill-rule:nonzero;stroke:none"
       id="rect2985-2"
       width="93"
       height="88.999962"
       x="0.9999969"
       y="957.36224"
       ry="3.1511383" />
    <path
       style="fill:#000000;fill-opacity:0.38356168;fill-rule:nonzero;stroke:none"
       d="m 1,1042.3622 0.045976,2.7457 c 0.03024,1.8058 1.461916,3.2543 3.2852054,3.2543 l 86.3836136,0 c 1.823288,0 3.285205,-1.4481 3.285205,-3.2543 l -0.04598,-2.7457 z"
       id="rect3781"
       inkscape:connector-curvature="0"
       sodipodi:nodetypes="csssscc" />
    <rect
       style="fill:#ffffff;fill-opacity:0.30000001;fill-rule:nonzero;stroke:none"
       id="rect3770"
       width="92.954033"
       height="2.000005"
       x="1.045976"
       y="1040.3622" />
    <rect
       style="fill:#110f0f;fill-opacity:1;fill-rule:evenodd;stroke:none"
       id="rect3825"
       width="44"
       height="8.3068781"
       x="1"
       y="1012.3622" />
    <path
       sodipodi:type="arc"
       style="fill:#ffeaea;fill-opacity:1;fill-rule:evenodd;stroke:none"
       id="path3013"
       sodipodi:cx="52.5"
       sodipodi:cy="43.5"
       sodipodi:rx="27.5"
       sodipodi:ry="27.5"
       d="M 80,43.5 C 80,58.687831 67.687831,71 52.5,71 37.312169,71 25,58.687831 25,43.5 25,28.312169 37.312169,16 52.5,16 67.687831,16 80,28.312169 80,43.5 z"
       transform="translate(0,956.36218)" />
    <path
       transform="matrix(0.16479076,0,0,0.16479076,43.848485,992.69378)"
       d="M 80,43.5 C 80,58.687831 67.687831,71 52.5,71 37.312169,71 25,58.687831 25,43.5 25,28.312169 37.312169,16 52.5,16 67.687831,16 80,28.312169 80,43.5 z"
       sodipodi:ry="27.5"
       sodipodi:rx="27.5"
       sodipodi:cy="43.5"
       sodipodi:cx="52.5"
       id="path3783"
       style="fill:#000000;fill-opacity:0.74429226;fill-rule:evenodd;stroke:none"
       sodipodi:type="arc" />
    <path
       style="fill:#000000;fill-opacity:0.38356164;fill-rule:evenodd;stroke:none"
       d="M 52.5 19.09375 C 48.968592 19.09375 46.09375 21.968592 46.09375 25.5 C 46.09375 29.031408 48.968592 31.90625 52.5 31.90625 C 56.031408 31.90625 58.90625 29.031408 58.90625 25.5 C 58.90625 21.968592 56.031408 19.09375 52.5 19.09375 z M 37.09375 28.09375 C 34.826172 28.034857 32.588922 29.209926 31.375 31.3125 C 29.609296 34.370789 30.660461 38.265546 33.71875 40.03125 C 36.777039 41.796954 40.671796 40.745789 42.4375 37.6875 C 44.203204 34.629211 43.152039 30.734454 40.09375 28.96875 C 39.138035 28.416967 38.124467 28.12052 37.09375 28.09375 z M 67.90625 28.09375 C 66.875533 28.12052 65.861965 28.416968 64.90625 28.96875 C 61.847961 30.734454 60.796796 34.629211 62.5625 37.6875 C 64.328204 40.745789 68.222961 41.796954 71.28125 40.03125 C 74.339539 38.265546 75.390704 34.370789 73.625 31.3125 C 72.411079 29.209926 70.173828 28.034857 67.90625 28.09375 z M 36.75 46.09375 C 35.719283 46.12052 34.674465 46.416968 33.71875 46.96875 C 30.660461 48.734454 29.609296 52.629211 31.375 55.6875 C 33.140704 58.745789 37.035461 59.796954 40.09375 58.03125 C 43.152039 56.265546 44.203204 52.370789 42.4375 49.3125 C 41.223579 47.209926 39.017578 46.034857 36.75 46.09375 z M 68.25 46.09375 C 65.982422 46.034857 63.776422 47.209926 62.5625 49.3125 C 60.796796 52.370789 61.847961 56.265546 64.90625 58.03125 C 67.964539 59.796954 71.859296 58.745789 73.625 55.6875 C 75.390704 52.629211 74.339539 48.734454 71.28125 46.96875 C 70.325535 46.416967 69.280717 46.12052 68.25 46.09375 z M 52.5 55.09375 C 48.968592 55.09375 46.09375 57.968592 46.09375 61.5 C 46.09375 65.031408 48.968592 67.90625 52.5 67.90625 C 56.031408 67.90625 58.90625 65.031408 58.90625 61.5 C 58.90625 57.968592 56.031408 55.09375 52.5 55.09375 z "
       transform="translate(0,956.36218)"
       id="path3785" />
    <path
       style="fill:#000000;fill-opacity:0.74429226;fill-rule:evenodd;stroke:none"
       d="M 72.84375 38.65625 C 72.573773 37.521236 72.25876 36.398827 71.8125 35.34375 C 71.282309 34.090238 70.628154 32.896065 69.875 31.78125 C 69.121846 30.666435 68.260528 29.635528 67.3125 28.6875 C 67.197302 28.572302 67.055342 28.487502 66.9375 28.375 C 66.249868 28.51002 65.55346 28.595083 64.90625 28.96875 C 61.847961 30.734454 60.796796 34.629211 62.5625 37.6875 C 64.328204 40.745789 68.222961 41.796954 71.28125 40.03125 C 71.906317 39.670367 72.393284 39.169688 72.84375 38.65625 z "
       id="path3821"
       transform="translate(0,956.36218)" />
    <path
       style="fill:#000000;fill-opacity:0.74429226;fill-rule:evenodd;stroke:none"
       d="M 66.84375 58.6875 C 66.989385 58.549939 67.170855 58.454145 67.3125 58.3125 C 68.260528 57.364472 69.121846 56.333565 69.875 55.21875 C 70.628154 54.103935 71.282309 52.909762 71.8125 51.65625 C 72.25876 50.601173 72.573773 49.478764 72.84375 48.34375 C 72.393284 47.830312 71.906317 47.329633 71.28125 46.96875 C 70.325535 46.416967 69.280717 46.12052 68.25 46.09375 C 65.982422 46.034857 63.776422 47.209926 62.5625 49.3125 C 60.796796 52.370789 61.847961 56.265546 64.90625 58.03125 C 65.522075 58.386797 66.184305 58.553773 66.84375 58.6875 z "
       id="path3817"
       transform="translate(0,956.36218)" />
    <path
       style="fill:#000000;fill-opacity:0.74429226;fill-rule:evenodd;stroke:none"
       d="M 46.5 63.46875 C 47.097056 63.648387 47.663055 63.904749 48.28125 64.03125 C 49.645372 64.31039 51.053357 64.46875 52.5 64.46875 C 53.946643 64.46875 55.354628 64.31039 56.71875 64.03125 C 57.336945 63.904749 57.902944 63.648387 58.5 63.46875 C 58.706412 62.840666 58.90625 62.196095 58.90625 61.5 C 58.90625 57.968592 56.031408 55.09375 52.5 55.09375 C 48.968592 55.09375 46.09375 57.968592 46.09375 61.5 C 46.09375 62.196095 46.293588 62.840666 46.5 63.46875 z "
       id="path3813"
       transform="translate(0,956.36218)" />
    <path
       style="fill:#000000;fill-opacity:0.74429226;fill-rule:evenodd;stroke:none"
       d="M 32.15625 48.34375 C 32.426227 49.478764 32.74124 50.601173 33.1875 51.65625 C 33.717691 52.909762 34.371846 54.103935 35.125 55.21875 C 35.878154 56.333565 36.739472 57.364472 37.6875 58.3125 C 37.829145 58.454145 38.010615 58.549939 38.15625 58.6875 C 38.815695 58.553773 39.477925 58.386797 40.09375 58.03125 C 43.152039 56.265546 44.203204 52.370789 42.4375 49.3125 C 41.223579 47.209926 39.017578 46.034857 36.75 46.09375 C 35.719283 46.12052 34.674465 46.416968 33.71875 46.96875 C 33.093683 47.329633 32.606716 47.830312 32.15625 48.34375 z "
       id="path3809"
       transform="translate(0,956.36218)" />
    <path
       style="fill:#000000;fill-opacity:0.74429226;fill-rule:evenodd;stroke:none"
       d="M 38.0625 28.375 C 37.944658 28.487502 37.802698 28.572302 37.6875 28.6875 C 36.739472 29.635528 35.878154 30.666435 35.125 31.78125 C 34.371846 32.896065 33.717691 34.090238 33.1875 35.34375 C 32.74124 36.398827 32.426227 37.521236 32.15625 38.65625 C 32.606716 39.169688 33.093683 39.670367 33.71875 40.03125 C 36.777039 41.796954 40.671796 40.745789 42.4375 37.6875 C 44.203204 34.629211 43.152039 30.734454 40.09375 28.96875 C 39.44654 28.595083 38.750132 28.51002 38.0625 28.375 z "
       id="path3805"
       transform="translate(0,956.36218)" />
    <path
       style="fill:#000000;fill-opacity:0.74429226;fill-rule:evenodd;stroke:none"
       d="M 58.5 23.53125 C 57.902944 23.351613 57.336945 23.095251 56.71875 22.96875 C 55.354628 22.68961 53.946643 22.53125 52.5 22.53125 C 51.053357 22.53125 49.645372 22.68961 48.28125 22.96875 C 47.663055 23.095251 47.097056 23.351613 46.5 23.53125 C 46.293588 24.159334 46.09375 24.803905 46.09375 25.5 C 46.09375 29.031408 48.968592 31.90625 52.5 31.90625 C 56.031408 31.90625 58.90625 29.031408 58.90625 25.5 C 58.90625 24.803905 58.706412 24.159334 58.5 23.53125 z "
       id="path3803"
       transform="translate(0,956.36218)" />
  </g>
</svg>
