<?xml version="1.0" encoding="UTF-8" standalone="no"?>
<!-- Created with Inkscape (http://www.inkscape.org/) -->

<svg
   xmlns:dc="http://purl.org/dc/elements/1.1/"
   xmlns:cc="http://creativecommons.org/ns#"
   xmlns:rdf="http://www.w3.org/1999/02/22-rdf-syntax-ns#"
   xmlns:svg="http://www.w3.org/2000/svg"
   xmlns="http://www.w3.org/2000/svg"
   xmlns:xlink="http://www.w3.org/1999/xlink"
   xmlns:sodipodi="http://sodipodi.sourceforge.net/DTD/sodipodi-0.dtd"
   xmlns:inkscape="http://www.inkscape.org/namespaces/inkscape"
   width="96"
   height="96"
   id="svg2"
   version="1.1"
   inkscape:version="0.48.4 r9939"
   sodipodi:docname="7z.svg">
  <defs
     id="defs4">
    <linearGradient
       inkscape:collect="always"
       id="linearGradient3759">
      <stop
         style="stop-color:#000000;stop-opacity:1;"
         offset="0"
         id="stop3761" />
      <stop
         style="stop-color:#000000;stop-opacity:0;"
         offset="1"
         id="stop3763" />
    </linearGradient>
    <linearGradient
       inkscape:collect="always"
       xlink:href="#linearGradient3759"
       id="linearGradient3765"
       x1="50"
       y1="942.36218"
       x2="50"
       y2="1017.3622"
       gradientUnits="userSpaceOnUse" />
  </defs>
  <sodipodi:namedview
     id="base"
     pagecolor="#ffffff"
     bordercolor="#666666"
     borderopacity="1.0"
     inkscape:pageopacity="0.0"
     inkscape:pageshadow="2"
     inkscape:zoom="4.1763494"
     inkscape:cx="-0.0084354703"
     inkscape:cy="48"
     inkscape:document-units="px"
     inkscape:current-layer="layer1"
     showgrid="true"
     inkscape:snap-page="true"
     inkscape:snap-global="true"
     inkscape:snap-center="true"
     inkscape:snap-object-midpoints="false"
     showguides="true"
     inkscape:guide-bbox="true"
     inkscape:snap-bbox="true"
     inkscape:object-paths="true"
     inkscape:object-nodes="true"
     inkscape:window-width="1303"
     inkscape:window-height="744"
     inkscape:window-x="65"
     inkscape:window-y="24"
     inkscape:window-maximized="1"
     inkscape:snap-midpoints="false"
     inkscape:snap-grids="true"
     inkscape:snap-to-guides="false">
    <inkscape:grid
       type="xygrid"
       id="grid3002"
       empspacing="5"
       visible="true"
       enabled="true"
       snapvisiblegridlinesonly="true" />
  </sodipodi:namedview>
  <metadata
     id="metadata7">
    <rdf:RDF>
      <cc:Work
         rdf:about="">
        <dc:format>image/svg+xml</dc:format>
        <dc:type
           rdf:resource="http://purl.org/dc/dcmitype/StillImage" />
        <dc:title />
      </cc:Work>
    </rdf:RDF>
  </metadata>
  <g
     inkscape:label="Layer 1"
     inkscape:groupmode="layer"
     id="layer1"
     transform="translate(0,-956.36218)">
    <rect
       style="fill:#ffffff;fill-opacity:0;fill-rule:nonzero;stroke:none"
       id="rect3775"
       width="96"
       height="96"
       x="0"
       y="956.36218"
       ry="0" />
    <path
       style="fill:#000000;fill-opacity:0.09589041;fill-rule:nonzero;stroke:none"
       d="m 3.353015,956.30662 c -1.884176,0 -3.4111555,1.43156 -3.4111555,3.19799 l 0,83.65949 c 0,1.7665 1.5269795,3.1981 3.4111555,3.1981 l 89.23583,0 c 1.884174,0 3.411155,-1.4316 3.411155,-3.1981 l 0,-83.65949 c 0,-1.76643 -1.526981,-3.19799 -3.411155,-3.19799 z"
       id="rect3772"
       inkscape:connector-curvature="0"
       sodipodi:nodetypes="sssssssss" />
    <path
       style="fill:#000000;fill-opacity:0.18721463;fill-rule:nonzero;stroke:none"
       d="m 1.0459761,1041.8066 0,7.4219 c 0,1.7392 1.461916,3.1337 3.2852054,3.1337 l 86.3836135,0 c 1.823288,0 3.285205,-1.3945 3.285205,-3.1337 l 0,-7.4219 -92.9540239,0 z"
       id="rect3785"
       inkscape:connector-curvature="0" />
    <path
       style="fill:#000000;fill-opacity:0.38356168;fill-rule:nonzero;stroke:none"
       d="m 1.0459761,1041.8066 0,5.3807 c 0,1.762 1.461916,3.1749 3.2852054,3.1749 l 86.3836135,0 c 1.823288,0 3.285205,-1.4129 3.285205,-3.1749 l 0,-5.3807 -92.9540239,0 z"
       id="rect3783"
       inkscape:connector-curvature="0" />
    <rect
       style="fill:#f99b0c;fill-opacity:1;fill-rule:nonzero;stroke:none"
       id="rect2985"
       width="92.954025"
       height="89"
       x="1.0459771"
       y="-1046.3622"
       ry="3.1511393"
       transform="scale(1,-1)" />
    <path
       style="fill:url(#linearGradient3765);fill-opacity:1;fill-rule:evenodd;stroke:none;opacity:0.82304527"
       d="m 49.192411,957.36218 -5.709268,0 -3.370786,0 -3.370785,0 c -3.734831,0 -6.741572,3.00674 -6.741572,6.74157 0,3.73483 3.006741,6.74157 6.741572,6.74157 l 3.370785,0 3.370786,0 c 1.922878,0 3.370786,1.44791 3.370786,3.37079 0,1.92288 -1.447908,3.37078 -3.370786,3.37078 l -3.370786,0 -3.370785,0 c -3.734831,0 -6.741572,3.00675 -6.741572,6.74158 0,3.73484 3.006741,6.74158 6.741572,6.74158 l 3.370785,0 3.370786,0 c 1.922878,0 3.370786,1.44789 3.370786,3.37079 0,1.9229 -1.447908,3.37078 -3.370786,3.37078 l -3.370786,0 -3.370785,0 c -3.734831,0 -6.741572,3.00678 -6.741572,6.74158 0,3.7348 3.006741,6.7416 6.741572,6.7416 l 3.370785,0 3.370786,0 c 1.922878,0 3.370786,1.4479 3.370786,3.3708 0,1.1621 -0.568613,2.0962 -1.411517,2.6966 l 4.213482,0 c 0.359479,-0.8259 0.568821,-1.7354 0.568821,-2.6966 0,-3.7349 -3.006741,-6.7416 -6.741572,-6.7416 l -3.370786,0 -3.370785,0 c -1.922878,0 -3.370786,-1.448 -3.370786,-3.3708 0,-1.9229 1.447908,-3.3708 3.370786,-3.3708 l 3.370785,0 3.370786,0 c 3.734831,0 6.741572,-3.00673 6.741572,-6.74156 0,-3.73483 -3.006741,-6.74157 -6.741572,-6.74157 l -3.370786,0 -3.370785,0 c -1.922878,0 -3.370786,-1.44796 -3.370786,-3.3708 0,-1.92288 1.447908,-3.37079 3.370786,-3.37079 l 3.370785,0 3.370786,0 c 3.734831,0 6.741572,-3.00674 6.741572,-6.74157 0,-3.73483 -3.006741,-6.74157 -6.741572,-6.74157 l -3.370786,0 -3.370785,0 c -1.922878,0 -3.370786,-1.44791 -3.370786,-3.37079 0,-1.92288 1.447908,-3.37078 3.370786,-3.37078 l 3.370785,0 3.370786,0 c 2.477177,0 4.537561,-1.39022 5.709268,-3.37079 z"
       id="path3031"
       inkscape:connector-curvature="0" />
    <path
       style="fill:#000000;fill-opacity:0.38356168;fill-rule:nonzero;stroke:none"
       d="m 1,1042.3622 0.045976,2.7457 c 0.03024,1.8058 1.461916,3.2543 3.2852054,3.2543 l 86.3836136,0 c 1.823288,0 3.285205,-1.4481 3.285205,-3.2543 l -0.04598,-2.7457 z"
       id="rect3781"
       inkscape:connector-curvature="0"
       sodipodi:nodetypes="csssscc" />
    <rect
       style="fill:#ffffff;fill-opacity:0.30000001;fill-rule:nonzero;stroke:none"
       id="rect3770"
       width="92.954033"
       height="2.000005"
       x="1.045976"
       y="1040.3622" />
  </g>
</svg>
