<?xml version="1.0" encoding="UTF-8" standalone="no"?>
<!-- Created with Inkscape (http://www.inkscape.org/) -->

<svg
   xmlns:dc="http://purl.org/dc/elements/1.1/"
   xmlns:cc="http://creativecommons.org/ns#"
   xmlns:rdf="http://www.w3.org/1999/02/22-rdf-syntax-ns#"
   xmlns:svg="http://www.w3.org/2000/svg"
   xmlns="http://www.w3.org/2000/svg"
   xmlns:xlink="http://www.w3.org/1999/xlink"
   xmlns:sodipodi="http://sodipodi.sourceforge.net/DTD/sodipodi-0.dtd"
   xmlns:inkscape="http://www.inkscape.org/namespaces/inkscape"
   width="96"
   height="96"
   id="svg2"
   version="1.1"
   inkscape:version="0.48.4 r9939"
   sodipodi:docname="8-ball-pool.svg">
  <defs
     id="defs4">
    <linearGradient
       inkscape:collect="always"
       id="linearGradient3828">
      <stop
         style="stop-color:#000000;stop-opacity:1;"
         offset="0"
         id="stop3830" />
      <stop
         style="stop-color:#000000;stop-opacity:0;"
         offset="1"
         id="stop3832" />
    </linearGradient>
    <linearGradient
       id="linearGradient3811">
      <stop
         style="stop-color:#ffffff;stop-opacity:1;"
         offset="0"
         id="stop3813" />
      <stop
         style="stop-color:#000000;stop-opacity:1;"
         offset="1"
         id="stop3815" />
    </linearGradient>
    <radialGradient
       inkscape:collect="always"
       xlink:href="#linearGradient3811"
       id="radialGradient3817"
       cx="60.597885"
       cy="22.523809"
       fx="60.597885"
       fy="22.523809"
       r="20"
       gradientUnits="userSpaceOnUse"
       gradientTransform="matrix(1.1185185,0.00846561,-0.00756837,0.99997136,-7.011503,-0.51235288)" />
    <radialGradient
       inkscape:collect="always"
       xlink:href="#linearGradient3828"
       id="radialGradient3834"
       cx="60"
       cy="31"
       fx="60"
       fy="31"
       r="20"
       gradientUnits="userSpaceOnUse" />
  </defs>
  <sodipodi:namedview
     id="base"
     pagecolor="#ffffff"
     bordercolor="#666666"
     borderopacity="1.0"
     inkscape:pageopacity="0.0"
     inkscape:pageshadow="2"
     inkscape:zoom="5.90625"
     inkscape:cx="27.869374"
     inkscape:cy="41.227513"
     inkscape:document-units="px"
     inkscape:current-layer="layer1"
     showgrid="true"
     inkscape:snap-page="true"
     inkscape:snap-global="false"
     inkscape:snap-center="true"
     inkscape:snap-object-midpoints="false"
     showguides="true"
     inkscape:guide-bbox="true"
     inkscape:snap-bbox="true"
     inkscape:object-paths="true"
     inkscape:object-nodes="true"
     inkscape:window-width="1305"
     inkscape:window-height="744"
     inkscape:window-x="61"
     inkscape:window-y="24"
     inkscape:window-maximized="1"
     inkscape:snap-midpoints="false"
     inkscape:snap-grids="true"
     inkscape:snap-to-guides="false">
    <inkscape:grid
       type="xygrid"
       id="grid3002"
       empspacing="5"
       visible="true"
       enabled="true"
       snapvisiblegridlinesonly="true" />
  </sodipodi:namedview>
  <metadata
     id="metadata7">
    <rdf:RDF>
      <cc:Work
         rdf:about="">
        <dc:format>image/svg+xml</dc:format>
        <dc:type
           rdf:resource="http://purl.org/dc/dcmitype/StillImage" />
        <dc:title />
      </cc:Work>
    </rdf:RDF>
  </metadata>
  <g
     inkscape:label="Layer 1"
     inkscape:groupmode="layer"
     id="layer1"
     transform="translate(0,-956.36218)">
    <rect
       style="fill:#ffffff;fill-opacity:0;fill-rule:nonzero;stroke:none"
       id="rect3775"
       width="96"
       height="96"
       x="0"
       y="956.36218"
       ry="0" />
    <path
       style="fill:#000000;fill-opacity:0.09589041;fill-rule:nonzero;stroke:none"
       d="m 3.353015,956.30662 c -1.884176,0 -3.4111555,1.43156 -3.4111555,3.19799 l 0,83.65949 c 0,1.7665 1.5269795,3.1981 3.4111555,3.1981 l 89.23583,0 c 1.884174,0 3.411155,-1.4316 3.411155,-3.1981 l 0,-83.65949 c 0,-1.76643 -1.526981,-3.19799 -3.411155,-3.19799 z"
       id="rect3772"
       inkscape:connector-curvature="0"
       sodipodi:nodetypes="sssssssss" />
    <path
       style="fill:#000000;fill-opacity:0.18721463;fill-rule:nonzero;stroke:none"
       d="m 1.0459761,1041.8066 0,7.4219 c 0,1.7392 1.461916,3.1337 3.2852054,3.1337 l 86.3836135,0 c 1.823288,0 3.285205,-1.3945 3.285205,-3.1337 l 0,-7.4219 -92.9540239,0 z"
       id="rect3785"
       inkscape:connector-curvature="0" />
    <path
       style="fill:#000000;fill-opacity:0.38356168;fill-rule:nonzero;stroke:none"
       d="m 1.0459761,1041.8066 0,5.3807 c 0,1.762 1.461916,3.1749 3.2852054,3.1749 l 86.3836135,0 c 1.823288,0 3.285205,-1.4129 3.285205,-3.1749 l 0,-5.3807 -92.9540239,0 z"
       id="rect3783"
       inkscape:connector-curvature="0" />
    <rect
       style="fill:#008700;fill-opacity:1;fill-rule:nonzero;stroke:none"
       id="rect2985-2"
       width="93"
       height="88.999962"
       x="0.9999969"
       y="957.36224"
       ry="3.1511383" />
    <path
       style="fill:#ffd47a;fill-opacity:1;fill-rule:evenodd;stroke:none"
       d="M 1 66 L 1 86.84375 C 1 87.716615 1.3366818 88.524182 1.90625 89.09375 C 2.4758182 89.663318 3.2833847 90 4.15625 90 L 90.84375 90 C 91.716615 90 92.524182 89.663318 93.09375 89.09375 C 93.663318 88.524182 94 87.716615 94 86.84375 L 94 66 L 1 66 z "
       id="rect3768"
       transform="translate(0,956.36218)" />
    <path
       style="fill:#000000;fill-opacity:0.38356168;fill-rule:nonzero;stroke:none"
       d="m 1,1042.3622 0.045976,2.7457 c 0.03024,1.8058 1.461916,3.2543 3.2852054,3.2543 l 86.3836136,0 c 1.823288,0 3.285205,-1.4481 3.285205,-3.2543 l -0.04598,-2.7457 z"
       id="rect3781"
       inkscape:connector-curvature="0"
       sodipodi:nodetypes="csssscc" />
    <rect
       style="fill:#ffffff;fill-opacity:0.77625573;fill-rule:nonzero;stroke:none"
       id="rect3770"
       width="92.954033"
       height="2.000005"
       x="1.045976"
       y="1040.3622" />
    <rect
       style="fill:#77591f;fill-opacity:0.14155251;fill-rule:evenodd;stroke:none"
       id="rect3776"
       width="93"
       height="1"
       x="1"
       y="68"
       transform="translate(0,956.36218)" />
    <rect
       y="1027.3622"
       x="1"
       height="1.9999974"
       width="93"
       id="rect3778"
       style="fill:#77591f;fill-opacity:0.14155251;fill-rule:evenodd;stroke:none" />
    <rect
       style="fill:#77591f;fill-opacity:0.14155251;fill-rule:evenodd;stroke:none"
       id="rect3780"
       width="93"
       height="1"
       x="1"
       y="-1031.3622"
       transform="scale(1,-1)" />
    <rect
       transform="scale(1,-1)"
       y="-1037.3622"
       x="1"
       height="3.0000026"
       width="29"
       id="rect3782"
       style="fill:#77591f;fill-opacity:0.14155251;fill-rule:evenodd;stroke:none" />
    <rect
       style="fill:#77591f;fill-opacity:0.14155251;fill-rule:evenodd;stroke:none"
       id="rect3784"
       width="59"
       height="3.0000026"
       x="-94"
       y="-1037.3622"
       transform="scale(-1,-1)" />
    <path
       sodipodi:type="arc"
       style="fill:#77591f;fill-opacity:0.1415525;fill-rule:evenodd;stroke:none"
       id="path3788"
       sodipodi:cx="37.5"
       sodipodi:cy="76"
       sodipodi:rx="22.5"
       sodipodi:ry="7"
       d="M 60,76 C 60,79.865993 49.926407,83 37.5,83 25.073593,83 15,79.865993 15,76 15,72.134007 25.073593,69 37.5,69 49.926407,69 60,72.134007 60,76 z"
       transform="matrix(0.97777778,0,0,0.64285714,0.33333333,986.00504)" />
    <path
       transform="matrix(0.84444444,0,0,0.35714323,5.3333335,1007.7193)"
       d="M 60,76 C 60,79.865993 49.926407,83 37.5,83 25.073593,83 15,79.865993 15,76 15,72.134007 25.073593,69 37.5,69 49.926407,69 60,72.134007 60,76 z"
       sodipodi:ry="7"
       sodipodi:rx="22.5"
       sodipodi:cy="76"
       sodipodi:cx="37.5"
       id="path3790"
       style="fill:#77591f;fill-opacity:0.1415525;fill-rule:evenodd;stroke:none"
       sodipodi:type="arc" />
    <path
       sodipodi:type="arc"
       style="fill:#77591f;fill-opacity:0.1415525;fill-rule:evenodd;stroke:none"
       id="path3792"
       sodipodi:cx="37.5"
       sodipodi:cy="76"
       sodipodi:rx="22.5"
       sodipodi:ry="7"
       d="M 60,76 C 60,79.865993 49.926407,83 37.5,83 25.073593,83 15,79.865993 15,76 15,72.134007 25.073593,69 37.5,69 49.926407,69 60,72.134007 60,76 z"
       transform="matrix(0.35555556,0,0,0.35714323,23.666667,1007.7193)" />
    <path
       transform="matrix(0.77777778,0,0,0.67857158,46.333333,977.04074)"
       d="M 60,76 C 60,79.865993 49.926407,83 37.5,83 25.073593,83 15,79.865993 15,76 15,72.134007 25.073593,69 37.5,69 49.926407,69 60,72.134007 60,76 z"
       sodipodi:ry="7"
       sodipodi:rx="22.5"
       sodipodi:cy="76"
       sodipodi:cx="37.5"
       id="path3794"
       style="fill:#77591f;fill-opacity:0.1415525;fill-rule:evenodd;stroke:none"
       sodipodi:type="arc" />
    <path
       sodipodi:type="arc"
       style="fill:#77591f;fill-opacity:0.1415525;fill-rule:evenodd;stroke:none"
       id="path3796"
       sodipodi:cx="37.5"
       sodipodi:cy="76"
       sodipodi:rx="22.5"
       sodipodi:ry="7"
       d="M 60,76 C 60,79.865993 49.926407,83 37.5,83 25.073593,83 15,79.865993 15,76 15,72.134007 25.073593,69 37.5,69 49.926407,69 60,72.134007 60,76 z"
       transform="matrix(0.67171717,0,0,0.37698461,50.310606,999.96135)" />
    <path
       transform="matrix(0.28282829,0,0,0.37698461,64.89394,999.96135)"
       d="M 60,76 C 60,79.865993 49.926407,83 37.5,83 25.073593,83 15,79.865993 15,76 15,72.134007 25.073593,69 37.5,69 49.926407,69 60,72.134007 60,76 z"
       sodipodi:ry="7"
       sodipodi:rx="22.5"
       sodipodi:cy="76"
       sodipodi:cx="37.5"
       id="path3798"
       style="fill:#77591f;fill-opacity:0.1415525;fill-rule:evenodd;stroke:none"
       sodipodi:type="arc" />
    <path
       sodipodi:type="arc"
       style="fill:#77591f;fill-opacity:0.1415525;fill-rule:evenodd;stroke:none"
       id="path3800"
       sodipodi:cx="37.5"
       sodipodi:cy="76"
       sodipodi:rx="22.5"
       sodipodi:ry="7"
       d="M 60,76 C 60,79.865993 49.926407,83 37.5,83 25.073593,83 15,79.865993 15,76 15,72.134007 25.073593,69 37.5,69 49.926407,69 60,72.134007 60,76 z"
       transform="matrix(0.17777773,0,0,0.32142862,70.333336,1004.1836)" />
    <path
       transform="matrix(0.17777773,0,0,0.32142862,70.333336,1004.1836)"
       d="M 60,76 C 60,79.865993 49.926407,83 37.5,83 25.073593,83 15,79.865993 15,76 15,72.134007 25.073593,69 37.5,69 49.926407,69 60,72.134007 60,76 z"
       sodipodi:ry="7"
       sodipodi:rx="22.5"
       sodipodi:cy="76"
       sodipodi:cx="37.5"
       id="path3802"
       style="fill:#77591f;fill-opacity:0.1415525;fill-rule:evenodd;stroke:none"
       sodipodi:type="arc" />
    <path
       style="fill:#1d1403;fill-opacity:0.68036535;fill-rule:evenodd;stroke:none"
       d="m 32.484375,1007.3622 c -9.395772,0 -17.041284,6.656 -17.484375,15 l 34.96875,0 c -0.443091,-8.344 -8.088603,-15 -17.484375,-15 z"
       id="path3804"
       inkscape:connector-curvature="0" />
    <path
       sodipodi:type="arc"
       style="fill:url(#radialGradient3817);fill-opacity:1;fill-rule:evenodd;stroke:none"
       id="path3809"
       sodipodi:cx="60"
       sodipodi:cy="31"
       sodipodi:rx="20"
       sodipodi:ry="20"
       d="M 80,31 C 80,42.045695 71.045695,51 60,51 48.954305,51 40,42.045695 40,31 40,19.954305 48.954305,11 60,11 c 11.045695,0 20,8.954305 20,20 z"
       transform="translate(0,956.36218)" />
    <path
       transform="matrix(0.65291005,0,0,0.58941799,20.994709,960.87858)"
       d="M 80,31 C 80,42.045695 71.045695,51 60,51 48.954305,51 40,42.045695 40,31 40,19.954305 48.954305,11 60,11 c 11.045695,0 20,8.954305 20,20 z"
       sodipodi:ry="20"
       sodipodi:rx="20"
       sodipodi:cy="31"
       sodipodi:cx="60"
       id="path3819"
       style="fill:#ffffff;fill-opacity:0.19634703;fill-rule:evenodd;stroke:none"
       sodipodi:type="arc" />
    <path
       style="font-size:20.14190292px;font-style:normal;font-variant:normal;font-weight:normal;font-stretch:normal;text-align:end;line-height:125%;letter-spacing:0px;word-spacing:0px;text-anchor:end;fill:#000000;fill-opacity:1;stroke:none;font-family:Andale Mono;-inkscape-font-specification:Andale Mono"
       d="M 59.8125 15 C 59.030424 15.000013 58.324738 15.119665 57.6875 15.34375 C 57.050254 15.555411 56.494697 15.851615 56.03125 16.25 C 55.582282 16.648409 55.229439 17.127265 54.96875 17.6875 C 54.722542 18.235306 54.591465 18.858964 54.5625 19.53125 L 57.5 19.53125 C 57.485514 18.858964 57.671461 18.310757 58.0625 17.875 C 58.468013 17.426814 59.061674 17.187511 59.84375 17.1875 C 60.408572 17.187511 60.909259 17.326213 61.34375 17.625 C 61.778226 17.923808 61.999992 18.377264 62 18.9375 C 61.999992 19.311006 61.873484 19.58841 61.65625 19.8125 C 61.453483 20.036607 61.208097 20.219259 60.875 20.34375 C 60.556372 20.455807 60.189046 20.537608 59.8125 20.5625 C 59.435942 20.587408 59.083099 20.587408 58.75 20.5625 L 58.75 22.40625 C 59.126547 22.406256 59.531976 22.443856 59.9375 22.46875 C 60.357494 22.481206 60.714906 22.531757 61.0625 22.65625 C 61.410079 22.768305 61.72025 22.957307 61.9375 23.21875 C 62.169216 23.480203 62.281242 23.845758 62.28125 24.34375 C 62.281242 24.966249 62.040424 25.470256 61.5625 25.84375 C 61.084561 26.217249 60.476417 26.406252 59.78125 26.40625 C 59.332278 26.406252 58.958099 26.355701 58.625 26.21875 C 58.306374 26.081803 58.029738 25.880351 57.8125 25.65625 C 57.595254 25.419705 57.428359 25.155001 57.3125 24.84375 C 57.196634 24.532506 57.139479 24.204802 57.125 23.84375 L 54.1875 23.84375 C 54.173017 24.590748 54.301809 25.246157 54.5625 25.84375 C 54.837672 26.428898 55.226334 26.932904 55.71875 27.34375 C 56.211162 27.754598 56.804823 28.069602 57.5 28.28125 C 58.209652 28.492898 58.98926 28.59375 59.84375 28.59375 C 60.582366 28.59375 61.288051 28.499248 61.96875 28.3125 C 62.649432 28.113302 63.25986 27.829798 63.78125 27.46875 C 64.30262 27.107704 64.69585 26.660348 65 26.125 C 65.31861 25.589657 65.499988 24.997248 65.5 24.3125 C 65.499988 23.57796 65.259171 22.941602 64.78125 22.40625 C 64.303307 21.85846 63.621242 21.505606 62.78125 21.34375 L 62.78125 21.28125 C 63.490897 21.106958 64.027403 20.798054 64.375 20.3125 C 64.737059 19.814512 64.937489 19.247505 64.9375 18.625 C 64.937489 18.039865 64.772878 17.510708 64.46875 17.0625 C 64.164601 16.614315 63.773655 16.24876 63.28125 15.9375 C 62.803309 15.626265 62.264519 15.399412 61.65625 15.25 C 61.047966 15.088164 60.420771 15.000013 59.8125 15 z "
       transform="translate(0,956.36218)"
       id="text3821" />
    <path
       transform="matrix(1.3174604,0,0,0.5005291,-14.730159,990.30081)"
       d="M 80,31 C 80,42.045695 71.045695,51 60,51 48.954305,51 40,42.045695 40,31 40,19.954305 48.954305,11 60,11 c 11.045695,0 20,8.954305 20,20 z"
       sodipodi:ry="20"
       sodipodi:rx="20"
       sodipodi:cy="31"
       sodipodi:cx="60"
       id="path3826"
       style="fill:url(#radialGradient3834);fill-opacity:1;fill-rule:evenodd;stroke:none;opacity:0.65843621"
       sodipodi:type="arc" />
  </g>
</svg>
