<?xml version="1.0" encoding="UTF-8" standalone="no"?>
<!-- Created with Inkscape (http://www.inkscape.org/) -->

<svg
   xmlns:dc="http://purl.org/dc/elements/1.1/"
   xmlns:cc="http://creativecommons.org/ns#"
   xmlns:rdf="http://www.w3.org/1999/02/22-rdf-syntax-ns#"
   xmlns:svg="http://www.w3.org/2000/svg"
   xmlns="http://www.w3.org/2000/svg"
   xmlns:sodipodi="http://sodipodi.sourceforge.net/DTD/sodipodi-0.dtd"
   xmlns:inkscape="http://www.inkscape.org/namespaces/inkscape"
   width="96"
   height="96"
   id="svg2"
   version="1.1"
   inkscape:version="0.48.4 r9939"
   sodipodi:docname="abrt.svg">
  <sodipodi:namedview
     id="base"
     pagecolor="#ffffff"
     bordercolor="#666666"
     borderopacity="1.0"
     inkscape:pageopacity="0.0"
     inkscape:pageshadow="2"
     inkscape:zoom="5.90625"
     inkscape:cx="47.830688"
     inkscape:cy="48"
     inkscape:document-units="px"
     inkscape:current-layer="layer1"
     showgrid="true"
     inkscape:snap-page="true"
     inkscape:snap-global="false"
     inkscape:snap-center="true"
     inkscape:snap-object-midpoints="false"
     showguides="true"
     inkscape:guide-bbox="true"
     inkscape:snap-bbox="true"
     inkscape:object-paths="true"
     inkscape:object-nodes="true"
     inkscape:window-width="1305"
     inkscape:window-height="744"
     inkscape:window-x="61"
     inkscape:window-y="24"
     inkscape:window-maximized="1"
     inkscape:snap-midpoints="false"
     inkscape:snap-grids="true"
     inkscape:snap-to-guides="false">
    <inkscape:grid
       snapvisiblegridlinesonly="true"
       enabled="true"
       visible="true"
       empspacing="5"
       id="grid3002"
       type="xygrid" />
  </sodipodi:namedview>
  <defs
     id="defs4" />
  <metadata
     id="metadata7">
    <rdf:RDF>
      <cc:Work
         rdf:about="">
        <dc:format>image/svg+xml</dc:format>
        <dc:type
           rdf:resource="http://purl.org/dc/dcmitype/StillImage" />
        <dc:title />
      </cc:Work>
    </rdf:RDF>
  </metadata>
  <g
     transform="translate(0,-956.36218)"
     id="layer1"
     inkscape:groupmode="layer"
     inkscape:label="Layer 1">
    <rect
       ry="0"
       y="956.36218"
       x="0"
       height="96"
       width="96"
       id="rect3775"
       style="fill:#ffffff;fill-opacity:0;fill-rule:nonzero;stroke:none" />
    <path
       sodipodi:nodetypes="sssssssss"
       inkscape:connector-curvature="0"
       id="rect3772"
       d="m 3.353015,956.30662 c -1.884176,0 -3.4111555,1.43156 -3.4111555,3.19799 l 0,83.65949 c 0,1.7665 1.5269795,3.1981 3.4111555,3.1981 l 89.23583,0 c 1.884174,0 3.411155,-1.4316 3.411155,-3.1981 l 0,-83.65949 c 0,-1.76643 -1.526981,-3.19799 -3.411155,-3.19799 z"
       style="fill:#000000;fill-opacity:0.09589041;fill-rule:nonzero;stroke:none" />
    <path
       inkscape:connector-curvature="0"
       id="rect3785"
       d="m 1.0459761,1041.8066 0,7.4219 c 0,1.7392 1.461916,3.1337 3.2852054,3.1337 l 86.3836135,0 c 1.823288,0 3.285205,-1.3945 3.285205,-3.1337 l 0,-7.4219 -92.9540239,0 z"
       style="fill:#000000;fill-opacity:0.18721463;fill-rule:nonzero;stroke:none" />
    <path
       inkscape:connector-curvature="0"
       id="rect3783"
       d="m 1.0459761,1041.8066 0,5.3807 c 0,1.762 1.461916,3.1749 3.2852054,3.1749 l 86.3836135,0 c 1.823288,0 3.285205,-1.4129 3.285205,-3.1749 l 0,-5.3807 -92.9540239,0 z"
       style="fill:#000000;fill-opacity:0.38356168;fill-rule:nonzero;stroke:none" />
    <rect
       transform="scale(1,-1)"
       ry="3.1511393"
       y="-1046.3622"
       x="1.0459771"
       height="89"
       width="92.954025"
       id="rect2985"
       style="fill:#ffde00;fill-opacity:1;fill-rule:nonzero;stroke:none" />
    <path
       sodipodi:nodetypes="csssscc"
       inkscape:connector-curvature="0"
       id="rect3781"
       d="m 1,1042.3622 0.045976,2.7457 c 0.03024,1.8058 1.461916,3.2543 3.2852054,3.2543 l 86.3836136,0 c 1.823288,0 3.285205,-1.4481 3.285205,-3.2543 l -0.04598,-2.7457 z"
       style="fill:#000000;fill-opacity:0.38356168;fill-rule:nonzero;stroke:none" />
    <rect
       y="1040.3622"
       x="1.045976"
       height="2.000005"
       width="92.954033"
       id="rect3770"
       style="fill:#ffffff;fill-opacity:0.30000001;fill-rule:nonzero;stroke:none" />
    <path
       style="fill:#000000;fill-opacity:1;fill-rule:nonzero;stroke:none"
       d="M 6.3125 6.28125 L 6.3125 80 L 88.71875 80 L 88.71875 6.28125 L 6.3125 6.28125 z M 10.09375 9.84375 L 84.9375 9.84375 L 84.9375 76.4375 L 10.09375 76.4375 L 10.09375 9.84375 z "
       transform="translate(0,956.36218)"
       id="path3782" />
    <path
       style="font-size:medium;font-style:normal;font-variant:normal;font-weight:normal;font-stretch:normal;text-indent:0;text-align:start;text-decoration:none;line-height:normal;letter-spacing:normal;word-spacing:normal;text-transform:none;direction:ltr;block-progression:tb;writing-mode:lr-tb;text-anchor:start;baseline-shift:baseline;color:#000000;fill:#000000;fill-opacity:1;stroke:none;stroke-width:8;marker:none;visibility:visible;display:inline;overflow:visible;enable-background:accumulate;font-family:Sans;-inkscape-font-specification:Sans"
       d="m 47.404748,971.11083 a 3.4925917,3.4925917 0 0 0 -2.810164,1.74612 l -27.555976,47.41815 a 3.4925917,3.4925917 0 0 0 3.001146,5.2384 l 55.111953,0 a 3.4925917,3.4925917 0 0 0 3.028428,-5.2384 L 50.624159,972.85695 a 3.4925917,3.4925917 0 0 0 -3.219411,-1.74612 z m 0.218266,10.44945 21.471834,36.96872 -42.970953,0 21.499119,-36.96872 z"
       id="path3004"
       inkscape:connector-curvature="0" />
    <path
       style="font-size:11px;font-style:normal;font-variant:normal;font-weight:normal;font-stretch:normal;text-align:end;line-height:125%;letter-spacing:0px;word-spacing:0px;text-anchor:end;fill:#000000;fill-opacity:1;stroke:none;font-family:Andale Mono;-inkscape-font-specification:Andale Mono"
       d="m 47.591843,991.10009 c -0.878051,0 -1.673276,0.26144 -2.298878,0.87225 -0.625611,0.59966 -0.862083,1.374 -0.86208,2.22902 -3e-6,0.42205 0.01594,0.99743 0.191574,1.84137 0.175603,0.83302 0.36618,1.73956 0.574719,2.61702 0.23047,0.95484 0.565736,2.07835 0.862078,3.48895 0.296341,1.4101 0.532807,3.2091 0.86208,5.3301 l 1.341012,0 c 0.329257,-2.0985 0.565733,-3.9088 0.862079,-5.3301 0.29634,-1.4328 0.631584,-2.63085 0.862079,-3.586 0.241443,-1.0105 0.421052,-1.8726 0.57472,-2.61671 0.164629,-0.7552 0.191573,-1.28921 0.191573,-1.74463 -9e-6,-0.85502 -0.321295,-1.62936 -0.957866,-2.22902 -0.636589,-0.61077 -1.336031,-0.87225 -2.20309,-0.87225 z m 0,18.31721 c -0.856101,0 -1.566515,0.3472 -2.203092,0.9691 -0.62561,0.6106 -0.957869,1.2883 -0.957866,2.1322 -3e-6,0.8439 0.332256,1.6183 0.957866,2.2291 0.636577,0.5996 1.346991,0.8721 2.203092,0.8721 0.845109,0 1.577477,-0.2729 2.20309,-0.8721 0.636571,-0.6108 0.957857,-1.3852 0.957866,-2.2291 -9e-6,-0.8439 -0.321295,-1.5216 -0.957866,-2.1322 -0.625613,-0.6219 -1.357981,-0.9691 -2.20309,-0.9691 z"
       id="text3790"
       inkscape:connector-curvature="0" />
  </g>
</svg>
