<?xml version="1.0" encoding="UTF-8" standalone="no"?>
<!-- Created with Inkscape (http://www.inkscape.org/) -->

<svg
   xmlns:dc="http://purl.org/dc/elements/1.1/"
   xmlns:cc="http://creativecommons.org/ns#"
   xmlns:rdf="http://www.w3.org/1999/02/22-rdf-syntax-ns#"
   xmlns:svg="http://www.w3.org/2000/svg"
   xmlns="http://www.w3.org/2000/svg"
   xmlns:xlink="http://www.w3.org/1999/xlink"
   xmlns:sodipodi="http://sodipodi.sourceforge.net/DTD/sodipodi-0.dtd"
   xmlns:inkscape="http://www.inkscape.org/namespaces/inkscape"
   width="96"
   height="96"
   id="svg2"
   version="1.1"
   inkscape:version="0.48.4 r9939"
   sodipodi:docname="accessories-dictionary.svg">
  <defs
     id="defs4">
    <linearGradient
       id="linearGradient3883">
      <stop
         style="stop-color:#916700;stop-opacity:1;"
         offset="0"
         id="stop3885" />
      <stop
         style="stop-color:#ffb600;stop-opacity:1;"
         offset="1"
         id="stop3887" />
    </linearGradient>
    <linearGradient
       inkscape:collect="always"
       id="linearGradient3866">
      <stop
         style="stop-color:#000000;stop-opacity:1;"
         offset="0"
         id="stop3868" />
      <stop
         style="stop-color:#000000;stop-opacity:0;"
         offset="1"
         id="stop3870" />
    </linearGradient>
    <linearGradient
       id="linearGradient3856">
      <stop
         style="stop-color:#780000;stop-opacity:1;"
         offset="0"
         id="stop3858" />
      <stop
         style="stop-color:#a40000;stop-opacity:0;"
         offset="1"
         id="stop3860" />
    </linearGradient>
    <linearGradient
       inkscape:collect="always"
       id="linearGradient3824">
      <stop
         style="stop-color:#6a0000;stop-opacity:1;"
         offset="0"
         id="stop3826" />
      <stop
         style="stop-color:#6a0000;stop-opacity:0;"
         offset="1"
         id="stop3828" />
    </linearGradient>
    <linearGradient
       inkscape:collect="always"
       id="linearGradient3810">
      <stop
         style="stop-color:#000000;stop-opacity:1;"
         offset="0"
         id="stop3812" />
      <stop
         style="stop-color:#000000;stop-opacity:0;"
         offset="1"
         id="stop3814" />
    </linearGradient>
    <linearGradient
       inkscape:collect="always"
       xlink:href="#linearGradient3810"
       id="linearGradient3816"
       x1="-1"
       y1="36"
       x2="9"
       y2="36"
       gradientUnits="userSpaceOnUse" />
    <linearGradient
       inkscape:collect="always"
       xlink:href="#linearGradient3824"
       id="linearGradient3830"
       x1="15"
       y1="989.36218"
       x2="20"
       y2="989.36218"
       gradientUnits="userSpaceOnUse" />
    <linearGradient
       inkscape:collect="always"
       xlink:href="#linearGradient3856"
       id="linearGradient3862"
       x1="94"
       y1="44"
       x2="90"
       y2="44"
       gradientUnits="userSpaceOnUse" />
    <linearGradient
       inkscape:collect="always"
       xlink:href="#linearGradient3866"
       id="linearGradient3872"
       x1="91"
       y1="1040.3622"
       x2="91"
       y2="1022.3622"
       gradientUnits="userSpaceOnUse" />
    <linearGradient
       inkscape:collect="always"
       xlink:href="#linearGradient3883"
       id="linearGradient3889"
       x1="17"
       y1="1034.3622"
       x2="17"
       y2="1039.3622"
       gradientUnits="userSpaceOnUse" />
  </defs>
  <sodipodi:namedview
     id="base"
     pagecolor="#ffffff"
     bordercolor="#666666"
     borderopacity="1.0"
     inkscape:pageopacity="0.0"
     inkscape:pageshadow="2"
     inkscape:zoom="4.1763494"
     inkscape:cx="5.8579321"
     inkscape:cy="48"
     inkscape:document-units="px"
     inkscape:current-layer="layer1"
     showgrid="true"
     inkscape:snap-page="true"
     inkscape:snap-global="true"
     inkscape:snap-center="true"
     inkscape:snap-object-midpoints="false"
     showguides="true"
     inkscape:guide-bbox="true"
     inkscape:snap-bbox="true"
     inkscape:object-paths="true"
     inkscape:object-nodes="true"
     inkscape:window-width="1305"
     inkscape:window-height="744"
     inkscape:window-x="61"
     inkscape:window-y="24"
     inkscape:window-maximized="1"
     inkscape:snap-midpoints="false"
     inkscape:snap-grids="true"
     inkscape:snap-to-guides="false">
    <inkscape:grid
       type="xygrid"
       id="grid3002"
       empspacing="5"
       visible="true"
       enabled="true"
       snapvisiblegridlinesonly="true" />
  </sodipodi:namedview>
  <metadata
     id="metadata7">
    <rdf:RDF>
      <cc:Work
         rdf:about="">
        <dc:format>image/svg+xml</dc:format>
        <dc:type
           rdf:resource="http://purl.org/dc/dcmitype/StillImage" />
        <dc:title />
      </cc:Work>
    </rdf:RDF>
  </metadata>
  <g
     inkscape:label="Layer 1"
     inkscape:groupmode="layer"
     id="layer1"
     transform="translate(0,-956.36218)">
    <rect
       style="fill:#ffffff;fill-opacity:0;fill-rule:nonzero;stroke:none"
       id="rect3775"
       width="96"
       height="96"
       x="0"
       y="956.36218"
       ry="0" />
    <path
       style="fill:#000000;fill-opacity:0.09589041;fill-rule:nonzero;stroke:none"
       d="m 3.353015,956.30662 c -1.884176,0 -3.4111555,1.43156 -3.4111555,3.19799 l 0,83.65949 c 0,1.7665 1.5269795,3.1981 3.4111555,3.1981 l 89.23583,0 c 1.884174,0 3.411155,-1.4316 3.411155,-3.1981 l 0,-83.65949 c 0,-1.76643 -1.526981,-3.19799 -3.411155,-3.19799 z"
       id="rect3772"
       inkscape:connector-curvature="0"
       sodipodi:nodetypes="sssssssss" />
    <path
       style="fill:#000000;fill-opacity:0.18721463;fill-rule:nonzero;stroke:none"
       d="m 1.0459761,1041.8066 0,7.4219 c 0,1.7392 1.461916,3.1337 3.2852054,3.1337 l 86.3836135,0 c 1.823288,0 3.285205,-1.3945 3.285205,-3.1337 l 0,-7.4219 -92.9540239,0 z"
       id="rect3785"
       inkscape:connector-curvature="0" />
    <path
       style="fill:#000000;fill-opacity:0.38356168;fill-rule:nonzero;stroke:none"
       d="m 1.0459761,1041.8066 0,5.3807 c 0,1.762 1.461916,3.1749 3.2852054,3.1749 l 86.3836135,0 c 1.823288,0 3.285205,-1.4129 3.285205,-3.1749 l 0,-5.3807 -92.9540239,0 z"
       id="rect3783"
       inkscape:connector-curvature="0" />
    <path
       style="fill:#000000;fill-opacity:0.38356168;fill-rule:nonzero;stroke:none"
       d="m 1,1042.3622 0.045976,2.7457 c 0.03024,1.8058 1.461916,3.2543 3.2852054,3.2543 l 86.3836136,0 c 1.823288,0 3.285205,-1.4481 3.285205,-3.2543 l -0.04598,-2.7457 z"
       id="rect3781"
       inkscape:connector-curvature="0"
       sodipodi:nodetypes="csssscc" />
    <rect
       style="fill:#bc1e1e;fill-opacity:1;fill-rule:nonzero;stroke:none"
       id="rect2985-2"
       width="93"
       height="88.999947"
       x="0.99999738"
       y="957.36218"
       ry="3.1511376" />
    <path
       style="fill:#000000;fill-opacity:0.59360731;fill-rule:evenodd;stroke:none"
       d="M 15,1 4.15625,1 C 3.2833849,1 2.4758181,1.3366819 1.90625,1.90625 1.3366819,2.4758181 1,3.2833849 1,4.15625 l 0,64.90625 14,0 z"
       id="path3801"
       transform="translate(0,956.36218)"
       inkscape:connector-curvature="0"
       sodipodi:nodetypes="csssccc" />
    <path
       style="fill:url(#linearGradient3816);fill-opacity:1;fill-rule:evenodd;stroke:none"
       d="M 4.15625,1 C 3.2833849,1 2.4758181,1.3366819 1.90625,1.90625 1.3366819,2.4758181 1,3.2833849 1,4.15625 L 1,71 9,71 9,1 z"
       id="path3808"
       transform="translate(0,956.36218)"
       inkscape:connector-curvature="0"
       sodipodi:nodetypes="ssscccs" />
    <rect
       style="fill:url(#linearGradient3830);fill-opacity:1;fill-rule:evenodd;stroke:none"
       id="rect3822"
       width="5"
       height="64"
       x="15"
       y="957.36218" />
    <path
       style="fill:url(#linearGradient3862);fill-opacity:1;fill-rule:evenodd;stroke:none"
       d="M 90 90 L 90.84375 90 C 91.716615 90 92.524182 89.663318 93.09375 89.09375 C 93.663318 88.524182 94 87.716615 94 86.84375 L 94 4.15625 C 94 3.2833849 93.663318 2.4758181 93.09375 1.90625 C 92.524182 1.3366819 91.716615 1 90.84375 1 L 90 1 L 90 90 z "
       id="rect3845"
       transform="translate(0,956.36218)" />
    <path
       style="fill:#6a0000;fill-opacity:1;fill-rule:nonzero;stroke:none"
       d="m 1,1024.5184 0,18.6875 c 0,0.8729 0.3366819,1.6805 0.90625,2.25 0.5695681,0.5696 1.3771349,0.9063 2.25,0.9063 l 86.6875,0 c 0.872865,0 1.680432,-0.3367 2.25,-0.9063 0.569568,-0.5695 0.90625,-1.3771 0.90625,-2.25 l 0,-18.6875 c 0,-1.7457 -1.41052,-3.1562 -3.15625,-3.1562 l -86.6875,0 C 2.4105198,1021.3622 1,1022.7727 1,1024.5184 z"
       id="rect3779"
       inkscape:connector-curvature="0" />
    <path
       style="fill:#ffffff;fill-opacity:1;fill-rule:nonzero;stroke:none"
       d="m 5.0625,1025.4247 0,16.875 84.9375,0 0,-16.875 z"
       id="path3789"
       inkscape:connector-curvature="0"
       sodipodi:nodetypes="ccccc" />
    <path
       sodipodi:nodetypes="ccccc"
       inkscape:connector-curvature="0"
       id="path3818"
       d="m 5.0625,1039.1124 0,3.2498 88.937497,0 0,-3.2498 z"
       style="fill:#000000;fill-opacity:1;fill-rule:nonzero;stroke:none" />
    <path
       sodipodi:nodetypes="ccccc"
       inkscape:connector-curvature="0"
       id="path3832"
       d="m 5,1027.4247 0,0.9375 85,0 0,-0.9375 z"
       style="fill:#010101;fill-opacity:0.66210046;fill-rule:nonzero;stroke:none" />
    <path
       style="fill:#010101;fill-opacity:0.66210046;fill-rule:nonzero;stroke:none"
       d="m 5,1030.4247 0,0.9375 85,0 0,-0.9375 z"
       id="path3834"
       inkscape:connector-curvature="0"
       sodipodi:nodetypes="ccccc" />
    <path
       sodipodi:nodetypes="ccccc"
       inkscape:connector-curvature="0"
       id="path3836"
       d="m 5,1033.4247 0,0.9375 85,0 0,-0.9375 z"
       style="fill:#010101;fill-opacity:0.66210046;fill-rule:nonzero;stroke:none" />
    <path
       style="fill:#010101;fill-opacity:0.66210046;fill-rule:nonzero;stroke:none"
       d="m 5,1036.4247 0,0.9375 85,0 0,-0.9375 z"
       id="path3838"
       inkscape:connector-curvature="0"
       sodipodi:nodetypes="ccccc" />
    <path
       sodipodi:nodetypes="ccccccc"
       inkscape:connector-curvature="0"
       id="path3881"
       d="m 10,1034.3622 0,16 7.11111,-5.3333 1.77778,0 7.11111,5.3333 0,-16 z"
       style="fill:#000000;fill-opacity:0.50228307;fill-rule:evenodd;stroke:none" />
    <path
       style="fill:url(#linearGradient3889);fill-opacity:1;fill-rule:evenodd;stroke:none"
       d="m 10,1034.3622 0,15 6.666666,-5 1.666668,0 6.666666,5 0,-15 z"
       id="rect3840"
       inkscape:connector-curvature="0"
       sodipodi:nodetypes="ccccccc" />
    <rect
       style="fill:#000000;fill-opacity:0.72602737;fill-rule:evenodd;stroke:none"
       id="rect3843"
       width="3"
       height="16.999998"
       x="5"
       y="1025.3622" />
    <rect
       style="fill:url(#linearGradient3872);fill-opacity:1;fill-rule:evenodd;stroke:none"
       id="rect3864"
       width="4"
       height="15"
       x="90"
       y="1025.3622" />
    <path
       style="font-size:11px;font-style:normal;font-variant:normal;font-weight:normal;font-stretch:normal;text-align:end;line-height:125%;letter-spacing:0px;word-spacing:0px;text-anchor:end;fill:#ffffff;fill-opacity:0.39215686;stroke:none;font-family:Andale Mono;-inkscape-font-specification:Andale Mono"
       d="m 45,967.61959 c -5.448221,5e-5 -10.187421,1.88243 -14.125874,5.79874 C 26.968483,977.30153 25,982.05212 25,987.56156 l 0,19.80064 20,0 c 5.481,0 10.220203,-1.8074 14.125874,-5.6574 3.938425,-3.88316 5.874086,-8.63376 5.874126,-14.14324 -4e-5,-5.50944 -1.935701,-10.26003 -5.874126,-14.14323 C 55.187381,969.50202 50.448181,967.61964 45,967.61959 z m 0,7.92022 c 3.249208,3e-5 6.01993,1.1462 8.251749,3.5358 2.264582,2.35646 3.356611,5.20024 3.356643,8.48595 -3.2e-5,3.28575 -1.092061,6.12953 -3.356643,8.48595 C 51.01993,998.3708 48.249208,999.44188 45,999.44188 l -11.608392,0 0,-11.88032 c -8e-6,-3.28571 1.124838,-6.12949 3.356643,-8.48595 2.264602,-2.3896 5.002499,-3.53577 8.251749,-3.5358 z"
       id="text3025"
       inkscape:connector-curvature="0" />
  </g>
</svg>
