<?xml version="1.0" encoding="UTF-8" standalone="no"?>
<!-- Created with Inkscape (http://www.inkscape.org/) -->

<svg
   xmlns:dc="http://purl.org/dc/elements/1.1/"
   xmlns:cc="http://creativecommons.org/ns#"
   xmlns:rdf="http://www.w3.org/1999/02/22-rdf-syntax-ns#"
   xmlns:svg="http://www.w3.org/2000/svg"
   xmlns="http://www.w3.org/2000/svg"
   xmlns:xlink="http://www.w3.org/1999/xlink"
   xmlns:sodipodi="http://sodipodi.sourceforge.net/DTD/sodipodi-0.dtd"
   xmlns:inkscape="http://www.inkscape.org/namespaces/inkscape"
   width="96"
   height="96"
   id="svg2"
   version="1.1"
   inkscape:version="0.48.4 r9939"
   sodipodi:docname="accessories-character-map.svg">
  <defs
     id="defs4">
    <linearGradient
       id="linearGradient3769">
      <stop
         style="stop-color:#2b0c56;stop-opacity:1;"
         offset="0"
         id="stop3771" />
      <stop
         style="stop-color:#5c036a;stop-opacity:1;"
         offset="1"
         id="stop3773" />
    </linearGradient>
    <linearGradient
       inkscape:collect="always"
       xlink:href="#linearGradient3769"
       id="linearGradient3775"
       x1="1.045977"
       y1="1001.8622"
       x2="94.000002"
       y2="1001.8622"
       gradientUnits="userSpaceOnUse" />
  </defs>
  <sodipodi:namedview
     id="base"
     pagecolor="#ffffff"
     bordercolor="#666666"
     borderopacity="1.0"
     inkscape:pageopacity="0.0"
     inkscape:pageshadow="2"
     inkscape:zoom="4.9636205"
     inkscape:cx="4.9770108"
     inkscape:cy="49.344742"
     inkscape:document-units="px"
     inkscape:current-layer="layer1"
     showgrid="true"
     inkscape:snap-page="true"
     inkscape:snap-global="true"
     inkscape:snap-center="true"
     inkscape:snap-object-midpoints="false"
     showguides="true"
     inkscape:guide-bbox="true"
     inkscape:snap-bbox="true"
     inkscape:object-paths="true"
     inkscape:object-nodes="true"
     inkscape:window-width="1305"
     inkscape:window-height="744"
     inkscape:window-x="61"
     inkscape:window-y="24"
     inkscape:window-maximized="1"
     inkscape:snap-midpoints="true"
     inkscape:snap-grids="true"
     inkscape:snap-to-guides="false">
    <inkscape:grid
       type="xygrid"
       id="grid3002"
       empspacing="5"
       visible="true"
       enabled="true"
       snapvisiblegridlinesonly="true" />
  </sodipodi:namedview>
  <metadata
     id="metadata7">
    <rdf:RDF>
      <cc:Work
         rdf:about="">
        <dc:format>image/svg+xml</dc:format>
        <dc:type
           rdf:resource="http://purl.org/dc/dcmitype/StillImage" />
        <dc:title />
      </cc:Work>
    </rdf:RDF>
  </metadata>
  <g
     inkscape:label="Layer 1"
     inkscape:groupmode="layer"
     id="layer1"
     transform="translate(0,-956.36218)">
    <rect
       style="fill:#ffffff;fill-opacity:0;fill-rule:nonzero;stroke:none"
       id="rect3775"
       width="96"
       height="96"
       x="0"
       y="956.36218"
       ry="0" />
    <path
       style="fill:#000000;fill-opacity:0.09589041;fill-rule:nonzero;stroke:none"
       d="m 3.353015,956.30662 c -1.884176,0 -3.4111555,1.43156 -3.4111555,3.19799 l 0,83.65949 c 0,1.7665 1.5269795,3.1981 3.4111555,3.1981 l 89.23583,0 c 1.884174,0 3.411155,-1.4316 3.411155,-3.1981 l 0,-83.65949 c 0,-1.76643 -1.526981,-3.19799 -3.411155,-3.19799 z"
       id="rect3772"
       inkscape:connector-curvature="0"
       sodipodi:nodetypes="sssssssss" />
    <path
       style="fill:#000000;fill-opacity:0.18721463;fill-rule:nonzero;stroke:none"
       d="m 1.0459761,1041.8066 0,7.4219 c 0,1.7392 1.461916,3.1337 3.2852054,3.1337 l 86.3836135,0 c 1.823288,0 3.285205,-1.3945 3.285205,-3.1337 l 0,-7.4219 -92.9540239,0 z"
       id="rect3785"
       inkscape:connector-curvature="0" />
    <path
       style="fill:#000000;fill-opacity:0.38356168;fill-rule:nonzero;stroke:none"
       d="m 1.0459761,1041.8066 0,5.3807 c 0,1.762 1.461916,3.1749 3.2852054,3.1749 l 86.3836135,0 c 1.823288,0 3.285205,-1.4129 3.285205,-3.1749 l 0,-5.3807 -92.9540239,0 z"
       id="rect3783"
       inkscape:connector-curvature="0" />
    <rect
       style="fill:url(#linearGradient3775);fill-opacity:1;fill-rule:nonzero;stroke:none"
       id="rect2985"
       width="92.954025"
       height="89"
       x="1.045977"
       y="957.36218"
       ry="3.1511393" />
    <g
       transform="matrix(1.1071429,0,0,1.059011,-5.6428615,-61.746928)"
       id="g3775"
       style="fill:#fff9f9;fill-opacity:0.18264841">
      <path
         inkscape:connector-curvature="0"
         transform="translate(0,956.36218)"
         id="path3773"
         d="m 6,73.59375 9.90625,-12.21875 -3.5625,-5.09375 2.34375,-16 4.0625,-2.09375 2.1875,-3.8125 -5.1875,-3 0.40625,-5.75 L 13,24.1875 6.09375,12.21875 6,11.625 6,73.59375 z"
         style="fill:#fff9f9;fill-opacity:0.18264841;stroke:none" />
      <path
         inkscape:connector-curvature="0"
         transform="translate(0,956.36218)"
         id="path3765"
         d="m 90,48.59375 0,-39.625 C 90,8.1449218 89.66257,7.4125702 89.125,6.875 88.58743,6.3374298 87.855078,6 87.03125,6 l -39.625,0 -1.4375,2.4375 -2,-1.5625 -3.3125,0.84375 -1.21875,3.25 -7.65625,1.40625 -1.375,5.75 -2.5,-1.40625 -0.25,-4.6875 -8.125,-4.78125 -6,3.875 1.25,4.75 1.375,0.84375 4.0625,-0.1875 1.21875,2.28125 -3.09375,3.625 2.75,2.09375 -1.84375,5.09375 5.09375,2.96875 6.40625,0.84375 2.75,3.53125 6.71875,4.25 -2.09375,4.8125 5.40625,3.25 -2.34375,5.6875 3.9375,2.25 5.78125,12.40625 -4.75,1.84375 L 41.625,77.6875 6.65625,88.625 c 0.103703,0.151342 0.08948,0.37073 0.21875,0.5 C 7.4125702,89.66257 8.1449218,90 8.96875,90 l 78.0625,0 c 0.823828,0 1.55618,-0.33743 2.09375,-0.875 0.232339,-0.232339 0.229751,-0.607111 0.375,-0.90625 L 88.625,83.6875 90,83.59375 90,80.125 l -1.5625,-3.09375 -9.875,-6.3125 -2.90625,-8.75 6.21875,-11.75 8.125,-1.625 z m -56.1875,-31.375 0.65625,5.90625 -2,-3.34375 1.34375,-2.5625 z m -7.125,1.15625 4.78125,4.90625 -2.125,1.9375 -4.875,-4.59375 2.21875,-2.25 z m 6.65625,7.5 7.6875,10.5 -2.125,-0.25 -7.28125,-8.75 1.71875,-1.5 z"
         style="fill:#fff9f9;fill-opacity:0.18264841;stroke:none" />
    </g>
    <path
       style="fill:#000000;fill-opacity:0.38356168;fill-rule:nonzero;stroke:none"
       d="m 1,1042.3622 0.045976,2.7457 c 0.03024,1.8058 1.461916,3.2543 3.2852054,3.2543 l 86.3836136,0 c 1.823288,0 3.285205,-1.4481 3.285205,-3.2543 l -0.04598,-2.7457 z"
       id="rect3781"
       inkscape:connector-curvature="0"
       sodipodi:nodetypes="csssscc" />
    <rect
       style="fill:#ffffff;fill-opacity:0.30000001;fill-rule:nonzero;stroke:none"
       id="rect3770"
       width="92.954033"
       height="2.000005"
       x="1.045976"
       y="1040.3622" />
    <path
       style="font-size:48.81923293999999913px;font-style:normal;font-variant:normal;font-weight:normal;font-stretch:normal;text-align:end;line-height:125%;letter-spacing:0px;word-spacing:0px;text-anchor:end;fill:#51b5e0;fill-opacity:1;stroke:none;font-family:Andale Mono;-inkscape-font-specification:Andale Mono"
       d="M 42.84375 6.78125 L 42.84375 43.84375 L 46 43.84375 L 46.90625 40.53125 L 47.1875 40.53125 C 47.553 41.039786 47.945382 41.539144 48.40625 42 C 48.88299 42.46086 49.427356 42.869134 50.03125 43.21875 C 50.651013 43.552476 51.362187 43.824658 52.125 44.03125 C 52.887786 44.237841 53.718626 44.34375 54.65625 44.34375 C 56.15005 44.34375 57.526322 44.04085 58.75 43.46875 C 59.973638 42.880759 61.016827 42.019203 61.875 40.875 C 62.749018 39.730803 63.429475 38.309523 63.90625 36.625 C 64.382975 34.924599 64.593724 32.959487 64.59375 30.71875 C 64.593724 28.493931 64.382975 26.559535 63.90625 24.875 C 63.429475 23.190503 62.749018 21.784581 61.875 20.65625 C 61.016827 19.512074 59.973638 18.634626 58.75 18.0625 C 57.526322 17.490426 56.15005 17.218777 54.65625 17.21875 C 53.702734 17.218777 52.856536 17.324685 52.09375 17.53125 C 51.330937 17.721976 50.651013 17.994159 50.03125 18.34375 C 49.427356 18.693392 48.867098 19.085774 48.40625 19.5625 C 47.945382 20.039274 47.553 20.568815 47.1875 21.125 L 47 21.125 C 47.031775 20.52114 47.061958 19.885691 47.09375 19.25 C 47.125525 18.709708 47.14035 18.151051 47.15625 17.53125 C 47.172133 16.89561 47.187492 16.274986 47.1875 15.71875 L 47.1875 6.78125 L 42.84375 6.78125 z M 25.34375 17.21875 C 23.754571 17.218777 22.227383 17.430059 20.78125 17.875 C 19.335101 18.319993 18.019729 18.864358 16.84375 19.5 L 18.375 22.75 C 19.423844 22.209705 20.527933 21.756422 21.65625 21.375 C 22.800441 20.993623 24.02473 20.812523 25.34375 20.8125 C 26.170104 20.812523 26.895569 20.903073 27.53125 21.09375 C 28.182793 21.284473 28.727159 21.617555 29.15625 22.0625 C 29.6012 22.491597 29.933749 23.034895 30.15625 23.75 C 30.394608 24.465145 30.531232 25.372776 30.53125 26.4375 L 30.53125 28.09375 L 26.125 28.25 C 22.374555 28.377149 19.593428 29.132797 17.75 30.53125 C 15.922454 31.92973 14.999998 33.925025 15 36.53125 C 14.999998 37.866157 15.181097 39.045971 15.5625 40.03125 C 15.943897 41.000645 16.488796 41.785943 17.15625 42.4375 C 17.839587 43.073168 18.640777 43.541808 19.5625 43.84375 C 20.48421 44.161583 21.497216 44.34375 22.59375 44.34375 C 23.594915 44.34375 24.455938 44.252666 25.21875 44.09375 C 25.981537 43.934833 26.692711 43.677475 27.3125 43.34375 C 27.93226 43.010026 28.506809 42.602285 29.03125 42.09375 C 29.555659 41.569327 30.069307 40.965128 30.59375 40.25 L 30.78125 40.25 L 31.65625 43.84375 L 34.78125 43.84375 L 34.78125 25.9375 C 34.781228 24.380135 34.600128 23.034047 34.21875 21.9375 C 33.837329 20.840997 33.247422 19.949258 32.46875 19.25 C 31.705931 18.5349 30.723108 18.036609 29.53125 17.71875 C 28.35525 17.385051 26.964687 17.218777 25.34375 17.21875 z M 81.65625 17.21875 C 80.035286 17.218777 78.508098 17.444884 77.09375 17.9375 C 75.679382 18.430167 74.439735 19.247249 73.375 20.34375 C 72.326144 21.424407 71.51013 22.814437 70.90625 24.5625 C 70.302363 26.29471 69.999997 28.411272 70 30.90625 C 69.999997 33.290012 70.287005 35.330849 70.875 37.03125 C 71.462988 38.715773 72.279536 40.122228 73.3125 41.21875 C 74.345452 42.299386 75.570274 43.085217 76.96875 43.59375 C 78.367207 44.086392 79.863678 44.34375 81.46875 44.34375 C 82.883094 44.34375 84.061841 44.207125 85.03125 43.96875 C 86.016515 43.730375 86.95433 43.398359 87.8125 42.9375 L 87.8125 39.0625 C 86.95433 39.459796 85.986332 39.823062 84.9375 40.125 C 83.904524 40.411054 82.75596 40.531253 81.46875 40.53125 C 79.11677 40.531253 77.347582 39.760247 76.1875 38.21875 C 75.043291 36.661373 74.468743 34.228154 74.46875 30.875 C 74.468743 27.505981 75.043291 25.026687 76.1875 23.4375 C 77.331691 21.832463 79.161245 21.031273 81.65625 21.03125 C 82.069419 21.031273 82.507876 21.076814 82.96875 21.15625 C 83.429593 21.219839 83.898233 21.310389 84.375 21.4375 C 84.851733 21.548764 85.305015 21.684855 85.75 21.84375 C 86.194948 21.986797 86.603222 22.122355 86.96875 22.28125 L 88.25 18.625 C 87.455396 18.227734 86.473107 17.895184 85.28125 17.625 C 84.105249 17.354868 82.895785 17.218777 81.65625 17.21875 z M 53.84375 20.8125 C 56.020892 20.812523 57.592555 21.613179 58.59375 23.25 C 59.610796 24.886862 60.124979 27.382048 60.125 30.6875 C 60.124979 33.929412 59.610796 36.392815 58.59375 38.125 C 57.592555 39.857197 56.020359 40.750003 53.875 40.75 C 52.58776 40.750003 51.514388 40.522829 50.65625 40.09375 C 49.798088 39.648787 49.118165 38.998514 48.59375 38.15625 C 48.085207 37.298106 47.722474 36.239558 47.5 35 C 47.2934 33.744568 47.187492 32.323821 47.1875 30.71875 C 47.187492 29.050139 47.2934 27.614567 47.5 26.375 C 47.722474 25.135468 48.085207 24.076387 48.59375 23.25 C 49.118165 22.423654 49.78273 21.834814 50.625 21.4375 C 51.483138 21.024339 52.572402 20.812523 53.84375 20.8125 z M 30.46875 31.0625 L 30.46875 33.40625 C 30.468732 34.661702 30.287099 35.781149 29.9375 36.71875 C 29.603758 37.640474 29.135117 38.41148 28.53125 39.03125 C 27.927351 39.635138 27.232603 40.073062 26.40625 40.375 C 25.57987 40.676945 24.65688 40.843753 23.6875 40.84375 C 22.432048 40.843753 21.434934 40.495845 20.65625 39.8125 C 19.893442 39.129163 19.499993 38.05579 19.5 36.59375 C 19.499993 35.783283 19.620726 35.041926 19.875 34.40625 C 20.129259 33.754701 20.552892 33.226228 21.125 32.78125 C 21.712983 32.320403 22.499348 31.941779 23.46875 31.6875 C 24.438131 31.433246 25.632236 31.282329 27.0625 31.21875 L 30.46875 31.0625 z "
       transform="translate(0,956.36218)"
       id="text3000" />
  </g>
</svg>
