<?xml version="1.0" encoding="UTF-8" standalone="no"?>
<!-- Created with Inkscape (http://www.inkscape.org/) -->

<svg
   xmlns:dc="http://purl.org/dc/elements/1.1/"
   xmlns:cc="http://creativecommons.org/ns#"
   xmlns:rdf="http://www.w3.org/1999/02/22-rdf-syntax-ns#"
   xmlns:svg="http://www.w3.org/2000/svg"
   xmlns="http://www.w3.org/2000/svg"
   xmlns:xlink="http://www.w3.org/1999/xlink"
   xmlns:sodipodi="http://sodipodi.sourceforge.net/DTD/sodipodi-0.dtd"
   xmlns:inkscape="http://www.inkscape.org/namespaces/inkscape"
   width="96"
   height="96"
   id="svg2"
   version="1.1"
   inkscape:version="0.48.4 r9939"
   sodipodi:docname="agave.svg">
  <defs
     id="defs4">
    <linearGradient
       id="linearGradient3772">
      <stop
         style="stop-color:#333333;stop-opacity:1;"
         offset="0"
         id="stop3774" />
      <stop
         style="stop-color:#676767;stop-opacity:1;"
         offset="1"
         id="stop3776" />
    </linearGradient>
    <linearGradient
       inkscape:collect="always"
       xlink:href="#linearGradient3772"
       id="linearGradient3778"
       x1="40"
       y1="1047.3622"
       x2="40"
       y2="957.36218"
       gradientUnits="userSpaceOnUse" />
  </defs>
  <sodipodi:namedview
     id="base"
     pagecolor="#ffffff"
     bordercolor="#666666"
     borderopacity="1.0"
     inkscape:pageopacity="0.0"
     inkscape:pageshadow="2"
     inkscape:zoom="4.4770639"
     inkscape:cx="3.8521672"
     inkscape:cy="62.176443"
     inkscape:document-units="px"
     inkscape:current-layer="layer1"
     showgrid="true"
     inkscape:snap-page="true"
     inkscape:snap-global="true"
     inkscape:snap-center="true"
     inkscape:snap-object-midpoints="false"
     showguides="true"
     inkscape:guide-bbox="true"
     inkscape:snap-bbox="true"
     inkscape:object-paths="true"
     inkscape:object-nodes="true"
     inkscape:window-width="1305"
     inkscape:window-height="744"
     inkscape:window-x="61"
     inkscape:window-y="24"
     inkscape:window-maximized="1"
     inkscape:snap-midpoints="true"
     inkscape:snap-grids="true"
     inkscape:snap-to-guides="false">
    <inkscape:grid
       type="xygrid"
       id="grid3002"
       empspacing="5"
       visible="true"
       enabled="true"
       snapvisiblegridlinesonly="true" />
  </sodipodi:namedview>
  <metadata
     id="metadata7">
    <rdf:RDF>
      <cc:Work
         rdf:about="">
        <dc:format>image/svg+xml</dc:format>
        <dc:type
           rdf:resource="http://purl.org/dc/dcmitype/StillImage" />
        <dc:title />
      </cc:Work>
    </rdf:RDF>
  </metadata>
  <g
     inkscape:label="Layer 1"
     inkscape:groupmode="layer"
     id="layer1"
     transform="translate(0,-956.36218)">
    <rect
       style="fill:#ffffff;fill-opacity:0;fill-rule:nonzero;stroke:none"
       id="rect3775"
       width="96"
       height="96"
       x="0"
       y="956.36218"
       ry="0" />
    <path
       style="fill:#000000;fill-opacity:0.09589041;fill-rule:nonzero;stroke:none"
       d="m 3.353015,956.30662 c -1.884176,0 -3.4111555,1.43156 -3.4111555,3.19799 l 0,83.65949 c 0,1.7665 1.5269795,3.1981 3.4111555,3.1981 l 89.23583,0 c 1.884174,0 3.411155,-1.4316 3.411155,-3.1981 l 0,-83.65949 c 0,-1.76643 -1.526981,-3.19799 -3.411155,-3.19799 z"
       id="rect3772"
       inkscape:connector-curvature="0"
       sodipodi:nodetypes="sssssssss" />
    <path
       style="fill:#000000;fill-opacity:0.18721463;fill-rule:nonzero;stroke:none"
       d="m 1.0459761,1041.8066 0,7.4219 c 0,1.7392 1.461916,3.1337 3.2852054,3.1337 l 86.3836135,0 c 1.823288,0 3.285205,-1.3945 3.285205,-3.1337 l 0,-7.4219 -92.9540239,0 z"
       id="rect3785"
       inkscape:connector-curvature="0" />
    <path
       style="fill:#000000;fill-opacity:0.38356168;fill-rule:nonzero;stroke:none"
       d="m 1.0459761,1041.8066 0,5.3807 c 0,1.762 1.461916,3.1749 3.2852054,3.1749 l 86.3836135,0 c 1.823288,0 3.285205,-1.4129 3.285205,-3.1749 l 0,-5.3807 -92.9540239,0 z"
       id="rect3783"
       inkscape:connector-curvature="0" />
    <rect
       style="fill:url(#linearGradient3778);fill-opacity:1;fill-rule:nonzero;stroke:none"
       id="rect2985"
       width="92.954025"
       height="89"
       x="1.045977"
       y="957.36218"
       ry="3.1511393" />
    <path
       style="fill:#000000;fill-opacity:0.38356168;fill-rule:nonzero;stroke:none"
       d="m 1,1042.3622 0.045976,2.7457 c 0.03024,1.8058 1.461916,3.2543 3.2852054,3.2543 l 86.3836136,0 c 1.823288,0 3.285205,-1.4481 3.285205,-3.2543 l -0.04598,-2.7457 z"
       id="rect3781"
       inkscape:connector-curvature="0"
       sodipodi:nodetypes="csssscc" />
    <rect
       style="fill:#ffffff;fill-opacity:0.30000001;fill-rule:nonzero;stroke:none"
       id="rect3770"
       width="92.954033"
       height="2.000005"
       x="1.045976"
       y="1040.3622" />
    <g
       id="g3799"
       transform="translate(97.000001,43.000035)">
      <path
         inkscape:transform-center-y="-1.8322448"
         inkscape:transform-center-x="15.874075"
         style="opacity:0.72839505;fill:#ff3300;fill-opacity:1;fill-rule:nonzero;stroke:none"
         d="m -47.000001,976.34023 c -7.180035,-10.73293 -22.855756,-0.1477 -34.309603,-7.29453 5.438335,6.58753 23.457903,14.93453 34.309603,7.29453 z"
         id="path3768"
         inkscape:connector-curvature="0"
         sodipodi:nodetypes="ccc" />
      <path
         sodipodi:nodetypes="ccc"
         inkscape:connector-curvature="0"
         id="rect3755"
         d="m -46.951287,976.30383 c 0.804643,-12.42273 -9.357728,-14.01103 -26.089896,-22.67593 9.950225,14.765 12.228186,23.76513 26.089896,22.67593 z"
         style="opacity:0.72839505;fill:#ffb200;fill-opacity:1;fill-rule:nonzero;stroke:none" />
      <path
         inkscape:transform-center-y="-13.36173"
         inkscape:transform-center-x="4.3692176"
         style="opacity:0.72839505;fill:#ffff00;fill-opacity:1;fill-rule:nonzero;stroke:none"
         d="m -46.903388,976.29573 c 6.816922,-10.91343 -5.058781,-24.89123 -15.918277,-39.02053 1.745415,17.0813 2.868413,34.7801 15.918277,39.02053 z"
         id="path3758"
         inkscape:connector-curvature="0"
         sodipodi:nodetypes="ccc" />
      <path
         sodipodi:nodetypes="ccc"
         inkscape:connector-curvature="0"
         id="path3760"
         d="m -46.93275,976.44043 c 10.690997,-8.18323 4.047013,-30.55808 -0.589559,-47.10382 -5.079511,16.56135 -9.992266,39.17839 0.589559,47.10382 z"
         style="opacity:0.72839505;fill:#00ff33;fill-opacity:1;fill-rule:nonzero;stroke:none"
         inkscape:transform-center-x="-0.48785038"
         inkscape:transform-center-y="-18.02721" />
      <path
         sodipodi:nodetypes="ccc"
         inkscape:connector-curvature="0"
         id="path3764"
         d="m -46.903388,976.29573 c -6.816923,-10.91343 5.05878,-24.89123 15.918276,-39.02055 -1.745415,17.08132 -2.868414,34.78012 -15.918276,39.02055 z"
         style="opacity:0.72839505;fill:#3399ff;fill-opacity:1;fill-rule:nonzero;stroke:none"
         inkscape:transform-center-x="-4.3692177"
         inkscape:transform-center-y="-13.361726" />
      <path
         style="opacity:0.72839505;fill:#003399;fill-opacity:1;fill-rule:nonzero;stroke:none"
         d="m -46.93275,976.44043 c -0.804644,-12.42273 9.357728,-14.01103 26.089896,-22.67593 -9.950226,14.765 -12.228186,23.76513 -26.089896,22.67593 z"
         id="path3766"
         inkscape:connector-curvature="0"
         sodipodi:nodetypes="ccc" />
      <path
         sodipodi:nodetypes="ccc"
         inkscape:connector-curvature="0"
         id="path3770"
         d="m -47.000001,976.34023 c 7.180034,-10.73293 22.855755,-0.1477 34.309602,-7.29453 -5.438336,6.58753 -23.457903,14.93453 -34.309602,7.29453 z"
         style="opacity:0.72839505;fill:#990099;fill-opacity:1;fill-rule:nonzero;stroke:none"
         inkscape:transform-center-x="-15.874076"
         inkscape:transform-center-y="-1.8322448" />
    </g>
  </g>
</svg>
