<?xml version="1.0" encoding="UTF-8" standalone="no"?>
<!-- Created with Inkscape (http://www.inkscape.org/) -->

<svg
   xmlns:dc="http://purl.org/dc/elements/1.1/"
   xmlns:cc="http://creativecommons.org/ns#"
   xmlns:rdf="http://www.w3.org/1999/02/22-rdf-syntax-ns#"
   xmlns:svg="http://www.w3.org/2000/svg"
   xmlns="http://www.w3.org/2000/svg"
   xmlns:xlink="http://www.w3.org/1999/xlink"
   xmlns:sodipodi="http://sodipodi.sourceforge.net/DTD/sodipodi-0.dtd"
   xmlns:inkscape="http://www.inkscape.org/namespaces/inkscape"
   width="96"
   height="96"
   id="svg2"
   version="1.1"
   inkscape:version="0.48.4 r9939"
   sodipodi:docname="aim.svg">
  <defs
     id="defs4">
    <linearGradient
       id="linearGradient3780">
      <stop
         style="stop-color:#cc0000;stop-opacity:1;"
         offset="0"
         id="stop3782" />
      <stop
         style="stop-color:#ff4f4f;stop-opacity:1;"
         offset="1"
         id="stop3784" />
    </linearGradient>
    <linearGradient
       inkscape:collect="always"
       xlink:href="#linearGradient3780"
       id="linearGradient3786"
       x1="45"
       y1="1047.3622"
       x2="45"
       y2="957.36218"
       gradientUnits="userSpaceOnUse" />
  </defs>
  <sodipodi:namedview
     id="base"
     pagecolor="#ffffff"
     bordercolor="#666666"
     borderopacity="1.0"
     inkscape:pageopacity="0.0"
     inkscape:pageshadow="2"
     inkscape:zoom="5.90625"
     inkscape:cx="17.862434"
     inkscape:cy="48"
     inkscape:document-units="px"
     inkscape:current-layer="layer1"
     showgrid="true"
     inkscape:snap-page="true"
     inkscape:snap-global="true"
     inkscape:snap-center="true"
     inkscape:snap-object-midpoints="false"
     showguides="true"
     inkscape:guide-bbox="true"
     inkscape:snap-bbox="true"
     inkscape:object-paths="true"
     inkscape:object-nodes="true"
     inkscape:window-width="1305"
     inkscape:window-height="744"
     inkscape:window-x="61"
     inkscape:window-y="24"
     inkscape:window-maximized="1"
     inkscape:snap-midpoints="false"
     inkscape:snap-grids="true"
     inkscape:snap-to-guides="false">
    <inkscape:grid
       type="xygrid"
       id="grid3002"
       empspacing="5"
       visible="true"
       enabled="true"
       snapvisiblegridlinesonly="true" />
  </sodipodi:namedview>
  <metadata
     id="metadata7">
    <rdf:RDF>
      <cc:Work
         rdf:about="">
        <dc:format>image/svg+xml</dc:format>
        <dc:type
           rdf:resource="http://purl.org/dc/dcmitype/StillImage" />
        <dc:title />
      </cc:Work>
    </rdf:RDF>
  </metadata>
  <g
     inkscape:label="Layer 1"
     inkscape:groupmode="layer"
     id="layer1"
     transform="translate(0,-956.36218)">
    <rect
       style="fill:#ffffff;fill-opacity:0;fill-rule:nonzero;stroke:none"
       id="rect3775"
       width="96"
       height="96"
       x="0"
       y="956.36218"
       ry="0" />
    <path
       style="fill:#000000;fill-opacity:0.09589041;fill-rule:nonzero;stroke:none"
       d="m 3.353015,956.30662 c -1.884176,0 -3.4111555,1.43156 -3.4111555,3.19799 l 0,83.65949 c 0,1.7665 1.5269795,3.1981 3.4111555,3.1981 l 89.23583,0 c 1.884174,0 3.411155,-1.4316 3.411155,-3.1981 l 0,-83.65949 c 0,-1.76643 -1.526981,-3.19799 -3.411155,-3.19799 z"
       id="rect3772"
       inkscape:connector-curvature="0"
       sodipodi:nodetypes="sssssssss" />
    <path
       style="fill:#000000;fill-opacity:0.18721463;fill-rule:nonzero;stroke:none"
       d="m 1.0459761,1041.8066 0,7.4219 c 0,1.7392 1.461916,3.1337 3.2852054,3.1337 l 86.3836135,0 c 1.823288,0 3.285205,-1.3945 3.285205,-3.1337 l 0,-7.4219 -92.9540239,0 z"
       id="rect3785"
       inkscape:connector-curvature="0" />
    <path
       style="fill:#000000;fill-opacity:0.38356168;fill-rule:nonzero;stroke:none"
       d="m 1.0459761,1041.8066 0,5.3807 c 0,1.762 1.461916,3.1749 3.2852054,3.1749 l 86.3836135,0 c 1.823288,0 3.285205,-1.4129 3.285205,-3.1749 l 0,-5.3807 -92.9540239,0 z"
       id="rect3783"
       inkscape:connector-curvature="0" />
    <rect
       style="fill:url(#linearGradient3786);fill-opacity:1;fill-rule:nonzero;stroke:none"
       id="rect2985"
       width="92.954025"
       height="89"
       x="1.045977"
       y="957.36218"
       ry="3.1511393" />
    <path
       style="fill:#000000;fill-opacity:0.38356168;fill-rule:nonzero;stroke:none"
       d="m 1,1042.3622 0.045976,2.7457 c 0.03024,1.8058 1.461916,3.2543 3.2852054,3.2543 l 86.3836136,0 c 1.823288,0 3.285205,-1.4481 3.285205,-3.2543 l -0.04598,-2.7457 z"
       id="rect3781"
       inkscape:connector-curvature="0"
       sodipodi:nodetypes="csssscc" />
    <rect
       style="fill:#ffffff;fill-opacity:0.30000001;fill-rule:nonzero;stroke:none"
       id="rect3770"
       width="92.954033"
       height="2.000005"
       x="1.045976"
       y="1040.3622" />
    <rect
       style="fill:#ffffff;fill-opacity:0.11764706;fill-rule:nonzero;stroke:none"
       id="rect3005"
       width="93"
       height="48.202457"
       x="1"
       y="975.15973" />
    <rect
       y="990.1416"
       x="1"
       height="33.22057"
       width="93"
       id="rect3776"
       style="fill:#ffffff;fill-opacity:0.11764706;fill-rule:nonzero;stroke:none" />
    <rect
       style="fill:#ffffff;fill-opacity:0.11764706;fill-rule:nonzero;stroke:none"
       id="rect3778"
       width="93"
       height="9.2293024"
       x="1"
       y="975.05847" />
    <path
       style="fill:#000000;fill-opacity:0.25114155"
       d="m 44.470933,1026.9499 c 1.414648,-0.4036 4.048737,-2.0713 5.853504,-3.7039 l 3.281416,-2.9687 0.660999,1.7862 c 0.863627,2.3359 4.077533,4.8991 6.141614,4.8991 4.071986,0 8.825535,-3.4105 8.825535,-6.3317 0,-1.4405 -0.361393,-1.697 -2.398087,-1.697 -4.61785,0 -5.399481,-3.5553 -2.957443,-13.4503 1.376468,-5.578 1.595297,-7.46048 0.958739,-8.24873 -1.243669,-1.541 -4.541693,-3.11511 -6.524596,-3.11511 -1.622758,0 -1.854953,0.44608 -2.941361,5.65644 -2.015761,9.6658 -2.45013,10.9962 -4.345622,13.3125 -3.435901,4.197 -8.245005,5.5597 -11.457914,3.2463 -5.948838,-4.2824 -4.625012,-18.32071 2.279449,-24.17089 3.314309,-2.80768 6.810645,-3.88284 12.630656,-3.88284 5.550351,0 8.556223,0.9386 12.10088,3.77878 2.224132,1.78373 2.740805,1.9501 3.095535,0.99953 0.665491,-1.78254 -0.3196,-5.84043 -2.055038,-8.46528 -2.758901,-4.17274 -6.179242,-5.43643 -14.715305,-5.43643 -6.70356,0 -7.857613,0.20321 -11.44851,2.01585 -10.591278,5.34628 -17.010667,18.94048 -14.957847,31.67528 1.780077,11.0421 8.959232,16.6745 17.973396,14.1009 z"
       id="path3790"
       inkscape:connector-curvature="0"
       sodipodi:nodetypes="cscssssssssssssscsscsc" />
    <path
       sodipodi:nodetypes="cscssssssssssssscsscsc"
       inkscape:connector-curvature="0"
       id="path3788"
       d="m 44.470933,1024.9499 c 1.414648,-0.4036 4.048737,-2.0713 5.853504,-3.7039 l 3.281416,-2.9687 0.660999,1.7862 c 0.863627,2.3359 4.077533,4.8991 6.141614,4.8991 4.071986,0 8.825535,-3.4105 8.825535,-6.3317 0,-1.4405 -0.361393,-1.697 -2.398087,-1.697 -4.61785,0 -5.399481,-3.5553 -2.957443,-13.4503 1.376468,-5.578 1.595297,-7.46048 0.958739,-8.24873 -1.243669,-1.541 -4.541693,-3.11511 -6.524596,-3.11511 -1.622758,0 -1.854953,0.44608 -2.941361,5.65644 -2.015761,9.6658 -2.45013,10.9962 -4.345622,13.3125 -3.435901,4.197 -8.245005,5.5597 -11.457914,3.2463 -5.948838,-4.2824 -4.625012,-18.32071 2.279449,-24.17089 3.314309,-2.80768 6.810645,-3.88284 12.630656,-3.88284 5.550351,0 8.556223,0.9386 12.10088,3.77878 2.224132,1.78373 2.740805,1.9501 3.095535,0.99953 0.665491,-1.78254 -0.3196,-5.84043 -2.055038,-8.46528 -2.758901,-4.17274 -6.179242,-5.43643 -14.715305,-5.43643 -6.70356,0 -7.857613,0.20321 -11.44851,2.01585 -10.591278,5.34628 -17.010667,18.94048 -14.957847,31.67528 1.780077,11.0421 8.959232,16.6745 17.973396,14.1009 z"
       style="fill:#000000;fill-opacity:0.25114155" />
    <path
       sodipodi:nodetypes="cscssssssssssssscsscsc"
       inkscape:connector-curvature="0"
       id="path3792"
       d="m 44.470933,1028.9499 c 1.414648,-0.4036 4.048737,-2.0713 5.853504,-3.7039 l 3.281416,-2.9687 0.660999,1.7862 c 0.863627,2.3359 4.077533,4.8991 6.141614,4.8991 4.071986,0 8.825535,-3.4105 8.825535,-6.3317 0,-1.4405 -0.361393,-1.697 -2.398087,-1.697 -4.61785,0 -5.399481,-3.5553 -2.957443,-13.4503 1.376468,-5.578 1.595297,-7.4605 0.958739,-8.24873 -1.243669,-1.541 -4.541693,-3.11511 -6.524596,-3.11511 -1.622758,0 -1.854953,0.44608 -2.941361,5.65644 -2.015761,9.6658 -2.45013,10.9962 -4.345622,13.3125 -3.435901,4.197 -8.245005,5.5597 -11.457914,3.2463 -5.948838,-4.2824 -4.625012,-18.3207 2.279449,-24.17089 3.314309,-2.80768 6.810645,-3.88284 12.630656,-3.88284 5.550351,0 8.556223,0.9386 12.10088,3.77878 2.224132,1.78373 2.740805,1.9501 3.095535,0.99953 0.665491,-1.78254 -0.3196,-5.84043 -2.055038,-8.46528 -2.758901,-4.17274 -6.179242,-5.43643 -14.715305,-5.43643 -6.70356,0 -7.857613,0.20321 -11.44851,2.01585 -10.591278,5.34628 -17.010667,18.94048 -14.957847,31.67528 1.780077,11.0421 8.959232,16.6745 17.973396,14.1009 z"
       style="fill:#000000;fill-opacity:0.25114155" />
    <path
       style="fill:#ffffff"
       d="m 44.470933,1022.9499 c 1.414648,-0.4036 4.048737,-2.0713 5.853504,-3.7039 l 3.281416,-2.9687 0.660999,1.7862 c 0.863627,2.3359 4.077533,4.8991 6.141614,4.8991 4.071986,0 8.825535,-3.4105 8.825535,-6.3317 0,-1.4405 -0.361393,-1.697 -2.398087,-1.697 -4.61785,0 -5.399481,-3.5553 -2.957443,-13.4503 1.376468,-5.578 1.595297,-7.46048 0.958739,-8.24873 -1.243669,-1.541 -4.541693,-3.11511 -6.524596,-3.11511 -1.622758,0 -1.854953,0.44608 -2.941361,5.65644 -2.015761,9.6658 -2.45013,10.9962 -4.345622,13.3125 -3.435901,4.197 -8.245005,5.5597 -11.457914,3.2463 -5.948838,-4.2824 -4.625012,-18.32071 2.279449,-24.17089 3.314309,-2.80768 6.810645,-3.88284 12.630656,-3.88284 5.550351,0 8.556223,0.9386 12.10088,3.77878 2.224132,1.78373 2.740805,1.9501 3.095535,0.99953 0.665491,-1.78254 -0.3196,-5.84043 -2.055038,-8.46528 -2.758901,-4.17274 -6.179242,-5.43643 -14.715305,-5.43643 -6.70356,0 -7.857613,0.20321 -11.44851,2.01585 -10.591278,5.34628 -17.010667,18.94048 -14.957847,31.67528 1.780077,11.0421 8.959232,16.6745 17.973396,14.1009 z"
       id="path874"
       inkscape:connector-curvature="0"
       sodipodi:nodetypes="cscssssssssssssscsscsc" />
  </g>
</svg>
