<?xml version="1.0" encoding="UTF-8" standalone="no"?>
<!-- Created with Inkscape (http://www.inkscape.org/) -->

<svg
   xmlns:dc="http://purl.org/dc/elements/1.1/"
   xmlns:cc="http://creativecommons.org/ns#"
   xmlns:rdf="http://www.w3.org/1999/02/22-rdf-syntax-ns#"
   xmlns:svg="http://www.w3.org/2000/svg"
   xmlns="http://www.w3.org/2000/svg"
   xmlns:xlink="http://www.w3.org/1999/xlink"
   xmlns:sodipodi="http://sodipodi.sourceforge.net/DTD/sodipodi-0.dtd"
   xmlns:inkscape="http://www.inkscape.org/namespaces/inkscape"
   width="96"
   height="96"
   id="svg2"
   version="1.1"
   inkscape:version="0.48.4 r9939"
   sodipodi:docname="nepomuk.svg">
  <defs
     id="defs4">
    <linearGradient
       id="linearGradient3769">
      <stop
         style="stop-color:#00709e;stop-opacity:1;"
         offset="0"
         id="stop3771" />
      <stop
         style="stop-color:#9800c8;stop-opacity:1;"
         offset="1"
         id="stop3773" />
    </linearGradient>
    <linearGradient
       inkscape:collect="always"
       xlink:href="#linearGradient3769"
       id="linearGradient3775"
       x1="40"
       y1="1047.3622"
       x2="40"
       y2="957.36218"
       gradientUnits="userSpaceOnUse"
       gradientTransform="translate(0,-2003.7244)" />
  </defs>
  <sodipodi:namedview
     id="base"
     pagecolor="#ffffff"
     bordercolor="#666666"
     borderopacity="1.0"
     inkscape:pageopacity="0.0"
     inkscape:pageshadow="2"
     inkscape:zoom="2.953125"
     inkscape:cx="2.5337401"
     inkscape:cy="48"
     inkscape:document-units="px"
     inkscape:current-layer="layer1"
     showgrid="true"
     inkscape:snap-page="true"
     inkscape:snap-global="true"
     inkscape:snap-center="true"
     inkscape:snap-object-midpoints="false"
     showguides="true"
     inkscape:guide-bbox="true"
     inkscape:snap-bbox="true"
     inkscape:object-paths="true"
     inkscape:object-nodes="true"
     inkscape:window-width="1305"
     inkscape:window-height="744"
     inkscape:window-x="61"
     inkscape:window-y="24"
     inkscape:window-maximized="1"
     inkscape:snap-midpoints="true"
     inkscape:snap-grids="true"
     inkscape:snap-to-guides="false">
    <inkscape:grid
       type="xygrid"
       id="grid3002"
       empspacing="5"
       visible="true"
       enabled="true"
       snapvisiblegridlinesonly="true" />
  </sodipodi:namedview>
  <metadata
     id="metadata7">
    <rdf:RDF>
      <cc:Work
         rdf:about="">
        <dc:format>image/svg+xml</dc:format>
        <dc:type
           rdf:resource="http://purl.org/dc/dcmitype/StillImage" />
        <dc:title />
      </cc:Work>
    </rdf:RDF>
  </metadata>
  <g
     inkscape:label="Layer 1"
     inkscape:groupmode="layer"
     id="layer1"
     transform="translate(0,-956.36218)">
    <rect
       style="fill:#ffffff;fill-opacity:0;fill-rule:nonzero;stroke:none"
       id="rect3775"
       width="96"
       height="96"
       x="0"
       y="956.36218"
       ry="0" />
    <path
       style="fill:#000000;fill-opacity:0.09589041;fill-rule:nonzero;stroke:none"
       d="m 3.353015,956.30662 c -1.884176,0 -3.4111555,1.43156 -3.4111555,3.19799 l 0,83.65949 c 0,1.7665 1.5269795,3.1981 3.4111555,3.1981 l 89.23583,0 c 1.884174,0 3.411155,-1.4316 3.411155,-3.1981 l 0,-83.65949 c 0,-1.76643 -1.526981,-3.19799 -3.411155,-3.19799 z"
       id="rect3772"
       inkscape:connector-curvature="0"
       sodipodi:nodetypes="sssssssss" />
    <path
       style="fill:#000000;fill-opacity:0.18721463;fill-rule:nonzero;stroke:none"
       d="m 1.0459761,1041.8066 0,7.4219 c 0,1.7392 1.461916,3.1337 3.2852054,3.1337 l 86.3836135,0 c 1.823288,0 3.285205,-1.3945 3.285205,-3.1337 l 0,-7.4219 -92.9540239,0 z"
       id="rect3785"
       inkscape:connector-curvature="0" />
    <path
       style="fill:#000000;fill-opacity:0.38356168;fill-rule:nonzero;stroke:none"
       d="m 1.0459761,1041.8066 0,5.3807 c 0,1.762 1.461916,3.1749 3.2852054,3.1749 l 86.3836135,0 c 1.823288,0 3.285205,-1.4129 3.285205,-3.1749 l 0,-5.3807 -92.9540239,0 z"
       id="rect3783"
       inkscape:connector-curvature="0" />
    <rect
       style="fill:url(#linearGradient3775);fill-opacity:1;fill-rule:nonzero;stroke:none"
       id="rect2985"
       width="92.954025"
       height="89"
       x="1.045977"
       y="-1046.3622"
       ry="3.1511393"
       transform="scale(1,-1)" />
    <path
       style="fill:#ffffff;fill-opacity:0.21917808;fill-rule:nonzero;stroke:none"
       d="m 8.78125,957.36218 c -2.86773,2.61458 -5.45831,5.51461 -7.75,8.65625 l 0,3.5 c 2.97897,-4.55307 6.60079,-8.66509 10.75,-12.15625 l -3,0 z m 7.875,0 c -6.48414,4.71976 -11.85489,10.89522 -15.625,18.03125 l 0,4.75 C 5.0234,970.7309 11.79466,962.81652 20.3125,957.36218 l -3.65625,0 z m 9.59375,0 C 13.54526,963.73551 4.08585,975.63274 1.03125,989.89343 l 0,19.93747 c 3.9126,18.2664 18.34093,32.6669 36.625,36.5313 l 19.6875,0 C 75.669704,1042.489 90.126762,1028.0319 94,1009.7059 l 0,-19.68747 C 90.974196,975.70205 81.492019,963.75421 68.75,957.36218 l -5.03125,0 c 17.117769,6.52046 29.25,23.07265 29.25,42.5 0,25.14082 -20.327948,45.46872 -45.46875,45.46872 -25.140802,0 -45.46875,-20.3279 -45.46875,-45.46872 0,-19.42735 12.13223,-35.97954 29.25,-42.5 l -5.03125,0 z m 20.15625,0 c -22.955143,0.58313 -41.4375,19.40631 -41.4375,42.5 0,23.46022 19.070991,42.53122 42.53125,42.53122 23.460259,0 42.53125,-19.071 42.53125,-42.53122 0,-23.09369 -18.482357,-41.91687 -41.4375,-42.5 l -2.1875,0 z m 28.28125,0 c 8.537194,5.46673 15.323919,13.40315 19.3125,22.84375 l 0,-4.75 c -3.771744,-7.16208 -9.153502,-13.36044 -15.65625,-18.09375 l -3.65625,0 z m 8.53125,0 c 4.160196,3.50041 7.797855,7.61991 10.78125,12.1875 l 0,-3.5 c -2.297908,-3.15515 -4.902828,-6.06318 -7.78125,-8.6875 l -3,0 z m 9.40625,0.53125 c 0.335777,0.22667 0.617081,0.50797 0.84375,0.84375 -0.22607,-0.33518 -0.508572,-0.61768 -0.84375,-0.84375 z m -90.40625,0.1875 c -0.08752,0.0716 -0.17075,0.13825 -0.25,0.21875 0.07937,-0.0794 0.16255,-0.14818 0.25,-0.21875 z M 47.5,959.39343 c 22.379376,0 40.46875,18.08937 40.46875,40.46875 0,22.37942 -18.089374,40.46872 -40.46875,40.46872 -22.379376,0 -40.46875,-18.0893 -40.46875,-40.46872 0,-22.37938 18.089374,-40.46875 40.46875,-40.46875 z m 0,2.96875 c -20.698835,0 -37.5,16.80117 -37.5,37.5 0,20.69882 16.801165,37.50002 37.5,37.50002 20.698835,0 37.5,-16.8012 37.5,-37.50002 0,-20.69883 -16.801165,-37.5 -37.5,-37.5 z m 0,2 c 19.617953,0 35.5,15.88205 35.5,35.5 0,19.61792 -15.882047,35.50002 -35.5,35.50002 -19.617953,0 -35.5,-15.8821 -35.5,-35.50002 0,-19.61795 15.882047,-35.5 35.5,-35.5 z m 0,2.96875 c -17.93741,0 -32.53125,14.59384 -32.53125,32.53125 0,17.93742 14.59384,32.53122 32.53125,32.53122 17.93741,0 32.53125,-14.5938 32.53125,-32.53122 0,-17.93741 -14.59384,-32.53125 -32.53125,-32.53125 z m 0,2.0625 c 16.856529,0 30.46875,13.61222 30.46875,30.46875 0,16.85652 -13.612221,30.46872 -30.46875,30.46872 -16.856529,0 -30.46875,-13.6122 -30.46875,-30.46872 0,-16.85653 13.612221,-30.46875 30.46875,-30.46875 z m 0,2.96875 c -15.175986,0 -27.5,12.32401 -27.5,27.5 0,15.17602 12.324014,27.50002 27.5,27.50002 15.175986,0 27.5,-12.324 27.5,-27.50002 0,-15.17599 -12.324014,-27.5 -27.5,-27.5 z m 0,2 c 14.095106,0 25.5,11.40489 25.5,25.5 0,14.09512 -11.404894,25.50002 -25.5,25.50002 -14.095106,0 -25.5,-11.4049 -25.5,-25.50002 0,-14.09511 11.404894,-25.5 25.5,-25.5 z m 0,2.96875 c -12.414563,0 -22.53125,10.11669 -22.53125,22.53125 0,12.41452 10.116687,22.53122 22.53125,22.53122 12.414563,0 22.53125,-10.1167 22.53125,-22.53122 0,-12.41456 -10.116687,-22.53125 -22.53125,-22.53125 z m 0,2.0625 c 11.333682,0 20.46875,9.13507 20.46875,20.46875 0,11.33372 -9.135068,20.46872 -20.46875,20.46872 -11.333682,0 -20.46875,-9.135 -20.46875,-20.46872 0,-11.33368 9.135068,-20.46875 20.46875,-20.46875 z m 0,2.96875 c -9.653139,0 -17.5,7.84686 -17.5,17.5 0,9.65312 7.846861,17.50002 17.5,17.50002 9.653139,0 17.5,-7.8469 17.5,-17.50002 0,-9.65314 -7.846861,-17.5 -17.5,-17.5 z m 0,2 c 8.572258,0 15.5,6.92774 15.5,15.5 0,8.57222 -6.927742,15.50002 -15.5,15.50002 -8.572258,0 -15.5,-6.9278 -15.5,-15.50002 0,-8.57226 6.927742,-15.5 15.5,-15.5 z m 0,2 c -7.443999,0 -13.5,6.056 -13.5,13.5 0,7.44402 6.056001,13.50002 13.5,13.50002 7.443999,0 13.5,-6.056 13.5,-13.50002 0,-7.444 -6.056001,-13.5 -13.5,-13.5 z m 0,2 c 6.363119,0 11.5,5.13688 11.5,11.5 0,6.36312 -5.136881,11.50002 -11.5,11.50002 -6.363119,0 -11.5,-5.1369 -11.5,-11.50002 0,-6.36312 5.136881,-11.5 11.5,-11.5 z M 94,1019.5184 c -5.103168,12.0787 -14.765026,21.7406 -26.84375,26.8438 l 4.75,0 C 81.318243,1041.4056 89.043394,1033.6804 94,1024.2684 l 0,-4.75 z m -92.96875,0.062 0,4.75 c 4.95786,9.3842 12.671,17.0855 22.0625,22.0313 l 4.75,0 C 15.78643,1041.2676 6.14152,1031.6292 1.03125,1019.5804 z M 94,1030.1747 c -4.212397,6.4492 -9.738306,11.9751 -16.1875,16.1875 l 3.5,0 c 4.867484,-3.545 9.142489,-7.82 12.6875,-12.6875 l 0,-3.5 z m -92.96875,0.031 0,3.5 c 3.54006,4.853 7.80048,9.1198 12.65625,12.6563 l 3.5,0 c -6.43713,-4.2045 -11.94686,-9.7226 -16.15625,-16.1563 z m 92.4375,14.7813 c -0.226669,0.3358 -0.507973,0.6171 -0.84375,0.8437 0.335178,-0.226 0.61768,-0.5085 0.84375,-0.8437 z m -91.5,0.4375 c 0.07925,0.081 0.16248,0.1471 0.25,0.2187 -0.08745,-0.071 -0.17063,-0.1393 -0.25,-0.2187 z"
       id="rect3847"
       inkscape:connector-curvature="0" />
    <path
       style="fill:#ffffff;fill-opacity:1;fill-rule:nonzero;stroke:none"
       d="M 41.875,967.36218 C 25,979.02885 36.25,1002.3622 25,1002.3622 l 0,5.8333 22.5,0 22.5,0 0,-5.8333 c -11.25,0 0,-23.33335 -16.875,-35.00002 l -5.625,0 -5.625,0 z m 0,44.33332 c -0.175121,0.5952 -0.246094,1.2389 -0.246094,1.8959 0,3.4694 2.62236,6.2708 5.871094,6.2708 3.248734,0 5.871094,-2.8014 5.871094,-6.2708 0,-0.657 -0.07097,-1.3007 -0.246094,-1.8959 l -11.25,0 z"
       id="rect3002"
       inkscape:connector-curvature="0" />
    <path
       style="fill:#000000;fill-opacity:0.38356168;fill-rule:nonzero;stroke:none"
       d="m 1,1042.3622 0.045976,2.7457 c 0.03024,1.8058 1.461916,3.2543 3.2852054,3.2543 l 86.3836136,0 c 1.823288,0 3.285205,-1.4481 3.285205,-3.2543 l -0.04598,-2.7457 z"
       id="rect3781"
       inkscape:connector-curvature="0"
       sodipodi:nodetypes="csssscc" />
    <rect
       style="fill:#ffffff;fill-opacity:0.30000001;fill-rule:nonzero;stroke:none"
       id="rect3770"
       width="92.954033"
       height="2.000005"
       x="1.045976"
       y="1040.3622" />
  </g>
</svg>
