<?xml version="1.0" encoding="UTF-8" standalone="no"?>
<!-- Created with Inkscape (http://www.inkscape.org/) -->

<svg
   xmlns:dc="http://purl.org/dc/elements/1.1/"
   xmlns:cc="http://creativecommons.org/ns#"
   xmlns:rdf="http://www.w3.org/1999/02/22-rdf-syntax-ns#"
   xmlns:svg="http://www.w3.org/2000/svg"
   xmlns="http://www.w3.org/2000/svg"
   xmlns:xlink="http://www.w3.org/1999/xlink"
   xmlns:sodipodi="http://sodipodi.sourceforge.net/DTD/sodipodi-0.dtd"
   xmlns:inkscape="http://www.inkscape.org/namespaces/inkscape"
   width="96"
   height="96"
   id="svg2"
   version="1.1"
   inkscape:version="0.48.4 r9939"
   sodipodi:docname="amnesia.svg">
  <defs
     id="defs4">
    <linearGradient
       id="linearGradient3908">
      <stop
         offset="0"
         style="stop-color:#d45500;stop-opacity:0.34351146"
         id="stop3910" />
      <stop
         offset="1"
         style="stop-color:#e65c00;stop-opacity:1"
         id="stop3912" />
    </linearGradient>
    <radialGradient
       inkscape:collect="always"
       xlink:href="#linearGradient3908"
       id="radialGradient3023"
       gradientUnits="userSpaceOnUse"
       gradientTransform="matrix(1.3256909,0,0,1.3040477,-16.133931,939.25743)"
       cx="48"
       cy="48"
       fx="48"
       fy="48"
       r="42" />
  </defs>
  <sodipodi:namedview
     id="base"
     pagecolor="#ffffff"
     bordercolor="#666666"
     borderopacity="1.0"
     inkscape:pageopacity="0.0"
     inkscape:pageshadow="2"
     inkscape:zoom="5.90625"
     inkscape:cx="22.010582"
     inkscape:cy="48"
     inkscape:document-units="px"
     inkscape:current-layer="layer1"
     showgrid="true"
     inkscape:snap-page="true"
     inkscape:snap-global="true"
     inkscape:snap-center="true"
     inkscape:snap-object-midpoints="false"
     showguides="true"
     inkscape:guide-bbox="true"
     inkscape:snap-bbox="true"
     inkscape:object-paths="true"
     inkscape:object-nodes="true"
     inkscape:window-width="1305"
     inkscape:window-height="744"
     inkscape:window-x="61"
     inkscape:window-y="24"
     inkscape:window-maximized="1"
     inkscape:snap-midpoints="true"
     inkscape:snap-grids="true"
     inkscape:snap-to-guides="false">
    <inkscape:grid
       type="xygrid"
       id="grid3002"
       empspacing="5"
       visible="true"
       enabled="true"
       snapvisiblegridlinesonly="true" />
  </sodipodi:namedview>
  <metadata
     id="metadata7">
    <rdf:RDF>
      <cc:Work
         rdf:about="">
        <dc:format>image/svg+xml</dc:format>
        <dc:type
           rdf:resource="http://purl.org/dc/dcmitype/StillImage" />
        <dc:title />
      </cc:Work>
    </rdf:RDF>
  </metadata>
  <g
     inkscape:label="Layer 1"
     inkscape:groupmode="layer"
     id="layer1"
     transform="translate(0,-956.36218)">
    <rect
       style="fill:#ffffff;fill-opacity:0;fill-rule:nonzero;stroke:none"
       id="rect3775"
       width="96"
       height="96"
       x="0"
       y="956.36218"
       ry="0" />
    <path
       style="fill:#000000;fill-opacity:0.09589041;fill-rule:nonzero;stroke:none"
       d="m 3.353015,956.30662 c -1.884176,0 -3.4111555,1.43156 -3.4111555,3.19799 l 0,83.65949 c 0,1.7665 1.5269795,3.1981 3.4111555,3.1981 l 89.23583,0 c 1.884174,0 3.411155,-1.4316 3.411155,-3.1981 l 0,-83.65949 c 0,-1.76643 -1.526981,-3.19799 -3.411155,-3.19799 z"
       id="rect3772"
       inkscape:connector-curvature="0"
       sodipodi:nodetypes="sssssssss" />
    <path
       style="fill:#000000;fill-opacity:0.18721463;fill-rule:nonzero;stroke:none"
       d="m 1.0459761,1041.8066 0,7.4219 c 0,1.7392 1.461916,3.1337 3.2852054,3.1337 l 86.3836135,0 c 1.823288,0 3.285205,-1.3945 3.285205,-3.1337 l 0,-7.4219 -92.9540239,0 z"
       id="rect3785"
       inkscape:connector-curvature="0" />
    <path
       style="fill:#000000;fill-opacity:0.38356168;fill-rule:nonzero;stroke:none"
       d="m 1.0459761,1041.8066 0,5.3807 c 0,1.762 1.461916,3.1749 3.2852054,3.1749 l 86.3836135,0 c 1.823288,0 3.285205,-1.4129 3.285205,-3.1749 l 0,-5.3807 -92.9540239,0 z"
       id="rect3783"
       inkscape:connector-curvature="0" />
    <rect
       style="fill:#ff9900;fill-opacity:1;fill-rule:nonzero;stroke:none"
       id="rect2985-4"
       width="93"
       height="89"
       x="1.0000001"
       y="957.36218"
       ry="3.1511395" />
    <path
       style="fill:#000000;fill-opacity:0.38356168;fill-rule:nonzero;stroke:none"
       d="m 1,1042.3622 0.045976,2.7457 c 0.03024,1.8058 1.461916,3.2543 3.2852054,3.2543 l 86.3836136,0 c 1.823288,0 3.285205,-1.4481 3.285205,-3.2543 l -0.04598,-2.7457 z"
       id="rect3781"
       inkscape:connector-curvature="0"
       sodipodi:nodetypes="csssscc" />
    <rect
       style="fill:#ffffff;fill-opacity:0.30000001;fill-rule:nonzero;stroke:none"
       id="rect3770"
       width="92.954033"
       height="2.000005"
       x="1.045976"
       y="1040.3622" />
    <path
       style="fill:#ffffff"
       d="m 56.85612,1019.2565 c -0.112978,-6.5314 -0.580031,-12.1024 -1.037918,-12.3806 -0.457887,-0.2796 -1.714466,-5.9232 -2.792402,-12.54493 -1.469492,-9.02764 -1.624867,-12.64934 -0.620989,-14.47444 0.938015,-1.7054 0.952288,-2.6395 0.04769,-3.1199 -0.71016,-0.3771 -1.684105,-1.7282 -2.164311,-3.0025 -0.675394,-1.7922 -0.160124,-2.7814 2.275594,-4.3686 1.731782,-1.1285 3.148695,-2.6741 3.148695,-3.4347 0,-1.8275 -2.771845,-3.2043 -3.384706,-1.6812 -0.263271,0.6542 -1.119181,1.1924 -1.902025,1.1959 -0.782839,0 -2.495178,1.4816 -3.80519,3.2847 -7.69502,10.591 -9.016841,12.7012 -8.318463,13.2796 0.425393,0.3526 -1.08103,2.2257 -3.347571,4.1629 -3.045624,2.603 -3.588954,3.5221 -2.082135,3.5221 1.633114,0 1.896998,0.6537 1.326053,3.2846 -0.727335,3.35154 -4.360512,6.82204 -7.142062,6.82204 -0.85002,0 -2.29897,0.75623 -3.21988,1.68003 -1.53793,1.5428 -1.07774,1.6326 5.64568,1.0999 4.492677,-0.3561 6.308024,-0.2514 4.699887,0.269 -3.471777,1.1272 -4.685327,2.9226 -4.257687,6.2998 0.22798,1.8004 -0.326,2.9979 -1.56996,3.3932 -1.19202,0.3789 -1.91518,1.8178 -1.9036,3.7878 0.035,5.9236 1.75735,5.9661 5.21334,0.1276 1.804862,-3.0486 3.850126,-5.5428 4.545032,-5.5428 0.694906,0 1.766126,-1.0952 2.380483,-2.434 1.008637,-2.1974 1.547756,-2.3532 5.55652,-1.6041 5.316006,0.9932 6.346283,1.6919 4.612212,3.1284 -0.921778,0.7636 -0.600427,2.6011 1.101741,6.2998 1.321698,2.872 2.841386,6.586 3.37709,8.2537 1.248183,3.8852 2.588316,6.5689 3.280296,6.5689 0.299208,0 0.451577,-5.3435 0.338606,-11.8749 z M 42.292297,998.73107 c 0,-0.5887 -0.490316,-0.8191 -1.089594,-0.5123 -0.633437,0.3257 -0.664784,-1.0025 -0.07486,-3.1692 0.558094,-2.04994 0.741505,-4.09334 0.407576,-4.54094 -0.333907,-0.4476 -0.02564,-0.8138 0.684893,-0.8138 0.710605,0 1.292013,0.4817 1.292013,1.0704 0,0.5885 0.411761,0.8595 0.915013,0.602 0.784138,-0.4012 0.970966,2.58394 0.448811,7.17084 -0.174045,1.52933 -2.583838,1.70913 -2.583838,0.1912 z"
       id="path3004"
       inkscape:connector-curvature="0"
       sodipodi:nodetypes="scsscsssscscsssssscsccsssssssssccscsscscc" />
  </g>
</svg>
