<?xml version="1.0" encoding="UTF-8" standalone="no"?>
<!-- Created with Inkscape (http://www.inkscape.org/) -->

<svg
   xmlns:dc="http://purl.org/dc/elements/1.1/"
   xmlns:cc="http://creativecommons.org/ns#"
   xmlns:rdf="http://www.w3.org/1999/02/22-rdf-syntax-ns#"
   xmlns:svg="http://www.w3.org/2000/svg"
   xmlns="http://www.w3.org/2000/svg"
   xmlns:xlink="http://www.w3.org/1999/xlink"
   xmlns:sodipodi="http://sodipodi.sourceforge.net/DTD/sodipodi-0.dtd"
   xmlns:inkscape="http://www.inkscape.org/namespaces/inkscape"
   width="96"
   height="96"
   id="svg2"
   version="1.1"
   inkscape:version="0.48.4 r9939"
   sodipodi:docname="android.svg">
  <defs
     id="defs4" />
  <sodipodi:namedview
     id="base"
     pagecolor="#ffffff"
     bordercolor="#666666"
     borderopacity="1.0"
     inkscape:pageopacity="0.0"
     inkscape:pageshadow="2"
     inkscape:zoom="5.90625"
     inkscape:cx="48"
     inkscape:cy="48"
     inkscape:document-units="px"
     inkscape:current-layer="layer1"
     showgrid="true"
     inkscape:snap-page="true"
     inkscape:snap-global="true"
     inkscape:snap-center="true"
     inkscape:snap-object-midpoints="false"
     showguides="true"
     inkscape:guide-bbox="true"
     inkscape:snap-bbox="true"
     inkscape:object-paths="true"
     inkscape:object-nodes="true"
     inkscape:window-width="1305"
     inkscape:window-height="744"
     inkscape:window-x="61"
     inkscape:window-y="24"
     inkscape:window-maximized="1"
     inkscape:snap-midpoints="true"
     inkscape:snap-grids="true"
     inkscape:snap-to-guides="false">
    <inkscape:grid
       type="xygrid"
       id="grid3002"
       empspacing="5"
       visible="true"
       enabled="true"
       snapvisiblegridlinesonly="true" />
  </sodipodi:namedview>
  <metadata
     id="metadata7">
    <rdf:RDF>
      <cc:Work
         rdf:about="">
        <dc:format>image/svg+xml</dc:format>
        <dc:type
           rdf:resource="http://purl.org/dc/dcmitype/StillImage" />
        <dc:title />
      </cc:Work>
    </rdf:RDF>
  </metadata>
  <g
     inkscape:label="Layer 1"
     inkscape:groupmode="layer"
     id="layer1"
     transform="translate(0,-956.36218)">
    <rect
       style="fill:#ffffff;fill-opacity:0;fill-rule:nonzero;stroke:none"
       id="rect3775"
       width="96"
       height="96"
       x="0"
       y="956.36218"
       ry="0" />
    <path
       style="fill:#000000;fill-opacity:0.09589041;fill-rule:nonzero;stroke:none"
       d="m 3.353015,956.30662 c -1.884176,0 -3.4111555,1.43156 -3.4111555,3.19799 l 0,83.65949 c 0,1.7665 1.5269795,3.1981 3.4111555,3.1981 l 89.23583,0 c 1.884174,0 3.411155,-1.4316 3.411155,-3.1981 l 0,-83.65949 c 0,-1.76643 -1.526981,-3.19799 -3.411155,-3.19799 z"
       id="rect3772"
       inkscape:connector-curvature="0"
       sodipodi:nodetypes="sssssssss" />
    <path
       style="fill:#000000;fill-opacity:0.18721463;fill-rule:nonzero;stroke:none"
       d="m 1.0459761,1041.8066 0,7.4219 c 0,1.7392 1.461916,3.1337 3.2852054,3.1337 l 86.3836135,0 c 1.823288,0 3.285205,-1.3945 3.285205,-3.1337 l 0,-7.4219 -92.9540239,0 z"
       id="rect3785"
       inkscape:connector-curvature="0" />
    <path
       style="fill:#000000;fill-opacity:0.38356168;fill-rule:nonzero;stroke:none"
       d="m 1.0459761,1041.8066 0,5.3807 c 0,1.762 1.461916,3.1749 3.2852054,3.1749 l 86.3836135,0 c 1.823288,0 3.285205,-1.4129 3.285205,-3.1749 l 0,-5.3807 -92.9540239,0 z"
       id="rect3783"
       inkscape:connector-curvature="0" />
    <rect
       style="fill:#228b22;fill-opacity:1;fill-rule:nonzero;stroke:none"
       id="rect2985"
       width="92.954025"
       height="89"
       x="1.045977"
       y="957.36218"
       ry="3.1511393" />
    <path
       style="fill:#000000;fill-opacity:0.38356168;fill-rule:nonzero;stroke:none"
       d="m 1,1042.3622 0.045976,2.7457 c 0.03024,1.8058 1.461916,3.2543 3.2852054,3.2543 l 86.3836136,0 c 1.823288,0 3.285205,-1.4481 3.285205,-3.2543 l -0.04598,-2.7457 z"
       id="rect3781"
       inkscape:connector-curvature="0"
       sodipodi:nodetypes="csssscc" />
    <rect
       style="fill:#ffffff;fill-opacity:0.15686275;fill-rule:nonzero;stroke:none"
       id="rect3770"
       width="92.954033"
       height="2.000005"
       x="1.045976"
       y="1040.3622" />
    <g
       transform="translate(-8.000001,-4.0000003)"
       id="g3010">
      <use
         height="1052.3622"
         width="744.09448"
         y="0"
         x="0"
         xlink:href="#a"
         transform="matrix(-1,0,0,1,96.000002,0)"
         id="use8"
         style="fill:#ffffff;fill-opacity:1;stroke:none" />
      <g
         transform="matrix(0.19642264,0,0,0.19642264,48.000001,984.23861)"
         style="fill:#ffffff;fill-opacity:1;stroke:none"
         id="a">
        <rect
           rx="6.5"
           transform="matrix(0.87461971,0.48480962,-0.48480962,0.87461971,0,0)"
           height="86"
           width="13"
           y="-86"
           x="14"
           id="rect11"
           style="fill:#ffffff;fill-opacity:1;stroke:none" />
        <rect
           id="c"
           rx="24"
           height="133"
           width="48"
           y="41"
           x="-143"
           style="fill:#ffffff;fill-opacity:1;stroke:none" />
        <use
           height="1052.3622"
           width="744.09448"
           y="97"
           x="85"
           xlink:href="#c"
           id="use14"
           style="fill:#ffffff;fill-opacity:1;stroke:none" />
      </g>
      <path
         inkscape:connector-curvature="0"
         id="ellipse17"
         d="m 48,975.7997 c -9.860401,0 -17.856562,7.3708 -17.875,16.4687 l 35.75,0 C 65.85656,983.1705 57.860401,975.7997 48,975.7997 z m -8.25,6.9375 c 0.816082,0 1.5,0.6839 1.5,1.5 0,0.8161 -0.683918,1.5 -1.5,1.5 -0.816082,0 -1.5,-0.6839 -1.5,-1.5 0,-0.8161 0.683918,-1.5 1.5,-1.5 z m 16.5,0 c 0.816082,0 1.5,0.6839 1.5,1.5 0,0.8161 -0.683918,1.5 -1.5,1.5 -0.816082,0 -1.5,-0.6839 -1.5,-1.5 0,-0.8161 0.683918,-1.5 1.5,-1.5 z m -16.5,1.4062 c -0.05177,0 -0.09375,0.042 -0.09375,0.094 0,0.052 0.04198,0.094 0.09375,0.094 0.05177,0 0.09375,-0.042 0.09375,-0.094 0,-0.052 -0.04198,-0.094 -0.09375,-0.094 z m 16.5,0 c -0.05177,0 -0.09375,0.042 -0.09375,0.094 0,0.052 0.04198,0.094 0.09375,0.094 0.05177,0 0.09375,-0.042 0.09375,-0.094 0,-0.052 -0.04198,-0.094 -0.09375,-0.094 z m -26.0625,9.5313 c 0.758087,8.468 8.443157,15.125 17.8125,15.125 9.369343,0 17.054413,-6.657 17.8125,-15.125 l -35.625,0 z"
         style="fill:#ffffff;fill-opacity:1;stroke:none" />
      <path
         inkscape:connector-curvature="0"
         id="rect19"
         transform="translate(0,956.36218)"
         d="m 34.4375,31.8125 c -2.318904,0 -4.165523,1.804599 -4.28125,4.09375 l 35.6875,0 C 65.728023,33.617099 63.881404,31.8125 61.5625,31.8125 l -27.125,0 z m -4.3125,5.5 0,25.90625 c 0,2.393999 1.918501,4.34375 4.3125,4.34375 l 27.125,0 c 2.393999,0 4.3125,-1.949751 4.3125,-4.34375 l 0,-25.90625 -35.75,0 z"
         style="fill:#ffffff;fill-opacity:1;stroke:none" />
    </g>
  </g>
</svg>
