<?xml version="1.0" encoding="UTF-8" standalone="no"?>
<!-- Created with Inkscape (http://www.inkscape.org/) -->

<svg
   xmlns:dc="http://purl.org/dc/elements/1.1/"
   xmlns:cc="http://creativecommons.org/ns#"
   xmlns:rdf="http://www.w3.org/1999/02/22-rdf-syntax-ns#"
   xmlns:svg="http://www.w3.org/2000/svg"
   xmlns="http://www.w3.org/2000/svg"
   xmlns:sodipodi="http://sodipodi.sourceforge.net/DTD/sodipodi-0.dtd"
   xmlns:inkscape="http://www.inkscape.org/namespaces/inkscape"
   width="96"
   height="96"
   id="svg2"
   version="1.1"
   inkscape:version="0.48.4 r9939"
   sodipodi:docname="angry-birds.svg">
  <defs
     id="defs4" />
  <sodipodi:namedview
     id="base"
     pagecolor="#ffffff"
     bordercolor="#666666"
     borderopacity="1.0"
     inkscape:pageopacity="0.0"
     inkscape:pageshadow="2"
     inkscape:zoom="3.3847803"
     inkscape:cx="-7.2220074"
     inkscape:cy="22.314934"
     inkscape:document-units="px"
     inkscape:current-layer="layer1"
     showgrid="true"
     inkscape:snap-page="true"
     inkscape:snap-global="true"
     inkscape:snap-center="true"
     inkscape:snap-object-midpoints="false"
     showguides="true"
     inkscape:guide-bbox="true"
     inkscape:snap-bbox="true"
     inkscape:object-paths="true"
     inkscape:object-nodes="true"
     inkscape:window-width="1305"
     inkscape:window-height="744"
     inkscape:window-x="61"
     inkscape:window-y="24"
     inkscape:window-maximized="1"
     inkscape:snap-midpoints="false"
     inkscape:snap-grids="true"
     inkscape:snap-to-guides="false">
    <inkscape:grid
       type="xygrid"
       id="grid3002"
       empspacing="5"
       visible="true"
       enabled="true"
       snapvisiblegridlinesonly="true" />
  </sodipodi:namedview>
  <metadata
     id="metadata7">
    <rdf:RDF>
      <cc:Work
         rdf:about="">
        <dc:format>image/svg+xml</dc:format>
        <dc:type
           rdf:resource="http://purl.org/dc/dcmitype/StillImage" />
        <dc:title />
      </cc:Work>
    </rdf:RDF>
  </metadata>
  <g
     inkscape:label="Layer 1"
     inkscape:groupmode="layer"
     id="layer1"
     transform="translate(0,-956.36218)">
    <rect
       style="fill:#ffffff;fill-opacity:0;fill-rule:nonzero;stroke:none"
       id="rect3775"
       width="96"
       height="96"
       x="0"
       y="956.36218"
       ry="0" />
    <path
       style="fill:#000000;fill-opacity:0.09589041;fill-rule:nonzero;stroke:none"
       d="m 3.353015,956.30662 c -1.884176,0 -3.4111555,1.43156 -3.4111555,3.19799 l 0,83.65949 c 0,1.7665 1.5269795,3.1981 3.4111555,3.1981 l 89.23583,0 c 1.884174,0 3.411155,-1.4316 3.411155,-3.1981 l 0,-83.65949 c 0,-1.76643 -1.526981,-3.19799 -3.411155,-3.19799 z"
       id="rect3772"
       inkscape:connector-curvature="0"
       sodipodi:nodetypes="sssssssss" />
    <path
       style="fill:#000000;fill-opacity:1;fill-rule:evenodd;stroke:none"
       d="m 93.5625,88.4375 c -0.628512,-1.613425 -1.465406,-3.160383 -2.46875,-4.65625 -1.003344,-1.495867 -2.157909,-2.926975 -3.5,-4.28125 -1.342091,-1.354275 -2.855247,-2.655102 -4.5,-3.84375 C 81.448997,74.467602 79.66133,73.373988 77.75,72.375 c -1.91133,-0.998988 -3.951927,-1.902208 -6.09375,-2.6875 -2.141823,-0.785292 -4.382519,-1.452437 -6.71875,-2 -2.336231,-0.547563 -4.755446,-0.964202 -7.25,-1.25 C 55.192946,66.151702 52.616791,66 50,66 c -2.720216,0 -5.381555,0.159973 -7.96875,0.46875 -2.587195,0.308777 -5.086313,0.753323 -7.5,1.34375 -2.413687,0.590427 -4.737809,1.342552 -6.9375,2.1875 -2.199691,0.844948 -4.273543,1.802659 -6.21875,2.875 -1.945207,1.072341 -3.756015,2.258643 -5.40625,3.53125 -1.650235,1.272607 -3.153974,2.616756 -4.46875,4.0625 -1.314776,1.445744 -2.4674208,2.970747 -3.40625,4.5625 C 7.1549208,86.623003 6.4286445,88.289365 5.90625,90 L 91,90 c 1,0 2,-1 2.5625,-1.5625 z"
       id="path3083"
       transform="translate(0,956.36218)"
       inkscape:connector-curvature="0"
       sodipodi:nodetypes="csssssssssssssssccc" />
    <path
       style="fill:#000000;fill-opacity:1;fill-rule:evenodd;stroke:none"
       d="M 1.03125 61 L 1.03125 86.84375 C 1.03125 87.280183 1.1217368 87.68477 1.28125 88.0625 C 1.4407632 88.44023 1.6833269 88.777077 1.96875 89.0625 C 2.2541731 89.347923 2.5910204 89.590487 2.96875 89.75 C 3.3464796 89.909513 3.7510672 90 4.1875 90 L 5.90625 90 C 6.4286445 88.289365 7.1549208 86.623003 8.09375 85.03125 C 9.0325792 83.439497 10.185224 81.914494 11.5 80.46875 C 12.814776 79.023006 14.318515 77.678857 15.96875 76.40625 C 17.618985 75.133643 19.429793 73.947341 21.375 72.875 C 23.320207 71.802659 25.394059 70.844948 27.59375 70 C 29.793441 69.155052 32.117563 68.402927 34.53125 67.8125 C 36.944937 67.222073 39.444055 66.777527 42.03125 66.46875 C 44.618445 66.159973 47.279784 66 50 66 C 52.616791 66 55.192946 66.151702 57.6875 66.4375 C 60.182054 66.723298 62.601269 67.139937 64.9375 67.6875 C 67.273731 68.235063 69.514427 68.902208 71.65625 69.6875 C 73.798073 70.472792 75.83867 71.376012 77.75 72.375 C 79.66133 73.373988 81.448997 74.467602 83.09375 75.65625 C 84.738503 76.844898 86.251659 78.145725 87.59375 79.5 C 88.935841 80.854275 90.090406 82.285383 91.09375 83.78125 C 92.097094 85.277117 92.933988 86.824075 93.5625 88.4375 C 93.835365 87.970665 94 87.42566 94 86.84375 L 94 61 L 1.03125 61 z "
       id="rect3076"
       transform="translate(0,956.36218)" />
    <path
       style="fill:#fff300;fill-opacity:1;fill-rule:nonzero;stroke:none"
       d="m 4.1875,957.36218 c -1.7457311,0 -3.15625,1.41052 -3.15625,3.15625 l 0,82.68747 c 0,1.7458 1.4105189,3.1563 3.15625,3.1563 l 1.71875,0 c 4.179156,-13.6851 22.332025,-24 44.09375,-24 20.934332,0 38.534406,9.5301 43.5625,22.4375 0.272865,-0.4669 0.4375,-1.0119 0.4375,-1.5938 l 0,-82.68747 c 0,-1.74573 -1.410519,-3.15625 -3.15625,-3.15625 l -86.65625,0 z"
       id="rect2985"
       inkscape:connector-curvature="0" />
    <path
       style="fill:#000000"
       d="M 27.4375 21.90625 C 27.100886 21.97106 26.870131 22.16352 26.625 22.375 C 26.379869 22.58648 26.132778 22.84633 25.875 23.15625 C 25.359444 23.77608 24.78686 24.57119 24.28125 25.40625 C 23.77564 26.24131 23.331176 27.09893 23 27.875 C 22.668824 28.65107 22.426367 29.28108 22.5 29.90625 C 22.539811 30.24387 22.698823 30.60097 22.96875 30.875 C 23.238677 31.14903 23.610101 31.38261 24.09375 31.625 C 25.061049 32.10977 26.536754 32.61992 28.90625 33.375 C 31.787024 34.29314 33.316862 34.81539 33.84375 35.125 C 33.951719 35.18844 33.975819 35.22623 34 35.25 C 33.991291 35.24205 33.972285 35.34479 33.8125 35.59375 C 32.215176 38.08423 32.050131 42.00471 33.375 45 C 33.70267 45.7406 34.10596 46.46935 34.5 47.03125 C 34.69702 47.31225 34.900748 47.5491 35.09375 47.75 C 35.286752 47.9509 35.44797 48.11345 35.71875 48.21875 A 0.56635565 0.56635565 0 0 0 35.75 48.21875 C 36.295964 48.42795 36.770985 48.301 37.40625 48.125 C 38.041515 47.949 38.746314 47.64795 39.4375 47.28125 C 40.776307 46.57115 41.881608 46.29565 42.75 46.40625 C 43.618392 46.51695 44.316017 46.9976 45 47.9375 C 45.287986 48.3333 45.599142 48.68525 45.875 48.96875 C 46.012929 49.11045 46.1509 49.24375 46.28125 49.34375 C 46.40531 49.43875 46.49294 49.5508 46.8125 49.5625 C 46.828703 49.5631 46.826233 49.5625 46.84375 49.5625 C 47.16057 49.5675 47.359131 49.4509 47.5625 49.3125 C 47.773792 49.1687 47.999388 48.9709 48.21875 48.75 C 48.657474 48.3083 49.125231 47.7131 49.59375 47.0625 C 50.530789 45.7613 51.409566 44.2732 51.71875 43.125 C 51.942292 42.2949 52.159231 41.80262 52.28125 41.65625 C 52.342259 41.58306 52.347979 41.60015 52.375 41.59375 C 52.402021 41.58735 52.478388 41.58695 52.625 41.625 C 53.112788 41.75284 53.700295 41.6438 54.09375 41.3125 C 54.487205 40.9812 54.736593 40.51093 55 39.875 C 55.360801 39.00397 55.668177 38.26942 55.5625 37.4375 C 55.456823 36.60558 54.916335 35.8411 53.875 35.03125 C 51.792331 33.41156 47.535646 31.28219 39.125 27.03125 C 36.265463 25.5859 33.568612 24.29813 31.5 23.375 C 30.465694 22.91343 29.5972 22.53236 28.9375 22.28125 C 28.60765 22.15569 28.320568 22.06562 28.09375 22 C 27.866932 21.93438 27.779613 21.84052 27.4375 21.90625 z M 87.5625 28.90625 C 87.418342 28.909215 87.268326 28.929508 87.125 28.9375 C 85.258761 29.041572 82.164152 29.699292 78.46875 30.625 C 74.773348 31.550708 70.674771 32.735054 67.46875 33.84375 C 65.635372 34.477786 63.941224 35.080646 62.6875 35.53125 C 62.060638 35.756552 61.570766 35.947609 61.1875 36.09375 C 60.995867 36.166821 60.826395 36.222932 60.6875 36.28125 C 60.618052 36.310409 60.552984 36.334241 60.46875 36.375 C 60.384516 36.415759 60.432141 36.223195 59.875 36.78125 C 58.95854 37.699883 59.246019 38.291754 59.28125 38.59375 C 59.316481 38.895746 59.371456 39.080495 59.4375 39.28125 C 59.569587 39.68276 59.75296 40.065387 59.96875 40.46875 C 60.326007 41.136349 61.10684 41.940552 62.03125 42.28125 C 62.19186 42.340444 62.399558 42.301899 62.5625 42.34375 C 62.677687 43.593166 63.400572 44.111586 63.9375 44.5 C 64.519223 44.920819 65.16355 45.240562 65.875 45.53125 C 67.297901 46.112625 68.93541 46.5625 70.53125 46.5625 C 71.578687 46.5625 71.978552 46.800407 72.1875 47.03125 C 72.853409 47.767032 73.416136 48.581718 74.84375 48.71875 C 75.557557 48.787266 76.24304 48.529524 76.6875 48.25 C 77.13196 47.970476 77.45432 47.670884 77.78125 47.34375 C 78.545125 46.579715 78.686746 45.886073 78.875 45.15625 C 79.063254 44.426427 79.170576 43.647216 79.21875 42.875 C 79.266924 42.102784 79.26734 41.349892 79.15625 40.625 C 79.148729 40.575924 79.131159 40.519097 79.125 40.46875 C 81.367955 40.078359 83.596524 39.678387 85.125 39.4375 C 86.084001 39.286362 86.866014 39.173412 87.40625 39.09375 C 87.676368 39.053919 87.889854 39.019594 88.03125 39 C 88.164384 38.99892 88.152005 38.972743 88.1875 38.96875 A 1.9869071 1.9869071 0 0 0 90 37 L 90 31 A 1.9869071 1.9869071 0 0 0 89.4375 29.625 C 88.695033 28.849463 88.310086 28.977203 88 28.9375 C 87.844957 28.917649 87.706658 28.903285 87.5625 28.90625 z "
       transform="translate(0,956.36218)"
       id="path3048" />
    <path
       style="fill:#ffffff"
       d="m 48.863696,1001.3604 c 1.635759,-2.7018 2.019778,-4.3573 1.138608,-4.9081 -0.56103,-0.3507 -0.823384,-0.03 -1.030086,1.3176 -0.224588,1.4475 -0.564086,1.8208 -1.783527,1.9616 -1.240419,0.1405 -1.572779,-0.092 -1.883963,-1.332 -0.207721,-0.8279 -0.108227,-1.9368 0.221106,-2.4644 0.528003,-0.8457 0.03047,-1.1637 -4.200331,-2.6879 -5.696982,-2.052 -6.263055,-1.8091 -6.649637,2.8528 -0.2127,2.5638 -0.05812,3.1982 1.1126,4.559 1.31129,1.5244 1.406502,1.5478 2.67997,0.6557 1.982189,-1.388 5.151052,-1.1874 7.005853,0.4444 0.856016,0.7529 1.723298,1.3774 1.927226,1.3869 0.203781,0 0.861921,-0.794 1.462205,-1.7856 z"
       id="path2906"
       inkscape:connector-curvature="0" />
    <path
       style="fill:#803300"
       d="m 53.97841,995.6385 c 0.297536,-0.7825 0.540971,-1.6207 0.540971,-1.8624 0,-0.521 -10.786711,-6.2352 -20.194134,-10.698 -7.5302,-3.57218 -7.598328,-3.56607 -9.869422,0.884 -0.895307,1.754 -0.961741,2.2452 -0.357007,2.6371 0.408704,0.2649 4.612236,1.7325 9.341225,3.2608 4.728983,1.5286 10.969577,3.7486 13.867966,4.9333 2.898446,1.1847 5.46326,2.1799 5.699626,2.2111 0.236244,0.032 0.673205,-0.5833 0.970775,-1.3659 z"
       id="path2904"
       inkscape:connector-curvature="0" />
    <path
       style="fill:#000000;fill-opacity:1"
       d="m 59.1875,40.09375 c -1.562014,-0.04346 -3.288019,0.742956 -4.5625,1.84375 -1.274481,1.100794 -2.541785,2.578227 -4.4375,4.84375 -1.07284,1.28222 -1.914394,2.290419 -2.53125,3.0625 -0.616856,0.772081 -0.922699,1.113385 -1.34375,1.875 -0.105263,0.190404 -0.276327,0.326363 -0.40625,1.125 -0.06496,0.399318 -0.186526,1.165553 0.4375,2.15625 2.897055,2.320753 2.832054,0.371988 2.875,3.71875 0.302713,1.414508 1.015963,2.132626 1.6875,2.78125 0.671537,0.648624 1.445581,1.240313 2.40625,1.96875 1.430278,1.084528 2.476041,2.00848 4.28125,2.3125 1.805209,0.30402 3.207143,-0.333562 4.65625,-0.9375 1.698113,-0.708135 3.845652,-1.984949 5.875,-3.28125 1.014674,-0.64815 1.939137,-1.28774 2.6875,-1.84375 0.374182,-0.278005 0.709174,-0.517446 1.03125,-0.8125 0.161038,-0.147527 0.317416,-0.294918 0.53125,-0.5625 0.120171,-0.150376 0.299529,-0.383553 0.46875,-0.75 1.560801,0.36653 3.627826,0.8814 4.40625,1.03125 0.683829,0.131792 1.311715,0.250443 1.78125,0.34375 0.234768,0.04665 0.436878,0.0986 0.5625,0.125 0.04212,0.01424 0.08078,0.01962 0.125,0.03125 0.05443,0.01431 0.09314,0.01848 0.15625,0.03125 0.197214,0.0399 0.74902,0.06255 0.75,0.0625 9.8e-4,-4.5e-5 1.061732,-0.249672 1.0625,-0.25 7.68e-4,-3.28e-4 1.030693,-0.749392 1.03125,-0.75 5.57e-4,-6.08e-4 0.593401,-0.936614 0.59375,-0.9375 3.49e-4,-8.86e-4 0.16223,-0.543639 0.1875,-0.75 0.05054,-0.412723 0.0295,-0.686423 0,-0.875 C 83.382016,54.901944 83.255158,54.888705 83.1875,54.75 83.052185,54.472589 82.97748,54.349355 82.875,54.1875 82.670041,53.86379 82.427405,53.509223 82.125,53.09375 81.766231,52.600782 81.415138,52.142203 81.03125,51.75 80.839306,51.553898 80.647273,51.366185 80.375,51.15625 80.201236,51.02227 79.95576,50.829976 79.5,50.65625 79.40291,50.590531 79.262344,50.49279 79.0625,50.34375 78.579078,49.983223 77.896483,49.463305 77.1875,48.875 75.263926,47.278337 72.165389,45.52173 68.90625,43.84375 65.647111,42.16577 62.824373,40.746462 60.375,40.25 60.08,40.190248 59.704249,40.108124 59.1875,40.09375 z"
       transform="translate(0,956.36218)"
       id="path3055"
       inkscape:connector-curvature="0"
       sodipodi:nodetypes="sscsssccssscssssccscsssssssssscsscscscs" />
    <path
       style="fill:#ffcc00;fill-opacity:1"
       d="m 61.055164,1018.3908 c 2.446208,-1.0201 8.996397,-5.2086 8.996397,-5.7531 0,-0.5421 -7.282828,-2.8179 -9.017465,-2.8179 -1.793509,0 -3.86271,0.7633 -6.941655,2.5606 -2.779016,1.6217 -2.659692,2.1882 1.053938,5.0041 2.787157,2.1134 3.117528,2.1696 5.908785,1.0063 z"
       id="path2900"
       inkscape:connector-curvature="0" />
    <path
       style="fill:#ffffff"
       d="m 54.269843,1009.522 1.636335,-0.7213 -1.771892,-0.046 c -2.308766,-0.06 -4.964124,2.108 -4.396393,3.5873 0.361989,0.9432 0.506485,0.8966 1.64621,-0.5327 0.687176,-0.8619 1.985771,-1.8917 2.88574,-2.2885 z"
       id="path2898"
       inkscape:connector-curvature="0" />
    <path
       style="fill:#ffcc00;fill-opacity:1"
       d="m 79.64635,1011.2244 c -0.54816,-0.7532 -1.156709,-1.3774 -1.352305,-1.387 -0.195548,0 -1.568535,-1.0244 -3.050963,-2.2545 -2.835852,-2.3539 -12.619979,-7.4065 -15.453872,-7.9809 -1.942067,-0.3934 -2.977504,0.392 -7.254054,5.5028 -4.264685,5.097 -4.628538,5.7637 -1.711727,3.1369 2.084913,-1.8778 2.942537,-2.3247 3.879679,-2.0232 0.661697,0.213 2.700816,0.7565 4.531405,1.2072 1.830554,0.4509 6.199003,1.5547 9.707591,2.4526 3.508616,0.8981 7.502542,1.8492 8.875498,2.1135 1.372934,0.2646 2.570324,0.5081 2.660805,0.5411 0.09031,0.034 -0.283907,-0.5554 -0.832057,-1.3085 z"
       id="path2896"
       inkscape:connector-curvature="0" />
    <path
       style="fill:#ffffff"
       d="m 75.987506,996.1722 c -2.749494,0.053 -11.475773,1.6992 -11.475773,2.2882 0,0.9656 3.691202,2.4786 6.032579,2.4786 1.40957,0 2.450822,0.37 3.12027,1.1096 1.210577,1.3376 1.587823,1.3764 2.721616,0.2419 0.947801,-0.948 1.222113,-5.5023 0.364035,-6.0328 -0.10572,-0.066 -0.369927,-0.095 -0.762727,-0.085 z m -1.21346,0.8841 c 1.250534,0 2.089936,2.0147 1.386818,3.3283 -0.326584,0.6102 -0.950614,1.1097 -1.386818,1.1097 -0.436175,0 -1.060247,-0.4995 -1.386781,-1.1097 -0.703124,-1.3136 0.136491,-3.3283 1.386781,-3.3283 z"
       id="path2894"
       inkscape:connector-curvature="0" />
    <path
       style="fill:#803300"
       d="M 77.262898,995.1199 C 83.212232,994.0541 87.8891,993.3631 88,993.3622 l 0,-6 c -0.608856,-0.636 -12.754745,2.2385 -19.881927,4.7032 -3.656716,1.2646 -6.734844,2.3851 -6.840271,2.4907 -0.10545,0.1057 0.08706,0.712 0.427518,1.3484 0.861197,1.6093 2.720109,1.5154 15.557578,-0.7846 z"
       id="path2888"
       inkscape:connector-curvature="0"
       sodipodi:nodetypes="ccccccc" />
    <path
       style="fill:#ffcc00;fill-opacity:1;fill-rule:evenodd;stroke:none"
       d="M 7.59375 90 L 90.84375 90 C 91.280183 90 91.68477 89.909513 92.0625 89.75 C 92.12462 89.723767 92.158747 89.655018 92.21875 89.625 C 91.747416 88.457709 91.304566 87.294625 90.5625 86.125 C 88.467623 82.823108 85.310005 79.675421 81.34375 77.03125 C 73.411238 71.742909 62.28993 68.375 50 68.375 C 37.71007 68.375 26.588762 71.742909 18.65625 77.03125 C 14.689994 79.675421 11.532374 82.823108 9.4375 86.125 C 8.6151033 87.421243 8.0842018 88.706658 7.59375 90 z "
       id="path3069"
       transform="translate(0,956.36218)" />
    <path
       style="fill:#000000;fill-opacity:0.18721463;fill-rule:nonzero;stroke:none"
       d="m 1.0459761,1041.8066 0,7.4219 c 0,1.7392 1.461916,3.1337 3.2852054,3.1337 l 86.3836135,0 c 1.823288,0 3.285205,-1.3945 3.285205,-3.1337 l 0,-7.4219 -92.9540239,0 z"
       id="rect3785"
       inkscape:connector-curvature="0" />
    <path
       style="fill:#000000;fill-opacity:0.38356168;fill-rule:nonzero;stroke:none"
       d="m 1.0459761,1041.8066 0,5.3807 c 0,1.762 1.461916,3.1749 3.2852054,3.1749 l 86.3836135,0 c 1.823288,0 3.285205,-1.4129 3.285205,-3.1749 l 0,-5.3807 -92.9540239,0 z"
       id="rect3783"
       inkscape:connector-curvature="0" />
    <path
       style="fill:#000000;fill-opacity:0.38356168;fill-rule:nonzero;stroke:none"
       d="m 1,1042.3622 0.045976,2.7457 c 0.03024,1.8058 1.461916,3.2543 3.2852054,3.2543 l 86.3836136,0 c 1.823288,0 3.285205,-1.4481 3.285205,-3.2543 l -0.04598,-2.7457 z"
       id="rect3781"
       inkscape:connector-curvature="0"
       sodipodi:nodetypes="csssscc" />
    <rect
       style="fill:#ffffff;fill-opacity:0.30000001;fill-rule:nonzero;stroke:none"
       id="rect3770"
       width="92.954033"
       height="2.000005"
       x="1.045976"
       y="1040.3622" />
  </g>
</svg>
