<?xml version="1.0" encoding="UTF-8" standalone="no"?>
<!-- Created with Inkscape (http://www.inkscape.org/) -->

<svg
   xmlns:dc="http://purl.org/dc/elements/1.1/"
   xmlns:cc="http://creativecommons.org/ns#"
   xmlns:rdf="http://www.w3.org/1999/02/22-rdf-syntax-ns#"
   xmlns:svg="http://www.w3.org/2000/svg"
   xmlns="http://www.w3.org/2000/svg"
   xmlns:xlink="http://www.w3.org/1999/xlink"
   xmlns:sodipodi="http://sodipodi.sourceforge.net/DTD/sodipodi-0.dtd"
   xmlns:inkscape="http://www.inkscape.org/namespaces/inkscape"
   width="96"
   height="96"
   id="svg2"
   version="1.1"
   inkscape:version="0.48.4 r9939"
   sodipodi:docname="application-x-clementine.svg">
  <defs
     id="defs4">
    <linearGradient
       id="linearGradient3876">
      <stop
         style="stop-color:#ffffff;stop-opacity:1;"
         offset="0"
         id="stop3878" />
      <stop
         style="stop-color:#575757;stop-opacity:1;"
         offset="1"
         id="stop3880" />
    </linearGradient>
    <linearGradient
       id="linearGradient3795-83">
      <stop
         style="stop-color:#676767;stop-opacity:1;"
         offset="0"
         id="stop3797-75" />
      <stop
         style="stop-color:#d1cdc9;stop-opacity:1;"
         offset="1"
         id="stop3799-93" />
    </linearGradient>
    <filter
       color-interpolation-filters="sRGB"
       id="filter7119"
       inkscape:collect="always">
      <feGaussianBlur
         id="feGaussianBlur7121"
         stdDeviation="0.64286277"
         inkscape:collect="always" />
    </filter>
    <linearGradient
       id="linearGradient7133">
      <stop
         id="stop7135"
         offset="0"
         style="stop-color:#6a6a6a;stop-opacity:1;" />
      <stop
         id="stop7137"
         offset="1"
         style="stop-color:#1a1a1a;stop-opacity:1;" />
    </linearGradient>
    <radialGradient
       inkscape:collect="always"
       xlink:href="#linearGradient3795-83"
       id="radialGradient3868"
       gradientUnits="userSpaceOnUse"
       gradientTransform="matrix(1.9687081,0.06448813,-0.01892005,0.57949911,-74.38412,5.0183824)"
       cx="77.251411"
       cy="23.781593"
       fx="77.251411"
       fy="23.781593"
       r="13.611805" />
    <radialGradient
       inkscape:collect="always"
       xlink:href="#linearGradient7133"
       id="radialGradient3870"
       gradientUnits="userSpaceOnUse"
       cx="77.251411"
       cy="23.781593"
       fx="77.251411"
       fy="23.781593"
       r="13.611805" />
    <radialGradient
       inkscape:collect="always"
       xlink:href="#linearGradient3876"
       id="radialGradient3882"
       cx="49.661182"
       cy="1038.4019"
       fx="49.661182"
       fy="1038.4019"
       r="18.343875"
       gradientTransform="matrix(2.9408846,0.58382511,-0.07383949,0.37194942,-22.727241,618.49025)"
       gradientUnits="userSpaceOnUse" />
  </defs>
  <sodipodi:namedview
     id="base"
     pagecolor="#ffffff"
     bordercolor="#666666"
     borderopacity="1.0"
     inkscape:pageopacity="0.0"
     inkscape:pageshadow="2"
     inkscape:zoom="5.90625"
     inkscape:cx="37.212316"
     inkscape:cy="49.621814"
     inkscape:document-units="px"
     inkscape:current-layer="layer1"
     showgrid="true"
     inkscape:snap-page="true"
     inkscape:snap-global="false"
     inkscape:snap-center="true"
     inkscape:snap-object-midpoints="false"
     showguides="true"
     inkscape:guide-bbox="true"
     inkscape:snap-bbox="true"
     inkscape:object-paths="true"
     inkscape:object-nodes="true"
     inkscape:window-width="1305"
     inkscape:window-height="744"
     inkscape:window-x="61"
     inkscape:window-y="24"
     inkscape:window-maximized="1"
     inkscape:snap-midpoints="false"
     inkscape:snap-grids="true"
     inkscape:snap-to-guides="false">
    <inkscape:grid
       type="xygrid"
       id="grid3002"
       empspacing="5"
       visible="true"
       enabled="true"
       snapvisiblegridlinesonly="true" />
  </sodipodi:namedview>
  <metadata
     id="metadata7">
    <rdf:RDF>
      <cc:Work
         rdf:about="">
        <dc:format>image/svg+xml</dc:format>
        <dc:type
           rdf:resource="http://purl.org/dc/dcmitype/StillImage" />
        <dc:title />
      </cc:Work>
    </rdf:RDF>
  </metadata>
  <g
     inkscape:label="Layer 1"
     inkscape:groupmode="layer"
     id="layer1"
     transform="translate(0,-956.36218)">
    <rect
       style="fill:#ffffff;fill-opacity:0;fill-rule:nonzero;stroke:none"
       id="rect3775"
       width="96"
       height="96"
       x="0"
       y="956.36218"
       ry="0" />
    <path
       style="fill:#000000;fill-opacity:0.09589041;fill-rule:nonzero;stroke:none"
       d="m 3.353015,956.30662 c -1.884176,0 -3.4111555,1.43156 -3.4111555,3.19799 l 0,83.65949 c 0,1.7665 1.5269795,3.1981 3.4111555,3.1981 l 89.23583,0 c 1.884174,0 3.411155,-1.4316 3.411155,-3.1981 l 0,-83.65949 c 0,-1.76643 -1.526981,-3.19799 -3.411155,-3.19799 z"
       id="rect3772"
       inkscape:connector-curvature="0"
       sodipodi:nodetypes="sssssssss" />
    <path
       style="fill:#000000;fill-opacity:0.18721463;fill-rule:nonzero;stroke:none"
       d="m 1.0459761,1041.8066 0,7.4219 c 0,1.7392 1.461916,3.1337 3.2852054,3.1337 l 86.3836135,0 c 1.823288,0 3.285205,-1.3945 3.285205,-3.1337 l 0,-7.4219 -92.9540239,0 z"
       id="rect3785"
       inkscape:connector-curvature="0" />
    <path
       style="fill:#000000;fill-opacity:0.38356168;fill-rule:nonzero;stroke:none"
       d="m 1.0459761,1041.8066 0,5.3807 c 0,1.762 1.461916,3.1749 3.2852054,3.1749 l 86.3836135,0 c 1.823288,0 3.285205,-1.4129 3.285205,-3.1749 l 0,-5.3807 -92.9540239,0 z"
       id="rect3783"
       inkscape:connector-curvature="0" />
    <rect
       style="fill:#363636;fill-opacity:1;fill-rule:nonzero;stroke:none"
       id="rect2985"
       width="92.954025"
       height="89"
       x="1.045977"
       y="957.36218"
       ry="3.1511393" />
    <path
       style="fill:#000000;fill-opacity:0.38356168;fill-rule:nonzero;stroke:none"
       d="m 1,1042.3622 0.045976,2.7457 c 0.03024,1.8058 1.461916,3.2543 3.2852054,3.2543 l 86.3836136,0 c 1.823288,0 3.285205,-1.4481 3.285205,-3.2543 l -0.04598,-2.7457 z"
       id="rect3781"
       inkscape:connector-curvature="0"
       sodipodi:nodetypes="csssscc" />
    <rect
       style="fill:#ffffff;fill-opacity:0.30000001;fill-rule:nonzero;stroke:none"
       id="rect3770"
       width="92.954033"
       height="2.000005"
       x="1.045976"
       y="1040.3622" />
    <g
       id="g3851"
       transform="matrix(0.84703425,0,0,0.84703283,7.3423566,150.86959)">
      <path
         transform="matrix(0,-0.50596684,-0.50596684,0,80.381882,1031.744)"
         d="M 128,64 C 128,99.346224 99.346224,128 64,128 28.653776,128 0,99.346224 0,64 0,28.653776 28.653776,0 64,0 c 35.346224,0 64,28.653776 64,64 z"
         sodipodi:ry="64"
         sodipodi:rx="64"
         sodipodi:cy="64"
         sodipodi:cx="64"
         id="path2993"
         style="fill:#000000;fill-opacity:1;stroke:none"
         sodipodi:type="arc" />
      <g
         transform="matrix(0.70961652,0,0,0.70961652,2.584548,1033.4212)"
         id="g4201">
        <g
           id="g4941"
           transform="matrix(0.64736978,0.64736978,-0.64736978,0.64736978,1.8525011,-68.715833)"
           style="fill:#ff6600">
          <path
             inkscape:connector-curvature="0"
             id="path4922"
             d="m 64,-68.334904 c -20.105283,0 -36.416251,16.262668 -36.416251,36.334904 0,20.072236 16.310968,36.3349041 36.416251,36.3349041 20.105283,0 36.41625,-16.2626681 36.41625,-36.3349041 0,-20.072236 -16.310967,-36.334904 -36.41625,-36.334904 z m 0,5.070617 c 17.292676,0 31.31852,14.000036 31.31852,31.264287 C 95.31852,-14.735749 81.292676,-0.73571332 64,-0.73571332 46.707324,-0.73571332 32.681482,-14.735749 32.681482,-32 32.681482,-49.264251 46.707324,-63.264287 64,-63.264287 z"
             style="fill:#ff6600;fill-opacity:1;stroke:none" />
          <path
             transform="matrix(2.181811,0,0,2.1782246,-104.54832,-83.801918)"
             d="m 90.863216,23.781593 c 0,7.517593 -6.094212,13.611805 -13.611805,13.611805 -7.517592,0 -13.611805,-6.094212 -13.611805,-13.611805 0,-7.517592 6.094213,-13.611805 13.611805,-13.611805 7.517593,0 13.611805,6.094213 13.611805,13.611805 z"
             sodipodi:ry="13.611805"
             sodipodi:rx="13.611805"
             sodipodi:cy="23.781593"
             sodipodi:cx="77.251411"
             id="path1016"
             style="fill:#ff6600;fill-opacity:1;stroke:none"
             sodipodi:type="arc" />
          <path
             sodipodi:type="arc"
             style="fill:#ff6600;fill-opacity:1;stroke:none"
             id="path4918"
             sodipodi:cx="77.251411"
             sodipodi:cy="23.781593"
             sodipodi:rx="13.611805"
             sodipodi:ry="13.611805"
             d="m 90.863216,23.781593 c 0,7.517593 -6.094212,13.611805 -13.611805,13.611805 -7.517592,0 -13.611805,-6.094212 -13.611805,-13.611805 0,-7.517592 6.094213,-13.611805 13.611805,-13.611805 7.517593,0 13.611805,6.094213 13.611805,13.611805 z"
             transform="matrix(0.64377917,0,0,0.64272094,14.266806,-47.285194)" />
        </g>
        <path
           inkscape:connector-curvature="0"
           style="fill:#cccccc;fill-opacity:1;stroke:none"
           d="m 94.162524,-78.162524 c -1.910308,-1.910309 -4.991816,-1.939233 -6.938485,-0.08839 -13.672765,-10.52967 -32.836809,-10.55033 -46.492271,-0.04419 -1.948893,-1.806718 -4.999084,-1.762625 -6.894291,0.132583 -1.895207,1.895207 -1.939301,4.945398 -0.132583,6.894291 -10.506136,13.655461 -10.485477,32.819507 0.04419,46.492271 -1.850845,1.946672 -1.82192,5.028177 0.08839,6.938485 1.910308,1.910308 4.991814,1.939234 6.938485,0.08839 13.672763,10.5296709 32.83681,10.5503318 46.492271,0.04419 1.948894,1.80672 4.999084,1.762625 6.894291,-0.132582 1.895207,-1.895207 1.939302,-4.945397 0.132583,-6.894291 10.506136,-13.655461 10.485476,-32.819507 -0.0442,-46.492271 1.850844,-1.94667 1.82192,-5.028177 -0.08839,-6.938485 z m -5.833631,5.833631 c 13.465877,13.465874 13.487937,35.25824 0.04419,48.701979 -13.443739,13.443739 -35.236105,13.42168 -48.701979,-0.04419 -13.465874,-13.465874 -13.487933,-35.258241 -0.04419,-48.701979 13.443739,-13.443739 35.236105,-13.421681 48.701979,0.04419 z"
           id="path4959" />
        <path
           transform="matrix(1.4124385,1.4124385,-1.4101168,1.4101168,-11.578093,-190.64809)"
           d="m 90.863216,23.781593 c 0,7.517593 -6.094212,13.611805 -13.611805,13.611805 -7.517592,0 -13.611805,-6.094212 -13.611805,-13.611805 0,-7.517592 6.094213,-13.611805 13.611805,-13.611805 7.517593,0 13.611805,6.094213 13.611805,13.611805 z"
           sodipodi:ry="13.611805"
           sodipodi:rx="13.611805"
           sodipodi:cy="23.781593"
           sodipodi:cx="77.251411"
           id="path4961"
           style="fill:url(#radialGradient3868);fill-opacity:1;stroke:none"
           sodipodi:type="arc" />
        <path
           sodipodi:type="inkscape:offset"
           inkscape:radius="-1.5592768"
           inkscape:original="M 63.96875 -81.3125 C 55.445739 -81.322991 46.93458 -78.05958 40.4375 -71.5625 C 27.443341 -58.568341 27.453198 -37.484303 40.46875 -24.46875 C 53.484303 -11.453198 74.568341 -11.44334 87.5625 -24.4375 C 100.55666 -37.431659 100.5468 -58.515697 87.53125 -71.53125 C 81.023473 -78.039026 72.491761 -81.302009 63.96875 -81.3125 z M 63.96875 -76.65625 C 71.300916 -76.649773 78.652622 -73.847379 84.25 -68.25 C 95.444755 -57.055244 95.457603 -38.895104 84.28125 -27.71875 C 73.104896 -16.542395 54.944755 -16.555243 43.75 -27.75 C 32.555244 -38.944756 32.542398 -57.104896 43.71875 -68.28125 C 49.306927 -73.869428 56.636584 -76.662727 63.96875 -76.65625 z "
           style="fill:#ff9955;fill-opacity:1;stroke:none;filter:url(#filter7119)"
           id="path6325"
           d="m 63.96875,-79.75 c -8.123709,-0.01 -16.237273,3.081023 -22.4375,9.28125 -12.397542,12.397542 -12.389222,32.485777 0.03125,44.90625 12.420473,12.420472 32.508708,12.428793 44.90625,0.03125 C 98.866293,-37.928792 98.857971,-58.017027 86.4375,-70.4375 80.227273,-76.647726 72.09507,-79.739997 63.96875,-79.75 z m 0,1.53125 c 7.728554,0.0068 15.478913,2.978912 21.375,8.875 C 97.134283,-57.553216 97.148957,-38.398958 85.375,-26.625 73.601042,-14.851041 54.446783,-14.865715 42.65625,-26.65625 30.865716,-38.446784 30.851045,-57.601042 42.625,-69.375 c 5.886526,-5.886527 13.614647,-8.850578 21.34375,-8.84375 z" />
        <path
           d="m 63.96875,-79.75 c -8.123709,-0.01 -16.237273,3.081023 -22.4375,9.28125 -12.397542,12.397542 -12.389222,32.485777 0.03125,44.90625 12.420473,12.420472 32.508708,12.428793 44.90625,0.03125 C 98.866293,-37.928792 98.857971,-58.017027 86.4375,-70.4375 80.227273,-76.647726 72.09507,-79.739997 63.96875,-79.75 z m 0,1.53125 c 7.728554,0.0068 15.478913,2.978912 21.375,8.875 C 97.134283,-57.553216 97.148957,-38.398958 85.375,-26.625 73.601042,-14.851041 54.446783,-14.865715 42.65625,-26.65625 30.865716,-38.446784 30.851045,-57.601042 42.625,-69.375 c 5.886526,-5.886527 13.614647,-8.850578 21.34375,-8.84375 z"
           id="path7123"
           style="fill:#666666;fill-opacity:1;stroke:none"
           inkscape:original="M 63.96875 -81.3125 C 55.445739 -81.322991 46.93458 -78.05958 40.4375 -71.5625 C 27.443341 -58.568341 27.453198 -37.484303 40.46875 -24.46875 C 53.484303 -11.453198 74.568341 -11.44334 87.5625 -24.4375 C 100.55666 -37.431659 100.5468 -58.515697 87.53125 -71.53125 C 81.023473 -78.039026 72.491761 -81.302009 63.96875 -81.3125 z M 63.96875 -76.65625 C 71.300916 -76.649773 78.652622 -73.847379 84.25 -68.25 C 95.444755 -57.055244 95.457603 -38.895104 84.28125 -27.71875 C 73.104896 -16.542395 54.944755 -16.555243 43.75 -27.75 C 32.555244 -38.944756 32.542398 -57.104896 43.71875 -68.28125 C 49.306927 -73.869428 56.636584 -76.662727 63.96875 -76.65625 z "
           inkscape:radius="-1.5592768"
           sodipodi:type="inkscape:offset"
           transform="matrix(0.69504364,0,0,0.69504364,19.517207,-14.636401)" />
        <path
           transform="matrix(0.62387611,0,0,0.62387611,24.071929,-18.052092)"
           sodipodi:type="inkscape:offset"
           inkscape:radius="-1.5592768"
           inkscape:original="M 63.96875 -81.3125 C 55.445739 -81.322991 46.93458 -78.05958 40.4375 -71.5625 C 27.443341 -58.568341 27.453198 -37.484303 40.46875 -24.46875 C 53.484303 -11.453198 74.568341 -11.44334 87.5625 -24.4375 C 100.55666 -37.431659 100.5468 -58.515697 87.53125 -71.53125 C 81.023473 -78.039026 72.491761 -81.302009 63.96875 -81.3125 z M 63.96875 -76.65625 C 71.300916 -76.649773 78.652622 -73.847379 84.25 -68.25 C 95.444755 -57.055244 95.457603 -38.895104 84.28125 -27.71875 C 73.104896 -16.542395 54.944755 -16.555243 43.75 -27.75 C 32.555244 -38.944756 32.542398 -57.104896 43.71875 -68.28125 C 49.306927 -73.869428 56.636584 -76.662727 63.96875 -76.65625 z "
           style="fill:#666666;fill-opacity:1;stroke:none"
           id="path7125"
           d="m 63.96875,-79.75 c -8.123709,-0.01 -16.237273,3.081023 -22.4375,9.28125 -12.397542,12.397542 -12.389222,32.485777 0.03125,44.90625 12.420473,12.420472 32.508708,12.428793 44.90625,0.03125 C 98.866293,-37.928792 98.857971,-58.017027 86.4375,-70.4375 80.227273,-76.647726 72.09507,-79.739997 63.96875,-79.75 z m 0,1.53125 c 7.728554,0.0068 15.478913,2.978912 21.375,8.875 C 97.134283,-57.553216 97.148957,-38.398958 85.375,-26.625 73.601042,-14.851041 54.446783,-14.865715 42.65625,-26.65625 30.865716,-38.446784 30.851045,-57.601042 42.625,-69.375 c 5.886526,-5.886527 13.614647,-8.850578 21.34375,-8.84375 z" />
        <path
           d="m 63.96875,-79.75 c -8.123709,-0.01 -16.237273,3.081023 -22.4375,9.28125 -12.397542,12.397542 -12.389222,32.485777 0.03125,44.90625 12.420473,12.420472 32.508708,12.428793 44.90625,0.03125 C 98.866293,-37.928792 98.857971,-58.017027 86.4375,-70.4375 80.227273,-76.647726 72.09507,-79.739997 63.96875,-79.75 z m 0,1.53125 c 7.728554,0.0068 15.478913,2.978912 21.375,8.875 C 97.134283,-57.553216 97.148957,-38.398958 85.375,-26.625 73.601042,-14.851041 54.446783,-14.865715 42.65625,-26.65625 30.865716,-38.446784 30.851045,-57.601042 42.625,-69.375 c 5.886526,-5.886527 13.614647,-8.850578 21.34375,-8.84375 z"
           id="path7127"
           style="fill:#666666;fill-opacity:1;stroke:none"
           inkscape:original="M 63.96875 -81.3125 C 55.445739 -81.322991 46.93458 -78.05958 40.4375 -71.5625 C 27.443341 -58.568341 27.453198 -37.484303 40.46875 -24.46875 C 53.484303 -11.453198 74.568341 -11.44334 87.5625 -24.4375 C 100.55666 -37.431659 100.5468 -58.515697 87.53125 -71.53125 C 81.023473 -78.039026 72.491761 -81.302009 63.96875 -81.3125 z M 63.96875 -76.65625 C 71.300916 -76.649773 78.652622 -73.847379 84.25 -68.25 C 95.444755 -57.055244 95.457603 -38.895104 84.28125 -27.71875 C 73.104896 -16.542395 54.944755 -16.555243 43.75 -27.75 C 32.555244 -38.944756 32.542398 -57.104896 43.71875 -68.28125 C 49.306927 -73.869428 56.636584 -76.662727 63.96875 -76.65625 z "
           inkscape:radius="-1.5592768"
           sodipodi:type="inkscape:offset"
           transform="matrix(0.55779197,0,0,0.55779197,28.301314,-21.223805)" />
        <rect
           style="fill:#000000;fill-opacity:1;stroke:none"
           id="rect7129"
           width="2.5827677"
           height="12.913839"
           x="78.120689"
           y="-38.068783"
           ry="1.2913839"
           transform="matrix(0.8961948,-0.44366078,0.44366078,0.8961948,0,0)" />
        <rect
           transform="matrix(-0.8961948,-0.44366078,-0.44366078,0.8961948,0,0)"
           ry="1.2913839"
           y="-94.984909"
           x="-36.849884"
           height="12.913839"
           width="2.5827677"
           id="rect7131"
           style="fill:#000000;fill-opacity:1;stroke:none" />
        <path
           sodipodi:type="arc"
           style="fill:url(#radialGradient3870);fill-opacity:1;stroke:none"
           id="path4963"
           sodipodi:cx="77.251411"
           sodipodi:cy="23.781593"
           sodipodi:rx="13.611805"
           sodipodi:ry="13.611805"
           d="m 90.863216,23.781593 c 0,7.517593 -6.094212,13.611805 -13.611805,13.611805 -7.517592,0 -13.611805,-6.094212 -13.611805,-13.611805 0,-7.517592 6.094213,-13.611805 13.611805,-13.611805 7.517593,0 13.611805,6.094213 13.611805,13.611805 z"
           transform="matrix(0.66765024,0.66765024,-0.66655277,0.66655277,28.274713,-115.42901)" />
      </g>
    </g>
    <path
       sodipodi:type="arc"
       style="fill:#000000;fill-opacity:1;fill-rule:evenodd;stroke:#757575;stroke-opacity:1;stroke-width:2;stroke-miterlimit:4;stroke-dasharray:none"
       id="path3849"
       sodipodi:cx="12.5"
       sodipodi:cy="13.5"
       sodipodi:rx="7.5"
       sodipodi:ry="7.5"
       d="m 20,13.5 a 7.5,7.5 0 1 1 -15,0 7.5,7.5 0 1 1 15,0 z"
       transform="translate(0,956.36218)" />
    <path
       style="font-size:11px;font-style:normal;font-variant:normal;font-weight:normal;font-stretch:normal;text-align:end;line-height:125%;letter-spacing:0px;word-spacing:0px;text-anchor:end;fill:#000000;fill-opacity:1;stroke:none;font-family:Andale Mono;-inkscape-font-specification:Andale Mono"
       d="M 33.59375 70.28125 C 33.403987 70.286646 33.15622 70.334085 32.8125 70.46875 C 32.677302 70.521719 32.58425 70.726483 32.4375 70.84375 C 32.11754 70.751584 31.803436 70.5625 31.46875 70.5625 C 30.686457 70.5625 29.459749 70.964599 28.75 72 C 28.040251 73.035401 27.75 74.39356 27.75 76.4375 C 27.75 78.162845 27.890517 79.32646 28.5 80.3125 C 29.109483 81.29854 30.360089 81.6875 31.125 81.6875 C 31.608284 81.6875 32.038629 81.521439 32.46875 81.34375 A 1.5622395 1.5622395 0 0 0 33.21875 81.53125 C 33.67097 81.53125 33.807732 81.592926 34.34375 81.46875 C 34.473753 81.438633 34.691664 81.174066 34.90625 81.03125 C 35.513419 81.426959 36.175657 81.65625 36.71875 81.65625 C 37.299714 81.65625 37.823043 81.550447 38.34375 81.34375 A 1.5622395 1.5622395 0 0 0 39.09375 81.53125 C 39.529729 81.53125 39.704941 81.569357 40.1875 81.46875 C 40.246937 81.456358 40.353079 81.310372 40.4375 81.28125 C 40.444605 81.278799 40.461517 81.283843 40.46875 81.28125 A 1.5622395 1.5622395 0 0 0 41.28125 81.53125 C 41.738888 81.53125 41.860952 81.596715 42.40625 81.46875 C 42.455396 81.457217 42.556268 81.341229 42.625 81.3125 A 1.5622395 1.5622395 0 0 0 43.4375 81.53125 C 43.873479 81.53125 44.048691 81.569357 44.53125 81.46875 C 44.665131 81.440838 44.904526 81.226157 45.125 81.09375 C 45.715813 81.45365 46.353611 81.65625 46.875 81.65625 C 47.455964 81.65625 47.979293 81.550447 48.5 81.34375 A 1.5622395 1.5622395 0 0 0 49.25 81.53125 C 49.69139 81.53125 49.854314 81.57198 50.34375 81.46875 C 50.42802 81.450976 50.588662 81.27431 50.71875 81.21875 A 1.5622395 1.5622395 0 0 0 51.625 81.53125 C 52.082638 81.53125 52.238256 81.580597 52.75 81.46875 C 52.894025 81.437272 53.134714 81.165307 53.375 81 C 53.856974 81.368224 54.425801 81.65625 54.96875 81.65625 C 55.279863 81.65625 55.649486 81.618478 56.125 81.4375 A 1.5622395 1.5622395 0 0 0 56.1875 81.4375 A 1.5622395 1.5622395 0 0 0 56.6875 81.53125 C 57.145138 81.53125 57.300756 81.580597 57.8125 81.46875 C 57.83326 81.464213 57.881565 81.413232 57.90625 81.40625 A 1.5622395 1.5622395 0 0 0 58.59375 81.53125 C 59.03514 81.53125 59.198064 81.57198 59.6875 81.46875 C 59.77177 81.450976 59.932412 81.27431 60.0625 81.21875 A 1.5622395 1.5622395 0 0 0 60.96875 81.53125 C 61.426388 81.53125 61.582006 81.580597 62.09375 81.46875 C 62.217015 81.441809 62.419798 81.185471 62.625 81.0625 C 63.224184 81.440045 63.874009 81.65625 64.40625 81.65625 C 64.997995 81.65625 65.532555 81.559044 66.0625 81.34375 C 66.327472 81.236103 66.592688 81.109917 66.875 80.84375 C 67.157312 80.577583 67.5 80.09321 67.5 79.46875 C 67.5 79.063467 67.44923 78.785191 67.3125 78.375 A 1.5622395 1.5622395 0 0 0 67.28125 78.25 A 1.5622395 1.5622395 0 0 0 67.40625 77.90625 C 67.541486 77.29769 67.5625 76.68861 67.5625 76.125 C 67.5625 75.319632 67.403585 74.497879 66.84375 73.8125 C 66.283915 73.127121 65.37245 72.8125 64.59375 72.8125 C 64.612176 72.8125 64.407098 72.76151 64.03125 72.8125 C 63.560605 72.876348 63.052774 73.180954 62.5625 73.5625 C 61.896039 72.94738 61.081358 72.8125 60.34375 72.8125 C 59.861189 72.8125 59.504258 72.964839 59.09375 73.0625 C 59.107046 72.947353 59.217991 72.827574 59.21875 72.71875 C 59.218812 72.709843 59.21875 72.696357 59.21875 72.6875 C 59.228037 72.334137 59.244852 71.892443 58.84375 71.3125 C 58.43415 70.720271 57.638145 70.5 57.21875 70.5 C 56.701252 70.5 56.103688 70.799399 55.71875 71.21875 A 1.5622395 1.5622395 0 0 0 54.8125 70.9375 C 54.440821 70.9375 54.239516 70.859335 53.65625 71.03125 C 53.364617 71.117208 52.886191 71.395342 52.625 71.8125 C 52.363809 72.229658 52.34375 72.592435 52.34375 72.8125 L 52.34375 73.0625 C 51.897237 72.905105 51.434162 72.8125 51 72.8125 C 50.081184 72.8125 49.304 73.016526 48.625 73.3125 C 48.128588 73.015197 47.581633 72.8125 47.0625 72.8125 C 47.080926 72.8125 46.875848 72.76151 46.5 72.8125 C 46.02372 72.877113 45.494128 73.172488 45 73.5625 C 44.452003 73.096064 43.734651 72.8125 43.09375 72.8125 C 42.734142 72.8125 42.365453 72.977235 42 73.0625 C 41.575764 72.89612 41.138745 72.8125 40.75 72.8125 C 40.714697 72.8125 40.501323 72.769173 40.125 72.8125 C 39.499577 72.884521 38.933192 73.055935 38.4375 73.28125 C 37.949631 72.999375 37.412054 72.8125 36.90625 72.8125 C 36.924676 72.8125 36.719598 72.76151 36.34375 72.8125 C 36.129989 72.841499 35.894751 72.968413 35.65625 73.0625 L 35.65625 71.875 A 1.5622395 1.5622395 0 0 0 34.09375 70.3125 C 33.915273 70.3125 33.783513 70.275854 33.59375 70.28125 z "
       transform="translate(0,956.36218)"
       id="path3889" />
    <text
       xml:space="preserve"
       style="font-size:11px;font-style:normal;font-variant:normal;font-weight:normal;font-stretch:normal;text-align:end;line-height:125%;letter-spacing:0px;word-spacing:0px;text-anchor:end;fill:url(#radialGradient3882);fill-opacity:1;stroke:none;font-family:Andale Mono;-inkscape-font-specification:Andale Mono"
       x="66.294861"
       y="1036.3331"
       id="text3872"
       sodipodi:linespacing="125%"><tspan
         sodipodi:role="line"
         id="tspan3874"
         x="66.294861"
         y="1036.3331"
         style="font-size:11px;font-style:normal;font-variant:normal;font-weight:normal;font-stretch:normal;text-align:end;line-height:125%;writing-mode:lr-tb;text-anchor:end;fill:url(#radialGradient3882);fill-opacity:1;font-family:Yanone Kaffeesatz;-inkscape-font-specification:Yanone Kaffeesatz">Clementine</tspan></text>
  </g>
</svg>
