<?xml version="1.0" encoding="UTF-8" standalone="no"?>
<!-- Created with Inkscape (http://www.inkscape.org/) -->

<svg
   xmlns:dc="http://purl.org/dc/elements/1.1/"
   xmlns:cc="http://creativecommons.org/ns#"
   xmlns:rdf="http://www.w3.org/1999/02/22-rdf-syntax-ns#"
   xmlns:svg="http://www.w3.org/2000/svg"
   xmlns="http://www.w3.org/2000/svg"
   xmlns:sodipodi="http://sodipodi.sourceforge.net/DTD/sodipodi-0.dtd"
   xmlns:inkscape="http://www.inkscape.org/namespaces/inkscape"
   width="96"
   height="96"
   id="svg2"
   version="1.1"
   inkscape:version="0.48.4 r9939"
   sodipodi:docname="as-icon.svg">
  <defs
     id="defs4" />
  <sodipodi:namedview
     id="base"
     pagecolor="#ffffff"
     bordercolor="#666666"
     borderopacity="1.0"
     inkscape:pageopacity="0.0"
     inkscape:pageshadow="2"
     inkscape:zoom="5.90625"
     inkscape:cx="44.500806"
     inkscape:cy="48"
     inkscape:document-units="px"
     inkscape:current-layer="layer1"
     showgrid="true"
     inkscape:snap-page="true"
     inkscape:snap-global="true"
     inkscape:snap-center="true"
     inkscape:snap-object-midpoints="false"
     showguides="true"
     inkscape:guide-bbox="true"
     inkscape:snap-bbox="true"
     inkscape:object-paths="true"
     inkscape:object-nodes="true"
     inkscape:window-width="1305"
     inkscape:window-height="744"
     inkscape:window-x="61"
     inkscape:window-y="24"
     inkscape:window-maximized="1"
     inkscape:snap-midpoints="false"
     inkscape:snap-grids="true"
     inkscape:snap-to-guides="false">
    <inkscape:grid
       type="xygrid"
       id="grid3002"
       empspacing="5"
       visible="true"
       enabled="true"
       snapvisiblegridlinesonly="true" />
  </sodipodi:namedview>
  <metadata
     id="metadata7">
    <rdf:RDF>
      <cc:Work
         rdf:about="">
        <dc:format>image/svg+xml</dc:format>
        <dc:type
           rdf:resource="http://purl.org/dc/dcmitype/StillImage" />
        <dc:title />
      </cc:Work>
    </rdf:RDF>
  </metadata>
  <g
     inkscape:label="Layer 1"
     inkscape:groupmode="layer"
     id="layer1"
     transform="translate(0,-956.36218)">
    <rect
       style="fill:#ffffff;fill-opacity:0;fill-rule:nonzero;stroke:none"
       id="rect3775"
       width="96"
       height="96"
       x="0"
       y="956.36218"
       ry="0" />
    <path
       style="fill:#000000;fill-opacity:0.09589041;fill-rule:nonzero;stroke:none"
       d="m 3.353015,956.30662 c -1.884176,0 -3.4111555,1.43156 -3.4111555,3.19799 l 0,83.65949 c 0,1.7665 1.5269795,3.1981 3.4111555,3.1981 l 89.23583,0 c 1.884174,0 3.411155,-1.4316 3.411155,-3.1981 l 0,-83.65949 c 0,-1.76643 -1.526981,-3.19799 -3.411155,-3.19799 z"
       id="rect3772"
       inkscape:connector-curvature="0"
       sodipodi:nodetypes="sssssssss" />
    <path
       style="fill:#000000;fill-opacity:0.18721463;fill-rule:nonzero;stroke:none"
       d="m 1.0459761,1041.8066 0,7.4219 c 0,1.7392 1.461916,3.1337 3.2852054,3.1337 l 86.3836135,0 c 1.823288,0 3.285205,-1.3945 3.285205,-3.1337 l 0,-7.4219 -92.9540239,0 z"
       id="rect3785"
       inkscape:connector-curvature="0" />
    <path
       style="fill:#000000;fill-opacity:0.38356168;fill-rule:nonzero;stroke:none"
       d="m 1.0459761,1041.8066 0,5.3807 c 0,1.762 1.461916,3.1749 3.2852054,3.1749 l 86.3836135,0 c 1.823288,0 3.285205,-1.4129 3.285205,-3.1749 l 0,-5.3807 -92.9540239,0 z"
       id="rect3783"
       inkscape:connector-curvature="0" />
    <rect
       style="fill:#d3001b;fill-opacity:1;fill-rule:nonzero;stroke:none"
       id="rect2985"
       width="92.954025"
       height="89"
       x="1.045977"
       y="-1046.3622"
       ry="3.1511393"
       transform="scale(1,-1)" />
    <path
       style="fill:#000000;fill-opacity:0.38356168;fill-rule:nonzero;stroke:none"
       d="m 1,1042.3622 0.045976,2.7457 c 0.03024,1.8058 1.461916,3.2543 3.2852054,3.2543 l 86.3836136,0 c 1.823288,0 3.285205,-1.4481 3.285205,-3.2543 l -0.04598,-2.7457 z"
       id="rect3781"
       inkscape:connector-curvature="0"
       sodipodi:nodetypes="csssscc" />
    <rect
       style="fill:#ffffff;fill-opacity:0.30000001;fill-rule:nonzero;stroke:none"
       id="rect3770"
       width="92.954033"
       height="2.000005"
       x="1.045976"
       y="1040.3622" />
    <path
       inkscape:connector-curvature="0"
       d="m 34.536078,1010.0229 c -1.087422,-0.1502 -3.035923,-0.7823 -4.330049,-1.4047 -8.438961,-4.0588 -11.89232,-14.2633 -7.735736,-22.85835 4.754477,-9.83138 17.712927,-12.33799 25.509191,-4.93426 2.251662,2.13828 3.261586,3.96873 6.647434,12.04791 3.541752,8.4514 4.200212,9.795 5.350477,10.9194 1.226108,1.1983 2.363001,1.5971 4.553388,1.5971 3.583981,0 6.141194,-2.2124 6.141194,-5.3131 0,-2.613 -0.923215,-3.4594 -5.612965,-5.1456 -7.1412,-2.5675 -9.454921,-4.9097 -9.460067,-9.5768 -9.56e-4,-2.50366 0.635351,-4.18464 2.237305,-5.89326 2.305944,-2.45953 6.285926,-3.29181 9.806653,-2.05081 1.491561,0.5257 4.63274,3.3172 4.63274,4.11682 0,0.38708 -1.816951,1.57353 -2.827325,1.84621 -0.529559,0.14291 -0.989636,-0.0382 -1.603733,-0.62994 -1.24827,-1.20365 -2.093003,-1.57506 -3.582308,-1.57506 -2.575492,0 -4.174748,1.55605 -4.174748,4.06203 0,2.49937 1.022024,3.34844 6.094028,5.06291 7.001998,2.3669 9.05718,4.5006 9.107809,9.456 0.04371,4.2725 -1.870899,7.355 -5.699569,9.1758 -1.742534,0.8288 -2.327848,0.9341 -5.172295,0.9295 -4.045341,-0.01 -5.866922,-0.7497 -8.137743,-3.32 -1.525365,-1.7265 -3.07779,-4.9684 -8.040464,-16.7898 -2.057297,-4.90067 -4.704174,-7.29418 -9.106766,-8.23509 -2.222077,-0.47488 -5.330036,-0.0383 -7.363066,1.03488 -1.960793,1.0348 -4.180593,3.37217 -5.22213,5.49852 -0.852548,1.74059 -0.939419,2.22509 -0.939419,5.23599 0,2.8772 0.110019,3.5605 0.829562,5.143 1.089976,2.3978 3.232767,4.6295 5.598886,5.8314 1.705038,0.866 2.238911,0.9705 4.957824,0.9705 2.620114,0 3.298986,-0.1225 4.84505,-0.8722 1.781551,-0.8642 4.176873,-3.0038 5.152659,-4.6025 l 0.506239,-0.8295 1.002454,2.2856 c 0.551387,1.257 1.002502,2.4585 1.002502,2.67 0,0.6244 -2.259314,2.7093 -4.330012,3.9958 -3.148305,1.9558 -6.760992,2.6865 -10.637,2.1516 z"
       id="path3278"
       style="fill:#ffffff" />
  </g>
</svg>
