<?xml version="1.0" encoding="UTF-8" standalone="no"?>
<!-- Created with Inkscape (http://www.inkscape.org/) -->

<svg
   xmlns:dc="http://purl.org/dc/elements/1.1/"
   xmlns:cc="http://creativecommons.org/ns#"
   xmlns:rdf="http://www.w3.org/1999/02/22-rdf-syntax-ns#"
   xmlns:svg="http://www.w3.org/2000/svg"
   xmlns="http://www.w3.org/2000/svg"
   xmlns:sodipodi="http://sodipodi.sourceforge.net/DTD/sodipodi-0.dtd"
   xmlns:inkscape="http://www.inkscape.org/namespaces/inkscape"
   width="96"
   height="96"
   id="svg2"
   version="1.1"
   inkscape:version="0.48.4 r9939"
   sodipodi:docname="autoplus.svg">
  <defs
     id="defs4" />
  <sodipodi:namedview
     id="base"
     pagecolor="#ffffff"
     bordercolor="#666666"
     borderopacity="1.0"
     inkscape:pageopacity="0.0"
     inkscape:pageshadow="2"
     inkscape:zoom="5.90625"
     inkscape:cx="-2.1526881"
     inkscape:cy="48"
     inkscape:document-units="px"
     inkscape:current-layer="layer1"
     showgrid="true"
     inkscape:snap-page="true"
     inkscape:snap-global="true"
     inkscape:snap-center="true"
     inkscape:snap-object-midpoints="false"
     showguides="true"
     inkscape:guide-bbox="true"
     inkscape:snap-bbox="true"
     inkscape:object-paths="true"
     inkscape:object-nodes="true"
     inkscape:window-width="1305"
     inkscape:window-height="744"
     inkscape:window-x="61"
     inkscape:window-y="24"
     inkscape:window-maximized="1"
     inkscape:snap-midpoints="false"
     inkscape:snap-grids="true"
     inkscape:snap-to-guides="false">
    <inkscape:grid
       type="xygrid"
       id="grid3002"
       empspacing="5"
       visible="true"
       enabled="true"
       snapvisiblegridlinesonly="true" />
  </sodipodi:namedview>
  <metadata
     id="metadata7">
    <rdf:RDF>
      <cc:Work
         rdf:about="">
        <dc:format>image/svg+xml</dc:format>
        <dc:type
           rdf:resource="http://purl.org/dc/dcmitype/StillImage" />
        <dc:title />
      </cc:Work>
    </rdf:RDF>
  </metadata>
  <g
     inkscape:label="Layer 1"
     inkscape:groupmode="layer"
     id="layer1"
     transform="translate(0,-956.36218)">
    <rect
       style="fill:#ffffff;fill-opacity:0;fill-rule:nonzero;stroke:none"
       id="rect3775"
       width="96"
       height="96"
       x="0"
       y="956.36218"
       ry="0" />
    <path
       style="fill:#000000;fill-opacity:0.09589041;fill-rule:nonzero;stroke:none"
       d="m 3.353015,956.30662 c -1.884176,0 -3.4111555,1.43156 -3.4111555,3.19799 l 0,83.65949 c 0,1.7665 1.5269795,3.1981 3.4111555,3.1981 l 89.23583,0 c 1.884174,0 3.411155,-1.4316 3.411155,-3.1981 l 0,-83.65949 c 0,-1.76643 -1.526981,-3.19799 -3.411155,-3.19799 z"
       id="rect3772"
       inkscape:connector-curvature="0"
       sodipodi:nodetypes="sssssssss" />
    <path
       style="fill:#000000;fill-opacity:0.18721463;fill-rule:nonzero;stroke:none"
       d="m 1.0459761,1041.8066 0,7.4219 c 0,1.7392 1.461916,3.1337 3.2852054,3.1337 l 86.3836135,0 c 1.823288,0 3.285205,-1.3945 3.285205,-3.1337 l 0,-7.4219 -92.9540239,0 z"
       id="rect3785"
       inkscape:connector-curvature="0" />
    <path
       style="fill:#000000;fill-opacity:0.38356168;fill-rule:nonzero;stroke:none"
       d="m 1.0459761,1041.8066 0,5.3807 c 0,1.762 1.461916,3.1749 3.2852054,3.1749 l 86.3836135,0 c 1.823288,0 3.285205,-1.4129 3.285205,-3.1749 l 0,-5.3807 -92.9540239,0 z"
       id="rect3783"
       inkscape:connector-curvature="0" />
    <rect
       style="fill:#0099ff;fill-opacity:1;fill-rule:nonzero;stroke:none"
       id="rect2985"
       width="92.954025"
       height="89"
       x="1.045977"
       y="-1046.3622"
       ry="3.1511393"
       transform="scale(1,-1)" />
    <path
       style="fill:#000000;fill-opacity:0.38356168;fill-rule:nonzero;stroke:none"
       d="m 1,1042.3622 0.045976,2.7457 c 0.03024,1.8058 1.461916,3.2543 3.2852054,3.2543 l 86.3836136,0 c 1.823288,0 3.285205,-1.4481 3.285205,-3.2543 l -0.04598,-2.7457 z"
       id="rect3781"
       inkscape:connector-curvature="0"
       sodipodi:nodetypes="csssscc" />
    <rect
       style="fill:#ffffff;fill-opacity:0.30000001;fill-rule:nonzero;stroke:none"
       id="rect3770"
       width="92.954033"
       height="2.000005"
       x="1.045976"
       y="1040.3622" />
    <path
       style="color:#000000;fill:#ffffff;fill-opacity:1;fill-rule:nonzero;stroke:none;stroke-width:1;marker:none;visibility:visible;display:inline;overflow:visible;enable-background:accumulate"
       d="m 40.660173,964.13897 c -4.473926,0.93226 -8.671017,2.67988 -12.366037,5.10597 0.10792,2.69241 -0.81937,5.44662 -2.8721,7.49938 -2.05276,2.05274 -4.80698,2.97981 -7.4994,2.87212 -2.42604,3.69497 -4.1737,7.89213 -5.10597,12.36606 1.99593,1.8263 3.19124,4.4212 3.19124,7.3398 0,2.9185 -1.19531,5.5933 -3.19124,7.4195 0.93227,4.474 2.67993,8.5914 5.10597,12.2863 2.69242,-0.1079 5.44664,0.8992 7.4994,2.9519 2.05273,2.0528 2.9798,4.7273 2.8721,7.4196 3.69502,2.4261 7.892111,4.2536 12.366037,5.1858 1.826304,-1.9959 4.421252,-3.271 7.339826,-3.271 2.918599,0 5.513504,1.2751 7.339827,3.271 4.459387,-0.9293 8.679941,-2.7718 12.36604,-5.1858 -0.0044,-0.1443 0,-0.2547 0,-0.3989 0,-2.5563 0.921672,-5.0702 2.872105,-7.0207 2.05276,-2.0527 4.806981,-3.0595 7.499392,-2.9519 2.426047,-3.6949 4.173707,-7.8123 5.105971,-12.2863 -1.995926,-1.8262 -3.191233,-4.501 -3.191233,-7.4195 0,-2.9186 1.195307,-5.5135 3.191233,-7.3398 -0.932264,-4.47393 -2.679924,-8.67109 -5.105971,-12.36606 -2.692411,0.10791 -5.446632,-0.81938 -7.499392,-2.87212 -1.950433,-1.95041 -2.872105,-4.46434 -2.872105,-7.0207 0,-0.14427 -0.0044,-0.33453 0,-0.47868 -3.686099,-2.41396 -7.906654,-4.17674 -12.36604,-5.10597 -1.826323,1.99588 -4.421228,3.27103 -7.339827,3.27103 -2.918573,0 -5.513521,-1.27515 -7.339826,-3.27103 z m 17.711326,11.24911 c 1.138717,0 1.977679,0.12308 3.031665,0.39888 1.537178,0.40305 2.791664,1.64565 2.792351,3.11147 6.89e-4,1.77194 -1.268912,3.03167 -3.191232,3.03167 -0.915829,0 -1.29185,-0.15943 -2.632784,-0.15943 -3.957616,0 -7.173598,3.22289 -7.180268,7.18027 l 0,6.22286 c 0,0.5601 0.47757,0.9574 1.037169,0.9574 l 4.707042,0 c 1.755489,0 3.189847,1.4311 3.191233,3.1912 0,1.7608 -1.436432,3.1912 -3.191233,3.1912 l -5.744211,0 0,7.1803 c 0,7.5055 -6.05727,13.6425 -13.562723,13.6425 -1.13896,0 -1.97769,-0.1228 -3.031668,-0.3988 -1.53719,-0.4029 -2.791663,-1.726 -2.792353,-3.1913 0,-1.7715 1.347813,-3.0316 3.271033,-3.0316 0.914898,0 1.212768,0.1594 2.552988,0.1594 3.957597,0 7.174042,-3.1445 7.180267,-7.1006 l 0,-6.3026 c 0,-0.5589 -0.47757,-0.9574 -1.037177,-0.9574 l -4.70703,0 c -1.75589,0 -3.19124,-1.43 -3.19124,-3.1912 -4.4e-4,-1.7711 1.49653,-3.1912 3.27099,-3.1912 l 5.664457,0 0,-7.1803 c 0,-7.50619 6.056067,-13.56272 13.562725,-13.56272 z"
       id="path3683"
       inkscape:connector-curvature="0" />
  </g>
</svg>
