<?xml version="1.0" encoding="UTF-8" standalone="no"?>
<!-- Created with Inkscape (http://www.inkscape.org/) -->

<svg
   xmlns:dc="http://purl.org/dc/elements/1.1/"
   xmlns:cc="http://creativecommons.org/ns#"
   xmlns:rdf="http://www.w3.org/1999/02/22-rdf-syntax-ns#"
   xmlns:svg="http://www.w3.org/2000/svg"
   xmlns="http://www.w3.org/2000/svg"
   xmlns:xlink="http://www.w3.org/1999/xlink"
   xmlns:sodipodi="http://sodipodi.sourceforge.net/DTD/sodipodi-0.dtd"
   xmlns:inkscape="http://www.inkscape.org/namespaces/inkscape"
   width="96"
   height="96"
   id="svg2"
   version="1.1"
   inkscape:version="0.48.4 r9939"
   sodipodi:docname="avastgui.svg">
  <defs
     id="defs4">
    <linearGradient
       id="linearGradient3785">
      <stop
         style="stop-color:#f99b0c;stop-opacity:1;"
         offset="0"
         id="stop3787" />
      <stop
         style="stop-color:#ffad31;stop-opacity:1;"
         offset="1"
         id="stop3789" />
    </linearGradient>
    <linearGradient
       inkscape:collect="always"
       xlink:href="#linearGradient3785"
       id="linearGradient3791"
       x1="45"
       y1="1047.3622"
       x2="45"
       y2="957.36218"
       gradientUnits="userSpaceOnUse" />
  </defs>
  <sodipodi:namedview
     id="base"
     pagecolor="#ffffff"
     bordercolor="#666666"
     borderopacity="1.0"
     inkscape:pageopacity="0.0"
     inkscape:pageshadow="2"
     inkscape:zoom="5.90625"
     inkscape:cx="46.316348"
     inkscape:cy="50.707224"
     inkscape:document-units="px"
     inkscape:current-layer="layer1"
     showgrid="true"
     inkscape:snap-page="true"
     inkscape:snap-global="true"
     inkscape:snap-center="true"
     inkscape:snap-object-midpoints="false"
     showguides="true"
     inkscape:guide-bbox="true"
     inkscape:snap-bbox="true"
     inkscape:object-paths="true"
     inkscape:object-nodes="true"
     inkscape:window-width="1305"
     inkscape:window-height="744"
     inkscape:window-x="61"
     inkscape:window-y="24"
     inkscape:window-maximized="1"
     inkscape:snap-midpoints="true"
     inkscape:snap-grids="true"
     inkscape:snap-to-guides="false">
    <inkscape:grid
       type="xygrid"
       id="grid3002"
       empspacing="5"
       visible="true"
       enabled="true"
       snapvisiblegridlinesonly="true" />
  </sodipodi:namedview>
  <metadata
     id="metadata7">
    <rdf:RDF>
      <cc:Work
         rdf:about="">
        <dc:format>image/svg+xml</dc:format>
        <dc:type
           rdf:resource="http://purl.org/dc/dcmitype/StillImage" />
        <dc:title />
      </cc:Work>
    </rdf:RDF>
  </metadata>
  <g
     inkscape:label="Layer 1"
     inkscape:groupmode="layer"
     id="layer1"
     transform="translate(0,-956.36218)">
    <rect
       style="fill:#ffffff;fill-opacity:0;fill-rule:nonzero;stroke:none"
       id="rect3775"
       width="96"
       height="96"
       x="0"
       y="956.36218"
       ry="0" />
    <path
       style="fill:#000000;fill-opacity:0.09589041;fill-rule:nonzero;stroke:none"
       d="m 3.353015,956.30662 c -1.884176,0 -3.4111555,1.43156 -3.4111555,3.19799 l 0,83.65949 c 0,1.7665 1.5269795,3.1981 3.4111555,3.1981 l 89.23583,0 c 1.884174,0 3.411155,-1.4316 3.411155,-3.1981 l 0,-83.65949 c 0,-1.76643 -1.526981,-3.19799 -3.411155,-3.19799 z"
       id="rect3772"
       inkscape:connector-curvature="0"
       sodipodi:nodetypes="sssssssss" />
    <path
       style="fill:#000000;fill-opacity:0.18721463;fill-rule:nonzero;stroke:none"
       d="m 1.0459761,1041.8066 0,7.4219 c 0,1.7392 1.461916,3.1337 3.2852054,3.1337 l 86.3836135,0 c 1.823288,0 3.285205,-1.3945 3.285205,-3.1337 l 0,-7.4219 -92.9540239,0 z"
       id="rect3785"
       inkscape:connector-curvature="0" />
    <path
       style="fill:#000000;fill-opacity:0.38356168;fill-rule:nonzero;stroke:none"
       d="m 1.0459761,1041.8066 0,5.3807 c 0,1.762 1.461916,3.1749 3.2852054,3.1749 l 86.3836135,0 c 1.823288,0 3.285205,-1.4129 3.285205,-3.1749 l 0,-5.3807 -92.9540239,0 z"
       id="rect3783"
       inkscape:connector-curvature="0" />
    <rect
       style="fill:url(#linearGradient3791);fill-opacity:1;fill-rule:nonzero;stroke:none"
       id="rect2985"
       width="92.954025"
       height="89"
       x="1.045977"
       y="957.36218"
       ry="3.1511393" />
    <path
       style="fill:#000000;fill-opacity:0.38356168;fill-rule:nonzero;stroke:none"
       d="m 1,1042.3622 0.045976,2.7457 c 0.03024,1.8058 1.461916,3.2543 3.2852054,3.2543 l 86.3836136,0 c 1.823288,0 3.285205,-1.4481 3.285205,-3.2543 l -0.04598,-2.7457 z"
       id="rect3781"
       inkscape:connector-curvature="0"
       sodipodi:nodetypes="csssscc" />
    <rect
       style="fill:#ffffff;fill-opacity:0.30000001;fill-rule:nonzero;stroke:none"
       id="rect3770"
       width="92.954033"
       height="2.000005"
       x="1.045976"
       y="1040.3622" />
    <path
       style="fill:#ffffff;fill-opacity:0.24200912;fill-rule:nonzero;stroke:none"
       d="m 15.089607,957.36218 0,51.75132 15.687903,-3.6495 10.862931,5.897 18.205282,2.089 20.149782,9.8697 0,-65.95752 z"
       id="rect3002"
       inkscape:connector-curvature="0"
       sodipodi:nodetypes="cccccccc" />
    <rect
       style="fill:#ffffff;fill-opacity:0.24200912;fill-rule:nonzero;stroke:none"
       id="rect3773"
       width="8.0573835"
       height="19.637789"
       x="29.52821"
       y="957.36218" />
    <rect
       style="fill:#ffffff;fill-opacity:0.24200912;fill-rule:nonzero;stroke:none"
       id="rect3775-7"
       width="17.109304"
       height="17.741077"
       x="58.336456"
       y="957.36218" />
    <path
       style="fill:#616161;fill-opacity:0.24200912;fill-rule:nonzero;stroke:none"
       d="m 37.841774,957.36218 0,39.76477 7.451877,-6.08271 6.397267,6.08271 0,-39.76477 z"
       id="rect3777"
       inkscape:connector-curvature="0"
       sodipodi:nodetypes="cccccc" />
    <rect
       style="fill:#ffffff;fill-opacity:0.24200912;fill-rule:nonzero;stroke:none"
       id="rect3779"
       width="7.8439512"
       height="49.926575"
       x="15.089608"
       y="957.36218" />
    <rect
       style="fill:#ffffff;fill-opacity:0.24200912;fill-rule:nonzero;stroke:none"
       id="rect3781-5"
       width="22.640705"
       height="65.95752"
       x="57.354801"
       y="957.36218" />
    <path
       style="fill:#616161;fill-opacity:0.24200912;fill-rule:nonzero;stroke:none"
       d="m 37.841774,957.36218 0,39.73306 4.662934,4.65146 3.952893,-0.5926 0,-43.79192 z"
       id="rect3783-5"
       inkscape:connector-curvature="0"
       sodipodi:nodetypes="cccccc" />
    <path
       style="fill:#7e7e7e;fill-opacity:0.24200912;fill-rule:nonzero;stroke:none"
       d="m 48.244587,957.36218 0,46.01172 3.446331,-4.05893 0,-41.95279 z"
       id="rect3787"
       inkscape:connector-curvature="0"
       sodipodi:nodetypes="ccccc" />
    <g
       id="g2998"
       transform="matrix(1.0211351,0,0,1.0147311,127.11451,-23.136196)">
      <path
         id="path933"
         d="m -58.997291,976.35329 c -0.484619,0.003 -0.974964,0.0514 -1.467561,0.1473 -3.419357,0.66515 -6.040792,3.22713 -6.743184,6.59589 -0.274301,1.31557 -0.609252,2.34303 -1.031108,3.15882 -0.358606,0.69343 -1.905218,2.20001 -2.804221,2.72782 -1.38914,0.81559 -3.372186,1.27239 -4.179011,0.96565 -3.112601,-0.6949 -6.006854,-0.27775 -9.198233,-0.12549 -1.560146,0.0106 -2.146727,-0.30169 -2.858763,-1.51667 -0.361777,-0.61734 -0.43645,-0.97351 -0.43645,-2.06223 0,-1.57606 -0.432659,-2.7035 -1.358461,-3.55164 -2.46491,-2.25816 -6.478374,-0.44956 -6.492219,2.92423 -0.254561,1.75659 0.740161,2.80802 2.209537,3.55163 1.282005,0.67495 1.977666,1.4537 2.258641,2.53688 0.213509,0.82309 0.200325,0.98397 -0.09275,1.63125 -0.178368,0.39394 -0.47196,0.87181 -0.654681,1.06385 -1.676465,1.76194 -3.394167,4.59078 -3.977169,6.54682 -0.511532,1.7162 -0.796721,4.1704 -0.709235,6.1048 0.082,1.8131 0.07806,1.8377 -0.474641,2.7497 -1.230649,1.748 -3.91464,2.5316 -5.11194,2.215 -1.0373,-0.2759 -2.63962,-0.1769 -2.96787,-0.071 -1.15639,0.3287 -2.17568,1.0464 -3.01152,1.7076 -1.87978,1.9154 -2.22225,4.556 -0.90018,6.9341 0.78574,1.4134 1.92138,2.2612 3.83532,2.8588 1.35678,0.4236 3.12523,0.1075 4.61547,-0.8238 0.809467,-0.5059 0.895437,-0.6021 1.925849,-2.1496 1.289389,-1.9363 2.532337,-2.7122 4.60457,-2.886 1.484404,-0.1245 2.495605,0.1917 3.68256,1.162 0.993882,0.8126 3.162124,2.0016 4.484546,2.4606 1.846029,0.6407 3.347368,0.86 6.48132,0.9383 2.544183,0.063 3.273949,0.1417 4.135365,0.4419 1.59511,0.556 3.278942,1.6412 4.27723,2.7551 1.09951,1.2269 2.177982,3.4058 2.44413,4.9319 0.623621,3.576 1.908657,5.8081 4.539101,7.8835 1.046298,0.8255 1.963982,1.3086 3.229745,1.7131 0.882349,0.2819 1.474108,0.3307 3.753487,0.2891 3.054728,-0.055 3.81239,-0.2313 5.548405,-1.2821 1.149335,-0.6957 3.172307,-2.5425 3.562548,-3.2516 1.61173,-2.9285 1.947658,-4.031 1.947658,-6.3994 0,-1.1627 -0.108153,-2.2062 -0.289141,-2.8533 -1.269638,-4.5397 -4.508008,-7.4963 -9.209137,-8.4072 -1.634669,-0.3167 -2.183569,-0.4832 -3.229744,-0.9875 -2.439697,-1.1758 -4.66967,-3.9966 -5.291998,-6.694 -0.124668,-0.5405 -0.207961,-2.8676 -0.223673,-6.1105 -0.02064,-4.27925 0.01935,-5.36964 0.234602,-5.96292 1.007331,-2.77641 3.208638,-4.63703 6.077576,-5.13376 2.751411,-0.47637 4.968866,-1.98716 6.186724,-4.21177 0.788722,-1.44076 0.957629,-1.99036 1.085666,-3.57891 0.388407,-4.81893 -3.722482,-8.9629 -8.407165,-8.93635 z M -80.7326,994.60244 c 3.112444,-0.0258 5.586865,0.97016 7.883423,3.16428 1.170704,1.11847 1.523043,1.59095 2.18226,2.94608 0.432349,0.8887 0.824248,1.8776 0.872904,2.1932 0.04865,0.3154 0.149354,0.9001 0.22369,1.3038 0.262168,1.4239 -0.03811,4.1272 -0.627408,5.6194 -1.264314,3.2013 -4.041127,5.7291 -7.392415,6.7268 -1.778053,0.5293 -4.611936,0.4978 -6.388556,-0.071 -1.25248,-0.401 -3.07249,-1.4539 -4.04264,-2.3405 -3.747219,-3.4248 -4.816474,-8.943 -2.585972,-13.3445 1.939454,-3.82738 5.654571,-6.16271 9.874714,-6.19766 z"
         style="fill:#ffffff;fill-opacity:1"
         inkscape:connector-curvature="0"
         sodipodi:nodetypes="csscsccsssccsssssccccsssssssssssscsssssssccsssscssssssscsss" />
      <path
         id="path929"
         d="m -80.81989,998.8742 c -1.855156,0.0204 -3.561906,0.8171 -4.959179,2.346 -1.207689,1.3214 -1.644456,2.5271 -1.653063,4.5281 -0.0053,1.2385 0.073,1.7843 0.387353,2.5751 0.486089,1.2228 1.85103,2.762 3.066077,3.4589 1.488756,0.8539 3.307415,0.624 4.413629,-0.5619 0.46311,-0.4965 0.978245,-1.6718 0.834706,-1.9041 -0.05674,-0.092 -0.682978,-0.1636 -1.3912,-0.1636 -0.708222,0 -1.50822,-0.083 -1.778535,-0.1855 -1.138835,-0.4303 -2.1367,-1.9123 -2.144065,-3.1807 -0.01394,-2.4056 2.527871,-4.1255 4.730036,-3.197 0.711574,0.3001 1.634146,1.2316 1.887673,1.904 0.106808,0.2833 0.185474,1.8911 0.185474,3.7972 l 0,3.3061 0.392807,-0.01 c 0.634357,-0.01 1.770302,-0.6025 2.264103,-1.1893 0.746141,-0.8867 0.885003,-1.5892 0.796525,-4.021 -0.09855,-2.7079 -0.454451,-3.7718 -1.723985,-5.1609 -1.032401,-1.1296 -2.037288,-1.74841 -3.40979,-2.1059 -0.645495,-0.16814 -1.280166,-0.24683 -1.898566,-0.24005 z"
         style="fill:#333333;fill-opacity:1"
         inkscape:connector-curvature="0" />
    </g>
  </g>
</svg>
