<?xml version="1.0" encoding="UTF-8" standalone="no"?>
<!-- Created with Inkscape (http://www.inkscape.org/) -->

<svg
   xmlns:dc="http://purl.org/dc/elements/1.1/"
   xmlns:cc="http://creativecommons.org/ns#"
   xmlns:rdf="http://www.w3.org/1999/02/22-rdf-syntax-ns#"
   xmlns:svg="http://www.w3.org/2000/svg"
   xmlns="http://www.w3.org/2000/svg"
   xmlns:xlink="http://www.w3.org/1999/xlink"
   xmlns:sodipodi="http://sodipodi.sourceforge.net/DTD/sodipodi-0.dtd"
   xmlns:inkscape="http://www.inkscape.org/namespaces/inkscape"
   width="96"
   height="96"
   id="svg2"
   version="1.1"
   inkscape:version="0.48.4 r9939"
   sodipodi:docname="avidemux.svg">
  <defs
     id="defs4">
    <linearGradient
       id="linearGradient3769">
      <stop
         style="stop-color:#ff7700;stop-opacity:1;"
         offset="0"
         id="stop3771" />
      <stop
         style="stop-color:#aa0066;stop-opacity:1;"
         offset="1"
         id="stop3773" />
    </linearGradient>
    <radialGradient
       inkscape:collect="always"
       xlink:href="#linearGradient3769"
       id="radialGradient3775"
       cx="40"
       cy="1012.8341"
       fx="40"
       fy="1012.8341"
       r="46.5"
       gradientTransform="matrix(1,0,0,0.95698884,0,43.091259)"
       gradientUnits="userSpaceOnUse" />
  </defs>
  <sodipodi:namedview
     id="base"
     pagecolor="#ffffff"
     bordercolor="#666666"
     borderopacity="1.0"
     inkscape:pageopacity="0.0"
     inkscape:pageshadow="2"
     inkscape:zoom="5.90625"
     inkscape:cx="47.830688"
     inkscape:cy="48"
     inkscape:document-units="px"
     inkscape:current-layer="layer1"
     showgrid="true"
     inkscape:snap-page="true"
     inkscape:snap-global="true"
     inkscape:snap-center="true"
     inkscape:snap-object-midpoints="false"
     showguides="true"
     inkscape:guide-bbox="true"
     inkscape:snap-bbox="true"
     inkscape:object-paths="true"
     inkscape:object-nodes="true"
     inkscape:window-width="1305"
     inkscape:window-height="744"
     inkscape:window-x="61"
     inkscape:window-y="24"
     inkscape:window-maximized="1"
     inkscape:snap-midpoints="false"
     inkscape:snap-grids="true"
     inkscape:snap-to-guides="false">
    <inkscape:grid
       type="xygrid"
       id="grid3002"
       empspacing="5"
       visible="true"
       enabled="true"
       snapvisiblegridlinesonly="true" />
  </sodipodi:namedview>
  <metadata
     id="metadata7">
    <rdf:RDF>
      <cc:Work
         rdf:about="">
        <dc:format>image/svg+xml</dc:format>
        <dc:type
           rdf:resource="http://purl.org/dc/dcmitype/StillImage" />
        <dc:title />
      </cc:Work>
    </rdf:RDF>
  </metadata>
  <g
     inkscape:label="Layer 1"
     inkscape:groupmode="layer"
     id="layer1"
     transform="translate(0,-956.36218)">
    <rect
       style="fill:#ffffff;fill-opacity:0;fill-rule:nonzero;stroke:none"
       id="rect3775"
       width="96"
       height="96"
       x="0"
       y="956.36218"
       ry="0" />
    <path
       style="fill:#000000;fill-opacity:0.09589041;fill-rule:nonzero;stroke:none"
       d="m 3.353015,956.30662 c -1.884176,0 -3.4111555,1.43156 -3.4111555,3.19799 l 0,83.65949 c 0,1.7665 1.5269795,3.1981 3.4111555,3.1981 l 89.23583,0 c 1.884174,0 3.411155,-1.4316 3.411155,-3.1981 l 0,-83.65949 c 0,-1.76643 -1.526981,-3.19799 -3.411155,-3.19799 z"
       id="rect3772"
       inkscape:connector-curvature="0"
       sodipodi:nodetypes="sssssssss" />
    <path
       style="fill:#000000;fill-opacity:0.18721463;fill-rule:nonzero;stroke:none"
       d="m 1.0459761,1041.8066 0,7.4219 c 0,1.7392 1.461916,3.1337 3.2852054,3.1337 l 86.3836135,0 c 1.823288,0 3.285205,-1.3945 3.285205,-3.1337 l 0,-7.4219 -92.9540239,0 z"
       id="rect3785"
       inkscape:connector-curvature="0" />
    <path
       style="fill:#000000;fill-opacity:0.38356168;fill-rule:nonzero;stroke:none"
       d="m 1.0459761,1041.8066 0,5.3807 c 0,1.762 1.461916,3.1749 3.2852054,3.1749 l 86.3836135,0 c 1.823288,0 3.285205,-1.4129 3.285205,-3.1749 l 0,-5.3807 -92.9540239,0 z"
       id="rect3783"
       inkscape:connector-curvature="0" />
    <rect
       style="fill:url(#radialGradient3775);fill-opacity:1;fill-rule:nonzero;stroke:none"
       id="rect2985-2"
       width="93"
       height="88.999962"
       x="0.9999969"
       y="957.36224"
       ry="3.1511383" />
    <path
       style="fill:#000000;fill-opacity:0.38356168;fill-rule:nonzero;stroke:none"
       d="m 1,1042.3622 0.045976,2.7457 c 0.03024,1.8058 1.461916,3.2543 3.2852054,3.2543 l 86.3836136,0 c 1.823288,0 3.285205,-1.4481 3.285205,-3.2543 l -0.04598,-2.7457 z"
       id="rect3781"
       inkscape:connector-curvature="0"
       sodipodi:nodetypes="csssscc" />
    <rect
       style="fill:#ffffff;fill-opacity:0.30000001;fill-rule:nonzero;stroke:none"
       id="rect3770"
       width="92.954033"
       height="2.000005"
       x="1.045976"
       y="1040.3622" />
    <path
       style="fill:#ffffff;fill-opacity:1;fill-rule:nonzero;stroke:none"
       d="m 33.905936,997.6186 0,29.4872 L 55.2,1012.3622 z"
       id="rect2988"
       inkscape:connector-curvature="0"
       sodipodi:nodetypes="cccc" />
    <rect
       style="fill:#ffffff;fill-opacity:0.27853884;fill-rule:nonzero;stroke:none"
       id="rect2991"
       width="1"
       height="16.999994"
       x="11"
       y="965.36218" />
    <rect
       y="965.36218"
       x="16"
       height="11.333323"
       width="1"
       id="rect2993"
       style="fill:#ffffff;fill-opacity:0.27853884;fill-rule:nonzero;stroke:none" />
    <rect
       y="965.36212"
       x="21"
       height="16.999994"
       width="1"
       id="rect2995"
       style="fill:#ffffff;fill-opacity:0.27853884;fill-rule:nonzero;stroke:none" />
    <rect
       style="fill:#ffffff;fill-opacity:0.27853884;fill-rule:nonzero;stroke:none"
       id="rect2997"
       width="1"
       height="11.333323"
       x="26"
       y="965.36212" />
    <rect
       style="fill:#ffffff;fill-opacity:0.27853884;fill-rule:nonzero;stroke:none"
       id="rect3005"
       width="1"
       height="16.999994"
       x="31"
       y="965.36212" />
    <rect
       y="965.36212"
       x="36"
       height="11.333323"
       width="1"
       id="rect3007"
       style="fill:#ffffff;fill-opacity:0.27853884;fill-rule:nonzero;stroke:none" />
    <rect
       y="965.36212"
       x="41"
       height="16.999994"
       width="1"
       id="rect3011"
       style="fill:#ffffff;fill-opacity:0.27853884;fill-rule:nonzero;stroke:none" />
    <rect
       style="fill:#ffffff;fill-opacity:0.27853884;fill-rule:nonzero;stroke:none"
       id="rect3013"
       width="1"
       height="11.333323"
       x="46"
       y="965.36212" />
    <rect
       style="fill:#ffffff;fill-opacity:0.27853884;fill-rule:nonzero;stroke:none"
       id="rect3017"
       width="1"
       height="16.999994"
       x="51"
       y="965.36212" />
    <rect
       y="965.36212"
       x="56"
       height="11.333323"
       width="1"
       id="rect3019"
       style="fill:#ffffff;fill-opacity:0.27853884;fill-rule:nonzero;stroke:none" />
    <rect
       y="965.36212"
       x="61"
       height="16.999994"
       width="1"
       id="rect3023"
       style="fill:#ffffff;fill-opacity:0.27853884;fill-rule:nonzero;stroke:none" />
    <rect
       style="fill:#ffffff;fill-opacity:0.27853884;fill-rule:nonzero;stroke:none"
       id="rect3025"
       width="1"
       height="11.333323"
       x="66"
       y="965.36212" />
    <rect
       style="fill:#ffffff;fill-opacity:0.27853884;fill-rule:nonzero;stroke:none"
       id="rect3029"
       width="1"
       height="16.999994"
       x="71"
       y="965.36212" />
    <rect
       y="965.36212"
       x="76"
       height="11.333323"
       width="1"
       id="rect3031"
       style="fill:#ffffff;fill-opacity:0.27853884;fill-rule:nonzero;stroke:none" />
    <rect
       y="965.36212"
       x="81"
       height="16.999994"
       width="1"
       id="rect3035"
       style="fill:#ffffff;fill-opacity:0.27853884;fill-rule:nonzero;stroke:none" />
    <rect
       style="fill:#ffffff;fill-opacity:0.27853884;fill-rule:nonzero;stroke:none"
       id="rect3037"
       width="1"
       height="11.333323"
       x="86"
       y="965.36212" />
    <path
       style="fill:#ffffff;fill-opacity:1;fill-rule:nonzero;stroke:none"
       d="M 40.15625 31 C 26.320501 31 15.125 42.1928 15.125 56 C 15.125 69.807 26.320501 81 40.15625 81 C 53.991999 81 65.21875 69.807 65.21875 56 C 65.21875 42.1928 53.991999 31 40.15625 31 z M 40.15625 34 C 52.213236 34 62 43.8497 62 56 C 62 68.1503 52.213236 78 40.15625 78 C 28.099264 78 18.34375 68.1503 18.34375 56 C 18.34375 43.8497 28.099264 34 40.15625 34 z "
       transform="translate(0,956.36218)"
       id="path3820" />
  </g>
</svg>
