<?xml version="1.0" encoding="UTF-8" standalone="no"?>
<!-- Created with Inkscape (http://www.inkscape.org/) -->

<svg
   xmlns:dc="http://purl.org/dc/elements/1.1/"
   xmlns:cc="http://creativecommons.org/ns#"
   xmlns:rdf="http://www.w3.org/1999/02/22-rdf-syntax-ns#"
   xmlns:svg="http://www.w3.org/2000/svg"
   xmlns="http://www.w3.org/2000/svg"
   xmlns:sodipodi="http://sodipodi.sourceforge.net/DTD/sodipodi-0.dtd"
   xmlns:inkscape="http://www.inkscape.org/namespaces/inkscape"
   width="96"
   height="96"
   id="svg2"
   version="1.1"
   inkscape:version="0.48.4 r9939"
   sodipodi:docname="baobab.svg">
  <defs
     id="defs4" />
  <sodipodi:namedview
     id="base"
     pagecolor="#ffffff"
     bordercolor="#666666"
     borderopacity="1.0"
     inkscape:pageopacity="0.0"
     inkscape:pageshadow="2"
     inkscape:zoom="4.1763494"
     inkscape:cx="5.8579324"
     inkscape:cy="48"
     inkscape:document-units="px"
     inkscape:current-layer="layer1"
     showgrid="true"
     inkscape:snap-page="true"
     inkscape:snap-global="true"
     inkscape:snap-center="true"
     inkscape:snap-object-midpoints="false"
     showguides="true"
     inkscape:guide-bbox="true"
     inkscape:snap-bbox="true"
     inkscape:object-paths="true"
     inkscape:object-nodes="true"
     inkscape:window-width="1305"
     inkscape:window-height="744"
     inkscape:window-x="61"
     inkscape:window-y="24"
     inkscape:window-maximized="1"
     inkscape:snap-midpoints="false"
     inkscape:snap-grids="true"
     inkscape:snap-to-guides="false">
    <inkscape:grid
       type="xygrid"
       id="grid3002"
       empspacing="5"
       visible="true"
       enabled="true"
       snapvisiblegridlinesonly="true" />
  </sodipodi:namedview>
  <metadata
     id="metadata7">
    <rdf:RDF>
      <cc:Work
         rdf:about="">
        <dc:format>image/svg+xml</dc:format>
        <dc:type
           rdf:resource="http://purl.org/dc/dcmitype/StillImage" />
        <dc:title />
      </cc:Work>
    </rdf:RDF>
  </metadata>
  <g
     inkscape:label="Layer 1"
     inkscape:groupmode="layer"
     id="layer1"
     transform="translate(0,-956.36218)">
    <rect
       style="fill:#ffffff;fill-opacity:0;fill-rule:nonzero;stroke:none"
       id="rect3775"
       width="96"
       height="96"
       x="0"
       y="956.36218"
       ry="0" />
    <path
       style="fill:#000000;fill-opacity:0.09589041;fill-rule:nonzero;stroke:none"
       d="m 3.353015,956.30662 c -1.884176,0 -3.4111555,1.43156 -3.4111555,3.19799 l 0,83.65949 c 0,1.7665 1.5269795,3.1981 3.4111555,3.1981 l 89.23583,0 c 1.884174,0 3.411155,-1.4316 3.411155,-3.1981 l 0,-83.65949 c 0,-1.76643 -1.526981,-3.19799 -3.411155,-3.19799 z"
       id="rect3772"
       inkscape:connector-curvature="0"
       sodipodi:nodetypes="sssssssss" />
    <path
       style="fill:#000000;fill-opacity:0.18721463;fill-rule:nonzero;stroke:none"
       d="m 1.0459761,1041.8066 0,7.4219 c 0,1.7392 1.461916,3.1337 3.2852054,3.1337 l 86.3836135,0 c 1.823288,0 3.285205,-1.3945 3.285205,-3.1337 l 0,-7.4219 -92.9540239,0 z"
       id="rect3785"
       inkscape:connector-curvature="0" />
    <path
       style="fill:#000000;fill-opacity:0.38356168;fill-rule:nonzero;stroke:none"
       d="m 1.0459761,1041.8066 0,5.3807 c 0,1.762 1.461916,3.1749 3.2852054,3.1749 l 86.3836135,0 c 1.823288,0 3.285205,-1.4129 3.285205,-3.1749 l 0,-5.3807 -92.9540239,0 z"
       id="rect3783"
       inkscape:connector-curvature="0" />
    <rect
       style="fill:#e29545;fill-opacity:1;fill-rule:nonzero;stroke:none"
       id="rect2985-2"
       width="93"
       height="88.999962"
       x="0.9999969"
       y="957.36224"
       ry="3.1511383" />
    <path
       style="fill:#000000;fill-opacity:0.38356168;fill-rule:nonzero;stroke:none"
       d="m 1,1042.3622 0.045976,2.7457 c 0.03024,1.8058 1.461916,3.2543 3.2852054,3.2543 l 86.3836136,0 c 1.823288,0 3.285205,-1.4481 3.285205,-3.2543 l -0.04598,-2.7457 z"
       id="rect3781"
       inkscape:connector-curvature="0"
       sodipodi:nodetypes="csssscc" />
    <rect
       style="fill:#ffffff;fill-opacity:0.30000001;fill-rule:nonzero;stroke:none"
       id="rect3770"
       width="92.954033"
       height="2.000005"
       x="1.045976"
       y="1040.3622" />
    <path
       style="fill:#3b3b3b;fill-opacity:1;fill-rule:nonzero;stroke:none"
       d="m 17.00515,968.95593 c -1.280555,0 -2.297722,0.88538 -2.297722,2 l 0,7.28125 c 0,-1.11464 1.017167,-2 2.297722,-2 l 22.187383,0 c 2.386983,0.006 2.157529,-4.0353 4.164621,-4.0625 l 6.211031,0 c -1.767604,0.0134 -2.107391,-3.22136 -4.451837,-3.21875 l -28.111198,0 z"
       id="rect3038"
       inkscape:connector-curvature="0" />
    <path
       style="fill:#fffefe;fill-opacity:0.4840183;fill-rule:nonzero;stroke:none"
       d="m 17.022663,976.24336 c -1.280556,0 -2.307307,0.89371 -2.307307,2.00835 l 0,48.74989 c 0,1.1146 1.026751,2.0084 2.307307,2.0084 l 60.67003,0 C 78.973248,1029.01 80,1028.1162 80,1027.0016 l 0,-52.80886 c 0,-1.11464 -1.026752,-2.00835 -2.307307,-2.00835 l -34.341077,0 c -2.007093,0.0272 -1.755437,4.06531 -4.14242,4.05897 z"
       id="rect2985"
       inkscape:connector-curvature="0"
       sodipodi:nodetypes="ssssssssccs" />
    <path
       style="fill:#ffffff;fill-opacity:1;fill-rule:nonzero;stroke:none"
       d="m 43.35025,972.18439 c -2.007092,0.0272 -1.766169,4.06531 -4.153153,4.05897 l -22.174434,0 c -1.280556,0 -2.307307,0.89371 -2.307307,2.00835 l 0,1.35298 c 0,-1.11463 1.026751,-2.00834 2.307307,-2.00834 l 23.194507,0 c 2.386983,0.006 2.146061,-4.03177 4.153152,-4.05897 l 33.322371,0 c 1.280558,0 2.307307,0.89371 2.307307,2.00835 l 0,-1.35299 c 0,-1.11464 -1.026749,-2.00835 -2.307307,-2.00835 l -34.342443,0 z"
       id="path3006"
       inkscape:connector-curvature="0" />
    <path
       sodipodi:type="arc"
       style="opacity:0.55144037;fill:#4d4d4d;fill-opacity:1;fill-rule:nonzero;stroke:none"
       id="path3779"
       sodipodi:cx="-89.383698"
       sodipodi:cy="88.20491"
       sodipodi:rx="14.897284"
       sodipodi:ry="16.80275"
       d="m -74.486414,88.20491 c 0,9.279903 -6.669741,16.80275 -14.897284,16.80275 -8.227542,0 -14.897282,-7.522847 -14.897282,-16.80275 0,-9.279902 6.66974,-16.802749 14.897282,-16.802749 8.227543,0 14.897284,7.522847 14.897284,16.802749 z"
       transform="matrix(1.0308698,0,0,0.91396344,139.50011,926.74612)" />
    <path
       inkscape:connector-curvature="0"
       style="opacity:0.55144037;fill:#1a1a1a;fill-opacity:1;fill-rule:nonzero;stroke:none"
       d="m 62.529269,1009.1963 c 0.0735,-0.6093 0.17681,-1.2148 0.17681,-1.8439 0,-1.0601 -0.09853,-2.0818 -0.303102,-3.0815 -0.204572,-0.9997 -0.49549,-1.9608 -0.884047,-2.8795 -0.388558,-0.9186 -0.887776,-1.80983 -1.439734,-2.62683 -0.551958,-0.8171 -1.174353,-1.5785 -1.869128,-2.2733 -0.555063,-0.5551 -1.184213,-1.025 -1.818611,-1.4902 l -9.042538,12.35133 15.18035,1.8439 z"
       id="path3787" />
  </g>
</svg>
