<?xml version="1.0" encoding="UTF-8" standalone="no"?>
<!-- Created with Inkscape (http://www.inkscape.org/) -->

<svg
   xmlns:dc="http://purl.org/dc/elements/1.1/"
   xmlns:cc="http://creativecommons.org/ns#"
   xmlns:rdf="http://www.w3.org/1999/02/22-rdf-syntax-ns#"
   xmlns:svg="http://www.w3.org/2000/svg"
   xmlns="http://www.w3.org/2000/svg"
   xmlns:xlink="http://www.w3.org/1999/xlink"
   xmlns:sodipodi="http://sodipodi.sourceforge.net/DTD/sodipodi-0.dtd"
   xmlns:inkscape="http://www.inkscape.org/namespaces/inkscape"
   width="96"
   height="96"
   id="svg2"
   version="1.1"
   inkscape:version="0.48.4 r9939"
   sodipodi:docname="bashare.svg">
  <defs
     id="defs4">
    <linearGradient
       id="linearGradient3770">
      <stop
         style="stop-color:#004ae2;stop-opacity:1;"
         offset="0"
         id="stop3772" />
      <stop
         style="stop-color:#00bce2;stop-opacity:1;"
         offset="1"
         id="stop3774" />
    </linearGradient>
    <linearGradient
       inkscape:collect="always"
       xlink:href="#linearGradient3770"
       id="linearGradient3776"
       x1="45"
       y1="-1047.3622"
       x2="45"
       y2="-957.36218"
       gradientUnits="userSpaceOnUse" />
  </defs>
  <sodipodi:namedview
     id="base"
     pagecolor="#ffffff"
     bordercolor="#666666"
     borderopacity="1.0"
     inkscape:pageopacity="0.0"
     inkscape:pageshadow="2"
     inkscape:zoom="5.90625"
     inkscape:cx="48"
     inkscape:cy="48"
     inkscape:document-units="px"
     inkscape:current-layer="layer1"
     showgrid="true"
     inkscape:snap-page="true"
     inkscape:snap-global="true"
     inkscape:snap-center="true"
     inkscape:snap-object-midpoints="false"
     showguides="true"
     inkscape:guide-bbox="true"
     inkscape:snap-bbox="true"
     inkscape:object-paths="true"
     inkscape:object-nodes="true"
     inkscape:window-width="1305"
     inkscape:window-height="744"
     inkscape:window-x="61"
     inkscape:window-y="24"
     inkscape:window-maximized="1"
     inkscape:snap-midpoints="false"
     inkscape:snap-grids="true"
     inkscape:snap-to-guides="false">
    <inkscape:grid
       type="xygrid"
       id="grid3002"
       empspacing="5"
       visible="true"
       enabled="true"
       snapvisiblegridlinesonly="true" />
  </sodipodi:namedview>
  <metadata
     id="metadata7">
    <rdf:RDF>
      <cc:Work
         rdf:about="">
        <dc:format>image/svg+xml</dc:format>
        <dc:type
           rdf:resource="http://purl.org/dc/dcmitype/StillImage" />
        <dc:title />
      </cc:Work>
    </rdf:RDF>
  </metadata>
  <g
     inkscape:label="Layer 1"
     inkscape:groupmode="layer"
     id="layer1"
     transform="translate(0,-956.36218)">
    <rect
       style="fill:#ffffff;fill-opacity:0;fill-rule:nonzero;stroke:none"
       id="rect3775"
       width="96"
       height="96"
       x="0"
       y="956.36218"
       ry="0" />
    <path
       style="fill:#000000;fill-opacity:0.09589041;fill-rule:nonzero;stroke:none"
       d="m 3.353015,956.30662 c -1.884176,0 -3.4111555,1.43156 -3.4111555,3.19799 l 0,83.65949 c 0,1.7665 1.5269795,3.1981 3.4111555,3.1981 l 89.23583,0 c 1.884174,0 3.411155,-1.4316 3.411155,-3.1981 l 0,-83.65949 c 0,-1.76643 -1.526981,-3.19799 -3.411155,-3.19799 z"
       id="rect3772"
       inkscape:connector-curvature="0"
       sodipodi:nodetypes="sssssssss" />
    <path
       style="fill:#000000;fill-opacity:0.18721463;fill-rule:nonzero;stroke:none"
       d="m 1.0459761,1041.8066 0,7.4219 c 0,1.7392 1.461916,3.1337 3.2852054,3.1337 l 86.3836135,0 c 1.823288,0 3.285205,-1.3945 3.285205,-3.1337 l 0,-7.4219 -92.9540239,0 z"
       id="rect3785"
       inkscape:connector-curvature="0" />
    <path
       style="fill:#000000;fill-opacity:0.38356168;fill-rule:nonzero;stroke:none"
       d="m 1.0459761,1041.8066 0,5.3807 c 0,1.762 1.461916,3.1749 3.2852054,3.1749 l 86.3836135,0 c 1.823288,0 3.285205,-1.4129 3.285205,-3.1749 l 0,-5.3807 -92.9540239,0 z"
       id="rect3783"
       inkscape:connector-curvature="0" />
    <rect
       style="fill:url(#linearGradient3776);fill-opacity:1;fill-rule:nonzero;stroke:none"
       id="rect2985"
       width="92.954025"
       height="89"
       x="1.045977"
       y="-1046.3622"
       ry="3.1511393"
       transform="scale(1,-1)" />
    <path
       style="fill:#000000;fill-opacity:0.38356168;fill-rule:nonzero;stroke:none"
       d="m 1,1042.3622 0.045976,2.7457 c 0.03024,1.8058 1.461916,3.2543 3.2852054,3.2543 l 86.3836136,0 c 1.823288,0 3.285205,-1.4481 3.285205,-3.2543 l -0.04598,-2.7457 z"
       id="rect3781"
       inkscape:connector-curvature="0"
       sodipodi:nodetypes="csssscc" />
    <rect
       style="fill:#ffffff;fill-opacity:0.30000001;fill-rule:nonzero;stroke:none"
       id="rect3770"
       width="92.954033"
       height="2.000005"
       x="1.045976"
       y="1040.3622" />
    <path
       sodipodi:type="arc"
       style="fill:#ffffff;fill-opacity:1;fill-rule:nonzero;stroke:none"
       id="path3055"
       sodipodi:cx="-170.71785"
       sodipodi:cy="19.985409"
       sodipodi:rx="24.568253"
       sodipodi:ry="23.938297"
       d="m -146.1496,19.985409 a 24.568253,23.938297 0 1 1 -49.1365,0 24.568253,23.938297 0 1 1 49.1365,0 z"
       transform="matrix(1.3589845,0,0,1.3947471,279.64409,970.8611)" />
    <path
       transform="matrix(1.0683862,0,0,1.0965015,230.03377,976.82166)"
       d="m -146.1496,19.985409 c 0,13.220756 -10.99958,23.938297 -24.56825,23.938297 -13.56867,0 -24.56825,-10.717541 -24.56825,-23.938297 0,-13.2207567 10.99958,-23.9382975 24.56825,-23.9382975 13.56867,0 24.56825,10.7175408 24.56825,23.9382975 z"
       sodipodi:ry="23.938297"
       sodipodi:rx="24.568253"
       sodipodi:cy="19.985409"
       sodipodi:cx="-170.71785"
       id="path3057"
       style="fill:#0099ff;fill-opacity:1;fill-rule:nonzero;stroke:none"
       sodipodi:type="arc" />
    <path
       style="font-size:47.23020935px;font-style:normal;font-variant:normal;font-weight:normal;font-stretch:normal;text-align:end;line-height:125%;letter-spacing:0px;word-spacing:0px;text-anchor:end;fill:#ffffff;fill-opacity:1;stroke:none;font-family:mry_KacstQurn;-inkscape-font-specification:mry_KacstQurn"
       d="m 59.447871,984.20371 c -1.511665,4e-5 -2.812817,0.26473 -3.925157,0.79088 -1.083827,0.49989 -2.006046,1.13523 -2.747609,1.92447 -0.741573,0.76297 -1.311433,1.63644 -1.682209,2.58353 -0.342266,0.92082 -0.504664,1.79439 -0.504664,2.63625 0,1.02606 0.162398,2.03198 0.504664,3.03166 0.342255,0.9734 0.884564,1.794 1.626134,2.4518 0.370779,0.3156 0.723136,0.6069 1.065401,0.8699 0.342255,0.2368 0.776786,0.475 1.261658,0.7118 0.484862,0.2368 1.053753,0.4751 1.738283,0.7382 0.713032,0.2631 1.608183,0.5807 2.663499,0.949 0.541904,0.2105 1.111281,0.4222 1.710246,0.6327 0.598948,0.2105 1.141255,0.5016 1.626137,0.8436 0.513373,0.342 0.919867,0.7656 1.233619,1.2917 0.342247,0.5263 0.504645,1.1881 0.504664,2.0036 -1.9e-5,1.5522 -0.460154,2.7699 -1.429879,3.638 -0.969751,0.8683 -2.190192,1.2918 -3.644787,1.2918 -1.169401,0 -2.091135,-0.2118 -2.775646,-0.6591 -0.68453,-0.4735 -1.19977,-1.0029 -1.542027,-1.5817 -0.342264,-0.6051 -0.586834,-1.1875 -0.700919,-1.7663 -0.08557,-0.6051 -0.112158,-1.0286 -0.112148,-1.2654 l -4.626078,0 c 0,1.6311 0.298223,3.0077 0.897179,4.1653 0.627478,1.1576 1.413873,2.1369 2.355094,2.8999 0.941212,0.7366 1.97121,1.2661 3.112088,1.6081 1.169382,0.342 2.308621,0.5272 3.392457,0.5272 1.454595,0 2.783307,-0.2381 3.981228,-0.6854 1.197896,-0.4472 2.200834,-1.0561 3.027979,-1.8454 0.85563,-0.7892 1.50621,-1.7157 1.962578,-2.7944 0.484854,-1.0786 0.72894,-2.2697 0.728958,-3.5326 -1.8e-5,-1.7626 -0.325309,-3.1657 -0.981289,-4.2443 -0.627497,-1.0787 -1.413407,-1.9522 -2.383132,-2.61 -0.941228,-0.684 -1.999271,-1.2133 -3.140123,-1.5817 -1.14088,-0.3946 -2.197953,-0.7652 -3.196199,-1.1072 -0.342274,-0.1052 -0.748759,-0.2376 -1.233621,-0.4218 -0.48488,-0.1842 -0.973538,-0.4224 -1.429878,-0.71181 -0.427838,-0.28937 -0.779703,-0.65995 -1.093437,-1.10722 -0.313743,-0.47353 -0.476635,-1.0823 -0.476626,-1.79266 -9e-6,-0.42091 0.0812,-0.8709 0.252331,-1.34449 0.19965,-0.47353 0.470804,-0.89711 0.813069,-1.29176 0.370776,-0.3946 0.804329,-0.71225 1.317731,-0.94905 0.541904,-0.26306 1.165902,-0.39541 1.850431,-0.39544 0.45634,3e-5 0.944513,0.0794 1.457914,0.2109 0.541896,0.13157 1.030078,0.3698 1.457916,0.71179 0.456332,0.31573 0.808205,0.73931 1.093436,1.29176 0.285204,0.5262 0.448572,1.18801 0.44859,2.00356 l 4.598039,0 c -1.8e-5,-1.23649 -0.216552,-2.34829 -0.672884,-3.34805 -0.456368,-0.9997 -1.079879,-1.84681 -1.878466,-2.55716 -0.798624,-0.71031 -1.747427,-1.26613 -2.859758,-1.63448 -1.112357,-0.3946 -2.332798,-0.57994 -3.644787,-0.57998 z m -32.130207,0.55362 0,29.20967 9.448411,0 c 2.167637,0 3.929904,-0.3176 5.298961,-0.9227 1.369023,-0.605 2.454124,-1.3462 3.224236,-2.2144 0.770067,-0.8682 1.284822,-1.7683 1.570062,-2.7417 0.285195,-0.9734 0.420526,-1.8469 0.420552,-2.6099 -2.6e-5,-1.1313 -0.16194,-2.1107 -0.532699,-2.9263 -0.370804,-0.8155 -0.832402,-1.5037 -1.345768,-2.0563 -0.484888,-0.5787 -1.00013,-1.0287 -1.542025,-1.3444 -0.51341,-0.342 -0.91942,-0.6067 -1.261659,-0.7909 0.256674,-0.2105 0.527345,-0.4488 0.841106,-0.7381 0.342238,-0.3157 0.668013,-0.6863 0.953252,-1.1073 0.285195,-0.4472 0.529281,-0.9502 0.728958,-1.52901 0.199631,-0.60508 0.28035,-1.31978 0.280368,-2.13536 -1.8e-5,-0.34199 -0.0266,-0.79193 -0.112147,-1.31813 -0.05706,-0.52614 -0.219953,-1.08208 -0.476627,-1.6872 -0.228197,-0.60507 -0.58103,-1.21389 -1.037363,-1.81902 -0.427846,-0.60507 -0.996737,-1.13453 -1.738283,-1.60811 -0.713059,-0.49984 -1.607726,-0.89689 -2.691535,-1.18632 -1.055315,-0.31567 -2.329891,-0.4745 -3.813009,-0.47452 l -8.214791,0 z m 4.626076,3.90165 3.504605,0 c 0.256682,3e-5 0.663176,0.0265 1.233621,0.079 0.598947,0.0263 1.195382,0.1851 1.794357,0.44816 0.627459,0.26311 1.169777,0.66028 1.626135,1.23904 0.456331,0.5525 0.672866,1.34662 0.672885,2.37263 -1.9e-5,0.42096 -0.05367,0.89737 -0.196258,1.39722 -0.114103,0.47357 -0.35819,0.92357 -0.728957,1.34447 -0.342274,0.3946 -0.857525,0.7123 -1.542027,0.9754 -0.656016,0.2631 -1.523615,0.3955 -2.607424,0.3954 l -3.756937,0 0,-8.25141 z m 0,12.15312 4.42982,0 c 0.39929,0 0.833336,0.026 1.289694,0.052 0.456332,0.026 0.917446,0.079 1.373805,0.1846 0.456332,0.1052 0.889893,0.2905 1.31773,0.5535 0.456332,0.2368 0.863311,0.581 1.205585,1.0018 0.313724,0.3947 0.557327,0.8183 0.756994,1.3182 0.228153,0.4999 0.364461,1.0292 0.364479,1.5554 -1.8e-5,0.3683 -0.109259,0.8183 -0.280368,1.3444 -0.142625,0.5263 -0.413295,1.0291 -0.841105,1.5027 -0.427847,0.4736 -1.024776,0.8707 -1.766321,1.2127 -0.74158,0.342 -1.690384,0.5009 -2.859756,0.5009 l -4.990557,0 0,-9.2269 z"
       id="text2996"
       inkscape:connector-curvature="0" />
  </g>
</svg>
