<?xml version="1.0" encoding="UTF-8" standalone="no"?>
<!-- Created with Inkscape (http://www.inkscape.org/) -->

<svg
   xmlns:dc="http://purl.org/dc/elements/1.1/"
   xmlns:cc="http://creativecommons.org/ns#"
   xmlns:rdf="http://www.w3.org/1999/02/22-rdf-syntax-ns#"
   xmlns:svg="http://www.w3.org/2000/svg"
   xmlns="http://www.w3.org/2000/svg"
   xmlns:xlink="http://www.w3.org/1999/xlink"
   xmlns:sodipodi="http://sodipodi.sourceforge.net/DTD/sodipodi-0.dtd"
   xmlns:inkscape="http://www.inkscape.org/namespaces/inkscape"
   width="96"
   height="96"
   id="svg2"
   version="1.1"
   inkscape:version="0.48.4 r9939"
   sodipodi:docname="birdie.svg">
  <defs
     id="defs4">
    <linearGradient
       id="linearGradient3772">
      <stop
         style="stop-color:#006ab0;stop-opacity:1;"
         offset="0"
         id="stop3774" />
      <stop
         style="stop-color:#3db0fd;stop-opacity:1;"
         offset="1"
         id="stop3776" />
    </linearGradient>
    <linearGradient
       inkscape:collect="always"
       xlink:href="#linearGradient3772"
       id="linearGradient3779"
       x1="45"
       y1="1047.3622"
       x2="45"
       y2="957.36218"
       gradientUnits="userSpaceOnUse" />
    <radialGradient
       inkscape:collect="always"
       xlink:href="#linearGradient3778"
       id="radialGradient3048"
       gradientUnits="userSpaceOnUse"
       gradientTransform="matrix(1,0,0,2.55,0,-42.551888)"
       cx="-50.626648"
       cy="27.452831"
       fx="-50.626648"
       fy="27.452831"
       r="0.93579751" />
    <linearGradient
       inkscape:collect="always"
       id="linearGradient3778">
      <stop
         style="stop-color:#ffffff;stop-opacity:1;"
         offset="0"
         id="stop3780" />
      <stop
         style="stop-color:#ffffff;stop-opacity:0;"
         offset="1"
         id="stop3782" />
    </linearGradient>
    <radialGradient
       inkscape:collect="always"
       xlink:href="#linearGradient3778"
       id="radialGradient3046"
       gradientUnits="userSpaceOnUse"
       gradientTransform="matrix(1,0,0,2.55,0,-42.551888)"
       cx="-50.626648"
       cy="27.452831"
       fx="-50.626648"
       fy="27.452831"
       r="0.93579751" />
  </defs>
  <sodipodi:namedview
     id="base"
     pagecolor="#ffffff"
     bordercolor="#666666"
     borderopacity="1.0"
     inkscape:pageopacity="0.0"
     inkscape:pageshadow="2"
     inkscape:zoom="10.807906"
     inkscape:cx="34.362176"
     inkscape:cy="57.213711"
     inkscape:document-units="px"
     inkscape:current-layer="layer1"
     showgrid="true"
     inkscape:snap-page="true"
     inkscape:snap-global="true"
     inkscape:snap-center="true"
     inkscape:snap-object-midpoints="false"
     showguides="true"
     inkscape:guide-bbox="true"
     inkscape:snap-bbox="true"
     inkscape:object-paths="true"
     inkscape:object-nodes="true"
     inkscape:window-width="1305"
     inkscape:window-height="744"
     inkscape:window-x="61"
     inkscape:window-y="24"
     inkscape:window-maximized="1"
     inkscape:snap-midpoints="true"
     inkscape:snap-grids="true"
     inkscape:snap-to-guides="false">
    <inkscape:grid
       type="xygrid"
       id="grid3002"
       empspacing="5"
       visible="true"
       enabled="true"
       snapvisiblegridlinesonly="true" />
  </sodipodi:namedview>
  <metadata
     id="metadata7">
    <rdf:RDF>
      <cc:Work
         rdf:about="">
        <dc:format>image/svg+xml</dc:format>
        <dc:type
           rdf:resource="http://purl.org/dc/dcmitype/StillImage" />
        <dc:title />
      </cc:Work>
    </rdf:RDF>
  </metadata>
  <g
     inkscape:label="Layer 1"
     inkscape:groupmode="layer"
     id="layer1"
     transform="translate(0,-956.36218)">
    <rect
       style="fill:#ffffff;fill-opacity:0;fill-rule:nonzero;stroke:none"
       id="rect3775"
       width="96"
       height="96"
       x="0"
       y="956.36218"
       ry="0" />
    <path
       style="fill:#000000;fill-opacity:0.09589041;fill-rule:nonzero;stroke:none"
       d="m 3.353015,956.30662 c -1.884176,0 -3.4111555,1.43156 -3.4111555,3.19799 l 0,83.65949 c 0,1.7665 1.5269795,3.1981 3.4111555,3.1981 l 89.23583,0 c 1.884174,0 3.411155,-1.4316 3.411155,-3.1981 l 0,-83.65949 c 0,-1.76643 -1.526981,-3.19799 -3.411155,-3.19799 z"
       id="rect3772"
       inkscape:connector-curvature="0"
       sodipodi:nodetypes="sssssssss" />
    <path
       style="fill:#000000;fill-opacity:0.18721463;fill-rule:nonzero;stroke:none"
       d="m 1.0459761,1041.8066 0,7.4219 c 0,1.7392 1.461916,3.1337 3.2852054,3.1337 l 86.3836135,0 c 1.823288,0 3.285205,-1.3945 3.285205,-3.1337 l 0,-7.4219 -92.9540239,0 z"
       id="rect3785"
       inkscape:connector-curvature="0" />
    <path
       style="fill:#000000;fill-opacity:0.38356168;fill-rule:nonzero;stroke:none"
       d="m 1.0459761,1041.8066 0,5.3807 c 0,1.762 1.461916,3.1749 3.2852054,3.1749 l 86.3836135,0 c 1.823288,0 3.285205,-1.4129 3.285205,-3.1749 l 0,-5.3807 -92.9540239,0 z"
       id="rect3783"
       inkscape:connector-curvature="0" />
    <rect
       style="fill:url(#linearGradient3779);fill-opacity:1;fill-rule:nonzero;stroke:none"
       id="rect2985"
       width="92.954025"
       height="89"
       x="1.045977"
       y="957.36218"
       ry="3.1511393" />
    <path
       style="fill:#000000;fill-opacity:0.38356168;fill-rule:nonzero;stroke:none"
       d="m 1,1042.3622 0.045976,2.7457 c 0.03024,1.8058 1.461916,3.2543 3.2852054,3.2543 l 86.3836136,0 c 1.823288,0 3.285205,-1.4481 3.285205,-3.2543 l -0.04598,-2.7457 z"
       id="rect3781"
       inkscape:connector-curvature="0"
       sodipodi:nodetypes="csssscc" />
    <rect
       style="fill:#ffffff;fill-opacity:0.30000001;fill-rule:nonzero;stroke:none"
       id="rect3770"
       width="92.954033"
       height="2.000005"
       x="1.045976"
       y="1040.3622" />
    <rect
       style="fill:#53b1e9;fill-opacity:1;fill-rule:nonzero;stroke:none"
       id="rect2985-1"
       width="84"
       height="84"
       x="-134"
       y="947.36218"
       ry="2.9741092" />
    <path
       transform="matrix(2.4448241,0,0,2.9457047,184.9194,-1925.8869)"
       d="M -56.1875,987.96875 A 0.86709628,0.86709628 0 0 0 -56.375,988 c -1.776383,0.47831 -3.21729,1.59186 -4.5625,2.78125 a 0.86709628,0.86709628 0 0 0 0.125,1.40625 l 4.21875,2.53125 a 0.86709628,0.86709628 0 0 0 0.875,0 L -51.875,992.375 a 0.86709628,0.86709628 0 0 0 0.21875,-1.3125 c -1.037248,-1.18298 -2.250367,-2.55039 -4.28125,-3.0625 a 0.86709628,0.86709628 0 0 0 -0.25,-0.0312 z"
       id="path3807"
       style="fill:#000000;fill-opacity:0.28767126;fill-rule:nonzero;stroke:none"
       inkscape:original="M -56.15625 988.84375 C -57.715399 989.26357 -59.062681 990.27719 -60.375 991.4375 L -56.15625 993.96875 L -52.3125 991.625 C -53.343928 990.44866 -54.393081 989.28835 -56.15625 988.84375 z "
       inkscape:radius="0.86700958"
       sodipodi:type="inkscape:offset" />
    <path
       sodipodi:type="arc"
       style="fill:#000000;fill-opacity:0.43835617;fill-rule:nonzero;stroke:none"
       id="path3004"
       sodipodi:cx="-50.626648"
       sodipodi:cy="27.452831"
       sodipodi:rx="0.93579751"
       sodipodi:ry="2.3862836"
       d="m -49.69085,27.452831 a 0.93579751,2.3862836 0 1 1 -1.871595,0 0.93579751,2.3862836 0 1 1 1.871595,0 z"
       transform="matrix(6.6435072,3.1593838,-1.4736542,3.2957902,408.93835,1053.9428)" />
    <path
       transform="matrix(4.6523516,2.2124706,-1.0319785,2.307994,297.08676,1031.6976)"
       d="m -49.69085,27.452831 a 0.93579751,2.3862836 0 1 1 -1.871595,0 0.93579751,2.3862836 0 1 1 1.871595,0 z"
       sodipodi:ry="2.3862836"
       sodipodi:rx="0.93579751"
       sodipodi:cy="27.452831"
       sodipodi:cx="-50.626648"
       id="path3774"
       style="fill:#000000;fill-opacity:0.68036535;fill-rule:nonzero;stroke:none"
       sodipodi:type="arc" />
    <path
       sodipodi:type="arc"
       style="fill:url(#radialGradient3048);fill-opacity:1;fill-rule:nonzero;stroke:none"
       id="path3776"
       sodipodi:cx="-50.626648"
       sodipodi:cy="27.452831"
       sodipodi:rx="0.93579751"
       sodipodi:ry="2.3862836"
       d="m -49.69085,27.452831 a 0.93579751,2.3862836 0 1 1 -1.871595,0 0.93579751,2.3862836 0 1 1 1.871595,0 z"
       transform="matrix(2.5361466,2.1965026,-1.0245305,1.2581618,188.75362,1057.4104)" />
    <path
       transform="matrix(-6.6435072,3.1593838,1.4736542,3.2957902,-313.93835,1053.9428)"
       d="m -49.69085,27.452831 a 0.93579751,2.3862836 0 1 1 -1.871595,0 0.93579751,2.3862836 0 1 1 1.871595,0 z"
       sodipodi:ry="2.3862836"
       sodipodi:rx="0.93579751"
       sodipodi:cy="27.452831"
       sodipodi:cx="-50.626648"
       id="path3786"
       style="fill:#000000;fill-opacity:0.43835617;fill-rule:nonzero;stroke:none"
       sodipodi:type="arc" />
    <path
       sodipodi:type="arc"
       style="fill:#000000;fill-opacity:0.68036535;fill-rule:nonzero;stroke:none"
       id="path3788"
       sodipodi:cx="-50.626648"
       sodipodi:cy="27.452831"
       sodipodi:rx="0.93579751"
       sodipodi:ry="2.3862836"
       d="m -49.69085,27.452831 a 0.93579751,2.3862836 0 1 1 -1.871595,0 0.93579751,2.3862836 0 1 1 1.871595,0 z"
       transform="matrix(-4.6523516,2.2124706,1.0319785,2.307994,-202.08675,1031.6976)" />
    <path
       transform="matrix(-2.5361466,2.1965026,1.0245305,1.2581618,-93.753645,1057.4104)"
       d="m -49.69085,27.452831 a 0.93579751,2.3862836 0 1 1 -1.871595,0 0.93579751,2.3862836 0 1 1 1.871595,0 z"
       sodipodi:ry="2.3862836"
       sodipodi:rx="0.93579751"
       sodipodi:cy="27.452831"
       sodipodi:cx="-50.626648"
       id="path3790"
       style="fill:url(#radialGradient3046);fill-opacity:1;fill-rule:nonzero;stroke:none"
       sodipodi:type="arc" />
    <path
       style="fill:#b3b3b3;fill-opacity:1;fill-rule:nonzero;stroke:none"
       d="m 46.922625,985.23798 c -0.02421,0.024 -0.04786,0.048 -0.07093,0.073 -3.646419,1.1196 -6.600702,3.726 -9.362046,6.5099 -0.852317,0.8461 -0.696777,2.6507 0.2837,3.2915 l 8.652797,7.66582 c 0.53648,0.3514 1.236634,0.3514 1.773115,0 l 7.943549,-7.22702 c 0.887802,-0.6084 1.105652,-2.1812 0.425548,-3.072 -2.129183,-2.7689 -4.625809,-5.9695 -8.794646,-7.1682 -0.161365,-0.051 -0.329069,-0.076 -0.496469,-0.073 -0.117815,-0.014 -0.236813,-0.014 -0.354628,0 z"
       id="path3804"
       inkscape:connector-curvature="0"
       sodipodi:nodetypes="ccccccccccc" />
    <path
       sodipodi:type="inkscape:offset"
       inkscape:radius="0.86700958"
       inkscape:original="M -56.15625 988.84375 C -57.715399 989.26357 -59.062681 990.27719 -60.375 991.4375 L -56.15625 993.96875 L -52.3125 991.625 C -53.343928 990.44866 -54.393081 989.28835 -56.15625 988.84375 z "
       style="fill:#ffffff;fill-opacity:1;fill-rule:nonzero;stroke:none"
       id="path3797"
       d="M -56.1875,987.96875 A 0.86709628,0.86709628 0 0 0 -56.375,988 c -1.776383,0.47831 -3.21729,1.59186 -4.5625,2.78125 a 0.86709628,0.86709628 0 0 0 0.125,1.40625 l 4.21875,2.53125 a 0.86709628,0.86709628 0 0 0 0.875,0 L -51.875,992.375 a 0.86709628,0.86709628 0 0 0 0.21875,-1.3125 c -1.037248,-1.18298 -2.250367,-2.55039 -4.28125,-3.0625 a 0.86709628,0.86709628 0 0 0 -0.25,-0.0312 z"
       transform="matrix(2.153155,0,0,2.3806319,168.6707,-1366.8358)" />
    <path
       style="fill:#cccccc;fill-opacity:1;fill-rule:nonzero;stroke:none"
       d="m 46.780777,985.31118 c -3.615092,1.1309 -6.547038,3.7433 -9.291116,6.5098 -0.852327,0.8462 -0.696787,2.6507 0.28369,3.2915 l 8.652797,5.92472 c 0.113229,0.063 0.232323,0.1121 0.354629,0.1463 -0.355412,-5.21752 -0.537016,-10.47082 0,-15.87232 z"
       id="path3799"
       inkscape:connector-curvature="0"
       sodipodi:nodetypes="cccccc" />
    <path
       style="fill:#ffffff;fill-opacity:0.28767126;fill-rule:nonzero;stroke:none"
       d="m 31.149683,1046.3622 28.660216,0 c 1.095165,-2.2465 1.787543,-4.7404 1.787543,-7.4354 l 0,-13.5804 c 0,-9.2056 -7.191413,-16.6221 -16.117651,-16.6221 -8.926229,0 -16.117648,7.4165 -16.117648,16.6221 l 0,13.5804 c 0,2.695 0.692383,5.1889 1.78754,7.4354 z"
       id="rect3809"
       inkscape:connector-curvature="0" />
  </g>
</svg>
