<?xml version="1.0" encoding="UTF-8" standalone="no"?>
<!-- Created with Inkscape (http://www.inkscape.org/) -->

<svg
   xmlns:dc="http://purl.org/dc/elements/1.1/"
   xmlns:cc="http://creativecommons.org/ns#"
   xmlns:rdf="http://www.w3.org/1999/02/22-rdf-syntax-ns#"
   xmlns:svg="http://www.w3.org/2000/svg"
   xmlns="http://www.w3.org/2000/svg"
   xmlns:sodipodi="http://sodipodi.sourceforge.net/DTD/sodipodi-0.dtd"
   xmlns:inkscape="http://www.inkscape.org/namespaces/inkscape"
   width="96"
   height="96"
   id="svg2"
   version="1.1"
   inkscape:version="0.48.4 r9939"
   sodipodi:docname="bitcoin.svg">
  <defs
     id="defs4" />
  <sodipodi:namedview
     id="base"
     pagecolor="#ffffff"
     bordercolor="#666666"
     borderopacity="1.0"
     inkscape:pageopacity="0.0"
     inkscape:pageshadow="2"
     inkscape:zoom="4.7847781"
     inkscape:cx="41.45478"
     inkscape:cy="30.127392"
     inkscape:document-units="px"
     inkscape:current-layer="layer1"
     showgrid="true"
     inkscape:snap-page="true"
     inkscape:snap-global="false"
     inkscape:snap-center="true"
     inkscape:snap-object-midpoints="false"
     showguides="true"
     inkscape:guide-bbox="true"
     inkscape:snap-bbox="true"
     inkscape:object-paths="true"
     inkscape:object-nodes="true"
     inkscape:window-width="1305"
     inkscape:window-height="744"
     inkscape:window-x="61"
     inkscape:window-y="24"
     inkscape:window-maximized="1"
     inkscape:snap-midpoints="true"
     inkscape:snap-grids="true"
     inkscape:snap-to-guides="false">
    <inkscape:grid
       type="xygrid"
       id="grid3002"
       empspacing="5"
       visible="true"
       enabled="true"
       snapvisiblegridlinesonly="true" />
  </sodipodi:namedview>
  <metadata
     id="metadata7">
    <rdf:RDF>
      <cc:Work
         rdf:about="">
        <dc:format>image/svg+xml</dc:format>
        <dc:type
           rdf:resource="http://purl.org/dc/dcmitype/StillImage" />
        <dc:title />
      </cc:Work>
    </rdf:RDF>
  </metadata>
  <g
     inkscape:label="Layer 1"
     inkscape:groupmode="layer"
     id="layer1"
     transform="translate(0,-956.36218)">
    <rect
       style="fill:#ffffff;fill-opacity:0;fill-rule:nonzero;stroke:none"
       id="rect3775"
       width="96"
       height="96"
       x="0"
       y="956.36218"
       ry="0" />
    <path
       style="fill:#000000;fill-opacity:0.09589041;fill-rule:nonzero;stroke:none"
       d="m 3.353015,956.30662 c -1.884176,0 -3.4111555,1.43156 -3.4111555,3.19799 l 0,83.65949 c 0,1.7665 1.5269795,3.1981 3.4111555,3.1981 l 89.23583,0 c 1.884174,0 3.411155,-1.4316 3.411155,-3.1981 l 0,-83.65949 c 0,-1.76643 -1.526981,-3.19799 -3.411155,-3.19799 z"
       id="rect3772"
       inkscape:connector-curvature="0"
       sodipodi:nodetypes="sssssssss" />
    <path
       style="fill:#000000;fill-opacity:0.18721463;fill-rule:nonzero;stroke:none"
       d="m 1.0459761,1041.8066 0,7.4219 c 0,1.7392 1.461916,3.1337 3.2852054,3.1337 l 86.3836135,0 c 1.823288,0 3.285205,-1.3945 3.285205,-3.1337 l 0,-7.4219 -92.9540239,0 z"
       id="rect3785"
       inkscape:connector-curvature="0" />
    <path
       style="fill:#000000;fill-opacity:0.38356168;fill-rule:nonzero;stroke:none"
       d="m 1.0459761,1041.8066 0,5.3807 c 0,1.762 1.461916,3.1749 3.2852054,3.1749 l 86.3836135,0 c 1.823288,0 3.285205,-1.4129 3.285205,-3.1749 l 0,-5.3807 -92.9540239,0 z"
       id="rect3783"
       inkscape:connector-curvature="0" />
    <rect
       style="fill:#fca311;fill-opacity:1;fill-rule:nonzero;stroke:none"
       id="rect2985"
       width="92.954025"
       height="89"
       x="1.045977"
       y="957.36218"
       ry="3.1511393" />
    <path
       style="fill:#000000;fill-opacity:0.38356168;fill-rule:nonzero;stroke:none"
       d="m 1,1042.3622 0.045976,2.7457 c 0.03024,1.8058 1.461916,3.2543 3.2852054,3.2543 l 86.3836136,0 c 1.823288,0 3.285205,-1.4481 3.285205,-3.2543 l -0.04598,-2.7457 z"
       id="rect3781"
       inkscape:connector-curvature="0"
       sodipodi:nodetypes="csssscc" />
    <rect
       style="fill:#ffffff;fill-opacity:0.30000001;fill-rule:nonzero;stroke:none"
       id="rect3770"
       width="92.954033"
       height="2.000005"
       x="1.045976"
       y="1040.3622" />
    <path
       style="fill:#3b3b3b;fill-opacity:1;fill-rule:evenodd;stroke:none"
       d="M 47.5 16 C 32.312169 16 20 28.312169 20 43.5 C 20 58.687831 32.312169 71 47.5 71 C 62.687831 71 75 58.687831 75 43.5 C 75 28.312169 62.687831 16 47.5 16 z M 47.5 21 C 59.926407 21 70 31.073593 70 43.5 C 70 55.926407 59.926407 66 47.5 66 C 35.073593 66 25 55.926407 25 43.5 C 25 31.073593 35.073593 21 47.5 21 z M 38.1875 31 L 38.1875 56 L 51.15625 56 C 52.356946 56 53.530561 55.87385 54.65625 55.59375 C 55.806914 55.31365 56.811958 54.86485 57.6875 54.28125 C 58.588013 53.69775 59.318415 52.94165 59.84375 52.03125 C 60.369039 51.09765 60.624975 50.0105 60.625 48.75 C 60.624975 47.186 60.200466 45.8471 59.375 44.75 C 58.574501 43.6296 57.338459 42.88101 55.6875 42.4375 C 56.863178 41.90063 57.780856 41.1841 58.40625 40.34375 C 59.031599 39.48009 59.374977 38.42467 59.375 37.1875 C 59.374977 36.02039 59.14398 35.04367 58.71875 34.25 C 58.318491 33.45637 57.750423 32.84187 57 32.375 C 56.249533 31.88483 55.331855 31.52262 54.28125 31.3125 C 53.230608 31.10245 52.056992 31.00003 50.78125 31 L 38.1875 31 z M 44.0625 35.28125 L 49.59375 35.28125 C 50.119048 35.28128 50.618453 35.31297 51.09375 35.40625 C 51.594032 35.47625 52.031011 35.60244 52.40625 35.8125 C 52.781456 36.0226 53.08735 36.34529 53.3125 36.71875 C 53.537617 37.09224 53.624982 37.5727 53.625 38.15625 C 53.624982 39.20669 53.331634 39.97067 52.65625 40.4375 C 51.980832 40.90437 51.11311 41.12502 50.0625 41.125 L 44.0625 41.125 L 44.0625 35.28125 z M 44.0625 44.875 L 50.5 44.875 C 51.775742 44.875 52.787021 45.15855 53.5625 45.71875 C 54.337941 46.25555 54.718731 47.1537 54.71875 48.4375 C 54.718731 49.0911 54.59388 49.6424 54.34375 50.0625 C 54.118597 50.4827 53.83772 50.8058 53.4375 51.0625 C 53.037245 51.296 52.556546 51.47705 52.03125 51.59375 C 51.505923 51.68675 50.950327 51.71875 50.375 51.71875 L 44.0625 51.71875 L 44.0625 44.875 z "
       transform="translate(0,956.36218)"
       id="path2996" />
    <path
       style="fill:#000000;fill-opacity:0.77625573;fill-rule:evenodd;stroke:none"
       d="M 47.5 16 C 32.312169 16 20 28.312169 20 43.5 C 20 43.647587 19.997683 43.790465 20 43.9375 C 20.219427 28.938923 32.449214 16.84375 47.5 16.84375 C 62.550786 16.84375 74.780573 28.938923 75 43.9375 C 75.002317 43.790465 75 43.647587 75 43.5 C 75 28.312169 62.687831 16 47.5 16 z M 38.1875 31 L 38.1875 31.84375 L 50.78125 31.84375 C 52.056992 31.84378 53.230608 31.9462 54.28125 32.15625 C 55.331855 32.36637 56.249533 32.72858 57 33.21875 C 57.750423 33.68562 58.318491 34.30012 58.71875 35.09375 C 59.07306 35.755051 59.280388 36.549037 59.34375 37.46875 C 59.347881 37.374691 59.374998 37.283765 59.375 37.1875 C 59.374977 36.02039 59.14398 35.04367 58.71875 34.25 C 58.318491 33.45637 57.750423 32.84187 57 32.375 C 56.249533 31.88483 55.331855 31.52262 54.28125 31.3125 C 53.230608 31.10245 52.056992 31.00003 50.78125 31 L 38.1875 31 z M 53.59375 38.5625 C 53.521084 39.394987 53.236282 40.036578 52.65625 40.4375 C 51.980832 40.90437 51.11311 41.12502 50.0625 41.125 L 44.0625 41.125 L 44.0625 41.96875 L 50.0625 41.96875 C 51.11311 41.96877 51.980832 41.74812 52.65625 41.28125 C 53.331634 40.81442 53.624982 40.05044 53.625 39 C 53.624995 38.836717 53.608537 38.709555 53.59375 38.5625 z M 56.625 42.78125 C 56.335117 42.96009 56.019236 43.129764 55.6875 43.28125 C 57.338459 43.72473 58.574501 44.47335 59.375 45.59375 C 60.131677 46.599425 60.529025 47.81958 60.59375 49.21875 C 60.602338 49.061533 60.624997 48.91297 60.625 48.75 C 60.624975 47.186 60.200466 45.8471 59.375 44.75 C 58.737542 43.857796 57.80443 43.235595 56.625 42.78125 z M 25 43.9375 C 24.997585 44.073262 25 44.207411 25 44.34375 C 25 56.77015 35.073593 66.84375 47.5 66.84375 C 59.926407 66.84375 70 56.77015 70 44.34375 C 70 44.207411 70.002415 44.073262 70 43.9375 C 69.765825 56.161072 59.77958 66 47.5 66 C 35.22042 66 25.234175 56.161072 25 43.9375 z M 54.6875 48.90625 C 54.640653 49.356733 54.531348 49.747425 54.34375 50.0625 C 54.118597 50.4827 53.83772 50.8058 53.4375 51.0625 C 53.037245 51.296 52.556546 51.47705 52.03125 51.59375 C 51.505923 51.68675 50.950327 51.71875 50.375 51.71875 L 44.0625 51.71875 L 44.0625 52.5625 L 50.375 52.5625 C 50.950327 52.5625 51.505923 52.5305 52.03125 52.4375 C 52.556546 52.3208 53.037245 52.13975 53.4375 51.90625 C 53.83772 51.64955 54.118597 51.32645 54.34375 50.90625 C 54.59388 50.48615 54.718731 49.93485 54.71875 49.28125 C 54.718748 49.143584 54.696276 49.035078 54.6875 48.90625 z "
       transform="translate(0,956.36218)"
       id="path3770" />
    <path
       style="fill:#ffffff;fill-opacity:0.51141554;fill-rule:evenodd;stroke:none"
       d="m 47.5,977.33293 c -12.426407,0 -22.5,10.07359 -22.5,22.49997 0,0.1154 -0.0017,0.2288 0,0.3438 0.168057,-12.28163 10.178469,-22.18752 22.5,-22.18752 12.321531,0 22.331943,9.90589 22.5,22.18752 0.0017,-0.115 0,-0.2284 0,-0.3438 0,-12.42638 -10.073593,-22.49997 -22.5,-22.49997 z m -3.4375,14.28125 0,0.65625 5.53125,0 c 0.525298,3e-5 1.024703,0.0317 1.5,0.125 0.500282,0.07 0.937261,0.19619 1.3125,0.40625 0.375206,0.2101 0.6811,0.53279 0.90625,0.90625 0.177445,0.29439 0.250294,0.66832 0.28125,1.09375 0.0071,-0.10751 0.03125,-0.1982 0.03125,-0.3125 -1.8e-5,-0.58355 -0.08738,-1.06401 -0.3125,-1.4375 -0.22515,-0.37346 -0.531044,-0.69615 -0.90625,-0.90625 -0.375239,-0.21006 -0.812218,-0.33625 -1.3125,-0.40625 -0.475297,-0.0933 -0.974702,-0.12497 -1.5,-0.125 l -5.53125,0 z m 15.28125,2.125 c -0.04022,1.13801 -0.351434,2.12809 -0.9375,2.9375 -0.625394,0.84035 -1.543072,1.55688 -2.71875,2.09375 0.278524,0.0748 0.526443,0.15749 0.78125,0.25 0.810118,-0.47417 1.456961,-1.0418 1.9375,-1.6875 0.625349,-0.86366 0.968727,-1.91908 0.96875,-3.15625 -3e-6,-0.15149 -0.02354,-0.29242 -0.03125,-0.4375 z m -15.28125,7.46872 0,0.6563 6.4375,0 c 1.275742,0 2.287021,0.2835 3.0625,0.8437 0.70845,0.4905 1.064782,1.2941 1.125,2.4063 0.0084,-0.113 0.03125,-0.2238 0.03125,-0.3438 -1.9e-5,-1.2838 -0.380809,-2.1819 -1.15625,-2.7187 -0.775479,-0.5602 -1.786758,-0.8438 -3.0625,-0.8438 l -6.4375,0 z m -24.03125,0.031 c 0.401157,14.8377 12.534159,26.75 27.46875,26.75 14.934591,0 27.067593,-11.9123 27.46875,-26.75 -0.736536,14.5301 -12.755539,26.0937 -27.46875,26.0937 -14.713211,0 -26.732214,-11.5636 -27.46875,-26.0937 z m 40.5625,4.1875 c -0.04412,1.1111 -0.274598,2.0925 -0.75,2.9375 -0.525335,0.9104 -1.255737,1.6665 -2.15625,2.25 -0.875542,0.5836 -1.880586,1.0324 -3.03125,1.3125 -1.125689,0.2801 -2.299304,0.4062 -3.5,0.4062 l -12.96875,0 0,0.6563 12.96875,0 c 1.200696,0 2.374311,-0.1262 3.5,-0.4063 1.150664,-0.2801 2.155708,-0.7289 3.03125,-1.3125 0.900513,-0.5835 1.630915,-1.3396 2.15625,-2.25 0.525289,-0.9336 0.781225,-2.0207 0.78125,-3.2812 -2e-6,-0.1088 -0.02715,-0.2059 -0.03125,-0.3125 z"
       id="path3775"
       inkscape:connector-curvature="0" />
  </g>
</svg>
