<?xml version="1.0" encoding="UTF-8" standalone="no"?>
<!-- Created with Inkscape (http://www.inkscape.org/) -->

<svg
   xmlns:dc="http://purl.org/dc/elements/1.1/"
   xmlns:cc="http://creativecommons.org/ns#"
   xmlns:rdf="http://www.w3.org/1999/02/22-rdf-syntax-ns#"
   xmlns:svg="http://www.w3.org/2000/svg"
   xmlns="http://www.w3.org/2000/svg"
   xmlns:xlink="http://www.w3.org/1999/xlink"
   xmlns:sodipodi="http://sodipodi.sourceforge.net/DTD/sodipodi-0.dtd"
   xmlns:inkscape="http://www.inkscape.org/namespaces/inkscape"
   width="96"
   height="96"
   id="svg2"
   version="1.1"
   inkscape:version="0.48.4 r9939"
   sodipodi:docname="bleachbit.svg">
  <defs
     id="defs4">
    <linearGradient
       id="linearGradient3761">
      <stop
         style="stop-color:#a90016;stop-opacity:1;"
         offset="0"
         id="stop3763" />
      <stop
         style="stop-color:#e81117;stop-opacity:1;"
         offset="1"
         id="stop3765" />
    </linearGradient>
    <linearGradient
       inkscape:collect="always"
       xlink:href="#linearGradient3761"
       id="linearGradient3767"
       x1="35"
       y1="-1047.3622"
       x2="35"
       y2="-957.36218"
       gradientUnits="userSpaceOnUse" />
  </defs>
  <sodipodi:namedview
     id="base"
     pagecolor="#ffffff"
     bordercolor="#666666"
     borderopacity="1.0"
     inkscape:pageopacity="0.0"
     inkscape:pageshadow="2"
     inkscape:zoom="4.1763494"
     inkscape:cx="17.363451"
     inkscape:cy="48"
     inkscape:document-units="px"
     inkscape:current-layer="layer1"
     showgrid="true"
     inkscape:snap-page="true"
     inkscape:snap-global="false"
     inkscape:snap-center="true"
     inkscape:snap-object-midpoints="false"
     showguides="true"
     inkscape:guide-bbox="true"
     inkscape:snap-bbox="true"
     inkscape:object-paths="true"
     inkscape:object-nodes="true"
     inkscape:window-width="1305"
     inkscape:window-height="744"
     inkscape:window-x="61"
     inkscape:window-y="24"
     inkscape:window-maximized="1"
     inkscape:snap-midpoints="false"
     inkscape:snap-grids="true"
     inkscape:snap-to-guides="false">
    <inkscape:grid
       type="xygrid"
       id="grid3002"
       empspacing="5"
       visible="true"
       enabled="true"
       snapvisiblegridlinesonly="true" />
  </sodipodi:namedview>
  <metadata
     id="metadata7">
    <rdf:RDF>
      <cc:Work
         rdf:about="">
        <dc:format>image/svg+xml</dc:format>
        <dc:type
           rdf:resource="http://purl.org/dc/dcmitype/StillImage" />
        <dc:title />
      </cc:Work>
    </rdf:RDF>
  </metadata>
  <g
     inkscape:label="Layer 1"
     inkscape:groupmode="layer"
     id="layer1"
     transform="translate(0,-956.36218)">
    <rect
       style="fill:#ffffff;fill-opacity:0;fill-rule:nonzero;stroke:none"
       id="rect3775"
       width="96"
       height="96"
       x="0"
       y="956.36218"
       ry="0" />
    <path
       style="fill:#000000;fill-opacity:0.09589041;fill-rule:nonzero;stroke:none"
       d="m 3.353015,956.30662 c -1.884176,0 -3.4111555,1.43156 -3.4111555,3.19799 l 0,83.65949 c 0,1.7665 1.5269795,3.1981 3.4111555,3.1981 l 89.23583,0 c 1.884174,0 3.411155,-1.4316 3.411155,-3.1981 l 0,-83.65949 c 0,-1.76643 -1.526981,-3.19799 -3.411155,-3.19799 z"
       id="rect3772"
       inkscape:connector-curvature="0"
       sodipodi:nodetypes="sssssssss" />
    <path
       style="fill:#000000;fill-opacity:0.18721463;fill-rule:nonzero;stroke:none"
       d="m 1.0459761,1041.8066 0,7.4219 c 0,1.7392 1.461916,3.1337 3.2852054,3.1337 l 86.3836135,0 c 1.823288,0 3.285205,-1.3945 3.285205,-3.1337 l 0,-7.4219 -92.9540239,0 z"
       id="rect3785"
       inkscape:connector-curvature="0" />
    <path
       style="fill:#000000;fill-opacity:0.38356168;fill-rule:nonzero;stroke:none"
       d="m 1.0459761,1041.8066 0,5.3807 c 0,1.762 1.461916,3.1749 3.2852054,3.1749 l 86.3836135,0 c 1.823288,0 3.285205,-1.4129 3.285205,-3.1749 l 0,-5.3807 -92.9540239,0 z"
       id="rect3783"
       inkscape:connector-curvature="0" />
    <rect
       style="fill:url(#linearGradient3767);fill-opacity:1;fill-rule:nonzero;stroke:none"
       id="rect2985"
       width="92.954025"
       height="89"
       x="1.045977"
       y="-1046.3622"
       ry="3.1511393"
       transform="scale(1,-1)" />
    <path
       style="fill:#000000;fill-opacity:0.38356168;fill-rule:nonzero;stroke:none"
       d="m 1,1042.3622 0.045976,2.7457 c 0.03024,1.8058 1.461916,3.2543 3.2852054,3.2543 l 86.3836136,0 c 1.823288,0 3.285205,-1.4481 3.285205,-3.2543 l -0.04598,-2.7457 z"
       id="rect3781"
       inkscape:connector-curvature="0"
       sodipodi:nodetypes="csssscc" />
    <rect
       style="fill:#ffffff;fill-opacity:0.30000001;fill-rule:nonzero;stroke:none"
       id="rect3770"
       width="92.954033"
       height="2.000005"
       x="1.045976"
       y="1040.3622" />
    <g
       id="g3778"
       transform="matrix(0.72508326,0,0,0.72508326,13.196004,274.7414)">
      <path
         inkscape:connector-curvature="0"
         id="text2987"
         d="m 47.538462,972.36221 c -5.504836,6e-5 -10.5481,1.58179 -15.115385,4.73077 C 24.826915,982.88629 20.999992,990.00168 21,998.4392 l 0,1.9615 c -8e-6,3.9182 1.004798,7.8462 3,11.8847 5.57691,9.3749 13.499979,14.0768 23.884615,14.0768 l 0.115385,0 c 4.399,0 8.543229,-0.8269 12.461539,-2.6538 C 70.100906,1018.0593 74.999942,1010.0017 75,999.593 l 0,-0.2307 c -5.8e-5,-4.97603 -1.245252,-9.54813 -3.576923,-13.73086 -5.841396,-8.79802 -13.466389,-13.26917 -22.961538,-13.26923 l -0.923077,0 z m -3.346154,5.30769 11.423077,0 c 0.62496,5e-5 1.22592,0.17312 1.730769,0.46154 0.432651,0.52889 1.562455,2.476 3.461539,5.76923 l 3,-1.61538 0.115385,0 c -3.173122,5.76926 -4.951968,8.80773 -5.192308,8.99999 l -10.038462,0 0,-0.11537 c 1.394196,-0.74516 2.350926,-1.43266 2.999999,-1.96155 l 0,-0.11538 -4.26923,-7.38462 c -1.225994,-2.57207 -2.317336,-3.92302 -3.230769,-3.92307 l 0,-0.11539 z m -2.884616,0.46154 c 1.201895,5e-5 2.187471,0.25967 2.884616,0.69231 0.552853,5e-5 1.6442,1.4712 3.230769,4.50001 -3.58176,6.17791 -5.442336,9.44714 -5.538461,9.80768 -0.216373,3e-5 -3.298103,-1.62015 -9.115385,-4.96153 l -0.115385,0 c 0.31248,-0.74516 1.471134,-2.649 3.346154,-5.65385 1.274016,-2.90861 3.024016,-4.38457 5.307692,-4.38462 z m 23.653847,12.69231 1.5,2.76923 c 2.427829,3.77412 3.576868,6.25482 3.576923,7.38462 -0.625055,3.3174 -2.144285,4.9616 -4.5,4.9616 l -4.153847,0 -5.538461,-9.6923 0,-0.1154 c 5.745146,-3.55772 8.778798,-5.30771 9.115385,-5.30775 z m -39.230769,2.19231 10.038461,0 4.961538,8.65384 -2.653845,-1.6153 -0.346155,0 -5.076923,9 c -0.649055,0.6009 -1.038479,1.6201 -1.038461,3.2308 l -0.115385,0 -1.038462,-2.0771 c -3.341358,-5.5768 -4.961549,-8.5864 -4.961538,-9.1153 0.264413,-1.1779 1.31249,-3.274 3.115385,-6.23078 L 25.73077,993.01606 z M 54,1003.1699 l 0.115385,0 0,3.4616 0.23077,0.2307 11.307692,0 c 0.817255,0 1.548026,-0.1922 2.076922,-0.5769 l 0.115385,0 0,0.1153 -3.807693,6.3462 c -1.466391,3.0769 -2.711585,4.6155 -3.576922,4.6155 l -6.115384,0 -0.23077,0.2306 0,3.2309 -0.115385,0 c -3.101,-5.6731 -4.701959,-8.5817 -4.846153,-8.654 l 4.846153,-9 z m -19.153847,3.6923 11.538463,0 0,10.5001 -9.115385,0 -0.923077,-0.1155 c -2.548094,-0.9856 -3.807712,-2.6586 -3.807693,-4.8461 l 0,-0.3462 c -1.9e-5,-0.9375 0.745174,-2.6683 2.307692,-5.1923 z"
         style="font-size:20px;font-style:normal;font-weight:normal;line-height:125%;letter-spacing:0px;word-spacing:0px;fill:#ffffff;fill-opacity:1;stroke:none;font-family:Sans" />
    </g>
    <path
       style="fill:#ffffff;fill-opacity:0.45662099;stroke:none"
       d="m 45.329358,963.14611 -7.903657,1.47967 0.974424,5.19693 c -2.657048,0.86228 -5.140018,2.05559 -7.398401,3.53679 l -3.428526,-4.00596 -6.099169,5.23301 3.428527,4.00597 c -1.824415,2.03647 -3.384176,4.30902 -4.619489,6.74878 l -4.980386,-1.7684 -2.670642,7.57886 4.980386,1.76839 c -0.556932,2.62335 -0.765993,5.35145 -0.613526,8.12015 l -5.196924,0.9745 1.47968,7.9396 5.196925,-0.9743 c 0.854813,2.6383 2.037026,5.0811 3.500705,7.3261 l -4.005962,3.4647 5.233015,6.0992 4.042053,-3.4285 c 2.03258,1.8261 4.276096,3.3828 6.712694,4.6194 l -1.768399,4.9805 7.614939,2.6706 1.768398,-4.9805 c 2.620329,0.5542 5.353169,0.8044 8.120195,0.6496 l 0.974424,5.1971 7.903657,-1.4797 -0.974424,-5.197 c 2.646198,-0.8558 5.111386,-2.0686 7.36231,-3.5367 l 3.428527,4.0059 6.135259,-5.233 -3.428527,-4.006 c 1.826135,-2.0334 3.347178,-4.3112 4.583399,-6.7487 l 5.016476,1.7683 2.670642,-7.5789 -4.980386,-1.7683 c 0.558175,-2.6252 0.766909,-5.3474 0.613526,-8.1203 l 5.196924,-0.9744 -1.47968,-7.93968 -5.196925,0.97443 c -0.857677,-2.6416 -2.032591,-5.11533 -3.500705,-7.36231 l 4.005962,-3.42852 -5.233015,-6.09917 -4.042053,3.42852 c -2.025505,-1.81901 -4.28598,-3.38562 -6.712694,-4.61949 l 1.768399,-4.98038 -7.614939,-2.67064 -1.768398,4.98038 c -2.621844,-0.55476 -5.351436,-0.80446 -8.120195,-0.64961 l -0.974424,-5.19692 z m 1.876668,11.29608 c 12.086545,-0.39367 23.012479,8.10822 25.298918,20.35454 2.522982,13.51327 -6.444356,26.49317 -19.957635,29.01617 -13.51328,2.5229 -26.493182,-6.3721 -29.016164,-19.8853 -2.522968,-13.51333 6.372178,-26.5294 19.885456,-29.05233 1.266869,-0.23653 2.539092,-0.39234 3.789425,-0.43308 z"
       id="path3782"
       inkscape:connector-curvature="0" />
  </g>
</svg>
