<?xml version="1.0" encoding="UTF-8" standalone="no"?>
<!-- Created with Inkscape (http://www.inkscape.org/) -->

<svg
   xmlns:dc="http://purl.org/dc/elements/1.1/"
   xmlns:cc="http://creativecommons.org/ns#"
   xmlns:rdf="http://www.w3.org/1999/02/22-rdf-syntax-ns#"
   xmlns:svg="http://www.w3.org/2000/svg"
   xmlns="http://www.w3.org/2000/svg"
   xmlns:xlink="http://www.w3.org/1999/xlink"
   xmlns:sodipodi="http://sodipodi.sourceforge.net/DTD/sodipodi-0.dtd"
   xmlns:inkscape="http://www.inkscape.org/namespaces/inkscape"
   width="96"
   height="96"
   id="svg2"
   version="1.1"
   inkscape:version="0.48.4 r9939"
   sodipodi:docname="blogilo.svg">
  <defs
     id="defs4">
    <linearGradient
       id="linearGradient3786">
      <stop
         style="stop-color:#4c75a6;stop-opacity:1;"
         offset="0"
         id="stop3788" />
      <stop
         style="stop-color:#6195d4;stop-opacity:1;"
         offset="1"
         id="stop3790" />
    </linearGradient>
    <linearGradient
       inkscape:collect="always"
       xlink:href="#linearGradient8204-7"
       id="linearGradient3048"
       gradientUnits="userSpaceOnUse"
       gradientTransform="matrix(0.95674387,0,0,0.99036937,5.581913,945.81263)"
       x1="39.479939"
       y1="81.5"
       x2="39.479939"
       y2="6.2799916" />
    <linearGradient
       id="linearGradient8204-7">
      <stop
         offset="0"
         style="stop-color:#ffffff;stop-opacity:1"
         id="stop8206-2" />
      <stop
         offset="1"
         style="stop-color:#50caff;stop-opacity:0"
         id="stop8208-5" />
    </linearGradient>
    <linearGradient
       inkscape:collect="always"
       xlink:href="#linearGradient3786"
       id="linearGradient3792"
       x1="40"
       y1="1047.3622"
       x2="40"
       y2="957.36218"
       gradientUnits="userSpaceOnUse" />
  </defs>
  <sodipodi:namedview
     id="base"
     pagecolor="#ffffff"
     bordercolor="#666666"
     borderopacity="1.0"
     inkscape:pageopacity="0.0"
     inkscape:pageshadow="2"
     inkscape:zoom="5.90625"
     inkscape:cx="48"
     inkscape:cy="48"
     inkscape:document-units="px"
     inkscape:current-layer="layer1"
     showgrid="true"
     inkscape:snap-page="true"
     inkscape:snap-global="true"
     inkscape:snap-center="true"
     inkscape:snap-object-midpoints="false"
     showguides="true"
     inkscape:guide-bbox="true"
     inkscape:snap-bbox="true"
     inkscape:object-paths="true"
     inkscape:object-nodes="true"
     inkscape:window-width="1305"
     inkscape:window-height="744"
     inkscape:window-x="61"
     inkscape:window-y="24"
     inkscape:window-maximized="1"
     inkscape:snap-midpoints="true"
     inkscape:snap-grids="true"
     inkscape:snap-to-guides="false">
    <inkscape:grid
       type="xygrid"
       id="grid3002"
       empspacing="5"
       visible="true"
       enabled="true"
       snapvisiblegridlinesonly="true" />
  </sodipodi:namedview>
  <metadata
     id="metadata7">
    <rdf:RDF>
      <cc:Work
         rdf:about="">
        <dc:format>image/svg+xml</dc:format>
        <dc:type
           rdf:resource="http://purl.org/dc/dcmitype/StillImage" />
        <dc:title />
      </cc:Work>
    </rdf:RDF>
  </metadata>
  <g
     inkscape:label="Layer 1"
     inkscape:groupmode="layer"
     id="layer1"
     transform="translate(0,-956.36218)">
    <rect
       style="fill:#ffffff;fill-opacity:0;fill-rule:nonzero;stroke:none"
       id="rect3775"
       width="96"
       height="96"
       x="0"
       y="956.36218"
       ry="0" />
    <path
       style="fill:#000000;fill-opacity:0.09589041;fill-rule:nonzero;stroke:none"
       d="m 3.353015,956.30662 c -1.884176,0 -3.4111555,1.43156 -3.4111555,3.19799 l 0,83.65949 c 0,1.7665 1.5269795,3.1981 3.4111555,3.1981 l 89.23583,0 c 1.884174,0 3.411155,-1.4316 3.411155,-3.1981 l 0,-83.65949 c 0,-1.76643 -1.526981,-3.19799 -3.411155,-3.19799 z"
       id="rect3772"
       inkscape:connector-curvature="0"
       sodipodi:nodetypes="sssssssss" />
    <path
       style="fill:#000000;fill-opacity:0.18721463;fill-rule:nonzero;stroke:none"
       d="m 1.0459761,1041.8066 0,7.4219 c 0,1.7392 1.461916,3.1337 3.2852054,3.1337 l 86.3836135,0 c 1.823288,0 3.285205,-1.3945 3.285205,-3.1337 l 0,-7.4219 -92.9540239,0 z"
       id="rect3785"
       inkscape:connector-curvature="0" />
    <path
       style="fill:#000000;fill-opacity:0.38356168;fill-rule:nonzero;stroke:none"
       d="m 1.0459761,1041.8066 0,5.3807 c 0,1.762 1.461916,3.1749 3.2852054,3.1749 l 86.3836135,0 c 1.823288,0 3.285205,-1.4129 3.285205,-3.1749 l 0,-5.3807 -92.9540239,0 z"
       id="rect3783"
       inkscape:connector-curvature="0" />
    <rect
       style="fill:url(#linearGradient3792);fill-opacity:1;fill-rule:nonzero;stroke:none"
       id="rect2985"
       width="92.954025"
       height="89"
       x="1.045977"
       y="957.36218"
       ry="3.1511393" />
    <path
       style="fill:#000000;fill-opacity:0.38356168;fill-rule:nonzero;stroke:none"
       d="m 1,1042.3622 0.045976,2.7457 c 0.03024,1.8058 1.461916,3.2543 3.2852054,3.2543 l 86.3836136,0 c 1.823288,0 3.285205,-1.4481 3.285205,-3.2543 l -0.04598,-2.7457 z"
       id="rect3781"
       inkscape:connector-curvature="0"
       sodipodi:nodetypes="csssscc" />
    <rect
       style="fill:#ffffff;fill-opacity:0.30000001;fill-rule:nonzero;stroke:none"
       id="rect3770"
       width="92.954033"
       height="2.000005"
       x="1.045976"
       y="1040.3622" />
    <path
       inkscape:connector-curvature="0"
       style="fill:url(#linearGradient3048);fill-opacity:1;stroke:none"
       d="m 75,957.85736 c -0.681726,-0.0838 -1.346395,-0.22286 -2.03308,-0.27854 -1.929752,-0.15647 -3.85825,-0.21664 -5.710565,-0.21664 l -35.668608,0 c 4.394787,17.0461 -19.912712,29.71012 -16.115154,44.38092 4.210209,16.2649 23.223283,15.4453 30.077635,24.295 -4.731223,-9.5108 -11.201949,-9.0302 -13.753193,-17.9505 C 26.05994,988.0283 78.028688,976.82964 75,957.85736 z"
       id="path4047" />
    <path
       inkscape:connector-curvature="0"
       style="font-size:55.53907776px;font-style:normal;font-variant:normal;font-weight:normal;font-stretch:normal;text-align:end;line-height:125%;letter-spacing:0px;word-spacing:0px;text-anchor:end;fill:#ffffff;fill-opacity:1;stroke:none;font-family:mry_KacstQurn;-inkscape-font-specification:mry_KacstQurn"
       d="m 53.169212,992.36255 c -0.934834,0.0333 -1.938546,0.1111 -2.997007,0.25153 -4.191437,0.37601 -19.690042,3.70814 -10.656024,3.66121 0.501808,-8.1e-4 0.934462,0.0876 1.332003,0.27948 0.39754,0.19196 0.733366,0.50095 0.999003,0.92233 0.279452,0.40326 0.460632,0.95557 0.555001,1.67688 l 3.163507,24.14702 c 0.100652,0.7695 0.0906,1.4082 -0.0555,1.9005 -0.146109,0.4924 -0.388974,0.8687 -0.721502,1.1738 -0.334634,0.2891 -0.738072,0.5252 -1.221002,0.6708 -6.731523,4.1273 10.570321,0.8494 12.654028,0.5306 4.233835,-0.5618 7.293829,-1.7596 9.15752,-3.6052 1.861544,-1.8616 2.579691,-4.372 2.164505,-7.546 -0.169887,-1.2985 -0.50083,-2.4483 -0.999002,-3.4096 -0.500322,-0.9774 -1.122062,-1.7829 -1.887004,-2.4316 -0.751172,-0.6668 -1.624544,-1.1667 -2.608506,-1.5092 -0.984007,-0.3424 -2.05194,-0.5423 -3.191257,-0.5868 l -0.02775,-0.1957 c 0.821738,-0.4026 1.570087,-0.8555 2.247755,-1.3695 0.691445,-0.532 1.261096,-1.1475 1.720504,-1.8446 0.459361,-0.6969 0.805606,-1.4739 0.999002,-2.3476 0.209265,-0.8758 0.227922,-1.8844 0.08325,-2.99036 -0.396364,-3.02966 -1.714564,-5.09626 -3.968259,-6.23239 -1.691874,-0.86409 -3.938762,-1.24584 -6.743265,-1.14587 z m -0.1665,2.54327 c 0.270724,0.004 0.531432,0.0356 0.777001,0.0559 0.998169,0.0796 1.827645,0.30997 2.497506,0.72662 0.669828,0.41675 1.204202,1.03503 1.581754,1.81667 0.375417,0.76563 0.647455,1.73227 0.804751,2.9345 0.155162,1.1863 0.143507,2.2188 0,3.1022 -0.127627,0.8813 -0.441816,1.6428 -0.943502,2.2638 -0.503818,0.6051 -1.215318,1.0981 -2.136755,1.4813 -0.921467,0.3832 -2.091764,0.6763 -3.524257,0.8663 l -2.25203,0.2974 c -1.402111,0.3466 -1.176263,-0.1748 -1.344649,-1.4522 l -1.190328,-9.02971 c -0.714966,-2.95448 0.287984,-2.50284 2.955502,-2.86714 1.03856,-0.13777 1.962835,-0.20711 2.775007,-0.19563 z m 2.830506,15.34348 c 0.606839,0 1.139821,0.051 1.637254,0.1398 0.99483,0.1778 1.842698,0.5408 2.497505,1.0899 0.670684,0.5471 1.163756,1.2658 1.526254,2.1799 0.362455,0.9142 0.636966,2.0155 0.804751,3.2979 0.171935,1.3145 0.178782,2.46 0.02775,3.4096 -0.151076,0.9498 -0.497432,1.7462 -1.026753,2.4036 -0.531461,0.6413 -1.243072,1.1539 -2.164505,1.5372 -0.92147,0.3832 -2.084017,0.6546 -3.468757,0.8384 -3.637126,0.4804 -4.612032,1.6676 -5.09615,-2.0564 l -1.392691,-10.7127 c -0.3312,-1.4968 -0.03649,-1.3346 1.347182,-1.5188 l 3.310155,-0.4407 c 0.716246,-0.095 1.391165,-0.1647 1.998005,-0.1677 z"
       id="text3010"
       sodipodi:nodetypes="ccccccccccccccccccccccccccccccccccccccccccccccccccccc" />
  </g>
</svg>
