<?xml version="1.0" encoding="UTF-8" standalone="no"?>
<!-- Created with Inkscape (http://www.inkscape.org/) -->

<svg
   xmlns:dc="http://purl.org/dc/elements/1.1/"
   xmlns:cc="http://creativecommons.org/ns#"
   xmlns:rdf="http://www.w3.org/1999/02/22-rdf-syntax-ns#"
   xmlns:svg="http://www.w3.org/2000/svg"
   xmlns="http://www.w3.org/2000/svg"
   xmlns:xlink="http://www.w3.org/1999/xlink"
   xmlns:sodipodi="http://sodipodi.sourceforge.net/DTD/sodipodi-0.dtd"
   xmlns:inkscape="http://www.inkscape.org/namespaces/inkscape"
   width="96"
   height="96"
   id="svg2"
   version="1.1"
   inkscape:version="0.48.4 r9939"
   sodipodi:docname="bluegriffon.svg">
  <defs
     id="defs4">
    <linearGradient
       id="linearGradient3762">
      <stop
         style="stop-color:#0055d4;stop-opacity:1;"
         offset="0"
         id="stop3764" />
      <stop
         style="stop-color:#7700d4;stop-opacity:1;"
         offset="1"
         id="stop3766" />
    </linearGradient>
    <linearGradient
       inkscape:collect="always"
       xlink:href="#linearGradient3762"
       id="linearGradient3768"
       x1="40"
       y1="997.36218"
       x2="95"
       y2="957.36218"
       gradientUnits="userSpaceOnUse" />
  </defs>
  <sodipodi:namedview
     id="base"
     pagecolor="#ffffff"
     bordercolor="#666666"
     borderopacity="1.0"
     inkscape:pageopacity="0.0"
     inkscape:pageshadow="2"
     inkscape:zoom="5.90625"
     inkscape:cx="43.40344"
     inkscape:cy="48"
     inkscape:document-units="px"
     inkscape:current-layer="layer1"
     showgrid="true"
     inkscape:snap-page="true"
     inkscape:snap-global="true"
     inkscape:snap-center="true"
     inkscape:snap-object-midpoints="false"
     showguides="true"
     inkscape:guide-bbox="true"
     inkscape:snap-bbox="true"
     inkscape:object-paths="true"
     inkscape:object-nodes="true"
     inkscape:window-width="1305"
     inkscape:window-height="744"
     inkscape:window-x="61"
     inkscape:window-y="24"
     inkscape:window-maximized="1"
     inkscape:snap-midpoints="false"
     inkscape:snap-grids="true"
     inkscape:snap-to-guides="false">
    <inkscape:grid
       type="xygrid"
       id="grid3002"
       empspacing="5"
       visible="true"
       enabled="true"
       snapvisiblegridlinesonly="true" />
  </sodipodi:namedview>
  <metadata
     id="metadata7">
    <rdf:RDF>
      <cc:Work
         rdf:about="">
        <dc:format>image/svg+xml</dc:format>
        <dc:type
           rdf:resource="http://purl.org/dc/dcmitype/StillImage" />
        <dc:title />
      </cc:Work>
    </rdf:RDF>
  </metadata>
  <g
     inkscape:label="Layer 1"
     inkscape:groupmode="layer"
     id="layer1"
     transform="translate(0,-956.36218)">
    <rect
       style="fill:#ffffff;fill-opacity:0;fill-rule:nonzero;stroke:none"
       id="rect3775"
       width="96"
       height="96"
       x="0"
       y="956.36218"
       ry="0" />
    <path
       style="fill:#000000;fill-opacity:0.09589041;fill-rule:nonzero;stroke:none"
       d="m 3.353015,956.30662 c -1.884176,0 -3.4111555,1.43156 -3.4111555,3.19799 l 0,83.65949 c 0,1.7665 1.5269795,3.1981 3.4111555,3.1981 l 89.23583,0 c 1.884174,0 3.411155,-1.4316 3.411155,-3.1981 l 0,-83.65949 c 0,-1.76643 -1.526981,-3.19799 -3.411155,-3.19799 z"
       id="rect3772"
       inkscape:connector-curvature="0"
       sodipodi:nodetypes="sssssssss" />
    <path
       style="fill:#000000;fill-opacity:0.18721463;fill-rule:nonzero;stroke:none"
       d="m 1.0459761,1041.8066 0,7.4219 c 0,1.7392 1.461916,3.1337 3.2852054,3.1337 l 86.3836135,0 c 1.823288,0 3.285205,-1.3945 3.285205,-3.1337 l 0,-7.4219 -92.9540239,0 z"
       id="rect3785"
       inkscape:connector-curvature="0" />
    <path
       style="fill:#000000;fill-opacity:0.38356168;fill-rule:nonzero;stroke:none"
       d="m 1.0459761,1041.8066 0,5.3807 c 0,1.762 1.461916,3.1749 3.2852054,3.1749 l 86.3836135,0 c 1.823288,0 3.285205,-1.4129 3.285205,-3.1749 l 0,-5.3807 -92.9540239,0 z"
       id="rect3783"
       inkscape:connector-curvature="0" />
    <rect
       style="fill:url(#linearGradient3768);fill-opacity:1;fill-rule:nonzero;stroke:none"
       id="rect2985-2"
       width="93"
       height="88.999962"
       x="0.9999969"
       y="957.36224"
       ry="3.1511383" />
    <path
       style="fill:#000000;fill-opacity:0.38356168;fill-rule:nonzero;stroke:none"
       d="m 1,1042.3622 0.045976,2.7457 c 0.03024,1.8058 1.461916,3.2543 3.2852054,3.2543 l 86.3836136,0 c 1.823288,0 3.285205,-1.4481 3.285205,-3.2543 l -0.04598,-2.7457 z"
       id="rect3781"
       inkscape:connector-curvature="0"
       sodipodi:nodetypes="csssscc" />
    <rect
       style="fill:#ffffff;fill-opacity:0.30000001;fill-rule:nonzero;stroke:none"
       id="rect3770"
       width="92.954033"
       height="2.000005"
       x="1.045976"
       y="1040.3622" />
    <path
       style="fill:#ffffff;fill-opacity:0.44292238"
       d="m 66.437034,973.13185 c -0.449111,0.0334 -0.862166,0.26459 -1.214895,0.70109 -0.398323,0.49293 -0.591344,1.16271 -0.532849,1.75275 0.08641,0.87185 0.341383,1.59127 1.364093,3.68076 0.562104,1.14843 0.744072,1.59927 0.937813,2.51958 0.273605,1.29969 0.385571,2.43472 0.383651,3.94366 -0.002,1.38958 -0.08332,2.40484 -0.298395,3.72464 -0.188824,1.1587 -0.528855,2.5647 -0.596791,2.5414 -0.103679,-0.035 -0.226493,-1.1182 -0.319708,-2.6948 -0.109754,-1.8564 -0.183308,-2.59861 -0.341024,-3.33023 -0.419608,-1.94657 -1.351552,-2.78207 -2.898696,-2.54148 -0.434092,0.0675 -1.149717,0.28884 -1.214895,0.37246 -0.0279,0.0358 0.122395,0.61435 0.554163,1.8842 0.339231,0.99769 0.639393,1.82225 0.639418,1.84035 8.4e-5,0.063 -0.245404,0.1548 -0.298395,0.1096 -0.0273,-0.023 -0.286304,-0.38881 -0.554163,-0.78876 -0.565265,-0.844 -0.849073,-1.25833 -1.236208,-1.73083 -1.041411,-1.27107 -2.175361,-1.86647 -3.346289,-1.79657 -0.4273,0.0256 -1.06243,0.16573 -1.17227,0.26291 -0.0762,0.0675 -0.0508,0.17923 1.40672,5.63075 l 1.491977,5.5649 -0.341023,3.41785 c -0.184084,1.88222 -0.365917,3.45462 -0.383651,3.50562 -0.03158,0.091 -0.03717,0.1095 -0.639413,0.1095 -0.33865,0 -1.01868,-0.029 -1.51329,-0.066 -1.0929,-0.081 -2.45553,-0.091 -2.92001,-0.022 -0.47217,0.07 -1.17044,0.2559 -1.81169,0.482 -2.00269,0.706 -3.73611,1.9588 -5.2006,3.7463 -1.34984,1.6478 -2.49768,3.744 -3.62337,6.6386 -0.33786,0.8688 -1.08535,2.9414 -1.25752,3.5055 -0.42596,1.3957 -0.64371,2.8869 -0.68205,4.4915 -0.0341,1.4289 0.0738,2.5919 0.36234,3.7903 0.33842,1.4057 0.83714,2.4996 1.53459,3.4178 0.16698,0.2199 0.33972,0.4107 0.53285,0.6135 0.007,0.01 0.0146,0.015 0.0212,0.022 0.006,0.01 0.0152,0.016 0.0212,0.022 0.004,0.01 -0.004,0.018 0,0.022 0.89784,0.9255 1.86681,1.4701 3.11185,1.7308 0.88985,0.1865 2.45109,0.2198 2.45109,0.044 0,-0.03 -0.26603,-0.8669 -0.59678,-1.8405 -0.33076,-0.9736 -0.59668,-1.7718 -0.59679,-1.7965 -2.3e-4,-0.044 0.16049,-0.1534 0.23445,-0.1534 0.0197,0 0.21639,0.2961 0.44759,0.6573 0.93072,1.4543 1.65867,2.2996 2.47242,2.8702 0.48317,0.3386 1.11644,0.5997 1.61986,0.6791 0.31092,0.049 1.05772,0.044 1.36409,-0.022 0.37822,-0.082 0.74215,-0.2054 0.78862,-0.2631 0.006,-0.01 -0.029,-0.053 -0.0427,-0.087 0.007,0.026 -0.033,0.044 -0.0639,0.066 -0.0398,0.027 -0.0896,0.046 -0.23445,0.088 -0.0665,0.019 -0.12566,0.028 -0.19183,0.043 0.21451,-0.057 0.39326,-0.1125 0.42628,-0.1315 0.0348,-0.021 -0.1899,-0.4445 -0.63942,-1.1831 0.21118,0.3464 0.51993,0.7772 0.57548,0.8764 -0.13467,-0.2562 -0.37168,-0.6975 -0.95913,-1.6432 -1.23365,-1.9862 -1.28324,-2.0549 -1.25752,-2.0815 0.009,-0.01 0.20638,0.1358 0.44759,0.3288 1.57441,1.2598 3.18613,2.1418 4.64644,2.5633 1.828832,0.5279 3.551689,0.267 4.859582,-0.7449 0.413873,-0.3202 0.831626,-0.7429 0.80993,-0.8105 -0.01,-0.032 -1.516979,-0.7039 -3.367605,-1.4898 -1.850617,-0.7861 -3.380277,-1.4414 -3.388917,-1.4681 -0.0248,-0.077 1.44187,0 3.02658,0.1753 0.507353,0.055 1.325642,0.1414 1.833002,0.1972 1.631514,0.1795 2.010221,0.2197 3.133148,0.2191 1.192144,-7e-4 1.694564,-0.067 2.600302,-0.2629 1.410875,-0.3056 2.940359,-1.0366 4.177532,-1.9937 0.503697,-0.3898 0.732928,-0.6301 0.703361,-0.6793 -0.01621,-0.026 -1.999522,-0.02 -5.840021,0 -3.953741,0.02 -5.751752,0.029 -5.818708,0 -0.01105,0 -0.01501,0 -0.02128,0 -0.02551,-0.041 0.38385,-1.247 0.447595,-1.3145 0.01824,-0.02 0.16588,0.037 0.319709,0.1314 2.663185,1.6264 8.393753,1.2124 12.553911,-0.9201 1.193749,-0.612 1.990707,-1.1889 2.77081,-1.9938 0.933135,-0.9627 1.4797,-2.016 1.555919,-3.0235 0.02244,-0.2971 0.0084,-0.3067 -0.0639,-0.3067 -0.08881,0 -1.54566,0.409 -2.32322,0.6572 -0.286766,0.091 -1.023512,0.325 -1.641172,0.5259 -4.034392,1.3122 -5.694453,1.6669 -7.886157,1.7089 -1.252733,0.024 -2.380567,-0.042 -2.344535,-0.1533 0.04073,-0.1256 1.743148,-0.7291 2.898697,-1.0298 0.986467,-0.2566 1.49954,-0.3781 3.793882,-0.8544 3.391629,-0.704 4.639159,-1.0293 6.138413,-1.6433 3.161959,-1.2949 4.955713,-3.3921 5.520311,-6.4631 0.146967,-0.7991 0.222217,-2.2129 0.127883,-2.2129 -0.01971,0 -1.646042,0.9467 -3.62337,2.0814 -1.97747,1.1346 -3.620744,2.0527 -3.644684,2.0375 -0.0547,-0.034 -0.282715,-0.5639 -0.255767,-0.5916 0.01091,-0.011 0.259743,-0.1538 0.575477,-0.3286 1.516434,-0.839 2.670796,-1.7203 3.921764,-3.0015 2.337885,-2.3946 3.715781,-5.1676 4.049649,-8.12847 0.08985,-0.797 0.0573,-2.2494 -0.06391,-2.9796 -0.143537,-0.8651 -0.474118,-2.1563 -0.575477,-2.191 -0.02292,-0.01 -1.42847,2.1092 -3.111836,4.6667 -3.544805,5.38547 -3.744658,5.65947 -3.772567,5.63077 -0.0637,-0.066 0.776038,-1.6039 2.195336,-4.03132 0.614442,-1.0509 1.285848,-2.20145 1.470662,-2.54155 0.454714,-0.8368 1.098244,-2.2165 1.342778,-2.8702 0.859079,-2.2961 0.983286,-4.252 0.383651,-6.11266 -0.174133,-0.54033 -0.611073,-1.41622 -0.937813,-1.92803 -0.323958,-0.50744 -0.802127,-1.15655 -0.852557,-1.13927 -0.02277,0.008 -0.987284,2.38316 -2.15271,5.25826 l -2.131393,5.2144 -2.941322,5.17065 c -2.940298,5.16692 -3.059995,5.39912 -3.090522,5.36792 -0.02447,-0.026 0.235798,-0.7886 0.511535,-1.4899 0.689751,-1.7545 1.404472,-3.1458 3.346289,-6.57287 1.240168,-2.1888 1.800429,-3.2293 2.301903,-4.2504 1.562186,-3.1813 2.308031,-5.74133 2.493732,-8.54469 0.03758,-0.56979 0.03765,-0.83398 0,-1.20502 -0.19628,-1.93553 -0.855198,-4.34767 -1.555918,-5.69642 -0.407114,-0.78362 -0.94095,-1.40811 -1.40672,-1.64321 -0.210785,-0.10638 -0.278901,-0.13144 -0.618102,-0.13144 -0.349638,0 -0.414631,0.0246 -0.682046,0.15336 -0.652626,0.31442 -0.831648,0.79066 -0.831244,2.05948 1.91e-4,0.68043 0.04681,1.21678 0.255767,2.73865 l 0.149197,1.07357 -0.02132,1.20501 c -0.0224,1.20333 -0.04971,1.59383 -0.17051,2.71675 -0.265676,2.46976 -0.912738,5.31016 -1.875627,8.32556 -0.363244,1.1375 -0.89948,2.7307 -0.959129,2.8263 -0.0043,0.01 -0.0179,0 -0.02132,0 -0.01803,-0.2028 0.307916,-1.7746 0.9165,-4.338 1.140693,-4.8047 1.42343,-6.51555 1.470662,-8.93907 0.03263,-1.67714 -0.08057,-2.84831 -0.383651,-4.20658 -0.181683,-0.81413 -0.26606,-1.02119 -0.532849,-1.57747 -0.74792,-1.55953 -2.045125,-3.2056 -3.111835,-3.92176 -0.549865,-0.36916 -1.042865,-0.53743 -1.491976,-0.50392 z m -12.02107,56.92035 c -0.011,0 -0.003,0.042 0.0212,0.088 0.0236,0.045 0.0317,0.088 0.0427,0.088 0.009,0 0.013,-0.034 0,-0.066 -0.0123,-0.026 -0.046,-0.076 -0.0639,-0.1096 z m -2.40847,-43.79668 c -0.3873,0.005 -0.80604,0.046 -1.04439,0.0876 -1.5003,0.26179 -2.68043,0.82525 -3.30366,1.59941 -0.48802,0.6061 -0.6292,1.3486 -0.38364,2.0813 0.0324,0.097 0.0584,0.2028 0.0427,0.2191 -0.0158,0.017 -1.48852,0.1807 -3.26104,0.3725 -1.4469,0.1564 -2.24408,0.2682 -2.66424,0.3286 -0.0568,0.01 -0.33718,0.039 -0.36234,0.044 -0.0167,0 -0.23285,0.02 -0.23445,0.022 -0.004,0 0.0206,0.049 0.0212,0.066 9.6e-4,0.024 -0.005,0.039 0,0.044 0.0161,0.1357 0.0733,0.4284 0.23445,1.0078 0.28529,1.0249 0.34251,1.2269 0.2984,1.2269 -0.01,0 -0.15826,-0.1001 -0.31971,-0.2191 -0.66708,-0.4919 -1.26926,-0.7357 -1.91825,-0.7668 -0.71655,-0.034 -1.17376,0.1666 -1.68381,0.6791 -0.011,0.011 -0.0316,0.011 -0.0427,0.022 -0.25585,0.2634 -0.3438,0.3907 -0.51153,0.7449 -0.24439,0.5161 -0.37155,0.969 -0.40497,1.5775 -0.039,0.7108 0.11556,1.6232 0.36234,2.21285 l 0.0852,0.1973 0.34103,0 c 0.21139,0 0.28721,-7e-4 0.36233,-0.066 l -0.0427,0 c 0.0148,-0.01 0.0229,-0.02 0.0427,-0.044 l 0.0212,-0.044 0.0852,-0.15345 c 0.0473,-0.075 0.11863,-0.1291 0.17052,-0.1971 -0.0587,0.079 -0.11916,0.1535 -0.17052,0.241 0.0296,-0.035 0.0694,-0.029 0.10657,-0.087 0.35133,-0.5536 0.96992,-0.9693 1.72643,-1.1613 0.51482,-0.1306 1.47134,-0.1302 2.11008,0 1.76204,0.3593 3.19713,1.38225 3.72994,2.56345 l -0.34103,0.087 c -0.31824,0.025 -0.99168,0.135 -1.70511,0.2848 -3.24799,0.682 -5.8615,1.86072 -7.37462,3.35212 -0.30575,0.3014 -0.70336,0.7934 -0.70336,0.8545 0,0.014 0.015,0.021 0.0427,0.022 0.1178,0 9.74706,-2.7555 9.86835,-2.8262 -0.0116,0 -2.16559,0.6119 -4.79564,1.3584 -2.63003,0.7464 -4.83763,1.3636 -4.9022,1.3802 l 0.0639,-0.043 c 0.0765,-0.016 2.26691,-0.638 4.88089,-1.3802 l 4.75301,-1.3365 c -2.9e-4,5e-4 2.9e-4,0.022 0,0.022 6e-5,-10e-5 0.15122,0.033 0.19182,0.043 -0.0781,0.1171 -0.16886,0.2386 -0.29839,0.3723 -0.30763,0.3178 -0.71627,0.5986 -1.40672,0.986 -0.24264,0.1361 -0.6415,0.383 -0.89519,0.5259 -0.25367,0.1427 -0.6255,0.3564 -0.80993,0.4819 -0.3654,0.2488 -0.80993,0.6679 -0.80993,0.7669 0,0.085 0.22036,0.081 1.19358,-0.022 0.41741,-0.044 0.74853,-0.1006 1.10833,-0.1534 1.74514,-0.256 2.92627,-0.6173 3.83651,-1.2269 0.86516,-0.5793 1.50353,-1.4859 1.74774,-2.45382 0.0396,-0.1571 0.0827,-0.2629 0.10657,-0.2629 0.0239,0 0.18272,0.075 0.34102,0.1753 1.02741,0.65722 1.87126,0.89882 2.57899,0.74492 0.63254,-0.1376 1.24719,-0.5414 2.36585,-1.53372 0.29664,-0.2631 0.54975,-0.482 0.57548,-0.482 0.0257,0 0.25034,0.5125 0.51153,1.1393 0.26119,0.62682 0.52012,1.18502 0.55416,1.22692 0.06,0.074 0.0933,0.076 1.04439,-0.087 0.54044,-0.092 1.001308,-0.1979 1.023065,-0.2191 0.05559,-0.054 -0.152195,-0.78872 -0.341025,-1.24882 -0.30428,-0.7411 -0.81862,-1.399 -1.44935,-1.8184 -0.37802,-0.25145 -0.96164,-0.53935 -1.87562,-0.89835 -0.99505,-0.3908 -1.49024,-0.6399 -1.96088,-0.964 -0.46624,-0.3211 -0.93116,-0.7336 -0.87388,-0.7887 0.0221,-0.022 0.18586,-0.09 0.36234,-0.1534 1.40563,-0.5013 2.37359,-1.4508 3.00527,-2.9797 0.25992,-0.6291 0.46114,-1.4344 0.80992,-3.0235 0.15825,-0.7209 0.37083,-1.52241 0.4476,-1.79652 0.0768,-0.27413 0.1396,-0.53832 0.12788,-0.56964 -0.001,-0.004 -0.051,0.019 -0.0639,0.0218 -0.13974,0.0313 -0.93875,0.41669 -2.8987,1.42416 -1.61303,0.8291 -2.96264,1.519 -2.98395,1.5118 -0.0212,-0.01 0.48299,-0.492 1.12964,-1.0736 0.64665,-0.5816 1.22917,-1.11317 1.27884,-1.16126 0.0319,-0.0309 0.0291,-0.0689 0.0427,-0.10955 0.0203,-0.061 0.0427,-0.143 0.0427,-0.32863 0,-0.34269 9.5e-4,-0.348 -0.10658,-0.39438 -0.0875,-0.0376 -0.44394,-0.0486 -0.83123,-0.0439 z m -7.24674,6.35371 c 0.10137,-0.014 0.1978,0 0.29839,0 0.93802,0.039 1.55592,0.8763 1.55592,0.8763 -2.07575,1.3159 -3.23972,-0.2847 -3.23972,-0.2847 0,0 0.67583,-0.4919 1.38541,-0.5916 z m -20.24825,6.70435 c -0.0372,-0.038 -0.81639,0.05 -1.12964,0.1315 -0.88996,0.229 -1.4114,0.78262 -1.72642,1.77462 -0.0565,0.178 -0.10657,0.3519 -0.10657,0.3944 0,0.096 0.0351,0.099 0.38364,0 0.7257,-0.2069 1.28545,-0.5588 1.74775,-1.0517 0.37824,-0.4034 0.90349,-1.17462 0.83124,-1.24882 z m 3.15446,0.3067 c -0.0547,-0.01 -0.1597,0.011 -0.34102,0.022 -0.4775,0.031 -1.08357,0.1836 -1.47066,0.37262 -1.1046,0.5392 -1.76108,1.5 -2.06746,3.0453 -0.17926,0.9043 -0.20264,1.4088 -0.21314,3.8123 -0.006,1.2538 -0.0267,2.2845 -0.0427,2.3005 -0.0159,0.017 -0.0826,-0.03 -0.1492,-0.1096 -0.24934,-0.2973 -0.57283,-0.8107 -1.02306,-1.7308 -0.16584,-0.339 -0.28599,-0.5743 -0.42629,-0.8326 -0.0756,-0.1393 -0.17367,-0.3986 -0.21313,-0.4601 -0.2443,-0.3805 -0.69617,-0.8415 -1.00176,-1.0516 -0.26133,-0.1798 -0.67331,-0.3286 -0.93782,-0.3286 -0.76391,0 -1.4385,0.7027 -1.64117,1.7307 -0.19476,0.9882 0.18463,1.8152 0.98045,2.1253 0.13027,0.05 0.33694,0.08 0.72468,0.087 0.29542,0.01 0.56005,0.025 0.57547,0.043 0.0154,0.018 0.0887,0.1911 0.1492,0.3725 0.17707,0.5306 0.60403,1.3926 1.25752,2.5195 0.69049,1.1907 1.13284,2.0526 1.32146,2.5854 0.20225,0.5708 1.14983,4.3421 1.27884,5.0829 0.11227,0.6445 0.14676,1.2247 0.0852,1.5337 -0.0271,0.136 -0.14804,0.5359 -0.27709,0.8543 -0.35799,0.8835 -0.39428,1.2087 -0.1492,1.9062 0.48756,1.3875 1.34404,2.3425 2.579,2.8699 0.31242,0.1335 0.37251,0.1386 0.44758,-0.043 0.16819,-0.4084 0.37326,-1.3128 0.4476,-1.9281 0.12173,-1.007 0.0433,-1.7047 -0.4689,-4.0313 -0.23704,-1.0763 -0.42427,-2.3881 -0.34103,-2.3881 0.0194,0 0.1757,0.1022 0.34103,0.241 0.16532,0.1389 0.70742,0.5882 1.21489,0.986 1.32443,1.0379 1.49369,1.1815 3.00526,2.7168 0.57123,0.58 0.98687,0.9689 1.34278,1.2926 0.70785,0.644 1.11618,0.9304 1.70512,1.1393 0.31732,0.1124 0.45307,0.131 0.72467,0.1314 0.66295,8e-4 0.96676,-0.2805 1.00176,-0.942 0.0247,-0.4672 -0.10288,-1.0112 -0.46891,-1.7747 -0.3579,-0.7465 -0.65971,-1.1393 -1.21489,-1.6869 -0.64609,-0.6376 -1.24133,-1.0906 -3.17578,-2.3663 -1.64694,-1.086 -2.38771,-1.6412 -3.02658,-2.3005 -0.84202,-0.8688 -1.19582,-1.5805 -1.23621,-2.5196 -0.0333,-0.7732 0.15328,-1.2728 0.63942,-1.7747 0.49844,-0.5145 1.05277,-0.8038 2.66425,-1.3803 1.70263,-0.6091 2.33918,-0.9862 2.62161,-1.5775 0.0983,-0.2057 0.10665,-0.2684 0.10657,-0.6134 -10e-5,-0.3316 -0.005,-0.4126 -0.0852,-0.5697 -0.37095,-0.7269 -1.49103,-1.1828 -3.30366,-1.2926 l -0.4476,0 -1.55591,1.5774 c -0.84626,0.8688 -1.54318,1.5468 -1.55592,1.5337 -0.0127,-0.014 0.36704,-2.0322 0.83125,-4.5133 0.4642,-2.4811 0.85255,-4.55902 0.85255,-4.60102 0,-0.035 -0.01,-0.056 -0.0639,-0.066 z m 2.92001,2.91392 0.0212,0.1535 c 0.0251,0.2771 0.16349,0.9284 0.27708,1.2487 0.35857,1.0113 0.98418,1.6284 2.00351,1.9718 0.24225,0.082 0.35716,0.091 0.38365,0.043 0.0379,-0.068 -0.0701,-1.034 -0.14919,-1.3803 -0.23436,-1.0261 -0.82878,-1.6394 -1.85432,-1.9061 -0.20006,-0.052 -0.4233,-0.1016 -0.51154,-0.1096 l -0.17051,-0.022 z m 4.94485,0.6792 -0.12789,0.1533 0.0639,-0.1094 c 0.008,0 0.044,-0.023 0.0639,-0.043 z m -18.86285,3.5932 c -0.042,0.017 -0.0584,0.065 -0.0852,0.1314 -0.0723,0.1799 -0.17052,0.8519 -0.17052,1.1174 0,0.6982 0.30526,1.277 0.89519,1.687 0.22845,0.1587 0.25705,0.1662 0.25577,0.066 -0.002,-0.179 -0.31844,-2.9201 -0.34102,-2.9578 -0.014,-0.023 -0.14417,-0.043 -0.2984,-0.043 -0.13931,0 -0.2137,-0.017 -0.25577,0 z m 21.3992,9.0705 c -0.0691,0 -0.42574,0.3762 -0.59679,0.6352 -0.47167,0.7145 -0.84512,1.783 -1.0657,3.0893 -0.0783,0.4635 -0.084,0.6812 -0.0852,1.6869 -9.6e-4,1.2716 0.0431,1.556 0.27708,2.2787 0.2578,0.7963 0.67916,1.3174 1.19358,1.5117 0.0825,0.032 0.23073,0.065 0.34102,0.066 0.64581,0.01 1.23692,-0.7205 1.51329,-1.8404 0.23496,-0.9522 0.0708,-1.75 -0.78861,-3.6151 -0.55005,-1.1937 -0.70247,-1.6679 -0.78862,-2.3881 -0.0417,-0.3483 -0.0419,-0.7078 0.0212,-1.227 0.0177,-0.1453 0.008,-0.197 -0.0212,-0.197 z m -16.15597,7.8215 c -0.0539,0 -0.0481,0.1336 0.0427,0.5917 0.14805,0.7469 0.40625,1.1829 0.89518,1.4459 0.30032,0.1615 0.48761,0.2278 0.93781,0.3067 0.16545,0.03 0.32381,0.041 0.34102,0.043 0.11751,0.017 0.0329,-0.4617 -0.1705,-0.8983 -0.18809,-0.4039 -0.64477,-0.8516 -1.10833,-1.0955 -0.33733,-0.1775 -0.85789,-0.3943 -0.93781,-0.3943 z"
       id="path4333"
       inkscape:connector-curvature="0" />
  </g>
</svg>
