<?xml version="1.0" encoding="UTF-8" standalone="no"?>
<!-- Created with Inkscape (http://www.inkscape.org/) -->

<svg
   xmlns:dc="http://purl.org/dc/elements/1.1/"
   xmlns:cc="http://creativecommons.org/ns#"
   xmlns:rdf="http://www.w3.org/1999/02/22-rdf-syntax-ns#"
   xmlns:svg="http://www.w3.org/2000/svg"
   xmlns="http://www.w3.org/2000/svg"
   xmlns:xlink="http://www.w3.org/1999/xlink"
   xmlns:sodipodi="http://sodipodi.sourceforge.net/DTD/sodipodi-0.dtd"
   xmlns:inkscape="http://www.inkscape.org/namespaces/inkscape"
   width="96"
   height="96"
   id="svg2"
   version="1.1"
   inkscape:version="0.48.4 r9939"
   sodipodi:docname="budgie.svg">
  <defs
     id="defs4">
    <linearGradient
       id="linearGradient3781">
      <stop
         style="stop-color:#ffffff;stop-opacity:1;"
         offset="0"
         id="stop3783" />
      <stop
         style="stop-color:#dfdfdf;stop-opacity:1;"
         offset="1"
         id="stop3785" />
    </linearGradient>
    <radialGradient
       inkscape:collect="always"
       xlink:href="#linearGradient3781"
       id="radialGradient3787"
       cx="35.724873"
       cy="997.87836"
       fx="35.724873"
       fy="997.87836"
       r="22.735786"
       gradientTransform="matrix(0.28979328,0.54010634,-1.6539496,0.88742433,1680.5325,85.373655)"
       gradientUnits="userSpaceOnUse" />
  </defs>
  <sodipodi:namedview
     id="base"
     pagecolor="#ffffff"
     bordercolor="#666666"
     borderopacity="1.0"
     inkscape:pageopacity="0.0"
     inkscape:pageshadow="2"
     inkscape:zoom="5.2654776"
     inkscape:cx="32.253968"
     inkscape:cy="57.601439"
     inkscape:document-units="px"
     inkscape:current-layer="layer1"
     showgrid="true"
     inkscape:snap-page="true"
     inkscape:snap-global="true"
     inkscape:snap-center="true"
     inkscape:snap-object-midpoints="false"
     showguides="true"
     inkscape:guide-bbox="true"
     inkscape:snap-bbox="true"
     inkscape:object-paths="true"
     inkscape:object-nodes="true"
     inkscape:window-width="1305"
     inkscape:window-height="744"
     inkscape:window-x="61"
     inkscape:window-y="24"
     inkscape:window-maximized="1"
     inkscape:snap-midpoints="false"
     inkscape:snap-grids="true"
     inkscape:snap-to-guides="false">
    <inkscape:grid
       type="xygrid"
       id="grid3002"
       empspacing="5"
       visible="true"
       enabled="true"
       snapvisiblegridlinesonly="true" />
  </sodipodi:namedview>
  <metadata
     id="metadata7">
    <rdf:RDF>
      <cc:Work
         rdf:about="">
        <dc:format>image/svg+xml</dc:format>
        <dc:type
           rdf:resource="http://purl.org/dc/dcmitype/StillImage" />
        <dc:title />
      </cc:Work>
    </rdf:RDF>
  </metadata>
  <g
     inkscape:label="Layer 1"
     inkscape:groupmode="layer"
     id="layer1"
     transform="translate(0,-956.36218)">
    <rect
       style="fill:#ffffff;fill-opacity:0;fill-rule:nonzero;stroke:none"
       id="rect3775"
       width="96"
       height="96"
       x="0"
       y="956.36218"
       ry="0" />
    <path
       style="fill:#000000;fill-opacity:0.09589041;fill-rule:nonzero;stroke:none"
       d="m 3.353015,956.30662 c -1.884176,0 -3.4111555,1.43156 -3.4111555,3.19799 l 0,83.65949 c 0,1.7665 1.5269795,3.1981 3.4111555,3.1981 l 89.23583,0 c 1.884174,0 3.411155,-1.4316 3.411155,-3.1981 l 0,-83.65949 c 0,-1.76643 -1.526981,-3.19799 -3.411155,-3.19799 z"
       id="rect3772"
       inkscape:connector-curvature="0"
       sodipodi:nodetypes="sssssssss" />
    <path
       style="fill:#000000;fill-opacity:0.18721463;fill-rule:nonzero;stroke:none"
       d="m 1.0459761,1041.8066 0,7.4219 c 0,1.7392 1.461916,3.1337 3.2852054,3.1337 l 86.3836135,0 c 1.823288,0 3.285205,-1.3945 3.285205,-3.1337 l 0,-7.4219 -92.9540239,0 z"
       id="rect3785"
       inkscape:connector-curvature="0" />
    <path
       style="fill:#000000;fill-opacity:0.38356168;fill-rule:nonzero;stroke:none"
       d="m 1.0459761,1041.8066 0,5.3807 c 0,1.762 1.461916,3.1749 3.2852054,3.1749 l 86.3836135,0 c 1.823288,0 3.285205,-1.4129 3.285205,-3.1749 l 0,-5.3807 -92.9540239,0 z"
       id="rect3783"
       inkscape:connector-curvature="0" />
    <rect
       style="fill:#ce007c;fill-opacity:1;fill-rule:nonzero;stroke:none"
       id="rect2985-2"
       width="93"
       height="88.999962"
       x="0.9999969"
       y="957.36224"
       ry="3.1511383" />
    <path
       style="fill:#000000;fill-opacity:0.38356168;fill-rule:nonzero;stroke:none"
       d="m 1,1042.3622 0.045976,2.7457 c 0.03024,1.8058 1.461916,3.2543 3.2852054,3.2543 l 86.3836136,0 c 1.823288,0 3.285205,-1.4481 3.285205,-3.2543 l -0.04598,-2.7457 z"
       id="rect3781"
       inkscape:connector-curvature="0"
       sodipodi:nodetypes="csssscc" />
    <rect
       style="fill:#ffffff;fill-opacity:0.30000001;fill-rule:nonzero;stroke:none"
       id="rect3770"
       width="92.954033"
       height="2.000005"
       x="1.045976"
       y="1040.3622" />
    <path
       sodipodi:nodetypes="czzzc"
       inkscape:connector-curvature="0"
       id="path3789"
       d="m 69.770553,979.49298 c -8.779189,-2.00171 -25.697187,-3.90653 -36.177562,3.04847 -10.480361,6.95498 -11.696042,22.85645 -2.45349,32.49535 9.242553,9.6388 24.791284,10.1156 33.261998,-0.366 8.470728,-10.4815 6.859367,-26.46975 5.369054,-35.17782 z"
       style="fill:#000000;fill-opacity:0.33333333;fill-rule:nonzero;stroke:none" />
    <path
       style="fill:#000000;fill-opacity:0.33333333;fill-rule:nonzero;stroke:none"
       d="m 69.770553,981.45209 c -8.779189,-2.00171 -25.697187,-3.90653 -36.177562,3.04847 -10.480361,6.95498 -11.696042,22.85654 -2.45349,32.49534 9.242553,9.6388 24.791284,10.1156 33.261998,-0.366 8.470728,-10.4815 6.859367,-26.46974 5.369054,-35.17781 z"
       id="path3791"
       inkscape:connector-curvature="0"
       sodipodi:nodetypes="czzzc" />
    <path
       sodipodi:nodetypes="czzzc"
       inkscape:connector-curvature="0"
       id="path3793"
       d="m 69.770553,983.4112 c -8.779189,-2.00171 -25.697187,-3.90653 -36.177562,3.04847 -10.480361,6.95498 -11.696042,22.85653 -2.45349,32.49533 9.242553,9.6388 24.791284,10.1157 33.261998,-0.366 8.470728,-10.4815 6.859367,-26.46973 5.369054,-35.1778 z"
       style="fill:#000000;fill-opacity:0.33333333;fill-rule:nonzero;stroke:none" />
    <path
       style="fill:url(#radialGradient3787);fill-opacity:1;fill-rule:nonzero;stroke:none"
       d="m 69.770553,977.53156 c -8.779189,-2.04349 -25.697187,-3.98806 -36.177562,3.1121 -10.480361,7.10014 -11.696042,23.33354 -2.45349,33.17354 9.242553,9.84 24.791284,10.3268 33.261998,-0.3736 8.470728,-10.7003 6.859367,-27.02222 5.369054,-35.91204 z"
       id="path2989"
       inkscape:connector-curvature="0"
       sodipodi:nodetypes="czzzc" />
    <path
       style="fill:#ce007c;fill-opacity:1;fill-rule:nonzero;stroke:none"
       d="m 48.333334,982.36216 0,6.66667 0,10.89584 C 47.354377,999.36 46.211333,999.02883 45,999.02883 c -3.681898,0 -6.666667,2.98477 -6.666667,6.66667 0,3.6819 2.984769,6.6667 6.666667,6.6667 3.681898,0 6.512126,-2.988 6.666667,-6.6667 l 0,-16.66667 c 2.666667,3.33333 2.666667,4 0.666667,10 10.000001,-10.66667 0,-12 -0.666667,-16.66667 z M 45,1002.3622 c 1.84095,0 3.333334,1.4924 3.333334,3.3333 0,1.8409 -1.492384,3.3334 -3.333334,3.3334 -1.840949,0 -3.333333,-1.4925 -3.333333,-3.3334 0,-1.8409 1.492384,-3.3333 3.333333,-3.3333 z"
       id="rect3771"
       inkscape:connector-curvature="0"
       sodipodi:nodetypes="cccssscccccsssss" />
  </g>
</svg>
