<?xml version="1.0" encoding="UTF-8" standalone="no"?>
<!-- Created with Inkscape (http://www.inkscape.org/) -->

<svg
   xmlns:dc="http://purl.org/dc/elements/1.1/"
   xmlns:cc="http://creativecommons.org/ns#"
   xmlns:rdf="http://www.w3.org/1999/02/22-rdf-syntax-ns#"
   xmlns:svg="http://www.w3.org/2000/svg"
   xmlns="http://www.w3.org/2000/svg"
   xmlns:xlink="http://www.w3.org/1999/xlink"
   xmlns:sodipodi="http://sodipodi.sourceforge.net/DTD/sodipodi-0.dtd"
   xmlns:inkscape="http://www.inkscape.org/namespaces/inkscape"
   width="96"
   height="96"
   id="svg2"
   version="1.1"
   inkscape:version="0.48.4 r9939"
   sodipodi:docname="celestia.svg">
  <defs
     id="defs4">
    <linearGradient
       id="linearGradient3898">
      <stop
         style="stop-color:#ff6600;stop-opacity:1;"
         offset="0"
         id="stop3900" />
      <stop
         style="stop-color:#ff8100;stop-opacity:1;"
         offset="1"
         id="stop3902" />
    </linearGradient>
    <linearGradient
       id="linearGradient716-16">
      <stop
         style="stop-color:#ffffff;stop-opacity:1;"
         offset="0"
         id="stop717-2" />
      <stop
         style="stop-color:#000000;stop-opacity:1;"
         offset="1"
         id="stop718-0" />
    </linearGradient>
    <linearGradient
       id="linearGradient635-22">
      <stop
         style="stop-color:#ff8200;stop-opacity:1;"
         offset="0"
         id="stop636-3" />
      <stop
         style="stop-color:#ffe700;stop-opacity:1;"
         offset="1"
         id="stop637-3" />
    </linearGradient>
    <linearGradient
       id="linearGradient738-7">
      <stop
         style="stop-color:#f19e9e;stop-opacity:1;"
         offset="0"
         id="stop739-2" />
      <stop
         style="stop-color:#ff0000;stop-opacity:1;"
         offset="1"
         id="stop740-4" />
    </linearGradient>
    <linearGradient
       id="linearGradient628">
      <stop
         style="stop-color:#ff9700;stop-opacity:0.9059;"
         offset="0"
         id="stop629" />
      <stop
         style="stop-color:#ffffff;stop-opacity:1;"
         offset="1"
         id="stop630" />
    </linearGradient>
    <linearGradient
       id="linearGradient633">
      <stop
         style="stop-color:#ff9700;stop-opacity:0.7922;"
         offset="0"
         id="stop634" />
      <stop
         style="stop-color:#ffc500;stop-opacity:0.0706;"
         offset="1"
         id="stop635" />
    </linearGradient>
    <linearGradient
       inkscape:collect="always"
       xlink:href="#linearGradient3898"
       id="linearGradient3904"
       x1="30"
       y1="1047.3622"
       x2="30"
       y2="957.36218"
       gradientUnits="userSpaceOnUse" />
    <linearGradient
       inkscape:collect="always"
       xlink:href="#linearGradient628"
       id="linearGradient3940"
       gradientUnits="userSpaceOnUse"
       gradientTransform="matrix(0.25689699,-0.1043524,0.02055054,0.05059177,-110.25486,974.12985)"
       x1="112.32906"
       y1="705.98572"
       x2="127.97075"
       y2="946.07745" />
    <linearGradient
       inkscape:collect="always"
       xlink:href="#linearGradient633"
       id="linearGradient3942"
       gradientUnits="userSpaceOnUse"
       gradientTransform="matrix(0.1992501,0,0,0.07599174,-91.139149,965.72145)"
       x1="322.31024"
       y1="456.88339"
       x2="205.19817"
       y2="580.16156" />
    <linearGradient
       inkscape:collect="always"
       xlink:href="#linearGradient628"
       id="linearGradient3945"
       gradientUnits="userSpaceOnUse"
       gradientTransform="scale(2.2558569,0.44329054)"
       x1="194.26202"
       y1="545.64081"
       x2="258.64993"
       y2="119.12351" />
    <radialGradient
       inkscape:collect="always"
       xlink:href="#linearGradient716-16"
       id="radialGradient3947"
       gradientUnits="userSpaceOnUse"
       cx="398.81259"
       cy="448.45496"
       fx="398.81259"
       fy="448.45496"
       r="3.2000804" />
    <radialGradient
       inkscape:collect="always"
       xlink:href="#linearGradient716-16"
       id="radialGradient3949"
       gradientUnits="userSpaceOnUse"
       cx="398.81259"
       cy="448.45496"
       fx="398.81259"
       fy="448.45496"
       r="3.2000804" />
    <linearGradient
       inkscape:collect="always"
       xlink:href="#linearGradient635-22"
       id="linearGradient3951"
       gradientUnits="userSpaceOnUse"
       gradientTransform="scale(1.3436351,0.7442497)"
       x1="293.72403"
       y1="633.70721"
       x2="315.1499"
       y2="603.40045" />
    <linearGradient
       inkscape:collect="always"
       xlink:href="#linearGradient738-7"
       id="linearGradient3954"
       gradientUnits="userSpaceOnUse"
       gradientTransform="matrix(0.52171355,0,0,0.09229801,87.668261,762.46005)"
       spreadMethod="reflect"
       x1="102.07376"
       y1="1017.7301"
       x2="112.09986"
       y2="1015.9534" />
  </defs>
  <sodipodi:namedview
     id="base"
     pagecolor="#ffffff"
     bordercolor="#666666"
     borderopacity="1.0"
     inkscape:pageopacity="0.0"
     inkscape:pageshadow="2"
     inkscape:zoom="4.1763494"
     inkscape:cx="6.900071"
     inkscape:cy="48"
     inkscape:document-units="px"
     inkscape:current-layer="layer1"
     showgrid="true"
     inkscape:snap-page="true"
     inkscape:snap-global="true"
     inkscape:snap-center="true"
     inkscape:snap-object-midpoints="false"
     showguides="true"
     inkscape:guide-bbox="true"
     inkscape:snap-bbox="true"
     inkscape:object-paths="true"
     inkscape:object-nodes="true"
     inkscape:window-width="1305"
     inkscape:window-height="744"
     inkscape:window-x="61"
     inkscape:window-y="24"
     inkscape:window-maximized="1"
     inkscape:snap-midpoints="true"
     inkscape:snap-grids="true"
     inkscape:snap-to-guides="false">
    <inkscape:grid
       type="xygrid"
       id="grid3002"
       empspacing="5"
       visible="true"
       enabled="true"
       snapvisiblegridlinesonly="true" />
  </sodipodi:namedview>
  <metadata
     id="metadata7">
    <rdf:RDF>
      <cc:Work
         rdf:about="">
        <dc:format>image/svg+xml</dc:format>
        <dc:type
           rdf:resource="http://purl.org/dc/dcmitype/StillImage" />
        <dc:title />
      </cc:Work>
    </rdf:RDF>
  </metadata>
  <g
     inkscape:label="Layer 1"
     inkscape:groupmode="layer"
     id="layer1"
     transform="translate(0,-956.36218)">
    <rect
       style="fill:#ffffff;fill-opacity:0;fill-rule:nonzero;stroke:none"
       id="rect3775"
       width="96"
       height="96"
       x="0"
       y="956.36218"
       ry="0" />
    <path
       style="fill:#000000;fill-opacity:0.09589041;fill-rule:nonzero;stroke:none"
       d="m 3.353015,956.30662 c -1.884176,0 -3.4111555,1.43156 -3.4111555,3.19799 l 0,83.65949 c 0,1.7665 1.5269795,3.1981 3.4111555,3.1981 l 89.23583,0 c 1.884174,0 3.411155,-1.4316 3.411155,-3.1981 l 0,-83.65949 c 0,-1.76643 -1.526981,-3.19799 -3.411155,-3.19799 z"
       id="rect3772"
       inkscape:connector-curvature="0"
       sodipodi:nodetypes="sssssssss" />
    <path
       style="fill:#000000;fill-opacity:0.18721463;fill-rule:nonzero;stroke:none"
       d="m 1.0459761,1041.8066 0,7.4219 c 0,1.7392 1.461916,3.1337 3.2852054,3.1337 l 86.3836135,0 c 1.823288,0 3.285205,-1.3945 3.285205,-3.1337 l 0,-7.4219 -92.9540239,0 z"
       id="rect3785"
       inkscape:connector-curvature="0" />
    <path
       style="fill:#000000;fill-opacity:0.38356168;fill-rule:nonzero;stroke:none"
       d="m 1.0459761,1041.8066 0,5.3807 c 0,1.762 1.461916,3.1749 3.2852054,3.1749 l 86.3836135,0 c 1.823288,0 3.285205,-1.4129 3.285205,-3.1749 l 0,-5.3807 -92.9540239,0 z"
       id="rect3783"
       inkscape:connector-curvature="0" />
    <rect
       style="fill:url(#linearGradient3904);fill-opacity:1;fill-rule:nonzero;stroke:none"
       id="rect2985"
       width="92.954025"
       height="89"
       x="1.045977"
       y="957.36218"
       ry="3.1511393" />
    <path
       style="fill:#000000;fill-opacity:0.38356168;fill-rule:nonzero;stroke:none"
       d="m 1,1042.3622 0.045976,2.7457 c 0.03024,1.8058 1.461916,3.2543 3.2852054,3.2543 l 86.3836136,0 c 1.823288,0 3.285205,-1.4481 3.285205,-3.2543 l -0.04598,-2.7457 z"
       id="rect3781"
       inkscape:connector-curvature="0"
       sodipodi:nodetypes="csssscc" />
    <rect
       style="fill:#ffffff;fill-opacity:0.30000001;fill-rule:nonzero;stroke:none"
       id="rect3770"
       width="92.954033"
       height="2.000005"
       x="1.045976"
       y="1040.3622" />
    <g
       id="g3009"
       transform="matrix(0.85972362,-0.51075953,0.51075953,0.85972362,-503.18973,165.56309)">
      <path
         id="path2989"
         transform="translate(0,956.36218)"
         d="m 48,19.84375 c -12.242182,0 -22.15625,9.91403 -22.15625,22.15625 0,2.688467 0.467077,5.271915 1.34375,7.65625 C 32.682419,51.318907 39.995252,52.375 48,52.375 c 8.004747,0 15.317581,-1.056093 20.8125,-2.71875 C 69.689173,47.271915 70.15625,44.688467 70.15625,42 70.15625,29.75778 60.242182,19.84375 48,19.84375 z M 35.1875,60.0625 c 3.619432,2.570785 8.034972,4.09375 12.8125,4.09375 4.777528,0 9.193068,-1.522965 12.8125,-4.09375 C 56.780196,60.582511 52.48239,60.875 48,60.875 c -4.48239,0 -8.780196,-0.292489 -12.8125,-0.8125 z"
         style="fill:#ffffff;fill-opacity:1;fill-rule:nonzero;stroke:none"
         inkscape:connector-curvature="0" />
      <path
         id="path2991"
         transform="translate(0,956.36218)"
         d="M 24.78125,32.46875 C 15.472773,35.111188 9.4375,39.288847 9.4375,44 c 0,7.9822 17.258521,14.46875 38.5625,14.46875 21.303979,0 38.5625,-6.48655 38.5625,-14.46875 0,-4.711153 -6.035273,-8.888812 -15.34375,-11.53125 0.317591,0.769897 0.602919,1.569156 0.84375,2.375 5.642361,2.118543 9.125,4.974421 9.125,8.125 0,6.5268 -14.860945,11.8125 -33.1875,11.8125 -18.326556,0 -33.1875,-5.2857 -33.1875,-11.8125 0,-3.150579 3.482639,-6.006457 9.125,-8.125 0.240831,-0.805844 0.526159,-1.605103 0.84375,-2.375 z"
         style="fill:#ffffff;fill-opacity:1;fill-rule:nonzero;stroke:none"
         inkscape:connector-curvature="0" />
    </g>
  </g>
</svg>
