<?xml version="1.0" encoding="UTF-8" standalone="no"?>
<!-- Created with Inkscape (http://www.inkscape.org/) -->

<svg
   xmlns:dc="http://purl.org/dc/elements/1.1/"
   xmlns:cc="http://creativecommons.org/ns#"
   xmlns:rdf="http://www.w3.org/1999/02/22-rdf-syntax-ns#"
   xmlns:svg="http://www.w3.org/2000/svg"
   xmlns="http://www.w3.org/2000/svg"
   xmlns:sodipodi="http://sodipodi.sourceforge.net/DTD/sodipodi-0.dtd"
   xmlns:inkscape="http://www.inkscape.org/namespaces/inkscape"
   width="96"
   height="96"
   id="svg2"
   version="1.1"
   inkscape:version="0.48.4 r9939"
   sodipodi:docname="chrome-ipebkipbeggmmkjjljenoblnfaenambp-Default.svg">
  <defs
     id="defs4" />
  <sodipodi:namedview
     id="base"
     pagecolor="#ffffff"
     bordercolor="#666666"
     borderopacity="1.0"
     inkscape:pageopacity="0.0"
     inkscape:pageshadow="2"
     inkscape:zoom="5.90625"
     inkscape:cx="48"
     inkscape:cy="48"
     inkscape:document-units="px"
     inkscape:current-layer="layer1"
     showgrid="true"
     inkscape:snap-page="true"
     inkscape:snap-global="true"
     inkscape:snap-center="true"
     inkscape:snap-object-midpoints="false"
     showguides="true"
     inkscape:guide-bbox="true"
     inkscape:snap-bbox="true"
     inkscape:object-paths="true"
     inkscape:object-nodes="true"
     inkscape:window-width="1305"
     inkscape:window-height="744"
     inkscape:window-x="61"
     inkscape:window-y="24"
     inkscape:window-maximized="1"
     inkscape:snap-midpoints="false"
     inkscape:snap-grids="true"
     inkscape:snap-to-guides="false">
    <inkscape:grid
       type="xygrid"
       id="grid3002"
       empspacing="5"
       visible="true"
       enabled="true"
       snapvisiblegridlinesonly="true" />
  </sodipodi:namedview>
  <metadata
     id="metadata7">
    <rdf:RDF>
      <cc:Work
         rdf:about="">
        <dc:format>image/svg+xml</dc:format>
        <dc:type
           rdf:resource="http://purl.org/dc/dcmitype/StillImage" />
        <dc:title />
      </cc:Work>
    </rdf:RDF>
  </metadata>
  <g
     inkscape:label="Layer 1"
     inkscape:groupmode="layer"
     id="layer1"
     transform="translate(0,-956.36218)">
    <rect
       style="fill:#ffffff;fill-opacity:0;fill-rule:nonzero;stroke:none"
       id="rect3775"
       width="96"
       height="96"
       x="0"
       y="956.36218"
       ry="0" />
    <path
       style="fill:#000000;fill-opacity:0.09589041;fill-rule:nonzero;stroke:none"
       d="m 3.353015,956.30662 c -1.884176,0 -3.4111555,1.43156 -3.4111555,3.19799 l 0,83.65949 c 0,1.7665 1.5269795,3.1981 3.4111555,3.1981 l 89.23583,0 c 1.884174,0 3.411155,-1.4316 3.411155,-3.1981 l 0,-83.65949 c 0,-1.76643 -1.526981,-3.19799 -3.411155,-3.19799 z"
       id="rect3772"
       inkscape:connector-curvature="0"
       sodipodi:nodetypes="sssssssss" />
    <path
       style="fill:#000000;fill-opacity:0.18721463;fill-rule:nonzero;stroke:none"
       d="m 1.0459761,1041.8066 0,7.4219 c 0,1.7392 1.461916,3.1337 3.2852054,3.1337 l 86.3836135,0 c 1.823288,0 3.285205,-1.3945 3.285205,-3.1337 l 0,-7.4219 -92.9540239,0 z"
       id="rect3785"
       inkscape:connector-curvature="0" />
    <path
       style="fill:#000000;fill-opacity:0.38356168;fill-rule:nonzero;stroke:none"
       d="m 1.0459761,1041.8066 0,5.3807 c 0,1.762 1.461916,3.1749 3.2852054,3.1749 l 86.3836135,0 c 1.823288,0 3.285205,-1.4129 3.285205,-3.1749 l 0,-5.3807 -92.9540239,0 z"
       id="rect3783"
       inkscape:connector-curvature="0" />
    <rect
       style="fill:#ff6600;fill-opacity:1;fill-rule:nonzero;stroke:none"
       id="rect2985"
       width="92.954025"
       height="89"
       x="1.045977"
       y="-1046.3622"
       ry="3.1511393"
       transform="scale(1,-1)" />
    <path
       style="fill:#000000;fill-opacity:0.38356168;fill-rule:nonzero;stroke:none"
       d="m 1,1042.3622 0.045976,2.7457 c 0.03024,1.8058 1.461916,3.2543 3.2852054,3.2543 l 86.3836136,0 c 1.823288,0 3.285205,-1.4481 3.285205,-3.2543 l -0.04598,-2.7457 z"
       id="rect3781"
       inkscape:connector-curvature="0"
       sodipodi:nodetypes="csssscc" />
    <rect
       style="fill:#ffffff;fill-opacity:0.30000001;fill-rule:nonzero;stroke:none"
       id="rect3770"
       width="92.954033"
       height="2.000005"
       x="1.045976"
       y="1040.3622" />
    <path
       style="fill:#ffffff;fill-opacity:1;stroke:none"
       d="M 48.9375,16 C 47.583701,16 46.258696,16.184511 45,16.46875 L 45,61 66.09375,61 C 73.785648,61 80,55.2165 80,48.0625 80,40.90854 73.785648,35.09375 66.09375,35.09375 65.726772,35.09375 65.359821,35.0992 65,35.125 65.316586,33.93421 65.53125,32.71944 65.53125,31.4375 65.53125,23.177 58.521129,16.41349 49.75,16 c -0.282934,-0.0134 -0.525988,0 -0.8125,0 z"
       transform="translate(0,956.36218)"
       id="path2998"
       inkscape:connector-curvature="0"
       sodipodi:nodetypes="sccssscscs" />
    <path
       style="fill:#ffffff;fill-opacity:1;stroke:none"
       d="M 44.96875 16.46875 L 43 41 L 44.90625 61 L 45 61 L 45 16.46875 C 44.990025 16.471003 44.978718 16.466481 44.96875 16.46875 z M 43 41 L 41.15625 17.84375 C 41.050613 17.895942 40.948004 17.945766 40.84375 18 L 39 41 L 40.90625 61 L 41.09375 61 L 43 41 z M 39 41 L 37.34375 20.40625 C 37.079549 20.645914 36.840267 20.900679 36.59375 21.15625 L 35 41 L 36.90625 61 L 37.09375 61 L 39 41 z M 35 41 L 33.75 25.28125 C 33.331478 26.17194 32.983064 27.091937 32.75 28.0625 C 32.634742 28.0595 32.522224 28.03125 32.40625 28.03125 C 32.278252 28.03125 32.158339 28.058977 32.03125 28.0625 L 31 41 L 32.90625 61 L 33.09375 61 L 35 41 z M 31 41 L 29.96875 28.25 C 29.27713 28.375339 28.615284 28.555511 27.96875 28.78125 L 27 41 L 28.90625 61 L 29.09375 61 L 31 41 z M 27 41 L 26.09375 29.625 C 25.25832 30.075042 24.482097 30.609244 23.78125 31.21875 L 23 41 L 24.90625 60.9375 C 24.969305 60.940472 25.03041 60.935565 25.09375 60.9375 L 27 41 z M 23 41 L 22.34375 32.6875 C 20.726333 34.666755 19.75 37.138563 19.75 39.8125 C 19.75 40.83174 19.894284 41.80712 20.15625 42.75 C 19.831706 42.925614 19.520312 43.107073 19.21875 43.3125 L 20.8125 59.96875 C 20.934096 60.024023 21.063339 60.074004 21.1875 60.125 L 23 41 z M 18.75 43.65625 C 17.362022 44.716483 16.284719 46.106284 15.625 47.6875 L 16.4375 56.25 C 16.734777 56.704843 17.066929 57.128927 17.4375 57.53125 L 18.75 43.65625 z "
       transform="translate(0,956.36218)"
       id="path3850" />
  </g>
</svg>
