<?xml version="1.0" encoding="UTF-8" standalone="no"?>
<!-- Created with Inkscape (http://www.inkscape.org/) -->

<svg
   xmlns:dc="http://purl.org/dc/elements/1.1/"
   xmlns:cc="http://creativecommons.org/ns#"
   xmlns:rdf="http://www.w3.org/1999/02/22-rdf-syntax-ns#"
   xmlns:svg="http://www.w3.org/2000/svg"
   xmlns="http://www.w3.org/2000/svg"
   xmlns:sodipodi="http://sodipodi.sourceforge.net/DTD/sodipodi-0.dtd"
   xmlns:inkscape="http://www.inkscape.org/namespaces/inkscape"
   width="96"
   height="96"
   id="svg2"
   version="1.1"
   inkscape:version="0.48.4 r9939"
   sodipodi:docname="chrome-ejjicmeblgpmajnghnpcppodonldlgfn-Default.svg">
  <defs
     id="defs4" />
  <sodipodi:namedview
     id="base"
     pagecolor="#ffffff"
     bordercolor="#666666"
     borderopacity="1.0"
     inkscape:pageopacity="0.0"
     inkscape:pageshadow="2"
     inkscape:zoom="5.7281285"
     inkscape:cx="5.2184833"
     inkscape:cy="50.530276"
     inkscape:document-units="px"
     inkscape:current-layer="layer1"
     showgrid="true"
     inkscape:snap-page="true"
     inkscape:snap-global="true"
     inkscape:snap-center="true"
     inkscape:snap-object-midpoints="false"
     showguides="true"
     inkscape:guide-bbox="true"
     inkscape:snap-bbox="true"
     inkscape:object-paths="true"
     inkscape:object-nodes="true"
     inkscape:window-width="1305"
     inkscape:window-height="744"
     inkscape:window-x="61"
     inkscape:window-y="24"
     inkscape:window-maximized="1"
     inkscape:snap-midpoints="true"
     inkscape:snap-grids="true"
     inkscape:snap-to-guides="false">
    <inkscape:grid
       type="xygrid"
       id="grid3002"
       empspacing="5"
       visible="true"
       enabled="true"
       snapvisiblegridlinesonly="true" />
  </sodipodi:namedview>
  <metadata
     id="metadata7">
    <rdf:RDF>
      <cc:Work
         rdf:about="">
        <dc:format>image/svg+xml</dc:format>
        <dc:type
           rdf:resource="http://purl.org/dc/dcmitype/StillImage" />
        <dc:title />
      </cc:Work>
    </rdf:RDF>
  </metadata>
  <g
     inkscape:label="Layer 1"
     inkscape:groupmode="layer"
     id="layer1"
     transform="translate(0,-956.36218)">
    <rect
       style="fill:#ffffff;fill-opacity:0;fill-rule:nonzero;stroke:none"
       id="rect3775"
       width="96"
       height="96"
       x="0"
       y="956.36218"
       ry="0" />
    <path
       style="fill:#000000;fill-opacity:0.09589041;fill-rule:nonzero;stroke:none"
       d="m 3.353015,956.30662 c -1.884176,0 -3.4111555,1.43156 -3.4111555,3.19799 l 0,83.65949 c 0,1.7665 1.5269795,3.1981 3.4111555,3.1981 l 89.23583,0 c 1.884174,0 3.411155,-1.4316 3.411155,-3.1981 l 0,-83.65949 c 0,-1.76643 -1.526981,-3.19799 -3.411155,-3.19799 z"
       id="rect3772"
       inkscape:connector-curvature="0"
       sodipodi:nodetypes="sssssssss" />
    <path
       style="fill:#000000;fill-opacity:0.18721463;fill-rule:nonzero;stroke:none"
       d="m 1.0459761,1041.8066 0,7.4219 c 0,1.7392 1.461916,3.1337 3.2852054,3.1337 l 86.3836135,0 c 1.823288,0 3.285205,-1.3945 3.285205,-3.1337 l 0,-7.4219 -92.9540239,0 z"
       id="rect3785"
       inkscape:connector-curvature="0" />
    <path
       style="fill:#000000;fill-opacity:0.38356168;fill-rule:nonzero;stroke:none"
       d="m 1.0459761,1041.8066 0,5.3807 c 0,1.762 1.461916,3.1749 3.2852054,3.1749 l 86.3836135,0 c 1.823288,0 3.285205,-1.4129 3.285205,-3.1749 l 0,-5.3807 -92.9540239,0 z"
       id="rect3783"
       inkscape:connector-curvature="0" />
    <rect
       style="fill:#00cccc;fill-opacity:1;fill-rule:nonzero;stroke:none"
       id="rect2985"
       width="92.954025"
       height="89"
       x="1.045977"
       y="957.36218"
       ry="3.1511393" />
    <path
       style="fill:#000000;fill-opacity:0.38356168;fill-rule:nonzero;stroke:none"
       d="m 1,1042.3622 0.045976,2.7457 c 0.03024,1.8058 1.461916,3.2543 3.2852054,3.2543 l 86.3836136,0 c 1.823288,0 3.285205,-1.4481 3.285205,-3.2543 l -0.04598,-2.7457 z"
       id="rect3781"
       inkscape:connector-curvature="0"
       sodipodi:nodetypes="csssscc" />
    <rect
       style="fill:#ffffff;fill-opacity:0.30000001;fill-rule:nonzero;stroke:none"
       id="rect3770"
       width="92.954033"
       height="2.000005"
       x="1.045976"
       y="1040.3622" />
    <g
       id="g3008"
       transform="translate(93.565341,-1.6793651)">
      <path
         inkscape:connector-curvature="0"
         id="text2993"
         d="m -62.96875,981.45598 c -0.85995,0 -2.01867,0.18731 -3.43752,0.5312 -1.41888,0.3011 -2.83115,0.92921 -4.25,1.875 -1.41888,0.903 -2.675111,2.19821 -3.750001,3.875 -1.07491,1.6769 -1.70302,3.85381 -1.875,6.5625 l 6.718751,0 c 0.17197,-1.59079 0.53479,-2.847 1.09375,-3.75 0.55893,-0.9028 1.18705,-1.56999 1.875,-2 0.68792,-0.4299 1.33554,-0.6639 1.9375,-0.75 0.64493,-0.12889 1.12478,-0.21869 1.46877,-0.21869 0.945894,0 1.819803,0.20679 2.59375,0.59369 0.816904,0.3441 1.503531,0.8044 2.0625,1.40631 0.558926,0.602 0.980255,1.3081 1.28125,2.125 0.300949,0.77399 0.468726,1.6089 0.46875,2.46869 -2.4e-5,0.086 -0.03903,0.4684 -0.125,1.15628 -0.04302,0.688 -0.308317,1.4331 -0.78125,2.25 -0.429982,0.8169 -1.116609,1.5933 -2.0625,2.2812 -0.945932,0.64504 -2.280178,0.93754 -4.00001,0.93754 l -2.34376,0 0,6.7184 2.46876,0 c 1.160884,0 2.268841,0.2263 3.34376,0.6562 1.074879,0.387 2.026804,0.9253 2.84375,1.6563 0.816901,0.7309 1.46452,1.6438 1.9375,2.7187 0.515927,1.0749 0.781224,2.2726 0.78125,3.5625 -2.6e-5,1.0319 -0.206811,2.0619 -0.59375,3.0938 -0.386989,1.0319 -0.956592,1.9525 -1.6875,2.8125 -0.730955,0.8169 -1.612621,1.5348 -2.6875,2.0937 -1.07492,0.516 -2.292142,0.75 -3.62501,0.75 -0.34398,0 -0.99161,-0.059 -1.93751,-0.1875 -0.90293,-0.129 -1.87436,-0.4723 -2.90625,-1.0312 -0.98892,-0.602 -1.87059,-1.4954 -2.6875,-2.6563 -0.81694,-1.2039 -1.28902,-2.8307 -1.375,-4.9375 l -6.687501,0 c 0,2.1928 0.42132,4.2137 1.28125,6.0625 0.85991,1.8058 1.98737,3.3546 3.40625,4.6875 1.41886,1.3329 3.057411,2.3628 4.906251,3.0938 1.84881,0.7309 3.79167,1.0937 5.81251,1.0937 2.0638,0 4.026161,-0.3433 5.87501,-1.0312 1.8918,-0.688 3.549855,-1.6789 4.96875,-2.9688 1.418839,-1.2899 2.526796,-2.8387 3.34375,-4.6875 0.859888,-1.8918 1.281218,-4.061 1.28125,-6.4687 -3.2e-5,-0.731 -0.07805,-1.5736 -0.25,-2.5625 -0.12902,-1.0319 -0.433325,-2.0814 -0.90625,-3.1563 -0.472987,-1.0749 -1.14011,-2.1751 -2,-3.25 -0.816953,-1.0749 -1.905405,-2.0151 -3.28125,-2.8749 0.558922,-0.5158 1.109021,-1.0463 1.625,-1.5623 0.515924,-0.5588 0.956757,-1.1869 1.34375,-1.8749 0.429931,-0.73094 0.773244,-1.55414 1.03125,-2.50004 0.257946,-0.9459 0.37497,-2.085 0.375,-3.37498 -3e-5,-1.8917 -0.32384,-3.6278 -0.96875,-5.2187 -0.644969,-1.6338 -1.526635,-3.0266 -2.6875,-4.1875 -1.117922,-1.2038 -2.471672,-2.1363 -4.0625,-2.7813 -1.547877,-0.6878 -3.264445,-1.0312 -5.15625,-1.0312 z m 27.96875,0.9062 0,6.125 7.03125,0 0,41.59342 6.6875,0 0,-47.71842 -13.71875,0 z"
         style="font-size:64.49401855px;font-style:normal;font-variant:normal;font-weight:normal;font-stretch:normal;text-align:end;line-height:125%;letter-spacing:0px;word-spacing:0px;text-anchor:end;fill:#ffffff;fill-opacity:1;stroke:none;font-family:mry_KacstQurn;-inkscape-font-specification:mry_KacstQurn" />
      <path
         transform="matrix(0.86842109,0,0,0.78571429,20.540047,952.01695)"
         d="m -105.03063,26.336828 c 0,3.946042 -3.03895,7.144941 -6.78769,7.144941 -3.74874,0 -6.78769,-3.198899 -6.78769,-7.144941 0,-3.946042 3.03895,-7.144941 6.78769,-7.144941 3.74874,0 6.78769,3.198899 6.78769,7.144941 z"
         sodipodi:ry="7.1449409"
         sodipodi:rx="6.7876935"
         sodipodi:cy="26.336828"
         sodipodi:cx="-111.81832"
         id="path2998"
         style="fill:#ffffff;fill-opacity:1;fill-rule:nonzero;stroke:none"
         sodipodi:type="arc" />
      <path
         sodipodi:type="arc"
         style="fill:#ffffff;fill-opacity:1;fill-rule:nonzero;stroke:none"
         id="path3768"
         sodipodi:cx="-111.81832"
         sodipodi:cy="26.336828"
         sodipodi:rx="6.7876935"
         sodipodi:ry="7.1449409"
         d="m -105.03063,26.336828 c 0,3.946042 -3.03895,7.144941 -6.78769,7.144941 -3.74874,0 -6.78769,-3.198899 -6.78769,-7.144941 0,-3.946042 3.03895,-7.144941 6.78769,-7.144941 3.74874,0 6.78769,3.198899 6.78769,7.144941 z"
         transform="matrix(0.86842109,0,0,0.78571429,76.540047,952.01695)" />
    </g>
  </g>
</svg>
