<?xml version="1.0" encoding="UTF-8" standalone="no"?>
<!-- Created with Inkscape (http://www.inkscape.org/) -->

<svg
   xmlns:dc="http://purl.org/dc/elements/1.1/"
   xmlns:cc="http://creativecommons.org/ns#"
   xmlns:rdf="http://www.w3.org/1999/02/22-rdf-syntax-ns#"
   xmlns:svg="http://www.w3.org/2000/svg"
   xmlns="http://www.w3.org/2000/svg"
   xmlns:xlink="http://www.w3.org/1999/xlink"
   xmlns:sodipodi="http://sodipodi.sourceforge.net/DTD/sodipodi-0.dtd"
   xmlns:inkscape="http://www.inkscape.org/namespaces/inkscape"
   width="96"
   height="96"
   id="svg2"
   version="1.1"
   inkscape:version="0.48.4 r9939"
   sodipodi:docname="chrome-bjhodfififgcgedifpkenofdhlaafokk-Default.svg">
  <defs
     id="defs4">
    <linearGradient
       inkscape:collect="always"
       xlink:href="#linearGradient5932-3-2-4"
       id="linearGradient3130"
       gradientUnits="userSpaceOnUse"
       x1="59"
       y1="40"
       x2="69"
       y2="40" />
    <linearGradient
       id="linearGradient5932-3-2-4">
      <stop
         offset="0"
         style="stop-color:#ff7c53;stop-opacity:1"
         id="stop5934-3-2-9" />
      <stop
         offset="0.5"
         style="stop-color:#f21919;stop-opacity:1"
         id="stop5940-1-4-5" />
      <stop
         offset="0.5"
         style="stop-color:#db1414;stop-opacity:1"
         id="stop5942-5-4-7" />
      <stop
         offset="1"
         style="stop-color:#9b1818;stop-opacity:1"
         id="stop5936-2-5-0" />
    </linearGradient>
    <linearGradient
       inkscape:collect="always"
       xlink:href="#linearGradient5944-6-9-3"
       id="linearGradient3132"
       gradientUnits="userSpaceOnUse"
       x1="59"
       y1="88"
       x2="69"
       y2="88" />
    <linearGradient
       id="linearGradient5944-6-9-3">
      <stop
         offset="0"
         style="stop-color:#f0f0f0;stop-opacity:1"
         id="stop5946-9-5-0" />
      <stop
         offset="0.5"
         style="stop-color:#e6e6e6;stop-opacity:1"
         id="stop5952-4-9-7" />
      <stop
         offset="0.5"
         style="stop-color:#d2d2d2;stop-opacity:1"
         id="stop5954-4-7-2" />
      <stop
         offset="1"
         style="stop-color:#bebebe;stop-opacity:1"
         id="stop5948-6-2-1" />
    </linearGradient>
  </defs>
  <sodipodi:namedview
     id="base"
     pagecolor="#ffffff"
     bordercolor="#666666"
     borderopacity="1.0"
     inkscape:pageopacity="0.0"
     inkscape:pageshadow="2"
     inkscape:zoom="5.90625"
     inkscape:cx="48"
     inkscape:cy="48"
     inkscape:document-units="px"
     inkscape:current-layer="layer1"
     showgrid="true"
     inkscape:snap-page="true"
     inkscape:snap-global="true"
     inkscape:snap-center="true"
     inkscape:snap-object-midpoints="false"
     showguides="true"
     inkscape:guide-bbox="true"
     inkscape:snap-bbox="true"
     inkscape:object-paths="true"
     inkscape:object-nodes="true"
     inkscape:window-width="1305"
     inkscape:window-height="744"
     inkscape:window-x="61"
     inkscape:window-y="24"
     inkscape:window-maximized="1"
     inkscape:snap-midpoints="false"
     inkscape:snap-grids="true"
     inkscape:snap-to-guides="false">
    <inkscape:grid
       type="xygrid"
       id="grid3002"
       empspacing="5"
       visible="true"
       enabled="true"
       snapvisiblegridlinesonly="true" />
  </sodipodi:namedview>
  <metadata
     id="metadata7">
    <rdf:RDF>
      <cc:Work
         rdf:about="">
        <dc:format>image/svg+xml</dc:format>
        <dc:type
           rdf:resource="http://purl.org/dc/dcmitype/StillImage" />
        <dc:title />
      </cc:Work>
    </rdf:RDF>
  </metadata>
  <g
     inkscape:label="Layer 1"
     inkscape:groupmode="layer"
     id="layer1"
     transform="translate(0,-956.36218)">
    <rect
       style="fill:#ffffff;fill-opacity:0;fill-rule:nonzero;stroke:none"
       id="rect3775"
       width="96"
       height="96"
       x="0"
       y="956.36218"
       ry="0" />
    <path
       style="fill:#000000;fill-opacity:0.09589041;fill-rule:nonzero;stroke:none"
       d="m 3.353015,956.30662 c -1.884176,0 -3.4111555,1.43156 -3.4111555,3.19799 l 0,83.65949 c 0,1.7665 1.5269795,3.1981 3.4111555,3.1981 l 89.23583,0 c 1.884174,0 3.411155,-1.4316 3.411155,-3.1981 l 0,-83.65949 c 0,-1.76643 -1.526981,-3.19799 -3.411155,-3.19799 z"
       id="rect3772"
       inkscape:connector-curvature="0"
       sodipodi:nodetypes="sssssssss" />
    <path
       style="fill:#000000;fill-opacity:0.18721463;fill-rule:nonzero;stroke:none"
       d="m 1.0459761,1041.8066 0,7.4219 c 0,1.7392 1.461916,3.1337 3.2852054,3.1337 l 86.3836135,0 c 1.823288,0 3.285205,-1.3945 3.285205,-3.1337 l 0,-7.4219 -92.9540239,0 z"
       id="rect3785"
       inkscape:connector-curvature="0" />
    <path
       style="fill:#000000;fill-opacity:0.38356168;fill-rule:nonzero;stroke:none"
       d="m 1.0459761,1041.8066 0,5.3807 c 0,1.762 1.461916,3.1749 3.2852054,3.1749 l 86.3836135,0 c 1.823288,0 3.285205,-1.4129 3.285205,-3.1749 l 0,-5.3807 -92.9540239,0 z"
       id="rect3783"
       inkscape:connector-curvature="0" />
    <rect
       style="fill:#00bce2;fill-opacity:1;fill-rule:nonzero;stroke:none"
       id="rect2985-2"
       width="93"
       height="88.999962"
       x="0.9999969"
       y="957.36224"
       ry="3.1511383" />
    <path
       style="fill:#000000;fill-opacity:0.38356168;fill-rule:nonzero;stroke:none"
       d="m 1,1042.3622 0.045976,2.7457 c 0.03024,1.8058 1.461916,3.2543 3.2852054,3.2543 l 86.3836136,0 c 1.823288,0 3.285205,-1.4481 3.285205,-3.2543 l -0.04598,-2.7457 z"
       id="rect3781"
       inkscape:connector-curvature="0"
       sodipodi:nodetypes="csssscc" />
    <rect
       style="fill:#ffffff;fill-opacity:0.30000001;fill-rule:nonzero;stroke:none"
       id="rect3770"
       width="92.954033"
       height="2.000005"
       x="1.045976"
       y="1040.3622" />
    <path
       style="font-size:medium;font-style:normal;font-variant:normal;font-weight:normal;font-stretch:normal;text-indent:0;text-align:start;text-decoration:none;line-height:normal;letter-spacing:normal;word-spacing:normal;text-transform:none;direction:ltr;block-progression:tb;writing-mode:lr-tb;text-anchor:start;baseline-shift:baseline;color:#000000;fill:#ffffff;fill-opacity:1;fill-rule:nonzero;stroke:none;stroke-width:4.30000019;marker:none;visibility:visible;display:inline;overflow:visible;enable-background:accumulate;font-family:Sans;-inkscape-font-specification:Sans"
       d="m 46.0625,972.67625 -2.0625,0.125 0,0.1875 c -7.144295,1.36366 -12.59375,7.68049 -12.59375,15.25 0,0.41208 0.121588,0.75977 0.15625,1.15625 -6.590818,0.7864 -11.71875,6.4539 -11.71875,13.2813 0,7.3573 5.92913,13.3749 13.25,13.375 l 32.4375,0 c 0.02186,7e-4 0.04069,-6e-4 0.0625,0 3.5308,0.096 6.350289,-1.3871 8.0625,-3.5 1.722788,-2.126 2.428129,-4.713 2.5,-7.0938 l 0,-0.062 0,-0.031 c 0,-3.3661 -1.624365,-6.3006 -4.0625,-8.25 0.07617,-0.5379 0.1875,-1.0543 0.1875,-1.625 0,-6.3835 -4.866146,-11.63518 -11.0625,-12.24995 -2.088692,-6.08466 -7.639673,-10.5625 -14.375,-10.5625 -0.156413,0 -0.412765,-0.0189 -0.78125,0 z m 0.21875,4.3125 c 0.08384,-0.004 0.260885,0 0.5625,0 5.31717,0 9.698956,3.74448 10.8125,8.78125 l 0.40625,1.75 1.78125,-0.0625 c 0.327844,-0.0107 0.373037,-0.0312 0.1875,-0.0312 4.409169,0 7.96875,3.5724 7.96875,8.0624 0,0.6827 -0.109032,1.358 -0.28125,2.0313 l -0.40625,1.5625 1.40625,0.8125 c 1.851121,1.088 3.133346,3.0738 3.15625,5.4063 2.11e-4,0.021 0,0.041 0,0.062 -0.05914,1.5753 -0.608704,3.323 -1.5625,4.5 -0.965792,1.192 -2.25191,1.9533 -4.65625,1.875 l -0.03125,0 -0.03125,0 -32.5,0 c -4.97599,0 -8.96875,-3.9973 -8.96875,-9.0624 0,-5.065 3.997637,-9.1251 8.96875,-9.125 0.195618,0 0.44438,0.01 0.71875,0.031 l 2.96875,0.2188 -0.71875,-2.875 c -0.222823,-0.9103 -0.34375,-1.78675 -0.34375,-2.6875 0,-6.05528 4.686758,-10.94912 10.5625,-11.25 z"
       id="path3880"
       inkscape:connector-curvature="0" />
  </g>
</svg>
