<?xml version="1.0" encoding="UTF-8" standalone="no"?>
<!-- Created with Inkscape (http://www.inkscape.org/) -->

<svg
   xmlns:dc="http://purl.org/dc/elements/1.1/"
   xmlns:cc="http://creativecommons.org/ns#"
   xmlns:rdf="http://www.w3.org/1999/02/22-rdf-syntax-ns#"
   xmlns:svg="http://www.w3.org/2000/svg"
   xmlns="http://www.w3.org/2000/svg"
   xmlns:xlink="http://www.w3.org/1999/xlink"
   xmlns:sodipodi="http://sodipodi.sourceforge.net/DTD/sodipodi-0.dtd"
   xmlns:inkscape="http://www.inkscape.org/namespaces/inkscape"
   width="96"
   height="96"
   id="svg2"
   version="1.1"
   inkscape:version="0.48.4 r9939"
   sodipodi:docname="chrome-http___www.behance.net_.svg">
  <defs
     id="defs4">
    <linearGradient
       id="linearGradient3792">
      <stop
         style="stop-color:#0069d3;stop-opacity:1;"
         offset="0"
         id="stop3794" />
      <stop
         style="stop-color:#3399ff;stop-opacity:1;"
         offset="1"
         id="stop3796" />
    </linearGradient>
    <linearGradient
       inkscape:collect="always"
       xlink:href="#linearGradient3792"
       id="linearGradient3798"
       x1="30"
       y1="1047.3622"
       x2="30"
       y2="957.36218"
       gradientUnits="userSpaceOnUse" />
    <linearGradient
       id="linearGradient3785">
      <stop
         style="stop-color:#ff0000;stop-opacity:1;"
         offset="0"
         id="stop3787" />
      <stop
         id="stop3801"
         offset="0.19882949"
         style="stop-color:#ff6900;stop-opacity:1;" />
      <stop
         id="stop3799"
         offset="0.41699737"
         style="stop-color:#ffed00;stop-opacity:1;" />
      <stop
         id="stop3797"
         offset="0.59457099"
         style="stop-color:#1eff00;stop-opacity:1;" />
      <stop
         id="stop3795"
         offset="0.72140741"
         style="stop-color:#00ffe2;stop-opacity:1;" />
      <stop
         id="stop3793"
         offset="0.86589324"
         style="stop-color:#1a00ff;stop-opacity:1;" />
      <stop
         style="stop-color:#ff00b4;stop-opacity:1;"
         offset="1"
         id="stop3789" />
    </linearGradient>
    <linearGradient
       inkscape:collect="always"
       xlink:href="#linearGradient3785"
       id="linearGradient3814"
       gradientUnits="userSpaceOnUse"
       x1="20"
       y1="1032.3622"
       x2="90"
       y2="962.36218"
       gradientTransform="translate(0,-956.36218)" />
  </defs>
  <sodipodi:namedview
     id="base"
     pagecolor="#ffffff"
     bordercolor="#666666"
     borderopacity="1.0"
     inkscape:pageopacity="0.0"
     inkscape:pageshadow="2"
     inkscape:zoom="5.90625"
     inkscape:cx="-5.4179894"
     inkscape:cy="48"
     inkscape:document-units="px"
     inkscape:current-layer="layer1"
     showgrid="true"
     inkscape:snap-page="true"
     inkscape:snap-global="true"
     inkscape:snap-center="true"
     inkscape:snap-object-midpoints="false"
     showguides="true"
     inkscape:guide-bbox="true"
     inkscape:snap-bbox="true"
     inkscape:object-paths="true"
     inkscape:object-nodes="true"
     inkscape:window-width="1305"
     inkscape:window-height="744"
     inkscape:window-x="61"
     inkscape:window-y="24"
     inkscape:window-maximized="1"
     inkscape:snap-midpoints="false"
     inkscape:snap-grids="true"
     inkscape:snap-to-guides="false">
    <inkscape:grid
       type="xygrid"
       id="grid3002"
       empspacing="5"
       visible="true"
       enabled="true"
       snapvisiblegridlinesonly="true" />
  </sodipodi:namedview>
  <metadata
     id="metadata7">
    <rdf:RDF>
      <cc:Work
         rdf:about="">
        <dc:format>image/svg+xml</dc:format>
        <dc:type
           rdf:resource="http://purl.org/dc/dcmitype/StillImage" />
        <dc:title />
      </cc:Work>
    </rdf:RDF>
  </metadata>
  <g
     inkscape:label="Layer 1"
     inkscape:groupmode="layer"
     id="layer1"
     transform="translate(0,-956.36218)">
    <rect
       style="fill:#ffffff;fill-opacity:0;fill-rule:nonzero;stroke:none"
       id="rect3775"
       width="96"
       height="96"
       x="0"
       y="956.36218"
       ry="0" />
    <path
       style="fill:#000000;fill-opacity:0.09589041;fill-rule:nonzero;stroke:none"
       d="m 3.353015,956.30662 c -1.884176,0 -3.4111555,1.43156 -3.4111555,3.19799 l 0,83.65949 c 0,1.7665 1.5269795,3.1981 3.4111555,3.1981 l 89.23583,0 c 1.884174,0 3.411155,-1.4316 3.411155,-3.1981 l 0,-83.65949 c 0,-1.76643 -1.526981,-3.19799 -3.411155,-3.19799 z"
       id="rect3772"
       inkscape:connector-curvature="0"
       sodipodi:nodetypes="sssssssss" />
    <path
       style="fill:#000000;fill-opacity:0.18721463;fill-rule:nonzero;stroke:none"
       d="m 1.0459761,1041.8066 0,7.4219 c 0,1.7392 1.461916,3.1337 3.2852054,3.1337 l 86.3836135,0 c 1.823288,0 3.285205,-1.3945 3.285205,-3.1337 l 0,-7.4219 -92.9540239,0 z"
       id="rect3785"
       inkscape:connector-curvature="0" />
    <path
       style="fill:#000000;fill-opacity:0.38356168;fill-rule:nonzero;stroke:none"
       d="m 1.0459761,1041.8066 0,5.3807 c 0,1.762 1.461916,3.1749 3.2852054,3.1749 l 86.3836135,0 c 1.823288,0 3.285205,-1.4129 3.285205,-3.1749 l 0,-5.3807 -92.9540239,0 z"
       id="rect3783"
       inkscape:connector-curvature="0" />
    <rect
       style="fill:url(#linearGradient3798);fill-opacity:1;fill-rule:nonzero;stroke:none"
       id="rect2985"
       width="92.954025"
       height="89"
       x="1.045977"
       y="957.36218"
       ry="3.1511393" />
    <path
       style="fill:#000000;fill-opacity:0.38356168;fill-rule:nonzero;stroke:none"
       d="m 1,1042.3622 0.045976,2.7457 c 0.03024,1.8058 1.461916,3.2543 3.2852054,3.2543 l 86.3836136,0 c 1.823288,0 3.285205,-1.4481 3.285205,-3.2543 l -0.04598,-2.7457 z"
       id="rect3781"
       inkscape:connector-curvature="0"
       sodipodi:nodetypes="csssscc" />
    <rect
       style="fill:#ffffff;fill-opacity:0.30000001;fill-rule:nonzero;stroke:none"
       id="rect3770"
       width="92.954033"
       height="2.000005"
       x="1.045976"
       y="1040.3622" />
    <g
       id="g3009"
       transform="matrix(0.98598503,0,0,1,124.32896,5.73338)">
      <path
         style="font-size:41.86923218px;font-style:normal;font-variant:normal;font-weight:bold;font-stretch:normal;text-align:end;line-height:125%;letter-spacing:0px;word-spacing:0px;writing-mode:lr-tb;text-anchor:end;fill:#003b88;fill-opacity:0.24657533;stroke:none;font-family:Helvetica Neue LT Com;-inkscape-font-specification:Helvetica Neue LT Com Bold"
         d="m -105.81191,973.6288 0,33.7677 16.354019,0 c 1.514375,0 2.995463,-0.1867 4.415232,-0.5652 1.451271,-0.3786 2.710492,-0.9774 3.814761,-1.7661 1.135758,-0.7887 2.057212,-1.7718 2.719782,-3.0023 0.662525,-1.262 0.988978,-2.74678 0.989012,-4.45048 -3.4e-5,-2.1139 -0.513043,-3.9215 -1.554161,-5.4043 -1.009618,-1.5144 -2.580225,-2.5796 -4.662485,-3.179 1.482817,-0.7257 2.637452,-1.6547 3.42622,-2.7904 0.788723,-1.1673 1.165598,-2.5665 1.165621,-4.2386 -2.3e-5,-1.5775 -0.240765,-2.9187 -0.777081,-3.9914 -0.504825,-1.0727 -1.243487,-1.9122 -2.189955,-2.5432 -0.946512,-0.6625 -2.065837,-1.1289 -3.390898,-1.4129 -1.325118,-0.28388 -2.806205,-0.42379 -4.415232,-0.42382 l -15.894835,0 z m 35.639752,1.27162 0,5.7927 14.234708,0 0,-5.7927 -14.234708,0 z m -28.222162,4.4858 6.95841,0 c 0.662532,10e-5 1.30791,0.05 1.907376,0.1766 0.630978,0.095 1.186859,0.2813 1.660127,0.5652 0.473222,0.284 0.846323,0.6962 1.130299,1.2009 0.28392,0.5049 0.42384,1.154 0.423862,1.9427 -2.2e-5,1.4198 -0.419759,2.4421 -1.271586,3.0731 -0.851862,0.631 -1.959849,0.9537 -3.284933,0.9537 l -7.523555,0 0,-7.9122 z m 36.452154,2.8964 c -1.861456,1e-4 -3.575736,0.3265 -5.121669,0.989 -1.514397,0.6626 -2.816491,1.5878 -3.920726,2.7552 -1.104257,1.1358 -1.94373,2.4845 -2.543173,4.0619 -0.599454,1.5775 -0.918368,3.2564 -0.918368,5.0864 0,1.8929 0.279828,3.6501 0.847724,5.22758 0.599443,1.5775 1.435153,2.9264 2.507852,4.0621 1.072688,1.1358 2.410103,2.018 3.956048,2.6491 1.545933,0.631 3.267763,0.9537 5.192312,0.9537 2.776366,0 5.143586,-0.6491 7.099693,-1.9427 1.956073,-1.2935 3.398075,-3.3847 4.344588,-6.28728 l -5.89875,0 c -0.220871,0.75728 -0.823389,1.46058 -1.801414,2.15468 -0.97806,0.6626 -2.140245,1.0242 -3.496864,1.0242 -1.893003,0 -3.370326,-0.5054 -4.37991,-1.4835 -1.009606,-1.0096 -1.565521,-2.58768 -1.660127,-4.73308 l 17.660927,0 c 0.126176,-1.893 -0.01751,-3.7042 -0.459184,-5.4396 -0.441721,-1.7351 -1.180383,-3.2705 -2.189955,-4.6271 -0.97807,-1.3566 -2.233516,-2.4255 -3.779438,-3.2143 -1.545956,-0.8203 -3.357294,-1.2362 -5.439566,-1.2363 z m -0.176609,5.051 c 1.640584,0 2.849394,0.4589 3.638151,1.3423 0.820281,0.8834 1.379926,2.1464 1.695449,3.8501 l -10.949775,0 c 0.03155,-0.4732 0.160141,-0.99 0.317897,-1.5895 0.189291,-0.5994 0.472894,-1.159 0.883046,-1.6955 0.441698,-0.5363 1.001344,-0.9951 1.695449,-1.3422 0.72563,-0.3785 1.647084,-0.5652 2.719783,-0.5652 z m -36.275545,5.0157 8.088705,0 c 1.609015,0 2.907345,0.3732 3.885404,1.1303 0.978025,0.7257 1.483495,1.9737 1.483518,3.7089 -2.3e-5,0.8833 -0.17904,1.5867 -0.494506,2.1546 -0.283977,0.5679 -0.660852,1.03048 -1.165621,1.37758 -0.504826,0.3154 -1.103568,0.5486 -1.766093,0.7064 -0.662559,0.126 -1.35836,0.212 -2.08399,0.212 l -7.947417,0 0,-9.28978 z"
         id="path3019"
         inkscape:connector-curvature="0" />
      <path
         inkscape:connector-curvature="0"
         id="path3789"
         d="m -105.81191,975.62882 0,33.76768 16.354019,0 c 1.514375,0 2.995463,-0.1867 4.415232,-0.5652 1.451271,-0.3786 2.710492,-0.9774 3.814761,-1.7661 1.135758,-0.7887 2.057212,-1.7718 2.719782,-3.0023 0.662525,-1.262 0.988978,-2.7468 0.989012,-4.45048 -3.4e-5,-2.1139 -0.513043,-3.9215 -1.554161,-5.4043 -1.009618,-1.5144 -2.580225,-2.5796 -4.662485,-3.179 1.482817,-0.7257 2.637452,-1.6547 3.42622,-2.7904 0.788723,-1.1673 1.165598,-2.5664 1.165621,-4.2386 -2.3e-5,-1.5775 -0.240765,-2.9187 -0.777081,-3.9914 -0.504825,-1.0727 -1.243487,-1.9122 -2.189955,-2.5432 -0.946512,-0.6625 -2.065837,-1.1289 -3.390898,-1.4129 -1.325118,-0.2839 -2.806205,-0.4238 -4.415232,-0.4238 l -15.894835,0 z m 35.639752,1.2716 0,5.7927 14.234708,0 0,-5.7927 -14.234708,0 z m -28.222162,4.4858 6.95841,0 c 0.662532,10e-5 1.30791,0.05 1.907376,0.1766 0.630978,0.095 1.186859,0.2813 1.660127,0.5652 0.473222,0.284 0.846323,0.6962 1.130299,1.2009 0.28392,0.5049 0.42384,1.154 0.423862,1.9428 -2.2e-5,1.4197 -0.419759,2.442 -1.271586,3.073 -0.851862,0.631 -1.959849,0.9537 -3.284933,0.9537 l -7.523555,0 0,-7.9122 z m 36.452154,2.8964 c -1.861456,1e-4 -3.575736,0.3265 -5.121669,0.9891 -1.514397,0.6626 -2.816491,1.5878 -3.920726,2.7551 -1.104257,1.1358 -1.94373,2.4845 -2.543173,4.0619 -0.599454,1.5775 -0.918368,3.2564 -0.918368,5.0864 0,1.8929 0.279828,3.65008 0.847724,5.22758 0.599443,1.5775 1.435153,2.9264 2.507852,4.0621 1.072688,1.1358 2.410103,2.018 3.956048,2.6491 1.545933,0.631 3.267763,0.9537 5.192312,0.9537 2.776366,0 5.143586,-0.6491 7.099693,-1.9427 1.956073,-1.2935 3.398075,-3.3847 4.344588,-6.2873 l -5.89875,0 c -0.220871,0.7573 -0.823389,1.4606 -1.801414,2.1547 -0.97806,0.6626 -2.140245,1.0242 -3.496864,1.0242 -1.893003,0 -3.370326,-0.5054 -4.37991,-1.4835 -1.009606,-1.0096 -1.565521,-2.5877 -1.660127,-4.73308 l 17.660927,0 c 0.126176,-1.893 -0.01751,-3.7042 -0.459184,-5.4396 -0.441721,-1.7351 -1.180383,-3.2705 -2.189955,-4.6271 -0.97807,-1.3566 -2.233516,-2.4255 -3.779438,-3.2143 -1.545956,-0.8203 -3.357294,-1.2362 -5.439566,-1.2363 z m -0.176609,5.051 c 1.640584,0 2.849394,0.4589 3.638151,1.3423 0.820281,0.8834 1.379926,2.1464 1.695449,3.8501 l -10.949775,0 c 0.03155,-0.4732 0.160141,-0.99 0.317897,-1.5895 0.189291,-0.5994 0.472894,-1.159 0.883046,-1.6955 0.441698,-0.5363 1.001344,-0.9951 1.695449,-1.3422 0.72563,-0.3785 1.647084,-0.5652 2.719783,-0.5652 z m -36.275545,5.0157 8.088705,0 c 1.609015,0 2.907345,0.3732 3.885404,1.1303 0.978025,0.7257 1.483495,1.9737 1.483518,3.7089 -2.3e-5,0.88328 -0.17904,1.58668 -0.494506,2.15458 -0.283977,0.5679 -0.660852,1.0305 -1.165621,1.3776 -0.504826,0.3154 -1.103568,0.5486 -1.766093,0.7064 -0.662559,0.126 -1.35836,0.212 -2.08399,0.212 l -7.947417,0 0,-9.28978 z"
         style="font-size:41.86923218px;font-style:normal;font-variant:normal;font-weight:bold;font-stretch:normal;text-align:end;line-height:125%;letter-spacing:0px;word-spacing:0px;writing-mode:lr-tb;text-anchor:end;fill:#003b88;fill-opacity:0.24657533;stroke:none;font-family:Helvetica Neue LT Com;-inkscape-font-specification:Helvetica Neue LT Com Bold" />
      <path
         style="font-size:41.86923218px;font-style:normal;font-variant:normal;font-weight:bold;font-stretch:normal;text-align:end;line-height:125%;letter-spacing:0px;word-spacing:0px;writing-mode:lr-tb;text-anchor:end;fill:#003b88;fill-opacity:0.24657533;stroke:none;font-family:Helvetica Neue LT Com;-inkscape-font-specification:Helvetica Neue LT Com Bold"
         d="m -105.81191,977.62882 0,33.76768 16.354019,0 c 1.514375,0 2.995463,-0.1867 4.415232,-0.5652 1.451271,-0.3786 2.710492,-0.9774 3.814761,-1.7661 1.135758,-0.7887 2.057212,-1.7718 2.719782,-3.0023 0.662525,-1.262 0.988978,-2.7468 0.989012,-4.4505 -3.4e-5,-2.11388 -0.513043,-3.92148 -1.554161,-5.40428 -1.009618,-1.5144 -2.580225,-2.5796 -4.662485,-3.179 1.482817,-0.7257 2.637452,-1.6547 3.42622,-2.7904 0.788723,-1.1673 1.165598,-2.5664 1.165621,-4.2386 -2.3e-5,-1.5775 -0.240765,-2.9187 -0.777081,-3.9914 -0.504825,-1.0727 -1.243487,-1.9122 -2.189955,-2.5432 -0.946512,-0.6625 -2.065837,-1.1289 -3.390898,-1.4129 -1.325118,-0.2839 -2.806205,-0.4238 -4.415232,-0.4238 l -15.894835,0 z m 35.639752,1.2716 0,5.7927 14.234708,0 0,-5.7927 -14.234708,0 z m -28.222162,4.4858 6.95841,0 c 0.662532,10e-5 1.30791,0.05 1.907376,0.1766 0.630978,0.095 1.186859,0.2813 1.660127,0.5652 0.473222,0.284 0.846323,0.6962 1.130299,1.201 0.28392,0.5048 0.42384,1.154 0.423862,1.9427 -2.2e-5,1.4197 -0.419759,2.442 -1.271586,3.073 -0.851862,0.631 -1.959849,0.9537 -3.284933,0.9537 l -7.523555,0 0,-7.9122 z m 36.452154,2.8965 c -1.861456,0 -3.575736,0.3265 -5.121669,0.989 -1.514397,0.6626 -2.816491,1.5878 -3.920726,2.7551 -1.104257,1.1358 -1.94373,2.4845 -2.543173,4.0619 -0.599454,1.5775 -0.918368,3.2564 -0.918368,5.0864 0,1.89288 0.279828,3.65008 0.847724,5.22758 0.599443,1.5775 1.435153,2.9264 2.507852,4.0621 1.072688,1.1358 2.410103,2.018 3.956048,2.6491 1.545933,0.631 3.267763,0.9537 5.192312,0.9537 2.776366,0 5.143586,-0.6491 7.099693,-1.9427 1.956073,-1.2935 3.398075,-3.3847 4.344588,-6.2873 l -5.89875,0 c -0.220871,0.7573 -0.823389,1.4606 -1.801414,2.1547 -0.97806,0.6626 -2.140245,1.0242 -3.496864,1.0242 -1.893003,0 -3.370326,-0.5054 -4.37991,-1.4835 -1.009606,-1.0096 -1.565521,-2.5877 -1.660127,-4.7331 l 17.660927,0 c 0.126176,-1.89298 -0.01751,-3.70418 -0.459184,-5.43958 -0.441721,-1.7351 -1.180383,-3.2705 -2.189955,-4.6271 -0.97807,-1.3566 -2.233516,-2.4255 -3.779438,-3.2143 -1.545956,-0.8202 -3.357294,-1.2362 -5.439566,-1.2362 z m -0.176609,5.0509 c 1.640584,0 2.849394,0.4589 3.638151,1.3423 0.820281,0.8834 1.379926,2.1464 1.695449,3.8501 l -10.949775,0 c 0.03155,-0.4732 0.160141,-0.99 0.317897,-1.5895 0.189291,-0.5994 0.472894,-1.159 0.883046,-1.6955 0.441698,-0.5363 1.001344,-0.9951 1.695449,-1.3422 0.72563,-0.3785 1.647084,-0.5652 2.719783,-0.5652 z m -36.275545,5.0157 8.088705,0 c 1.609015,0 2.907345,0.3732 3.885404,1.1303 0.978025,0.7257 1.483495,1.9737 1.483518,3.70888 -2.3e-5,0.8833 -0.17904,1.5867 -0.494506,2.1546 -0.283977,0.5679 -0.660852,1.0305 -1.165621,1.3776 -0.504826,0.3154 -1.103568,0.5486 -1.766093,0.7064 -0.662559,0.126 -1.35836,0.212 -2.08399,0.212 l -7.947417,0 0,-9.28978 z"
         id="path3791"
         inkscape:connector-curvature="0" />
      <path
         inkscape:connector-curvature="0"
         id="path3009"
         d="m -105.81191,971.6288 0,33.7677 16.354019,0 c 1.514375,0 2.995463,-0.1867 4.415232,-0.5652 1.451271,-0.3786 2.710492,-0.9774 3.814761,-1.7661 1.135758,-0.7887 2.057212,-1.7718 2.719782,-3.0023 0.662525,-1.26198 0.988978,-2.74678 0.989012,-4.45048 -3.4e-5,-2.1139 -0.513043,-3.9215 -1.554161,-5.4043 -1.009618,-1.5144 -2.580225,-2.5796 -4.662485,-3.179 1.482817,-0.7257 2.637452,-1.6547 3.42622,-2.7904 0.788723,-1.1673 1.165598,-2.5665 1.165621,-4.2386 -2.3e-5,-1.5775 -0.240765,-2.9187 -0.777081,-3.9914 -0.504825,-1.0727 -1.243487,-1.9122 -2.189955,-2.54318 -0.946512,-0.66252 -2.065837,-1.1289 -3.390898,-1.41288 -1.325118,-0.28392 -2.806205,-0.42383 -4.415232,-0.42386 l -15.894835,0 z m 35.639752,1.27159 0,5.79273 14.234708,0 0,-5.79273 -14.234708,0 z m -28.222162,4.48583 6.95841,0 c 0.662532,10e-5 1.30791,0.05 1.907376,0.1766 0.630978,0.095 1.186859,0.2813 1.660127,0.5652 0.473222,0.284 0.846323,0.6962 1.130299,1.2009 0.28392,0.5049 0.42384,1.154 0.423862,1.9427 -2.2e-5,1.4198 -0.419759,2.4421 -1.271586,3.073 -0.851862,0.631 -1.959849,0.9538 -3.284933,0.9538 l -7.523555,0 0,-7.9122 z m 36.452154,2.8964 c -1.861456,1e-4 -3.575736,0.3265 -5.121669,0.989 -1.514397,0.6626 -2.816491,1.5878 -3.920726,2.7551 -1.104257,1.1359 -1.94373,2.4846 -2.543173,4.062 -0.599454,1.5775 -0.918368,3.2564 -0.918368,5.0864 0,1.8929 0.279828,3.6501 0.847724,5.2276 0.599443,1.5775 1.435153,2.92638 2.507852,4.06208 1.072688,1.1358 2.410103,2.018 3.956048,2.6491 1.545933,0.631 3.267763,0.9537 5.192312,0.9537 2.776366,0 5.143586,-0.6491 7.099693,-1.9427 1.956073,-1.2935 3.398075,-3.3847 4.344588,-6.28728 l -5.89875,0 c -0.220871,0.7573 -0.823389,1.4606 -1.801414,2.1547 -0.97806,0.66258 -2.140245,1.02418 -3.496864,1.02418 -1.893003,0 -3.370326,-0.5054 -4.37991,-1.48348 -1.009606,-1.0096 -1.565521,-2.5877 -1.660127,-4.7331 l 17.660927,0 c 0.126176,-1.893 -0.01751,-3.7042 -0.459184,-5.4396 -0.441721,-1.7351 -1.180383,-3.2705 -2.189955,-4.6271 -0.97807,-1.3566 -2.233516,-2.4255 -3.779438,-3.2143 -1.545956,-0.8203 -3.357294,-1.2362 -5.439566,-1.2363 z m -0.176609,5.051 c 1.640584,0 2.849394,0.4589 3.638151,1.3423 0.820281,0.8834 1.379926,2.1464 1.695449,3.8501 l -10.949775,0 c 0.03155,-0.4732 0.160141,-0.99 0.317897,-1.5895 0.189291,-0.5994 0.472894,-1.159 0.883046,-1.6955 0.441698,-0.5363 1.001344,-0.9951 1.695449,-1.3422 0.72563,-0.3785 1.647084,-0.5652 2.719783,-0.5652 z m -36.275545,5.0157 8.088705,0 c 1.609015,0 2.907345,0.3732 3.885404,1.1303 0.978025,0.7257 1.483495,1.9737 1.483518,3.7089 -2.3e-5,0.8833 -0.17904,1.5867 -0.494506,2.1546 -0.283977,0.5679 -0.660852,1.0305 -1.165621,1.3776 -0.504826,0.3154 -1.103568,0.5486 -1.766093,0.7064 -0.662559,0.126 -1.35836,0.212 -2.08399,0.212 l -7.947417,0 0,-9.2898 z"
         style="font-size:41.86923218px;font-style:normal;font-variant:normal;font-weight:bold;font-stretch:normal;text-align:end;line-height:125%;letter-spacing:0px;word-spacing:0px;writing-mode:lr-tb;text-anchor:end;fill:#ffffff;fill-opacity:1;stroke:none;font-family:Helvetica Neue LT Com;-inkscape-font-specification:Helvetica Neue LT Com Bold" />
    </g>
  </g>
</svg>
