<?xml version="1.0" encoding="UTF-8" standalone="no"?>
<!-- Created with Inkscape (http://www.inkscape.org/) -->

<svg
   xmlns:dc="http://purl.org/dc/elements/1.1/"
   xmlns:cc="http://creativecommons.org/ns#"
   xmlns:rdf="http://www.w3.org/1999/02/22-rdf-syntax-ns#"
   xmlns:svg="http://www.w3.org/2000/svg"
   xmlns="http://www.w3.org/2000/svg"
   xmlns:xlink="http://www.w3.org/1999/xlink"
   xmlns:sodipodi="http://sodipodi.sourceforge.net/DTD/sodipodi-0.dtd"
   xmlns:inkscape="http://www.inkscape.org/namespaces/inkscape"
   width="96"
   height="96"
   id="svg2"
   version="1.1"
   inkscape:version="0.48.4 r9939"
   sodipodi:docname="chrome-coobgpohoikkiipiblmjeljniedjpjpf-Default.svg">
  <defs
     id="defs4">
    <linearGradient
       id="linearGradient3762">
      <stop
         style="stop-color:#2a7dd0;stop-opacity:1;"
         offset="0"
         id="stop3764" />
      <stop
         style="stop-color:#0090e7;stop-opacity:1;"
         offset="1"
         id="stop3766" />
    </linearGradient>
    <linearGradient
       inkscape:collect="always"
       xlink:href="#linearGradient3762"
       id="linearGradient3768"
       x1="45"
       y1="1047.3622"
       x2="45"
       y2="957.36218"
       gradientUnits="userSpaceOnUse" />
  </defs>
  <sodipodi:namedview
     id="base"
     pagecolor="#ffffff"
     bordercolor="#666666"
     borderopacity="1.0"
     inkscape:pageopacity="0.0"
     inkscape:pageshadow="2"
     inkscape:zoom="5.7281285"
     inkscape:cx="39.42027"
     inkscape:cy="50.530276"
     inkscape:document-units="px"
     inkscape:current-layer="layer1"
     showgrid="true"
     inkscape:snap-page="true"
     inkscape:snap-global="true"
     inkscape:snap-center="true"
     inkscape:snap-object-midpoints="false"
     showguides="true"
     inkscape:guide-bbox="true"
     inkscape:snap-bbox="true"
     inkscape:object-paths="true"
     inkscape:object-nodes="true"
     inkscape:window-width="1305"
     inkscape:window-height="744"
     inkscape:window-x="61"
     inkscape:window-y="24"
     inkscape:window-maximized="1"
     inkscape:snap-midpoints="true"
     inkscape:snap-grids="true"
     inkscape:snap-to-guides="false">
    <inkscape:grid
       type="xygrid"
       id="grid3002"
       empspacing="5"
       visible="true"
       enabled="true"
       snapvisiblegridlinesonly="true" />
  </sodipodi:namedview>
  <metadata
     id="metadata7">
    <rdf:RDF>
      <cc:Work
         rdf:about="">
        <dc:format>image/svg+xml</dc:format>
        <dc:type
           rdf:resource="http://purl.org/dc/dcmitype/StillImage" />
        <dc:title />
      </cc:Work>
    </rdf:RDF>
  </metadata>
  <g
     inkscape:label="Layer 1"
     inkscape:groupmode="layer"
     id="layer1"
     transform="translate(0,-956.36218)">
    <rect
       style="fill:#ffffff;fill-opacity:0;fill-rule:nonzero;stroke:none"
       id="rect3775"
       width="96"
       height="96"
       x="0"
       y="956.36218"
       ry="0" />
    <path
       style="fill:#000000;fill-opacity:0.09589041;fill-rule:nonzero;stroke:none"
       d="m 3.353015,956.30662 c -1.884176,0 -3.4111555,1.43156 -3.4111555,3.19799 l 0,83.65949 c 0,1.7665 1.5269795,3.1981 3.4111555,3.1981 l 89.23583,0 c 1.884174,0 3.411155,-1.4316 3.411155,-3.1981 l 0,-83.65949 c 0,-1.76643 -1.526981,-3.19799 -3.411155,-3.19799 z"
       id="rect3772"
       inkscape:connector-curvature="0"
       sodipodi:nodetypes="sssssssss" />
    <path
       style="fill:#000000;fill-opacity:0.18721463;fill-rule:nonzero;stroke:none"
       d="m 1.0459761,1041.8066 0,7.4219 c 0,1.7392 1.461916,3.1337 3.2852054,3.1337 l 86.3836135,0 c 1.823288,0 3.285205,-1.3945 3.285205,-3.1337 l 0,-7.4219 -92.9540239,0 z"
       id="rect3785"
       inkscape:connector-curvature="0" />
    <path
       style="fill:#000000;fill-opacity:0.38356168;fill-rule:nonzero;stroke:none"
       d="m 1.0459761,1041.8066 0,5.3807 c 0,1.762 1.461916,3.1749 3.2852054,3.1749 l 86.3836135,0 c 1.823288,0 3.285205,-1.4129 3.285205,-3.1749 l 0,-5.3807 -92.9540239,0 z"
       id="rect3783"
       inkscape:connector-curvature="0" />
    <rect
       style="fill:url(#linearGradient3768);fill-opacity:1;fill-rule:nonzero;stroke:none"
       id="rect2985"
       width="92.954025"
       height="89"
       x="1.045977"
       y="957.36218"
       ry="3.1511393" />
    <path
       style="fill:#000000;fill-opacity:0.38356168;fill-rule:nonzero;stroke:none"
       d="m 1,1042.3622 0.045976,2.7457 c 0.03024,1.8058 1.461916,3.2543 3.2852054,3.2543 l 86.3836136,0 c 1.823288,0 3.285205,-1.4481 3.285205,-3.2543 l -0.04598,-2.7457 z"
       id="rect3781"
       inkscape:connector-curvature="0"
       sodipodi:nodetypes="csssscc" />
    <rect
       style="fill:#ffffff;fill-opacity:0.30000001;fill-rule:nonzero;stroke:none"
       id="rect3770"
       width="92.954033"
       height="2.000005"
       x="1.045976"
       y="1040.3622" />
    <path
       style="fill:#ffffff"
       inkscape:connector-curvature="0"
       d="m 40.61936,971.25567 c 1.818399,1.54684 5.615919,4.79631 5.615919,10.98025 0,6.01396 -3.323402,8.86576 -6.646806,11.54536 -1.028587,1.0559 -2.215601,2.1983 -2.215601,3.9893 0,1.7853 1.185864,2.76212 2.059476,3.49482 l 2.849285,2.2726 c 3.480678,3.0099 6.642214,5.7769 6.642214,11.3895 0,7.6435 -7.200131,15.366 -20.805986,15.366 -11.474057,0 -17.009614,-5.6092 -17.009614,-11.6301 0,-2.9265 1.417751,-7.0716 6.092325,-9.9208 4.901877,-3.0904 11.552117,-3.4926 15.110859,-3.7429 -1.111245,-1.4617 -2.374022,-3.0074 -2.374022,-5.52412 0,-1.3805 0.397201,-2.1946 0.790956,-3.1751 -0.873613,0.083 -1.742632,0.164 -2.534739,0.164 -8.383698,0 -13.130592,-6.4247 -13.130592,-12.76432 0,-3.74148 1.663423,-7.89121 5.061443,-10.89642 4.511563,-3.82173 9.890994,-4.47423 14.167217,-4.47423 h 16.294425 l -5.06374,2.92735 H 40.61936 z M 35,1007.3633 c -0.632538,-0.086 -1.029739,-0.086 -1.817255,-0.086 -0.711748,0 -4.990267,0.1661 -8.309078,1.3073 -1.740336,0.6454 -6.805224,2.5969 -6.805224,8.3741 0,5.7707 5.46209,9.9239 13.928439,9.9239 7.590444,0 11.630186,-3.7485 11.630186,-8.7855 0,-4.1558 -2.611655,-6.342 -8.627068,-10.7349 z m 2.29596,-15.45332 c 1.817248,-1.8726 1.973376,-4.47187 1.973376,-5.93731 0,-5.85354 -3.400317,-14.96124 -9.96561,-14.96124 -2.059477,0 -4.27278,1.05602 -5.539011,2.68429 -1.343135,1.70733 -1.742633,3.90079 -1.742633,6.01752 0,5.44765 3.085777,14.47514 9.893295,14.47514 1.977969,0 4.109766,-0.9758 5.380583,-2.2784 z"
       id="path3201" />
  </g>
</svg>
