<?xml version="1.0" encoding="UTF-8" standalone="no"?>
<!-- Created with Inkscape (http://www.inkscape.org/) -->

<svg
   xmlns:dc="http://purl.org/dc/elements/1.1/"
   xmlns:cc="http://creativecommons.org/ns#"
   xmlns:rdf="http://www.w3.org/1999/02/22-rdf-syntax-ns#"
   xmlns:svg="http://www.w3.org/2000/svg"
   xmlns="http://www.w3.org/2000/svg"
   xmlns:xlink="http://www.w3.org/1999/xlink"
   xmlns:sodipodi="http://sodipodi.sourceforge.net/DTD/sodipodi-0.dtd"
   xmlns:inkscape="http://www.inkscape.org/namespaces/inkscape"
   width="96"
   height="96"
   id="svg2"
   version="1.1"
   inkscape:version="0.48.4 r9939"
   sodipodi:docname="chrome-ojoaejhaoaaidjpckfajcgfgakfkljdg-Default.svg">
  <defs
     id="defs4">
    <linearGradient
       id="linearGradient3772">
      <stop
         style="stop-color:#990000;stop-opacity:1;"
         offset="0"
         id="stop3774" />
      <stop
         style="stop-color:#e00000;stop-opacity:1;"
         offset="1"
         id="stop3777" />
    </linearGradient>
    <linearGradient
       inkscape:collect="always"
       xlink:href="#linearGradient3772"
       id="linearGradient3779"
       x1="20"
       y1="1047.3622"
       x2="20"
       y2="957.36218"
       gradientUnits="userSpaceOnUse" />
  </defs>
  <sodipodi:namedview
     id="base"
     pagecolor="#ffffff"
     bordercolor="#666666"
     borderopacity="1.0"
     inkscape:pageopacity="0.0"
     inkscape:pageshadow="2"
     inkscape:zoom="4.6264763"
     inkscape:cx="16.81685"
     inkscape:cy="51.803805"
     inkscape:document-units="px"
     inkscape:current-layer="layer1"
     showgrid="true"
     inkscape:snap-page="true"
     inkscape:snap-global="true"
     inkscape:snap-center="true"
     inkscape:snap-object-midpoints="false"
     showguides="true"
     inkscape:guide-bbox="true"
     inkscape:snap-bbox="true"
     inkscape:object-paths="true"
     inkscape:object-nodes="true"
     inkscape:window-width="1305"
     inkscape:window-height="744"
     inkscape:window-x="61"
     inkscape:window-y="24"
     inkscape:window-maximized="1"
     inkscape:snap-midpoints="true"
     inkscape:snap-grids="true"
     inkscape:snap-to-guides="false">
    <inkscape:grid
       type="xygrid"
       id="grid3002"
       empspacing="5"
       visible="true"
       enabled="true"
       snapvisiblegridlinesonly="true" />
  </sodipodi:namedview>
  <metadata
     id="metadata7">
    <rdf:RDF>
      <cc:Work
         rdf:about="">
        <dc:format>image/svg+xml</dc:format>
        <dc:type
           rdf:resource="http://purl.org/dc/dcmitype/StillImage" />
        <dc:title />
      </cc:Work>
    </rdf:RDF>
  </metadata>
  <g
     inkscape:label="Layer 1"
     inkscape:groupmode="layer"
     id="layer1"
     transform="translate(0,-956.36218)">
    <rect
       style="fill:#ffffff;fill-opacity:0;fill-rule:nonzero;stroke:none"
       id="rect3775"
       width="96"
       height="96"
       x="0"
       y="956.36218"
       ry="0" />
    <path
       style="fill:#000000;fill-opacity:0.09589041;fill-rule:nonzero;stroke:none"
       d="m 3.353015,956.30662 c -1.884176,0 -3.4111555,1.43156 -3.4111555,3.19799 l 0,83.65949 c 0,1.7665 1.5269795,3.1981 3.4111555,3.1981 l 89.23583,0 c 1.884174,0 3.411155,-1.4316 3.411155,-3.1981 l 0,-83.65949 c 0,-1.76643 -1.526981,-3.19799 -3.411155,-3.19799 z"
       id="rect3772"
       inkscape:connector-curvature="0"
       sodipodi:nodetypes="sssssssss" />
    <path
       style="fill:#000000;fill-opacity:0.18721463;fill-rule:nonzero;stroke:none"
       d="m 1.0459761,1041.8066 0,7.4219 c 0,1.7392 1.461916,3.1337 3.2852054,3.1337 l 86.3836135,0 c 1.823288,0 3.285205,-1.3945 3.285205,-3.1337 l 0,-7.4219 -92.9540239,0 z"
       id="rect3785"
       inkscape:connector-curvature="0" />
    <path
       style="fill:#000000;fill-opacity:0.38356168;fill-rule:nonzero;stroke:none"
       d="m 1.0459761,1041.8066 0,5.3807 c 0,1.762 1.461916,3.1749 3.2852054,3.1749 l 86.3836135,0 c 1.823288,0 3.285205,-1.4129 3.285205,-3.1749 l 0,-5.3807 -92.9540239,0 z"
       id="rect3783"
       inkscape:connector-curvature="0" />
    <rect
       style="fill:url(#linearGradient3779);fill-opacity:1;fill-rule:nonzero;stroke:none"
       id="rect2985"
       width="92.954025"
       height="89"
       x="1.045977"
       y="957.36218"
       ry="3.1511393" />
    <path
       style="fill:#000000;fill-opacity:0.38356168;fill-rule:nonzero;stroke:none"
       d="m 1,1042.3622 0.045976,2.7457 c 0.03024,1.8058 1.461916,3.2543 3.2852054,3.2543 l 86.3836136,0 c 1.823288,0 3.285205,-1.4481 3.285205,-3.2543 l -0.04598,-2.7457 z"
       id="rect3781"
       inkscape:connector-curvature="0"
       sodipodi:nodetypes="csssscc" />
    <rect
       style="fill:#ffffff;fill-opacity:0.19178082;fill-rule:nonzero;stroke:none"
       id="rect3770"
       width="92.954033"
       height="2.000005"
       x="1.045976"
       y="1040.3622" />
    <path
       id="path3785"
       d="m 46.250687,980.92845 c -14.5683,0 -21.913759,10.7353 -21.913759,19.68755 0,5.4206 1.996686,10.2429 6.279177,12.04 0.702221,0.2951 1.331233,0.01 1.534885,-0.789 0.141665,-0.553 0.476774,-1.9483 0.626275,-2.5293 0.205365,-0.7903 0.125678,-1.0677 -0.441019,-1.7565 -1.234852,-1.4969 -2.023926,-3.4351 -2.023926,-6.1804 0,-7.96445 5.797629,-15.09455 15.096854,-15.09455 8.234302,0 12.758246,5.1713 12.758246,12.0777 0,9.08705 -3.912642,16.75645 -9.721168,16.75645 -3.207694,0 -5.608959,-2.7266 -4.839306,-6.0708 0.921545,-3.9925 2.706744,-8.3012 2.706744,-11.18305 0,-2.5797 -1.34724,-4.7313 -4.135372,-4.7313 -3.279211,0 -5.913414,3.4866 -5.913414,8.15745 0,2.9749 0.978078,4.9867 0.978078,4.9867 0,0 -3.355836,14.6141 -3.943976,17.1735 -1.171513,5.097 -0.176079,11.3454 -0.09194,11.9765 0.04937,0.3738 0.516958,0.4628 0.72879,0.1803 0.302419,-0.4057 4.207904,-5.3614 5.53573,-10.3132 0.375637,-1.4023 2.15675,-8.6629 2.15675,-8.6629 1.065258,2.0887 4.178962,3.9284 7.490186,3.9284 9.857045,0 16.544549,-9.2362 16.544549,-21.59915 0,-9.3482 -7.70372,-18.0544 -19.41237,-18.0544 z"
       inkscape:connector-curvature="0"
       style="fill:#000000;fill-opacity:0.11872146" />
    <path
       style="fill:#000000;fill-opacity:0.11872146"
       inkscape:connector-curvature="0"
       d="m 46.250687,978.92845 c -14.5683,0 -21.913759,10.7353 -21.913759,19.6876 0,5.42055 1.996686,10.24285 6.279177,12.03995 0.702221,0.2951 1.331233,0.01 1.534885,-0.789 0.141665,-0.553 0.476774,-1.9483 0.626275,-2.5293 0.205365,-0.7903 0.125678,-1.0677 -0.441019,-1.7565 -1.234852,-1.4969 -2.023926,-3.4351 -2.023926,-6.18035 0,-7.9645 5.797629,-15.0946 15.096854,-15.0946 8.234302,0 12.758246,5.1713 12.758246,12.0777 0,9.08705 -3.912642,16.75645 -9.721168,16.75645 -3.207694,0 -5.608959,-2.7266 -4.839306,-6.0708 0.921545,-3.9925 2.706744,-8.30125 2.706744,-11.18305 0,-2.5797 -1.34724,-4.7313 -4.135372,-4.7313 -3.279211,0 -5.913414,3.4866 -5.913414,8.1574 0,2.97495 0.978078,4.98675 0.978078,4.98675 0,0 -3.355836,14.6141 -3.943976,17.1735 -1.171513,5.097 -0.176079,11.3454 -0.09194,11.9765 0.04937,0.3738 0.516958,0.4628 0.72879,0.1803 0.302419,-0.4057 4.207904,-5.3614 5.53573,-10.3132 0.375637,-1.4023 2.15675,-8.6629 2.15675,-8.6629 1.065258,2.0887 4.178962,3.9284 7.490186,3.9284 9.857045,0 16.544549,-9.2362 16.544549,-21.59915 0,-9.3482 -7.70372,-18.0544 -19.41237,-18.0544 z"
       id="path3783" />
    <path
       id="path3781"
       d="m 46.250687,976.92845 c -14.5683,0 -21.913759,10.7353 -21.913759,19.6876 0,5.42055 1.996686,10.24285 6.279177,12.03995 0.702221,0.2951 1.331233,0.01 1.534885,-0.789 0.141665,-0.553 0.476774,-1.9483 0.626275,-2.5293 0.205365,-0.7903 0.125678,-1.0677 -0.441019,-1.7565 -1.234852,-1.4969 -2.023926,-3.4351 -2.023926,-6.18035 0,-7.9645 5.797629,-15.0946 15.096854,-15.0946 8.234302,0 12.758246,5.1713 12.758246,12.0777 0,9.08705 -3.912642,16.75645 -9.721168,16.75645 -3.207694,0 -5.608959,-2.7266 -4.839306,-6.0708 0.921545,-3.9925 2.706744,-8.30125 2.706744,-11.18305 0,-2.5797 -1.34724,-4.7313 -4.135372,-4.7313 -3.279211,0 -5.913414,3.4866 -5.913414,8.1574 0,2.97495 0.978078,4.98675 0.978078,4.98675 0,0 -3.355836,14.6141 -3.943976,17.1735 -1.171513,5.097 -0.176079,11.3454 -0.09194,11.9765 0.04937,0.3738 0.516958,0.4628 0.72879,0.1803 0.302419,-0.4057 4.207904,-5.3614 5.53573,-10.3132 0.375637,-1.4023 2.15675,-8.6629 2.15675,-8.6629 1.065258,2.0887 4.178962,3.9284 7.490186,3.9284 9.857045,0 16.544549,-9.2362 16.544549,-21.59915 0,-9.3482 -7.70372,-18.0544 -19.41237,-18.0544 z"
       inkscape:connector-curvature="0"
       style="fill:#000000;fill-opacity:0.11872146" />
    <path
       style="fill:#ffffff"
       inkscape:connector-curvature="0"
       d="m 46.250687,974.92845 c -14.5683,0 -21.913759,10.7353 -21.913759,19.6876 0,5.42055 1.996686,10.24285 6.279177,12.03995 0.702221,0.2951 1.331233,0.01 1.534885,-0.789 0.141665,-0.553 0.476774,-1.9483 0.626275,-2.5293 0.205365,-0.7903 0.125678,-1.0677 -0.441019,-1.7565 -1.234852,-1.4969 -2.023926,-3.43507 -2.023926,-6.18035 0,-7.9645 5.797629,-15.0946 15.096854,-15.0946 8.234302,0 12.758246,5.1713 12.758246,12.0777 0,9.08705 -3.912642,16.75645 -9.721168,16.75645 -3.207694,0 -5.608959,-2.7266 -4.839306,-6.0708 0.921545,-3.99247 2.706744,-8.30125 2.706744,-11.18305 0,-2.5797 -1.34724,-4.7313 -4.135372,-4.7313 -3.279211,0 -5.913414,3.4866 -5.913414,8.1574 0,2.97498 0.978078,4.98675 0.978078,4.98675 0,0 -3.355836,14.6141 -3.943976,17.1735 -1.171513,5.097 -0.176079,11.3454 -0.09194,11.9765 0.04937,0.3738 0.516958,0.4628 0.72879,0.1803 0.302419,-0.4057 4.207904,-5.3614 5.53573,-10.3132 0.375637,-1.4023 2.15675,-8.6629 2.15675,-8.6629 1.065258,2.0887 4.178962,3.9284 7.490186,3.9284 9.857045,0 16.544549,-9.2362 16.544549,-21.59915 0,-9.3482 -7.70372,-18.0544 -19.41237,-18.0544 z"
       id="path3053" />
  </g>
</svg>
