<?xml version="1.0" encoding="UTF-8" standalone="no"?>
<!-- Created with Inkscape (http://www.inkscape.org/) -->

<svg
   xmlns:dc="http://purl.org/dc/elements/1.1/"
   xmlns:cc="http://creativecommons.org/ns#"
   xmlns:rdf="http://www.w3.org/1999/02/22-rdf-syntax-ns#"
   xmlns:svg="http://www.w3.org/2000/svg"
   xmlns="http://www.w3.org/2000/svg"
   xmlns:xlink="http://www.w3.org/1999/xlink"
   xmlns:sodipodi="http://sodipodi.sourceforge.net/DTD/sodipodi-0.dtd"
   xmlns:inkscape="http://www.inkscape.org/namespaces/inkscape"
   width="96"
   height="96"
   id="svg2"
   version="1.1"
   inkscape:version="0.48.4 r9939"
   sodipodi:docname="chrome-bfimiibpomebbdeomajcknhccgpkjmlh-Default.svg">
  <defs
     id="defs4">
    <linearGradient
       id="linearGradient3771">
      <stop
         style="stop-color:#022cf9;stop-opacity:1;"
         offset="0"
         id="stop3773" />
      <stop
         style="stop-color:#0088e7;stop-opacity:0.98461539;"
         offset="1"
         id="stop3775" />
    </linearGradient>
    <linearGradient
       inkscape:collect="always"
       xlink:href="#linearGradient3771"
       id="linearGradient3777"
       x1="45"
       y1="1047.3622"
       x2="45"
       y2="957.36218"
       gradientUnits="userSpaceOnUse" />
  </defs>
  <sodipodi:namedview
     id="base"
     pagecolor="#ffffff"
     bordercolor="#666666"
     borderopacity="1.0"
     inkscape:pageopacity="0.0"
     inkscape:pageshadow="2"
     inkscape:zoom="4.1954741"
     inkscape:cx="47.57672"
     inkscape:cy="44.952381"
     inkscape:document-units="px"
     inkscape:current-layer="layer1"
     showgrid="true"
     inkscape:snap-page="true"
     inkscape:snap-global="true"
     inkscape:snap-center="true"
     inkscape:snap-object-midpoints="false"
     showguides="true"
     inkscape:guide-bbox="true"
     inkscape:snap-bbox="true"
     inkscape:object-paths="true"
     inkscape:object-nodes="true"
     inkscape:window-width="1305"
     inkscape:window-height="744"
     inkscape:window-x="61"
     inkscape:window-y="24"
     inkscape:window-maximized="1"
     inkscape:snap-midpoints="false"
     inkscape:snap-grids="true"
     inkscape:snap-to-guides="false">
    <inkscape:grid
       type="xygrid"
       id="grid3002"
       empspacing="5"
       visible="true"
       enabled="true"
       snapvisiblegridlinesonly="true" />
  </sodipodi:namedview>
  <metadata
     id="metadata7">
    <rdf:RDF>
      <cc:Work
         rdf:about="">
        <dc:format>image/svg+xml</dc:format>
        <dc:type
           rdf:resource="http://purl.org/dc/dcmitype/StillImage" />
        <dc:title />
      </cc:Work>
    </rdf:RDF>
  </metadata>
  <g
     inkscape:label="Layer 1"
     inkscape:groupmode="layer"
     id="layer1"
     transform="translate(0,-956.36218)">
    <rect
       style="fill:#ffffff;fill-opacity:0;fill-rule:nonzero;stroke:none"
       id="rect3775"
       width="96"
       height="96"
       x="0"
       y="956.36218"
       ry="0" />
    <path
       style="fill:#000000;fill-opacity:0.09589041;fill-rule:nonzero;stroke:none"
       d="m 3.353015,956.30662 c -1.884176,0 -3.4111555,1.43156 -3.4111555,3.19799 l 0,83.65949 c 0,1.7665 1.5269795,3.1981 3.4111555,3.1981 l 89.23583,0 c 1.884174,0 3.411155,-1.4316 3.411155,-3.1981 l 0,-83.65949 c 0,-1.76643 -1.526981,-3.19799 -3.411155,-3.19799 z"
       id="rect3772"
       inkscape:connector-curvature="0"
       sodipodi:nodetypes="sssssssss" />
    <path
       style="fill:#000000;fill-opacity:0.18721463;fill-rule:nonzero;stroke:none"
       d="m 1.0459761,1041.8066 0,7.4219 c 0,1.7392 1.461916,3.1337 3.2852054,3.1337 l 86.3836135,0 c 1.823288,0 3.285205,-1.3945 3.285205,-3.1337 l 0,-7.4219 -92.9540239,0 z"
       id="rect3785"
       inkscape:connector-curvature="0" />
    <path
       style="fill:#000000;fill-opacity:0.38356168;fill-rule:nonzero;stroke:none"
       d="m 1.0459761,1041.8066 0,5.3807 c 0,1.762 1.461916,3.1749 3.2852054,3.1749 l 86.3836135,0 c 1.823288,0 3.285205,-1.4129 3.285205,-3.1749 l 0,-5.3807 -92.9540239,0 z"
       id="rect3783"
       inkscape:connector-curvature="0" />
    <rect
       style="fill:url(#linearGradient3777);fill-opacity:1;fill-rule:nonzero;stroke:none"
       id="rect2985"
       width="92.954025"
       height="89"
       x="1.045977"
       y="957.36218"
       ry="3.1511393" />
    <path
       style="fill:#000000;fill-opacity:0.38356168;fill-rule:nonzero;stroke:none"
       d="m 1,1042.3622 0.045976,2.7457 c 0.03024,1.8058 1.461916,3.2543 3.2852054,3.2543 l 86.3836136,0 c 1.823288,0 3.285205,-1.4481 3.285205,-3.2543 l -0.04598,-2.7457 z"
       id="rect3781"
       inkscape:connector-curvature="0"
       sodipodi:nodetypes="csssscc" />
    <rect
       style="fill:#ffffff;fill-opacity:0.17351598;fill-rule:nonzero;stroke:none"
       id="rect3770"
       width="92.954033"
       height="2.000005"
       x="1.045976"
       y="1040.3622" />
    <rect
       style="fill:#ffffff;fill-opacity:0.11415525;fill-rule:nonzero;stroke:none"
       id="rect3774"
       width="93"
       height="44"
       x="1"
       y="985.36218" />
    <rect
       y="987.36218"
       x="1"
       height="26.999992"
       width="24"
       id="rect3778"
       style="fill:#ffffff;fill-opacity:0.11415525;fill-rule:nonzero;stroke:none" />
    <rect
       style="fill:#ffffff;fill-opacity:0.11415525;fill-rule:nonzero;stroke:none"
       id="rect3780"
       width="49"
       height="11.999995"
       x="45"
       y="985.36218" />
    <rect
       y="1018.3622"
       x="1"
       height="10.999999"
       width="93"
       id="rect3782"
       style="fill:#ffffff;fill-opacity:0.11415525;fill-rule:nonzero;stroke:none" />
    <path
       style="fill:#ffffff"
       d="m 36.84599,1027.869 c 6.255924,-2.9231 17.800419,-17.4955 21.252033,-26.8258 3.800981,-10.27464 0.421978,-16.5885 -8.335138,-15.57468 -4.533443,0.52484 -8.485513,3.69954 -10.436941,8.38401 -1.557506,3.73874 -1.660282,3.56558 2.045763,3.4498 2.751521,-0.0856 3.274466,0.20181 3.513564,1.93383 0.455294,3.29804 -5.418298,13.46004 -7.779863,13.46004 -1.133884,0 -2.392668,-4.0473 -4.325359,-13.90758 -1.930204,-9.84736 -3.571365,-12.65717 -7.389695,-12.65177 -2.89371,0.003 -6.293111,2.10415 -11.59726,7.16443 -3.656143,3.48806 -3.96271,4.06657 -2.90214,5.47765 1.011869,1.34607 1.52141,1.42037 3.473287,0.50699 3.383704,-1.58354 4.286801,-0.13929 7.83099,12.52498 3.059754,10.9329 4.607877,14.4676 7.258629,16.5735 1.856357,1.4744 3.357719,1.3699 7.39213,-0.5154 z"
       id="path3008"
       inkscape:connector-curvature="0"
       sodipodi:nodetypes="sssssssscsssscs" />
  </g>
</svg>
