<?xml version="1.0" encoding="UTF-8" standalone="no"?>
<!-- Created with Inkscape (http://www.inkscape.org/) -->

<svg
   xmlns:dc="http://purl.org/dc/elements/1.1/"
   xmlns:cc="http://creativecommons.org/ns#"
   xmlns:rdf="http://www.w3.org/1999/02/22-rdf-syntax-ns#"
   xmlns:svg="http://www.w3.org/2000/svg"
   xmlns="http://www.w3.org/2000/svg"
   xmlns:xlink="http://www.w3.org/1999/xlink"
   xmlns:sodipodi="http://sodipodi.sourceforge.net/DTD/sodipodi-0.dtd"
   xmlns:inkscape="http://www.inkscape.org/namespaces/inkscape"
   width="96"
   height="96"
   id="svg2"
   version="1.1"
   inkscape:version="0.48.4 r9939"
   sodipodi:docname="clamtk.svg">
  <defs
     id="defs4">
    <linearGradient
       id="linearGradient3795">
      <stop
         style="stop-color:#e28c05;stop-opacity:1;"
         offset="0"
         id="stop3797" />
      <stop
         style="stop-color:#e2bc05;stop-opacity:1;"
         offset="1"
         id="stop3799" />
    </linearGradient>
    <linearGradient
       inkscape:collect="always"
       xlink:href="#linearGradient3795"
       id="linearGradient3801"
       x1="45"
       y1="1047.3622"
       x2="45"
       y2="957.36218"
       gradientUnits="userSpaceOnUse" />
  </defs>
  <sodipodi:namedview
     id="base"
     pagecolor="#ffffff"
     bordercolor="#666666"
     borderopacity="1.0"
     inkscape:pageopacity="0.0"
     inkscape:pageshadow="2"
     inkscape:zoom="5.90625"
     inkscape:cx="47.830688"
     inkscape:cy="48"
     inkscape:document-units="px"
     inkscape:current-layer="layer1"
     showgrid="true"
     inkscape:snap-page="true"
     inkscape:snap-global="false"
     inkscape:snap-center="true"
     inkscape:snap-object-midpoints="false"
     showguides="true"
     inkscape:guide-bbox="true"
     inkscape:snap-bbox="true"
     inkscape:object-paths="true"
     inkscape:object-nodes="true"
     inkscape:window-width="1305"
     inkscape:window-height="744"
     inkscape:window-x="61"
     inkscape:window-y="24"
     inkscape:window-maximized="1"
     inkscape:snap-midpoints="false"
     inkscape:snap-grids="true"
     inkscape:snap-to-guides="false">
    <inkscape:grid
       type="xygrid"
       id="grid3002"
       empspacing="5"
       visible="true"
       enabled="true"
       snapvisiblegridlinesonly="true" />
  </sodipodi:namedview>
  <metadata
     id="metadata7">
    <rdf:RDF>
      <cc:Work
         rdf:about="">
        <dc:format>image/svg+xml</dc:format>
        <dc:type
           rdf:resource="http://purl.org/dc/dcmitype/StillImage" />
        <dc:title />
      </cc:Work>
    </rdf:RDF>
  </metadata>
  <g
     inkscape:label="Layer 1"
     inkscape:groupmode="layer"
     id="layer1"
     transform="translate(0,-956.36218)">
    <rect
       style="fill:#ffffff;fill-opacity:0;fill-rule:nonzero;stroke:none"
       id="rect3775"
       width="96"
       height="96"
       x="0"
       y="956.36218"
       ry="0" />
    <path
       style="fill:#000000;fill-opacity:0.09589041;fill-rule:nonzero;stroke:none"
       d="m 3.353015,956.30662 c -1.884176,0 -3.4111555,1.43156 -3.4111555,3.19799 l 0,83.65949 c 0,1.7665 1.5269795,3.1981 3.4111555,3.1981 l 89.23583,0 c 1.884174,0 3.411155,-1.4316 3.411155,-3.1981 l 0,-83.65949 c 0,-1.76643 -1.526981,-3.19799 -3.411155,-3.19799 z"
       id="rect3772"
       inkscape:connector-curvature="0"
       sodipodi:nodetypes="sssssssss" />
    <path
       style="fill:#000000;fill-opacity:0.18721463;fill-rule:nonzero;stroke:none"
       d="m 1.0459761,1041.8066 0,7.4219 c 0,1.7392 1.461916,3.1337 3.2852054,3.1337 l 86.3836135,0 c 1.823288,0 3.285205,-1.3945 3.285205,-3.1337 l 0,-7.4219 -92.9540239,0 z"
       id="rect3785"
       inkscape:connector-curvature="0" />
    <path
       style="fill:#000000;fill-opacity:0.38356168;fill-rule:nonzero;stroke:none"
       d="m 1.0459761,1041.8066 0,5.3807 c 0,1.762 1.461916,3.1749 3.2852054,3.1749 l 86.3836135,0 c 1.823288,0 3.285205,-1.4129 3.285205,-3.1749 l 0,-5.3807 -92.9540239,0 z"
       id="rect3783"
       inkscape:connector-curvature="0" />
    <rect
       style="fill:url(#linearGradient3801);fill-opacity:1;fill-rule:nonzero;stroke:none"
       id="rect2985"
       width="92.954025"
       height="89"
       x="1.045977"
       y="957.36218"
       ry="3.1511393" />
    <path
       inkscape:connector-curvature="0"
       id="path3807"
       d="M 47.403842,972.36218 C 38.910723,975.9044 29.845116,978.74003 20,980.61359 c 1.888311,32.87151 5.685245,40.68871 27.403842,51.74851 21.718596,-11.0598 25.51553,-18.877 27.403841,-51.74851 -9.845116,-1.87356 -18.910711,-4.70919 -27.403841,-8.25141 z"
       style="fill:#000000;fill-opacity:0.35159816;fill-rule:nonzero;stroke:none" />
    <path
       style="fill:#000000;fill-opacity:0.38356168;fill-rule:nonzero;stroke:none"
       d="m 1,1042.3622 0.045976,2.7457 c 0.03024,1.8058 1.461916,3.2543 3.2852054,3.2543 l 86.3836136,0 c 1.823288,0 3.285205,-1.4481 3.285205,-3.2543 l -0.04598,-2.7457 z"
       id="rect3781"
       inkscape:connector-curvature="0"
       sodipodi:nodetypes="csssscc" />
    <rect
       style="fill:#ffffff;fill-opacity:0.30000001;fill-rule:nonzero;stroke:none"
       id="rect3770"
       width="92.954033"
       height="2.000005"
       x="1.045976"
       y="1040.3622" />
    <path
       style="fill:#000000;fill-opacity:0.35159816;fill-rule:nonzero;stroke:none"
       d="M 47.403842,970.36218 C 38.910723,973.9044 29.845116,976.74003 20,978.61359 c 1.888311,32.87151 5.685245,40.68871 27.403842,51.74851 21.718596,-11.0598 25.51553,-18.877 27.403841,-51.74851 -9.845116,-1.87356 -18.910711,-4.70919 -27.403841,-8.25141 z"
       id="path3805"
       inkscape:connector-curvature="0" />
    <path
       inkscape:connector-curvature="0"
       id="path3803"
       d="M 47.403842,968.36218 C 38.910723,971.9044 29.845116,974.74003 20,976.61359 c 1.888311,32.87151 5.685245,40.68871 27.403842,51.74851 21.718596,-11.0598 25.51553,-18.877 27.403841,-51.74851 -9.845116,-1.87356 -18.910711,-4.70919 -27.403841,-8.25141 z"
       style="fill:#000000;fill-opacity:0.35159816;fill-rule:nonzero;stroke:none" />
    <path
       style="fill:#ffffff;fill-opacity:1;fill-rule:nonzero;stroke:none"
       d="M 47.403842,966.36218 C 38.910723,969.9044 29.845116,972.74003 20,974.61359 c 1.888311,32.87151 5.685245,40.68871 27.403842,51.74851 21.718596,-11.0598 25.51553,-18.877 27.403841,-51.74851 -9.845116,-1.87356 -18.910711,-4.70919 -27.403841,-8.25141 z"
       id="rect2987"
       inkscape:connector-curvature="0" />
    <path
       sodipodi:type="inkscape:offset"
       inkscape:radius="-9.213686"
       inkscape:original="M -108.84375 943.28125 C -122.39326 950.1497 -136.85608 955.64818 -152.5625 959.28125 C -149.54998 1023.0211 -143.49253 1038.1791 -108.84375 1059.625 C -74.194972 1038.1791 -68.13752 1023.0211 -65.125 959.28125 C -80.83142 955.64818 -95.294242 950.1497 -108.84375 943.28125 z "
       style="fill:#e26605;fill-opacity:1;fill-rule:nonzero;stroke:none"
       id="path2995"
       d="m -108.84375,953.46875 c -10.71319,5.14937 -22.04911,9.45258 -34.0625,12.75 1.52508,26.92062 3.93519,44.12005 8.8125,55.43745 4.74948,11.0208 12.01326,18.196 25.25,26.9063 13.236735,-8.7103 20.500519,-15.8855 25.25,-26.9063 4.877307,-11.3174 7.287418,-28.51683 8.8125,-55.43745 -12.01339,-3.29742 -23.349315,-7.60063 -34.0625,-12.75 z"
       transform="matrix(0.62682154,0,0,0.51396135,115.62617,481.723)" />
    <path
       style="fill:#ffd078;fill-opacity:1;fill-rule:nonzero;stroke:none"
       d="m 47.400562,993.0368 0,27.6068 c 2.074268,-1.1231 3.922897,-2.188 5.563047,-3.2554 1.640126,-1.0674 3.074789,-2.1248 4.34856,-3.2232 1.273773,-1.0985 2.374443,-2.2326 3.349574,-3.4488 0.975144,-1.2164 1.821781,-2.5276 2.566048,-3.9485 0.764309,-1.4591 1.43111,-3.0945 2.017591,-4.9637 0.58648,-1.8693 1.088213,-3.9601 1.527867,-6.3013 0.138671,-0.7384 0.226499,-1.67641 0.352586,-2.4659 l -19.725273,0 z"
       id="path3007"
       inkscape:connector-curvature="0" />
    <path
       style="fill:#ffd078;fill-opacity:1;fill-rule:nonzero;stroke:none"
       d="m 47.400562,971.60252 c -3.357629,1.32773 -6.805057,2.55902 -10.36215,3.65837 -3.557079,1.09924 -7.223836,2.06675 -10.988958,2.91698 0.238995,3.47072 0.518467,6.63343 0.842297,9.50846 0.221685,1.96838 0.509825,3.63694 0.783524,5.35047 l 19.725287,0 0,-21.43428 z"
       id="path3005"
       inkscape:connector-curvature="0" />
    <path
       sodipodi:type="inkscape:offset"
       inkscape:radius="2.2196355"
       inkscape:original="M 48.59375 982.375 C 47.198499 982.37502 45.880287 982.69223 44.65625 983.3125 C 43.432197 983.92174 42.404341 984.78753 41.53125 985.90625 C 40.641032 987.04716 39.965214 988.37571 39.46875 989.9375 C 38.980843 991.48824 38.718749 993.20362 38.71875 995.03125 C 38.718749 996.86998 38.980843 998.55414 39.46875 1000.0938 C 39.956655 1001.6223 40.590081 1002.8963 41.4375 1003.9375 C 42.302031 1005.0008 43.335868 1005.8101 44.5 1006.375 C 45.66412 1006.9288 46.914669 1007.2187 48.25 1007.2188 C 49.362758 1007.2188 50.311811 1007.0309 51.125 1006.6875 C 51.946723 1006.3441 52.730014 1005.8904 53.40625 1005.2812 C 54.022537 1004.7274 54.560446 1004.0456 55.03125 1003.2812 C 55.502019 1002.5059 55.913163 1001.631 56.28125 1000.6562 L 55.1875 999.8125 C 54.417105 1001.5183 53.535308 1002.7832 52.59375 1003.625 C 51.660723 1004.4668 50.604603 1004.875 49.40625 1004.875 C 48.584502 1004.875 47.832461 1004.7002 47.15625 1004.3125 C 46.480021 1003.9137 45.902709 1003.2793 45.40625 1002.4375 C 44.944016 1001.6289 44.572275 1000.5681 44.28125 999.25 C 43.998771 997.92081 43.843743 996.34071 43.84375 994.46875 C 43.843743 991.15685 44.254887 988.57766 45.09375 986.75 C 45.932598 984.9113 47.172006 984.00002 48.78125 984 C 50.073761 984.00002 51.163711 984.61427 52.0625 985.84375 C 52.961259 987.07328 53.733003 988.99986 54.375 991.625 L 55.5 991.625 L 55.375 983 L 54.25 983 L 53.46875 983.90625 C 52.895231 983.50751 52.205283 983.15392 51.375 982.84375 C 50.54469 982.52255 49.60379 982.37502 48.59375 982.375 z "
       style="font-size:35.36501312px;font-style:normal;font-variant:normal;font-weight:normal;font-stretch:normal;text-align:end;line-height:125%;letter-spacing:0px;word-spacing:0px;text-anchor:end;fill:#ffffff;fill-opacity:1;stroke:none;font-family:Andale Mono;-inkscape-font-specification:Andale Mono"
       id="path3816"
       d="m 48.59375,980.15625 c -1.731653,2e-5 -3.41248,0.41471 -4.9375,1.1875 l 0,-0.0312 c -1.531281,0.76215 -2.823802,1.87182 -3.875,3.21875 -1.069155,1.37024 -1.874952,2.94907 -2.4375,4.71875 a 2.2198575,2.2198575 0 0 0 0,0.0312 c -0.56025,1.78067 -0.843751,3.71016 -0.84375,5.75 -10e-7,2.04966 0.284183,3.95296 0.84375,5.71875 a 2.2198575,2.2198575 0 0 0 0,0.031 c 0.548488,1.7183 1.309851,3.2538 2.375,4.5626 1.063168,1.3076 2.363619,2.3281 3.8125,3.0312 1.449625,0.6896 3.062268,1.0624 4.71875,1.0625 1.351676,0 2.609395,-0.255 3.71875,-0.7187 l 0,0.031 c 0.01246,-0.01 0.01878,-0.026 0.03125,-0.031 0.980461,-0.4135 1.98926,-0.9884 2.875,-1.7813 l 0,-0.031 c 0.803982,-0.7263 1.477812,-1.5701 2.03125,-2.4687 a 2.2198575,2.2198575 0 0 0 0.03125,0 c 0.557695,-0.9185 1.000251,-1.9248 1.40625,-3 A 2.2198575,2.2198575 0 0 0 57.625,998.90625 l -1.09375,-0.84375 a 2.2198575,2.2198575 0 0 0 -3.375,0.84375 c -0.678303,1.50185 -1.399982,2.49815 -2.03125,3.06255 a 2.2198575,2.2198575 0 0 0 -0.03125,0 c -0.579469,0.5228 -0.993203,0.6874 -1.6875,0.6874 -0.506978,0 -0.846338,-0.1035 -1.15625,-0.2812 -0.253275,-0.1564 -0.567609,-0.4712 -0.90625,-1.0312 -0.0044,-0.01 -0.02681,-0.023 -0.03125,-0.031 -0.297797,-0.5295 -0.619519,-1.37413 -0.875,-2.53125 -0.242451,-1.14084 -0.375007,-2.56309 -0.375,-4.3125 -7e-6,-3.1282 0.439184,-5.42321 1.0625,-6.78125 a 2.2198575,2.2198575 0 0 0 0,-0.0312 c 0.611113,-1.33952 0.884946,-1.43749 1.65625,-1.4375 0.589294,10e-6 0.897895,0.11386 1.5,0.9375 0.60411,0.82644 1.333482,2.53016 1.9375,5 a 2.2198575,2.2198575 0 0 0 2.15625,1.6875 l 1.125,0 a 2.2198575,2.2198575 0 0 0 2.21875,-2.25 l -0.125,-8.625 a 2.2198575,2.2198575 0 0 0 -2.21875,-2.1875 l -1.125,0 a 2.2198575,2.2198575 0 0 0 -1.28125,0.40625 c -0.271626,-0.1233 -0.489603,-0.29633 -0.78125,-0.40625 -0.0096,-0.004 -0.02159,0.004 -0.03125,0 -1.134759,-0.43408 -2.346698,-0.62498 -3.5625,-0.625 z" />
    <path
       style="font-size:35.36501312px;font-style:normal;font-variant:normal;font-weight:normal;font-stretch:normal;text-align:end;line-height:125%;letter-spacing:0px;word-spacing:0px;text-anchor:end;fill:#000000;fill-opacity:1;stroke:none;font-family:Andale Mono;-inkscape-font-specification:Andale Mono"
       d="m 48.606673,982.36218 c -1.395251,2e-5 -2.710799,0.31723 -3.934836,0.9375 -1.224053,0.60924 -2.256893,1.47503 -3.129984,2.59375 -0.890218,1.14091 -1.58274,2.46946 -2.079204,4.03125 -0.487907,1.55074 -0.737782,3.26612 -0.737781,5.09375 -10e-7,1.83873 0.249874,3.52286 0.737781,5.06247 0.487905,1.5286 1.142357,2.8026 1.989776,3.8438 0.864531,1.0633 1.876423,1.8726 3.040555,2.4375 1.16412,0.5538 2.420649,0.8437 3.75598,0.8437 1.112758,0 2.070867,-0.1878 2.884056,-0.5312 0.821723,-0.3434 1.581824,-0.7971 2.25806,-1.4063 0.616287,-0.5538 1.161259,-1.2357 1.632063,-2 0.470769,-0.7753 0.883906,-1.6502 1.251993,-2.625 l -1.095494,-0.84372 c -0.770395,1.70582 -1.6295,2.97072 -2.571058,3.81252 -0.933027,0.8418 -1.998701,1.25 -3.197054,1.25 -0.821748,0 -1.581849,-0.1748 -2.25806,-0.5625 -0.676229,-0.3988 -1.247389,-1.0332 -1.743848,-1.875 -0.462234,-0.8086 -0.849183,-1.8694 -1.140208,-3.18752 -0.282479,-1.32919 -0.42479,-2.90929 -0.424783,-4.78125 -7e-6,-3.3119 0.41313,-5.89109 1.251993,-7.71875 0.838848,-1.8387 2.079665,-2.74998 3.688909,-2.75 1.292511,2e-5 2.387694,0.61427 3.286483,1.84375 0.898759,1.22953 1.660776,3.15611 2.302773,5.78125 l 1.140208,0 -0.134141,-8.625 -1.117852,0 -0.782496,0.90625 c -0.573519,-0.39874 -1.271277,-0.75233 -2.10156,-1.0625 -0.83031,-0.3212 -1.762231,-0.46873 -2.772271,-0.46875 z"
       id="text3809"
       inkscape:connector-curvature="0" />
  </g>
</svg>
