<?xml version="1.0" encoding="UTF-8" standalone="no"?>
<!-- Created with Inkscape (http://www.inkscape.org/) -->

<svg
   xmlns:dc="http://purl.org/dc/elements/1.1/"
   xmlns:cc="http://creativecommons.org/ns#"
   xmlns:rdf="http://www.w3.org/1999/02/22-rdf-syntax-ns#"
   xmlns:svg="http://www.w3.org/2000/svg"
   xmlns="http://www.w3.org/2000/svg"
   xmlns:sodipodi="http://sodipodi.sourceforge.net/DTD/sodipodi-0.dtd"
   xmlns:inkscape="http://www.inkscape.org/namespaces/inkscape"
   width="96"
   height="96"
   id="svg2"
   version="1.1"
   inkscape:version="0.48.4 r9939"
   sodipodi:docname="claws-mail.svg">
  <defs
     id="defs4" />
  <sodipodi:namedview
     id="base"
     pagecolor="#ffffff"
     bordercolor="#666666"
     borderopacity="1.0"
     inkscape:pageopacity="0.0"
     inkscape:pageshadow="2"
     inkscape:zoom="5.90625"
     inkscape:cx="22.010582"
     inkscape:cy="48"
     inkscape:document-units="px"
     inkscape:current-layer="layer1"
     showgrid="true"
     inkscape:snap-page="true"
     inkscape:snap-global="true"
     inkscape:snap-center="true"
     inkscape:snap-object-midpoints="false"
     showguides="true"
     inkscape:guide-bbox="true"
     inkscape:snap-bbox="true"
     inkscape:object-paths="true"
     inkscape:object-nodes="true"
     inkscape:window-width="1305"
     inkscape:window-height="744"
     inkscape:window-x="61"
     inkscape:window-y="24"
     inkscape:window-maximized="1"
     inkscape:snap-midpoints="false"
     inkscape:snap-grids="true"
     inkscape:snap-to-guides="false">
    <inkscape:grid
       type="xygrid"
       id="grid3002"
       empspacing="5"
       visible="true"
       enabled="true"
       snapvisiblegridlinesonly="true" />
  </sodipodi:namedview>
  <metadata
     id="metadata7">
    <rdf:RDF>
      <cc:Work
         rdf:about="">
        <dc:format>image/svg+xml</dc:format>
        <dc:type
           rdf:resource="http://purl.org/dc/dcmitype/StillImage" />
        <dc:title />
      </cc:Work>
    </rdf:RDF>
  </metadata>
  <g
     inkscape:label="Layer 1"
     inkscape:groupmode="layer"
     id="layer1"
     transform="translate(0,-956.36218)">
    <rect
       style="fill:#ffffff;fill-opacity:0;fill-rule:nonzero;stroke:none"
       id="rect3775"
       width="96"
       height="96"
       x="0"
       y="956.36218"
       ry="0" />
    <path
       style="fill:#000000;fill-opacity:0.09589041;fill-rule:nonzero;stroke:none"
       d="m 3.353015,956.30662 c -1.884176,0 -3.4111555,1.43156 -3.4111555,3.19799 l 0,83.65949 c 0,1.7665 1.5269795,3.1981 3.4111555,3.1981 l 89.23583,0 c 1.884174,0 3.411155,-1.4316 3.411155,-3.1981 l 0,-83.65949 c 0,-1.76643 -1.526981,-3.19799 -3.411155,-3.19799 z"
       id="rect3772"
       inkscape:connector-curvature="0"
       sodipodi:nodetypes="sssssssss" />
    <path
       style="fill:#000000;fill-opacity:0.18721463;fill-rule:nonzero;stroke:none"
       d="m 1.0459761,1041.8066 0,7.4219 c 0,1.7392 1.461916,3.1337 3.2852054,3.1337 l 86.3836135,0 c 1.823288,0 3.285205,-1.3945 3.285205,-3.1337 l 0,-7.4219 -92.9540239,0 z"
       id="rect3785"
       inkscape:connector-curvature="0" />
    <path
       style="fill:#000000;fill-opacity:0.38356168;fill-rule:nonzero;stroke:none"
       d="m 1.0459761,1041.8066 0,5.3807 c 0,1.762 1.461916,3.1749 3.2852054,3.1749 l 86.3836135,0 c 1.823288,0 3.285205,-1.4129 3.285205,-3.1749 l 0,-5.3807 -92.9540239,0 z"
       id="rect3783"
       inkscape:connector-curvature="0" />
    <rect
       style="fill:#f7e8aa;fill-opacity:1;fill-rule:nonzero;stroke:none"
       id="rect2985-2"
       width="93"
       height="88.999962"
       x="0.9999969"
       y="957.36224"
       ry="3.1511383" />
    <g
       id="g3031"
       transform="matrix(1.1071429,0,0,1.0595241,51.845906,-54.106817)">
      <path
         inkscape:connector-curvature="0"
         id="path3059"
         d="m -31.581584,954.64465 -14.34375,14.34375 0,11.3125 7.28125,-7.28125 0,-11.09375 11.09375,0 7.28125,-7.28125 -11.3125,0 z m 39.59375,0 -7.28125,7.28125 11.3125,0 7.28125,-7.28125 -11.3125,0 z m 30.0625,9.53125 -7.28125,7.28125 0,11.3125 7.28125,-7.28125 0,-11.3125 z m -76.71875,37.125 -7.28125,7.2812 0,11.3125 7.28125,-7.2812 0,-11.3125 z m 76.71875,2.5 -7.28125,7.2812 0,11.3125 7.28125,-7.2812 0,-11.3125 z m -67.21875,27.5937 -7.25,7.25 11.3125,0 7.25,-7.25 -11.3125,0 z m 39.625,0 -7.25,7.25 11.3125,0 7.25,-7.25 -11.3125,0 z"
         style="fill:#212178;fill-opacity:1;fill-rule:nonzero;stroke:none" />
      <path
         inkscape:connector-curvature="0"
         id="path3034"
         d="m -42.956584,954.64465 c -0.823828,0 -1.55618,0.33743 -2.09375,0.875 -0.53757,0.53757 -0.875,1.26992 -0.875,2.09375 l 0,2.875 5.84375,-5.84375 -2.875,0 z m 31.1875,0 -7.28125,7.28125 11.3125,0 7.28125,-7.28125 -11.3125,0 z m 39.5625,0 -7.28125,7.28125 10.28125,0 0,1.0625 6.71875,-6.71875 c -0.133902,-0.23952 -0.120023,-0.55752 -0.3125,-0.75 -0.53757,-0.53757 -1.269922,-0.875 -2.09375,-0.875 l -7.3125,0 z m -66.4375,26.875 -7.28125,7.28125 0,11.3125 7.28125,-7.28125 0,-11.3125 z m 76.71875,2.46875 -7.28125,7.28125 0,11.31245 7.28125,-7.2812 0,-11.3125 z m -76.71875,37.0937 -7.28125,7.2813 0,7.3125 c 0,0.8239 0.33743,1.5561 0.875,2.0937 0.192477,0.1925 0.510483,0.1786 0.75,0.3125 l 6.6875,-6.6875 -1.03125,0 0,-10.3125 z m 76.71875,2.5 -7.28125,7.2813 0,0.5312 -0.53125,0 -7.25,7.25 11.3125,0 3.75,-3.75 0,-11.3125 z m -47.40625,7.8125 -7.25,7.25 11.3125,0 7.25,-7.25 -11.3125,0 z"
         style="fill:#d40000;fill-opacity:1;fill-rule:nonzero;stroke:none" />
    </g>
    <path
       style="font-size:42.26717377px;font-style:normal;font-variant:normal;font-weight:normal;font-stretch:normal;text-align:end;line-height:125%;letter-spacing:0px;word-spacing:0px;text-anchor:end;fill:#800000;fill-opacity:1;stroke:none;font-family:mry_KacstQurn;-inkscape-font-specification:mry_KacstQurn"
       d="m 50.735671,982.36218 c -2.847359,3e-5 -5.529271,0.50365 -8.075278,1.50477 -2.546049,0.98645 -4.797394,2.41049 -6.740803,4.28024 -1.898233,1.84038 -3.355386,3.95768 -4.379812,6.38692 -1.024449,2.42929 -1.539789,4.9781 -1.539778,7.65759 -1.1e-5,2.7826 0.496178,5.3956 1.505561,7.8249 1.009359,2.4145 2.485663,4.5466 4.414029,6.3869 1.928343,1.8404 4.133205,3.2229 6.603934,4.18 2.470685,0.9717 5.082871,1.4713 7.869975,1.4713 2.289896,0 4.560391,-0.3715 6.775022,-1.137 2.22963,-0.7508 4.275911,-1.8488 6.159109,-3.277 l -2.053037,-2.4412 c -1.566822,1.1926 -3.283687,2.109 -5.166809,2.7421 -1.868132,0.6479 -3.770897,0.9698 -5.714285,0.9698 -2.365274,0 -4.593383,-0.4275 -6.67237,-1.2373 -2.079031,-0.7951 -3.89293,-1.9466 -5.474765,-3.4777 -1.642134,-1.5606 -2.924345,-3.3707 -3.798118,-5.4171 -0.858728,-2.0466 -1.26605,-4.2468 -1.266039,-6.5877 -1.1e-5,-2.8415 0.658844,-5.46239 1.984602,-7.89166 1.340803,-2.44396 3.177937,-4.41702 5.5432,-5.91877 1.446246,-0.94223 3.019584,-1.63552 4.721984,-2.10668 1.702356,-0.48583 3.484841,-0.73564 5.337895,-0.73567 2.651462,3e-5 5.111953,0.50765 7.356716,1.53821 2.259753,1.0159 4.181669,2.48534 5.748503,4.414 0.964139,1.17785 1.654408,2.46161 2.121471,3.84552 0.482042,1.38397 0.752736,2.87211 0.75278,4.44746 -4.4e-5,2.60589 -0.63158,4.73789 -1.88195,6.38679 -1.235392,1.6343 -2.967311,2.5855 -5.16681,2.9094 l 0,-16.25159 -3.216423,0 0,2.90922 c -0.888884,-1.11891 -1.938713,-1.96319 -3.113773,-2.50796 -1.175125,-0.55944 -2.520154,-0.83595 -4.071856,-0.83597 -2.576184,2e-5 -4.703162,0.93513 -6.330197,2.77546 -1.627067,1.84041 -2.429449,4.21145 -2.429427,7.15604 -2.2e-5,2.9446 0.817427,5.3491 2.429427,7.1895 1.627035,1.8256 3.738947,2.742 6.330197,2.742 1.551702,0 2.911798,-0.2725 4.071856,-0.8025 1.17506,-0.5448 2.209823,-1.3743 3.113773,-2.508 l 0,3.3774 c 4.21824,-0.087 7.527593,-1.2398 9.923011,-3.4777 2.39533,-2.2379 3.59277,-5.2904 3.592814,-9.16247 -4.4e-5,-1.81087 -0.321302,-3.5568 -0.923867,-5.24994 -0.587596,-1.69309 -1.436447,-3.27209 -2.566296,-4.71495 -1.853076,-2.35562 -4.135834,-4.1697 -6.877673,-5.45062 -2.726849,-1.28085 -5.702679,-1.90601 -8.896493,-1.90604 z m -0.61591,13.24199 c 1.837933,3e-5 3.295085,0.61721 4.379812,1.83917 1.084671,1.20724 1.642396,2.82096 1.642428,4.88216 -3.2e-5,2.0905 -0.538607,3.7418 -1.608211,4.949 -1.054604,1.2073 -2.526812,1.8058 -4.379812,1.8058 -1.868122,0 -3.310197,-0.5797 -4.379812,-1.7724 -1.06966,-1.2073 -1.608235,-2.8771 -1.608212,-4.9824 -2.3e-5,-2.0759 0.538552,-3.7083 1.608212,-4.91565 1.084682,-1.20721 2.522673,-1.80565 4.345595,-1.80568 z"
       id="text3069"
       inkscape:connector-curvature="0" />
    <path
       style="fill:#000000;fill-opacity:0.38356168;fill-rule:nonzero;stroke:none"
       d="m 1,1042.3622 0.045976,2.7457 c 0.03024,1.8058 1.461916,3.2543 3.2852054,3.2543 l 86.3836136,0 c 1.823288,0 3.285205,-1.4481 3.285205,-3.2543 l -0.04598,-2.7457 z"
       id="rect3781"
       inkscape:connector-curvature="0"
       sodipodi:nodetypes="csssscc" />
    <rect
       style="fill:#ffffff;fill-opacity:0.30000001;fill-rule:nonzero;stroke:none"
       id="rect3770"
       width="92.954033"
       height="2.000005"
       x="1.045976"
       y="1040.3622" />
  </g>
</svg>
