<?xml version="1.0" encoding="UTF-8" standalone="no"?>
<!-- Created with Inkscape (http://www.inkscape.org/) -->

<svg
   xmlns:dc="http://purl.org/dc/elements/1.1/"
   xmlns:cc="http://creativecommons.org/ns#"
   xmlns:rdf="http://www.w3.org/1999/02/22-rdf-syntax-ns#"
   xmlns:svg="http://www.w3.org/2000/svg"
   xmlns="http://www.w3.org/2000/svg"
   xmlns:xlink="http://www.w3.org/1999/xlink"
   xmlns:sodipodi="http://sodipodi.sourceforge.net/DTD/sodipodi-0.dtd"
   xmlns:inkscape="http://www.inkscape.org/namespaces/inkscape"
   width="96"
   height="96"
   id="svg2"
   version="1.1"
   inkscape:version="0.48.4 r9939"
   sodipodi:docname="clock.svg">
  <defs
     id="defs4">
    <linearGradient
       id="linearGradient3769">
      <stop
         style="stop-color:#00043a;stop-opacity:1;"
         offset="0"
         id="stop3771" />
      <stop
         style="stop-color:#53004c;stop-opacity:1;"
         offset="1"
         id="stop3773" />
    </linearGradient>
    <linearGradient
       inkscape:collect="always"
       xlink:href="#linearGradient3769"
       id="linearGradient3775"
       x1="0"
       y1="1047.3622"
       x2="95"
       y2="957.36218"
       gradientUnits="userSpaceOnUse" />
    <radialGradient
       inkscape:collect="always"
       xlink:href="#linearGradient3949"
       id="radialGradient3105"
       gradientUnits="userSpaceOnUse"
       gradientTransform="matrix(4.7930667,0.17181137,-0.03778637,0.95380206,366.30442,18.142114)"
       cx="-96.225021"
       cy="34.840553"
       fx="-96.225021"
       fy="34.840553"
       r="7.4827008" />
    <linearGradient
       id="linearGradient3949">
      <stop
         id="stop3951"
         offset="0"
         style="stop-color:#ffcc00;stop-opacity:1;" />
      <stop
         id="stop3953"
         offset="1"
         style="stop-color:#745d00;stop-opacity:1;" />
    </linearGradient>
  </defs>
  <sodipodi:namedview
     id="base"
     pagecolor="#ffffff"
     bordercolor="#666666"
     borderopacity="1.0"
     inkscape:pageopacity="0.0"
     inkscape:pageshadow="2"
     inkscape:zoom="5.90625"
     inkscape:cx="22.010582"
     inkscape:cy="48"
     inkscape:document-units="px"
     inkscape:current-layer="layer1"
     showgrid="true"
     inkscape:snap-page="true"
     inkscape:snap-global="true"
     inkscape:snap-center="true"
     inkscape:snap-object-midpoints="true"
     showguides="true"
     inkscape:guide-bbox="true"
     inkscape:snap-bbox="true"
     inkscape:object-paths="true"
     inkscape:object-nodes="true"
     inkscape:window-width="1305"
     inkscape:window-height="744"
     inkscape:window-x="61"
     inkscape:window-y="24"
     inkscape:window-maximized="1"
     inkscape:snap-midpoints="true"
     inkscape:snap-grids="true"
     inkscape:snap-to-guides="false">
    <inkscape:grid
       type="xygrid"
       id="grid3002"
       empspacing="5"
       visible="true"
       enabled="true"
       snapvisiblegridlinesonly="true" />
  </sodipodi:namedview>
  <metadata
     id="metadata7">
    <rdf:RDF>
      <cc:Work
         rdf:about="">
        <dc:format>image/svg+xml</dc:format>
        <dc:type
           rdf:resource="http://purl.org/dc/dcmitype/StillImage" />
        <dc:title />
      </cc:Work>
    </rdf:RDF>
  </metadata>
  <g
     inkscape:label="Layer 1"
     inkscape:groupmode="layer"
     id="layer1"
     transform="translate(0,-956.36218)">
    <rect
       style="fill:#ffffff;fill-opacity:0;fill-rule:nonzero;stroke:none"
       id="rect3775"
       width="96"
       height="96"
       x="0"
       y="956.36218"
       ry="0" />
    <path
       style="fill:#000000;fill-opacity:0.09589041;fill-rule:nonzero;stroke:none"
       d="m 3.353015,956.30662 c -1.884176,0 -3.4111555,1.43156 -3.4111555,3.19799 l 0,83.65949 c 0,1.7665 1.5269795,3.1981 3.4111555,3.1981 l 89.23583,0 c 1.884174,0 3.411155,-1.4316 3.411155,-3.1981 l 0,-83.65949 c 0,-1.76643 -1.526981,-3.19799 -3.411155,-3.19799 z"
       id="rect3772"
       inkscape:connector-curvature="0"
       sodipodi:nodetypes="sssssssss" />
    <path
       style="fill:#000000;fill-opacity:0.18721463;fill-rule:nonzero;stroke:none"
       d="m 1.0459761,1041.8066 0,7.4219 c 0,1.7392 1.461916,3.1337 3.2852054,3.1337 l 86.3836135,0 c 1.823288,0 3.285205,-1.3945 3.285205,-3.1337 l 0,-7.4219 -92.9540239,0 z"
       id="rect3785"
       inkscape:connector-curvature="0" />
    <path
       style="fill:#000000;fill-opacity:0.38356168;fill-rule:nonzero;stroke:none"
       d="m 1.0459761,1041.8066 0,5.3807 c 0,1.762 1.461916,3.1749 3.2852054,3.1749 l 86.3836135,0 c 1.823288,0 3.285205,-1.4129 3.285205,-3.1749 l 0,-5.3807 -92.9540239,0 z"
       id="rect3783"
       inkscape:connector-curvature="0" />
    <rect
       style="fill:url(#linearGradient3775);fill-opacity:1;fill-rule:nonzero;stroke:none"
       id="rect2985"
       width="92.954025"
       height="89"
       x="1.045977"
       y="957.36218"
       ry="3.1511393" />
    <path
       style="fill:#000000;fill-opacity:0.38356168;fill-rule:nonzero;stroke:none"
       d="m 1,1042.3622 0.045976,2.7457 c 0.03024,1.8058 1.461916,3.2543 3.2852054,3.2543 l 86.3836136,0 c 1.823288,0 3.285205,-1.4481 3.285205,-3.2543 l -0.04598,-2.7457 z"
       id="rect3781"
       inkscape:connector-curvature="0"
       sodipodi:nodetypes="csssscc" />
    <rect
       style="fill:#ffffff;fill-opacity:0.11872146;fill-rule:nonzero;stroke:none"
       id="rect3770"
       width="92.954033"
       height="2.000005"
       x="1.045976"
       y="1040.3622" />
    <path
       sodipodi:type="arc"
       style="fill:#ffffff;fill-opacity:1;fill-rule:nonzero;stroke:none"
       id="path3107"
       sodipodi:cx="48"
       sodipodi:cy="48.000004"
       sodipodi:rx="42"
       sodipodi:ry="42"
       d="m 90,48.000004 c 0,23.195959 -18.804041,42 -42,42 -23.195959,0 -42,-18.804041 -42,-42 0,-23.19596 18.804041,-42.0000002 42,-42.0000002 23.195959,0 42,18.8040402 42,42.0000002 z"
       transform="matrix(0.89288057,0,0,0.89285707,4.640779,957.00504)" />
    <g
       style="font-size:10.07189751px;font-style:normal;font-weight:normal;line-height:125%;letter-spacing:0px;word-spacing:0px;fill:#ff6600;fill-opacity:1;stroke:none;font-family:Sans"
       id="text3146"
       transform="matrix(0.72533091,0,0,0.74548458,1.0781645,1023.7303)">
      <path
         inkscape:connector-curvature="0"
         d="m 56.532141,-60.490813 0,1.047517 c -0.334425,-0.311462 -0.691793,-0.544243 -1.072106,-0.698344 -0.377046,-0.154089 -0.778675,-0.231136 -1.20489,-0.231143 -0.839328,7e-6 -1.481936,0.257378 -1.927824,0.772114 -0.445894,0.511469 -0.668839,1.252434 -0.668837,2.222899 -2e-6,0.967193 0.222943,1.708159 0.668837,2.222899 0.445888,0.511465 1.088496,0.767196 1.927824,0.767196 0.426215,0 0.827844,-0.07705 1.20489,-0.231143 0.380313,-0.154093 0.737681,-0.386875 1.072106,-0.698344 l 0,1.037681 c -0.347539,0.23606 -0.716382,0.413105 -1.106532,0.531135 -0.386881,0.11803 -0.796707,0.177045 -1.229479,0.177045 -1.111453,0 -1.986842,-0.339336 -2.626169,-1.018009 -0.63933,-0.68195 -0.958995,-1.611436 -0.958994,-2.78846 -1e-6,-1.180296 0.319664,-2.109781 0.958994,-2.78846 0.639327,-0.681944 1.514716,-1.02292 2.626169,-1.022927 0.439329,7e-6 0.852434,0.05902 1.239315,0.177045 0.390149,0.114759 0.755714,0.288525 1.096696,0.521299"
         id="path3151"
         style="fill:#ff6600" />
      <path
         inkscape:connector-curvature="0"
         d="m 58.037024,-61.366202 0.904897,0 0,7.652281 -0.904897,0 0,-7.652281"
         id="path3153"
         style="fill:#ff6600" />
      <path
         inkscape:connector-curvature="0"
         d="m 62.964779,-58.587578 c -0.485238,5e-6 -0.868835,0.190164 -1.150793,0.570479 -0.281963,0.377044 -0.422943,0.895064 -0.422941,1.554062 -2e-6,0.659003 0.139339,1.178663 0.418023,1.55898 0.281958,0.377041 0.667195,0.565561 1.155711,0.565561 0.481952,0 0.86391,-0.190159 1.145875,-0.570479 0.281956,-0.380317 0.422936,-0.898338 0.422941,-1.554062 -5e-6,-0.652441 -0.140985,-1.168822 -0.422941,-1.549145 -0.281965,-0.383593 -0.663923,-0.575391 -1.145875,-0.575396 m 0,-0.767195 c 0.786863,5e-6 1.404881,0.255737 1.854055,0.767195 0.449165,0.511468 0.673749,1.219647 0.673755,2.124541 -6e-6,0.90162 -0.22459,1.6098 -0.673755,2.124541 -0.449174,0.511463 -1.067192,0.767195 -1.854055,0.767195 -0.790148,0 -1.409805,-0.255732 -1.858974,-0.767195 -0.445892,-0.514741 -0.668837,-1.222921 -0.668836,-2.124541 -10e-7,-0.904894 0.222944,-1.613073 0.668836,-2.124541 0.449169,-0.511458 1.068826,-0.76719 1.858974,-0.767195"
         id="path3155"
         style="fill:#ff6600" />
      <path
         inkscape:connector-curvature="0"
         d="m 70.951479,-59.010519 0,0.845882 c -0.255737,-0.140976 -0.513108,-0.245891 -0.772114,-0.314747 -0.255735,-0.07212 -0.514745,-0.108189 -0.777031,-0.108194 -0.586874,5e-6 -1.042601,0.186886 -1.367181,0.560643 -0.324584,0.370487 -0.486876,0.891786 -0.486874,1.563898 -2e-6,0.672117 0.16229,1.195056 0.486874,1.568816 0.32458,0.370484 0.780307,0.555725 1.367181,0.555725 0.262286,0 0.521296,-0.03442 0.777031,-0.103277 0.259006,-0.07213 0.516377,-0.178683 0.772114,-0.319664 l 0,0.836046 c -0.252458,0.11803 -0.514747,0.206552 -0.786867,0.265568 -0.26885,0.05901 -0.555729,0.08852 -0.860636,0.08852 -0.829491,0 -1.488492,-0.26065 -1.977003,-0.781949 -0.488514,-0.521298 -0.732771,-1.22456 -0.73277,-2.109787 -10e-7,-0.898336 0.245895,-1.604877 0.737688,-2.119623 0.495068,-0.514737 1.172101,-0.772108 2.0311,-0.772113 0.278678,5e-6 0.550803,0.02951 0.816374,0.08852 0.265564,0.05574 0.522934,0.140986 0.772114,0.255732"
         id="path3157"
         style="fill:#ff6600" />
      <path
         inkscape:connector-curvature="0"
         d="m 72.500623,-61.366202 0.909815,0 0,4.519567 2.699937,-2.375355 1.155711,0 -2.921244,2.57699 3.044192,2.931079 -1.180301,0 -2.798295,-2.690101 0,2.690101 -0.909815,0 0,-7.652281"
         id="path3159"
         style="fill:#ff6600" />
    </g>
    <path
       style="fill:#000000;fill-opacity:1;fill-rule:nonzero;stroke:none"
       d="m 46.310347,998.7666 1.488752,2.6046 7.757051,-3.28331 11.71339,-9.00112 -0.496543,-0.86804 -13.698805,5.52864 z"
       id="rect3825"
       inkscape:connector-curvature="0"
       sodipodi:nodetypes="ccccccc"
       inkscape:transform-center-x="-9.373737"
       inkscape:transform-center-y="-5.067225" />
    <path
       inkscape:transform-center-x="12.48202"
       sodipodi:nodetypes="ccccccc"
       inkscape:connector-curvature="0"
       id="path3828"
       d="m 49.585556,999.47869 -1.700932,2.47121 -10.751347,-6.1861 -16.688709,-13.91471 0.566985,-0.82375 18.956602,10.61976 z"
       style="fill:#000000;fill-opacity:1;fill-rule:nonzero;stroke:none"
       inkscape:transform-center-y="-8.37457" />
    <path
       style="fill:#ff0000;fill-opacity:1;fill-rule:nonzero;stroke:none"
       d="m 43.745747,1008.7774 -2.538026,-1.5995 c 7.157492,-12.06075 15.238183,-23.4962 23.239622,-34.9989 l 0.846017,0.53319 c -6.601938,12.37537 -14.075918,24.20985 -21.547613,36.06521 z"
       id="path3830"
       inkscape:connector-curvature="0"
       sodipodi:nodetypes="ccccc"
       inkscape:transform-center-x="-5.7512035"
       inkscape:transform-center-y="-9.4347839" />
    <path
       sodipodi:type="arc"
       style="fill:url(#radialGradient3105);fill-opacity:1;stroke:#b9b9b9;stroke-width:1;stroke-opacity:1"
       id="path3161"
       sodipodi:cx="-96.225021"
       sodipodi:cy="34.840553"
       sodipodi:rx="6.9827008"
       sodipodi:ry="6.6420813"
       d="m -89.242321,34.840553 c 0,3.66832 -3.126261,6.642082 -6.9827,6.642082 -3.856439,0 -6.982699,-2.973762 -6.982699,-6.642082 0,-3.66832 3.12626,-6.642081 6.982699,-6.642081 3.856439,0 6.9827,2.973761 6.9827,6.642081 z"
       transform="matrix(0.53390613,0.12872739,-0.13167026,0.57688151,103.46193,992.2366)" />
    <path
       inkscape:connector-curvature="0"
       id="path3018"
       style="font-size:14.59141731px;font-style:normal;font-variant:normal;font-weight:bold;font-stretch:normal;text-align:end;line-height:125%;letter-spacing:0px;word-spacing:0px;text-anchor:end;fill:#000000;fill-opacity:1;stroke:none;font-family:Eurostile;-inkscape-font-specification:Eurostile Bold"
       d="m 52.668188,1026.5475 -2.572053,0 0.01,-0.2209 c -9e-6,-0.4559 -0.143457,-0.7528 -0.430344,-0.8905 -0.286903,-0.1425 -0.894055,-0.2138 -1.821454,-0.2138 -1.347747,0 -2.188417,0.093 -2.522012,0.2779 -0.333603,0.1805 -0.500404,0.6388 -0.5004,1.375 l 0,1.6744 0.05004,0 c 0.447019,-0.627 1.564577,-0.9405 3.352676,-0.9405 1.754726,0 2.952347,0.1995 3.592868,0.5985 0.640501,0.3942 0.960755,1.1352 0.960768,2.2229 -1.3e-5,1.2587 -0.34362,2.1065 -1.030824,2.5435 -0.687224,0.437 -2.021622,0.6555 -4.003196,0.6555 -2.441952,0 -3.976508,-0.2565 -4.603674,-0.7695 -0.627168,-0.5177 -0.940752,-1.7764 -0.940751,-3.7761 -10e-7,-2.4699 0.280223,-3.978 0.840671,-4.5242 0.567117,-0.5462 2.131698,-0.8193 4.693747,-0.8193 1.86815,0 3.155842,0.1828 3.863083,0.5486 0.70722,0.3657 1.060836,1.0331 1.060847,2.002 l 0,0.2565 m -5.034018,2.5435 c -1.22098,0 -2.004938,0.078 -2.351877,0.2351 -0.340275,0.152 -0.510411,0.5012 -0.510408,1.0474 -3e-6,0.7932 0.153452,1.2872 0.460368,1.4819 0.306907,0.1948 1.080858,0.2921 2.321853,0.2921 1.187607,0 1.928197,-0.086 2.221773,-0.2565 0.300231,-0.1757 0.450351,-0.6127 0.450359,-1.3109 -8e-6,-0.6602 -0.146792,-1.0735 -0.44035,-1.2397 -0.286905,-0.1662 -1.004143,-0.2494 -2.151718,-0.2494" />
    <path
       inkscape:connector-curvature="0"
       id="path3020"
       style="font-size:14.59141731px;font-style:normal;font-variant:normal;font-weight:bold;font-stretch:normal;text-align:end;line-height:125%;letter-spacing:0px;word-spacing:0px;text-anchor:end;fill:#000000;fill-opacity:1;stroke:none;font-family:Eurostile;-inkscape-font-specification:Eurostile Bold"
       d="m 14.29829,1001.8785 2.54178,0 c -4e-6,0.6174 0.141202,0.9974 0.423631,1.1399 0.282415,0.1378 1.035535,0.2066 2.25936,0.2066 1.324678,0 2.128229,-0.097 2.410657,-0.2921 0.289136,-0.1947 0.433709,-0.7457 0.433717,-1.6529 l 0,-1.41782 -0.05043,0 c -0.437086,0.63642 -1.492799,0.95472 -3.167139,0.95472 -1.882805,0 -3.146969,-0.1853 -3.792498,-0.5557 -0.638809,-0.37532 -0.958213,-1.10912 -0.958211,-2.20162 -2e-6,-1.2777 0.336212,-2.1374 1.008642,-2.5791 0.679151,-0.4418 2.000472,-0.6626 3.963969,-0.6626 2.548497,0 4.121978,0.2565 4.720449,0.7694 0.605175,0.513 0.907767,1.8572 0.90778,4.0326 -1.3e-5,2.34172 -0.289156,3.77612 -0.867434,4.30342 -0.571574,0.5224 -2.138332,0.7837 -4.700277,0.7837 -1.976944,0 -3.328525,-0.1758 -4.054746,-0.5273 -0.719499,-0.3514 -1.079249,-1.0069 -1.079247,-1.9664 l 0,-0.3348 m 5.174339,-5.57872 c -1.082615,0 -1.768493,0.09 -2.057632,0.2707 -0.289149,0.1758 -0.433721,0.5962 -0.433717,1.2611 -4e-6,0.6698 0.144568,1.0877 0.433717,1.254 0.295864,0.1662 1.032173,0.2493 2.208928,0.2493 1.243986,0 2.020641,-0.078 2.329967,-0.2351 0.309308,-0.1615 0.463966,-0.5581 0.463976,-1.1898 -10e-6,-0.722 -0.161393,-1.1708 -0.48415,-1.3466 -0.322775,-0.1757 -1.143136,-0.2636 -2.461089,-0.2636" />
    <path
       inkscape:connector-curvature="0"
       id="path3022"
       style="font-size:14.59141731px;font-style:normal;font-variant:normal;font-weight:bold;font-stretch:normal;text-align:end;line-height:125%;letter-spacing:0px;word-spacing:0px;text-anchor:end;fill:#000000;fill-opacity:1;stroke:none;font-family:Eurostile;-inkscape-font-specification:Eurostile Bold"
       d="m 74.39331,1000.4683 0,-1.43197 0.445406,0.01 c 1.471177,0 2.365362,-0.062 2.682551,-0.1853 0.323922,-0.1235 0.485888,-0.4726 0.485897,-1.0473 -9e-6,-0.6412 -0.145103,-1.0354 -0.435283,-1.1827 -0.283447,-0.152 -1.039285,-0.228 -2.267515,-0.228 -1.113518,0 -1.815366,0.083 -2.10555,0.2494 -0.290192,0.1615 -0.435285,0.5605 -0.435282,1.1969 l 0,0.285 -2.530709,0 0,-0.3633 c -2e-6,-1.1352 0.340801,-1.8928 1.022407,-2.2728 0.6816,-0.3848 2.027937,-0.5771 4.039011,-0.5771 2.024559,0 3.41476,0.1805 4.170609,0.5414 0.755828,0.361 1.133746,1.0284 1.133758,2.0021 -1.2e-5,1.3442 -0.765972,2.0994 -2.297884,2.2657 l 0,0.05 c 1.666883,0.1283 2.500329,0.83597 2.50034,2.12317 -1.1e-5,1.1447 -0.367807,1.9142 -1.103389,2.3084 -0.735602,0.3942 -2.16967,0.5913 -4.302206,0.5913 -2.092056,0 -3.516001,-0.1971 -4.271837,-0.5913 -0.749091,-0.3942 -1.123635,-1.14 -1.123634,-2.2372 l 0.01009,-0.5414 2.561077,0 c 0.02025,0.2137 0.03036,0.3419 0.03036,0.3847 -4e-6,0.6697 0.158587,1.0877 0.475772,1.2539 0.323927,0.1663 1.130379,0.2494 2.419358,0.2494 1.180991,0 1.926705,-0.09 2.237148,-0.2707 0.317173,-0.1805 0.475764,-0.6128 0.475773,-1.2967 -9e-6,-0.5225 -0.145103,-0.8669 -0.435282,-1.0331 -0.283448,-0.1663 -0.877321,-0.2494 -1.78162,-0.2494 l -1.143879,0 -0.455529,0" />
    <path
       style="font-size:14.59141731px;font-style:normal;font-variant:normal;font-weight:bold;font-stretch:normal;text-align:end;line-height:125%;letter-spacing:0px;word-spacing:0px;text-anchor:end;fill:#000000;fill-opacity:1;stroke:none;font-family:Eurostile;-inkscape-font-specification:Eurostile Bold"
       d="m 52.890547,966.4718 c -1.717804,0 -2.84911,0.2022 -3.446114,0.625 -0.597008,0.4227 -0.926375,1.24805 -0.926375,2.46875 l 0,0.40625 2.14919,0 0,-0.40625 c -4e-6,-0.7077 0.154155,-1.16325 0.407604,-1.34375 0.253443,-0.1849 0.846962,-0.25 1.815695,-0.25 0.94056,0 1.530818,0.0696 1.778639,0.25 0.253439,0.1805 0.370542,0.60675 0.37055,1.28125 -8e-6,0.703 -0.117117,1.1416 -0.37055,1.3125 -0.247821,0.1663 -1.051236,0.3582 -2.408574,0.5625 -1.638955,0.247 -2.673315,0.5378 -3.112619,0.875 -0.433676,0.3373 -0.629936,1.00525 -0.629935,2.03125 l 0,2 8.707923,0 0,-1.46875 -6.521678,0 0,-0.25 c -4e-6,-0.684 0.07678,-1.1075 0.296439,-1.25 0.219649,-0.1472 1.014171,-0.32225 2.37152,-0.53125 1.644575,-0.2564 2.693462,-0.58875 3.149674,-0.96875 0.456193,-0.3847 0.704035,-1.1195 0.704045,-2.25 -10e-6,-1.1969 -0.323746,-2.01 -0.926375,-2.4375 -0.597014,-0.4275 -1.73069,-0.65625 -3.409059,-0.65625 z m -11.375882,0.0937 -3.742554,2.90625 1.33398,1.1875 2.964399,-2.5 0,8.125 2.223299,0 0,-9.71875 -2.779124,0 z"
       id="path3024"
       inkscape:connector-curvature="0" />
  </g>
</svg>
