<?xml version="1.0" encoding="UTF-8" standalone="no"?>
<!-- Created with Inkscape (http://www.inkscape.org/) -->

<svg
   xmlns:dc="http://purl.org/dc/elements/1.1/"
   xmlns:cc="http://creativecommons.org/ns#"
   xmlns:rdf="http://www.w3.org/1999/02/22-rdf-syntax-ns#"
   xmlns:svg="http://www.w3.org/2000/svg"
   xmlns="http://www.w3.org/2000/svg"
   xmlns:xlink="http://www.w3.org/1999/xlink"
   xmlns:sodipodi="http://sodipodi.sourceforge.net/DTD/sodipodi-0.dtd"
   xmlns:inkscape="http://www.inkscape.org/namespaces/inkscape"
   width="96"
   height="96"
   id="svg2"
   version="1.1"
   inkscape:version="0.48.4 r9939"
   sodipodi:docname="comix.svg">
  <defs
     id="defs4">
    <linearGradient
       id="linearGradient3770">
      <stop
         style="stop-color:#004ae2;stop-opacity:1;"
         offset="0"
         id="stop3772" />
      <stop
         style="stop-color:#00bce2;stop-opacity:1;"
         offset="1"
         id="stop3774" />
    </linearGradient>
    <linearGradient
       inkscape:collect="always"
       xlink:href="#linearGradient3770"
       id="linearGradient3776"
       x1="45"
       y1="-1047.3622"
       x2="45"
       y2="-957.36218"
       gradientUnits="userSpaceOnUse" />
  </defs>
  <sodipodi:namedview
     id="base"
     pagecolor="#ffffff"
     bordercolor="#666666"
     borderopacity="1.0"
     inkscape:pageopacity="0.0"
     inkscape:pageshadow="2"
     inkscape:zoom="5.90625"
     inkscape:cx="48"
     inkscape:cy="48"
     inkscape:document-units="px"
     inkscape:current-layer="layer1"
     showgrid="true"
     inkscape:snap-page="true"
     inkscape:snap-global="true"
     inkscape:snap-center="true"
     inkscape:snap-object-midpoints="false"
     showguides="true"
     inkscape:guide-bbox="true"
     inkscape:snap-bbox="true"
     inkscape:object-paths="true"
     inkscape:object-nodes="true"
     inkscape:window-width="1305"
     inkscape:window-height="744"
     inkscape:window-x="61"
     inkscape:window-y="24"
     inkscape:window-maximized="1"
     inkscape:snap-midpoints="false"
     inkscape:snap-grids="true"
     inkscape:snap-to-guides="false">
    <inkscape:grid
       type="xygrid"
       id="grid3002"
       empspacing="5"
       visible="true"
       enabled="true"
       snapvisiblegridlinesonly="true" />
  </sodipodi:namedview>
  <metadata
     id="metadata7">
    <rdf:RDF>
      <cc:Work
         rdf:about="">
        <dc:format>image/svg+xml</dc:format>
        <dc:type
           rdf:resource="http://purl.org/dc/dcmitype/StillImage" />
        <dc:title />
      </cc:Work>
    </rdf:RDF>
  </metadata>
  <g
     inkscape:label="Layer 1"
     inkscape:groupmode="layer"
     id="layer1"
     transform="translate(0,-956.36218)">
    <rect
       style="fill:#ffffff;fill-opacity:0;fill-rule:nonzero;stroke:none"
       id="rect3775"
       width="96"
       height="96"
       x="0"
       y="956.36218"
       ry="0" />
    <path
       style="fill:#000000;fill-opacity:0.09589041;fill-rule:nonzero;stroke:none"
       d="m 3.353015,956.30662 c -1.884176,0 -3.4111555,1.43156 -3.4111555,3.19799 l 0,83.65949 c 0,1.7665 1.5269795,3.1981 3.4111555,3.1981 l 89.23583,0 c 1.884174,0 3.411155,-1.4316 3.411155,-3.1981 l 0,-83.65949 c 0,-1.76643 -1.526981,-3.19799 -3.411155,-3.19799 z"
       id="rect3772"
       inkscape:connector-curvature="0"
       sodipodi:nodetypes="sssssssss" />
    <path
       style="fill:#000000;fill-opacity:0.18721463;fill-rule:nonzero;stroke:none"
       d="m 1.0459761,1041.8066 0,7.4219 c 0,1.7392 1.461916,3.1337 3.2852054,3.1337 l 86.3836135,0 c 1.823288,0 3.285205,-1.3945 3.285205,-3.1337 l 0,-7.4219 -92.9540239,0 z"
       id="rect3785"
       inkscape:connector-curvature="0" />
    <path
       style="fill:#000000;fill-opacity:0.38356168;fill-rule:nonzero;stroke:none"
       d="m 1.0459761,1041.8066 0,5.3807 c 0,1.762 1.461916,3.1749 3.2852054,3.1749 l 86.3836135,0 c 1.823288,0 3.285205,-1.4129 3.285205,-3.1749 l 0,-5.3807 -92.9540239,0 z"
       id="rect3783"
       inkscape:connector-curvature="0" />
    <rect
       style="fill:url(#linearGradient3776);fill-opacity:1;fill-rule:nonzero;stroke:none"
       id="rect2985"
       width="92.954025"
       height="89"
       x="1.045977"
       y="-1046.3622"
       ry="3.1511393"
       transform="scale(1,-1)" />
    <path
       style="fill:#000000;fill-opacity:0.38356168;fill-rule:nonzero;stroke:none"
       d="m 1,1042.3622 0.045976,2.7457 c 0.03024,1.8058 1.461916,3.2543 3.2852054,3.2543 l 86.3836136,0 c 1.823288,0 3.285205,-1.4481 3.285205,-3.2543 l -0.04598,-2.7457 z"
       id="rect3781"
       inkscape:connector-curvature="0"
       sodipodi:nodetypes="csssscc" />
    <rect
       style="fill:#ffffff;fill-opacity:0.30000001;fill-rule:nonzero;stroke:none"
       id="rect3770"
       width="92.954033"
       height="2.000005"
       x="1.045976"
       y="1040.3622" />
    <g
       id="g1789"
       transform="matrix(1.1973113,0,0,1.2307561,-1945.1231,519.1376)"
       style="opacity:0.50617281">
      <path
         id="path1683"
         transform="translate(1640.5564,364.34714)"
         d="m 24,9.25 c -0.5258,0 -1.02345,0.03975 -1.53125,0.09375 C 22.06525,9.38665 21.6495,9.43615 21.25,9.5 l 0,0.03125 c -1.2985,0.22473 -2.5648,0.56749 -3.75,1.0625 -2.0702,0.86463 -3.63405,1.73977 -5.21875,3.28125 0.4766,0.92996 1.4009,2.56491 2,3.34375 l -4.625,0 c -0.9952,1.42538 -1.6473,2.55811 -2.1875,4.25 -0.5405,1.69189 -0.84375,3.50542 -0.84375,5.375 0,8.69581 6.3331,15.92423 14.625,17.34375 l 0,0.03125 c 0.3875,0.061 0.7935,0.0889 1.1875,0.125 0.5193,0.0476 1.0293,0.09375 1.5625,0.09375 0.074,9.2e-4 0.14435,0 0.21875,0 0.5346,0 1.07305,-0.04595 1.59375,-0.09375 0.3926,-0.0361 0.77015,-0.0642 1.15625,-0.125 l 0,-0.03125 c 8.2968,-1.41542 14.625,-8.64444 14.625,-17.34375 0,-1.86958 -0.30345,-3.68311 -0.84375,-5.375 -0.5403,-1.69189 -1.1925,-2.82462 -2.1875,-4.25 l -4.625,0 c 0.5991,-0.77884 1.5233,-2.41379 2,-3.34375 -1.5847,-1.54148 -3.14865,-2.41662 -5.21875,-3.28125 -1.1853,-0.49501 -2.4515,-0.83777 -3.75,-1.0625 l 0,-0.03125 C 26.56015,9.4347 26.1628,9.38704 25.75,9.34375 25.2511,9.29145 24.73495,9.25 24.21875,9.25 24.14475,9.24907 24.0743,9.25 24,9.25 z m -9.46875,15.6875 c 1.415651,0 2.5625,1.146849 2.5625,2.5625 0,1.415651 -1.146849,2.5625 -2.5625,2.5625 -1.415651,0 -2.5625,-1.146849 -2.5625,-2.5625 0,-1.415651 1.146849,-2.5625 2.5625,-2.5625 z m 19.15625,0 c 1.415651,0 2.5625,1.146849 2.5625,2.5625 0,1.415651 -1.146849,2.5625 -2.5625,2.5625 -1.415651,0 -2.5625,-1.146849 -2.5625,-2.5625 0,-1.415651 1.146849,-2.5625 2.5625,-2.5625 z m -22.3125,8.78125 9.875,0 5.71875,0 9.875,0 0,0.53125 -2.1875,0 c -0.035,1.84639 -1.30445,2.84419 -2.46875,3.9375 -1.178,-1.25799 -1.81805,-2.61595 -1.40625,-3.9375 l -3.8125,0 -5.71875,0 -3.8125,0 c 0.4118,1.32155 -0.22845,2.67951 -1.40625,3.9375 C 14.86695,37.09419 13.5975,36.09639 13.5625,34.25 l -2.1875,0 0,-0.53125 z"
         style="fill:#ffffff;fill-opacity:1;stroke:none"
         inkscape:connector-curvature="0" />
      <path
         sodipodi:nodetypes="cccc"
         inkscape:connector-curvature="0"
         id="path1713"
         d="m 1675.3024,381.1186 c 1.6012,-2.08161 2.0521,-3.99255 5.1654,-9.53038 1.282,1.3691 1.6035,7.12252 -1.4154,9.53038 z"
         style="fill:#ffffff;stroke:none" />
      <path
         style="fill:#ffffff;stroke:none"
         d="m 1653.8104,381.1186 c -1.6012,-2.08161 -2.0521,-3.99255 -5.1654,-9.53038 -1.282,1.3691 -1.6035,7.12252 1.4154,9.53038 z"
         id="path1717"
         inkscape:connector-curvature="0"
         sodipodi:nodetypes="cccc" />
    </g>
  </g>
</svg>
