<?xml version="1.0" encoding="UTF-8" standalone="no"?>
<!-- Created with Inkscape (http://www.inkscape.org/) -->

<svg
   xmlns:dc="http://purl.org/dc/elements/1.1/"
   xmlns:cc="http://creativecommons.org/ns#"
   xmlns:rdf="http://www.w3.org/1999/02/22-rdf-syntax-ns#"
   xmlns:svg="http://www.w3.org/2000/svg"
   xmlns="http://www.w3.org/2000/svg"
   xmlns:sodipodi="http://sodipodi.sourceforge.net/DTD/sodipodi-0.dtd"
   xmlns:inkscape="http://www.inkscape.org/namespaces/inkscape"
   width="96"
   height="96"
   id="svg2"
   version="1.1"
   inkscape:version="0.48.4 r9939"
   sodipodi:docname="preferences-desktop.svg">
  <defs
     id="defs4" />
  <sodipodi:namedview
     id="base"
     pagecolor="#ffffff"
     bordercolor="#666666"
     borderopacity="1.0"
     inkscape:pageopacity="0.0"
     inkscape:pageshadow="2"
     inkscape:zoom="12.980015"
     inkscape:cx="74.109016"
     inkscape:cy="50.343435"
     inkscape:document-units="px"
     inkscape:current-layer="layer1"
     showgrid="true"
     inkscape:snap-page="true"
     inkscape:snap-global="true"
     inkscape:snap-center="true"
     inkscape:snap-object-midpoints="false"
     showguides="true"
     inkscape:guide-bbox="true"
     inkscape:snap-bbox="true"
     inkscape:object-paths="true"
     inkscape:object-nodes="false"
     inkscape:window-width="1305"
     inkscape:window-height="744"
     inkscape:window-x="61"
     inkscape:window-y="24"
     inkscape:window-maximized="1"
     inkscape:snap-midpoints="true"
     inkscape:snap-grids="true"
     inkscape:snap-to-guides="false"
     inkscape:snap-nodes="false">
    <inkscape:grid
       type="xygrid"
       id="grid3002"
       empspacing="5"
       visible="true"
       enabled="true"
       snapvisiblegridlinesonly="true" />
  </sodipodi:namedview>
  <metadata
     id="metadata7">
    <rdf:RDF>
      <cc:Work
         rdf:about="">
        <dc:format>image/svg+xml</dc:format>
        <dc:type
           rdf:resource="http://purl.org/dc/dcmitype/StillImage" />
        <dc:title />
      </cc:Work>
    </rdf:RDF>
  </metadata>
  <g
     inkscape:label="Layer 1"
     inkscape:groupmode="layer"
     id="layer1"
     transform="translate(0,-956.36218)">
    <rect
       style="fill:#ffffff;fill-opacity:0;fill-rule:nonzero;stroke:none"
       id="rect3775"
       width="96"
       height="96"
       x="0"
       y="956.36218"
       ry="0" />
    <path
       style="fill:#000000;fill-opacity:0.09589041;fill-rule:nonzero;stroke:none"
       d="m 3.353015,956.30662 c -1.884176,0 -3.4111555,1.43156 -3.4111555,3.19799 l 0,83.65949 c 0,1.7665 1.5269795,3.1981 3.4111555,3.1981 l 89.23583,0 c 1.884174,0 3.411155,-1.4316 3.411155,-3.1981 l 0,-83.65949 c 0,-1.76643 -1.526981,-3.19799 -3.411155,-3.19799 z"
       id="rect3772"
       inkscape:connector-curvature="0"
       sodipodi:nodetypes="sssssssss" />
    <path
       style="fill:#000000;fill-opacity:0.18721463;fill-rule:nonzero;stroke:none"
       d="m 1.0459761,1041.8066 0,7.4219 c 0,1.7392 1.461916,3.1337 3.2852054,3.1337 l 86.3836135,0 c 1.823288,0 3.285205,-1.3945 3.285205,-3.1337 l 0,-7.4219 -92.9540239,0 z"
       id="rect3785"
       inkscape:connector-curvature="0" />
    <path
       style="fill:#000000;fill-opacity:0.38356168;fill-rule:nonzero;stroke:none"
       d="m 1.0459761,1041.8066 0,5.3807 c 0,1.762 1.461916,3.1749 3.2852054,3.1749 l 86.3836135,0 c 1.823288,0 3.285205,-1.4129 3.285205,-3.1749 l 0,-5.3807 -92.9540239,0 z"
       id="rect3783"
       inkscape:connector-curvature="0" />
    <rect
       style="fill:#006b3f;fill-opacity:1;fill-rule:evenodd;stroke:none"
       id="rect7049"
       width="31"
       height="30.999998"
       x="32"
       y="-1046.3622"
       transform="scale(1,-1)" />
    <path
       inkscape:connector-curvature="0"
       style="fill:#ff0093;fill-opacity:1;fill-rule:evenodd;stroke:none"
       d="m 94,1015.3622 0,27.8438 c 0,0.8728 -0.336682,1.6804 -0.90625,2.25 -0.569568,0.5695 -1.377134,0.9062 -2.25,0.9062 l -27.84375,0 0,-31 31,0 z"
       id="rect7051" />
    <path
       id="path7060"
       d="m 1,1015.3622 0,27.8438 c 0,0.8728 0.336682,1.6804 0.90625,2.25 0.569568,0.5695 1.377134,0.9062 2.25,0.9062 l 27.84375,0 0,-31 -31,0 z"
       style="fill:#59008e;fill-opacity:1;fill-rule:evenodd;stroke:none"
       inkscape:connector-curvature="0" />
    <rect
       y="-1015.3622"
       x="63"
       height="30.999998"
       width="31"
       id="rect7830"
       style="fill:#ff7f1e;fill-opacity:1;fill-rule:evenodd;stroke:none"
       transform="scale(1,-1)" />
    <path
       inkscape:connector-curvature="0"
       style="fill:#ffd816;fill-opacity:1;fill-rule:evenodd;stroke:none"
       d="m 63,957.3622 27.84375,0 c 0.872866,0 1.680432,0.33668 2.25,0.90625 0.569568,0.56957 0.90625,1.37713 0.90625,2.25 l 0,23.84375 -31,0 0,-27 z"
       id="path7832" />
    <path
       inkscape:connector-curvature="0"
       style="fill:#1cce28;fill-opacity:1;fill-rule:evenodd;stroke:none"
       d="m 32,957.3622 31,0 0,27 -31,0 0,-27 z"
       id="rect7834" />
    <rect
       y="-1015.3622"
       x="32"
       height="30.999998"
       width="31"
       id="rect7836"
       style="fill:#009e0f;fill-opacity:1;fill-rule:evenodd;stroke:none"
       transform="scale(1,-1)" />
    <rect
       style="fill:#005aa0;fill-opacity:1;fill-rule:evenodd;stroke:none"
       id="rect7840"
       width="31"
       height="30.999998"
       x="1"
       y="-1015.3622"
       transform="scale(1,-1)" />
    <path
       inkscape:connector-curvature="0"
       style="fill:#00aacc;fill-opacity:1;fill-rule:evenodd;stroke:none"
       d="m 1.03125,984.3622 0,-23.84375 c 0,-0.87287 0.3679316,-1.68043 0.9375,-2.25 0.5695684,-0.56957 1.3458844,-0.90625 2.21875,-0.90625 l 27.8125,0 0,27 -30.96875,0 z"
       id="path7842" />
    <path
       style="fill:#000000;fill-opacity:0.38356168;fill-rule:nonzero;stroke:none"
       d="m 1,1042.3622 0.045976,2.7457 c 0.03024,1.8058 1.461916,3.2543 3.2852054,3.2543 l 86.3836136,0 c 1.823288,0 3.285205,-1.4481 3.285205,-3.2543 l -0.04598,-2.7457 z"
       id="rect3781"
       inkscape:connector-curvature="0"
       sodipodi:nodetypes="csssscc" />
    <rect
       style="fill:#ffffff;fill-opacity:0.15686275;fill-rule:nonzero;stroke:none"
       id="rect3770"
       width="92.954033"
       height="2.000005"
       x="1.045976"
       y="1040.3622" />
    <path
       style="fill:#ffffff;fill-opacity:1;stroke:none"
       d="m 15.731446,960.36218 -2.291478,0.429 0.282511,1.50672 c -0.770348,0.25 -1.490226,0.59597 -2.144992,1.02541 l -0.994021,-1.16144 -1.7683099,1.5172 0.9940205,1.16143 c -0.5292801,0.59081 -0.9810515,1.24879 -1.3393119,1.95666 l -1.4439455,-0.51271 -0.7742892,2.19731 1.4439454,0.5127 c -0.1614693,0.76059 -0.2220816,1.55153 -0.1778773,2.35425 l -1.5067259,0.28254 0.4289985,2.30193 1.5067252,-0.28251 c 0.2487894,0.76787 0.5883331,1.48155 1.0149476,2.13454 l -1.1614344,0.99404 1.517189,1.76828 1.1718979,-0.99401 c 0.589299,0.52944 1.239754,0.98078 1.946188,1.33934 l -0.512706,1.44391 2.207773,0.77426 0.512704,-1.44391 c 0.759703,0.1606 1.552026,0.2332 2.35426,0.18835 l 0.282509,1.50671 2.291479,-0.42902 -0.28251,-1.50671 c 0.769861,-0.24902 1.490566,-0.58724 2.144992,-1.01492 l 0.983558,1.15095 1.778772,-1.51718 -0.99402,-1.16145 c 0.529444,-0.58956 0.970435,-1.24994 1.328848,-1.95665 l 1.454409,0.5127 0.774291,-2.19729 -1.443946,-0.51271 c 0.16183,-0.76112 0.222345,-1.55038 0.177877,-2.35424 l 1.506725,-0.28255 -0.428999,-2.30193 -1.506725,0.28251 c -0.248664,-0.76587 -0.589301,-1.48307 -1.014947,-2.13453 l 1.161434,-0.99402 -1.517189,-1.76831 -1.171899,0.99402 c -0.588955,-0.52892 -1.240285,-0.98108 -1.946186,-1.33931 l 0.512704,-1.44394 -2.207771,-0.7743 -0.512705,1.44394 c -0.760235,-0.16086 -1.551421,-0.2228 -2.354258,-0.17787 l -0.282512,-1.51719 z m 0.544097,3.27504 c 3.504207,-0.11413 6.671924,2.3508 7.334824,5.90134 0.731477,3.91785 -1.86839,7.68106 -5.786246,8.41254 -3.917856,0.73152 -7.681073,-1.84744 -8.4125524,-5.7653 -0.7314748,-3.91785 1.8474614,-7.69154 5.7653194,-8.42302 0.367298,-0.0685 0.736149,-0.11376 1.098655,-0.12556 z"
       id="path3782"
       inkscape:connector-curvature="0" />
    <path
       inkscape:connector-curvature="0"
       style="fill:#ffffff;fill-opacity:1;fill-rule:nonzero;stroke:none"
       d="M 47.499937,960.36224 C 41.700982,960.36224 37,965.06322 37,970.86219 c 0,4.03969 2.278899,7.54247 5.623524,9.29844 0.0025,0 0.0075,0 0.01018,0 1.454626,0.76214 3.110268,1.20149 4.866317,1.20149 1.756047,0 3.411688,-0.43935 4.866315,-1.20149 0.0025,0 0.0075,0 0.01018,0 3.344549,-1.75597 5.623448,-5.25875 5.623448,-9.29844 0,-5.79897 -4.700983,-10.49995 -10.499938,-10.49995 z m 0,1.61537 c 4.906808,0 8.884564,3.97775 8.884564,8.88458 0,2.84842 -1.338067,5.38084 -3.422576,7.00667 0.59841,-3.12995 -0.272716,-4.15732 -1.766817,-5.02783 -0.277682,0.69522 -0.63396,1.28942 -1.029803,1.76677 -0.423104,0.51023 -0.885173,0.8976 -1.322587,1.17114 -0.437415,0.27359 -0.816974,0.46446 -1.342781,0.46446 -0.525807,0 -0.905366,-0.19087 -1.342781,-0.46446 -0.437414,-0.27354 -0.899483,-0.66091 -1.322587,-1.17114 -0.395844,-0.47735 -0.752121,-1.07155 -1.029802,-1.76677 -1.494102,0.87051 -2.365229,1.89788 -1.766816,5.02783 -2.084512,-1.62583 -3.422576,-4.15825 -3.422576,-7.00667 0,-4.90683 3.977754,-8.88458 8.884562,-8.88458 z m 0,4.1091 c -3.249385,0 -3.250942,1.42647 -3.250942,3.99806 0,3.4288 2.438595,5.14905 3.250942,5.14905 0.812346,0 3.250942,-1.72025 3.250942,-5.14905 0,-2.57159 -0.0017,-3.99806 -3.250942,-3.99806 z m -1.625471,6.49182 3.250942,0 c -1.083129,1.80518 -2.167812,1.80518 -3.250942,0 z"
       id="path3939" />
    <path
       inkscape:connector-curvature="0"
       id="path3006"
       d="m 78.749998,960.36218 c -1.623628,0 -2.976332,1.09738 -3.375,2.59375 l 6.770832,0 c -0.398666,-1.49637 -1.772204,-2.59375 -3.395832,-2.59375 z m -3.489582,3.4375 c -3.67e-4,0.021 0,0.031 0,0.0521 l 0,0.80207 6.999997,0 0,-0.80207 c 0,-0.021 3.68e-4,-0.0311 0,-0.0521 l -6.999997,0 z m 0,1.70834 0,0.83332 6.999997,0 0,-0.83332 -6.999997,0 z M 73,967.1955 l 0,2.20833 c 0,2.92529 2.21697,5.37166 5.062498,5.71876 l 0,4.6979 -1.604166,0 0,1.54169 4.739582,0 0,-1.54169 -1.593749,0 0,-4.7187 c 2.769462,-0.4166 4.916665,-2.81872 4.916665,-5.69796 l 0,-2.20833 -1.541667,0 0,2.20833 c 0,2.32594 -1.903291,4.21876 -4.229165,4.21876 -2.324325,0 -4.208331,-1.89936 -4.208331,-4.21876 l 0,-2.20833 -1.541667,0 z m 2.260416,0 0,2.21878 c 0,1.93749 1.552172,3.48958 3.489582,3.48958 1.937411,0 3.510415,-1.55209 3.510415,-3.48958 l 0,-2.21878 -6.999997,0 z"
       style="font-size:medium;font-style:normal;font-variant:normal;font-weight:normal;font-stretch:normal;text-indent:0;text-align:start;text-decoration:none;line-height:normal;letter-spacing:normal;word-spacing:normal;text-transform:none;direction:ltr;block-progression:tb;writing-mode:lr-tb;text-anchor:start;baseline-shift:baseline;color:#000000;fill:#ffffff;fill-opacity:1;stroke:none;stroke-width:3;marker:none;visibility:visible;display:inline;overflow:visible;enable-background:accumulate;font-family:Sans;-inkscape-font-specification:Sans" />
    <path
       style="font-size:medium;font-style:normal;font-variant:normal;font-weight:normal;font-stretch:normal;text-indent:0;text-align:start;text-decoration:none;line-height:normal;letter-spacing:normal;word-spacing:normal;text-transform:none;direction:ltr;block-progression:tb;writing-mode:lr-tb;text-anchor:start;baseline-shift:baseline;color:#000000;fill:#ffffff;fill-opacity:1;stroke:none;stroke-width:6;marker:none;visibility:visible;display:inline;overflow:visible;enable-background:accumulate;font-family:Sans;-inkscape-font-specification:Sans"
       d="m 50.085566,988.36659 a 0.78579309,1.0000372 0 0 0 -0.712054,0.80203 l -1.710566,10.86388 -0.662946,0 a 0.78579309,1.0000372 0 0 0 -0.662947,0.4687 l -1.882441,3.833 -1.505953,-3.76 -0.0082,0 -2.029764,-5.93724 a 0.78579309,1.0000372 0 0 0 -1.44866,0.0316 l -1.64509,5.36431 -1.816964,0 0,1.9999 2.34896,0 a 0.78579309,1.0000372 0 0 0 0.736606,-0.6355 l 1.145835,-3.74964 1.293155,3.78104 a 0.78579309,1.0000372 0 0 0 0.02455,0.061 l 2.127977,5.3329 a 0.78579309,1.0000372 0 0 0 1.366816,0.072 l 2.389881,-4.8643 0.875745,0 a 0.78579309,1.0000372 0 0 0 0.769345,-0.8021 l 0.933036,-5.94747 0.662946,5.89537 a 0.78579309,1.0000372 0 0 0 0.0082,0.052 l 1.309523,8.3329 a 0.78579309,1.0000372 0 0 0 1.497769,0.177 l 2.42262,-7.7078 2.087054,0 0,-1.9998 -2.619048,0 a 0.78579309,1.0000372 0 0 0 -0.728424,0.6252 l -1.636906,5.2185 -0.785713,-4.9894 -0.0082,-0.052 -1.301339,-11.61394 a 0.78579309,1.0000372 0 0 0 -0.834822,-0.85406 z"
       id="path3760"
       inkscape:connector-curvature="0" />
    <g
       id="g7984"
       transform="matrix(0.32307712,0,0,0.32307712,12.138465,676.82959)">
      <path
         id="path3004"
         d="m 13.5,967.36218 c -17.949254,0 -32.5,14.55075 -32.5,32.5 0,17.94922 14.550746,32.50002 32.5,32.50002 17.949254,0 32.5,-14.5508 32.5,-32.50002 0,-17.94925 -14.550746,-32.5 -32.5,-32.5 z m 0,5 c 15.187831,0 27.5,12.31217 27.5,27.5 0,15.18782 -12.312169,27.50002 -27.5,27.50002 -15.187831,0 -27.5,-12.3122 -27.5,-27.50002 0,-15.18783 12.312169,-27.5 27.5,-27.5 z"
         style="fill:#ffffff;fill-opacity:1;fill-rule:nonzero;stroke:none"
         inkscape:connector-curvature="0" />
      <path
         sodipodi:nodetypes="cccccccc"
         inkscape:connector-curvature="0"
         id="rect3777"
         d="m 21,982.36218 0,5 -25,0 0,5 25,0 0,5 12.5,-7.5 z"
         style="fill:#ffffff;fill-opacity:1;fill-rule:nonzero;stroke:none" />
      <path
         style="fill:#ffffff;fill-opacity:1;fill-rule:nonzero;stroke:none"
         d="m 6,1002.3622 0,5 25,0 0,5 -25,0 0,5 -12.5,-7.5 z"
         id="path3785"
         inkscape:connector-curvature="0"
         sodipodi:nodetypes="cccccccc" />
    </g>
    <g
       id="g7998"
       transform="matrix(0.91855297,0,0,0.91855297,4.9547288,75.377358)">
      <path
         style="fill:#f9f9f9;fill-opacity:1;stroke:none"
         id="path3792"
         d="m 12.372319,1026.5982 c -0.416711,0 -0.752878,0.3362 -0.752878,0.7529 l 0,2.4541 c 0,0.4168 0.336167,0.753 0.752878,0.753 0.416709,0 0.752876,-0.3362 0.752876,-0.753 l 0,-2.4541 c 0,-0.4167 -0.336167,-0.7529 -0.752876,-0.7529 z m -5.0843625,1.8284 c -0.1439622,0.015 -0.2811757,0.075 -0.4008794,0.176 -0.3192185,0.2679 -0.3656326,0.7368 -0.097777,1.056 l 1.5839731,1.8773 c 0.2678558,0.3192 0.7367631,0.3559 1.0559822,0.088 0.3192201,-0.2679 0.3558548,-0.7368 0.088004,-1.056 l -1.5742016,-1.8773 c -0.1674103,-0.1995 -0.4151564,-0.2892 -0.6551013,-0.264 z m 10.0220555,0 c -0.191541,0.017 -0.374507,0.1044 -0.508435,0.264 l -1.574196,1.8773 c -0.267856,0.3192 -0.23122,0.7881 0.088,1.056 0.319219,0.2679 0.788126,0.2312 1.055983,-0.088 l 1.583972,-1.8773 c 0.267856,-0.3192 0.221442,-0.7881 -0.09778,-1.056 -0.159609,-0.1339 -0.356005,-0.1928 -0.547546,-0.176 z m -4.937693,3.0506 c -2.02661,0 -3.6666069,1.6401 -3.6666069,3.6667 0,2.0265 1.6399969,3.6666 3.6666069,3.6666 2.026612,0 3.666604,-1.6401 3.666604,-3.6666 0,-2.0266 -1.639992,-3.6667 -3.666604,-3.6667 z m 0,0.7529 c 1.620445,0 2.913728,1.2933 2.913728,2.9138 0,1.6204 -1.293283,2.9137 -2.913728,2.9137 l 0,-5.8275 z m -7.6949831,0.8018 c -0.3502967,0.01 -0.6504475,0.2666 -0.7137662,0.6257 -0.072357,0.4104 0.1958336,0.7979 0.6062131,0.8702 l 2.4150706,0.4205 c 0.4103757,0.072 0.7978473,-0.1959 0.8702075,-0.6062 0.072357,-0.4104 -0.1958337,-0.7979 -0.6062131,-0.8703 l -2.4150675,-0.4204 c -0.051299,-0.01 -0.1064013,-0.021 -0.1564444,-0.019 z m 15.3899621,0 c -0.05004,0 -0.105144,0.011 -0.156442,0.019 l -2.415069,0.4207 c -0.41038,0.072 -0.678573,0.4598 -0.606212,0.8702 0.07236,0.4104 0.459828,0.6786 0.870207,0.6062 l 2.41507,-0.4204 c 0.410379,-0.072 0.678573,-0.4598 0.606212,-0.8702 -0.06331,-0.3591 -0.363466,-0.6166 -0.713766,-0.6258 z m -12.3002377,4.0186 c -0.03622,0 -0.071188,0.01 -0.1075531,0.01 -0.096967,0.012 -0.1933324,0.046 -0.2835501,0.098 l -2.1217406,1.2221 c -0.3608829,0.2084 -0.4919043,0.6659 -0.2835506,1.0267 0.2083538,0.3609 0.6657695,0.4919 1.0266475,0.2836 l 2.1315181,-1.232 c 0.3608829,-0.2084 0.4821281,-0.6658 0.2737743,-1.0267 -0.1367314,-0.2368 -0.3819902,-0.3752 -0.6355455,-0.3813 z m 9.1714027,0.01 c -0.240676,0.016 -0.466212,0.146 -0.596434,0.3715 -0.208354,0.3609 -0.08711,0.8183 0.273773,1.0267 l 2.121741,1.232 c 0.360881,0.2083 0.828072,0.077 1.036427,-0.2836 0.208354,-0.3608 0.07733,-0.8183 -0.283551,-1.0267 l -2.121741,-1.2221 c -0.13533,-0.078 -0.28581,-0.1079 -0.430215,-0.098 z m -6.433668,2.3369 c -0.292811,0.014 -0.5579838,0.2049 -0.6648774,0.4986 l -0.8408787,2.3075 c -0.1425236,0.3916 0.067969,0.8157 0.4595492,0.9582 0.3915803,0.1425 0.8156869,-0.058 0.9582099,-0.4497 l 0.840872,-2.3076 c 0.142523,-0.3916 -0.05819,-0.8157 -0.449769,-0.9582 -0.09789,-0.036 -0.205503,-0.054 -0.303106,-0.049 z m 3.735047,0 c -0.0976,-0.01 -0.205211,0.013 -0.303105,0.049 -0.391579,0.1425 -0.592294,0.5667 -0.44977,0.9582 l 0.840874,2.3076 c 0.142523,0.3916 0.566627,0.5923 0.958206,0.4497 0.391579,-0.1425 0.602071,-0.5666 0.459547,-0.9582 l -0.840874,-2.3075 c -0.106892,-0.2937 -0.372067,-0.484 -0.664878,-0.4986 z"
         inkscape:connector-curvature="0" />
      <path
         style="fill:#ffffff;fill-opacity:1;stroke:none"
         id="rect4582"
         d="m 1.908396,1044.7562 c -0.4247274,0 -0.7704418,0.3402 -0.7704418,0.7649 0,0.4248 0.3457144,0.7649 0.7704418,0.7649 l 21.326743,0 c 0.424732,0 0.764861,-0.3401 0.764861,-0.7649 0,-0.4247 -0.340129,-0.7649 -0.764861,-0.7649 l -21.326743,0 z m 10.523801,0.4188 10.802942,0 c 0.201477,0 0.346143,0.1446 0.346143,0.3461 0,0.2015 -0.144666,0.3462 -0.346143,0.3462 l -10.802942,0 0,-0.6923 z"
         inkscape:connector-curvature="0" />
    </g>
    <path
       style="fill:#ffffff;fill-opacity:1;fill-rule:nonzero;stroke:none"
       d="m 47.999999,1018.3622 c -0.664918,0 -1.201236,0.5356 -1.201236,1.1994 0,0.6641 0.536318,1.2087 1.201236,1.2087 0.66492,0 1.201238,-0.5446 1.201238,-1.2087 0,-0.6638 -0.536318,-1.1994 -1.201238,-1.1994 z m -3.825478,1.0519 c -0.231315,-0.016 -0.467842,0.032 -0.683782,0.1567 -0.575835,0.3319 -0.775993,1.0674 -0.443534,1.6425 0.33246,0.5749 1.068935,0.7748 1.644772,0.4427 0.575838,-0.3319 0.775994,-1.0672 0.443533,-1.6422 -0.207786,-0.3595 -0.575467,-0.5726 -0.960989,-0.5997 z m 7.650957,0 c -0.385523,0.028 -0.753204,0.2402 -0.960989,0.5997 -0.332458,0.5749 -0.132304,1.3103 0.443533,1.6422 0.575836,0.3321 1.312314,0.1322 1.644772,-0.4427 0.332457,-0.5751 0.132301,-1.3106 -0.443534,-1.6425 -0.21594,-0.1244 -0.452466,-0.1731 -0.683782,-0.1567 z m -3.825479,2.0944 c -0.527528,0 -0.951748,0.4144 -0.951748,0.9411 0,0.5266 0.42422,0.9502 0.951748,0.9502 0.527531,0 0.95175,-0.4236 0.95175,-0.9502 0,-0.5267 -0.424219,-0.9411 -0.95175,-0.9411 z m -2.402474,0.655 c -0.18182,-0.012 -0.364616,0.03 -0.535936,0.1293 -0.456853,0.2634 -0.614895,0.8356 -0.351132,1.2916 0.263764,0.4561 0.836787,0.6139 1.29364,0.3506 0.456857,-0.2634 0.614896,-0.8447 0.351132,-1.3008 -0.164853,-0.2853 -0.45467,-0.4498 -0.757704,-0.4707 z m 4.80495,0 c -0.303035,0.021 -0.592853,0.1855 -0.757704,0.4707 -0.263766,0.4561 -0.105725,1.0374 0.351131,1.3008 0.456853,0.2633 1.029877,0.1055 1.293641,-0.3506 0.263762,-0.456 0.105721,-1.0282 -0.351132,-1.2916 -0.171321,-0.099 -0.354116,-0.1417 -0.535936,-0.1293 z m -9.258768,0.1107 c -0.385524,0.028 -0.753203,0.2404 -0.960991,0.5998 -0.332459,0.575 -0.132302,1.3104 0.443534,1.6423 0.575838,0.3319 1.312313,0.1321 1.644772,-0.4428 0.33246,-0.5751 0.132304,-1.3105 -0.443534,-1.6425 -0.215938,-0.1244 -0.452468,-0.1731 -0.683781,-0.1568 z m 13.481579,0 c -0.155202,0.019 -0.308817,0.074 -0.452774,0.1568 -0.575833,0.332 -0.775994,1.0674 -0.443534,1.6425 0.332459,0.5749 1.068937,0.7747 1.64477,0.4428 0.575833,-0.3319 0.775993,-1.0673 0.443535,-1.6423 -0.249346,-0.4311 -0.726392,-0.6574 -1.191997,-0.5998 z m -10.968222,1.6977 c -0.303033,0.021 -0.583609,0.1854 -0.748462,0.4706 -0.263764,0.4561 -0.114964,1.0283 0.34189,1.2916 0.456853,0.2636 1.039117,0.1057 1.302881,-0.3505 0.263765,-0.4561 0.105722,-1.0283 -0.351131,-1.2916 -0.171321,-0.099 -0.363357,-0.1326 -0.545178,-0.1201 z m 8.501065,0 c -0.122226,0.015 -0.246159,0.054 -0.360371,0.1201 -0.456854,0.2633 -0.614897,0.8355 -0.351132,1.2916 0.263765,0.4562 0.846028,0.6141 1.302882,0.3505 0.45685,-0.2633 0.605654,-0.8355 0.34189,-1.2916 -0.197825,-0.3421 -0.566588,-0.5171 -0.933269,-0.4706 z m -4.15813,0.2491 c -0.361452,0 -0.63758,0.2759 -0.63758,0.6366 0,0.361 0.276116,0.6368 0.63758,0.6368 0.361467,0 0.63758,-0.2758 0.63758,-0.6368 0,-0.3607 -0.276101,-0.6365 -0.63758,-0.6366 z m -1.339841,0.3322 c -0.08247,0.011 -0.161982,0.039 -0.240247,0.083 -0.313028,0.1805 -0.420959,0.5641 -0.240248,0.8765 0.180734,0.3126 0.56479,0.4111 0.877828,0.2307 0.313038,-0.1804 0.411743,-0.5547 0.231008,-0.8674 -0.135534,-0.2342 -0.380942,-0.3557 -0.628341,-0.3228 z m 2.55956,0 c -0.203621,0.012 -0.395273,0.1277 -0.508217,0.3228 -0.180735,0.3127 -0.08203,0.6871 0.231008,0.8674 0.313038,0.1804 0.697092,0.083 0.877828,-0.2306 0.18071,-0.3125 0.07278,-0.6961 -0.240248,-0.8765 -0.117399,-0.067 -0.238199,-0.091 -0.360371,-0.083 z m -3.455868,0.9226 c -0.203614,0.012 -0.395241,0.1277 -0.508215,0.323 -0.180728,0.3125 -0.07275,0.6869 0.240246,0.8674 0.313044,0.1803 0.687856,0.083 0.868588,-0.2307 0.180733,-0.3127 0.08203,-0.6961 -0.231008,-0.8765 -0.117375,-0.067 -0.247443,-0.091 -0.369611,-0.083 z m 4.342935,0 c -0.08246,0.011 -0.161997,0.039 -0.240247,0.084 -0.313044,0.1803 -0.411741,0.5638 -0.231007,0.8765 0.180732,0.3125 0.555543,0.411 0.868587,0.2306 0.313001,-0.1804 0.420973,-0.5548 0.240247,-0.8674 -0.135571,-0.2343 -0.390202,-0.3557 -0.63758,-0.3229 z m -9.933308,0.7013 c -0.664919,0 -1.201238,0.5356 -1.201238,1.1994 0,0.664 0.536319,1.1994 1.201238,1.1994 0.66492,0 1.210477,-0.5354 1.210477,-1.1994 0,-0.6638 -0.545557,-1.1994 -1.210477,-1.1994 z m 15.653046,0 c -0.664914,0 -1.210477,0.5356 -1.210477,1.1994 0,0.664 0.545563,1.1994 1.210477,1.1994 0.664914,0 1.201238,-0.5354 1.201238,-1.1994 0,-0.6638 -0.536324,-1.1994 -1.201238,-1.1994 z m -12.760838,0.2491 c -0.527529,0 -0.942508,0.4237 -0.942508,0.9503 0,0.5267 0.414979,0.9503 0.942508,0.9503 0.527529,0 0.95175,-0.4236 0.95175,-0.9503 0,-0.5266 -0.424221,-0.9503 -0.95175,-0.9503 z m 9.868628,0 c -0.527529,0 -0.95175,0.4237 -0.95175,0.9503 0,0.5267 0.424221,0.9503 0.95175,0.9503 0.527524,0 0.94251,-0.4236 0.94251,-0.9503 0,-0.5266 -0.414986,-0.9503 -0.94251,-0.9503 z m -4.934314,0.056 c -0.08864,0 -0.159439,0.03 -0.212526,0.084 -0.07459,-0.023 -0.160593,-0.01 -0.240248,0.037 -0.0797,0.046 -0.120837,0.1086 -0.138604,0.1845 -0.07591,0.017 -0.138792,0.059 -0.184805,0.1384 -0.04598,0.08 -0.0595,0.1654 -0.03696,0.2399 -0.05308,0.053 -0.08316,0.1237 -0.08316,0.2122 0,0.088 0.03007,0.1592 0.08316,0.2122 -0.02253,0.074 -0.009,0.1604 0.03696,0.2399 0.04601,0.08 0.108888,0.1206 0.184805,0.1385 0.01776,0.076 0.05891,0.1385 0.138604,0.1844 0.07966,0.046 0.165648,0.06 0.240248,0.037 0.05308,0.053 0.12389,0.084 0.212526,0.084 0.08864,0 0.15944,-0.029 0.212527,-0.084 0.0746,0.022 0.160595,0.01 0.240248,-0.037 0.0797,-0.046 0.120838,-0.1087 0.138604,-0.1844 0.07591,-0.018 0.138793,-0.059 0.184806,-0.1385 0.04598,-0.08 0.0595,-0.1654 0.03696,-0.2399 0.05308,-0.053 0.08316,-0.1236 0.08316,-0.2122 0,-0.088 -0.03007,-0.1592 -0.08316,-0.2122 0.02253,-0.074 0.009,-0.1604 -0.03696,-0.2399 -0.04601,-0.08 -0.108889,-0.1206 -0.184806,-0.1384 -0.01776,-0.076 -0.05891,-0.1386 -0.138604,-0.1845 -0.07965,-0.046 -0.165649,-0.06 -0.240248,-0.037 -0.05308,-0.053 -0.123889,-0.084 -0.212527,-0.084 z m -2.522598,0.2583 c -0.361423,0 -0.637555,0.2757 -0.637579,0.6367 0,0.3608 0.276156,0.6366 0.637579,0.6366 0.361472,0 0.637579,-0.2758 0.637579,-0.6366 0,-0.361 -0.276107,-0.6367 -0.637579,-0.6367 z m 5.045197,0 c -0.361471,0 -0.63758,0.2757 -0.63758,0.6367 0,0.3608 0.276109,0.6366 0.63758,0.6366 0.361423,0 0.63758,-0.2758 0.63758,-0.6366 -2.5e-5,-0.361 -0.276157,-0.6367 -0.63758,-0.6367 z m -2.605761,0.3225 c 0.02706,0.01 0.05254,0.019 0.08316,0.019 0.03063,0 0.0561,-0.011 0.08316,-0.019 0.01982,0.02 0.03838,0.04 0.06469,0.056 0.02611,0.014 0.05662,0.021 0.08316,0.028 0.0074,0.027 0.01265,0.057 0.02773,0.083 0.01519,0.027 0.03603,0.045 0.05544,0.064 -0.007,0.027 -0.01848,0.052 -0.01848,0.083 0,0.029 0.01145,0.056 0.01848,0.083 -0.0194,0.02 -0.04026,0.039 -0.05544,0.066 -0.01508,0.027 -0.02027,0.056 -0.02773,0.083 -0.02654,0.01 -0.05705,0.012 -0.08316,0.028 -0.02629,0.015 -0.04486,0.036 -0.06469,0.056 -0.02706,-0.01 -0.05254,-0.019 -0.08316,-0.019 -0.03063,0 -0.05609,0.011 -0.08316,0.019 -0.01982,-0.019 -0.03838,-0.04 -0.06469,-0.056 -0.02611,-0.014 -0.05662,-0.021 -0.08316,-0.028 -0.0074,-0.027 -0.01265,-0.057 -0.02773,-0.083 -0.01519,-0.027 -0.03602,-0.045 -0.05544,-0.066 0.007,-0.027 0.01849,-0.052 0.01849,-0.083 0,-0.03 -0.01146,-0.056 -0.01849,-0.083 0.01941,-0.021 0.04026,-0.039 0.05544,-0.064 0.01508,-0.027 0.02027,-0.056 0.02773,-0.083 0.02654,-0.01 0.05705,-0.012 0.08316,-0.028 0.02629,-0.015 0.04486,-0.036 0.06469,-0.056 z m -2.060584,0.9318 c -0.12217,-0.01 -0.242981,0.025 -0.360372,0.092 -0.313002,0.1803 -0.420964,0.5547 -0.240246,0.8672 0.180724,0.3126 0.564826,0.4204 0.877826,0.2398 0.313045,-0.1803 0.41174,-0.5638 0.231008,-0.8764 -0.112958,-0.1953 -0.304599,-0.3097 -0.508216,-0.323 z m 4.287493,0 c -0.203616,0.012 -0.395258,0.1276 -0.508215,0.323 -0.180733,0.3126 -0.08203,0.696 0.231007,0.8764 0.313001,0.1806 0.697101,0.073 0.877827,-0.2399 0.180718,-0.3124 0.07275,-0.6868 -0.240247,-0.8672 -0.117391,-0.067 -0.238202,-0.1002 -0.360372,-0.092 z m -6.348077,0.895 c -0.181821,-0.012 -0.373857,0.03 -0.545177,0.1293 -0.456853,0.2634 -0.605656,0.8356 -0.34189,1.2916 0.263764,0.4561 0.836785,0.6139 1.29364,0.3505 0.456853,-0.2633 0.614895,-0.8354 0.351131,-1.2915 -0.164854,-0.2853 -0.45467,-0.459 -0.757704,-0.4799 z m 8.408662,0 c -0.303035,0.021 -0.592851,0.1946 -0.757705,0.4799 -0.263764,0.4561 -0.105722,1.0282 0.351132,1.2915 0.45685,0.2634 1.029876,0.1056 1.29364,-0.3505 0.263766,-0.456 0.11496,-1.0282 -0.34189,-1.2916 -0.171321,-0.099 -0.363357,-0.1417 -0.545177,-0.1293 z m -5.516453,0.029 c -0.203615,0.012 -0.395255,0.1275 -0.508215,0.3229 -0.180711,0.3126 -0.07279,0.696 0.240248,0.8766 0.313025,0.1804 0.687875,0.073 0.868588,-0.24 0.180735,-0.3125 0.08202,-0.6867 -0.231008,-0.8673 -0.11739,-0.067 -0.247442,-0.1001 -0.369613,-0.092 z m 2.624243,0 c -0.122171,-0.01 -0.252222,0.025 -0.369612,0.092 -0.313038,0.1805 -0.411743,0.5549 -0.231008,0.8673 0.180712,0.3126 0.555562,0.4204 0.868588,0.24 0.313037,-0.1806 0.420958,-0.5639 0.240248,-0.8766 -0.112961,-0.1954 -0.3046,-0.3097 -0.508216,-0.3229 z m -1.312122,0.3415 c -0.361464,0 -0.63758,0.2757 -0.63758,0.6366 0,0.3609 0.276128,0.6367 0.63758,0.6367 0.361479,0 0.63758,-0.2758 0.63758,-0.6367 0,-0.3609 -0.276113,-0.6366 -0.63758,-0.6366 z m -6.689968,0.8212 c -0.231314,-0.016 -0.467842,0.032 -0.683781,0.1569 -0.575836,0.332 -0.775994,1.0674 -0.443534,1.6422 0.332459,0.575 1.068935,0.7749 1.644772,0.4429 0.575838,-0.332 0.775992,-1.0674 0.443534,-1.6423 -0.207787,-0.3594 -0.575467,-0.5726 -0.960991,-0.5997 z m 13.379937,0 c -0.385525,0.028 -0.753203,0.2403 -0.96099,0.5997 -0.332459,0.5749 -0.132299,1.3103 0.443534,1.6423 0.575832,0.332 1.312311,0.1322 1.644771,-0.4429 0.33246,-0.5748 0.132298,-1.3102 -0.443535,-1.6422 -0.215936,-0.1246 -0.452465,-0.1732 -0.68378,-0.1569 z m -9.221807,0.6181 c -0.303035,0.021 -0.592852,0.1855 -0.757704,0.4706 -0.263763,0.4561 -0.105723,1.0284 0.351132,1.2917 0.456852,0.2633 1.029876,0.1147 1.29364,-0.3414 0.263764,-0.4562 0.105722,-1.0375 -0.351132,-1.3009 -0.171321,-0.099 -0.354115,-0.1324 -0.535936,-0.12 z m 4.87887,0 c -0.122225,0.015 -0.236916,0.054 -0.351129,0.12 -0.456853,0.2634 -0.614897,0.8447 -0.351132,1.3009 0.263762,0.4561 0.836788,0.6047 1.293641,0.3414 0.456855,-0.2633 0.614894,-0.8356 0.351132,-1.2917 -0.197824,-0.3421 -0.575829,-0.5171 -0.942512,-0.4706 z m -2.347032,0.655 c -0.527528,0 -0.951749,0.4236 -0.951749,0.9504 0,0.5267 0.424221,0.9411 0.951749,0.9411 0.527531,0 0.95175,-0.4144 0.95175,-0.9411 0,-0.5268 -0.424219,-0.9504 -0.95175,-0.9504 z m -3.991804,1.587 c -0.385523,0.028 -0.753202,0.2403 -0.96099,0.5998 -0.332459,0.5749 -0.132302,1.3102 0.443534,1.6422 0.575836,0.3321 1.312312,0.1321 1.644771,-0.4428 0.33246,-0.575 0.132303,-1.3104 -0.443533,-1.6424 -0.215939,-0.1245 -0.452468,-0.1732 -0.683782,-0.1568 z m 7.983609,0 c -0.231316,-0.016 -0.467842,0.032 -0.683782,0.1568 -0.575835,0.332 -0.775991,1.0674 -0.443533,1.6424 0.332457,0.5749 1.068935,0.7749 1.644771,0.4428 0.575837,-0.332 0.775991,-1.0673 0.443534,-1.6422 -0.207786,-0.3595 -0.575466,-0.5726 -0.96099,-0.5998 z m -3.991805,1.0426 c -0.664918,0 -1.201236,0.5447 -1.201236,1.2086 0,0.6639 0.536318,1.1996 1.201236,1.1996 0.66492,0 1.201238,-0.5357 1.201238,-1.1996 0,-0.6639 -0.536318,-1.2086 -1.201238,-1.2086 z"
       id="path3014"
       inkscape:connector-curvature="0" />
    <path
       style="fill:#ffffff;fill-opacity:1;stroke:none"
       d="M 79.03125 62 C 76.232482 62 73.898139 64.0273 73.3125 66.75 C 73.271769 66.75 73.22848 66.75 73.1875 66.75 C 70.71888 66.75 68.71875 68.84305 68.71875 71.40625 C 68.71875 71.80835 68.75117 72.1905 68.84375 72.5625 C 67.737245 73.2309 67 74.4502 67 75.875 C 67 78.0063 68.666189 79.75 70.71875 79.75 L 85.09375 79.75 C 87.812005 79.75 90 77.47865 90 74.65625 C 90 71.83395 87.812006 69.53125 85.09375 69.53125 C 84.964062 69.53125 84.814656 69.5525 84.6875 69.5625 C 84.799378 69.0928 84.875 68.59955 84.875 68.09375 C 84.875 64.83485 82.412148 62.1631 79.3125 62 C 79.212513 61.99 79.1325 62 79.03125 62 z M 78.75 64.625 C 78.82843 64.625 78.891295 64.615 78.96875 64.625 C 81.369911 64.7513 83.28125 66.81915 83.28125 69.34375 C 83.28125 69.73555 83.242918 70.10495 83.15625 70.46875 C 83.25475 70.45875 83.337037 70.4375 83.4375 70.4375 C 85.543214 70.4375 87.25 72.21995 87.25 74.40625 C 87.25 76.59265 85.543213 78.375 83.4375 78.375 L 72.3125 78.375 C 70.722472 78.375 69.4375 77.026 69.4375 75.375 C 69.4375 74.2713 70.017839 73.29905 70.875 72.78125 C 70.80328 72.49305 70.75 72.21775 70.75 71.90625 C 70.75 69.92065 72.306419 68.28125 74.21875 68.28125 C 74.2505 68.28125 74.28095 68.3125 74.3125 68.3125 C 74.766169 66.2033 76.581918 64.625 78.75 64.625 z "
       transform="translate(0,956.36218)"
       id="path3880" />
    <path
       style="fill:#ffffff;fill-opacity:1;fill-rule:nonzero;stroke:none"
       d="m 78.988068,988.36218 c -6.080625,0 -11.011933,4.92456 -11.011933,10.99945 0,6.07477 4.931308,10.99947 11.011933,10.99947 6.080624,0 11.011932,-4.9247 11.011932,-10.99947 0,-6.07489 -4.931308,-10.99945 -11.011932,-10.99945 z m 0,1.68735 c 5.145144,0 9.31202,4.17181 9.31202,9.3121 0,5.14017 -4.166876,9.31187 -9.31202,9.31187 -5.145145,0 -9.324519,-4.1717 -9.324519,-9.31187 0,-5.14029 4.179374,-9.3121 9.324519,-9.3121 z m -2.699861,3.8124 0,10.99937 8.987037,-5.49967 -8.987037,-5.4997 z"
       id="path3770"
       inkscape:connector-curvature="0" />
  </g>
</svg>
