<?xml version="1.0" encoding="UTF-8" standalone="no"?>
<!-- Created with Inkscape (http://www.inkscape.org/) -->

<svg
   xmlns:dc="http://purl.org/dc/elements/1.1/"
   xmlns:cc="http://creativecommons.org/ns#"
   xmlns:rdf="http://www.w3.org/1999/02/22-rdf-syntax-ns#"
   xmlns:svg="http://www.w3.org/2000/svg"
   xmlns="http://www.w3.org/2000/svg"
   xmlns:sodipodi="http://sodipodi.sourceforge.net/DTD/sodipodi-0.dtd"
   xmlns:inkscape="http://www.inkscape.org/namespaces/inkscape"
   width="96"
   height="96"
   id="svg2"
   version="1.1"
   inkscape:version="0.48.4 r9939"
   sodipodi:docname="cxmenu-cxoffice-0-cxuninstall.svg">
  <defs
     id="defs4" />
  <sodipodi:namedview
     id="base"
     pagecolor="#ffffff"
     bordercolor="#666666"
     borderopacity="1.0"
     inkscape:pageopacity="0.0"
     inkscape:pageshadow="2"
     inkscape:zoom="5.7738685"
     inkscape:cx="41.999989"
     inkscape:cy="58.023962"
     inkscape:document-units="px"
     inkscape:current-layer="layer1"
     showgrid="true"
     inkscape:snap-page="true"
     inkscape:snap-global="true"
     inkscape:snap-center="true"
     inkscape:snap-object-midpoints="false"
     showguides="true"
     inkscape:guide-bbox="true"
     inkscape:snap-bbox="true"
     inkscape:object-paths="true"
     inkscape:object-nodes="true"
     inkscape:window-width="1305"
     inkscape:window-height="744"
     inkscape:window-x="61"
     inkscape:window-y="24"
     inkscape:window-maximized="1"
     inkscape:snap-midpoints="true"
     inkscape:snap-grids="true"
     inkscape:snap-to-guides="false">
    <inkscape:grid
       type="xygrid"
       id="grid3002"
       empspacing="5"
       visible="true"
       enabled="true"
       snapvisiblegridlinesonly="true" />
  </sodipodi:namedview>
  <metadata
     id="metadata7">
    <rdf:RDF>
      <cc:Work
         rdf:about="">
        <dc:format>image/svg+xml</dc:format>
        <dc:type
           rdf:resource="http://purl.org/dc/dcmitype/StillImage" />
        <dc:title />
      </cc:Work>
    </rdf:RDF>
  </metadata>
  <g
     inkscape:label="Layer 1"
     inkscape:groupmode="layer"
     id="layer1"
     transform="translate(0,-956.36218)">
    <rect
       style="fill:#ffffff;fill-opacity:0;fill-rule:nonzero;stroke:none"
       id="rect3775"
       width="96"
       height="96"
       x="0"
       y="956.36218"
       ry="0" />
    <path
       style="fill:#000000;fill-opacity:0.09589041;fill-rule:nonzero;stroke:none"
       d="m 3.353015,956.30662 c -1.884176,0 -3.4111555,1.43156 -3.4111555,3.19799 l 0,83.65949 c 0,1.7665 1.5269795,3.1981 3.4111555,3.1981 l 89.23583,0 c 1.884174,0 3.411155,-1.4316 3.411155,-3.1981 l 0,-83.65949 c 0,-1.76643 -1.526981,-3.19799 -3.411155,-3.19799 z"
       id="rect3772"
       inkscape:connector-curvature="0"
       sodipodi:nodetypes="sssssssss" />
    <path
       style="fill:#000000;fill-opacity:0.18721463;fill-rule:nonzero;stroke:none"
       d="m 1.0459761,1041.8066 0,7.4219 c 0,1.7392 1.461916,3.1337 3.2852054,3.1337 l 86.3836135,0 c 1.823288,0 3.285205,-1.3945 3.285205,-3.1337 l 0,-7.4219 -92.9540239,0 z"
       id="rect3785"
       inkscape:connector-curvature="0" />
    <path
       style="fill:#000000;fill-opacity:0.38356168;fill-rule:nonzero;stroke:none"
       d="m 1.0459761,1041.8066 0,5.3807 c 0,1.762 1.461916,3.1749 3.2852054,3.1749 l 86.3836135,0 c 1.823288,0 3.285205,-1.4129 3.285205,-3.1749 l 0,-5.3807 -92.9540239,0 z"
       id="rect3783"
       inkscape:connector-curvature="0" />
    <rect
       style="fill:#4b4b4b;fill-opacity:1;fill-rule:nonzero;stroke:none"
       id="rect2985"
       width="92.954025"
       height="89"
       x="1.045977"
       y="957.36218"
       ry="3.1511393" />
    <path
       style="fill:#000000;fill-opacity:0.38356168;fill-rule:nonzero;stroke:none"
       d="m 1,1042.3622 0.045976,2.7457 c 0.03024,1.8058 1.461916,3.2543 3.2852054,3.2543 l 86.3836136,0 c 1.823288,0 3.285205,-1.4481 3.285205,-3.2543 l -0.04598,-2.7457 z"
       id="rect3781"
       inkscape:connector-curvature="0"
       sodipodi:nodetypes="csssscc" />
    <rect
       style="fill:#ffffff;fill-opacity:0.30000001;fill-rule:nonzero;stroke:none"
       id="rect3770"
       width="92.954033"
       height="2.000005"
       x="1.045976"
       y="1040.3622" />
    <path
       style="fill:#f96302;fill-opacity:1;fill-rule:evenodd;stroke:none"
       d="M 47.5 19 C 40.603062 19 33.705616 25.062776 24.90625 37.1875 C 22.434706 35.062853 19.811755 32.693279 17 30.03125 C 19.190595 33.48781 21.239775 36.649565 23.21875 39.5625 C 20.654106 43.216021 17.933047 47.340655 15 51.96875 C 18.783396 48.386824 22.214924 45.296473 25.40625 42.6875 C 43.95117 69.01858 54.000684 69.743026 72.09375 44.8125 C 74.565294 46.937144 77.188245 49.306724 80 51.96875 C 77.809405 48.51218 75.760225 45.350443 73.78125 42.4375 C 76.345894 38.783989 79.066953 34.659332 82 30.03125 C 78.216604 33.61318 74.785076 36.703524 71.59375 39.3125 C 62.067951 25.787218 54.784396 19 47.5 19 z M 47.5 32.1875 C 53.961272 32.1875 60.412025 35.396458 68.4375 41.78125 C 53.550758 52.976409 43.93464 52.448309 28.5625 40.21875 C 35.677183 34.868357 41.585236 32.1875 47.5 32.1875 z "
       transform="translate(0,956.36218)"
       id="rect3768" />
    <path
       style="fill:#000000;fill-opacity:0.76255709;fill-rule:evenodd;stroke:none"
       d="M 47.5 19 C 40.603062 19 33.705616 25.062776 24.90625 37.1875 C 22.434706 35.062853 19.811755 32.693279 17 30.03125 C 18.082406 31.739189 19.134306 33.367967 20.15625 34.9375 C 20.168421 34.956193 20.175336 34.981326 20.1875 35 C 21.813976 36.486852 23.400607 37.893182 24.90625 39.1875 C 33.705616 27.06278 40.603062 21 47.5 21 C 54.784396 21 62.067951 27.78722 71.59375 41.3125 C 73.844528 39.472439 76.221085 37.385025 78.75 35.0625 C 79.814401 33.435656 80.876515 31.804007 82 30.03125 C 78.216604 33.61318 74.785076 36.703524 71.59375 39.3125 C 62.067951 25.787218 54.784396 19 47.5 19 z M 22.5625 40.5625 C 20.190352 43.979967 17.684761 47.732428 15 51.96875 C 16.115043 50.913084 17.193225 49.908031 18.25 48.9375 C 19.964398 46.317205 21.636477 43.816562 23.21875 41.5625 C 23.002689 41.244472 22.780327 40.88652 22.5625 40.5625 z M 29.90625 41.25 C 29.459187 41.571436 29.019186 41.875313 28.5625 42.21875 C 43.93464 54.44832 53.550758 54.97645 68.4375 43.78125 C 67.978268 43.415902 67.542967 43.094544 67.09375 42.75 C 53.406409 52.586183 44.031286 52.080358 29.90625 41.25 z M 74.4375 43.4375 C 74.218125 43.753547 73.99835 44.128225 73.78125 44.4375 C 74.770738 45.89395 75.779009 47.413375 76.8125 49 C 76.828157 49.014313 76.828081 49.048168 76.84375 49.0625 C 77.872298 50.003271 78.917631 50.944018 80 51.96875 C 78.04857 48.889562 76.214826 46.081297 74.4375 43.4375 z "
       transform="translate(0,956.36218)"
       id="path3774" />
    <path
       style="fill:#ffffff;fill-opacity:0.53881276;fill-rule:evenodd;stroke:none"
       d="m 17,987.25938 c 2.086609,3.29248 4.045964,6.29649 5.9375,9.09375 0.09481,-0.13573 0.186866,-0.30304 0.28125,-0.4375 -1.550322,-2.28197 -3.173021,-4.7655 -4.84375,-7.375 -0.463565,-0.43247 -0.900878,-0.83237 -1.375,-1.28125 z m 65,0 c -0.489402,0.46335 -0.959632,0.89684 -1.4375,1.34375 -2.37892,3.70494 -4.650206,7.15169 -6.78125,10.1875 0.09394,0.13828 0.186985,0.29811 0.28125,0.4375 2.481422,-3.55249 5.112395,-7.51099 7.9375,-11.96875 z m -34.5,1.28125 c -5.914764,0 -11.822817,2.68086 -18.9375,8.03125 0.199906,0.15904 0.395767,0.28242 0.59375,0.4375 6.845351,-5.04928 12.598003,-7.59375 18.34375,-7.59375 6.300316,0 12.593738,3.08482 20.34375,9.15625 0.202463,-0.1493 0.389328,-0.28377 0.59375,-0.4375 -8.025475,-6.38479 -14.476228,-9.59375 -20.9375,-9.59375 z m -22.09375,10.5 c -2.778511,2.27147 -5.752385,4.92957 -8.96875,7.93757 -0.484035,0.7538 -0.941615,1.4363 -1.4375,2.2187 3.783396,-3.5819 7.214924,-6.6723 10.40625,-9.28129 18.54492,26.33119 28.594434,27.05559 46.6875,2.12509 2.471544,2.1246 5.094495,4.4942 7.90625,7.1562 -0.474491,-0.7487 -0.913055,-1.4347 -1.375,-2.1562 -2.285581,-2.1323 -4.476461,-4.1087 -6.53125,-5.875 -18.093066,24.9305 -28.14258,24.206 -46.6875,-2.12507 z"
       id="path3779"
       inkscape:connector-curvature="0" />
  </g>
</svg>
