<?xml version="1.0" encoding="UTF-8" standalone="no"?>
<!-- Created with Inkscape (http://www.inkscape.org/) -->

<svg
   xmlns:dc="http://purl.org/dc/elements/1.1/"
   xmlns:cc="http://creativecommons.org/ns#"
   xmlns:rdf="http://www.w3.org/1999/02/22-rdf-syntax-ns#"
   xmlns:svg="http://www.w3.org/2000/svg"
   xmlns="http://www.w3.org/2000/svg"
   xmlns:sodipodi="http://sodipodi.sourceforge.net/DTD/sodipodi-0.dtd"
   xmlns:inkscape="http://www.inkscape.org/namespaces/inkscape"
   width="96"
   height="96"
   id="svg2"
   version="1.1"
   inkscape:version="0.48.4 r9939"
   sodipodi:docname="cxmenu-cxoffice-0-crossover.svg">
  <defs
     id="defs4" />
  <sodipodi:namedview
     id="base"
     pagecolor="#ffffff"
     bordercolor="#666666"
     borderopacity="1.0"
     inkscape:pageopacity="0.0"
     inkscape:pageshadow="2"
     inkscape:zoom="5.7738685"
     inkscape:cx="28.119678"
     inkscape:cy="58.023962"
     inkscape:document-units="px"
     inkscape:current-layer="layer1"
     showgrid="true"
     inkscape:snap-page="true"
     inkscape:snap-global="true"
     inkscape:snap-center="true"
     inkscape:snap-object-midpoints="false"
     showguides="true"
     inkscape:guide-bbox="true"
     inkscape:snap-bbox="true"
     inkscape:object-paths="true"
     inkscape:object-nodes="true"
     inkscape:window-width="1305"
     inkscape:window-height="744"
     inkscape:window-x="61"
     inkscape:window-y="24"
     inkscape:window-maximized="1"
     inkscape:snap-midpoints="true"
     inkscape:snap-grids="true"
     inkscape:snap-to-guides="false">
    <inkscape:grid
       type="xygrid"
       id="grid3002"
       empspacing="5"
       visible="true"
       enabled="true"
       snapvisiblegridlinesonly="true" />
  </sodipodi:namedview>
  <metadata
     id="metadata7">
    <rdf:RDF>
      <cc:Work
         rdf:about="">
        <dc:format>image/svg+xml</dc:format>
        <dc:type
           rdf:resource="http://purl.org/dc/dcmitype/StillImage" />
        <dc:title />
      </cc:Work>
    </rdf:RDF>
  </metadata>
  <g
     inkscape:label="Layer 1"
     inkscape:groupmode="layer"
     id="layer1"
     transform="translate(0,-956.36218)">
    <rect
       style="fill:#ffffff;fill-opacity:0;fill-rule:nonzero;stroke:none"
       id="rect3775"
       width="96"
       height="96"
       x="0"
       y="956.36218"
       ry="0" />
    <path
       style="fill:#000000;fill-opacity:0.09589041;fill-rule:nonzero;stroke:none"
       d="m 3.353015,956.30662 c -1.884176,0 -3.4111555,1.43156 -3.4111555,3.19799 l 0,83.65949 c 0,1.7665 1.5269795,3.1981 3.4111555,3.1981 l 89.23583,0 c 1.884174,0 3.411155,-1.4316 3.411155,-3.1981 l 0,-83.65949 c 0,-1.76643 -1.526981,-3.19799 -3.411155,-3.19799 z"
       id="rect3772"
       inkscape:connector-curvature="0"
       sodipodi:nodetypes="sssssssss" />
    <path
       style="fill:#000000;fill-opacity:0.18721463;fill-rule:nonzero;stroke:none"
       d="m 1.0459761,1041.8066 0,7.4219 c 0,1.7392 1.461916,3.1337 3.2852054,3.1337 l 86.3836135,0 c 1.823288,0 3.285205,-1.3945 3.285205,-3.1337 l 0,-7.4219 -92.9540239,0 z"
       id="rect3785"
       inkscape:connector-curvature="0" />
    <path
       style="fill:#000000;fill-opacity:0.38356168;fill-rule:nonzero;stroke:none"
       d="m 1.0459761,1041.8066 0,5.3807 c 0,1.762 1.461916,3.1749 3.2852054,3.1749 l 86.3836135,0 c 1.823288,0 3.285205,-1.4129 3.285205,-3.1749 l 0,-5.3807 -92.9540239,0 z"
       id="rect3783"
       inkscape:connector-curvature="0" />
    <rect
       style="fill:#2c2c2c;fill-opacity:1;fill-rule:nonzero;stroke:none"
       id="rect2985"
       width="92.954025"
       height="89"
       x="1.045977"
       y="957.36218"
       ry="3.1511393" />
    <path
       style="fill:#000000;fill-opacity:0.38356168;fill-rule:nonzero;stroke:none"
       d="m 1,1042.3622 0.045976,2.7457 c 0.03024,1.8058 1.461916,3.2543 3.2852054,3.2543 l 86.3836136,0 c 1.823288,0 3.285205,-1.4481 3.285205,-3.2543 l -0.04598,-2.7457 z"
       id="rect3781"
       inkscape:connector-curvature="0"
       sodipodi:nodetypes="csssscc" />
    <rect
       style="fill:#ffffff;fill-opacity:0.30000001;fill-rule:nonzero;stroke:none"
       id="rect3770"
       width="92.954033"
       height="2.000005"
       x="1.045976"
       y="1040.3622" />
    <path
       style="font-size:medium;font-style:normal;font-variant:normal;font-weight:normal;font-stretch:normal;text-indent:0;text-align:start;text-decoration:none;line-height:normal;letter-spacing:normal;word-spacing:normal;text-transform:none;direction:ltr;block-progression:tb;writing-mode:lr-tb;text-anchor:start;baseline-shift:baseline;color:#000000;fill:#000000;fill-opacity:0.48858451;stroke:none;stroke-width:6;marker:none;visibility:visible;display:inline;overflow:visible;enable-background:accumulate;font-family:Sans;-inkscape-font-specification:Sans"
       d="m 64.75,977.33093 c -3.29111,2.43458 -8.830593,5.18838 -13.6875,8.78125 -0.223391,0.16525 -0.434407,0.36062 -0.65625,0.53125 -0.006,-0.005 -0.02523,0.005 -0.03125,0 -0.605635,-0.52682 -1.203732,-1.03536 -1.875,-1.5 -1.016904,-0.70388 -2.120458,-1.3492 -3.25,-1.90625 -1.506055,-0.74273 -3.100465,-1.36269 -4.78125,-1.90625 -1.680786,-0.54356 -3.443847,-0.99037 -5.25,-1.34375 -1.806153,-0.35338 -3.649093,-0.60906 -5.53125,-0.78125 -0.941078,-0.0861 -1.892926,-0.14501 -2.84375,-0.1875 -0.950824,-0.0425 -1.920601,-0.0937 -2.875,-0.0937 l 0,0.0312 0,5.96875 0,0.0312 c 0.87238,0 1.756597,0.0209 2.625,0.0625 2.605209,0.12474 5.168018,0.4255 7.59375,0.90625 2.425732,0.48075 4.71927,1.12806 6.75,1.9375 0.67691,0.26981 1.320444,0.57069 1.9375,0.875 0.617056,0.30431 1.176082,0.61383 1.71875,0.9375 0.509236,0.30373 0.994438,0.61559 1.4375,0.9375 -2.576871,2.91808 -4.4375,6.45653 -4.4375,10.78122 0,2.6166 0.711323,4.978 1.90625,7.0625 -0.04279,0.032 -0.0819,0.062 -0.125,0.094 -4.276988,3.1639 -9.702743,5.8104 -13.71875,8.7812 l 3.25,4.9063 c 3.29111,-2.4347 8.830593,-5.1884 13.6875,-8.7813 0.229935,-0.1701 0.459344,-0.3554 0.6875,-0.5312 1.51536,1.3125 3.232166,2.4569 5.09375,3.375 6.024225,2.9708 13.646059,4.3125 21.28125,4.3125 l 0,-6 c -6.979038,0 -13.969802,-1.3154 -18.90625,-3.75 -1.196098,-0.5899 -2.241038,-1.2073 -3.15625,-1.875 2.26415,-2.5587 3.953236,-5.5927 4.34375,-9.21877 0.0066,-0.0617 -0.0059,-0.12541 0,-0.1875 0.0049,-0.0513 0.02683,-0.10444 0.03125,-0.15625 0.03459,-0.41216 0.0625,-0.82245 0.0625,-1.25 2.3e-5,-0.0105 0,-0.0208 0,-0.0312 -9.24e-4,-0.42707 -0.0254,-0.83666 -0.0625,-1.25 -0.03624,-0.41381 -0.08546,-0.81885 -0.15625,-1.21875 -0.07252,-0.40967 -0.143017,-0.79263 -0.25,-1.1875 -0.103647,-0.38579 -0.240194,-0.7535 -0.375,-1.125 -0.272459,-0.75086 -0.579466,-1.46489 -0.96875,-2.15625 -0.02266,-0.0404 -0.03947,-0.0848 -0.0625,-0.125 0.03087,-0.023 0.06271,-0.0395 0.09375,-0.0625 4.276987,-3.1639 9.702744,-5.81043 13.71875,-8.78125 L 64.75,977.33093 z m -14.96875,17.78125 c 0.03406,0.085 0.09394,0.16396 0.125,0.25 0.07948,0.22017 0.12774,0.42934 0.1875,0.65625 0.0026,0.01 -0.0025,0.0217 0,0.0312 0.05636,0.21739 0.118038,0.43254 0.15625,0.65625 0.04256,0.24361 0.07287,0.46745 0.09375,0.71875 0.02002,0.24089 0.03125,0.47062 0.03125,0.71875 3.5e-5,0.0103 0,0.0209 0,0.0312 -1.88e-4,0.061 0.0013,0.12651 0,0.1875 -0.0041,0.18244 -0.0157,0.35182 -0.03125,0.53125 -0.0024,0.0303 0.0027,0.0636 0,0.0937 -0.02064,0.21088 -0.0576,0.41807 -0.09375,0.625 -0.0091,0.0532 -0.02105,0.1036 -0.03125,0.15625 -0.322288,1.66187 -1.161721,3.21707 -2.375,4.68747 -0.382726,-0.9587 -0.59375,-1.973 -0.59375,-3.0625 0,-2.29515 0.935601,-4.34739 2.53125,-6.28122 z"
       id="path3779"
       inkscape:connector-curvature="0" />
    <path
       inkscape:connector-curvature="0"
       id="path3786"
       d="m 64.75,979.33093 c -3.29111,2.43458 -8.830593,5.18838 -13.6875,8.78125 -0.223391,0.16525 -0.434407,0.36062 -0.65625,0.53125 -0.006,-0.005 -0.02523,0.005 -0.03125,0 -0.605635,-0.52682 -1.203732,-1.03536 -1.875,-1.5 -1.016904,-0.70388 -2.120458,-1.3492 -3.25,-1.90625 -1.506055,-0.74273 -3.100465,-1.36269 -4.78125,-1.90625 -1.680786,-0.54356 -3.443847,-0.99037 -5.25,-1.34375 -1.806153,-0.35338 -3.649093,-0.60906 -5.53125,-0.78125 -0.941078,-0.0861 -1.892926,-0.14501 -2.84375,-0.1875 -0.950824,-0.0425 -1.920601,-0.0937 -2.875,-0.0937 l 0,0.0312 0,5.96875 0,0.0312 c 0.87238,0 1.756597,0.0209 2.625,0.0625 2.605209,0.12474 5.168018,0.4255 7.59375,0.90625 2.425732,0.48075 4.71927,1.12806 6.75,1.9375 0.67691,0.26981 1.320444,0.57069 1.9375,0.875 0.617056,0.30431 1.176082,0.61383 1.71875,0.9375 0.509236,0.30373 0.994438,0.61559 1.4375,0.9375 -2.576871,2.91808 -4.4375,6.45653 -4.4375,10.78117 0,2.6166 0.711323,4.978 1.90625,7.0625 -0.04279,0.032 -0.0819,0.062 -0.125,0.094 -4.276988,3.1639 -9.702743,5.8104 -13.71875,8.7812 l 3.25,4.9063 c 3.29111,-2.4347 8.830593,-5.1884 13.6875,-8.7813 0.229935,-0.1701 0.459344,-0.3554 0.6875,-0.5312 1.51536,1.3125 3.232166,2.4569 5.09375,3.375 6.024225,2.9709 13.646059,4.3125 21.28125,4.3125 l 0,-6 c -6.979038,0 -13.969802,-1.3153 -18.90625,-3.75 -1.196098,-0.5898 -2.241038,-1.2073 -3.15625,-1.875 2.26415,-2.5587 3.953236,-5.5927 4.34375,-9.2187 0.0066,-0.062 -0.0059,-0.1254 0,-0.1875 0.0049,-0.051 0.02683,-0.1045 0.03125,-0.1563 0.03459,-0.4121 0.0625,-0.8224 0.0625,-1.25 2.3e-5,-0.01 0,-0.021 0,-0.031 -9.24e-4,-0.42704 -0.0254,-0.83663 -0.0625,-1.24997 -0.03624,-0.41381 -0.08546,-0.81885 -0.15625,-1.21875 -0.07252,-0.40967 -0.143017,-0.79263 -0.25,-1.1875 -0.103647,-0.38579 -0.240194,-0.7535 -0.375,-1.125 -0.272459,-0.75086 -0.579466,-1.46489 -0.96875,-2.15625 -0.02266,-0.0404 -0.03947,-0.0848 -0.0625,-0.125 0.03087,-0.023 0.06271,-0.0395 0.09375,-0.0625 4.276987,-3.1639 9.702744,-5.81043 13.71875,-8.78125 L 64.75,979.33093 z m -14.96875,17.78125 c 0.03406,0.085 0.09394,0.16396 0.125,0.25 0.07948,0.22017 0.12774,0.42934 0.1875,0.65625 0.0026,0.01 -0.0025,0.0217 0,0.0312 0.05636,0.21739 0.118038,0.43254 0.15625,0.65625 0.04256,0.24361 0.07287,0.46745 0.09375,0.71875 0.02002,0.24089 0.03125,0.47062 0.03125,0.71877 3.5e-5,0.01 0,0.021 0,0.031 -1.88e-4,0.061 0.0013,0.1265 0,0.1875 -0.0041,0.1824 -0.0157,0.3518 -0.03125,0.5312 -0.0024,0.03 0.0027,0.064 0,0.094 -0.02064,0.2109 -0.0576,0.4181 -0.09375,0.625 -0.0091,0.053 -0.02105,0.1036 -0.03125,0.1563 -0.322288,1.6619 -1.161721,3.2171 -2.375,4.6874 -0.382726,-0.9587 -0.59375,-1.973 -0.59375,-3.0625 0,-2.2951 0.935601,-4.34734 2.53125,-6.28117 z"
       style="font-size:medium;font-style:normal;font-variant:normal;font-weight:normal;font-stretch:normal;text-indent:0;text-align:start;text-decoration:none;line-height:normal;letter-spacing:normal;word-spacing:normal;text-transform:none;direction:ltr;block-progression:tb;writing-mode:lr-tb;text-anchor:start;baseline-shift:baseline;color:#000000;fill:#000000;fill-opacity:0.48858451;stroke:none;stroke-width:6;marker:none;visibility:visible;display:inline;overflow:visible;enable-background:accumulate;font-family:Sans;-inkscape-font-specification:Sans" />
    <path
       style="font-size:medium;font-style:normal;font-variant:normal;font-weight:normal;font-stretch:normal;text-indent:0;text-align:start;text-decoration:none;line-height:normal;letter-spacing:normal;word-spacing:normal;text-transform:none;direction:ltr;block-progression:tb;writing-mode:lr-tb;text-anchor:start;baseline-shift:baseline;color:#000000;fill:#28c4d8;fill-opacity:1;stroke:none;stroke-width:6;marker:none;visibility:visible;display:inline;overflow:visible;enable-background:accumulate;font-family:Sans;-inkscape-font-specification:Sans"
       d="m 23.974584,976.95311 0,6.00001 c 6.979039,0 13.958533,1.34677 18.894983,3.78124 4.93645,2.43449 7.505017,5.46744 7.505017,9.43751 0,3.97013 -2.727694,7.21113 -7.004682,10.37503 -4.276988,3.1639 -9.699044,5.8104 -13.715051,8.7812 l 3.237459,4.9063 c 3.29111,-2.4347 8.858143,-5.1884 13.71505,-8.7813 4.856907,-3.5928 9.41806,-8.4404 9.41806,-15.28123 0,-6.84075 -4.747683,-11.93532 -10.771906,-14.90625 -6.024224,-2.97093 -13.643738,-4.31251 -21.27893,-4.31251 z"
       id="path2993"
       inkscape:connector-curvature="0" />
    <path
       style="font-size:medium;font-style:normal;font-variant:normal;font-weight:normal;font-stretch:normal;text-indent:0;text-align:start;text-decoration:none;line-height:normal;letter-spacing:normal;word-spacing:normal;text-transform:none;direction:ltr;block-progression:tb;writing-mode:lr-tb;text-anchor:start;baseline-shift:baseline;color:#000000;fill:#ff0093;fill-opacity:1;stroke:none;stroke-width:6;marker:none;visibility:visible;display:inline;overflow:visible;enable-background:accumulate;font-family:Sans;-inkscape-font-specification:Sans"
       d="m 64.737126,975.32812 c -3.29111,2.43458 -8.828712,5.18837 -13.685619,8.78124 -4.856907,3.59289 -9.447492,8.44049 -9.447492,15.28123 0,6.84081 4.747682,11.93541 10.771906,14.90631 6.024225,2.9708 13.643739,4.3125 21.27893,4.3125 l 0,-6.0001 c -6.979038,0 -13.958534,-1.3154 -18.894982,-3.75 -4.93645,-2.4344 -7.505017,-5.4986 -7.505017,-9.46871 0,-3.97004 2.727694,-7.21107 7.004682,-10.37496 4.276987,-3.1639 9.699044,-5.81044 13.71505,-8.78126 l -3.237458,-4.90625 z"
       id="path3763"
       inkscape:connector-curvature="0" />
    <path
       style="font-size:medium;font-style:normal;font-variant:normal;font-weight:normal;font-stretch:normal;text-indent:0;text-align:start;text-decoration:none;line-height:normal;letter-spacing:normal;word-spacing:normal;text-transform:none;direction:ltr;block-progression:tb;writing-mode:lr-tb;text-anchor:start;baseline-shift:baseline;color:#000000;fill:#28c4d7;fill-opacity:1;stroke:none;stroke-width:6;marker:none;visibility:visible;display:inline;overflow:visible;enable-background:accumulate;font-family:Sans;-inkscape-font-specification:Sans"
       d="m 23.974584,976.9403 0,6 c 6.979039,0 13.958533,1.34677 18.894983,3.78124 4.93645,2.43449 7.505017,5.46744 7.505017,9.43751 0,0.5494 -0.04581,1.1018 -0.147157,1.625 l 5.709699,0 c 0.05627,-0.52241 0.08829,-1.07742 0.08829,-1.625 0,-6.84076 -4.747683,-11.93532 -10.771906,-14.90626 -6.02422,-2.97092 -13.643734,-4.31249 -21.278926,-4.31249 z"
       id="path3773"
       inkscape:connector-curvature="0" />
  </g>
</svg>
