<?xml version="1.0" encoding="UTF-8" standalone="no"?>
<!-- Created with Inkscape (http://www.inkscape.org/) -->

<svg
   xmlns:dc="http://purl.org/dc/elements/1.1/"
   xmlns:cc="http://creativecommons.org/ns#"
   xmlns:rdf="http://www.w3.org/1999/02/22-rdf-syntax-ns#"
   xmlns:svg="http://www.w3.org/2000/svg"
   xmlns="http://www.w3.org/2000/svg"
   xmlns:xlink="http://www.w3.org/1999/xlink"
   xmlns:sodipodi="http://sodipodi.sourceforge.net/DTD/sodipodi-0.dtd"
   xmlns:inkscape="http://www.inkscape.org/namespaces/inkscape"
   width="96"
   height="96"
   id="svg2"
   version="1.1"
   inkscape:version="0.48.4 r9939"
   sodipodi:docname="debian-plymouth-manager.svg">
  <defs
     id="defs4">
    <linearGradient
       inkscape:collect="always"
       id="linearGradient4071">
      <stop
         style="stop-color:#ff0046;stop-opacity:1;"
         offset="0"
         id="stop4073" />
      <stop
         style="stop-color:#ff0046;stop-opacity:0;"
         offset="1"
         id="stop4075" />
    </linearGradient>
    <radialGradient
       inkscape:collect="always"
       xlink:href="#linearGradient4071"
       id="radialGradient4077"
       cx="52.5"
       cy="38.5"
       fx="52.5"
       fy="38.5"
       r="7.5"
       gradientUnits="userSpaceOnUse" />
    <radialGradient
       inkscape:collect="always"
       xlink:href="#linearGradient4071"
       id="radialGradient4081"
       gradientUnits="userSpaceOnUse"
       cx="52.5"
       cy="38.5"
       fx="52.5"
       fy="38.5"
       r="7.5" />
    <radialGradient
       inkscape:collect="always"
       xlink:href="#linearGradient4071"
       id="radialGradient4085"
       gradientUnits="userSpaceOnUse"
       cx="52.5"
       cy="38.5"
       fx="52.5"
       fy="38.5"
       r="7.5" />
    <radialGradient
       inkscape:collect="always"
       xlink:href="#linearGradient4071"
       id="radialGradient4091"
       gradientUnits="userSpaceOnUse"
       cx="52.5"
       cy="38.5"
       fx="52.5"
       fy="38.5"
       r="7.5" />
    <radialGradient
       inkscape:collect="always"
       xlink:href="#linearGradient4071"
       id="radialGradient4093"
       gradientUnits="userSpaceOnUse"
       cx="52.5"
       cy="38.5"
       fx="52.5"
       fy="38.5"
       r="7.5" />
    <radialGradient
       inkscape:collect="always"
       xlink:href="#linearGradient4071"
       id="radialGradient4116"
       gradientUnits="userSpaceOnUse"
       cx="52.5"
       cy="38.5"
       fx="52.5"
       fy="38.5"
       r="7.5" />
    <radialGradient
       inkscape:collect="always"
       xlink:href="#linearGradient4071"
       id="radialGradient4118"
       gradientUnits="userSpaceOnUse"
       cx="52.5"
       cy="38.5"
       fx="52.5"
       fy="38.5"
       r="7.5" />
    <radialGradient
       inkscape:collect="always"
       xlink:href="#linearGradient4071"
       id="radialGradient4120"
       gradientUnits="userSpaceOnUse"
       cx="52.5"
       cy="38.5"
       fx="52.5"
       fy="38.5"
       r="7.5" />
    <radialGradient
       inkscape:collect="always"
       xlink:href="#linearGradient4071"
       id="radialGradient4122"
       gradientUnits="userSpaceOnUse"
       cx="52.5"
       cy="38.5"
       fx="52.5"
       fy="38.5"
       r="7.5" />
  </defs>
  <sodipodi:namedview
     id="base"
     pagecolor="#ffffff"
     bordercolor="#666666"
     borderopacity="1.0"
     inkscape:pageopacity="0.0"
     inkscape:pageshadow="2"
     inkscape:zoom="54.013609"
     inkscape:cx="46.645503"
     inkscape:cy="75.343915"
     inkscape:document-units="px"
     inkscape:current-layer="layer1"
     showgrid="true"
     inkscape:snap-page="true"
     inkscape:snap-global="false"
     inkscape:snap-center="true"
     inkscape:snap-object-midpoints="false"
     showguides="true"
     inkscape:guide-bbox="true"
     inkscape:snap-bbox="true"
     inkscape:object-paths="true"
     inkscape:object-nodes="true"
     inkscape:window-width="1305"
     inkscape:window-height="744"
     inkscape:window-x="61"
     inkscape:window-y="24"
     inkscape:window-maximized="1"
     inkscape:snap-midpoints="false"
     inkscape:snap-grids="true"
     inkscape:snap-to-guides="false">
    <inkscape:grid
       type="xygrid"
       id="grid3002"
       empspacing="5"
       visible="true"
       enabled="true"
       snapvisiblegridlinesonly="true" />
  </sodipodi:namedview>
  <metadata
     id="metadata7">
    <rdf:RDF>
      <cc:Work
         rdf:about="">
        <dc:format>image/svg+xml</dc:format>
        <dc:type
           rdf:resource="http://purl.org/dc/dcmitype/StillImage" />
        <dc:title />
      </cc:Work>
    </rdf:RDF>
  </metadata>
  <g
     inkscape:label="Layer 1"
     inkscape:groupmode="layer"
     id="layer1"
     transform="translate(0,-956.36218)">
    <rect
       style="fill:#ffffff;fill-opacity:0;fill-rule:nonzero;stroke:none"
       id="rect3775"
       width="96"
       height="96"
       x="0"
       y="956.36218"
       ry="0" />
    <path
       style="fill:#000000;fill-opacity:0.09589041;fill-rule:nonzero;stroke:none"
       d="m 3.353015,956.30662 c -1.884176,0 -3.4111555,1.43156 -3.4111555,3.19799 l 0,83.65949 c 0,1.7665 1.5269795,3.1981 3.4111555,3.1981 l 89.23583,0 c 1.884174,0 3.411155,-1.4316 3.411155,-3.1981 l 0,-83.65949 c 0,-1.76643 -1.526981,-3.19799 -3.411155,-3.19799 z"
       id="rect3772"
       inkscape:connector-curvature="0"
       sodipodi:nodetypes="sssssssss" />
    <path
       style="fill:#000000;fill-opacity:0.18721463;fill-rule:nonzero;stroke:none"
       d="m 1.0459761,1041.8066 0,7.4219 c 0,1.7392 1.461916,3.1337 3.2852054,3.1337 l 86.3836135,0 c 1.823288,0 3.285205,-1.3945 3.285205,-3.1337 l 0,-7.4219 -92.9540239,0 z"
       id="rect3785"
       inkscape:connector-curvature="0" />
    <path
       style="fill:#000000;fill-opacity:0.38356168;fill-rule:nonzero;stroke:none"
       d="m 1.0459761,1041.8066 0,5.3807 c 0,1.762 1.461916,3.1749 3.2852054,3.1749 l 86.3836135,0 c 1.823288,0 3.285205,-1.4129 3.285205,-3.1749 l 0,-5.3807 -92.9540239,0 z"
       id="rect3783"
       inkscape:connector-curvature="0" />
    <rect
       style="fill:#222222;fill-opacity:1;fill-rule:nonzero;stroke:none"
       id="rect2985-2"
       width="93"
       height="88.999962"
       x="0.9999969"
       y="957.36224"
       ry="3.1511383" />
    <path
       style="fill:#000000;fill-opacity:0.38356168;fill-rule:nonzero;stroke:none"
       d="m 1,1042.3622 0.045976,2.7457 c 0.03024,1.8058 1.461916,3.2543 3.2852054,3.2543 l 86.3836136,0 c 1.823288,0 3.285205,-1.4481 3.285205,-3.2543 l -0.04598,-2.7457 z"
       id="rect3781"
       inkscape:connector-curvature="0"
       sodipodi:nodetypes="csssscc" />
    <rect
       style="fill:#ffffff;fill-opacity:0.30000001;fill-rule:nonzero;stroke:none"
       id="rect3770"
       width="92.954033"
       height="2.000005"
       x="1.045976"
       y="1040.3622" />
    <path
       sodipodi:type="arc"
       style="fill:url(#radialGradient4077);fill-opacity:1;fill-rule:evenodd;stroke:none"
       id="path4069"
       sodipodi:cx="52.5"
       sodipodi:cy="38.5"
       sodipodi:rx="7.5"
       sodipodi:ry="7.5"
       d="m 60,38.5 a 7.5,7.5 0 1 1 -15,0 7.5,7.5 0 1 1 15,0 z"
       transform="matrix(1.6666648,0,0,1.6666653,-38.830576,932.86488)" />
    <path
       transform="translate(-27,958.36216)"
       d="m 60,38.5 a 7.5,7.5 0 1 1 -15,0 7.5,7.5 0 1 1 15,0 z"
       sodipodi:ry="7.5"
       sodipodi:rx="7.5"
       sodipodi:cy="38.5"
       sodipodi:cx="52.5"
       id="path4079"
       style="fill:url(#radialGradient4122);fill-opacity:1;fill-rule:evenodd;stroke:none"
       sodipodi:type="arc" />
    <path
       sodipodi:type="arc"
       style="fill:url(#radialGradient4120);fill-opacity:1;fill-rule:evenodd;stroke:none"
       id="path4083"
       sodipodi:cx="52.5"
       sodipodi:cy="38.5"
       sodipodi:rx="7.5"
       sodipodi:ry="7.5"
       d="m 60,38.5 a 7.5,7.5 0 1 1 -15,0 7.5,7.5 0 1 1 15,0 z"
       transform="matrix(0.33333332,0,0,0.33333173,-6.9999994,984.02892)" />
    <path
       sodipodi:type="arc"
       style="fill:url(#radialGradient4118);fill-opacity:1;fill-rule:evenodd;stroke:none"
       id="path4087"
       sodipodi:cx="52.5"
       sodipodi:cy="38.5"
       sodipodi:rx="7.5"
       sodipodi:ry="7.5"
       d="m 60,38.5 a 7.5,7.5 0 1 1 -15,0 7.5,7.5 0 1 1 15,0 z"
       transform="matrix(-1,0,0,1,124,958.36216)" />
    <path
       transform="matrix(-0.33333332,0,0,0.33333173,104,984.02892)"
       d="m 60,38.5 a 7.5,7.5 0 1 1 -15,0 7.5,7.5 0 1 1 15,0 z"
       sodipodi:ry="7.5"
       sodipodi:rx="7.5"
       sodipodi:cy="38.5"
       sodipodi:cx="52.5"
       id="path4089"
       style="fill:url(#radialGradient4116);fill-opacity:1;fill-rule:evenodd;stroke:none"
       sodipodi:type="arc" />
    <path
       style="fill:#ff007d;fill-opacity:0.29223743;fill-rule:evenodd;stroke:none"
       d="m 48.984128,977.36218 c -11.045695,0 -20,8.95431 -20,20 0,11.04572 8.954305,20.00002 20,20.00002 11.045695,0 20,-8.9543 20,-20.00002 0,-11.04569 -8.954305,-20 -20,-20 z m 0,1.6875 c 10.11061,0 18.3125,8.20189 18.3125,18.3125 0,10.11062 -8.20189,18.31252 -18.3125,18.31252 -10.11061,0 -18.3125,-8.2019 -18.3125,-18.31252 0,-10.11061 8.20189,-18.3125 18.3125,-18.3125 z"
       id="path4111"
       inkscape:connector-curvature="0" />
    <path
       sodipodi:type="inkscape:offset"
       inkscape:radius="-0.50835013"
       inkscape:original="M 48.96875 977.375 C 37.923055 977.375 28.96875 986.32931 28.96875 997.375 C 28.96875 1008.4207 37.923055 1017.375 48.96875 1017.375 C 60.014445 1017.375 68.96875 1008.4207 68.96875 997.375 C 68.96875 986.32931 60.014445 977.375 48.96875 977.375 z M 48.96875 979.0625 C 59.07936 979.0625 67.28125 987.26439 67.28125 997.375 C 67.28125 1007.4856 59.07936 1015.6875 48.96875 1015.6875 C 38.85814 1015.6875 30.65625 1007.4856 30.65625 997.375 C 30.65625 987.26439 38.85814 979.0625 48.96875 979.0625 z "
       style="fill:#ff007e;fill-opacity:1;fill-rule:evenodd;stroke:none"
       id="path4126"
       d="m 48.96875,977.875 c -10.770962,0 -19.5,8.72904 -19.5,19.5 0,10.771 8.729038,19.5 19.5,19.5 10.770962,0 19.5,-8.729 19.5,-19.5 0,-10.77096 -8.729038,-19.5 -19.5,-19.5 z m 0,0.6875 c 10.385531,0 18.8125,8.42697 18.8125,18.8125 0,10.3855 -8.426968,18.8125 -18.8125,18.8125 -10.385532,0 -18.8125,-8.427 -18.8125,-18.8125 0,-10.38553 8.426969,-18.8125 18.8125,-18.8125 z" />
  </g>
</svg>
