<?xml version="1.0" encoding="UTF-8" standalone="no"?>
<!-- Created with Inkscape (http://www.inkscape.org/) -->

<svg
   xmlns:dc="http://purl.org/dc/elements/1.1/"
   xmlns:cc="http://creativecommons.org/ns#"
   xmlns:rdf="http://www.w3.org/1999/02/22-rdf-syntax-ns#"
   xmlns:svg="http://www.w3.org/2000/svg"
   xmlns="http://www.w3.org/2000/svg"
   xmlns:xlink="http://www.w3.org/1999/xlink"
   xmlns:sodipodi="http://sodipodi.sourceforge.net/DTD/sodipodi-0.dtd"
   xmlns:inkscape="http://www.inkscape.org/namespaces/inkscape"
   width="96"
   height="96"
   id="svg2"
   version="1.1"
   inkscape:version="0.48.4 r9939"
   sodipodi:docname="defcon.svg">
  <defs
     id="defs4">
    <filter
       color-interpolation-filters="sRGB"
       height="1.2100304"
       y="-0.10501521"
       width="1.1234055"
       x="-0.061702736"
       id="filter4470"
       inkscape:collect="always">
      <feGaussianBlur
         id="feGaussianBlur4472"
         stdDeviation="2.8273165"
         inkscape:collect="always" />
    </filter>
    <linearGradient
       inkscape:collect="always"
       xlink:href="#linearGradient4528"
       id="linearGradient3054"
       gradientUnits="userSpaceOnUse"
       gradientTransform="translate(-165.33541,1030.5266)"
       x1="28.556273"
       y1="-67.443726"
       x2="67.734406"
       y2="-35.734409" />
    <linearGradient
       id="linearGradient4528"
       inkscape:collect="always">
      <stop
         id="stop4530"
         offset="0"
         style="stop-color:#ffff00;stop-opacity:1;" />
      <stop
         id="stop4532"
         offset="1"
         style="stop-color:#ffff00;stop-opacity:0;" />
    </linearGradient>
    <linearGradient
       inkscape:collect="always"
       xlink:href="#linearGradient4528"
       id="linearGradient3056"
       gradientUnits="userSpaceOnUse"
       gradientTransform="matrix(-0.5,-0.8660254,0.8660254,-0.5,-41.6226,1037.9522)"
       x1="28.556273"
       y1="-67.443726"
       x2="67.734406"
       y2="-35.734409" />
    <linearGradient
       inkscape:collect="always"
       xlink:href="#linearGradient4528"
       id="linearGradient3058"
       gradientUnits="userSpaceOnUse"
       gradientTransform="matrix(-0.5,0.8660254,-0.8660254,-0.5,-97.048221,927.10098)"
       x1="28.556273"
       y1="-67.443726"
       x2="67.734406"
       y2="-35.734409" />
    <linearGradient
       id="linearGradient4501">
      <stop
         id="stop4504"
         offset="0"
         style="stop-color:#ff0000;stop-opacity:1;" />
      <stop
         id="stop4506"
         offset="1"
         style="stop-color:#550000;stop-opacity:1;" />
    </linearGradient>
    <radialGradient
       r="64"
       fy="64"
       fx="64"
       cy="64"
       cx="64"
       gradientUnits="userSpaceOnUse"
       id="radialGradient3044"
       xlink:href="#linearGradient4501"
       inkscape:collect="always" />
  </defs>
  <sodipodi:namedview
     id="base"
     pagecolor="#ffffff"
     bordercolor="#666666"
     borderopacity="1.0"
     inkscape:pageopacity="0.0"
     inkscape:pageshadow="2"
     inkscape:zoom="5.90625"
     inkscape:cx="48"
     inkscape:cy="48"
     inkscape:document-units="px"
     inkscape:current-layer="layer1"
     showgrid="true"
     inkscape:snap-page="true"
     inkscape:snap-global="true"
     inkscape:snap-center="true"
     inkscape:snap-object-midpoints="false"
     showguides="true"
     inkscape:guide-bbox="true"
     inkscape:snap-bbox="true"
     inkscape:object-paths="true"
     inkscape:object-nodes="true"
     inkscape:window-width="1305"
     inkscape:window-height="744"
     inkscape:window-x="61"
     inkscape:window-y="24"
     inkscape:window-maximized="1"
     inkscape:snap-midpoints="false"
     inkscape:snap-grids="true"
     inkscape:snap-to-guides="false">
    <inkscape:grid
       type="xygrid"
       id="grid3002"
       empspacing="5"
       visible="true"
       enabled="true"
       snapvisiblegridlinesonly="true" />
  </sodipodi:namedview>
  <metadata
     id="metadata7">
    <rdf:RDF>
      <cc:Work
         rdf:about="">
        <dc:format>image/svg+xml</dc:format>
        <dc:type
           rdf:resource="http://purl.org/dc/dcmitype/StillImage" />
        <dc:title />
      </cc:Work>
    </rdf:RDF>
  </metadata>
  <g
     inkscape:label="Layer 1"
     inkscape:groupmode="layer"
     id="layer1"
     transform="translate(0,-956.36218)">
    <rect
       style="fill:#ffffff;fill-opacity:0;fill-rule:nonzero;stroke:none"
       id="rect3775"
       width="96"
       height="96"
       x="0"
       y="956.36218"
       ry="0" />
    <path
       style="fill:#000000;fill-opacity:0.09589041;fill-rule:nonzero;stroke:none"
       d="m 3.353015,956.30662 c -1.884176,0 -3.4111555,1.43156 -3.4111555,3.19799 l 0,83.65949 c 0,1.7665 1.5269795,3.1981 3.4111555,3.1981 l 89.23583,0 c 1.884174,0 3.411155,-1.4316 3.411155,-3.1981 l 0,-83.65949 c 0,-1.76643 -1.526981,-3.19799 -3.411155,-3.19799 z"
       id="rect3772"
       inkscape:connector-curvature="0"
       sodipodi:nodetypes="sssssssss" />
    <path
       style="fill:#000000;fill-opacity:0.18721463;fill-rule:nonzero;stroke:none"
       d="m 1.0459761,1041.8066 0,7.4219 c 0,1.7392 1.461916,3.1337 3.2852054,3.1337 l 86.3836135,0 c 1.823288,0 3.285205,-1.3945 3.285205,-3.1337 l 0,-7.4219 -92.9540239,0 z"
       id="rect3785"
       inkscape:connector-curvature="0" />
    <path
       style="fill:#000000;fill-opacity:0.38356168;fill-rule:nonzero;stroke:none"
       d="m 1.0459761,1041.8066 0,5.3807 c 0,1.762 1.461916,3.1749 3.2852054,3.1749 l 86.3836135,0 c 1.823288,0 3.285205,-1.4129 3.285205,-3.1749 l 0,-5.3807 -92.9540239,0 z"
       id="rect3783"
       inkscape:connector-curvature="0" />
    <rect
       style="fill:#ef2b2d;fill-opacity:1;fill-rule:nonzero;stroke:none"
       id="rect2985"
       width="92.954025"
       height="89"
       x="1.045977"
       y="957.36218"
       ry="3.1511393" />
    <path
       style="fill:#000000;fill-opacity:0.38356168;fill-rule:nonzero;stroke:none"
       d="m 1,1042.3622 0.045976,2.7457 c 0.03024,1.8058 1.461916,3.2543 3.2852054,3.2543 l 86.3836136,0 c 1.823288,0 3.285205,-1.4481 3.285205,-3.2543 l -0.04598,-2.7457 z"
       id="rect3781"
       inkscape:connector-curvature="0"
       sodipodi:nodetypes="csssscc" />
    <rect
       style="fill:#ffffff;fill-opacity:0.30000001;fill-rule:nonzero;stroke:none"
       id="rect3770"
       width="92.954033"
       height="2.000005"
       x="1.045976"
       y="1040.3622" />
    <g
       id="g3133"
       transform="matrix(0.53850657,0,0,0.53850657,102.56978,460.11008)">
      <path
         inkscape:transform-center-y="-26.931835"
         inkscape:connector-curvature="0"
         id="path4512"
         d="m -136.77914,963.08287 31.70932,31.70932 c 2.0603,-2.0603 5.408518,-2.0603 7.468818,0 l 31.709319,-31.70932 c -19.580712,-19.58071 -51.306747,-19.58071 -70.887457,0 z"
         style="fill:url(#linearGradient3054);fill-opacity:1;stroke:none" />
      <path
         inkscape:transform-center-x="25.752778"
         style="fill:url(#linearGradient3056);fill-opacity:1;stroke:none"
         d="m -114.30872,1046.9436 11.60642,-43.3157 c -2.81442,-0.7541 -4.48853,-3.65377 -3.73441,-6.46819 l -43.31573,-11.60641 c -7.16704,26.7477 8.69598,54.2233 35.44373,61.3903 z"
         id="path4536"
         inkscape:connector-curvature="0"
         inkscape:transform-center-y="17.721864" />
      <path
         inkscape:transform-center-y="17.721864"
         inkscape:connector-curvature="0"
         id="path4540"
         d="m -52.91838,985.5533 -43.315734,11.60641 c 0.754123,2.81442 -0.919985,5.71409 -3.734407,6.46819 l 11.606417,43.3157 c 26.747754,-7.167 42.610764,-34.6426 35.443724,-61.3903 z"
         style="fill:url(#linearGradient3058);fill-opacity:1;stroke:none"
         inkscape:transform-center-x="-25.752777" />
      <path
         sodipodi:type="arc"
         style="fill:url(#radialGradient3044);fill-opacity:1;stroke:none"
         id="path4544"
         sodipodi:cx="64"
         sodipodi:cy="64"
         sodipodi:rx="64"
         sodipodi:ry="64"
         d="M 128,64 C 128,99.346224 99.346224,128 64,128 28.653776,128 0,99.346224 0,64 0,28.653776 28.653776,0 64,0 c 35.346224,0 64,28.653776 64,64 z"
         transform="matrix(0,-0.17386766,-0.17386766,0,-90.208295,1009.6541)" />
    </g>
  </g>
</svg>
