<?xml version="1.0" encoding="UTF-8" standalone="no"?>
<!-- Created with Inkscape (http://www.inkscape.org/) -->

<svg
   xmlns:dc="http://purl.org/dc/elements/1.1/"
   xmlns:cc="http://creativecommons.org/ns#"
   xmlns:rdf="http://www.w3.org/1999/02/22-rdf-syntax-ns#"
   xmlns:svg="http://www.w3.org/2000/svg"
   xmlns="http://www.w3.org/2000/svg"
   xmlns:sodipodi="http://sodipodi.sourceforge.net/DTD/sodipodi-0.dtd"
   xmlns:inkscape="http://www.inkscape.org/namespaces/inkscape"
   width="96"
   height="96"
   id="svg2"
   version="1.1"
   inkscape:version="0.48.4 r9939"
   sodipodi:docname="desura.svg">
  <defs
     id="defs4" />
  <sodipodi:namedview
     id="base"
     pagecolor="#ffffff"
     bordercolor="#666666"
     borderopacity="1.0"
     inkscape:pageopacity="0.0"
     inkscape:pageshadow="2"
     inkscape:zoom="5.90625"
     inkscape:cx="10.339684"
     inkscape:cy="48"
     inkscape:document-units="px"
     inkscape:current-layer="layer1"
     showgrid="true"
     inkscape:snap-page="true"
     inkscape:snap-global="true"
     inkscape:snap-center="true"
     inkscape:snap-object-midpoints="false"
     showguides="true"
     inkscape:guide-bbox="true"
     inkscape:snap-bbox="true"
     inkscape:object-paths="true"
     inkscape:object-nodes="true"
     inkscape:window-width="1305"
     inkscape:window-height="744"
     inkscape:window-x="61"
     inkscape:window-y="24"
     inkscape:window-maximized="1"
     inkscape:snap-midpoints="false"
     inkscape:snap-grids="true"
     inkscape:snap-to-guides="false">
    <inkscape:grid
       type="xygrid"
       id="grid3002"
       empspacing="5"
       visible="true"
       enabled="true"
       snapvisiblegridlinesonly="true" />
  </sodipodi:namedview>
  <metadata
     id="metadata7">
    <rdf:RDF>
      <cc:Work
         rdf:about="">
        <dc:format>image/svg+xml</dc:format>
        <dc:type
           rdf:resource="http://purl.org/dc/dcmitype/StillImage" />
        <dc:title />
      </cc:Work>
    </rdf:RDF>
  </metadata>
  <g
     inkscape:label="Layer 1"
     inkscape:groupmode="layer"
     id="layer1"
     transform="translate(0,-956.36218)">
    <rect
       style="fill:#ffffff;fill-opacity:0;fill-rule:nonzero;stroke:none"
       id="rect3775"
       width="96"
       height="96"
       x="0"
       y="956.36218"
       ry="0" />
    <path
       style="fill:#000000;fill-opacity:0.09589041;fill-rule:nonzero;stroke:none"
       d="m 3.353015,956.30662 c -1.884176,0 -3.4111555,1.43156 -3.4111555,3.19799 l 0,83.65949 c 0,1.7665 1.5269795,3.1981 3.4111555,3.1981 l 89.23583,0 c 1.884174,0 3.411155,-1.4316 3.411155,-3.1981 l 0,-83.65949 c 0,-1.76643 -1.526981,-3.19799 -3.411155,-3.19799 z"
       id="rect3772"
       inkscape:connector-curvature="0"
       sodipodi:nodetypes="sssssssss" />
    <path
       style="fill:#000000;fill-opacity:0.18721463;fill-rule:nonzero;stroke:none"
       d="m 1.0459761,1041.8066 0,7.4219 c 0,1.7392 1.461916,3.1337 3.2852054,3.1337 l 86.3836135,0 c 1.823288,0 3.285205,-1.3945 3.285205,-3.1337 l 0,-7.4219 -92.9540239,0 z"
       id="rect3785"
       inkscape:connector-curvature="0" />
    <path
       style="fill:#000000;fill-opacity:0.38356168;fill-rule:nonzero;stroke:none"
       d="m 1.0459761,1041.8066 0,5.3807 c 0,1.762 1.461916,3.1749 3.2852054,3.1749 l 86.3836135,0 c 1.823288,0 3.285205,-1.4129 3.285205,-3.1749 l 0,-5.3807 -92.9540239,0 z"
       id="rect3783"
       inkscape:connector-curvature="0" />
    <rect
       style="fill:#a3057f;fill-opacity:1;fill-rule:nonzero;stroke:none"
       id="rect2985-2"
       width="93"
       height="88.999962"
       x="0.9999969"
       y="957.36224"
       ry="3.1511383" />
    <path
       style="fill:#000000;fill-opacity:0.38356168;fill-rule:nonzero;stroke:none"
       d="m 1,1042.3622 0.045976,2.7457 c 0.03024,1.8058 1.461916,3.2543 3.2852054,3.2543 l 86.3836136,0 c 1.823288,0 3.285205,-1.4481 3.285205,-3.2543 l -0.04598,-2.7457 z"
       id="rect3781"
       inkscape:connector-curvature="0"
       sodipodi:nodetypes="csssscc" />
    <rect
       style="fill:#ffffff;fill-opacity:0.30000001;fill-rule:nonzero;stroke:none"
       id="rect3770"
       width="92.954033"
       height="2.000005"
       x="1.045976"
       y="1040.3622" />
    <path
       style="fill:#ffffff;fill-opacity:0.39269406;display:inline"
       id="path3033"
       inkscape:connector-curvature="0"
       d="m 48.035599,968.82318 c -0.05691,-0.027 -2.70534,2.2613 -5.892719,5.1088 -4.616595,4.1237 -5.882265,5.1825 -6.176711,5.1817 -0.20328,-3e-4 -3.476995,-0.3165 -7.312667,-0.73 -3.835671,-0.4136 -6.997942,-0.7247 -7.028675,-0.6932 -0.06036,0.063 -5.358186,18.07062 -5.431226,18.46412 -0.03137,0.1687 2.089369,2.1022 7.277141,6.6408 l 7.312667,6.3856 2.626876,0 c 1.439489,0 2.88068,-0.061 3.230337,-0.1058 l 0.638976,-0.07 -7.703129,-6.5682 c -4.239524,-3.6043 -7.698948,-6.6394 -7.703157,-6.7506 -0.0029,-0.1078 0.71633,-2.4455 1.59743,-5.2181 0.88111,-2.77252 1.758259,-5.64582 1.987911,-6.38552 0.414432,-1.3351 0.425298,-1.3554 0.851954,-1.3502 0.236462,0 3.044571,0.3255 6.212208,0.7297 l 5.750733,0.7299 4.508298,-3.9773 c 2.47961,-2.2021 4.669481,-4.1596 4.863263,-4.3426 l 0.354984,-0.3283 3.549834,3.1379 c 1.94701,1.7318 4.125067,3.6897 4.863263,4.3426 l 1.348954,1.1677 6.141206,-0.7665 c 3.382078,-0.4293 6.154962,-0.7713 6.17671,-0.7299 0.0693,0.131 4.117802,12.94042 4.117802,13.02742 0,0.047 -3.484118,3.0497 -7.738627,6.6774 l -7.738647,6.6046 0.674482,0.07 c 0.360475,0.046 1.810539,0.1022 3.230338,0.1058 l 2.591387,0.034 7.277155,-6.3866 c 4.005989,-3.4995 7.292273,-6.4089 7.31266,-6.4947 0.03053,-0.1292 -5.29964,-18.58392 -5.395763,-18.68252 -0.01571,-0.027 -3.192518,0.312 -7.064152,0.7297 -3.871636,0.4166 -7.185308,0.7512 -7.383661,0.7295 -0.254043,-0.029 -2.077308,-1.5495 -6.105709,-5.1453 -3.145531,-2.8061 -5.764842,-5.1233 -5.821726,-5.1436 z m -0.07107,11.1295 -3.265842,3.3937 -3.230366,3.43 0,2.956 c -0.01043,4.64292 0.509893,8.58372 1.561933,11.93182 0.967197,3.0787 2.095147,5.1442 3.798329,6.8967 0.571541,0.5878 1.070367,1.058 1.135946,1.058 0.263761,0 1.631119,-1.3849 2.342886,-2.3712 1.058669,-1.468 1.947363,-3.2712 2.626867,-5.4008 1.102764,-3.4571 1.534318,-6.4708 1.632945,-11.4579 l 0.07107,-3.61262 -3.336855,-3.43 -3.336855,-3.3937 z m 20.021057,6.9332 c -0.03335,-0.034 -1.930826,0.1668 -4.224312,0.438 -2.293467,0.2689 -4.25344,0.5106 -4.330784,0.5106 -0.09077,0 -0.14191,0.6346 -0.14191,1.7881 0,6.07712 -2.127227,13.40202 -5.289249,18.24492 -0.732533,1.1221 -0.80368,1.3336 -0.49698,1.1312 2.047951,-1.3524 16.638076,-14.0398 16.577717,-14.4134 -0.06633,-0.4106 -2.031994,-7.63482 -2.094465,-7.69942 z m -39.971126,0.07 c -0.055,0.061 -0.538331,1.852 -1.10045,3.97672 l -1.029457,3.8318 0.354985,0.3651 c 3.426414,3.0838 12.829454,11.1788 15.051301,12.9539 0.77088,0.6155 1.433558,1.0802 1.455424,1.0578 0.022,-0.027 -0.334142,-0.6328 -0.816449,-1.3866 -3.097131,-4.8369 -4.954591,-11.1855 -5.253763,-17.95302 -0.0485,-1.0969 -0.133884,-1.97 -0.177482,-1.97 -0.04343,0 -1.942572,-0.2431 -4.224297,-0.5115 -2.281744,-0.2668 -4.204812,-0.4233 -4.259812,-0.3624 z m 12.317915,24.88562 -7.738625,0.034 7.703138,4.05 c 4.221973,2.2152 7.698958,3.992 7.738625,3.9773 0.0396,-0.026 3.52242,-1.813 7.738644,-4.014 l 7.667641,-4.0133 -7.703138,-0.034 c -4.237458,-0.023 -11.165861,-0.023 -15.406304,0 z" />
  </g>
</svg>
