<?xml version="1.0" encoding="UTF-8" standalone="no"?>
<!-- Created with Inkscape (http://www.inkscape.org/) -->

<svg
   xmlns:dc="http://purl.org/dc/elements/1.1/"
   xmlns:cc="http://creativecommons.org/ns#"
   xmlns:rdf="http://www.w3.org/1999/02/22-rdf-syntax-ns#"
   xmlns:svg="http://www.w3.org/2000/svg"
   xmlns="http://www.w3.org/2000/svg"
   xmlns:xlink="http://www.w3.org/1999/xlink"
   xmlns:sodipodi="http://sodipodi.sourceforge.net/DTD/sodipodi-0.dtd"
   xmlns:inkscape="http://www.inkscape.org/namespaces/inkscape"
   width="96"
   height="96"
   id="svg2"
   version="1.1"
   inkscape:version="0.48.4 r9939"
   sodipodi:docname="distributor-logo.svg">
  <defs
     id="defs4">
    <linearGradient
       id="linearGradient3764">
      <stop
         style="stop-color:#ff7d00;stop-opacity:1;"
         offset="0"
         id="stop3766" />
      <stop
         style="stop-color:#ff3c00;stop-opacity:1;"
         offset="1"
         id="stop3768" />
    </linearGradient>
    <linearGradient
       inkscape:collect="always"
       xlink:href="#linearGradient3764"
       id="linearGradient3770"
       x1="45"
       y1="1047.3622"
       x2="45"
       y2="957.36218"
       gradientUnits="userSpaceOnUse"
       gradientTransform="translate(0,-2003.7244)" />
  </defs>
  <sodipodi:namedview
     id="base"
     pagecolor="#ffffff"
     bordercolor="#666666"
     borderopacity="1.0"
     inkscape:pageopacity="0.0"
     inkscape:pageshadow="2"
     inkscape:zoom="4.1763494"
     inkscape:cx="24.871488"
     inkscape:cy="48"
     inkscape:document-units="px"
     inkscape:current-layer="layer1"
     showgrid="true"
     inkscape:snap-page="true"
     inkscape:snap-global="true"
     inkscape:snap-center="true"
     inkscape:snap-object-midpoints="false"
     showguides="true"
     inkscape:guide-bbox="true"
     inkscape:snap-bbox="true"
     inkscape:object-paths="true"
     inkscape:object-nodes="true"
     inkscape:window-width="1305"
     inkscape:window-height="744"
     inkscape:window-x="61"
     inkscape:window-y="24"
     inkscape:window-maximized="1"
     inkscape:snap-midpoints="true"
     inkscape:snap-grids="true"
     inkscape:snap-to-guides="false">
    <inkscape:grid
       type="xygrid"
       id="grid3002"
       empspacing="5"
       visible="true"
       enabled="true"
       snapvisiblegridlinesonly="true" />
  </sodipodi:namedview>
  <metadata
     id="metadata7">
    <rdf:RDF>
      <cc:Work
         rdf:about="">
        <dc:format>image/svg+xml</dc:format>
        <dc:type
           rdf:resource="http://purl.org/dc/dcmitype/StillImage" />
        <dc:title />
      </cc:Work>
    </rdf:RDF>
  </metadata>
  <g
     inkscape:label="Layer 1"
     inkscape:groupmode="layer"
     id="layer1"
     transform="translate(0,-956.36218)">
    <rect
       style="fill:#ffffff;fill-opacity:0;fill-rule:nonzero;stroke:none"
       id="rect3775"
       width="96"
       height="96"
       x="0"
       y="956.36218"
       ry="0" />
    <path
       style="fill:#000000;fill-opacity:0.09589041;fill-rule:nonzero;stroke:none"
       d="m 3.353015,956.30662 c -1.884176,0 -3.4111555,1.43156 -3.4111555,3.19799 l 0,83.65949 c 0,1.7665 1.5269795,3.1981 3.4111555,3.1981 l 89.23583,0 c 1.884174,0 3.411155,-1.4316 3.411155,-3.1981 l 0,-83.65949 c 0,-1.76643 -1.526981,-3.19799 -3.411155,-3.19799 z"
       id="rect3772"
       inkscape:connector-curvature="0"
       sodipodi:nodetypes="sssssssss" />
    <path
       style="fill:#000000;fill-opacity:0.18721463;fill-rule:nonzero;stroke:none"
       d="m 1.0459761,1041.8066 0,7.4219 c 0,1.7392 1.461916,3.1337 3.2852054,3.1337 l 86.3836135,0 c 1.823288,0 3.285205,-1.3945 3.285205,-3.1337 l 0,-7.4219 -92.9540239,0 z"
       id="rect3785"
       inkscape:connector-curvature="0" />
    <path
       style="fill:#000000;fill-opacity:0.38356168;fill-rule:nonzero;stroke:none"
       d="m 1.0459761,1041.8066 0,5.3807 c 0,1.762 1.461916,3.1749 3.2852054,3.1749 l 86.3836135,0 c 1.823288,0 3.285205,-1.4129 3.285205,-3.1749 l 0,-5.3807 -92.9540239,0 z"
       id="rect3783"
       inkscape:connector-curvature="0" />
    <rect
       style="fill:url(#linearGradient3770);fill-opacity:1;fill-rule:nonzero;stroke:none"
       id="rect2985"
       width="92.954025"
       height="89"
       x="1.045977"
       y="-1046.3622"
       ry="3.1511393"
       transform="scale(1,-1)" />
    <path
       style="fill:#000000;fill-opacity:0.38356168;fill-rule:nonzero;stroke:none"
       d="m 1,1042.3622 0.045976,2.7457 c 0.03024,1.8058 1.461916,3.2543 3.2852054,3.2543 l 86.3836136,0 c 1.823288,0 3.285205,-1.4481 3.285205,-3.2543 l -0.04598,-2.7457 z"
       id="rect3781"
       inkscape:connector-curvature="0"
       sodipodi:nodetypes="csssscc" />
    <rect
       style="fill:#ffffff;fill-opacity:0.30000001;fill-rule:nonzero;stroke:none"
       id="rect3770"
       width="92.954033"
       height="2.000005"
       x="1.045976"
       y="1040.3622" />
    <path
       style="fill:#ffffff;fill-opacity:1;fill-rule:nonzero;stroke:none"
       d="m 47.687763,972.31865 c -3.626936,0.003 -1.748343,6.01093 -4.673742,8.17905 -0.325898,0.0784 -0.645812,0.15986 -0.965228,0.254 -3.61753,-0.41495 -4.985788,-6.56091 -8.128246,-4.74994 -3.132687,1.81205 1.47064,6.06128 0.05081,9.39829 -0.0031,0.007 0.0031,0.0181 0,0.0254 -0.234747,0.2236 -0.462222,0.45108 -0.685821,0.68583 -0.0041,0.005 -0.02134,-0.005 -0.0254,0 -3.340346,1.4494 -7.582322,-3.16499 -9.398284,-0.0254 -1.819207,3.15689 4.360562,4.52424 4.724542,8.17906 -0.0831,0.28627 -0.158179,0.57216 -0.228607,0.86356 -2.140064,2.98895 -8.201553,1.07939 -8.204448,4.72463 0.003,3.65828 6.110351,1.71508 8.229849,4.75008 0.06524,0.2653 0.127458,0.5264 0.203206,0.7874 -0.338112,3.6736 -6.54795,5.0658 -4.724542,8.2298 1.828543,3.1612 6.123961,-1.5698 9.474486,-0.025 0.199519,0.208 0.401296,0.4105 0.609618,0.6096 1.544414,3.3506 -3.186631,7.646 -0.0254,9.4745 3.185645,1.8358 4.550171,-4.4656 8.280651,-4.7245 0.217969,0.063 0.439452,0.097 0.66042,0.1524 3.134714,2.0745 1.140166,8.2553 4.826146,8.2553 3.68598,0 1.691433,-6.1812 4.826146,-8.2553 0.220968,-0.054 0.442451,-0.09 0.66042,-0.1524 3.730697,0.2592 5.0965,6.5628 8.280651,4.7245 3.161234,-1.8285 -1.56981,-6.1239 -0.0254,-9.4745 0.208322,-0.1991 0.410099,-0.4016 0.609618,-0.6096 3.350921,-1.5442 7.648512,3.1881 9.474486,0.025 1.823415,-3.1641 -4.386423,-4.5562 -4.724542,-8.2298 0.07575,-0.261 0.137973,-0.5221 0.203206,-0.7874 2.11995,-3.035 8.229849,-1.0918 8.229849,-4.75008 -0.0029,-3.64524 -6.064376,-1.73568 -8.204448,-4.72463 -0.07043,-0.2914 -0.145509,-0.57729 -0.228607,-0.86356 0.364383,-3.65505 6.546311,-5.02367 4.724542,-8.17906 -1.815955,-3.13957 -6.05793,1.47481 -9.398284,0.0254 -0.007,-0.003 -0.01845,0.003 -0.0254,0 -0.223599,-0.23475 -0.451074,-0.46223 -0.685821,-0.68583 -0.0031,-0.007 0.0031,-0.0181 0,-0.0254 -1.419593,-3.33744 3.184959,-7.58879 0.0508,-9.39829 -3.142454,-1.81098 -4.510713,4.33499 -8.128246,4.74994 -0.319416,-0.0941 -0.63933,-0.17568 -0.965228,-0.254 -2.925422,-2.16813 -1.046829,-8.17618 -4.673766,-8.17905 z m 0,16.3327 c 6.176017,0 11.176339,5.00032 11.176339,11.17627 0,6.17628 -5.000322,11.17648 -11.176339,11.17648 -6.176016,0 -11.176338,-5.0002 -11.176338,-11.17648 0,-6.17595 5.000322,-11.17627 11.176338,-11.17627 z"
       id="path3761"
       inkscape:connector-curvature="0" />
  </g>
</svg>
