<?xml version="1.0" encoding="UTF-8" standalone="no"?>
<!-- Created with Inkscape (http://www.inkscape.org/) -->

<svg
   xmlns:dc="http://purl.org/dc/elements/1.1/"
   xmlns:cc="http://creativecommons.org/ns#"
   xmlns:rdf="http://www.w3.org/1999/02/22-rdf-syntax-ns#"
   xmlns:svg="http://www.w3.org/2000/svg"
   xmlns="http://www.w3.org/2000/svg"
   xmlns:xlink="http://www.w3.org/1999/xlink"
   xmlns:sodipodi="http://sodipodi.sourceforge.net/DTD/sodipodi-0.dtd"
   xmlns:inkscape="http://www.inkscape.org/namespaces/inkscape"
   width="96"
   height="96"
   id="svg2"
   version="1.1"
   inkscape:version="0.48.4 r9939"
   sodipodi:docname="docky.svg">
  <defs
     id="defs4">
    <linearGradient
       id="linearGradient3762">
      <stop
         style="stop-color:#0055d4;stop-opacity:1;"
         offset="0"
         id="stop3764" />
      <stop
         style="stop-color:#7700d4;stop-opacity:1;"
         offset="1"
         id="stop3766" />
    </linearGradient>
    <linearGradient
       inkscape:collect="always"
       xlink:href="#linearGradient3762"
       id="linearGradient3768"
       x1="40"
       y1="997.36218"
       x2="95"
       y2="957.36218"
       gradientUnits="userSpaceOnUse" />
  </defs>
  <sodipodi:namedview
     id="base"
     pagecolor="#ffffff"
     bordercolor="#666666"
     borderopacity="1.0"
     inkscape:pageopacity="0.0"
     inkscape:pageshadow="2"
     inkscape:zoom="5.90625"
     inkscape:cx="17.414022"
     inkscape:cy="48"
     inkscape:document-units="px"
     inkscape:current-layer="layer1"
     showgrid="true"
     inkscape:snap-page="true"
     inkscape:snap-global="true"
     inkscape:snap-center="true"
     inkscape:snap-object-midpoints="false"
     showguides="true"
     inkscape:guide-bbox="true"
     inkscape:snap-bbox="true"
     inkscape:object-paths="true"
     inkscape:object-nodes="true"
     inkscape:window-width="1305"
     inkscape:window-height="744"
     inkscape:window-x="61"
     inkscape:window-y="24"
     inkscape:window-maximized="1"
     inkscape:snap-midpoints="false"
     inkscape:snap-grids="true"
     inkscape:snap-to-guides="false">
    <inkscape:grid
       type="xygrid"
       id="grid3002"
       empspacing="5"
       visible="true"
       enabled="true"
       snapvisiblegridlinesonly="true" />
  </sodipodi:namedview>
  <metadata
     id="metadata7">
    <rdf:RDF>
      <cc:Work
         rdf:about="">
        <dc:format>image/svg+xml</dc:format>
        <dc:type
           rdf:resource="http://purl.org/dc/dcmitype/StillImage" />
        <dc:title />
      </cc:Work>
    </rdf:RDF>
  </metadata>
  <g
     inkscape:label="Layer 1"
     inkscape:groupmode="layer"
     id="layer1"
     transform="translate(0,-956.36218)">
    <rect
       style="fill:#ffffff;fill-opacity:0;fill-rule:nonzero;stroke:none"
       id="rect3775"
       width="96"
       height="96"
       x="0"
       y="956.36218"
       ry="0" />
    <path
       style="fill:#000000;fill-opacity:0.09589041;fill-rule:nonzero;stroke:none"
       d="m 3.353015,956.30662 c -1.884176,0 -3.4111555,1.43156 -3.4111555,3.19799 l 0,83.65949 c 0,1.7665 1.5269795,3.1981 3.4111555,3.1981 l 89.23583,0 c 1.884174,0 3.411155,-1.4316 3.411155,-3.1981 l 0,-83.65949 c 0,-1.76643 -1.526981,-3.19799 -3.411155,-3.19799 z"
       id="rect3772"
       inkscape:connector-curvature="0"
       sodipodi:nodetypes="sssssssss" />
    <path
       style="fill:#000000;fill-opacity:0.18721463;fill-rule:nonzero;stroke:none"
       d="m 1.0459761,1041.8066 0,7.4219 c 0,1.7392 1.461916,3.1337 3.2852054,3.1337 l 86.3836135,0 c 1.823288,0 3.285205,-1.3945 3.285205,-3.1337 l 0,-7.4219 -92.9540239,0 z"
       id="rect3785"
       inkscape:connector-curvature="0" />
    <path
       style="fill:#000000;fill-opacity:0.38356168;fill-rule:nonzero;stroke:none"
       d="m 1.0459761,1041.8066 0,5.3807 c 0,1.762 1.461916,3.1749 3.2852054,3.1749 l 86.3836135,0 c 1.823288,0 3.285205,-1.4129 3.285205,-3.1749 l 0,-5.3807 -92.9540239,0 z"
       id="rect3783"
       inkscape:connector-curvature="0" />
    <rect
       style="fill:url(#linearGradient3768);fill-opacity:1;fill-rule:nonzero;stroke:none"
       id="rect2985-2"
       width="93"
       height="88.999962"
       x="0.9999969"
       y="957.36224"
       ry="3.1511383" />
    <path
       style="fill:#000000;fill-opacity:0.38356168;fill-rule:nonzero;stroke:none"
       d="m 1,1042.3622 0.045976,2.7457 c 0.03024,1.8058 1.461916,3.2543 3.2852054,3.2543 l 86.3836136,0 c 1.823288,0 3.285205,-1.4481 3.285205,-3.2543 l -0.04598,-2.7457 z"
       id="rect3781"
       inkscape:connector-curvature="0"
       sodipodi:nodetypes="csssscc" />
    <rect
       style="fill:#ffffff;fill-opacity:0.30000001;fill-rule:nonzero;stroke:none"
       id="rect3770"
       width="92.954033"
       height="2.000005"
       x="1.045976"
       y="1040.3622" />
    <path
       inkscape:connector-curvature="0"
       id="path3787"
       d="m 20.036846,957.36218 0,55.78722 28.312427,12 28.183553,-12 0,-55.78722 z"
       style="fill:#ffffff;fill-opacity:0.18264842;fill-rule:nonzero;stroke:none"
       sodipodi:nodetypes="cccccc" />
    <path
       style="fill:#ffffff;fill-opacity:1;fill-rule:nonzero;stroke:none;display:inline"
       d="m 48.358335,966.54971 c -3.923336,0 -7.094907,3.2559 -7.09375,7.28125 -8.8e-4,3.03708 1.861051,5.56441 4.4375,6.65625 l 0,2.46875 -10.65625,0 c -0.471068,0 -0.875,0.42282 -0.875,0.9375 l 0,2.71875 c 0,0.51488 0.373391,0.90625 0.875,0.90625 l 10.65625,0 0,33.71864 c 0,0.9368 -1.543382,0.9645 -2.40625,1.0625 -1.264149,0 -2.009238,-0.3434 -3.21875,-0.6875 -2.731491,-0.821 -5.371735,-1.9388 -7.875,-3.3125 -1.053943,-0.6008 -2.062246,-1.1895 -3,-1.9687 -0.404198,-0.3543 -0.855457,-0.8832 -0.8125,-1.4688 0.05462,-0.4434 0.274838,-0.9186 0.75,-1 0.428244,-0.068 0.777572,0.1663 1.15625,0.3125 0.326432,0.1424 0.583467,-0.2522 0.53125,-0.5312 -0.05261,-0.7349 -0.317173,-1.3953 -0.6875,-2.0313 -0.770497,-1.3027 -1.956839,-2.292 -3.1875,-3.125 -1.313926,-0.8624 -2.698808,-1.8077 -3.53125,-3.1875 -0.165555,-0.2549 -0.347763,-0.6979 -0.71875,-0.5625 -0.515757,0.1713 -0.809892,0.7086 -1.0625,1.1563 -0.710734,1.3902 -1.054556,2.881 -1.375,4.4062 -0.263426,1.2136 -0.310777,2.4821 -0.21875,3.7188 0.09527,1.2372 0.168769,2.5011 0.65625,3.6562 0.306967,0.7596 0.836833,1.3747 1.375,1.9688 0.343401,-0.3733 0.711179,-0.7595 1.0625,-1.125 0.455257,-0.47 1.021197,-0.7786 1.6875,-0.6875 0.906888,0.1218 1.724824,0.7097 2.4375,1.25 1.00386,0.8022 1.945922,1.5954 2.96875,2.375 1.618464,1.2711 3.416128,2.2223 5.25,3.125 1.527862,0.7291 3.101979,1.438 4.6875,2.0312 0.283934,0.128 0.58591,0.1452 0.875,0.25 2.853562,1.2201 5.243542,2.643 7.21875,5.1875 0.0019,0.035 -0.0019,0.092 0,0.125 0.02267,-0.032 0.07108,-0.066 0.09375,-0.094 0.02267,0.03 0.07108,0.066 0.09375,0.094 0.01406,-0.07 -0.01406,-0.1486 0,-0.2187 0.08044,-0.1028 0.168007,-0.151 0.25,-0.25 1.924416,-2.3241 4.248403,-3.7116 6.96875,-4.875 0.28908,-0.1052 0.591066,-0.094 0.875,-0.2188 1.585521,-0.5929 3.159638,-1.3017 4.6875,-2.0312 1.833872,-0.9027 3.631537,-1.8535 5.25,-3.125 1.022818,-0.7791 1.93364,-1.6039 2.9375,-2.4063 0.712685,-0.5398 1.561872,-1.0984 2.46875,-1.2187 0.666313,-0.092 1.232234,0.2174 1.6875,0.6875 0.351312,0.3658 0.719099,0.7516 1.0625,1.125 0.538168,-0.5941 1.068023,-1.2097 1.375,-1.9688 0.487441,-1.1552 0.560993,-2.4189 0.65625,-3.6562 0.09201,-1.2366 0.04468,-2.5053 -0.21875,-3.7188 -0.320447,-1.5249 -0.664266,-3.0161 -1.375,-4.4062 -0.252607,-0.448 -0.546753,-0.9844 -1.0625,-1.1563 -0.370986,-0.1341 -0.553157,0.3074 -0.71875,0.5625 -0.832432,1.3793 -2.217324,2.3249 -3.53125,3.1875 -1.230651,0.8332 -2.417012,1.8223 -3.1875,3.125 -0.370327,0.6362 -0.634958,1.2964 -0.6875,2.0313 -0.05223,0.2789 0.204828,0.6759 0.53125,0.5312 0.378678,-0.1444 0.728006,-0.382 1.15625,-0.3125 0.475152,0.085 0.695402,0.5567 0.75,1 0.04295,0.5861 -0.408313,1.0832 -0.8125,1.4375 -0.937755,0.7791 -1.946047,1.3681 -3,1.9688 -2.503265,1.374 -5.143509,2.5223 -7.875,3.3437 -1.209512,0.3436 -1.954591,0.6794 -3.21875,0.6875 -1.08614,0.1981 -2.40625,-0.4158 -2.40625,-1.0625 l 0,-33.71863 10.65625,0 c 0.409994,0 0.875,-0.36022 0.875,-0.90625 l 0,-2.71875 c 0,-0.53076 -0.403942,-0.9375 -0.875,-0.9375 l -10.65625,0 0,-2.46875 c 2.576449,-1.09226 4.43839,-3.61877 4.4375,-6.65625 9.57e-4,-3.89354 -3.003094,-7.01674 -6.75,-7.21875 -0.125266,-0.007 -0.216819,-0.0625 -0.34375,-0.0625 z m -0.15625,3.5625 c 0.17906,0 0.328046,0.0675 0.5,0.0937 1.65704,0.25482 2.969276,1.63607 2.96875,3.40625 5.16e-4,1.77058 -1.31171,3.20519 -2.96875,3.46875 -0.171954,0.0273 -0.32094,0.0937 -0.5,0.0937 -1.90455,0 -3.469333,-1.6082 -3.46875,-3.5625 -5.83e-4,-1.95389 1.564219,-3.5 3.46875,-3.5 z"
       id="path3373"
       inkscape:connector-curvature="0" />
    <path
       style="fill:#ffffff;fill-opacity:0.18264842;fill-rule:nonzero;stroke:none"
       d="m 41.296544,957.36218 0,16.6357 6.545782,-6.08336 7.430802,6.08336 0,-16.6357 z"
       id="path3785"
       inkscape:connector-curvature="0"
       sodipodi:nodetypes="cccccc" />
    <path
       style="fill:#ffffff;fill-opacity:0.18264842;fill-rule:nonzero;stroke:none"
       d="m 34.062367,957.36218 0,29.0625 28.444938,0 0,-29.0625 -28.444938,0 z"
       id="rect3780"
       inkscape:connector-curvature="0" />
    <path
       inkscape:connector-curvature="0"
       id="path3783"
       d="m 45.717617,957.36218 0,35.39539 5.134438,0 0,-35.39539 -5.134438,0 z"
       style="fill:#ffffff;fill-opacity:0.45205479;fill-rule:nonzero;stroke:none" />
    <path
       inkscape:connector-curvature="0"
       id="path3789"
       d="m 66,957.36218 0,56.43762 10.363844,0 0,-56.43762 -10.363844,0 z"
       style="fill:#ffffff;fill-opacity:0.18264842;fill-rule:nonzero;stroke:none" />
    <path
       style="fill:#ffffff;fill-opacity:0.18264842;fill-rule:nonzero;stroke:none"
       d="m 20,957.36218 0,56.43762 10.363844,0 0,-56.43762 -10.363844,0 z"
       id="path3791"
       inkscape:connector-curvature="0" />
  </g>
</svg>
