<?xml version="1.0" encoding="UTF-8" standalone="no"?>
<!-- Created with Inkscape (http://www.inkscape.org/) -->

<svg
   xmlns:dc="http://purl.org/dc/elements/1.1/"
   xmlns:cc="http://creativecommons.org/ns#"
   xmlns:rdf="http://www.w3.org/1999/02/22-rdf-syntax-ns#"
   xmlns:svg="http://www.w3.org/2000/svg"
   xmlns="http://www.w3.org/2000/svg"
   xmlns:xlink="http://www.w3.org/1999/xlink"
   xmlns:sodipodi="http://sodipodi.sourceforge.net/DTD/sodipodi-0.dtd"
   xmlns:inkscape="http://www.inkscape.org/namespaces/inkscape"
   width="96"
   height="96"
   id="svg2"
   version="1.1"
   inkscape:version="0.48.4 r9939"
   sodipodi:docname="dogecoin.svg">
  <defs
     id="defs4">
    <linearGradient
       id="linearGradient3781">
      <stop
         style="stop-color:#000000;stop-opacity:1;"
         offset="0"
         id="stop3783" />
      <stop
         style="stop-color:#545454;stop-opacity:0.94615382;"
         offset="1"
         id="stop3785" />
    </linearGradient>
    <linearGradient
       id="linearGradient3774">
      <stop
         style="stop-color:#fcf611;stop-opacity:1;"
         offset="0"
         id="stop3776" />
      <stop
         style="stop-color:#fca311;stop-opacity:1;"
         offset="1"
         id="stop3778" />
    </linearGradient>
    <radialGradient
       inkscape:collect="always"
       xlink:href="#linearGradient3774"
       id="radialGradient3780"
       cx="47.499997"
       cy="1001.8622"
       fx="47.499997"
       fy="1001.8622"
       r="46.5"
       gradientTransform="matrix(1,0,0,0.95698884,0,43.091259)"
       gradientUnits="userSpaceOnUse" />
    <linearGradient
       inkscape:collect="always"
       xlink:href="#linearGradient3781"
       id="linearGradient3787"
       x1="40"
       y1="61"
       x2="40"
       y2="21"
       gradientUnits="userSpaceOnUse"
       gradientTransform="matrix(1.1771218,0,0,1,-5.3247232,956.36218)" />
  </defs>
  <sodipodi:namedview
     id="base"
     pagecolor="#ffffff"
     bordercolor="#666666"
     borderopacity="1.0"
     inkscape:pageopacity="0.0"
     inkscape:pageshadow="2"
     inkscape:zoom="5.90625"
     inkscape:cx="19.700791"
     inkscape:cy="48"
     inkscape:document-units="px"
     inkscape:current-layer="layer1"
     showgrid="true"
     inkscape:snap-page="true"
     inkscape:snap-global="true"
     inkscape:snap-center="true"
     inkscape:snap-object-midpoints="false"
     showguides="true"
     inkscape:guide-bbox="true"
     inkscape:snap-bbox="true"
     inkscape:object-paths="true"
     inkscape:object-nodes="true"
     inkscape:window-width="1305"
     inkscape:window-height="744"
     inkscape:window-x="61"
     inkscape:window-y="24"
     inkscape:window-maximized="1"
     inkscape:snap-midpoints="false"
     inkscape:snap-grids="true"
     inkscape:snap-to-guides="false">
    <inkscape:grid
       type="xygrid"
       id="grid3002"
       empspacing="5"
       visible="true"
       enabled="true"
       snapvisiblegridlinesonly="true" />
  </sodipodi:namedview>
  <metadata
     id="metadata7">
    <rdf:RDF>
      <cc:Work
         rdf:about="">
        <dc:format>image/svg+xml</dc:format>
        <dc:type
           rdf:resource="http://purl.org/dc/dcmitype/StillImage" />
        <dc:title />
      </cc:Work>
    </rdf:RDF>
  </metadata>
  <g
     inkscape:label="Layer 1"
     inkscape:groupmode="layer"
     id="layer1"
     transform="translate(0,-956.36218)">
    <rect
       style="fill:#ffffff;fill-opacity:0;fill-rule:nonzero;stroke:none"
       id="rect3775"
       width="96"
       height="96"
       x="0"
       y="956.36218"
       ry="0" />
    <path
       style="fill:#000000;fill-opacity:0.09589041;fill-rule:nonzero;stroke:none"
       d="m 3.353015,956.30662 c -1.884176,0 -3.4111555,1.43156 -3.4111555,3.19799 l 0,83.65949 c 0,1.7665 1.5269795,3.1981 3.4111555,3.1981 l 89.23583,0 c 1.884174,0 3.411155,-1.4316 3.411155,-3.1981 l 0,-83.65949 c 0,-1.76643 -1.526981,-3.19799 -3.411155,-3.19799 z"
       id="rect3772"
       inkscape:connector-curvature="0"
       sodipodi:nodetypes="sssssssss" />
    <path
       style="fill:#000000;fill-opacity:0.18721463;fill-rule:nonzero;stroke:none"
       d="m 1.0459761,1041.8066 0,7.4219 c 0,1.7392 1.461916,3.1337 3.2852054,3.1337 l 86.3836135,0 c 1.823288,0 3.285205,-1.3945 3.285205,-3.1337 l 0,-7.4219 -92.9540239,0 z"
       id="rect3785"
       inkscape:connector-curvature="0" />
    <path
       style="fill:#000000;fill-opacity:0.38356168;fill-rule:nonzero;stroke:none"
       d="m 1.0459761,1041.8066 0,5.3807 c 0,1.762 1.461916,3.1749 3.2852054,3.1749 l 86.3836135,0 c 1.823288,0 3.285205,-1.4129 3.285205,-3.1749 l 0,-5.3807 -92.9540239,0 z"
       id="rect3783"
       inkscape:connector-curvature="0" />
    <rect
       style="fill:url(#radialGradient3780);fill-opacity:1;fill-rule:nonzero;stroke:none"
       id="rect2985-2"
       width="93"
       height="88.999962"
       x="0.9999969"
       y="957.36224"
       ry="3.1511383" />
    <path
       style="fill:#000000;fill-opacity:0.38356168;fill-rule:nonzero;stroke:none"
       d="m 1,1042.3622 0.045976,2.7457 c 0.03024,1.8058 1.461916,3.2543 3.2852054,3.2543 l 86.3836136,0 c 1.823288,0 3.285205,-1.4481 3.285205,-3.2543 l -0.04598,-2.7457 z"
       id="rect3781"
       inkscape:connector-curvature="0"
       sodipodi:nodetypes="csssscc" />
    <rect
       style="fill:#ffffff;fill-opacity:0.30000001;fill-rule:nonzero;stroke:none"
       id="rect3770"
       width="92.954033"
       height="2.000005"
       x="1.045976"
       y="1040.3622" />
    <path
       style="font-size:50.84484863px;font-style:normal;font-variant:normal;font-weight:normal;font-stretch:normal;text-align:end;line-height:125%;letter-spacing:0px;word-spacing:0px;text-anchor:end;fill:url(#linearGradient3787);fill-opacity:1;stroke:none;font-family:Andale Mono;-inkscape-font-specification:Andale Mono"
       d="m 30.0625,977.11218 0,2.21875 c 0.389525,0.0381 0.944015,0.10455 1.655327,0.21875 0.728241,0.11428 1.416393,0.33261 2.059964,0.65625 0.643559,0.32372 1.067303,0.74817 1.287477,1.28125 0.22016,0.51411 0.331058,1.10268 0.331065,1.75 l 0,28.71872 c -7e-6,0.6855 -0.130755,1.2862 -0.367851,1.7813 -0.23711,0.476 -0.641004,0.8706 -1.250691,1.1562 -0.270981,0.1333 -0.805623,0.2486 -1.618543,0.3438 -0.812927,0.095 -1.518015,0.1372 -2.059963,0.1562 l 0,2.2188 18.171817,0 c 2.828278,0 5.518425,-0.3756 8.092713,-1.1563 2.591167,-0.7996 4.920031,-2.0066 6.952375,-3.625 1.998403,-1.6184 3.579567,-3.6864 4.782057,-6.2187 1.219347,-2.5513 1.839212,-5.5416 1.839253,-8.96877 -4.1e-5,-3.90315 -0.668344,-7.2216 -2.023178,-9.90625 -1.354913,-2.70363 -3.132199,-4.85033 -5.333833,-6.46875 -2.167831,-1.59931 -4.431321,-2.69097 -6.76845,-3.28125 -2.337184,-0.59019 -4.5353,-0.87496 -6.584525,-0.875 l -19.165014,0 z m 18.061462,2.59375 c 1.862931,4e-5 3.509469,0.42449 4.965983,1.28125 1.473399,0.85683 2.696194,2.06377 3.678505,3.625 0.982255,1.5613 1.73578,3.44766 2.243889,5.65625 0.508046,2.20865 0.772454,4.65915 0.772486,7.34375 -3.2e-5,2.74172 -0.199066,5.16782 -0.588561,7.28122 -0.372622,2.0944 -0.972637,3.8831 -1.802468,5.4063 -0.846825,1.5422 -1.975656,2.7316 -3.34744,3.5312 -1.371835,0.7997 -2.978675,1.1875 -4.892412,1.1875 -0.91456,0 -1.668087,-0.103 -2.243889,-0.3125 -0.558903,-0.2284 -1.045108,-0.5376 -1.434617,-0.9375 -0.389544,-0.3998 -0.676713,-0.8609 -0.846056,-1.375 -0.15244,-0.5331 -0.220727,-1.127 -0.22071,-1.8125 l 0,-30.78122 c 0.372574,-0.019 0.946914,-0.0122 1.692112,-0.0312 0.762098,-0.038 1.430401,-0.0625 2.023178,-0.0625 z"
       id="text3008"
       inkscape:connector-curvature="0" />
  </g>
</svg>
