<?xml version="1.0" encoding="UTF-8" standalone="no"?>
<!-- Created with Inkscape (http://www.inkscape.org/) -->

<svg
   xmlns:dc="http://purl.org/dc/elements/1.1/"
   xmlns:cc="http://creativecommons.org/ns#"
   xmlns:rdf="http://www.w3.org/1999/02/22-rdf-syntax-ns#"
   xmlns:svg="http://www.w3.org/2000/svg"
   xmlns="http://www.w3.org/2000/svg"
   xmlns:xlink="http://www.w3.org/1999/xlink"
   xmlns:sodipodi="http://sodipodi.sourceforge.net/DTD/sodipodi-0.dtd"
   xmlns:inkscape="http://www.inkscape.org/namespaces/inkscape"
   width="96"
   height="96"
   id="svg2"
   version="1.1"
   inkscape:version="0.48.4 r9939"
   sodipodi:docname="dolphin.svg">
  <defs
     id="defs4">
    <linearGradient
       id="linearGradient3775">
      <stop
         style="stop-color:#5252ab;stop-opacity:1;"
         offset="0"
         id="stop3777" />
      <stop
         style="stop-color:#9b9bfd;stop-opacity:1;"
         offset="1"
         id="stop3779" />
    </linearGradient>
    <linearGradient
       inkscape:collect="always"
       xlink:href="#linearGradient3775"
       id="linearGradient3781"
       x1="30"
       y1="1047.3622"
       x2="30"
       y2="957.36218"
       gradientUnits="userSpaceOnUse" />
  </defs>
  <sodipodi:namedview
     id="base"
     pagecolor="#ffffff"
     bordercolor="#666666"
     borderopacity="1.0"
     inkscape:pageopacity="0.0"
     inkscape:pageshadow="2"
     inkscape:zoom="5.7143649"
     inkscape:cx="50.35591"
     inkscape:cy="47.599764"
     inkscape:document-units="px"
     inkscape:current-layer="layer1"
     showgrid="true"
     inkscape:snap-page="true"
     inkscape:snap-global="false"
     inkscape:snap-center="true"
     inkscape:snap-object-midpoints="false"
     showguides="true"
     inkscape:guide-bbox="true"
     inkscape:snap-bbox="true"
     inkscape:object-paths="true"
     inkscape:object-nodes="true"
     inkscape:window-width="1305"
     inkscape:window-height="744"
     inkscape:window-x="61"
     inkscape:window-y="24"
     inkscape:window-maximized="1"
     inkscape:snap-midpoints="true"
     inkscape:snap-grids="true"
     inkscape:snap-to-guides="false">
    <inkscape:grid
       type="xygrid"
       id="grid3002"
       empspacing="5"
       visible="true"
       enabled="true"
       snapvisiblegridlinesonly="true" />
  </sodipodi:namedview>
  <metadata
     id="metadata7">
    <rdf:RDF>
      <cc:Work
         rdf:about="">
        <dc:format>image/svg+xml</dc:format>
        <dc:type
           rdf:resource="http://purl.org/dc/dcmitype/StillImage" />
        <dc:title />
      </cc:Work>
    </rdf:RDF>
  </metadata>
  <g
     inkscape:label="Layer 1"
     inkscape:groupmode="layer"
     id="layer1"
     transform="translate(0,-956.36218)">
    <rect
       style="fill:#ffffff;fill-opacity:0;fill-rule:nonzero;stroke:none"
       id="rect3775"
       width="96"
       height="96"
       x="0"
       y="956.36218"
       ry="0" />
    <path
       style="fill:#000000;fill-opacity:0.09589041;fill-rule:nonzero;stroke:none"
       d="m 3.353015,956.30662 c -1.884176,0 -3.4111555,1.43156 -3.4111555,3.19799 l 0,83.65949 c 0,1.7665 1.5269795,3.1981 3.4111555,3.1981 l 89.23583,0 c 1.884174,0 3.411155,-1.4316 3.411155,-3.1981 l 0,-83.65949 c 0,-1.76643 -1.526981,-3.19799 -3.411155,-3.19799 z"
       id="rect3772"
       inkscape:connector-curvature="0"
       sodipodi:nodetypes="sssssssss" />
    <path
       style="fill:#000000;fill-opacity:0.18721463;fill-rule:nonzero;stroke:none"
       d="m 1.0459761,1041.8066 0,7.4219 c 0,1.7392 1.461916,3.1337 3.2852054,3.1337 l 86.3836135,0 c 1.823288,0 3.285205,-1.3945 3.285205,-3.1337 l 0,-7.4219 -92.9540239,0 z"
       id="rect3785"
       inkscape:connector-curvature="0" />
    <path
       style="fill:#000000;fill-opacity:0.38356168;fill-rule:nonzero;stroke:none"
       d="m 1.0459761,1041.8066 0,5.3807 c 0,1.762 1.461916,3.1749 3.2852054,3.1749 l 86.3836135,0 c 1.823288,0 3.285205,-1.4129 3.285205,-3.1749 l 0,-5.3807 -92.9540239,0 z"
       id="rect3783"
       inkscape:connector-curvature="0" />
    <rect
       style="fill:url(#linearGradient3781);fill-opacity:1;fill-rule:nonzero;stroke:none"
       id="rect2985"
       width="92.954025"
       height="89"
       x="1.045977"
       y="957.36218"
       ry="3.1511393" />
    <rect
       style="fill:#ffffff;fill-opacity:0.11764706;fill-rule:nonzero;stroke:none"
       id="rect2995"
       width="67.867844"
       height="89"
       x="15.843483"
       y="957.36218" />
    <rect
       y="957.36218"
       x="69.042747"
       height="89"
       width="5.9572544"
       id="rect2997"
       style="fill:#ffffff;fill-opacity:0.11764706;fill-rule:nonzero;stroke:none" />
    <rect
       style="fill:#ffffff;fill-opacity:0.11764706;fill-rule:nonzero;stroke:none"
       id="rect2999"
       width="7.5322318"
       height="89"
       x="38.418171"
       y="957.36218" />
    <path
       inkscape:connector-curvature="0"
       d="m 16.55531,1007.3677 c -1.59394,0.3888 0.99444,-3.8157 0.99444,-3.8157 0,0 1.85022,-11.93828 9.74771,-16.20647 7.8975,-4.2682 11.259,-5.19444 11.259,-5.19444 0,0 4.24584,-7.56488 6.65856,-7.23673 1.49146,0.10287 -0.21445,0.89057 -0.715,2.23294 -0.47719,1.37015 -0.61891,4.22471 0.50058,4.6032 1.11951,0.37848 2.930297,-0.0854 7.392264,1.29055 4.857762,1.50973 10.966265,7.00784 12.632109,9.78376 1.665835,2.77597 9.876305,14.29019 9.876305,14.29019 7.201047,0.8343 9.375535,7.3964 8.73465,8.166 -0.646089,0.8428 -0.109346,0.5318 -0.876013,0.2289 -0.766611,-0.3029 -1.910714,-1.8493 -3.723724,-2.0465 -1.884269,-0.2026 -2.956616,-0.9089 -3.806884,-0.8745 -0.885907,0.032 -0.936432,2.0899 -2.451034,3.2405 -1.478945,1.1533 -0.216215,3.3836 -1.489641,3.828 -1.199575,0.4133 -2.067686,-4.1806 -1.996878,-6.1881 0.0709,-2.0075 2.261609,-4.2734 2.66524,-5.2495 C 72.360606,1007.2436 63.128898,994.30278 45,997.36218 c -1.17449,2.4157 -10.61793,3.73282 -10.61793,3.73282 -2.09898,0.1884 2.66047,1.6642 0.81092,1.8713 -4.24539,0.7961 -5.24331,-1.7556 -8.48384,-1.0485 -3.24054,0.7073 -8.55992,5.0612 -10.15384,5.4499 z"
       id="path4151"
       sodipodi:nodetypes="czccczczzczzzzzzzzccczz"
       style="fill:#ffffff;fill-opacity:1;fill-rule:evenodd;stroke:none" />
    <path
       style="fill:#000000;fill-opacity:0.38356168;fill-rule:nonzero;stroke:none"
       d="m 1,1042.3622 0.045976,2.7457 c 0.03024,1.8058 1.461916,3.2543 3.2852054,3.2543 l 86.3836136,0 c 1.823288,0 3.285205,-1.4481 3.285205,-3.2543 l -0.04598,-2.7457 z"
       id="rect3781"
       inkscape:connector-curvature="0"
       sodipodi:nodetypes="csssscc" />
    <rect
       style="fill:#ffffff;fill-opacity:0.30000001;fill-rule:nonzero;stroke:none"
       id="rect3770"
       width="92.954033"
       height="2.000005"
       x="1.045976"
       y="1040.3622" />
  </g>
</svg>
