<?xml version="1.0" encoding="UTF-8" standalone="no"?>
<!-- Created with Inkscape (http://www.inkscape.org/) -->

<svg
   xmlns:dc="http://purl.org/dc/elements/1.1/"
   xmlns:cc="http://creativecommons.org/ns#"
   xmlns:rdf="http://www.w3.org/1999/02/22-rdf-syntax-ns#"
   xmlns:svg="http://www.w3.org/2000/svg"
   xmlns="http://www.w3.org/2000/svg"
   xmlns:xlink="http://www.w3.org/1999/xlink"
   xmlns:sodipodi="http://sodipodi.sourceforge.net/DTD/sodipodi-0.dtd"
   xmlns:inkscape="http://www.inkscape.org/namespaces/inkscape"
   width="96"
   height="96"
   id="svg2"
   version="1.1"
   inkscape:version="0.48.4 r9939"
   sodipodi:docname="dvd95.svg">
  <defs
     id="defs4">
    <linearGradient
       id="linearGradient3766">
      <stop
         style="stop-color:#360468;stop-opacity:1;"
         offset="0"
         id="stop3768" />
      <stop
         style="stop-color:#58004a;stop-opacity:1;"
         offset="1"
         id="stop3770" />
    </linearGradient>
    <linearGradient
       inkscape:collect="always"
       xlink:href="#linearGradient3766"
       id="linearGradient3772"
       x1="35"
       y1="1007.3622"
       x2="0"
       y2="957.36218"
       gradientUnits="userSpaceOnUse"
       gradientTransform="translate(-94.999994,-2003.7244)" />
    <radialGradient
       inkscape:collect="always"
       xlink:href="#linearGradient3796"
       id="radialGradient3791"
       gradientUnits="userSpaceOnUse"
       gradientTransform="matrix(-3.2141665,3.0759239,0.70454554,0.67424216,165.44887,823.5848)"
       cx="47.5"
       cy="48.5"
       fx="47.5"
       fy="48.5"
       r="27.5" />
    <linearGradient
       id="linearGradient3796">
      <stop
         style="stop-color:#006fff;stop-opacity:1;"
         offset="0"
         id="stop3798" />
      <stop
         style="stop-color:#030077;stop-opacity:1;"
         offset="1"
         id="stop3800" />
    </linearGradient>
  </defs>
  <sodipodi:namedview
     id="base"
     pagecolor="#ffffff"
     bordercolor="#666666"
     borderopacity="1.0"
     inkscape:pageopacity="0.0"
     inkscape:pageshadow="2"
     inkscape:zoom="5.90625"
     inkscape:cx="47.830688"
     inkscape:cy="48"
     inkscape:document-units="px"
     inkscape:current-layer="layer1"
     showgrid="true"
     inkscape:snap-page="true"
     inkscape:snap-global="true"
     inkscape:snap-center="true"
     inkscape:snap-object-midpoints="false"
     showguides="true"
     inkscape:guide-bbox="true"
     inkscape:snap-bbox="true"
     inkscape:object-paths="true"
     inkscape:object-nodes="true"
     inkscape:window-width="1305"
     inkscape:window-height="744"
     inkscape:window-x="61"
     inkscape:window-y="24"
     inkscape:window-maximized="1"
     inkscape:snap-midpoints="false"
     inkscape:snap-grids="true"
     inkscape:snap-to-guides="false">
    <inkscape:grid
       type="xygrid"
       id="grid3002"
       empspacing="5"
       visible="true"
       enabled="true"
       snapvisiblegridlinesonly="true" />
  </sodipodi:namedview>
  <metadata
     id="metadata7">
    <rdf:RDF>
      <cc:Work
         rdf:about="">
        <dc:format>image/svg+xml</dc:format>
        <dc:type
           rdf:resource="http://purl.org/dc/dcmitype/StillImage" />
        <dc:title />
      </cc:Work>
    </rdf:RDF>
  </metadata>
  <g
     inkscape:label="Layer 1"
     inkscape:groupmode="layer"
     id="layer1"
     transform="translate(0,-956.36218)">
    <rect
       style="fill:#ffffff;fill-opacity:0;fill-rule:nonzero;stroke:none"
       id="rect3775"
       width="96"
       height="96"
       x="0"
       y="956.36218"
       ry="0" />
    <path
       style="fill:#000000;fill-opacity:0.09589041;fill-rule:nonzero;stroke:none"
       d="m 3.353015,956.30662 c -1.884176,0 -3.4111555,1.43156 -3.4111555,3.19799 l 0,83.65949 c 0,1.7665 1.5269795,3.1981 3.4111555,3.1981 l 89.23583,0 c 1.884174,0 3.411155,-1.4316 3.411155,-3.1981 l 0,-83.65949 c 0,-1.76643 -1.526981,-3.19799 -3.411155,-3.19799 z"
       id="rect3772"
       inkscape:connector-curvature="0"
       sodipodi:nodetypes="sssssssss" />
    <path
       style="fill:#000000;fill-opacity:0.18721463;fill-rule:nonzero;stroke:none"
       d="m 1.0459761,1041.8066 0,7.4219 c 0,1.7392 1.461916,3.1337 3.2852054,3.1337 l 86.3836135,0 c 1.823288,0 3.285205,-1.3945 3.285205,-3.1337 l 0,-7.4219 -92.9540239,0 z"
       id="rect3785"
       inkscape:connector-curvature="0" />
    <path
       style="fill:#000000;fill-opacity:0.38356168;fill-rule:nonzero;stroke:none"
       d="m 1.0459761,1041.8066 0,5.3807 c 0,1.762 1.461916,3.1749 3.2852054,3.1749 l 86.3836135,0 c 1.823288,0 3.285205,-1.4129 3.285205,-3.1749 l 0,-5.3807 -92.9540239,0 z"
       id="rect3783"
       inkscape:connector-curvature="0" />
    <rect
       style="fill:url(#linearGradient3772);fill-opacity:1;fill-rule:nonzero;stroke:none"
       id="rect2985-2"
       width="93"
       height="88.999962"
       x="-94"
       y="-1046.3622"
       ry="3.1511383"
       transform="scale(-1,-1)" />
    <path
       style="fill:#000000;fill-opacity:0.38356168;fill-rule:nonzero;stroke:none"
       d="m 1,1042.3622 0.045976,2.7457 c 0.03024,1.8058 1.461916,3.2543 3.2852054,3.2543 l 86.3836136,0 c 1.823288,0 3.285205,-1.4481 3.285205,-3.2543 l -0.04598,-2.7457 z"
       id="rect3781"
       inkscape:connector-curvature="0"
       sodipodi:nodetypes="csssscc" />
    <rect
       style="fill:#ffffff;fill-opacity:0.30000001;fill-rule:nonzero;stroke:none"
       id="rect3770"
       width="92.954033"
       height="2.000005"
       x="1.045976"
       y="1040.3622" />
    <path
       inkscape:connector-curvature="0"
       style="fill:#ffffff;fill-opacity:0.26484022;fill-rule:nonzero;stroke:none"
       d="m 4.2868303,957.36218 c -0.9120953,0 -1.7229135,0.35752 -2.3180803,0.92708 C 1.3735833,958.85883 1,959.63477 1,960.50764 l 0,22.87909 17.4375,29.26937 25.741072,8.2775 29.789062,-32.01748 -18.717635,-31.55394 -50.9631687,0 z"
       id="path3766" />
    <path
       sodipodi:nodetypes="ccccccc"
       inkscape:connector-curvature="0"
       id="path3794"
       d="m 12.071429,957.36218 26.571428,42.01672 0,10.9595 16.607142,0 0,-10.9595 -26.571427,-42.01672 z"
       style="fill:#ffffff;fill-opacity:0.26484022;fill-rule:nonzero;stroke:none" />
    <path
       style="fill:url(#radialGradient3791);fill-opacity:1;fill-rule:nonzero;stroke:none"
       d="m 46.946429,973.25504 c 16.815098,0 30.446428,13.04503 30.446428,29.13696 0,16.0918 -13.63133,29.1369 -30.446428,29.1369 C 30.13133,1031.5289 16.5,1018.4838 16.5,1002.392 c 0,-16.09193 13.63133,-29.13696 30.446429,-29.13696 z m 0,21.19047 c -4.585937,0 -8.303572,3.5577 -8.303572,7.94649 0,4.3886 3.717635,7.9464 8.303572,7.9464 4.585936,0 8.30357,-3.5578 8.30357,-7.9464 0,-4.38879 -3.717634,-7.94649 -8.30357,-7.94649 z"
       id="path3006"
       inkscape:connector-curvature="0" />
    <path
       inkscape:connector-curvature="0"
       style="font-size:12.71661282px;font-style:normal;font-variant:normal;font-weight:normal;font-stretch:normal;text-align:end;line-height:125%;letter-spacing:0px;word-spacing:0px;text-anchor:end;fill:#cee007;fill-opacity:1;stroke:none;font-family:Andale Mono;-inkscape-font-specification:Andale Mono"
       d="m 24.526786,1017.424 0,4.536 c 0.314408,0.3297 0.569807,0.7108 0.899554,1.0265 0.404876,0.3874 0.887673,0.6943 1.314731,1.0595 l 0,-4.8341 1.591518,0 c 0.544387,0 0.983268,0.079 1.34933,0.2317 0.375438,0.1438 0.674281,0.3507 0.899554,0.6292 0.225258,0.2784 0.390508,0.6311 0.484375,1.0263 0.103246,0.3863 0.138385,0.8063 0.138393,1.2914 -8e-6,0.5299 -0.0668,0.9891 -0.207589,1.3574 -0.140799,0.3683 -0.318927,0.6605 -0.553571,0.8941 -0.234659,0.2245 -0.495412,0.3978 -0.795759,0.4966 -0.300361,0.099 -0.615032,0.1324 -0.934153,0.1324 l -0.415178,0 c 0.555381,0.4154 1.040793,0.9129 1.626116,1.2913 0.132625,0.086 0.281078,0.1481 0.415179,0.2318 0.159786,-0.047 0.373049,-0.036 0.518973,-0.1 0.572542,-0.2516 1.043076,-0.5953 1.418526,-1.0265 0.38482,-0.4311 0.677226,-0.9302 0.864956,-1.5231 0.187712,-0.5928 0.276776,-1.2528 0.276786,-1.9534 -10e-6,-0.7994 -0.11134,-1.4931 -0.345983,-2.086 -0.225274,-0.5928 -0.555771,-1.0947 -0.968749,-1.4899 -0.40361,-0.3952 -0.85537,-0.6964 -1.418527,-0.894 -0.553785,-0.1976 -1.186073,-0.298 -1.833705,-0.298 l -4.324777,0 z m 9.341517,0 3.252233,9.6349 2.491071,0 3.356027,-9.6349 -2.283482,0 -2.283483,6.7875 -2.248883,-6.7875 -2.283483,0 z m 9.964286,0 0,9.6349 4.324777,0 c 0.769652,0 1.443525,-0.1216 2.006696,-0.3641 0.572543,-0.2515 1.043076,-0.5953 1.418528,-1.0265 0.384819,-0.4311 0.677224,-0.9301 0.864955,-1.523 0.187711,-0.5928 0.276775,-1.2529 0.276785,-1.9535 -1e-5,-0.7994 -0.11134,-1.4931 -0.345981,-2.086 -0.225275,-0.5928 -0.555772,-1.0947 -0.968751,-1.4899 -0.403609,-0.3952 -0.889967,-0.6964 -1.453125,-0.894 -0.553785,-0.1976 -1.151473,-0.2979 -1.799107,-0.2979 l -4.324777,0 z m 13.18192,0 c -0.516238,0 -0.961558,0.085 -1.383928,0.2648 -0.422376,0.1796 -0.797405,0.4472 -1.107143,0.7615 -0.300357,0.3055 -0.523016,0.6705 -0.691965,1.0927 -0.159563,0.4132 -0.242188,0.8724 -0.242188,1.3575 0,0.3773 0.05098,0.7244 0.172992,1.0927 0.122018,0.3682 0.325359,0.7058 0.58817,0.9933 0.28158,0.2963 0.599745,0.5487 1.003347,0.7284 0.4036,0.1707 0.82316,0.2317 1.245537,0.2317 0.478685,0 0.914072,-0.07 1.280133,-0.2317 0.366052,-0.1617 0.69655,-0.4175 0.96875,-0.7947 -0.01878,0.2605 -0.03809,0.5617 -0.103793,0.894 -0.05632,0.3323 -0.170599,0.6637 -0.311384,0.9602 -0.140797,0.2875 -0.318925,0.5218 -0.553571,0.7284 -0.234656,0.1976 -0.533502,0.298 -0.899554,0.298 -0.347288,0 -0.630306,-0.1307 -0.864955,-0.3642 -0.234655,-0.2335 -0.384077,-0.4803 -0.449778,-0.7946 l -1.902901,0 c 0.112632,0.8353 0.456009,1.4622 1.037946,1.9203 0.581935,0.4492 1.290954,0.6953 2.145089,0.6953 0.703952,0 1.311027,-0.1671 1.799108,-0.4635 0.488069,-0.2964 0.866593,-0.6586 1.176339,-1.1258 0.309733,-0.476 0.551166,-1.0054 0.691964,-1.5893 0.140783,-0.5928 0.207582,-1.1798 0.20759,-1.7547 -8e-6,-0.5929 -0.06036,-1.2042 -0.172991,-1.788 -0.11264,-0.5839 -0.297209,-1.0981 -0.58817,-1.5562 -0.290975,-0.4671 -0.68827,-0.8473 -1.176339,-1.1258 -0.48808,-0.2873 -1.126808,-0.4303 -1.868304,-0.4303 z m 5.639509,0.1986 -0.96875,5.2314 1.799107,0 c 0.197105,-0.2605 0.3975,-0.4792 0.622768,-0.596 0.225263,-0.1257 0.54288,-0.1656 0.899554,-0.1656 0.262805,0 0.485466,0.042 0.691964,0.1325 0.215874,0.09 0.40339,0.2026 0.553571,0.3642 0.150172,0.1617 0.270888,0.3473 0.345983,0.5629 0.07508,0.2156 0.103782,0.4528 0.103793,0.6953 -6e-6,0.212 -0.06873,0.4245 -0.138393,0.6291 0.624084,-0.5084 1.323749,-0.9357 1.902902,-1.4899 0.02921,-0.028 0.04009,-0.071 0.0692,-0.1 -0.02376,-0.086 -0.0043,-0.1819 -0.0346,-0.2649 -0.131412,-0.3952 -0.359964,-0.7389 -0.622767,-1.0264 -0.253431,-0.2874 -0.558716,-0.5247 -0.934152,-0.6953 -0.375449,-0.1706 -0.792063,-0.2649 -1.280134,-0.2649 -0.394219,0 -0.762809,0.082 -1.072544,0.1986 -0.309744,0.1079 -0.592763,0.2694 -0.864956,0.5298 l -0.03459,-0.033 0.415179,-2.119 4.047991,0 0,-1.5893 -5.501116,0 z m -5.570313,1.3906 c 0.25342,0 0.494853,0.034 0.691965,0.1325 0.197103,0.098 0.352965,0.2598 0.484375,0.4304 0.140786,0.1616 0.245675,0.3473 0.311384,0.5629 0.07508,0.2066 0.103782,0.4135 0.103793,0.629 -5e-6,0.2336 -0.03809,0.4467 -0.103793,0.6622 -0.06571,0.2066 -0.145386,0.4013 -0.276786,0.563 -0.131411,0.1616 -0.312484,0.2984 -0.518973,0.3973 -0.197112,0.09 -0.429159,0.1324 -0.691965,0.1324 -0.253427,0 -0.460261,-0.067 -0.657365,-0.1656 -0.187725,-0.1077 -0.36236,-0.2356 -0.484376,-0.3973 -0.122022,-0.1706 -0.211085,-0.3562 -0.276786,-0.5628 -0.05631,-0.2156 -0.0692,-0.4377 -0.0692,-0.6622 -2e-6,-0.2156 0.0035,-0.4226 0.0692,-0.6292 0.0657,-0.2066 0.179977,-0.4011 0.311384,-0.5628 0.131403,-0.1617 0.271439,-0.2986 0.449778,-0.3973 0.187717,-0.099 0.413324,-0.1325 0.657365,-0.1325 z m -11.03683,0.1987 1.591518,0 c 0.544386,0 0.983268,0.079 1.34933,0.2317 0.375437,0.1438 0.674281,0.3507 0.899554,0.6292 0.225258,0.2784 0.390507,0.6311 0.484375,1.0263 0.103236,0.3863 0.138384,0.8063 0.138393,1.2914 -9e-6,0.5299 -0.0668,0.9891 -0.207589,1.3574 -0.1408,0.3683 -0.318928,0.6605 -0.553572,0.8941 -0.234659,0.2245 -0.495411,0.3978 -0.795759,0.4966 -0.30036,0.099 -0.615032,0.1324 -0.934152,0.1324 l -1.972098,0 0,-6.0591 z m 15.327008,5.0327 c 0.0094,0.4941 0.114277,0.9471 0.311385,1.3244 0.206493,0.3683 0.492457,0.6756 0.830357,0.9271 0.236135,0.1758 0.513783,0.283 0.795759,0.3973 0.208562,-0.1278 0.452319,-0.1985 0.657366,-0.3311 0.41475,-0.2681 0.741885,-0.6402 1.141741,-0.927 -0.03909,0 -0.06336,0.033 -0.103793,0.033 -0.441149,0 -0.84139,-0.1368 -1.141742,-0.3973 -0.29097,-0.2604 -0.437446,-0.6043 -0.484375,-1.0264 l -2.006696,0 z"
       id="path3785" />
  </g>
</svg>
