<?xml version="1.0" encoding="UTF-8" standalone="no"?>
<!-- Created with Inkscape (http://www.inkscape.org/) -->

<svg
   xmlns:dc="http://purl.org/dc/elements/1.1/"
   xmlns:cc="http://creativecommons.org/ns#"
   xmlns:rdf="http://www.w3.org/1999/02/22-rdf-syntax-ns#"
   xmlns:svg="http://www.w3.org/2000/svg"
   xmlns="http://www.w3.org/2000/svg"
   xmlns:xlink="http://www.w3.org/1999/xlink"
   xmlns:sodipodi="http://sodipodi.sourceforge.net/DTD/sodipodi-0.dtd"
   xmlns:inkscape="http://www.inkscape.org/namespaces/inkscape"
   width="96"
   height="96"
   id="svg2"
   version="1.1"
   inkscape:version="0.48.4 r9939"
   sodipodi:docname="dvdrip.svg">
  <defs
     id="defs4">
    <linearGradient
       inkscape:collect="always"
       id="linearGradient3848">
      <stop
         style="stop-color:#f7e214;stop-opacity:1;"
         offset="0"
         id="stop3850" />
      <stop
         style="stop-color:#f7e214;stop-opacity:0;"
         offset="1"
         id="stop3852" />
    </linearGradient>
    <linearGradient
       id="linearGradient3777">
      <stop
         id="stop3779"
         offset="0"
         style="stop-color:#e000ff;stop-opacity:1;" />
      <stop
         id="stop3781"
         offset="1"
         style="stop-color:#0009ff;stop-opacity:0;" />
    </linearGradient>
    <linearGradient
       id="linearGradient3766">
      <stop
         style="stop-color:#360468;stop-opacity:1;"
         offset="0"
         id="stop3768" />
      <stop
         style="stop-color:#58004a;stop-opacity:1;"
         offset="1"
         id="stop3770" />
    </linearGradient>
    <linearGradient
       inkscape:collect="always"
       xlink:href="#linearGradient3766"
       id="linearGradient3772"
       x1="35"
       y1="1007.3622"
       x2="0"
       y2="957.36218"
       gradientUnits="userSpaceOnUse"
       gradientTransform="translate(-94.999994,-2003.7244)" />
    <radialGradient
       inkscape:collect="always"
       xlink:href="#linearGradient3796"
       id="radialGradient3791"
       gradientUnits="userSpaceOnUse"
       gradientTransform="matrix(-3.9587973,3.6948757,0.8677687,0.80991632,193.45609,782.57459)"
       cx="47.5"
       cy="48.5"
       fx="47.5"
       fy="48.5"
       r="27.5" />
    <linearGradient
       id="linearGradient3796">
      <stop
         style="stop-color:#006fff;stop-opacity:1;"
         offset="0"
         id="stop3798" />
      <stop
         style="stop-color:#030077;stop-opacity:1;"
         offset="1"
         id="stop3800" />
    </linearGradient>
    <radialGradient
       inkscape:collect="always"
       xlink:href="#linearGradient3777"
       id="radialGradient3783"
       gradientUnits="userSpaceOnUse"
       gradientTransform="matrix(-2.7930082,-2.1712988,-0.2727272,0.36363689,193.39516,1082.8625)"
       cx="47.5"
       cy="48.5"
       fx="47.5"
       fy="48.5"
       r="27.5" />
    <linearGradient
       inkscape:collect="always"
       xlink:href="#linearGradient3848"
       id="linearGradient3854"
       x1="50"
       y1="967.36218"
       x2="55"
       y2="1012.3622"
       gradientUnits="userSpaceOnUse" />
  </defs>
  <sodipodi:namedview
     id="base"
     pagecolor="#ffffff"
     bordercolor="#666666"
     borderopacity="1.0"
     inkscape:pageopacity="0.0"
     inkscape:pageshadow="2"
     inkscape:zoom="5.90625"
     inkscape:cx="58.273152"
     inkscape:cy="70.331771"
     inkscape:document-units="px"
     inkscape:current-layer="layer1"
     showgrid="true"
     inkscape:snap-page="true"
     inkscape:snap-global="false"
     inkscape:snap-center="true"
     inkscape:snap-object-midpoints="false"
     showguides="true"
     inkscape:guide-bbox="true"
     inkscape:snap-bbox="true"
     inkscape:object-paths="true"
     inkscape:object-nodes="true"
     inkscape:window-width="1305"
     inkscape:window-height="744"
     inkscape:window-x="61"
     inkscape:window-y="24"
     inkscape:window-maximized="1"
     inkscape:snap-midpoints="false"
     inkscape:snap-grids="true"
     inkscape:snap-to-guides="false">
    <inkscape:grid
       type="xygrid"
       id="grid3002"
       empspacing="5"
       visible="true"
       enabled="true"
       snapvisiblegridlinesonly="true" />
  </sodipodi:namedview>
  <metadata
     id="metadata7">
    <rdf:RDF>
      <cc:Work
         rdf:about="">
        <dc:format>image/svg+xml</dc:format>
        <dc:type
           rdf:resource="http://purl.org/dc/dcmitype/StillImage" />
        <dc:title />
      </cc:Work>
    </rdf:RDF>
  </metadata>
  <g
     inkscape:label="Layer 1"
     inkscape:groupmode="layer"
     id="layer1"
     transform="translate(0,-956.36218)">
    <rect
       style="fill:#ffffff;fill-opacity:0;fill-rule:nonzero;stroke:none"
       id="rect3775"
       width="96"
       height="96"
       x="0"
       y="956.36218"
       ry="0" />
    <path
       style="fill:#000000;fill-opacity:0.09589041;fill-rule:nonzero;stroke:none"
       d="m 3.353015,956.30662 c -1.884176,0 -3.4111555,1.43156 -3.4111555,3.19799 l 0,83.65949 c 0,1.7665 1.5269795,3.1981 3.4111555,3.1981 l 89.23583,0 c 1.884174,0 3.411155,-1.4316 3.411155,-3.1981 l 0,-83.65949 c 0,-1.76643 -1.526981,-3.19799 -3.411155,-3.19799 z"
       id="rect3772"
       inkscape:connector-curvature="0"
       sodipodi:nodetypes="sssssssss" />
    <path
       style="fill:#000000;fill-opacity:0.18721463;fill-rule:nonzero;stroke:none"
       d="m 1.0459761,1041.8066 0,7.4219 c 0,1.7392 1.461916,3.1337 3.2852054,3.1337 l 86.3836135,0 c 1.823288,0 3.285205,-1.3945 3.285205,-3.1337 l 0,-7.4219 -92.9540239,0 z"
       id="rect3785"
       inkscape:connector-curvature="0" />
    <path
       style="fill:#000000;fill-opacity:0.38356168;fill-rule:nonzero;stroke:none"
       d="m 1.0459761,1041.8066 0,5.3807 c 0,1.762 1.461916,3.1749 3.2852054,3.1749 l 86.3836135,0 c 1.823288,0 3.285205,-1.4129 3.285205,-3.1749 l 0,-5.3807 -92.9540239,0 z"
       id="rect3783"
       inkscape:connector-curvature="0" />
    <rect
       style="fill:url(#linearGradient3772);fill-opacity:1;fill-rule:nonzero;stroke:none"
       id="rect2985-2"
       width="93"
       height="88.999962"
       x="-94"
       y="-1046.3622"
       ry="3.1511383"
       transform="scale(-1,-1)" />
    <path
       style="fill:#000000;fill-opacity:0.38356168;fill-rule:nonzero;stroke:none"
       d="m 1,1042.3622 0.045976,2.7457 c 0.03024,1.8058 1.461916,3.2543 3.2852054,3.2543 l 86.3836136,0 c 1.823288,0 3.285205,-1.4481 3.285205,-3.2543 l -0.04598,-2.7457 z"
       id="rect3781"
       inkscape:connector-curvature="0"
       sodipodi:nodetypes="csssscc" />
    <rect
       style="fill:#ffffff;fill-opacity:0.30000001;fill-rule:nonzero;stroke:none"
       id="rect3770"
       width="92.954033"
       height="2.000005"
       x="1.045976"
       y="1040.3622" />
    <path
       inkscape:connector-curvature="0"
       id="path3787"
       d="M 47.500001,966.36218 C 68.210679,966.36218 85,982.0322 85,1001.3622 c 0,19.3298 -16.789321,35 -37.499999,35 -20.71068,0 -37.500001,-15.6702 -37.500001,-35 0,-19.33 16.789321,-35.00002 37.500001,-35.00002 z m 0,25.45452 c -5.648369,0 -10.227273,4.27359 -10.227273,9.5455 0,5.2718 4.578904,9.5454 10.227273,9.5454 5.648367,0 10.22727,-4.2736 10.22727,-9.5454 0,-5.27191 -4.578903,-9.5455 -10.22727,-9.5455 z"
       style="fill:#000000;fill-opacity:0.42465754;fill-rule:nonzero;stroke:none" />
    <path
       style="fill:url(#radialGradient3791);fill-opacity:1;fill-rule:nonzero;stroke:none"
       d="M 47.500001,962.36218 C 68.210679,962.36218 85,978.0322 85,997.36221 85,1016.692 68.210679,1032.3622 47.500001,1032.3622 26.789321,1032.3622 10,1016.692 10,997.36221 10,978.0322 26.789321,962.36218 47.500001,962.36218 z m 0,25.45452 c -5.648369,0 -10.227273,4.27359 -10.227273,9.54551 0,5.27179 4.578904,9.54539 10.227273,9.54539 5.648367,0 10.22727,-4.2736 10.22727,-9.54539 0,-5.27192 -4.578903,-9.54551 -10.22727,-9.54551 z"
       id="path3006"
       inkscape:connector-curvature="0" />
    <path
       inkscape:connector-curvature="0"
       id="path3007"
       d="M 47.500001,962.36218 C 68.210679,962.36218 85,978.0322 85,997.36221 85,1016.692 68.210679,1032.3622 47.500001,1032.3622 26.789321,1032.3622 10,1016.692 10,997.36221 10,978.0322 26.789321,962.36218 47.500001,962.36218 z m 0,25.45452 c -5.648369,0 -10.227273,4.27359 -10.227273,9.54551 0,5.27179 4.578904,9.54539 10.227273,9.54539 5.648367,0 10.22727,-4.2736 10.22727,-9.54539 0,-5.27192 -4.578903,-9.54551 -10.22727,-9.54551 z"
       style="fill:url(#radialGradient3783);fill-opacity:1;fill-rule:nonzero;stroke:none" />
    <path
       style="fill:#ff0009;fill-opacity:0.31506851;fill-rule:nonzero;stroke:none"
       d="m 47.5,972.36218 c -1.84917,0 -3.66269,0.16698 -5.40625,0.5 -1.74356,0.33302 -3.42916,0.83622 -5.03125,1.46875 -1.60209,0.63253 -3.1065,1.41397 -4.53125,2.3125 -1.42475,0.89854 -2.75721,1.90022 -3.96875,3.03125 -1.21154,1.13103 -2.31879,2.38874 -3.28125,3.71875 -0.96246,1.33001 -1.79124,2.75452 -2.46875,4.25 -0.67751,1.49548 -1.20581,3.06006 -1.5625,4.6875 -0.35669,1.62744 -0.53125,3.30536 -0.53125,5.03125 0,1.72588 0.17456,3.40382 0.53125,5.03122 0.35669,1.6275 0.88499,3.1921 1.5625,4.6875 0.67751,1.4955 1.50629,2.92 2.46875,4.25 0.96246,1.33 2.06971,2.5877 3.28125,3.7188 1.21154,1.131 2.544,2.1327 3.96875,3.0312 1.42475,0.8986 2.92916,1.68 4.53125,2.3125 1.60209,0.6326 3.28769,1.1358 5.03125,1.4688 1.74356,0.333 3.55708,0.5 5.40625,0.5 1.84917,0 3.66269,-0.167 5.40625,-0.5 1.74356,-0.333 3.42916,-0.8362 5.03125,-1.4688 1.60209,-0.6325 3.1065,-1.4139 4.53125,-2.3125 1.42475,-0.8985 2.75721,-1.9002 3.96875,-3.0312 1.21154,-1.1311 2.31879,-2.3888 3.28125,-3.7188 0.96246,-1.33 1.79124,-2.7545 2.46875,-4.25 0.67751,-1.4954 1.20581,-3.06 1.5625,-4.6875 0.35669,-1.6274 0.53125,-3.30534 0.53125,-5.03122 0,-1.72589 -0.17456,-3.40381 -0.53125,-5.03125 -0.35669,-1.62744 -0.88499,-3.19202 -1.5625,-4.6875 -0.67751,-1.49548 -1.50629,-2.91999 -2.46875,-4.25 -0.96246,-1.33001 -2.06971,-2.58772 -3.28125,-3.71875 -1.21154,-1.13103 -2.544,-2.13271 -3.96875,-3.03125 -1.42475,-0.89853 -2.92916,-1.67997 -4.53125,-2.3125 -1.60209,-0.63253 -3.28769,-1.13573 -5.03125,-1.46875 -1.74356,-0.33302 -3.55708,-0.5 -5.40625,-0.5 z m 0,15.46875 c 5.64837,0 10.21875,4.25933 10.21875,9.53125 0,5.27182 -4.57038,9.53122 -10.21875,9.53122 -5.64837,0 -10.21875,-4.2594 -10.21875,-9.53122 0,-5.27192 4.57038,-9.53125 10.21875,-9.53125 z"
       id="path3058"
       inkscape:connector-curvature="0" />
    <path
       style="font-size:medium;font-style:normal;font-variant:normal;font-weight:normal;font-stretch:normal;text-indent:0;text-align:start;text-decoration:none;line-height:normal;letter-spacing:normal;word-spacing:normal;text-transform:none;direction:ltr;block-progression:tb;writing-mode:lr-tb;text-anchor:start;baseline-shift:baseline;color:#000000;fill:url(#linearGradient3854);fill-opacity:1;stroke:none;stroke-width:2;marker:none;visibility:visible;display:inline;overflow:visible;enable-background:accumulate;font-family:Sans;-inkscape-font-specification:Sans"
       d="m 41.90625,971.875 c -1.809236,0.34556 -3.562313,0.87726 -5.21875,1.53125 -1.664867,0.65732 -3.215369,1.47784 -4.6875,2.40625 -1.470436,0.92735 -2.861398,1.94537 -4.125,3.125 -1.259691,1.17598 -2.405775,2.49246 -3.40625,3.875 -1.001431,1.38386 -1.856994,2.84897 -2.5625,4.40625 -0.705063,1.5563 -1.252797,3.20803 -1.625,4.90625 -0.372857,1.7012 -0.5625,3.45668 -0.5625,5.25 0,1.79331 0.189642,3.5176 0.5625,5.2188 0.372203,1.6982 0.919928,3.35 1.625,4.9062 0.705508,1.5573 1.561069,3.0224 2.5625,4.4062 1.000475,1.3826 2.146579,2.699 3.40625,3.875 1.263592,1.1796 2.654546,2.229 4.125,3.1563 1.47216,0.9285 3.022636,1.7177 4.6875,2.375 a 1.0001,1.0001 0 1 0 0.75,-1.8437 c -1.539316,-0.6078 -2.99766,-1.3501 -4.375,-2.2188 -1.379046,-0.8697 -2.653012,-1.8551 -3.8125,-2.9375 -1.163409,-1.0862 -2.231805,-2.285 -3.15625,-3.5625 -0.923489,-1.2761 -1.725488,-2.6601 -2.375,-4.0938 -0.649948,-1.4345 -1.158823,-2.912 -1.5,-4.4687 -0.340522,-1.5536 -0.5,-3.15405 -0.5,-4.8125 0,-1.65846 0.159477,-3.29007 0.5,-4.84375 L 22.25,992.5 c 0.341046,-1.54261 0.824249,-3.01488 1.46875,-4.4375 0.649514,-1.43368 1.451511,-2.81759 2.375,-4.09375 0.924445,-1.27748 1.992861,-2.47642 3.15625,-3.5625 l 0.03125,-0.0312 c 1.151088,-1.0704 2.414785,-2.01322 3.78125,-2.875 1.377369,-0.86865 2.835687,-1.64226 4.375,-2.25 1.547743,-0.61107 3.165866,-1.08577 4.84375,-1.40625 a 1.002073,1.002073 0 1 0 -0.375,-1.96875 z"
       id="path3834"
       inkscape:connector-curvature="0" />
    <path
       style="fill:#ffffff;fill-opacity:0.62100458;fill-rule:nonzero;stroke:none"
       d="m 19.224124,982.44307 c -1.84644,0 -3.34375,1.46606 -3.34375,3.3125 l 0,16.28123 c 0,1.8464 1.49731,3.3125 3.34375,3.3125 l 26.9375,0 c 1.846439,0 3.3125,-1.4661 3.3125,-3.3125 l 0,-16.28123 c 0,-1.84644 -1.466061,-3.3125 -3.3125,-3.3125 l -3.877165,-6.66585 -4.266142,6.66585 z"
       id="rect3943"
       inkscape:connector-curvature="0"
       sodipodi:nodetypes="ssssssssccs" />
    <path
       style="font-size:11px;font-style:normal;font-variant:normal;font-weight:normal;font-stretch:normal;text-align:end;line-height:125%;letter-spacing:0px;word-spacing:0px;text-anchor:end;fill:#1a1a1a;fill-opacity:1;stroke:none;font-family:mry_KacstQurn;-inkscape-font-specification:mry_KacstQurn"
       d="m 21.327774,986.0536 c -0.485836,1e-5 -0.85747,0.24676 -1.114904,0.74921 -0.255498,0.49994 -0.388526,1.22712 -0.388526,2.18154 0,0.95191 0.133028,1.67904 0.388526,2.18153 0.257434,0.5 0.629068,0.7492 1.114904,0.7492 0.485832,0 0.859402,-0.2492 1.114903,-0.7492 0.257431,-0.50249 0.388524,-1.22962 0.388527,-2.18153 -3e-6,-0.95442 -0.131096,-1.6816 -0.388527,-2.18154 -0.255501,-0.50245 -0.629071,-0.7492 -1.114903,-0.74921 z m 3.783914,0 c -0.485836,1e-5 -0.85747,0.24676 -1.114904,0.74921 -0.255499,0.49994 -0.388527,1.22712 -0.388527,2.18154 0,0.95191 0.133028,1.67904 0.388527,2.18153 0.257434,0.5 0.629068,0.7492 1.114904,0.7492 0.485832,0 0.859401,-0.2492 1.114902,-0.7492 0.257432,-0.50249 0.388524,-1.22962 0.388528,-2.18153 -4e-6,-0.95442 -0.131096,-1.6816 -0.388528,-2.18154 -0.255501,-0.50245 -0.62907,-0.7492 -1.114902,-0.74921 z m 11.368633,0 c -0.485836,1e-5 -0.857471,0.24676 -1.114903,0.74921 -0.2555,0.49994 -0.388528,1.22712 -0.388528,2.18154 0,0.95191 0.133028,1.67904 0.388528,2.18153 0.257432,0.5 0.629067,0.7492 1.114903,0.7492 0.485832,0 0.842509,-0.2492 1.098009,-0.7492 0.257432,-0.50249 0.388524,-1.22962 0.388527,-2.18153 -3e-6,-0.95442 -0.131095,-1.6816 -0.388527,-2.18154 -0.2555,-0.50245 -0.612177,-0.7492 -1.098009,-0.74921 z m 7.567826,0 c -0.485836,1e-5 -0.857469,0.24676 -1.114904,0.74921 -0.255498,0.49994 -0.388526,1.22712 -0.388526,2.18154 0,0.95191 0.133028,1.67904 0.388526,2.18153 0.257435,0.5 0.629068,0.7492 1.114904,0.7492 0.485833,0 0.859402,-0.2492 1.114904,-0.7492 0.257431,-0.50249 0.37163,-1.22962 0.371633,-2.18153 -3e-6,-0.95442 -0.114202,-1.6816 -0.371633,-2.18154 -0.255502,-0.50245 -0.629071,-0.7492 -1.114904,-0.74921 z m -15.355257,0.11017 -1.03044,0.26444 0,0.70514 1.047334,-0.28646 0,4.31899 -0.962872,0 0,0.639 2.500086,0 0,-0.639 -0.96287,0 0,-5.00211 -0.591238,0 z m 3.800808,0 -1.047333,0.26444 0,0.70514 1.047333,-0.28646 0,4.31899 -0.96287,0 0,0.639 2.500084,0 0,-0.639 -0.962871,0 0,-5.00211 -0.574343,0 z m 7.567826,0 -1.047332,0.26444 0,0.70514 1.047332,-0.28646 0,4.31899 -0.962871,0 0,0.639 2.500086,0 0,-0.639 -0.945978,0 0,-5.00211 -0.591237,0 z m -18.73375,0.48479 c 0.303886,10e-6 0.524721,0.20613 0.675699,0.59497 0.152909,0.38631 0.236492,0.96314 0.236494,1.74082 -2e-6,0.77516 -0.08358,1.352 -0.236494,1.74083 -0.150978,0.3863 -0.371813,0.595 -0.675699,0.595 -0.301955,0 -0.522788,-0.2087 -0.6757,-0.595 -0.150977,-0.38883 -0.236494,-0.96567 -0.236492,-1.74083 -2e-6,-0.77768 0.08552,-1.35451 0.236492,-1.74082 0.152912,-0.38884 0.373745,-0.59496 0.6757,-0.59497 z m 3.783914,0 c 0.303885,10e-6 0.541612,0.20613 0.692592,0.59497 0.152907,0.38631 0.219599,0.96314 0.2196,1.74082 -10e-7,0.77516 -0.06669,1.352 -0.2196,1.74083 -0.15098,0.3863 -0.388707,0.595 -0.692592,0.595 -0.301956,0 -0.522788,-0.2087 -0.6757,-0.595 -0.150977,-0.38883 -0.236496,-0.96567 -0.236493,-1.74083 -3e-6,-0.77768 0.08551,-1.35451 0.236493,-1.74082 0.152912,-0.38884 0.373744,-0.59496 0.6757,-0.59497 z m 11.368633,0 c 0.303886,10e-6 0.524719,0.20613 0.675698,0.59497 0.152911,0.38631 0.236492,0.96314 0.236496,1.74082 -4e-6,0.77516 -0.08358,1.352 -0.236496,1.74083 -0.150979,0.3863 -0.371812,0.595 -0.675698,0.595 -0.301954,0 -0.539681,-0.2087 -0.692591,-0.595 -0.150979,-0.38883 -0.219604,-0.96567 -0.219603,-1.74083 -10e-7,-0.77768 0.06862,-1.35451 0.219603,-1.74082 0.15291,-0.38884 0.390637,-0.59496 0.692591,-0.59497 z m 7.567826,0 c 0.303886,10e-6 0.524721,0.20613 0.675699,0.59497 0.152908,0.38631 0.236492,0.96314 0.236494,1.74082 -2e-6,0.77516 -0.08358,1.352 -0.236494,1.74083 -0.150978,0.3863 -0.371813,0.595 -0.675699,0.595 -0.301954,0 -0.53968,-0.2087 -0.692592,-0.595 -0.150977,-0.38883 -0.219603,-0.96567 -0.219602,-1.74083 -10e-7,-0.77768 0.06862,-1.35451 0.219602,-1.74082 0.152912,-0.38884 0.390638,-0.59496 0.692592,-0.59497 z m -15.152546,9.1006 c -0.485837,0 -0.85747,0.2468 -1.114903,0.7493 -0.255501,0.4999 -0.371636,1.2271 -0.371635,2.1815 -1e-6,0.9518 0.116134,1.67914 0.371635,2.18164 0.257433,0.4998 0.629066,0.7492 1.114903,0.7492 0.485832,0 0.859402,-0.2494 1.114902,-0.7492 0.257433,-0.5025 0.388525,-1.22984 0.388529,-2.18164 -4e-6,-0.9544 -0.131096,-1.6816 -0.388529,-2.1815 -0.2555,-0.5025 -0.62907,-0.7493 -1.114902,-0.7493 z m 3.783914,0 c -0.485836,0 -0.85747,0.2468 -1.114903,0.7493 -0.255499,0.4999 -0.371635,1.2271 -0.371635,2.1815 0,0.9518 0.116136,1.67914 0.371635,2.18164 0.257433,0.4998 0.629067,0.7492 1.114903,0.7492 0.485832,0 0.859401,-0.2494 1.114902,-0.7492 0.257433,-0.5025 0.388525,-1.22984 0.388528,-2.18164 -3e-6,-0.9544 -0.131095,-1.6816 -0.388528,-2.1815 -0.255501,-0.5025 -0.62907,-0.7493 -1.114902,-0.7493 z m 3.800806,0 c -0.485836,0 -0.857471,0.2468 -1.114903,0.7493 -0.2555,0.4999 -0.388528,1.2271 -0.388528,2.1815 0,0.9518 0.133028,1.67914 0.388528,2.18164 0.257432,0.4998 0.629067,0.7492 1.114903,0.7492 0.485832,0 0.842509,-0.2494 1.098009,-0.7492 0.257432,-0.5025 0.388524,-1.22984 0.388527,-2.18164 -3e-6,-0.9544 -0.131095,-1.6816 -0.388527,-2.1815 -0.2555,-0.5025 -0.612177,-0.7493 -1.098009,-0.7493 z m 7.567826,0 c -0.485836,0 -0.857469,0.2468 -1.114904,0.7493 -0.255498,0.4999 -0.388526,1.2271 -0.388526,2.1815 0,0.9518 0.133028,1.67914 0.388526,2.18164 0.257435,0.4998 0.629068,0.7492 1.114904,0.7492 0.485833,0 0.859402,-0.2494 1.114904,-0.7492 0.257431,-0.5025 0.37163,-1.22984 0.371633,-2.18164 -3e-6,-0.9544 -0.114202,-1.6816 -0.371633,-2.1815 -0.255502,-0.5025 -0.629071,-0.7493 -1.114904,-0.7493 z m -22.923082,0.1102 -1.030441,0.2645 0,0.7051 1.047333,-0.2865 0,4.31914 -0.962872,0 0,0.639 2.500086,0 0,-0.639 -0.96287,0 0,-5.00224 -0.591236,0 z m 3.783913,0 -1.03044,0.2645 0,0.7051 1.047333,-0.2865 0,4.31914 -0.962872,0 0,0.639 2.500085,0 0,-0.639 -0.96287,0 0,-5.00224 -0.591236,0 z m 15.152546,0 -1.047332,0.2645 0,0.7051 1.047332,-0.2865 0,4.31914 -0.962871,0 0,0.639 2.500086,0 0,-0.639 -0.945978,0 0,-5.00224 -0.591237,0 z m -11.165923,0.4848 c 0.303886,0 0.541613,0.2061 0.69259,0.595 0.152912,0.3863 0.219601,0.9631 0.219603,1.7408 -2e-6,0.7752 -0.06669,1.35194 -0.219603,1.74084 -0.150977,0.3863 -0.388704,0.595 -0.69259,0.595 -0.301955,0 -0.522788,-0.2087 -0.675699,-0.595 -0.150978,-0.3889 -0.236495,-0.96564 -0.236495,-1.74084 0,-0.7777 0.08553,-1.3545 0.236495,-1.7408 0.152911,-0.3889 0.373744,-0.595 0.675699,-0.595 z m 3.783914,0 c 0.303885,0 0.541613,0.2061 0.692592,0.595 0.152909,0.3863 0.219599,0.9631 0.219601,1.7408 -2e-6,0.7752 -0.06669,1.35194 -0.219601,1.74084 -0.150979,0.3863 -0.388707,0.595 -0.692592,0.595 -0.301956,0 -0.522787,-0.2087 -0.675698,-0.595 -0.150978,-0.3889 -0.219604,-0.96564 -0.219603,-1.74084 -10e-7,-0.7777 0.06863,-1.3545 0.219603,-1.7408 0.152911,-0.3889 0.373742,-0.595 0.675698,-0.595 z m 3.800806,0 c 0.303886,0 0.524719,0.2061 0.675698,0.595 0.152911,0.3863 0.236492,0.9631 0.236496,1.7408 -4e-6,0.7752 -0.08358,1.35194 -0.236496,1.74084 -0.150979,0.3863 -0.371812,0.595 -0.675698,0.595 -0.301954,0 -0.539681,-0.2087 -0.692591,-0.595 -0.150979,-0.3889 -0.219604,-0.96564 -0.219603,-1.74084 -10e-7,-0.7777 0.06862,-1.3545 0.219603,-1.7408 0.15291,-0.3889 0.390637,-0.595 0.692591,-0.595 z m 7.567826,0 c 0.303886,0 0.524721,0.2061 0.675699,0.595 0.152908,0.3863 0.236492,0.9631 0.236494,1.7408 -2e-6,0.7752 -0.08358,1.35194 -0.236494,1.74084 -0.150978,0.3863 -0.371813,0.595 -0.675699,0.595 -0.301954,0 -0.53968,-0.2087 -0.692592,-0.595 -0.150977,-0.3889 -0.219603,-0.96564 -0.219602,-1.74084 -10e-7,-0.7777 0.06862,-1.3545 0.219602,-1.7408 0.152912,-0.3889 0.390638,-0.595 0.692592,-0.595 z"
       id="text3960"
       inkscape:connector-curvature="0" />
    <path
       transform="matrix(5.5,0,0,5.5,-188.19048,881.69551)"
       d="m 44.529101,16.592592 c 0,1.496137 -1.212858,2.708995 -2.708994,2.708995 -1.496137,0 -2.708995,-1.212858 -2.708995,-2.708995 0,-1.496136 1.212858,-2.708994 2.708995,-2.708994 1.496136,0 2.708994,1.212858 2.708994,2.708994 z"
       sodipodi:ry="2.7089946"
       sodipodi:rx="2.7089946"
       sodipodi:cy="16.592592"
       sodipodi:cx="41.820107"
       id="path3866"
       style="fill:#c8ffa4;fill-opacity:0.37595132;fill-rule:evenodd;stroke:none"
       sodipodi:type="arc" />
    <path
       transform="matrix(1.625,0,0,1.625,-26.137567,945.99181)"
       d="m 44.529101,16.592592 c 0,1.496137 -1.212858,2.708995 -2.708994,2.708995 -1.496137,0 -2.708995,-1.212858 -2.708995,-2.708995 0,-1.496136 1.212858,-2.708994 2.708995,-2.708994 1.496136,0 2.708994,1.212858 2.708994,2.708994 z"
       sodipodi:ry="2.7089946"
       sodipodi:rx="2.7089946"
       sodipodi:cy="16.592592"
       sodipodi:cx="41.820107"
       id="path3858"
       style="fill:#80ff2b;fill-opacity:0.37595132;fill-rule:evenodd;stroke:none"
       sodipodi:type="arc" />
    <path
       sodipodi:type="arc"
       style="fill:#80ff2b;fill-opacity:0.37595132;fill-rule:evenodd;stroke:none"
       id="path3860"
       sodipodi:cx="41.820107"
       sodipodi:cy="16.592592"
       sodipodi:rx="2.7089946"
       sodipodi:ry="2.7089946"
       d="m 44.529101,16.592592 c 0,1.496137 -1.212858,2.708995 -2.708994,2.708995 -1.496137,0 -2.708995,-1.212858 -2.708995,-2.708995 0,-1.496136 1.212858,-2.708994 2.708995,-2.708994 1.496136,0 2.708994,1.212858 2.708994,2.708994 z"
       transform="matrix(2.3125,0,0,2.3125,-54.888891,934.5844)" />
    <path
       transform="matrix(3.1875,0,0,3.1875,-91.481485,920.06588)"
       d="m 44.529101,16.592592 c 0,1.496137 -1.212858,2.708995 -2.708994,2.708995 -1.496137,0 -2.708995,-1.212858 -2.708995,-2.708995 0,-1.496136 1.212858,-2.708994 2.708995,-2.708994 1.496136,0 2.708994,1.212858 2.708994,2.708994 z"
       sodipodi:ry="2.7089946"
       sodipodi:rx="2.7089946"
       sodipodi:cy="16.592592"
       sodipodi:cx="41.820107"
       id="path3862"
       style="fill:#80ff2b;fill-opacity:0.37595132;fill-rule:evenodd;stroke:none"
       sodipodi:type="arc" />
    <path
       sodipodi:type="arc"
       style="fill:#80ff2b;fill-opacity:0.37595132;fill-rule:evenodd;stroke:none"
       id="path3864"
       sodipodi:cx="41.820107"
       sodipodi:cy="16.592592"
       sodipodi:rx="2.7089946"
       sodipodi:ry="2.7089946"
       d="m 44.529101,16.592592 c 0,1.496137 -1.212858,2.708995 -2.708994,2.708995 -1.496137,0 -2.708995,-1.212858 -2.708995,-2.708995 0,-1.496136 1.212858,-2.708994 2.708995,-2.708994 1.496136,0 2.708994,1.212858 2.708994,2.708994 z"
       transform="matrix(4.0625,0,0,4.0625,-128.07408,905.54736)" />
    <path
       sodipodi:type="arc"
       style="fill:#caff6a;fill-opacity:1;fill-rule:evenodd;stroke:none;stroke-width:2;stroke-linecap:round;stroke-linejoin:round;stroke-miterlimit:4;stroke-opacity:1;stroke-dasharray:none;stroke-dashoffset:0"
       id="path3856"
       sodipodi:cx="41.820107"
       sodipodi:cy="16.592592"
       sodipodi:rx="2.7089946"
       sodipodi:ry="2.7089946"
       d="m 44.529101,16.592592 c 0,1.496137 -1.212858,2.708995 -2.708994,2.708995 -1.496137,0 -2.708995,-1.212858 -2.708995,-2.708995 0,-1.496136 1.212858,-2.708994 2.708995,-2.708994 1.496136,0 2.708994,1.212858 2.708994,2.708994 z"
       transform="translate(0,956.36218)" />
    <path
       sodipodi:type="arc"
       style="fill:#69fff8;fill-opacity:0.26940644;fill-rule:evenodd;stroke:none"
       id="path3870"
       sodipodi:cx="41.820107"
       sodipodi:cy="16.592592"
       sodipodi:rx="2.7089946"
       sodipodi:ry="2.7089946"
       d="m 44.529101,16.592592 c 0,1.496137 -1.212858,2.708995 -2.708994,2.708995 -1.496137,0 -2.708995,-1.212858 -2.708995,-2.708995 0,-1.496136 1.212858,-2.708994 2.708995,-2.708994 1.496136,0 2.708994,1.212858 2.708994,2.708994 z"
       transform="matrix(2.9062499,0,0,2.9062499,-67.783067,938.53149)" />
    <path
       transform="matrix(1.1874998,0,0,1.1874998,8.7513279,971.70609)"
       d="m 44.529101,16.592592 c 0,1.496137 -1.212858,2.708995 -2.708994,2.708995 -1.496137,0 -2.708995,-1.212858 -2.708995,-2.708995 0,-1.496136 1.212858,-2.708994 2.708995,-2.708994 1.496136,0 2.708994,1.212858 2.708994,2.708994 z"
       sodipodi:ry="2.7089946"
       sodipodi:rx="2.7089946"
       sodipodi:cy="16.592592"
       sodipodi:cx="41.820107"
       id="path3872"
       style="fill:#69fff8;fill-opacity:0.26940644;fill-rule:evenodd;stroke:none"
       sodipodi:type="arc" />
    <path
       sodipodi:type="arc"
       style="fill:#69fff8;fill-opacity:0.26940644;fill-rule:evenodd;stroke:none"
       id="path3874"
       sodipodi:cx="41.820107"
       sodipodi:cy="16.592592"
       sodipodi:rx="2.7089946"
       sodipodi:ry="2.7089946"
       d="m 44.529101,16.592592 c 0,1.496137 -1.212858,2.708995 -2.708994,2.708995 -1.496137,0 -2.708995,-1.212858 -2.708995,-2.708995 0,-1.496136 1.212858,-2.708994 2.708995,-2.708994 1.496136,0 2.708994,1.212858 2.708994,2.708994 z"
       transform="matrix(1.6249998,0,0,1.6249998,-5.650789,969.18757)" />
    <path
       style="fill:#fff785;fill-opacity:0.25114154;fill-rule:evenodd;stroke:none"
       d="M 42.40625,0.53125 41.59375,14.75 30.5,4.5625 39.96875,15.1875 24.90625,15.84375 39.125,16.65625 28.9375,27.75 39.59375,18.28125 40.21875,33.34375 41.03125,19.125 85.310185,62.497685 42.65625,18.65625 57.71875,18.03125 43.5,17.1875 53.6875,6.09375 43.03125,15.5625 z"
       transform="translate(0,956.36218)"
       id="path3868"
       inkscape:connector-curvature="0"
       sodipodi:nodetypes="ccccccccccccccccc" />
  </g>
</svg>
