<?xml version="1.0" encoding="UTF-8" standalone="no"?>
<!-- Created with Inkscape (http://www.inkscape.org/) -->

<svg
   xmlns:dc="http://purl.org/dc/elements/1.1/"
   xmlns:cc="http://creativecommons.org/ns#"
   xmlns:rdf="http://www.w3.org/1999/02/22-rdf-syntax-ns#"
   xmlns:svg="http://www.w3.org/2000/svg"
   xmlns="http://www.w3.org/2000/svg"
   xmlns:xlink="http://www.w3.org/1999/xlink"
   xmlns:sodipodi="http://sodipodi.sourceforge.net/DTD/sodipodi-0.dtd"
   xmlns:inkscape="http://www.inkscape.org/namespaces/inkscape"
   width="96"
   height="96"
   id="svg2"
   version="1.1"
   inkscape:version="0.48.4 r9939"
   sodipodi:docname="dvdstyler.svg">
  <defs
     id="defs4">
    <linearGradient
       id="linearGradient3777">
      <stop
         id="stop3779"
         offset="0"
         style="stop-color:#e000ff;stop-opacity:1;" />
      <stop
         id="stop3781"
         offset="1"
         style="stop-color:#0009ff;stop-opacity:0;" />
    </linearGradient>
    <linearGradient
       id="linearGradient3766">
      <stop
         style="stop-color:#360468;stop-opacity:1;"
         offset="0"
         id="stop3768" />
      <stop
         style="stop-color:#58004a;stop-opacity:1;"
         offset="1"
         id="stop3770" />
    </linearGradient>
    <linearGradient
       inkscape:collect="always"
       xlink:href="#linearGradient3766"
       id="linearGradient3772"
       x1="35"
       y1="1007.3622"
       x2="0"
       y2="957.36218"
       gradientUnits="userSpaceOnUse"
       gradientTransform="translate(-94.999994,-2003.7244)" />
    <radialGradient
       inkscape:collect="always"
       xlink:href="#linearGradient3796"
       id="radialGradient3791"
       gradientUnits="userSpaceOnUse"
       gradientTransform="matrix(-3.9587973,3.6948757,0.8677687,0.80991632,193.45609,782.57459)"
       cx="47.5"
       cy="48.5"
       fx="47.5"
       fy="48.5"
       r="27.5" />
    <linearGradient
       id="linearGradient3796">
      <stop
         style="stop-color:#006fff;stop-opacity:1;"
         offset="0"
         id="stop3798" />
      <stop
         style="stop-color:#030077;stop-opacity:1;"
         offset="1"
         id="stop3800" />
    </linearGradient>
    <radialGradient
       inkscape:collect="always"
       xlink:href="#linearGradient3777"
       id="radialGradient3783"
       gradientUnits="userSpaceOnUse"
       gradientTransform="matrix(-2.7930082,-2.1712988,-0.2727272,0.36363689,193.39516,1082.8625)"
       cx="47.5"
       cy="48.5"
       fx="47.5"
       fy="48.5"
       r="27.5" />
    <linearGradient
       inkscape:collect="always"
       xlink:href="#linearGradient3849"
       id="linearGradient3868"
       gradientUnits="userSpaceOnUse"
       x1="33.7864"
       y1="1027.2502"
       x2="33.741676"
       y2="1011.9337" />
    <linearGradient
       id="linearGradient3849">
      <stop
         style="stop-color:#f76300;stop-opacity:1;"
         offset="0"
         id="stop3851" />
      <stop
         style="stop-color:#ffe0cc;stop-opacity:1;"
         offset="1"
         id="stop3853" />
    </linearGradient>
    <linearGradient
       inkscape:collect="always"
       xlink:href="#linearGradient3825"
       id="linearGradient3870"
       gradientUnits="userSpaceOnUse"
       gradientTransform="translate(2039.1839,0)"
       x1="-1027.2545"
       y1="70.798042"
       x2="-1011.9294"
       y2="70.798042" />
    <linearGradient
       id="linearGradient3825">
      <stop
         style="stop-color:#ffdcdc;stop-opacity:1;"
         offset="0"
         id="stop3827" />
      <stop
         style="stop-color:#d96d6d;stop-opacity:1;"
         offset="1"
         id="stop3829" />
    </linearGradient>
    <linearGradient
       inkscape:collect="always"
       xlink:href="#linearGradient3841"
       id="linearGradient3872"
       gradientUnits="userSpaceOnUse"
       gradientTransform="translate(2039.1839,0)"
       x1="-1027.2545"
       y1="66.705544"
       x2="-1011.9294"
       y2="66.705544" />
    <linearGradient
       id="linearGradient3841">
      <stop
         style="stop-color:#ffffff;stop-opacity:1;"
         offset="0"
         id="stop3843" />
      <stop
         style="stop-color:#dadada;stop-opacity:1;"
         offset="1"
         id="stop3845" />
    </linearGradient>
    <linearGradient
       inkscape:collect="always"
       id="linearGradient3833">
      <stop
         style="stop-color:#999999;stop-opacity:1;"
         offset="0"
         id="stop3835" />
      <stop
         style="stop-color:#999999;stop-opacity:0;"
         offset="1"
         id="stop3837" />
    </linearGradient>
    <linearGradient
       y2="66.705536"
       x2="-1011.9294"
       y1="66.705536"
       x1="-1027.2545"
       gradientUnits="userSpaceOnUse"
       id="linearGradient3058"
       xlink:href="#linearGradient3833"
       inkscape:collect="always" />
  </defs>
  <sodipodi:namedview
     id="base"
     pagecolor="#ffffff"
     bordercolor="#666666"
     borderopacity="1.0"
     inkscape:pageopacity="0.0"
     inkscape:pageshadow="2"
     inkscape:zoom="7.3118859"
     inkscape:cx="76.635897"
     inkscape:cy="58.751323"
     inkscape:document-units="px"
     inkscape:current-layer="layer1"
     showgrid="true"
     inkscape:snap-page="true"
     inkscape:snap-global="true"
     inkscape:snap-center="true"
     inkscape:snap-object-midpoints="false"
     showguides="true"
     inkscape:guide-bbox="true"
     inkscape:snap-bbox="true"
     inkscape:object-paths="true"
     inkscape:object-nodes="true"
     inkscape:window-width="1305"
     inkscape:window-height="744"
     inkscape:window-x="61"
     inkscape:window-y="24"
     inkscape:window-maximized="1"
     inkscape:snap-midpoints="false"
     inkscape:snap-grids="true"
     inkscape:snap-to-guides="false">
    <inkscape:grid
       type="xygrid"
       id="grid3002"
       empspacing="5"
       visible="true"
       enabled="true"
       snapvisiblegridlinesonly="true" />
  </sodipodi:namedview>
  <metadata
     id="metadata7">
    <rdf:RDF>
      <cc:Work
         rdf:about="">
        <dc:format>image/svg+xml</dc:format>
        <dc:type
           rdf:resource="http://purl.org/dc/dcmitype/StillImage" />
        <dc:title />
      </cc:Work>
    </rdf:RDF>
  </metadata>
  <g
     inkscape:label="Layer 1"
     inkscape:groupmode="layer"
     id="layer1"
     transform="translate(0,-956.36218)">
    <rect
       style="fill:#ffffff;fill-opacity:0;fill-rule:nonzero;stroke:none"
       id="rect3775"
       width="96"
       height="96"
       x="0"
       y="956.36218"
       ry="0" />
    <path
       style="fill:#000000;fill-opacity:0.09589041;fill-rule:nonzero;stroke:none"
       d="m 3.353015,956.30662 c -1.884176,0 -3.4111555,1.43156 -3.4111555,3.19799 l 0,83.65949 c 0,1.7665 1.5269795,3.1981 3.4111555,3.1981 l 89.23583,0 c 1.884174,0 3.411155,-1.4316 3.411155,-3.1981 l 0,-83.65949 c 0,-1.76643 -1.526981,-3.19799 -3.411155,-3.19799 z"
       id="rect3772"
       inkscape:connector-curvature="0"
       sodipodi:nodetypes="sssssssss" />
    <path
       style="fill:#000000;fill-opacity:0.18721463;fill-rule:nonzero;stroke:none"
       d="m 1.0459761,1041.8066 0,7.4219 c 0,1.7392 1.461916,3.1337 3.2852054,3.1337 l 86.3836135,0 c 1.823288,0 3.285205,-1.3945 3.285205,-3.1337 l 0,-7.4219 -92.9540239,0 z"
       id="rect3785"
       inkscape:connector-curvature="0" />
    <path
       style="fill:#000000;fill-opacity:0.38356168;fill-rule:nonzero;stroke:none"
       d="m 1.0459761,1041.8066 0,5.3807 c 0,1.762 1.461916,3.1749 3.2852054,3.1749 l 86.3836135,0 c 1.823288,0 3.285205,-1.4129 3.285205,-3.1749 l 0,-5.3807 -92.9540239,0 z"
       id="rect3783"
       inkscape:connector-curvature="0" />
    <rect
       style="fill:url(#linearGradient3772);fill-opacity:1;fill-rule:nonzero;stroke:none"
       id="rect2985-2"
       width="93"
       height="88.999962"
       x="-94"
       y="-1046.3622"
       ry="3.1511383"
       transform="scale(-1,-1)" />
    <path
       style="fill:#000000;fill-opacity:0.38356168;fill-rule:nonzero;stroke:none"
       d="m 1,1042.3622 0.045976,2.7457 c 0.03024,1.8058 1.461916,3.2543 3.2852054,3.2543 l 86.3836136,0 c 1.823288,0 3.285205,-1.4481 3.285205,-3.2543 l -0.04598,-2.7457 z"
       id="rect3781"
       inkscape:connector-curvature="0"
       sodipodi:nodetypes="csssscc" />
    <rect
       style="fill:#ffffff;fill-opacity:0.30000001;fill-rule:nonzero;stroke:none"
       id="rect3770"
       width="92.954033"
       height="2.000005"
       x="1.045976"
       y="1040.3622" />
    <path
       inkscape:connector-curvature="0"
       id="path3787"
       d="M 47.500001,966.36218 C 68.210679,966.36218 85,982.0322 85,1001.3622 c 0,19.3298 -16.789321,35 -37.499999,35 -20.71068,0 -37.500001,-15.6702 -37.500001,-35 0,-19.33 16.789321,-35.00002 37.500001,-35.00002 z m 0,25.45452 c -5.648369,0 -10.227273,4.27359 -10.227273,9.5455 0,5.2718 4.578904,9.5454 10.227273,9.5454 5.648367,0 10.22727,-4.2736 10.22727,-9.5454 0,-5.27191 -4.578903,-9.5455 -10.22727,-9.5455 z"
       style="fill:#000000;fill-opacity:0.42465754;fill-rule:nonzero;stroke:none" />
    <path
       style="fill:url(#radialGradient3791);fill-opacity:1;fill-rule:nonzero;stroke:none"
       d="M 47.500001,962.36218 C 68.210679,962.36218 85,978.0322 85,997.36221 85,1016.692 68.210679,1032.3622 47.500001,1032.3622 26.789321,1032.3622 10,1016.692 10,997.36221 10,978.0322 26.789321,962.36218 47.500001,962.36218 z m 0,25.45452 c -5.648369,0 -10.227273,4.27359 -10.227273,9.54551 0,5.27179 4.578904,9.54539 10.227273,9.54539 5.648367,0 10.22727,-4.2736 10.22727,-9.54539 0,-5.27192 -4.578903,-9.54551 -10.22727,-9.54551 z"
       id="path3006"
       inkscape:connector-curvature="0" />
    <path
       inkscape:connector-curvature="0"
       id="path3007"
       d="M 47.500001,962.36218 C 68.210679,962.36218 85,978.0322 85,997.36221 85,1016.692 68.210679,1032.3622 47.500001,1032.3622 26.789321,1032.3622 10,1016.692 10,997.36221 10,978.0322 26.789321,962.36218 47.500001,962.36218 z m 0,25.45452 c -5.648369,0 -10.227273,4.27359 -10.227273,9.54551 0,5.27179 4.578904,9.54539 10.227273,9.54539 5.648367,0 10.22727,-4.2736 10.22727,-9.54539 0,-5.27192 -4.578903,-9.54551 -10.22727,-9.54551 z"
       style="fill:url(#radialGradient3783);fill-opacity:1;fill-rule:nonzero;stroke:none" />
    <path
       style="font-size:17.36225891000000132px;font-style:normal;font-variant:normal;font-weight:normal;font-stretch:normal;text-align:end;line-height:125%;letter-spacing:0px;word-spacing:0px;text-anchor:end;fill:#fff000;fill-opacity:0.57990867;stroke:none;font-family:Andale Mono;-inkscape-font-specification:Andale Mono"
       d="M 37.40625 57.9375 L 37.40625 70 L 41 70 C 42.989302 70 44.505337 69.883969 45.5 69.625 C 46.494644 69.360636 47.320771 68.907094 48.03125 68.28125 C 48.652896 67.736338 49.135538 67.118418 49.4375 66.40625 C 49.739435 65.688694 49.874986 64.880543 49.875 63.96875 C 49.874986 63.06776 49.739435 62.243423 49.4375 61.53125 C 49.135538 60.819094 48.652896 60.201174 48.03125 59.65625 C 47.326691 59.030419 46.488723 58.571481 45.5 58.3125 C 44.517178 58.048147 43.012984 57.937512 41 57.9375 L 37.40625 57.9375 z M 50.9375 57.9375 L 55.84375 70 L 59.90625 70 L 64.8125 57.9375 L 61.375 57.9375 L 57.875 66.84375 L 54.375 57.9375 L 50.9375 57.9375 z M 66.5625 57.9375 L 66.5625 70 L 68.5 70 C 69.620017 69.291944 70.595839 68.407721 71.625 67.59375 C 71.478779 67.601449 71.373058 67.65625 71.21875 67.65625 L 70 67.65625 L 70 60.28125 L 71.21875 60.28125 C 72.621916 60.28126 73.703341 60.592917 74.4375 61.21875 C 75.17164 61.844601 75.531239 62.771024 75.53125 63.96875 C 75.53125 64.005809 75.500702 64.025984 75.5 64.0625 C 76.441984 63.06736 77.401428 62.091042 78.21875 61 C 77.936829 60.520666 77.666569 60.0488 77.21875 59.65625 C 76.514191 59.030419 75.644973 58.571481 74.65625 58.3125 C 73.673428 58.048147 72.200484 57.937512 70.1875 57.9375 L 66.5625 57.9375 z M 40.8125 60.28125 L 42.0625 60.28125 C 43.465666 60.28126 44.515841 60.592917 45.25 61.21875 C 45.98414 61.844601 46.343739 62.771024 46.34375 63.96875 C 46.343739 65.171883 45.99006 66.087516 45.25 66.71875 C 44.515841 67.34999 43.459745 67.656252 42.0625 67.65625 L 40.8125 67.65625 L 40.8125 60.28125 z "
       transform="translate(0,956.36218)"
       id="path3798" />
    <path
       style="fill:#000000;fill-opacity:0.65296804;fill-rule:evenodd;stroke:none"
       d="M 94 36.1875 L 94 21.21875 L 52.09375 29.59375 L 55 36 L 45 46 L 94 36.1875 z "
       id="rect3065"
       transform="translate(0,956.36218)" />
    <g
       id="g3857"
       transform="matrix(0.68331037,-0.68331037,0.68331037,0.68331037,-665.64539,319.6161)">
      <path
         sodipodi:nodetypes="ccccc"
         inkscape:connector-curvature="0"
         id="rect3766"
         d="m 33.752949,1027.2546 3.392404,-3.8313 26.159377,0 0,3.8313 z"
         style="fill:#4d4d4d;fill-opacity:1;fill-rule:nonzero;stroke:none" />
      <path
         inkscape:connector-curvature="0"
         id="path3769"
         d="m 37.15625,1015.7684 -3.40625,3.8125 3.40625,3.8438 26.15625,0 0,-3.8438 0,-3.8125 -26.15625,0 z"
         style="fill:#b3b3b3;fill-opacity:1;fill-rule:nonzero;stroke:none" />
      <path
         style="fill:#ffcc00;fill-opacity:1;fill-rule:nonzero;stroke:none"
         d="m 33.75295,1011.9295 3.392403,3.8313 26.159389,0 0,-3.8313 z"
         id="path3773"
         inkscape:connector-curvature="0"
         sodipodi:nodetypes="ccccc" />
      <path
         sodipodi:nodetypes="ccccccc"
         inkscape:connector-curvature="0"
         id="rect3777"
         d="m 33.75295,1027.2546 3.392403,-3.8313 -3.392403,-3.8313 3.392403,-3.8312 -3.392403,-3.8313 -13.338135,7.6595 z"
         style="fill:url(#linearGradient3868);fill-opacity:1;fill-rule:nonzero;stroke:none" />
      <path
         sodipodi:nodetypes="ccccc"
         inkscape:connector-curvature="0"
         id="path3782"
         d="m 33.75295,1011.9295 3.392403,3.8313 26.159389,0 0,-3.8313 z"
         style="fill:#e6e6e6;fill-opacity:1;fill-rule:nonzero;stroke:none" />
      <rect
         transform="matrix(0,1,1,0,0,0)"
         y="63.304752"
         x="1011.9294"
         height="14.986588"
         width="15.325094"
         id="rect3784"
         style="fill:url(#linearGradient3870);fill-opacity:1;fill-rule:nonzero;stroke:none" />
      <rect
         transform="matrix(0,1,1,0,0,0)"
         style="fill:url(#linearGradient3872);fill-opacity:1;fill-rule:nonzero;stroke:none"
         id="rect3786"
         width="15.325094"
         height="6.8015881"
         x="1011.9294"
         y="63.304752" />
      <path
         sodipodi:nodetypes="cccc"
         id="path3795"
         d="m 25.754336,1016.524 -5.343036,3.0638 5.343036,3.0744 z"
         style="fill:#4d4d4d;fill-opacity:1;fill-rule:nonzero;stroke:none"
         inkscape:connector-curvature="0" />
      <rect
         transform="matrix(0,-1,1,0,0,0)"
         y="65.149246"
         x="-1027.2545"
         height="3.1125743"
         width="15.325094"
         id="rect3797"
         style="fill:url(#linearGradient3058);fill-opacity:1;fill-rule:nonzero;stroke:none" />
    </g>
  </g>
</svg>
