<?xml version="1.0" encoding="UTF-8" standalone="no"?>
<!-- Created with Inkscape (http://www.inkscape.org/) -->

<svg
   xmlns:dc="http://purl.org/dc/elements/1.1/"
   xmlns:cc="http://creativecommons.org/ns#"
   xmlns:rdf="http://www.w3.org/1999/02/22-rdf-syntax-ns#"
   xmlns:svg="http://www.w3.org/2000/svg"
   xmlns="http://www.w3.org/2000/svg"
   xmlns:xlink="http://www.w3.org/1999/xlink"
   xmlns:sodipodi="http://sodipodi.sourceforge.net/DTD/sodipodi-0.dtd"
   xmlns:inkscape="http://www.inkscape.org/namespaces/inkscape"
   width="96"
   height="96"
   id="svg2"
   version="1.1"
   inkscape:version="0.48.4 r9939"
   sodipodi:docname="eclipse.svg">
  <defs
     id="defs4">
    <linearGradient
       id="linearGradient3773">
      <stop
         style="stop-color:#000000;stop-opacity:1;"
         offset="0"
         id="stop3775" />
      <stop
         style="stop-color:#380100;stop-opacity:1;"
         offset="1"
         id="stop3777" />
    </linearGradient>
    <radialGradient
       inkscape:collect="always"
       xlink:href="#linearGradient4575"
       id="radialGradient3050"
       gradientUnits="userSpaceOnUse"
       gradientTransform="matrix(0.89243115,0,0,0.89243115,-8.305752,1026.92)"
       cx="68"
       cy="-32"
       fx="68"
       fy="-32"
       r="28.668413" />
    <linearGradient
       id="linearGradient4575">
      <stop
         id="stop4577"
         offset="0"
         style="stop-color:#bd0000;stop-opacity:1;" />
      <stop
         id="stop4580"
         offset="1"
         style="stop-color:#2b0000;stop-opacity:1;" />
    </linearGradient>
    <filter
       color-interpolation-filters="sRGB"
       id="filter4602"
       inkscape:collect="always">
      <feGaussianBlur
         id="feGaussianBlur4604"
         stdDeviation="1.1156726"
         inkscape:collect="always" />
    </filter>
    <linearGradient
       inkscape:collect="always"
       xlink:href="#linearGradient3773"
       id="linearGradient3779"
       x1="70"
       y1="1042.3622"
       x2="70"
       y2="957.36218"
       gradientUnits="userSpaceOnUse" />
  </defs>
  <sodipodi:namedview
     id="base"
     pagecolor="#ffffff"
     bordercolor="#666666"
     borderopacity="1.0"
     inkscape:pageopacity="0.0"
     inkscape:pageshadow="2"
     inkscape:zoom="5.90625"
     inkscape:cx="27.700945"
     inkscape:cy="48"
     inkscape:document-units="px"
     inkscape:current-layer="layer1"
     showgrid="true"
     inkscape:snap-page="true"
     inkscape:snap-global="true"
     inkscape:snap-center="true"
     inkscape:snap-object-midpoints="false"
     showguides="true"
     inkscape:guide-bbox="true"
     inkscape:snap-bbox="true"
     inkscape:object-paths="true"
     inkscape:object-nodes="true"
     inkscape:window-width="1305"
     inkscape:window-height="744"
     inkscape:window-x="61"
     inkscape:window-y="24"
     inkscape:window-maximized="1"
     inkscape:snap-midpoints="false"
     inkscape:snap-grids="true"
     inkscape:snap-to-guides="false">
    <inkscape:grid
       type="xygrid"
       id="grid3002"
       empspacing="5"
       visible="true"
       enabled="true"
       snapvisiblegridlinesonly="true" />
  </sodipodi:namedview>
  <metadata
     id="metadata7">
    <rdf:RDF>
      <cc:Work
         rdf:about="">
        <dc:format>image/svg+xml</dc:format>
        <dc:type
           rdf:resource="http://purl.org/dc/dcmitype/StillImage" />
        <dc:title />
      </cc:Work>
    </rdf:RDF>
  </metadata>
  <g
     inkscape:label="Layer 1"
     inkscape:groupmode="layer"
     id="layer1"
     transform="translate(0,-956.36218)">
    <rect
       style="fill:#ffffff;fill-opacity:0;fill-rule:nonzero;stroke:none"
       id="rect3775"
       width="96"
       height="96"
       x="0"
       y="956.36218"
       ry="0" />
    <path
       style="fill:#000000;fill-opacity:0.09589041;fill-rule:nonzero;stroke:none"
       d="m 3.353015,956.30662 c -1.884176,0 -3.4111555,1.43156 -3.4111555,3.19799 l 0,83.65949 c 0,1.7665 1.5269795,3.1981 3.4111555,3.1981 l 89.23583,0 c 1.884174,0 3.411155,-1.4316 3.411155,-3.1981 l 0,-83.65949 c 0,-1.76643 -1.526981,-3.19799 -3.411155,-3.19799 z"
       id="rect3772"
       inkscape:connector-curvature="0"
       sodipodi:nodetypes="sssssssss" />
    <path
       style="fill:#000000;fill-opacity:0.18721463;fill-rule:nonzero;stroke:none"
       d="m 1.0459761,1041.8066 0,7.4219 c 0,1.7392 1.461916,3.1337 3.2852054,3.1337 l 86.3836135,0 c 1.823288,0 3.285205,-1.3945 3.285205,-3.1337 l 0,-7.4219 -92.9540239,0 z"
       id="rect3785"
       inkscape:connector-curvature="0" />
    <path
       style="fill:#000000;fill-opacity:0.38356168;fill-rule:nonzero;stroke:none"
       d="m 1.0459761,1041.8066 0,5.3807 c 0,1.762 1.461916,3.1749 3.2852054,3.1749 l 86.3836135,0 c 1.823288,0 3.285205,-1.4129 3.285205,-3.1749 l 0,-5.3807 -92.9540239,0 z"
       id="rect3783"
       inkscape:connector-curvature="0" />
    <rect
       style="fill:url(#linearGradient3779);fill-opacity:1;fill-rule:nonzero;stroke:none"
       id="rect2985-4"
       width="93"
       height="89"
       x="1.0000019"
       y="957.36218"
       ry="3.1511395" />
    <path
       style="fill:#000000;fill-opacity:0.38356168;fill-rule:nonzero;stroke:none"
       d="m 1,1042.3622 0.045976,2.7457 c 0.03024,1.8058 1.461916,3.2543 3.2852054,3.2543 l 86.3836136,0 c 1.823288,0 3.285205,-1.4481 3.285205,-3.2543 l -0.04598,-2.7457 z"
       id="rect3781"
       inkscape:connector-curvature="0"
       sodipodi:nodetypes="csssscc" />
    <rect
       style="fill:#ffffff;fill-opacity:0.37442923;fill-rule:nonzero;stroke:none"
       id="rect3770"
       width="92.954033"
       height="2.000005"
       x="1.045976"
       y="1040.3622" />
    <path
       inkscape:connector-curvature="0"
       id="path4584"
       d="m 64,-62.619014 c 1.057148,0 2.107696,0.04923 3.137257,0.153787 1.029561,0.104561 2.032762,0.257379 3.029606,0.461361 0.996845,0.203985 1.978338,0.455279 2.937334,0.753558 0.958996,0.298278 1.898288,0.642932 2.814305,1.030374 0.916016,0.387442 1.807991,0.820338 2.675895,1.291811 0.867904,0.471474 1.707448,0.987497 2.522109,1.53787 0.814663,0.550376 1.612034,1.12903 2.368322,1.753174 0.756287,0.624143 1.475618,1.291073 2.168397,1.983855 0.692781,0.692779 1.359711,1.412111 1.983855,2.168398 0.624143,0.756286 1.202797,1.55366 1.753173,2.368321 0.550376,0.814661 1.066396,1.654205 1.537871,2.522109 0.471474,0.867904 0.904371,1.759879 1.291811,2.675895 0.38744,0.916016 0.732096,1.855309 1.030374,2.814305 0.298279,0.958995 0.549574,1.940489 0.753558,2.937334 0.203982,0.996844 0.356805,2.000045 0.461361,3.029606 0.10455,1.029561 0.153787,2.080109 0.153787,3.137256 0,1.057148 -0.04924,2.107696 -0.153787,3.137257 -0.104551,1.029561 -0.257379,2.032762 -0.461361,3.029606 -0.203984,0.996845 -0.455279,1.978339 -0.753558,2.937334 -0.298278,0.958996 -0.642934,1.898289 -1.030374,2.814305 -0.38744,0.916016 -0.820337,1.807991 -1.291811,2.675895 -0.471475,0.867904 -0.987495,1.707448 -1.537871,2.522109 -0.550376,0.814663 -1.12903,1.612034 -1.753173,2.368322 -0.624144,0.756287 -1.291074,1.475618 -1.983855,2.168397 -0.692779,0.6927825 -1.41211,1.3597115 -2.168397,1.9838555 -0.756288,0.624144 -1.553659,1.202797 -2.368322,1.753173 -0.814661,0.550375 -1.654205,1.066396 -2.522109,1.537871 -0.867904,0.471474 -1.759879,0.904371 -2.675895,1.291811 -0.916017,0.387441 -1.855309,0.732096 -2.814305,1.030374 -0.958996,0.298278 -1.940489,0.549574 -2.937334,0.753557 -0.996844,0.203983 -2.000045,0.356806 -3.029606,0.461361 -1.029561,0.104556 -2.080109,0.153787 -3.137257,0.153787 -1.057148,0 -2.107696,-0.04923 -3.137257,-0.153787 -1.029561,-0.104555 -2.032762,-0.257378 -3.029606,-0.461361 -0.996845,-0.203983 -1.978338,-0.455279 -2.937334,-0.753557 -0.958996,-0.298278 -1.898288,-0.642933 -2.814305,-1.030374 -0.916016,-0.38744 -1.807991,-0.820337 -2.675895,-1.291811 -0.867904,-0.471475 -1.707448,-0.987496 -2.522109,-1.537871 -0.814661,-0.550376 -1.612035,-1.129029 -2.368322,-1.753173 -0.756286,-0.624144 -1.475618,-1.291074 -2.168397,-1.9838555 -0.692781,-0.692779 -1.359712,-1.41211 -1.983855,-2.168397 -0.624143,-0.756288 -1.202798,-1.553659 -1.753173,-2.368322 -0.550374,-0.814661 -1.066397,-1.654205 -1.537871,-2.522109 -0.471473,-0.867904 -0.904369,-1.759879 -1.291811,-2.675895 -0.387442,-0.916016 -0.732096,-1.855309 -1.030374,-2.814305 -0.298279,-0.958995 -0.549573,-1.940489 -0.753558,-2.937334 -0.203983,-0.996844 -0.356803,-2.000045 -0.461361,-3.029606 -0.104561,-1.029561 -0.153787,-2.080109 -0.153787,-3.137257 0,-1.057147 0.04923,-2.107695 0.153787,-3.137256 0.104561,-1.029561 0.257378,-2.032762 0.461361,-3.029606 0.203985,-0.996845 0.455279,-1.978339 0.753558,-2.937334 0.298278,-0.958996 0.642932,-1.898289 1.030374,-2.814305 0.387442,-0.916016 0.820338,-1.807991 1.291811,-2.675895 0.471474,-0.867904 0.987497,-1.707448 1.537871,-2.522109 0.550375,-0.814661 1.12903,-1.612035 1.753173,-2.368321 0.624143,-0.756287 1.291074,-1.475619 1.983855,-2.168398 0.692779,-0.692781 1.412111,-1.359712 2.168397,-1.983855 0.756287,-0.624144 1.553661,-1.202798 2.368322,-1.753174 0.814661,-0.550374 1.654205,-1.066396 2.522109,-1.53787 0.867904,-0.471473 1.759879,-0.904369 2.675895,-1.291811 0.916017,-0.387442 1.855309,-0.732096 2.814305,-1.030374 0.958996,-0.298279 1.940489,-0.549573 2.937334,-0.753558 0.996844,-0.203982 2.000045,-0.356803 3.029606,-0.461361 1.029561,-0.104561 2.080109,-0.153787 3.137257,-0.153787 z"
       style="fill:#ffff00;fill-opacity:1;stroke:none;filter:url(#filter4602)"
       transform="matrix(0.89243115,0,0,0.89243115,-8.305752,1026.92)" />
    <path
       style="fill:#ffcc00;fill-opacity:1;stroke:none"
       d="m 48.809838,971.03687 c 0.94343,0 1.88097,0.044 2.79979,0.13724 0.91881,0.0933 1.8141,0.22969 2.70371,0.41174 0.88962,0.18204 1.76553,0.4063 2.62137,0.67249 0.85584,0.26619 1.69409,0.57378 2.51157,0.91954 0.81749,0.34577 1.61351,0.7321 2.38806,1.15286 0.77454,0.42075 1.52377,0.88127 2.2508,1.37244 0.72704,0.49117 1.43864,1.00758 2.11357,1.56459 0.67493,0.557 1.31688,1.15219 1.93514,1.77045 0.61826,0.61826 1.21345,1.26021 1.77045,1.93514 0.55701,0.67493 1.07342,1.38654 1.56459,2.11357 0.49117,0.72703 0.95169,1.47626 1.37244,2.25081 0.42076,0.77454 0.8071,1.57056 1.15286,2.38805 0.34576,0.81748 0.65335,1.65573 0.91954,2.51157 0.26619,0.85584 0.49045,1.73175 0.67249,2.62137 0.18205,0.88961 0.31843,1.7849 0.41174,2.7037 0.0933,0.9188 0.13724,1.8564 0.13724,2.7998 0,0.9434 -0.044,1.88097 -0.13724,2.79977 -0.0933,0.9188 -0.22969,1.8141 -0.41174,2.7037 -0.18204,0.8896 -0.4063,1.7655 -0.67249,2.6214 -0.26619,0.8558 -0.57378,1.6941 -0.91954,2.5116 -0.34576,0.8175 -0.7321,1.6135 -1.15286,2.388 -0.42075,0.7746 -0.88127,1.5238 -1.37244,2.2509 -0.49117,0.727 -1.00758,1.4386 -1.56459,2.1135 -0.557,0.6749 -1.15219,1.3169 -1.77045,1.9352 -0.61826,0.6182 -1.26021,1.2134 -1.93514,1.7704 -0.67493,0.557 -1.38653,1.0734 -2.11357,1.5646 -0.72703,0.4912 -1.47626,0.9517 -2.2508,1.3724 -0.77455,0.4208 -1.57057,0.8071 -2.38806,1.1529 -0.81748,0.3458 -1.65573,0.6533 -2.51157,0.9195 -0.85584,0.2662 -1.73175,0.4905 -2.62137,0.6725 -0.88961,0.1821 -1.7849,0.3184 -2.70371,0.4117 -0.91882,0.093 -1.85636,0.1373 -2.79979,0.1373 -0.94343,0 -1.88097,-0.044 -2.79978,-0.1373 -0.91882,-0.093 -1.81411,-0.2296 -2.70372,-0.4117 -0.88962,-0.182 -1.76553,-0.4063 -2.62137,-0.6725 -0.85584,-0.2662 -1.69409,-0.5737 -2.51157,-0.9195 -0.81748,-0.3458 -1.61351,-0.7321 -2.38805,-1.1529 -0.77455,-0.4207 -1.52379,-0.8812 -2.25081,-1.3724 -0.72703,-0.4912 -1.43863,-1.0076 -2.11356,-1.5646 -0.67494,-0.557 -1.31689,-1.1522 -1.93515,-1.7704 -0.61826,-0.6183 -1.21345,-1.2603 -1.77046,-1.9352 -0.557,-0.6749 -1.07341,-1.3865 -1.56458,-2.1135 -0.49117,-0.7271 -0.95169,-1.4763 -1.37245,-2.2509 -0.42076,-0.7745 -0.80708,-1.5705 -1.15285,-2.388 -0.34576,-0.8175 -0.65334,-1.6558 -0.91954,-2.5116 -0.26619,-0.8559 -0.49045,-1.7318 -0.67249,-2.6214 -0.18204,-0.8896 -0.31843,-1.7849 -0.41174,-2.7037 -0.0933,-0.9188 -0.13724,-1.85637 -0.13724,-2.79977 0,-0.9434 0.0439,-1.881 0.13724,-2.7998 0.0933,-0.9188 0.2297,-1.81409 0.41174,-2.7037 0.18204,-0.88962 0.4063,-1.76553 0.67249,-2.62137 0.2662,-0.85584 0.57378,-1.69409 0.91954,-2.51157 0.34577,-0.81749 0.73209,-1.61351 1.15285,-2.38805 0.42076,-0.77455 0.88128,-1.52378 1.37245,-2.25081 0.49117,-0.72704 1.00758,-1.43864 1.56458,-2.11357 0.55701,-0.67493 1.1522,-1.31688 1.77046,-1.93514 0.61826,-0.61826 1.26021,-1.21345 1.93515,-1.77045 0.67493,-0.55701 1.38653,-1.07342 2.11356,-1.56459 0.72702,-0.49117 1.47626,-0.95169 2.25081,-1.37244 0.77454,-0.42076 1.57057,-0.80709 2.38805,-1.15286 0.81748,-0.34576 1.65573,-0.65335 2.51157,-0.91954 0.85584,-0.26619 1.73175,-0.49045 2.62137,-0.67249 0.88961,-0.18205 1.7849,-0.31843 2.70372,-0.41174 0.91881,-0.0933 1.85635,-0.13724 2.79978,-0.13724 z"
       id="path4573"
       inkscape:connector-curvature="0" />
    <path
       inkscape:connector-curvature="0"
       id="path4569"
       d="m 52.379568,972.77764 c 0.88332,0 1.76114,0.0411 2.62142,0.1285 0.86028,0.0874 1.69853,0.21507 2.53147,0.38551 0.83294,0.17045 1.65306,0.38042 2.45437,0.62965 0.80132,0.24924 1.58617,0.53722 2.35158,0.86096 0.7654,0.32374 1.51071,0.68546 2.23592,1.07941 0.7252,0.39396 1.4267,0.82514 2.10742,1.28501 0.68071,0.45988 1.34698,0.9434 1.97891,1.46492 0.63194,0.52152 1.233,1.07879 1.81187,1.65767 0.57887,0.57887 1.13615,1.17992 1.65766,1.81186 0.52153,0.63194 1.00504,1.29821 1.46492,1.97892 0.45988,0.68071 0.89106,1.38222 1.28501,2.10742 0.39396,0.7252 0.75567,1.47052 1.07941,2.23592 0.32374,0.7654 0.61172,1.55025 0.86096,2.35157 0.24924,0.80131 0.45921,1.62143 0.62966,2.45437 0.17044,0.8329 0.29814,1.6712 0.3855,2.5315 0.0874,0.8603 0.1285,1.7381 0.1285,2.6214 0,0.8833 -0.0411,1.76117 -0.1285,2.62137 -0.0874,0.8603 -0.21506,1.6986 -0.3855,2.5315 -0.17045,0.833 -0.38042,1.6531 -0.62966,2.4544 -0.24924,0.8013 -0.53722,1.5862 -0.86096,2.3516 -0.32374,0.7654 -0.68545,1.5107 -1.07941,2.2359 -0.39395,0.7252 -0.82513,1.4267 -1.28501,2.1074 -0.45988,0.6807 -0.94339,1.347 -1.46492,1.9789 -0.52151,0.632 -1.07879,1.233 -1.65766,1.8119 -0.57887,0.5789 -1.17993,1.1362 -1.81187,1.6577 -0.63193,0.5215 -1.2982,1.005 -1.97891,1.4649 -0.68072,0.4599 -1.38222,0.8911 -2.10742,1.285 -0.72521,0.3939 -1.47052,0.7557 -2.23592,1.0794 -0.76541,0.3237 -1.55026,0.6118 -2.35157,0.861 -0.80132,0.2492 -1.62144,0.4592 -2.45438,0.6296 -0.83294,0.1704 -1.67119,0.2982 -2.53147,0.3855 -0.86028,0.087 -1.7381,0.1285 -2.62142,0.1285 -0.88333,0 -1.76115,-0.041 -2.62143,-0.1285 -0.86027,-0.087 -1.69853,-0.2151 -2.53147,-0.3855 -0.83294,-0.1704 -1.65306,-0.3804 -2.45437,-0.6296 -0.80132,-0.2492 -1.58617,-0.5373 -2.35158,-0.861 -0.7654,-0.3237 -1.51071,-0.6855 -2.23592,-1.0794 -0.7252,-0.3939 -1.4267,-0.8251 -2.10742,-1.285 -0.68071,-0.4599 -1.34698,-0.9434 -1.97891,-1.4649 -0.63194,-0.5215 -1.233,-1.0788 -1.81187,-1.6577 -0.57887,-0.5789 -1.13615,-1.1799 -1.65766,-1.8119 -0.52153,-0.6319 -1.00504,-1.2982 -1.46492,-1.9789 -0.45988,-0.6807 -0.89105,-1.3822 -1.28501,-2.1074 -0.39395,-0.7252 -0.75567,-1.4705 -1.07941,-2.2359 -0.32374,-0.7654 -0.61172,-1.5503 -0.86096,-2.3516 -0.24923,-0.8013 -0.45921,-1.6214 -0.62965,-2.4544 -0.17045,-0.8329 -0.29814,-1.6712 -0.38551,-2.5315 -0.0874,-0.8602 -0.1285,-1.73807 -0.1285,-2.62137 0,-0.8833 0.0411,-1.7611 0.1285,-2.6214 0.0874,-0.8603 0.21506,-1.6986 0.38551,-2.5315 0.17044,-0.83294 0.38042,-1.65305 0.62965,-2.45437 0.24924,-0.80132 0.53722,-1.58617 0.86096,-2.35157 0.32374,-0.7654 0.68546,-1.51072 1.07941,-2.23592 0.39395,-0.7252 0.82513,-1.42671 1.28501,-2.10742 0.45988,-0.68071 0.94339,-1.34698 1.46492,-1.97892 0.52151,-0.63194 1.07879,-1.23299 1.65766,-1.81186 0.57887,-0.57888 1.17993,-1.13615 1.81187,-1.65767 0.63193,-0.52152 1.2982,-1.00504 1.97891,-1.46492 0.68072,-0.45987 1.38222,-0.89105 2.10742,-1.28501 0.72521,-0.39395 1.47052,-0.75567 2.23592,-1.07941 0.76541,-0.32374 1.55026,-0.61172 2.35158,-0.86096 0.80131,-0.24923 1.62143,-0.4592 2.45437,-0.62965 0.83294,-0.17044 1.6712,-0.29814 2.53147,-0.38551 0.86028,-0.0874 1.7381,-0.1285 2.62143,-0.1285 z"
       style="fill:url(#radialGradient3050);fill-opacity:1;stroke:none" />
    <rect
       style="fill:#f7e214;fill-opacity:1;fill-rule:evenodd;stroke:none"
       id="rect3073"
       width="93"
       height="1"
       x="1"
       y="986.36218" />
    <rect
       y="991.36218"
       x="1"
       height="1"
       width="93"
       id="rect3843"
       style="fill:#f7e214;fill-opacity:1;fill-rule:evenodd;stroke:none" />
    <rect
       style="fill:#f7e214;fill-opacity:1;fill-rule:evenodd;stroke:none"
       id="rect3845"
       width="93"
       height="1"
       x="1"
       y="996.36218" />
    <rect
       y="1001.3622"
       x="1"
       height="1"
       width="93"
       id="rect3847"
       style="fill:#f7e214;fill-opacity:1;fill-rule:evenodd;stroke:none" />
    <rect
       style="fill:#f7e214;fill-opacity:1;fill-rule:evenodd;stroke:none"
       id="rect3849"
       width="93"
       height="1"
       x="1"
       y="1006.3622" />
    <rect
       style="fill:#f7e214;fill-opacity:1;fill-rule:evenodd;stroke:none"
       id="rect3851"
       width="93"
       height="1"
       x="1"
       y="1011.3622" />
  </g>
</svg>
