<?xml version="1.0" encoding="UTF-8" standalone="no"?>
<!-- Created with Inkscape (http://www.inkscape.org/) -->

<svg
   xmlns:dc="http://purl.org/dc/elements/1.1/"
   xmlns:cc="http://creativecommons.org/ns#"
   xmlns:rdf="http://www.w3.org/1999/02/22-rdf-syntax-ns#"
   xmlns:svg="http://www.w3.org/2000/svg"
   xmlns="http://www.w3.org/2000/svg"
   xmlns:xlink="http://www.w3.org/1999/xlink"
   xmlns:sodipodi="http://sodipodi.sourceforge.net/DTD/sodipodi-0.dtd"
   xmlns:inkscape="http://www.inkscape.org/namespaces/inkscape"
   width="96"
   height="96"
   id="svg2"
   version="1.1"
   inkscape:version="0.48.4 r9939"
   sodipodi:docname="elkirtasse.svg">
  <defs
     id="defs4">
    <linearGradient
       inkscape:collect="always"
       id="linearGradient3791">
      <stop
         style="stop-color:#ffc61e;stop-opacity:1;"
         offset="0"
         id="stop3793" />
      <stop
         style="stop-color:#ffc61e;stop-opacity:0;"
         offset="1"
         id="stop3796" />
    </linearGradient>
    <linearGradient
       inkscape:collect="always"
       id="linearGradient3793">
      <stop
         style="stop-color:#000000;stop-opacity:1;"
         offset="0"
         id="stop3795" />
      <stop
         style="stop-color:#000000;stop-opacity:0;"
         offset="1"
         id="stop3797" />
    </linearGradient>
    <linearGradient
       id="linearGradient3883">
      <stop
         style="stop-color:#360100;stop-opacity:1;"
         offset="0"
         id="stop3885" />
      <stop
         style="stop-color:#ff0d00;stop-opacity:1;"
         offset="1"
         id="stop3887" />
    </linearGradient>
    <linearGradient
       inkscape:collect="always"
       id="linearGradient3810">
      <stop
         style="stop-color:#000000;stop-opacity:1;"
         offset="0"
         id="stop3812" />
      <stop
         style="stop-color:#000000;stop-opacity:0;"
         offset="1"
         id="stop3814" />
    </linearGradient>
    <linearGradient
       inkscape:collect="always"
       xlink:href="#linearGradient3810"
       id="linearGradient3816"
       x1="-1"
       y1="36"
       x2="9"
       y2="36"
       gradientUnits="userSpaceOnUse" />
    <linearGradient
       inkscape:collect="always"
       xlink:href="#linearGradient3791"
       id="linearGradient3830"
       x1="15"
       y1="989.36218"
       x2="20"
       y2="989.36218"
       gradientUnits="userSpaceOnUse"
       gradientTransform="matrix(1,0,0,1.03125,0,-29.917489)" />
    <linearGradient
       inkscape:collect="always"
       xlink:href="#linearGradient3883"
       id="linearGradient3889"
       x1="17"
       y1="1034.3622"
       x2="17"
       y2="1039.3622"
       gradientUnits="userSpaceOnUse" />
    <linearGradient
       inkscape:collect="always"
       xlink:href="#linearGradient3793"
       id="linearGradient3799"
       x1="65"
       y1="1025.3622"
       x2="65"
       y2="1046.3622"
       gradientUnits="userSpaceOnUse" />
    <linearGradient
       inkscape:collect="always"
       xlink:href="#linearGradient3791"
       id="linearGradient3798"
       x1="94"
       y1="45"
       x2="90"
       y2="45"
       gradientUnits="userSpaceOnUse" />
  </defs>
  <sodipodi:namedview
     id="base"
     pagecolor="#ffffff"
     bordercolor="#666666"
     borderopacity="1.0"
     inkscape:pageopacity="0.0"
     inkscape:pageshadow="2"
     inkscape:zoom="15.207818"
     inkscape:cx="56.645506"
     inkscape:cy="50.214736"
     inkscape:document-units="px"
     inkscape:current-layer="layer1"
     showgrid="true"
     inkscape:snap-page="true"
     inkscape:snap-global="true"
     inkscape:snap-center="true"
     inkscape:snap-object-midpoints="false"
     showguides="true"
     inkscape:guide-bbox="true"
     inkscape:snap-bbox="true"
     inkscape:object-paths="true"
     inkscape:object-nodes="true"
     inkscape:window-width="1305"
     inkscape:window-height="744"
     inkscape:window-x="61"
     inkscape:window-y="24"
     inkscape:window-maximized="1"
     inkscape:snap-midpoints="false"
     inkscape:snap-grids="true"
     inkscape:snap-to-guides="false">
    <inkscape:grid
       type="xygrid"
       id="grid3002"
       empspacing="5"
       visible="true"
       enabled="true"
       snapvisiblegridlinesonly="true" />
  </sodipodi:namedview>
  <metadata
     id="metadata7">
    <rdf:RDF>
      <cc:Work
         rdf:about="">
        <dc:format>image/svg+xml</dc:format>
        <dc:type
           rdf:resource="http://purl.org/dc/dcmitype/StillImage" />
        <dc:title />
      </cc:Work>
    </rdf:RDF>
  </metadata>
  <g
     inkscape:label="Layer 1"
     inkscape:groupmode="layer"
     id="layer1"
     transform="translate(0,-956.36218)">
    <rect
       style="fill:#ffffff;fill-opacity:0;fill-rule:nonzero;stroke:none"
       id="rect3775"
       width="96"
       height="96"
       x="0"
       y="956.36218"
       ry="0" />
    <path
       style="fill:#000000;fill-opacity:0.09589041;fill-rule:nonzero;stroke:none"
       d="m 3.353015,956.30662 c -1.884176,0 -3.4111555,1.43156 -3.4111555,3.19799 l 0,83.65949 c 0,1.7665 1.5269795,3.1981 3.4111555,3.1981 l 89.23583,0 c 1.884174,0 3.411155,-1.4316 3.411155,-3.1981 l 0,-83.65949 c 0,-1.76643 -1.526981,-3.19799 -3.411155,-3.19799 z"
       id="rect3772"
       inkscape:connector-curvature="0"
       sodipodi:nodetypes="sssssssss" />
    <path
       style="fill:#000000;fill-opacity:0.18721463;fill-rule:nonzero;stroke:none"
       d="m 1.0459761,1041.8066 0,7.4219 c 0,1.7392 1.461916,3.1337 3.2852054,3.1337 l 86.3836135,0 c 1.823288,0 3.285205,-1.3945 3.285205,-3.1337 l 0,-7.4219 -92.9540239,0 z"
       id="rect3785"
       inkscape:connector-curvature="0" />
    <path
       style="fill:#000000;fill-opacity:0.38356168;fill-rule:nonzero;stroke:none"
       d="m 1.0459761,1041.8066 0,5.3807 c 0,1.762 1.461916,3.1749 3.2852054,3.1749 l 86.3836135,0 c 1.823288,0 3.285205,-1.4129 3.285205,-3.1749 l 0,-5.3807 -92.9540239,0 z"
       id="rect3783"
       inkscape:connector-curvature="0" />
    <path
       style="fill:#000000;fill-opacity:0.38356168;fill-rule:nonzero;stroke:none"
       d="m 1,1042.3622 0.045976,2.7457 c 0.03024,1.8058 1.461916,3.2543 3.2852054,3.2543 l 86.3836136,0 c 1.823288,0 3.285205,-1.4481 3.285205,-3.2543 l -0.04598,-2.7457 z"
       id="rect3781"
       inkscape:connector-curvature="0"
       sodipodi:nodetypes="csssscc" />
    <rect
       style="fill:#d88c02;fill-opacity:1;fill-rule:nonzero;stroke:none"
       id="rect2985-2"
       width="93"
       height="88.999947"
       x="0.99999738"
       y="957.36218"
       ry="3.1511376" />
    <path
       style="fill:#000000;fill-opacity:0.59360731;fill-rule:evenodd;stroke:none"
       d="M 15,1 4.15625,1 C 3.2833849,1 2.4758181,1.3366819 1.90625,1.90625 1.3366819,2.4758181 1,3.2833849 1,4.15625 l 0,64.90625 14,0 z"
       id="path3801"
       transform="translate(0,956.36218)"
       inkscape:connector-curvature="0"
       sodipodi:nodetypes="csssccc" />
    <path
       style="fill:url(#linearGradient3816);fill-opacity:1;fill-rule:evenodd;stroke:none"
       d="M 4.15625,1 C 3.2833849,1 2.4758181,1.3366819 1.90625,1.90625 1.3366819,2.4758181 1,3.2833849 1,4.15625 L 1,71 9,71 9,1 z"
       id="path3808"
       transform="translate(0,956.36218)"
       inkscape:connector-curvature="0"
       sodipodi:nodetypes="ssscccs" />
    <rect
       style="fill:url(#linearGradient3830);fill-opacity:1.0;fill-rule:evenodd;stroke:none"
       id="rect3822"
       width="5"
       height="66"
       x="15"
       y="957.36218" />
    <path
       style="fill:url(#linearGradient3798);fill-opacity:1;fill-rule:evenodd;stroke:none"
       d="M 90 90 L 90.84375 90 C 91.716615 90 92.524182 89.663318 93.09375 89.09375 C 93.663318 88.524182 94 87.716615 94 86.84375 L 94 4.15625 C 94 3.2833849 93.663318 2.4758181 93.09375 1.90625 C 92.524182 1.3366819 91.716615 1 90.84375 1 L 90 1 L 90 90 z "
       id="rect3845"
       transform="translate(0,956.36218)" />
    <path
       style="fill:#b07902;fill-opacity:1;fill-rule:nonzero;stroke:none"
       d="M 4.15625,65 C 2.4105198,65 1,66.41055 1,68.15625 l 0,18.6875 c 0,0.8729 0.3366819,1.6805 0.90625,2.25 C 2.4758181,89.66335 3.2833849,90 4.15625,90 l 86.6875,0 c 0.872865,0 1.680432,-0.33665 2.25,-0.90625 C 93.663318,88.52425 94,87.71665 94,86.84375 l 0,-18.6875 C 94,66.41055 92.58948,65 90.84375,65 L 20,65 c -2,0 -4,0 -5,2 -1,-2 -3,-2 -5,-2 z"
       transform="translate(0,956.36218)"
       id="rect3779"
       inkscape:connector-curvature="0"
       sodipodi:nodetypes="ssscsscssscccs" />
    <path
       sodipodi:nodetypes="ccccc"
       inkscape:connector-curvature="0"
       id="path3818"
       d="m 5.0625,1025.3622 0,17 88.937497,0 0,-17 z"
       style="fill:url(#linearGradient3799);fill-opacity:1;fill-rule:nonzero;stroke:none" />
    <path
       style="fill:#ffffff;fill-opacity:1;fill-rule:nonzero;stroke:none"
       d="m 5.0625,1025.4247 0,13.875 84.9375,0 0,-13.875 z"
       id="path3789"
       inkscape:connector-curvature="0"
       sodipodi:nodetypes="ccccc" />
    <path
       sodipodi:nodetypes="ccccc"
       inkscape:connector-curvature="0"
       id="path3832"
       d="m 5,1027.4247 0,0.9375 85,0 0,-0.9375 z"
       style="fill:#010101;fill-opacity:0.66210046;fill-rule:nonzero;stroke:none" />
    <path
       style="fill:#010101;fill-opacity:0.66210046;fill-rule:nonzero;stroke:none"
       d="m 5,1030.4247 0,0.9375 85,0 0,-0.9375 z"
       id="path3834"
       inkscape:connector-curvature="0"
       sodipodi:nodetypes="ccccc" />
    <path
       sodipodi:nodetypes="ccccc"
       inkscape:connector-curvature="0"
       id="path3836"
       d="m 5,1033.4247 0,0.9375 85,0 0,-0.9375 z"
       style="fill:#010101;fill-opacity:0.66210046;fill-rule:nonzero;stroke:none" />
    <path
       style="fill:#010101;fill-opacity:0.66210046;fill-rule:nonzero;stroke:none"
       d="m 5,1036.4247 0,0.9375 85,0 0,-0.9375 z"
       id="path3838"
       inkscape:connector-curvature="0"
       sodipodi:nodetypes="ccccc" />
    <path
       sodipodi:nodetypes="ccccccc"
       inkscape:connector-curvature="0"
       id="path3881"
       d="m 10,1034.3622 0,16 7.11111,-5.3333 1.77778,0 7.11111,5.3333 0,-16 z"
       style="fill:#000000;fill-opacity:0.50228307;fill-rule:evenodd;stroke:none" />
    <path
       style="fill:url(#linearGradient3889);fill-opacity:1.0;fill-rule:evenodd;stroke:none"
       d="m 10,1034.3622 0,15 6.666666,-5 1.666668,0 6.666666,5 0,-15 z"
       id="rect3840"
       inkscape:connector-curvature="0"
       sodipodi:nodetypes="ccccccc" />
    <rect
       style="fill:#000000;fill-opacity:0.72602737;fill-rule:evenodd;stroke:none"
       id="rect3843"
       width="3"
       height="13.999997"
       x="5"
       y="1025.3622" />
    <path
       style="fill:#ffffff;fill-opacity:0.38306451;fill-rule:nonzero;stroke:none"
       d="M 4.15625,1020.3464 C 2.41052,1020.3464 1,1021.7569 1,1023.5026 l 0,1.0313 c 0,-1.7457 1.41052,-3.1563 3.15625,-3.1563 l 5.84375,0 c 2,0 4,0 5,2 1,-2 3,-2 5,-2 l 70.84375,0 c 1.74573,0 3.15625,1.4106 3.15625,3.1563 l 0,-1.0313 c 0,-1.7457 -1.41052,-3.1562 -3.15625,-3.1562 l -70.84375,0 c -2,0 -4,0 -5,2 -1,-2 -3,-2 -5,-2 l -5.84375,0 z"
       id="path3802"
       inkscape:connector-curvature="0" />
    <path
       style="font-size:21.54206276px;font-style:normal;font-variant:normal;font-weight:normal;font-stretch:normal;text-align:end;line-height:125%;letter-spacing:0px;word-spacing:0px;text-anchor:end;fill:#000000;fill-opacity:1;stroke:none;font-family:Andale Mono;-inkscape-font-specification:Andale Mono"
       d="m 53.002524,970.01843 0,22.65444 2.215469,0 0.03165,0 7.057853,0 0,-13.08571 -2.785162,0 c -0.966561,10e-6 -1.572053,0.78663 -1.804025,2.40802 l 0,-11.97675 -1.487529,0 0,19.77115 -0.981137,0 -0.03165,0 -0.72794,0 0,-19.77115 -1.487529,0 z m 22.629437,0 0,19.77115 -1.519179,0 -0.886188,0 0,-10.29748 -3.038358,0 c -0.922375,2e-5 -1.360932,1.0977 -1.360931,3.26351 l 0,5.10121 0.506393,1.93276 -1.993923,0 -0.917837,0 0,-10.20242 -1.487529,0 0,12.92729 c -2e-6,0.57992 -0.0669,1.01502 -0.221547,1.29906 -0.149128,0.28404 -0.468971,0.4119 -0.949487,0.4119 l 0,2.34466 0.632991,0 c 0.370052,-10e-6 0.640622,-0.0519 0.822889,-0.15843 0.364528,-0.21303 0.665257,-0.68019 0.886187,-1.4258 0.198832,-0.68644 0.310969,-1.46084 0.316496,-2.31297 l 0.917837,0 6.773007,0 3.006708,0 0,-22.65444 -1.487529,0 z m 2.91176,0 0,22.65444 1.487529,0 0,-22.65444 -1.487529,0 z m -9.241673,4.27741 0,2.91498 1.645778,0 0,-2.91498 -1.645778,0 z m 2.310418,0 0,2.91498 1.645778,0 0,-2.91498 -1.645778,0 z m -27.186974,5.29132 0,10.20242 -1.582478,0 -0.03165,0 -0.506393,0 0,-4.05562 c -1.3e-5,-2.6984 -0.599982,-4.05561 -1.804025,-4.05562 l -5.317126,0.0317 0,2.88329 1.45588,0 c 0.353476,10e-6 0.614488,0.1439 0.791239,0.47527 0.176734,0.31956 0.253188,0.80657 0.253196,1.45749 l 0,3.26351 -6.013417,0 0.03165,-8.36472 c -1.065977,1e-5 -1.614129,1.32517 -1.614128,3.92888 l 0,7.35081 9.115074,0 0,-8.11124 0.569692,0 c 0.706957,10e-6 1.044425,0.63091 1.044436,1.93276 l 0,6.1468 1.993922,0 0.03165,0 8.70363,0 0,-13.08571 -1.48753,0 0,10.20242 -1.265982,0 0,-10.20242 -1.48753,0 0,10.20242 -1.39258,0 0,-10.20242 -1.48753,0 z m 26.522334,2.81992 0.822888,0 0,7.3825 -0.854538,0 -0.601342,-1.93276 0,-3.83383 c -3e-6,-1.07698 0.207702,-1.6159 0.632992,-1.61591 z m -11.203946,0.38022 1.076086,0 0,7.00228 -3.101658,0 0,-2.94666 c -2e-6,-2.68656 0.666865,-4.05561 2.025572,-4.05562 z M 33,994.4472 l 0,2.91498 1.645777,0 0,-2.91498 -1.645777,0 z m 2.310418,0 0,2.91498 1.645777,0 0,-2.91498 -1.645777,0 z"
       id="text3800"
       inkscape:connector-curvature="0" />
    <rect
       y="1001.3622"
       x="30"
       height="2"
       width="50"
       id="rect3841"
       style="fill:#644501;fill-opacity:1;fill-rule:evenodd;stroke:none" />
    <rect
       style="fill:#644501;fill-opacity:1;fill-rule:evenodd;stroke:none"
       id="rect3844"
       width="30"
       height="2"
       x="40"
       y="1007.3622" />
  </g>
</svg>
