<?xml version="1.0" encoding="UTF-8" standalone="no"?>
<!-- Created with Inkscape (http://www.inkscape.org/) -->

<svg
   xmlns:dc="http://purl.org/dc/elements/1.1/"
   xmlns:cc="http://creativecommons.org/ns#"
   xmlns:rdf="http://www.w3.org/1999/02/22-rdf-syntax-ns#"
   xmlns:svg="http://www.w3.org/2000/svg"
   xmlns="http://www.w3.org/2000/svg"
   xmlns:xlink="http://www.w3.org/1999/xlink"
   xmlns:sodipodi="http://sodipodi.sourceforge.net/DTD/sodipodi-0.dtd"
   xmlns:inkscape="http://www.inkscape.org/namespaces/inkscape"
   width="96"
   height="96"
   id="svg2"
   version="1.1"
   inkscape:version="0.48.4 r9939"
   sodipodi:docname="emacs.svg">
  <defs
     id="defs4">
    <linearGradient
       id="linearGradient3823">
      <stop
         style="stop-color:#5e0072;stop-opacity:1;"
         offset="0"
         id="stop3825" />
      <stop
         style="stop-color:#58aacd;stop-opacity:1;"
         offset="1"
         id="stop3828" />
    </linearGradient>
    <linearGradient
       inkscape:collect="always"
       xlink:href="#linearGradient3849"
       id="linearGradient3868"
       gradientUnits="userSpaceOnUse"
       x1="33.7864"
       y1="1027.2502"
       x2="33.741676"
       y2="1011.9337" />
    <linearGradient
       id="linearGradient3849">
      <stop
         style="stop-color:#f76300;stop-opacity:1;"
         offset="0"
         id="stop3851" />
      <stop
         style="stop-color:#ffe0cc;stop-opacity:1;"
         offset="1"
         id="stop3853" />
    </linearGradient>
    <linearGradient
       inkscape:collect="always"
       xlink:href="#linearGradient3825"
       id="linearGradient3870"
       gradientUnits="userSpaceOnUse"
       gradientTransform="translate(2039.1839,0)"
       x1="-1027.2545"
       y1="70.798042"
       x2="-1011.9294"
       y2="70.798042" />
    <linearGradient
       id="linearGradient3825">
      <stop
         style="stop-color:#ffdcdc;stop-opacity:1;"
         offset="0"
         id="stop3827" />
      <stop
         style="stop-color:#d96d6d;stop-opacity:1;"
         offset="1"
         id="stop3829" />
    </linearGradient>
    <linearGradient
       inkscape:collect="always"
       xlink:href="#linearGradient3841"
       id="linearGradient3872"
       gradientUnits="userSpaceOnUse"
       gradientTransform="translate(2039.1839,0)"
       x1="-1027.2545"
       y1="66.705544"
       x2="-1011.9294"
       y2="66.705544" />
    <linearGradient
       id="linearGradient3841">
      <stop
         style="stop-color:#ffffff;stop-opacity:1;"
         offset="0"
         id="stop3843" />
      <stop
         style="stop-color:#dadada;stop-opacity:1;"
         offset="1"
         id="stop3845" />
    </linearGradient>
    <linearGradient
       y2="66.705536"
       x2="-1011.9294"
       y1="66.705536"
       x1="-1027.2545"
       gradientUnits="userSpaceOnUse"
       id="linearGradient3051"
       xlink:href="#linearGradient3833"
       inkscape:collect="always" />
    <linearGradient
       inkscape:collect="always"
       id="linearGradient3833">
      <stop
         style="stop-color:#999999;stop-opacity:1;"
         offset="0"
         id="stop3835" />
      <stop
         style="stop-color:#999999;stop-opacity:0;"
         offset="1"
         id="stop3837" />
    </linearGradient>
    <linearGradient
       inkscape:collect="always"
       xlink:href="#linearGradient3823"
       id="linearGradient3830"
       x1="40"
       y1="1047.3622"
       x2="40"
       y2="957.36218"
       gradientUnits="userSpaceOnUse" />
  </defs>
  <sodipodi:namedview
     id="base"
     pagecolor="#ffffff"
     bordercolor="#666666"
     borderopacity="1.0"
     inkscape:pageopacity="0.0"
     inkscape:pageshadow="2"
     inkscape:zoom="5.90625"
     inkscape:cx="17.862434"
     inkscape:cy="48"
     inkscape:document-units="px"
     inkscape:current-layer="layer1"
     showgrid="true"
     inkscape:snap-page="true"
     inkscape:snap-global="true"
     inkscape:snap-center="true"
     inkscape:snap-object-midpoints="false"
     showguides="true"
     inkscape:guide-bbox="true"
     inkscape:snap-bbox="true"
     inkscape:object-paths="true"
     inkscape:object-nodes="true"
     inkscape:window-width="1305"
     inkscape:window-height="744"
     inkscape:window-x="61"
     inkscape:window-y="24"
     inkscape:window-maximized="1"
     inkscape:snap-midpoints="false"
     inkscape:snap-grids="true"
     inkscape:snap-to-guides="false">
    <inkscape:grid
       type="xygrid"
       id="grid3002"
       empspacing="5"
       visible="true"
       enabled="true"
       snapvisiblegridlinesonly="true" />
  </sodipodi:namedview>
  <metadata
     id="metadata7">
    <rdf:RDF>
      <cc:Work
         rdf:about="">
        <dc:format>image/svg+xml</dc:format>
        <dc:type
           rdf:resource="http://purl.org/dc/dcmitype/StillImage" />
        <dc:title />
      </cc:Work>
    </rdf:RDF>
  </metadata>
  <g
     inkscape:label="Layer 1"
     inkscape:groupmode="layer"
     id="layer1"
     transform="translate(0,-956.36218)">
    <rect
       style="fill:#ffffff;fill-opacity:0;fill-rule:nonzero;stroke:none"
       id="rect3775"
       width="96"
       height="96"
       x="0"
       y="956.36218"
       ry="0" />
    <path
       style="fill:#000000;fill-opacity:0.09589041;fill-rule:nonzero;stroke:none"
       d="m 3.353015,956.30662 c -1.884176,0 -3.4111555,1.43156 -3.4111555,3.19799 l 0,83.65949 c 0,1.7665 1.5269795,3.1981 3.4111555,3.1981 l 89.23583,0 c 1.884174,0 3.411155,-1.4316 3.411155,-3.1981 l 0,-83.65949 c 0,-1.76643 -1.526981,-3.19799 -3.411155,-3.19799 z"
       id="rect3772"
       inkscape:connector-curvature="0"
       sodipodi:nodetypes="sssssssss" />
    <path
       style="fill:#000000;fill-opacity:0.18721463;fill-rule:nonzero;stroke:none"
       d="m 1.0459761,1041.8066 0,7.4219 c 0,1.7392 1.461916,3.1337 3.2852054,3.1337 l 86.3836135,0 c 1.823288,0 3.285205,-1.3945 3.285205,-3.1337 l 0,-7.4219 -92.9540239,0 z"
       id="rect3785"
       inkscape:connector-curvature="0" />
    <path
       style="fill:#000000;fill-opacity:0.38356168;fill-rule:nonzero;stroke:none"
       d="m 1.0459761,1041.8066 0,5.3807 c 0,1.762 1.461916,3.1749 3.2852054,3.1749 l 86.3836135,0 c 1.823288,0 3.285205,-1.4129 3.285205,-3.1749 l 0,-5.3807 -92.9540239,0 z"
       id="rect3783"
       inkscape:connector-curvature="0" />
    <rect
       style="fill:url(#linearGradient3830);fill-opacity:1;fill-rule:nonzero;stroke:none"
       id="rect2985-1"
       width="93"
       height="89.000008"
       x="0.99999738"
       y="957.36218"
       ry="3.1511397" />
    <path
       style="fill:#000000;fill-opacity:0.38356168;fill-rule:nonzero;stroke:none"
       d="m 1,1042.3622 0.045976,2.7457 c 0.03024,1.8058 1.461916,3.2543 3.2852054,3.2543 l 86.3836136,0 c 1.823288,0 3.285205,-1.4481 3.285205,-3.2543 l -0.04598,-2.7457 z"
       id="rect3781"
       inkscape:connector-curvature="0"
       sodipodi:nodetypes="csssscc" />
    <rect
       style="fill:#ffffff;fill-opacity:0.30000001;fill-rule:nonzero;stroke:none"
       id="rect3770"
       width="92.954033"
       height="2.000005"
       x="1.045976"
       y="1040.3622" />
    <path
       d="m 13.77843,1035.0402 c 0,0 3.152859,1.0845 7.349698,1.7047 1.699605,0.2512 8.166329,1.1291 13.124464,1.1059 0,0 6.03856,0 9.371823,-0.553 3.487734,-0.587 5.463679,-1.3362 6.563357,-2.8314 0.02861,-0.3563 0.530771,-1.5186 -0.824938,-2.6392 -3.466013,-2.8651 -7.946758,-3.6491 -16.650114,-6.0983 -9.624222,-2.8672 -12.500398,-5.6129 -13.937278,-7.5998 -1.362267,-1.9913 0.255706,-6.1271 8.01079,-8.156 3.92646,-1.1323 18.550375,-1.34 18.550375,-1.34 -4.195516,-3.9471 -12.072119,-11.01359 -13.682145,-12.51628 -1.41206,-1.31799 -3.687536,-3.3407 -3.932126,-5.14816 -0.329965,-1.75947 2.00731,-2.60664 3.24469,-2.70437 3.987142,-0.32596 9.431632,0.22803 14.271201,1.36858 2.432613,0.57306 2.859719,0.48862 2.859719,0.48862 3.464689,0.19501 6.159435,-1.95491 6.021952,-6.48388 -0.02742,-4.59412 -3.903956,-8.27807 -8.194244,-8.43903 -4.040205,-0.15215 -13.996207,0.68431 -13.996207,0.68431 11.603916,2.83464 13.500906,3.55816 14.106192,5.21325 0.357471,0.97746 -0.597112,1.94934 -3.794651,1.75947 -3.481098,-0.20574 -10.614015,-1.20571 -10.614015,-1.20571 -6.791874,-1.23805 -11.521439,-2.41096 -13.583748,0.78224 -1.347318,2.08606 0.192473,4.62647 0.797422,6.12534 2.694765,5.57175 7.35453,9.39417 10.311557,12.08812 1.112601,1.0139 4.509578,3.2583 4.509578,3.2583 -10.559027,-3.421 -18.97324,-1.4986 -24.3077556,1.8246 -6.131945,4.301 -5.0830146,11.5587 4.6470696,18.3443 5.746966,4.0075 8.608411,5.9328 18.017984,7.3017 5.500024,1.0391 6.319586,1.4642 6.277793,2.0066 -0.05875,0.7638 -6.509858,1.0531 -8.283006,1.1981 -4.51092,0.3686 -16.177116,0.461 -16.235437,0.461 z"
       inkscape:connector-curvature="0"
       id="path3848"
       style="fill:#ffffff;fill-opacity:0.53424656;fill-rule:evenodd;stroke:#000000;stroke-width:0;stroke-linecap:butt;stroke-linejoin:miter;stroke-miterlimit:4;stroke-opacity:1;stroke-dasharray:none;display:inline" />
    <path
       style="fill:#333333;fill-opacity:0.62100459;fill-rule:nonzero;stroke:none"
       d="m 46.6875,992.26199 -6,16.44391 53.3125,0 0,-16.44391 z"
       id="rect3821"
       inkscape:connector-curvature="0"
       sodipodi:nodetypes="ccccc" />
    <g
       id="g3857"
       transform="matrix(0.77349509,-0.77349509,0.77349509,0.77349509,-763.75115,235.84574)">
      <path
         sodipodi:nodetypes="ccccc"
         inkscape:connector-curvature="0"
         id="rect3766"
         d="m 33.752949,1027.2546 3.392404,-3.8313 26.159377,0 0,3.8313 z"
         style="fill:#4d4d4d;fill-opacity:1;fill-rule:nonzero;stroke:none" />
      <path
         inkscape:connector-curvature="0"
         id="path3769"
         d="m 37.15625,1015.7684 -3.40625,3.8125 3.40625,3.8438 26.15625,0 0,-3.8438 0,-3.8125 -26.15625,0 z"
         style="fill:#b3b3b3;fill-opacity:1;fill-rule:nonzero;stroke:none" />
      <path
         style="fill:#ffcc00;fill-opacity:1;fill-rule:nonzero;stroke:none"
         d="m 33.75295,1011.9295 3.392403,3.8313 26.159389,0 0,-3.8313 z"
         id="path3773"
         inkscape:connector-curvature="0"
         sodipodi:nodetypes="ccccc" />
      <path
         sodipodi:nodetypes="ccccccc"
         inkscape:connector-curvature="0"
         id="rect3777"
         d="m 33.75295,1027.2546 3.392403,-3.8313 -3.392403,-3.8313 3.392403,-3.8312 -3.392403,-3.8313 -13.338135,7.6595 z"
         style="fill:url(#linearGradient3868);fill-opacity:1;fill-rule:nonzero;stroke:none" />
      <path
         sodipodi:nodetypes="ccccc"
         inkscape:connector-curvature="0"
         id="path3782"
         d="m 33.75295,1011.9295 3.392403,3.8313 26.159389,0 0,-3.8313 z"
         style="fill:#e6e6e6;fill-opacity:1;fill-rule:nonzero;stroke:none" />
      <rect
         transform="matrix(0,1,1,0,0,0)"
         y="63.304752"
         x="1011.9294"
         height="14.986588"
         width="15.325094"
         id="rect3784"
         style="fill:url(#linearGradient3870);fill-opacity:1;fill-rule:nonzero;stroke:none" />
      <rect
         transform="matrix(0,1,1,0,0,0)"
         style="fill:url(#linearGradient3872);fill-opacity:1;fill-rule:nonzero;stroke:none"
         id="rect3786"
         width="15.325094"
         height="6.8015881"
         x="1011.9294"
         y="63.304752" />
      <path
         sodipodi:nodetypes="cccc"
         id="path3795"
         d="m 25.754336,1016.524 -5.343036,3.0638 5.343036,3.0744 z"
         style="fill:#4d4d4d;fill-opacity:1;fill-rule:nonzero;stroke:none"
         inkscape:connector-curvature="0" />
      <rect
         transform="matrix(0,-1,1,0,0,0)"
         y="65.149246"
         x="-1027.2545"
         height="3.1125743"
         width="15.325094"
         id="rect3797"
         style="fill:url(#linearGradient3051);fill-opacity:1;fill-rule:nonzero;stroke:none" />
    </g>
  </g>
</svg>
