<?xml version="1.0" encoding="UTF-8" standalone="no"?>
<!-- Created with Inkscape (http://www.inkscape.org/) -->

<svg
   xmlns:dc="http://purl.org/dc/elements/1.1/"
   xmlns:cc="http://creativecommons.org/ns#"
   xmlns:rdf="http://www.w3.org/1999/02/22-rdf-syntax-ns#"
   xmlns:svg="http://www.w3.org/2000/svg"
   xmlns="http://www.w3.org/2000/svg"
   xmlns:sodipodi="http://sodipodi.sourceforge.net/DTD/sodipodi-0.dtd"
   xmlns:inkscape="http://www.inkscape.org/namespaces/inkscape"
   width="96"
   height="96"
   id="svg2"
   version="1.1"
   inkscape:version="0.48.4 r9939"
   sodipodi:docname="ET-quakewars.svg">
  <defs
     id="defs4" />
  <sodipodi:namedview
     id="base"
     pagecolor="#ffffff"
     bordercolor="#666666"
     borderopacity="1.0"
     inkscape:pageopacity="0.0"
     inkscape:pageshadow="2"
     inkscape:zoom="5.90625"
     inkscape:cx="-33.768606"
     inkscape:cy="48"
     inkscape:document-units="px"
     inkscape:current-layer="layer1"
     showgrid="true"
     inkscape:snap-page="true"
     inkscape:snap-global="true"
     inkscape:snap-center="true"
     inkscape:snap-object-midpoints="false"
     showguides="true"
     inkscape:guide-bbox="true"
     inkscape:snap-bbox="true"
     inkscape:object-paths="true"
     inkscape:object-nodes="true"
     inkscape:window-width="1305"
     inkscape:window-height="744"
     inkscape:window-x="61"
     inkscape:window-y="24"
     inkscape:window-maximized="1"
     inkscape:snap-midpoints="false"
     inkscape:snap-grids="true"
     inkscape:snap-to-guides="false">
    <inkscape:grid
       type="xygrid"
       id="grid3002"
       empspacing="5"
       visible="true"
       enabled="true"
       snapvisiblegridlinesonly="true" />
  </sodipodi:namedview>
  <metadata
     id="metadata7">
    <rdf:RDF>
      <cc:Work
         rdf:about="">
        <dc:format>image/svg+xml</dc:format>
        <dc:type
           rdf:resource="http://purl.org/dc/dcmitype/StillImage" />
        <dc:title />
      </cc:Work>
    </rdf:RDF>
  </metadata>
  <g
     inkscape:label="Layer 1"
     inkscape:groupmode="layer"
     id="layer1"
     transform="translate(0,-956.36218)">
    <rect
       style="fill:#ffffff;fill-opacity:0;fill-rule:nonzero;stroke:none"
       id="rect3775"
       width="96"
       height="96"
       x="0"
       y="956.36218"
       ry="0" />
    <path
       style="fill:#000000;fill-opacity:0.09589041;fill-rule:nonzero;stroke:none"
       d="m 3.353015,956.30662 c -1.884176,0 -3.4111555,1.43156 -3.4111555,3.19799 l 0,83.65949 c 0,1.7665 1.5269795,3.1981 3.4111555,3.1981 l 89.23583,0 c 1.884174,0 3.411155,-1.4316 3.411155,-3.1981 l 0,-83.65949 c 0,-1.76643 -1.526981,-3.19799 -3.411155,-3.19799 z"
       id="rect3772"
       inkscape:connector-curvature="0"
       sodipodi:nodetypes="sssssssss" />
    <path
       style="fill:#000000;fill-opacity:0.18721463;fill-rule:nonzero;stroke:none"
       d="m 1.0459761,1041.8066 0,7.4219 c 0,1.7392 1.461916,3.1337 3.2852054,3.1337 l 86.3836135,0 c 1.823288,0 3.285205,-1.3945 3.285205,-3.1337 l 0,-7.4219 -92.9540239,0 z"
       id="rect3785"
       inkscape:connector-curvature="0" />
    <path
       style="fill:#000000;fill-opacity:0.38356168;fill-rule:nonzero;stroke:none"
       d="m 1.0459761,1041.8066 0,5.3807 c 0,1.762 1.461916,3.1749 3.2852054,3.1749 l 86.3836135,0 c 1.823288,0 3.285205,-1.4129 3.285205,-3.1749 l 0,-5.3807 -92.9540239,0 z"
       id="rect3783"
       inkscape:connector-curvature="0" />
    <rect
       style="fill:#333333;fill-opacity:1;fill-rule:nonzero;stroke:none"
       id="rect2985"
       width="92.954025"
       height="89"
       x="1.045977"
       y="-1046.3622"
       ry="3.1511393"
       transform="scale(1,-1)" />
    <path
       style="fill:#000000;fill-opacity:1;fill-rule:nonzero;stroke:none"
       d="m 1,1042.3622 0.045976,2.7457 c 0.03024,1.8058 1.461916,3.2543 3.2852054,3.2543 l 86.3836136,0 c 1.823288,0 3.285205,-1.4481 3.285205,-3.2543 l -0.04598,-2.7457 z"
       id="rect3781"
       inkscape:connector-curvature="0"
       sodipodi:nodetypes="csssscc" />
    <rect
       style="fill:#ffffff;fill-opacity:0.30000001;fill-rule:nonzero;stroke:none"
       id="rect3770"
       width="92.954033"
       height="2.000005"
       x="1.045976"
       y="1040.3622" />
    <g
       id="g3017"
       transform="translate(8.4102928,3.24539)"
       style="fill:#d40000;fill-opacity:1">
      <path
         id="path10252"
         transform="translate(0,956.36218)"
         d="m 40.96875,12.3125 c -1.21337,0 -3.1875,0.46875 -3.1875,0.46875 l 2,-0.34375 c 0,0 -16.58308,3.71454 -18.875,12.90625 -2.29192,9.19171 0.8125,16 0.8125,16 0,0 -3.77767,-1.7318 -2.96875,0 0.80891,1.7317 1.06787,4.3964 2.28125,5.0625 1.21337,0.666 0.41964,0.79945 1.09375,2.53125 0.6741,1.7318 1.75358,3.71055 2.5625,3.84375 0.80891,0.1332 2.28125,-0.65625 2.28125,-0.65625 L 28.1875,52 28.71875,51.375 C 28.924799,51.403435 29.25,51.34375 29.25,51.34375 l -0.53125,0 C 28.444248,51.302197 28.424125,51.088321 29.8125,50.25 32.23925,48.7846 33,49.21875 33,49.21875 c 0,0 2.85179,0.25345 2.3125,1.71875 -0.53927,1.4654 -0.91427,3.0461 -0.375,3.3125 0.53927,0.2665 1.96875,2.1875 1.96875,2.1875 L 37.875,52.65625 c 0,0 0.55628,1.8832 1.5,1.75 0.94374,-0.1333 2.03125,-0.53125 2.03125,-0.53125 0,0 0.91787,-0.2828 1.1875,0.25 0.26965,0.5329 -1.75,1.1875 -1.75,1.1875 L 41,56.9375 42.46875,57.3125 43.125,56.15625 43,57.59375 c 0,0 1.09555,0.52625 1.5,-0.40625 0.40446,-0.9325 1.0625,-2 1.0625,-2 L 44.5,54.125 l 0.8125,-0.25 1.21875,1.84375 -0.6875,1.0625 1.875,0 0,-1.59375 c 0,0 -0.79107,-0.1382 -0.65625,-0.9375 0.13483,-0.7992 -0.28125,-1.71875 -0.28125,-1.71875 0,0 0.69194,-1.4672 -0.65625,-2 -1.34819,-0.5329 -2.16427,-1.07725 -1.625,-1.34375 0.53927,-0.2664 0.67946,-1.1957 1.21875,-1.0625 0.53927,0.1333 1.46875,0.40625 1.46875,0.40625 L 48,48 50.28125,52.25 51.375,50.65625 c 0,0 0.13842,-0.25975 0.8125,0.40625 0.6741,0.6661 2.83571,2.39305 3.375,1.59375 0.53927,-0.7993 2.67588,-1.59055 2.40625,-2.65625 -0.26964,-1.0657 -1.33837,-2.51985 -0.125,-3.71875 1.21336,-1.199 2.5527,-2.15148 2.6875,-3.75 0.13484,-1.5986 -0.9375,-1.1875 -0.9375,-1.1875 0,0 -1.07052,-2.14475 -0.53125,-3.34375 0.53929,-1.1989 2.01061,-14.38362 -5,-19.3125 -7.0106,-4.92889 -11.88037,-6.375 -13.09375,-6.375 z m 5.75,25.0625 c 0.684627,-0.04555 1.40625,0.375 1.40625,0.375 0,0 1.8884,-0.0082 2.5625,0.125 0.67411,0.1332 1.76877,1.2057 3.65625,2.9375 1.88747,1.7318 -0.13841,1.99513 -0.8125,3.59375 -0.67409,1.5985 -4.1875,1.1875 -4.1875,1.1875 l 0,0.6875 1.5,0.375 c 0,0 -1.23394,0.6875 -2.3125,0.6875 -1.07855,0 -1.625,-1.0625 -1.625,-1.0625 L 48.6875,46.125 c 0,0 -0.56788,-0.5296 -1.78125,-1.0625 -1.21337,-0.5328 -2.67767,-1.19913 -2.8125,-2.53125 C 43.95893,41.19915 44.5,39.875 44.5,39.875 c 0,0 0.67946,-0.25345 1.21875,-1.71875 0.202226,-0.549525 0.589224,-0.753922 1,-0.78125 z M 32.0625,37.5625 c 0.235932,0 0.56429,0.0543 0.96875,0.1875 0.80891,0.2665 1.74556,1.71875 3.09375,1.71875 1.3482,0 -0.18211,-0.0296 1.03125,-0.5625 1.21338,-0.5328 1.5,0.53125 1.5,0.53125 0,0 -2.92409,0.3011 -2.25,1.5 0.67409,1.199 -1.87858,3.45735 -2.6875,4.65625 -0.80892,1.1989 -2.42146,-0.38975 -3.5,-0.65625 -1.07856,-0.2664 -1.10894,-0.39305 -2.1875,0.40625 -1.07854,0.7993 -2.26519,-0.13155 -3.34375,-0.53125 -1.07855,-0.3996 0.25537,-2.9558 1.46875,-4.6875 1.21337,-1.7318 5.53125,-2.5 5.53125,-2.5 0,0 0.139067,-0.0625 0.375,-0.0625 z m 6.90625,2.71875 c 0,0 1.06788,0.3964 2.28125,1.0625 1.21337,0.666 1.76964,5.86515 1.5,6.53125 -0.26964,0.6661 -1.77323,0.80585 -2.3125,0.40625 C 39.89823,47.88155 39.375,48.125 39.375,48.125 c 0,0 -1.48216,1.329 -2.15625,1.0625 -0.6741,-0.2664 0.40625,-1.46875 0.40625,-1.46875 0,0 -1.20891,-0.51985 -1.34375,-1.71875 -0.13482,-1.1989 2.6875,-5.71875 2.6875,-5.71875 z m 4.1875,13.3125 0.65625,0.125 0.15625,1.46875 -0.8125,0.6875 0,-2.28125 z"
         style="opacity:0.83870962999999998;fill:#d40000;fill-opacity:1;stroke:none"
         inkscape:connector-curvature="0" />
      <path
         inkscape:connector-curvature="0"
         d="m 42.89379,1017.1863 c 2.28796,-0.9419 4.38526,0.3768 4.38526,0.3768 l 0.19066,1.3187 -2.28796,1.3188 c 0,0 0.76265,-2.8259 0,-3.0143 -0.76265,-0.1884 -1.14398,2.2607 -1.14398,2.2607 l -0.95332,0 z"
         id="path10260"
         style="opacity:0.88940089000000000;fill:#d40000;fill-opacity:1;stroke:none" />
      <path
         inkscape:connector-curvature="0"
         d="m 40.24372,1017.6975 0.53928,1.7318 0.94373,-0.2664 z"
         id="path10262"
         style="opacity:0.88940089000000000;fill:#d40000;fill-opacity:1;stroke:none" />
      <path
         inkscape:connector-curvature="0"
         d="m 41.45709,1021.8272 c 0,0 -0.26963,0.9324 0.80892,0.5328 1.07856,-0.3996 2.83121,-1.3321 3.5053,-0.9325 0.6741,0.3997 1.07856,1.1989 1.75266,1.3321 0.67409,0.1333 1.21336,0.7993 0,0.6661 -1.21339,-0.1332 -1.21339,-0.3996 -2.56157,-0.5328 -1.34819,-0.1333 -2.15711,0.666 -2.15711,0.666 z"
         id="path10264"
         style="opacity:0.88940089000000000;fill:#d40000;fill-opacity:1;stroke:none" />
    </g>
  </g>
</svg>
