<?xml version="1.0" encoding="UTF-8" standalone="no"?>
<!-- Created with Inkscape (http://www.inkscape.org/) -->

<svg
   xmlns:dc="http://purl.org/dc/elements/1.1/"
   xmlns:cc="http://creativecommons.org/ns#"
   xmlns:rdf="http://www.w3.org/1999/02/22-rdf-syntax-ns#"
   xmlns:svg="http://www.w3.org/2000/svg"
   xmlns="http://www.w3.org/2000/svg"
   xmlns:xlink="http://www.w3.org/1999/xlink"
   xmlns:sodipodi="http://sodipodi.sourceforge.net/DTD/sodipodi-0.dtd"
   xmlns:inkscape="http://www.inkscape.org/namespaces/inkscape"
   width="96"
   height="96"
   id="svg2"
   version="1.1"
   inkscape:version="0.48.4 r9939"
   sodipodi:docname="etube.svg">
  <defs
     id="defs4">
    <linearGradient
       id="linearGradient3763">
      <stop
         style="stop-color:#bd2224;stop-opacity:1;"
         offset="0"
         id="stop3765" />
      <stop
         style="stop-color:#ef2b2d;stop-opacity:1;"
         offset="1"
         id="stop3767" />
    </linearGradient>
    <linearGradient
       inkscape:collect="always"
       xlink:href="#linearGradient3763"
       id="linearGradient3769"
       x1="35"
       y1="1047.3622"
       x2="35"
       y2="957.36218"
       gradientUnits="userSpaceOnUse" />
  </defs>
  <sodipodi:namedview
     id="base"
     pagecolor="#ffffff"
     bordercolor="#666666"
     borderopacity="1.0"
     inkscape:pageopacity="0.0"
     inkscape:pageshadow="2"
     inkscape:zoom="4.1763494"
     inkscape:cx="-30.896656"
     inkscape:cy="48"
     inkscape:document-units="px"
     inkscape:current-layer="layer1"
     showgrid="true"
     inkscape:snap-page="true"
     inkscape:snap-global="true"
     inkscape:snap-center="true"
     inkscape:snap-object-midpoints="false"
     showguides="true"
     inkscape:guide-bbox="true"
     inkscape:snap-bbox="true"
     inkscape:object-paths="true"
     inkscape:object-nodes="true"
     inkscape:window-width="1305"
     inkscape:window-height="744"
     inkscape:window-x="61"
     inkscape:window-y="24"
     inkscape:window-maximized="1"
     inkscape:snap-midpoints="true"
     inkscape:snap-grids="true"
     inkscape:snap-to-guides="false">
    <inkscape:grid
       type="xygrid"
       id="grid3002"
       empspacing="5"
       visible="true"
       enabled="true"
       snapvisiblegridlinesonly="true" />
  </sodipodi:namedview>
  <metadata
     id="metadata7">
    <rdf:RDF>
      <cc:Work
         rdf:about="">
        <dc:format>image/svg+xml</dc:format>
        <dc:type
           rdf:resource="http://purl.org/dc/dcmitype/StillImage" />
        <dc:title />
      </cc:Work>
    </rdf:RDF>
  </metadata>
  <g
     inkscape:label="Layer 1"
     inkscape:groupmode="layer"
     id="layer1"
     transform="translate(0,-956.36218)">
    <rect
       style="fill:#ffffff;fill-opacity:0;fill-rule:nonzero;stroke:none"
       id="rect3775"
       width="96"
       height="96"
       x="0"
       y="956.36218"
       ry="0" />
    <path
       style="fill:#000000;fill-opacity:0.09589041;fill-rule:nonzero;stroke:none"
       d="m 3.353015,956.30662 c -1.884176,0 -3.4111555,1.43156 -3.4111555,3.19799 l 0,83.65949 c 0,1.7665 1.5269795,3.1981 3.4111555,3.1981 l 89.23583,0 c 1.884174,0 3.411155,-1.4316 3.411155,-3.1981 l 0,-83.65949 c 0,-1.76643 -1.526981,-3.19799 -3.411155,-3.19799 z"
       id="rect3772"
       inkscape:connector-curvature="0"
       sodipodi:nodetypes="sssssssss" />
    <path
       style="fill:#000000;fill-opacity:0.18721463;fill-rule:nonzero;stroke:none"
       d="m 1.0459761,1041.8066 0,7.4219 c 0,1.7392 1.461916,3.1337 3.2852054,3.1337 l 86.3836135,0 c 1.823288,0 3.285205,-1.3945 3.285205,-3.1337 l 0,-7.4219 -92.9540239,0 z"
       id="rect3785"
       inkscape:connector-curvature="0" />
    <path
       style="fill:#000000;fill-opacity:0.38356168;fill-rule:nonzero;stroke:none"
       d="m 1.0459761,1041.8066 0,5.3807 c 0,1.762 1.461916,3.1749 3.2852054,3.1749 l 86.3836135,0 c 1.823288,0 3.285205,-1.4129 3.285205,-3.1749 l 0,-5.3807 -92.9540239,0 z"
       id="rect3783"
       inkscape:connector-curvature="0" />
    <rect
       style="fill:url(#linearGradient3769);fill-opacity:1;fill-rule:nonzero;stroke:none"
       id="rect2985"
       width="92.954025"
       height="89"
       x="1.045977"
       y="957.36218"
       ry="3.1511393" />
    <path
       style="fill:#000000;fill-opacity:0.38356168;fill-rule:nonzero;stroke:none"
       d="m 1,1042.3622 0.045976,2.7457 c 0.03024,1.8058 1.461916,3.2543 3.2852054,3.2543 l 86.3836136,0 c 1.823288,0 3.285205,-1.4481 3.285205,-3.2543 l -0.04598,-2.7457 z"
       id="rect3781"
       inkscape:connector-curvature="0"
       sodipodi:nodetypes="csssscc" />
    <rect
       style="fill:#ffffff;fill-opacity:0.15686275;fill-rule:nonzero;stroke:none"
       id="rect3770"
       width="92.954033"
       height="2.000005"
       x="1.045976"
       y="1040.3622" />
    <path
       sodipodi:type="inkscape:offset"
       inkscape:radius="-15.512611"
       inkscape:original="M 8.96875 962.375 C 7.3210935 962.375 6 963.69609 6 965.34375 L 6 1043.375 C 6 1045.0227 7.3210935 1046.375 8.96875 1046.375 L 87.03125 1046.375 C 88.678906 1046.375 90 1045.0227 90 1043.375 L 90 965.34375 C 90 963.69609 88.678906 962.375 87.03125 962.375 L 8.96875 962.375 z "
       style="fill:#ffffff;fill-opacity:1;fill-rule:nonzero;stroke:none"
       id="path3008"
       d="m 21.5,977.875 0,53 53,0 0,-53 -53,0 z"
       transform="matrix(1.2264151,0,0,0.94339631,-11.367923,49.838509)" />
    <g
       id="g3801"
       transform="matrix(0.8076787,0,0,0.7825667,97.71558,225.08412)">
      <path
         style="fill:#b02c27;fill-opacity:1;fill-rule:nonzero;stroke:none"
         d="m -67.803486,971.66695 c -4.477258,0 -9.744566,0.50482 -12.476224,3.32205 -2.731651,2.81724 -3.089844,7.78564 -3.089844,11.82294 0,7.1492 0,-4.2095 0,2.9399 0,4.0371 0.358193,9.0056 3.089844,11.82276 2.731658,2.8173 7.998966,3.322 12.476224,3.322 7.348119,0 14.696239,0 22.044359,0 4.477257,0 9.744571,-0.5047 12.476223,-3.322 2.731657,-2.81716 3.089844,-7.78566 3.089844,-11.82276 0,-7.1494 0,4.2093 0,-2.9399 0,-4.0373 -0.358187,-9.0057 -3.089844,-11.82294 -2.731652,-2.81723 -7.998966,-3.32205 -12.476223,-3.32205 -7.34812,0 -14.69624,0 -22.044359,0 z"
         id="path3004"
         inkscape:connector-curvature="0"
         sodipodi:nodetypes="csccsccsccscc" />
      <path
         d="m -87.646455,990.11474 -5.718879,0 0,3.8926 c -6e-6,0.8139 0.04738,1.3383 0.142147,1.5734 0.09477,0.2349 0.277007,0.3526 0.546737,0.3526 0.335325,0 0.557665,-0.154 0.667021,-0.4611 0.116631,-0.3164 0.174941,-0.9222 0.174962,-1.8174 l 0,-2.3739 4.188012,0 0,1.3295 c -1.2e-5,1.112 -0.05834,1.9666 -0.174962,2.5632 -0.109363,0.5968 -0.371791,1.2346 -0.787301,1.9125 -0.415532,0.6783 -0.944041,1.189 -1.58554,1.5329 -0.634224,0.3345 -1.432462,0.5017 -2.394711,0.5017 -0.933105,0 -1.756857,-0.1667 -2.471256,-0.5017 -0.714407,-0.3347 -1.272079,-0.7912 -1.673019,-1.3701 -0.393651,-0.5875 -0.667021,-1.2298 -0.820106,-1.926 -0.153095,-0.7053 -0.22963,-1.7269 -0.22963,-3.0654 l 0,-5.2489 c 0,-1.5733 0.171318,-2.8122 0.513933,-3.7165 0.342622,-0.9132 0.903939,-1.6094 1.683954,-2.0886 0.780008,-0.4884 1.676657,-0.7322 2.68995,-0.7322 1.239267,0 2.259842,0.2935 3.06173,0.8814 0.809163,0.5786 1.374128,1.3518 1.69489,2.3192 0.328032,0.9586 0.492052,2.3104 0.492064,4.0555 l 0,2.3873 m -4.428577,-2.93 0,-1.3153 c -6e-6,-0.9316 -0.04012,-1.5329 -0.120285,-1.804 -0.08018,-0.2712 -0.244216,-0.4068 -0.492065,-0.4068 -0.30618,0 -0.495714,0.1164 -0.568607,0.3524 -0.0729,0.2272 -0.10934,0.8454 -0.10934,1.8584 l 0,1.3153 1.290302,0"
         style="font-size:11px;font-style:normal;font-variant:normal;font-weight:bold;font-stretch:normal;text-align:end;line-height:125%;letter-spacing:0px;word-spacing:0px;text-anchor:end;fill:#000000;fill-opacity:1;stroke:none;font-family:Impact;-inkscape-font-specification:Impact Bold"
         id="path3011"
         inkscape:connector-curvature="0" />
      <path
         d="m -68.788242,976.83604 0,4.3944 -2.733689,0 0,17.5648 -4.603533,0 0,-17.5648 -2.722754,0 0,-4.3944 10.059976,0"
         style="font-size:11px;font-style:normal;font-variant:normal;font-weight:bold;font-stretch:normal;text-align:end;line-height:125%;letter-spacing:0px;word-spacing:0px;text-anchor:end;fill:#ffffff;fill-opacity:1;stroke:none;font-family:Impact;-inkscape-font-specification:Impact Bold"
         id="path3013"
         inkscape:connector-curvature="0" />
      <path
         d="m -57.755071,980.79674 0,17.9985 -4.494186,0 0.07655,-1.492 c -0.306182,0.6058 -0.685252,1.0626 -1.137215,1.37 -0.444686,0.2982 -0.958618,0.4475 -1.541801,0.4475 -0.663379,0 -1.213761,-0.1435 -1.651149,-0.4341 -0.437392,-0.2891 -0.761788,-0.6735 -0.973193,-1.1528 -0.204117,-0.4794 -0.331688,-0.9765 -0.382717,-1.4919 -0.05101,-0.5245 -0.07655,-1.56 -0.07655,-3.106 l 0,-12.1392 4.417644,0 0,12.2477 c -5e-6,1.4016 0.03279,2.2333 0.09841,2.4956 0.0729,0.2623 0.26243,0.3933 0.568608,0.3933 0.328036,0 0.521217,-0.136 0.579542,-0.4068 0.0656,-0.2714 0.09841,-1.144 0.09841,-2.6179 l 0,-12.1119 4.417641,0"
         style="font-size:11px;font-style:normal;font-variant:normal;font-weight:bold;font-stretch:normal;text-align:end;line-height:125%;letter-spacing:0px;word-spacing:0px;text-anchor:end;fill:#ffffff;fill-opacity:1;stroke:none;font-family:Impact;-inkscape-font-specification:Impact Bold"
         id="path3015"
         inkscape:connector-curvature="0" />
      <path
         d="m -51.73002,976.83604 0,5.1948 c 0.364486,-0.5243 0.769073,-0.9131 1.213759,-1.1665 0.451961,-0.262 0.940381,-0.393 1.465256,-0.393 0.605049,0 1.129916,0.1163 1.574606,0.3523 0.44467,0.2348 0.783646,0.5652 1.016932,0.9902 0.233267,0.425 0.37177,0.8409 0.415521,1.2478 0.05101,0.4071 0.07653,1.2749 0.07655,2.6043 l 0,8.1107 c -1.3e-5,1.3202 -0.07291,2.3061 -0.218696,2.957 -0.138521,0.6419 -0.470205,1.2025 -0.995065,1.6818 -0.524878,0.4702 -1.148157,0.7053 -1.869842,0.7053 -0.517586,0 -1.00236,-0.139 -1.454323,-0.4204 -0.444687,-0.2803 -0.852916,-0.7008 -1.224694,-1.2614 l -0.284302,1.3563 -4.13334,0 0,-21.9592 4.417642,0 m 1.344976,9.0741 c -6e-6,-0.9313 -0.04739,-1.5375 -0.142145,-1.8177 -0.09477,-0.2892 -0.280668,-0.4338 -0.557674,-0.4338 -0.269729,0 -0.444684,0.1254 -0.524869,0.3798 -0.08018,0.2449 -0.120284,0.8678 -0.120284,1.8717 l 0,7.7581 c -5e-6,0.9676 0.04372,1.5869 0.131215,1.8583 0.09477,0.2713 0.277008,0.4068 0.546739,0.4068 0.277007,0 0.455609,-0.139 0.535803,-0.4205 0.08746,-0.2803 0.131215,-0.9541 0.131215,-2.0209 l 0,-7.5818"
         style="font-size:11px;font-style:normal;font-variant:normal;font-weight:bold;font-stretch:normal;text-align:end;line-height:125%;letter-spacing:0px;word-spacing:0px;text-anchor:end;fill:#ffffff;fill-opacity:1;stroke:none;font-family:Impact;-inkscape-font-specification:Impact Bold"
         id="path3017"
         inkscape:connector-curvature="0" />
      <path
         d="m -34.507777,990.11474 -5.718878,0 0,3.8926 c -6e-6,0.8139 0.04738,1.3383 0.142146,1.5734 0.09477,0.2349 0.277008,0.3526 0.54674,0.3526 0.335324,0 0.557664,-0.154 0.667021,-0.4611 0.116631,-0.3164 0.17494,-0.9222 0.174961,-1.8174 l 0,-2.3739 4.188013,0 0,1.3295 c -1.1e-5,1.112 -0.05834,1.9666 -0.174962,2.5632 -0.109363,0.5968 -0.371793,1.2346 -0.787301,1.9125 -0.415533,0.6783 -0.944043,1.189 -1.58554,1.5329 -0.634224,0.3345 -1.432462,0.5017 -2.394713,0.5017 -0.933105,0 -1.756855,-0.1667 -2.471256,-0.5017 -0.714405,-0.3347 -1.272079,-0.7912 -1.673018,-1.3701 -0.393653,-0.5875 -0.667019,-1.2298 -0.820106,-1.926 -0.153097,-0.7053 -0.229631,-1.7269 -0.229631,-3.0654 l 0,-5.2489 c 0,-1.5733 0.171318,-2.8122 0.513934,-3.7165 0.342621,-0.9132 0.90394,-1.6094 1.683954,-2.0886 0.780008,-0.4884 1.676658,-0.7322 2.68995,-0.7322 1.239266,0 2.259842,0.2935 3.061731,0.8814 0.809162,0.5786 1.374127,1.3518 1.69489,2.3192 0.32803,0.9586 0.492053,2.3104 0.492063,4.0555 l 0,2.3873 m -4.428579,-2.93 0,-1.3153 c -5e-6,-0.9316 -0.04011,-1.5329 -0.120284,-1.804 -0.08018,-0.2712 -0.244214,-0.4068 -0.492064,-0.4068 -0.306179,0 -0.495715,0.1164 -0.568607,0.3524 -0.07291,0.2272 -0.10934,0.8454 -0.10934,1.8584 l 0,1.3153 1.290302,0"
         style="font-size:11px;font-style:normal;font-variant:normal;font-weight:bold;font-stretch:normal;text-align:end;line-height:125%;letter-spacing:0px;word-spacing:0px;text-anchor:end;fill:#ffffff;fill-opacity:1;stroke:none;font-family:Impact;-inkscape-font-specification:Impact Bold"
         id="path3019"
         inkscape:connector-curvature="0" />
    </g>
  </g>
</svg>
