<?xml version="1.0" encoding="UTF-8" standalone="no"?>
<!-- Created with Inkscape (http://www.inkscape.org/) -->

<svg
   xmlns:dc="http://purl.org/dc/elements/1.1/"
   xmlns:cc="http://creativecommons.org/ns#"
   xmlns:rdf="http://www.w3.org/1999/02/22-rdf-syntax-ns#"
   xmlns:svg="http://www.w3.org/2000/svg"
   xmlns="http://www.w3.org/2000/svg"
   xmlns:xlink="http://www.w3.org/1999/xlink"
   xmlns:sodipodi="http://sodipodi.sourceforge.net/DTD/sodipodi-0.dtd"
   xmlns:inkscape="http://www.inkscape.org/namespaces/inkscape"
   width="96"
   height="96"
   id="svg2"
   version="1.1"
   inkscape:version="0.48.4 r9939"
   sodipodi:docname="evernote.svg">
  <defs
     id="defs4">
    <linearGradient
       id="linearGradient3785">
      <stop
         style="stop-color:#1d751d;stop-opacity:1;"
         offset="0"
         id="stop3787" />
      <stop
         style="stop-color:#239d23;stop-opacity:1;"
         offset="1"
         id="stop3789" />
    </linearGradient>
    <linearGradient
       inkscape:collect="always"
       xlink:href="#linearGradient3785"
       id="linearGradient3791"
       x1="40"
       y1="1027.3622"
       x2="40"
       y2="957.36218"
       gradientUnits="userSpaceOnUse" />
  </defs>
  <sodipodi:namedview
     id="base"
     pagecolor="#ffffff"
     bordercolor="#666666"
     borderopacity="1.0"
     inkscape:pageopacity="0.0"
     inkscape:pageshadow="2"
     inkscape:zoom="5.7738685"
     inkscape:cx="31.190187"
     inkscape:cy="47.407407"
     inkscape:document-units="px"
     inkscape:current-layer="layer1"
     showgrid="true"
     inkscape:snap-page="true"
     inkscape:snap-global="true"
     inkscape:snap-center="true"
     inkscape:snap-object-midpoints="false"
     showguides="true"
     inkscape:guide-bbox="true"
     inkscape:snap-bbox="true"
     inkscape:object-paths="true"
     inkscape:object-nodes="true"
     inkscape:window-width="1305"
     inkscape:window-height="744"
     inkscape:window-x="61"
     inkscape:window-y="24"
     inkscape:window-maximized="1"
     inkscape:snap-midpoints="true"
     inkscape:snap-grids="true"
     inkscape:snap-to-guides="false">
    <inkscape:grid
       type="xygrid"
       id="grid3002"
       empspacing="5"
       visible="true"
       enabled="true"
       snapvisiblegridlinesonly="true" />
  </sodipodi:namedview>
  <metadata
     id="metadata7">
    <rdf:RDF>
      <cc:Work
         rdf:about="">
        <dc:format>image/svg+xml</dc:format>
        <dc:type
           rdf:resource="http://purl.org/dc/dcmitype/StillImage" />
        <dc:title />
      </cc:Work>
    </rdf:RDF>
  </metadata>
  <g
     inkscape:label="Layer 1"
     inkscape:groupmode="layer"
     id="layer1"
     transform="translate(0,-956.36218)">
    <rect
       style="fill:#ffffff;fill-opacity:0;fill-rule:nonzero;stroke:none"
       id="rect3775"
       width="96"
       height="96"
       x="0"
       y="956.36218"
       ry="0" />
    <path
       style="fill:#000000;fill-opacity:0.09589041;fill-rule:nonzero;stroke:none"
       d="m 3.353015,956.30662 c -1.884176,0 -3.4111555,1.43156 -3.4111555,3.19799 l 0,83.65949 c 0,1.7665 1.5269795,3.1981 3.4111555,3.1981 l 89.23583,0 c 1.884174,0 3.411155,-1.4316 3.411155,-3.1981 l 0,-83.65949 c 0,-1.76643 -1.526981,-3.19799 -3.411155,-3.19799 z"
       id="rect3772"
       inkscape:connector-curvature="0"
       sodipodi:nodetypes="sssssssss" />
    <path
       style="fill:#000000;fill-opacity:0.18721463;fill-rule:nonzero;stroke:none"
       d="m 1.0459761,1041.8066 0,7.4219 c 0,1.7392 1.461916,3.1337 3.2852054,3.1337 l 86.3836135,0 c 1.823288,0 3.285205,-1.3945 3.285205,-3.1337 l 0,-7.4219 -92.9540239,0 z"
       id="rect3785"
       inkscape:connector-curvature="0" />
    <path
       style="fill:#000000;fill-opacity:0.38356168;fill-rule:nonzero;stroke:none"
       d="m 1.0459761,1041.8066 0,5.3807 c 0,1.762 1.461916,3.1749 3.2852054,3.1749 l 86.3836135,0 c 1.823288,0 3.285205,-1.4129 3.285205,-3.1749 l 0,-5.3807 -92.9540239,0 z"
       id="rect3783"
       inkscape:connector-curvature="0" />
    <rect
       style="fill:url(#linearGradient3791);fill-opacity:1;fill-rule:nonzero;stroke:none"
       id="rect2985"
       width="92.954025"
       height="89"
       x="1.045977"
       y="957.36218"
       ry="3.1511393" />
    <path
       style="fill:#000000;fill-opacity:0.38356168;fill-rule:nonzero;stroke:none"
       d="m 1,1042.3622 0.045976,2.7457 c 0.03024,1.8058 1.461916,3.2543 3.2852054,3.2543 l 86.3836136,0 c 1.823288,0 3.285205,-1.4481 3.285205,-3.2543 l -0.04598,-2.7457 z"
       id="rect3781"
       inkscape:connector-curvature="0"
       sodipodi:nodetypes="csssscc" />
    <rect
       style="fill:#ffffff;fill-opacity:0.30000001;fill-rule:nonzero;stroke:none"
       id="rect3770"
       width="92.954033"
       height="2.000005"
       x="1.045976"
       y="1040.3622" />
    <g
       id="g3273"
       style="fill:#ffffff"
       transform="matrix(0.8106144,0,0,0.83315922,0.88840644,157.9168)">
      <path
         d="m 24.144411,985.48707 c 0,0 0,0 0.005,0 h 6.75715 c 0.38722,0 0.6986,-0.31535 0.69934,-0.69958 0,-0.003 -0.082,-5.79385 -0.082,-7.40436 v -0.0191 c 0,-1.32272 0.27762,-2.47591 0.76114,-3.44231 l 0.23108,-0.434 c -0.0259,0.004 -0.0517,0.017 -0.0774,0.0428 l -13.12927,13.01964 c -0.0257,0.0211 -0.0418,0.0485 -0.0491,0.0767 0.27154,-0.13441 0.64286,-0.31808 0.69536,-0.34117 1.14338,-0.5159 2.52977,-0.79862 4.18942,-0.79862 z"
         inkscape:connector-curvature="0"
         id="path4185"
         style="fill:#ffffff;fill-opacity:1" />
      <path
         d="m 41.778141,971.55245 c -1.5941,0.0507 -2.87991,0.23247 -3.5,0.40625 -1.3139,0.36723 -2.78433,1.12148 -3.59375,2.28125 -0.54284,0.77466 -0.87227,1.76975 -0.875,3.15625 0,0.78472 0.0113,2.60759 0.0312,4.25 0.0199,1.6475 0.0312,3.1462 0.0312,3.15625 -9.3e-4,1.4668 -1.183,2.65439 -2.65625,2.65625 l -6.75,0 c -1.4416,0 -2.53357,0.24275 -3.375,0.625 -0.84268,0.38261 -1.45277,0.88977 -1.90625,1.5 -0.90262,1.21176 -1.06623,2.69275 -1.0625,4.21875 0,0 0.012,1.2739 0.3125,3.6875 0.24982,1.86754 2.29513,14.90725 4.21875,18.87505 0.74588,1.5437 1.22219,2.1945 2.6875,2.875 3.26483,1.3978 10.72357,2.9297 14.21875,3.375 3.48885,0.4464 5.69503,1.3924 7,-1.3438 0.005,-0.01 0.24018,-0.6676 0.59375,-1.6562 1.13296,-3.4332 1.3125,-6.4832 1.3125,-8.6875 0,-0.2242 0.3125,-0.2345 0.3125,0 0,1.5562 -0.28512,7.0537 3.875,8.5312 1.64229,0.5824 5.03833,1.0943 8.5,1.5 3.13005,0.3597 5.40625,1.5947 5.40625,9.625 0,4.8857 -1.04168,5.5625 -6.40625,5.5625 -4.34864,0 -6,0.1111 -6,-3.3437 0,-2.7923 2.76576,-2.5 4.8125,-2.5 0.91417,0 0.25,-0.6836 0.25,-2.4063 0,-1.7136 1.07615,-2.6937 0.0625,-2.7187 -7.07748,-0.1948 -11.25,-0.01 -11.25,8.8437 0,8.0355 3.08016,9.5313 13.125,9.5313 7.87572,0 10.65432,-0.2536 13.90625,-10.3438 0.64373,-1.9919 2.21442,-8.0748 3.15625,-18.2812 0.59558,-6.4534 -0.58238,-25.92774 -1.5,-30.8438 -0.53676,-2.87328 -2.23676,-4.31826 -3.78125,-4.875 -1.66635,-0.60228 -5.03586,-1.21836 -9.28125,-1.71875 -3.4155,-0.40223 -7.4501,-0.35621 -9.875,-0.28125 -0.29102,-1.99338 -1.68553,-3.80705 -3.25,-4.4375 -2.6052,-1.04861 -6.09316,-1.30317 -8.75,-1.21875 z m 21.875,29.90625 c 0.16538,-0.013 0.34998,-0.01 0.53125,0 3.21061,0.1105 3.64483,3.1321 3.65625,5.1875 -1.35374,-0.6036 -3.01841,-0.9983 -4.84375,-1.0625 -0.97299,-0.034 -1.90854,0.047 -2.78125,0.1875 0.23025,-1.8596 0.95684,-4.1218 3.4375,-4.3125 z"
         inkscape:connector-curvature="0"
         id="path4183"
         style="fill:#ffffff;fill-opacity:1" />
    </g>
  </g>
</svg>
