<?xml version="1.0" encoding="UTF-8" standalone="no"?>
<!-- Created with Inkscape (http://www.inkscape.org/) -->

<svg
   xmlns:dc="http://purl.org/dc/elements/1.1/"
   xmlns:cc="http://creativecommons.org/ns#"
   xmlns:rdf="http://www.w3.org/1999/02/22-rdf-syntax-ns#"
   xmlns:svg="http://www.w3.org/2000/svg"
   xmlns="http://www.w3.org/2000/svg"
   xmlns:sodipodi="http://sodipodi.sourceforge.net/DTD/sodipodi-0.dtd"
   xmlns:inkscape="http://www.inkscape.org/namespaces/inkscape"
   width="96"
   height="96"
   id="svg2"
   version="1.1"
   inkscape:version="0.48.4 r9939"
   sodipodi:docname="evince.svg">
  <defs
     id="defs4" />
  <sodipodi:namedview
     id="base"
     pagecolor="#ffffff"
     bordercolor="#666666"
     borderopacity="1.0"
     inkscape:pageopacity="0.0"
     inkscape:pageshadow="2"
     inkscape:zoom="8.8542922"
     inkscape:cx="48.563434"
     inkscape:cy="54.095238"
     inkscape:document-units="px"
     inkscape:current-layer="layer1"
     showgrid="true"
     inkscape:snap-page="true"
     inkscape:snap-global="true"
     inkscape:snap-center="true"
     inkscape:snap-object-midpoints="false"
     showguides="true"
     inkscape:guide-bbox="true"
     inkscape:snap-bbox="true"
     inkscape:object-paths="true"
     inkscape:object-nodes="true"
     inkscape:window-width="1305"
     inkscape:window-height="744"
     inkscape:window-x="61"
     inkscape:window-y="24"
     inkscape:window-maximized="1"
     inkscape:snap-midpoints="false"
     inkscape:snap-grids="true"
     inkscape:snap-to-guides="false">
    <inkscape:grid
       type="xygrid"
       id="grid3002"
       empspacing="5"
       visible="true"
       enabled="true"
       snapvisiblegridlinesonly="true" />
  </sodipodi:namedview>
  <metadata
     id="metadata7">
    <rdf:RDF>
      <cc:Work
         rdf:about="">
        <dc:format>image/svg+xml</dc:format>
        <dc:type
           rdf:resource="http://purl.org/dc/dcmitype/StillImage" />
        <dc:title />
      </cc:Work>
    </rdf:RDF>
  </metadata>
  <g
     inkscape:label="Layer 1"
     inkscape:groupmode="layer"
     id="layer1"
     transform="translate(0,-956.36218)">
    <rect
       style="fill:#ffffff;fill-opacity:0;fill-rule:nonzero;stroke:none"
       id="rect3775"
       width="96"
       height="96"
       x="0"
       y="956.36218"
       ry="0" />
    <path
       style="fill:#000000;fill-opacity:0.09589041;fill-rule:nonzero;stroke:none"
       d="m 3.353015,956.30662 c -1.884176,0 -3.4111555,1.43156 -3.4111555,3.19799 l 0,83.65949 c 0,1.7665 1.5269795,3.1981 3.4111555,3.1981 l 89.23583,0 c 1.884174,0 3.411155,-1.4316 3.411155,-3.1981 l 0,-83.65949 c 0,-1.76643 -1.526981,-3.19799 -3.411155,-3.19799 z"
       id="rect3772"
       inkscape:connector-curvature="0"
       sodipodi:nodetypes="sssssssss" />
    <path
       style="fill:#000000;fill-opacity:0.18721463;fill-rule:nonzero;stroke:none"
       d="m 1.0459761,1041.8066 0,7.4219 c 0,1.7392 1.461916,3.1337 3.2852054,3.1337 l 86.3836135,0 c 1.823288,0 3.285205,-1.3945 3.285205,-3.1337 l 0,-7.4219 -92.9540239,0 z"
       id="rect3785"
       inkscape:connector-curvature="0" />
    <path
       style="fill:#000000;fill-opacity:0.38356168;fill-rule:nonzero;stroke:none"
       d="m 1.0459761,1041.8066 0,5.3807 c 0,1.762 1.461916,3.1749 3.2852054,3.1749 l 86.3836135,0 c 1.823288,0 3.285205,-1.4129 3.285205,-3.1749 l 0,-5.3807 -92.9540239,0 z"
       id="rect3783"
       inkscape:connector-curvature="0" />
    <rect
       style="fill:#aa0000;fill-opacity:1;fill-rule:nonzero;stroke:none"
       id="rect2985-2"
       width="93"
       height="88.999962"
       x="0.9999969"
       y="957.36224"
       ry="3.1511383" />
    <path
       style="fill:#000000;fill-opacity:0.38356168;fill-rule:nonzero;stroke:none"
       d="m 1,1042.3622 0.045976,2.7457 c 0.03024,1.8058 1.461916,3.2543 3.2852054,3.2543 l 86.3836136,0 c 1.823288,0 3.285205,-1.4481 3.285205,-3.2543 l -0.04598,-2.7457 z"
       id="rect3781"
       inkscape:connector-curvature="0"
       sodipodi:nodetypes="csssscc" />
    <rect
       style="fill:#ffffff;fill-opacity:0.30000001;fill-rule:nonzero;stroke:none"
       id="rect3770"
       width="92.954033"
       height="2.000005"
       x="1.045976"
       y="1040.3622" />
    <g
       transform="matrix(1.9763826,0,0,2.0705092,10.165405,949.1122)"
       style="font-size:40px;font-style:normal;font-variant:normal;font-weight:normal;font-stretch:normal;line-height:125%;letter-spacing:0px;word-spacing:0px;fill:#ffffff;fill-opacity:1;stroke:none;font-family:Segoe Script;-inkscape-font-specification:Segoe Script"
       id="text848-4">
      <path
         d="m 33.227802,21.037403 q 0,0.292969 -0.429687,1.035156 -1.015625,1.464844 -2.285156,2.929688 -1.25,1.464844 -2.675782,2.792969 -1.40625,1.308593 -2.949218,2.460937 -1.523438,1.132813 -3.085938,1.972656 -1.5625,0.820313 -3.125,1.269532 -1.542969,0.449218 -2.988281,0.429687 -3.125,0 -4.863281,-1.816406 -1.7187505,-1.816406 -1.7187505,-5.488281 0,-3.066407 0.9375005,-5.957032 0.957031,-2.890625 3.242187,-5.566406 0.429688,-0.46875 0.957031,-0.898437 0.546875,-0.429688 1.132813,-0.761719 0.605469,-0.332031 1.230469,-0.527344 0.644531,-0.195312 1.289062,-0.234375 0.15625,0 0.429688,0.03906 0.273437,0.03906 0.585937,0.136718 0.3125,0.09766 0.605469,0.253907 0.292969,0.136718 0.46875,0.351562 0.546875,0.625 0.859375,1.289063 0.332031,0.664062 0.371094,1.464843 0.03906,0.898438 -0.214844,1.777344 -0.234375,0.859375 -0.820313,1.777344 -0.566406,0.898437 -1.503906,1.875 -0.9375,0.957031 -2.265625,2.070312 -0.839844,0.703125 -1.875,1.5625 -1.015625,0.839844 -2.460937,1.777344 0,1.894531 1.132812,2.890625 1.152344,0.976563 3.144531,0.976563 1.113282,0 2.246094,-0.292969 1.132813,-0.292969 2.226563,-0.761719 1.09375,-0.488281 2.109375,-1.09375 1.035156,-0.625 1.933593,-1.269531 1.660157,-1.210938 3.007813,-2.402344 1.347656,-1.210937 2.675781,-2.539062 l 1.054688,-1.054688 q 0.957031,-0.839844 1.386718,-0.839844 0.234375,0 0.234375,0.371094 z M 18.305927,17.150684 q -0.01953,-0.292968 -0.09766,-0.566406 -0.05859,-0.292969 -0.195312,-0.507812 -0.136719,-0.214844 -0.3125,-0.332032 -0.175782,-0.136718 -0.410157,-0.136718 -1.035156,0.05859 -2.070312,1.269531 -1.035156,1.191406 -1.953125,3.164062 -0.214844,0.429688 -0.390625,0.976563 -0.15625,0.527344 -0.3125,1.09375 -0.136719,0.546875 -0.253906,1.09375 -0.09766,0.546875 -0.175782,0.976562 1.015625,-0.761718 1.875,-1.40625 0.859375,-0.644531 1.601563,-1.328125 0.46875,-0.429687 0.957031,-0.917968 0.488281,-0.507813 0.878906,-1.054688 0.410157,-0.546875 0.644532,-1.132812 0.234375,-0.585938 0.214843,-1.191407 z"
         id="path853-3"
         inkscape:connector-curvature="0" />
    </g>
    <rect
       style="fill:#ffffff;fill-opacity:0.10502283;fill-rule:evenodd;stroke:none"
       id="rect3003"
       width="93"
       height="44"
       x="1"
       y="975.36218" />
    <rect
       y="975.36218"
       x="1"
       height="28.999998"
       width="93"
       id="rect3773"
       style="fill:#ffffff;fill-opacity:0.10502283;fill-rule:evenodd;stroke:none" />
    <path
       style="fill:#ffffff;fill-opacity:0.10502283;fill-rule:evenodd;stroke:none"
       d="M 76,35 66,48 94,48 94,35 z"
       transform="translate(0,956.36218)"
       id="rect3776"
       inkscape:connector-curvature="0"
       sodipodi:nodetypes="ccccc" />
  </g>
</svg>
