<?xml version="1.0" encoding="UTF-8" standalone="no"?>
<!-- Created with Inkscape (http://www.inkscape.org/) -->

<svg
   xmlns:dc="http://purl.org/dc/elements/1.1/"
   xmlns:cc="http://creativecommons.org/ns#"
   xmlns:rdf="http://www.w3.org/1999/02/22-rdf-syntax-ns#"
   xmlns:svg="http://www.w3.org/2000/svg"
   xmlns="http://www.w3.org/2000/svg"
   xmlns:sodipodi="http://sodipodi.sourceforge.net/DTD/sodipodi-0.dtd"
   xmlns:inkscape="http://www.inkscape.org/namespaces/inkscape"
   width="96"
   height="96"
   id="svg2"
   version="1.1"
   inkscape:version="0.48.4 r9939"
   sodipodi:docname="fade-in.svg">
  <defs
     id="defs4" />
  <sodipodi:namedview
     id="base"
     pagecolor="#ffffff"
     bordercolor="#666666"
     borderopacity="1.0"
     inkscape:pageopacity="0.0"
     inkscape:pageshadow="2"
     inkscape:zoom="3.4191595"
     inkscape:cx="46.469724"
     inkscape:cy="51.424883"
     inkscape:document-units="px"
     inkscape:current-layer="layer1"
     showgrid="true"
     inkscape:snap-page="true"
     inkscape:snap-global="false"
     inkscape:snap-center="true"
     inkscape:snap-object-midpoints="false"
     showguides="true"
     inkscape:guide-bbox="true"
     inkscape:snap-bbox="true"
     inkscape:object-paths="true"
     inkscape:object-nodes="true"
     inkscape:window-width="1305"
     inkscape:window-height="744"
     inkscape:window-x="61"
     inkscape:window-y="24"
     inkscape:window-maximized="1"
     inkscape:snap-midpoints="true"
     inkscape:snap-grids="true"
     inkscape:snap-to-guides="false">
    <inkscape:grid
       type="xygrid"
       id="grid3002"
       empspacing="5"
       visible="true"
       enabled="true"
       snapvisiblegridlinesonly="true" />
  </sodipodi:namedview>
  <metadata
     id="metadata7">
    <rdf:RDF>
      <cc:Work
         rdf:about="">
        <dc:format>image/svg+xml</dc:format>
        <dc:type
           rdf:resource="http://purl.org/dc/dcmitype/StillImage" />
        <dc:title />
      </cc:Work>
    </rdf:RDF>
  </metadata>
  <g
     inkscape:label="Layer 1"
     inkscape:groupmode="layer"
     id="layer1"
     transform="translate(0,-956.36218)">
    <rect
       style="fill:#ffffff;fill-opacity:0;fill-rule:nonzero;stroke:none"
       id="rect3775"
       width="96"
       height="96"
       x="0"
       y="956.36218"
       ry="0" />
    <path
       style="fill:#000000;fill-opacity:0.09589041;fill-rule:nonzero;stroke:none"
       d="m 3.353015,956.30662 c -1.884176,0 -3.4111555,1.43156 -3.4111555,3.19799 l 0,83.65949 c 0,1.7665 1.5269795,3.1981 3.4111555,3.1981 l 89.23583,0 c 1.884174,0 3.411155,-1.4316 3.411155,-3.1981 l 0,-83.65949 c 0,-1.76643 -1.526981,-3.19799 -3.411155,-3.19799 z"
       id="rect3772"
       inkscape:connector-curvature="0"
       sodipodi:nodetypes="sssssssss" />
    <path
       style="fill:#000000;fill-opacity:0.18721463;fill-rule:nonzero;stroke:none"
       d="m 1.0459761,1041.8066 0,7.4219 c 0,1.7392 1.461916,3.1337 3.2852054,3.1337 l 86.3836135,0 c 1.823288,0 3.285205,-1.3945 3.285205,-3.1337 l 0,-7.4219 -92.9540239,0 z"
       id="rect3785"
       inkscape:connector-curvature="0" />
    <path
       style="fill:#000000;fill-opacity:0.38356168;fill-rule:nonzero;stroke:none"
       d="m 1.0459761,1041.8066 0,5.3807 c 0,1.762 1.461916,3.1749 3.2852054,3.1749 l 86.3836135,0 c 1.823288,0 3.285205,-1.4129 3.285205,-3.1749 l 0,-5.3807 -92.9540239,0 z"
       id="rect3783"
       inkscape:connector-curvature="0" />
    <rect
       style="fill:#00182d;fill-opacity:1;fill-rule:nonzero;stroke:none"
       id="rect2985"
       width="92.954025"
       height="89"
       x="1.045977"
       y="957.36218"
       ry="3.1511393" />
    <path
       style="fill:#000000;fill-opacity:0.38356168;fill-rule:nonzero;stroke:none"
       d="m 1,1042.3622 0.045976,2.7457 c 0.03024,1.8058 1.461916,3.2543 3.2852054,3.2543 l 86.3836136,0 c 1.823288,0 3.285205,-1.4481 3.285205,-3.2543 l -0.04598,-2.7457 z"
       id="rect3781"
       inkscape:connector-curvature="0"
       sodipodi:nodetypes="csssscc" />
    <rect
       style="fill:#ffffff;fill-opacity:0.30000001;fill-rule:nonzero;stroke:none"
       id="rect3770"
       width="92.954033"
       height="2.000005"
       x="1.045976"
       y="1040.3622" />
    <path
       transform="matrix(1.1372948,0,0,1.0111936,-4.3597285,937.87526)"
       d="m 80,43.5 a 35,2.5 0 1 1 -70,0 35,2.5 0 1 1 70,0 z"
       sodipodi:ry="2.5"
       sodipodi:rx="35"
       sodipodi:cy="43.5"
       sodipodi:cx="45"
       id="path3770"
       style="fill:#00fff9;fill-opacity:0.10958904;fill-rule:evenodd;stroke:none"
       sodipodi:type="arc" />
    <path
       sodipodi:type="arc"
       style="fill:#00fff9;fill-opacity:0.10958904;fill-rule:evenodd;stroke:none"
       id="path3772"
       sodipodi:cx="45"
       sodipodi:cy="43.5"
       sodipodi:rx="35"
       sodipodi:ry="2.5"
       d="m 80,43.5 a 35,2.5 0 1 1 -70,0 35,2.5 0 1 1 70,0 z"
       transform="matrix(1.1372948,0,0,1.2306049,-4.3597285,928.33087)" />
    <path
       transform="matrix(1.1372948,0,0,1.504869,-4.3597285,916.40038)"
       d="m 80,43.5 a 35,2.5 0 1 1 -70,0 35,2.5 0 1 1 70,0 z"
       sodipodi:ry="2.5"
       sodipodi:rx="35"
       sodipodi:cy="43.5"
       sodipodi:cx="45"
       id="path3774"
       style="fill:#00fff9;fill-opacity:0.10958904;fill-rule:evenodd;stroke:none"
       sodipodi:type="arc" />
    <path
       sodipodi:type="arc"
       style="fill:#00fff9;fill-opacity:0.10958904;fill-rule:evenodd;stroke:none"
       id="path3776"
       sodipodi:cx="45"
       sodipodi:cy="43.5"
       sodipodi:rx="35"
       sodipodi:ry="2.5"
       d="m 80,43.5 a 35,2.5 0 1 1 -70,0 35,2.5 0 1 1 70,0 z"
       transform="matrix(1.1372948,0,0,1.779133,-4.3597285,904.46989)" />
    <path
       transform="matrix(1.1372948,0,0,2.1631028,-4.3597285,887.76721)"
       d="m 80,43.5 a 35,2.5 0 1 1 -70,0 35,2.5 0 1 1 70,0 z"
       sodipodi:ry="2.5"
       sodipodi:rx="35"
       sodipodi:cy="43.5"
       sodipodi:cx="45"
       id="path3778"
       style="fill:#00fff9;fill-opacity:0.10958904;fill-rule:evenodd;stroke:none"
       sodipodi:type="arc" />
    <path
       sodipodi:type="arc"
       style="fill:#00fff9;fill-opacity:0.10958904;fill-rule:evenodd;stroke:none"
       id="path3780"
       sodipodi:cx="45"
       sodipodi:cy="43.5"
       sodipodi:rx="35"
       sodipodi:ry="2.5"
       d="m 80,43.5 a 35,2.5 0 1 1 -70,0 35,2.5 0 1 1 70,0 z"
       transform="matrix(1.1372948,0,0,2.5470725,-4.3597285,871.06453)" />
    <path
       transform="matrix(1.1372948,0,0,2.985895,-4.3597285,851.97575)"
       d="m 80,43.5 a 35,2.5 0 1 1 -70,0 35,2.5 0 1 1 70,0 z"
       sodipodi:ry="2.5"
       sodipodi:rx="35"
       sodipodi:cy="43.5"
       sodipodi:cx="45"
       id="path3782"
       style="fill:#00fff9;fill-opacity:0.10958904;fill-rule:evenodd;stroke:none"
       sodipodi:type="arc" />
    <path
       sodipodi:type="arc"
       style="fill:#f000ff;fill-opacity:0.10958904;fill-rule:evenodd;stroke:none"
       id="path3784"
       sodipodi:cx="45"
       sodipodi:cy="43.5"
       sodipodi:rx="35"
       sodipodi:ry="2.5"
       d="m 80,43.5 a 35,2.5 0 1 1 -70,0 35,2.5 0 1 1 70,0 z"
       transform="matrix(1.1372948,0,0,3.4247175,-4.3597285,832.88697)" />
    <path
       sodipodi:type="arc"
       style="fill:#ff89ff;fill-opacity:0.51598176;fill-rule:evenodd;stroke:none"
       id="path3768"
       sodipodi:cx="45"
       sodipodi:cy="43.5"
       sodipodi:rx="35"
       sodipodi:ry="2.5"
       d="m 80,43.5 a 35,2.5 0 1 1 -70,0 35,2.5 0 1 1 70,0 z"
       transform="matrix(1.1372948,0,0,0.79178239,-4.3597285,947.41965)" />
    <path
       sodipodi:type="arc"
       style="fill:#00fff9;fill-opacity:0.10958904;fill-rule:evenodd;stroke:none"
       id="path3788"
       sodipodi:cx="45"
       sodipodi:cy="43.5"
       sodipodi:rx="35"
       sodipodi:ry="2.5"
       d="m 80,43.5 a 35,2.5 0 1 1 -70,0 35,2.5 0 1 1 70,0 z"
       transform="matrix(1.1372948,0,0,1.0111936,-4.3597285,951.87526)" />
    <path
       transform="matrix(1.1372948,0,0,1.2306049,-4.3597285,942.33087)"
       d="m 80,43.5 a 35,2.5 0 1 1 -70,0 35,2.5 0 1 1 70,0 z"
       sodipodi:ry="2.5"
       sodipodi:rx="35"
       sodipodi:cy="43.5"
       sodipodi:cx="45"
       id="path3790"
       style="fill:#00fff9;fill-opacity:0.10958904;fill-rule:evenodd;stroke:none"
       sodipodi:type="arc" />
    <path
       sodipodi:type="arc"
       style="fill:#00fff9;fill-opacity:0.10958904;fill-rule:evenodd;stroke:none"
       id="path3792"
       sodipodi:cx="45"
       sodipodi:cy="43.5"
       sodipodi:rx="35"
       sodipodi:ry="2.5"
       d="m 80,43.5 a 35,2.5 0 1 1 -70,0 35,2.5 0 1 1 70,0 z"
       transform="matrix(1.1372948,0,0,1.504869,-4.3597285,930.40038)" />
    <path
       transform="matrix(1.1372948,0,0,1.779133,-4.3597285,918.46989)"
       d="m 80,43.5 a 35,2.5 0 1 1 -70,0 35,2.5 0 1 1 70,0 z"
       sodipodi:ry="2.5"
       sodipodi:rx="35"
       sodipodi:cy="43.5"
       sodipodi:cx="45"
       id="path3794"
       style="fill:#00fff9;fill-opacity:0.10958904;fill-rule:evenodd;stroke:none"
       sodipodi:type="arc" />
    <path
       sodipodi:type="arc"
       style="fill:#00fff9;fill-opacity:0.10958904;fill-rule:evenodd;stroke:none"
       id="path3796"
       sodipodi:cx="45"
       sodipodi:cy="43.5"
       sodipodi:rx="35"
       sodipodi:ry="2.5"
       d="m 80,43.5 a 35,2.5 0 1 1 -70,0 35,2.5 0 1 1 70,0 z"
       transform="matrix(1.1372948,0,0,2.1631028,-4.3597285,901.76721)" />
    <path
       transform="matrix(1.1372948,0,0,2.5470725,-4.3597285,885.06453)"
       d="m 80,43.5 a 35,2.5 0 1 1 -70,0 35,2.5 0 1 1 70,0 z"
       sodipodi:ry="2.5"
       sodipodi:rx="35"
       sodipodi:cy="43.5"
       sodipodi:cx="45"
       id="path3798"
       style="fill:#00fff9;fill-opacity:0.10958904;fill-rule:evenodd;stroke:none"
       sodipodi:type="arc" />
    <path
       sodipodi:type="arc"
       style="fill:#00fff9;fill-opacity:0.10958904;fill-rule:evenodd;stroke:none"
       id="path3800"
       sodipodi:cx="45"
       sodipodi:cy="43.5"
       sodipodi:rx="35"
       sodipodi:ry="2.5"
       d="m 80,43.5 a 35,2.5 0 1 1 -70,0 35,2.5 0 1 1 70,0 z"
       transform="matrix(1.1372948,0,0,2.985895,-4.3597285,865.97575)" />
    <path
       transform="matrix(1.1372948,0,0,3.4247175,-4.3597285,846.88697)"
       d="m 80,43.5 a 35,2.5 0 1 1 -70,0 35,2.5 0 1 1 70,0 z"
       sodipodi:ry="2.5"
       sodipodi:rx="35"
       sodipodi:cy="43.5"
       sodipodi:cx="45"
       id="path3802"
       style="fill:#f000ff;fill-opacity:0.10958904;fill-rule:evenodd;stroke:none"
       sodipodi:type="arc" />
    <path
       transform="matrix(1.1372948,0,0,0.79178239,-4.3597285,961.41965)"
       d="m 80,43.5 a 35,2.5 0 1 1 -70,0 35,2.5 0 1 1 70,0 z"
       sodipodi:ry="2.5"
       sodipodi:rx="35"
       sodipodi:cy="43.5"
       sodipodi:cx="45"
       id="path3804"
       style="fill:#89fffc;fill-opacity:0.51598176;fill-rule:evenodd;stroke:none"
       sodipodi:type="arc" />
    <path
       transform="matrix(0.94247017,0,0,0.83797076,4.4073806,971.41045)"
       d="m 80,43.5 a 35,2.5 0 1 1 -70,0 35,2.5 0 1 1 70,0 z"
       sodipodi:ry="2.5"
       sodipodi:rx="35"
       sodipodi:cy="43.5"
       sodipodi:cx="45"
       id="path3824"
       style="fill:#00fff9;fill-opacity:0.10958904;fill-rule:evenodd;stroke:none"
       sodipodi:type="arc" />
    <path
       sodipodi:type="arc"
       style="fill:#00fff9;fill-opacity:0.10958904;fill-rule:evenodd;stroke:none"
       id="path3826"
       sodipodi:cx="45"
       sodipodi:cy="43.5"
       sodipodi:rx="35"
       sodipodi:ry="2.5"
       d="m 80,43.5 a 35,2.5 0 1 1 -70,0 35,2.5 0 1 1 70,0 z"
       transform="matrix(0.94247017,0,0,1.0197957,4.4073806,963.50107)" />
    <path
       transform="matrix(0.94247017,0,0,1.2470769,4.4073806,953.61433)"
       d="m 80,43.5 a 35,2.5 0 1 1 -70,0 35,2.5 0 1 1 70,0 z"
       sodipodi:ry="2.5"
       sodipodi:rx="35"
       sodipodi:cy="43.5"
       sodipodi:cx="45"
       id="path3828"
       style="fill:#00fff9;fill-opacity:0.10958904;fill-rule:evenodd;stroke:none"
       sodipodi:type="arc" />
    <path
       sodipodi:type="arc"
       style="fill:#00fff9;fill-opacity:0.10958904;fill-rule:evenodd;stroke:none"
       id="path3830"
       sodipodi:cx="45"
       sodipodi:cy="43.5"
       sodipodi:rx="35"
       sodipodi:ry="2.5"
       d="m 80,43.5 a 35,2.5 0 1 1 -70,0 35,2.5 0 1 1 70,0 z"
       transform="matrix(0.94247017,0,0,1.4743581,4.4073806,943.7276)" />
    <path
       transform="matrix(0.94247017,0,0,1.7925518,4.4073806,929.88618)"
       d="m 80,43.5 a 35,2.5 0 1 1 -70,0 35,2.5 0 1 1 70,0 z"
       sodipodi:ry="2.5"
       sodipodi:rx="35"
       sodipodi:cy="43.5"
       sodipodi:cx="45"
       id="path3832"
       style="fill:#00fff9;fill-opacity:0.10958904;fill-rule:evenodd;stroke:none"
       sodipodi:type="arc" />
    <path
       sodipodi:type="arc"
       style="fill:#00fff9;fill-opacity:0.10958904;fill-rule:evenodd;stroke:none"
       id="path3834"
       sodipodi:cx="45"
       sodipodi:cy="43.5"
       sodipodi:rx="35"
       sodipodi:ry="2.5"
       d="m 80,43.5 a 35,2.5 0 1 1 -70,0 35,2.5 0 1 1 70,0 z"
       transform="matrix(0.94247017,0,0,2.1107454,4.4073806,916.04476)" />
    <path
       transform="matrix(0.94247017,0,0,2.4743953,4.4073806,900.22599)"
       d="m 80,43.5 a 35,2.5 0 1 1 -70,0 35,2.5 0 1 1 70,0 z"
       sodipodi:ry="2.5"
       sodipodi:rx="35"
       sodipodi:cy="43.5"
       sodipodi:cx="45"
       id="path3836"
       style="fill:#00fff9;fill-opacity:0.10958904;fill-rule:evenodd;stroke:none"
       sodipodi:type="arc" />
    <path
       sodipodi:type="arc"
       style="fill:#f000ff;fill-opacity:0.10958904;fill-rule:evenodd;stroke:none"
       id="path3838"
       sodipodi:cx="45"
       sodipodi:cy="43.5"
       sodipodi:rx="35"
       sodipodi:ry="2.5"
       d="m 80,43.5 a 35,2.5 0 1 1 -70,0 35,2.5 0 1 1 70,0 z"
       transform="matrix(0.94247017,0,0,2.8380452,4.4073806,884.40722)" />
    <path
       sodipodi:type="arc"
       style="fill:#ffffff;fill-opacity:0.51598176;fill-rule:evenodd;stroke:none"
       id="path3840"
       sodipodi:cx="45"
       sodipodi:cy="43.5"
       sodipodi:rx="35"
       sodipodi:ry="2.5"
       d="m 80,43.5 a 35,2.5 0 1 1 -70,0 35,2.5 0 1 1 70,0 z"
       transform="matrix(0.94247017,0,0,0.65614586,4.4073806,979.31984)" />
    <path
       sodipodi:type="arc"
       style="fill:#00fff9;fill-opacity:0.10958904;fill-rule:evenodd;stroke:none"
       id="path3842"
       sodipodi:cx="45"
       sodipodi:cy="43.5"
       sodipodi:rx="35"
       sodipodi:ry="2.5"
       d="m 80,43.5 a 35,2.5 0 1 1 -70,0 35,2.5 0 1 1 70,0 z"
       transform="matrix(0.66646858,0,0,0.59257174,16.827452,992.08531)" />
    <path
       transform="matrix(0.66646858,0,0,0.7211494,16.827452,986.49218)"
       d="m 80,43.5 a 35,2.5 0 1 1 -70,0 35,2.5 0 1 1 70,0 z"
       sodipodi:ry="2.5"
       sodipodi:rx="35"
       sodipodi:cy="43.5"
       sodipodi:cx="45"
       id="path3844"
       style="fill:#00fff9;fill-opacity:0.10958904;fill-rule:evenodd;stroke:none"
       sodipodi:type="arc" />
    <path
       sodipodi:type="arc"
       style="fill:#00fff9;fill-opacity:0.10958904;fill-rule:evenodd;stroke:none"
       id="path3846"
       sodipodi:cx="45"
       sodipodi:cy="43.5"
       sodipodi:rx="35"
       sodipodi:ry="2.5"
       d="m 80,43.5 a 35,2.5 0 1 1 -70,0 35,2.5 0 1 1 70,0 z"
       transform="matrix(0.66646858,0,0,0.8818715,16.827452,979.50077)" />
    <path
       transform="matrix(0.66646858,0,0,1.0425936,16.827452,972.50936)"
       d="m 80,43.5 a 35,2.5 0 1 1 -70,0 35,2.5 0 1 1 70,0 z"
       sodipodi:ry="2.5"
       sodipodi:rx="35"
       sodipodi:cy="43.5"
       sodipodi:cx="45"
       id="path3848"
       style="fill:#00fff9;fill-opacity:0.10958904;fill-rule:evenodd;stroke:none"
       sodipodi:type="arc" />
    <path
       sodipodi:type="arc"
       style="fill:#00fff9;fill-opacity:0.10958904;fill-rule:evenodd;stroke:none"
       id="path3850"
       sodipodi:cx="45"
       sodipodi:cy="43.5"
       sodipodi:rx="35"
       sodipodi:ry="2.5"
       d="m 80,43.5 a 35,2.5 0 1 1 -70,0 35,2.5 0 1 1 70,0 z"
       transform="matrix(0.66646858,0,0,1.2676045,16.827452,962.72139)" />
    <path
       transform="matrix(0.66646858,0,0,1.4926154,16.827452,952.93341)"
       d="m 80,43.5 a 35,2.5 0 1 1 -70,0 35,2.5 0 1 1 70,0 z"
       sodipodi:ry="2.5"
       sodipodi:rx="35"
       sodipodi:cy="43.5"
       sodipodi:cx="45"
       id="path3852"
       style="fill:#00fff9;fill-opacity:0.10958904;fill-rule:evenodd;stroke:none"
       sodipodi:type="arc" />
    <path
       sodipodi:type="arc"
       style="fill:#00fff9;fill-opacity:0.10958904;fill-rule:evenodd;stroke:none"
       id="path3854"
       sodipodi:cx="45"
       sodipodi:cy="43.5"
       sodipodi:rx="35"
       sodipodi:ry="2.5"
       d="m 80,43.5 a 35,2.5 0 1 1 -70,0 35,2.5 0 1 1 70,0 z"
       transform="matrix(0.66646858,0,0,1.7497708,16.827452,941.74716)" />
    <path
       transform="matrix(0.66646858,0,0,2.0069261,16.827452,930.5609)"
       d="m 80,43.5 a 35,2.5 0 1 1 -70,0 35,2.5 0 1 1 70,0 z"
       sodipodi:ry="2.5"
       sodipodi:rx="35"
       sodipodi:cy="43.5"
       sodipodi:cx="45"
       id="path3856"
       style="fill:#f000ff;fill-opacity:0.10958904;fill-rule:evenodd;stroke:none"
       sodipodi:type="arc" />
    <path
       transform="matrix(0.66646858,0,0,0.46399411,16.827452,997.6784)"
       d="m 80,43.5 a 35,2.5 0 1 1 -70,0 35,2.5 0 1 1 70,0 z"
       sodipodi:ry="2.5"
       sodipodi:rx="35"
       sodipodi:cy="43.5"
       sodipodi:cx="45"
       id="path3858"
       style="fill:#ffffff;fill-opacity:0.51598176;fill-rule:evenodd;stroke:none"
       sodipodi:type="arc" />
  </g>
</svg>
