<?xml version="1.0" encoding="UTF-8" standalone="no"?>
<!-- Created with Inkscape (http://www.inkscape.org/) -->

<svg
   xmlns:dc="http://purl.org/dc/elements/1.1/"
   xmlns:cc="http://creativecommons.org/ns#"
   xmlns:rdf="http://www.w3.org/1999/02/22-rdf-syntax-ns#"
   xmlns:svg="http://www.w3.org/2000/svg"
   xmlns="http://www.w3.org/2000/svg"
   xmlns:sodipodi="http://sodipodi.sourceforge.net/DTD/sodipodi-0.dtd"
   xmlns:inkscape="http://www.inkscape.org/namespaces/inkscape"
   width="96"
   height="96"
   id="svg2"
   version="1.1"
   inkscape:version="0.48.4 r9939"
   sodipodi:docname="fcitx.svg">
  <defs
     id="defs4" />
  <sodipodi:namedview
     id="base"
     pagecolor="#ffffff"
     bordercolor="#666666"
     borderopacity="1.0"
     inkscape:pageopacity="0.0"
     inkscape:pageshadow="2"
     inkscape:zoom="5.90625"
     inkscape:cx="29.323699"
     inkscape:cy="56.319403"
     inkscape:document-units="px"
     inkscape:current-layer="layer1"
     showgrid="true"
     inkscape:snap-page="true"
     inkscape:snap-global="true"
     inkscape:snap-center="true"
     inkscape:snap-object-midpoints="false"
     showguides="true"
     inkscape:guide-bbox="true"
     inkscape:snap-bbox="true"
     inkscape:object-paths="true"
     inkscape:object-nodes="true"
     inkscape:window-width="1305"
     inkscape:window-height="744"
     inkscape:window-x="61"
     inkscape:window-y="24"
     inkscape:window-maximized="1"
     inkscape:snap-midpoints="true"
     inkscape:snap-grids="true"
     inkscape:snap-to-guides="false">
    <inkscape:grid
       type="xygrid"
       id="grid3002"
       empspacing="5"
       visible="true"
       enabled="true"
       snapvisiblegridlinesonly="true" />
  </sodipodi:namedview>
  <metadata
     id="metadata7">
    <rdf:RDF>
      <cc:Work
         rdf:about="">
        <dc:format>image/svg+xml</dc:format>
        <dc:type
           rdf:resource="http://purl.org/dc/dcmitype/StillImage" />
        <dc:title />
      </cc:Work>
    </rdf:RDF>
  </metadata>
  <g
     inkscape:label="Layer 1"
     inkscape:groupmode="layer"
     id="layer1"
     transform="translate(0,-956.36218)">
    <rect
       style="fill:#ffffff;fill-opacity:0;fill-rule:nonzero;stroke:none"
       id="rect3775"
       width="96"
       height="96"
       x="0"
       y="956.36218"
       ry="0" />
    <path
       style="fill:#000000;fill-opacity:0.09589041;fill-rule:nonzero;stroke:none"
       d="m 3.353015,956.30662 c -1.884176,0 -3.4111555,1.43156 -3.4111555,3.19799 l 0,83.65949 c 0,1.7665 1.5269795,3.1981 3.4111555,3.1981 l 89.23583,0 c 1.884174,0 3.411155,-1.4316 3.411155,-3.1981 l 0,-83.65949 c 0,-1.76643 -1.526981,-3.19799 -3.411155,-3.19799 z"
       id="rect3772"
       inkscape:connector-curvature="0"
       sodipodi:nodetypes="sssssssss" />
    <path
       style="fill:#000000;fill-opacity:0.18721463;fill-rule:nonzero;stroke:none"
       d="m 1.0459761,1041.8066 0,7.4219 c 0,1.7392 1.461916,3.1337 3.2852054,3.1337 l 86.3836135,0 c 1.823288,0 3.285205,-1.3945 3.285205,-3.1337 l 0,-7.4219 -92.9540239,0 z"
       id="rect3785"
       inkscape:connector-curvature="0" />
    <path
       style="fill:#000000;fill-opacity:0.38356168;fill-rule:nonzero;stroke:none"
       d="m 1.0459761,1041.8066 0,5.3807 c 0,1.762 1.461916,3.1749 3.2852054,3.1749 l 86.3836135,0 c 1.823288,0 3.285205,-1.4129 3.285205,-3.1749 l 0,-5.3807 -92.9540239,0 z"
       id="rect3783"
       inkscape:connector-curvature="0" />
    <rect
       style="fill:#ed0091;fill-opacity:1;fill-rule:nonzero;stroke:none"
       id="rect2985"
       width="92.954025"
       height="89"
       x="1.045977"
       y="957.36218"
       ry="3.1511393" />
    <path
       inkscape:connector-curvature="0"
       style="opacity:1;fill:#fbce4b;fill-opacity:1;fill-rule:nonzero;stroke:none"
       d="m 94.000002,1015.1724 0,-54.66476 c 0,-0.87287 -0.373398,-1.64881 -0.96827,-2.21838 -0.594873,-0.56956 -1.405291,-0.92708 -2.316935,-0.92708 l -61.969351,0 34.892341,57.84332 14.62781,0 15.734405,-0.033 z"
       id="path3039" />
    <path
       inkscape:connector-curvature="0"
       style="opacity:1;fill:#15a864;fill-opacity:1;fill-rule:nonzero;stroke:none"
       d="m 28.676284,957.36218 -24.3451015,0 c -0.9116465,0 -1.7220617,0.35752 -2.3169344,0.92708 -0.5948726,0.56957 -0.9682711,1.34551 -0.9682711,2.21838 l 0,82.70906 c 0,0.8729 0.3733985,1.6488 0.9682711,2.2184 0.5948727,0.5696 1.4052879,0.9271 2.3169344,0.9271 l 8.2303055,0 34.92692,-57.90962 -7.331196,-12.08519 -11.480928,-19.00521 z"
       id="path3034" />
    <path
       style="opacity:1;fill:#3476dd;fill-opacity:1;fill-rule:nonzero;stroke:none"
       d="m 12.63065,1046.3622 78.084147,0 c 0.911644,0 1.722062,-0.3575 2.316935,-0.9271 0.594872,-0.5696 0.96827,-1.3455 0.96827,-2.2184 l 0,-27.945 -62.660974,0 -7.296614,12.1183 -11.411764,18.9722 z"
       id="rect3008"
       inkscape:connector-curvature="0" />
    <path
       style="fill:#000000;fill-opacity:0.38356168;fill-rule:nonzero;stroke:none"
       d="m 1,1042.3622 0.045976,2.7457 c 0.03024,1.8058 1.461916,3.2543 3.2852054,3.2543 l 86.3836136,0 c 1.823288,0 3.285205,-1.4481 3.285205,-3.2543 l -0.04598,-2.7457 z"
       id="rect3781"
       inkscape:connector-curvature="0"
       sodipodi:nodetypes="csssscc" />
    <rect
       style="fill:#ffffff;fill-opacity:0.17351598;fill-rule:nonzero;stroke:none"
       id="rect3770"
       width="92.954033"
       height="2.000005"
       x="1.045976"
       y="1040.3622" />
    <path
       id="path3805"
       d="m 47.65625,969.17468 a 3.9963102,3.9963102 0 0 0 -3.8125,2.84375 c -1.259675,4.10707 -2.42005,8.60292 -3.4375,13.1875 -1.664197,-2.1756 -3.247299,-4.37279 -4.90625,-6.53125 a 3.9963102,3.9963102 0 0 0 -7.125,2.84375 c 0.527095,5.15836 1.133353,10.35557 1.9375,15.43747 -2.131248,-1.0098 -3.956432,-1.8262 -6.34375,-3.0625 a 3.9963102,3.9963102 0 0 0 -5.15625,5.7813 c 2.977335,4.418 5.240017,8.3021 7.5,11.75 -3.875945,0.077 -7.464532,-0.1605 -10.3125,-1.9375 a 3.9963102,3.9963102 0 0 0 -5.21875,5.9062 c 3.567786,4.3217 9.818538,8.1087 17.0625,10.2813 6.480993,1.9438 13.935941,2.264 20.34375,-1.0938 6.437014,3.3518 13.910179,3.0246 20.40625,1.0625 7.207584,-2.1769 13.414804,-5.9451 16.96875,-10.25 a 3.9963102,3.9963102 0 0 0 -5.21875,-5.9062 c -2.804301,1.7498 -6.318201,2.0041 -10.125,1.9375 2.223323,-3.4198 4.472905,-7.2723 7.40625,-11.625 a 3.9963102,3.9963102 0 0 0 -5.15625,-5.7813 c -2.369728,1.2273 -4.167443,2.0534 -6.28125,3.0625 0.816499,-5.1233 1.437054,-10.35907 1.96875,-15.56247 a 3.9963102,3.9963102 0 0 0 -7.125,-2.84375 c -1.984318,2.5818 -3.843237,5.20668 -5.8125,7.8125 -1.181485,-5.0152 -2.475869,-9.97099 -3.71875,-14.40625 a 3.9963102,3.9963102 0 0 0 -3.84375,-2.90625 z"
       style="fill:#000000;fill-opacity:0.27397263;fill-rule:nonzero;stroke:none"
       inkscape:connector-curvature="0" />
    <path
       inkscape:connector-curvature="0"
       style="fill:#000000;fill-opacity:0.27397263;fill-rule:nonzero;stroke:none"
       d="m 47.65625,967.17468 a 3.9963102,3.9963102 0 0 0 -3.8125,2.84375 c -1.259675,4.10707 -2.42005,8.60292 -3.4375,13.1875 -1.664197,-2.1756 -3.247299,-4.37279 -4.90625,-6.53125 a 3.9963102,3.9963102 0 0 0 -7.125,2.84375 c 0.527095,5.15836 1.133353,10.35556 1.9375,15.43747 -2.131248,-1.0098 -3.956432,-1.8262 -6.34375,-3.0625 a 3.9963102,3.9963102 0 0 0 -5.15625,5.7813 c 2.977335,4.418 5.240017,8.3021 7.5,11.75 -3.875945,0.077 -7.464532,-0.1605 -10.3125,-1.9375 a 3.9963102,3.9963102 0 0 0 -5.21875,5.9062 c 3.567786,4.3217 9.818538,8.1087 17.0625,10.2813 6.480993,1.9438 13.935941,2.264 20.34375,-1.0938 6.437014,3.3518 13.910179,3.0246 20.40625,1.0625 7.207584,-2.1769 13.414804,-5.9451 16.96875,-10.25 a 3.9963102,3.9963102 0 0 0 -5.21875,-5.9062 c -2.804301,1.7498 -6.318201,2.0041 -10.125,1.9375 2.223323,-3.4198 4.472905,-7.2723 7.40625,-11.625 a 3.9963102,3.9963102 0 0 0 -5.15625,-5.7813 c -2.369728,1.2273 -4.167443,2.0534 -6.28125,3.0625 0.816499,-5.12334 1.437054,-10.35907 1.96875,-15.56247 a 3.9963102,3.9963102 0 0 0 -7.125,-2.84375 c -1.984318,2.5818 -3.843237,5.20668 -5.8125,7.8125 -1.181485,-5.0152 -2.475869,-9.97099 -3.71875,-14.40625 a 3.9963102,3.9963102 0 0 0 -3.84375,-2.90625 z"
       id="path3803" />
    <path
       id="path3801"
       d="m 47.65625,965.17468 a 3.9963102,3.9963102 0 0 0 -3.8125,2.84375 c -1.259675,4.10707 -2.42005,8.60292 -3.4375,13.1875 -1.664197,-2.1756 -3.247299,-4.37279 -4.90625,-6.53125 a 3.9963102,3.9963102 0 0 0 -7.125,2.84375 c 0.527095,5.15836 1.133353,10.35556 1.9375,15.43747 -2.131248,-1.0098 -3.956432,-1.8262 -6.34375,-3.06247 a 3.9963102,3.9963102 0 0 0 -5.15625,5.78127 c 2.977335,4.418 5.240017,8.3021 7.5,11.75 -3.875945,0.077 -7.464532,-0.1605 -10.3125,-1.9375 a 3.9963102,3.9963102 0 0 0 -5.21875,5.9062 c 3.567786,4.3217 9.818538,8.1087 17.0625,10.2813 6.480993,1.9438 13.935941,2.264 20.34375,-1.0938 6.437014,3.3518 13.910179,3.0246 20.40625,1.0625 7.207584,-2.1769 13.414804,-5.9451 16.96875,-10.25 a 3.9963102,3.9963102 0 0 0 -5.21875,-5.9062 c -2.804301,1.7498 -6.318201,2.0041 -10.125,1.9375 2.223323,-3.4198 4.472905,-7.2723 7.40625,-11.625 a 3.9963102,3.9963102 0 0 0 -5.15625,-5.7813 c -2.369728,1.2273 -4.167443,2.0534 -6.28125,3.0625 0.816499,-5.12334 1.437054,-10.35907 1.96875,-15.56247 a 3.9963102,3.9963102 0 0 0 -7.125,-2.84375 c -1.984318,2.5818 -3.843237,5.20668 -5.8125,7.8125 -1.181485,-5.0152 -2.475869,-9.97099 -3.71875,-14.40625 a 3.9963102,3.9963102 0 0 0 -3.84375,-2.90625 z"
       style="fill:#000000;fill-opacity:0.27397263;fill-rule:nonzero;stroke:none"
       inkscape:connector-curvature="0" />
    <path
       style="fill:#ffffff;fill-opacity:1;fill-rule:nonzero;stroke:none"
       d="m 47.65625,963.17468 a 3.9963102,3.9963102 0 0 0 -3.8125,2.84375 c -1.259675,4.10707 -2.42005,8.60292 -3.4375,13.1875 -1.664197,-2.1756 -3.247299,-4.37279 -4.90625,-6.53125 a 3.9963102,3.9963102 0 0 0 -7.125,2.84375 c 0.527095,5.15836 1.133353,10.35556 1.9375,15.4375 -2.131248,-1.00983 -3.956432,-1.82625 -6.34375,-3.0625 a 3.9963102,3.9963102 0 0 0 -5.15625,5.78127 c 2.977335,4.418 5.240017,8.3021 7.5,11.75 -3.875945,0.077 -7.464532,-0.1605 -10.3125,-1.9375 a 3.9963102,3.9963102 0 0 0 -5.21875,5.9062 c 3.567786,4.3217 9.818538,8.1087 17.0625,10.2813 6.480993,1.9438 13.935941,2.264 20.34375,-1.0938 6.437014,3.3518 13.910179,3.0246 20.40625,1.0625 7.207584,-2.1769 13.414804,-5.9451 16.96875,-10.25 a 3.9963102,3.9963102 0 0 0 -5.21875,-5.9062 c -2.804301,1.7498 -6.318201,2.0041 -10.125,1.9375 2.223323,-3.4198 4.472905,-7.2723 7.40625,-11.625 a 3.9963102,3.9963102 0 0 0 -5.15625,-5.78127 c -2.369728,1.22722 -4.167443,2.0534 -6.28125,3.0625 0.816499,-5.12337 1.437054,-10.3591 1.96875,-15.5625 a 3.9963102,3.9963102 0 0 0 -7.125,-2.84375 c -1.984318,2.5818 -3.843237,5.20668 -5.8125,7.8125 -1.181485,-5.0152 -2.475869,-9.97099 -3.71875,-14.40625 a 3.9963102,3.9963102 0 0 0 -3.84375,-2.90625 z"
       id="path3798"
       inkscape:connector-curvature="0" />
    <g
       id="g3795"
       transform="translate(0.16931217,-12.169317)">
      <path
         inkscape:transform-center-y="-1.8322448"
         inkscape:transform-center-x="15.874075"
         style="opacity:0.72839505;fill:#ff3300;fill-opacity:1;fill-rule:nonzero;stroke:none"
         d="m 47.999999,1026.3402 c -7.180035,-10.7329 -22.855756,-0.1477 -34.309603,-7.2945 5.438335,6.5875 23.457903,14.9345 34.309603,7.2945 z"
         id="path3768"
         inkscape:connector-curvature="0"
         sodipodi:nodetypes="ccc" />
      <path
         sodipodi:nodetypes="ccc"
         inkscape:connector-curvature="0"
         id="rect3755"
         d="m 48.048713,1026.3038 c 0.804643,-12.4227 -9.357728,-14.011 -26.089896,-22.6759 9.950225,14.765 12.228186,23.7651 26.089896,22.6759 z"
         style="opacity:0.72839505;fill:#ffb200;fill-opacity:1;fill-rule:nonzero;stroke:none" />
      <path
         inkscape:transform-center-y="-13.36173"
         inkscape:transform-center-x="4.3692176"
         style="opacity:0.72839505;fill:#ffff00;fill-opacity:1;fill-rule:nonzero;stroke:none"
         d="m 48.096612,1026.2957 c 6.816922,-10.9134 -5.058781,-24.8912 -15.918277,-39.0205 1.745415,17.0813 2.868413,34.7801 15.918277,39.0205 z"
         id="path3758"
         inkscape:connector-curvature="0"
         sodipodi:nodetypes="ccc" />
      <path
         sodipodi:nodetypes="ccc"
         inkscape:connector-curvature="0"
         id="path3760"
         d="m 48.06725,1026.4404 c 10.690997,-8.1832 4.047013,-30.55805 -0.589559,-47.10379 -5.079511,16.56135 -9.992266,39.17839 0.589559,47.10379 z"
         style="opacity:0.72839505;fill:#00ff33;fill-opacity:1;fill-rule:nonzero;stroke:none"
         inkscape:transform-center-x="-0.48785038"
         inkscape:transform-center-y="-18.02721" />
      <path
         sodipodi:nodetypes="ccc"
         inkscape:connector-curvature="0"
         id="path3764"
         d="m 48.096612,1026.2957 c -6.816923,-10.9134 5.05878,-24.8912 15.918276,-39.02052 -1.745415,17.08132 -2.868414,34.78012 -15.918276,39.02052 z"
         style="opacity:0.72839505;fill:#3399ff;fill-opacity:1;fill-rule:nonzero;stroke:none"
         inkscape:transform-center-x="-4.3692177"
         inkscape:transform-center-y="-13.361726" />
      <path
         style="opacity:0.72839505;fill:#003399;fill-opacity:1;fill-rule:nonzero;stroke:none"
         d="m 48.06725,1026.4404 c -0.804644,-12.4227 9.357728,-14.011 26.089896,-22.6759 -9.950226,14.765 -12.228186,23.7651 -26.089896,22.6759 z"
         id="path3766"
         inkscape:connector-curvature="0"
         sodipodi:nodetypes="ccc" />
      <path
         sodipodi:nodetypes="ccc"
         inkscape:connector-curvature="0"
         id="path3770"
         d="m 47.999999,1026.3402 c 7.180034,-10.7329 22.855755,-0.1477 34.309602,-7.2945 -5.438336,6.5875 -23.457903,14.9345 -34.309602,7.2945 z"
         style="opacity:0.72839505;fill:#990099;fill-opacity:1;fill-rule:nonzero;stroke:none"
         inkscape:transform-center-x="-15.874076"
         inkscape:transform-center-y="-1.8322448" />
    </g>
  </g>
</svg>
