<?xml version="1.0" encoding="UTF-8" standalone="no"?>
<!-- Created with Inkscape (http://www.inkscape.org/) -->

<svg
   xmlns:dc="http://purl.org/dc/elements/1.1/"
   xmlns:cc="http://creativecommons.org/ns#"
   xmlns:rdf="http://www.w3.org/1999/02/22-rdf-syntax-ns#"
   xmlns:svg="http://www.w3.org/2000/svg"
   xmlns="http://www.w3.org/2000/svg"
   xmlns:xlink="http://www.w3.org/1999/xlink"
   xmlns:sodipodi="http://sodipodi.sourceforge.net/DTD/sodipodi-0.dtd"
   xmlns:inkscape="http://www.inkscape.org/namespaces/inkscape"
   width="96"
   height="96"
   id="svg2"
   version="1.1"
   inkscape:version="0.48.4 r9939"
   sodipodi:docname="firefox-trunk.svg">
  <defs
     id="defs4">
    <radialGradient
       inkscape:collect="always"
       xlink:href="#SVGID_45_"
       id="radialGradient3407"
       gradientUnits="userSpaceOnUse"
       gradientTransform="matrix(0.19620918,0.06118777,-0.03975855,0.13472691,-99.092928,949.92067)"
       cx="75.4692"
       cy="84.055199"
       r="43.930099" />
    <radialGradient
       id="SVGID_45_"
       cx="75.4692"
       cy="84.055199"
       r="43.930099"
       gradientTransform="matrix(0.9569,0.2903,-0.1939,0.6392,19.5463,8.4187)"
       gradientUnits="userSpaceOnUse">
      <stop
         offset="0.4869"
         style="stop-color:#E57C27;stop-opacity:0"
         id="stop3651" />
      <stop
         offset="0.8527"
         style="stop-color:#F0BE1B"
         id="stop3653" />
    </radialGradient>
    <radialGradient
       inkscape:collect="always"
       xlink:href="#SVGID_44_"
       id="radialGradient3410"
       gradientUnits="userSpaceOnUse"
       gradientTransform="matrix(0.0057208,-0.21068994,0.20496467,0.0058806,851.15068,1652.6922)"
       cx="2912.8057"
       cy="-4629.0093"
       r="111.5851" />
    <radialGradient
       id="SVGID_44_"
       cx="2912.8057"
       cy="-4629.0093"
       r="111.5851"
       gradientTransform="matrix(0.0279,-0.9996,0.9996,0.0279,4653.8252,3342.6565)"
       gradientUnits="userSpaceOnUse">
      <stop
         offset="0"
         style="stop-color:#ED6624"
         id="stop3644" />
      <stop
         offset="1"
         style="stop-color:#F69622"
         id="stop3646" />
    </radialGradient>
    <linearGradient
       inkscape:collect="always"
       xlink:href="#SVGID_43_"
       id="linearGradient3413"
       gradientUnits="userSpaceOnUse"
       gradientTransform="matrix(0.2050467,0,0,0.21077426,-103.10083,948.14622)"
       x1="165.2729"
       y1="155.66701"
       x2="165.2729"
       y2="346.56689" />
    <linearGradient
       id="SVGID_43_"
       gradientUnits="userSpaceOnUse"
       x1="165.2729"
       y1="155.66701"
       x2="165.2729"
       y2="346.56689">
      <stop
         offset="0"
         style="stop-color:#E57C27"
         id="stop3627" />
      <stop
         offset="0.5"
         style="stop-color:#DD5626"
         id="stop3629" />
      <stop
         offset="0.6469"
         style="stop-color:#C33A28"
         id="stop3631" />
      <stop
         offset="0.75"
         style="stop-color:#B02228"
         id="stop3633" />
      <stop
         offset="0.8131"
         style="stop-color:#AB2026"
         id="stop3635" />
      <stop
         offset="0.9126"
         style="stop-color:#9C1C21"
         id="stop3637" />
      <stop
         offset="1"
         style="stop-color:#8C161A"
         id="stop3639" />
    </linearGradient>
    <radialGradient
       inkscape:collect="always"
       xlink:href="#SVGID_42_"
       id="radialGradient3416"
       gradientUnits="userSpaceOnUse"
       gradientTransform="matrix(-0.04808345,0.10962369,-0.11025361,-0.04862562,-286.54513,1105.4493)"
       cx="-1629.4243"
       cy="-1332.1895"
       r="42.1092" />
    <radialGradient
       id="SVGID_42_"
       cx="-1629.4243"
       cy="-1332.1895"
       r="42.1092"
       gradientTransform="matrix(-0.2345,0.5201,-0.5377,-0.2307,-894.6464,746.3104)"
       gradientUnits="userSpaceOnUse">
      <stop
         offset="0"
         style="stop-color:#FFFFFF"
         id="stop3606" />
      <stop
         offset="2.670671e-002"
         style="stop-color:#FFFBE8;stop-opacity:0.9625"
         id="stop3608" />
      <stop
         offset="0.1019"
         style="stop-color:#FFF2B6;stop-opacity:0.8568"
         id="stop3610" />
      <stop
         offset="0.1738"
         style="stop-color:#FFED8C;stop-opacity:0.7558"
         id="stop3612" />
      <stop
         offset="0.2404"
         style="stop-color:#FFE967;stop-opacity:0.6624"
         id="stop3614" />
      <stop
         offset="0.3004"
         style="stop-color:#FFE645;stop-opacity:0.578"
         id="stop3616" />
      <stop
         offset="0.3519"
         style="stop-color:#FFE42C;stop-opacity:0.5057"
         id="stop3618" />
      <stop
         offset="0.3888"
         style="stop-color:#FFE421;stop-opacity:0.4538"
         id="stop3620" />
      <stop
         offset="0.8092"
         style="stop-color:#FFE300;stop-opacity:0"
         id="stop3622" />
    </radialGradient>
    <radialGradient
       inkscape:collect="always"
       xlink:href="#SVGID_41_"
       id="radialGradient3419"
       gradientUnits="userSpaceOnUse"
       gradientTransform="matrix(-0.06491778,0.17447893,-0.13387498,-0.0501432,-311.66226,1190.5243)"
       cx="-1471.7295"
       cy="-1158.8491"
       r="56.148602" />
    <radialGradient
       id="SVGID_41_"
       cx="-1471.7295"
       cy="-1158.8491"
       r="56.148602"
       gradientTransform="matrix(-0.3166,0.8278,-0.6529,-0.2379,-1017.1411,1149.9413)"
       gradientUnits="userSpaceOnUse">
      <stop
         offset="0"
         style="stop-color:#FFFFFF"
         id="stop3585" />
      <stop
         offset="2.670671e-002"
         style="stop-color:#FFFBE8;stop-opacity:0.9625"
         id="stop3587" />
      <stop
         offset="0.1019"
         style="stop-color:#FFF2B6;stop-opacity:0.8568"
         id="stop3589" />
      <stop
         offset="0.1738"
         style="stop-color:#FFED8C;stop-opacity:0.7558"
         id="stop3591" />
      <stop
         offset="0.2404"
         style="stop-color:#FFE967;stop-opacity:0.6624"
         id="stop3593" />
      <stop
         offset="0.3004"
         style="stop-color:#FFE645;stop-opacity:0.578"
         id="stop3595" />
      <stop
         offset="0.3519"
         style="stop-color:#FFE42C;stop-opacity:0.5057"
         id="stop3597" />
      <stop
         offset="0.3888"
         style="stop-color:#FFE421;stop-opacity:0.4538"
         id="stop3599" />
      <stop
         offset="0.8092"
         style="stop-color:#FFE300;stop-opacity:0"
         id="stop3601" />
    </radialGradient>
    <radialGradient
       inkscape:collect="always"
       xlink:href="#SVGID_40_"
       id="radialGradient3422"
       gradientUnits="userSpaceOnUse"
       gradientTransform="matrix(-0.05651087,0.20031986,-0.13186553,-0.03743351,-300.53274,1226.1069)"
       cx="-1401.499"
       cy="-1211.7964"
       r="53.8801" />
    <radialGradient
       id="SVGID_40_"
       cx="-1401.499"
       cy="-1211.7964"
       r="53.8801"
       gradientTransform="matrix(-0.2756,0.9504,-0.6431,-0.1776,-962.8631,1318.7604)"
       gradientUnits="userSpaceOnUse">
      <stop
         offset="0"
         style="stop-color:#FFFFFF"
         id="stop3564" />
      <stop
         offset="2.670671e-002"
         style="stop-color:#FFFBE8;stop-opacity:0.9625"
         id="stop3566" />
      <stop
         offset="0.1019"
         style="stop-color:#FFF2B6;stop-opacity:0.8568"
         id="stop3568" />
      <stop
         offset="0.1738"
         style="stop-color:#FFED8C;stop-opacity:0.7558"
         id="stop3570" />
      <stop
         offset="0.2404"
         style="stop-color:#FFE967;stop-opacity:0.6624"
         id="stop3572" />
      <stop
         offset="0.3004"
         style="stop-color:#FFE645;stop-opacity:0.578"
         id="stop3574" />
      <stop
         offset="0.3519"
         style="stop-color:#FFE42C;stop-opacity:0.5057"
         id="stop3576" />
      <stop
         offset="0.3888"
         style="stop-color:#FFE421;stop-opacity:0.4538"
         id="stop3578" />
      <stop
         offset="0.8092"
         style="stop-color:#FFE300;stop-opacity:0"
         id="stop3580" />
    </radialGradient>
    <radialGradient
       inkscape:collect="always"
       xlink:href="#SVGID_39_"
       id="radialGradient3425"
       gradientUnits="userSpaceOnUse"
       gradientTransform="matrix(0.2050467,0,0,0.21077426,-103.10083,948.14622)"
       cx="126.3921"
       cy="63.736801"
       r="210.72701" />
    <radialGradient
       id="SVGID_39_"
       cx="126.3921"
       cy="63.736801"
       r="210.72701"
       gradientUnits="userSpaceOnUse">
      <stop
         offset="0"
         style="stop-color:#ED6624"
         id="stop3557" />
      <stop
         offset="1"
         style="stop-color:#F69622"
         id="stop3559" />
    </radialGradient>
    <radialGradient
       inkscape:collect="always"
       xlink:href="#SVGID_38_"
       id="radialGradient3428"
       gradientUnits="userSpaceOnUse"
       gradientTransform="matrix(0.20496467,-0.00564875,-0.00539273,-0.20670632,-105.47755,1010.0199)"
       cx="263.41211"
       cy="264.25629"
       r="164.4707" />
    <radialGradient
       id="SVGID_38_"
       cx="263.41211"
       cy="264.25629"
       r="164.4707"
       gradientTransform="matrix(0.9996,-0.0268,-0.0263,-0.9807,-11.5911,293.5543)"
       gradientUnits="userSpaceOnUse">
      <stop
         offset="0"
         style="stop-color:#FFE000;stop-opacity:0"
         id="stop3546" />
      <stop
         offset="0.3554"
         style="stop-color:#FED700;stop-opacity:0.5153"
         id="stop3548" />
      <stop
         offset="0.4827"
         style="stop-color:#FED208;stop-opacity:0.7"
         id="stop3550" />
      <stop
         offset="0.8565"
         style="stop-color:#FED208;stop-opacity:0"
         id="stop3552" />
    </radialGradient>
    <radialGradient
       inkscape:collect="always"
       xlink:href="#SVGID_37_"
       id="radialGradient3431"
       gradientUnits="userSpaceOnUse"
       gradientTransform="matrix(0.20223755,-0.03471452,-0.02561033,-0.15761699,-99.893286,995.43579)"
       cx="127.8003"
       cy="34.3428"
       r="87.310997" />
    <radialGradient
       id="SVGID_37_"
       cx="127.8003"
       cy="34.3428"
       r="87.310997"
       gradientTransform="matrix(0.9863,-0.1647,-0.1249,-0.7478,15.643,224.3614)"
       gradientUnits="userSpaceOnUse">
      <stop
         offset="0.5003"
         style="stop-color:#E05A27;stop-opacity:0"
         id="stop3537" />
      <stop
         offset="0.6557"
         style="stop-color:#DD5A26"
         id="stop3539" />
      <stop
         offset="0.8145"
         style="stop-color:#B02228"
         id="stop3541" />
    </radialGradient>
    <linearGradient
       inkscape:collect="always"
       xlink:href="#SVGID_36_"
       id="linearGradient3434"
       gradientUnits="userSpaceOnUse"
       gradientTransform="matrix(0.2050467,0,0,-0.21077426,-107.7216,1008.5209)"
       x1="177.6851"
       y1="169.3364"
       x2="197.8616"
       y2="200.39619" />
    <linearGradient
       id="SVGID_36_"
       gradientUnits="userSpaceOnUse"
       x1="177.6851"
       y1="169.3364"
       x2="197.8616"
       y2="200.39619"
       gradientTransform="matrix(1,0,0,-1,-22.5352,286.4424)">
      <stop
         offset="0"
         style="stop-color:#37383A"
         id="stop3528" />
      <stop
         offset="0.6508"
         style="stop-color:#7B3F3D"
         id="stop3530" />
      <stop
         offset="1"
         style="stop-color:#DD5A26"
         id="stop3532" />
    </linearGradient>
    <radialGradient
       inkscape:collect="always"
       xlink:href="#SVGID_35_"
       id="radialGradient3437"
       gradientUnits="userSpaceOnUse"
       gradientTransform="matrix(0.2050467,0,0,-0.17764055,-107.7216,1000.0024)"
       cx="174.9985"
       cy="30.264601"
       r="95.217201" />
    <radialGradient
       id="SVGID_35_"
       cx="174.9985"
       cy="30.264601"
       r="95.217201"
       gradientTransform="matrix(1,0,0,-0.8428,-22.5352,246.0269)"
       gradientUnits="userSpaceOnUse">
      <stop
         offset="0.5"
         style="stop-color:#E05A27;stop-opacity:0"
         id="stop3519" />
      <stop
         offset="0.75"
         style="stop-color:#DE5926;stop-opacity:0.7747"
         id="stop3521" />
      <stop
         offset="0.95"
         style="stop-color:#B02228"
         id="stop3523" />
    </radialGradient>
    <linearGradient
       inkscape:collect="always"
       xlink:href="#SVGID_33_"
       id="linearGradient3490"
       gradientUnits="userSpaceOnUse"
       gradientTransform="matrix(1,0,0,-1,-22.5352,286.4424)"
       x1="149.1714"
       y1="156.94189"
       x2="176.00079"
       y2="168.7469" />
    <linearGradient
       id="SVGID_33_"
       gradientUnits="userSpaceOnUse"
       x1="149.1714"
       y1="156.94189"
       x2="176.00079"
       y2="168.7469"
       gradientTransform="matrix(1,0,0,-1,-22.5352,286.4424)">
      <stop
         offset="7.460000e-002"
         style="stop-color:#DD5A26"
         id="stop3499" />
      <stop
         offset="0.2983"
         style="stop-color:#E9986D"
         id="stop3501" />
      <stop
         offset="0.6668"
         style="stop-color:#F4D4AC"
         id="stop3503" />
      <stop
         offset="1"
         style="stop-color:#F9F7C9"
         id="stop3505" />
    </linearGradient>
    <linearGradient
       inkscape:collect="always"
       xlink:href="#SVGID_34_"
       id="linearGradient3492"
       gradientUnits="userSpaceOnUse"
       gradientTransform="matrix(1,0,0,-1,-22.5352,286.4424)"
       x1="151.6367"
       y1="153.88429"
       x2="220.8844"
       y2="188.66991" />
    <linearGradient
       id="SVGID_34_"
       gradientUnits="userSpaceOnUse"
       x1="151.6367"
       y1="153.88429"
       x2="220.8844"
       y2="188.66991"
       gradientTransform="matrix(1,0,0,-1,-22.5352,286.4424)">
      <stop
         offset="4.350000e-002"
         style="stop-color:#DD5A26"
         id="stop3510" />
      <stop
         offset="0.2582"
         style="stop-color:#ECA77C"
         id="stop3512" />
      <stop
         offset="1"
         style="stop-color:#F9F7C9"
         id="stop3514" />
    </linearGradient>
    <linearGradient
       inkscape:collect="always"
       xlink:href="#SVGID_32_"
       id="linearGradient3452"
       gradientUnits="userSpaceOnUse"
       gradientTransform="matrix(0.2050467,0,0,-0.21077426,-107.7216,1008.5209)"
       x1="67.7061"
       y1="195.7646"
       x2="47.5672"
       y2="247.3716" />
    <linearGradient
       id="SVGID_32_"
       gradientUnits="userSpaceOnUse"
       x1="67.7061"
       y1="195.7646"
       x2="47.5672"
       y2="247.3716"
       gradientTransform="matrix(1,0,0,-1,-22.5352,286.4424)">
      <stop
         offset="0.1688"
         style="stop-color:#B02228"
         id="stop3486" />
      <stop
         offset="0.4056"
         style="stop-color:#BF3628;stop-opacity:0.7444"
         id="stop3488" />
      <stop
         offset="0.623"
         style="stop-color:#C84228;stop-opacity:0.5097"
         id="stop3490" />
      <stop
         offset="1"
         style="stop-color:#E05A27;stop-opacity:0"
         id="stop3492" />
    </linearGradient>
    <linearGradient
       inkscape:collect="always"
       xlink:href="#SVGID_31_"
       id="linearGradient3455"
       gradientUnits="userSpaceOnUse"
       gradientTransform="matrix(0.20494418,-0.00661831,-0.00643846,-0.21066887,-107.35621,1014.1278)"
       x1="254.7529"
       y1="86.784698"
       x2="232.1376"
       y2="-11.7535" />
    <linearGradient
       id="SVGID_31_"
       gradientUnits="userSpaceOnUse"
       x1="254.7529"
       y1="86.784698"
       x2="232.1376"
       y2="-11.7535"
       gradientTransform="matrix(0.9995,-0.0314,-0.0314,-0.9995,-20.7532,313.0438)">
      <stop
         offset="0"
         style="stop-color:#FFF038"
         id="stop3467" />
      <stop
         offset="2.800000e-003"
         style="stop-color:#FFEC33"
         id="stop3469" />
      <stop
         offset="5.125774e-002"
         style="stop-color:#FFD92F"
         id="stop3471" />
      <stop
         offset="0.136"
         style="stop-color:#FCBC29"
         id="stop3473" />
      <stop
         offset="0.2136"
         style="stop-color:#F9A725"
         id="stop3475" />
      <stop
         offset="0.2807"
         style="stop-color:#F79B23"
         id="stop3477" />
      <stop
         offset="0.3298"
         style="stop-color:#F69622"
         id="stop3479" />
      <stop
         offset="0.8202"
         style="stop-color:#DE5B26;stop-opacity:5.920000e-002"
         id="stop3481" />
    </linearGradient>
    <radialGradient
       inkscape:collect="always"
       xlink:href="#SVGID_30_"
       id="radialGradient3484"
       gradientUnits="userSpaceOnUse"
       gradientTransform="matrix(1,0,0,-1,-22.5352,286.4424)"
       cx="296.0918"
       cy="115.8423"
       r="134.6922" />
    <radialGradient
       id="SVGID_30_"
       cx="296.0918"
       cy="115.8423"
       r="134.6922"
       gradientTransform="matrix(1,0,0,-1,-22.5352,286.4424)"
       gradientUnits="userSpaceOnUse">
      <stop
         offset="8.950000e-002"
         style="stop-color:#FFFFFF"
         id="stop3434" />
      <stop
         offset="0.1064"
         style="stop-color:#FFFEF7"
         id="stop3436" />
      <stop
         offset="0.1301"
         style="stop-color:#FFFBE8"
         id="stop3438" />
      <stop
         offset="0.1579"
         style="stop-color:#FFF7D0"
         id="stop3440" />
      <stop
         offset="0.1886"
         style="stop-color:#FFF2AF"
         id="stop3442" />
      <stop
         offset="0.2219"
         style="stop-color:#FFEC85"
         id="stop3444" />
      <stop
         offset="0.2567"
         style="stop-color:#FFE643"
         id="stop3446" />
      <stop
         offset="0.277"
         style="stop-color:#FFE300"
         id="stop3448" />
      <stop
         offset="0.3194"
         style="stop-color:#FFDB00"
         id="stop3450" />
      <stop
         offset="0.39"
         style="stop-color:#F6C713"
         id="stop3452" />
      <stop
         offset="0.4303"
         style="stop-color:#F0B91C"
         id="stop3454" />
      <stop
         offset="0.5051"
         style="stop-color:#EA9E23"
         id="stop3456" />
      <stop
         offset="0.6316"
         style="stop-color:#E27327"
         id="stop3458" />
      <stop
         offset="0.8006"
         style="stop-color:#DF6427"
         id="stop3460" />
      <stop
         offset="0.9483"
         style="stop-color:#DD5A26"
         id="stop3462" />
    </radialGradient>
    <radialGradient
       inkscape:collect="always"
       xlink:href="#SVGID_29_"
       id="radialGradient3476"
       gradientUnits="userSpaceOnUse"
       gradientTransform="matrix(0.2050467,0,0,-0.21077426,-107.7216,1008.5209)"
       cx="321.4375"
       cy="157.2822"
       r="159.0979" />
    <radialGradient
       id="SVGID_29_"
       cx="321.4375"
       cy="157.2822"
       r="159.0979"
       gradientTransform="matrix(1,0,0,-1,-22.5352,286.4424)"
       gradientUnits="userSpaceOnUse">
      <stop
         offset="8.950000e-002"
         style="stop-color:#FFFFFF"
         id="stop3403" />
      <stop
         offset="0.1151"
         style="stop-color:#FFFEF7"
         id="stop3405" />
      <stop
         offset="0.1509"
         style="stop-color:#FFFBE8"
         id="stop3407" />
      <stop
         offset="0.1928"
         style="stop-color:#FFF7D0"
         id="stop3409" />
      <stop
         offset="0.2392"
         style="stop-color:#FFF2AF"
         id="stop3411" />
      <stop
         offset="0.2894"
         style="stop-color:#FFEC85"
         id="stop3413" />
      <stop
         offset="0.342"
         style="stop-color:#FFE643"
         id="stop3415" />
      <stop
         offset="0.3727"
         style="stop-color:#FFE300"
         id="stop3417" />
      <stop
         offset="0.4184"
         style="stop-color:#FFDB00"
         id="stop3419" />
      <stop
         offset="0.4944"
         style="stop-color:#F6C713"
         id="stop3421" />
      <stop
         offset="0.5378"
         style="stop-color:#F0B91C"
         id="stop3423" />
      <stop
         offset="0.741"
         style="stop-color:#E27327"
         id="stop3425" />
      <stop
         offset="0.9424"
         style="stop-color:#DD5A26"
         id="stop3427" />
    </radialGradient>
    <radialGradient
       inkscape:collect="always"
       xlink:href="#SVGID_28_"
       id="radialGradient3479"
       gradientUnits="userSpaceOnUse"
       gradientTransform="matrix(0.2050467,0,0,-0.21077426,-107.7216,1008.5209)"
       cx="304.44431"
       cy="146.6909"
       r="87.662003" />
    <radialGradient
       id="SVGID_28_"
       cx="304.44431"
       cy="146.6909"
       r="87.662003"
       gradientTransform="matrix(1,0,0,-1,-22.5352,286.4424)"
       gradientUnits="userSpaceOnUse">
      <stop
         offset="8.950000e-002"
         style="stop-color:#FFFFFF"
         id="stop3376" />
      <stop
         offset="0.1151"
         style="stop-color:#FFFEF7"
         id="stop3378" />
      <stop
         offset="0.1509"
         style="stop-color:#FFFBE8"
         id="stop3380" />
      <stop
         offset="0.1928"
         style="stop-color:#FFF7D0"
         id="stop3382" />
      <stop
         offset="0.2392"
         style="stop-color:#FFF2AF"
         id="stop3384" />
      <stop
         offset="0.2894"
         style="stop-color:#FFEC85"
         id="stop3386" />
      <stop
         offset="0.342"
         style="stop-color:#FFE643"
         id="stop3388" />
      <stop
         offset="0.3727"
         style="stop-color:#FFE300"
         id="stop3390" />
      <stop
         offset="0.4184"
         style="stop-color:#FFDB00"
         id="stop3392" />
      <stop
         offset="0.4944"
         style="stop-color:#F6C713"
         id="stop3394" />
      <stop
         offset="0.5378"
         style="stop-color:#F0B91C"
         id="stop3396" />
      <stop
         offset="1"
         style="stop-color:#E36024"
         id="stop3398" />
    </radialGradient>
    <radialGradient
       inkscape:collect="always"
       xlink:href="#SVGID_27_"
       id="radialGradient3478"
       gradientUnits="userSpaceOnUse"
       gradientTransform="matrix(1,0,0,-1,-22.5352,286.4424)"
       cx="368.27249"
       cy="228.6978"
       r="215.60429" />
    <radialGradient
       id="SVGID_27_"
       cx="368.27249"
       cy="228.6978"
       r="215.60429"
       gradientTransform="matrix(1,0,0,-1,-22.5352,286.4424)"
       gradientUnits="userSpaceOnUse">
      <stop
         offset="0.3064"
         style="stop-color:#FFE300"
         id="stop3365" />
      <stop
         offset="0.482"
         style="stop-color:#F8C91E"
         id="stop3367" />
      <stop
         offset="0.8355"
         style="stop-color:#E36024"
         id="stop3369" />
      <stop
         offset="1"
         style="stop-color:#E36024"
         id="stop3371" />
    </radialGradient>
    <radialGradient
       inkscape:collect="always"
       xlink:href="#SVGID_26_"
       id="radialGradient3489"
       gradientUnits="userSpaceOnUse"
       gradientTransform="matrix(0.2050467,0,0,-0.21077426,-107.7216,1008.5209)"
       cx="243.2402"
       cy="127.7866"
       r="178.2486" />
    <radialGradient
       id="SVGID_26_"
       cx="243.2402"
       cy="127.7866"
       r="178.2486"
       gradientTransform="matrix(1,0,0,-1,-22.5352,286.4424)"
       gradientUnits="userSpaceOnUse">
      <stop
         offset="0.4632"
         style="stop-color:#F0B91C"
         id="stop3350" />
      <stop
         offset="0.722"
         style="stop-color:#E36024"
         id="stop3352" />
      <stop
         offset="0.7821"
         style="stop-color:#DB5825"
         id="stop3354" />
      <stop
         offset="0.8762"
         style="stop-color:#C74127"
         id="stop3356" />
      <stop
         offset="0.9698"
         style="stop-color:#B02228"
         id="stop3358" />
    </radialGradient>
    <radialGradient
       inkscape:collect="always"
       xlink:href="#SVGID_25_"
       id="radialGradient3492"
       gradientUnits="userSpaceOnUse"
       gradientTransform="matrix(0.19559404,-0.06026036,-0.02833745,-0.08820903,-96.270951,968.14942)"
       cx="111.9854"
       cy="-77.954597"
       r="66.229103" />
    <radialGradient
       id="SVGID_25_"
       cx="111.9854"
       cy="-77.954597"
       r="66.229103"
       gradientTransform="matrix(0.9539,-0.2859,-0.1382,-0.4185,33.3089,94.9034)"
       gradientUnits="userSpaceOnUse">
      <stop
         offset="0"
         style="stop-color:#E05A27;stop-opacity:0"
         id="stop3341" />
      <stop
         offset="0.446"
         style="stop-color:#DD5A26;stop-opacity:0.8"
         id="stop3343" />
      <stop
         offset="0.7224"
         style="stop-color:#B02228"
         id="stop3345" />
    </radialGradient>
    <radialGradient
       inkscape:collect="always"
       xlink:href="#SVGID_24_"
       id="radialGradient3495"
       gradientUnits="userSpaceOnUse"
       gradientTransform="matrix(0.2050467,0,0,-0.13209223,-107.7216,978.94776)"
       cx="179.4165"
       cy="84.111801"
       r="78.672302" />
    <radialGradient
       id="SVGID_24_"
       cx="179.4165"
       cy="84.111801"
       r="78.672302"
       gradientTransform="matrix(1,0,0,-0.6267,-22.5352,146.1352)"
       gradientUnits="userSpaceOnUse">
      <stop
         offset="0"
         style="stop-color:#E05A27;stop-opacity:0.1"
         id="stop3332" />
      <stop
         offset="0.3058"
         style="stop-color:#DE5926;stop-opacity:0.845"
         id="stop3334" />
      <stop
         offset="0.5559"
         style="stop-color:#B02228"
         id="stop3336" />
    </radialGradient>
    <radialGradient
       inkscape:collect="always"
       xlink:href="#SVGID_23_"
       id="radialGradient3469"
       gradientUnits="userSpaceOnUse"
       gradientTransform="matrix(0.1084492,-0.17551172,-0.17207519,-0.10814827,-69.303518,1041.8406)"
       cx="246.6787"
       cy="84.769501"
       r="244.5468" />
    <radialGradient
       id="SVGID_23_"
       cx="246.6787"
       cy="84.769501"
       r="244.5468"
       gradientTransform="matrix(0.5289,-0.8327,-0.8392,-0.5131,164.8274,444.5247)"
       gradientUnits="userSpaceOnUse">
      <stop
         offset="0.7099"
         style="stop-color:#ED6624;stop-opacity:0"
         id="stop3315" />
      <stop
         offset="0.8351"
         style="stop-color:#ED6824;stop-opacity:0.4893"
         id="stop3317" />
      <stop
         offset="0.8801"
         style="stop-color:#EE6D24;stop-opacity:0.6655"
         id="stop3319" />
      <stop
         offset="0.9123"
         style="stop-color:#EF7624;stop-opacity:0.7911"
         id="stop3321" />
      <stop
         offset="0.9382"
         style="stop-color:#F28223;stop-opacity:0.8926"
         id="stop3323" />
      <stop
         offset="0.9602"
         style="stop-color:#F59123;stop-opacity:0.9786"
         id="stop3325" />
      <stop
         offset="0.9657"
         style="stop-color:#F69622"
         id="stop3327" />
    </radialGradient>
    <radialGradient
       inkscape:collect="always"
       xlink:href="#SVGID_22_"
       id="radialGradient3467"
       gradientUnits="userSpaceOnUse"
       gradientTransform="matrix(0.2050467,0,0,-0.2056946,-107.7216,1006.728)"
       cx="224.4688"
       cy="165.92191"
       r="239.543" />
    <radialGradient
       id="SVGID_22_"
       cx="224.4688"
       cy="165.92191"
       r="239.543"
       gradientTransform="matrix(1,0,0,-0.9759,-22.5352,277.9357)"
       gradientUnits="userSpaceOnUse">
      <stop
         offset="0.656"
         style="stop-color:#B02228;stop-opacity:0"
         id="stop3304" />
      <stop
         offset="0.8716"
         style="stop-color:#B02127;stop-opacity:0.6581"
         id="stop3306" />
      <stop
         offset="0.9728"
         style="stop-color:#B21F24;stop-opacity:0.9669"
         id="stop3308" />
      <stop
         offset="0.9837"
         style="stop-color:#B21F24"
         id="stop3310" />
    </radialGradient>
    <radialGradient
       inkscape:collect="always"
       xlink:href="#SVGID_21_"
       id="radialGradient3465"
       gradientUnits="userSpaceOnUse"
       gradientTransform="matrix(0.2050467,0,0,-0.20679062,-107.7216,1006.9089)"
       cx="278.95999"
       cy="216.9194"
       r="322.2244" />
    <radialGradient
       id="SVGID_21_"
       cx="278.95999"
       cy="216.9194"
       r="322.2244"
       gradientTransform="matrix(1,0,0,-0.9811,-22.5352,278.7942)"
       gradientUnits="userSpaceOnUse">
      <stop
         offset="0.119"
         style="stop-color:#FFFFFF"
         id="stop3279" />
      <stop
         offset="0.1221"
         style="stop-color:#FFFFFA"
         id="stop3281" />
      <stop
         offset="0.2502"
         style="stop-color:#FFE560"
         id="stop3283" />
      <stop
         offset="0.2866"
         style="stop-color:#FFDF56"
         id="stop3285" />
      <stop
         offset="0.3468"
         style="stop-color:#F8D03B"
         id="stop3287" />
      <stop
         offset="0.4061"
         style="stop-color:#F0BE1B"
         id="stop3289" />
      <stop
         offset="0.4726"
         style="stop-color:#EB9D23"
         id="stop3291" />
      <stop
         offset="0.5478"
         style="stop-color:#E57C27"
         id="stop3293" />
      <stop
         offset="0.7647"
         style="stop-color:#DD5626"
         id="stop3295" />
      <stop
         offset="0.903"
         style="stop-color:#C33A28"
         id="stop3297" />
      <stop
         offset="1"
         style="stop-color:#B02228"
         id="stop3299" />
    </radialGradient>
    <linearGradient
       inkscape:collect="always"
       xlink:href="#SVGID_14_"
       id="linearGradient3463"
       gradientUnits="userSpaceOnUse"
       gradientTransform="matrix(0.2050467,0,0,-0.21077426,-107.7216,1008.5209)"
       x1="178.0381"
       y1="119.4014"
       x2="257.41061"
       y2="10.5182" />
    <linearGradient
       id="SVGID_14_"
       gradientUnits="userSpaceOnUse"
       x1="178.0381"
       y1="119.4014"
       x2="257.41061"
       y2="10.5182"
       gradientTransform="matrix(1,0,0,-1,-22.5352,286.4424)">
      <stop
         offset="0"
         style="stop-color:#1D406F"
         id="stop3226" />
      <stop
         offset="1"
         style="stop-color:#141728"
         id="stop3228" />
    </linearGradient>
    <radialGradient
       inkscape:collect="always"
       xlink:href="#SVGID_10_"
       id="radialGradient3459"
       gradientUnits="userSpaceOnUse"
       gradientTransform="matrix(0.2050467,0,0,-0.21077426,-107.7216,1008.5209)"
       cx="348.78909"
       cy="191.8696"
       r="37.114899" />
    <radialGradient
       id="SVGID_10_"
       cx="348.78909"
       cy="191.8696"
       r="37.114899"
       gradientTransform="matrix(1,0,0,-1,-22.5352,286.4424)"
       gradientUnits="userSpaceOnUse">
      <stop
         offset="0"
         style="stop-color:#941F21"
         id="stop3180" />
      <stop
         offset="0.6383"
         style="stop-color:#C13F28"
         id="stop3182" />
      <stop
         offset="1"
         style="stop-color:#DC5726"
         id="stop3184" />
    </radialGradient>
    <radialGradient
       inkscape:collect="always"
       xlink:href="#SVGID_9_"
       id="radialGradient3457"
       gradientUnits="userSpaceOnUse"
       gradientTransform="matrix(0.2050467,0,0,-0.21077426,-107.7216,1008.5209)"
       cx="357.6279"
       cy="121.2026"
       r="29.700199" />
    <radialGradient
       id="SVGID_9_"
       cx="357.6279"
       cy="121.2026"
       r="29.700199"
       gradientTransform="matrix(1,0,0,-1,-22.5352,286.4424)"
       gradientUnits="userSpaceOnUse">
      <stop
         offset="0.1255"
         style="stop-color:#941F21"
         id="stop3169" />
      <stop
         offset="0.3432"
         style="stop-color:#9E2922"
         id="stop3171" />
      <stop
         offset="0.73"
         style="stop-color:#C24028"
         id="stop3173" />
      <stop
         offset="1"
         style="stop-color:#DC5726"
         id="stop3175" />
    </radialGradient>
    <radialGradient
       inkscape:collect="always"
       xlink:href="#SVGID_8_"
       id="radialGradient3455"
       gradientUnits="userSpaceOnUse"
       gradientTransform="matrix(0.2050467,0,0,-0.21077426,-107.7216,1008.5209)"
       cx="341.5293"
       cy="24.653299"
       r="32.879902" />
    <radialGradient
       id="SVGID_8_"
       cx="341.5293"
       cy="24.653299"
       r="32.879902"
       gradientTransform="matrix(1,0,0,-1,-22.5352,286.4424)"
       gradientUnits="userSpaceOnUse">
      <stop
         offset="0.1255"
         style="stop-color:#941F21"
         id="stop3158" />
      <stop
         offset="0.3432"
         style="stop-color:#9E2922"
         id="stop3160" />
      <stop
         offset="0.73"
         style="stop-color:#C24028"
         id="stop3162" />
      <stop
         offset="1"
         style="stop-color:#DC5726"
         id="stop3164" />
    </radialGradient>
    <radialGradient
       inkscape:collect="always"
       xlink:href="#SVGID_7_"
       id="radialGradient3453"
       gradientUnits="userSpaceOnUse"
       gradientTransform="matrix(0.2050467,0,0,-0.21077426,-107.7216,1008.5209)"
       cx="284.0137"
       cy="-32.0718"
       r="29.7017" />
    <radialGradient
       id="SVGID_7_"
       cx="284.0137"
       cy="-32.0718"
       r="29.7017"
       gradientTransform="matrix(1,0,0,-1,-22.5352,286.4424)"
       gradientUnits="userSpaceOnUse">
      <stop
         offset="0"
         style="stop-color:#431413"
         id="stop3139" />
      <stop
         offset="0.1638"
         style="stop-color:#631E1C"
         id="stop3141" />
      <stop
         offset="0.3317"
         style="stop-color:#832320"
         id="stop3143" />
      <stop
         offset="0.4843"
         style="stop-color:#9C2222"
         id="stop3145" />
      <stop
         offset="0.615"
         style="stop-color:#AC2023"
         id="stop3147" />
      <stop
         offset="0.7084"
         style="stop-color:#B21F24"
         id="stop3149" />
      <stop
         offset="0.9992"
         style="stop-color:#AA1F24"
         id="stop3151" />
      <stop
         offset="1"
         style="stop-color:#A91F24"
         id="stop3153" />
    </radialGradient>
    <radialGradient
       inkscape:collect="always"
       xlink:href="#SVGID_6_"
       id="radialGradient3451"
       gradientUnits="userSpaceOnUse"
       gradientTransform="matrix(0.2050467,0,0,-0.21077426,-107.7216,1008.5209)"
       cx="326.79391"
       cy="211.0708"
       r="33.394699" />
    <radialGradient
       id="SVGID_6_"
       cx="326.79391"
       cy="211.0708"
       r="33.394699"
       gradientTransform="matrix(1,0,0,-1,-22.5352,286.4424)"
       gradientUnits="userSpaceOnUse">
      <stop
         offset="0.1255"
         style="stop-color:#941F21"
         id="stop3128" />
      <stop
         offset="0.3432"
         style="stop-color:#9E2922"
         id="stop3130" />
      <stop
         offset="0.73"
         style="stop-color:#C24028"
         id="stop3132" />
      <stop
         offset="1"
         style="stop-color:#DC5726"
         id="stop3134" />
    </radialGradient>
    <radialGradient
       inkscape:collect="always"
       xlink:href="#SVGID_5_"
       id="radialGradient3449"
       gradientUnits="userSpaceOnUse"
       gradientTransform="matrix(0.2050467,0,0,-0.21077426,-107.7216,1008.5209)"
       cx="302.55179"
       cy="260.37061"
       r="63.9286" />
    <radialGradient
       id="SVGID_5_"
       cx="302.55179"
       cy="260.37061"
       r="63.9286"
       gradientTransform="matrix(1,0,0,-1,-22.5352,286.4424)"
       gradientUnits="userSpaceOnUse">
      <stop
         offset="0.2571"
         style="stop-color:#FFE300"
         id="stop3113" />
      <stop
         offset="0.3355"
         style="stop-color:#FCD800"
         id="stop3115" />
      <stop
         offset="0.4695"
         style="stop-color:#F8C91E"
         id="stop3117" />
      <stop
         offset="0.6431"
         style="stop-color:#EDA524"
         id="stop3119" />
      <stop
         offset="0.8469"
         style="stop-color:#E37B28"
         id="stop3121" />
      <stop
         offset="1"
         style="stop-color:#DD5A26"
         id="stop3123" />
    </radialGradient>
    <linearGradient
       inkscape:collect="always"
       xlink:href="#SVGID_4_"
       id="linearGradient3447"
       gradientUnits="userSpaceOnUse"
       gradientTransform="matrix(0.20293471,-0.01688302,-0.01945893,-0.24717497,-100.03629,1023.2538)"
       x1="42.538601"
       y1="211.63721"
       x2="-12.3972"
       y2="122.1703" />
    <linearGradient
       id="SVGID_4_"
       gradientUnits="userSpaceOnUse"
       x1="42.538601"
       y1="211.63721"
       x2="-12.3972"
       y2="122.1703"
       gradientTransform="matrix(0.9897,-0.0801,-0.0949,-1.1727,14.9456,356.3413)">
      <stop
         offset="5.620000e-002"
         style="stop-color:#DC7327"
         id="stop3106" />
      <stop
         offset="1"
         style="stop-color:#EDBD6B"
         id="stop3108" />
    </linearGradient>
    <linearGradient
       inkscape:collect="always"
       xlink:href="#SVGID_3_"
       id="linearGradient3445"
       gradientUnits="userSpaceOnUse"
       gradientTransform="matrix(0.19834167,0.05347343,0.05202035,-0.20388194,-351.19184,1186.0534)"
       x1="943.24609"
       y1="1295.5269"
       x2="943.24609"
       y2="1133.048" />
    <linearGradient
       id="SVGID_3_"
       gradientUnits="userSpaceOnUse"
       x1="943.24609"
       y1="1295.5269"
       x2="943.24609"
       y2="1133.048"
       gradientTransform="matrix(0.9673,0.2537,0.2537,-0.9673,-1209.9244,1128.7295)">
      <stop
         offset="5.620000e-002"
         style="stop-color:#DC7327"
         id="stop3099" />
      <stop
         offset="1"
         style="stop-color:#EEBC89"
         id="stop3101" />
    </linearGradient>
    <linearGradient
       id="SVGID_2_"
       gradientUnits="userSpaceOnUse"
       x1="68.246101"
       y1="197.6797"
       x2="52.6936"
       y2="237.53371"
       gradientTransform="matrix(1,0,0,-1,-22.5352,286.4424)">
      <stop
         offset="1.120000e-002"
         style="stop-color:#941F21"
         id="stop3090" />
      <stop
         offset="0.4719"
         style="stop-color:#E36126"
         id="stop3092" />
      <stop
         offset="1"
         style="stop-color:#F0BB62"
         id="stop3094" />
    </linearGradient>
    <linearGradient
       y2="237.53371"
       x2="52.6936"
       y1="197.6797"
       x1="68.246101"
       gradientTransform="matrix(0.2050467,0,0,-0.21077426,-107.7216,1008.5209)"
       gradientUnits="userSpaceOnUse"
       id="linearGradient3888"
       xlink:href="#SVGID_2_"
       inkscape:collect="always" />
    <radialGradient
       inkscape:collect="always"
       xlink:href="#SVGID_11_"
       id="radialGradient5271"
       cx="42.139832"
       cy="972.21344"
       fx="42.139832"
       fy="972.21344"
       r="46.5"
       gradientTransform="matrix(1.3978494,-2.4024201e-7,2.3824137e-7,1.4019796,-13.905371,-395.66117)"
       gradientUnits="userSpaceOnUse" />
    <radialGradient
       id="SVGID_11_"
       cx="188.16161"
       cy="267.0405"
       r="328.84091"
       gradientTransform="matrix(0.9408,0,0,-0.8863,-1.4635,258.6756)"
       gradientUnits="userSpaceOnUse">
      <stop
         offset="0"
         style="stop-color:#f152d0;stop-opacity:1;"
         id="stop3189" />
      <stop
         offset="0.0768611"
         style="stop-color:#ec45c4;stop-opacity:1;"
         id="stop3191" />
      <stop
         offset="0.1822"
         style="stop-color:#dc00b0;stop-opacity:1;"
         id="stop3193" />
      <stop
         offset="0.3757"
         style="stop-color:#b82291;stop-opacity:1;"
         id="stop3195" />
      <stop
         offset="0.5011"
         style="stop-color:#950373;stop-opacity:1;"
         id="stop3197" />
      <stop
         offset="0.74949998"
         style="stop-color:#4e1d39;stop-opacity:1;"
         id="stop3199" />
    </radialGradient>
    <radialGradient
       r="328.84091"
       cy="267.0405"
       cx="188.16161"
       gradientTransform="matrix(0.19290793,0,0,-0.18680922,-103.40092,992.66839)"
       gradientUnits="userSpaceOnUse"
       id="radialGradient3538"
       xlink:href="#SVGID_11_"
       inkscape:collect="always" />
  </defs>
  <sodipodi:namedview
     id="base"
     pagecolor="#ffffff"
     bordercolor="#666666"
     borderopacity="1.0"
     inkscape:pageopacity="0.0"
     inkscape:pageshadow="2"
     inkscape:zoom="4.0507799"
     inkscape:cx="2.4050197"
     inkscape:cy="63.332823"
     inkscape:document-units="px"
     inkscape:current-layer="layer1"
     showgrid="true"
     inkscape:snap-page="true"
     inkscape:snap-global="true"
     inkscape:snap-center="true"
     inkscape:snap-object-midpoints="false"
     showguides="true"
     inkscape:guide-bbox="true"
     inkscape:snap-bbox="true"
     inkscape:object-paths="false"
     inkscape:object-nodes="true"
     inkscape:window-width="1305"
     inkscape:window-height="744"
     inkscape:window-x="61"
     inkscape:window-y="24"
     inkscape:window-maximized="1"
     inkscape:snap-midpoints="false"
     inkscape:snap-grids="true"
     inkscape:snap-to-guides="false">
    <inkscape:grid
       type="xygrid"
       id="grid3002"
       empspacing="5"
       visible="true"
       enabled="true"
       snapvisiblegridlinesonly="true" />
  </sodipodi:namedview>
  <metadata
     id="metadata7">
    <rdf:RDF>
      <cc:Work
         rdf:about="">
        <dc:format>image/svg+xml</dc:format>
        <dc:type
           rdf:resource="http://purl.org/dc/dcmitype/StillImage" />
        <dc:title />
      </cc:Work>
    </rdf:RDF>
  </metadata>
  <g
     inkscape:label="Layer 1"
     inkscape:groupmode="layer"
     id="layer1"
     transform="translate(0,-956.36218)">
    <rect
       style="fill:#ffffff;fill-opacity:0;fill-rule:nonzero;stroke:none"
       id="rect3775"
       width="96"
       height="96"
       x="0"
       y="956.36218"
       ry="0" />
    <path
       style="fill:#000000;fill-opacity:0.09589041;fill-rule:nonzero;stroke:none"
       d="m 3.353015,956.30662 c -1.884176,0 -3.4111555,1.43156 -3.4111555,3.19799 l 0,83.65949 c 0,1.7665 1.5269795,3.1981 3.4111555,3.1981 l 89.23583,0 c 1.884174,0 3.411155,-1.4316 3.411155,-3.1981 l 0,-83.65949 c 0,-1.76643 -1.526981,-3.19799 -3.411155,-3.19799 z"
       id="rect3772"
       inkscape:connector-curvature="0"
       sodipodi:nodetypes="sssssssss" />
    <path
       style="fill:#000000;fill-opacity:0.18721463;fill-rule:nonzero;stroke:none"
       d="m 1.0459761,1041.8066 0,7.4219 c 0,1.7392 1.461916,3.1337 3.2852054,3.1337 l 86.3836135,0 c 1.823288,0 3.285205,-1.3945 3.285205,-3.1337 l 0,-7.4219 -92.9540239,0 z"
       id="rect3785"
       inkscape:connector-curvature="0" />
    <path
       style="fill:#000000;fill-opacity:0.38356168;fill-rule:nonzero;stroke:none"
       d="m 1.0459761,1041.8066 0,5.3807 c 0,1.762 1.461916,3.1749 3.2852054,3.1749 l 86.3836135,0 c 1.823288,0 3.285205,-1.4129 3.285205,-3.1749 l 0,-5.3807 -92.9540239,0 z"
       id="rect3783"
       inkscape:connector-curvature="0" />
    <rect
       style="fill:url(#radialGradient5271);fill-opacity:1.0;fill-rule:nonzero;stroke:none"
       id="rect2985-2"
       width="93"
       height="88.999962"
       x="0.9999969"
       y="957.36224"
       ry="3.1511383" />
    <g
       id="g4466"
       transform="matrix(1.2841121,0.09997976,-0.09749446,1.3043677,229.2461,-279.29154)">
      <path
         id="path3096"
         d="m -93.504646,959.14864 c -0.08202,-0.12646 -0.08202,0.31616 -0.164037,0.16862 -0.553626,-1.01172 -1.00473,-2.74007 -1.066244,-3.96256 0,0 -0.902204,0.52694 -1.476335,2.4239 -0.102524,0.33725 -0.184542,0.52694 -0.246056,0.71664 -0.02051,0.0632 0.04101,-0.61125 0.02051,-0.54802 -0.102523,0.23186 -0.430598,0.61125 -0.533121,1.0328 -0.08202,0.33724 -0.205047,0.52693 -0.266561,0.94848 -0.02051,0.12646 -0.02051,-0.50586 -0.04101,-0.40047 -0.758673,2.06559 -1.373813,4.97428 -1.025234,8.91575 3.424279,-3.16161 8.283886,-5.54336 8.283886,-5.54336 -0.553626,-0.35831 -2.276018,-1.74943 -3.485794,-3.75178 z"
         inkscape:connector-curvature="0"
         style="fill:url(#linearGradient3888)" />
      <path
         id="path3103"
         d="m -102.48569,991.03878 c 0.041,-0.5902 1.43533,-12.51999 6.807549,-16.54578 4.634055,-3.47777 1.025233,-2.21313 -0.758673,-2.06558 -1.886429,0.14753 -2.891158,1.32787 -2.522074,0.90633 0.02051,-0.021 0.02051,-0.021 0.02051,-0.0422 -0.06151,-0.0843 -4.429012,3.68855 -3.547312,17.74723 z"
         inkscape:connector-curvature="0"
         style="fill:url(#linearGradient3445)" />
      <path
         id="path3110"
         d="m -103.10083,981.72258 c 0,0 3.157718,-10.32796 9.555175,-10.22257 4.244466,0.0632 0.8817,-3.68855 -0.410094,-4.25764 -1.332804,-0.59017 -1.660878,-0.56909 -1.968448,-0.27401 -0.471607,0.42156 -4.675063,0.25293 -7.176633,14.75422 z"
         inkscape:connector-curvature="0"
         style="fill:url(#linearGradient3447)" />
      <path
         id="path3125"
         d="m -44.51899,955.71301 c 0,0 3.014186,1.4965 4.96213,4.70028 1.599364,2.6136 0.840691,6.13353 -0.594636,5.52228 -1.414822,-0.61125 -4.367494,-10.22256 -4.367494,-10.22256 z"
         inkscape:connector-curvature="0"
         style="fill:url(#radialGradient3449)" />
      <path
         id="path3136"
         d="m -39.331309,966.27281 c 0.840691,-6.63939 -5.208186,-10.58087 -5.208186,-10.58087 0,0 0.389588,2.27636 0.861196,7.33495 0.574131,5.79628 3.957401,6.36537 4.34699,3.24592 z"
         inkscape:connector-curvature="0"
         style="fill:url(#radialGradient3451)" />
      <path
         id="path3155"
         d="m -59.589923,1017.512 c 10.928989,2.3818 19.192371,-7.1031 13.287027,-9.3794 -5.35172,-2.0656 -18.474708,8.2412 -13.287027,9.3794 z"
         inkscape:connector-curvature="0"
         style="fill:url(#radialGradient3453)" />
      <path
         id="path3166"
         d="m -45.339177,1008.4277 c 10.908484,-2.445 14.640333,-14.58561 8.365905,-14.16411 -5.700298,0.3794 -13.533082,15.32331 -8.365905,14.16411 z"
         inkscape:connector-curvature="0"
         style="fill:url(#radialGradient3455)" />
      <path
         id="path3177"
         d="m -35.660973,989.54228 c 7.156129,-5.3115 3.752354,-14.75419 3.752354,-14.75419 0,0 -1.578859,4.86889 -3.014186,10.60199 -1.414822,5.7119 -5.023644,7.33491 -0.738168,4.1522 z"
         inkscape:connector-curvature="0"
         style="fill:url(#radialGradient3457)" />
      <path
         id="path3186"
         d="m -33.528487,973.03866 c -0.758673,-9.10544 -6.253925,-13.82679 -6.253925,-13.82679 0,0 0.553626,3.09838 1.291794,7.33495 0.984225,5.79629 5.413233,11.90874 4.962131,6.49184 z"
         inkscape:connector-curvature="0"
         style="fill:url(#radialGradient3459)" />
      <path
         id="path3230"
         d="m -66.684538,991.37598 c -0.205047,0.2108 0.02051,0.82201 0.287065,0.80101 0.266561,-0.021 0.656149,-0.1476 0.656149,-0.1476 0,0 0.205047,0.4005 0,0.527 -0.205046,0.1053 -0.779176,0.063 -0.02051,0.3583 0.779177,0.2951 0.984224,0.2108 1.025233,0.063 0.06151,-0.1476 0.307571,-0.6533 0.451103,-0.6112 0.123028,-0.2529 -0.410093,-0.50581 -0.123027,-0.67451 0.287064,-0.1686 0.06151,-0.822 0.06151,-0.822 0,0 -0.410093,0.022 -0.574131,0.3162 -0.164036,0.295 -0.410093,-0.021 -0.57413,-0.021 -0.02051,0.1686 -0.143533,0.3162 -0.143533,0.3162 l -0.123028,-0.274 c 0.02051,-0.021 -0.779177,-0.042 -0.92271,0.1686 z"
         inkscape:connector-curvature="0"
         style="fill:url(#linearGradient3463)" />
      <path
         id="path3301"
         d="m -40.889663,1004.971 c 1.988952,-3.8361 4.675064,-6.09141 6.130895,-8.74711 1.92744,-3.541 5.597775,-13.46851 2.829644,-21.49903 1.27129,5.01642 0.861197,10.11712 -3.157718,12.68862 1.312298,-3.5411 2.111981,-11.29751 0.779177,-18.29522 -0.881701,-4.55272 -3.649831,-8.62066 -5.433737,-9.88532 1.660877,1.28573 2.993681,5.85954 2.952672,7.96728 -3.465289,-6.00707 -9.145083,-11.76121 -17.716034,-14.18511 6.664017,4.51057 9.145082,8.34666 10.703437,11.76121 -1.783907,-1.8759 -4.818597,-3.81503 -6.889569,-3.98364 3.0757,2.36067 8.242877,9.35837 7.689251,19.9603 -0.799682,-1.70725 -2.235009,-4.38409 -3.260243,-5.31149 1.107253,10.41229 0.143533,12.64649 -0.533121,15.40759 -0.143533,-1.2646 -0.594635,-2.2342 -0.840691,-2.8033 0,0 -0.123028,3.246 -2.173495,7.88291 -1.558355,3.52 -3.15772,4.59491 -3.875383,4.46851 -0.184542,-0.021 -0.287065,-0.1054 -0.287065,-0.1054 0.04101,-0.46371 0.102523,-0.92741 -0.02051,-1.24351 0,0 -0.656149,0.2318 -1.086747,0.843 -0.164037,0.25301 -0.389589,0.48481 -0.676654,0.71671 -0.04101,0.042 0.471607,-0.67451 0.430598,-0.65351 -0.246057,0.21081 -0.533121,0.46381 -0.799683,0.75891 -1.004728,1.0749 -1.927438,2.2763 -2.399045,1.939 0.430597,-0.1475 0.799682,-0.7166 0.8817,-1.2857 -0.389589,0.2951 -1.394317,1.0539 -3.649831,1.4123 -0.92271,0.1474 -4.839102,0.8852 -10.067793,-1.8127 0.758673,-0.085 1.906934,-0.3583 2.768131,0.1686 -0.861197,-0.9696 -2.973178,-0.7799 -4.470019,-1.26471 -1.312299,-0.4215 -3.014186,-2.3184 -3.99841,-3.267 4.018915,1.0118 8.283887,0.2741 10.744447,-1.4543 2.50157,-1.7495 3.977905,-3.0351 5.290205,-2.719 1.312299,0.2951 2.193999,-1.05391 1.168766,-2.27631 -1.025234,-1.2225 -3.526803,-2.8455 -6.910074,-1.9814 -2.604093,0.6745 -4.798093,2.8034 -8.447923,1.3279 -0.225552,-0.085 -0.451104,-0.1897 -0.676654,-0.3161 -0.225552,-0.1264 0.758672,0.1476 0.512616,0 -0.697159,-0.274 -1.968448,-0.8642 -2.296523,-1.096 -0.06151,-0.042 0.533121,0.1054 0.471608,0.063 -3.465289,-2.1078 -3.239739,-3.7939 -3.239739,-4.8267 0,-0.8431 0.492113,-1.9602 1.414823,-2.4871 0.492112,0.1896 0.799682,0.3583 0.799682,0.3583 0,0 -0.225552,-0.3583 -0.369084,-0.5481 0.04101,-0.021 0.06151,-0.021 0.102523,-0.042 0.410094,0.1475 1.332803,0.4848 1.783907,0.7377 0.635644,0.3162 0.840691,0.6534 0.840691,0.6534 0,0 0.143532,-0.1054 0,-0.4216 -0.06151,-0.1475 -0.287065,-0.548 -0.902205,-0.9274 0.02051,0 0.02051,0 0.02051,0 0.328074,0.1266 0.676654,0.2951 1.045738,0.5269 0.123028,-0.569 0.34858,-1.1592 0.205047,-2.19198 -0.123028,-0.7377 -0.102524,-0.90633 -0.266561,-1.18033 -0.143533,-0.23186 0.04101,-0.31616 0.266561,-0.12646 -0.06151,-0.1897 -0.143533,-0.35832 -0.225552,-0.54802 0,0 0,0 0,0 0.184543,-0.90633 5.392728,-3.70963 5.782318,-4.00471 0.533121,-0.40047 1.086747,-1.03279 1.435326,-1.7705 0.246056,-0.46371 0.430598,-1.11711 0.389589,-2.08667 -0.04101,-0.69556 -0.430598,-1.1171 -5.987363,-1.05387 -1.517346,0.021 -2.501571,-0.88525 -3.096206,-1.74943 -0.123027,-0.18969 -0.225551,-0.35831 -0.328074,-0.52694 -0.123029,-0.23184 -0.225552,-0.46369 -0.287066,-0.63232 0.656149,-2.46605 1.988953,-4.61595 4.059924,-6.36538 0.123029,-0.10538 -0.492111,0.0632 -0.369083,-0.0422 0.143533,-0.12646 1.025233,-0.56909 1.18927,-0.6534 0.205047,-0.12647 -0.963719,-0.44263 -1.947943,-0.23186 -1.004729,0.21078 -1.189271,0.33724 -1.722393,0.61125 0.205047,-0.23185 0.881701,-0.56909 0.717664,-0.54802 -1.086747,0.25294 -2.378542,0.99065 -3.465289,1.77051 0,-0.10539 0,-0.18969 0.02051,-0.33724 -0.512616,0.27401 -1.763401,1.26465 -2.070972,2.00236 0,-0.16862 0,-0.25293 -0.02051,-0.42155 -0.34858,0.33724 -0.697159,0.73771 -1.00473,1.15926 0,0 0,0.021 -0.02051,0.021 -3.239738,-0.82202 -5.987364,-0.63232 -8.304391,0.12646 -0.553627,-0.40047 -1.435327,-1.03279 -2.829644,-3.24592 -0.08202,-0.12646 -0.08202,0.29508 -0.164038,0.16862 -0.553626,-1.01172 -1.004728,-2.74007 -1.066242,-3.96256 0,0 -0.902206,0.52694 -1.476337,2.4239 -0.102523,0.33725 -0.184542,0.52694 -0.246056,0.71664 -0.02051,0.0632 0.04101,-0.61125 0.02051,-0.54802 -0.102523,0.23186 -0.430597,0.61125 -0.533121,1.0328 -0.08202,0.31616 -0.205047,0.50585 -0.246056,0.90633 0,0 0,0.021 -0.02051,0.021 0,-0.1054 -0.02051,-0.46371 -0.04101,-0.40048 -0.26656,0.69556 -0.492112,1.49651 -0.697159,2.40283 -0.287065,1.43327 -0.574131,3.39346 -0.389588,5.8806 0,0.21078 0.02051,0.40047 0.02051,0.56909 -0.881701,1.24357 -1.435327,2.29744 -1.660883,2.82438 -1.06624,2.12882 -2.15299,5.41689 -3.03469,10.51763 0,0 0.59464,-1.91804 1.76341,-4.08901 -0.8612,2.74001 -1.55836,6.99771 -1.14827,13.38421 0.0205,-0.2108 0.20505,-1.8337 0.65615,-4.0047 0.22555,4.2576 1.20978,9.46381 4.429012,15.13352 2.460561,4.3209 8.919531,14.3537 25.138725,18.1055 -1.783906,-0.5269 -2.891159,-1.5808 -2.891159,-1.5808 0,0 6.069382,2.0024 10.477887,1.8338 -1.394318,-0.253 -1.660879,-0.9274 -1.660879,-0.9274 0,0 15.727082,0.9062 21.16082,-6.7027 -1.865926,2.2343 -6.561495,2.8666 -8.345401,2.8876 2.706616,-2.5503 8.693979,-2.5081 15.19396,-9.0633 3.567812,-3.6042 3.936897,-6.3443 4.326485,-8.89461 -0.512616,3.33031 -3.629326,5.35371 -6.869064,7.18741 z"
         inkscape:connector-curvature="0"
         style="fill:url(#radialGradient3465)" />
      <path
         id="path3312"
         d="m -40.889663,1004.971 c 1.988952,-3.8361 4.675064,-6.09141 6.130895,-8.74711 1.92744,-3.541 5.597775,-13.46851 2.829644,-21.49903 1.27129,5.01642 0.861197,10.11712 -3.157718,12.68862 1.312298,-3.5411 2.111981,-11.29751 0.779177,-18.29522 -0.881701,-4.55272 -3.649831,-8.62066 -5.433737,-9.88532 1.660877,1.28573 2.993681,5.85954 2.952672,7.96728 -3.465289,-6.00707 -9.145083,-11.76121 -17.716034,-14.18511 6.664017,4.51057 9.145082,8.34666 10.703437,11.76121 -1.783907,-1.8759 -4.818597,-3.81503 -6.889569,-3.98364 3.0757,2.36067 8.242877,9.35837 7.689251,19.9603 -0.799682,-1.70725 -2.235009,-4.38409 -3.260243,-5.31149 1.107253,10.41229 0.143533,12.64649 -0.533121,15.40759 -0.143533,-1.2646 -0.594635,-2.2342 -0.840691,-2.8033 0,0 -0.123028,3.246 -2.173495,7.88291 -1.558355,3.52 -3.15772,4.59491 -3.875383,4.46851 -0.184542,-0.021 -0.287065,-0.1054 -0.287065,-0.1054 0.04101,-0.46371 0.102523,-0.92741 -0.02051,-1.24351 0,0 -0.656149,0.2318 -1.086747,0.843 -0.164037,0.25301 -0.389589,0.48481 -0.676654,0.71671 -0.04101,0.042 0.471607,-0.67451 0.430598,-0.65351 -0.246057,0.21081 -0.533121,0.46381 -0.799683,0.75891 -1.004728,1.0749 -1.927438,2.2763 -2.399045,1.939 0.430597,-0.1475 0.799682,-0.7166 0.8817,-1.2857 -0.389589,0.2951 -1.394317,1.0539 -3.649831,1.4123 -0.92271,0.1474 -4.839102,0.8852 -10.067793,-1.8127 0.758673,-0.085 1.906934,-0.3583 2.768131,0.1686 -0.861197,-0.9696 -2.973178,-0.7799 -4.470019,-1.26471 -1.312299,-0.4215 -3.014186,-2.3184 -3.99841,-3.267 4.018915,1.0118 8.283887,0.2741 10.744447,-1.4543 2.50157,-1.7495 3.977905,-3.0351 5.290205,-2.719 1.312299,0.2951 2.193999,-1.05391 1.168766,-2.27631 -1.025234,-1.2225 -3.526803,-2.8455 -6.910074,-1.9814 -2.604093,0.6745 -4.798093,2.8034 -8.447923,1.3279 -0.225552,-0.085 -0.451104,-0.1897 -0.676654,-0.3161 -0.225552,-0.1264 0.758672,0.1476 0.512616,0 -0.697159,-0.274 -1.968448,-0.8642 -2.296523,-1.096 -0.06151,-0.042 0.533121,0.1054 0.471608,0.063 -3.465289,-2.1078 -3.239739,-3.7939 -3.239739,-4.8267 0,-0.8431 0.492113,-1.9602 1.414823,-2.4871 0.492112,0.1896 0.799682,0.3583 0.799682,0.3583 0,0 -0.225552,-0.3583 -0.369084,-0.5481 0.04101,-0.021 0.06151,-0.021 0.102523,-0.042 0.410094,0.1475 1.332803,0.4848 1.783907,0.7377 0.635644,0.3162 0.840691,0.6534 0.840691,0.6534 0,0 0.143532,-0.1054 0,-0.4216 -0.06151,-0.1475 -0.287065,-0.548 -0.902205,-0.9274 0.02051,0 0.02051,0 0.02051,0 0.328074,0.1266 0.676654,0.2951 1.045738,0.5269 0.123028,-0.569 0.34858,-1.1592 0.205047,-2.19198 -0.123028,-0.7377 -0.102524,-0.90633 -0.266561,-1.18033 -0.143533,-0.23186 0.04101,-0.31616 0.266561,-0.12646 -0.06151,-0.1897 -0.143533,-0.35832 -0.225552,-0.54802 0,0 0,0 0,0 0.184543,-0.90633 5.392728,-3.70963 5.782318,-4.00471 0.533121,-0.40047 1.086747,-1.03279 1.435326,-1.7705 0.246056,-0.46371 0.430598,-1.11711 0.389589,-2.08667 -0.04101,-0.69556 -0.430598,-1.1171 -5.987363,-1.05387 -1.517346,0.021 -2.501571,-0.88525 -3.096206,-1.74943 -0.123027,-0.18969 -0.225551,-0.35831 -0.328074,-0.52694 -0.123029,-0.23184 -0.225552,-0.46369 -0.287066,-0.63232 0.656149,-2.46605 1.988953,-4.61595 4.059924,-6.36538 0.123029,-0.10538 -0.492111,0.0632 -0.369083,-0.0422 0.143533,-0.12646 1.025233,-0.56909 1.18927,-0.6534 0.205047,-0.12647 -0.963719,-0.44263 -1.947943,-0.23186 -1.004729,0.21078 -1.189271,0.33724 -1.722393,0.61125 0.205047,-0.23185 0.881701,-0.56909 0.717664,-0.54802 -1.086747,0.25294 -2.378542,0.99065 -3.465289,1.77051 0,-0.10539 0,-0.18969 0.02051,-0.33724 -0.512616,0.27401 -1.763401,1.26465 -2.070972,2.00236 0,-0.16862 0,-0.25293 -0.02051,-0.42155 -0.34858,0.33724 -0.697159,0.73771 -1.00473,1.15926 0,0 0,0.021 -0.02051,0.021 -3.239738,-0.82202 -5.987364,-0.63232 -8.304391,0.12646 -0.553627,-0.40047 -1.435327,-1.03279 -2.829644,-3.24592 -0.08202,-0.12646 -0.08202,0.29508 -0.164038,0.16862 -0.553626,-1.01172 -1.004728,-2.74007 -1.066242,-3.96256 0,0 -0.902206,0.52694 -1.476337,2.4239 -0.102523,0.33725 -0.184542,0.52694 -0.246056,0.71664 -0.02051,0.0632 0.04101,-0.61125 0.02051,-0.54802 -0.102523,0.23186 -0.430597,0.61125 -0.533121,1.0328 -0.08202,0.31616 -0.205047,0.50585 -0.246056,0.90633 0,0 0,0.021 -0.02051,0.021 0,-0.1054 -0.02051,-0.46371 -0.04101,-0.40048 -0.26656,0.69556 -0.492112,1.49651 -0.697159,2.40283 -0.287065,1.43327 -0.574131,3.39346 -0.389588,5.8806 0,0.21078 0.02051,0.40047 0.02051,0.56909 -0.881701,1.24357 -1.435327,2.29744 -1.660883,2.82438 -1.06624,2.12882 -2.15299,5.41689 -3.03469,10.51763 0,0 0.59464,-1.91804 1.76341,-4.08901 -0.8612,2.74001 -1.55836,6.99771 -1.14827,13.38421 0.0205,-0.2108 0.20505,-1.8337 0.65615,-4.0047 0.22555,4.2576 1.20978,9.46381 4.429012,15.13352 2.460561,4.3209 8.919531,14.3537 25.138725,18.1055 -1.783906,-0.5269 -2.891159,-1.5808 -2.891159,-1.5808 0,0 6.069382,2.0024 10.477887,1.8338 -1.394318,-0.253 -1.660879,-0.9274 -1.660879,-0.9274 0,0 15.727082,0.9062 21.16082,-6.7027 -1.865926,2.2343 -6.561495,2.8666 -8.345401,2.8876 2.706616,-2.5503 8.693979,-2.5081 15.19396,-9.0633 3.567812,-3.6042 3.936897,-6.3443 4.326485,-8.89461 -0.512616,3.33031 -3.629326,5.35371 -6.869064,7.18741 z"
         inkscape:connector-curvature="0"
         style="fill:url(#radialGradient3467)" />
      <path
         id="path3329"
         d="m -40.889663,1004.971 c 1.988952,-3.8361 4.675064,-6.09141 6.130895,-8.74711 1.92744,-3.541 5.597775,-13.46851 2.829644,-21.49903 1.27129,5.01642 0.861197,10.11712 -3.157718,12.68862 1.312298,-3.5411 2.111981,-11.29751 0.779177,-18.29522 -0.881701,-4.55272 -3.649831,-8.62066 -5.433737,-9.88532 1.660877,1.28573 2.993681,5.85954 2.952672,7.96728 -3.465289,-6.00707 -9.145083,-11.76121 -17.716034,-14.18511 6.664017,4.51057 9.145082,8.34666 10.703437,11.76121 -1.783907,-1.8759 -4.818597,-3.81503 -6.889569,-3.98364 3.0757,2.36067 8.242877,9.35837 7.689251,19.9603 -0.799682,-1.70725 -2.235009,-4.38409 -3.260243,-5.31149 1.107253,10.41229 0.143533,12.64649 -0.533121,15.40759 -0.143533,-1.2646 -0.594635,-2.2342 -0.840691,-2.8033 0,0 -0.123028,3.246 -2.173495,7.88291 -1.558355,3.52 -3.15772,4.59491 -3.875383,4.46851 -0.184542,-0.021 -0.287065,-0.1054 -0.287065,-0.1054 0.04101,-0.46371 0.102523,-0.92741 -0.02051,-1.24351 0,0 -0.656149,0.2318 -1.086747,0.843 -0.164037,0.25301 -0.389589,0.48481 -0.676654,0.71671 -0.04101,0.042 0.471607,-0.67451 0.430598,-0.65351 -0.246057,0.21081 -0.533121,0.46381 -0.799683,0.75891 -1.004728,1.0749 -1.927438,2.2763 -2.399045,1.939 0.430597,-0.1475 0.799682,-0.7166 0.8817,-1.2857 -0.389589,0.2951 -1.394317,1.0539 -3.649831,1.4123 -0.92271,0.1474 -4.839102,0.8852 -10.067793,-1.8127 0.758673,-0.085 1.906934,-0.3583 2.768131,0.1686 -0.861197,-0.9696 -2.973178,-0.7799 -4.470019,-1.26471 -1.312299,-0.4215 -3.014186,-2.3184 -3.99841,-3.267 4.018915,1.0118 8.283887,0.2741 10.744447,-1.4543 2.50157,-1.7495 3.977905,-3.0351 5.290205,-2.719 1.312299,0.2951 2.193999,-1.05391 1.168766,-2.27631 -1.025234,-1.2225 -3.526803,-2.8455 -6.910074,-1.9814 -2.604093,0.6745 -4.798093,2.8034 -8.447923,1.3279 -0.225552,-0.085 -0.451104,-0.1897 -0.676654,-0.3161 -0.225552,-0.1264 0.758672,0.1476 0.512616,0 -0.697159,-0.274 -1.968448,-0.8642 -2.296523,-1.096 -0.06151,-0.042 0.533121,0.1054 0.471608,0.063 -3.465289,-2.1078 -3.239739,-3.7939 -3.239739,-4.8267 0,-0.8431 0.492113,-1.9602 1.414823,-2.4871 0.492112,0.1896 0.799682,0.3583 0.799682,0.3583 0,0 -0.225552,-0.3583 -0.369084,-0.5481 0.04101,-0.021 0.06151,-0.021 0.102523,-0.042 0.410094,0.1475 1.332803,0.4848 1.783907,0.7377 0.635644,0.3162 0.840691,0.6534 0.840691,0.6534 0,0 0.143532,-0.1054 0,-0.4216 -0.06151,-0.1475 -0.287065,-0.548 -0.902205,-0.9274 0.02051,0 0.02051,0 0.02051,0 0.328074,0.1266 0.676654,0.2951 1.045738,0.5269 0.123028,-0.569 0.34858,-1.1592 0.205047,-2.19198 -0.123028,-0.7377 -0.102524,-0.90633 -0.266561,-1.18033 -0.143533,-0.23186 0.04101,-0.31616 0.266561,-0.12646 -0.06151,-0.1897 -0.143533,-0.35832 -0.225552,-0.54802 0,0 0,0 0,0 0.184543,-0.90633 5.392728,-3.70963 5.782318,-4.00471 0.533121,-0.40047 1.086747,-1.03279 1.435326,-1.7705 0.246056,-0.46371 0.430598,-1.11711 0.389589,-2.08667 -0.04101,-0.69556 -0.430598,-1.1171 -5.987363,-1.05387 -1.517346,0.021 -2.501571,-0.88525 -3.096206,-1.74943 -0.123027,-0.18969 -0.225551,-0.35831 -0.328074,-0.52694 -0.123029,-0.23184 -0.225552,-0.46369 -0.287066,-0.63232 0.656149,-2.46605 1.988953,-4.61595 4.059924,-6.36538 0.123029,-0.10538 -0.492111,0.0632 -0.369083,-0.0422 0.143533,-0.12646 1.025233,-0.56909 1.18927,-0.6534 0.205047,-0.12647 -0.963719,-0.44263 -1.947943,-0.23186 -1.004729,0.21078 -1.189271,0.33724 -1.722393,0.61125 0.205047,-0.23185 0.881701,-0.56909 0.717664,-0.54802 -1.086747,0.25294 -2.378542,0.99065 -3.465289,1.77051 0,-0.10539 0,-0.18969 0.02051,-0.33724 -0.512616,0.27401 -1.763401,1.26465 -2.070972,2.00236 0,-0.16862 0,-0.25293 -0.02051,-0.42155 -0.34858,0.33724 -0.697159,0.73771 -1.00473,1.15926 0,0 0,0.021 -0.02051,0.021 -3.239738,-0.82202 -5.987364,-0.63232 -8.304391,0.12646 -0.553627,-0.40047 -1.435327,-1.03279 -2.829644,-3.24592 -0.08202,-0.12646 -0.08202,0.29508 -0.164038,0.16862 -0.553626,-1.01172 -1.004728,-2.74007 -1.066242,-3.96256 0,0 -0.902206,0.52694 -1.476337,2.4239 -0.102523,0.33725 -0.184542,0.52694 -0.246056,0.71664 -0.02051,0.0632 0.04101,-0.61125 0.02051,-0.54802 -0.102523,0.23186 -0.430597,0.61125 -0.533121,1.0328 -0.08202,0.31616 -0.205047,0.50585 -0.246056,0.90633 0,0 0,0.021 -0.02051,0.021 0,-0.1054 -0.02051,-0.46371 -0.04101,-0.40048 -0.26656,0.69556 -0.492112,1.49651 -0.697159,2.40283 -0.287065,1.43327 -0.574131,3.39346 -0.389588,5.8806 0,0.21078 0.02051,0.40047 0.02051,0.56909 -0.881701,1.24357 -1.435327,2.29744 -1.660883,2.82438 -1.06624,2.12882 -2.15299,5.41689 -3.03469,10.51763 0,0 0.59464,-1.91804 1.76341,-4.08901 -0.8612,2.74001 -1.55836,6.99771 -1.14827,13.38421 0.0205,-0.2108 0.20505,-1.8337 0.65615,-4.0047 0.22555,4.2576 1.20978,9.46381 4.429012,15.13352 2.460561,4.3209 8.919531,14.3537 25.138725,18.1055 -1.783906,-0.5269 -2.891159,-1.5808 -2.891159,-1.5808 0,0 6.069382,2.0024 10.477887,1.8338 -1.394318,-0.253 -1.660879,-0.9274 -1.660879,-0.9274 0,0 15.727082,0.9062 21.16082,-6.7027 -1.865926,2.2343 -6.561495,2.8666 -8.345401,2.8876 2.706616,-2.5503 8.693979,-2.5081 15.19396,-9.0633 3.567812,-3.6042 3.936897,-6.3443 4.326485,-8.89461 -0.512616,3.33031 -3.629326,5.35371 -6.869064,7.18741 z"
         inkscape:connector-curvature="0"
         style="fill:url(#radialGradient3469)" />
      <path
         id="path3338"
         d="m -68.037846,969.30796 c -0.04101,-0.69556 -0.471608,-1.18034 -6.028373,-1.13819 -2.276019,0.021 -3.342261,-2.02343 -3.711346,-2.8876 -0.594635,2.21313 -0.697159,4.48949 -0.246055,7.16632 0.287065,1.77051 1.517345,3.267 2.193999,4.32088 0.164037,0.16861 0.246056,0.21077 0.287066,0.10538 0.246056,-0.54801 5.126167,-3.39346 5.515756,-3.70963 0.410093,-0.27401 2.091476,-1.74942 1.988953,-3.85716 z"
         inkscape:connector-curvature="0"
         style="fill:url(#radialGradient3495)" />
      <path
         id="path3347"
         d="m -75.645079,968.65456 c 0,0 1.927439,0.96956 2.214505,1.5808 0.08202,0.1897 -0.984225,-0.33724 -0.922711,-0.12646 0.06151,0.21078 1.394318,0.90633 1.435327,1.24357 0.04101,0.25293 -0.738168,-0.27401 -1.148261,-0.33724 0.246055,0.21078 0.574131,0.52694 0.389588,0.73771 -0.184542,0.21077 -0.861196,0.29509 -0.984223,0.37939 -1.763403,1.15926 2.501569,1.43327 4.03942,0.56909 1.537849,-0.84309 2.501569,-2.08666 2.542578,-2.27636 0.06151,-0.1897 0.553626,-1.85481 -2.665607,-1.28572 -2.029962,0.37939 -3.301251,0.33724 -4.900616,-0.48478 z"
         inkscape:connector-curvature="0"
         style="fill:url(#radialGradient3492)" />
      <path
         id="path3360"
         d="m -49.378597,1012.0319 c -1.865925,1.0539 -6.274429,2.445 -7.525214,2.5082 7.689251,-2.4449 10.170316,-5.7541 11.441605,-7.9462 3.977906,-0.8009 11.23656,-4.5105 11.523625,-8.83141 -0.30757,5.90171 -5.044148,9.99071 -8.447924,12.35131 -4.018915,2.8034 -7.42269,3.0352 -10.313849,4.9322 0.881701,-0.6324 2.029963,-1.4543 3.321757,-3.0141 z"
         inkscape:connector-curvature="0"
         style="fill:url(#radialGradient3489)" />
      <g
         transform="matrix(0.2050467,0,0,0.21077426,-103.10083,948.14622)"
         id="g3362">
        <radialGradient
           gradientUnits="userSpaceOnUse"
           gradientTransform="matrix(1,0,0,-1,-22.5352,286.4424)"
           r="215.60429"
           cy="228.6978"
           cx="368.27249"
           id="radialGradient3806">
          <stop
             id="stop3808"
             style="stop-color:#FFE300"
             offset="0.3064" />
          <stop
             id="stop3810"
             style="stop-color:#F8C91E"
             offset="0.482" />
          <stop
             id="stop3812"
             style="stop-color:#E36024"
             offset="0.8355" />
          <stop
             id="stop3814"
             style="stop-color:#E36024"
             offset="1" />
        </radialGradient>
        <path
           id="path3373"
           d="m 347.2,126.4 c 11.7,38.1 -7.5,54.6 -15.6,59.7 10.3,-28.4 14,-63.7 2.8,-94.7 C 325.1,65.5 309,52.6 309,52.6 c 22.6,24.7 20,52 13.4,71.2 3.1,18.1 -7.3,68.4 5.7,66.1 -3.1,28.1 -15.2,62.6 -20.6,73.1 9,-14.2 21.9,-27.4 27.8,-38.5 11.2,-21.1 24.3,-62.6 11.9,-98.1 z"
           inkscape:connector-curvature="0"
           style="fill:url(#radialGradient3478)" />
      </g>
      <path
         id="path3400"
         d="m -41.320262,976.66397 c 0,0 -1.025233,2.04452 -0.943214,6.02821 -1.3123,-5.20618 -3.957402,-7.29285 -3.957402,-7.29285 0.348579,4.19442 1.066243,10.28575 -0.512617,15.49195 0.184542,1.51751 0.553626,5.24821 -0.861196,9.27402 2.317028,-2.74011 5.392728,-4.95321 5.843831,-7.16631 0,-0.063 0.02051,-0.1475 0.02051,-0.2107 0.779177,0.1474 1.865925,-0.4637 2.809139,-1.43331 0.779177,-1.3701 2.829644,-5.4591 3.014187,-7.6511 -4.859607,-2.0024 -5.413233,-7.03991 -5.413233,-7.03991 z"
         inkscape:connector-curvature="0"
         style="fill:url(#radialGradient3479)" />
      <path
         id="path3429"
         d="m -42.181459,990.32218 c 6.315439,-9.0844 4.121439,-18.54816 3.444785,-21.45684 9.063064,15.28114 -0.225551,33.02836 -2.111981,36.00026 -0.512617,0.4215 -3.424279,1.5387 -4.613551,1.6651 0.38959,-0.6113 1.394318,-2.7401 1.27129,-5.2482 -1.373813,3.4567 -6.253924,6.028 -8.96054,6.9766 4.675065,-3.4779 10.047288,-13.17341 10.969997,-17.93692 z"
         inkscape:connector-curvature="0"
         style="fill:url(#radialGradient3476)" />
      <g
         transform="matrix(0.2050467,0,0,0.21077426,-103.10083,948.14622)"
         id="g3431">
        <radialGradient
           gradientUnits="userSpaceOnUse"
           gradientTransform="matrix(1,0,0,-1,-22.5352,286.4424)"
           r="134.6922"
           cy="115.8423"
           cx="296.0918"
           id="radialGradient3820">
          <stop
             id="stop3822"
             style="stop-color:#FFFFFF"
             offset="8.950000e-002" />
          <stop
             id="stop3824"
             style="stop-color:#FFFEF7"
             offset="0.1064" />
          <stop
             id="stop3826"
             style="stop-color:#FFFBE8"
             offset="0.1301" />
          <stop
             id="stop3828"
             style="stop-color:#FFF7D0"
             offset="0.1579" />
          <stop
             id="stop3830"
             style="stop-color:#FFF2AF"
             offset="0.1886" />
          <stop
             id="stop3832"
             style="stop-color:#FFEC85"
             offset="0.2219" />
          <stop
             id="stop3834"
             style="stop-color:#FFE643"
             offset="0.2567" />
          <stop
             id="stop3836"
             style="stop-color:#FFE300"
             offset="0.277" />
          <stop
             id="stop3838"
             style="stop-color:#FFDB00"
             offset="0.3194" />
          <stop
             id="stop3840"
             style="stop-color:#F6C713"
             offset="0.39" />
          <stop
             id="stop3842"
             style="stop-color:#F0B91C"
             offset="0.4303" />
          <stop
             id="stop3844"
             style="stop-color:#EA9E23"
             offset="0.5051" />
          <stop
             id="stop3846"
             style="stop-color:#E27327"
             offset="0.6316" />
          <stop
             id="stop3848"
             style="stop-color:#DF6427"
             offset="0.8006" />
          <stop
             id="stop3850"
             style="stop-color:#DD5A26"
             offset="0.9483" />
        </radialGradient>
        <path
           id="path3464"
           d="m 291.9,167.7 c 0,0 2.5,37.5 -16.4,67.5 5.1,-28.3 -4.8,-46.1 -4.8,-46.1 0,0 -1.4,15.3 -7.4,30.1 -10.4,25.5 -19.8,30.7 -23.5,28 -8,31.7 -60.9,30.2 -60.9,30.2 12,3 54.1,5.3 85,-17.4 -1.7,4 -11.2,23.1 -34,32.9 22.5,-1.4 52.2,-25.2 57.5,-40.9 0.4,11.8 -3.4,20 -5.9,24.7 37.5,-42 10.4,-109 10.4,-109 z"
           inkscape:connector-curvature="0"
           style="fill:url(#radialGradient3484)" />
      </g>
      <path
         id="path3483"
         d="m -67.709772,1010.9991 c 4.018915,-0.3794 7.299662,-1.3068 9.514167,-4.2998 -3.629326,0.6324 -6.49998,0.3583 -8.283887,-0.063 0,0 2.850149,0.1265 6.458971,-0.8221 4.182953,-1.0749 9.370634,-3.5831 12.343812,-9.33721 -0.143533,13.70031 -13.65611,16.41931 -20.033063,14.52231 z"
         inkscape:connector-curvature="0"
         style="fill:url(#linearGradient3455)" />
      <path
         id="path3494"
         d="m -93.52515,959.14864 c -0.08202,-0.12646 -0.08202,0.29508 -0.164038,0.16862 -0.553626,-1.01172 -1.004729,-2.74007 -1.066243,-3.96256 0,0 -0.902205,0.52694 -1.476336,2.4239 -0.102523,0.33725 -0.184542,0.52694 -0.246056,0.71664 -0.02051,0.0632 0.04101,-0.61125 0.02051,-0.54802 -0.102524,0.23186 -0.430599,0.61125 -0.533122,1.0328 -0.08202,0.33724 -0.205047,0.52693 -0.266561,0.94848 -0.02051,0.12646 -0.02051,-0.50586 -0.04101,-0.40047 -1.435327,3.70963 -1.27129,9.12653 -1.086747,8.89467 3.403774,-4.55272 7.68925,-6.00707 7.68925,-6.00707 -0.512616,-0.35831 -1.619868,-1.26464 -2.829644,-3.26699 z"
         inkscape:connector-curvature="0"
         style="fill:url(#linearGradient3452)" />
      <g
         transform="matrix(0.2050467,0,0,0.21077426,-103.10083,948.14622)"
         id="g3496">
        <linearGradient
           gradientTransform="matrix(1,0,0,-1,-22.5352,286.4424)"
           y2="168.7469"
           x2="176.00079"
           y1="156.94189"
           x1="149.1714"
           gradientUnits="userSpaceOnUse"
           id="linearGradient3856">
          <stop
             id="stop3858"
             style="stop-color:#DD5A26"
             offset="7.460000e-002" />
          <stop
             id="stop3860"
             style="stop-color:#E9986D"
             offset="0.2983" />
          <stop
             id="stop3862"
             style="stop-color:#F4D4AC"
             offset="0.6668" />
          <stop
             id="stop3864"
             style="stop-color:#F9F7C9"
             offset="1" />
        </linearGradient>
        <path
           id="path3507"
           d="m 163.1,117.3 c 1.4,-1.1 6.3,-5.6 7.5,-10.9 -0.9,0.4 -1,-0.7 -2,-0.2 -1.8,1.9 -6.2,6.5 -11.4,9.8 1.4,-1.3 3.9,-3.2 4.5,-4.2 -5.6,3.9 -12.5,6.6 -17.9,6 -0.8,0 4,0.5 8.2,-2.8 -4.1,1.9 -11.1,1.7 -11.8,1.5 -0.6,-0.2 6.9,-1 6.2,-1.2 -3.5,-1.2 -8.1,-0.4 -9.1,0.1 -1.9,0.9 -3.8,2.2 -5.2,3.9 0.8,-1 1.1,-1.9 2,-3.4 -2.6,2.5 -6.2,5.2 -6.7,5.3 0.4,-0.8 6.3,-5.3 5.2,-4.9 -0.7,0.7 -3.2,2.1 -4.9,3.4 -0.5,0.3 3.5,-3.3 3.1,-3 -6.7,1.7 -6,5.4 -6.2,5.5 0.1,0.2 0.1,0.7 0.3,0.9 0.8,2.4 3.7,6.5 6.4,10.4 2,2.4 2.6,5.1 2.7,4.2 0.9,-4.4 27.2,-18.9 29.1,-20.4 z"
           inkscape:connector-curvature="0"
           style="fill:url(#linearGradient3490)" />
        <linearGradient
           gradientTransform="matrix(1,0,0,-1,-22.5352,286.4424)"
           y2="188.66991"
           x2="220.8844"
           y1="153.88429"
           x1="151.6367"
           gradientUnits="userSpaceOnUse"
           id="linearGradient3867">
          <stop
             id="stop3869"
             style="stop-color:#DD5A26"
             offset="4.350000e-002" />
          <stop
             id="stop3871"
             style="stop-color:#ECA77C"
             offset="0.2582" />
          <stop
             id="stop3873"
             style="stop-color:#F9F7C9"
             offset="1" />
        </linearGradient>
        <path
           id="path3516"
           d="m 169.2,107.6 c -0.2,0 -0.4,-3.2 -0.1,-2.4 0.2,0.7 -0.3,7.2 -6.2,11 -1.3,0.8 -0.1,-2.1 -1.5,-0.6 -2.3,2.5 -8,10.8 -22.3,10.8 -0.5,0 5.6,-2.7 4.9,-2.5 -1.5,0.4 -3.2,0.9 -8.8,2.7 -0.5,0.2 4.7,-3.2 4.2,-3.1 -0.7,0.2 -3.8,2.3 -7.6,3.9 1.8,-1.8 3.9,-3.6 3.2,-3.3 -3,1.7 -5.2,3.6 -6.5,5.5 0.9,1.5 2,2.4 2.8,3.9 2,2.4 2.2,4.9 2.7,4.2 5.3,-6.4 26.2,-16.1 30.9,-21.1 4.8,-5.2 2.9,-4.4 4.3,-9 z"
           inkscape:connector-curvature="0"
           style="fill:url(#linearGradient3492)" />
      </g>
      <path
         id="path3525"
         d="m -74.763378,1001.3457 c -5.515756,-1.77051 -11.81069,-4.38421 -12.302802,-11.82452 -0.656149,-9.75882 8.07884,-8.705 8.07884,-8.705 -0.30757,0.1265 -0.984224,0.8432 -1.209775,1.6651 -0.246057,0.8854 -0.697159,2.6137 1.271289,4.4053 3.116709,2.8243 -5.126167,8.07261 8.919532,14.77522 0.348578,0.1476 -3.137216,0.2108 -4.757084,-0.3161 z"
         inkscape:connector-curvature="0"
         style="fill:url(#radialGradient3437)" />
      <path
         id="path3534"
         d="m -67.955827,970.952 c 0.246055,-0.63232 0.533121,-2.10774 -0.287066,-2.42391 -0.676654,-0.16862 -1.27129,-0.29509 -2.378541,-0.274 0.369083,0.0843 1.435326,0.31616 1.701887,0.82201 0.533121,0.96957 0.102523,2.86653 -0.08202,3.35132 0.553627,-0.44263 0.799682,-0.86418 1.045739,-1.47542 z"
         inkscape:connector-curvature="0"
         style="fill:url(#linearGradient3434)" />
      <path
         id="path3543"
         d="m -76.957378,996.60319 c 3.854878,0.9486 8.201868,0.2741 10.682933,-1.4754 1.660879,-1.1803 4.059925,-2.9298 5.146673,-2.74 -1.230281,-0.3584 -2.173496,-0.50591 -3.260244,-0.4427 -0.205046,0 -0.389588,0.021 -0.594635,0.042 -0.369084,0.042 -0.758673,0.085 -1.189271,0.1686 -0.656149,0.1475 -1.373812,0.6534 -2.050467,0.6534 -0.04101,0 0.635645,-0.3583 0.574131,-0.3583 -0.348579,0.1054 -0.738168,0.1686 -1.148261,0.274 -0.246057,0.063 -0.492112,0.1053 -0.738168,0.1475 -7.730261,1.4755 -14.804372,-2.84541 -14.804372,-2.84541 -0.389588,2.00231 3.055196,5.52231 7.381681,6.57611 z"
         inkscape:connector-curvature="0"
         style="fill:url(#radialGradient3431)" />
      <path
         id="path3554"
         d="m -43.801327,964.692 c 0,0 2.952672,3.267 4.34699,6.38646 1.394317,3.11946 1.824916,6.66047 1.824916,6.66047 0,0 0.205046,-2.97192 -1.394318,-7.96727 -1.722393,-5.4169 -5.126168,-10.05393 -8.488934,-12.6043 -2.255513,-1.74943 -6.787045,-4.06795 -6.787045,-4.06795 0,0 7.812279,4.76351 10.498391,11.59259 z"
         inkscape:connector-curvature="0"
         style="fill:url(#radialGradient3428)" />
      <path
         id="path3561"
         d="m -86.45104,963.99645 c 0.04101,0 -1.455832,0.18969 -4.100934,2.57144 -1.127756,0.94849 -2.029962,1.87589 -2.727121,2.67684 -1.927439,2.40282 -3.055195,4.72134 -3.055195,4.72134 0,0 0.164037,-1.43327 1.045737,-3.41455 -2.809139,4.55273 -3.875382,11.17106 -3.875382,11.17106 0,0 -0.164037,-3.01409 0.574131,-6.5551 -0.287065,0.82202 -0.635645,1.98128 -0.820187,3.51993 -0.553626,4.63707 0,8.70497 0,8.70497 0,0 -0.246056,-0.8853 -0.512617,-2.1499 0.102524,0.9274 0.246057,2.0235 0.492112,3.267 0.881701,4.38421 2.54258,8.53641 2.54258,8.53641 0,0 -2.050467,-2.8455 -3.403774,-7.18741 0.24605,1.3279 0.635643,2.97181 1.168765,4.95321 1.681382,6.00711 3.916391,9.12651 3.916391,9.12651 0,0 -1.722392,-1.5597 -3.957401,-7.35601 -0.984225,-2.5715 -1.496845,-5.01651 -1.824915,-6.82911 -0.18454,-1.3279 -0.34858,-2.5504 -0.51262,-4.3209 -0.0615,-0.6112 -0.14353,-1.3279 -0.14353,-1.9181 -0.49211,2.4029 -0.79968,4.4474 -0.79968,4.4474 0,0 0.12303,-4.8057 0.8817,-9.1476 0.12303,-0.6534 0.26656,-1.26465 0.4511,-1.85482 -0.71766,1.41219 -1.27129,2.59252 -1.27129,2.59252 0,0 0.94322,-2.69791 1.84542,-4.95319 -0.9022,1.66512 -1.43532,3.03515 -1.43532,3.03515 0,0 1.57885,-5.56444 3.465285,-8.36774 1.025233,-1.51757 2.050467,-2.55037 2.788635,-3.18269 0.246055,-0.25293 0.492112,-0.48478 0.758673,-0.67447 0.26656,-0.21078 0.553626,-0.42156 0.799682,-0.61125 0.123027,-0.10539 0.26656,-0.21077 0.410093,-0.31616 2.542579,-1.93912 5.2697,-2.40283 6.19241,-2.29744 0.02051,0 -0.799682,0.0422 -2.563083,1.01171 0.861195,-0.31616 1.558354,-0.42154 1.968448,-0.40046 0.02051,0 -0.61514,0.14753 -2.070972,1.1171 1.88643,-0.94849 3.608822,-1.20142 4.30598,-1.1171 0.04101,0 -1.332803,0.0843 -4.203456,2.00235 -0.08202,0.0632 -0.164038,0.10539 -0.246057,0.16862 0,0 0,0 0,0 1.722392,-0.77987 3.280747,-0.99064 3.916392,-0.96956 z m -8.07884,16.65113 c 0,0 0,0 0,0 m 0,0 c -0.512616,0.253 -1.107251,2.2764 -0.635644,6.8502 0.389588,3.7307 1.906934,5.71201 1.906934,5.71201 0,0 -0.779178,-1.49651 -1.250785,-6.63951 -0.410093,-4.4262 -0.06151,-5.8595 -0.02051,-5.9227 z m 1.414823,-3.5199 c -0.697159,3.7518 0.246056,9.0422 0.246056,9.0422 0,0 -0.164038,-4.4473 0.779177,-9.06328 0.984224,-4.93211 2.460561,-6.38646 2.481065,-6.3443 -0.799682,0.0843 -2.80914,2.6136 -3.506298,6.36538 z m 1.886429,-9.44268 c -0.430598,0.4637 -0.799682,0.96956 -1.107252,1.4965 -1.148261,1.15925 -2.460561,3.45669 -3.11671,6.63939 -1.23028,6.17569 -0.348579,9.90639 -0.348579,9.90639 0,0 -0.02051,-5.712 1.291794,-10.60195 0.184542,-0.69556 0.369084,-1.32788 0.574131,-1.89697 -0.328075,1.3911 -0.410093,2.4239 -0.410093,2.4239 0,0 1.066242,-4.51057 4.839102,-8.36774 2.378541,-2.44497 3.99841,-2.92976 4.018915,-2.90868 -1.763402,0.21078 -3.977906,1.37003 -5.741308,3.30916 z m -1.373813,13.23658 c -0.246055,2.7401 0.225552,5.5645 0.225552,5.5645 0,0 -0.04101,-2.8455 0.307569,-6.0492 0.34858,-3.18274 0.820187,-4.40523 0.840692,-4.38415 -0.574131,0.31616 -1.189271,2.88761 -1.373813,4.86885 z m 0.287066,-9.29511 c -1.209775,2.14991 -1.619869,4.27872 -1.619869,4.27872 0,0 1.517345,-3.541 2.563083,-5.07966 1.045739,-1.53865 2.070972,-2.55036 2.070972,-2.52929 -0.635645,0.27401 -1.988953,1.24357 -3.014186,3.33023 z m -5.392728,7.96728 c 0,0 0,0 0,0 m 0,0 c -0.512617,0.21076 -1.250785,2.21303 -1.045739,6.80793 0.164038,3.7307 1.558355,5.81751 1.558355,5.81751 0,0 -0.676654,-1.53871 -0.840691,-6.70271 m 21.611921,-26.97909 c 0,0 -2.481064,0.92741 -3.875382,2.76115 -1.394317,1.83373 -1.660879,3.7307 -1.660879,3.7307 0,0 1.537851,-4.21548 5.536261,-6.49185 z m -1.742896,2.3396 c -1.783907,2.4239 -2.214505,4.17332 -2.214505,4.17332 0,0 1.988953,-4.82672 6.992093,-6.89231 0,0.021 -2.993682,0.31616 -4.777588,2.71899 z m -17.941587,-0.40047 c 0.307571,-2.82438 1.086749,-4.4895 1.086749,-4.4895 0,0 -2.563084,3.98364 -1.025234,8.85253 0,0.021 -0.369084,-1.53866 -0.06151,-4.36303 z m 1.92744,3.39346 c 0,0 -0.574131,-1.3068 -0.799682,-3.70962 -0.225552,-2.42391 0.164037,-3.89933 0.164037,-3.89933 0,0 -1.53785,3.58317 0.635645,7.60895 z"
         inkscape:connector-curvature="0"
         style="opacity:0.1;fill:url(#radialGradient3425)" />
      <path
         id="path3582"
         d="m -60.3691,990.00598 c -0.369084,-0.5059 -1.968449,-1.7072 -3.752355,-1.8338 -2.378541,-0.1686 -4.305981,0.8854 -4.305981,0.8854 0,0 1.312299,-0.78 4.346991,-0.5059 2.091476,0.1896 3.69084,1.3911 3.711345,1.4543 z"
         inkscape:connector-curvature="0"
         style="opacity:0.5;fill:url(#radialGradient3422)" />
      <path
         id="path3603"
         d="m -59.569418,990.97558 c -0.369084,-0.527 -1.722392,-1.7494 -3.895887,-2.1921 -2.768131,-0.548 -4.798093,0.6534 -4.798093,0.6534 0,0 1.57886,-0.6744 4.777588,-0.1475 2.194,0.3793 3.875382,1.644 3.916392,1.6862 z"
         inkscape:connector-curvature="0"
         style="opacity:0.5;fill:url(#radialGradient3419)" />
      <path
         id="path3624"
         d="m -60.348596,990.99668 c -0.307569,-0.2952 -1.004728,-0.801 -2.214503,-1.1593 -1.947944,-0.5691 -3.260243,-0.042 -3.260243,-0.042 0,0 0.779177,-0.1898 2.76813,0.2107 1.230281,0.253 2.686112,0.9696 2.706616,0.9907 z"
         inkscape:connector-curvature="0"
         style="opacity:0.5;fill:url(#radialGradient3416)" />
      <path
         id="path3641"
         d="m -35.332899,1002.7368 c -0.389588,0.7587 -0.902205,1.5807 -1.578859,2.4239 -1.660878,2.1077 -3.752355,3.7729 -5.474747,4.9743 -0.697158,0.4847 -1.373812,0.9062 -2.050467,1.2646 l -0.02051,-0.253 c 0,0 0,0 -0.02051,0 0,0 0,0 0,0 1.988953,-1.0748 4.141943,-2.5293 6.356448,-4.7635 1.312299,-1.3278 2.193999,-2.5293 2.788635,-3.6463 z m -60.980887,-44.55772 c 0.08202,-0.1897 0.143533,-0.37939 0.246056,-0.71664 0.123028,-0.37939 0.246056,-0.71663 0.389589,-0.99063 -0.184542,0.33723 -0.389589,0.75879 -0.553626,1.30679 -0.04101,0.10539 -0.06151,0.1897 -0.08202,0.27401 0,0.0843 0,0.14754 0,0.12647 z m 21.386371,60.17612 c 0,0 0.287065,0.274 0.779177,0.6111 1.88643,0.5481 6.171906,1.6652 9.534672,1.5387 -0.410094,-0.085 -0.738169,-0.1897 -0.96372,-0.3161 -4.264972,-0.1476 -9.350129,-1.8337 -9.350129,-1.8337 z m -26.204965,-41.03782 c -0.10253,0.16862 -0.18454,0.35832 -0.28707,0.52694 0.0205,-0.021 0.0205,-0.0422 0.041,-0.0632 -0.86119,2.74006 -1.51734,6.97656 -1.10725,13.27876 0,-0.042 0.0205,-0.1265 0.0205,-0.253 0,0.085 0,0.1476 0.0205,0.2319 0,-0.085 0.041,-0.4426 0.12303,-0.9906 -0.30757,-6.0282 0.34858,-10.09608 1.18927,-12.73076 z m 3.936893,24.51302 c -3.219233,-5.66981 -4.203453,-10.89702 -4.429003,-15.13352 -0.041,0.2318 -0.10253,0.4637 -0.14354,0.6744 0.26656,4.1734 1.27129,9.27411 4.408506,14.75422 2.460561,4.3209 8.919531,14.3537 25.138725,18.1055 -0.738168,-0.2107 -1.373813,-0.5269 -1.84542,-0.822 -14.742857,-4.0468 -20.77123,-13.4263 -23.129268,-17.5786 z m 52.061357,10.9181 c 0.06151,-0.063 0.164037,-0.1896 0.184542,-0.1896 -5.433738,7.63 -21.160819,6.7026 -21.160819,6.7026 0,0 0.06151,0.1475 0.266561,0.3372 2.235008,0.063 12.876931,0.1475 18.720763,-4.5949 1.455831,-1.1171 2.399046,-2.4239 2.706616,-3.6042 0,0 -0.02051,0.021 -0.08202,0.042 -0.143533,0.5059 -0.410093,0.9696 -0.635644,1.3068 z m -54.521917,-42.28129 c -1.189273,2.08667 -2.440053,5.52229 -3.444783,11.27637 0,0 0.0205,-0.085 0.082,-0.2318 -0.0205,0.063 -0.0205,0.1476 -0.041,0.2108 0,0 0.082,-0.2319 0.22555,-0.6534 0.8612,-4.91106 1.92744,-8.09375 2.973178,-10.18041 0.04101,-0.1054 0.123028,-0.25293 0.205046,-0.42156 z m 2.583589,-10.89702 c 0.04101,-0.40048 0.184542,-0.59017 0.246055,-0.90634 0.02051,-0.0843 0.06151,-0.18969 0.102523,-0.27399 -0.102523,0.16861 -0.205046,0.35831 -0.246055,0.56908 -0.04101,0.12647 -0.08202,0.25293 -0.123028,0.35832 0,0.0843 0,0.21077 0.02051,0.25293 -0.02051,0.021 0,0.021 0,0 z m -1.127757,8.51528 c 0,-0.1897 -0.02051,-0.37939 -0.02051,-0.56909 -0.164037,-2.50822 0.123028,-4.46841 0.389589,-5.90168 0.164037,-0.73771 0.34858,-1.41219 0.553626,-2.02343 0,-0.0422 0,-0.0844 -0.02051,-0.0844 0,0 0,0 -0.02051,0 -0.04101,0.10539 -0.08202,0.23185 -0.123028,0.33725 0,0.021 -0.02051,0.0422 -0.02051,0.0632 -0.02051,0.0632 -0.04101,0.10538 -0.06151,0.16861 -0.06151,0.1897 -0.123028,0.3794 -0.184542,0.59017 -0.08202,0.31617 -0.164037,0.63233 -0.246056,0.96957 0,0.0422 -0.02051,0.0843 -0.02051,0.12646 -0.02051,0.0422 -0.02051,0.10539 -0.04101,0.14754 0,0.021 0,0.0422 -0.02051,0.0843 -0.143533,0.6534 -0.246057,1.37004 -0.328076,2.1499 -0.246055,2.1499 -0.184541,3.96255 -0.08202,4.23656 0.102523,-0.10538 0.164037,-0.1897 0.246055,-0.29508 z m 53.742739,43.06113 c -0.123028,0.063 -1.148262,0.6113 -2.829645,1.3279 -3.157719,1.349 -5.331214,2.3818 -5.515756,2.7401 0,0 0.820187,-0.5691 3.629327,-1.7283 2.932167,-1.2015 4.326484,-1.897 4.675064,-2.0656 0.06151,-0.021 0.08202,-0.042 0.08202,-0.042 l -0.04101,-0.2319 c 0,0 0,0 0,0 z"
         inkscape:connector-curvature="0"
         style="fill:url(#linearGradient3413)" />
      <path
         id="path3648"
         d="m -71.441621,1015.9945 c 0,0 -0.02051,0 0,0 m 0,-0.1898 c 0.205047,0.527 2.15299,1.2858 6.623008,1.075 3.629327,-0.1686 5.659289,-1.6019 5.659289,-1.6019 0,0 -1.496841,0.6956 -6.520486,0.8853 -4.346989,0.1265 -5.700297,-0.3162 -5.761811,-0.3584 z m -2.747626,-1.4543 c 3.629327,0.822 8.140354,0.1054 8.140354,0.1054 0,0 -4.326486,0.042 -8.796504,-1.0538 -4.777588,-1.1593 -6.130896,-2.7191 -6.110391,-2.7401 0.08202,0.8431 3.137214,2.8665 6.766541,3.6885 z m 3.055195,-0.3161 c 2.645102,0.3372 5.413233,-0.063 5.413233,-0.063 0,0 -2.768131,-0.042 -5.88484,-0.4848 -3.0757,-0.4426 -4.244467,-0.9485 -4.244467,-0.9906 0.307571,0.5902 2.788635,1.2857 4.716074,1.5387 z m -8.981045,-0.527 c 2.152991,1.096 4.244466,1.3912 4.244466,1.3912 0,0 -3.526802,-1.328 -5.105662,-2.2975 -1.558355,-0.9695 -2.829645,-1.8127 -2.870654,-1.8969 0.34858,0.6323 1.660879,1.8758 3.73185,2.8032 z m 7.545719,5.7331 c 0,0 0,0 0,0"
         inkscape:connector-curvature="0"
         style="opacity:0.1;fill:url(#radialGradient3410)" />
      <path
         id="path3655"
         d="m -82.41162,962.2681 c 0,0 -0.553626,0.67447 -0.963719,1.34896 -0.471608,0.7377 -0.861196,1.51757 -0.861196,1.51757 0,0 -2.337533,-1.7705 -4.429009,-2.12883 -2.091477,-0.35831 -2.706617,-0.29508 -2.706617,-0.29508 0,0 3.485794,-1.85481 8.960541,-0.44262 z"
         inkscape:connector-curvature="0"
         style="fill:url(#radialGradient3407)" />
    </g>
    <path
       style="fill:#000000;fill-opacity:0.38356168;fill-rule:nonzero;stroke:none"
       d="m 1,1042.3622 0.045976,2.7457 c 0.03024,1.8058 1.461916,3.2543 3.2852054,3.2543 l 86.3836136,0 c 1.823288,0 3.285205,-1.4481 3.285205,-3.2543 l -0.04598,-2.7457 z"
       id="rect3781"
       inkscape:connector-curvature="0"
       sodipodi:nodetypes="csssscc" />
    <rect
       style="fill:#ffffff;fill-opacity:0.30000001;fill-rule:nonzero;stroke:none"
       id="rect3770"
       width="92.954033"
       height="2.000005"
       x="1.045976"
       y="1040.3622" />
    <path
       style="fill:#ffffff;fill-opacity:1;stroke:none"
       d="m 52.199094,961.40338 c 0.954725,0.38227 1.863078,0.85906 2.720362,1.42489 0.21492,0.14264 0.415443,0.29239 0.623778,0.44528 1.670689,1.22412 3.117039,2.78143 4.245151,4.59528 0.560276,0.90225 1.043327,1.87139 1.438153,2.88541 0.09908,0.25442 0.206652,0.52292 0.294561,0.78368 0.263533,0.78175 0.467283,1.57379 0.623778,2.4045 8.65e-4,0.005 -8.66e-4,0.0121 0,0.0178 0.206933,1.10332 0.329216,2.25006 0.329216,3.41974 0,0.88098 -0.07176,1.7378 -0.190599,2.58262 -0.03927,0.28012 -0.08645,0.56015 -0.138617,0.83717 -0.260656,1.38966 -0.678406,2.7101 -1.230227,3.95401 -0.110266,0.24782 -0.225972,0.48924 -0.346543,0.73029 -0.241142,0.48221 -0.498225,0.93656 -0.779722,1.38922 -0.281497,0.45257 -0.581784,0.89793 -0.901012,1.31801 -0.319227,0.4203 -0.650642,0.8441 -1.004974,1.2291 -0.354331,0.3849 -0.739452,0.7396 -1.126265,1.0864 -0.386813,0.3468 -0.79623,0.674 -1.2129,0.9796 -0.41667,0.3059 -0.838309,0.593 -1.282209,0.855 -0.443901,0.2618 -0.900336,0.4972 -1.368844,0.7124 -0.205835,0.094 -0.415362,0.1809 -0.623778,0.2672 0.08122,-0.012 0.161817,-0.023 0.24258,-0.035 0.257829,-0.04 0.50747,-0.089 0.762394,-0.1425 0.50985,-0.1071 1.016971,-0.235 1.507462,-0.3918 0.490493,-0.1567 0.969646,-0.3307 1.438153,-0.5343 0.468509,-0.2037 0.924944,-0.429 1.368845,-0.6768 0.443901,-0.248 0.865539,-0.53 1.282209,-0.8194 0.41667,-0.2892 0.826087,-0.5802 1.212901,-0.9083 0.386813,-0.3281 0.771933,-0.6866 1.126264,-1.0509 0.354332,-0.3644 0.685749,-0.7423 1.004975,-1.13992 0.319227,-0.3975 0.619515,-0.81849 0.901011,-1.24677 0.281497,-0.42836 0.53858,-0.86172 0.779721,-1.31803 0.120572,-0.22807 0.236279,-0.46014 0.346544,-0.69461 0.551822,-1.17717 0.969572,-2.42527 1.230227,-3.74036 0.05217,-0.26207 0.09935,-0.5186 0.138617,-0.78368 0.118848,-0.79944 0.1906,-1.62424 0.1906,-2.45794 0,-1.10685 -0.122284,-2.19759 -0.329217,-3.24163 -8.66e-4,-0.005 8.66e-4,-0.0133 0,-0.0178 -0.156495,-0.78614 -0.360245,-1.54002 -0.623776,-2.27982 -0.08791,-0.24673 -0.195482,-0.48946 -0.294562,-0.73025 -0.394827,-0.95959 -0.877878,-1.87129 -1.438154,-2.72511 -0.0021,-0.003 0.0021,-0.0146 0,-0.0178 -1.128112,-1.71646 -2.574461,-3.1875 -4.245151,-4.34591 -0.208334,-0.14468 -0.408857,-0.27468 -0.623778,-0.40966 -1.809324,-1.13008 -3.854656,-1.90866 -6.047174,-2.20858 z"
       id="path4338"
       inkscape:connector-curvature="0" />
  </g>
</svg>
