<?xml version="1.0" encoding="UTF-8" standalone="no"?>
<!-- Created with Inkscape (http://www.inkscape.org/) -->

<svg
   xmlns:dc="http://purl.org/dc/elements/1.1/"
   xmlns:cc="http://creativecommons.org/ns#"
   xmlns:rdf="http://www.w3.org/1999/02/22-rdf-syntax-ns#"
   xmlns:svg="http://www.w3.org/2000/svg"
   xmlns="http://www.w3.org/2000/svg"
   xmlns:xlink="http://www.w3.org/1999/xlink"
   xmlns:sodipodi="http://sodipodi.sourceforge.net/DTD/sodipodi-0.dtd"
   xmlns:inkscape="http://www.inkscape.org/namespaces/inkscape"
   width="96"
   height="96"
   id="svg2"
   version="1.1"
   inkscape:version="0.48.4 r9939"
   sodipodi:docname="fonts.svg">
  <defs
     id="defs4">
    <linearGradient
       id="linearGradient3776">
      <stop
         style="stop-color:#598500;stop-opacity:1;"
         offset="0"
         id="stop3779" />
      <stop
         style="stop-color:#7dbc00;stop-opacity:1;"
         offset="1"
         id="stop3781" />
    </linearGradient>
    <linearGradient
       inkscape:collect="always"
       xlink:href="#linearGradient3776"
       id="linearGradient3783"
       x1="45"
       y1="1047.3622"
       x2="45"
       y2="957.36218"
       gradientUnits="userSpaceOnUse" />
  </defs>
  <sodipodi:namedview
     id="base"
     pagecolor="#ffffff"
     bordercolor="#666666"
     borderopacity="1.0"
     inkscape:pageopacity="0.0"
     inkscape:pageshadow="2"
     inkscape:zoom="4.6264763"
     inkscape:cx="12.354738"
     inkscape:cy="51.803805"
     inkscape:document-units="px"
     inkscape:current-layer="layer1"
     showgrid="true"
     inkscape:snap-page="true"
     inkscape:snap-global="true"
     inkscape:snap-center="true"
     inkscape:snap-object-midpoints="false"
     showguides="true"
     inkscape:guide-bbox="true"
     inkscape:snap-bbox="true"
     inkscape:object-paths="true"
     inkscape:object-nodes="true"
     inkscape:window-width="1305"
     inkscape:window-height="744"
     inkscape:window-x="61"
     inkscape:window-y="24"
     inkscape:window-maximized="1"
     inkscape:snap-midpoints="true"
     inkscape:snap-grids="true"
     inkscape:snap-to-guides="false">
    <inkscape:grid
       type="xygrid"
       id="grid3002"
       empspacing="5"
       visible="true"
       enabled="true"
       snapvisiblegridlinesonly="true" />
  </sodipodi:namedview>
  <metadata
     id="metadata7">
    <rdf:RDF>
      <cc:Work
         rdf:about="">
        <dc:format>image/svg+xml</dc:format>
        <dc:type
           rdf:resource="http://purl.org/dc/dcmitype/StillImage" />
        <dc:title />
      </cc:Work>
    </rdf:RDF>
  </metadata>
  <g
     inkscape:label="Layer 1"
     inkscape:groupmode="layer"
     id="layer1"
     transform="translate(0,-956.36218)">
    <rect
       style="fill:#ffffff;fill-opacity:0;fill-rule:nonzero;stroke:none"
       id="rect3775"
       width="96"
       height="96"
       x="0"
       y="956.36218"
       ry="0" />
    <path
       style="fill:#000000;fill-opacity:0.09589041;fill-rule:nonzero;stroke:none"
       d="m 3.353015,956.30662 c -1.884176,0 -3.4111555,1.43156 -3.4111555,3.19799 l 0,83.65949 c 0,1.7665 1.5269795,3.1981 3.4111555,3.1981 l 89.23583,0 c 1.884174,0 3.411155,-1.4316 3.411155,-3.1981 l 0,-83.65949 c 0,-1.76643 -1.526981,-3.19799 -3.411155,-3.19799 z"
       id="rect3772"
       inkscape:connector-curvature="0"
       sodipodi:nodetypes="sssssssss" />
    <path
       style="fill:#000000;fill-opacity:0.18721463;fill-rule:nonzero;stroke:none"
       d="m 1.0459761,1041.8066 0,7.4219 c 0,1.7392 1.461916,3.1337 3.2852054,3.1337 l 86.3836135,0 c 1.823288,0 3.285205,-1.3945 3.285205,-3.1337 l 0,-7.4219 -92.9540239,0 z"
       id="rect3785"
       inkscape:connector-curvature="0" />
    <path
       style="fill:#000000;fill-opacity:0.38356168;fill-rule:nonzero;stroke:none"
       d="m 1.0459761,1041.8066 0,5.3807 c 0,1.762 1.461916,3.1749 3.2852054,3.1749 l 86.3836135,0 c 1.823288,0 3.285205,-1.4129 3.285205,-3.1749 l 0,-5.3807 -92.9540239,0 z"
       id="rect3783"
       inkscape:connector-curvature="0" />
    <rect
       style="fill:url(#linearGradient3783);fill-opacity:1.0;fill-rule:nonzero;stroke:none"
       id="rect2985"
       width="92.954025"
       height="89"
       x="1.045977"
       y="957.36218"
       ry="3.1511393" />
    <path
       style="fill:#000000;fill-opacity:0.38356168;fill-rule:nonzero;stroke:none"
       d="m 1,1042.3622 0.045976,2.7457 c 0.03024,1.8058 1.461916,3.2543 3.2852054,3.2543 l 86.3836136,0 c 1.823288,0 3.285205,-1.4481 3.285205,-3.2543 l -0.04598,-2.7457 z"
       id="rect3781"
       inkscape:connector-curvature="0"
       sodipodi:nodetypes="csssscc" />
    <rect
       style="fill:#ffffff;fill-opacity:0.15686275;fill-rule:nonzero;stroke:none"
       id="rect3770"
       width="92.954033"
       height="2.000005"
       x="1.045976"
       y="1040.3622" />
    <path
       style="font-size:27.90267754px;font-style:normal;font-variant:normal;font-weight:normal;font-stretch:normal;text-align:end;line-height:125%;letter-spacing:0px;word-spacing:0px;text-anchor:end;fill:#ffffff;fill-opacity:0.42922375;stroke:none;font-family:Droid Serif;-inkscape-font-specification:Droid Serif"
       d="m 65.973348,1007.1009 0,1.4672 0.460997,0 c 0.414151,0 0.808018,0.022 1.173449,0.08 0.377607,0.046 0.725648,0.1841 1.005815,0.357 0.280158,0.1729 0.470277,0.391 0.628633,0.7138 0.17053,0.3111 0.25145,0.7503 0.251455,1.269 l 0,17.5279 c -5e-6,0.5186 -0.08094,0.9462 -0.251455,1.269 -0.158356,0.3112 -0.348475,0.5524 -0.628633,0.7138 -0.280167,0.1613 -0.628208,0.2596 -1.005815,0.3172 -0.365431,0.046 -0.759298,0.08 -1.173449,0.08 l -0.460997,0 0,1.4672 11.650681,0 0,-1.4672 -1.257268,0 c -0.414163,0 -0.795852,-0.061 -1.17345,-0.119 -0.377621,-0.058 -0.725662,-0.1444 -1.005814,-0.3172 -0.267991,-0.1845 -0.500019,-0.459 -0.670543,-0.7932 -0.158361,-0.3342 -0.209553,-0.7951 -0.209545,-1.3483 l 0,-7.495 9.010421,0 0,-1.7449 -9.010421,0 0,-10.2312 6.118704,0 c 0.58467,0 1.094553,0.078 1.508721,0.238 0.414136,0.1499 0.737817,0.3694 1.005814,0.6345 0.280145,0.2536 0.524354,0.5547 0.670543,0.9121 0.146153,0.3457 0.244621,0.7069 0.293363,1.1104 l 0.167635,1.5464 1.927811,0 -0.167635,-6.1862 -18.859017,0 z"
       id="text3759"
       inkscape:connector-curvature="0" />
    <g
       style="font-size:69.23617554px;font-style:normal;font-variant:normal;font-weight:normal;font-stretch:normal;text-align:end;line-height:125%;letter-spacing:0px;word-spacing:0px;text-anchor:end;fill:#ffffff;fill-opacity:1;stroke:none;font-family:Capture it;-inkscape-font-specification:Capture it"
       id="text3763"
       transform="matrix(1.2265845,0,0,1.1606443,-17.043781,-170.21176)">
      <path
         d="m 32.770068,980.12272 0,0.5071 0.169033,0 c -2e-6,-0.27041 0.236644,-0.43944 0.709942,-0.5071 l 0.338067,0.5071 0,0.33807 c -0.338071,4e-5 -0.507104,0.18035 -0.507101,0.5409 l -0.709941,0.33807 -0.676135,-0.16903 c -0.22538,0.51841 -0.450758,0.80013 -0.676134,0.84516 l -0.169034,-0.16903 -0.20284,0 -0.507101,0.67614 1.048008,0.20284 0,1.18323 c -0.473295,5e-5 -0.709942,0.16908 -0.709941,0.5071 l -0.676135,0 0,-1.89317 0.169034,-1.52131 -0.169034,-1.21704 0.169034,-0.16903 2.400278,0 m 2.231244,0 5.848563,0 0.338068,0.33806 0,4.63153 -0.338068,0 c -10e-6,-0.67609 -0.112699,-1.01416 -0.338067,-1.01421 l -0.338067,0.33807 0,0.33807 c -1e-5,0.22542 0.338057,0.46207 1.014202,0.70994 l 0,5.30766 -1.183236,-0.16904 -0.169034,0 0,0.16904 1.35227,0.5409 0,2.06221 -0.507101,0 0,0.33807 c 0.338056,4e-5 0.50709,0.11272 0.507101,0.33807 l 0,8.24881 c -0.450767,10e-5 -0.676145,0.4057 -0.676135,1.2171 l 0.169034,0.169 -0.507101,0.3381 -0.507101,0 c -0.225388,0 -0.338077,-0.293 -0.338067,-0.879 l -0.202841,0 c -9e-6,0.586 -0.169042,0.879 -0.507101,0.879 l -0.845168,0 -0.338067,-0.3381 0,-0.7099 c 0.33806,0 0.507093,-0.1127 0.507101,-0.3381 l -0.169034,-0.8452 -0.169033,0.1691 -0.169034,0 0.169034,0.169 0,0.5071 -0.371874,0.3381 -0.507101,0 c -0.563452,-0.2029 -0.845174,-0.71 -0.845168,-1.5213 l 0,-0.2029 0.5071,-0.169 -0.338067,-1.0142 c 0.45075,0 0.676128,-0.29298 0.676135,-0.87899 l 1.386075,0 0,-0.67613 1.014202,0 0.202841,-0.16904 0.169033,0 c -9e-6,-0.33803 -0.236656,-0.50707 -0.709941,-0.5071 l -0.169034,-1.04801 -0.169033,0.16904 -0.169034,0 0.169034,0.16903 0,0.37187 -0.507101,0.50711 -0.709941,0.16903 0,0.5071 -0.169034,-0.16903 -0.338067,0 -0.338068,1.048 -0.676134,-0.37187 0,0.37187 -1.724143,0 0,-0.70994 0.169033,-0.84516 c -0.33807,3e-5 -0.507104,-0.11266 -0.5071,-0.33807 l 0,-0.70994 0.5071,-0.16904 c 0.202837,0.8114 0.664861,1.21708 1.386076,1.21705 l 0,-0.16904 c -0.585988,-0.33803 -0.878979,-0.74371 -0.878975,-1.21704 l 0.338068,-0.33807 0.169033,0.16904 0.878975,0 0,-1.01421 c -6e-6,-0.24788 0.169028,-0.37184 0.507101,-0.37187 l 0,-0.33807 c -0.67614,4e-5 -1.014207,-0.33803 -1.014202,-1.0142 l -0.169033,0.16903 -0.202841,0 -1.521302,-0.33806 -0.169034,0.16903 0,-0.33807 c 0.338064,4e-5 0.507097,-0.12392 0.507101,-0.37187 l 0,-0.5071 -0.338067,0 0,0.33807 -0.878975,-0.16904 -0.338068,0 0,0.16904 0.338068,0 0,0.33806 -0.676135,0.20284 0,-0.87897 0.507101,0 0,-0.67614 -0.169034,-0.16903 0,-0.16903 c 0.450754,-0.20281 0.676132,-0.55214 0.676135,-1.04801 l 0.540908,0 0.5071,0.5071 -0.338067,0.37187 0.338067,1.01421 0.338068,0 0,-0.67614 0.169033,0 0.338068,0.33807 -0.169034,0.16903 0,0.16904 0.338067,0 1.048009,-0.33807 0,-0.33807 c -0.653602,4e-5 -1.39735,-0.40564 -2.231244,-1.21704 l 0,-1.38608 -0.338067,0 c -4e-6,0.2705 -0.236651,0.61983 -0.709942,1.04801 l -0.169033,-0.16903 -0.845168,0 0.338067,1.18323 c -2e-6,0.36065 -0.462027,0.82267 -1.386076,1.38608 l 0,0.16903 -0.676135,0 0,-1.35227 0.338068,-1.21704 -0.338068,0 0,-0.67613 0.338068,0 0,0.5071 c 0.856436,4e-5 1.31846,-0.22534 1.386076,-0.67614 l 0,-0.20284 -0.169034,0 0,0.37188 c -0.924051,-0.11265 -1.386076,-0.51833 -1.386076,-1.21705 l 0.676135,-0.5071 1.048008,0 -0.169033,0.84517 0,0.33807 0.169033,0 c 0.02254,-0.45072 0.135225,-0.6761 0.338067,-0.67614 l -0.338067,-1.5551 0.338067,-0.33807 0,-0.16904 c -0.338069,5e-5 -0.507102,-0.11264 -0.5071,-0.33806 l -0.169034,0.16903 -0.169034,0 -0.540907,-0.5071 0,-0.16903 c 0.585981,4e-5 0.878973,-0.23661 0.878975,-0.70995 l -0.169034,-0.16903 0.169034,-0.16903 0.169033,0.16903 0.507101,0 0.878975,-0.16903 0.169034,1.04801 0.169033,0 c 0.383139,-0.36057 0.721206,-0.54087 1.014202,-0.54091 l 0,-0.33807 -0.676135,-0.16903 0.507101,-1.55511 c -0.292995,4e-5 -0.518373,-0.33802 -0.676134,-1.0142 l 0.338067,-0.5071 0.845168,0.33806 0.202841,-0.16903 -0.371874,-1.04801 0,-0.16903 m 8.451681,0 4.124421,0 0.338067,0.33806 -0.338067,0.33807 0,0.54091 0.169033,0 c 0.33805,5e-5 0.507083,-0.40563 0.507101,-1.21704 l 2.907379,0 0.169033,0.16903 0.202841,-0.16903 2.231244,0 c 0.06759,0.56349 0.236623,0.84521 0.507101,0.84517 l 0.169033,-0.16904 0.169034,0 -0.169034,-0.16903 0,-0.5071 4.293455,0 0,0.5071 0.169033,-0.16904 0.169034,0.16904 0.338067,0 0,-0.16904 -0.169034,-0.16903 0,-0.16903 6.186631,0 0.371874,0.33806 0,8.24885 -0.371874,0.33806 -4.462488,0 0,-0.5071 c -0.225408,4e-5 -0.338097,0.16908 -0.338067,0.5071 l -9.80395,0 -0.507101,-0.33806 -0.507101,0.33806 -6.355665,0 -0.371874,-0.33806 0,-1.35227 0.169034,-0.20284 -0.169034,-0.16904 0,-5.30765 0.371874,0 0,-0.5071 -0.371874,0 0,-0.70995 0.371874,-0.33806 m -6.017597,1.21704 -0.371874,0.67613 0.371874,0 0.338067,-0.33806 -0.338067,-0.33807 m 2.231244,0.33807 c 0.225368,0.90156 0.450746,1.35231 0.676134,1.35227 l 0.507101,-0.50711 c -0.225388,5e-5 -0.338077,-0.28167 -0.338067,-0.84516 l -0.169034,-0.16904 -0.169033,0 -0.507101,0.16904 m 4.969589,0.67613 0.507101,0.33807 0.169033,-0.5071 -0.169033,-0.16904 -0.169034,0 -0.338067,0.33807 m -8.417875,0.67614 0.169033,0 0.507101,-0.50711 -0.169033,0 -0.507101,0.50711 m 22.684313,-0.50711 c -2.9e-5,0.47334 -0.338095,0.70999 -1.014202,0.70995 l -0.169033,-0.20284 -0.169034,0.70994 1.014202,0 0.507101,-1.04801 0,-0.16904 -0.169034,0 m -8.417875,0.50711 -0.169033,0.70994 0.338067,0 0.338067,-0.33807 -0.507101,-0.37187 m -12.880362,0.37187 0,0.84517 -0.169034,0 -0.371874,-0.33807 0.169034,-0.16903 -0.507101,0 0,1.0142 -0.338068,0 0,0.33807 0.338068,0 c -7e-6,-0.40564 0.518362,-0.63102 1.555109,-0.67614 0.270446,-0.45071 0.552168,-0.67609 0.845168,-0.67613 l 0,-0.33807 -1.521302,0 m 9.094009,0.33807 0,0.67613 0.338067,-0.33807 0,-0.33806 -0.338067,0 m 10.142018,0.84516 0.507101,0 0,-0.5071 -0.507101,0.5071 m -12.373262,0.33807 -0.169034,0.16904 0,0.20284 0.169034,0.16903 0.169034,0 0.169033,-0.16903 0.507101,0.67613 0,1.0142 0.202841,0 0.5071,-0.16903 0,-0.16903 c -0.315545,-0.74371 -0.833914,-1.31842 -1.555109,-1.72415 m -8.586908,0.87898 0,0.16903 0.338067,0 0.169033,-0.5071 -0.169033,0 -0.338067,0.33807 m -2.772152,0.33806 0,0.33807 0.20284,0 0.845168,-0.16903 0,-0.5071 -1.048008,0.33806 m 5.341463,0 0.169033,0.84517 -0.338067,0 0,0.54091 0.169034,0 1.555109,-0.70994 0.169034,0 0,-0.16903 -0.845168,-0.16904 -0.540908,0 0,-0.33807 -0.338067,0 m -4.124421,0.16904 0,0.5071 0.338067,0 0,-0.5071 -0.338067,0 m 1.724143,0.67613 0,0.16904 0.338067,0 0.338068,-0.33807 -0.169034,-0.16903 -0.169034,0 -0.338067,0.33806 m 14.097405,-0.16903 0,0.33807 0.338067,0 0.338068,-0.33807 -0.676135,0 m -5.172429,0.33807 0,0.37187 0.338067,0 0.371874,-0.37187 -0.709941,0 m 9.29685,0 -0.338068,1.048 0.169034,0 0.507101,-0.5071 0,-0.5409 -0.338067,0 m -18.559893,0.5409 0,0.5071 0.338067,0 0,-0.5071 -0.338067,0 m 10.480085,0.16904 0,0.67613 0.169034,0 0.169033,-0.5071 -0.169033,-0.16903 -0.169034,0 m 10.480085,0.33806 0,0.33807 0.338067,0.33807 0,-0.67614 -0.338067,0 m -18.052792,1.38608 -1.014201,0 -0.371874,-0.33807 -0.507101,0.16904 0,0.67613 0.878975,0.16903 0.169033,-0.16903 1.724143,0.5071 0,-0.16903 c -9e-6,-0.22534 -0.180311,-0.33803 -0.540907,-0.33807 l 0,-0.16903 0.709941,-0.67614 1.014202,0 0.169033,-0.5409 -0.169033,-0.16904 -0.338068,0 -1.724143,1.04801 m -1.386075,2.40028 -0.169034,0.16903 0,0.16904 0.540908,0.5071 0.169033,-0.16904 0.338067,0 c 0.563437,4e-5 0.84516,0.23669 0.845169,0.70994 l 0.540907,0 0,-0.20284 c -0.473303,-0.49579 -1.228319,-0.8902 -2.26505,-1.18323 m 2.434084,1.38607 0.676134,0 -0.338067,-0.37187 -0.338067,0.37187 m -9.465884,-0.20284 0.338068,0 0.169033,0.87898 -0.169033,1.18323 -0.338068,-0.33806 0,-1.72415 m 7.572707,0.20284 0,0.33807 c 0.225371,4e-5 0.33806,0.22541 0.338067,0.67614 l 0.338068,0 -0.507101,-0.84517 0,-0.16904 -0.169034,0 m -5.848563,0.33807 c 0.247914,4e-5 0.58598,0.57475 1.014201,1.72414 l 0.169034,0 0.20284,-0.87897 c -0.360608,3e-5 -0.54091,-0.11266 -0.540907,-0.33807 l 0.878975,-0.16903 0.845168,0.5071 0.169033,0 0,0.5071 -0.338067,0.37187 -0.845168,0 c -3e-6,0.51841 -0.180306,0.91282 -0.540908,1.18324 l 0.169034,0 -0.169034,0.16903 0,0.16904 0.371874,1.04801 -0.540907,0.33806 -0.507101,-0.5071 -0.169034,0 -0.338067,0.33807 c -2e-6,0.879 0.39441,1.39737 1.183235,1.55511 l 0,0.16903 0.169034,-0.16903 0.20284,0 0.338068,0.33808 0,1.1832 c -0.585987,0 -0.878978,0.124 -0.878975,0.3719 l 0,0.169 c 0.202837,0.4508 0.608518,0.6762 1.217042,0.6762 -4e-6,-0.6761 0.112685,-1.0142 0.338067,-1.0142 l 0,0.169 0.507101,-0.169 0,-0.2029 c -5e-6,-0.2253 -0.169038,-0.338 -0.507101,-0.338 l -0.169034,-0.1691 0,-0.5071 0.338068,-0.50708 c 0.924045,3e-5 1.38607,0.39448 1.386076,1.18328 -0.225384,0 -0.338073,0.293 -0.338068,0.8789 l -0.371874,0 0,0.5071 c 1.510028,1.0593 2.265044,1.6904 2.265051,1.8932 -7e-6,0.2254 0.281715,0.3381 0.845168,0.3381 l 0.169034,0.169 0,0.879 -0.169034,0.8452 0.169034,0 0.878975,-0.3381 0.169033,0.169 0,-0.3381 c -9e-6,-0.2253 -0.236656,-0.338 -0.709941,-0.338 -9e-6,-0.2479 0.292983,-0.3719 0.878975,-0.3719 l 0,-0.169 1.014202,0.3718 0,-0.2028 0.169033,-0.6761 0.338068,0 0,3.9554 -0.169034,1.217 0.169034,1.5213 0,11.3591 c -1.1e-5,0.4057 -0.225389,0.8677 -0.676135,1.386 l 0,0.3381 0.169034,-0.169 0.507101,0 0,0.169 -0.169034,0.169 0.169034,0.8452 0,2.2313 -1.014202,1.048 -0.845168,0 -0.540908,-0.3381 0.169034,-0.169 0,-0.5409 -1.014202,0.3718 0,0.3381 -1.048009,0 0,-0.7099 0.709942,-0.3381 0.169033,0 0,-0.169 -0.338067,-0.3381 -0.20284,0 c -7e-6,0.293 -0.338074,0.6423 -1.014202,1.048 l -1.048009,-0.2028 c 0.135222,-0.7889 0.315524,-1.1833 0.540908,-1.1833 l 0.845168,0 c -6e-6,-0.338 0.292985,-0.5071 0.878975,-0.5071 l 0.676134,-1.048 0,-0.169 -0.676134,0 0,-1.0142 0.676134,0 1.014202,0.8451 0.371874,0 0,-0.169 c -0.585992,0 -0.878983,-0.3493 -0.878975,-1.048 l 0,-0.169 c 0.473286,0 0.822621,-0.2818 1.048009,-0.8452 l 0.169033,0 0,0.3381 0.338068,0 0,-0.5071 -0.338068,-1.3861 -0.338067,0 -0.540907,1.048 0.371874,0.3381 -1.893177,1.3522 -0.540908,-0.169 0,0.169 c -6e-6,0.5184 -0.450762,0.8677 -1.352269,1.048 -0.247921,-0.5183 -0.597257,-0.8 -1.048008,-0.8451 l 0,-0.5409 0.338067,-0.3381 0.169034,0 0.878975,0.169 -0.169034,-0.169 0,-0.169 0.338067,-1.0142 -0.878975,0 0.202841,0.169 0,0.3381 -0.540908,0 -0.338067,-0.71 0,-0.169 -0.169034,0 c -4e-6,0.8114 -0.112693,1.217 -0.338067,1.217 l -0.338067,0 -0.540908,-0.169 0,0.169 -0.338067,1.0142 -0.169034,-0.169 -0.169034,0 -0.338067,0.3719 c 0.811359,0 1.217039,0.2254 1.217042,0.6761 l 0.169034,0.8452 -1.386076,0.169 0.169034,0.169 0,1.2171 c 0.698669,0 1.048005,0.1127 1.048008,0.3381 l 0,1.048 -1.048008,0 c -0.202842,0 -0.371876,-0.3494 -0.507101,-1.048 -0.811362,0 -1.217043,-0.1127 -1.217042,-0.3381 l 0,-1.2171 0.338067,0 0,-0.169 c -0.450757,0 -0.676135,-0.1127 -0.676135,-0.3381 l 0,-3.0764 1.217043,-1.048 -1.217043,0 0,-0.169 0.338068,-0.5071 0,-0.5071 -0.338068,-0.5409 0,-10.142 c 0,-0.2254 0.169034,-0.3381 0.507101,-0.3381 l 0,-0.169 c -0.338067,0 -0.507101,-0.1127 -0.507101,-0.3381 l 0,-3.7864 0.338068,-0.338 0.169033,0 0.169034,0.169 0.169034,0 0,-0.169 -0.845169,-0.879 0,-6.69373 0.338068,0 0.338067,0.33806 -0.169034,0 0.169034,0.54091 0.371874,0 0,-0.87897 c -10e-7,-0.22535 0.338066,-0.33804 1.014202,-0.33807 l 0,-0.16904 -1.217042,-0.33806 0,-0.37188 0.20284,-0.16903 0,-0.16903 -0.20284,-0.16904 c 0.428217,-0.2028 0.721208,-0.54087 0.878975,-1.0142 m 6.524698,0.84517 0,0.5071 0.338067,0 -0.169034,-0.5071 -0.169033,0 m 0.338067,0.87897 c -9e-6,0.58602 -0.169042,0.92409 -0.507101,1.01421 l -0.676134,-0.16904 -1.217043,0.16904 0,0.5071 2.400278,-0.5071 0.338067,-0.33807 0,-0.33807 -0.338067,-0.33807 m 4.462488,3.07642 c 0.721196,3e-5 1.239566,0.5184 1.555109,1.55512 l -0.169033,0.169 0.338067,0 0.169034,-0.169 0.169033,0.169 0.202841,0 0.5071,-0.50708 -0.878974,-0.87898 0,-0.33806 0.169033,0 0.202841,0.16903 0.169033,0 0.169034,-0.16903 0.845168,0.16903 1.386076,0 0.845168,-0.16903 0,0.16903 0.169034,-0.16903 0.540907,0 0.507101,0.16903 0.845168,-0.16903 2.941185,0 1.352269,0.33806 0.371874,-0.33806 0.169034,0 0.169034,0.16903 0.169033,-0.16903 6.862766,0 0.338067,0.33806 0,0.16904 -0.169034,0 -0.845168,-0.16904 -0.169033,0.16904 0,0.16903 1.386075,0.37187 0.169034,-0.5409 0.338067,0 0,3.11022 c -0.833932,-0.1127 -1.46499,-0.4057 -1.893176,-0.879 l -1.048009,0 0,-0.338 -1.014202,0 c -3e-5,-0.4508 -0.236676,-0.6762 -0.709941,-0.6762 l 0,0.1691 c 0.270424,1.0367 0.563416,1.5551 0.878975,1.5551 0.338037,0 0.50707,0.169 0.507101,0.5071 l 0.169033,0.169 0.169034,0 c -3.1e-5,-0.4507 0.180272,-0.6761 0.540908,-0.6761 l 0.507101,-0.3381 1.014201,0.6761 0.371874,0 0.169034,-0.169 0.169034,0 0.169033,1.1832 0,2.2651 -0.169033,0.169 0.169033,0.169 0,0.1691 -0.169033,1.1832 -1.217043,-0.169 -0.338067,0.3719 -0.338067,0 0,-0.2029 -1.217042,0.2029 -2.06221,0 -0.169034,-0.2029 -0.169034,0.2029 -1.217042,0 -0.169034,-0.2029 -0.169033,0.2029 -1.014202,0 -0.709941,-0.2029 -0.676135,0.2029 -1.217042,0 -0.338067,-0.3719 -1.352269,0.3719 -4.496295,0 c -0.225395,0 -0.450773,-0.3494 -0.676134,-1.048 l -0.169034,0 -0.338067,0.5071 -0.540908,-0.1691 0,0.1691 c -1.5e-5,0.3606 -0.281737,0.5409 -0.845168,0.5409 l -1.014202,0 0,-0.3719 0.845168,0 0,-0.169 -0.169033,-0.1691 0.169033,-0.5071 0.169034,0 0.169034,0.1691 0.169033,0 0.169034,-0.1691 0,-0.8452 c -1.5e-5,-0.2478 -0.169048,-0.3718 -0.507101,-0.3718 l -0.169034,0.169 -0.169033,0 -0.507101,-0.169 0.169033,0.169 -0.169033,0.2028 0,0.1691 0.169033,0.5071 -0.338067,0.8452 -0.371874,0 0,-2.0623 0.169034,-0.169 -0.169034,-0.169 0,-3.6173 0.169034,0 c 0.247903,0 0.428205,0.462 0.540907,1.386 l 0.169034,0 c -1.4e-5,-0.6986 0.112675,-1.1606 0.338067,-1.386 l 0,-0.1691 -1.048008,-1.01418 0,-0.54091 0.20284,-0.16903 -0.20284,-0.16904 0,-0.33806 m -12.204228,0.33806 -0.169034,0.54091 0.169034,0.16903 0.20284,0 0.338067,-0.5409 -0.169033,-0.16904 -0.371874,0 m 17.714724,0.33807 0,0.20284 0.507101,-0.20284 0,-0.33807 -0.169033,0 -0.338068,0.33807 m 0.709942,-0.16903 0,0.37187 0.169033,0 0.507101,-0.20284 0,-0.33807 -0.169034,0 -0.5071,0.16904 m -9.634918,0.5409 0.338068,0.33807 0.338067,0 0,-0.16903 -0.169034,-0.54091 -0.169033,0 -0.338068,0.37187 m 16.497683,0 c 0.338041,3e-5 0.743721,0.22541 1.217042,0.67612 -2.7e-5,-0.33802 0.169006,-0.50705 0.507101,-0.50708 -2.8e-5,0.18033 0.394384,0.46208 1.183235,0.84518 l 0,-0.3381 c -0.540936,0 -1.048036,-0.34929 -1.521302,-1.04799 l -1.048009,0 -0.338067,0.37187 m -18.052792,0.33807 0,0.16905 0.169034,0.5071 0.676134,0 0,-0.3381 -0.676134,-0.33805 -0.169034,0 m 10.987186,0.33805 0,0.5071 0.371874,0 0,-0.169 -0.371874,-0.3381 m -3.245446,0.3381 c -1.5e-5,0.6311 0.281707,1.0931 0.845169,1.3861 l 0.878974,-1.2171 0,-0.169 -0.169033,0 c -1.8e-5,0.2254 -0.236664,0.3381 -0.709941,0.3381 l 0,0.338 -0.169034,0 0,-0.338 -0.338067,-0.3381 -0.338068,0 m -14.435472,0.6761 -0.169033,0.2029 0,0.5071 0.507101,-0.5071 -0.169034,-0.2029 -0.169034,0 m 22.684314,0 0,0.3719 0.845168,0 0,-0.3719 -0.169034,0.2029 -0.169033,0 -0.507101,-0.2029 m -5.510497,0.3719 0,0.169 0.169034,0.5071 0.169034,0 0.371874,-0.338 -0.709942,-0.3381 m 8.958783,0.3381 0.169033,0.6761 0.338068,0 0.338067,-0.3381 -0.338067,-0.338 -0.507101,0 m -12.576102,0.338 0,0.3381 0.371874,0 c -1.6e-5,0.2254 0.169018,0.3381 0.5071,0.3381 l 0,1.217 0.338068,0 0.169033,-0.879 c -0.653612,-0.6761 -1.115637,-1.0141 -1.386075,-1.0142 m 12.745135,0.6762 0,0.7099 0.169034,0 0,-0.7099 -0.169034,0 m 3.245446,0.338 0.169034,0.879 0.540907,-0.5071 -0.371874,-0.3719 -0.338067,0 m -13.049396,0.3719 0.338067,0.5071 -0.845168,0.3381 c -1.8e-5,0.1803 0.22536,0.3493 0.676134,0.5071 -1.8e-5,-0.1803 0.281705,-0.3493 0.845169,-0.5071 l 0.169033,0.169 -0.169033,-0.6761 -0.169034,0.169 -0.338067,0 0,-0.5071 -0.507101,0 m 7.200832,0.3381 0,0.6761 0.540908,0.169 0.338067,-1.0142 -0.878975,0.1691 m -22.684313,1.386 0.507101,0 0,0.1691 -0.845168,0.169 0,0.3381 0.338067,0 0,0.6761 0.169034,0.879 -1.014202,0.3381 0,-0.1691 -0.878975,0.1691 0,0.169 0.169034,0.169 0,0.1691 1.724143,-0.3381 0,0.3381 0.338067,0 0,-1.2171 0.878975,0 -0.169034,-0.6761 0.169034,-0.5071 1.183235,0 0.540908,0.5071 -0.169034,0.169 0,0.3381 0.338068,0.3719 0,-0.5409 0.338067,0 0.676134,0.7099 0,0.169 -0.169033,0.1691 0.169033,0.169 0,0.169 -0.169033,0.8452 0.338067,0 0.169034,-1.3523 0.20284,0.1691 0.338067,0 0,-0.1691 c -0.225385,0 -0.338074,-0.2929 -0.338067,-0.8789 -0.58599,-0.068 -0.878981,-0.2367 -0.878975,-0.5071 l 0.676135,-1.3861 -0.507101,0 0,0.3718 -0.507101,0 -0.169034,-0.2028 -0.169033,0 0.169033,-0.8452 0,-0.169 -0.338067,0 -0.169034,1.0142 -0.169033,-0.169 -0.202841,0 -0.169033,0.5409 -1.183236,0 0,0.6761 -0.709941,0 0,-0.3381 0.371874,0 0,-0.169 -0.169034,-0.5409 0.169034,0 c 0.27045,0 0.495828,-0.3944 0.676134,-1.1832 l -0.676134,0 -0.878975,1.386 m 12.373262,-0.7099 0,0.169 0.169034,0 0.878974,-0.169 0,-0.3381 -0.169033,0 -0.878975,0.3381 m 12.373262,-0.169 0,0.338 0.540907,1.2171 0.169034,0 0,-1.048 c -0.225406,0 -0.338095,-0.169 -0.338067,-0.5071 l -0.371874,0 m -4.462488,1.7241 0,0.5071 0.169033,0 0.540908,-0.169 0,-0.169 -0.709941,-0.1691 m 4.834362,0 c -2.8e-5,0.3381 -0.123986,0.5071 -0.371874,0.5071 l 0,0.3381 0.709941,-0.3381 0,-0.5071 -0.338067,0 m -23.563289,1.3861 c -3e-6,0.5635 -0.112692,0.8452 -0.338067,0.8452 l -0.507101,-0.1691 c 0.225375,0.2705 0.338064,0.6762 0.338068,1.2171 l 0.338067,0 c 0.202836,0 0.37187,-0.293 0.507101,-0.879 l -0.169034,-0.169 0.676135,-0.3381 0,0.3381 0.169033,0 0,-0.6762 -1.014202,-0.169 m 5.341463,0.169 0,0.6762 c 0.157756,0 0.326789,-0.2254 0.507101,-0.6762 l -0.507101,0 m -0.878975,1.0142 0,0.1691 0.338068,0.338 0,-0.5071 -0.338068,0 m -7.369866,0.71 0,0.338 0.507101,0.1691 0.169034,-0.1691 0,-0.8789 -0.169034,0 -0.507101,0.5409 m 6.186631,1.0142 0,0.5071 0.169034,0 0.5071,-0.1691 0,-0.338 -0.676134,0 m 1.690336,0.5071 0,0.169 0.202841,1.217 0.5071,0 c -9e-6,-0.5634 0.281713,-0.8451 0.845169,-0.8451 -0.06762,-0.4508 -0.405691,-0.8001 -1.014202,-1.048 l -0.540908,0.5071 m -7.200832,0.5409 0,0.338 0.5071,0.5071 0.878975,-0.338 0,-0.1691 -0.371874,-0.338 -0.845168,0.169 -0.169033,-0.169 m 4.293454,0.338 0,0.3381 0.676134,0 0.540908,-0.5071 0,-0.169 -0.20284,0 -1.014202,0.338 m 2.738345,0.8452 -0.169034,0.71 0.338067,0 0,-0.71 -0.169033,0 m -7.369867,0.879 -0.169033,0.169 0,0.1691 0.169033,0 0,-0.1691 0.169034,0.1691 0.338067,0 0,-0.1691 -0.507101,-0.169 m 0.676135,0.3381 0,0.169 0.507101,0.5071 0,-0.169 -0.507101,-0.5071 m 4.969589,0 0,0.338 1.048008,0.1691 0,0.169 c -8e-6,0.3831 -0.169041,0.7888 -0.507101,1.217 l 0,0.1691 0.338067,0 c 0.22537,0 0.338059,-0.2367 0.338068,-0.71 l 1.048008,-0.169 0,-0.8452 -2.26505,-0.338 m -3.41448,0.8451 0,0.1691 0.676135,0 0,-0.3381 -0.169034,0 -0.507101,0.169 m -2.772151,0.879 0,0.3381 0.371874,0 -0.169034,0.169 0,0.169 0.169034,0.5071 -0.169034,0 -0.540908,0.1691 0,0.169 0.540908,0 c 0.405679,-0.7888 1.149427,-1.1832 2.231244,-1.1832 l 0,-0.3381 -1.555109,0.3381 -0.338068,-0.3381 -0.540907,0 m 9.127816,0 -0.169034,0.169 0,0.5071 c 0.338057,0 0.507091,0.2254 0.507101,0.6762 l 0.507101,0 c -0.450767,-0.5184 -0.676145,-0.9128 -0.676135,-1.1833 l 0.338068,0 0,-0.169 -0.507101,0 m -8.248841,2.9074 0,0.6761 0.845168,-1.0142 -0.169034,-0.169 -0.676134,0.5071 m 7.74174,0.338 c -1e-5,0.586 -0.293001,0.879 -0.878975,0.879 l 0,0.1691 1.386076,0.169 0,-1.048 -0.507101,-0.1691 m -7.403673,1.2171 0.338067,0.3381 0.507101,-0.1691 0,-0.169 -0.845168,0 m -0.507101,0.5071 0,0.169 0.338067,0.3381 0.169034,0 0,-0.3381 -0.169034,-0.169 -0.338067,0 m 0.507101,1.048 0,0.169 0.338067,0.3381 0.338067,-0.3381 -0.676134,-0.169 m -0.845168,2.2312 c -2e-6,0.3381 -0.180304,0.5071 -0.540908,0.5071 l 0.371874,0.3381 -0.20284,0.169 0,0.3381 0.878975,0 0,-0.169 c -0.22538,-0.2479 -0.338069,-0.6423 -0.338068,-1.1833 l -0.169033,0 m 3.076412,0.8452 0,0.879 -0.338068,0.3381 -0.338067,-1.0481 0.169034,-0.169 0.507101,0 m 5.172429,1.7242 0,0.169 0.169033,0 c 0.676125,-0.1127 1.014192,-0.2817 1.014202,-0.5071 l 0,-0.169 -0.676134,0 -0.507101,0.5071 m -9.127816,1.386 0.169033,0.1691 0,0.169 -0.338067,0.3381 -0.169034,-0.1691 0,-0.169 0.338068,-0.3381"
         style="fill:#ffffff;font-family:Capture it;-inkscape-font-specification:Capture it"
         id="path3768"
         inkscape:connector-curvature="0" />
    </g>
  </g>
</svg>
