<?xml version="1.0" encoding="UTF-8" standalone="no"?>
<!-- Created with Inkscape (http://www.inkscape.org/) -->

<svg
   xmlns:dc="http://purl.org/dc/elements/1.1/"
   xmlns:cc="http://creativecommons.org/ns#"
   xmlns:rdf="http://www.w3.org/1999/02/22-rdf-syntax-ns#"
   xmlns:svg="http://www.w3.org/2000/svg"
   xmlns="http://www.w3.org/2000/svg"
   xmlns:xlink="http://www.w3.org/1999/xlink"
   xmlns:sodipodi="http://sodipodi.sourceforge.net/DTD/sodipodi-0.dtd"
   xmlns:inkscape="http://www.inkscape.org/namespaces/inkscape"
   width="96"
   height="96"
   id="svg2"
   version="1.1"
   inkscape:version="0.48.4 r9939"
   sodipodi:docname="gdeb.svg">
  <sodipodi:namedview
     id="base"
     pagecolor="#ffffff"
     bordercolor="#666666"
     borderopacity="1.0"
     inkscape:pageopacity="0.0"
     inkscape:pageshadow="2"
     inkscape:zoom="4.9899379"
     inkscape:cx="63.197939"
     inkscape:cy="46.610601"
     inkscape:document-units="px"
     inkscape:current-layer="layer1"
     showgrid="true"
     inkscape:snap-page="true"
     inkscape:snap-global="false"
     inkscape:snap-center="true"
     inkscape:snap-object-midpoints="false"
     showguides="true"
     inkscape:guide-bbox="true"
     inkscape:snap-bbox="true"
     inkscape:object-paths="true"
     inkscape:object-nodes="true"
     inkscape:window-width="1305"
     inkscape:window-height="744"
     inkscape:window-x="61"
     inkscape:window-y="24"
     inkscape:window-maximized="1"
     inkscape:snap-midpoints="false"
     inkscape:snap-grids="true"
     inkscape:snap-to-guides="false">
    <inkscape:grid
       snapvisiblegridlinesonly="true"
       enabled="true"
       visible="true"
       empspacing="5"
       id="grid3002"
       type="xygrid" />
  </sodipodi:namedview>
  <defs
     id="defs4">
    <linearGradient
       id="linearGradient3798">
      <stop
         id="stop3800"
         offset="0"
         style="stop-color:#000000;stop-opacity:0.46153846;" />
      <stop
         id="stop3802"
         offset="1"
         style="stop-color:#000000;stop-opacity:0;" />
    </linearGradient>
    <linearGradient
       id="linearGradient3786">
      <stop
         id="stop3788"
         offset="0"
         style="stop-color:#dd7e16;stop-opacity:1;" />
      <stop
         id="stop3790"
         offset="1"
         style="stop-color:#fcad56;stop-opacity:1;" />
    </linearGradient>
    <linearGradient
       gradientUnits="userSpaceOnUse"
       y2="-957.36218"
       x2="40"
       y1="-1047.3622"
       x1="40"
       id="linearGradient3792"
       xlink:href="#linearGradient3786"
       inkscape:collect="always" />
    <linearGradient
       spreadMethod="repeat"
       gradientUnits="userSpaceOnUse"
       y2="-1032.3622"
       x2="10"
       y1="-1032.3622"
       x1="5"
       id="linearGradient3804"
       xlink:href="#linearGradient3798"
       inkscape:collect="always" />
  </defs>
  <metadata
     id="metadata7">
    <rdf:RDF>
      <cc:Work
         rdf:about="">
        <dc:format>image/svg+xml</dc:format>
        <dc:type
           rdf:resource="http://purl.org/dc/dcmitype/StillImage" />
        <dc:title />
      </cc:Work>
    </rdf:RDF>
  </metadata>
  <g
     transform="translate(0,-956.36218)"
     id="layer1"
     inkscape:groupmode="layer"
     inkscape:label="Layer 1">
    <rect
       ry="0"
       y="956.36218"
       x="0"
       height="96"
       width="96"
       id="rect3775"
       style="fill:#ffffff;fill-opacity:0;fill-rule:nonzero;stroke:none" />
    <path
       sodipodi:nodetypes="sssssssss"
       inkscape:connector-curvature="0"
       id="rect3772"
       d="m 3.353015,956.30662 c -1.884176,0 -3.4111555,1.43156 -3.4111555,3.19799 l 0,83.65949 c 0,1.7665 1.5269795,3.1981 3.4111555,3.1981 l 89.23583,0 c 1.884174,0 3.411155,-1.4316 3.411155,-3.1981 l 0,-83.65949 c 0,-1.76643 -1.526981,-3.19799 -3.411155,-3.19799 z"
       style="fill:#000000;fill-opacity:0.09589041;fill-rule:nonzero;stroke:none" />
    <path
       inkscape:connector-curvature="0"
       id="rect3785"
       d="m 1.0459761,1041.8066 0,7.4219 c 0,1.7392 1.461916,3.1337 3.2852054,3.1337 l 86.3836135,0 c 1.823288,0 3.285205,-1.3945 3.285205,-3.1337 l 0,-7.4219 -92.9540239,0 z"
       style="fill:#000000;fill-opacity:0.18721463;fill-rule:nonzero;stroke:none" />
    <path
       inkscape:connector-curvature="0"
       id="rect3783"
       d="m 1.0459761,1041.8066 0,5.3807 c 0,1.762 1.461916,3.1749 3.2852054,3.1749 l 86.3836135,0 c 1.823288,0 3.285205,-1.4129 3.285205,-3.1749 l 0,-5.3807 -92.9540239,0 z"
       style="fill:#000000;fill-opacity:0.38356168;fill-rule:nonzero;stroke:none" />
    <path
       sodipodi:nodetypes="csssscc"
       inkscape:connector-curvature="0"
       id="rect3781"
       d="m 1,1042.3622 0.045976,2.7457 c 0.03024,1.8058 1.461916,3.2543 3.2852054,3.2543 l 86.3836136,0 c 1.823288,0 3.285205,-1.4481 3.285205,-3.2543 l -0.04598,-2.7457 z"
       style="fill:#000000;fill-opacity:0.38356168;fill-rule:nonzero;stroke:none" />
    <rect
       transform="scale(1,-1)"
       ry="3.1511393"
       y="-1046.3622"
       x="1.045977"
       height="89"
       width="92.954025"
       id="rect2985"
       style="fill:url(#linearGradient3792);fill-opacity:1;fill-rule:nonzero;stroke:none" />
    <path
       style="fill:#000000;fill-opacity:0.4520548;fill-rule:evenodd;stroke:none"
       d="M 1.03125 47 L 1 47 L 1 53 L 94 53 L 94 47.78125 C 94 48.2266 93.909513 48.645806 93.75 49.03125 C 93.590487 49.416694 93.347923 49.77125 93.0625 50.0625 C 92.777077 50.35375 92.44023 50.587231 92.0625 50.75 C 91.68477 50.912769 91.280183 51 90.84375 51 L 4.1875 51 C 3.7510672 51 3.3464796 50.912769 2.96875 50.75 C 2.5910204 50.587231 2.2541731 50.35375 1.96875 50.0625 C 1.6833269 49.77125 1.4407632 49.416694 1.28125 49.03125 C 1.1217368 48.645806 1.03125 48.2266 1.03125 47.78125 L 1.03125 47 z "
       id="path3778"
       transform="translate(0,956.36218)" />
    <rect
       style="fill:url(#linearGradient3804);fill-opacity:1;fill-rule:nonzero;stroke:none;opacity:0.25514403000000002"
       id="rect3794"
       width="92.954025"
       height="89"
       x="1.045977"
       y="-1046.3622"
       ry="3.1511393"
       transform="scale(1,-1)" />
    <path
       inkscape:connector-curvature="0"
       id="path3779"
       d="m 94,960.58284 c 0,-0.89068 -0.336682,-1.71472 -0.90625,-2.29592 -0.569568,-0.58119 -1.377134,-0.92474 -2.25,-0.92474 l -86.65625,0 c -0.8728656,0 -1.6491816,0.34355 -2.21875,0.92474 -0.5695684,0.5812 -0.9375,1.40524 -0.9375,2.29592 l 0,43.55866 c 0,1.7814 1.4105189,3.2207 3.15625,3.2207 l 86.65625,0 c 1.745731,0 3.15625,-1.4393 3.15625,-3.2207 l 0,-43.55866 z"
       style="fill:#ffffff;fill-opacity:0.23744291;fill-rule:nonzero;stroke:none" />
    <path
       sodipodi:nodetypes="cccccccccccc"
       inkscape:connector-curvature="0"
       id="rect3782"
       transform="translate(0,956.36218)"
       d="m 40,1 0,64 2,-2 2,2 2,-2 2,2 2,-2 1,2 2,-2 2,2 0,-64 z"
       style="fill:#000000;fill-opacity:0.27397263;fill-rule:evenodd;stroke:none" />
    <rect
       transform="matrix(0,1,-1,0,0,0)"
       style="fill:#090800;fill-opacity:0.57990866;fill-rule:evenodd;stroke:none"
       id="rect3784"
       width="49.999996"
       height="3"
       x="957.36218"
       y="-49" />
    <rect
       y="-47"
       x="957.36218"
       height="1"
       width="49.999996"
       id="rect3813"
       style="fill:#ffffff;fill-opacity:0.44292238;fill-rule:evenodd;stroke:none"
       transform="matrix(0,1,-1,0,0,0)" />
    <rect
       transform="matrix(0,1,-1,0,0,0)"
       style="fill:#ffffff;fill-opacity:0.44292238;fill-rule:evenodd;stroke:none"
       id="rect3815"
       width="49.999996"
       height="1"
       x="957.36218"
       y="-49" />
    <rect
       style="fill:#ffffff;fill-opacity:1;fill-rule:evenodd;stroke:none"
       id="rect4614"
       width="29"
       height="29"
       x="6"
       y="1013.3622" />
    <path
       style="fill:#000000;fill-opacity:0.36986299;fill-rule:evenodd;stroke:none"
       d="M 40 1 L 55 11 L 55 6 L 47.5 1 L 40 1 z M 40 6 L 40 11 L 55 21 L 55 16 L 40 6 z M 40 16 L 40 21 L 55 31 L 55 26 L 40 16 z M 40 26 L 40 31 L 55 41 L 55 36 L 40 26 z M 40 36 L 40 41 L 55 51 L 55 46 L 40 36 z M 40 46 L 40 51 L 55 61 L 55 56 L 40 46 z M 40 56 L 40 61 L 44.8125 64.1875 L 46 63 L 48 65 L 50 63 L 51 65 L 52 64 L 40 56 z "
       transform="translate(0,956.36218)"
       id="path3839" />
    <path
       style="font-size:2.94822454000000000px;font-style:normal;font-variant:normal;font-weight:bold;font-stretch:normal;text-align:end;line-height:125%;letter-spacing:0px;word-spacing:0px;text-anchor:end;fill:#9e0000;fill-opacity:1;stroke:none;font-family:Andale Mono;-inkscape-font-specification:Helvetica Neue LT Com Bold"
       d="M 60.25 4.28125 L 58.625 5 L 57.5625 4.34375 L 57.5625 4.78125 L 58.65625 5.4375 L 57.5625 5.4375 L 57.5625 5.8125 L 60.25 5.8125 L 60.25 5.4375 L 59.375 5.4375 L 59.03125 5.21875 L 60.25 4.71875 L 60.25 4.28125 z M 60.25 5.9375 L 57.5625 6.5625 L 57.5625 6.9375 L 60.25 7.5625 L 60.25 7.1875 L 59.65625 7.0625 L 59.65625 6.4375 L 60.25 6.3125 L 60.25 5.9375 z M 59.1875 6.53125 L 59.1875 6.96875 L 58.21875 6.75 L 59.1875 6.53125 z M 59.4375 7.59375 C 59.336994 7.5937514 59.262881 7.606552 59.1875 7.625 C 59.109608 7.6434508 59.02403 7.6567524 58.96875 7.6875 C 58.913472 7.7167128 58.881442 7.7443525 58.84375 7.78125 C 58.806061 7.8166125 58.772616 7.8693524 58.75 7.90625 C 58.724875 7.9416124 58.700065 7.9677146 58.6875 8 C 58.672425 8.0322874 58.66379 8.0737641 58.65625 8.09375 C 58.613536 8.19676 58.590141 8.2791779 58.5625 8.34375 C 58.53235 8.4067861 58.493879 8.4318518 58.46875 8.46875 C 58.441112 8.5041119 58.407667 8.5502009 58.375 8.5625 C 58.342337 8.5748001 58.302768 8.5625005 58.25 8.5625 C 58.194723 8.5625005 58.162692 8.577875 58.125 8.5625 C 58.084799 8.547126 58.025129 8.5230623 58 8.5 C 57.974875 8.4754014 57.978803 8.4354621 57.96875 8.40625 C 57.958702 8.3770391 57.937502 8.3417122 57.9375 8.3125 C 57.937502 8.2694522 57.956189 8.225937 57.96875 8.1875 C 57.981316 8.1490646 58.0011 8.1229624 58.03125 8.09375 C 58.061404 8.0645394 58.103486 8.0481629 58.15625 8.03125 C 58.209018 8.0128016 58.263346 8.0030759 58.34375 8 L 58.34375 7.65625 C 58.187966 7.6562514 58.076798 7.6818526 57.96875 7.71875 C 57.858194 7.7541126 57.757858 7.7822533 57.6875 7.84375 C 57.617147 7.9052491 57.561405 7.9825537 57.53125 8.0625 C 57.498588 8.1409108 57.500003 8.2264036 57.5 8.3125 C 57.500003 8.3862982 57.498588 8.457453 57.53125 8.53125 C 57.563918 8.605048 57.61966 8.6603273 57.6875 8.71875 C 57.755345 8.7771733 57.834482 8.8381014 57.9375 8.875 C 58.03801 8.9103615 58.174304 8.9375001 58.3125 8.9375 C 58.438136 8.9375001 58.53957 8.9026742 58.625 8.875 C 58.710433 8.8457886 58.78596 8.8273737 58.84375 8.78125 C 58.901543 8.7351268 58.931061 8.6834234 58.96875 8.625 C 59.003929 8.5665774 59.037374 8.4989985 59.0625 8.4375 C 59.090141 8.3775401 59.133637 8.3084238 59.15625 8.25 C 59.176353 8.1915778 59.186086 8.1398744 59.21875 8.09375 C 59.248903 8.0476275 59.298523 8.0276751 59.34375 8 C 59.388979 7.9707895 59.427133 7.9375011 59.5 7.9375 C 59.567843 7.9375011 59.642272 7.9472268 59.6875 7.96875 C 59.730216 7.9902753 59.756124 8.0302146 59.78125 8.0625 C 59.806377 8.0947874 59.8337 8.1193521 59.84375 8.15625 C 59.851288 8.1931496 59.84375 8.2177144 59.84375 8.25 C 59.84375 8.2991991 59.830089 8.3616646 59.8125 8.40625 C 59.792399 8.4492992 59.756441 8.4974267 59.71875 8.53125 C 59.678548 8.5635369 59.656568 8.5737636 59.59375 8.59375 C 59.530934 8.6137373 59.434207 8.6250004 59.34375 8.625 L 59.34375 8.96875 C 59.509588 8.9702875 59.660642 8.9759363 59.78125 8.9375 C 59.901859 8.8975265 59.984607 8.8458231 60.0625 8.78125 C 60.140393 8.7166775 60.21231 8.6158101 60.25 8.53125 C 60.28769 8.4451534 60.3125 8.3719602 60.3125 8.28125 C 60.3125 8.1690171 60.292716 8.0533107 60.25 7.96875 C 60.204772 7.882654 60.137881 7.8381368 60.0625 7.78125 C 59.984607 7.7228282 59.886783 7.6542129 59.78125 7.625 C 59.675718 7.5957899 59.560622 7.5937514 59.4375 7.59375 z M 57.5625 9.1875 L 57.5625 9.5625 L 59.21875 9.5625 C 59.419765 9.5625012 59.560769 9.5758028 59.65625 9.625 C 59.74922 9.6741995 59.8125 9.7458552 59.8125 9.875 C 59.8125 9.9487984 59.782665 10.017915 59.75 10.0625 C 59.717336 10.105549 59.68028 10.131651 59.625 10.15625 C 59.569722 10.18085 59.507856 10.211063 59.4375 10.21875 C 59.367146 10.226438 59.291619 10.218751 59.21875 10.21875 L 57.5625 10.21875 L 57.5625 10.59375 L 59.21875 10.59375 C 59.585602 10.59375 59.85285 10.527709 60.03125 10.40625 C 60.207138 10.283255 60.3125 10.097931 60.3125 9.875 C 60.3125 9.6551458 60.209651 9.4995346 60.03125 9.375 C 59.85285 9.2504681 59.58309 9.1875016 59.21875 9.1875 L 57.5625 9.1875 z M 60.25 10.84375 C 60.21231 10.860664 60.149029 10.865777 60.09375 10.875 C 60.038471 10.882689 59.995292 10.870389 59.9375 10.875 C 59.877196 10.878076 59.807792 10.904714 59.75 10.90625 C 59.692209 10.907789 59.636466 10.904714 59.59375 10.90625 C 59.525908 10.909326 59.471581 10.897027 59.40625 10.90625 C 59.338408 10.913939 59.276543 10.950302 59.21875 10.96875 C 59.160959 10.987201 59.102704 11.00204 59.0625 11.03125 C 59.019786 11.060463 58.988853 11.080415 58.96875 11.125 C 58.908447 11.032754 58.834335 10.977475 58.71875 10.9375 C 58.603168 10.89599 58.439551 10.875002 58.28125 10.875 C 58.180745 10.875002 58.090459 10.88319 58 10.90625 C 57.909546 10.927776 57.849095 10.956953 57.78125 11 C 57.71341 11.041512 57.662693 11.096291 57.625 11.15625 C 57.5848 11.214674 57.562503 11.301204 57.5625 11.375 L 57.5625 12.25 L 60.25 12.25 L 60.25 11.875 L 59.1875 11.875 L 59.1875 11.53125 C 59.187501 11.440541 59.215921 11.383725 59.28125 11.34375 C 59.346581 11.303777 59.453041 11.262301 59.59375 11.25 C 59.646517 11.245389 59.720946 11.251539 59.78125 11.25 L 59.9375 11.21875 C 59.992779 11.214139 60.040984 11.223364 60.09375 11.21875 C 60.144004 11.212601 60.207284 11.198263 60.25 11.1875 L 60.25 10.84375 z M 58.375 11.25 C 58.510687 11.250001 58.627197 11.269453 58.6875 11.3125 C 58.747806 11.354012 58.781251 11.418516 58.78125 11.5 L 58.78125 11.875 L 58 11.875 L 58 11.5 C 58.000002 11.418516 58.033448 11.354012 58.09375 11.3125 C 58.151544 11.269453 58.244342 11.250001 58.375 11.25 z M 59.75 13.09375 L 59.75 13.90625 L 57.5625 13.90625 L 57.5625 14.25 L 60.25 14.25 L 60.25 13.09375 L 59.75 13.09375 z M 59.75 14.5 L 59.75 15.40625 L 59.09375 15.40625 L 59.09375 14.59375 L 58.625 14.59375 L 58.625 15.40625 L 58.0625 15.40625 L 58.0625 14.53125 L 57.5625 14.53125 L 57.5625 15.75 L 60.25 15.75 L 60.25 14.5 L 59.75 14.5 z M 58.4375 16.0625 C 58.284228 16.071726 58.149348 16.113203 58.03125 16.15625 C 57.913156 16.197763 57.799158 16.249466 57.71875 16.3125 C 57.638347 16.375537 57.602706 16.451304 57.5625 16.53125 C 57.519787 16.609661 57.500003 16.696691 57.5 16.78125 C 57.500003 16.908859 57.520885 16.993816 57.59375 17.09375 C 57.66662 17.193685 57.778106 17.305815 57.90625 17.375 C 58.034399 17.444185 58.170377 17.494351 58.34375 17.53125 C 58.517127 17.568149 58.70775 17.5625 58.90625 17.5625 C 59.099728 17.5625 59.297888 17.568149 59.46875 17.53125 C 59.639613 17.494351 59.780616 17.444185 59.90625 17.375 C 60.031884 17.305815 60.114632 17.193685 60.1875 17.09375 C 60.260368 16.993816 60.3125 16.908859 60.3125 16.78125 C 60.3125 16.701304 60.274029 16.609661 60.21875 16.53125 C 60.163471 16.452841 60.073185 16.377074 59.9375 16.3125 L 60.25 16.28125 L 60.25 16.0625 L 58.78125 16.0625 L 58.78125 16.75 L 59.21875 16.75 L 59.21875 16.375 C 59.407202 16.385763 59.555743 16.433891 59.65625 16.5 C 59.754245 16.566111 59.8125 16.662867 59.8125 16.78125 C 59.8125 16.862736 59.769004 16.911865 59.71875 16.96875 C 59.665984 17.025636 59.616682 17.089639 59.53125 17.125 C 59.44582 17.160362 59.355534 17.170589 59.25 17.1875 C 59.141956 17.202875 59.019322 17.21875 58.90625 17.21875 C 58.788155 17.21875 58.67306 17.202875 58.5625 17.1875 C 58.451944 17.170589 58.366683 17.160362 58.28125 17.125 C 58.193308 17.089639 58.112756 17.025636 58.0625 16.96875 C 58.009736 16.911865 57.968752 16.862736 57.96875 16.78125 C 57.968752 16.695154 58.018372 16.592749 58.09375 16.53125 C 58.169133 16.468216 58.286741 16.427776 58.4375 16.40625 L 58.4375 16.0625 z M 59.75 17.75 L 59.75 18.625 L 59.09375 18.625 L 59.09375 17.84375 L 58.625 17.84375 L 58.625 18.625 L 58.0625 18.625 L 58.0625 17.78125 L 57.5625 17.78125 L 57.5625 19 L 60.25 19 L 60.25 17.75 L 59.75 17.75 z M 59.4375 19.21875 C 59.336994 19.218751 59.262881 19.231552 59.1875 19.25 C 59.109608 19.268451 59.02403 19.281752 58.96875 19.3125 C 58.913472 19.341713 58.881442 19.369352 58.84375 19.40625 C 58.806061 19.441613 58.772616 19.494352 58.75 19.53125 C 58.724875 19.566612 58.700065 19.592715 58.6875 19.625 C 58.672425 19.657287 58.66379 19.698764 58.65625 19.71875 C 58.613536 19.82176 58.590141 19.904178 58.5625 19.96875 C 58.53235 20.031786 58.493879 20.056852 58.46875 20.09375 C 58.441112 20.129112 58.407667 20.175201 58.375 20.1875 C 58.342337 20.1998 58.302768 20.1875 58.25 20.1875 C 58.194723 20.1875 58.162692 20.171625 58.125 20.15625 C 58.084799 20.140876 58.025129 20.148062 58 20.125 C 57.974875 20.100401 57.978803 20.060462 57.96875 20.03125 C 57.958702 20.002039 57.937502 19.966712 57.9375 19.9375 C 57.937502 19.894452 57.956189 19.850937 57.96875 19.8125 C 57.981316 19.774065 58.0011 19.747962 58.03125 19.71875 C 58.061404 19.689539 58.103486 19.673163 58.15625 19.65625 C 58.209018 19.637802 58.263346 19.628076 58.34375 19.625 L 58.34375 19.28125 C 58.187966 19.281251 58.076798 19.275603 57.96875 19.3125 C 57.858194 19.347863 57.757858 19.407253 57.6875 19.46875 C 57.617147 19.530249 57.561405 19.607554 57.53125 19.6875 C 57.498588 19.765911 57.500003 19.851404 57.5 19.9375 C 57.500003 20.011298 57.498588 20.082453 57.53125 20.15625 C 57.563918 20.230048 57.61966 20.285327 57.6875 20.34375 C 57.755345 20.402173 57.834482 20.463101 57.9375 20.5 C 58.03801 20.535361 58.174304 20.53125 58.3125 20.53125 C 58.438136 20.53125 58.53957 20.527674 58.625 20.5 C 58.710433 20.470789 58.78596 20.452374 58.84375 20.40625 C 58.901543 20.360127 58.931061 20.277173 58.96875 20.21875 C 59.003929 20.160327 59.037374 20.123999 59.0625 20.0625 C 59.090141 20.00254 59.133637 19.933424 59.15625 19.875 C 59.176353 19.816578 59.186086 19.764874 59.21875 19.71875 C 59.248903 19.672627 59.298523 19.621425 59.34375 19.59375 C 59.388979 19.56454 59.427133 19.562501 59.5 19.5625 C 59.567843 19.562501 59.642272 19.572227 59.6875 19.59375 C 59.730216 19.615275 59.756124 19.655215 59.78125 19.6875 C 59.806377 19.719787 59.8337 19.744352 59.84375 19.78125 C 59.851288 19.81815 59.84375 19.842714 59.84375 19.875 C 59.84375 19.924199 59.830089 19.986665 59.8125 20.03125 C 59.792399 20.074299 59.756441 20.122427 59.71875 20.15625 C 59.678548 20.188537 59.656568 20.198764 59.59375 20.21875 C 59.530934 20.238737 59.434207 20.25 59.34375 20.25 L 59.34375 20.59375 C 59.509588 20.595288 59.660642 20.569686 59.78125 20.53125 C 59.901859 20.491276 59.984607 20.439573 60.0625 20.375 C 60.140393 20.310427 60.21231 20.24081 60.25 20.15625 C 60.28769 20.070153 60.3125 19.99696 60.3125 19.90625 C 60.3125 19.794017 60.292716 19.678311 60.25 19.59375 C 60.204772 19.507654 60.137881 19.431887 60.0625 19.375 C 59.984607 19.316578 59.886783 19.279213 59.78125 19.25 C 59.675718 19.22079 59.560622 19.218751 59.4375 19.21875 z M 60.25 21.28125 L 57.5625 21.90625 L 57.5625 22.28125 L 60.25 22.90625 L 60.25 22.53125 L 59.65625 22.40625 L 59.65625 21.78125 L 60.25 21.65625 L 60.25 21.28125 z M 59.1875 21.875 L 59.1875 22.3125 L 58.21875 22.09375 L 59.1875 21.875 z M 59.75 22.9375 L 59.75 23.71875 L 57.5625 23.71875 L 57.5625 24.09375 L 60.25 24.09375 L 60.25 22.9375 L 59.75 22.9375 z M 57.5625 24.40625 L 57.5625 24.78125 L 60.25 24.78125 L 60.25 24.40625 L 57.5625 24.40625 z M 59.46875 25 C 59.300401 25.000002 59.149347 25.043016 59.03125 25.09375 C 58.910643 25.14295 58.828992 25.21103 58.78125 25.3125 C 58.72346 25.240241 58.652958 25.194688 58.5625 25.15625 C 58.469532 25.117815 58.351924 25.093751 58.21875 25.09375 C 58.093118 25.093751 57.991683 25.098865 57.90625 25.125 C 57.820821 25.149601 57.737756 25.172628 57.6875 25.21875 C 57.634736 25.264875 57.616367 25.341678 57.59375 25.40625 C 57.571139 25.470824 57.562503 25.546591 57.5625 25.625 L 57.5625 26.375 L 60.25 26.375 L 60.25 25.59375 C 60.25 25.519953 60.217652 25.444186 60.1875 25.375 C 60.157348 25.304279 60.125317 25.241312 60.0625 25.1875 C 59.999683 25.132153 59.910495 25.094788 59.8125 25.0625 C 59.711993 25.030215 59.604436 25.000002 59.46875 25 z M 59.4375 25.375 C 59.507856 25.375001 59.548522 25.390877 59.59375 25.40625 C 59.638979 25.420088 59.691111 25.412902 59.71875 25.4375 C 59.743877 25.4621 59.768687 25.498965 59.78125 25.53125 C 59.791301 25.563537 59.78125 25.58964 59.78125 25.625 L 59.78125 26.03125 L 59.03125 26.03125 L 59.03125 25.625 C 59.031251 25.546591 59.064697 25.485162 59.125 25.4375 C 59.182793 25.38984 59.299303 25.375001 59.4375 25.375 z M 58.3125 25.4375 C 58.425573 25.437501 58.512248 25.45849 58.5625 25.5 C 58.612755 25.541512 58.625002 25.591678 58.625 25.65625 L 58.625 26.03125 L 58 26.03125 L 58 25.6875 C 58.000002 25.655214 58.021201 25.622962 58.03125 25.59375 C 58.03879 25.563002 58.039888 25.523063 58.0625 25.5 C 58.085116 25.476939 58.116049 25.482588 58.15625 25.46875 C 58.196455 25.454914 58.249685 25.437501 58.3125 25.4375 z M 60.25 27.1875 L 57.5625 27.78125 L 57.5625 28.15625 L 60.25 28.78125 L 60.25 28.40625 L 59.65625 28.28125 L 59.65625 27.6875 L 60.25 27.5625 L 60.25 27.1875 z M 59.1875 27.78125 L 59.1875 28.1875 L 58.21875 27.96875 L 59.1875 27.78125 z M 57.5625 28.9375 L 57.5625 29.4375 L 59.40625 29.8125 L 57.5625 30.1875 L 57.5625 30.6875 L 60.25 30.6875 L 60.25 30.375 L 58.34375 30.375 L 58.34375 30.34375 L 60.25 29.9375 L 60.25 29.6875 L 58.34375 29.28125 L 58.34375 29.25 L 60.25 29.25 L 60.25 28.9375 L 57.5625 28.9375 z M 57.5625 31.03125 L 57.5625 31.375 L 60.25 31.375 L 60.25 31.03125 L 57.5625 31.03125 z M 60.25 31.625 C 60.21231 31.641914 60.149029 31.647027 60.09375 31.65625 C 60.038471 31.663939 59.995292 31.682889 59.9375 31.6875 C 59.877196 31.690576 59.807792 31.685964 59.75 31.6875 C 59.692209 31.689039 59.636466 31.685964 59.59375 31.6875 C 59.525908 31.690576 59.471581 31.709527 59.40625 31.71875 C 59.338408 31.726439 59.276543 31.731552 59.21875 31.75 C 59.160959 31.768451 59.102704 31.78329 59.0625 31.8125 C 59.019786 31.841713 58.988853 31.892915 58.96875 31.9375 C 58.908447 31.845254 58.834335 31.789975 58.71875 31.75 C 58.603168 31.70849 58.439551 31.687502 58.28125 31.6875 C 58.180745 31.687502 58.090459 31.69569 58 31.71875 C 57.909546 31.740276 57.849095 31.769453 57.78125 31.8125 C 57.71341 31.854012 57.662693 31.908791 57.625 31.96875 C 57.5848 32.027174 57.562503 32.082454 57.5625 32.15625 L 57.5625 33.03125 L 60.25 33.03125 L 60.25 32.6875 L 59.1875 32.6875 L 59.1875 32.3125 C 59.187501 32.221791 59.215921 32.164975 59.28125 32.125 C 59.346581 32.085027 59.453041 32.074801 59.59375 32.0625 C 59.646517 32.057889 59.720946 32.032789 59.78125 32.03125 L 59.9375 32.03125 C 59.992779 32.026639 60.040984 32.004614 60.09375 32 C 60.144004 31.993851 60.207284 32.010763 60.25 32 L 60.25 31.625 z M 58.375 32.03125 C 58.510687 32.031251 58.627197 32.050703 58.6875 32.09375 C 58.747806 32.135262 58.781251 32.199766 58.78125 32.28125 L 58.78125 32.6875 L 58 32.6875 L 58 32.28125 C 58.000002 32.199766 58.033448 32.135262 58.09375 32.09375 C 58.151544 32.050703 58.244342 32.031251 58.375 32.03125 z M 59.75 33.28125 L 59.75 34.1875 L 59.09375 34.1875 L 59.09375 33.375 L 58.625 33.375 L 58.625 34.1875 L 58.0625 34.1875 L 58.0625 33.3125 L 57.5625 33.3125 L 57.5625 34.53125 L 60.25 34.53125 L 60.25 33.28125 L 59.75 33.28125 z M 57.5625 34.71875 L 57.5625 36.09375 L 58.0625 36.09375 L 58.0625 35.59375 L 60.25 35.59375 L 60.25 35.21875 L 58.0625 35.21875 L 58.0625 34.71875 L 57.5625 34.71875 z M 57.5625 36.28125 L 57.5625 36.625 L 60.25 36.625 L 60.25 36.28125 L 57.5625 36.28125 z M 58.875 36.875 C 58.651373 36.875002 58.447089 36.899065 58.28125 36.9375 C 58.115415 36.9744 57.98556 37.026104 57.875 37.09375 C 57.764444 37.159862 57.680282 37.251504 57.625 37.34375 C 57.569724 37.434461 57.562503 37.518917 57.5625 37.625 L 57.5625 38.34375 L 60.25 38.34375 L 60.25 37.625 C 60.25 37.49893 60.192842 37.404748 60.125 37.3125 C 60.054645 37.218717 59.964359 37.123999 59.84375 37.0625 C 59.723142 36.999466 59.603338 36.968251 59.4375 36.9375 C 59.271664 36.906753 59.07099 36.875002 58.875 36.875 z M 58.9375 37.25 C 59.085749 37.250001 59.209481 37.25819 59.3125 37.28125 C 59.415521 37.304313 59.497171 37.336565 59.5625 37.375 C 59.625318 37.413437 59.659861 37.450803 59.6875 37.5 C 59.71514 37.549199 59.75 37.603978 59.75 37.65625 L 59.75 37.96875 L 58.0625 37.96875 L 58.0625 37.71875 C 58.062502 37.629579 58.082287 37.559961 58.125 37.5 C 58.165205 37.438503 58.203359 37.38065 58.28125 37.34375 C 58.359145 37.306852 58.451944 37.296626 58.5625 37.28125 C 58.670547 37.264339 58.801817 37.250001 58.9375 37.25 z M 57.5625 39.28125 L 57.5625 39.625 L 59.34375 39.625 L 57.5625 40.3125 L 57.5625 40.6875 L 60.25 40.6875 L 60.25 40.34375 L 58.4375 40.34375 L 60.25 39.65625 L 60.25 39.28125 L 57.5625 39.28125 z M 60.25 40.84375 L 57.5625 41.4375 L 57.5625 41.8125 L 60.25 42.4375 L 60.25 42.0625 L 59.65625 41.9375 L 59.65625 41.34375 L 60.25 41.21875 L 60.25 40.84375 z M 59.1875 41.4375 L 59.1875 41.84375 L 58.21875 41.625 L 59.1875 41.4375 z M 58.78125 42.5625 L 58.78125 43.25 L 59.21875 43.25 L 59.21875 42.875 C 59.407202 42.885763 59.555743 42.933891 59.65625 43 C 59.754245 43.066111 59.8125 43.162867 59.8125 43.28125 C 59.8125 43.362736 59.769004 43.443115 59.71875 43.5 C 59.665984 43.556886 59.616682 43.589639 59.53125 43.625 C 59.44582 43.660362 59.355534 43.701839 59.25 43.71875 C 59.141956 43.734125 59.019322 43.71875 58.90625 43.71875 C 58.788155 43.71875 58.67306 43.734125 58.5625 43.71875 C 58.451944 43.701839 58.366683 43.660362 58.28125 43.625 C 58.193308 43.589639 58.112756 43.556886 58.0625 43.5 C 58.009736 43.443115 57.968752 43.362736 57.96875 43.28125 C 57.968752 43.195154 58.018372 43.123999 58.09375 43.0625 C 58.169133 42.999466 58.286741 42.959026 58.4375 42.9375 L 58.4375 42.59375 C 58.284228 42.602976 58.149348 42.613203 58.03125 42.65625 C 57.913156 42.697763 57.799158 42.749466 57.71875 42.8125 C 57.638347 42.875537 57.602706 42.951304 57.5625 43.03125 C 57.519787 43.109661 57.500003 43.196691 57.5 43.28125 C 57.500003 43.408859 57.520885 43.525066 57.59375 43.625 C 57.66662 43.724935 57.778106 43.805815 57.90625 43.875 C 58.034399 43.944185 58.170377 43.994351 58.34375 44.03125 C 58.517127 44.068149 58.70775 44.09375 58.90625 44.09375 C 59.099728 44.09375 59.297888 44.068149 59.46875 44.03125 C 59.639613 43.994351 59.780616 43.944185 59.90625 43.875 C 60.031884 43.805815 60.114632 43.724935 60.1875 43.625 C 60.260368 43.525066 60.3125 43.408859 60.3125 43.28125 C 60.3125 43.201304 60.274029 43.109661 60.21875 43.03125 C 60.163471 42.952841 60.073185 42.877074 59.9375 42.8125 L 60.25 42.78125 L 60.25 42.5625 L 58.78125 42.5625 z M 57.5625 44.34375 L 57.5625 44.6875 L 59.34375 44.6875 L 57.5625 45.375 L 57.5625 45.71875 L 60.25 45.71875 L 60.25 45.375 L 58.4375 45.375 L 60.25 44.6875 L 60.25 44.34375 L 57.5625 44.34375 z M 60.25 45.875 L 57.5625 46.5 L 57.5625 46.84375 L 60.25 47.46875 L 60.25 47.125 L 59.65625 47 L 59.65625 46.375 L 60.25 46.25 L 60.25 45.875 z M 59.1875 46.46875 L 59.1875 46.90625 L 58.21875 46.6875 L 59.1875 46.46875 z M 57.5625 47.625 L 57.5625 48 L 59.375 48 C 59.422742 48.000001 59.478484 47.996926 59.53125 48 C 59.581504 48.001538 59.611022 47.987701 59.65625 48 C 59.698966 48.010763 59.753611 48.036364 59.78125 48.0625 C 59.80889 48.088637 59.8125 48.13984 59.8125 48.1875 C 59.8125 48.230549 59.803865 48.253576 59.78125 48.28125 C 59.758636 48.307387 59.725191 48.328376 59.6875 48.34375 C 59.647298 48.359125 59.58653 48.368851 59.53125 48.375 C 59.475972 48.38115 59.440331 48.375 59.375 48.375 L 59.25 48.375 L 59.25 48.71875 L 59.46875 48.71875 C 59.616999 48.71875 59.738218 48.686999 59.84375 48.65625 C 59.94677 48.625501 60.057158 48.613236 60.125 48.5625 C 60.192843 48.511764 60.219848 48.439573 60.25 48.375 C 60.282665 48.310428 60.3125 48.256686 60.3125 48.1875 C 60.3125 48.106016 60.280152 48.027174 60.25 47.96875 C 60.22236 47.90879 60.203991 47.852475 60.15625 47.8125 C 60.105996 47.77099 60.029055 47.74335 59.96875 47.71875 C 59.905933 47.694152 59.849093 47.668551 59.78125 47.65625 C 59.713408 47.642414 59.661593 47.629613 59.59375 47.625 C 59.525908 47.620389 59.464043 47.625001 59.40625 47.625 L 57.5625 47.625 z "
       transform="translate(0,956.36218)"
       id="text3842" />
    <path
       id="path3847"
       d="m 35.085359,1005.0811 1.625,-0.7188 1.0625,0.6563 0,-0.4375 -1.09375,-0.6563 1.09375,0 0,-0.375 -2.6875,0 0,0.375 0.875,0 0.34375,0.2188 -1.21875,0.5 0,0.4375 z m 0,-1.6563 2.6875,-0.625 0,-0.375 -2.6875,-0.625 0,0.375 0.59375,0.125 0,0.625 -0.59375,0.125 0,0.375 z m 1.0625,-0.5937 0,-0.4375 0.96875,0.2187 -0.96875,0.2188 z m -0.25,-1.0625 c 0.1005,0 0.17461,-0.013 0.25,-0.031 0.0779,-0.018 0.16347,-0.032 0.21875,-0.062 0.0553,-0.029 0.0873,-0.057 0.125,-0.094 0.0377,-0.035 0.0711,-0.088 0.0937,-0.125 0.0251,-0.035 0.0499,-0.062 0.0625,-0.094 0.0151,-0.032 0.0237,-0.074 0.0312,-0.094 0.0427,-0.1031 0.0661,-0.1855 0.0937,-0.25 0.0301,-0.063 0.0686,-0.088 0.0937,-0.125 0.0276,-0.035 0.0611,-0.082 0.0937,-0.094 0.0327,-0.012 0.0722,0 0.125,0 0.0553,0 0.0873,-0.015 0.125,0 0.0402,0.015 0.0999,0.039 0.125,0.062 0.0251,0.025 0.0212,0.064 0.0312,0.094 0.01,0.029 0.0312,0.064 0.0312,0.094 -10e-6,0.043 -0.0187,0.087 -0.0312,0.125 -0.0126,0.038 -0.0324,0.064 -0.0625,0.094 -0.0302,0.029 -0.0722,0.046 -0.125,0.062 -0.0528,0.018 -0.1071,0.028 -0.1875,0.031 l 0,0.3438 c 0.15578,0 0.26695,-0.026 0.375,-0.062 0.11055,-0.035 0.21089,-0.063 0.28125,-0.125 0.0703,-0.062 0.12609,-0.1388 0.15625,-0.2188 0.0327,-0.078 0.0312,-0.1639 0.0312,-0.25 -10e-6,-0.074 10e-4,-0.1449 -0.0312,-0.2187 -0.0327,-0.074 -0.0884,-0.1291 -0.15625,-0.1875 -0.0679,-0.058 -0.14699,-0.1194 -0.25,-0.1563 -0.10051,-0.035 -0.23681,-0.062 -0.375,-0.062 -0.12564,0 -0.22707,0.035 -0.3125,0.062 -0.0854,0.029 -0.16096,0.048 -0.21875,0.094 -0.0578,0.046 -0.0873,0.098 -0.125,0.1562 -0.0352,0.058 -0.0686,0.126 -0.0937,0.1875 -0.0276,0.06 -0.0711,0.1291 -0.0937,0.1875 -0.0201,0.058 -0.0298,0.1101 -0.0625,0.1563 -0.0302,0.046 -0.0798,0.066 -0.125,0.094 -0.0452,0.029 -0.0834,0.062 -0.15625,0.062 -0.0679,0 -0.14228,-0.01 -0.1875,-0.031 -0.0427,-0.022 -0.0686,-0.062 -0.0937,-0.094 -0.0251,-0.032 -0.0525,-0.057 -0.0625,-0.094 -0.008,-0.037 0,-0.062 0,-0.094 0,-0.049 0.0137,-0.1117 0.0312,-0.1562 0.0201,-0.043 0.056,-0.091 0.0937,-0.125 0.0402,-0.032 0.0622,-0.043 0.125,-0.062 0.0628,-0.02 0.15954,-0.031 0.25,-0.031 l 0,-0.3437 c -0.16584,0 -0.3169,-0.01 -0.4375,0.031 -0.12061,0.04 -0.20336,0.092 -0.28125,0.1563 -0.0779,0.064 -0.14981,0.1654 -0.1875,0.25 -0.0377,0.086 -0.0625,0.1592 -0.0625,0.25 0,0.1122 0.0198,0.2279 0.0625,0.3125 0.0452,0.086 0.11211,0.1306 0.1875,0.1875 0.0779,0.058 0.17571,0.127 0.28125,0.1562 0.10553,0.029 0.22062,0.031 0.34375,0.031 z m 1.875,-1.5938 0,-0.375 -1.65625,0 c -0.20102,0 -0.34202,-0.0133 -0.4375,-0.0625 -0.093,-0.0492 -0.15625,-0.12085 -0.15625,-0.25 0,-0.0738 0.0298,-0.14291 0.0625,-0.1875 0.0327,-0.043 0.0697,-0.0692 0.125,-0.0937 0.0553,-0.0246 0.11714,-0.0548 0.1875,-0.0625 0.0703,-0.008 0.14588,0 0.21875,0 l 1.65625,0 0,-0.375 -1.65625,0 c -0.36686,0 -0.6341,0.066 -0.8125,0.1875 -0.17589,0.123 -0.28125,0.30832 -0.28125,0.53125 0,0.21986 0.10284,0.37547 0.28125,0.5 0.1784,0.12445 0.44816,0.18745 0.8125,0.18745 l 1.65625,0 z m -2.6875,-1.65625 c 0.0377,-0.0169 0.10097,-0.022 0.15625,-0.0312 0.0553,-0.008 0.0984,0.005 0.15625,0 0.0603,-0.003 0.1297,-0.0297 0.1875,-0.0312 0.0578,-10e-4 0.11353,10e-4 0.15625,0 0.0678,-0.003 0.12216,0.009 0.1875,0 0.0678,-0.008 0.1297,-0.044 0.1875,-0.0625 0.0578,-0.0185 0.11604,-0.0333 0.15625,-0.0625 0.0427,-0.0292 0.0736,-0.0492 0.0937,-0.0937 0.0603,0.0923 0.13441,0.14753 0.25,0.1875 0.11558,0.0415 0.27919,0.0625 0.4375,0.0625 0.1005,0 0.19079,-0.008 0.28125,-0.0312 0.0904,-0.0215 0.1509,-0.0507 0.21875,-0.0937 0.0678,-0.0415 0.11855,-0.0963 0.15625,-0.15625 0.0402,-0.0584 0.0625,-0.14495 0.0625,-0.21875 l 0,-0.875 -2.6875,0 0,0.375 1.0625,0 0,0.34375 c -1e-5,0.0907 -0.0284,0.14753 -0.0937,0.1875 -0.0653,0.04 -0.1718,0.0815 -0.3125,0.0937 -0.0528,0.005 -0.1272,-10e-4 -0.1875,0 l -0.15625,0.0312 c -0.0553,0.005 -0.10349,-0.005 -0.15625,0 -0.0503,0.006 -0.11354,0.0205 -0.15625,0.0312 l 0,0.34375 z m 1.875,-0.40625 c -0.13569,0 -0.2522,-0.0195 -0.3125,-0.0625 -0.0603,-0.0415 -0.0938,-0.10601 -0.0937,-0.1875 l 0,-0.375 0.78125,0 0,0.375 c -10e-6,0.0815 -0.0335,0.14599 -0.0937,0.1875 -0.0578,0.043 -0.1506,0.0625 -0.28125,0.0625 z m -1.375,-1.84375 0,-0.8125 2.1875,0 0,-0.34375 -2.6875,0 0,1.15625 0.5,0 z m 0,-1.40625 0,-0.90625 0.65625,0 0,0.8125 0.46875,0 0,-0.8125 0.5625,0 0,0.875 0.5,0 0,-1.21875 -2.6875,0 0,1.25 0.5,0 z m 1.3125,-1.5625 c 0.15327,-0.009 0.28815,-0.0507 0.40625,-0.0937 0.11809,-0.0415 0.23209,-0.0932 0.3125,-0.15625 0.0804,-0.063 0.11604,-0.1388 0.15625,-0.21875 0.0427,-0.0784 0.0625,-0.16544 0.0625,-0.25 -10e-6,-0.1276 -0.0209,-0.21256 -0.0937,-0.3125 -0.0729,-0.0999 -0.18436,-0.21206 -0.3125,-0.28125 -0.12815,-0.0692 -0.26413,-0.11935 -0.4375,-0.15625 -0.17338,-0.0369 -0.364,-0.0312 -0.5625,-0.0312 -0.19348,0 -0.39164,-0.006 -0.5625,0.0312 -0.17087,0.0369 -0.31187,0.0871 -0.4375,0.15625 -0.12564,0.0692 -0.20839,0.18132 -0.28125,0.28125 -0.0729,0.0999 -0.125,0.1849 -0.125,0.3125 0,0.0799 0.0385,0.17159 0.0937,0.25 0.0553,0.0784 0.14556,0.15418 0.28125,0.21875 l -0.3125,0.0312 0,0.21875 1.46875,0 0,-0.6875 -0.4375,0 0,0.375 c -0.18846,-0.0108 -0.337,-0.0589 -0.4375,-0.125 -0.098,-0.0661 -0.15625,-0.16286 -0.15625,-0.28125 0,-0.0815 0.0435,-0.13061 0.0937,-0.1875 0.0528,-0.0569 0.10206,-0.12088 0.1875,-0.15625 0.0854,-0.0354 0.17571,-0.0456 0.28125,-0.0625 0.10804,-0.0154 0.23067,-0.0312 0.34375,-0.0312 0.11809,0 0.23319,0.0159 0.34375,0.0312 0.11055,0.0169 0.19581,0.0271 0.28125,0.0625 0.0879,0.0354 0.16849,0.0994 0.21875,0.15625 0.0528,0.0569 0.0937,0.10602 0.0937,0.1875 -1e-5,0.0861 -0.0496,0.18851 -0.125,0.25 -0.0754,0.063 -0.193,0.10348 -0.34375,0.125 l 0,0.34375 z m -1.3125,-1.6875 0,-0.875 0.65625,0 0,0.78125 0.46875,0 0,-0.78125 0.5625,0 0,0.84375 0.5,0 0,-1.21875 -2.6875,0 0,1.25 0.5,0 z m 0.3125,-1.46875 c 0.1005,0 0.17461,-0.0128 0.25,-0.0312 0.0779,-0.0185 0.16347,-0.0317 0.21875,-0.0625 0.0553,-0.0292 0.0873,-0.0569 0.125,-0.0937 0.0377,-0.0354 0.0711,-0.0881 0.0937,-0.125 0.0251,-0.0354 0.0499,-0.0615 0.0625,-0.0937 0.0151,-0.0323 0.0237,-0.0738 0.0312,-0.0937 0.0427,-0.10301 0.0661,-0.18542 0.0937,-0.25 0.0301,-0.063 0.0686,-0.0881 0.0937,-0.125 0.0276,-0.0354 0.0611,-0.0815 0.0937,-0.0937 0.0327,-0.0123 0.0722,0 0.125,0 0.0553,0 0.0873,0.0159 0.125,0.0312 0.0402,0.0154 0.0999,0.008 0.125,0.0312 0.0251,0.0246 0.0212,0.0645 0.0312,0.0937 0.01,0.0292 0.0312,0.0645 0.0312,0.0937 -10e-6,0.043 -0.0187,0.0866 -0.0312,0.125 -0.0126,0.0384 -0.0324,0.0645 -0.0625,0.0937 -0.0302,0.0292 -0.0722,0.0456 -0.125,0.0625 -0.0528,0.0185 -0.1071,0.0282 -0.1875,0.0312 l 0,0.34375 c 0.15578,0 0.26695,0.006 0.375,-0.0312 0.11055,-0.0354 0.21089,-0.0947 0.28125,-0.15625 0.0703,-0.0615 0.12609,-0.1388 0.15625,-0.21875 0.0327,-0.0784 0.0312,-0.1639 0.0312,-0.25 -10e-6,-0.0738 10e-4,-0.14495 -0.0312,-0.21875 -0.0327,-0.0738 -0.0884,-0.12907 -0.15625,-0.1875 -0.0679,-0.0584 -0.14699,-0.11935 -0.25,-0.15625 -0.10051,-0.0354 -0.23681,-0.0312 -0.375,-0.0312 -0.12564,0 -0.22707,0.004 -0.3125,0.0312 -0.0854,0.0292 -0.16096,0.0476 -0.21875,0.0937 -0.0578,0.0461 -0.0873,0.12908 -0.125,0.1875 -0.0352,0.0584 -0.0686,0.0947 -0.0937,0.15625 -0.0276,0.06 -0.0711,0.12908 -0.0937,0.1875 -0.0201,0.0584 -0.0298,0.11013 -0.0625,0.15625 -0.0302,0.0461 -0.0798,0.0973 -0.125,0.125 -0.0452,0.0292 -0.0834,0.0312 -0.15625,0.0312 -0.0679,0 -0.14228,-0.01 -0.1875,-0.0312 -0.0427,-0.0215 -0.0686,-0.0615 -0.0937,-0.0937 -0.0251,-0.0323 -0.0525,-0.0569 -0.0625,-0.0937 -0.008,-0.0369 0,-0.0615 0,-0.0937 0,-0.0492 0.0137,-0.11166 0.0312,-0.15625 0.0201,-0.043 0.056,-0.0912 0.0937,-0.125 0.0402,-0.0323 0.0622,-0.0425 0.125,-0.0625 0.0628,-0.02 0.15954,-0.0312 0.25,-0.0312 l 0,-0.34375 c -0.16584,-10e-4 -0.3169,0.0241 -0.4375,0.0625 -0.12061,0.04 -0.20336,0.0917 -0.28125,0.15625 -0.0779,0.0646 -0.14981,0.13419 -0.1875,0.21875 -0.0377,0.0861 -0.0625,0.15929 -0.0625,0.25 0,0.11224 0.0198,0.22794 0.0625,0.3125 0.0452,0.0861 0.11211,0.16187 0.1875,0.21875 0.0779,0.0584 0.17571,0.0958 0.28125,0.125 0.10553,0.0292 0.22062,0.0312 0.34375,0.0312 z m -0.8125,-2.0625 2.6875,-0.625 0,-0.375 -2.6875,-0.625 0,0.375 0.59375,0.125 0,0.625 -0.59375,0.125 0,0.375 z m 1.0625,-0.59375 0,-0.4375 0.96875,0.21875 -0.96875,0.21875 z m -0.5625,-1.0625 0,-0.78125 2.1875,0 0,-0.375 -2.6875,0 0,1.15625 0.5,0 z m 2.1875,-1.46875 0,-0.375 -2.6875,0 0,0.375 2.6875,0 z m -1.90625,-0.59375 c 0.16834,0 0.3194,-0.043 0.4375,-0.0937 0.1206,-0.0492 0.20225,-0.11728 0.25,-0.21875 0.0578,0.0723 0.12829,0.11782 0.21875,0.15625 0.093,0.0384 0.21057,0.0625 0.34375,0.0625 0.12563,0 0.22706,-0.005 0.3125,-0.0312 0.0854,-0.0246 0.16849,-0.0476 0.21875,-0.0937 0.0528,-0.0461 0.0711,-0.12292 0.0937,-0.1875 0.0226,-0.0646 0.0312,-0.14034 0.0312,-0.21875 l 0,-0.75 -2.6875,0 0,0.78125 c 0,0.0738 0.0323,0.14957 0.0625,0.21875 0.0301,0.0707 0.0622,0.13369 0.125,0.1875 0.0628,0.0553 0.152,0.0927 0.25,0.125 0.1005,0.0323 0.20806,0.0625 0.34375,0.0625 z m 0.0312,-0.375 c -0.0704,0 -0.11103,-0.0159 -0.15625,-0.0312 -0.0452,-0.0138 -0.0974,-0.007 -0.125,-0.0312 -0.0251,-0.0246 -0.0499,-0.0615 -0.0625,-0.0937 -0.0101,-0.0323 0,-0.0584 0,-0.0937 l 0,-0.40625 0.75,0 0,0.40625 c -1e-5,0.0784 -0.0335,0.13984 -0.0937,0.1875 -0.0578,0.0477 -0.17431,0.0625 -0.3125,0.0625 z m 1.125,-0.0625 c -0.11308,0 -0.19975,-0.021 -0.25,-0.0625 -0.0503,-0.0415 -0.0625,-0.0917 -0.0625,-0.15625 l 0,-0.375 0.625,0 0,0.34375 c -1e-5,0.0323 -0.0212,0.0645 -0.0312,0.0937 -0.008,0.0308 -0.009,0.0707 -0.0312,0.0937 -0.0226,0.0231 -0.0536,0.0174 -0.0937,0.0312 -0.0402,0.0138 -0.0934,0.0312 -0.15625,0.0312 z m -1.9375,-1.75 2.6875,-0.59375 0,-0.375 -2.6875,-0.625 0,0.375 0.59375,0.125 0,0.59375 -0.59375,0.125 0,0.375 z m 1.0625,-0.59375 0,-0.40625 0.96875,0.21875 -0.96875,0.1875 z m 1.625,-1.15625 0,-0.5 -1.84375,-0.375 1.84375,-0.375 0,-0.5 -2.6875,0 0,0.3125 1.90625,0 0,0.0312 -1.90625,0.40625 0,0.25 1.90625,0.40625 0,0.0312 -1.90625,0 0,0.3125 2.6875,0 z m 0,-2.09375 0,-0.34375 -2.6875,0 0,0.34375 2.6875,0 z m -2.6875,-0.59375 c 0.0377,-0.0169 0.10097,-0.022 0.15625,-0.0312 0.0553,-0.008 0.0984,-0.0266 0.15625,-0.0312 0.0603,-0.003 0.1297,10e-4 0.1875,0 0.0578,-10e-4 0.11353,10e-4 0.15625,0 0.0678,-0.003 0.12216,-0.022 0.1875,-0.0312 0.0678,-0.008 0.1297,-0.0128 0.1875,-0.0312 0.0578,-0.0185 0.11604,-0.0333 0.15625,-0.0625 0.0427,-0.0292 0.0736,-0.0804 0.0937,-0.125 0.0603,0.0923 0.13441,0.14753 0.25,0.1875 0.11558,0.0415 0.27919,0.0625 0.4375,0.0625 0.1005,0 0.19079,-0.008 0.28125,-0.0312 0.0904,-0.0215 0.1509,-0.0507 0.21875,-0.0937 0.0678,-0.0415 0.11855,-0.0963 0.15625,-0.15625 0.0402,-0.0584 0.0625,-0.1137 0.0625,-0.1875 l 0,-0.875 -2.6875,0 0,0.34375 1.0625,0 0,0.375 c -1e-5,0.0907 -0.0284,0.14753 -0.0937,0.1875 -0.0653,0.04 -0.1718,0.0502 -0.3125,0.0625 -0.0528,0.005 -0.1272,0.0297 -0.1875,0.0312 l -0.15625,0 c -0.0553,0.005 -0.10349,0.0266 -0.15625,0.0312 -0.0503,0.006 -0.11354,-0.0108 -0.15625,0 l 0,0.375 z m 1.875,-0.40625 c -0.13569,0 -0.2522,-0.0195 -0.3125,-0.0625 -0.0603,-0.0415 -0.0938,-0.10601 -0.0937,-0.1875 l 0,-0.40625 0.78125,0 0,0.40625 c -10e-6,0.0815 -0.0335,0.14599 -0.0937,0.1875 -0.0578,0.043 -0.1506,0.0625 -0.28125,0.0625 z m -1.375,-1.25 0,-0.90625 0.65625,0 0,0.8125 0.46875,0 0,-0.8125 0.5625,0 0,0.875 0.5,0 0,-1.21875 -2.6875,0 0,1.25 0.5,0 z m 2.1875,-1.4375 0,-1.375 -0.5,0 0,0.5 -2.1875,0 0,0.375 2.1875,0 0,0.5 0.5,0 z m 0,-1.5625 0,-0.34375 -2.6875,0 0,0.34375 2.6875,0 z m -1.3125,-0.59375 c 0.22362,0 0.42791,-0.0241 0.59375,-0.0625 0.16583,-0.0369 0.29569,-0.0886 0.40625,-0.15625 0.11055,-0.0661 0.19471,-0.15775 0.25,-0.25 0.0553,-0.0907 0.0625,-0.17516 0.0625,-0.28125 l 0,-0.71875 -2.6875,0 0,0.71875 c 0,0.12607 0.0571,0.22026 0.125,0.3125 0.0703,0.0938 0.16064,0.18851 0.28125,0.25 0.1206,0.063 0.24041,0.0942 0.40625,0.125 0.16583,0.0308 0.36651,0.0625 0.5625,0.0625 z m -0.0625,-0.375 c -0.14825,0 -0.27199,-0.008 -0.375,-0.0312 -0.10303,-0.0231 -0.18468,-0.0553 -0.25,-0.0937 -0.0628,-0.0384 -0.0974,-0.0758 -0.125,-0.125 -0.0276,-0.0492 -0.0625,-0.10397 -0.0625,-0.15625 l 0,-0.3125 1.6875,0 0,0.25 c -1e-5,0.0892 -0.0198,0.15879 -0.0625,0.21875 -0.0402,0.0615 -0.0784,0.11935 -0.15625,0.15625 -0.0779,0.0369 -0.1707,0.0471 -0.28125,0.0625 -0.10805,0.0169 -0.23932,0.0312 -0.375,0.0312 z m 1.375,-2.03125 0,-0.34375 -1.78125,0 1.78125,-0.6875 0,-0.375 -2.6875,0 0,0.34375 1.8125,0 -1.8125,0.6875 0,0.375 2.6875,0 z m -2.6875,-1.5625 2.6875,-0.59375 0,-0.375 -2.6875,-0.625 0,0.375 0.59375,0.125 0,0.59375 -0.59375,0.125 0,0.375 z m 1.0625,-0.59375 0,-0.40625 0.96875,0.21875 -0.96875,0.1875 z m 0.40625,-1.125 0,-0.6875 -0.4375,0 0,0.375 c -0.18846,-0.0108 -0.337,-0.0589 -0.4375,-0.125 -0.098,-0.0661 -0.15625,-0.16286 -0.15625,-0.28125 0,-0.0815 0.0435,-0.16186 0.0937,-0.21875 0.0528,-0.0569 0.10206,-0.0896 0.1875,-0.125 0.0854,-0.0354 0.17571,-0.0768 0.28125,-0.0937 0.10804,-0.0154 0.23067,0 0.34375,0 0.11809,0 0.23319,-0.0154 0.34375,0 0.11055,0.0169 0.19581,0.0584 0.28125,0.0937 0.0879,0.0354 0.16849,0.0681 0.21875,0.125 0.0528,0.0569 0.0937,0.13727 0.0937,0.21875 -10e-6,0.0861 -0.0496,0.15726 -0.125,0.21875 -0.0754,0.063 -0.193,0.10348 -0.34375,0.125 l 0,0.34375 c 0.15327,-0.009 0.28815,-0.0195 0.40625,-0.0625 0.11809,-0.0415 0.23209,-0.0932 0.3125,-0.15625 0.0804,-0.063 0.11604,-0.1388 0.15625,-0.21875 0.0427,-0.0784 0.0625,-0.16544 0.0625,-0.25 -10e-6,-0.1276 -0.0209,-0.24381 -0.0937,-0.34375 -0.0729,-0.0999 -0.18436,-0.18081 -0.3125,-0.25 -0.12815,-0.0692 -0.26413,-0.11935 -0.4375,-0.15625 -0.17338,-0.0369 -0.364,-0.0625 -0.5625,-0.0625 -0.19348,0 -0.39164,0.0256 -0.5625,0.0625 -0.17087,0.0369 -0.31187,0.0871 -0.4375,0.15625 -0.12564,0.0692 -0.20839,0.15007 -0.28125,0.25 -0.0729,0.0999 -0.125,0.21615 -0.125,0.34375 0,0.0799 0.0385,0.17159 0.0937,0.25 0.0553,0.0784 0.14556,0.15418 0.28125,0.21875 l -0.3125,0.0312 0,0.21875 1.46875,0 z m 1.21875,-1.78125 0,-0.34375 -1.78125,0 1.78125,-0.6875 0,-0.34375 -2.6875,0 0,0.34375 1.8125,0 -1.8125,0.6875 0,0.34375 2.6875,0 z m -2.6875,-1.53125 2.6875,-0.625 0,-0.34375 -2.6875,-0.625 0,0.34375 0.59375,0.125 0,0.625 -0.59375,0.125 0,0.375 z m 1.0625,-0.59375 0,-0.4375 0.96875,0.21875 -0.96875,0.21875 z m 1.625,-1.15625 0,-0.375 -1.8125,0 c -0.0478,0 -0.10349,0.003 -0.15625,0 -0.0503,-10e-4 -0.0798,0.0123 -0.125,0 -0.0427,-0.0108 -0.0974,-0.0364 -0.125,-0.0625 -0.0276,-0.0261 -0.0312,-0.0773 -0.0312,-0.125 0,-0.043 0.009,-0.0661 0.0312,-0.0937 0.0226,-0.0261 0.056,-0.0471 0.0937,-0.0625 0.0402,-0.0154 0.10097,-0.0251 0.15625,-0.0312 0.0553,-0.006 0.0909,0 0.15625,0 l 0.125,0 0,-0.34375 -0.21875,0 c -0.14825,0 -0.26947,0.0317 -0.375,0.0625 -0.10302,0.0308 -0.21341,0.043 -0.28125,0.0937 -0.0679,0.0507 -0.0949,0.12293 -0.125,0.1875 -0.0327,0.0646 -0.0625,0.11832 -0.0625,0.1875 0,0.0815 0.0323,0.16033 0.0625,0.21875 0.0276,0.06 0.046,0.11628 0.0937,0.15625 0.0503,0.0415 0.12719,0.0692 0.1875,0.0937 0.0628,0.0246 0.11965,0.0502 0.1875,0.0625 0.0678,0.0138 0.11965,0.0266 0.1875,0.0312 0.0678,0.005 0.1297,0 0.1875,0 l 1.84375,0 z"
       style="font-size:2.94822454px;font-style:normal;font-variant:normal;font-weight:bold;font-stretch:normal;text-align:end;line-height:125%;letter-spacing:0px;word-spacing:0px;text-anchor:end;fill:#9e0000;fill-opacity:1;stroke:none;font-family:Andale Mono;-inkscape-font-specification:Helvetica Neue LT Com Bold"
       inkscape:connector-curvature="0" />
    <path
       style="fill:#000000;fill-opacity:0.65753425;fill-rule:evenodd;stroke:none"
       d="M 64.285716,1018.7908 60,1027.3622 l 2.142858,0 0,8.5714 4.28571,0 0,-8.5714 2.142858,0 -4.28571,-8.5714 z m 10.714284,0 -4.285716,8.5714 2.142858,0 0,8.5714 4.285716,0 0,-8.5714 2.142851,0 L 75,1018.7908 z m -15,19.2856 0,4.2858 19.285709,0 0,-4.2858 -19.285709,0 z"
       id="rect3849"
       inkscape:connector-curvature="0" />
    <path
       style="fill:#000000;fill-opacity:0.65753425;fill-rule:evenodd;stroke:none"
       d="m 68.076918,977.53968 1.686388,0 18.550299,0 1.686395,0 0,-15.1775 -1.686395,0 -20.236687,0 0,13.49111 0,1.68639 z m 1.686388,-1.68639 0,-11.80472 18.550299,0 0,11.80472 -18.550299,0 z m 1.686396,-1.6864 4.215966,0 c 0.5187,0 1.016719,-0.0925 1.475598,-0.26351 l -0.158102,-1.37019 -1.791787,0.73785 -0.758881,0.29508 0.316203,-0.7483 0.295121,-0.70621 -2.118535,0.26352 -0.337272,0.0424 -0.04216,-0.33724 -0.284577,-2.25557 -0.811578,0.33727 0,4.00514 z m 0,-4.80619 0.01052,0.0528 0.959134,-0.38998 0.40052,-0.15809 0.06321,0.43213 0.295122,2.36095 2.360939,-0.29512 0.579704,-0.0632 -0.231881,0.53754 -0.200259,0.48483 1.44397,-0.60077 0.411057,-0.1581 0.06321,0.44266 0.189722,1.58101 c 1.014308,-0.59564 1.761884,-1.60198 2.002592,-2.79308 l 5.143496,0 0,1.68642 1.686395,0 0,-5.0592 -1.686395,0 0,1.68638 -5.143496,0 c -0.389244,-1.9262 -2.090744,-3.37282 -4.131665,-3.37282 l -4.215966,0 0,3.62575 z"
       id="rect3860"
       inkscape:connector-curvature="0" />
    <rect
       y="1015.767"
       x="8.4048395"
       height="24.190321"
       width="24.190321"
       id="rect3020"
       style="fill:#e00059;fill-opacity:1;fill-rule:evenodd;stroke:none" />
    <path
       style="fill:#ffffff;fill-opacity:1;display:inline"
       id="path2536"
       inkscape:connector-curvature="0"
       d="m 28.33437,1025.9041 c 0.02614,0.6761 -0.204629,1.0046 -0.413318,1.5857 l -0.375295,0.1798 c -0.306794,0.575 0.03047,0.3651 -0.189244,0.822 -0.479491,0.4106 -1.452992,1.2845 -1.76472,1.3645 -0.227848,-0.012 0.154123,-0.259 0.204045,-0.3584 -0.641161,0.4242 -0.514611,0.637 -1.495372,0.8953 l -0.02844,-0.062 c -2.417785,1.0969 -5.776564,-1.0768 -5.732444,-4.0424 -0.02554,0.188 -0.07344,0.141 -0.126839,0.2166 -0.124804,-1.5255 0.730848,-3.058 2.173973,-3.6844 1.411488,-0.6736 3.066204,-0.3975 4.076567,0.5118 -0.554956,-0.7014 -1.660521,-1.4451 -2.96984,-1.3763 -1.283199,0.019 -2.483964,0.8064 -2.884511,1.6604 -0.657126,0.3988 -0.733754,1.5381 -1.019937,1.7468 -0.385748,2.7317 0.72475,3.9113 2.603545,5.2996 0.294894,0.1921 0.08302,0.2216 0.122484,0.3677 -0.624034,-0.2816 -1.195248,-0.707 -1.665454,-1.2279 0.249614,0.3518 0.518677,0.6938 0.866688,0.9625 -0.58892,-0.1916 -1.375207,-1.375 -1.604215,-1.4232 1.014425,1.7516 4.115169,3.0716 5.7397,2.4165 -0.751747,0.028 -1.706382,0.015 -2.550429,-0.286 -0.355556,-0.1761 -0.837081,-0.5401 -0.750879,-0.6081 2.216356,0.7978 4.505271,0.6039 6.422662,-0.8782 0.488199,-0.3665 1.021104,-0.9897 1.175223,-0.9979 -0.231907,0.3361 0.03977,0.1615 -0.138449,0.4585 0.485302,-0.756 -0.211592,-0.3078 0.502135,-1.3054 l 0.263546,0.3499 c -0.09868,-0.6281 0.808348,-1.3899 0.716047,-2.3822 0.20811,-0.3035 0.231912,0.3268 0.01128,1.025 0.306212,-0.7746 0.08098,-0.8992 0.159348,-1.5383 0.08446,0.2148 0.196786,0.4429 0.253967,0.6698 -0.199692,-0.7484 0.204045,-1.2601 0.304473,-1.6953 -0.09927,-0.043 -0.307956,0.3306 -0.356136,-0.5531 0.0072,-0.3839 0.111164,-0.2012 0.15093,-0.2957 -0.07779,-0.044 -0.282998,-0.3379 -0.407512,-0.9025 0.08967,-0.1328 0.241486,0.3439 0.364554,0.3634 -0.07924,-0.4487 -0.215364,-0.791 -0.221168,-1.1355 -0.35991,-0.7247 -0.127422,0.096 -0.418832,-0.3112 -0.38313,-1.1514 0.317535,-0.2673 0.365133,-0.7901 0.579923,0.8101 0.910519,2.0668 1.062901,2.5874 -0.116108,-0.6347 -0.303313,-1.2495 -0.532322,-1.8444 0.176763,0.073 -0.284154,-1.3051 0.229589,-0.3932 -0.548284,-1.9437 -2.344643,-3.76 -3.99762,-4.612 0.201726,0.1783 0.456855,0.4021 0.365716,0.4376 -0.822572,-0.4716 -0.678024,-0.509 -0.795867,-0.7082 -0.669027,-0.2628 -0.713726,0.022 -1.156356,6e-4 -1.262591,-0.6458 -1.505822,-0.5773 -2.667692,-0.9816 l 0.05283,0.2387 c -0.836211,-0.2688 -0.97437,0.1002 -1.877919,6e-4 -0.05487,-0.041 0.289667,-0.15 0.573534,-0.1895 -0.808639,0.1033 -0.770905,-0.1539 -1.562128,0.03 0.194757,-0.1317 0.401416,-0.2193 0.609237,-0.3313 -0.65916,0.039 -1.574318,0.3699 -1.291909,0.069 -1.075375,0.463 -2.985513,1.1124 -4.057406,2.0818 l -0.03367,-0.2171 c -0.491108,0.5683 -2.14176,1.6977 -2.273244,2.4346 l -0.131484,0.03 c -0.25513,0.4173 -0.420866,0.8901 -0.623458,1.319 -0.334079,0.5495 -0.489944,0.2115 -0.442341,0.2978 -0.657419,1.2853 -0.984531,2.3651 -1.2663666,3.2509 0.2008586,0.2897 0.00499,1.7443 0.080698,2.9085 -0.3297274,5.7494 4.1848296,11.3317 9.1196686,12.6201 0.723305,0.25 1.798681,0.2411 2.713551,0.2657 -1.079153,-0.2978 -1.21847,-0.1576 -2.27034,-0.5111 -0.758423,-0.3449 -0.924448,-0.7379 -1.461992,-1.1878 l 0.212756,0.3626 c -1.053612,-0.3597 -0.612721,-0.445 -1.470118,-0.7067 l 0.227267,-0.286 c -0.34163,-0.025 -0.904712,-0.5546 -1.058546,-0.8487 l -0.373843,0.013 c -0.448728,-0.5336 -0.688184,-0.9188 -0.670478,-1.2175 l -0.120747,0.2077 c -0.136709,-0.2265 -1.651815,-2.0033 -0.86582,-1.5897 -0.145996,-0.1284 -0.340173,-0.209 -0.550605,-0.5782 l 0.15993,-0.1761 c -0.377615,-0.4693 -0.696021,-1.0706 -0.671638,-1.2709 0.201722,0.2622 0.341622,0.3115 0.480363,0.3567 -0.955214,-2.2849 -1.008912,-0.126 -1.731923,-2.3258 l 0.152672,-0.012 c -0.11697,-0.1709 -0.188666,-0.3554 -0.282704,-0.537 l 0.06675,-0.6395 c -0.687313,-0.7659 -0.192143,-3.259 -0.09259,-4.6262 0.06822,-0.5559 0.573823,-1.1477 0.957824,-2.0762 l -0.23394,-0.039 c 0.447568,-0.7522 2.554786,-3.0222 3.531187,-2.9059 0.472816,-0.5725 -0.09405,0 -0.186631,-0.1461 1.038806,-1.0362 1.365336,-0.7318 2.066292,-0.9187 0.755523,-0.4323 -0.648708,0.169 -0.29054,-0.1648 1.306996,-0.3215 0.925899,-0.7316 2.630539,-0.8946 0.179955,0.097 -0.417089,0.1521 -0.566859,0.2801 1.08844,-0.5139 3.444981,-0.3966 4.976345,0.2847 1.77546,0.8008 3.771514,3.1667 3.850463,5.3925 l 0.08969,0.023 c -0.04528,0.885 0.140479,1.9084 -0.18199,2.8484 l 0.217979,-0.4452" />
  </g>
</svg>
