<?xml version="1.0" encoding="UTF-8" standalone="no"?>
<!-- Created with Inkscape (http://www.inkscape.org/) -->

<svg
   xmlns:dc="http://purl.org/dc/elements/1.1/"
   xmlns:cc="http://creativecommons.org/ns#"
   xmlns:rdf="http://www.w3.org/1999/02/22-rdf-syntax-ns#"
   xmlns:svg="http://www.w3.org/2000/svg"
   xmlns="http://www.w3.org/2000/svg"
   xmlns:xlink="http://www.w3.org/1999/xlink"
   xmlns:sodipodi="http://sodipodi.sourceforge.net/DTD/sodipodi-0.dtd"
   xmlns:inkscape="http://www.inkscape.org/namespaces/inkscape"
   width="96"
   height="96"
   id="svg2"
   version="1.1"
   inkscape:version="0.48.4 r9939"
   sodipodi:docname="gnash.svg">
  <defs
     id="defs4">
    <linearGradient
       id="linearGradient3772">
      <stop
         style="stop-color:#006ab0;stop-opacity:1;"
         offset="0"
         id="stop3774" />
      <stop
         style="stop-color:#3db0fd;stop-opacity:1;"
         offset="1"
         id="stop3776" />
    </linearGradient>
    <linearGradient
       inkscape:collect="always"
       xlink:href="#linearGradient3772"
       id="linearGradient3779"
       x1="45"
       y1="1047.3622"
       x2="45"
       y2="957.36218"
       gradientUnits="userSpaceOnUse" />
  </defs>
  <sodipodi:namedview
     id="base"
     pagecolor="#ffffff"
     bordercolor="#666666"
     borderopacity="1.0"
     inkscape:pageopacity="0.0"
     inkscape:pageshadow="2"
     inkscape:zoom="5.90625"
     inkscape:cx="47.830688"
     inkscape:cy="48"
     inkscape:document-units="px"
     inkscape:current-layer="layer1"
     showgrid="true"
     inkscape:snap-page="true"
     inkscape:snap-global="false"
     inkscape:snap-center="true"
     inkscape:snap-object-midpoints="false"
     showguides="true"
     inkscape:guide-bbox="true"
     inkscape:snap-bbox="true"
     inkscape:object-paths="true"
     inkscape:object-nodes="true"
     inkscape:window-width="1305"
     inkscape:window-height="744"
     inkscape:window-x="61"
     inkscape:window-y="24"
     inkscape:window-maximized="1"
     inkscape:snap-midpoints="false"
     inkscape:snap-grids="true"
     inkscape:snap-to-guides="false">
    <inkscape:grid
       type="xygrid"
       id="grid3002"
       empspacing="5"
       visible="true"
       enabled="true"
       snapvisiblegridlinesonly="true" />
  </sodipodi:namedview>
  <metadata
     id="metadata7">
    <rdf:RDF>
      <cc:Work
         rdf:about="">
        <dc:format>image/svg+xml</dc:format>
        <dc:type
           rdf:resource="http://purl.org/dc/dcmitype/StillImage" />
        <dc:title />
      </cc:Work>
    </rdf:RDF>
  </metadata>
  <g
     inkscape:label="Layer 1"
     inkscape:groupmode="layer"
     id="layer1"
     transform="translate(0,-956.36218)">
    <rect
       style="fill:#ffffff;fill-opacity:0;fill-rule:nonzero;stroke:none"
       id="rect3775"
       width="96"
       height="96"
       x="0"
       y="956.36218"
       ry="0" />
    <path
       style="fill:#000000;fill-opacity:0.09589041;fill-rule:nonzero;stroke:none"
       d="m 3.353015,956.30662 c -1.884176,0 -3.4111555,1.43156 -3.4111555,3.19799 l 0,83.65949 c 0,1.7665 1.5269795,3.1981 3.4111555,3.1981 l 89.23583,0 c 1.884174,0 3.411155,-1.4316 3.411155,-3.1981 l 0,-83.65949 c 0,-1.76643 -1.526981,-3.19799 -3.411155,-3.19799 z"
       id="rect3772"
       inkscape:connector-curvature="0"
       sodipodi:nodetypes="sssssssss" />
    <path
       style="fill:#000000;fill-opacity:0.18721463;fill-rule:nonzero;stroke:none"
       d="m 1.0459761,1041.8066 0,7.4219 c 0,1.7392 1.461916,3.1337 3.2852054,3.1337 l 86.3836135,0 c 1.823288,0 3.285205,-1.3945 3.285205,-3.1337 l 0,-7.4219 -92.9540239,0 z"
       id="rect3785"
       inkscape:connector-curvature="0" />
    <path
       style="fill:#000000;fill-opacity:0.38356168;fill-rule:nonzero;stroke:none"
       d="m 1.0459761,1041.8066 0,5.3807 c 0,1.762 1.461916,3.1749 3.2852054,3.1749 l 86.3836135,0 c 1.823288,0 3.285205,-1.4129 3.285205,-3.1749 l 0,-5.3807 -92.9540239,0 z"
       id="rect3783"
       inkscape:connector-curvature="0" />
    <rect
       style="fill:url(#linearGradient3779);fill-opacity:1;fill-rule:nonzero;stroke:none"
       id="rect2985"
       width="92.954025"
       height="89"
       x="1.045977"
       y="957.36218"
       ry="3.1511393" />
    <path
       style="fill:#000000;fill-opacity:0.38356168;fill-rule:nonzero;stroke:none"
       d="m 1,1042.3622 0.045976,2.7457 c 0.03024,1.8058 1.461916,3.2543 3.2852054,3.2543 l 86.3836136,0 c 1.823288,0 3.285205,-1.4481 3.285205,-3.2543 l -0.04598,-2.7457 z"
       id="rect3781"
       inkscape:connector-curvature="0"
       sodipodi:nodetypes="csssscc" />
    <rect
       style="fill:#ffffff;fill-opacity:0.30000001;fill-rule:nonzero;stroke:none"
       id="rect3770"
       width="92.954033"
       height="2.000005"
       x="1.045976"
       y="1040.3622" />
    <rect
       style="fill:#ffffff;fill-opacity:0.15981735;fill-rule:nonzero;stroke:none"
       id="rect2999"
       width="93"
       height="60"
       x="1"
       y="10"
       transform="translate(0,956.36218)" />
    <rect
       y="966.36218"
       x="1"
       height="27.354498"
       width="93"
       id="rect3769"
       style="fill:#ffffff;fill-opacity:0.15981739;fill-rule:nonzero;stroke:none" />
    <rect
       style="fill:#ffffff;fill-opacity:0.15981739;fill-rule:nonzero;stroke:none"
       id="rect3771"
       width="93"
       height="26.317457"
       x="1"
       y="-1026.2987"
       transform="scale(1,-1)" />
    <rect
       style="fill:#ffffff;fill-opacity:0.15981739;fill-rule:nonzero;stroke:none"
       id="rect3773"
       width="93"
       height="4.666667"
       x="1"
       y="966.36218" />
    <path
       style="font-size:61.00499344px;font-style:normal;font-variant:normal;font-weight:normal;font-stretch:normal;text-align:end;line-height:125%;letter-spacing:0px;word-spacing:0px;text-anchor:end;fill:#ffffff;fill-opacity:1;stroke:none;font-family:mry_KacstQurn;-inkscape-font-specification:mry_KacstQurn"
       d="m 38.114147,966.62211 c -5.403012,10e-5 -9.406045,1.2212 -11.996513,3.6883 -2.565812,2.4424 -3.843547,5.8863 -3.843543,10.3271 -4e-6,1.5296 0.187611,2.9347 0.582355,4.1929 0.394734,1.2583 0.925642,2.352 1.59177,3.3388 0.690788,0.9869 1.508377,1.847 2.445891,2.5624 0.962169,0.6908 1.995678,1.2359 3.105893,1.63057 -0.986859,0.5675 -1.878844,1.155 -2.717656,1.7471 -0.814159,0.5674 -1.504376,1.1586 -2.096478,1.8247 -0.592115,0.6415 -1.091085,1.3422 -1.436476,2.0576 -0.320731,0.7155 -0.465889,1.4907 -0.465884,2.32952 -5e-6,0.8881 0.145153,1.6916 0.465884,2.407 0.320721,0.7155 0.763079,1.335 1.281181,1.9024 0.518089,0.5428 1.080934,1.0417 1.747065,1.4365 0.666114,0.3947 1.36685,0.6992 2.057654,0.9706 -3.330622,0.2713 -5.857787,1.1314 -7.609438,2.5623 -1.751658,1.4557 -2.64001,3.5369 -2.64001,6.2507 0,3.454 1.437045,6.0661 4.348251,7.8424 2.935868,1.801 7.384894,2.7177 13.355341,2.7177 3.750005,0 7.00621,-0.3575 9.744741,-1.0483 2.763147,-0.6661 5.031934,-1.6289 6.832965,-2.9117 1.825635,-1.2583 3.188283,-2.8085 4.076485,-4.6589 0.888126,-1.8257 1.358789,-3.9068 1.358829,-6.2506 -4e-5,-1.8011 -0.286723,-3.4221 -0.854121,-4.853 -0.567476,-1.4556 -1.469981,-2.6626 -2.678833,-3.6495 -1.184254,-0.9868 -2.677909,-1.7725 -4.503545,-2.2906 -1.8257,-0.5427 -4.005939,-0.81532 -6.522376,-0.81532 l -9.162386,0 c -1.060877,0 -1.935077,-0.1876 -2.601186,-0.5823 -0.641465,-0.3948 -0.970604,-0.9859 -0.970591,-1.8247 -1.3e-5,-0.4441 0.0849,-0.8865 0.232942,-1.2812 0.172685,-0.3947 0.374452,-0.7663 0.621178,-1.0871 0.27137,-0.3207 0.572205,-0.5685 0.892945,-0.8153 0.345383,-0.2713 0.688674,-0.5261 1.009415,-0.6988 0.197355,0.025 0.484036,0.067 0.854121,0.1165 0.394723,0.025 0.784106,0.053 1.203533,0.078 0.419393,0 0.822929,0.014 1.242358,0.039 0.419391,10e-5 0.776836,10e-5 1.048239,0 2.639798,10e-5 4.908585,-0.3432 6.832965,-1.0094 1.924327,-0.6661 3.517049,-1.57217 4.775311,-2.75647 1.2582,-1.1842 2.203162,-2.5893 2.795304,-4.1929 0.616746,-1.6283 0.931734,-3.3803 0.931768,-5.28 -3.4e-5,-0.9375 -0.113253,-1.8683 -0.310589,-2.7565 -0.197404,-0.9128 -0.469934,-1.7624 -0.815297,-2.6012 -0.320759,-0.8388 -0.681838,-1.6139 -1.125886,-2.3294 -0.444115,-0.7401 -0.957235,-1.4126 -1.4753,-1.98 0.271352,-0.1974 0.657102,-0.3708 1.125887,-0.5436 2.685553,-1.7121 1.161378,-5.5238 -2.32942,-2.9117 -0.493455,0.4934 -0.939447,0.9924 -1.358829,1.4364 -1.134903,-0.6414 -2.4834,-1.1864 -4.037661,-1.6306 -1.529639,-0.4687 -3.207275,-0.6987 -5.008253,-0.6988 z m -0.271766,2.3683 c 5.751941,0 10.404743,4.6528 10.404743,10.4047 0,5.7519 -4.652802,10.4047 -10.404743,10.4047 -5.75194,0 -10.404743,-4.6528 -10.404743,-10.4047 0,-5.7519 4.652803,-10.4047 10.404743,-10.4047 z m -3.571777,40.95889 8.812972,0 c 2.047685,0 3.569644,0.3293 4.581193,0.9707 1.01149,0.6415 1.514092,1.7352 1.514123,3.3389 -3.1e-5,2.4918 -1.005235,4.3853 -3.028246,5.6682 -2.023066,1.2829 -5.265119,1.9412 -9.705917,1.9412 -2.91122,0 -5.109244,-0.5026 -6.638847,-1.5141 -1.504954,-0.9869 -2.251781,-2.5618 -2.251773,-4.6589 -8e-6,-1.2336 0.201759,-2.2246 0.621179,-2.9895 0.419401,-0.7401 0.950308,-1.3275 1.59177,-1.7469 0.666111,-0.4195 1.384634,-0.6673 2.174126,-0.8154 0.789464,-0.1234 1.564597,-0.1942 2.32942,-0.1942 z"
       id="text3768"
       inkscape:connector-curvature="0" />
    <path
       sodipodi:type="arc"
       style="fill:#2e2e2e;fill-opacity:1;fill-rule:nonzero;stroke:none"
       id="path3773"
       sodipodi:cx="35.354824"
       sodipodi:cy="-18.569071"
       sodipodi:rx="8.3831024"
       sodipodi:ry="8.3831024"
       d="m 43.737926,-18.569071 c 0,4.62986 -3.753242,8.383103 -8.383102,8.383103 -4.62986,0 -8.383102,-3.753243 -8.383102,-8.383103 0,-4.629859 3.753242,-8.383102 8.383102,-8.383102 4.62986,0 8.383102,3.753243 8.383102,8.383102 z"
       transform="matrix(1.2423573,0,0,1.2423573,-6.080944,1002.4659)" />
    <g
       id="g3786"
       transform="matrix(0.36530429,0,0,0.36530429,51.241177,629.59065)"
       style="fill:#00edff;fill-opacity:1">
      <path
         id="path3778"
         transform="translate(0,956.3622)"
         d="m -37.3125,-22.90625 c -4.495661,0 -8.125,3.13948 -8.125,7.03125 0,3.89177 5.252293,9.92899 8.125,15.0625 1.822788,-3.88782 8.15625,-11.17073 8.15625,-15.0625 0,-3.89177 -3.660589,-7.03125 -8.15625,-7.03125 z m 0,26.09375 c -2.872707,5.13351 -8.125,11.17073 -8.125,15.0625 0,3.89177 3.629339,7.03125 8.125,7.03125 4.495661,0 8.15625,-3.13948 8.15625,-7.03125 0,-3.89177 -6.333462,-11.17468 -8.15625,-15.0625 z"
         style="fill:#00edff;fill-opacity:1;fill-rule:nonzero;stroke:none"
         inkscape:connector-curvature="0" />
      <path
         inkscape:connector-curvature="0"
         style="fill:#00edff;fill-opacity:1;fill-rule:nonzero;stroke:none"
         d="m -61.390625,957.56533 c 0,4.49566 3.13948,8.125 7.03125,8.125 3.89177,0 9.92899,-5.2523 15.0625,-8.125 -3.88782,-1.82279 -11.17073,-8.15625 -15.0625,-8.15625 -3.89177,0 -7.03125,3.66058 -7.03125,8.15625 z m 26.09375,0 c 5.13351,2.8727 11.17073,8.125 15.0625,8.125 3.89177,0 7.03125,-3.62934 7.03125,-8.125 0,-4.49567 -3.13948,-8.15625 -7.03125,-8.15625 -3.89177,0 -11.17468,6.33346 -15.0625,8.15625 z"
         id="path3784" />
    </g>
  </g>
</svg>
