<?xml version="1.0" encoding="UTF-8" standalone="no"?>
<!-- Created with Inkscape (http://www.inkscape.org/) -->

<svg
   xmlns:dc="http://purl.org/dc/elements/1.1/"
   xmlns:cc="http://creativecommons.org/ns#"
   xmlns:rdf="http://www.w3.org/1999/02/22-rdf-syntax-ns#"
   xmlns:svg="http://www.w3.org/2000/svg"
   xmlns="http://www.w3.org/2000/svg"
   xmlns:sodipodi="http://sodipodi.sourceforge.net/DTD/sodipodi-0.dtd"
   xmlns:inkscape="http://www.inkscape.org/namespaces/inkscape"
   width="96"
   height="96"
   id="svg2"
   version="1.1"
   inkscape:version="0.48.4 r9939"
   sodipodi:docname="gnome.svg">
  <defs
     id="defs4" />
  <sodipodi:namedview
     id="base"
     pagecolor="#ffffff"
     bordercolor="#666666"
     borderopacity="1.0"
     inkscape:pageopacity="0.0"
     inkscape:pageshadow="2"
     inkscape:zoom="5.90625"
     inkscape:cx="18.031746"
     inkscape:cy="48"
     inkscape:document-units="px"
     inkscape:current-layer="layer1"
     showgrid="true"
     inkscape:snap-page="true"
     inkscape:snap-global="false"
     inkscape:snap-center="true"
     inkscape:snap-object-midpoints="false"
     showguides="true"
     inkscape:guide-bbox="true"
     inkscape:snap-bbox="true"
     inkscape:object-paths="true"
     inkscape:object-nodes="true"
     inkscape:window-width="1303"
     inkscape:window-height="744"
     inkscape:window-x="65"
     inkscape:window-y="24"
     inkscape:window-maximized="1"
     inkscape:snap-midpoints="false"
     inkscape:snap-grids="true"
     inkscape:snap-to-guides="false">
    <inkscape:grid
       type="xygrid"
       id="grid3002"
       empspacing="5"
       visible="true"
       enabled="true"
       snapvisiblegridlinesonly="true" />
  </sodipodi:namedview>
  <metadata
     id="metadata7">
    <rdf:RDF>
      <cc:Work
         rdf:about="">
        <dc:format>image/svg+xml</dc:format>
        <dc:type
           rdf:resource="http://purl.org/dc/dcmitype/StillImage" />
        <dc:title />
      </cc:Work>
    </rdf:RDF>
  </metadata>
  <g
     inkscape:label="Layer 1"
     inkscape:groupmode="layer"
     id="layer1"
     transform="translate(0,-956.36218)">
    <rect
       style="fill:#ffffff;fill-opacity:0;fill-rule:nonzero;stroke:none"
       id="rect3775"
       width="96"
       height="96"
       x="0"
       y="956.36218"
       ry="0" />
    <path
       style="fill:#000000;fill-opacity:0.09589041;fill-rule:nonzero;stroke:none"
       d="m 3.353015,956.30662 c -1.884176,0 -3.4111555,1.43156 -3.4111555,3.19799 l 0,83.65949 c 0,1.7665 1.5269795,3.1981 3.4111555,3.1981 l 89.23583,0 c 1.884174,0 3.411155,-1.4316 3.411155,-3.1981 l 0,-83.65949 c 0,-1.76643 -1.526981,-3.19799 -3.411155,-3.19799 z"
       id="rect3772"
       inkscape:connector-curvature="0"
       sodipodi:nodetypes="sssssssss" />
    <path
       style="fill:#000000;fill-opacity:0.18721463;fill-rule:nonzero;stroke:none"
       d="m 1.0459761,1041.8066 0,7.4219 c 0,1.7392 1.461916,3.1337 3.2852054,3.1337 l 86.3836135,0 c 1.823288,0 3.285205,-1.3945 3.285205,-3.1337 l 0,-7.4219 -92.9540239,0 z"
       id="rect3785"
       inkscape:connector-curvature="0" />
    <path
       style="fill:#000000;fill-opacity:0.38356168;fill-rule:nonzero;stroke:none"
       d="m 1.0459761,1041.8066 0,5.3807 c 0,1.762 1.461916,3.1749 3.2852054,3.1749 l 86.3836135,0 c 1.823288,0 3.285205,-1.4129 3.285205,-3.1749 l 0,-5.3807 -92.9540239,0 z"
       id="rect3783"
       inkscape:connector-curvature="0" />
    <rect
       style="fill:#330066;fill-opacity:1;fill-rule:nonzero;stroke:none"
       id="rect2985-6"
       width="93"
       height="88.999977"
       x="1"
       y="957.36218"
       ry="3.1511388" />
    <path
       style="opacity:0.8;fill:#ffffff;fill-opacity:0.47222224;stroke:none;display:inline"
       d="m 74.59375,971.73718 c -2.214106,0.14432 -4.766036,1.07877 -6.8125,2.71875 -2.507445,2.0094 -4.577041,7.15476 -4.03125,10 0.28141,1.467 1.446564,3.22381 2.53125,3.78125 2.019928,1.03798 5.730164,-0.63995 9.125,-4.15625 3.667272,-3.7985 5.315575,-8.00518 4.0625,-10.375 -0.770096,-1.45639 -2.660894,-2.11307 -4.875,-1.96875 z m -18.09375,2.25 c -3.080221,0.003 -4.69934,2.15292 -4.6875,6.1875 0.0081,2.76283 0.921581,5.20028 2.21875,5.8125 0.964446,0.45528 0.97696,0.44396 2.1875,0.0312 2.005152,-0.68359 3.98416,-5.22531 3.59375,-8.28125 -0.319521,-2.50102 -1.433446,-3.751 -3.3125,-3.75 z m 18.28125,0.40625 c 1.614825,-0.10526 2.240362,0.39482 2.3125,0.53125 0.09189,0.17378 0.233758,1.03673 -0.3125,2.4375 -0.546258,1.40077 -1.685074,3.18934 -3.3125,4.875 -1.506839,1.56075 -3.057566,2.64549 -4.25,3.1875 -1.192434,0.54201 -1.822347,0.38426 -1.71875,0.4375 0.12755,0.0656 -0.274901,-0.22536 -0.5625,-0.65625 -0.287599,-0.43089 -0.513274,-0.99338 -0.5625,-1.25 -0.09881,-0.51511 0.08449,-2.23794 0.71875,-3.8125 0.634264,-1.57456 1.710575,-3.0613 2.375,-3.59375 1.586501,-1.27139 3.713232,-2.05201 5.3125,-2.15625 z M 56.5,976.67468 c 0.360829,-1.9e-4 0.205063,-0.0189 0.25,0.0312 0.04494,0.0501 0.289094,0.42673 0.40625,1.34375 0.10208,0.79903 -0.150697,2.38981 -0.6875,3.625 -0.469703,1.08079 -1.316947,1.76546 -1.21875,1.8125 -0.08161,-0.107 -0.204361,-0.27983 -0.3125,-0.5625 -0.248133,-0.6486 -0.434313,-1.66117 -0.4375,-2.75 -0.0049,-1.65801 0.340827,-2.62431 0.625,-3 0.284173,-0.37569 0.457023,-0.49919 1.375,-0.5 z m -11.8125,1.40625 c -0.715304,-0.0342 -1.443889,0.27139 -2.125,0.9375 -1.098323,1.07412 -1.10716,1.63537 -1.09375,3.6875 0.01582,2.42021 0.571149,3.80112 2.25,5.53125 1.255811,1.29416 2.175252,1.33244 3.3125,0.15625 1.231938,-1.27412 1.696189,-3.24232 1.28125,-5.4375 -0.580077,-3.06881 -2.051332,-4.79981 -3.625,-4.875 z m -0.1875,2.6875 c 0.0062,-0.004 0.06925,0.008 0.125,0 0.02176,-0.003 -0.05784,0.0634 -0.0625,0.0625 0.02165,0.026 0.02963,0.0171 0.125,0.125 0.2861,0.32375 0.749403,1.143 1,2.46875 0.229389,1.21355 -0.0165,2.01108 -0.34375,2.59375 -1.000832,-1.07667 -1.175739,-1.54457 -1.1875,-3.34375 -0.0067,-1.02063 0.02833,-1.48877 0.03125,-1.5 0.0029,-0.0112 -0.13519,0.1267 0.25,-0.25 0.148107,-0.14484 0.116733,-0.0953 0.125,-0.0937 -0.01082,-0.013 -0.06457,-0.061 -0.0625,-0.0625 z m 10.75,2.75 c 0.0946,0.12202 0.129761,0.12199 -0.0625,0.0312 0.002,-0.004 0.04495,-0.0228 0.0625,-0.0312 z m -19.09375,1.875 c -0.743078,-0.0145 -1.484585,0.28132 -2.1875,0.96875 -1.475707,1.44321 -0.467787,5.48831 1.875,7.5 2.796222,2.40105 5.080858,0.1449 4.125,-4.0625 -0.623529,-2.74459 -2.177729,-4.37436 -3.8125,-4.40625 z m -0.03125,2.65625 c 0.03013,0.009 0.102532,0.0397 0.25,0.1875 0.294936,0.29568 0.74757,1.01388 1,2.125 0.198555,0.87398 0.09335,0.80813 0.03125,1.125 -0.561905,-0.59519 -1.142204,-1.44725 -1.34375,-2.25 -0.17218,-0.68578 -0.0033,-1.08596 -0.0625,-1.09375 0.102447,-0.0719 0.167777,-0.10055 0.125,-0.0937 z m 25.1875,2.59375 c -1.980187,-0.0333 -4.139405,0.16699 -6.4375,0.625 -5.920022,1.17984 -10.650047,3.38745 -13.6875,6.375 -1.749332,1.72057 -2.745464,3.26917 -3.59375,5.71877 -2.053305,5.9292 1.721767,14.4305 8.96875,20.1875 2.699982,2.1447 4.31291,3.0375 7.0625,3.9375 1.425777,0.4673 2.577146,0.5557 5.21875,0.4687 3.028263,-0.1 3.640149,-0.2156 5.59375,-1.1562 2.862949,-1.3784 6.111132,-4.5534 7.5,-7.3125 0.84728,-1.6831 1.02089,-2.3743 0.9375,-3.7813 -0.142414,-2.4022 -1.085269,-3.1227 -4.1875,-3.0937 -4.428664,0.04 -6.30954,1.1287 -7.21875,4.1875 -0.686729,2.3101 -1.4784,3.125 -3.03125,3.125 -2.460978,0 -4.9375,-2.0052 -4.9375,-4 0,-1.3878 2.228821,-3.3844 7.9375,-7.1563 8.041897,-5.3135 10.848494,-8.559 10.4375,-12.12497 -0.424563,-3.68378 -4.62194,-5.90012 -10.5625,-6 z m -0.03125,2.6875 c 2.652978,0.0446 4.786169,0.5589 6.09375,1.28125 1.307581,0.72235 1.739397,1.40707 1.84375,2.3125 0.115611,1.00307 -0.05274,1.77292 -1.40625,3.34372 -1.353512,1.5709 -3.912404,3.6525 -7.84375,6.25 -2.904708,1.9193 -4.967583,3.3864 -6.4375,4.7188 -1.469917,1.3324 -2.71875,2.5613 -2.71875,4.6875 0,2.1046 1.18555,3.6972 2.5625,4.8125 1.37695,1.1153 3.105365,1.875 5.0625,1.875 1.262345,0 2.808803,-0.5444 3.78125,-1.5625 0.972447,-1.0181 1.414545,-2.1925 1.8125,-3.5313 0.335031,-1.1271 0.569761,-1.3426 1.0625,-1.625 0.492739,-0.2823 1.620124,-0.5755 3.625,-0.5937 0.799883,-0.01 1.250627,0.084 1.46875,0.125 -0.0154,-0.1528 -0.0061,-0.1271 0.125,-0.031 0.08113,0.059 0.02514,0.059 -0.125,0.031 0.008,0.079 0.0137,0.1102 0.03125,0.4062 0.06722,1.134 0.118781,0.9292 -0.65625,2.4688 -1.006242,1.999 -4.152486,5.0688 -6.28125,6.0937 -1.834461,0.8833 -1.559495,0.7774 -4.53125,0.875 -2.53538,0.083 -3.131992,0.033 -4.28125,-0.3437 -2.546463,-0.8336 -3.673205,-1.4532 -6.25,-3.5 -6.600539,-5.2434 -9.557407,-12.961 -8.09375,-17.1875 0.75045,-2.1671 1.398356,-3.1737 2.9375,-4.6875 2.517245,-2.47591 6.783206,-4.54807 12.34375,-5.65627 2.129678,-0.42444 4.107818,-0.59221 5.875,-0.5625 z"
       id="path3456"
       inkscape:connector-curvature="0" />
    <path
       inkscape:connector-curvature="0"
       style="fill:#000000;fill-opacity:0.47488585;fill-rule:nonzero;stroke:none"
       d="m 21.239955,957.36218 -16.9531246,0 c -0.9120953,0 -1.7229136,0.35752 -2.3180804,0.92708 C 1.3735832,958.85883 1,959.63477 1,960.50764 l 0,82.70906 c 0,0.8729 0.3735832,1.6488 0.96875,2.2184 0.5951668,0.5696 1.4059851,0.9271 2.3180804,0.9271 l 16.9531246,0 0,-89.00002 z"
       id="path3869" />
    <path
       style="fill:#000000;fill-opacity:0.38356168;fill-rule:nonzero;stroke:none"
       d="m 1,1042.3622 0.045976,2.7457 c 0.03024,1.8058 1.461916,3.2543 3.2852054,3.2543 l 86.3836136,0 c 1.823288,0 3.285205,-1.4481 3.285205,-3.2543 l -0.04598,-2.7457 z"
       id="rect3781"
       inkscape:connector-curvature="0"
       sodipodi:nodetypes="csssscc" />
    <rect
       style="fill:#ffffff;fill-opacity:0.30000001;fill-rule:nonzero;stroke:none"
       id="rect3770"
       width="92.954033"
       height="2.000005"
       x="1.045976"
       y="1040.3622" />
  </g>
</svg>
