<?xml version="1.0" encoding="UTF-8" standalone="no"?>
<!-- Created with Inkscape (http://www.inkscape.org/) -->

<svg
   xmlns:dc="http://purl.org/dc/elements/1.1/"
   xmlns:cc="http://creativecommons.org/ns#"
   xmlns:rdf="http://www.w3.org/1999/02/22-rdf-syntax-ns#"
   xmlns:svg="http://www.w3.org/2000/svg"
   xmlns="http://www.w3.org/2000/svg"
   xmlns:xlink="http://www.w3.org/1999/xlink"
   xmlns:sodipodi="http://sodipodi.sourceforge.net/DTD/sodipodi-0.dtd"
   xmlns:inkscape="http://www.inkscape.org/namespaces/inkscape"
   width="96"
   height="96"
   id="svg2"
   version="1.1"
   inkscape:version="0.48.4 r9939"
   sodipodi:docname="subtitles.svg">
  <defs
     id="defs4">
    <linearGradient
       id="linearGradient3762">
      <stop
         style="stop-color:#a3057f;stop-opacity:1;"
         offset="0"
         id="stop3764" />
      <stop
         style="stop-color:#006a57;stop-opacity:1;"
         offset="1"
         id="stop3766" />
    </linearGradient>
    <linearGradient
       inkscape:collect="always"
       xlink:href="#linearGradient3762"
       id="linearGradient3768"
       x1="2.6931214"
       y1="1043.3436"
       x2="94.169312"
       y2="957.33307"
       gradientUnits="userSpaceOnUse" />
  </defs>
  <sodipodi:namedview
     id="base"
     pagecolor="#ffffff"
     bordercolor="#666666"
     borderopacity="1.0"
     inkscape:pageopacity="0.0"
     inkscape:pageshadow="2"
     inkscape:zoom="9.5613949"
     inkscape:cx="40.379521"
     inkscape:cy="48.592593"
     inkscape:document-units="px"
     inkscape:current-layer="layer1"
     showgrid="true"
     inkscape:snap-page="true"
     inkscape:snap-global="false"
     inkscape:snap-center="true"
     inkscape:snap-object-midpoints="false"
     showguides="true"
     inkscape:guide-bbox="true"
     inkscape:snap-bbox="true"
     inkscape:object-paths="true"
     inkscape:object-nodes="true"
     inkscape:window-width="1305"
     inkscape:window-height="744"
     inkscape:window-x="61"
     inkscape:window-y="24"
     inkscape:window-maximized="1"
     inkscape:snap-midpoints="false"
     inkscape:snap-grids="true"
     inkscape:snap-to-guides="false">
    <inkscape:grid
       type="xygrid"
       id="grid3002"
       empspacing="5"
       visible="true"
       enabled="true"
       snapvisiblegridlinesonly="true" />
  </sodipodi:namedview>
  <metadata
     id="metadata7">
    <rdf:RDF>
      <cc:Work
         rdf:about="">
        <dc:format>image/svg+xml</dc:format>
        <dc:type
           rdf:resource="http://purl.org/dc/dcmitype/StillImage" />
        <dc:title />
      </cc:Work>
    </rdf:RDF>
  </metadata>
  <g
     inkscape:label="Layer 1"
     inkscape:groupmode="layer"
     id="layer1"
     transform="translate(0,-956.36218)">
    <rect
       style="fill:#ffffff;fill-opacity:0;fill-rule:nonzero;stroke:none"
       id="rect3775"
       width="96"
       height="96"
       x="0"
       y="956.36218"
       ry="0" />
    <path
       style="fill:#000000;fill-opacity:0.09589041;fill-rule:nonzero;stroke:none"
       d="m 3.353015,956.30662 c -1.884176,0 -3.4111555,1.43156 -3.4111555,3.19799 l 0,83.65949 c 0,1.7665 1.5269795,3.1981 3.4111555,3.1981 l 89.23583,0 c 1.884174,0 3.411155,-1.4316 3.411155,-3.1981 l 0,-83.65949 c 0,-1.76643 -1.526981,-3.19799 -3.411155,-3.19799 z"
       id="rect3772"
       inkscape:connector-curvature="0"
       sodipodi:nodetypes="sssssssss" />
    <path
       style="fill:#000000;fill-opacity:0.18721463;fill-rule:nonzero;stroke:none"
       d="m 1.0459761,1041.8066 0,7.4219 c 0,1.7392 1.461916,3.1337 3.2852054,3.1337 l 86.3836135,0 c 1.823288,0 3.285205,-1.3945 3.285205,-3.1337 l 0,-7.4219 -92.9540239,0 z"
       id="rect3785"
       inkscape:connector-curvature="0" />
    <path
       style="fill:#000000;fill-opacity:0.38356168;fill-rule:nonzero;stroke:none"
       d="m 1.0459761,1041.8066 0,5.3807 c 0,1.762 1.461916,3.1749 3.2852054,3.1749 l 86.3836135,0 c 1.823288,0 3.285205,-1.4129 3.285205,-3.1749 l 0,-5.3807 -92.9540239,0 z"
       id="rect3783"
       inkscape:connector-curvature="0" />
    <rect
       style="fill:url(#linearGradient3768);fill-opacity:1;fill-rule:nonzero;stroke:none"
       id="rect2985-6"
       width="93"
       height="88.999977"
       x="1"
       y="957.36218"
       ry="3.1511388" />
    <path
       style="fill:#000000;fill-opacity:0.38356168;fill-rule:nonzero;stroke:none"
       d="m 1,1042.3622 0.045976,2.7457 c 0.03024,1.8058 1.461916,3.2543 3.2852054,3.2543 l 86.3836136,0 c 1.823288,0 3.285205,-1.4481 3.285205,-3.2543 l -0.04598,-2.7457 z"
       id="rect3781"
       inkscape:connector-curvature="0"
       sodipodi:nodetypes="csssscc" />
    <rect
       style="fill:#ffffff;fill-opacity:0.30000001;fill-rule:nonzero;stroke:none"
       id="rect3770"
       width="92.954033"
       height="2.000005"
       x="1.045976"
       y="1040.3622" />
    <path
       style="font-size:48.96608734px;font-style:normal;font-variant:normal;font-weight:normal;font-stretch:normal;text-align:end;line-height:125%;letter-spacing:0px;word-spacing:0px;writing-mode:lr-tb;text-anchor:end;fill:#ffffff;fill-opacity:1;stroke:none;font-family:Courier New;-inkscape-font-specification:Courier New"
       d="m 24.4375,982.73123 c -2.757542,3e-5 -4.966675,0.72877 -6.65625,2.22857 -1.673652,1.49985 -2.531255,3.30176 -2.53125,5.38571 -5e-6,2.09978 0.752312,3.72283 2.21875,4.85953 1.466423,1.13673 3.856137,1.98554 7.1875,2.53809 2.422784,0.4105 4.016136,0.78276 4.78125,1.11429 1.099803,0.47364 1.942097,1.12905 2.5,1.94998 0.557859,0.8052 0.812477,1.7128 0.8125,2.7548 -2.3e-5,1.7051 -0.72109,3.1789 -2.1875,4.4262 -1.450512,1.2472 -3.419079,1.8881 -5.9375,1.8881 -2.51845,0 -4.532949,-0.6112 -6.03125,-1.7953 -1.482379,-1.1998 -2.264059,-2.5094 -2.34375,-3.9619 -0.01595,-0.4262 -0.121233,-0.7391 -0.3125,-0.9285 -0.17534,-0.1895 -0.400595,-0.2786 -0.6875,-0.2786 -0.302855,0 -0.558731,0.1043 -0.75,0.3095 -0.175339,0.2053 -0.250004,0.532 -0.25,1.0214 l 0,5.5096 c -4e-6,0.4736 0.08997,0.8161 0.28125,1.0214 0.191269,0.2052 0.431834,0.3095 0.71875,0.3095 0.302844,0 0.54341,-0.1043 0.71875,-0.3095 0.191267,-0.2053 0.281244,-0.5478 0.28125,-1.0214 l 0,-1.1453 c 2.088064,2.1629 4.884242,3.25 8.375,3.25 3.108181,0 5.573189,-0.7888 7.40625,-2.3833 1.833016,-1.6104 2.749975,-3.5766 2.75,-5.85 -2.5e-5,-1.484 -0.376498,-2.7488 -1.09375,-3.83811 -0.70136,-1.08934 -1.738287,-1.95332 -3.125,-2.56905 -1.036086,-0.45783 -2.899366,-0.91983 -5.625,-1.3619 -1.625841,-0.26838 -2.828667,-0.50603 -3.59375,-0.74286 -0.765106,-0.25259 -1.45681,-0.56482 -2.0625,-0.95952 -0.605709,-0.41047 -1.10215,-0.96221 -1.46875,-1.60953 -0.366616,-0.64727 -0.531257,-1.34631 -0.53125,-2.13571 -7e-6,-1.53138 0.630454,-2.87191 1.9375,-3.99286 1.307027,-1.13669 3.0969,-1.70235 5.3125,-1.70238 2.103995,3e-5 3.771383,0.52082 5.0625,1.57857 1.307016,1.0578 2.014031,2.26433 2.09375,3.59048 0.01592,0.42629 0.105894,0.73914 0.28125,0.92857 0.191251,0.18947 0.431817,0.27859 0.71875,0.27857 0.302827,2e-5 0.543392,-0.10426 0.71875,-0.30952 0.19125,-0.20522 0.281226,-0.54778 0.28125,-1.02143 l 0,-5.07619 c -2.4e-5,-0.47361 -0.09,-0.81616 -0.28125,-1.02143 -0.175358,-0.20521 -0.415923,-0.3095 -0.71875,-0.30952 -0.302873,2e-5 -0.558749,0.10431 -0.75,0.30952 -0.175356,0.20527 -0.250022,0.54782 -0.25,1.02143 l 0,0.68095 c -2.024334,-1.7524 -4.444669,-2.63092 -7.25,-2.63095 z M 40.5,1022.3812 c -0.478185,0 -0.824037,0.074 -1.03125,0.2476 -0.207213,0.1895 -0.28125,0.4429 -0.28125,0.7429 0,0.3 0.07404,0.5382 0.28125,0.7119 0.207213,0.1894 0.553065,0.2786 1.03125,0.2786 l 26.71875,0 c 0.494095,0 0.839947,-0.089 1.03125,-0.2786 0.207184,-0.1737 0.312471,-0.4119 0.3125,-0.7119 -2.9e-5,-0.3 -0.105316,-0.5534 -0.3125,-0.7429 -0.191303,-0.1736 -0.537155,-0.2476 -1.03125,-0.2476 l -26.71875,0 z"
       id="text3770"
       inkscape:connector-curvature="0" />
    <rect
       style="fill:#ffffff;fill-opacity:0.28310502;fill-rule:evenodd;stroke:none"
       id="rect3776"
       width="61.58165"
       height="7.732111"
       x="32.41835"
       y="983.36218" />
    <rect
       y="1002.8154"
       x="1.0421752"
       height="8.2550468"
       width="14.308212"
       id="rect3778"
       style="fill:#ffffff;fill-opacity:0.28310505;fill-rule:evenodd;stroke:none" />
    <rect
       y="983.36218"
       x="1.0421752"
       height="28.440386"
       width="92.957825"
       id="rect3780"
       style="fill:#ffffff;fill-opacity:0.11415525;fill-rule:evenodd;stroke:none" />
    <rect
       style="fill:#ffffff;fill-opacity:0.11415525;fill-rule:evenodd;stroke:none"
       id="rect3782"
       width="92.957825"
       height="1.9798118"
       x="1.0421752"
       y="1022.3732" />
  </g>
</svg>
