<?xml version="1.0" encoding="UTF-8" standalone="no"?>
<!-- Created with Inkscape (http://www.inkscape.org/) -->

<svg
   xmlns:dc="http://purl.org/dc/elements/1.1/"
   xmlns:cc="http://creativecommons.org/ns#"
   xmlns:rdf="http://www.w3.org/1999/02/22-rdf-syntax-ns#"
   xmlns:svg="http://www.w3.org/2000/svg"
   xmlns="http://www.w3.org/2000/svg"
   xmlns:sodipodi="http://sodipodi.sourceforge.net/DTD/sodipodi-0.dtd"
   xmlns:inkscape="http://www.inkscape.org/namespaces/inkscape"
   width="96"
   height="96"
   id="svg2"
   version="1.1"
   inkscape:version="0.48.4 r9939"
   sodipodi:docname="gnome-commander.svg">
  <defs
     id="defs4" />
  <sodipodi:namedview
     id="base"
     pagecolor="#ffffff"
     bordercolor="#666666"
     borderopacity="1.0"
     inkscape:pageopacity="0.0"
     inkscape:pageshadow="2"
     inkscape:zoom="4.1763494"
     inkscape:cx="5.6184885"
     inkscape:cy="48"
     inkscape:document-units="px"
     inkscape:current-layer="layer1"
     showgrid="true"
     inkscape:snap-page="true"
     inkscape:snap-global="true"
     inkscape:snap-center="true"
     inkscape:snap-object-midpoints="false"
     showguides="true"
     inkscape:guide-bbox="true"
     inkscape:snap-bbox="true"
     inkscape:object-paths="true"
     inkscape:object-nodes="true"
     inkscape:window-width="1305"
     inkscape:window-height="744"
     inkscape:window-x="61"
     inkscape:window-y="24"
     inkscape:window-maximized="1"
     inkscape:snap-midpoints="false"
     inkscape:snap-grids="true"
     inkscape:snap-to-guides="false">
    <inkscape:grid
       type="xygrid"
       id="grid3002"
       empspacing="5"
       visible="true"
       enabled="true"
       snapvisiblegridlinesonly="true" />
  </sodipodi:namedview>
  <metadata
     id="metadata7">
    <rdf:RDF>
      <cc:Work
         rdf:about="">
        <dc:format>image/svg+xml</dc:format>
        <dc:type
           rdf:resource="http://purl.org/dc/dcmitype/StillImage" />
        <dc:title />
      </cc:Work>
    </rdf:RDF>
  </metadata>
  <g
     inkscape:label="Layer 1"
     inkscape:groupmode="layer"
     id="layer1"
     transform="translate(0,-956.36218)">
    <rect
       style="fill:#ffffff;fill-opacity:0;fill-rule:nonzero;stroke:none"
       id="rect3775"
       width="96"
       height="96"
       x="0"
       y="956.36218"
       ry="0" />
    <path
       style="fill:#000000;fill-opacity:0.09589041;fill-rule:nonzero;stroke:none"
       d="m 3.353015,956.30662 c -1.884176,0 -3.4111555,1.43156 -3.4111555,3.19799 l 0,83.65949 c 0,1.7665 1.5269795,3.1981 3.4111555,3.1981 l 89.23583,0 c 1.884174,0 3.411155,-1.4316 3.411155,-3.1981 l 0,-83.65949 c 0,-1.76643 -1.526981,-3.19799 -3.411155,-3.19799 z"
       id="rect3772"
       inkscape:connector-curvature="0"
       sodipodi:nodetypes="sssssssss" />
    <path
       style="fill:#000000;fill-opacity:0.18721463;fill-rule:nonzero;stroke:none"
       d="m 1.0459761,1041.8066 0,7.4219 c 0,1.7392 1.461916,3.1337 3.2852054,3.1337 l 86.3836135,0 c 1.823288,0 3.285205,-1.3945 3.285205,-3.1337 l 0,-7.4219 -92.9540239,0 z"
       id="rect3785"
       inkscape:connector-curvature="0" />
    <path
       style="fill:#000000;fill-opacity:0.38356168;fill-rule:nonzero;stroke:none"
       d="m 1.0459761,1041.8066 0,5.3807 c 0,1.762 1.461916,3.1749 3.2852054,3.1749 l 86.3836135,0 c 1.823288,0 3.285205,-1.4129 3.285205,-3.1749 l 0,-5.3807 -92.9540239,0 z"
       id="rect3783"
       inkscape:connector-curvature="0" />
    <rect
       style="fill:#1c1c1c;fill-opacity:1;fill-rule:nonzero;stroke:none"
       id="rect2985-2"
       width="93"
       height="88.999962"
       x="0.9999969"
       y="957.36224"
       ry="3.1511383" />
    <path
       style="fill:#60afdd;fill-opacity:1;fill-rule:nonzero;stroke:none"
       d="M 60,1 C 40,1 50,16 35,16 L 1,16 1,86.84375 C 1,88.589481 2.4105194,90 4.15625,90 l 86.6875,0 C 92.589481,90 94,88.589481 94,86.84375 L 94,4.15625 C 94,2.4105194 92.589481,1 90.84375,1 z"
       transform="translate(0,956.36218)"
       id="rect2995"
       inkscape:connector-curvature="0"
       sodipodi:nodetypes="cccssssssc" />
    <path
       style="fill:#000000;fill-opacity:0.38356168;fill-rule:nonzero;stroke:none"
       d="m 1,1042.3622 0.045976,2.7457 c 0.03024,1.8058 1.461916,3.2543 3.2852054,3.2543 l 86.3836136,0 c 1.823288,0 3.285205,-1.4481 3.285205,-3.2543 l -0.04598,-2.7457 z"
       id="rect3781"
       inkscape:connector-curvature="0"
       sodipodi:nodetypes="csssscc" />
    <rect
       style="fill:#ffffff;fill-opacity:0.30000001;fill-rule:nonzero;stroke:none"
       id="rect3770"
       width="92.954033"
       height="2.000005"
       x="1.045976"
       y="1040.3622" />
    <path
       style="fill:#b3e3ff;fill-opacity:1;fill-rule:nonzero;stroke:none"
       d="M 60,1 C 40,1 50,16 35,16 l -34,0 0,2 36,0 C 52,18 42,3 62,3 L 90.84375,3 C 92.589481,3 94,4.41052 94,6.15625 l 0,-2 C 94,2.4105194 92.589481,1 90.84375,1 z"
       transform="translate(0,956.36218)"
       id="path3768"
       inkscape:connector-curvature="0"
       sodipodi:nodetypes="ssccssscsss" />
    <path
       style="font-size:15.08742142000000008px;font-style:normal;font-variant:normal;font-weight:normal;font-stretch:normal;text-align:end;line-height:89.99999762000000203%;letter-spacing:0px;word-spacing:0px;text-anchor:end;fill:#000000;fill-opacity:0.46118721;stroke:none;font-family:Andale Mono;-inkscape-font-specification:Andale Mono"
       d="M 21.34375 27.21875 C 20.150612 27.21876 19.237127 27.673117 18.625 28.59375 C 18.018056 29.509751 17.718749 30.740904 17.71875 32.3125 C 17.718749 33.930603 18.028556 35.201008 18.65625 36.09375 C 19.28394 36.986495 20.186924 37.4375 21.34375 37.4375 C 22.542066 37.4375 23.424301 36.978493 24.03125 36.0625 C 24.638184 35.141859 24.937492 33.879456 24.9375 32.3125 C 24.937492 30.694407 24.627685 29.455252 24 28.5625 C 23.377488 27.665115 22.505754 27.21876 21.34375 27.21875 z M 40.4375 27.21875 C 39.244362 27.21876 38.362127 27.673117 37.75 28.59375 C 37.143056 29.509751 36.812499 30.740904 36.8125 32.3125 C 36.812499 33.930603 37.153556 35.201008 37.78125 36.09375 C 38.40894 36.986495 39.280674 37.4375 40.4375 37.4375 C 41.635816 37.4375 42.549301 36.978493 43.15625 36.0625 C 43.763184 35.141859 44.062492 33.879456 44.0625 32.3125 C 44.062492 30.694407 43.752685 29.455252 43.125 28.5625 C 42.502488 27.665115 41.599504 27.21876 40.4375 27.21875 z M 50 27.21875 C 48.806862 27.21876 47.893377 27.673117 47.28125 28.59375 C 46.674306 29.509751 46.374999 30.740904 46.375 32.3125 C 46.374999 33.930603 46.684806 35.201008 47.3125 36.09375 C 47.94019 36.986495 48.843174 37.4375 50 37.4375 C 51.198316 37.4375 52.111801 36.978493 52.71875 36.0625 C 53.325684 35.141859 53.624992 33.879456 53.625 32.3125 C 53.624992 30.694407 53.315185 29.455252 52.6875 28.5625 C 52.064988 27.665115 51.162004 27.21876 50 27.21875 z M 69.125 27.21875 C 67.931862 27.21876 67.018377 27.673117 66.40625 28.59375 C 65.799306 29.509751 65.499999 30.740904 65.5 32.3125 C 65.499999 33.930603 65.809806 35.201008 66.4375 36.09375 C 67.06519 36.986495 67.968174 37.4375 69.125 37.4375 C 70.323316 37.4375 71.205551 36.978493 71.8125 36.0625 C 72.419434 35.141859 72.718742 33.879456 72.71875 32.3125 C 72.718742 30.694407 72.408935 29.455252 71.78125 28.5625 C 71.158738 27.665115 70.287004 27.21876 69.125 27.21875 z M 30.78125 27.34375 L 28.40625 28.4375 L 28.40625 29.59375 L 30.59375 28.59375 L 30.59375 36.25 L 28.28125 36.25 L 28.28125 37.25 L 34.0625 37.25 L 34.0625 36.25 L 31.875 36.25 L 31.875 27.34375 L 30.78125 27.34375 z M 59.4375 27.34375 L 57.0625 28.4375 L 57.0625 29.59375 L 59.28125 28.59375 L 59.28125 36.25 L 56.9375 36.25 L 56.9375 37.25 L 62.71875 37.25 L 62.71875 36.25 L 60.53125 36.25 L 60.53125 27.34375 L 59.4375 27.34375 z M 78.5625 27.34375 L 76.1875 28.4375 L 76.1875 29.59375 L 78.375 28.59375 L 78.375 36.25 L 76.0625 36.25 L 76.0625 37.25 L 81.8125 37.25 L 81.8125 36.25 L 79.65625 36.25 L 79.65625 27.34375 L 78.5625 27.34375 z M 21.34375 28.21875 C 22.111501 28.218759 22.662928 28.567799 23.03125 29.21875 C 23.404746 29.865067 23.593743 30.880395 23.59375 32.3125 C 23.593743 33.739965 23.404746 34.781893 23.03125 35.4375 C 22.662928 36.088461 22.111501 36.437501 21.34375 36.4375 C 20.581177 36.437501 19.9985 36.09311 19.625 35.4375 C 19.256682 34.777243 19.062497 33.730665 19.0625 32.3125 C 19.062497 30.912943 19.251494 29.883666 19.625 29.21875 C 19.9985 28.55385 20.586365 28.218759 21.34375 28.21875 z M 40.4375 28.21875 C 41.205251 28.218759 41.787928 28.567799 42.15625 29.21875 C 42.529746 29.865067 42.718743 30.880395 42.71875 32.3125 C 42.718743 33.739965 42.529746 34.781893 42.15625 35.4375 C 41.787928 36.088461 41.205251 36.437501 40.4375 36.4375 C 39.674927 36.437501 39.1235 36.09311 38.75 35.4375 C 38.381682 34.777243 38.187497 33.730665 38.1875 32.3125 C 38.187497 30.912943 38.376494 29.883666 38.75 29.21875 C 39.1235 28.55385 39.680115 28.218759 40.4375 28.21875 z M 50 28.21875 C 50.767751 28.218759 51.350428 28.567799 51.71875 29.21875 C 52.092246 29.865067 52.249993 30.880395 52.25 32.3125 C 52.249993 33.739965 52.092246 34.781893 51.71875 35.4375 C 51.350428 36.088461 50.767751 36.437501 50 36.4375 C 49.237427 36.437501 48.65475 36.09311 48.28125 35.4375 C 47.912932 34.777243 47.749997 33.730665 47.75 32.3125 C 47.749997 30.912943 47.938994 29.883666 48.3125 29.21875 C 48.686 28.55385 49.242615 28.218759 50 28.21875 z M 69.125 28.21875 C 69.892751 28.218759 70.444178 28.567799 70.8125 29.21875 C 71.185996 29.865067 71.374993 30.880395 71.375 32.3125 C 71.374993 33.739965 71.185996 34.781893 70.8125 35.4375 C 70.444178 36.088461 69.892751 36.437501 69.125 36.4375 C 68.362427 36.437501 67.77975 36.09311 67.40625 35.4375 C 67.037932 34.777243 66.843747 33.730665 66.84375 32.3125 C 66.843747 30.912943 67.032744 29.883666 67.40625 29.21875 C 67.77975 28.55385 68.367615 28.218759 69.125 28.21875 z M 21.3125 31.28125 C 20.98568 31.281256 20.69181 31.393818 20.46875 31.59375 C 20.25087 31.793693 20.156246 32.014924 20.15625 32.3125 C 20.156246 32.614736 20.276932 32.875218 20.5 33.09375 C 20.728248 33.307641 20.996056 33.437504 21.3125 33.4375 C 21.634123 33.437504 21.896743 33.307641 22.125 33.09375 C 22.353246 32.875218 22.468744 32.614736 22.46875 32.3125 C 22.468744 32.019573 22.353246 31.793693 22.125 31.59375 C 21.90193 31.389169 21.63931 31.281256 21.3125 31.28125 z M 40.40625 31.28125 C 40.07943 31.281256 39.81681 31.393818 39.59375 31.59375 C 39.37587 31.793693 39.249996 32.014924 39.25 32.3125 C 39.249996 32.614736 39.370682 32.875218 39.59375 33.09375 C 39.821998 33.307641 40.089806 33.437504 40.40625 33.4375 C 40.727873 33.437504 41.021743 33.307641 41.25 33.09375 C 41.478246 32.875218 41.593744 32.614736 41.59375 32.3125 C 41.593744 32.019573 41.478246 31.793693 41.25 31.59375 C 41.02693 31.389169 40.73306 31.281256 40.40625 31.28125 z M 49.96875 31.28125 C 49.64193 31.281256 49.37931 31.393818 49.15625 31.59375 C 48.93837 31.793693 48.812496 32.014924 48.8125 32.3125 C 48.812496 32.614736 48.933182 32.875218 49.15625 33.09375 C 49.384498 33.307641 49.652306 33.437504 49.96875 33.4375 C 50.290373 33.437504 50.552993 33.307641 50.78125 33.09375 C 51.009496 32.875218 51.124994 32.614736 51.125 32.3125 C 51.124994 32.019573 51.009496 31.793693 50.78125 31.59375 C 50.55818 31.389169 50.29556 31.281256 49.96875 31.28125 z M 69.09375 31.28125 C 68.76693 31.281256 68.47306 31.393818 68.25 31.59375 C 68.03212 31.793693 67.937496 32.014924 67.9375 32.3125 C 67.937496 32.614736 68.026932 32.875218 68.25 33.09375 C 68.478248 33.307641 68.777306 33.437504 69.09375 33.4375 C 69.415373 33.437504 69.677993 33.307641 69.90625 33.09375 C 70.134496 32.875218 70.249994 32.614736 70.25 32.3125 C 70.249994 32.019573 70.134496 31.793693 69.90625 31.59375 C 69.68318 31.389169 69.42056 31.281256 69.09375 31.28125 z M 30.875 40.0625 C 29.681862 40.06251 28.799627 40.516867 28.1875 41.4375 C 27.580556 42.353501 27.281249 43.615904 27.28125 45.1875 C 27.281249 46.805603 27.591056 48.044758 28.21875 48.9375 C 28.84644 49.830245 29.718174 50.28125 30.875 50.28125 C 32.073316 50.28125 32.986801 49.822243 33.59375 48.90625 C 34.200684 47.985609 34.499992 46.754456 34.5 45.1875 C 34.499992 43.569407 34.190185 42.299002 33.5625 41.40625 C 32.939988 40.508865 32.037004 40.06251 30.875 40.0625 z M 50 40.0625 C 48.806862 40.06251 47.893377 40.516867 47.28125 41.4375 C 46.674306 42.353501 46.374999 43.615904 46.375 45.1875 C 46.374999 46.805603 46.684806 48.044758 47.3125 48.9375 C 47.94019 49.830245 48.843174 50.28125 50 50.28125 C 51.198316 50.28125 52.111801 49.822243 52.71875 48.90625 C 53.325684 47.985609 53.624992 46.754456 53.625 45.1875 C 53.624992 43.569407 53.315185 42.299002 52.6875 41.40625 C 52.064988 40.508865 51.162004 40.06251 50 40.0625 z M 69.125 40.0625 C 67.931862 40.06251 67.018377 40.516867 66.40625 41.4375 C 65.799306 42.353501 65.499999 43.615904 65.5 45.1875 C 65.499999 46.805603 65.809806 48.044758 66.4375 48.9375 C 67.06519 49.830245 67.968174 50.28125 69.125 50.28125 C 70.323316 50.28125 71.205551 49.822243 71.8125 48.90625 C 72.419434 47.985609 72.718742 46.754456 72.71875 45.1875 C 72.718742 43.569407 72.408935 42.299002 71.78125 41.40625 C 71.158738 40.508865 70.287004 40.06251 69.125 40.0625 z M 21.21875 40.21875 L 18.84375 41.3125 L 18.84375 42.4375 L 21.03125 41.46875 L 21.03125 49.09375 L 18.71875 49.09375 L 18.71875 50.09375 L 24.5 50.09375 L 24.5 49.09375 L 22.3125 49.09375 L 22.3125 40.21875 L 21.21875 40.21875 z M 40.34375 40.21875 L 37.96875 41.3125 L 37.96875 42.4375 L 40.15625 41.46875 L 40.15625 49.09375 L 37.84375 49.09375 L 37.84375 50.09375 L 43.59375 50.09375 L 43.59375 49.09375 L 41.4375 49.09375 L 41.4375 40.21875 L 40.34375 40.21875 z M 59.4375 40.21875 L 57.0625 41.3125 L 57.0625 42.4375 L 59.28125 41.46875 L 59.28125 49.09375 L 56.9375 49.09375 L 56.9375 50.09375 L 62.71875 50.09375 L 62.71875 49.09375 L 60.53125 49.09375 L 60.53125 40.21875 L 59.4375 40.21875 z M 78.5625 40.21875 L 76.1875 41.3125 L 76.1875 42.4375 L 78.375 41.46875 L 78.375 49.09375 L 76.0625 49.09375 L 76.0625 50.09375 L 81.8125 50.09375 L 81.8125 49.09375 L 79.65625 49.09375 L 79.65625 40.21875 L 78.5625 40.21875 z M 30.875 41.09375 C 31.642751 41.093759 32.225428 41.411549 32.59375 42.0625 C 32.967246 42.708817 33.156243 43.755395 33.15625 45.1875 C 33.156243 46.614965 32.967246 47.656893 32.59375 48.3125 C 32.225428 48.963461 31.642751 49.281251 30.875 49.28125 C 30.112427 49.281251 29.561 48.96811 29.1875 48.3125 C 28.819182 47.652243 28.624997 46.605665 28.625 45.1875 C 28.624997 43.787943 28.813994 42.758666 29.1875 42.09375 C 29.561 41.42885 30.117615 41.093759 30.875 41.09375 z M 50 41.09375 C 50.767751 41.093759 51.350428 41.411549 51.71875 42.0625 C 52.092246 42.708817 52.249993 43.755395 52.25 45.1875 C 52.249993 46.614965 52.092246 47.656893 51.71875 48.3125 C 51.350428 48.963461 50.767751 49.281251 50 49.28125 C 49.237427 49.281251 48.65475 48.96811 48.28125 48.3125 C 47.912932 47.652243 47.749997 46.605665 47.75 45.1875 C 47.749997 43.787943 47.938994 42.758666 48.3125 42.09375 C 48.686 41.42885 49.242615 41.093759 50 41.09375 z M 69.125 41.09375 C 69.892751 41.093759 70.444178 41.411549 70.8125 42.0625 C 71.185996 42.708817 71.374993 43.755395 71.375 45.1875 C 71.374993 46.614965 71.185996 47.656893 70.8125 48.3125 C 70.444178 48.963461 69.892751 49.281251 69.125 49.28125 C 68.362427 49.281251 67.77975 48.96811 67.40625 48.3125 C 67.037932 47.652243 66.843747 46.605665 66.84375 45.1875 C 66.843747 43.787943 67.032744 42.758666 67.40625 42.09375 C 67.77975 41.42885 68.367615 41.093759 69.125 41.09375 z M 30.84375 44.125 C 30.51693 44.125006 30.25431 44.237568 30.03125 44.4375 C 29.81337 44.637443 29.718746 44.889924 29.71875 45.1875 C 29.718746 45.489736 29.808182 45.750218 30.03125 45.96875 C 30.259498 46.182641 30.527306 46.281254 30.84375 46.28125 C 31.165373 46.281254 31.459243 46.182641 31.6875 45.96875 C 31.915746 45.750218 32.031244 45.489736 32.03125 45.1875 C 32.031244 44.894573 31.915746 44.637443 31.6875 44.4375 C 31.46443 44.232919 31.17056 44.125006 30.84375 44.125 z M 49.96875 44.125 C 49.64193 44.125006 49.37931 44.237568 49.15625 44.4375 C 48.93837 44.637443 48.812496 44.889924 48.8125 45.1875 C 48.812496 45.489736 48.933182 45.750218 49.15625 45.96875 C 49.384498 46.182641 49.652306 46.281254 49.96875 46.28125 C 50.290373 46.281254 50.552993 46.182641 50.78125 45.96875 C 51.009496 45.750218 51.124994 45.489736 51.125 45.1875 C 51.124994 44.894573 51.009496 44.637443 50.78125 44.4375 C 50.55818 44.232919 50.29556 44.125006 49.96875 44.125 z M 69.09375 44.125 C 68.76693 44.125006 68.47306 44.237568 68.25 44.4375 C 68.03212 44.637443 67.937496 44.889924 67.9375 45.1875 C 67.937496 45.489736 68.026932 45.750218 68.25 45.96875 C 68.478248 46.182641 68.777306 46.281254 69.09375 46.28125 C 69.415373 46.281254 69.677993 46.182641 69.90625 45.96875 C 70.134496 45.750218 70.249994 45.489736 70.25 45.1875 C 70.249994 44.894573 70.134496 44.637443 69.90625 44.4375 C 69.68318 44.232919 69.42056 44.125006 69.09375 44.125 z M 50 52.9375 C 48.806862 52.93751 47.893377 53.391867 47.28125 54.3125 C 46.674306 55.228501 46.374999 56.459654 46.375 58.03125 C 46.374999 59.649353 46.684806 60.919758 47.3125 61.8125 C 47.94019 62.705245 48.843174 63.15625 50 63.15625 C 51.198316 63.15625 52.111801 62.697243 52.71875 61.78125 C 53.325684 60.860609 53.624992 59.598206 53.625 58.03125 C 53.624992 56.413157 53.315185 55.174002 52.6875 54.28125 C 52.064988 53.383865 51.162004 52.93751 50 52.9375 z M 59.5625 52.9375 C 58.369362 52.93751 57.455877 53.391867 56.84375 54.3125 C 56.236806 55.228501 55.937499 56.459654 55.9375 58.03125 C 55.937499 59.649353 56.247306 60.919758 56.875 61.8125 C 57.50269 62.705245 58.405674 63.15625 59.5625 63.15625 C 60.760816 63.15625 61.643051 62.697243 62.25 61.78125 C 62.856934 60.860609 63.187492 59.598206 63.1875 58.03125 C 63.187492 56.413157 62.846435 55.174002 62.21875 54.28125 C 61.596238 53.383865 60.724504 52.93751 59.5625 52.9375 z M 69.125 52.9375 C 67.931862 52.93751 67.018377 53.391867 66.40625 54.3125 C 65.799306 55.228501 65.499999 56.459654 65.5 58.03125 C 65.499999 59.649353 65.809806 60.919758 66.4375 61.8125 C 67.06519 62.705245 67.968174 63.15625 69.125 63.15625 C 70.323316 63.15625 71.205551 62.697243 71.8125 61.78125 C 72.419434 60.860609 72.718742 59.598206 72.71875 58.03125 C 72.718742 56.413157 72.408935 55.174002 71.78125 54.28125 C 71.158738 53.383865 70.287004 52.93751 69.125 52.9375 z M 21.21875 53.0625 L 18.84375 54.15625 L 18.84375 55.3125 L 21.03125 54.3125 L 21.03125 61.96875 L 18.71875 61.96875 L 18.71875 62.96875 L 24.5 62.96875 L 24.5 61.96875 L 22.3125 61.96875 L 22.3125 53.0625 L 21.21875 53.0625 z M 30.78125 53.0625 L 28.40625 54.15625 L 28.40625 55.3125 L 30.59375 54.3125 L 30.59375 61.96875 L 28.28125 61.96875 L 28.28125 62.96875 L 34.0625 62.96875 L 34.0625 61.96875 L 31.875 61.96875 L 31.875 53.0625 L 30.78125 53.0625 z M 40.34375 53.0625 L 37.96875 54.15625 L 37.96875 55.3125 L 40.15625 54.3125 L 40.15625 61.96875 L 37.84375 61.96875 L 37.84375 62.96875 L 43.59375 62.96875 L 43.59375 61.96875 L 41.4375 61.96875 L 41.4375 53.0625 L 40.34375 53.0625 z M 78.5625 53.0625 L 76.1875 54.15625 L 76.1875 55.3125 L 78.375 54.3125 L 78.375 61.96875 L 76.0625 61.96875 L 76.0625 62.96875 L 81.8125 62.96875 L 81.8125 61.96875 L 79.65625 61.96875 L 79.65625 53.0625 L 78.5625 53.0625 z M 50 53.9375 C 50.767751 53.937509 51.350428 54.255299 51.71875 54.90625 C 52.092246 55.552567 52.249993 56.599145 52.25 58.03125 C 52.249993 59.458715 52.092246 60.500643 51.71875 61.15625 C 51.350428 61.807211 50.767751 62.125001 50 62.125 C 49.237427 62.125001 48.65475 61.81186 48.28125 61.15625 C 47.912932 60.495993 47.749997 59.449415 47.75 58.03125 C 47.749997 56.631693 47.938994 55.602416 48.3125 54.9375 C 48.686 54.2726 49.242615 53.937509 50 53.9375 z M 59.5625 53.9375 C 60.330251 53.937509 60.881678 54.255299 61.25 54.90625 C 61.623496 55.552567 61.812493 56.599145 61.8125 58.03125 C 61.812493 59.458715 61.623496 60.500643 61.25 61.15625 C 60.881678 61.807211 60.330251 62.125001 59.5625 62.125 C 58.799927 62.125001 58.21725 61.81186 57.84375 61.15625 C 57.475432 60.495993 57.312497 59.449415 57.3125 58.03125 C 57.312497 56.631693 57.470244 55.602416 57.84375 54.9375 C 58.21725 54.2726 58.805115 53.937509 59.5625 53.9375 z M 69.125 53.9375 C 69.892751 53.937509 70.444178 54.255299 70.8125 54.90625 C 71.185996 55.552567 71.374993 56.599145 71.375 58.03125 C 71.374993 59.458715 71.185996 60.500643 70.8125 61.15625 C 70.444178 61.807211 69.892751 62.125001 69.125 62.125 C 68.362427 62.125001 67.77975 61.81186 67.40625 61.15625 C 67.037932 60.495993 66.843747 59.449415 66.84375 58.03125 C 66.843747 56.631693 67.032744 55.602416 67.40625 54.9375 C 67.77975 54.2726 68.367615 53.937509 69.125 53.9375 z M 49.96875 57 C 49.64193 57.000006 49.37931 57.081318 49.15625 57.28125 C 48.93837 57.481193 48.812496 57.733674 48.8125 58.03125 C 48.812496 58.333486 48.933182 58.593968 49.15625 58.8125 C 49.384498 59.026391 49.652306 59.156254 49.96875 59.15625 C 50.290373 59.156254 50.552993 59.026391 50.78125 58.8125 C 51.009496 58.593968 51.124994 58.333486 51.125 58.03125 C 51.124994 57.738323 51.009496 57.512443 50.78125 57.3125 C 50.55818 57.107919 50.29556 57.000006 49.96875 57 z M 59.53125 57 C 59.20443 57.000006 58.91056 57.081318 58.6875 57.28125 C 58.46962 57.481193 58.374996 57.733674 58.375 58.03125 C 58.374996 58.333486 58.495682 58.593968 58.71875 58.8125 C 58.946998 59.026391 59.214806 59.156254 59.53125 59.15625 C 59.852873 59.156254 60.115493 59.026391 60.34375 58.8125 C 60.571996 58.593968 60.687494 58.333486 60.6875 58.03125 C 60.687494 57.738323 60.571996 57.512443 60.34375 57.3125 C 60.12068 57.107919 59.85806 57.000006 59.53125 57 z M 69.09375 57 C 68.76693 57.000006 68.47306 57.081318 68.25 57.28125 C 68.03212 57.481193 67.937496 57.733674 67.9375 58.03125 C 67.937496 58.333486 68.026932 58.593968 68.25 58.8125 C 68.478248 59.026391 68.777306 59.156254 69.09375 59.15625 C 69.415373 59.156254 69.677993 59.026391 69.90625 58.8125 C 70.134496 58.593968 70.249994 58.333486 70.25 58.03125 C 70.249994 57.738323 70.134496 57.512443 69.90625 57.3125 C 69.68318 57.107919 69.42056 57.000006 69.09375 57 z M 21.34375 65.78125 C 20.150612 65.78126 19.237127 66.235617 18.625 67.15625 C 18.018056 68.072251 17.718749 69.334654 17.71875 70.90625 C 17.718749 72.524353 18.028556 73.763508 18.65625 74.65625 C 19.28394 75.548995 20.186924 76 21.34375 76 C 22.542066 76 23.424301 75.540993 24.03125 74.625 C 24.638184 73.704359 24.937492 72.473206 24.9375 70.90625 C 24.937492 69.288157 24.627685 68.017752 24 67.125 C 23.377488 66.227615 22.505754 65.78126 21.34375 65.78125 z M 40.4375 65.78125 C 39.244362 65.78126 38.362127 66.235617 37.75 67.15625 C 37.143056 68.072251 36.812499 69.334654 36.8125 70.90625 C 36.812499 72.524353 37.153556 73.763508 37.78125 74.65625 C 38.40894 75.548995 39.280674 76 40.4375 76 C 41.635816 76 42.549301 75.540993 43.15625 74.625 C 43.763184 73.704359 44.062492 72.473206 44.0625 70.90625 C 44.062492 69.288157 43.752685 68.017752 43.125 67.125 C 42.502488 66.227615 41.599504 65.78126 40.4375 65.78125 z M 50 65.78125 C 48.806862 65.78126 47.893377 66.235617 47.28125 67.15625 C 46.674306 68.072251 46.374999 69.334654 46.375 70.90625 C 46.374999 72.524353 46.684806 73.763508 47.3125 74.65625 C 47.94019 75.548995 48.843174 76 50 76 C 51.198316 76 52.111801 75.540993 52.71875 74.625 C 53.325684 73.704359 53.624992 72.473206 53.625 70.90625 C 53.624992 69.288157 53.315185 68.017752 52.6875 67.125 C 52.064988 66.227615 51.162004 65.78126 50 65.78125 z M 69.125 65.78125 C 67.931862 65.78126 67.018377 66.235617 66.40625 67.15625 C 65.799306 68.072251 65.499999 69.334654 65.5 70.90625 C 65.499999 72.524353 65.809806 73.763508 66.4375 74.65625 C 67.06519 75.548995 67.968174 76 69.125 76 C 70.323316 76 71.205551 75.540993 71.8125 74.625 C 72.419434 73.704359 72.718742 72.473206 72.71875 70.90625 C 72.718742 69.288157 72.408935 68.017752 71.78125 67.125 C 71.158738 66.227615 70.287004 65.78126 69.125 65.78125 z M 78.65625 65.78125 C 77.463112 65.78126 76.580877 66.235617 75.96875 67.15625 C 75.361806 68.072251 75.062499 69.334654 75.0625 70.90625 C 75.062499 72.524353 75.372306 73.763508 76 74.65625 C 76.62769 75.548995 77.499424 76 78.65625 76 C 79.854566 76 80.768051 75.540993 81.375 74.625 C 81.981934 73.704359 82.281242 72.473206 82.28125 70.90625 C 82.281242 69.288157 81.971435 68.017752 81.34375 67.125 C 80.721238 66.227615 79.818254 65.78126 78.65625 65.78125 z M 30.78125 65.90625 L 28.40625 67 L 28.40625 68.15625 L 30.59375 67.15625 L 30.59375 74.8125 L 28.28125 74.8125 L 28.28125 75.8125 L 34.0625 75.8125 L 34.0625 74.8125 L 31.875 74.8125 L 31.875 65.90625 L 30.78125 65.90625 z M 59.4375 65.90625 L 57.0625 67 L 57.0625 68.15625 L 59.28125 67.15625 L 59.28125 74.8125 L 56.9375 74.8125 L 56.9375 75.8125 L 62.71875 75.8125 L 62.71875 74.8125 L 60.53125 74.8125 L 60.53125 65.90625 L 59.4375 65.90625 z M 21.34375 66.8125 C 22.111501 66.812509 22.662928 67.130299 23.03125 67.78125 C 23.404746 68.427567 23.593743 69.474145 23.59375 70.90625 C 23.593743 72.333715 23.404746 73.375643 23.03125 74.03125 C 22.662928 74.682211 22.111501 75.000001 21.34375 75 C 20.581177 75.000001 19.9985 74.65561 19.625 74 C 19.256682 73.339743 19.062497 72.324415 19.0625 70.90625 C 19.062497 69.506693 19.251494 68.477416 19.625 67.8125 C 19.9985 67.1476 20.586365 66.812509 21.34375 66.8125 z M 40.4375 66.8125 C 41.205251 66.812509 41.787928 67.130299 42.15625 67.78125 C 42.529746 68.427567 42.718743 69.474145 42.71875 70.90625 C 42.718743 72.333715 42.529746 73.375643 42.15625 74.03125 C 41.787928 74.682211 41.205251 75.000001 40.4375 75 C 39.674927 75.000001 39.1235 74.65561 38.75 74 C 38.381682 73.339743 38.187497 72.324415 38.1875 70.90625 C 38.187497 69.506693 38.376494 68.477416 38.75 67.8125 C 39.1235 67.1476 39.680115 66.812509 40.4375 66.8125 z M 50 66.8125 C 50.767751 66.812509 51.350428 67.130299 51.71875 67.78125 C 52.092246 68.427567 52.249993 69.474145 52.25 70.90625 C 52.249993 72.333715 52.092246 73.375643 51.71875 74.03125 C 51.350428 74.682211 50.767751 75.000001 50 75 C 49.237427 75.000001 48.65475 74.65561 48.28125 74 C 47.912932 73.339743 47.749997 72.324415 47.75 70.90625 C 47.749997 69.506693 47.938994 68.477416 48.3125 67.8125 C 48.686 67.1476 49.242615 66.812509 50 66.8125 z M 69.125 66.8125 C 69.892751 66.812509 70.444178 67.130299 70.8125 67.78125 C 71.185996 68.427567 71.374993 69.474145 71.375 70.90625 C 71.374993 72.333715 71.185996 73.375643 70.8125 74.03125 C 70.444178 74.682211 69.892751 75.000001 69.125 75 C 68.362427 75.000001 67.77975 74.65561 67.40625 74 C 67.037932 73.339743 66.843747 72.324415 66.84375 70.90625 C 66.843747 69.506693 67.032744 68.477416 67.40625 67.8125 C 67.77975 67.1476 68.367615 66.812509 69.125 66.8125 z M 78.65625 66.8125 C 79.424001 66.812509 80.006678 67.130299 80.375 67.78125 C 80.748496 68.427567 80.937493 69.474145 80.9375 70.90625 C 80.937493 72.333715 80.748496 73.375643 80.375 74.03125 C 80.006678 74.682211 79.424001 75.000001 78.65625 75 C 77.893677 75.000001 77.34225 74.65561 76.96875 74 C 76.600432 73.339743 76.406247 72.324415 76.40625 70.90625 C 76.406247 69.506693 76.595244 68.477416 76.96875 67.8125 C 77.34225 67.1476 77.898865 66.812509 78.65625 66.8125 z M 21.3125 69.84375 C 20.98568 69.843756 20.69181 69.956318 20.46875 70.15625 C 20.25087 70.356193 20.156246 70.608674 20.15625 70.90625 C 20.156246 71.208486 20.276932 71.468968 20.5 71.6875 C 20.728248 71.901391 20.996056 72.000004 21.3125 72 C 21.634123 72.000004 21.896743 71.901391 22.125 71.6875 C 22.353246 71.468968 22.468744 71.208486 22.46875 70.90625 C 22.468744 70.613323 22.353246 70.356193 22.125 70.15625 C 21.90193 69.951669 21.63931 69.843756 21.3125 69.84375 z M 40.40625 69.84375 C 40.07943 69.843756 39.81681 69.956318 39.59375 70.15625 C 39.37587 70.356193 39.249996 70.608674 39.25 70.90625 C 39.249996 71.208486 39.370682 71.468968 39.59375 71.6875 C 39.821998 71.901391 40.089806 72.000004 40.40625 72 C 40.727873 72.000004 41.021743 71.901391 41.25 71.6875 C 41.478246 71.468968 41.593744 71.208486 41.59375 70.90625 C 41.593744 70.613323 41.478246 70.356193 41.25 70.15625 C 41.02693 69.951669 40.73306 69.843756 40.40625 69.84375 z M 49.96875 69.84375 C 49.64193 69.843756 49.37931 69.956318 49.15625 70.15625 C 48.93837 70.356193 48.812496 70.608674 48.8125 70.90625 C 48.812496 71.208486 48.933182 71.468968 49.15625 71.6875 C 49.384498 71.901391 49.652306 72.000004 49.96875 72 C 50.290373 72.000004 50.552993 71.901391 50.78125 71.6875 C 51.009496 71.468968 51.124994 71.208486 51.125 70.90625 C 51.124994 70.613323 51.009496 70.356193 50.78125 70.15625 C 50.55818 69.951669 50.29556 69.843756 49.96875 69.84375 z M 69.09375 69.84375 C 68.76693 69.843756 68.47306 69.956318 68.25 70.15625 C 68.03212 70.356193 67.937496 70.608674 67.9375 70.90625 C 67.937496 71.208486 68.026932 71.468968 68.25 71.6875 C 68.478248 71.901391 68.777306 72.000004 69.09375 72 C 69.415373 72.000004 69.677993 71.901391 69.90625 71.6875 C 70.134496 71.468968 70.249994 71.208486 70.25 70.90625 C 70.249994 70.613323 70.134496 70.356193 69.90625 70.15625 C 69.68318 69.951669 69.42056 69.843756 69.09375 69.84375 z M 78.625 69.84375 C 78.29818 69.843756 78.03556 69.956318 77.8125 70.15625 C 77.59462 70.356193 77.468746 70.608674 77.46875 70.90625 C 77.468746 71.208486 77.589432 71.468968 77.8125 71.6875 C 78.040748 71.901391 78.308556 72.000004 78.625 72 C 78.946623 72.000004 79.240493 71.901391 79.46875 71.6875 C 79.696996 71.468968 79.812494 71.208486 79.8125 70.90625 C 79.812494 70.613323 79.696996 70.356193 79.46875 70.15625 C 79.24568 69.951669 78.95181 69.843756 78.625 69.84375 z "
       transform="translate(0,956.36218)"
       id="text3773" />
  </g>
</svg>
