<?xml version="1.0" encoding="UTF-8" standalone="no"?>
<!-- Created with Inkscape (http://www.inkscape.org/) -->

<svg
   xmlns:dc="http://purl.org/dc/elements/1.1/"
   xmlns:cc="http://creativecommons.org/ns#"
   xmlns:rdf="http://www.w3.org/1999/02/22-rdf-syntax-ns#"
   xmlns:svg="http://www.w3.org/2000/svg"
   xmlns="http://www.w3.org/2000/svg"
   xmlns:sodipodi="http://sodipodi.sourceforge.net/DTD/sodipodi-0.dtd"
   xmlns:inkscape="http://www.inkscape.org/namespaces/inkscape"
   width="96"
   height="96"
   id="svg2"
   version="1.1"
   inkscape:version="0.48.4 r9939"
   sodipodi:docname="gnome-settings-background.svg">
  <defs
     id="defs4" />
  <sodipodi:namedview
     id="base"
     pagecolor="#ffffff"
     bordercolor="#666666"
     borderopacity="1.0"
     inkscape:pageopacity="0.0"
     inkscape:pageshadow="2"
     inkscape:zoom="5.90625"
     inkscape:cx="48"
     inkscape:cy="48"
     inkscape:document-units="px"
     inkscape:current-layer="layer1"
     showgrid="true"
     inkscape:snap-page="true"
     inkscape:snap-global="true"
     inkscape:snap-center="true"
     inkscape:snap-object-midpoints="false"
     showguides="true"
     inkscape:guide-bbox="true"
     inkscape:snap-bbox="true"
     inkscape:object-paths="true"
     inkscape:object-nodes="true"
     inkscape:window-width="1305"
     inkscape:window-height="744"
     inkscape:window-x="61"
     inkscape:window-y="24"
     inkscape:window-maximized="1"
     inkscape:snap-midpoints="true"
     inkscape:snap-grids="true"
     inkscape:snap-to-guides="false">
    <inkscape:grid
       type="xygrid"
       id="grid3002"
       empspacing="5"
       visible="true"
       enabled="true"
       snapvisiblegridlinesonly="true" />
  </sodipodi:namedview>
  <metadata
     id="metadata7">
    <rdf:RDF>
      <cc:Work
         rdf:about="">
        <dc:format>image/svg+xml</dc:format>
        <dc:type
           rdf:resource="http://purl.org/dc/dcmitype/StillImage" />
        <dc:title />
      </cc:Work>
    </rdf:RDF>
  </metadata>
  <g
     inkscape:label="Layer 1"
     inkscape:groupmode="layer"
     id="layer1"
     transform="translate(0,-956.36218)">
    <rect
       style="fill:#ffffff;fill-opacity:0;fill-rule:nonzero;stroke:none"
       id="rect3775"
       width="96"
       height="96"
       x="0"
       y="956.36218"
       ry="0" />
    <path
       style="fill:#000000;fill-opacity:0.09589041;fill-rule:nonzero;stroke:none"
       d="m 3.353015,956.30662 c -1.884176,0 -3.4111555,1.43156 -3.4111555,3.19799 l 0,83.65949 c 0,1.7665 1.5269795,3.1981 3.4111555,3.1981 l 89.23583,0 c 1.884174,0 3.411155,-1.4316 3.411155,-3.1981 l 0,-83.65949 c 0,-1.76643 -1.526981,-3.19799 -3.411155,-3.19799 z"
       id="rect3772"
       inkscape:connector-curvature="0"
       sodipodi:nodetypes="sssssssss" />
    <path
       style="fill:#000000;fill-opacity:0.18721463;fill-rule:nonzero;stroke:none"
       d="m 1.0459761,1041.8066 0,7.4219 c 0,1.7392 1.461916,3.1337 3.2852054,3.1337 l 86.3836135,0 c 1.823288,0 3.285205,-1.3945 3.285205,-3.1337 l 0,-7.4219 -92.9540239,0 z"
       id="rect3785"
       inkscape:connector-curvature="0" />
    <path
       style="fill:#000000;fill-opacity:0.38356168;fill-rule:nonzero;stroke:none"
       d="m 1.0459761,1041.8066 0,5.3807 c 0,1.762 1.461916,3.1749 3.2852054,3.1749 l 86.3836135,0 c 1.823288,0 3.285205,-1.4129 3.285205,-3.1749 l 0,-5.3807 -92.9540239,0 z"
       id="rect3783"
       inkscape:connector-curvature="0" />
    <g
       id="g3016"
       transform="matrix(1.1071429,0,0,1.0584286,82.92857,-55.937353)">
      <rect
         ry="2.9741092"
         y="957.36218"
         x="-74"
         height="84"
         width="84"
         id="rect2985"
         style="fill:#0099ff;fill-opacity:1;fill-rule:nonzero;stroke:none" />
      <path
         sodipodi:nodetypes="sssccssscscs"
         inkscape:connector-curvature="0"
         id="path2994"
         d="m -71.03125,957.36218 c -0.82383,0 -1.55618,0.33743 -2.09375,0.875 -0.53757,0.53757 -0.875,1.26992 -0.875,2.09375 l 0,15.78125 84,0 0,-15.78125 c 0,-0.82383 -0.33743,-1.55618 -0.875,-2.09375 -0.53757,-0.53757 -1.269922,-0.875 -2.09375,-0.875 l -28.5,0 c 0,6.03388 -4.720851,10.9375 -10.53125,10.9375 -5.810399,0 -10.53125,-4.90362 -10.53125,-10.9375 z"
         style="fill:#56b7ee;fill-opacity:1;fill-rule:nonzero;stroke:none" />
      <rect
         style="fill:#42cd00;fill-opacity:1;fill-rule:nonzero;stroke:none"
         id="rect3001"
         width="84"
         height="18.408798"
         x="-74"
         y="974.11218"
         ry="0" />
      <rect
         ry="0"
         y="990.30786"
         x="-74"
         height="19.238726"
         width="84"
         id="rect3003"
         style="fill:#ffa101;fill-opacity:1;fill-rule:nonzero;stroke:none" />
      <rect
         style="fill:#ff0066;fill-opacity:1;fill-rule:nonzero;stroke:none"
         id="rect3005"
         width="84"
         height="18.962082"
         x="-74"
         y="1006.5035"
         ry="0" />
      <path
         sodipodi:nodetypes="sssccssscscs"
         inkscape:connector-curvature="0"
         style="fill:#8800aa;fill-opacity:1;fill-rule:nonzero;stroke:none"
         d="m -71.03125,1041.4491 c -0.82383,0 -1.55618,-0.3374 -2.09375,-0.875 -0.53757,-0.5376 -0.875,-1.2699 -0.875,-2.0938 l 0,-15.7812 84,0 0,15.7812 c 0,0.8239 -0.33743,1.5562 -0.875,2.0938 -0.53757,0.5376 -1.269922,0.875 -2.09375,0.875 l -28.5,0 c 0,-6.0339 -4.720851,-10.9375 -10.53125,-10.9375 -5.810399,0 -10.53125,4.9036 -10.53125,10.9375 z"
         id="path3007" />
    </g>
    <path
       style="fill:#000000;fill-opacity:0.38356168;fill-rule:nonzero;stroke:none"
       d="m 1,1042.3622 0.045976,2.7457 c 0.03024,1.8058 1.461916,3.2543 3.2852054,3.2543 l 86.3836136,0 c 1.823288,0 3.285205,-1.4481 3.285205,-3.2543 l -0.04598,-2.7457 z"
       id="rect3781"
       inkscape:connector-curvature="0"
       sodipodi:nodetypes="csssscc" />
    <rect
       style="fill:#ffffff;fill-opacity:0.30000001;fill-rule:nonzero;stroke:none"
       id="rect3770"
       width="92.954033"
       height="2.000005"
       x="1.045976"
       y="1040.3622" />
  </g>
</svg>
