<?xml version="1.0" encoding="UTF-8" standalone="no"?>
<!-- Created with Inkscape (http://www.inkscape.org/) -->

<svg
   xmlns:dc="http://purl.org/dc/elements/1.1/"
   xmlns:cc="http://creativecommons.org/ns#"
   xmlns:rdf="http://www.w3.org/1999/02/22-rdf-syntax-ns#"
   xmlns:svg="http://www.w3.org/2000/svg"
   xmlns="http://www.w3.org/2000/svg"
   xmlns:sodipodi="http://sodipodi.sourceforge.net/DTD/sodipodi-0.dtd"
   xmlns:inkscape="http://www.inkscape.org/namespaces/inkscape"
   width="96"
   height="96"
   id="svg2"
   version="1.1"
   inkscape:version="0.48.4 r9939"
   sodipodi:docname="gnome-session-reboot.svg">
  <defs
     id="defs4" />
  <sodipodi:namedview
     id="base"
     pagecolor="#ffffff"
     bordercolor="#666666"
     borderopacity="1.0"
     inkscape:pageopacity="0.0"
     inkscape:pageshadow="2"
     inkscape:zoom="5.90625"
     inkscape:cx="27.042098"
     inkscape:cy="48"
     inkscape:document-units="px"
     inkscape:current-layer="layer1"
     showgrid="true"
     inkscape:snap-page="true"
     inkscape:snap-global="true"
     inkscape:snap-center="true"
     inkscape:snap-object-midpoints="false"
     showguides="true"
     inkscape:guide-bbox="true"
     inkscape:snap-bbox="true"
     inkscape:object-paths="true"
     inkscape:object-nodes="true"
     inkscape:window-width="1305"
     inkscape:window-height="744"
     inkscape:window-x="61"
     inkscape:window-y="24"
     inkscape:window-maximized="1"
     inkscape:snap-midpoints="false"
     inkscape:snap-grids="true"
     inkscape:snap-to-guides="false">
    <inkscape:grid
       type="xygrid"
       id="grid3002"
       empspacing="5"
       visible="true"
       enabled="true"
       snapvisiblegridlinesonly="true" />
  </sodipodi:namedview>
  <metadata
     id="metadata7">
    <rdf:RDF>
      <cc:Work
         rdf:about="">
        <dc:format>image/svg+xml</dc:format>
        <dc:type
           rdf:resource="http://purl.org/dc/dcmitype/StillImage" />
        <dc:title />
      </cc:Work>
    </rdf:RDF>
  </metadata>
  <g
     inkscape:label="Layer 1"
     inkscape:groupmode="layer"
     id="layer1"
     transform="translate(0,-956.36218)">
    <rect
       style="fill:#ffffff;fill-opacity:0;fill-rule:nonzero;stroke:none"
       id="rect3775"
       width="96"
       height="96"
       x="0"
       y="956.36218"
       ry="0" />
    <path
       style="fill:#000000;fill-opacity:0.09589041;fill-rule:nonzero;stroke:none"
       d="m 3.353015,956.30662 c -1.884176,0 -3.4111555,1.43156 -3.4111555,3.19799 l 0,83.65949 c 0,1.7665 1.5269795,3.1981 3.4111555,3.1981 l 89.23583,0 c 1.884174,0 3.411155,-1.4316 3.411155,-3.1981 l 0,-83.65949 c 0,-1.76643 -1.526981,-3.19799 -3.411155,-3.19799 z"
       id="rect3772"
       inkscape:connector-curvature="0"
       sodipodi:nodetypes="sssssssss" />
    <path
       style="fill:#000000;fill-opacity:0.18721463;fill-rule:nonzero;stroke:none"
       d="m 1.0459761,1041.8066 0,7.4219 c 0,1.7392 1.461916,3.1337 3.2852054,3.1337 l 86.3836135,0 c 1.823288,0 3.285205,-1.3945 3.285205,-3.1337 l 0,-7.4219 -92.9540239,0 z"
       id="rect3785"
       inkscape:connector-curvature="0" />
    <path
       style="fill:#000000;fill-opacity:0.38356168;fill-rule:nonzero;stroke:none"
       d="m 1.0459761,1041.8066 0,5.3807 c 0,1.762 1.461916,3.1749 3.2852054,3.1749 l 86.3836135,0 c 1.823288,0 3.285205,-1.4129 3.285205,-3.1749 l 0,-5.3807 -92.9540239,0 z"
       id="rect3783"
       inkscape:connector-curvature="0" />
    <rect
       style="fill:#333333;fill-opacity:1;fill-rule:nonzero;stroke:none"
       id="rect2985"
       width="92.954025"
       height="89"
       x="1.045977"
       y="-1046.3622"
       ry="3.1511393"
       transform="scale(1,-1)" />
    <path
       style="fill:#000000;fill-opacity:1;fill-rule:nonzero;stroke:none"
       d="m 1,1042.3622 0.045976,2.7457 c 0.03024,1.8058 1.461916,3.2543 3.2852054,3.2543 l 86.3836136,0 c 1.823288,0 3.285205,-1.4481 3.285205,-3.2543 l -0.04598,-2.7457 z"
       id="rect3781"
       inkscape:connector-curvature="0"
       sodipodi:nodetypes="csssscc" />
    <rect
       style="fill:#ffffff;fill-opacity:0.30000001;fill-rule:nonzero;stroke:none"
       id="rect3770"
       width="92.954033"
       height="2.000005"
       x="1.045976"
       y="1040.3622" />
    <path
       style="font-size:medium;font-style:normal;font-variant:normal;font-weight:normal;font-stretch:normal;text-indent:0;text-align:start;text-decoration:none;line-height:normal;letter-spacing:normal;word-spacing:normal;text-transform:none;direction:ltr;block-progression:tb;writing-mode:lr-tb;text-anchor:start;baseline-shift:baseline;color:#000000;fill:#f47c00;fill-opacity:1;stroke:none;stroke-width:10.81034088000000004;marker:none;visibility:visible;display:inline;overflow:visible;enable-background:accumulate;font-family:Sans;-inkscape-font-specification:Sans"
       d="m 18.121453,982.98842 4.786439,2.23196 c 1.894159,-3.32824 4.349668,-6.15466 7.222448,-8.38999 l 0.04344,0.0547 c 1.764131,-1.37534 3.666086,-2.53165 5.679617,-3.45461 l -1.798718,-4.94194 c -6.566921,2.88611 -12.251092,7.84564 -15.933223,14.49985 z m -2.08477,4.54475 c -2.653826,7.0926 -2.743635,14.58673 -0.686533,21.43713 l 4.900415,-1.7836 c -0.597882,-2.112 -0.929257,-4.3023 -1.030814,-6.5148 l -0.06985,0 c -0.169852,-3.62607 0.357428,-7.33284 1.644901,-10.92189 l -4.758116,-2.21874 z m 22.710762,-20.75263 1.813835,4.98347 c 0.586174,-0.15237 1.182538,-0.29753 1.778263,-0.41208 0.630601,-0.12126 1.254419,-0.21094 1.89346,-0.2894 1.278079,-0.15695 2.595835,-0.23734 3.894636,-0.21826 0.180173,0.003 0.365213,0.006 0.5456,0.013 1.118442,0.038 2.244294,0.15412 3.364302,0.3275 1.302135,0.20158 2.580445,0.48241 3.868528,0.87295 0.644041,0.19528 1.296114,0.41646 1.933385,0.66019 0.01952,0.007 0.03784,0.0175 0.05664,0.0264 l 2.231956,-4.78643 c -0.145046,-0.0572 -0.291953,-0.11395 -0.43804,-0.16978 -0.322985,-0.12288 -0.649533,-0.2386 -0.974252,-0.35087 -0.448281,-0.15585 -0.889407,-0.31688 -1.340528,-0.45269 -0.631573,-0.19013 -1.265398,-0.35597 -1.901246,-0.50728 -0.136264,-0.0325 -0.2714,-0.0561 -0.407808,-0.0867 -0.74435,-0.16727 -1.501075,-0.31273 -2.248595,-0.42789 -0.032,-0.005 -0.06618,-0.006 -0.09818,-0.0113 -0.182643,-0.0272 -0.364775,-0.0588 -0.547512,-0.0829 -0.548288,-0.0737 -1.092111,-0.13259 -1.64062,-0.17886 -0.05551,-0.005 -0.112538,-0.005 -0.168027,-0.009 -0.78029,-0.0619 -1.559021,-0.0827 -2.337227,-0.0899 -3.151134,-0.0292 -6.274815,0.36704 -9.278584,1.19023 z m -21.647732,46.86736 c 0.325684,0.6962 0.675792,1.3668 1.048376,2.0405 0.368331,0.666 0.772805,1.3257 1.186169,1.9668 0.418207,0.6487 0.860654,1.2726 1.323961,1.8932 0.929774,1.2454 1.927567,2.4364 3.032978,3.5521 0.01639,0.016 0.02695,0.038 0.04334,0.054 0.529031,0.5318 1.095996,1.0361 1.663664,1.5344 0.585364,0.5138 1.19107,1.0264 1.816609,1.5022 0.638722,0.4859 1.287975,0.9568 1.967572,1.4002 0.377333,0.2462 0.762143,0.4771 1.151831,0.7096 0.305029,0.1828 0.610763,0.3598 0.923334,0.534 0.127685,0.071 0.255393,0.1437 0.383284,0.2131 l 2.231955,-4.7864 c -0.163574,-0.092 -0.333731,-0.1716 -0.496575,-0.266 -0.428226,-0.2469 -0.854178,-0.4964 -1.265124,-0.7624 -0.559109,-0.3639 -1.112821,-0.7461 -1.639024,-1.1436 -0.526203,-0.3975 -1.023789,-0.8297 -1.516314,-1.2587 -0.985083,-0.8579 -1.913124,-1.7637 -2.759023,-2.7347 -0.422949,-0.4856 -0.842449,-0.9937 -1.229435,-1.5043 -0.355523,-0.4691 -0.706651,-0.9234 -1.031207,-1.4118 -0.02868,-0.043 -0.04513,-0.095 -0.07368,-0.1378 -0.350315,-0.5336 -0.682538,-1.0821 -0.995377,-1.6365 -0.288307,-0.5109 -0.569976,-1.0304 -0.825474,-1.5573 l -4.941944,1.7988 z m 19.112396,17.429 c 0.138025,0.049 0.273029,0.109 0.409696,0.1565 0.436109,0.1512 0.873433,0.3073 1.312212,0.4395 0.764487,0.2312 1.538537,0.4196 2.309047,0.594 0.76531,0.1732 1.54983,0.3079 2.318464,0.426 0.750218,0.1153 1.49383,0.2244 2.244754,0.2882 0.02313,0 0.047,0 0.06982,0 1.565223,0.1296 3.118991,0.1285 4.670636,0.04 0.767193,-0.044 1.541437,-0.1071 2.301261,-0.2027 0.762928,-0.096 1.516298,-0.2084 2.269149,-0.3555 0.99508,-0.1945 1.988484,-0.4419 2.958078,-0.724 l -1.798718,-4.9419 c -0.806025,0.2263 -1.619924,0.4303 -2.444614,0.5841 -0.625774,0.1167 -1.259586,0.2148 -1.893477,0.2894 -0.05163,0.01 -0.101293,0.026 -0.152875,0.032 -0.582792,0.065 -1.156578,0.088 -1.744356,0.1176 -0.639884,0.032 -1.29883,0.037 -1.942618,0.025 -1.931363,-0.036 -3.879127,-0.2653 -5.807349,-0.7082 -0.642729,-0.1475 -1.263087,-0.3128 -1.901229,-0.5072 -0.319627,-0.097 -0.64117,-0.1989 -0.959129,-0.3093 l -2.21875,4.7581 z m 26.175908,-56.13447 c 0.297439,0.17904 0.595263,0.36209 0.881801,0.54912 1.099298,0.71751 2.141655,1.50409 3.111922,2.3476 0.02458,0.0214 0.04729,0.0465 0.07176,0.068 0.0076,0.007 0.02085,0.007 0.02833,0.0132 0.844312,0.74074 1.615325,1.51531 2.356768,2.34028 0.121644,0.13534 0.241893,0.27212 0.360705,0.40956 0.849471,0.98268 1.634919,2.04381 2.336232,3.12376 0.350656,0.53997 0.682945,1.07549 0.995395,1.6365 0.419045,0.7524 0.777785,1.53214 1.12586,2.31798 l 4.983473,-1.81383 c -1.331752,-3.0778 -3.119465,-5.96939 -5.322571,-8.55054 -0.511322,-0.59905 -1.043966,-1.18108 -1.599551,-1.74581 -0.421514,-0.43031 -0.86019,-0.85545 -1.306785,-1.2645 -0.136303,-0.12421 -0.276841,-0.24396 -0.415443,-0.36613 -0.544451,-0.47986 -1.108782,-0.96096 -1.688181,-1.40786 -0.04151,-0.032 -0.08672,-0.0625 -0.128405,-0.0944 -0.1174,-0.0899 -0.238085,-0.18136 -0.356889,-0.26986 -0.524618,-0.38984 -1.059078,-0.76877 -1.610697,-1.13037 -0.389463,-0.25605 -0.805735,-0.49463 -1.208459,-0.73592 -0.124268,-0.0742 -0.256901,-0.13894 -0.383305,-0.21322 l -2.231951,4.78644 z m -2.433825,50.10317 1.798718,4.9419 c 1.739325,-0.8008 3.418284,-1.7446 5.011516,-2.8351 4.125096,-2.8235 7.680169,-6.596 10.278102,-11.1717 l -4.758112,-2.2188 c -1.92182,3.2932 -4.42243,6.0798 -7.309325,8.2805 l -0.04334,-0.054 c -1.558088,1.19 -3.225907,2.2148 -4.977458,3.0579 z m 15.327565,-32.5742 c 0.470831,1.9075 0.759248,3.85341 0.830487,5.83516 l 0.06982,-0.002 c 0.134234,3.63754 -0.452564,7.33534 -1.784612,10.92564 l 4.78647,2.2321 c 2.636519,-6.8515 2.872602,-14.11357 1.081276,-20.80483 l -4.983473,1.81384 z"
       id="path3110-2"
       inkscape:connector-curvature="0" />
  </g>
</svg>
