<?xml version="1.0" encoding="UTF-8" standalone="no"?>
<!-- Created with Inkscape (http://www.inkscape.org/) -->

<svg
   xmlns:dc="http://purl.org/dc/elements/1.1/"
   xmlns:cc="http://creativecommons.org/ns#"
   xmlns:rdf="http://www.w3.org/1999/02/22-rdf-syntax-ns#"
   xmlns:svg="http://www.w3.org/2000/svg"
   xmlns="http://www.w3.org/2000/svg"
   xmlns:xlink="http://www.w3.org/1999/xlink"
   xmlns:sodipodi="http://sodipodi.sourceforge.net/DTD/sodipodi-0.dtd"
   xmlns:inkscape="http://www.inkscape.org/namespaces/inkscape"
   width="96"
   height="96"
   id="svg2"
   version="1.1"
   inkscape:version="0.48.4 r9939"
   sodipodi:docname="gnome-power-manager (copy).svg">
  <defs
     id="defs4">
    <linearGradient
       id="linearGradient3764">
      <stop
         style="stop-color:#07001c;stop-opacity:1;"
         offset="0"
         id="stop3766" />
      <stop
         style="stop-color:#36002f;stop-opacity:1;"
         offset="1"
         id="stop3768" />
    </linearGradient>
    <linearGradient
       inkscape:collect="always"
       xlink:href="#linearGradient3764"
       id="linearGradient3771"
       x1="0"
       y1="-1047.3622"
       x2="95"
       y2="-957.36218"
       gradientUnits="userSpaceOnUse" />
  </defs>
  <sodipodi:namedview
     id="base"
     pagecolor="#ffffff"
     bordercolor="#666666"
     borderopacity="1.0"
     inkscape:pageopacity="0.0"
     inkscape:pageshadow="2"
     inkscape:zoom="4.3637354"
     inkscape:cx="18.314603"
     inkscape:cy="56.180718"
     inkscape:document-units="px"
     inkscape:current-layer="layer1"
     showgrid="true"
     inkscape:snap-page="true"
     inkscape:snap-global="true"
     inkscape:snap-center="true"
     inkscape:snap-object-midpoints="false"
     showguides="true"
     inkscape:guide-bbox="true"
     inkscape:snap-bbox="true"
     inkscape:object-paths="true"
     inkscape:object-nodes="true"
     inkscape:window-width="1305"
     inkscape:window-height="744"
     inkscape:window-x="61"
     inkscape:window-y="24"
     inkscape:window-maximized="1"
     inkscape:snap-midpoints="false"
     inkscape:snap-grids="true"
     inkscape:snap-to-guides="false">
    <inkscape:grid
       type="xygrid"
       id="grid3002"
       empspacing="5"
       visible="true"
       enabled="true"
       snapvisiblegridlinesonly="true" />
  </sodipodi:namedview>
  <metadata
     id="metadata7">
    <rdf:RDF>
      <cc:Work
         rdf:about="">
        <dc:format>image/svg+xml</dc:format>
        <dc:type
           rdf:resource="http://purl.org/dc/dcmitype/StillImage" />
        <dc:title />
      </cc:Work>
    </rdf:RDF>
  </metadata>
  <g
     inkscape:label="Layer 1"
     inkscape:groupmode="layer"
     id="layer1"
     transform="translate(0,-956.36218)">
    <rect
       style="fill:#ffffff;fill-opacity:0;fill-rule:nonzero;stroke:none"
       id="rect3775"
       width="96"
       height="96"
       x="0"
       y="956.36218"
       ry="0" />
    <path
       style="fill:#000000;fill-opacity:0.09589041;fill-rule:nonzero;stroke:none"
       d="m 3.353015,956.30662 c -1.884176,0 -3.4111555,1.43156 -3.4111555,3.19799 l 0,83.65949 c 0,1.7665 1.5269795,3.1981 3.4111555,3.1981 l 89.23583,0 c 1.884174,0 3.411155,-1.4316 3.411155,-3.1981 l 0,-83.65949 c 0,-1.76643 -1.526981,-3.19799 -3.411155,-3.19799 z"
       id="rect3772"
       inkscape:connector-curvature="0"
       sodipodi:nodetypes="sssssssss" />
    <path
       style="fill:#000000;fill-opacity:0.18721463;fill-rule:nonzero;stroke:none"
       d="m 1.0459761,1041.8066 0,7.4219 c 0,1.7392 1.461916,3.1337 3.2852054,3.1337 l 86.3836135,0 c 1.823288,0 3.285205,-1.3945 3.285205,-3.1337 l 0,-7.4219 -92.9540239,0 z"
       id="rect3785"
       inkscape:connector-curvature="0" />
    <path
       style="fill:#000000;fill-opacity:0.38356168;fill-rule:nonzero;stroke:none"
       d="m 1.0459761,1041.8066 0,5.3807 c 0,1.762 1.461916,3.1749 3.2852054,3.1749 l 86.3836135,0 c 1.823288,0 3.285205,-1.4129 3.285205,-3.1749 l 0,-5.3807 -92.9540239,0 z"
       id="rect3783"
       inkscape:connector-curvature="0" />
    <rect
       style="fill:url(#linearGradient3771);fill-opacity:1;fill-rule:nonzero;stroke:none"
       id="rect2985"
       width="92.954025"
       height="89"
       x="1.045977"
       y="-1046.3622"
       ry="3.1511393"
       transform="scale(1,-1)" />
    <path
       style="fill:#000000;fill-opacity:0.38356168;fill-rule:nonzero;stroke:none"
       d="m 1,1042.3622 0.045976,2.7457 c 0.03024,1.8058 1.461916,3.2543 3.2852054,3.2543 l 86.3836136,0 c 1.823288,0 3.285205,-1.4481 3.285205,-3.2543 l -0.04598,-2.7457 z"
       id="rect3781"
       inkscape:connector-curvature="0"
       sodipodi:nodetypes="csssscc" />
    <rect
       style="fill:#ffffff;fill-opacity:0.30000001;fill-rule:nonzero;stroke:none"
       id="rect3770"
       width="92.954033"
       height="2.000005"
       x="1.045976"
       y="1040.3622" />
    <path
       style="fill:#00c6ff;fill-opacity:1;fill-rule:evenodd;stroke:none"
       d="m 22.583356,985.04966 c -6.903559,0 -12.5,5.59644 -12.5,12.5 0,6.90364 5.596441,12.50014 12.5,12.50014 6.903559,0 12.5,-5.5965 12.5,-12.50014 0,-6.90356 -5.596441,-12.5 -12.5,-12.5 z m 0,3 c 5.246705,0 9.5,4.2533 9.5,9.5 0,5.24684 -4.253295,9.50014 -9.5,9.50014 -5.246705,0 -9.5,-4.2533 -9.5,-9.50014 0,-5.2467 4.253295,-9.5 9.5,-9.5 z"
       id="path2996"
       inkscape:connector-curvature="0" />
    <rect
       style="fill:#00c6ff;fill-opacity:1;fill-rule:evenodd;stroke:none"
       id="rect3769"
       width="11"
       height="3.0000029"
       x="17.083351"
       y="996.04974" />
    <rect
       y="-24.083353"
       x="992.04974"
       height="3.0000029"
       width="11"
       id="rect3773"
       style="fill:#00c6ff;fill-opacity:1;fill-rule:evenodd;stroke:none"
       transform="matrix(0,1,-1,0,0,0)" />
    <path
       id="path3775"
       d="m 72.812517,985.04966 c -6.903559,0 -12.5,5.59644 -12.5,12.5 0,6.90364 5.596441,12.50014 12.5,12.50014 6.903559,0 12.5,-5.5965 12.5,-12.50014 0,-6.90356 -5.596441,-12.5 -12.5,-12.5 z m 0,3 c 5.246705,0 9.5,4.2533 9.5,9.5 0,5.24684 -4.253295,9.50014 -9.5,9.50014 -5.246705,0 -9.5,-4.2533 -9.5,-9.50014 0,-5.2467 4.253295,-9.5 9.5,-9.5 z"
       style="fill:#00c6ff;fill-opacity:1;fill-rule:evenodd;stroke:none"
       inkscape:connector-curvature="0" />
    <rect
       y="996.04974"
       x="67.312508"
       height="3.0000029"
       width="11"
       id="rect3777"
       style="fill:#00c6ff;fill-opacity:1;fill-rule:evenodd;stroke:none" />
  </g>
</svg>
