<?xml version="1.0" encoding="UTF-8" standalone="no"?>
<!-- Created with Inkscape (http://www.inkscape.org/) -->

<svg
   xmlns:dc="http://purl.org/dc/elements/1.1/"
   xmlns:cc="http://creativecommons.org/ns#"
   xmlns:rdf="http://www.w3.org/1999/02/22-rdf-syntax-ns#"
   xmlns:svg="http://www.w3.org/2000/svg"
   xmlns="http://www.w3.org/2000/svg"
   xmlns:xlink="http://www.w3.org/1999/xlink"
   xmlns:sodipodi="http://sodipodi.sourceforge.net/DTD/sodipodi-0.dtd"
   xmlns:inkscape="http://www.inkscape.org/namespaces/inkscape"
   width="96"
   height="96"
   id="svg2"
   version="1.1"
   inkscape:version="0.48.4 r9939"
   sodipodi:docname="gnome-sudoku.svg">
  <defs
     id="defs4">
    <linearGradient
       inkscape:collect="always"
       xlink:href="#linearGradient901"
       id="linearGradient3699"
       x1="8.7980976"
       y1="1003.3451"
       x2="8.7980976"
       y2="1018.5951"
       gradientUnits="userSpaceOnUse"
       gradientTransform="matrix(0.85125414,0,0,0.88263113,1.5918324,119.62007)" />
    <linearGradient
       id="linearGradient901">
      <stop
         style="stop-color:#bf8146;stop-opacity:1"
         offset="0"
         id="stop903" />
      <stop
         style="stop-color:#f8e19c;stop-opacity:1"
         offset="1"
         id="stop905" />
    </linearGradient>
    <linearGradient
       inkscape:collect="always"
       xlink:href="#linearGradient901"
       id="linearGradient3763"
       gradientUnits="userSpaceOnUse"
       gradientTransform="matrix(0.85125414,0,0,0.88263113,1.5918324,119.62007)"
       x1="8.7980976"
       y1="1003.3451"
       x2="8.7980976"
       y2="1018.5951" />
    <linearGradient
       inkscape:collect="always"
       xlink:href="#linearGradient901"
       id="linearGradient3771"
       gradientUnits="userSpaceOnUse"
       gradientTransform="matrix(0.85125414,0,0,0.88263113,1.5918324,119.62007)"
       x1="8.7980976"
       y1="1003.3451"
       x2="8.7980976"
       y2="1018.5951" />
    <linearGradient
       inkscape:collect="always"
       xlink:href="#linearGradient901"
       id="linearGradient3715"
       gradientUnits="userSpaceOnUse"
       gradientTransform="matrix(0.85125414,0,0,0.88263113,1.5918324,119.62007)"
       x1="8.7980976"
       y1="1003.3451"
       x2="8.7980976"
       y2="1018.5951" />
    <linearGradient
       inkscape:collect="always"
       xlink:href="#linearGradient901"
       id="linearGradient3731"
       gradientUnits="userSpaceOnUse"
       gradientTransform="matrix(0.85125414,0,0,0.88263113,1.5918324,119.62007)"
       x1="8.7980976"
       y1="1003.3451"
       x2="8.7980976"
       y2="1018.5951" />
    <linearGradient
       inkscape:collect="always"
       xlink:href="#linearGradient901"
       id="linearGradient3751"
       gradientUnits="userSpaceOnUse"
       gradientTransform="matrix(0.85125414,0,0,0.88263113,1.5918324,119.62007)"
       x1="8.7980976"
       y1="1003.3451"
       x2="8.7980976"
       y2="1018.5951" />
    <linearGradient
       inkscape:collect="always"
       xlink:href="#linearGradient901"
       id="linearGradient3753"
       gradientUnits="userSpaceOnUse"
       gradientTransform="matrix(0.85125414,0,0,0.88263113,1.5918324,119.62007)"
       x1="8.7980976"
       y1="1003.3451"
       x2="8.7980976"
       y2="1018.5951" />
    <linearGradient
       inkscape:collect="always"
       xlink:href="#linearGradient901"
       id="linearGradient3755"
       gradientUnits="userSpaceOnUse"
       gradientTransform="matrix(0.85125414,0,0,0.88263113,1.5918324,119.62007)"
       x1="8.7980976"
       y1="1003.3451"
       x2="8.7980976"
       y2="1018.5951" />
  </defs>
  <sodipodi:namedview
     id="base"
     pagecolor="#ffffff"
     bordercolor="#666666"
     borderopacity="1.0"
     inkscape:pageopacity="0.0"
     inkscape:pageshadow="2"
     inkscape:zoom="5.90625"
     inkscape:cx="21.437698"
     inkscape:cy="48"
     inkscape:document-units="px"
     inkscape:current-layer="layer1"
     showgrid="true"
     inkscape:snap-page="true"
     inkscape:snap-global="true"
     inkscape:snap-center="true"
     inkscape:snap-object-midpoints="false"
     showguides="true"
     inkscape:guide-bbox="true"
     inkscape:snap-bbox="true"
     inkscape:object-paths="true"
     inkscape:object-nodes="true"
     inkscape:window-width="1305"
     inkscape:window-height="744"
     inkscape:window-x="61"
     inkscape:window-y="24"
     inkscape:window-maximized="1"
     inkscape:snap-midpoints="false"
     inkscape:snap-grids="true"
     inkscape:snap-to-guides="false">
    <inkscape:grid
       type="xygrid"
       id="grid3002"
       empspacing="5"
       visible="true"
       enabled="true"
       snapvisiblegridlinesonly="true" />
  </sodipodi:namedview>
  <metadata
     id="metadata7">
    <rdf:RDF>
      <cc:Work
         rdf:about="">
        <dc:format>image/svg+xml</dc:format>
        <dc:type
           rdf:resource="http://purl.org/dc/dcmitype/StillImage" />
        <dc:title />
      </cc:Work>
    </rdf:RDF>
  </metadata>
  <g
     inkscape:label="Layer 1"
     inkscape:groupmode="layer"
     id="layer1"
     transform="translate(0,-956.36218)">
    <rect
       style="fill:#ffffff;fill-opacity:0;fill-rule:nonzero;stroke:none"
       id="rect3775"
       width="96"
       height="96"
       x="0"
       y="956.36218"
       ry="0" />
    <path
       style="fill:#000000;fill-opacity:0.09589041;fill-rule:nonzero;stroke:none"
       d="m 3.353015,956.30662 c -1.884176,0 -3.4111555,1.43156 -3.4111555,3.19799 l 0,83.65949 c 0,1.7665 1.5269795,3.1981 3.4111555,3.1981 l 89.23583,0 c 1.884174,0 3.411155,-1.4316 3.411155,-3.1981 l 0,-83.65949 c 0,-1.76643 -1.526981,-3.19799 -3.411155,-3.19799 z"
       id="rect3772"
       inkscape:connector-curvature="0"
       sodipodi:nodetypes="sssssssss" />
    <path
       style="fill:#000000;fill-opacity:0.18721463;fill-rule:nonzero;stroke:none"
       d="m 1.0459761,1041.8066 0,7.4219 c 0,1.7392 1.461916,3.1337 3.2852054,3.1337 l 86.3836135,0 c 1.823288,0 3.285205,-1.3945 3.285205,-3.1337 l 0,-7.4219 -92.9540239,0 z"
       id="rect3785"
       inkscape:connector-curvature="0" />
    <path
       style="fill:#000000;fill-opacity:0.38356168;fill-rule:nonzero;stroke:none"
       d="m 1.0459761,1041.8066 0,5.3807 c 0,1.762 1.461916,3.1749 3.2852054,3.1749 l 86.3836135,0 c 1.823288,0 3.285205,-1.4129 3.285205,-3.1749 l 0,-5.3807 -92.9540239,0 z"
       id="rect3783"
       inkscape:connector-curvature="0" />
    <rect
       style="fill:#ff993f;fill-opacity:1;fill-rule:nonzero;stroke:none"
       id="rect2985"
       width="92.954025"
       height="89"
       x="1.045977"
       y="-1046.3622"
       ry="3.1511393"
       transform="scale(1,-1)" />
    <path
       style="fill:#000000;fill-opacity:0.38356168;fill-rule:nonzero;stroke:none"
       d="m 1,1042.3622 0.045976,2.7457 c 0.03024,1.8058 1.461916,3.2543 3.2852054,3.2543 l 86.3836136,0 c 1.823288,0 3.285205,-1.4481 3.285205,-3.2543 l -0.04598,-2.7457 z"
       id="rect3781"
       inkscape:connector-curvature="0"
       sodipodi:nodetypes="csssscc" />
    <rect
       style="fill:#ffffff;fill-opacity:0.30000001;fill-rule:nonzero;stroke:none"
       id="rect3770"
       width="92.954033"
       height="2.000005"
       x="1.045976"
       y="1040.3622" />
    <g
       id="g3161"
       transform="matrix(0.67495817,0,0,0.67495817,103.01485,337.59994)">
      <g
         transform="matrix(2.1080092,0,0,2.1080092,-132.11152,-1188.3479)"
         id="g3705">
        <rect
           ry="2.8085151"
           y="1008.0245"
           x="3.7077074"
           height="11.156046"
           width="11.286142"
           id="rect3701"
           style="opacity:0.63999999;fill:#000000;fill-opacity:1;stroke:none" />
        <rect
           style="fill:url(#linearGradient3699);fill-opacity:1;stroke:none"
           id="rect3691"
           width="11.286142"
           height="11.156046"
           x="3.5480971"
           y="1007.9003"
           ry="2.8085151" />
      </g>
      <g
         transform="matrix(2.1080092,0,0,2.1080092,-70.997426,-1188.3479)"
         id="g3757">
        <rect
           style="opacity:0.63999999;fill:#000000;fill-opacity:1;stroke:none"
           id="rect3759"
           width="11.286142"
           height="11.156046"
           x="3.7077074"
           y="1008.0245"
           ry="2.8085151" />
        <rect
           ry="2.8085151"
           y="1007.9003"
           x="3.5480971"
           height="11.156046"
           width="11.286142"
           id="rect3761"
           style="fill:url(#linearGradient3763);fill-opacity:1;stroke:none" />
      </g>
      <g
         id="g3765"
         transform="matrix(2.1080092,0,0,2.1080092,-101.55447,-1188.3479)">
        <rect
           ry="2.8085151"
           y="1008.0245"
           x="3.7077074"
           height="11.156046"
           width="11.286142"
           id="rect3767"
           style="opacity:0.63999999;fill:#000000;fill-opacity:1;stroke:none" />
        <rect
           style="fill:url(#linearGradient3771);fill-opacity:1;stroke:none"
           id="rect3769"
           width="11.286142"
           height="11.156046"
           x="3.5480971"
           y="1007.9003"
           ry="2.8085151" />
      </g>
      <g
         transform="matrix(2.1080092,0,0,2.1080092,-132.11152,-1155.9276)"
         id="g3709">
        <rect
           style="opacity:0.63999999;fill:#000000;fill-opacity:1;stroke:none"
           id="rect3711"
           width="11.286142"
           height="11.156046"
           x="3.7077074"
           y="1008.0245"
           ry="2.8085151" />
        <rect
           ry="2.8085151"
           y="1007.9003"
           x="3.5480971"
           height="11.156046"
           width="11.286142"
           id="rect3713"
           style="fill:url(#linearGradient3715);fill-opacity:1;stroke:none" />
      </g>
      <g
         style="fill:#ff7f2a"
         id="g3717"
         transform="matrix(2.1080092,0,0,2.1080092,-101.55447,-1155.9276)">
        <rect
           ry="2.8085151"
           y="1008.0245"
           x="3.7077074"
           height="11.156046"
           width="11.286142"
           id="rect3719"
           style="opacity:0.63999999;fill:#ff7f2a;fill-opacity:1;stroke:none" />
        <rect
           style="fill:#ff7f2a;fill-opacity:1;stroke:none"
           id="rect3721"
           width="11.286142"
           height="11.156046"
           x="3.5480971"
           y="1007.9003"
           ry="2.8085151" />
      </g>
      <g
         transform="matrix(2.1080092,0,0,2.1080092,-70.997426,-1155.9276)"
         id="g3725">
        <rect
           style="opacity:0.63999999;fill:#000000;fill-opacity:1;stroke:none"
           id="rect3727"
           width="11.286142"
           height="11.156046"
           x="3.7077074"
           y="1008.0245"
           ry="2.8085151" />
        <rect
           ry="2.8085151"
           y="1007.9003"
           x="3.5480971"
           height="11.156046"
           width="11.286142"
           id="rect3729"
           style="fill:url(#linearGradient3731);fill-opacity:1;stroke:none" />
      </g>
      <g
         id="g3733"
         transform="matrix(2.1080092,0,0,2.1080092,-132.11152,-1123.88)">
        <rect
           ry="2.8085151"
           y="1008.0245"
           x="3.7077074"
           height="11.156046"
           width="11.286142"
           id="rect3735"
           style="opacity:0.63999999;fill:#000000;fill-opacity:1;stroke:none" />
        <rect
           style="fill:url(#linearGradient3751);fill-opacity:1;stroke:none"
           id="rect3737"
           width="11.286142"
           height="11.156046"
           x="3.5480971"
           y="1007.9003"
           ry="2.8085151" />
      </g>
      <g
         transform="matrix(2.1080092,0,0,2.1080092,-101.55447,-1123.88)"
         id="g3739">
        <rect
           style="opacity:0.63999999;fill:#000000;fill-opacity:1;stroke:none"
           id="rect3741"
           width="11.286142"
           height="11.156046"
           x="3.7077074"
           y="1008.0245"
           ry="2.8085151" />
        <rect
           ry="2.8085151"
           y="1007.9003"
           x="3.5480971"
           height="11.156046"
           width="11.286142"
           id="rect3743"
           style="fill:url(#linearGradient3753);fill-opacity:1;stroke:none" />
      </g>
      <g
         id="g3745"
         transform="matrix(2.1080092,0,0,2.1080092,-70.997426,-1123.88)">
        <rect
           ry="2.8085151"
           y="1008.0245"
           x="3.7077074"
           height="11.156046"
           width="11.286142"
           id="rect3747"
           style="opacity:0.63999999;fill:#000000;fill-opacity:1;stroke:none" />
        <rect
           style="fill:url(#linearGradient3755);fill-opacity:1;stroke:none"
           id="rect3749"
           width="11.286142"
           height="11.156046"
           x="3.5480971"
           y="1007.9003"
           ry="2.8085151" />
      </g>
      <path
         id="path2212"
         d="m -112.15131,939.19941 c -1.04302,1.34506 -2.53482,2.2686 -4.54539,2.70089 l 0,1.91038 0.39525,0 c 0.96068,0 1.57003,0.0599 1.84451,0.19752 0.28134,0.13049 0.46524,0.33219 0.527,0.59288 0.0618,0.26083 0.0659,1.08155 0.0659,2.37151 l 0,8.89316 4.21602,0 0,-16.66645 -2.50326,0 z m 60.407643,0.527 c -0.844028,0 -1.570029,0.12754 -2.173885,0.39525 -0.603858,0.26757 -1.071847,0.66424 -1.449256,1.18576 -0.37741,0.52152 -0.62856,1.03897 -0.724628,1.58101 -0.09606,0.53528 -0.131751,1.30648 -0.131751,2.23976 l 0,0.59287 3.754892,0 0,-1.581 c 0,-0.73429 0.04665,-1.26808 0.197625,-1.51514 0.157827,-0.24691 0.408977,-0.32937 0.724629,-0.32937 0.315653,0 0.573665,0.10308 0.724628,0.32937 0.157826,0.21951 0.197626,0.53519 0.197626,0.98813 0,0.5901 -0.275852,1.44645 -0.790504,2.50327 -0.507788,1.04992 -2.098403,3.80154 -4.808896,8.23441 l 0,2.37151 9.156665,0 0,-2.89852 -4.545395,0 c 2.333084,-3.45151 3.742541,-5.65557 4.216019,-6.71928 0.480341,-1.06356 0.724628,-2.07645 0.724628,-3.03026 0,-1.2558 -0.466616,-2.27964 -1.317506,-3.09614 -0.844028,-0.82353 -2.101148,-1.25163 -3.754891,-1.25163 z m -61.198143,32.21302 c -1.58512,0 -2.69814,0.29368 -3.42551,0.85638 -0.72738,0.55581 -1.11988,1.63592 -1.11988,3.22789 l 0,1.44925 4.15014,0 0,-1.38338 c 0,-0.63816 0.0947,-1.05952 0.19763,-1.25163 0.10978,-0.199 0.30467,-0.32938 0.59287,-0.32938 0.2539,0 0.41035,0.14415 0.52701,0.32938 0.1235,0.18523 0.19762,0.53652 0.19762,1.11988 l 0,0.92225 c 0,0.54218 -0.0288,0.93196 -0.13175,1.18576 -0.10293,0.25352 -0.29369,0.45111 -0.527,0.527 -0.23331,0.0759 -0.85638,0.13175 -1.84451,0.13175 l 0,2.37151 c 0.80972,0.0141 1.36554,0.10207 1.64688,0.19763 0.28135,0.0892 0.51465,0.2979 0.65876,0.59288 0.1441,0.29512 0.19762,0.74521 0.19762,1.38338 l 0,1.11988 c 0,1.04304 -0.0288,1.7292 -0.13175,1.97626 -0.10293,0.24691 -0.33624,0.32937 -0.65875,0.32937 -0.29507,0 -0.50367,-0.0714 -0.59288,-0.2635 -0.0823,-0.199 -0.13175,-0.66286 -0.13175,-1.38338 l 0,-2.70089 -4.15014,0 0,1.31751 c 0,1.58522 0.16193,2.71459 0.39525,3.35964 0.24017,0.63816 0.70129,1.13509 1.44925,1.58101 0.75483,0.43916 1.77864,0.65875 3.09614,0.65875 1.15968,0 2.09154,-0.14967 2.83264,-0.527 0.7411,-0.38436 1.27908,-0.9855 1.58101,-1.71276 0.30193,-0.73429 0.46112,-1.70587 0.46112,-3.03026 0,-1.78408 -0.15234,-2.94517 -0.46112,-3.42552 -0.30879,-0.48723 -0.75208,-0.84124 -1.38338,-1.054 0.63816,-0.34305 1.06361,-0.70784 1.3175,-1.11988 0.2539,-0.41851 0.39525,-1.10885 0.39525,-2.04214 0,-1.3792 -0.34721,-2.45242 -1.054,-3.22789 -0.70679,-0.77532 -2.10115,-1.18575 -4.08427,-1.18575 z m 61.461644,0.0659 c -1.585124,0 -2.761273,0.33348 -3.557266,1.054 -0.795994,0.71377 -1.25163,1.79374 -1.25163,3.22789 0,0.83028 0.141363,1.5001 0.395252,2.04213 0.260754,0.5353 0.671103,0.9387 1.185755,1.18576 -0.816578,0.44591 -1.29143,1.03746 -1.449257,1.77863 -0.150975,0.74104 -0.263501,1.62626 -0.263501,2.63501 0,1.50273 0.152346,2.58284 0.461127,3.22789 0.315652,0.64505 0.860496,1.12403 1.581007,1.51513 0.720511,0.39125 1.663352,0.59288 2.898513,0.59288 1.26947,0 2.275442,-0.18799 3.030263,-0.59288 0.754821,-0.41176 1.32025,-0.94284 1.581007,-1.581 0.260757,-0.63817 0.395256,-1.61948 0.395256,-2.96439 0,-1.84591 -0.19763,-3.00416 -0.527007,-3.49139 -0.329376,-0.49412 -0.772661,-0.87296 -1.383381,-1.11988 0.71365,-0.39125 1.156935,-0.78776 1.383381,-1.18576 0.233309,-0.39799 0.329377,-1.0774 0.329377,-1.97625 0,-1.41363 -0.35408,-2.4662 -1.054005,-3.22789 -0.699924,-0.7617 -1.922734,-1.11988 -3.754891,-1.11988 z m 0,2.50326 c 0.281341,0 0.496809,0.14414 0.592877,0.32937 0.102935,0.17849 0.131751,0.55733 0.131751,1.11988 l 0,1.11988 c 0,0.59025 -0.03569,0.99365 -0.131751,1.18576 -0.09606,0.18523 -0.252522,0.2635 -0.527002,0.2635 -0.26075,0 -0.483078,-0.0714 -0.592877,-0.2635 -0.109807,-0.1921 -0.131751,-0.553 -0.131751,-1.05401 l 0,-1.25163 c 0,-0.53515 0.03569,-0.92777 0.131751,-1.11988 0.09606,-0.19899 0.252522,-0.32937 0.527002,-0.32937 z m 0,6.78515 c 0.281347,0 0.462503,0.0507 0.592877,0.2635 0.130381,0.20589 0.197626,0.67935 0.197626,1.31751 l 0,2.10801 c 0,0.73429 -0.02882,1.23663 -0.13175,1.44926 -0.102934,0.20588 -0.297811,0.2635 -0.592878,0.2635 -0.288198,0 -0.521507,-0.0576 -0.658753,-0.2635 -0.13038,-0.20575 -0.197626,-0.72874 -0.197626,-1.44926 l 0,-2.10801 c 0,-0.65194 0.08097,-1.11851 0.197626,-1.31751 0.123509,-0.20589 0.318398,-0.2635 0.592878,-0.2635 z m -35.309154,22.85866 -0.131751,8.4321 4.084268,0 c 0,-0.487 0.03158,-0.7916 0.06587,-0.9223 0.04117,-0.1373 0.133121,-0.2786 0.263501,-0.3952 0.130381,-0.1167 0.268991,-0.1976 0.461127,-0.1976 0.301933,0 0.528379,0.1687 0.658753,0.3952 0.130381,0.2264 0.197626,0.6272 0.197626,1.2516 l 0,3.2938 c -0.0137,1.1597 -0.05211,1.8253 -0.06588,1.9763 -0.007,0.1506 -0.06725,0.2645 -0.197626,0.3952 -0.123508,0.1307 -0.255267,0.1976 -0.461127,0.1976 -0.446032,0 -0.715022,-0.2058 -0.790503,-0.6587 -0.07548,-0.4528 -0.131741,-1.2283 -0.131741,-2.3057 l 0,-1.054 -4.150143,0 0,0.9223 c 0,1.5508 0.183903,2.6843 0.527002,3.4255 0.343102,0.741 0.896178,1.3353 1.712758,1.7128 0.816577,0.3704 1.762163,0.527 2.832637,0.527 0.953819,0 1.778633,-0.082 2.437386,-0.3294 0.665614,-0.2538 1.144583,-0.6532 1.515131,-1.1199 0.370542,-0.4734 0.614829,-0.9662 0.724628,-1.5151 0.116658,-0.5558 0.197626,-1.4548 0.197626,-2.635 l 0,-2.3715 c 0,-1.8253 -0.266248,-3.0509 -0.856378,-3.6891 -0.583272,-0.645 -1.489058,-0.9222 -2.635012,-0.9222 -1.015578,0 -1.858231,0.3582 -2.503261,1.1199 l 0,-2.8327 5.204148,0 0,-2.7009 -8.959039,0 z m 33.794022,0.1977 -3.623141,10.8694 0,2.8326 4.940647,0 0,2.9644 4.150143,0 0,-2.9644 1.185759,0 0,-2.8326 -1.185759,0 0,-10.8694 -5.467649,0 z m 1.317506,3.8207 0,7.0487 -1.778633,0 1.778633,-7.0487 z"
         style="font-size:10px;font-style:normal;font-weight:normal;line-height:125%;letter-spacing:0px;word-spacing:0px;fill:#2b1100;fill-opacity:1;stroke:none;font-family:Impact;-inkscape-font-specification:Impact"
         inkscape:connector-curvature="0" />
    </g>
  </g>
</svg>
