<?xml version="1.0" encoding="UTF-8" standalone="no"?>
<!-- Created with Inkscape (http://www.inkscape.org/) -->

<svg
   xmlns:dc="http://purl.org/dc/elements/1.1/"
   xmlns:cc="http://creativecommons.org/ns#"
   xmlns:rdf="http://www.w3.org/1999/02/22-rdf-syntax-ns#"
   xmlns:svg="http://www.w3.org/2000/svg"
   xmlns="http://www.w3.org/2000/svg"
   xmlns:sodipodi="http://sodipodi.sourceforge.net/DTD/sodipodi-0.dtd"
   xmlns:inkscape="http://www.inkscape.org/namespaces/inkscape"
   width="96"
   height="96"
   id="svg2"
   version="1.1"
   inkscape:version="0.48.4 r9939"
   sodipodi:docname="gnome-audio (copy).svg">
  <defs
     id="defs4">
    <filter
       color-interpolation-filters="sRGB"
       inkscape:collect="always"
       id="filter4988"
       x="-0.21376517"
       width="1.4275304"
       y="-0.21376517"
       height="1.4275304">
      <feGaussianBlur
         inkscape:collect="always"
         stdDeviation="0.91705359"
         id="feGaussianBlur4990" />
    </filter>
  </defs>
  <sodipodi:namedview
     id="base"
     pagecolor="#ffffff"
     bordercolor="#666666"
     borderopacity="1.0"
     inkscape:pageopacity="0.0"
     inkscape:pageshadow="2"
     inkscape:zoom="4.1763494"
     inkscape:cx="48.891754"
     inkscape:cy="33.136389"
     inkscape:document-units="px"
     inkscape:current-layer="layer1"
     showgrid="true"
     inkscape:snap-page="true"
     inkscape:snap-global="true"
     inkscape:snap-center="true"
     inkscape:snap-object-midpoints="false"
     showguides="true"
     inkscape:guide-bbox="true"
     inkscape:snap-bbox="true"
     inkscape:object-paths="true"
     inkscape:object-nodes="true"
     inkscape:window-width="1303"
     inkscape:window-height="744"
     inkscape:window-x="65"
     inkscape:window-y="24"
     inkscape:window-maximized="1"
     inkscape:snap-midpoints="false"
     inkscape:snap-grids="true"
     inkscape:snap-to-guides="false">
    <inkscape:grid
       type="xygrid"
       id="grid3002"
       empspacing="5"
       visible="true"
       enabled="true"
       snapvisiblegridlinesonly="true" />
  </sodipodi:namedview>
  <metadata
     id="metadata7">
    <rdf:RDF>
      <cc:Work
         rdf:about="">
        <dc:format>image/svg+xml</dc:format>
        <dc:type
           rdf:resource="http://purl.org/dc/dcmitype/StillImage" />
        <dc:title />
      </cc:Work>
    </rdf:RDF>
  </metadata>
  <g
     inkscape:label="Layer 1"
     inkscape:groupmode="layer"
     id="layer1"
     transform="translate(0,-956.36218)">
    <rect
       style="fill:#ffffff;fill-opacity:0;fill-rule:nonzero;stroke:none"
       id="rect3775"
       width="96"
       height="96"
       x="0"
       y="956.36218"
       ry="0" />
    <path
       style="fill:#000000;fill-opacity:0.09589041;fill-rule:nonzero;stroke:none"
       d="m 3.353015,956.30662 c -1.884176,0 -3.4111555,1.43156 -3.4111555,3.19799 l 0,83.65949 c 0,1.7665 1.5269795,3.1981 3.4111555,3.1981 l 89.23583,0 c 1.884174,0 3.411155,-1.4316 3.411155,-3.1981 l 0,-83.65949 c 0,-1.76643 -1.526981,-3.19799 -3.411155,-3.19799 z"
       id="rect3772"
       inkscape:connector-curvature="0"
       sodipodi:nodetypes="sssssssss" />
    <path
       style="fill:#000000;fill-opacity:0.18721463;fill-rule:nonzero;stroke:none"
       d="m 1.0459761,1041.8066 0,7.4219 c 0,1.7392 1.461916,3.1337 3.2852054,3.1337 l 86.3836135,0 c 1.823288,0 3.285205,-1.3945 3.285205,-3.1337 l 0,-7.4219 -92.9540239,0 z"
       id="rect3785"
       inkscape:connector-curvature="0" />
    <path
       style="fill:#000000;fill-opacity:0.38356168;fill-rule:nonzero;stroke:none"
       d="m 1.0459761,1041.8066 0,5.3807 c 0,1.762 1.461916,3.1749 3.2852054,3.1749 l 86.3836135,0 c 1.823288,0 3.285205,-1.4129 3.285205,-3.1749 l 0,-5.3807 -92.9540239,0 z"
       id="rect3783"
       inkscape:connector-curvature="0" />
    <rect
       style="fill:#1e1e1e;fill-opacity:1;fill-rule:nonzero;stroke:none"
       id="rect2985-2"
       width="93"
       height="88.999962"
       x="0.9999969"
       y="957.36224"
       ry="3.1511383" />
    <path
       style="fill:#000000;fill-opacity:0.38356168;fill-rule:nonzero;stroke:none"
       d="m 1,1042.3622 0.045976,2.7457 c 0.03024,1.8058 1.461916,3.2543 3.2852054,3.2543 l 86.3836136,0 c 1.823288,0 3.285205,-1.4481 3.285205,-3.2543 l -0.04598,-2.7457 z"
       id="rect3781"
       inkscape:connector-curvature="0"
       sodipodi:nodetypes="csssscc" />
    <rect
       style="fill:#ffffff;fill-opacity:0.30000001;fill-rule:nonzero;stroke:none"
       id="rect3770"
       width="92.954033"
       height="2.000005"
       x="1.045976"
       y="1040.3622" />
    <path
       style="fill:#00bce2;fill-opacity:1;stroke:none"
       d="m 23.71875,966.42468 0.21875,0 c 0.512111,0 0.9375,0.42539 0.9375,0.9375 l 0,25.0625 0.25,0 c 2.162247,0 3.90625,1.744 3.90625,3.90625 l 0,10.65627 c 0,2.1622 -1.744003,3.9062 -3.90625,3.9062 l -0.25,0 0,6.5938 c 0,0.5121 -0.425389,0.9062 -0.9375,0.9062 l -0.21875,0 c -0.512111,0 -0.90625,-0.3941 -0.90625,-0.9062 l 0,-6.5938 -0.25,0 c -2.162247,0 -3.90625,-1.744 -3.90625,-3.9062 l 0,-10.65627 c 0,-2.16225 1.744003,-3.90625 3.90625,-3.90625 l 0.25,0 0,-25.0625 c 0,-0.51211 0.394139,-0.9375 0.90625,-0.9375 z m 15.78125,0 0.25,0 c 0.512111,0 0.90625,0.42539 0.90625,0.9375 l 0,14.125 0.25,0 c 2.162247,0 3.90625,1.744 3.90625,3.90625 l 0,10.65625 c 0,2.16225 -1.744003,3.90625 -3.90625,3.90625 l -0.25,0 0,17.53127 c 0,0.5121 -0.394139,0.9062 -0.90625,0.9062 l -0.25,0 c -0.512111,0 -0.90625,-0.3941 -0.90625,-0.9062 l 0,-17.53127 -0.25,0 c -2.162247,0 -3.90625,-1.744 -3.90625,-3.90625 l 0,-10.65625 c 0,-2.16225 1.744003,-3.90625 3.90625,-3.90625 l 0.25,0 0,-14.125 c 0,-0.51211 0.394139,-0.9375 0.90625,-0.9375 z m 15.78125,0 0.25,0 c 0.512111,0 0.90625,0.42539 0.90625,0.9375 l 0,21.9375 0.25,0 c 2.162247,0 3.90625,1.744 3.90625,3.90625 l 0,10.65627 c 0,2.1622 -1.744003,3.9062 -3.90625,3.9062 l -0.25,0 0,9.7188 c 0,0.5121 -0.394139,0.9062 -0.90625,0.9062 l -0.25,0 c -0.512111,0 -0.90625,-0.3941 -0.90625,-0.9062 l 0,-9.7188 -0.25,0 c -2.162247,0 -3.90625,-1.744 -3.90625,-3.9062 l 0,-10.65627 c 0,-2.16225 1.744003,-3.90625 3.90625,-3.90625 l 0.25,0 0,-21.9375 c 0,-0.51211 0.394139,-0.9375 0.90625,-0.9375 z m 15.78125,0 0.25,0 c 0.512111,0 0.90625,0.42539 0.90625,0.9375 l 0,6.3125 0.25,0 c 2.162247,0 3.90625,1.744 3.90625,3.90625 l 0,10.65625 c 0,2.16225 -1.744003,3.90625 -3.90625,3.90625 l -0.25,0 0,25.34377 c 0,0.5121 -0.394139,0.9062 -0.90625,0.9062 l -0.25,0 c -0.512111,0 -0.90625,-0.3941 -0.90625,-0.9062 l 0,-25.34377 -0.25,0 c -2.162247,0 -3.90625,-1.744 -3.90625,-3.90625 l 0,-10.65625 c 0,-2.16225 1.744003,-3.90625 3.90625,-3.90625 l 0.25,0 0,-6.3125 c 0,-0.51211 0.394139,-0.9375 0.90625,-0.9375 z"
       id="rect4020"
       inkscape:connector-curvature="0"
       sodipodi:nodetypes="ssscsssscsssscsssscssssscsssscsssscsssscssssscsssscsssscsssscssssscsssscsssscsssscss" />
    <path
       style="fill:#ffffff;fill-opacity:0.42009133;fill-rule:nonzero;stroke:none"
       d="m 31.75,1022.7059 c -4.598552,0 -8.28125,3.714 -8.28125,8.3125 0,4.5986 3.682698,8.2813 8.28125,8.2813 l 34.5,0 c 4.598552,0 8.28125,-3.6827 8.28125,-8.2813 0,-4.5985 -3.682698,-8.3125 -8.28125,-8.3125 z"
       id="rect4003"
       inkscape:connector-curvature="0"
       sodipodi:nodetypes="sssssss" />
    <path
       sodipodi:type="inkscape:offset"
       inkscape:radius="1.9054068"
       inkscape:original="M 37.625 1030.9688 A 4.9253229 5.0623029 0 0 0 32.84375 1036.0312 A 4.9253229 5.0623029 0 0 0 42.6875 1036.0312 A 4.9253229 5.0623029 0 0 0 37.625 1030.9688 z "
       style="fill:#004d80;fill-opacity:0.42465754;stroke:none"
       id="path3972"
       d="m 37.5625,1029.0625 c -0.09528,0 -0.561607,0.05 -0.65625,0.062 -0.09464,0.012 -0.563027,0.1034 -0.65625,0.125 -0.09322,0.022 -0.533986,0.1254 -0.625,0.1562 -0.09101,0.031 -0.536987,0.2102 -0.625,0.25 -0.08801,0.04 -0.509527,0.264 -0.59375,0.3126 -0.08422,0.048 -0.48285,0.2868 -0.5625,0.3437 -0.07965,0.057 -0.42569,0.3414 -0.5,0.4063 -0.07431,0.065 -0.431771,0.3965 -0.5,0.4687 -0.06823,0.072 -0.376058,0.421 -0.4375,0.5 -0.06144,0.079 -0.320999,0.4774 -0.375,0.5625 -0.054,0.085 -0.266533,0.4721 -0.3125,0.5625 -0.04597,0.09 -0.243832,0.5301 -0.28125,0.625 -0.03742,0.095 -0.190309,0.5266 -0.21875,0.625 -0.02844,0.098 -0.137117,0.5553 -0.15625,0.6563 -0.01913,0.1009 -0.08415,0.5536 -0.09375,0.6562 -0.0096,0.1026 -0.0313,0.5532 -0.03125,0.6562 a 1.9055974,1.9055974 0 0 0 0,0.063 c 0.0037,0.1024 0.04926,0.5547 0.0625,0.6562 0.01324,0.1015 0.102408,0.5567 0.125,0.6562 0.02259,0.1 0.124566,0.5596 0.15625,0.6563 0.03168,0.097 0.209586,0.5009 0.25,0.5937 0.04041,0.093 0.23256,0.5057 0.28125,0.5938 0.04869,0.088 0.28732,0.4799 0.34375,0.5625 0.05643,0.083 0.342686,0.455 0.40625,0.5313 0.06356,0.076 0.367465,0.4306 0.4375,0.5 0.07003,0.069 0.424201,0.3756 0.5,0.4374 0.0758,0.062 0.450426,0.3525 0.53125,0.4063 0.08082,0.054 0.477412,0.2671 0.5625,0.3125 0.08509,0.045 0.50517,0.2445 0.59375,0.2812 0.08858,0.037 0.533705,0.2223 0.625,0.25 0.0913,0.028 0.563018,0.1377 0.65625,0.1563 0.09323,0.019 0.530607,0.084 0.625,0.094 0.09439,0.01 0.561471,0.031 0.65625,0.031 0.09478,0 0.593107,-0.022 0.6875,-0.031 0.09439,-0.01 0.531768,-0.075 0.625,-0.094 0.09323,-0.019 0.564955,-0.1285 0.65625,-0.1563 0.0913,-0.028 0.53642,-0.2132 0.625,-0.25 0.08858,-0.037 0.508662,-0.2358 0.59375,-0.2812 0.08509,-0.045 0.481676,-0.2587 0.5625,-0.3125 0.08082,-0.054 0.455451,-0.3444 0.53125,-0.4063 0.0758,-0.062 0.429965,-0.3681 0.5,-0.4374 0.07003,-0.069 0.373936,-0.4238 0.4375,-0.5 0.06356,-0.076 0.34982,-0.4487 0.40625,-0.5313 0.05643,-0.083 0.29506,-0.4744 0.34375,-0.5625 0.04869,-0.088 0.240836,-0.5009 0.28125,-0.5938 0.04041,-0.093 0.218316,-0.497 0.25,-0.5937 0.03168,-0.097 0.133658,-0.5567 0.15625,-0.6563 0.02259,-0.099 0.111762,-0.5547 0.125,-0.6562 0.01324,-0.1015 0.05877,-0.5538 0.0625,-0.6562 a 1.9055974,1.9055974 0 0 0 0,-0.063 c 4.2e-5,-0.1068 -0.02092,-0.5811 -0.03125,-0.6874 -0.01033,-0.1064 -0.07318,-0.583 -0.09375,-0.6876 -0.02057,-0.1045 -0.15695,-0.5545 -0.1875,-0.6562 -0.03055,-0.1017 -0.1786,-0.5585 -0.21875,-0.6562 -0.04015,-0.098 -0.231993,-0.5322 -0.28125,-0.625 -0.04926,-0.093 -0.317228,-0.5069 -0.375,-0.5938 -0.05777,-0.087 -0.34064,-0.4823 -0.40625,-0.5625 -0.06561,-0.08 -0.396048,-0.4273 -0.46875,-0.5 -0.0727,-0.073 -0.421005,-0.4042 -0.5,-0.4687 -0.07899,-0.065 -0.478051,-0.3504 -0.5625,-0.4063 -0.08445,-0.056 -0.50471,-0.297 -0.59375,-0.3437 -0.08904,-0.047 -0.532245,-0.2754 -0.625,-0.3126 -0.09275,-0.037 -0.529412,-0.1913 -0.625,-0.2187 -0.09559,-0.027 -0.589961,-0.1388 -0.6875,-0.1563 -0.09754,-0.017 -0.588889,-0.055 -0.6875,-0.062 -0.09861,-0.01 -0.588695,-0.034 -0.6875,-0.031 z"
       transform="translate(-6,-4.9999996)" />
    <path
       d="m 37.59375,1029.6562 c -0.115333,0 -0.479224,0.048 -0.59375,0.063 -0.114526,0.015 -0.481032,0.067 -0.59375,0.094 -0.112718,0.026 -0.483834,0.1503 -0.59375,0.1875 -0.109916,0.037 -0.45637,0.1707 -0.5625,0.2188 -0.10613,0.048 -0.429873,0.2228 -0.53125,0.2812 -0.101377,0.058 -0.404317,0.2441 -0.5,0.3125 -0.09568,0.068 -0.410918,0.2973 -0.5,0.375 -0.08908,0.078 -0.355881,0.3511 -0.4375,0.4375 -0.08162,0.086 -0.301651,0.3432 -0.375,0.4375 -0.07335,0.094 -0.279409,0.3986 -0.34375,0.5 -0.06434,0.1014 -0.257826,0.4237 -0.3125,0.5313 -0.05467,0.1075 -0.205561,0.4497 -0.25,0.5624 -0.04444,0.1128 -0.153763,0.4458 -0.1875,0.5626 -0.03374,0.1167 -0.133574,0.474 -0.15625,0.5937 -0.02268,0.1197 -0.08238,0.5035 -0.09375,0.625 -0.01137,0.1215 -0.0313,0.4717 -0.03125,0.5937 a 1.2977625,1.2977625 0 0 0 0.03125,0.063 c 0.0044,0.1212 0.01557,0.4734 0.03125,0.5937 0.01568,0.1203 0.09822,0.4757 0.125,0.5937 0.02678,0.1181 0.11865,0.4791 0.15625,0.5938 0.0376,0.1147 0.170727,0.4522 0.21875,0.5625 0.04802,0.1103 0.192052,0.4264 0.25,0.5313 0.05795,0.1048 0.245219,0.4015 0.3125,0.5 0.06728,0.098 0.299063,0.4088 0.375,0.5 0.07594,0.091 0.322408,0.3544 0.40625,0.4374 0.08384,0.083 0.346567,0.3321 0.4375,0.4063 0.09093,0.074 0.40284,0.279 0.5,0.3437 0.09716,0.065 0.397517,0.2578 0.5,0.3126 0.102483,0.055 0.45563,0.2369 0.5625,0.2812 0.10687,0.044 0.452198,0.154 0.5625,0.1875 0.110302,0.034 0.449738,0.1338 0.5625,0.1563 0.112762,0.022 0.479509,0.082 0.59375,0.094 0.114241,0.011 0.479015,0 0.59375,0 0.114735,0 0.510759,0.011 0.625,0 0.114241,-0.011 0.480988,-0.071 0.59375,-0.094 0.112762,-0.023 0.452198,-0.1228 0.5625,-0.1563 0.110302,-0.034 0.45563,-0.1432 0.5625,-0.1875 0.10687,-0.044 0.460017,-0.2265 0.5625,-0.2812 0.102483,-0.055 0.40284,-0.2478 0.5,-0.3126 0.09716,-0.065 0.409067,-0.2695 0.5,-0.3437 0.09093,-0.074 0.353658,-0.3232 0.4375,-0.4063 0.08384,-0.083 0.330313,-0.3463 0.40625,-0.4374 0.07594,-0.091 0.307719,-0.4016 0.375,-0.5 0.06728,-0.099 0.254552,-0.3952 0.3125,-0.5 0.05795,-0.1049 0.201977,-0.421 0.25,-0.5313 0.04802,-0.1103 0.18115,-0.4478 0.21875,-0.5625 0.0376,-0.1147 0.129467,-0.4757 0.15625,-0.5938 0.02678,-0.118 0.109316,-0.4734 0.125,-0.5937 0.01568,-0.1203 0.02683,-0.4725 0.03125,-0.5937 A 1.2977625,1.2977625 0 0 0 44,1036.0312 c 5e-5,-0.1265 -0.01902,-0.499 -0.03125,-0.625 -0.01223,-0.1259 -0.06937,-0.501 -0.09375,-0.625 -0.02438,-0.1239 -0.120007,-0.5043 -0.15625,-0.625 -0.03624,-0.1206 -0.171057,-0.4775 -0.21875,-0.5937 -0.04769,-0.1162 -0.222645,-0.4521 -0.28125,-0.5625 -0.05861,-0.1104 -0.243637,-0.4276 -0.3125,-0.5312 -0.06886,-0.1037 -0.296634,-0.4355 -0.375,-0.5313 -0.07837,-0.096 -0.319225,-0.3817 -0.40625,-0.4687 -0.08702,-0.087 -0.373986,-0.3289 -0.46875,-0.4063 -0.09476,-0.077 -0.398476,-0.3079 -0.5,-0.375 -0.101524,-0.067 -0.455243,-0.2562 -0.5625,-0.3125 -0.107257,-0.056 -0.450572,-0.2364 -0.5625,-0.2812 -0.111928,-0.045 -0.478238,-0.1544 -0.59375,-0.1876 -0.115512,-0.033 -0.475758,-0.1351 -0.59375,-0.1562 -0.117992,-0.021 -0.505642,-0.054 -0.625,-0.062 -0.119358,-0.01 -0.505394,-0.035 -0.625,-0.031 z"
       id="path3970"
       style="fill:#004d80;fill-opacity:0.42465754;stroke:none"
       inkscape:original="M 37.625 1030.9688 A 4.9253229 5.0623029 0 0 0 32.84375 1036.0312 A 4.9253229 5.0623029 0 0 0 42.6875 1036.0312 A 4.9253229 5.0623029 0 0 0 37.625 1030.9688 z "
       inkscape:radius="1.2976327"
       sodipodi:type="inkscape:offset"
       transform="translate(-6,-4.9999996)" />
    <g
       transform="translate(0,-4.9999996)"
       id="g3980">
      <path
         transform="translate(11.029704,0.07920809)"
         sodipodi:type="inkscape:offset"
         inkscape:radius="1.9054068"
         inkscape:original="M 37.625 1030.9688 A 4.9253229 5.0623029 0 0 0 32.84375 1036.0312 A 4.9253229 5.0623029 0 0 0 42.6875 1036.0312 A 4.9253229 5.0623029 0 0 0 37.625 1030.9688 z "
         style="fill:#004d80;fill-opacity:0.42465754;stroke:none"
         id="path3974"
         d="m 37.5625,1029.0625 c -0.09528,0 -0.561607,0.05 -0.65625,0.062 -0.09464,0.012 -0.563027,0.1034 -0.65625,0.125 -0.09322,0.022 -0.533986,0.1254 -0.625,0.1562 -0.09101,0.031 -0.536987,0.2102 -0.625,0.25 -0.08801,0.04 -0.509527,0.264 -0.59375,0.3126 -0.08422,0.048 -0.48285,0.2868 -0.5625,0.3437 -0.07965,0.057 -0.42569,0.3414 -0.5,0.4063 -0.07431,0.065 -0.431771,0.3965 -0.5,0.4687 -0.06823,0.072 -0.376058,0.421 -0.4375,0.5 -0.06144,0.079 -0.320999,0.4774 -0.375,0.5625 -0.054,0.085 -0.266533,0.4721 -0.3125,0.5625 -0.04597,0.09 -0.243832,0.5301 -0.28125,0.625 -0.03742,0.095 -0.190309,0.5266 -0.21875,0.625 -0.02844,0.098 -0.137117,0.5553 -0.15625,0.6563 -0.01913,0.1009 -0.08415,0.5536 -0.09375,0.6562 -0.0096,0.1026 -0.0313,0.5532 -0.03125,0.6562 a 1.9055974,1.9055974 0 0 0 0,0.063 c 0.0037,0.1024 0.04926,0.5547 0.0625,0.6562 0.01324,0.1015 0.102408,0.5567 0.125,0.6562 0.02259,0.1 0.124566,0.5596 0.15625,0.6563 0.03168,0.097 0.209586,0.5009 0.25,0.5937 0.04041,0.093 0.23256,0.5057 0.28125,0.5938 0.04869,0.088 0.28732,0.4799 0.34375,0.5625 0.05643,0.083 0.342686,0.455 0.40625,0.5313 0.06356,0.076 0.367465,0.4306 0.4375,0.5 0.07003,0.069 0.424201,0.3756 0.5,0.4374 0.0758,0.062 0.450426,0.3525 0.53125,0.4063 0.08082,0.054 0.477412,0.2671 0.5625,0.3125 0.08509,0.045 0.50517,0.2445 0.59375,0.2812 0.08858,0.037 0.533705,0.2223 0.625,0.25 0.0913,0.028 0.563018,0.1377 0.65625,0.1563 0.09323,0.019 0.530607,0.084 0.625,0.094 0.09439,0.01 0.561471,0.031 0.65625,0.031 0.09478,0 0.593107,-0.022 0.6875,-0.031 0.09439,-0.01 0.531768,-0.075 0.625,-0.094 0.09323,-0.019 0.564955,-0.1285 0.65625,-0.1563 0.0913,-0.028 0.53642,-0.2132 0.625,-0.25 0.08858,-0.037 0.508662,-0.2358 0.59375,-0.2812 0.08509,-0.045 0.481676,-0.2587 0.5625,-0.3125 0.08082,-0.054 0.455451,-0.3444 0.53125,-0.4063 0.0758,-0.062 0.429965,-0.3681 0.5,-0.4374 0.07003,-0.069 0.373936,-0.4238 0.4375,-0.5 0.06356,-0.076 0.34982,-0.4487 0.40625,-0.5313 0.05643,-0.083 0.29506,-0.4744 0.34375,-0.5625 0.04869,-0.088 0.240836,-0.5009 0.28125,-0.5938 0.04041,-0.093 0.218316,-0.497 0.25,-0.5937 0.03168,-0.097 0.133658,-0.5567 0.15625,-0.6563 0.02259,-0.099 0.111762,-0.5547 0.125,-0.6562 0.01324,-0.1015 0.05877,-0.5538 0.0625,-0.6562 a 1.9055974,1.9055974 0 0 0 0,-0.063 c 4.2e-5,-0.1068 -0.02092,-0.5811 -0.03125,-0.6874 -0.01033,-0.1064 -0.07318,-0.583 -0.09375,-0.6876 -0.02057,-0.1045 -0.15695,-0.5545 -0.1875,-0.6562 -0.03055,-0.1017 -0.1786,-0.5585 -0.21875,-0.6562 -0.04015,-0.098 -0.231993,-0.5322 -0.28125,-0.625 -0.04926,-0.093 -0.317228,-0.5069 -0.375,-0.5938 -0.05777,-0.087 -0.34064,-0.4823 -0.40625,-0.5625 -0.06561,-0.08 -0.396048,-0.4273 -0.46875,-0.5 -0.0727,-0.073 -0.421005,-0.4042 -0.5,-0.4687 -0.07899,-0.065 -0.478051,-0.3504 -0.5625,-0.4063 -0.08445,-0.056 -0.50471,-0.297 -0.59375,-0.3437 -0.08904,-0.047 -0.532245,-0.2754 -0.625,-0.3126 -0.09275,-0.037 -0.529412,-0.1913 -0.625,-0.2187 -0.09559,-0.027 -0.589961,-0.1388 -0.6875,-0.1563 -0.09754,-0.017 -0.588889,-0.055 -0.6875,-0.062 -0.09861,-0.01 -0.588695,-0.034 -0.6875,-0.031 z" />
      <path
         transform="translate(11.029704,0.07920809)"
         d="m 37.59375,1029.6562 c -0.115333,0 -0.479224,0.048 -0.59375,0.063 -0.114526,0.015 -0.481032,0.067 -0.59375,0.094 -0.112718,0.026 -0.483834,0.1503 -0.59375,0.1875 -0.109916,0.037 -0.45637,0.1707 -0.5625,0.2188 -0.10613,0.048 -0.429873,0.2228 -0.53125,0.2812 -0.101377,0.058 -0.404317,0.2441 -0.5,0.3125 -0.09568,0.068 -0.410918,0.2973 -0.5,0.375 -0.08908,0.078 -0.355881,0.3511 -0.4375,0.4375 -0.08162,0.086 -0.301651,0.3432 -0.375,0.4375 -0.07335,0.094 -0.279409,0.3986 -0.34375,0.5 -0.06434,0.1014 -0.257826,0.4237 -0.3125,0.5313 -0.05467,0.1075 -0.205561,0.4497 -0.25,0.5624 -0.04444,0.1128 -0.153763,0.4458 -0.1875,0.5626 -0.03374,0.1167 -0.133574,0.474 -0.15625,0.5937 -0.02268,0.1197 -0.08238,0.5035 -0.09375,0.625 -0.01137,0.1215 -0.0313,0.4717 -0.03125,0.5937 a 1.2977625,1.2977625 0 0 0 0.03125,0.063 c 0.0044,0.1212 0.01557,0.4734 0.03125,0.5937 0.01568,0.1203 0.09822,0.4757 0.125,0.5937 0.02678,0.1181 0.11865,0.4791 0.15625,0.5938 0.0376,0.1147 0.170727,0.4522 0.21875,0.5625 0.04802,0.1103 0.192052,0.4264 0.25,0.5313 0.05795,0.1048 0.245219,0.4015 0.3125,0.5 0.06728,0.098 0.299063,0.4088 0.375,0.5 0.07594,0.091 0.322408,0.3544 0.40625,0.4374 0.08384,0.083 0.346567,0.3321 0.4375,0.4063 0.09093,0.074 0.40284,0.279 0.5,0.3437 0.09716,0.065 0.397517,0.2578 0.5,0.3126 0.102483,0.055 0.45563,0.2369 0.5625,0.2812 0.10687,0.044 0.452198,0.154 0.5625,0.1875 0.110302,0.034 0.449738,0.1338 0.5625,0.1563 0.112762,0.022 0.479509,0.082 0.59375,0.094 0.114241,0.011 0.479015,0 0.59375,0 0.114735,0 0.510759,0.011 0.625,0 0.114241,-0.011 0.480988,-0.071 0.59375,-0.094 0.112762,-0.023 0.452198,-0.1228 0.5625,-0.1563 0.110302,-0.034 0.45563,-0.1432 0.5625,-0.1875 0.10687,-0.044 0.460017,-0.2265 0.5625,-0.2812 0.102483,-0.055 0.40284,-0.2478 0.5,-0.3126 0.09716,-0.065 0.409067,-0.2695 0.5,-0.3437 0.09093,-0.074 0.353658,-0.3232 0.4375,-0.4063 0.08384,-0.083 0.330313,-0.3463 0.40625,-0.4374 0.07594,-0.091 0.307719,-0.4016 0.375,-0.5 0.06728,-0.099 0.254552,-0.3952 0.3125,-0.5 0.05795,-0.1049 0.201977,-0.421 0.25,-0.5313 0.04802,-0.1103 0.18115,-0.4478 0.21875,-0.5625 0.0376,-0.1147 0.129467,-0.4757 0.15625,-0.5938 0.02678,-0.118 0.109316,-0.4734 0.125,-0.5937 0.01568,-0.1203 0.02683,-0.4725 0.03125,-0.5937 A 1.2977625,1.2977625 0 0 0 44,1036.0312 c 5e-5,-0.1265 -0.01902,-0.499 -0.03125,-0.625 -0.01223,-0.1259 -0.06937,-0.501 -0.09375,-0.625 -0.02438,-0.1239 -0.120007,-0.5043 -0.15625,-0.625 -0.03624,-0.1206 -0.171057,-0.4775 -0.21875,-0.5937 -0.04769,-0.1162 -0.222645,-0.4521 -0.28125,-0.5625 -0.05861,-0.1104 -0.243637,-0.4276 -0.3125,-0.5312 -0.06886,-0.1037 -0.296634,-0.4355 -0.375,-0.5313 -0.07837,-0.096 -0.319225,-0.3817 -0.40625,-0.4687 -0.08702,-0.087 -0.373986,-0.3289 -0.46875,-0.4063 -0.09476,-0.077 -0.398476,-0.3079 -0.5,-0.375 -0.101524,-0.067 -0.455243,-0.2562 -0.5625,-0.3125 -0.107257,-0.056 -0.450572,-0.2364 -0.5625,-0.2812 -0.111928,-0.045 -0.478238,-0.1544 -0.59375,-0.1876 -0.115512,-0.033 -0.475758,-0.1351 -0.59375,-0.1562 -0.117992,-0.021 -0.505642,-0.054 -0.625,-0.062 -0.119358,-0.01 -0.505394,-0.035 -0.625,-0.031 z"
         id="path3976"
         style="fill:#004d80;fill-opacity:0.42465754;stroke:none"
         inkscape:original="M 37.625 1030.9688 A 4.9253229 5.0623029 0 0 0 32.84375 1036.0312 A 4.9253229 5.0623029 0 0 0 42.6875 1036.0312 A 4.9253229 5.0623029 0 0 0 37.625 1030.9688 z "
         inkscape:radius="1.2976327"
         sodipodi:type="inkscape:offset" />
      <path
         transform="translate(11.029704,0.07920809)"
         sodipodi:type="inkscape:offset"
         inkscape:radius="0.58867407"
         inkscape:original="M 37.625 1030.9688 A 4.9253229 5.0623029 0 0 0 32.84375 1036.0312 A 4.9253229 5.0623029 0 0 0 42.6875 1036.0312 A 4.9253229 5.0623029 0 0 0 37.625 1030.9688 z "
         style="fill:#000000;fill-opacity:0.50228307;stroke:none"
         id="path3978"
         d="m 37.59375,1030.375 c -0.06936,0 -0.180809,0.026 -0.25,0.031 -0.06919,0.01 -0.21239,0.022 -0.28125,0.031 -0.06886,0.01 -0.181628,0.019 -0.25,0.031 -0.06837,0.012 -0.18227,0.047 -0.25,0.062 -0.06773,0.016 -0.214318,0.043 -0.28125,0.063 -0.06693,0.019 -0.184018,0.04 -0.25,0.062 -0.06598,0.022 -0.185119,0.068 -0.25,0.094 -0.06488,0.026 -0.186369,0.096 -0.25,0.125 -0.06363,0.029 -0.156516,0.062 -0.21875,0.094 -0.06223,0.032 -0.189306,0.09 -0.25,0.125 -0.06069,0.035 -0.159738,0.1182 -0.21875,0.1562 -0.05901,0.038 -0.161557,0.1154 -0.21875,0.1562 -0.05719,0.041 -0.16351,0.1126 -0.21875,0.1563 -0.05524,0.044 -0.165593,0.1099 -0.21875,0.1563 -0.05316,0.046 -0.136552,0.1385 -0.1875,0.1874 -0.05095,0.049 -0.138881,0.1361 -0.1875,0.1876 -0.04862,0.051 -0.141325,0.1648 -0.1875,0.2187 -0.04617,0.054 -0.112631,0.1314 -0.15625,0.1875 -0.04362,0.056 -0.14654,0.1605 -0.1875,0.2188 -0.04096,0.058 -0.0868,0.1585 -0.125,0.2187 -0.0382,0.06 -0.120898,0.1879 -0.15625,0.25 -0.03535,0.062 -0.09258,0.155 -0.125,0.2187 -0.03242,0.064 -0.0956,0.1847 -0.125,0.25 -0.0294,0.065 -0.06744,0.1833 -0.09375,0.25 -0.02631,0.067 -0.07059,0.1821 -0.09375,0.25 -0.02316,0.068 -0.07379,0.2122 -0.09375,0.2813 -0.01996,0.069 -0.0458,0.18 -0.0625,0.25 -0.0167,0.07 -0.0491,0.1792 -0.0625,0.25 -0.0134,0.071 -0.02118,0.2099 -0.03125,0.2813 -0.01007,0.071 -0.02453,0.2094 -0.03125,0.2812 -0.0067,0.072 -0.0279,0.178 -0.03125,0.25 -0.0033,0.072 -3.1e-5,0.2091 0,0.2812 a 0.58873294,0.58873294 0 0 0 0,0.031 c 0.0026,0.072 0.0253,0.1786 0.03125,0.25 0.0059,0.071 0.02198,0.2102 0.03125,0.2813 0.0093,0.071 0.01868,0.1794 0.03125,0.25 0.01257,0.07 0.04666,0.2114 0.0625,0.2812 0.01584,0.07 0.04343,0.1811 0.0625,0.25 0.01907,0.069 0.04025,0.2134 0.0625,0.2812 0.02225,0.068 0.06837,0.1834 0.09375,0.25 0.02538,0.067 0.0653,0.1847 0.09375,0.25 0.02845,0.065 0.09355,0.155 0.125,0.2188 0.03145,0.064 0.09063,0.1878 0.125,0.25 0.03437,0.062 0.08778,0.1583 0.125,0.2188 0.03722,0.06 0.11628,0.1915 0.15625,0.25 0.03997,0.058 0.113622,0.1623 0.15625,0.2187 0.04263,0.056 0.111065,0.1333 0.15625,0.1875 0.04518,0.054 0.139865,0.1668 0.1875,0.2188 0.04763,0.052 0.137527,0.138 0.1875,0.1874 0.04997,0.05 0.135306,0.1406 0.1875,0.1876 0.05219,0.047 0.164457,0.1119 0.21875,0.1562 0.05429,0.044 0.131234,0.146 0.1875,0.1875 0.05627,0.042 0.160642,0.1175 0.21875,0.1563 0.05811,0.039 0.190184,0.089 0.25,0.125 0.05982,0.036 0.157364,0.092 0.21875,0.125 0.06139,0.033 0.187184,0.095 0.25,0.125 0.06282,0.03 0.154647,0.098 0.21875,0.125 0.0641,0.026 0.184756,0.07 0.25,0.094 0.06524,0.023 0.183763,0.042 0.25,0.062 0.06624,0.02 0.21417,0.077 0.28125,0.094 0.06708,0.017 0.182228,0.018 0.25,0.031 0.06777,0.014 0.181689,0.052 0.25,0.062 0.06831,0.01 0.212553,0.024 0.28125,0.031 0.0687,0.01 0.181071,0.028 0.25,0.031 0.06893,0 0.180994,0 0.25,0 0.06901,0 0.212321,0 0.28125,0 0.06893,-0 0.181303,-0.024 0.25,-0.031 0.0687,-0.01 0.212939,-0.021 0.28125,-0.031 0.06831,-0.01 0.182228,-0.049 0.25,-0.062 0.06777,-0.014 0.18292,-0.014 0.25,-0.031 0.06708,-0.017 0.215013,-0.074 0.28125,-0.094 0.06624,-0.02 0.184756,-0.039 0.25,-0.062 0.06524,-0.023 0.185897,-0.067 0.25,-0.094 0.0641,-0.027 0.155934,-0.095 0.21875,-0.125 0.06282,-0.03 0.188614,-0.092 0.25,-0.125 0.06139,-0.033 0.158934,-0.089 0.21875,-0.125 0.05982,-0.036 0.191892,-0.086 0.25,-0.125 0.05811,-0.039 0.162484,-0.1148 0.21875,-0.1563 0.05627,-0.042 0.133207,-0.1432 0.1875,-0.1875 0.05429,-0.044 0.166556,-0.1093 0.21875,-0.1562 0.05219,-0.047 0.137527,-0.1381 0.1875,-0.1876 0.04997,-0.049 0.139865,-0.1355 0.1875,-0.1874 0.04763,-0.052 0.142315,-0.1646 0.1875,-0.2188 0.04518,-0.054 0.113622,-0.1311 0.15625,-0.1875 0.04263,-0.056 0.11628,-0.1603 0.15625,-0.2187 0.03997,-0.059 0.119034,-0.1896 0.15625,-0.25 0.03722,-0.061 0.09063,-0.1566 0.125,-0.2188 0.03437,-0.062 0.09355,-0.1862 0.125,-0.25 0.03145,-0.064 0.09655,-0.1534 0.125,-0.2188 0.02845,-0.065 0.06837,-0.1833 0.09375,-0.25 0.02538,-0.067 0.0715,-0.1821 0.09375,-0.25 0.02225,-0.068 0.04343,-0.2123 0.0625,-0.2812 0.01907,-0.069 0.04666,-0.1802 0.0625,-0.25 0.01584,-0.07 0.04993,-0.2107 0.0625,-0.2812 0.01257,-0.071 0.02198,-0.179 0.03125,-0.25 0.0093,-0.071 0.0253,-0.2099 0.03125,-0.2813 0.0059,-0.071 0.02864,-0.1783 0.03125,-0.25 a 0.58873294,0.58873294 0 0 0 0,-0.031 c 3e-5,-0.075 0.0036,-0.2065 0,-0.2812 -0.0036,-0.075 -0.02402,-0.2068 -0.03125,-0.2812 -0.0072,-0.075 -0.02041,-0.2074 -0.03125,-0.2813 -0.01084,-0.074 -0.04809,-0.208 -0.0625,-0.2813 -0.01441,-0.073 -0.04455,-0.2088 -0.0625,-0.2812 -0.01795,-0.072 -0.04106,-0.1786 -0.0625,-0.25 -0.02144,-0.071 -0.06887,-0.2111 -0.09375,-0.2812 -0.02488,-0.07 -0.0655,-0.1813 -0.09375,-0.25 -0.02825,-0.069 -0.09346,-0.1828 -0.125,-0.25 -0.03154,-0.067 -0.09025,-0.1846 -0.125,-0.25 -0.03475,-0.066 -0.08712,-0.1864 -0.125,-0.25 -0.03788,-0.064 -0.115349,-0.1885 -0.15625,-0.25 -0.0409,-0.062 -0.112432,-0.1595 -0.15625,-0.2188 -0.04382,-0.059 -0.109627,-0.1618 -0.15625,-0.2188 -0.04662,-0.057 -0.138192,-0.1642 -0.1875,-0.2187 -0.04931,-0.054 -0.135634,-0.1356 -0.1875,-0.1875 -0.05187,-0.052 -0.164458,-0.1696 -0.21875,-0.2188 -0.05429,-0.049 -0.16217,-0.11 -0.21875,-0.1562 -0.05658,-0.046 -0.160026,-0.1442 -0.21875,-0.1875 -0.05872,-0.043 -0.158029,-0.1161 -0.21875,-0.1563 -0.06072,-0.04 -0.156185,-0.1192 -0.21875,-0.1562 -0.06256,-0.037 -0.185747,-0.091 -0.25,-0.125 -0.06425,-0.034 -0.184218,-0.095 -0.25,-0.125 -0.06578,-0.03 -0.182854,-0.067 -0.25,-0.094 -0.06715,-0.027 -0.212905,-0.1015 -0.28125,-0.125 -0.06835,-0.023 -0.180624,-0.043 -0.25,-0.062 -0.06938,-0.02 -0.211014,-0.046 -0.28125,-0.063 -0.07024,-0.016 -0.179075,-0.05 -0.25,-0.062 -0.07093,-0.013 -0.209811,-0.054 -0.28125,-0.063 -0.07144,-0.01 -0.20947,0.01 -0.28125,0 -0.07178,-0.01 -0.209305,-0.03 -0.28125,-0.031 -0.07194,-0 -0.209315,-0 -0.28125,0 z" />
    </g>
    <g
       id="g3985"
       transform="translate(16.970296,-4.9999996)">
      <path
         d="m 37.5625,1029.0625 c -0.09528,0 -0.561607,0.05 -0.65625,0.062 -0.09464,0.012 -0.563027,0.1034 -0.65625,0.125 -0.09322,0.022 -0.533986,0.1254 -0.625,0.1562 -0.09101,0.031 -0.536987,0.2102 -0.625,0.25 -0.08801,0.04 -0.509527,0.264 -0.59375,0.3126 -0.08422,0.048 -0.48285,0.2868 -0.5625,0.3437 -0.07965,0.057 -0.42569,0.3414 -0.5,0.4063 -0.07431,0.065 -0.431771,0.3965 -0.5,0.4687 -0.06823,0.072 -0.376058,0.421 -0.4375,0.5 -0.06144,0.079 -0.320999,0.4774 -0.375,0.5625 -0.054,0.085 -0.266533,0.4721 -0.3125,0.5625 -0.04597,0.09 -0.243832,0.5301 -0.28125,0.625 -0.03742,0.095 -0.190309,0.5266 -0.21875,0.625 -0.02844,0.098 -0.137117,0.5553 -0.15625,0.6563 -0.01913,0.1009 -0.08415,0.5536 -0.09375,0.6562 -0.0096,0.1026 -0.0313,0.5532 -0.03125,0.6562 a 1.9055974,1.9055974 0 0 0 0,0.063 c 0.0037,0.1024 0.04926,0.5547 0.0625,0.6562 0.01324,0.1015 0.102408,0.5567 0.125,0.6562 0.02259,0.1 0.124566,0.5596 0.15625,0.6563 0.03168,0.097 0.209586,0.5009 0.25,0.5937 0.04041,0.093 0.23256,0.5057 0.28125,0.5938 0.04869,0.088 0.28732,0.4799 0.34375,0.5625 0.05643,0.083 0.342686,0.455 0.40625,0.5313 0.06356,0.076 0.367465,0.4306 0.4375,0.5 0.07003,0.069 0.424201,0.3756 0.5,0.4374 0.0758,0.062 0.450426,0.3525 0.53125,0.4063 0.08082,0.054 0.477412,0.2671 0.5625,0.3125 0.08509,0.045 0.50517,0.2445 0.59375,0.2812 0.08858,0.037 0.533705,0.2223 0.625,0.25 0.0913,0.028 0.563018,0.1377 0.65625,0.1563 0.09323,0.019 0.530607,0.084 0.625,0.094 0.09439,0.01 0.561471,0.031 0.65625,0.031 0.09478,0 0.593107,-0.022 0.6875,-0.031 0.09439,-0.01 0.531768,-0.075 0.625,-0.094 0.09323,-0.019 0.564955,-0.1285 0.65625,-0.1563 0.0913,-0.028 0.53642,-0.2132 0.625,-0.25 0.08858,-0.037 0.508662,-0.2358 0.59375,-0.2812 0.08509,-0.045 0.481676,-0.2587 0.5625,-0.3125 0.08082,-0.054 0.455451,-0.3444 0.53125,-0.4063 0.0758,-0.062 0.429965,-0.3681 0.5,-0.4374 0.07003,-0.069 0.373936,-0.4238 0.4375,-0.5 0.06356,-0.076 0.34982,-0.4487 0.40625,-0.5313 0.05643,-0.083 0.29506,-0.4744 0.34375,-0.5625 0.04869,-0.088 0.240836,-0.5009 0.28125,-0.5938 0.04041,-0.093 0.218316,-0.497 0.25,-0.5937 0.03168,-0.097 0.133658,-0.5567 0.15625,-0.6563 0.02259,-0.099 0.111762,-0.5547 0.125,-0.6562 0.01324,-0.1015 0.05877,-0.5538 0.0625,-0.6562 a 1.9055974,1.9055974 0 0 0 0,-0.063 c 4.2e-5,-0.1068 -0.02092,-0.5811 -0.03125,-0.6874 -0.01033,-0.1064 -0.07318,-0.583 -0.09375,-0.6876 -0.02057,-0.1045 -0.15695,-0.5545 -0.1875,-0.6562 -0.03055,-0.1017 -0.1786,-0.5585 -0.21875,-0.6562 -0.04015,-0.098 -0.231993,-0.5322 -0.28125,-0.625 -0.04926,-0.093 -0.317228,-0.5069 -0.375,-0.5938 -0.05777,-0.087 -0.34064,-0.4823 -0.40625,-0.5625 -0.06561,-0.08 -0.396048,-0.4273 -0.46875,-0.5 -0.0727,-0.073 -0.421005,-0.4042 -0.5,-0.4687 -0.07899,-0.065 -0.478051,-0.3504 -0.5625,-0.4063 -0.08445,-0.056 -0.50471,-0.297 -0.59375,-0.3437 -0.08904,-0.047 -0.532245,-0.2754 -0.625,-0.3126 -0.09275,-0.037 -0.529412,-0.1913 -0.625,-0.2187 -0.09559,-0.027 -0.589961,-0.1388 -0.6875,-0.1563 -0.09754,-0.017 -0.588889,-0.055 -0.6875,-0.062 -0.09861,-0.01 -0.588695,-0.034 -0.6875,-0.031 z"
         id="path3987"
         style="fill:#004d80;fill-opacity:0.42465754;stroke:none"
         inkscape:original="M 37.625 1030.9688 A 4.9253229 5.0623029 0 0 0 32.84375 1036.0312 A 4.9253229 5.0623029 0 0 0 42.6875 1036.0312 A 4.9253229 5.0623029 0 0 0 37.625 1030.9688 z "
         inkscape:radius="1.9054068"
         sodipodi:type="inkscape:offset"
         transform="translate(11.029704,0.07920809)" />
      <path
         sodipodi:type="inkscape:offset"
         inkscape:radius="1.2976327"
         inkscape:original="M 37.625 1030.9688 A 4.9253229 5.0623029 0 0 0 32.84375 1036.0312 A 4.9253229 5.0623029 0 0 0 42.6875 1036.0312 A 4.9253229 5.0623029 0 0 0 37.625 1030.9688 z "
         style="fill:#004d80;fill-opacity:0.42465754;stroke:none"
         id="path3989"
         d="m 37.59375,1029.6562 c -0.115333,0 -0.479224,0.048 -0.59375,0.063 -0.114526,0.015 -0.481032,0.067 -0.59375,0.094 -0.112718,0.026 -0.483834,0.1503 -0.59375,0.1875 -0.109916,0.037 -0.45637,0.1707 -0.5625,0.2188 -0.10613,0.048 -0.429873,0.2228 -0.53125,0.2812 -0.101377,0.058 -0.404317,0.2441 -0.5,0.3125 -0.09568,0.068 -0.410918,0.2973 -0.5,0.375 -0.08908,0.078 -0.355881,0.3511 -0.4375,0.4375 -0.08162,0.086 -0.301651,0.3432 -0.375,0.4375 -0.07335,0.094 -0.279409,0.3986 -0.34375,0.5 -0.06434,0.1014 -0.257826,0.4237 -0.3125,0.5313 -0.05467,0.1075 -0.205561,0.4497 -0.25,0.5624 -0.04444,0.1128 -0.153763,0.4458 -0.1875,0.5626 -0.03374,0.1167 -0.133574,0.474 -0.15625,0.5937 -0.02268,0.1197 -0.08238,0.5035 -0.09375,0.625 -0.01137,0.1215 -0.0313,0.4717 -0.03125,0.5937 a 1.2977625,1.2977625 0 0 0 0.03125,0.063 c 0.0044,0.1212 0.01557,0.4734 0.03125,0.5937 0.01568,0.1203 0.09822,0.4757 0.125,0.5937 0.02678,0.1181 0.11865,0.4791 0.15625,0.5938 0.0376,0.1147 0.170727,0.4522 0.21875,0.5625 0.04802,0.1103 0.192052,0.4264 0.25,0.5313 0.05795,0.1048 0.245219,0.4015 0.3125,0.5 0.06728,0.098 0.299063,0.4088 0.375,0.5 0.07594,0.091 0.322408,0.3544 0.40625,0.4374 0.08384,0.083 0.346567,0.3321 0.4375,0.4063 0.09093,0.074 0.40284,0.279 0.5,0.3437 0.09716,0.065 0.397517,0.2578 0.5,0.3126 0.102483,0.055 0.45563,0.2369 0.5625,0.2812 0.10687,0.044 0.452198,0.154 0.5625,0.1875 0.110302,0.034 0.449738,0.1338 0.5625,0.1563 0.112762,0.022 0.479509,0.082 0.59375,0.094 0.114241,0.011 0.479015,0 0.59375,0 0.114735,0 0.510759,0.011 0.625,0 0.114241,-0.011 0.480988,-0.071 0.59375,-0.094 0.112762,-0.023 0.452198,-0.1228 0.5625,-0.1563 0.110302,-0.034 0.45563,-0.1432 0.5625,-0.1875 0.10687,-0.044 0.460017,-0.2265 0.5625,-0.2812 0.102483,-0.055 0.40284,-0.2478 0.5,-0.3126 0.09716,-0.065 0.409067,-0.2695 0.5,-0.3437 0.09093,-0.074 0.353658,-0.3232 0.4375,-0.4063 0.08384,-0.083 0.330313,-0.3463 0.40625,-0.4374 0.07594,-0.091 0.307719,-0.4016 0.375,-0.5 0.06728,-0.099 0.254552,-0.3952 0.3125,-0.5 0.05795,-0.1049 0.201977,-0.421 0.25,-0.5313 0.04802,-0.1103 0.18115,-0.4478 0.21875,-0.5625 0.0376,-0.1147 0.129467,-0.4757 0.15625,-0.5938 0.02678,-0.118 0.109316,-0.4734 0.125,-0.5937 0.01568,-0.1203 0.02683,-0.4725 0.03125,-0.5937 A 1.2977625,1.2977625 0 0 0 44,1036.0312 c 5e-5,-0.1265 -0.01902,-0.499 -0.03125,-0.625 -0.01223,-0.1259 -0.06937,-0.501 -0.09375,-0.625 -0.02438,-0.1239 -0.120007,-0.5043 -0.15625,-0.625 -0.03624,-0.1206 -0.171057,-0.4775 -0.21875,-0.5937 -0.04769,-0.1162 -0.222645,-0.4521 -0.28125,-0.5625 -0.05861,-0.1104 -0.243637,-0.4276 -0.3125,-0.5312 -0.06886,-0.1037 -0.296634,-0.4355 -0.375,-0.5313 -0.07837,-0.096 -0.319225,-0.3817 -0.40625,-0.4687 -0.08702,-0.087 -0.373986,-0.3289 -0.46875,-0.4063 -0.09476,-0.077 -0.398476,-0.3079 -0.5,-0.375 -0.101524,-0.067 -0.455243,-0.2562 -0.5625,-0.3125 -0.107257,-0.056 -0.450572,-0.2364 -0.5625,-0.2812 -0.111928,-0.045 -0.478238,-0.1544 -0.59375,-0.1876 -0.115512,-0.033 -0.475758,-0.1351 -0.59375,-0.1562 -0.117992,-0.021 -0.505642,-0.054 -0.625,-0.062 -0.119358,-0.01 -0.505394,-0.035 -0.625,-0.031 z"
         transform="translate(11.029704,0.07920809)" />
      <path
         d="m 37.59375,1030.375 c -0.06936,0 -0.180809,0.026 -0.25,0.031 -0.06919,0.01 -0.21239,0.022 -0.28125,0.031 -0.06886,0.01 -0.181628,0.019 -0.25,0.031 -0.06837,0.012 -0.18227,0.047 -0.25,0.062 -0.06773,0.016 -0.214318,0.043 -0.28125,0.063 -0.06693,0.019 -0.184018,0.04 -0.25,0.062 -0.06598,0.022 -0.185119,0.068 -0.25,0.094 -0.06488,0.026 -0.186369,0.096 -0.25,0.125 -0.06363,0.029 -0.156516,0.062 -0.21875,0.094 -0.06223,0.032 -0.189306,0.09 -0.25,0.125 -0.06069,0.035 -0.159738,0.1182 -0.21875,0.1562 -0.05901,0.038 -0.161557,0.1154 -0.21875,0.1562 -0.05719,0.041 -0.16351,0.1126 -0.21875,0.1563 -0.05524,0.044 -0.165593,0.1099 -0.21875,0.1563 -0.05316,0.046 -0.136552,0.1385 -0.1875,0.1874 -0.05095,0.049 -0.138881,0.1361 -0.1875,0.1876 -0.04862,0.051 -0.141325,0.1648 -0.1875,0.2187 -0.04617,0.054 -0.112631,0.1314 -0.15625,0.1875 -0.04362,0.056 -0.14654,0.1605 -0.1875,0.2188 -0.04096,0.058 -0.0868,0.1585 -0.125,0.2187 -0.0382,0.06 -0.120898,0.1879 -0.15625,0.25 -0.03535,0.062 -0.09258,0.155 -0.125,0.2187 -0.03242,0.064 -0.0956,0.1847 -0.125,0.25 -0.0294,0.065 -0.06744,0.1833 -0.09375,0.25 -0.02631,0.067 -0.07059,0.1821 -0.09375,0.25 -0.02316,0.068 -0.07379,0.2122 -0.09375,0.2813 -0.01996,0.069 -0.0458,0.18 -0.0625,0.25 -0.0167,0.07 -0.0491,0.1792 -0.0625,0.25 -0.0134,0.071 -0.02118,0.2099 -0.03125,0.2813 -0.01007,0.071 -0.02453,0.2094 -0.03125,0.2812 -0.0067,0.072 -0.0279,0.178 -0.03125,0.25 -0.0033,0.072 -3.1e-5,0.2091 0,0.2812 a 0.58873294,0.58873294 0 0 0 0,0.031 c 0.0026,0.072 0.0253,0.1786 0.03125,0.25 0.0059,0.071 0.02198,0.2102 0.03125,0.2813 0.0093,0.071 0.01868,0.1794 0.03125,0.25 0.01257,0.07 0.04666,0.2114 0.0625,0.2812 0.01584,0.07 0.04343,0.1811 0.0625,0.25 0.01907,0.069 0.04025,0.2134 0.0625,0.2812 0.02225,0.068 0.06837,0.1834 0.09375,0.25 0.02538,0.067 0.0653,0.1847 0.09375,0.25 0.02845,0.065 0.09355,0.155 0.125,0.2188 0.03145,0.064 0.09063,0.1878 0.125,0.25 0.03437,0.062 0.08778,0.1583 0.125,0.2188 0.03722,0.06 0.11628,0.1915 0.15625,0.25 0.03997,0.058 0.113622,0.1623 0.15625,0.2187 0.04263,0.056 0.111065,0.1333 0.15625,0.1875 0.04518,0.054 0.139865,0.1668 0.1875,0.2188 0.04763,0.052 0.137527,0.138 0.1875,0.1874 0.04997,0.05 0.135306,0.1406 0.1875,0.1876 0.05219,0.047 0.164457,0.1119 0.21875,0.1562 0.05429,0.044 0.131234,0.146 0.1875,0.1875 0.05627,0.042 0.160642,0.1175 0.21875,0.1563 0.05811,0.039 0.190184,0.089 0.25,0.125 0.05982,0.036 0.157364,0.092 0.21875,0.125 0.06139,0.033 0.187184,0.095 0.25,0.125 0.06282,0.03 0.154647,0.098 0.21875,0.125 0.0641,0.026 0.184756,0.07 0.25,0.094 0.06524,0.023 0.183763,0.042 0.25,0.062 0.06624,0.02 0.21417,0.077 0.28125,0.094 0.06708,0.017 0.182228,0.018 0.25,0.031 0.06777,0.014 0.181689,0.052 0.25,0.062 0.06831,0.01 0.212553,0.024 0.28125,0.031 0.0687,0.01 0.181071,0.028 0.25,0.031 0.06893,0 0.180994,0 0.25,0 0.06901,0 0.212321,0 0.28125,0 0.06893,-0 0.181303,-0.024 0.25,-0.031 0.0687,-0.01 0.212939,-0.021 0.28125,-0.031 0.06831,-0.01 0.182228,-0.049 0.25,-0.062 0.06777,-0.014 0.18292,-0.014 0.25,-0.031 0.06708,-0.017 0.215013,-0.074 0.28125,-0.094 0.06624,-0.02 0.184756,-0.039 0.25,-0.062 0.06524,-0.023 0.185897,-0.067 0.25,-0.094 0.0641,-0.027 0.155934,-0.095 0.21875,-0.125 0.06282,-0.03 0.188614,-0.092 0.25,-0.125 0.06139,-0.033 0.158934,-0.089 0.21875,-0.125 0.05982,-0.036 0.191892,-0.086 0.25,-0.125 0.05811,-0.039 0.162484,-0.1148 0.21875,-0.1563 0.05627,-0.042 0.133207,-0.1432 0.1875,-0.1875 0.05429,-0.044 0.166556,-0.1093 0.21875,-0.1562 0.05219,-0.047 0.137527,-0.1381 0.1875,-0.1876 0.04997,-0.049 0.139865,-0.1355 0.1875,-0.1874 0.04763,-0.052 0.142315,-0.1646 0.1875,-0.2188 0.04518,-0.054 0.113622,-0.1311 0.15625,-0.1875 0.04263,-0.056 0.11628,-0.1603 0.15625,-0.2187 0.03997,-0.059 0.119034,-0.1896 0.15625,-0.25 0.03722,-0.061 0.09063,-0.1566 0.125,-0.2188 0.03437,-0.062 0.09355,-0.1862 0.125,-0.25 0.03145,-0.064 0.09655,-0.1534 0.125,-0.2188 0.02845,-0.065 0.06837,-0.1833 0.09375,-0.25 0.02538,-0.067 0.0715,-0.1821 0.09375,-0.25 0.02225,-0.068 0.04343,-0.2123 0.0625,-0.2812 0.01907,-0.069 0.04666,-0.1802 0.0625,-0.25 0.01584,-0.07 0.04993,-0.2107 0.0625,-0.2812 0.01257,-0.071 0.02198,-0.179 0.03125,-0.25 0.0093,-0.071 0.0253,-0.2099 0.03125,-0.2813 0.0059,-0.071 0.02864,-0.1783 0.03125,-0.25 a 0.58873294,0.58873294 0 0 0 0,-0.031 c 3e-5,-0.075 0.0036,-0.2065 0,-0.2812 -0.0036,-0.075 -0.02402,-0.2068 -0.03125,-0.2812 -0.0072,-0.075 -0.02041,-0.2074 -0.03125,-0.2813 -0.01084,-0.074 -0.04809,-0.208 -0.0625,-0.2813 -0.01441,-0.073 -0.04455,-0.2088 -0.0625,-0.2812 -0.01795,-0.072 -0.04106,-0.1786 -0.0625,-0.25 -0.02144,-0.071 -0.06887,-0.2111 -0.09375,-0.2812 -0.02488,-0.07 -0.0655,-0.1813 -0.09375,-0.25 -0.02825,-0.069 -0.09346,-0.1828 -0.125,-0.25 -0.03154,-0.067 -0.09025,-0.1846 -0.125,-0.25 -0.03475,-0.066 -0.08712,-0.1864 -0.125,-0.25 -0.03788,-0.064 -0.115349,-0.1885 -0.15625,-0.25 -0.0409,-0.062 -0.112432,-0.1595 -0.15625,-0.2188 -0.04382,-0.059 -0.109627,-0.1618 -0.15625,-0.2188 -0.04662,-0.057 -0.138192,-0.1642 -0.1875,-0.2187 -0.04931,-0.054 -0.135634,-0.1356 -0.1875,-0.1875 -0.05187,-0.052 -0.164458,-0.1696 -0.21875,-0.2188 -0.05429,-0.049 -0.16217,-0.11 -0.21875,-0.1562 -0.05658,-0.046 -0.160026,-0.1442 -0.21875,-0.1875 -0.05872,-0.043 -0.158029,-0.1161 -0.21875,-0.1563 -0.06072,-0.04 -0.156185,-0.1192 -0.21875,-0.1562 -0.06256,-0.037 -0.185747,-0.091 -0.25,-0.125 -0.06425,-0.034 -0.184218,-0.095 -0.25,-0.125 -0.06578,-0.03 -0.182854,-0.067 -0.25,-0.094 -0.06715,-0.027 -0.212905,-0.1015 -0.28125,-0.125 -0.06835,-0.023 -0.180624,-0.043 -0.25,-0.062 -0.06938,-0.02 -0.211014,-0.046 -0.28125,-0.063 -0.07024,-0.016 -0.179075,-0.05 -0.25,-0.062 -0.07093,-0.013 -0.209811,-0.054 -0.28125,-0.063 -0.07144,-0.01 -0.20947,0.01 -0.28125,0 -0.07178,-0.01 -0.209305,-0.03 -0.28125,-0.031 -0.07194,-0 -0.209315,-0 -0.28125,0 z"
         id="path3991"
         style="fill:#000000;fill-opacity:0.50228307;stroke:none"
         inkscape:original="M 37.625 1030.9688 A 4.9253229 5.0623029 0 0 0 32.84375 1036.0312 A 4.9253229 5.0623029 0 0 0 42.6875 1036.0312 A 4.9253229 5.0623029 0 0 0 37.625 1030.9688 z "
         inkscape:radius="0.58867407"
         sodipodi:type="inkscape:offset"
         transform="translate(11.029704,0.07920809)" />
    </g>
    <path
       sodipodi:type="inkscape:offset"
       inkscape:radius="0.58867407"
       inkscape:original="M 37.625 1030.9688 A 4.9253229 5.0623029 0 0 0 32.84375 1036.0312 A 4.9253229 5.0623029 0 0 0 42.6875 1036.0312 A 4.9253229 5.0623029 0 0 0 37.625 1030.9688 z "
       style="fill:#000000;fill-opacity:0.50228307;stroke:none"
       id="path3968"
       d="m 37.59375,1030.375 c -0.06936,0 -0.180809,0.026 -0.25,0.031 -0.06919,0.01 -0.21239,0.022 -0.28125,0.031 -0.06886,0.01 -0.181628,0.019 -0.25,0.031 -0.06837,0.012 -0.18227,0.047 -0.25,0.062 -0.06773,0.016 -0.214318,0.043 -0.28125,0.063 -0.06693,0.019 -0.184018,0.04 -0.25,0.062 -0.06598,0.022 -0.185119,0.068 -0.25,0.094 -0.06488,0.026 -0.186369,0.096 -0.25,0.125 -0.06363,0.029 -0.156516,0.062 -0.21875,0.094 -0.06223,0.032 -0.189306,0.09 -0.25,0.125 -0.06069,0.035 -0.159738,0.1182 -0.21875,0.1562 -0.05901,0.038 -0.161557,0.1154 -0.21875,0.1562 -0.05719,0.041 -0.16351,0.1126 -0.21875,0.1563 -0.05524,0.044 -0.165593,0.1099 -0.21875,0.1563 -0.05316,0.046 -0.136552,0.1385 -0.1875,0.1874 -0.05095,0.049 -0.138881,0.1361 -0.1875,0.1876 -0.04862,0.051 -0.141325,0.1648 -0.1875,0.2187 -0.04617,0.054 -0.112631,0.1314 -0.15625,0.1875 -0.04362,0.056 -0.14654,0.1605 -0.1875,0.2188 -0.04096,0.058 -0.0868,0.1585 -0.125,0.2187 -0.0382,0.06 -0.120898,0.1879 -0.15625,0.25 -0.03535,0.062 -0.09258,0.155 -0.125,0.2187 -0.03242,0.064 -0.0956,0.1847 -0.125,0.25 -0.0294,0.065 -0.06744,0.1833 -0.09375,0.25 -0.02631,0.067 -0.07059,0.1821 -0.09375,0.25 -0.02316,0.068 -0.07379,0.2122 -0.09375,0.2813 -0.01996,0.069 -0.0458,0.18 -0.0625,0.25 -0.0167,0.07 -0.0491,0.1792 -0.0625,0.25 -0.0134,0.071 -0.02118,0.2099 -0.03125,0.2813 -0.01007,0.071 -0.02453,0.2094 -0.03125,0.2812 -0.0067,0.072 -0.0279,0.178 -0.03125,0.25 -0.0033,0.072 -3.1e-5,0.2091 0,0.2812 a 0.58873294,0.58873294 0 0 0 0,0.031 c 0.0026,0.072 0.0253,0.1786 0.03125,0.25 0.0059,0.071 0.02198,0.2102 0.03125,0.2813 0.0093,0.071 0.01868,0.1794 0.03125,0.25 0.01257,0.07 0.04666,0.2114 0.0625,0.2812 0.01584,0.07 0.04343,0.1811 0.0625,0.25 0.01907,0.069 0.04025,0.2134 0.0625,0.2812 0.02225,0.068 0.06837,0.1834 0.09375,0.25 0.02538,0.067 0.0653,0.1847 0.09375,0.25 0.02845,0.065 0.09355,0.155 0.125,0.2188 0.03145,0.064 0.09063,0.1878 0.125,0.25 0.03437,0.062 0.08778,0.1583 0.125,0.2188 0.03722,0.06 0.11628,0.1915 0.15625,0.25 0.03997,0.058 0.113622,0.1623 0.15625,0.2187 0.04263,0.056 0.111065,0.1333 0.15625,0.1875 0.04518,0.054 0.139865,0.1668 0.1875,0.2188 0.04763,0.052 0.137527,0.138 0.1875,0.1874 0.04997,0.05 0.135306,0.1406 0.1875,0.1876 0.05219,0.047 0.164457,0.1119 0.21875,0.1562 0.05429,0.044 0.131234,0.146 0.1875,0.1875 0.05627,0.042 0.160642,0.1175 0.21875,0.1563 0.05811,0.039 0.190184,0.089 0.25,0.125 0.05982,0.036 0.157364,0.092 0.21875,0.125 0.06139,0.033 0.187184,0.095 0.25,0.125 0.06282,0.03 0.154647,0.098 0.21875,0.125 0.0641,0.026 0.184756,0.07 0.25,0.094 0.06524,0.023 0.183763,0.042 0.25,0.062 0.06624,0.02 0.21417,0.077 0.28125,0.094 0.06708,0.017 0.182228,0.018 0.25,0.031 0.06777,0.014 0.181689,0.052 0.25,0.062 0.06831,0.01 0.212553,0.024 0.28125,0.031 0.0687,0.01 0.181071,0.028 0.25,0.031 0.06893,0 0.180994,0 0.25,0 0.06901,0 0.212321,0 0.28125,0 0.06893,-0 0.181303,-0.024 0.25,-0.031 0.0687,-0.01 0.212939,-0.021 0.28125,-0.031 0.06831,-0.01 0.182228,-0.049 0.25,-0.062 0.06777,-0.014 0.18292,-0.014 0.25,-0.031 0.06708,-0.017 0.215013,-0.074 0.28125,-0.094 0.06624,-0.02 0.184756,-0.039 0.25,-0.062 0.06524,-0.023 0.185897,-0.067 0.25,-0.094 0.0641,-0.027 0.155934,-0.095 0.21875,-0.125 0.06282,-0.03 0.188614,-0.092 0.25,-0.125 0.06139,-0.033 0.158934,-0.089 0.21875,-0.125 0.05982,-0.036 0.191892,-0.086 0.25,-0.125 0.05811,-0.039 0.162484,-0.1148 0.21875,-0.1563 0.05627,-0.042 0.133207,-0.1432 0.1875,-0.1875 0.05429,-0.044 0.166556,-0.1093 0.21875,-0.1562 0.05219,-0.047 0.137527,-0.1381 0.1875,-0.1876 0.04997,-0.049 0.139865,-0.1355 0.1875,-0.1874 0.04763,-0.052 0.142315,-0.1646 0.1875,-0.2188 0.04518,-0.054 0.113622,-0.1311 0.15625,-0.1875 0.04263,-0.056 0.11628,-0.1603 0.15625,-0.2187 0.03997,-0.059 0.119034,-0.1896 0.15625,-0.25 0.03722,-0.061 0.09063,-0.1566 0.125,-0.2188 0.03437,-0.062 0.09355,-0.1862 0.125,-0.25 0.03145,-0.064 0.09655,-0.1534 0.125,-0.2188 0.02845,-0.065 0.06837,-0.1833 0.09375,-0.25 0.02538,-0.067 0.0715,-0.1821 0.09375,-0.25 0.02225,-0.068 0.04343,-0.2123 0.0625,-0.2812 0.01907,-0.069 0.04666,-0.1802 0.0625,-0.25 0.01584,-0.07 0.04993,-0.2107 0.0625,-0.2812 0.01257,-0.071 0.02198,-0.179 0.03125,-0.25 0.0093,-0.071 0.0253,-0.2099 0.03125,-0.2813 0.0059,-0.071 0.02864,-0.1783 0.03125,-0.25 a 0.58873294,0.58873294 0 0 0 0,-0.031 c 3e-5,-0.075 0.0036,-0.2065 0,-0.2812 -0.0036,-0.075 -0.02402,-0.2068 -0.03125,-0.2812 -0.0072,-0.075 -0.02041,-0.2074 -0.03125,-0.2813 -0.01084,-0.074 -0.04809,-0.208 -0.0625,-0.2813 -0.01441,-0.073 -0.04455,-0.2088 -0.0625,-0.2812 -0.01795,-0.072 -0.04106,-0.1786 -0.0625,-0.25 -0.02144,-0.071 -0.06887,-0.2111 -0.09375,-0.2812 -0.02488,-0.07 -0.0655,-0.1813 -0.09375,-0.25 -0.02825,-0.069 -0.09346,-0.1828 -0.125,-0.25 -0.03154,-0.067 -0.09025,-0.1846 -0.125,-0.25 -0.03475,-0.066 -0.08712,-0.1864 -0.125,-0.25 -0.03788,-0.064 -0.115349,-0.1885 -0.15625,-0.25 -0.0409,-0.062 -0.112432,-0.1595 -0.15625,-0.2188 -0.04382,-0.059 -0.109627,-0.1618 -0.15625,-0.2188 -0.04662,-0.057 -0.138192,-0.1642 -0.1875,-0.2187 -0.04931,-0.054 -0.135634,-0.1356 -0.1875,-0.1875 -0.05187,-0.052 -0.164458,-0.1696 -0.21875,-0.2188 -0.05429,-0.049 -0.16217,-0.11 -0.21875,-0.1562 -0.05658,-0.046 -0.160026,-0.1442 -0.21875,-0.1875 -0.05872,-0.043 -0.158029,-0.1161 -0.21875,-0.1563 -0.06072,-0.04 -0.156185,-0.1192 -0.21875,-0.1562 -0.06256,-0.037 -0.185747,-0.091 -0.25,-0.125 -0.06425,-0.034 -0.184218,-0.095 -0.25,-0.125 -0.06578,-0.03 -0.182854,-0.067 -0.25,-0.094 -0.06715,-0.027 -0.212905,-0.1015 -0.28125,-0.125 -0.06835,-0.023 -0.180624,-0.043 -0.25,-0.062 -0.06938,-0.02 -0.211014,-0.046 -0.28125,-0.063 -0.07024,-0.016 -0.179075,-0.05 -0.25,-0.062 -0.07093,-0.013 -0.209811,-0.054 -0.28125,-0.063 -0.07144,-0.01 -0.20947,0.01 -0.28125,0 -0.07178,-0.01 -0.209305,-0.03 -0.28125,-0.031 -0.07194,-0 -0.209315,-0 -0.28125,0 z"
       transform="translate(-6,-4.9999996)" />
    <path
       inkscape:connector-curvature="0"
       d="m 36.690582,1031.0411 a 4.9253229,5.0623029 0 1 0 -9.850645,0 4.9253229,5.0623029 0 0 0 9.850645,0 z"
       id="path4889"
       style="fill:#00ccff;fill-opacity:1;stroke:none" />
    <path
       inkscape:connector-curvature="0"
       d="m 35.170189,1031.0411 a 3.4049363,3.4996323 0 1 0 -6.809871,0 3.4049363,3.4996323 0 0 0 6.809871,0 z"
       id="path4893"
       style="fill:#000000;fill-opacity:1;stroke:none" />
    <path
       inkscape:connector-curvature="0"
       d="m 54.328682,1037.8368 a 5.1480054,5.1480054 0 1 0 -10.29601,0 5.1480054,5.1480054 0 0 0 10.29601,0 z"
       id="path4992"
       style="fill:#1a1a1a;fill-opacity:1;stroke:none;filter:url(#filter4988)"
       transform="matrix(0.95674392,0,0,0.98335229,1.8377619,10.4819)" />
    <path
       style="fill:#1a1a1a;fill-opacity:1;stroke:none;filter:url(#filter4988)"
       id="path4994"
       d="m 65.710072,1037.8368 a 5.1480054,5.1480054 0 1 0 -10.29601,0 5.1480054,5.1480054 0 0 0 10.29601,0 z"
       inkscape:connector-curvature="0"
       transform="matrix(0.95674392,0,0,0.98335229,7.8377619,10.4819)" />
    <path
       inkscape:connector-curvature="0"
       d="m 53.716314,1031.0411 a 4.925323,5.062303 0 1 0 -9.850646,0 4.925323,5.062303 0 0 0 9.850646,0 z"
       id="path4897"
       style="fill:#00fa97;fill-opacity:1;stroke:none" />
    <path
       inkscape:connector-curvature="0"
       d="m 52.195921,1031.0411 a 3.4049363,3.4996323 0 1 0 -6.809872,0 3.4049363,3.4996323 0 0 0 6.809872,0 z"
       id="path4901"
       style="fill:#000000;fill-opacity:1;stroke:none" />
    <path
       inkscape:connector-curvature="0"
       d="m 70.742045,1031.0411 a 4.925323,5.062303 0 1 0 -9.850646,0 4.925323,5.062303 0 0 0 9.850646,0 z"
       id="path4903"
       style="fill:#ff80b2;fill-opacity:1;stroke:none" />
    <path
       inkscape:connector-curvature="0"
       d="m 69.221652,1031.0411 a 3.4049363,3.4996323 0 1 0 -6.809872,0 3.4049363,3.4996323 0 0 0 6.809872,0 z"
       id="path4907"
       style="fill:#000000;fill-opacity:1;stroke:none" />
  </g>
</svg>
