<?xml version="1.0" encoding="UTF-8" standalone="no"?>
<!-- Created with Inkscape (http://www.inkscape.org/) -->

<svg
   xmlns:dc="http://purl.org/dc/elements/1.1/"
   xmlns:cc="http://creativecommons.org/ns#"
   xmlns:rdf="http://www.w3.org/1999/02/22-rdf-syntax-ns#"
   xmlns:svg="http://www.w3.org/2000/svg"
   xmlns="http://www.w3.org/2000/svg"
   xmlns:sodipodi="http://sodipodi.sourceforge.net/DTD/sodipodi-0.dtd"
   xmlns:inkscape="http://www.inkscape.org/namespaces/inkscape"
   width="96"
   height="96"
   id="svg2"
   version="1.1"
   inkscape:version="0.48.4 r9939"
   sodipodi:docname="gnome-panel.svg">
  <defs
     id="defs4" />
  <sodipodi:namedview
     id="base"
     pagecolor="#ffffff"
     bordercolor="#666666"
     borderopacity="1.0"
     inkscape:pageopacity="0.0"
     inkscape:pageshadow="2"
     inkscape:zoom="5.90625"
     inkscape:cx="47.830688"
     inkscape:cy="48"
     inkscape:document-units="px"
     inkscape:current-layer="layer1"
     showgrid="true"
     inkscape:snap-page="true"
     inkscape:snap-global="false"
     inkscape:snap-center="true"
     inkscape:snap-object-midpoints="false"
     showguides="true"
     inkscape:guide-bbox="true"
     inkscape:snap-bbox="true"
     inkscape:object-paths="true"
     inkscape:object-nodes="true"
     inkscape:window-width="1305"
     inkscape:window-height="744"
     inkscape:window-x="61"
     inkscape:window-y="24"
     inkscape:window-maximized="1"
     inkscape:snap-midpoints="false"
     inkscape:snap-grids="true"
     inkscape:snap-to-guides="false">
    <inkscape:grid
       type="xygrid"
       id="grid3002"
       empspacing="5"
       visible="true"
       enabled="true"
       snapvisiblegridlinesonly="true" />
  </sodipodi:namedview>
  <metadata
     id="metadata7">
    <rdf:RDF>
      <cc:Work
         rdf:about="">
        <dc:format>image/svg+xml</dc:format>
        <dc:type
           rdf:resource="http://purl.org/dc/dcmitype/StillImage" />
        <dc:title />
      </cc:Work>
    </rdf:RDF>
  </metadata>
  <g
     inkscape:label="Layer 1"
     inkscape:groupmode="layer"
     id="layer1"
     transform="translate(0,-956.36218)">
    <rect
       style="fill:#ffffff;fill-opacity:0;fill-rule:nonzero;stroke:none"
       id="rect3775"
       width="96"
       height="96"
       x="0"
       y="956.36218"
       ry="0" />
    <path
       style="fill:#000000;fill-opacity:0.09589041;fill-rule:nonzero;stroke:none"
       d="m 3.353015,956.30662 c -1.884176,0 -3.4111555,1.43156 -3.4111555,3.19799 l 0,83.65949 c 0,1.7665 1.5269795,3.1981 3.4111555,3.1981 l 89.23583,0 c 1.884174,0 3.411155,-1.4316 3.411155,-3.1981 l 0,-83.65949 c 0,-1.76643 -1.526981,-3.19799 -3.411155,-3.19799 z"
       id="rect3772"
       inkscape:connector-curvature="0"
       sodipodi:nodetypes="sssssssss" />
    <path
       style="fill:#000000;fill-opacity:0.18721463;fill-rule:nonzero;stroke:none"
       d="m 1.0459761,1041.8066 0,7.4219 c 0,1.7392 1.461916,3.1337 3.2852054,3.1337 l 86.3836135,0 c 1.823288,0 3.285205,-1.3945 3.285205,-3.1337 l 0,-7.4219 -92.9540239,0 z"
       id="rect3785"
       inkscape:connector-curvature="0" />
    <path
       style="fill:#000000;fill-opacity:0.38356168;fill-rule:nonzero;stroke:none"
       d="m 1.0459761,1041.8066 0,5.3807 c 0,1.762 1.461916,3.1749 3.2852054,3.1749 l 86.3836135,0 c 1.823288,0 3.285205,-1.4129 3.285205,-3.1749 l 0,-5.3807 -92.9540239,0 z"
       id="rect3783"
       inkscape:connector-curvature="0" />
    <rect
       style="fill:#330066;fill-opacity:1;fill-rule:nonzero;stroke:none"
       id="rect2985-6"
       width="93"
       height="88.999977"
       x="1"
       y="957.36218"
       ry="3.1511388" />
    <path
       style="opacity:0.8;fill:#ffffff;fill-opacity:0.47222224;stroke:none;display:inline"
       d="M 76.59375 17.375 C 74.379644 17.519323 71.827714 18.453765 69.78125 20.09375 C 67.273805 22.10315 65.204209 27.24851 65.75 30.09375 C 66.03141 31.56075 67.196564 33.31756 68.28125 33.875 C 70.301178 34.91298 74.011414 33.23505 77.40625 29.71875 C 81.073522 25.92025 82.721825 21.71357 81.46875 19.34375 C 80.698654 17.887355 78.807856 17.230677 76.59375 17.375 z M 58.5 19.625 C 55.419779 19.62771 53.80066 21.77792 53.8125 25.8125 C 53.820588 28.57533 54.734081 31.01278 56.03125 31.625 C 56.995696 32.08028 57.00821 32.06896 58.21875 31.65625 C 60.223902 30.97266 62.20291 26.43094 61.8125 23.375 C 61.492979 20.87398 60.379054 19.624 58.5 19.625 z M 76.78125 20.03125 C 78.396075 19.92599 79.021612 20.42607 79.09375 20.5625 C 79.185638 20.73628 79.327508 21.59923 78.78125 23 C 78.234992 24.40077 77.096176 26.18934 75.46875 27.875 C 73.961911 29.43575 72.411184 30.52049 71.21875 31.0625 C 70.026316 31.60451 69.396403 31.44676 69.5 31.5 C 69.62755 31.56555 69.225099 31.27464 68.9375 30.84375 C 68.649901 30.41286 68.424226 29.85037 68.375 29.59375 C 68.276189 29.07864 68.459486 27.35581 69.09375 25.78125 C 69.728014 24.20669 70.804325 22.71995 71.46875 22.1875 C 73.055251 20.91611 75.181982 20.13549 76.78125 20.03125 z M 58.5 22.3125 C 58.860829 22.31231 58.705063 22.29362 58.75 22.34375 C 58.794937 22.39388 59.039094 22.77048 59.15625 23.6875 C 59.25833 24.48653 59.005553 26.07731 58.46875 27.3125 C 57.999047 28.393291 57.151803 29.077955 57.25 29.125 C 57.168392 29.018001 57.045639 28.845167 56.9375 28.5625 C 56.689367 27.9139 56.503187 26.90133 56.5 25.8125 C 56.495134 24.15449 56.840827 23.18819 57.125 22.8125 C 57.409173 22.43681 57.582023 22.31331 58.5 22.3125 z M 46.6875 23.71875 C 45.972196 23.684574 45.243611 23.990141 44.5625 24.65625 C 43.464177 25.73037 43.45534 26.29162 43.46875 28.34375 C 43.484571 30.76396 44.039899 32.14487 45.71875 33.875 C 46.974561 35.16916 47.894002 35.20744 49.03125 34.03125 C 50.263188 32.75713 50.727439 30.78893 50.3125 28.59375 C 49.732423 25.524936 48.261168 23.793938 46.6875 23.71875 z M 46.5 26.40625 C 46.5062 26.401813 46.569248 26.414125 46.625 26.40625 C 46.646759 26.403177 46.567164 26.469654 46.5625 26.46875 C 46.584149 26.494778 46.592133 26.485833 46.6875 26.59375 C 46.9736 26.9175 47.436903 27.73675 47.6875 29.0625 C 47.916889 30.27605 47.671003 31.07358 47.34375 31.65625 C 46.342918 30.57958 46.168011 30.11168 46.15625 28.3125 C 46.149581 27.29187 46.184585 26.82373 46.1875 26.8125 C 46.190415 26.80127 46.05231 26.9392 46.4375 26.5625 C 46.585607 26.417657 46.554233 26.467148 46.5625 26.46875 C 46.551676 26.455736 46.497934 26.407729 46.5 26.40625 z M 57.25 29.15625 C 57.344602 29.278268 57.379761 29.278241 57.1875 29.1875 C 57.189496 29.183685 57.23245 29.164684 57.25 29.15625 z M 38.15625 31.03125 C 37.413172 31.016754 36.671665 31.312572 35.96875 32 C 34.493043 33.44321 35.500963 37.48831 37.84375 39.5 C 40.639972 41.90105 42.924608 39.6449 41.96875 35.4375 C 41.345221 32.692911 39.791021 31.063141 38.15625 31.03125 z M 38.125 33.6875 C 38.155127 33.696701 38.227532 33.72716 38.375 33.875 C 38.669936 34.17068 39.12257 34.88888 39.375 36 C 39.573555 36.87398 39.46835 36.80813 39.40625 37.125 C 38.844345 36.52981 38.264046 35.67775 38.0625 34.875 C 37.89032 34.189215 38.05922 33.789035 38 33.78125 C 38.102447 33.709382 38.167777 33.6807 38.125 33.6875 z M 63.3125 36.28125 C 61.332313 36.247956 59.173095 36.448242 56.875 36.90625 C 50.954978 38.08609 46.224953 40.2937 43.1875 43.28125 C 41.438168 45.00183 40.442036 46.5504 39.59375 49 C 37.540445 54.9292 41.315517 63.4305 48.5625 69.1875 C 51.262482 71.3322 52.87541 72.225 55.625 73.125 C 57.050777 73.5923 58.202146 73.68075 60.84375 73.59375 C 63.872013 73.49425 64.483899 73.3781 66.4375 72.4375 C 69.300449 71.0591 72.548632 67.8841 73.9375 65.125 C 74.78478 63.4419 74.95839 62.75075 74.875 61.34375 C 74.732586 58.94155 73.789731 58.221 70.6875 58.25 C 66.258836 58.2901 64.37796 59.3787 63.46875 62.4375 C 62.782021 64.7476 61.99035 65.5625 60.4375 65.5625 C 57.976522 65.5625 55.5 63.5573 55.5 61.5625 C 55.5 60.1747 57.728821 58.17815 63.4375 54.40625 C 71.479397 49.09275 74.285994 45.84719 73.875 42.28125 C 73.450437 38.597468 69.25306 36.381131 63.3125 36.28125 z M 63.28125 38.96875 C 65.934228 39.01336 68.067419 39.52765 69.375 40.25 C 70.682581 40.97235 71.114397 41.65707 71.21875 42.5625 C 71.334361 43.56557 71.166012 44.33545 69.8125 45.90625 C 68.458988 47.47715 65.900096 49.55875 61.96875 52.15625 C 59.064042 54.07555 57.001167 55.5426 55.53125 56.875 C 54.061333 58.2074 52.8125 59.4363 52.8125 61.5625 C 52.8125 63.6671 53.99805 65.2597 55.375 66.375 C 56.75195 67.4903 58.480365 68.25 60.4375 68.25 C 61.699845 68.25 63.246303 67.7056 64.21875 66.6875 C 65.191197 65.6694 65.633295 64.49505 66.03125 63.15625 C 66.366281 62.02915 66.601011 61.81365 67.09375 61.53125 C 67.586489 61.24895 68.713874 60.9557 70.71875 60.9375 C 71.518633 60.930037 71.969377 61.021937 72.1875 61.0625 C 72.172103 60.909729 72.181376 60.935379 72.3125 61.03125 C 72.393632 61.09061 72.337637 61.09042 72.1875 61.0625 C 72.195471 61.141585 72.201198 61.172679 72.21875 61.46875 C 72.285965 62.60275 72.337531 62.3979 71.5625 63.9375 C 70.556258 65.9365 67.410014 69.00635 65.28125 70.03125 C 63.446789 70.91455 63.721755 70.80865 60.75 70.90625 C 58.21462 70.98975 57.618008 70.9391 56.46875 70.5625 C 53.922287 69.7289 52.795545 69.1093 50.21875 67.0625 C 43.618211 61.8191 40.661343 54.1015 42.125 49.875 C 42.87545 47.7079 43.523356 46.7013 45.0625 45.1875 C 47.579745 42.71161 51.845706 40.63945 57.40625 39.53125 C 59.535928 39.10681 61.514068 38.93904 63.28125 38.96875 z "
       transform="translate(0,956.36218)"
       id="path3456" />
    <path
       inkscape:connector-curvature="0"
       style="fill:#ffffff;fill-opacity:0.18518521;fill-rule:nonzero;stroke:none"
       d="m 21.239955,957.36218 -16.9531246,0 c -0.9120953,0 -1.7229136,0.35752 -2.3180804,0.92708 C 1.3735832,958.85883 1,959.63477 1,960.50764 l 0,82.70906 c 0,0.8729 0.3735832,1.6488 0.96875,2.2184 0.5951668,0.5696 1.4059851,0.9271 2.3180804,0.9271 l 16.9531246,0 0,-89.00002 z"
       id="path3869" />
    <path
       style="opacity:0.8;fill:#ffffff;fill-opacity:1;stroke:none"
       id="path4000"
       inkscape:connector-curvature="0"
       d="m 8.0364254,1000.8203 7.4147696,5.2094 0,-10.41889 -7.4147696,5.20949 z" />
    <path
       style="fill:#000000;fill-opacity:0.38356168;fill-rule:nonzero;stroke:none"
       d="m 1,1042.3622 0.045976,2.7457 c 0.03024,1.8058 1.461916,3.2543 3.2852054,3.2543 l 86.3836136,0 c 1.823288,0 3.285205,-1.4481 3.285205,-3.2543 l -0.04598,-2.7457 z"
       id="rect3781"
       inkscape:connector-curvature="0"
       sodipodi:nodetypes="csssscc" />
    <rect
       style="fill:#ffffff;fill-opacity:0.30000001;fill-rule:nonzero;stroke:none"
       id="rect3770"
       width="92.954033"
       height="2.000005"
       x="1.045976"
       y="1040.3622" />
  </g>
</svg>
