<?xml version="1.0" encoding="UTF-8" standalone="no"?>
<!-- Created with Inkscape (http://www.inkscape.org/) -->

<svg
   xmlns:dc="http://purl.org/dc/elements/1.1/"
   xmlns:cc="http://creativecommons.org/ns#"
   xmlns:rdf="http://www.w3.org/1999/02/22-rdf-syntax-ns#"
   xmlns:svg="http://www.w3.org/2000/svg"
   xmlns="http://www.w3.org/2000/svg"
   xmlns:xlink="http://www.w3.org/1999/xlink"
   xmlns:sodipodi="http://sodipodi.sourceforge.net/DTD/sodipodi-0.dtd"
   xmlns:inkscape="http://www.inkscape.org/namespaces/inkscape"
   width="96"
   height="96"
   id="svg2"
   version="1.1"
   inkscape:version="0.48.4 r9939"
   sodipodi:docname="gnome-font-viewer.svg">
  <defs
     id="defs4">
    <linearGradient
       id="linearGradient3785">
      <stop
         style="stop-color:#ba005d;stop-opacity:1;"
         offset="0"
         id="stop3787" />
      <stop
         style="stop-color:#ef0076;stop-opacity:1;"
         offset="1"
         id="stop3789" />
    </linearGradient>
    <linearGradient
       inkscape:collect="always"
       xlink:href="#linearGradient3785"
       id="linearGradient3791"
       x1="30"
       y1="1047.3622"
       x2="30"
       y2="957.36218"
       gradientUnits="userSpaceOnUse" />
  </defs>
  <sodipodi:namedview
     id="base"
     pagecolor="#ffffff"
     bordercolor="#666666"
     borderopacity="1.0"
     inkscape:pageopacity="0.0"
     inkscape:pageshadow="2"
     inkscape:zoom="4.1763494"
     inkscape:cx="48"
     inkscape:cy="48"
     inkscape:document-units="px"
     inkscape:current-layer="layer1"
     showgrid="true"
     inkscape:snap-page="true"
     inkscape:snap-global="true"
     inkscape:snap-center="true"
     inkscape:snap-object-midpoints="false"
     showguides="true"
     inkscape:guide-bbox="true"
     inkscape:snap-bbox="true"
     inkscape:object-paths="true"
     inkscape:object-nodes="true"
     inkscape:window-width="1305"
     inkscape:window-height="744"
     inkscape:window-x="61"
     inkscape:window-y="24"
     inkscape:window-maximized="1"
     inkscape:snap-midpoints="true"
     inkscape:snap-grids="true"
     inkscape:snap-to-guides="false">
    <inkscape:grid
       type="xygrid"
       id="grid3002"
       empspacing="5"
       visible="true"
       enabled="true"
       snapvisiblegridlinesonly="true" />
  </sodipodi:namedview>
  <metadata
     id="metadata7">
    <rdf:RDF>
      <cc:Work
         rdf:about="">
        <dc:format>image/svg+xml</dc:format>
        <dc:type
           rdf:resource="http://purl.org/dc/dcmitype/StillImage" />
        <dc:title />
      </cc:Work>
    </rdf:RDF>
  </metadata>
  <g
     inkscape:label="Layer 1"
     inkscape:groupmode="layer"
     id="layer1"
     transform="translate(0,-956.36218)">
    <rect
       style="fill:#ffffff;fill-opacity:0;fill-rule:nonzero;stroke:none"
       id="rect3775"
       width="96"
       height="96"
       x="0"
       y="956.36218"
       ry="0" />
    <path
       style="fill:#000000;fill-opacity:0.09589041;fill-rule:nonzero;stroke:none"
       d="m 3.353015,956.30662 c -1.884176,0 -3.4111555,1.43156 -3.4111555,3.19799 l 0,83.65949 c 0,1.7665 1.5269795,3.1981 3.4111555,3.1981 l 89.23583,0 c 1.884174,0 3.411155,-1.4316 3.411155,-3.1981 l 0,-83.65949 c 0,-1.76643 -1.526981,-3.19799 -3.411155,-3.19799 z"
       id="rect3772"
       inkscape:connector-curvature="0"
       sodipodi:nodetypes="sssssssss" />
    <path
       style="fill:#000000;fill-opacity:0.18721463;fill-rule:nonzero;stroke:none"
       d="m 1.0459761,1041.8066 0,7.4219 c 0,1.7392 1.461916,3.1337 3.2852054,3.1337 l 86.3836135,0 c 1.823288,0 3.285205,-1.3945 3.285205,-3.1337 l 0,-7.4219 -92.9540239,0 z"
       id="rect3785"
       inkscape:connector-curvature="0" />
    <path
       style="fill:#000000;fill-opacity:0.38356168;fill-rule:nonzero;stroke:none"
       d="m 1.0459761,1041.8066 0,5.3807 c 0,1.762 1.461916,3.1749 3.2852054,3.1749 l 86.3836135,0 c 1.823288,0 3.285205,-1.4129 3.285205,-3.1749 l 0,-5.3807 -92.9540239,0 z"
       id="rect3783"
       inkscape:connector-curvature="0" />
    <rect
       style="fill:url(#linearGradient3791);fill-opacity:1;fill-rule:nonzero;stroke:none"
       id="rect2985"
       width="92.954025"
       height="89"
       x="1.045977"
       y="957.36218"
       ry="3.1511393" />
    <path
       inkscape:connector-curvature="0"
       style="fill:#ffffff;fill-opacity:0.81278539;stroke:none"
       d="m 48.196604,968.9507 c -2.280673,-0.0376 -4.578663,0.14592 -6.908506,0.56288 -0.582461,0.10425 -1.157371,0.20013 -1.727126,0.3311 -17.662897,4.05758 -29.105349,20.76918 -25.734186,38.07662 3.479937,17.8659 21.39605,29.6249 40.034794,26.2894 5.918851,-1.0592 11.208308,-3.523 15.544138,-6.9531 l 19.931041,19.1046 1.381701,0 c 0.910627,0 1.72014,-0.3576 2.31435,-0.9271 C 93.627018,1044.8655 94,1044.0896 94,1043.2167 l 0,-2.0859 -19.585615,-18.7404 c 5.992734,-7.2092 8.812484,-16.7794 6.908506,-26.55429 C 78.277969,980.2036 64.161319,969.21401 48.196604,968.9507 z m -1.485328,6.5227 c 13.360368,-0.41707 25.417496,8.57906 27.944907,21.55468 2.788883,14.31812 -7.100665,28.08602 -22.038135,30.75932 -14.937469,2.6732 -29.301127,-6.7732 -32.09001,-21.0912 -2.788869,-14.31797 7.066122,-28.11914 22.003592,-30.79237 1.400387,-0.25062 2.797539,-0.38729 4.179646,-0.43043 z m -12.435312,10.13169 0,2.38393 2.003467,0 c 0.34059,3e-5 0.673039,0.0583 0.967191,0.13244 0.294143,0.0594 0.54319,0.17133 0.759936,0.3642 0.232216,0.19294 0.394282,0.48991 0.518138,0.86087 0.123845,0.35617 0.20725,0.81534 0.207255,1.42373 l 0,22.21694 c -5e-6,0.5935 -0.08341,1.0858 -0.207255,1.4568 -0.123856,0.3561 -0.285922,0.6349 -0.518138,0.8278 -0.216746,0.1781 -0.465793,0.3048 -0.759936,0.3642 -0.294152,0.059 -0.626601,0.066 -0.967191,0.066 l -2.003467,0 0,2.4501 17.374893,0 0,-2.4501 -2.936114,0 c -0.340609,0 -0.692119,-0.011 -1.001734,-0.066 -0.309644,-0.074 -0.54321,-0.2227 -0.759935,-0.4305 -0.216755,-0.2077 -0.413361,-0.5082 -0.552681,-0.8939 -0.123865,-0.3859 -0.172726,-0.9032 -0.172712,-1.5562 l 0,-9.2377 11.260864,0 0,-2.682 -11.260864,0 0,-12.44937 7.564813,0 c 0.975312,4e-5 1.745092,0.26046 2.348893,0.79465 0.619235,0.53424 1.019607,1.41372 1.174446,2.6157 l 0.241798,2.18526 3.316083,0 -0.241798,-8.37685 -26.355952,0 z"
       id="path3782" />
    <path
       style="fill:#000000;fill-opacity:0.38356168;fill-rule:nonzero;stroke:none"
       d="m 1,1042.3622 0.045976,2.7457 c 0.03024,1.8058 1.461916,3.2543 3.2852054,3.2543 l 86.3836136,0 c 1.823288,0 3.285205,-1.4481 3.285205,-3.2543 l -0.04598,-2.7457 z"
       id="rect3781"
       inkscape:connector-curvature="0"
       sodipodi:nodetypes="csssscc" />
    <rect
       style="fill:#ffffff;fill-opacity:0.15686275;fill-rule:nonzero;stroke:none"
       id="rect3770"
       width="92.954033"
       height="2.000005"
       x="1.045976"
       y="1040.3622" />
  </g>
</svg>
