<?xml version="1.0" encoding="UTF-8" standalone="no"?>
<!-- Created with Inkscape (http://www.inkscape.org/) -->

<svg
   xmlns:dc="http://purl.org/dc/elements/1.1/"
   xmlns:cc="http://creativecommons.org/ns#"
   xmlns:rdf="http://www.w3.org/1999/02/22-rdf-syntax-ns#"
   xmlns:svg="http://www.w3.org/2000/svg"
   xmlns="http://www.w3.org/2000/svg"
   xmlns:xlink="http://www.w3.org/1999/xlink"
   xmlns:sodipodi="http://sodipodi.sourceforge.net/DTD/sodipodi-0.dtd"
   xmlns:inkscape="http://www.inkscape.org/namespaces/inkscape"
   width="96"
   height="96"
   id="svg2"
   version="1.1"
   inkscape:version="0.48.4 r9939"
   sodipodi:docname="gnome-settings-keybinding.svg">
  <defs
     id="defs4">
    <linearGradient
       id="linearGradient3762">
      <stop
         style="stop-color:#3f8cff;stop-opacity:1;"
         offset="0"
         id="stop3764" />
      <stop
         style="stop-color:#017f4c;stop-opacity:1;"
         offset="1"
         id="stop3766" />
    </linearGradient>
    <linearGradient
       inkscape:collect="always"
       xlink:href="#linearGradient3762"
       id="linearGradient3768"
       x1="75"
       y1="1047.3622"
       x2="95"
       y2="957.36218"
       gradientUnits="userSpaceOnUse" />
  </defs>
  <sodipodi:namedview
     id="base"
     pagecolor="#ffffff"
     bordercolor="#666666"
     borderopacity="1.0"
     inkscape:pageopacity="0.0"
     inkscape:pageshadow="2"
     inkscape:zoom="5.90625"
     inkscape:cx="17.862434"
     inkscape:cy="48"
     inkscape:document-units="px"
     inkscape:current-layer="layer1"
     showgrid="true"
     inkscape:snap-page="true"
     inkscape:snap-global="true"
     inkscape:snap-center="true"
     inkscape:snap-object-midpoints="false"
     showguides="true"
     inkscape:guide-bbox="true"
     inkscape:snap-bbox="true"
     inkscape:object-paths="true"
     inkscape:object-nodes="true"
     inkscape:window-width="1305"
     inkscape:window-height="744"
     inkscape:window-x="61"
     inkscape:window-y="24"
     inkscape:window-maximized="1"
     inkscape:snap-midpoints="false"
     inkscape:snap-grids="true"
     inkscape:snap-to-guides="false">
    <inkscape:grid
       type="xygrid"
       id="grid3002"
       empspacing="5"
       visible="true"
       enabled="true"
       snapvisiblegridlinesonly="true" />
  </sodipodi:namedview>
  <metadata
     id="metadata7">
    <rdf:RDF>
      <cc:Work
         rdf:about="">
        <dc:format>image/svg+xml</dc:format>
        <dc:type
           rdf:resource="http://purl.org/dc/dcmitype/StillImage" />
        <dc:title />
      </cc:Work>
    </rdf:RDF>
  </metadata>
  <g
     inkscape:label="Layer 1"
     inkscape:groupmode="layer"
     id="layer1"
     transform="translate(0,-956.36218)">
    <rect
       style="fill:#ffffff;fill-opacity:0;fill-rule:nonzero;stroke:none"
       id="rect3775"
       width="96"
       height="96"
       x="0"
       y="956.36218"
       ry="0" />
    <path
       style="fill:#000000;fill-opacity:0.09589041;fill-rule:nonzero;stroke:none"
       d="m 3.353015,956.30662 c -1.884176,0 -3.4111555,1.43156 -3.4111555,3.19799 l 0,83.65949 c 0,1.7665 1.5269795,3.1981 3.4111555,3.1981 l 89.23583,0 c 1.884174,0 3.411155,-1.4316 3.411155,-3.1981 l 0,-83.65949 c 0,-1.76643 -1.526981,-3.19799 -3.411155,-3.19799 z"
       id="rect3772"
       inkscape:connector-curvature="0"
       sodipodi:nodetypes="sssssssss" />
    <path
       style="fill:#000000;fill-opacity:0.18721463;fill-rule:nonzero;stroke:none"
       d="m 1.0459761,1041.8066 0,7.4219 c 0,1.7392 1.461916,3.1337 3.2852054,3.1337 l 86.3836135,0 c 1.823288,0 3.285205,-1.3945 3.285205,-3.1337 l 0,-7.4219 -92.9540239,0 z"
       id="rect3785"
       inkscape:connector-curvature="0" />
    <path
       style="fill:#000000;fill-opacity:0.38356168;fill-rule:nonzero;stroke:none"
       d="m 1.0459761,1041.8066 0,5.3807 c 0,1.762 1.461916,3.1749 3.2852054,3.1749 l 86.3836135,0 c 1.823288,0 3.285205,-1.4129 3.285205,-3.1749 l 0,-5.3807 -92.9540239,0 z"
       id="rect3783"
       inkscape:connector-curvature="0" />
    <rect
       style="fill:url(#linearGradient3768);fill-opacity:1;fill-rule:nonzero;stroke:none"
       id="rect2985-2"
       width="93"
       height="88.999962"
       x="0.9999969"
       y="957.36224"
       ry="3.1511383" />
    <path
       style="fill:#000000;fill-opacity:0.38356168;fill-rule:nonzero;stroke:none"
       d="m 1,1042.3622 0.045976,2.7457 c 0.03024,1.8058 1.461916,3.2543 3.2852054,3.2543 l 86.3836136,0 c 1.823288,0 3.285205,-1.4481 3.285205,-3.2543 l -0.04598,-2.7457 z"
       id="rect3781"
       inkscape:connector-curvature="0"
       sodipodi:nodetypes="csssscc" />
    <rect
       style="fill:#ffffff;fill-opacity:0.30000001;fill-rule:nonzero;stroke:none"
       id="rect3770"
       width="92.954033"
       height="2.000005"
       x="1.045976"
       y="1040.3622" />
    <g
       style="font-size:22.64271354999999986px;font-style:normal;font-variant:normal;font-weight:normal;font-stretch:normal;text-align:end;line-height:125%;letter-spacing:0px;word-spacing:0px;text-anchor:end;fill:#ffffff;fill-opacity:0.62100458;stroke:none;font-family:Andale Mono;-inkscape-font-specification:Andale Mono"
       id="text3799"
       transform="matrix(1.2062524,0,0,1.2062524,2.5606637,-217.09306)">
      <path
         d="m 16.624581,1029.3596 4.188902,0 -2.037844,-5.9324 -0.04529,0 -2.105773,5.9324 m 0.339641,-9.9175 3.645477,0 6.045604,16.1669 -3.690762,0 -1.222706,-3.6002 -6.045605,0 -1.267992,3.6002 -3.600191,0 6.136175,-16.1669"
         style="font-weight:bold;fill:#ffffff;font-family:Helvetica Neue LT Com;-inkscape-font-specification:Helvetica Neue LT Com Bold;fill-opacity:0.62100458"
         id="path3814"
         inkscape:connector-curvature="0" />
      <path
         d="m 27.822464,1019.4421 3.215266,0 0,16.1669 -3.215266,0 0,-16.1669"
         style="font-weight:bold;fill:#ffffff;font-family:Helvetica Neue LT Com;-inkscape-font-specification:Helvetica Neue LT Com Bold;fill-opacity:0.62100458"
         id="path3816"
         inkscape:connector-curvature="0" />
      <path
         d="m 37.645157,1023.9027 2.354842,0 0,2.1511 -2.354842,0 0,5.7965 c -6e-6,0.5434 0.09057,0.9057 0.271712,1.0869 0.181136,0.1811 0.543419,0.2717 1.086851,0.2717 0.362276,0 0.694369,-0.03 0.996279,-0.091 l 0,2.5134 c -0.27172,0.045 -0.573622,0.075 -0.905709,0.091 -0.332099,0.015 -0.656644,0.023 -0.973636,0.023 -0.498145,0 -0.973642,-0.038 -1.426491,-0.1132 -0.437763,-0.06 -0.830237,-0.1887 -1.177421,-0.385 -0.332096,-0.2113 -0.596261,-0.4981 -0.792495,-0.8604 -0.196239,-0.3623 -0.294358,-0.8378 -0.294356,-1.4265 l 0,-6.906 -1.947273,0 0,-2.1511 1.947273,0 0,-3.5096 3.215266,0 0,3.5096"
         style="font-weight:bold;fill:#ffffff;font-family:Helvetica Neue LT Com;-inkscape-font-specification:Helvetica Neue LT Com Bold;fill-opacity:0.62100458"
         id="path3818"
         inkscape:connector-curvature="0" />
    </g>
    <g
       style="font-size:22.64271354999999986px;font-style:normal;font-variant:normal;font-weight:normal;font-stretch:normal;text-align:end;line-height:125%;letter-spacing:0px;word-spacing:0px;text-anchor:end;fill:#ffffff;fill-opacity:0.62100458;stroke:none;font-family:Andale Mono;-inkscape-font-specification:Andale Mono"
       id="text3803"
       transform="matrix(1.2062524,0,0,1.2062524,-17.930185,-206.33396)">
      <path
         d="m 71.272028,985.44562 -3.532263,0 -2.739769,-11.00436 -0.04528,0 -2.694483,11.00436 -3.600192,0 -4.279472,-16.1669 3.554906,0 2.558626,11.00436 0.04529,0 2.807696,-11.00436 3.328479,0 2.762411,11.14022 0.04529,0 2.649197,-11.14022 3.486978,0 -4.347401,16.1669"
         style="font-weight:bold;fill:#ffffff;font-family:Helvetica Neue LT Com;-inkscape-font-specification:Helvetica Neue LT Com Bold;fill-opacity:0.62100458"
         id="path3811"
         inkscape:connector-curvature="0" />
    </g>
    <rect
       style="fill:#ffffff;fill-opacity:0.24200913;fill-rule:nonzero;stroke:none"
       id="rect2995"
       width="93"
       height="10"
       x="1"
       y="992.36218" />
    <rect
       y="992.36218"
       x="1"
       height="4.9999976"
       width="93"
       id="rect3001"
       style="fill:#ffffff;fill-opacity:0.32420092;fill-rule:nonzero;stroke:none" />
  </g>
</svg>
