<?xml version="1.0" encoding="UTF-8" standalone="no"?>
<!-- Created with Inkscape (http://www.inkscape.org/) -->

<svg
   xmlns:dc="http://purl.org/dc/elements/1.1/"
   xmlns:cc="http://creativecommons.org/ns#"
   xmlns:rdf="http://www.w3.org/1999/02/22-rdf-syntax-ns#"
   xmlns:svg="http://www.w3.org/2000/svg"
   xmlns="http://www.w3.org/2000/svg"
   xmlns:sodipodi="http://sodipodi.sourceforge.net/DTD/sodipodi-0.dtd"
   xmlns:inkscape="http://www.inkscape.org/namespaces/inkscape"
   width="96"
   height="96"
   id="svg2"
   version="1.1"
   inkscape:version="0.48.4 r9939"
   sodipodi:docname="gnome-display-properties.svg">
  <defs
     id="defs4" />
  <sodipodi:namedview
     id="base"
     pagecolor="#ffffff"
     bordercolor="#666666"
     borderopacity="1.0"
     inkscape:pageopacity="0.0"
     inkscape:pageshadow="2"
     inkscape:zoom="4.1763494"
     inkscape:cx="6.3752092"
     inkscape:cy="48"
     inkscape:document-units="px"
     inkscape:current-layer="layer1"
     showgrid="true"
     inkscape:snap-page="true"
     inkscape:snap-global="true"
     inkscape:snap-center="true"
     inkscape:snap-object-midpoints="false"
     showguides="true"
     inkscape:guide-bbox="true"
     inkscape:snap-bbox="true"
     inkscape:object-paths="true"
     inkscape:object-nodes="true"
     inkscape:window-width="1305"
     inkscape:window-height="744"
     inkscape:window-x="61"
     inkscape:window-y="24"
     inkscape:window-maximized="1"
     inkscape:snap-midpoints="false"
     inkscape:snap-grids="true"
     inkscape:snap-to-guides="false">
    <inkscape:grid
       type="xygrid"
       id="grid3002"
       empspacing="5"
       visible="true"
       enabled="true"
       snapvisiblegridlinesonly="true" />
  </sodipodi:namedview>
  <metadata
     id="metadata7">
    <rdf:RDF>
      <cc:Work
         rdf:about="">
        <dc:format>image/svg+xml</dc:format>
        <dc:type
           rdf:resource="http://purl.org/dc/dcmitype/StillImage" />
        <dc:title />
      </cc:Work>
    </rdf:RDF>
  </metadata>
  <g
     inkscape:label="Layer 1"
     inkscape:groupmode="layer"
     id="layer1"
     transform="translate(0,-956.36218)">
    <rect
       style="fill:#ffffff;fill-opacity:0;fill-rule:nonzero;stroke:none"
       id="rect3775"
       width="96"
       height="96"
       x="0"
       y="956.36218"
       ry="0" />
    <path
       style="fill:#000000;fill-opacity:0.09589041;fill-rule:nonzero;stroke:none"
       d="m 3.353015,956.30662 c -1.884176,0 -3.4111555,1.43156 -3.4111555,3.19799 l 0,83.65949 c 0,1.7665 1.5269795,3.1981 3.4111555,3.1981 l 89.23583,0 c 1.884174,0 3.411155,-1.4316 3.411155,-3.1981 l 0,-83.65949 c 0,-1.76643 -1.526981,-3.19799 -3.411155,-3.19799 z"
       id="rect3772"
       inkscape:connector-curvature="0"
       sodipodi:nodetypes="sssssssss" />
    <path
       style="fill:#000000;fill-opacity:0.18721463;fill-rule:nonzero;stroke:none"
       d="m 1.0459761,1041.8066 0,7.4219 c 0,1.7392 1.461916,3.1337 3.2852054,3.1337 l 86.3836135,0 c 1.823288,0 3.285205,-1.3945 3.285205,-3.1337 l 0,-7.4219 -92.9540239,0 z"
       id="rect3785"
       inkscape:connector-curvature="0" />
    <path
       style="fill:#000000;fill-opacity:0.38356168;fill-rule:nonzero;stroke:none"
       d="m 1.0459761,1041.8066 0,5.3807 c 0,1.762 1.461916,3.1749 3.2852054,3.1749 l 86.3836135,0 c 1.823288,0 3.285205,-1.4129 3.285205,-3.1749 l 0,-5.3807 -92.9540239,0 z"
       id="rect3783"
       inkscape:connector-curvature="0" />
    <rect
       style="fill:#0084c9;fill-opacity:1;fill-rule:nonzero;stroke:none"
       id="rect2985"
       width="92.954025"
       height="89"
       x="1.045977"
       y="957.36218"
       ry="3.1511393" />
    <path
       style="fill:#000000;fill-opacity:0.38356168;fill-rule:nonzero;stroke:none"
       d="m 1,1042.3622 0.045976,2.7457 c 0.03024,1.8058 1.461916,3.2543 3.2852054,3.2543 l 86.3836136,0 c 1.823288,0 3.285205,-1.4481 3.285205,-3.2543 l -0.04598,-2.7457 z"
       id="rect3781"
       inkscape:connector-curvature="0"
       sodipodi:nodetypes="csssscc" />
    <rect
       style="fill:#ffffff;fill-opacity:0.30000001;fill-rule:nonzero;stroke:none"
       id="rect3770"
       width="92.954033"
       height="2.000005"
       x="1.045976"
       y="1040.3622" />
    <path
       inkscape:connector-curvature="0"
       d="m 49.760552,966.35367 c -1.219489,0 -2.203269,0.98378 -2.203269,2.20326 l 0,7.18206 c 0,1.21949 0.98378,2.20327 2.203269,2.20327 1.219486,0 2.203264,-0.98378 2.203264,-2.20327 l 0,-7.18206 c 0,-1.21948 -0.983778,-2.20326 -2.203264,-2.20326 z m -14.879199,5.35078 c -0.4213,0.0443 -0.82285,0.22109 -1.17316,0.51505 -0.93418,0.78386 -1.07001,2.1561 -0.28614,3.09029 l 4.63544,5.49385 c 0.78387,0.93418 2.15611,1.0414 3.090294,0.25753 0.934186,-0.78388 1.041396,-2.15612 0.25754,-3.09029 l -4.606844,-5.49386 c -0.48992,-0.58386 -1.21494,-0.84639 -1.91713,-0.77257 z m 29.329177,0 c -0.560537,0.049 -1.095981,0.30548 -1.487918,0.77257 l -4.606825,5.49386 c -0.78387,0.93417 -0.676656,2.30642 0.257524,3.09029 0.934182,0.78387 2.30642,0.67665 3.090293,-0.25752 l 4.635438,-5.49385 c 0.78387,-0.93418 0.648042,-2.30642 -0.286138,-3.09029 -0.46709,-0.39194 -1.041837,-0.56409 -1.602374,-0.51505 z m -14.449978,8.92751 c -5.930799,0 -10.730189,4.79939 -10.730189,10.73024 0,5.9308 4.79939,10.7302 10.730189,10.7302 5.930805,0 10.730182,-4.7994 10.730182,-10.7302 0,-5.93085 -4.799377,-10.73024 -10.730182,-10.73024 z m 0,2.20326 c 4.742175,0 8.526918,3.78475 8.526918,8.52698 0,4.7421 -3.784743,8.5269 -8.526918,8.5269 l 0,-17.05388 z m -22.519086,2.34633 c -1.02513,0.027 -1.90351,0.78045 -2.08881,1.83129 -0.21175,1.20096 0.5731,2.33487 1.77406,2.54663 l 7.067617,1.23042 c 1.20095,0.21171 2.33487,-0.57312 2.54663,-1.77407 0.21175,-1.20097 -0.5731,-2.33488 -1.77406,-2.54664 l -7.067607,-1.2304 c -0.15012,-0.0265 -0.31138,-0.0611 -0.45783,-0.0572 z m 45.038161,0 c -0.146451,-0.004 -0.3077,0.0308 -0.457822,0.0572 l -7.067612,1.23039 c -1.20096,0.21177 -1.985817,1.34567 -1.774057,2.54664 0.211763,1.20096 1.345669,1.98582 2.54663,1.77401 l 7.067613,-1.23035 c 1.200958,-0.21177 1.985818,-1.34567 1.774057,-2.54663 -0.185289,-1.05084 -1.06367,-1.8043 -2.088809,-1.83129 z M 36.283433,996.9419 c -0.106,0 -0.20833,0.015 -0.31475,0.029 -0.28377,0.036 -0.56578,0.1337 -0.8298,0.2861 l -6.209197,3.5767 c -1.05611,0.6098 -1.43954,1.9484 -0.8298,3.0045 0.60974,1.0561 1.94835,1.4394 3.004447,0.8298 l 6.23781,-3.6053 c 1.05611,-0.6098 1.41093,-1.9484 0.80119,-3.0045 -0.40014,-0.6931 -1.11788,-1.098 -1.8599,-1.1159 z m 26.839772,0.029 c -0.704329,0.049 -1.364353,0.4272 -1.745443,1.0873 -0.60974,1.0561 -0.254919,2.3947 0.801187,3.0044 l 6.209199,3.6054 c 1.056106,0.6096 2.423321,0.2263 3.033065,-0.8298 0.609742,-1.0561 0.226308,-2.3947 -0.829801,-3.0045 l -6.209199,-3.5767 c -0.396039,-0.2286 -0.836411,-0.3157 -1.259008,-0.2861 z m -18.827892,6.8387 c -0.8569,0.043 -1.63292,0.5998 -1.94574,1.4592 l -2.4608,6.7529 c -0.41709,1.146 0.19891,2.3871 1.344854,2.8041 1.145946,0.4172 2.387076,-0.1702 2.804166,-1.3161 l 2.46078,-6.753 c 0.41709,-1.1459 -0.17029,-2.387 -1.31623,-2.8041 -0.28648,-0.1042 -0.6014,-0.1573 -0.88703,-0.143 z m 10.930478,0 c -0.285632,-0.014 -0.600542,0.039 -0.887028,0.143 -1.14594,0.4171 -1.733323,1.6582 -1.316235,2.8041 l 2.460788,6.753 c 0.417089,1.1459 1.658212,1.7333 2.804154,1.3161 1.145942,-0.417 1.761939,-1.6581 1.344849,-2.8041 l -2.460788,-6.7529 c -0.312816,-0.8594 -1.088839,-1.4164 -1.94574,-1.4592 z"
       id="path3792"
       style="fill:#f9f9f9;fill-opacity:1;stroke:none" />
    <path
       inkscape:connector-curvature="0"
       d="m 19.138266,1019.4926 c -1.24295,0 -2.25467,0.9953 -2.25467,2.2383 0,1.243 1.01172,2.2384 2.25467,2.2384 l 62.411932,0 c 1.242962,0 2.238337,-0.9954 2.238337,-2.2384 0,-1.243 -0.995375,-2.2383 -2.238337,-2.2383 l -62.411932,0 z m 30.797519,1.2253 31.614413,0 c 0.589614,0 1.012975,0.4234 1.012975,1.013 0,0.5896 -0.423361,1.013 -1.012975,1.013 l -31.614413,0 0,-2.026 z"
       id="rect4582"
       style="fill:#ffffff;fill-opacity:1;stroke:none" />
  </g>
</svg>
