<?xml version="1.0" encoding="UTF-8" standalone="no"?>
<!-- Created with Inkscape (http://www.inkscape.org/) -->

<svg
   xmlns:dc="http://purl.org/dc/elements/1.1/"
   xmlns:cc="http://creativecommons.org/ns#"
   xmlns:rdf="http://www.w3.org/1999/02/22-rdf-syntax-ns#"
   xmlns:svg="http://www.w3.org/2000/svg"
   xmlns="http://www.w3.org/2000/svg"
   xmlns:xlink="http://www.w3.org/1999/xlink"
   xmlns:sodipodi="http://sodipodi.sourceforge.net/DTD/sodipodi-0.dtd"
   xmlns:inkscape="http://www.inkscape.org/namespaces/inkscape"
   width="96"
   height="96"
   id="svg2"
   version="1.1"
   inkscape:version="0.48.4 r9939"
   sodipodi:docname="gnome-hearts.svg">
  <defs
     id="defs4">
    <linearGradient
       id="linearGradient3772">
      <stop
         style="stop-color:#ab0000;stop-opacity:1;"
         offset="0"
         id="stop3775" />
      <stop
         style="stop-color:#ef1616;stop-opacity:1;"
         offset="1"
         id="stop3777" />
    </linearGradient>
    <linearGradient
       inkscape:collect="always"
       xlink:href="#linearGradient3772"
       id="linearGradient3779"
       x1="40"
       y1="1047.3622"
       x2="40"
       y2="957.36218"
       gradientUnits="userSpaceOnUse" />
  </defs>
  <sodipodi:namedview
     id="base"
     pagecolor="#ffffff"
     bordercolor="#666666"
     borderopacity="1.0"
     inkscape:pageopacity="0.0"
     inkscape:pageshadow="2"
     inkscape:zoom="4.6264763"
     inkscape:cx="3.4531599"
     inkscape:cy="51.803805"
     inkscape:document-units="px"
     inkscape:current-layer="layer1"
     showgrid="true"
     inkscape:snap-page="true"
     inkscape:snap-global="true"
     inkscape:snap-center="true"
     inkscape:snap-object-midpoints="false"
     showguides="true"
     inkscape:guide-bbox="true"
     inkscape:snap-bbox="true"
     inkscape:object-paths="true"
     inkscape:object-nodes="true"
     inkscape:window-width="1305"
     inkscape:window-height="744"
     inkscape:window-x="61"
     inkscape:window-y="24"
     inkscape:window-maximized="1"
     inkscape:snap-midpoints="true"
     inkscape:snap-grids="true"
     inkscape:snap-to-guides="false">
    <inkscape:grid
       type="xygrid"
       id="grid3002"
       empspacing="5"
       visible="true"
       enabled="true"
       snapvisiblegridlinesonly="true" />
  </sodipodi:namedview>
  <metadata
     id="metadata7">
    <rdf:RDF>
      <cc:Work
         rdf:about="">
        <dc:format>image/svg+xml</dc:format>
        <dc:type
           rdf:resource="http://purl.org/dc/dcmitype/StillImage" />
        <dc:title />
      </cc:Work>
    </rdf:RDF>
  </metadata>
  <g
     inkscape:label="Layer 1"
     inkscape:groupmode="layer"
     id="layer1"
     transform="translate(0,-956.36218)">
    <rect
       style="fill:#ffffff;fill-opacity:0;fill-rule:nonzero;stroke:none"
       id="rect3775"
       width="96"
       height="96"
       x="0"
       y="956.36218"
       ry="0" />
    <path
       style="fill:#000000;fill-opacity:0.09589041;fill-rule:nonzero;stroke:none"
       d="m 3.353015,956.30662 c -1.884176,0 -3.4111555,1.43156 -3.4111555,3.19799 l 0,83.65949 c 0,1.7665 1.5269795,3.1981 3.4111555,3.1981 l 89.23583,0 c 1.884174,0 3.411155,-1.4316 3.411155,-3.1981 l 0,-83.65949 c 0,-1.76643 -1.526981,-3.19799 -3.411155,-3.19799 z"
       id="rect3772"
       inkscape:connector-curvature="0"
       sodipodi:nodetypes="sssssssss" />
    <path
       style="fill:#000000;fill-opacity:0.18721463;fill-rule:nonzero;stroke:none"
       d="m 1.0459761,1041.8066 0,7.4219 c 0,1.7392 1.461916,3.1337 3.2852054,3.1337 l 86.3836135,0 c 1.823288,0 3.285205,-1.3945 3.285205,-3.1337 l 0,-7.4219 -92.9540239,0 z"
       id="rect3785"
       inkscape:connector-curvature="0" />
    <path
       style="fill:#000000;fill-opacity:0.38356168;fill-rule:nonzero;stroke:none"
       d="m 1.0459761,1041.8066 0,5.3807 c 0,1.762 1.461916,3.1749 3.2852054,3.1749 l 86.3836135,0 c 1.823288,0 3.285205,-1.4129 3.285205,-3.1749 l 0,-5.3807 -92.9540239,0 z"
       id="rect3783"
       inkscape:connector-curvature="0" />
    <rect
       style="fill:url(#linearGradient3779);fill-opacity:1;fill-rule:nonzero;stroke:none"
       id="rect2985"
       width="92.954025"
       height="89"
       x="1.045977"
       y="957.36218"
       ry="3.1511393" />
    <path
       style="fill:#000000;fill-opacity:0.38356168;fill-rule:nonzero;stroke:none"
       d="m 1,1042.3622 0.045976,2.7457 c 0.03024,1.8058 1.461916,3.2543 3.2852054,3.2543 l 86.3836136,0 c 1.823288,0 3.285205,-1.4481 3.285205,-3.2543 l -0.04598,-2.7457 z"
       id="rect3781"
       inkscape:connector-curvature="0"
       sodipodi:nodetypes="csssscc" />
    <rect
       style="fill:#ffffff;fill-opacity:0.17351598;fill-rule:nonzero;stroke:none"
       id="rect3770"
       width="92.954033"
       height="2.000005"
       x="1.045976"
       y="1040.3622" />
    <path
       transform="matrix(1.1005291,0,0,1.0158749,-5.3253958,-22.95722)"
       sodipodi:type="inkscape:offset"
       inkscape:radius="-12.477806"
       inkscape:original="M 8.96875 962.375 C 7.3210935 962.375 6 963.69609 6 965.34375 L 6 1043.375 C 6 1045.0227 7.3210935 1046.375 8.96875 1046.375 L 87.03125 1046.375 C 88.678906 1046.375 90 1045.0227 90 1043.375 L 90 965.34375 C 90 963.69609 88.678906 962.375 87.03125 962.375 L 8.96875 962.375 z "
       style="fill:#ffffff;fill-opacity:1;fill-rule:nonzero;stroke:none"
       id="path2997"
       d="m 18.46875,974.84375 0,59.06245 59.0625,0 0,-59.06245 -59.0625,0 z" />
    <g
       id="g3021"
       transform="matrix(0.72557793,0,0,0.66976559,91.214083,322.66974)">
      <path
         d="m -94.570152,986.7218 -1.655845,0 6.195703,-16.41236 1.886124,0 6.173773,16.41236 -1.677773,0 -1.908054,-5.15149 -7.105875,0 -1.908053,5.15149 z m 8.465635,-6.6282 -3.026578,-8.23977 -2.98271,8.23977 6.009288,0 z"
         id="path103-7"
         inkscape:connector-curvature="0"
         style="font-size:9.41568947px;font-style:normal;font-variant:normal;font-weight:normal;font-stretch:normal;line-height:125%;letter-spacing:0px;word-spacing:0px;fill:#cc0000;fill-opacity:1;stroke:none;font-family:Decker;-inkscape-font-specification:Decker" />
      <path
         style="fill:#cc0000;fill-opacity:1;stroke:none"
         d="m -91.30886,988.25122 c -1.600812,0 -2.895096,1.33035 -2.895096,2.97576 0,1.14471 0.610124,2.08351 1.54195,2.63663 2.273001,1.34904 2.730636,1.90535 3.477271,3.23466 0.906425,-1.36542 1.370045,-1.88562 3.697542,-3.26698 0.921448,-0.5208 1.494755,-1.48063 1.494755,-2.60431 0,-1.64541 -1.294292,-2.97576 -2.895095,-2.97576 -0.888311,0 -1.686844,0.40455 -2.218531,1.05109 -0.531654,-0.64188 -1.318325,-1.05109 -2.202796,-1.05109 z"
         id="path917"
         inkscape:connector-curvature="0"
         sodipodi:nodetypes="sscccsscs" />
    </g>
    <path
       sodipodi:nodetypes="sscccsscs"
       inkscape:connector-curvature="0"
       id="path961"
       d="m 41.064331,985.47541 c -4.660268,0 -8.428199,3.57417 -8.428199,7.99571 0,3.07709 1.776218,5.59915 4.488935,7.08558 6.617132,3.6259 7.949409,5.1199 10.123008,8.6923 2.638773,-3.6686 3.988475,-5.0664 10.764263,-8.7784 2.682507,-1.40033 4.351527,-3.97978 4.351527,-6.99948 0,-4.42154 -3.76793,-7.99571 -8.428198,-7.99571 -2.586024,0 -4.910702,1.08625 -6.458576,2.8238 -1.547746,-1.7249 -3.837871,-2.8238 -6.41276,-2.8238 z"
       style="fill:#cc0000;fill-opacity:1;stroke:none" />
    <g
       transform="matrix(-0.72557793,0,0,-0.66976559,3.73882,1670.8479)"
       id="g3025">
      <path
         style="font-size:9.41568947px;font-style:normal;font-variant:normal;font-weight:normal;font-stretch:normal;line-height:125%;letter-spacing:0px;word-spacing:0px;fill:#cc0000;fill-opacity:1;stroke:none;font-family:Decker;-inkscape-font-specification:Decker"
         inkscape:connector-curvature="0"
         id="path3027"
         d="m -94.570152,986.7218 -1.655845,0 6.195703,-16.41236 1.886124,0 6.173773,16.41236 -1.677773,0 -1.908054,-5.15149 -7.105875,0 -1.908053,5.15149 z m 8.465635,-6.6282 -3.026578,-8.23977 -2.98271,8.23977 6.009288,0 z" />
      <path
         sodipodi:nodetypes="sscccsscs"
         inkscape:connector-curvature="0"
         id="path3029"
         d="m -91.30886,988.25122 c -1.600812,0 -2.895096,1.33035 -2.895096,2.97576 0,1.14471 0.610124,2.08351 1.54195,2.63663 2.273001,1.34904 2.730636,1.90535 3.477271,3.23466 0.906425,-1.36542 1.370045,-1.88562 3.697542,-3.26698 0.921448,-0.5208 1.494755,-1.48063 1.494755,-2.60431 0,-1.64541 -1.294292,-2.97576 -2.895095,-2.97576 -0.888311,0 -1.686844,0.40455 -2.218531,1.05109 -0.531654,-0.64188 -1.318325,-1.05109 -2.202796,-1.05109 z"
         style="fill:#cc0000;fill-opacity:1;stroke:none" />
    </g>
  </g>
</svg>
