<?xml version="1.0" encoding="UTF-8" standalone="no"?>
<!-- Created with Inkscape (http://www.inkscape.org/) -->

<svg
   xmlns:dc="http://purl.org/dc/elements/1.1/"
   xmlns:cc="http://creativecommons.org/ns#"
   xmlns:rdf="http://www.w3.org/1999/02/22-rdf-syntax-ns#"
   xmlns:svg="http://www.w3.org/2000/svg"
   xmlns="http://www.w3.org/2000/svg"
   xmlns:xlink="http://www.w3.org/1999/xlink"
   xmlns:sodipodi="http://sodipodi.sourceforge.net/DTD/sodipodi-0.dtd"
   xmlns:inkscape="http://www.inkscape.org/namespaces/inkscape"
   width="96"
   height="96"
   id="svg2"
   version="1.1"
   inkscape:version="0.48.4 r9939"
   sodipodi:docname="gnome-web-browser.svg">
  <defs
     id="defs4">
    <linearGradient
       inkscape:collect="always"
       xlink:href="#linearGradient5932-3-2-4"
       id="linearGradient3130"
       gradientUnits="userSpaceOnUse"
       x1="59"
       y1="40"
       x2="69"
       y2="40" />
    <linearGradient
       id="linearGradient5932-3-2-4">
      <stop
         offset="0"
         style="stop-color:#ff7c53;stop-opacity:1"
         id="stop5934-3-2-9" />
      <stop
         offset="0.5"
         style="stop-color:#f21919;stop-opacity:1"
         id="stop5940-1-4-5" />
      <stop
         offset="0.5"
         style="stop-color:#db1414;stop-opacity:1"
         id="stop5942-5-4-7" />
      <stop
         offset="1"
         style="stop-color:#9b1818;stop-opacity:1"
         id="stop5936-2-5-0" />
    </linearGradient>
    <linearGradient
       inkscape:collect="always"
       xlink:href="#linearGradient5944-6-9-3"
       id="linearGradient3132"
       gradientUnits="userSpaceOnUse"
       x1="59"
       y1="88"
       x2="69"
       y2="88" />
    <linearGradient
       id="linearGradient5944-6-9-3">
      <stop
         offset="0"
         style="stop-color:#f0f0f0;stop-opacity:1"
         id="stop5946-9-5-0" />
      <stop
         offset="0.5"
         style="stop-color:#e6e6e6;stop-opacity:1"
         id="stop5952-4-9-7" />
      <stop
         offset="0.5"
         style="stop-color:#d2d2d2;stop-opacity:1"
         id="stop5954-4-7-2" />
      <stop
         offset="1"
         style="stop-color:#bebebe;stop-opacity:1"
         id="stop5948-6-2-1" />
    </linearGradient>
  </defs>
  <sodipodi:namedview
     id="base"
     pagecolor="#ffffff"
     bordercolor="#666666"
     borderopacity="1.0"
     inkscape:pageopacity="0.0"
     inkscape:pageshadow="2"
     inkscape:zoom="5.90625"
     inkscape:cx="48"
     inkscape:cy="48"
     inkscape:document-units="px"
     inkscape:current-layer="layer1"
     showgrid="true"
     inkscape:snap-page="true"
     inkscape:snap-global="true"
     inkscape:snap-center="true"
     inkscape:snap-object-midpoints="false"
     showguides="true"
     inkscape:guide-bbox="true"
     inkscape:snap-bbox="true"
     inkscape:object-paths="true"
     inkscape:object-nodes="true"
     inkscape:window-width="1305"
     inkscape:window-height="744"
     inkscape:window-x="61"
     inkscape:window-y="24"
     inkscape:window-maximized="1"
     inkscape:snap-midpoints="false"
     inkscape:snap-grids="true"
     inkscape:snap-to-guides="false">
    <inkscape:grid
       type="xygrid"
       id="grid3002"
       empspacing="5"
       visible="true"
       enabled="true"
       snapvisiblegridlinesonly="true" />
  </sodipodi:namedview>
  <metadata
     id="metadata7">
    <rdf:RDF>
      <cc:Work
         rdf:about="">
        <dc:format>image/svg+xml</dc:format>
        <dc:type
           rdf:resource="http://purl.org/dc/dcmitype/StillImage" />
        <dc:title />
      </cc:Work>
    </rdf:RDF>
  </metadata>
  <g
     inkscape:label="Layer 1"
     inkscape:groupmode="layer"
     id="layer1"
     transform="translate(0,-956.36218)">
    <rect
       style="fill:#ffffff;fill-opacity:0;fill-rule:nonzero;stroke:none"
       id="rect3775"
       width="96"
       height="96"
       x="0"
       y="956.36218"
       ry="0" />
    <path
       style="fill:#000000;fill-opacity:0.09589041;fill-rule:nonzero;stroke:none"
       d="m 3.353015,956.30662 c -1.884176,0 -3.4111555,1.43156 -3.4111555,3.19799 l 0,83.65949 c 0,1.7665 1.5269795,3.1981 3.4111555,3.1981 l 89.23583,0 c 1.884174,0 3.411155,-1.4316 3.411155,-3.1981 l 0,-83.65949 c 0,-1.76643 -1.526981,-3.19799 -3.411155,-3.19799 z"
       id="rect3772"
       inkscape:connector-curvature="0"
       sodipodi:nodetypes="sssssssss" />
    <path
       style="fill:#000000;fill-opacity:0.18721463;fill-rule:nonzero;stroke:none"
       d="m 1.0459761,1041.8066 0,7.4219 c 0,1.7392 1.461916,3.1337 3.2852054,3.1337 l 86.3836135,0 c 1.823288,0 3.285205,-1.3945 3.285205,-3.1337 l 0,-7.4219 -92.9540239,0 z"
       id="rect3785"
       inkscape:connector-curvature="0" />
    <path
       style="fill:#000000;fill-opacity:0.38356168;fill-rule:nonzero;stroke:none"
       d="m 1.0459761,1041.8066 0,5.3807 c 0,1.762 1.461916,3.1749 3.2852054,3.1749 l 86.3836135,0 c 1.823288,0 3.285205,-1.4129 3.285205,-3.1749 l 0,-5.3807 -92.9540239,0 z"
       id="rect3783"
       inkscape:connector-curvature="0" />
    <rect
       style="fill:#0055d4;fill-opacity:1;fill-rule:nonzero;stroke:none"
       id="rect2985-2"
       width="93"
       height="88.999962"
       x="0.9999969"
       y="957.36224"
       ry="3.1511383" />
    <g
       transform="matrix(1.1071429,0,0,1.0595234,-5.6428605,-62.283009)"
       id="g3775"
       style="fill:#003c97;fill-opacity:1">
      <path
         transform="translate(0,956.36218)"
         id="path3773"
         d="m 6,73.59375 9.90625,-12.21875 -3.5625,-5.09375 2.34375,-16 4.0625,-2.09375 2.1875,-3.8125 -5.1875,-3 0.40625,-5.75 L 13,24.1875 6.09375,12.21875 6,11.625 6,73.59375 z"
         style="fill:#003c97;fill-opacity:1;stroke:none"
         inkscape:connector-curvature="0" />
      <path
         transform="translate(0,956.36218)"
         id="path3765"
         d="m 90,48.59375 0,-39.625 C 90,8.1449218 89.66257,7.4125702 89.125,6.875 88.58743,6.3374298 87.855078,6 87.03125,6 l -39.625,0 -1.4375,2.4375 -2,-1.5625 -3.3125,0.84375 -1.21875,3.25 -7.65625,1.40625 -1.375,5.75 -2.5,-1.40625 -0.25,-4.6875 -8.125,-4.78125 -6,3.875 1.25,4.75 1.375,0.84375 4.0625,-0.1875 1.21875,2.28125 -3.09375,3.625 2.75,2.09375 -1.84375,5.09375 5.09375,2.96875 6.40625,0.84375 2.75,3.53125 6.71875,4.25 -2.09375,4.8125 5.40625,3.25 -2.34375,5.6875 3.9375,2.25 5.78125,12.40625 -4.75,1.84375 L 41.625,77.6875 6.65625,88.625 c 0.103703,0.151342 0.08948,0.37073 0.21875,0.5 C 7.4125702,89.66257 8.1449218,90 8.96875,90 l 78.0625,0 c 0.823828,0 1.55618,-0.33743 2.09375,-0.875 0.232339,-0.232339 0.229751,-0.607111 0.375,-0.90625 L 88.625,83.6875 90,83.59375 90,80.125 l -1.5625,-3.09375 -9.875,-6.3125 -2.90625,-8.75 6.21875,-11.75 8.125,-1.625 z m -56.1875,-31.375 0.65625,5.90625 -2,-3.34375 1.34375,-2.5625 z m -7.125,1.15625 4.78125,4.90625 -2.125,1.9375 -4.875,-4.59375 2.21875,-2.25 z m 6.65625,7.5 7.6875,10.5 -2.125,-0.25 -7.28125,-8.75 1.71875,-1.5 z"
         style="fill:#003c97;fill-opacity:1;stroke:none"
         inkscape:connector-curvature="0" />
    </g>
    <path
       style="fill:#000000;fill-opacity:0.38356168;fill-rule:nonzero;stroke:none"
       d="m 1,1042.3622 0.045976,2.7457 c 0.03024,1.8058 1.461916,3.2543 3.2852054,3.2543 l 86.3836136,0 c 1.823288,0 3.285205,-1.4481 3.285205,-3.2543 l -0.04598,-2.7457 z"
       id="rect3781"
       inkscape:connector-curvature="0"
       sodipodi:nodetypes="csssscc" />
    <rect
       style="fill:#ffffff;fill-opacity:0.30000001;fill-rule:nonzero;stroke:none"
       id="rect3770"
       width="92.954033"
       height="2.000005"
       x="1.045976"
       y="1040.3622" />
    <g
       transform="matrix(0.77027579,0,0,0.79179186,-94.06905,1025.2074)"
       id="g4666">
      <path
         inkscape:connector-curvature="0"
         d="m 173.70475,-70.420511 -0.18447,21.523675 c -1.93112,1.1981 -3.61435,2.706483 -5.00403,4.437274 l -10.34938,-2.454633 7.30059,7.735559 c -0.80424,2.068931 -1.26886,4.280773 -1.34084,6.55218 l -18.54794,10.921736 21.52381,0.183452 c 1.19805,1.931228 2.7063,3.614231 4.4373,5.003936 l -2.45472,10.3494107 7.73546,-7.3004837 c 2.06896,0.804245 4.28081,1.268763 6.55226,1.340785 l 10.92164,18.5481295 0.18441,-21.5239025 c 1.93111,-1.1981 3.61434,-2.706483 5.00403,-4.437273 l 10.34937,2.454633 -7.30059,-7.735559 c 0.80425,-2.068931 1.26886,-4.280773 1.34085,-6.552181 l 18.54799,-10.921509 -21.52387,-0.185717 c -1.19805,-1.931002 -2.7063,-3.614231 -4.4373,-5.003936 l 2.45473,-10.349411 -7.73547,7.300484 c -2.06895,-0.804244 -4.28081,-1.268763 -6.55226,-1.340785 l -10.92157,-18.545864 z m 6.43424,24.01296 c 7.95723,-2.13212 16.13626,2.590071 18.26845,10.547358 2.13212,7.957287 -2.59007,16.136301 -10.5473,18.268421 -7.95722,2.13212 -16.13626,-2.59007 -18.26838,-10.547131 -2.13219,-7.957513 2.59,-16.136528 10.54723,-18.268648 z"
         id="path4588"
         style="color:#000000;fill:#ffffff;fill-opacity:1;fill-rule:nonzero;stroke:none;stroke-width:0.80000001;marker:none;visibility:visible;display:inline;overflow:visible;enable-background:accumulate" />
      <g
         transform="matrix(0.87893916,0.87893916,-0.87893916,0.87893916,184.02448,-116.36677)"
         id="g4572">
        <g
           transform="matrix(0.98983765,0,0,0.77048859,-15.350324,-1.2826605)"
           id="g5928-7-4">
          <path
             inkscape:connector-curvature="0"
             d="m 69,64 -10,0 5,-48 5,48 z"
             id="path5923-0-5"
             style="fill:url(#linearGradient3130);fill-opacity:1;fill-rule:evenodd;stroke:none" />
          <path
             inkscape:connector-curvature="0"
             d="m 69,63.999997 -10,0 L 64,112 69,63.999997 z"
             id="path5926-8-6"
             style="fill:url(#linearGradient3132);fill-opacity:1;fill-rule:evenodd;stroke:none" />
        </g>
        <path
           inkscape:connector-curvature="0"
           d="m 65.503089,63.920891 a 1.7404205,1.7404205 0 1 1 -3.480841,0 1.7404205,1.7404205 0 1 1 3.480841,0 z"
           transform="matrix(0.88540527,0,0,0.88540527,-8.4565171,-8.5672842)"
           id="path5958-8-4"
           style="fill:#000000;fill-opacity:1;fill-rule:evenodd;stroke:none" />
      </g>
    </g>
  </g>
</svg>
