<?xml version="1.0" encoding="UTF-8" standalone="no"?>
<!-- Created with Inkscape (http://www.inkscape.org/) -->

<svg
   xmlns:dc="http://purl.org/dc/elements/1.1/"
   xmlns:cc="http://creativecommons.org/ns#"
   xmlns:rdf="http://www.w3.org/1999/02/22-rdf-syntax-ns#"
   xmlns:svg="http://www.w3.org/2000/svg"
   xmlns="http://www.w3.org/2000/svg"
   xmlns:xlink="http://www.w3.org/1999/xlink"
   xmlns:sodipodi="http://sodipodi.sourceforge.net/DTD/sodipodi-0.dtd"
   xmlns:inkscape="http://www.inkscape.org/namespaces/inkscape"
   width="96"
   height="96"
   id="svg2"
   version="1.1"
   inkscape:version="0.48.4 r9939"
   sodipodi:docname="gnotes.svg">
  <defs
     id="defs4">
    <linearGradient
       id="linearGradient3849">
      <stop
         style="stop-color:#f76300;stop-opacity:1;"
         offset="0"
         id="stop3851" />
      <stop
         style="stop-color:#ffe0cc;stop-opacity:1;"
         offset="1"
         id="stop3853" />
    </linearGradient>
    <linearGradient
       id="linearGradient3825">
      <stop
         style="stop-color:#ffdcdc;stop-opacity:1;"
         offset="0"
         id="stop3827" />
      <stop
         style="stop-color:#d96d6d;stop-opacity:1;"
         offset="1"
         id="stop3829" />
    </linearGradient>
    <linearGradient
       id="linearGradient3841">
      <stop
         style="stop-color:#ffffff;stop-opacity:1;"
         offset="0"
         id="stop3843" />
      <stop
         style="stop-color:#dadada;stop-opacity:1;"
         offset="1"
         id="stop3845" />
    </linearGradient>
    <linearGradient
       inkscape:collect="always"
       id="linearGradient3833">
      <stop
         style="stop-color:#999999;stop-opacity:1;"
         offset="0"
         id="stop3835" />
      <stop
         style="stop-color:#999999;stop-opacity:0;"
         offset="1"
         id="stop3837" />
    </linearGradient>
    <linearGradient
       inkscape:collect="always"
       xlink:href="#linearGradient3849"
       id="linearGradient3173"
       gradientUnits="userSpaceOnUse"
       x1="33.7864"
       y1="1027.2502"
       x2="33.741676"
       y2="1011.9337" />
    <linearGradient
       inkscape:collect="always"
       xlink:href="#linearGradient3825"
       id="linearGradient3175"
       gradientUnits="userSpaceOnUse"
       gradientTransform="translate(2039.1839,0)"
       x1="-1027.2545"
       y1="70.798042"
       x2="-1011.9294"
       y2="70.798042" />
    <linearGradient
       inkscape:collect="always"
       xlink:href="#linearGradient3841"
       id="linearGradient3177"
       gradientUnits="userSpaceOnUse"
       gradientTransform="translate(2039.1839,0)"
       x1="-1027.2545"
       y1="66.705544"
       x2="-1011.9294"
       y2="66.705544" />
    <linearGradient
       inkscape:collect="always"
       xlink:href="#linearGradient3833"
       id="linearGradient3179"
       gradientUnits="userSpaceOnUse"
       x1="-1027.2545"
       y1="66.705536"
       x2="-1011.9294"
       y2="66.705536" />
  </defs>
  <sodipodi:namedview
     id="base"
     pagecolor="#ffffff"
     bordercolor="#666666"
     borderopacity="1.0"
     inkscape:pageopacity="0.0"
     inkscape:pageshadow="2"
     inkscape:zoom="5.90625"
     inkscape:cx="47.830688"
     inkscape:cy="18.291367"
     inkscape:document-units="px"
     inkscape:current-layer="layer1"
     showgrid="true"
     inkscape:snap-page="true"
     inkscape:snap-global="true"
     inkscape:snap-center="true"
     inkscape:snap-object-midpoints="false"
     showguides="true"
     inkscape:guide-bbox="true"
     inkscape:snap-bbox="true"
     inkscape:object-paths="true"
     inkscape:object-nodes="true"
     inkscape:window-width="1305"
     inkscape:window-height="744"
     inkscape:window-x="61"
     inkscape:window-y="24"
     inkscape:window-maximized="1"
     inkscape:snap-midpoints="false"
     inkscape:snap-grids="true"
     inkscape:snap-to-guides="false">
    <inkscape:grid
       type="xygrid"
       id="grid3002"
       empspacing="5"
       visible="true"
       enabled="true"
       snapvisiblegridlinesonly="true" />
  </sodipodi:namedview>
  <metadata
     id="metadata7">
    <rdf:RDF>
      <cc:Work
         rdf:about="">
        <dc:format>image/svg+xml</dc:format>
        <dc:type
           rdf:resource="http://purl.org/dc/dcmitype/StillImage" />
        <dc:title />
      </cc:Work>
    </rdf:RDF>
  </metadata>
  <g
     inkscape:label="Layer 1"
     inkscape:groupmode="layer"
     id="layer1"
     transform="translate(0,-956.36218)">
    <rect
       style="fill:#ffffff;fill-opacity:0;fill-rule:nonzero;stroke:none"
       id="rect3775"
       width="96"
       height="96"
       x="0"
       y="956.36218"
       ry="0" />
    <path
       style="fill:#000000;fill-opacity:0.09589041;fill-rule:nonzero;stroke:none"
       d="m 3.353015,956.30662 c -1.884176,0 -3.4111555,1.43156 -3.4111555,3.19799 l 0,83.65949 c 0,1.7665 1.5269795,3.1981 3.4111555,3.1981 l 89.23583,0 c 1.884174,0 3.411155,-1.4316 3.411155,-3.1981 l 0,-83.65949 c 0,-1.76643 -1.526981,-3.19799 -3.411155,-3.19799 z"
       id="rect3772"
       inkscape:connector-curvature="0"
       sodipodi:nodetypes="sssssssss" />
    <path
       style="fill:#000000;fill-opacity:0.18721463;fill-rule:nonzero;stroke:none"
       d="m 1.0459761,1041.8066 0,7.4219 c 0,1.7392 1.461916,3.1337 3.2852054,3.1337 l 86.3836135,0 c 1.823288,0 3.285205,-1.3945 3.285205,-3.1337 l 0,-7.4219 -92.9540239,0 z"
       id="rect3785"
       inkscape:connector-curvature="0" />
    <path
       style="fill:#000000;fill-opacity:0.38356168;fill-rule:nonzero;stroke:none"
       d="m 1.0459761,1041.8066 0,5.3807 c 0,1.762 1.461916,3.1749 3.2852054,3.1749 l 86.3836135,0 c 1.823288,0 3.285205,-1.4129 3.285205,-3.1749 l 0,-5.3807 -92.9540239,0 z"
       id="rect3783"
       inkscape:connector-curvature="0" />
    <rect
       style="fill:#ffcc00;fill-opacity:1;fill-rule:nonzero;stroke:none"
       id="rect2985-1"
       width="92.999992"
       height="88.999977"
       x="1.0000085"
       y="957.36212"
       ry="3.1511385" />
    <path
       style="fill:#241c1c;fill-opacity:1;fill-rule:nonzero;stroke:none"
       d="m 4.2868393,957.36207 c -1.8241904,0 -3.2868302,1.39972 -3.2868302,3.14546 l 0,23.14396 92.9999949,0 0,-23.14396 c 0,-1.74574 -1.462635,-3.14546 -3.28683,-3.14546 z"
       id="rect2987"
       inkscape:connector-curvature="0"
       sodipodi:nodetypes="ssccsss" />
    <path
       style="fill:none;stroke:#ffffff;stroke-width:2;stroke-linecap:butt;stroke-linejoin:miter;stroke-miterlimit:4;stroke-opacity:1;stroke-dasharray:3.99999974, 1.99999988;stroke-dashoffset:0"
       d="m 3.2087635,977.29435 88.9587195,0"
       id="path2992"
       inkscape:connector-curvature="0" />
    <path
       style="fill:#000000;fill-opacity:0.56164384;fill-rule:nonzero;stroke:none"
       d="M 33.375 90 L 90.84375 90 C 91.716615 90 92.524182 89.663318 93.09375 89.09375 C 93.663318 88.524182 94 87.716615 94 86.84375 L 94 58.8125 L 69 36 L 20 76 L 33.375 90 z "
       id="rect3194"
       transform="translate(0,956.36218)" />
    <g
       id="g3857"
       transform="matrix(0.78286818,-0.74919625,0.78286818,0.74919625,-793.73496,283.6335)">
      <path
         sodipodi:nodetypes="ccccc"
         inkscape:connector-curvature="0"
         id="rect3766"
         d="m 33.752949,1027.2546 3.392404,-3.8313 26.159377,0 0,3.8313 z"
         style="fill:#4d4d4d;fill-opacity:1;fill-rule:nonzero;stroke:none" />
      <path
         inkscape:connector-curvature="0"
         id="path3769"
         d="m 37.15625,1015.7684 -3.40625,3.8125 3.40625,3.8438 26.15625,0 0,-3.8438 0,-3.8125 -26.15625,0 z"
         style="fill:#b3b3b3;fill-opacity:1;fill-rule:nonzero;stroke:none" />
      <path
         style="fill:#ffcc00;fill-opacity:1;fill-rule:nonzero;stroke:none"
         d="m 33.75295,1011.9295 3.392403,3.8313 26.159389,0 0,-3.8313 z"
         id="path3773"
         inkscape:connector-curvature="0"
         sodipodi:nodetypes="ccccc" />
      <path
         sodipodi:nodetypes="ccccccc"
         inkscape:connector-curvature="0"
         id="rect3777"
         d="m 33.75295,1027.2546 3.392403,-3.8313 -3.392403,-3.8313 3.392403,-3.8312 -3.392403,-3.8313 -13.338135,7.6595 z"
         style="fill:url(#linearGradient3173);fill-opacity:1;fill-rule:nonzero;stroke:none" />
      <path
         sodipodi:nodetypes="ccccc"
         inkscape:connector-curvature="0"
         id="path3782"
         d="m 33.75295,1011.9295 3.392403,3.8313 26.159389,0 0,-3.8313 z"
         style="fill:#e6e6e6;fill-opacity:1;fill-rule:nonzero;stroke:none" />
      <rect
         transform="matrix(0,1,1,0,0,0)"
         y="63.304752"
         x="1011.9294"
         height="14.986588"
         width="15.325094"
         id="rect3784"
         style="fill:url(#linearGradient3175);fill-opacity:1;fill-rule:nonzero;stroke:none" />
      <rect
         transform="matrix(0,1,1,0,0,0)"
         style="fill:url(#linearGradient3177);fill-opacity:1;fill-rule:nonzero;stroke:none"
         id="rect3786"
         width="15.325094"
         height="6.8015881"
         x="1011.9294"
         y="63.304752" />
      <path
         sodipodi:nodetypes="cccc"
         id="path3795"
         d="m 25.754336,1016.524 -5.343036,3.0638 5.343036,3.0744 z"
         style="fill:#4d4d4d;fill-opacity:1;fill-rule:nonzero;stroke:none"
         inkscape:connector-curvature="0" />
      <rect
         transform="matrix(0,-1,1,0,0,0)"
         y="65.149246"
         x="-1027.2545"
         height="3.1125743"
         width="15.325094"
         id="rect3797"
         style="fill:url(#linearGradient3179);fill-opacity:1;fill-rule:nonzero;stroke:none" />
    </g>
    <path
       style="fill:#000000;fill-opacity:0.38356168;fill-rule:nonzero;stroke:none"
       d="m 1,1042.3622 0.045976,2.7457 c 0.03024,1.8058 1.461916,3.2543 3.2852054,3.2543 l 86.3836136,0 c 1.823288,0 3.285205,-1.4481 3.285205,-3.2543 l -0.04598,-2.7457 z"
       id="rect3781"
       inkscape:connector-curvature="0"
       sodipodi:nodetypes="csssscc" />
    <rect
       style="fill:#ffffff;fill-opacity:0.30000001;fill-rule:nonzero;stroke:none"
       id="rect3770"
       width="92.954033"
       height="2.000005"
       x="1.045976"
       y="1040.3622" />
  </g>
</svg>
