<?xml version="1.0" encoding="UTF-8" standalone="no"?>
<!-- Created with Inkscape (http://www.inkscape.org/) -->

<svg
   xmlns:dc="http://purl.org/dc/elements/1.1/"
   xmlns:cc="http://creativecommons.org/ns#"
   xmlns:rdf="http://www.w3.org/1999/02/22-rdf-syntax-ns#"
   xmlns:svg="http://www.w3.org/2000/svg"
   xmlns="http://www.w3.org/2000/svg"
   xmlns:sodipodi="http://sodipodi.sourceforge.net/DTD/sodipodi-0.dtd"
   xmlns:inkscape="http://www.inkscape.org/namespaces/inkscape"
   width="96"
   height="96"
   id="svg2"
   version="1.1"
   inkscape:version="0.48.4 r9939"
   sodipodi:docname="goa-account-owncloud.svg">
  <defs
     id="defs4" />
  <sodipodi:namedview
     id="base"
     pagecolor="#ffffff"
     bordercolor="#666666"
     borderopacity="1.0"
     inkscape:pageopacity="0.0"
     inkscape:pageshadow="2"
     inkscape:zoom="5.4541429"
     inkscape:cx="33.634236"
     inkscape:cy="45.544974"
     inkscape:document-units="px"
     inkscape:current-layer="layer1"
     showgrid="true"
     inkscape:snap-page="true"
     inkscape:snap-global="true"
     inkscape:snap-center="true"
     inkscape:snap-object-midpoints="false"
     showguides="true"
     inkscape:guide-bbox="true"
     inkscape:snap-bbox="true"
     inkscape:object-paths="true"
     inkscape:object-nodes="true"
     inkscape:window-width="1305"
     inkscape:window-height="744"
     inkscape:window-x="61"
     inkscape:window-y="24"
     inkscape:window-maximized="1"
     inkscape:snap-midpoints="true"
     inkscape:snap-grids="true"
     inkscape:snap-to-guides="false">
    <inkscape:grid
       type="xygrid"
       id="grid3002"
       empspacing="5"
       visible="true"
       enabled="true"
       snapvisiblegridlinesonly="true" />
  </sodipodi:namedview>
  <metadata
     id="metadata7">
    <rdf:RDF>
      <cc:Work
         rdf:about="">
        <dc:format>image/svg+xml</dc:format>
        <dc:type
           rdf:resource="http://purl.org/dc/dcmitype/StillImage" />
        <dc:title />
      </cc:Work>
    </rdf:RDF>
  </metadata>
  <g
     inkscape:label="Layer 1"
     inkscape:groupmode="layer"
     id="layer1"
     transform="translate(0,-956.36218)">
    <rect
       style="fill:#ffffff;fill-opacity:0;fill-rule:nonzero;stroke:none"
       id="rect3775"
       width="96"
       height="96"
       x="0"
       y="956.36218"
       ry="0" />
    <path
       style="fill:#000000;fill-opacity:0.09589041;fill-rule:nonzero;stroke:none"
       d="m 3.353015,956.30662 c -1.884176,0 -3.4111555,1.43156 -3.4111555,3.19799 l 0,83.65949 c 0,1.7665 1.5269795,3.1981 3.4111555,3.1981 l 89.23583,0 c 1.884174,0 3.411155,-1.4316 3.411155,-3.1981 l 0,-83.65949 c 0,-1.76643 -1.526981,-3.19799 -3.411155,-3.19799 z"
       id="rect3772"
       inkscape:connector-curvature="0"
       sodipodi:nodetypes="sssssssss" />
    <path
       style="fill:#000000;fill-opacity:0.18721463;fill-rule:nonzero;stroke:none"
       d="m 1.0459761,1041.8066 0,7.4219 c 0,1.7392 1.461916,3.1337 3.2852054,3.1337 l 86.3836135,0 c 1.823288,0 3.285205,-1.3945 3.285205,-3.1337 l 0,-7.4219 -92.9540239,0 z"
       id="rect3785"
       inkscape:connector-curvature="0" />
    <path
       style="fill:#000000;fill-opacity:0.38356168;fill-rule:nonzero;stroke:none"
       d="m 1.0459761,1041.8066 0,5.3807 c 0,1.762 1.461916,3.1749 3.2852054,3.1749 l 86.3836135,0 c 1.823288,0 3.285205,-1.4129 3.285205,-3.1749 l 0,-5.3807 -92.9540239,0 z"
       id="rect3783"
       inkscape:connector-curvature="0" />
    <rect
       style="fill:#323232;fill-opacity:1;fill-rule:nonzero;stroke:none"
       id="rect2985"
       width="92.954025"
       height="89"
       x="1.045977"
       y="957.36218"
       ry="3.1511393" />
    <path
       style="fill:#000000;fill-opacity:0.38356168;fill-rule:nonzero;stroke:none"
       d="m 1,1042.3622 0.045976,2.7457 c 0.03024,1.8058 1.461916,3.2543 3.2852054,3.2543 l 86.3836136,0 c 1.823288,0 3.285205,-1.4481 3.285205,-3.2543 l -0.04598,-2.7457 z"
       id="rect3781"
       inkscape:connector-curvature="0"
       sodipodi:nodetypes="csssscc" />
    <rect
       style="fill:#ffffff;fill-opacity:0.23529412;fill-rule:nonzero;stroke:none"
       id="rect3770"
       width="92.954033"
       height="2.000005"
       x="1.045976"
       y="1040.3622" />
    <path
       style="fill:#000000;fill-opacity:0.05882353;stroke:none"
       d="m 44.260675,984.19486 c -3.591127,0 -6.676961,2.03608 -8.261679,4.99526 -0.814125,-0.54254 -1.789941,-0.86087 -2.841286,-0.86087 -2.833613,0 -5.129881,2.29547 -5.129881,5.12984 0,1.21875 0.442043,2.3225 1.151399,3.20259 -1.659903,1.08199 -2.9544,2.66913 -3.666748,4.54902 -0.42532,-0.058 -0.855192,-0.1 -1.296637,-0.1 -5.195018,0 -9.405986,4.2129 -9.405986,9.4095 0,5.1964 4.210968,9.4059 9.405986,9.4059 1.855839,0 3.575855,-0.5531 5.034235,-1.4809 1.09633,1.2333 2.676894,2.0265 4.456767,2.0265 2.424528,0 4.499884,-1.4484 5.441652,-3.5215 2.218743,1.8359 5.064854,2.9405 8.16957,2.9405 3.473497,0 6.620041,-1.3885 8.931238,-3.6314 1.722772,1.9369 4.204619,3.1814 7.000467,3.1814 2.244246,0 4.277283,-0.8208 5.895123,-2.1328 1.073493,1.6058 2.901162,2.6643 4.977551,2.6643 3.30593,0 5.987232,-2.677 5.987232,-5.9837 0,-3.3069 -2.681302,-5.9873 -5.987232,-5.9873 -0.569632,0 -1.111258,0.1034 -1.633203,0.2516 -0.815994,-4.2568 -4.501135,-7.4873 -8.963144,-7.617 5.5e-5,-0.018 0.0036,-0.025 0.0036,-0.04 0,-5.19643 -4.214505,-9.40954 -9.409523,-9.40954 -0.257843,0 -0.512658,0.0181 -0.765241,0.0399 -1.054919,-4.04369 -4.721286,-7.03224 -9.094215,-7.03224 z"
       id="path4698"
       inkscape:connector-curvature="0" />
    <path
       inkscape:connector-curvature="0"
       id="path4696"
       d="m 44.260675,983.46931 c -3.591127,0 -6.676961,2.03608 -8.261679,4.99525 -0.814125,-0.54253 -1.789941,-0.86087 -2.841286,-0.86087 -2.833613,0 -5.129881,2.29547 -5.129881,5.12985 0,1.21875 0.442043,2.32249 1.151399,3.20259 -1.659903,1.08198 -2.9544,2.66913 -3.666748,4.54907 -0.42532,-0.058 -0.855192,-0.1 -1.296637,-0.1 -5.195018,0 -9.405986,4.2129 -9.405986,9.4095 0,5.1964 4.210968,9.4059 9.405986,9.4059 1.855839,0 3.575855,-0.553 5.034235,-1.4808 1.09633,1.2332 2.676894,2.0264 4.456767,2.0264 2.424528,0 4.499884,-1.4483 5.441652,-3.5214 2.218743,1.8358 5.064854,2.9405 8.16957,2.9405 3.473497,0 6.620041,-1.3886 8.931238,-3.6314 1.722772,1.9368 4.204619,3.1813 7.000467,3.1813 2.244246,0 4.277283,-0.8208 5.895123,-2.1327 1.073493,1.6058 2.901162,2.6642 4.977551,2.6642 3.30593,0 5.987232,-2.6769 5.987232,-5.9836 0,-3.3069 -2.681302,-5.9873 -5.987232,-5.9873 -0.569632,0 -1.111258,0.1034 -1.633203,0.2516 -0.815994,-4.2568 -4.501135,-7.4874 -8.963144,-7.61707 5.5e-5,-0.0181 0.0036,-0.0254 0.0036,-0.0381 0,-5.19641 -4.214505,-9.40952 -9.409523,-9.40952 -0.257843,0 -0.512658,0.0181 -0.765241,0.0381 -1.054919,-4.04369 -4.721286,-7.03225 -9.094215,-7.03225 z"
       style="fill:#000000;fill-opacity:0.11764706;stroke:none" />
    <path
       style="fill:#000000;fill-opacity:0.23529412;stroke:none"
       d="m 44.260675,982.74375 c -3.591127,0 -6.676961,2.03609 -8.261679,4.99526 -0.814125,-0.54253 -1.789941,-0.86087 -2.841286,-0.86087 -2.833613,0 -5.129881,2.29547 -5.129881,5.12984 0,1.21875 0.442043,2.3225 1.151399,3.2026 -1.659903,1.08198 -2.9544,2.66913 -3.666748,4.54904 -0.42532,-0.0581 -0.855192,-0.0998 -1.296637,-0.0998 -5.195018,0 -9.405986,4.21295 -9.405986,9.40955 0,5.1964 4.210968,9.4059 9.405986,9.4059 1.855839,0 3.575855,-0.5531 5.034235,-1.4809 1.09633,1.2333 2.676894,2.0265 4.456767,2.0265 2.424528,0 4.499884,-1.4484 5.441652,-3.5215 2.218743,1.8358 5.064854,2.9405 8.16957,2.9405 3.473497,0 6.620041,-1.3885 8.931238,-3.6314 1.722772,1.9369 4.204619,3.1814 7.000467,3.1814 2.244246,0 4.277283,-0.8208 5.895123,-2.1328 1.073493,1.6058 2.901162,2.6642 4.977551,2.6642 3.30593,0 5.987232,-2.6769 5.987232,-5.9836 0,-3.3069 -2.681302,-5.9873 -5.987232,-5.9873 -0.569632,0 -1.111258,0.1034 -1.633203,0.2516 -0.815994,-4.2568 -4.501135,-7.48733 -8.963144,-7.61702 5.5e-5,-0.0181 0.0036,-0.0254 0.0036,-0.0381 0,-5.19642 -4.214505,-9.40953 -9.409523,-9.40953 -0.257843,0 -0.512658,0.0181 -0.765241,0.0381 -1.054919,-4.0437 -4.721286,-7.03225 -9.094215,-7.03225 z"
       id="path4675"
       inkscape:connector-curvature="0" />
    <path
       style="fill:#00bce2;fill-opacity:1;stroke:none"
       inkscape:connector-curvature="0"
       d="m 80.109696,1011.8109 c 0,3.3069 -2.682825,5.9871 -5.988755,5.9871 -3.305913,0 -5.985509,-2.6802 -5.985509,-5.9871 0,-3.3069 2.679578,-5.9871 5.985509,-5.9871 3.30593,0 5.988755,2.6802 5.988755,5.9871 z"
       id="path4217" />
    <path
       style="fill:#00bce2;fill-opacity:1;stroke:none"
       inkscape:connector-curvature="0"
       d="m 38.291419,991.28279 c 0,2.83438 -2.299588,5.13184 -5.133292,5.13184 -2.833613,0 -5.130371,-2.29746 -5.130371,-5.13184 0,-2.83419 2.296758,-5.13184 5.130371,-5.13184 2.833704,0 5.133292,2.29765 5.133292,5.13184 z"
       id="path4201" />
    <path
       id="path4219"
       d="m 78.399076,1011.8109 c 0,2.362 -1.916259,4.2766 -4.2777,4.2766 -2.361332,0 -4.275343,-1.9146 -4.275343,-4.2766 0,-2.3621 1.914011,-4.2766 4.275343,-4.2766 2.361423,0 4.2777,1.9145 4.2777,4.2766 z"
       inkscape:connector-curvature="0"
       style="fill:#323232;fill-opacity:1;stroke:none" />
    <path
       inkscape:connector-curvature="0"
       style="fill:#1e2022;fill-opacity:0.31372549;stroke:none"
       d="m 29.731882,990.55615 c -0.0497,0.23526 -0.078,0.47633 -0.078,0.72628 0,1.10955 0.524811,2.08615 1.328543,2.7279 0.663628,-0.31834 1.375087,-0.55523 2.129173,-0.67313 -1.666161,-0.0218 -3.04854,-1.20841 -3.379773,-2.78105 z"
       id="path4734" />
    <path
       inkscape:connector-curvature="0"
       style="fill:#1e2022;fill-opacity:0.31372549;stroke:none"
       d="m 36.558743,990.55615 c -0.284726,1.34119 -1.308192,2.4063 -2.646421,2.6996 0.130781,0 0.253563,-0.0399 0.386158,-0.0399 0.55191,0 1.082508,0.0707 1.597778,0.18774 0.34725,-0.45075 0.616194,-0.96771 0.712094,-1.55523 0.03555,0.64484 0.148739,1.26718 0.329474,1.85996 0.28351,0.10702 0.560726,0.23199 0.829,0.3684 -0.624466,-0.98784 -1.002335,-2.13113 -1.119511,-3.35496 -0.0036,0.0472 -0.02122,0.0907 -0.02485,0.13785 -0.0127,-0.1052 -0.04208,-0.20297 -0.06385,-0.30473 z"
       id="path4732" />
    <path
       inkscape:connector-curvature="0"
       style="fill:#1e2022;fill-opacity:0.31372549;stroke:none"
       d="m 61.754733,997.78339 c -0.04934,0.38327 -0.119535,0.76165 -0.216106,1.13005 0.08054,-0.0181 0.163249,-0.029 0.244439,-0.0453 0.01088,-0.14874 0.03537,-0.29367 0.03537,-0.44639 0,-0.2184 -0.04589,-0.42391 -0.06385,-0.63758 z"
       id="path4730" />
    <path
       inkscape:connector-curvature="0"
       style="fill:#1e2022;fill-opacity:0.31372549;stroke:none"
       d="m 70.877299,1007.1291 c -0.02195,0.1795 -0.02376,0.3649 -0.05315,0.5421 0.02957,-0.036 0.06857,-0.063 0.09922,-0.1 -0.0054,-0.1506 -0.03193,-0.295 -0.04607,-0.443 z"
       id="path4728" />
    <path
       id="path4203"
       d="m 36.666324,991.28279 c 0,1.93687 -1.571368,3.50678 -3.507761,3.50678 -1.936267,0 -3.50573,-1.56991 -3.50573,-3.50678 0,-1.93668 1.569463,-3.5066 3.50573,-3.5066 1.936393,0 3.507761,1.56992 3.507761,3.5066 z"
       inkscape:connector-curvature="0"
       style="fill:#323232;fill-opacity:1;stroke:none" />
    <path
       id="path4197"
       d="m 43.710597,1002.3622 c 0,5.1964 -4.215866,9.4082 -9.410884,9.4082 -5.195017,0 -9.405804,-4.2118 -9.405804,-9.4082 0,-5.19644 4.210787,-9.40846 9.405804,-9.40846 5.195018,0 9.410884,4.21202 9.410884,9.40846 z"
       inkscape:connector-curvature="0"
       style="fill:#00bce2;fill-opacity:1;stroke:none" />
    <path
       style="fill:#323232;fill-opacity:1;stroke:none"
       inkscape:connector-curvature="0"
       d="m 41.999995,1002.3622 c 0,4.2515 -3.449318,7.6977 -7.699864,7.6977 -4.250438,0 -7.695621,-3.4462 -7.695621,-7.6977 0,-4.25177 3.445183,-7.69778 7.695621,-7.69778 4.250546,0 7.699864,3.44601 7.699864,7.69778 z"
       id="path4199" />
    <path
       style="fill:#00bce2;fill-opacity:1;stroke:none"
       inkscape:connector-curvature="0"
       d="m 63.530307,998.41952 c 0,5.19638 -4.215865,9.40848 -9.410901,9.40848 -5.195,0 -9.405786,-4.2121 -9.405786,-9.40848 0,-5.19642 4.210786,-9.40825 9.405786,-9.40825 5.195036,0 9.410901,4.21183 9.410901,9.40825 z"
       id="path4209" />
    <path
       id="path4211"
       d="m 61.819706,998.41952 c 0,4.25158 -3.449318,7.69778 -7.699846,7.69778 -4.250456,0 -7.695639,-3.446 -7.695639,-7.69778 0,-4.25156 3.445183,-7.69776 7.695639,-7.69776 4.250528,0 7.699846,3.4462 7.699846,7.69776 z"
       inkscape:connector-curvature="0"
       style="fill:#323232;fill-opacity:1;stroke:none" />
    <path
       id="path4205"
       d="m 53.670579,991.42645 c 0,5.1966 -4.215866,9.40845 -9.410884,9.40845 -5.195036,0 -9.405804,-4.21185 -9.405804,-9.40845 0,-5.19641 4.210768,-9.40825 9.405804,-9.40825 5.195018,0 9.410884,4.21184 9.410884,9.40825 z"
       inkscape:connector-curvature="0"
       style="fill:#00bce2;fill-opacity:1;stroke:none" />
    <path
       style="fill:#323232;fill-opacity:1;stroke:none"
       inkscape:connector-curvature="0"
       d="m 51.959977,991.42645 c 0,4.25175 -3.449336,7.69776 -7.699864,7.69776 -4.250438,0 -7.69562,-3.44601 -7.69562,-7.69776 0,-4.25156 3.445182,-7.69776 7.69562,-7.69776 4.250528,0 7.699864,3.4462 7.699864,7.69776 z"
       id="path4207" />
    <path
       inkscape:connector-curvature="0"
       style="fill:#1e2022;fill-opacity:0.31372549;stroke:none"
       d="m 69.492079,1012.1172 c 0.09655,-0.1414 0.270391,-0.2104 0.357818,-0.3577 -2.18e-4,0.018 -0.0036,0.034 -0.0036,0.053 0,2.3619 1.914758,4.2761 4.27609,4.2761 2.361437,0 4.276083,-1.9142 4.276083,-4.2761 0,-0.2479 -0.03392,-0.4863 -0.07437,-0.7228 -0.346615,2.014 -2.089253,3.55 -4.201684,3.55 -2.063855,0 -3.559491,-1.569 -3.960786,-3.5144 -0.173716,0.3651 -0.442794,0.6611 -0.669579,0.9918 z"
       id="path4745" />
    <path
       id="path4213"
       d="m 72.661671,1007.855 c 0,5.1964 -4.215865,9.4082 -9.410883,9.4082 -5.195018,0 -9.405804,-4.2118 -9.405804,-9.4082 0,-5.1964 4.210786,-9.40845 9.405804,-9.40845 5.195018,0 9.410883,4.21205 9.410883,9.40845 z"
       inkscape:connector-curvature="0"
       style="fill:#00bce2;fill-opacity:1;stroke:none" />
    <path
       style="fill:#323232;fill-opacity:1;stroke:none"
       inkscape:connector-curvature="0"
       d="m 70.95107,1007.855 c 0,4.2515 -3.449318,7.6977 -7.699847,7.6977 -4.250456,0 -7.695638,-3.4462 -7.695638,-7.6977 0,-4.2516 3.445182,-7.6978 7.695638,-7.6978 4.250529,0 7.699847,3.4462 7.699847,7.6978 z"
       id="path4215" />
    <path
       inkscape:connector-curvature="0"
       style="fill:#1e2022;fill-opacity:0.31372549;stroke:none"
       d="m 56.022575,1010.1724 c 0.06996,0.218 0.04977,0.4711 0.138163,0.6802 0.111246,0.263 0.332496,0.4508 0.471186,0.6978 0.542122,0.967 1.300821,1.7731 2.185871,2.4268 0.244301,0.1778 0.482731,0.3586 0.747518,0.5066 1.101271,0.6215 2.326177,1.07 3.684452,1.07 1.286357,0 2.457881,-0.3947 3.517942,-0.9566 0.270108,-0.1415 0.501024,-0.335 0.751063,-0.5066 0.770561,-0.5382 1.440842,-1.1961 1.973306,-1.9734 0.226784,-0.3306 0.495865,-0.6267 0.669579,-0.9918 -0.05785,-0.2804 -0.315304,-0.4642 -0.315304,-0.7618 0,-0.018 0.0036,-0.034 0.0036,-0.053 -1.341712,2.2612 -3.781172,3.7943 -6.600129,3.7943 -3.009433,0 -5.586588,-1.7441 -6.851663,-4.2619 -0.09713,0.1378 -0.27246,0.1969 -0.375531,0.3295 z"
       id="path4700" />
    <path
       id="path4187"
       d="m 60.151513,1004.8846 c 0,7.0859 -5.748905,12.8296 -12.833011,12.8296 -7.084141,0 -12.826118,-5.7437 -12.826118,-12.8296 0,-7.08615 5.741995,-12.82964 12.826118,-12.82964 7.084106,0 12.833011,5.74349 12.833011,12.82964 z"
       inkscape:connector-curvature="0"
       style="fill:#00bce2;fill-opacity:1;stroke:none" />
    <path
       style="fill:#323232;fill-opacity:1;stroke:none"
       inkscape:connector-curvature="0"
       d="m 58.440912,1004.8846 c 0,6.1412 -4.982395,11.1189 -11.121956,11.1189 -6.139562,0 -11.115952,-4.9777 -11.115952,-11.1189 0,-6.1413 4.97639,-11.11896 11.115952,-11.11896 6.139561,0 11.121956,4.97766 11.121956,11.11896 z"
       id="path4160" />
    <path
       inkscape:connector-curvature="0"
       style="fill:#1e2022;fill-opacity:0.31372549;stroke:none"
       d="m 56.022575,1010.1724 c -2.034815,2.6178 -5.133527,4.3823 -8.704517,4.3823 -4.49689,0 -8.360479,-2.6765 -10.110986,-6.5187 -0.07927,0.033 -0.167422,0.045 -0.247991,0.074 0.630706,0.7449 1.023852,1.6969 1.023852,2.7493 0,0.018 -0.0036,0.024 -0.0036,0.034 1.976805,3.0695 5.416578,5.1087 9.338667,5.1087 3.751892,0 7.065402,-1.8645 9.080047,-4.712 0.05327,0.1052 0.175946,0.156 0.233822,0.2587 -0.13869,-0.2472 -0.359947,-0.4348 -0.471185,-0.698 -0.08839,-0.2089 -0.0682,-0.4622 -0.138164,-0.6802 z"
       id="path4743" />
    <path
       inkscape:connector-curvature="0"
       style="fill:#1e2022;fill-opacity:0.31372549;stroke:none"
       d="m 16.595408,1007.6181 c -0.02304,0.2427 -0.07437,0.4774 -0.07437,0.7263 0,4.2515 3.444402,7.6946 7.69484,7.6946 2.145154,0 4.083996,-0.8795 5.480614,-2.2956 0.591472,1.6524 2.154876,2.8413 4.010389,2.8413 2.361404,0 4.276086,-1.9141 4.276086,-4.2761 0,-0.2619 -0.02449,-0.5175 -0.07092,-0.7653 -0.329419,2.0345 -2.078294,3.5924 -4.205236,3.5924 -1.855512,0 -3.418917,-1.1888 -4.010388,-2.8412 -1.396618,1.4161 -3.335461,2.2956 -5.480614,2.2956 -4.002371,0 -7.250312,-3.066 -7.620435,-6.972 z"
       id="path4726" />
    <path
       style="fill:#00bce2;fill-opacity:1;stroke:none"
       inkscape:connector-curvature="0"
       d="m 33.626581,1008.3427 c 0,5.1964 -4.215865,9.4085 -9.410901,9.4085 -5.195018,0 -9.405804,-4.2121 -9.405804,-9.4085 0,-5.1964 4.210786,-9.40822 9.405804,-9.40822 5.195036,0 9.410901,4.21182 9.410901,9.40822 z"
       id="path4189" />
    <path
       id="path4191"
       d="m 31.915962,1008.3427 c 0,4.2516 -3.449318,7.6978 -7.699847,7.6978 -4.250438,0 -7.69562,-3.446 -7.69562,-7.6978 0,-4.2515 3.445182,-7.6977 7.69562,-7.6977 4.250547,0 7.699847,3.4462 7.699847,7.6977 z"
       inkscape:connector-curvature="0"
       style="fill:#323232;fill-opacity:1;stroke:none" />
    <path
       id="path4193"
       d="m 39.694658,1012.3088 c 0,3.3067 -2.682807,5.9871 -5.988756,5.9871 -3.30593,0 -5.985508,-2.6804 -5.985508,-5.9871 0,-3.3069 2.679578,-5.9873 5.985508,-5.9873 3.305949,0 5.988756,2.6804 5.988756,5.9873 z"
       inkscape:connector-curvature="0"
       style="fill:#00bce2;fill-opacity:1;stroke:none" />
    <path
       style="fill:#323232;fill-opacity:1;stroke:none"
       inkscape:connector-curvature="0"
       d="m 37.984056,1012.3088 c 0,2.3618 -1.916296,4.2764 -4.2777,4.2764 -2.361351,0 -4.275343,-1.9146 -4.275343,-4.2764 0,-2.362 1.913992,-4.2766 4.275343,-4.2766 2.361404,0 4.2777,1.9146 4.2777,4.2766 z"
       id="path4195" />
  </g>
</svg>
