<?xml version="1.0" encoding="UTF-8" standalone="no"?>
<!-- Created with Inkscape (http://www.inkscape.org/) -->

<svg
   xmlns:dc="http://purl.org/dc/elements/1.1/"
   xmlns:cc="http://creativecommons.org/ns#"
   xmlns:rdf="http://www.w3.org/1999/02/22-rdf-syntax-ns#"
   xmlns:svg="http://www.w3.org/2000/svg"
   xmlns="http://www.w3.org/2000/svg"
   xmlns:xlink="http://www.w3.org/1999/xlink"
   xmlns:sodipodi="http://sodipodi.sourceforge.net/DTD/sodipodi-0.dtd"
   xmlns:inkscape="http://www.inkscape.org/namespaces/inkscape"
   width="96"
   height="96"
   id="svg2"
   version="1.1"
   inkscape:version="0.48.4 r9939"
   sodipodi:docname="chrome-apdfllckaahabafndbhieahigkjlhalf-Default.svg">
  <defs
     id="defs4">
    <linearGradient
       id="linearGradient3774">
      <stop
         style="stop-color:#ed0091;stop-opacity:1;"
         offset="0"
         id="stop3776" />
      <stop
         style="stop-color:#ff4bb9;stop-opacity:1;"
         offset="1"
         id="stop3778" />
    </linearGradient>
    <linearGradient
       inkscape:collect="always"
       xlink:href="#linearGradient3774"
       id="linearGradient3780"
       x1="50"
       y1="1047.3622"
       x2="50"
       y2="957.36218"
       gradientUnits="userSpaceOnUse" />
  </defs>
  <sodipodi:namedview
     id="base"
     pagecolor="#ffffff"
     bordercolor="#666666"
     borderopacity="1.0"
     inkscape:pageopacity="0.0"
     inkscape:pageshadow="2"
     inkscape:zoom="5.90625"
     inkscape:cx="42.534573"
     inkscape:cy="48"
     inkscape:document-units="px"
     inkscape:current-layer="layer1"
     showgrid="true"
     inkscape:snap-page="true"
     inkscape:snap-global="true"
     inkscape:snap-center="true"
     inkscape:snap-object-midpoints="false"
     showguides="true"
     inkscape:guide-bbox="true"
     inkscape:snap-bbox="true"
     inkscape:object-paths="true"
     inkscape:object-nodes="true"
     inkscape:window-width="1305"
     inkscape:window-height="744"
     inkscape:window-x="61"
     inkscape:window-y="24"
     inkscape:window-maximized="1"
     inkscape:snap-midpoints="true"
     inkscape:snap-grids="true"
     inkscape:snap-to-guides="false">
    <inkscape:grid
       type="xygrid"
       id="grid3002"
       empspacing="5"
       visible="true"
       enabled="true"
       snapvisiblegridlinesonly="true" />
  </sodipodi:namedview>
  <metadata
     id="metadata7">
    <rdf:RDF>
      <cc:Work
         rdf:about="">
        <dc:format>image/svg+xml</dc:format>
        <dc:type
           rdf:resource="http://purl.org/dc/dcmitype/StillImage" />
        <dc:title />
      </cc:Work>
    </rdf:RDF>
  </metadata>
  <g
     inkscape:label="Layer 1"
     inkscape:groupmode="layer"
     id="layer1"
     transform="translate(0,-956.36218)">
    <rect
       style="fill:#ffffff;fill-opacity:0;fill-rule:nonzero;stroke:none"
       id="rect3775"
       width="96"
       height="96"
       x="0"
       y="956.36218"
       ry="0" />
    <path
       style="fill:#000000;fill-opacity:0.09589041;fill-rule:nonzero;stroke:none"
       d="m 3.353015,956.30662 c -1.884176,0 -3.4111555,1.43156 -3.4111555,3.19799 l 0,83.65949 c 0,1.7665 1.5269795,3.1981 3.4111555,3.1981 l 89.23583,0 c 1.884174,0 3.411155,-1.4316 3.411155,-3.1981 l 0,-83.65949 c 0,-1.76643 -1.526981,-3.19799 -3.411155,-3.19799 z"
       id="rect3772"
       inkscape:connector-curvature="0"
       sodipodi:nodetypes="sssssssss" />
    <path
       style="fill:#000000;fill-opacity:0.18721463;fill-rule:nonzero;stroke:none"
       d="m 1.0459761,1041.8066 0,7.4219 c 0,1.7392 1.461916,3.1337 3.2852054,3.1337 l 86.3836135,0 c 1.823288,0 3.285205,-1.3945 3.285205,-3.1337 l 0,-7.4219 -92.9540239,0 z"
       id="rect3785"
       inkscape:connector-curvature="0" />
    <path
       style="fill:#000000;fill-opacity:0.38356168;fill-rule:nonzero;stroke:none"
       d="m 1.0459761,1041.8066 0,5.3807 c 0,1.762 1.461916,3.1749 3.2852054,3.1749 l 86.3836135,0 c 1.823288,0 3.285205,-1.4129 3.285205,-3.1749 l 0,-5.3807 -92.9540239,0 z"
       id="rect3783"
       inkscape:connector-curvature="0" />
    <rect
       style="fill:url(#linearGradient3780);fill-opacity:1;fill-rule:nonzero;stroke:none"
       id="rect2985"
       width="92.954025"
       height="89"
       x="1.045977"
       y="957.36218"
       ry="3.1511393" />
    <path
       style="fill:#000000;fill-opacity:0.11764706;fill-rule:nonzero;stroke:none"
       d="M 40.15625,978.36218 16.75,1017.2684 l 7.3125,12.125 46.90625,-0.062 7.34375,-12.125 -23.53125,-38.84372 -14.625,0 z m 7.3125,12.125 16.15625,26.71872 -32.25,0.031 16.09375,-26.75002 z"
       id="path3812"
       inkscape:connector-curvature="0" />
    <path
       inkscape:connector-curvature="0"
       style="opacity:0.53497942;fill:#fbce4b;fill-opacity:1;fill-rule:nonzero;stroke:none"
       d="m 94.000002,1015.1724 0,-54.66476 c 0,-0.87287 -0.373398,-1.64881 -0.96827,-2.21838 -0.594873,-0.56956 -1.405291,-0.92708 -2.316935,-0.92708 l -61.969351,0 34.892341,57.84332 14.62781,0 15.734405,-0.033 z"
       id="path3039" />
    <path
       inkscape:connector-curvature="0"
       style="opacity:0.53497942;fill:#15a864;fill-opacity:1;fill-rule:nonzero;stroke:none"
       d="m 28.676284,957.36218 -24.3451015,0 c -0.9116465,0 -1.7220617,0.35752 -2.3169344,0.92708 -0.5948726,0.56957 -0.9682711,1.34551 -0.9682711,2.21838 l 0,82.70906 c 0,0.8729 0.3733985,1.6488 0.9682711,2.2184 0.5948727,0.5696 1.4052879,0.9271 2.3169344,0.9271 l 8.2303055,0 34.92692,-57.90962 -7.331196,-12.08519 -11.480928,-19.00521 z"
       id="path3034" />
    <path
       style="opacity:0.53497942;fill:#3476dd;fill-opacity:1;fill-rule:nonzero;stroke:none"
       d="m 12.63065,1046.3622 78.084147,0 c 0.911644,0 1.722062,-0.3575 2.316935,-0.9271 0.594872,-0.5696 0.96827,-1.3455 0.96827,-2.2184 l 0,-27.945 -62.660974,0 -7.296614,12.1183 -11.411764,18.9722 z"
       id="rect3008"
       inkscape:connector-curvature="0" />
    <path
       inkscape:connector-curvature="0"
       id="path3820"
       d="M 40.15625,980.36218 16.75,1019.2684 l 7.3125,12.125 46.90625,-0.062 7.34375,-12.125 -23.53125,-38.84372 -14.625,0 z m 7.3125,12.125 16.15625,26.71872 -32.25,0.031 16.09375,-26.75002 z"
       style="fill:#000000;fill-opacity:0.11764706;fill-rule:nonzero;stroke:none" />
    <path
       style="fill:#000000;fill-opacity:0.11764706;fill-rule:nonzero;stroke:none"
       d="M 40.15625,982.36218 16.75,1021.2684 l 7.3125,12.125 46.90625,-0.062 7.34375,-12.125 -23.53125,-38.84372 -14.625,0 z m 7.3125,12.125 16.15625,26.71872 -32.25,0.031 16.09375,-26.75002 z"
       id="path3822"
       inkscape:connector-curvature="0" />
    <path
       inkscape:connector-curvature="0"
       id="path3033"
       d="m 24.056443,1027.3977 30.730593,-51.02753 -14.638548,-0.008 -23.404489,38.90303 7.30958,12.1345 z"
       style="fill:#15a864;fill-opacity:1;fill-rule:nonzero;stroke:none"
       sodipodi:nodetypes="cccccc" />
    <path
       sodipodi:nodetypes="cccccc"
       inkscape:connector-curvature="0"
       id="path3042"
       d="m 40.148488,976.36543 30.82377,50.97317 7.329722,-12.1231 -23.514944,-38.84253 -14.639147,-0.0108 z"
       style="fill:#fbce4b;fill-opacity:1;fill-rule:nonzero;stroke:none" />
    <path
       style="fill:#3476dd;fill-opacity:1;fill-rule:nonzero;stroke:none"
       d="m 78.295506,1015.206 -46.925916,0.043 -7.316011,12.1507 46.915815,-0.059 7.329722,-12.133 z"
       id="path3035"
       inkscape:connector-curvature="0"
       sodipodi:nodetypes="cccccc" />
    <path
       sodipodi:nodetypes="cccc"
       inkscape:connector-curvature="0"
       id="path3049"
       d="m 39.452168,1015.2386 -8.082578,0.011 -7.316011,12.1542 z"
       style="fill:#295eaf;fill-opacity:1;fill-rule:nonzero;stroke:none" />
    <path
       style="fill:#000000;fill-opacity:0.38356168;fill-rule:nonzero;stroke:none"
       d="m 1,1042.3622 0.045976,2.7457 c 0.03024,1.8058 1.461916,3.2543 3.2852054,3.2543 l 86.3836136,0 c 1.823288,0 3.285205,-1.4481 3.285205,-3.2543 l -0.04598,-2.7457 z"
       id="rect3781"
       inkscape:connector-curvature="0"
       sodipodi:nodetypes="csssscc" />
    <rect
       style="fill:#ffffff;fill-opacity:0.17351598;fill-rule:nonzero;stroke:none"
       id="rect3770"
       width="92.954033"
       height="2.000005"
       x="1.045976"
       y="1040.3622" />
    <path
       sodipodi:nodetypes="cccc"
       inkscape:connector-curvature="0"
       id="path3821"
       d="m 43.450123,995.17381 4.033825,-6.70618 -7.33546,-12.14328 z"
       style="fill:#0b5935;fill-opacity:1;fill-rule:nonzero;stroke:none" />
    <path
       style="fill:#b09035;fill-opacity:1;fill-rule:nonzero;stroke:none"
       d="m 59.598087,1008.5199 4.048804,6.6979 14.651381,-0.01 z"
       id="path3819"
       inkscape:connector-curvature="0"
       sodipodi:nodetypes="cccc" />
  </g>
</svg>
