<?xml version="1.0" encoding="UTF-8" standalone="no"?>
<!-- Created with Inkscape (http://www.inkscape.org/) -->

<svg
   xmlns:dc="http://purl.org/dc/elements/1.1/"
   xmlns:cc="http://creativecommons.org/ns#"
   xmlns:rdf="http://www.w3.org/1999/02/22-rdf-syntax-ns#"
   xmlns:svg="http://www.w3.org/2000/svg"
   xmlns="http://www.w3.org/2000/svg"
   xmlns:sodipodi="http://sodipodi.sourceforge.net/DTD/sodipodi-0.dtd"
   xmlns:inkscape="http://www.inkscape.org/namespaces/inkscape"
   width="96"
   height="96"
   id="svg2"
   version="1.1"
   inkscape:version="0.48.4 r9939"
   sodipodi:docname="google.svg">
  <defs
     id="defs4" />
  <sodipodi:namedview
     id="base"
     pagecolor="#ffffff"
     bordercolor="#666666"
     borderopacity="1.0"
     inkscape:pageopacity="0.0"
     inkscape:pageshadow="2"
     inkscape:zoom="5.90625"
     inkscape:cx="48"
     inkscape:cy="48"
     inkscape:document-units="px"
     inkscape:current-layer="layer1"
     showgrid="true"
     inkscape:snap-page="true"
     inkscape:snap-global="true"
     inkscape:snap-center="true"
     inkscape:snap-object-midpoints="false"
     showguides="true"
     inkscape:guide-bbox="true"
     inkscape:snap-bbox="true"
     inkscape:object-paths="true"
     inkscape:object-nodes="true"
     inkscape:window-width="1305"
     inkscape:window-height="744"
     inkscape:window-x="61"
     inkscape:window-y="24"
     inkscape:window-maximized="1"
     inkscape:snap-midpoints="false"
     inkscape:snap-grids="true"
     inkscape:snap-to-guides="false">
    <inkscape:grid
       type="xygrid"
       id="grid3002"
       empspacing="5"
       visible="true"
       enabled="true"
       snapvisiblegridlinesonly="true" />
  </sodipodi:namedview>
  <metadata
     id="metadata7">
    <rdf:RDF>
      <cc:Work
         rdf:about="">
        <dc:format>image/svg+xml</dc:format>
        <dc:type
           rdf:resource="http://purl.org/dc/dcmitype/StillImage" />
        <dc:title />
      </cc:Work>
    </rdf:RDF>
  </metadata>
  <g
     inkscape:label="Layer 1"
     inkscape:groupmode="layer"
     id="layer1"
     transform="translate(0,-956.36218)">
    <rect
       style="fill:#ffffff;fill-opacity:0;fill-rule:nonzero;stroke:none"
       id="rect3775"
       width="96"
       height="96"
       x="0"
       y="956.36218"
       ry="0" />
    <path
       style="fill:#000000;fill-opacity:0.09589041;fill-rule:nonzero;stroke:none"
       d="m 3.353015,956.30662 c -1.884176,0 -3.4111555,1.43156 -3.4111555,3.19799 l 0,83.65949 c 0,1.7665 1.5269795,3.1981 3.4111555,3.1981 l 89.23583,0 c 1.884174,0 3.411155,-1.4316 3.411155,-3.1981 l 0,-83.65949 c 0,-1.76643 -1.526981,-3.19799 -3.411155,-3.19799 z"
       id="rect3772"
       inkscape:connector-curvature="0"
       sodipodi:nodetypes="sssssssss" />
    <path
       style="fill:#000000;fill-opacity:0.18721463;fill-rule:nonzero;stroke:none"
       d="m 1.0459761,1041.8066 0,7.4219 c 0,1.7392 1.461916,3.1337 3.2852054,3.1337 l 86.3836135,0 c 1.823288,0 3.285205,-1.3945 3.285205,-3.1337 l 0,-7.4219 -92.9540239,0 z"
       id="rect3785"
       inkscape:connector-curvature="0" />
    <path
       style="fill:#000000;fill-opacity:0.38356168;fill-rule:nonzero;stroke:none"
       d="m 1.0459761,1041.8066 0,5.3807 c 0,1.762 1.461916,3.1749 3.2852054,3.1749 l 86.3836135,0 c 1.823288,0 3.285205,-1.4129 3.285205,-3.1749 l 0,-5.3807 -92.9540239,0 z"
       id="rect3783"
       inkscape:connector-curvature="0" />
    <rect
       style="fill:#2a7fff;fill-opacity:1;fill-rule:nonzero;stroke:none"
       id="rect2985-1"
       width="93"
       height="89.000008"
       x="0.99999738"
       y="957.36218"
       ry="3.1511397" />
    <path
       style="fill:#000000;fill-opacity:0.38356168;fill-rule:nonzero;stroke:none"
       d="m 1,1042.3622 0.045976,2.7457 c 0.03024,1.8058 1.461916,3.2543 3.2852054,3.2543 l 86.3836136,0 c 1.823288,0 3.285205,-1.4481 3.285205,-3.2543 l -0.04598,-2.7457 z"
       id="rect3781"
       inkscape:connector-curvature="0"
       sodipodi:nodetypes="csssscc" />
    <rect
       style="fill:#ffffff;fill-opacity:0.30000001;fill-rule:nonzero;stroke:none"
       id="rect3770"
       width="92.954033"
       height="2.000005"
       x="1.045976"
       y="1040.3622" />
    <path
       style="font-style:normal;font-variant:normal;font-weight:normal;font-stretch:normal;letter-spacing:normal;word-spacing:normal;text-anchor:start;fill:#ffffff;fill-opacity:1;fill-rule:nonzero;stroke:#0099ff;stroke-width:0;stroke-linecap:butt;stroke-linejoin:miter;stroke-miterlimit:10.43299961;stroke-opacity:1;stroke-dasharray:none;stroke-dashoffset:0"
       id="path208"
       inkscape:connector-curvature="0"
       d="m 33.319129,976.09119 c -4.012718,0 -9.039914,0.61627 -13.276495,4.20805 -3.195243,2.82603 -4.757431,6.72181 -4.757411,10.23566 0,5.95768 4.474957,11.9801 12.354506,11.9801 0.742845,0 1.542826,-0.081 2.360271,-0.1528 -0.373114,0.917 -0.737573,1.6966 -0.737584,2.9951 0,2.3656 1.171424,3.8169 2.212742,5.1925 -3.344484,0.2296 -9.592154,0.623 -14.198466,3.5257 -4.389216,2.675 -5.716258,6.5744 -5.716258,9.3255 0,5.6547 5.188961,10.9172 15.968653,10.9172 12.787792,0 19.582939,-7.2599 19.582939,-14.4426 0,-5.2716 -2.999688,-7.8635 -6.269529,-10.6913 l -2.655315,-2.1603 c -0.81748,-0.6878 -1.954595,-1.5794 -1.954602,-3.2608 0,-1.6814 1.1388,-2.7589 2.102113,-3.7515 3.123905,-2.52042 6.232657,-5.18702 6.232657,-10.84205 l 0,-0.56916 -0.03718,-0.49357 -0.03697,-0.53051 -0.07332,-0.49252 -0.111108,-0.45515 -0.07332,-0.45346 -0.111523,-0.45559 -0.147044,-0.41651 -0.147045,-0.41693 -0.147044,-0.41781 -0.147044,-0.37894 -0.184425,-0.37999 -0.184426,-0.34117 -0.184424,-0.34115 -0.221269,-0.34094 -0.184425,-0.34117 -0.221312,-0.30251 -0.221226,-0.304 -0.184425,-0.26536 -0.22131,-0.26557 -0.221248,-0.26495 -0.221312,-0.22756 -0.221247,-0.26538 -0.221269,-0.22715 -0.221327,-0.18894 -0.221211,-0.18895 -0.184427,-0.18893 -0.221326,-0.18895 -0.184428,-0.18893 -0.184343,-0.15073 -0.147435,-0.15072 -0.18441,-0.15073 4.60987,0 4.757428,-2.72944 -15.342715,0 z m -4.646768,2.50206 c 6.17339,0 9.36732,8.56365 9.367304,14.06329 l 0,0.15073 0,0.12313 0,0.15073 -0.03695,0.15073 0,0.15073 0,0.15073 0,0.1868 -0.03695,0.15074 0,0.18894 -0.03695,0.15073 0,0.18893 -0.03695,0.18896 -0.03695,0.15066 -0.03695,0.189 -0.03695,0.1868 -0.03695,0.1868 -0.03695,0.189 -0.07364,0.1889 -0.07366,0.1889 -0.03695,0.1869 -0.07366,0.1868 -0.110718,0.1889 -0.07366,0.189 -0.07366,0.1889 -0.110718,0.1889 -0.110717,0.1868 -0.110719,0.189 -0.110708,0.1508 -0.147502,0.1889 -0.110718,0.1889 -0.184402,0.1507 -0.14746,0.189 c -1.190585,1.2215 -3.19365,2.12212 -5.052443,2.12212 -6.393879,0 -9.293548,-8.49027 -9.293548,-13.60906 0,-1.98705 0.397747,-4.04416 1.659564,-5.64823 1.191148,-1.50346 3.270472,-2.51356 5.200518,-2.51356 z m 3.614147,34.11745 0.07365,0 0.07366,0 0.07366,0 0.07365,0 0.03692,0 0.07365,0 0.03692,0 0.07364,0 0.07366,0 0.03692,0 0.110713,0 0.110724,0 0.07366,0 0.110713,0 0.07366,0 0.110714,0 0.110724,0 0.07366,0.028 0.110714,0 0.110724,0 0.03692,0 0.07366,0.028 c 5.650961,4.1284 8.11337,6.1849 8.11337,10.0839 0,4.7386 -3.816347,8.2262 -10.953077,8.2262 -7.954178,0 -13.055211,-3.901 -13.055211,-9.3255 0,-5.4279 4.741772,-7.237 6.380086,-7.8471 3.120694,-1.0507 7.113361,-1.1927 7.781554,-1.1927 z"
       sodipodi:nodetypes="ccsscsccsssccscsccccccccccccccccccccccccccccccccccccssccccccccccccccccccccccccccccccccsscscccccccccccccccccccccccsssccc" />
  </g>
</svg>
