<?xml version="1.0" encoding="UTF-8" standalone="no"?>
<!-- Created with Inkscape (http://www.inkscape.org/) -->

<svg
   xmlns:dc="http://purl.org/dc/elements/1.1/"
   xmlns:cc="http://creativecommons.org/ns#"
   xmlns:rdf="http://www.w3.org/1999/02/22-rdf-syntax-ns#"
   xmlns:svg="http://www.w3.org/2000/svg"
   xmlns="http://www.w3.org/2000/svg"
   xmlns:xlink="http://www.w3.org/1999/xlink"
   xmlns:sodipodi="http://sodipodi.sourceforge.net/DTD/sodipodi-0.dtd"
   xmlns:inkscape="http://www.inkscape.org/namespaces/inkscape"
   width="96"
   height="96"
   id="svg2"
   version="1.1"
   inkscape:version="0.48.4 r9939"
   sodipodi:docname="googleplus.svg">
  <defs
     id="defs4">
    <linearGradient
       id="linearGradient3766">
      <stop
         style="stop-color:#970014;stop-opacity:1;"
         offset="0"
         id="stop3768" />
      <stop
         style="stop-color:#e81114;stop-opacity:1;"
         offset="1"
         id="stop3770" />
    </linearGradient>
    <linearGradient
       inkscape:collect="always"
       xlink:href="#linearGradient3766"
       id="linearGradient3772"
       x1="40"
       y1="-1047.3622"
       x2="40"
       y2="-957.36218"
       gradientUnits="userSpaceOnUse" />
  </defs>
  <sodipodi:namedview
     id="base"
     pagecolor="#ffffff"
     bordercolor="#666666"
     borderopacity="1.0"
     inkscape:pageopacity="0.0"
     inkscape:pageshadow="2"
     inkscape:zoom="5.90625"
     inkscape:cx="21.437698"
     inkscape:cy="48"
     inkscape:document-units="px"
     inkscape:current-layer="layer1"
     showgrid="true"
     inkscape:snap-page="true"
     inkscape:snap-global="true"
     inkscape:snap-center="true"
     inkscape:snap-object-midpoints="false"
     showguides="true"
     inkscape:guide-bbox="true"
     inkscape:snap-bbox="true"
     inkscape:object-paths="true"
     inkscape:object-nodes="true"
     inkscape:window-width="1305"
     inkscape:window-height="744"
     inkscape:window-x="61"
     inkscape:window-y="24"
     inkscape:window-maximized="1"
     inkscape:snap-midpoints="false"
     inkscape:snap-grids="true"
     inkscape:snap-to-guides="false">
    <inkscape:grid
       type="xygrid"
       id="grid3002"
       empspacing="5"
       visible="true"
       enabled="true"
       snapvisiblegridlinesonly="true" />
  </sodipodi:namedview>
  <metadata
     id="metadata7">
    <rdf:RDF>
      <cc:Work
         rdf:about="">
        <dc:format>image/svg+xml</dc:format>
        <dc:type
           rdf:resource="http://purl.org/dc/dcmitype/StillImage" />
        <dc:title />
      </cc:Work>
    </rdf:RDF>
  </metadata>
  <g
     inkscape:label="Layer 1"
     inkscape:groupmode="layer"
     id="layer1"
     transform="translate(0,-956.36218)">
    <rect
       style="fill:#ffffff;fill-opacity:0;fill-rule:nonzero;stroke:none"
       id="rect3775"
       width="96"
       height="96"
       x="0"
       y="956.36218"
       ry="0" />
    <path
       style="fill:#000000;fill-opacity:0.09589041;fill-rule:nonzero;stroke:none"
       d="m 3.353015,956.30662 c -1.884176,0 -3.4111555,1.43156 -3.4111555,3.19799 l 0,83.65949 c 0,1.7665 1.5269795,3.1981 3.4111555,3.1981 l 89.23583,0 c 1.884174,0 3.411155,-1.4316 3.411155,-3.1981 l 0,-83.65949 c 0,-1.76643 -1.526981,-3.19799 -3.411155,-3.19799 z"
       id="rect3772"
       inkscape:connector-curvature="0"
       sodipodi:nodetypes="sssssssss" />
    <path
       style="fill:#000000;fill-opacity:0.18721463;fill-rule:nonzero;stroke:none"
       d="m 1.0459761,1041.8066 0,7.4219 c 0,1.7392 1.461916,3.1337 3.2852054,3.1337 l 86.3836135,0 c 1.823288,0 3.285205,-1.3945 3.285205,-3.1337 l 0,-7.4219 -92.9540239,0 z"
       id="rect3785"
       inkscape:connector-curvature="0" />
    <path
       style="fill:#000000;fill-opacity:0.38356168;fill-rule:nonzero;stroke:none"
       d="m 1.0459761,1041.8066 0,5.3807 c 0,1.762 1.461916,3.1749 3.2852054,3.1749 l 86.3836135,0 c 1.823288,0 3.285205,-1.4129 3.285205,-3.1749 l 0,-5.3807 -92.9540239,0 z"
       id="rect3783"
       inkscape:connector-curvature="0" />
    <rect
       style="fill:url(#linearGradient3772);fill-opacity:1;fill-rule:nonzero;stroke:none"
       id="rect2985"
       width="92.954025"
       height="89"
       x="1.045977"
       y="-1046.3622"
       ry="3.1511393"
       transform="scale(1,-1)" />
    <path
       style="fill:#000000;fill-opacity:0.38356168;fill-rule:nonzero;stroke:none"
       d="m 1,1042.3622 0.045976,2.7457 c 0.03024,1.8058 1.461916,3.2543 3.2852054,3.2543 l 86.3836136,0 c 1.823288,0 3.285205,-1.4481 3.285205,-3.2543 l -0.04598,-2.7457 z"
       id="rect3781"
       inkscape:connector-curvature="0"
       sodipodi:nodetypes="csssscc" />
    <rect
       style="fill:#ffffff;fill-opacity:0.30000001;fill-rule:nonzero;stroke:none"
       id="rect3770"
       width="92.954033"
       height="2.000005"
       x="1.045976"
       y="1040.3622" />
    <path
       style="font-style:normal;font-variant:normal;font-weight:normal;font-stretch:normal;letter-spacing:normal;word-spacing:normal;text-anchor:start;fill:#ffffff;fill-opacity:1;fill-rule:nonzero;stroke:#0099ff;stroke-width:0;stroke-linecap:butt;stroke-linejoin:miter;stroke-miterlimit:10.43299961;stroke-opacity:1;stroke-dasharray:none;stroke-dashoffset:0"
       id="path208"
       inkscape:connector-curvature="0"
       d="m 50.350623,967.35342 c -3.720935,0 -8.382588,0.57146 -12.311108,3.90206 -2.9629,2.62054 -4.41149,6.23303 -4.41147,9.49138 0,5.52452 4.14956,11.10892 11.456152,11.10892 0.688829,0 1.43064,-0.075 2.188646,-0.1417 -0.345983,0.8504 -0.683942,1.5733 -0.683951,2.7774 0,2.1936 1.086245,3.5393 2.051844,4.8149 -3.101292,0.2129 -8.89467,0.5777 -13.16603,3.26942 -4.07006,2.4804 -5.30061,6.0963 -5.30061,8.6473 0,5.2436 4.81165,10.1234 14.807505,10.1234 11.857936,0 18.158978,-6.732 18.158978,-13.3924 0,-4.8883 -2.781567,-7.2917 -5.813644,-9.91392 l -2.462235,-2.0032 c -0.758038,-0.6378 -1.812468,-1.4646 -1.812476,-3.0236 0,-1.5592 1.055993,-2.5584 1.94926,-3.4789 2.896752,-2.3371 5.779453,-4.8098 5.779453,-10.0536 l 0,-0.52777 -0.03447,-0.45768 -0.03428,-0.49195 -0.06799,-0.4567 -0.10303,-0.42206 -0.06799,-0.42048 -0.103414,-0.42246 -0.136352,-0.38623 -0.136352,-0.38662 -0.136352,-0.38741 -0.136352,-0.35139 -0.171015,-0.35237 -0.171015,-0.31634 -0.171014,-0.31635 -0.20518,-0.31615 -0.171016,-0.31635 -0.205217,-0.28052 -0.205141,-0.28189 -0.171015,-0.24607 -0.205218,-0.24626 -0.20516,-0.24568 -0.205219,-0.21103 -0.205159,-0.24607 -0.20518,-0.21063 -0.205233,-0.17521 -0.205125,-0.1752 -0.171017,-0.1752 -0.205233,-0.17521 -0.171017,-0.17519 -0.170939,-0.13977 -0.136714,-0.13977 -0.171001,-0.13976 4.274665,0 4.411495,-2.53097 -14.227079,0 z m 24.690636,0 0,8.99923 -8.754601,0 0,2.25045 8.754601,0 0,8.99828 2.188607,0 0,-8.99828 8.754517,0 0,-2.25045 -8.754517,0 0,-8.99923 -2.188607,0 z m -28.999518,2.32012 c 5.724497,0 8.686183,7.94095 8.686167,13.04064 l 0,0.1398 0,0.1142 0,0.1397 -0.03426,0.1398 0,0.1398 0,0.1397 0,0.1733 -0.03426,0.1397 0,0.1752 -0.03426,0.1398 0,0.1752 -0.03426,0.1752 -0.03426,0.1398 -0.03426,0.1752 -0.03426,0.1732 -0.03426,0.1732 -0.03426,0.1753 -0.0683,0.1752 -0.0683,0.1751 -0.03426,0.1733 -0.0683,0.1732 -0.102668,0.1752 -0.0683,0.1753 -0.0683,0.1752 -0.102667,0.1751 -0.102667,0.1732 -0.102668,0.1752 -0.102658,0.1399 -0.136776,0.1752 -0.102668,0.1751 -0.170993,0.1398 -0.136737,0.1752 c -1.104014,1.1327 -2.961426,1.9678 -4.685059,1.9678 -5.928952,0 -8.617782,-7.8728 -8.617782,-12.61943 0,-1.84257 0.36883,-3.75009 1.5389,-5.23754 1.10453,-1.39412 3.032661,-2.33077 4.822371,-2.33077 z m 3.351347,31.63666 0.0683,0 0.0683,0 0.06829,0 0.0683,0 0.03424,0 0.06829,0 0.03424,0 0.0683,0 0.0683,0 0.03424,0 0.102663,0 0.102673,0 0.0683,0 0.102663,0 0.0683,0 0.102663,0 0.102673,0 0.0683,0.026 0.102663,0 0.102674,0 0.03424,0 0.0683,0.026 c 5.240055,3.8282 7.523412,5.7352 7.523412,9.3507 0,4.394 -3.538844,7.6281 -10.156631,7.6281 -7.375795,0 -12.105915,-3.6174 -12.105915,-8.6475 0,-5.0332 4.39698,-6.7108 5.91617,-7.2765 2.893772,-0.9743 6.596114,-1.106 7.21572,-1.106 z" />
  </g>
</svg>
