<?xml version="1.0" encoding="UTF-8" standalone="no"?>
<!-- Created with Inkscape (http://www.inkscape.org/) -->

<svg
   xmlns:dc="http://purl.org/dc/elements/1.1/"
   xmlns:cc="http://creativecommons.org/ns#"
   xmlns:rdf="http://www.w3.org/1999/02/22-rdf-syntax-ns#"
   xmlns:svg="http://www.w3.org/2000/svg"
   xmlns="http://www.w3.org/2000/svg"
   xmlns:xlink="http://www.w3.org/1999/xlink"
   xmlns:sodipodi="http://sodipodi.sourceforge.net/DTD/sodipodi-0.dtd"
   xmlns:inkscape="http://www.inkscape.org/namespaces/inkscape"
   width="96"
   height="96"
   id="svg2"
   version="1.1"
   inkscape:version="0.48.4 r9939"
   sodipodi:docname="googleearth.svg">
  <defs
     id="defs4">
    <linearGradient
       id="linearGradient4020">
      <stop
         id="stop4022"
         offset="0"
         style="stop-color:#003251;stop-opacity:1;" />
      <stop
         id="stop4024"
         offset="1"
         style="stop-color:#00326d;stop-opacity:0.50769234;" />
    </linearGradient>
    <linearGradient
       inkscape:collect="always"
       xlink:href="#linearGradient4020"
       id="linearGradient3061"
       gradientUnits="userSpaceOnUse"
       gradientTransform="matrix(1.8451158,0,0,1.4366114,-69.69064,1046.6131)"
       x1="24.538898"
       y1="-31.995075"
       x2="103.46027"
       y2="-31.995075" />
    <linearGradient
       inkscape:collect="always"
       xlink:href="#linearGradient4020"
       id="linearGradient3064"
       gradientUnits="userSpaceOnUse"
       gradientTransform="matrix(1.8451158,0,0,1.4366114,-69.69064,1046.6131)"
       x1="24.538898"
       y1="-31.995075"
       x2="103.46027"
       y2="-31.995075" />
    <linearGradient
       inkscape:collect="always"
       xlink:href="#linearGradient4020"
       id="linearGradient3067"
       gradientUnits="userSpaceOnUse"
       gradientTransform="matrix(1.8451158,0,0,1.4366114,-69.69064,1046.6131)"
       x1="24.538898"
       y1="-31.995075"
       x2="103.46027"
       y2="-31.995075" />
    <linearGradient
       inkscape:collect="always"
       xlink:href="#linearGradient4020"
       id="linearGradient3070"
       gradientUnits="userSpaceOnUse"
       gradientTransform="matrix(1.8451158,0,0,1.4366114,-69.69064,1046.6131)"
       x1="24.538898"
       y1="-31.995075"
       x2="103.46027"
       y2="-31.995075" />
  </defs>
  <sodipodi:namedview
     id="base"
     pagecolor="#ffffff"
     bordercolor="#666666"
     borderopacity="1.0"
     inkscape:pageopacity="0.0"
     inkscape:pageshadow="2"
     inkscape:zoom="5.90625"
     inkscape:cx="48"
     inkscape:cy="48"
     inkscape:document-units="px"
     inkscape:current-layer="layer1"
     showgrid="true"
     inkscape:snap-page="true"
     inkscape:snap-global="true"
     inkscape:snap-center="true"
     inkscape:snap-object-midpoints="false"
     showguides="true"
     inkscape:guide-bbox="true"
     inkscape:snap-bbox="true"
     inkscape:object-paths="true"
     inkscape:object-nodes="true"
     inkscape:window-width="1305"
     inkscape:window-height="744"
     inkscape:window-x="61"
     inkscape:window-y="24"
     inkscape:window-maximized="1"
     inkscape:snap-midpoints="false"
     inkscape:snap-grids="true"
     inkscape:snap-to-guides="false">
    <inkscape:grid
       type="xygrid"
       id="grid3002"
       empspacing="5"
       visible="true"
       enabled="true"
       snapvisiblegridlinesonly="true" />
  </sodipodi:namedview>
  <metadata
     id="metadata7">
    <rdf:RDF>
      <cc:Work
         rdf:about="">
        <dc:format>image/svg+xml</dc:format>
        <dc:type
           rdf:resource="http://purl.org/dc/dcmitype/StillImage" />
        <dc:title />
      </cc:Work>
    </rdf:RDF>
  </metadata>
  <g
     inkscape:label="Layer 1"
     inkscape:groupmode="layer"
     id="layer1"
     transform="translate(0,-956.36218)">
    <rect
       style="fill:#ffffff;fill-opacity:0;fill-rule:nonzero;stroke:none"
       id="rect3775"
       width="96"
       height="96"
       x="0"
       y="956.36218"
       ry="0" />
    <path
       style="fill:#000000;fill-opacity:0.09589041;fill-rule:nonzero;stroke:none"
       d="m 3.353015,956.30662 c -1.884176,0 -3.4111555,1.43156 -3.4111555,3.19799 l 0,83.65949 c 0,1.7665 1.5269795,3.1981 3.4111555,3.1981 l 89.23583,0 c 1.884174,0 3.411155,-1.4316 3.411155,-3.1981 l 0,-83.65949 c 0,-1.76643 -1.526981,-3.19799 -3.411155,-3.19799 z"
       id="rect3772"
       inkscape:connector-curvature="0"
       sodipodi:nodetypes="sssssssss" />
    <path
       style="fill:#000000;fill-opacity:0.18721463;fill-rule:nonzero;stroke:none"
       d="m 1.0459761,1041.8066 0,7.4219 c 0,1.7392 1.461916,3.1337 3.2852054,3.1337 l 86.3836135,0 c 1.823288,0 3.285205,-1.3945 3.285205,-3.1337 l 0,-7.4219 -92.9540239,0 z"
       id="rect3785"
       inkscape:connector-curvature="0" />
    <path
       style="fill:#000000;fill-opacity:0.38356168;fill-rule:nonzero;stroke:none"
       d="m 1.0459761,1041.8066 0,5.3807 c 0,1.762 1.461916,3.1749 3.2852054,3.1749 l 86.3836135,0 c 1.823288,0 3.285205,-1.4129 3.285205,-3.1749 l 0,-5.3807 -92.9540239,0 z"
       id="rect3783"
       inkscape:connector-curvature="0" />
    <rect
       style="fill:#0099ff;fill-opacity:1;fill-rule:nonzero;stroke:none"
       id="rect2985"
       width="93"
       height="88.999954"
       x="1.0000014"
       y="957.36224"
       ry="3.1511381" />
    <path
       inkscape:connector-curvature="0"
       style="color:#000000;fill:url(#linearGradient3070);fill-opacity:1;fill-rule:evenodd;stroke:none;stroke-width:2;marker:none;visibility:visible;display:inline;overflow:visible"
       d="m 86.215405,957.36222 c 2.744721,1.41732 5.330375,2.97027 7.784599,4.66852 l 0,-1.52306 c 0,-0.87287 -0.373583,-1.64881 -0.96875,-2.21838 -0.595167,-0.56957 -1.405985,-0.92708 -2.31808,-0.92708 l -4.497769,0 z"
       id="path3017" />
    <path
       inkscape:connector-curvature="0"
       style="color:#000000;fill:url(#linearGradient3067);fill-opacity:1;fill-rule:evenodd;stroke:none;stroke-width:2;marker:none;visibility:visible;display:inline;overflow:visible"
       d="m 1.0000004,964.71266 c 3.9996715,-2.54403 8.3405404,-4.79881 13.1127236,-5.79427 0.47753,-0.10531 0.970977,-0.19037 1.453125,-0.26488 1.446493,-0.23023 2.915228,-0.39732 4.393974,-0.39732 12.154742,0 34.857188,20.93185 43.870537,27.08407 11.837697,8.07702 20.909931,14.63132 29.097099,19.23694 0.354418,0.1994 0.712482,0.3695 1.072545,0.5629 l 0,-24.5677 c -4.611828,-5.41995 -7.61775,-11.34926 -16.018974,-16.48883 -2.743606,-1.67843 -5.456448,-3.15961 -8.130581,-4.43675 -0.89138,-0.42554 -1.692522,-0.73699 -2.594866,-1.12575 -1.064999,-0.45384 -2.227854,-0.75813 -3.321428,-1.15885 l -59.6473241,0 c -0.9120956,0 -1.7229134,0.35751 -2.3180805,0.92708 -0.595167,0.56957 -0.96875,1.34551 -0.96875,2.21838 l 0,4.20498 z"
       id="path3015" />
    <path
       inkscape:connector-curvature="0"
       style="color:#000000;fill:url(#linearGradient3064);fill-opacity:1;fill-rule:evenodd;stroke:none;stroke-width:2;marker:none;visibility:visible;display:inline;overflow:visible"
       d="m 1.0000004,1020.8343 c 3.8628526,0.7733 6.9587036,2.1284 8.4073666,2.715 7.780295,3.1471 34.650272,13.0454 64.17969,13.0454 7.853492,0 14.696246,-0.7966 20.412943,-1.821 l 0,-20.8926 C 80.524378,1009.6457 67.070312,1003.4907 57.014511,998.38564 25.879996,982.57841 23.630445,976.73163 6.63951,976.73163 c -2.010692,0 -3.8533205,0.25346 -5.6395096,0.56287 l 0,43.5398 z"
       id="path3013" />
    <path
       inkscape:connector-curvature="0"
       style="color:#000000;fill:url(#linearGradient3061);fill-opacity:1;fill-rule:evenodd;stroke:none;stroke-width:2;marker:none;visibility:visible;display:inline;overflow:visible"
       d="m 93.065852,1045.3027 c 0.53718,-0.5604 0.934152,-1.2621 0.934152,-2.086 l 0,-1.0595 c -9.610222,2.4848 -21.656108,3.6752 -31.622769,3.6752 -21.72752,0 -34.747947,-4.801 -38.680805,-4.801 -2.953051,0 -5.708706,1.1473 -5.708706,4.3043 0,0.3678 0.191545,0.6719 0.242188,1.0265 l 72.483262,0 c 0.76524,0 1.37958,-0.3787 1.9375,-0.7946 a 72.809539,56.689673 0 0 0 0.415178,-0.2649 z"
       id="path3007" />
    <path
       style="fill:#000000;fill-opacity:0.38356168;fill-rule:nonzero;stroke:none"
       d="m 1,1042.3622 0.045976,2.7457 c 0.03024,1.8058 1.461916,3.2543 3.2852054,3.2543 l 86.3836136,0 c 1.823288,0 3.285205,-1.4481 3.285205,-3.2543 l -0.04598,-2.7457 z"
       id="rect3781"
       inkscape:connector-curvature="0"
       sodipodi:nodetypes="csssscc" />
    <rect
       style="fill:#ffffff;fill-opacity:0.30000001;fill-rule:nonzero;stroke:none"
       id="rect3770"
       width="92.954033"
       height="2.000005"
       x="1.045976"
       y="1040.3622" />
  </g>
</svg>
