<?xml version="1.0" encoding="UTF-8" standalone="no"?>
<!-- Created with Inkscape (http://www.inkscape.org/) -->

<svg
   xmlns:dc="http://purl.org/dc/elements/1.1/"
   xmlns:cc="http://creativecommons.org/ns#"
   xmlns:rdf="http://www.w3.org/1999/02/22-rdf-syntax-ns#"
   xmlns:svg="http://www.w3.org/2000/svg"
   xmlns="http://www.w3.org/2000/svg"
   xmlns:sodipodi="http://sodipodi.sourceforge.net/DTD/sodipodi-0.dtd"
   xmlns:inkscape="http://www.inkscape.org/namespaces/inkscape"
   width="96"
   height="96"
   id="svg2"
   version="1.1"
   inkscape:version="0.48.4 r9939"
   sodipodi:docname="google-picasa.svg">
  <defs
     id="defs4" />
  <sodipodi:namedview
     id="base"
     pagecolor="#ffffff"
     bordercolor="#666666"
     borderopacity="1.0"
     inkscape:pageopacity="0.0"
     inkscape:pageshadow="2"
     inkscape:zoom="4.417892"
     inkscape:cx="47.170382"
     inkscape:cy="38.789858"
     inkscape:document-units="px"
     inkscape:current-layer="layer1"
     showgrid="true"
     inkscape:snap-page="true"
     inkscape:snap-global="true"
     inkscape:snap-center="true"
     inkscape:snap-object-midpoints="false"
     showguides="true"
     inkscape:guide-bbox="true"
     inkscape:snap-bbox="true"
     inkscape:object-paths="true"
     inkscape:object-nodes="true"
     inkscape:window-width="1305"
     inkscape:window-height="744"
     inkscape:window-x="61"
     inkscape:window-y="24"
     inkscape:window-maximized="1"
     inkscape:snap-midpoints="true"
     inkscape:snap-grids="true"
     inkscape:snap-to-guides="false">
    <inkscape:grid
       type="xygrid"
       id="grid3002"
       empspacing="5"
       visible="true"
       enabled="true"
       snapvisiblegridlinesonly="true" />
  </sodipodi:namedview>
  <metadata
     id="metadata7">
    <rdf:RDF>
      <cc:Work
         rdf:about="">
        <dc:format>image/svg+xml</dc:format>
        <dc:type
           rdf:resource="http://purl.org/dc/dcmitype/StillImage" />
        <dc:title />
      </cc:Work>
    </rdf:RDF>
  </metadata>
  <g
     inkscape:label="Layer 1"
     inkscape:groupmode="layer"
     id="layer1"
     transform="translate(0,-956.36218)">
    <rect
       style="fill:#ffffff;fill-opacity:0;fill-rule:nonzero;stroke:none"
       id="rect3775"
       width="96"
       height="96"
       x="0"
       y="956.36218"
       ry="0" />
    <path
       style="fill:#000000;fill-opacity:0.09589041;fill-rule:nonzero;stroke:none"
       d="m 3.353015,956.30662 c -1.884176,0 -3.4111555,1.43156 -3.4111555,3.19799 l 0,83.65949 c 0,1.7665 1.5269795,3.1981 3.4111555,3.1981 l 89.23583,0 c 1.884174,0 3.411155,-1.4316 3.411155,-3.1981 l 0,-83.65949 c 0,-1.76643 -1.526981,-3.19799 -3.411155,-3.19799 z"
       id="rect3772"
       inkscape:connector-curvature="0"
       sodipodi:nodetypes="sssssssss" />
    <path
       style="fill:#000000;fill-opacity:0.18721463;fill-rule:nonzero;stroke:none"
       d="m 1.0459761,1041.8066 0,7.4219 c 0,1.7392 1.461916,3.1337 3.2852054,3.1337 l 86.3836135,0 c 1.823288,0 3.285205,-1.3945 3.285205,-3.1337 l 0,-7.4219 -92.9540239,0 z"
       id="rect3785"
       inkscape:connector-curvature="0" />
    <path
       style="fill:#000000;fill-opacity:0.38356168;fill-rule:nonzero;stroke:none"
       d="m 1.0459761,1041.8066 0,5.3807 c 0,1.762 1.461916,3.1749 3.2852054,3.1749 l 86.3836135,0 c 1.823288,0 3.285205,-1.4129 3.285205,-3.1749 l 0,-5.3807 -92.9540239,0 z"
       id="rect3783"
       inkscape:connector-curvature="0" />
    <rect
       style="fill:#323232;fill-opacity:1;fill-rule:nonzero;stroke:none"
       id="rect2985"
       width="92.954025"
       height="89"
       x="1.045977"
       y="957.36218"
       ry="3.1511393" />
    <path
       style="fill:#000000;fill-opacity:0.38356168;fill-rule:nonzero;stroke:none"
       d="m 1,1042.3622 0.045976,2.7457 c 0.03024,1.8058 1.461916,3.2543 3.2852054,3.2543 l 86.3836136,0 c 1.823288,0 3.285205,-1.4481 3.285205,-3.2543 l -0.04598,-2.7457 z"
       id="rect3781"
       inkscape:connector-curvature="0"
       sodipodi:nodetypes="csssscc" />
    <rect
       style="fill:#ffffff;fill-opacity:0.23529412;fill-rule:nonzero;stroke:none"
       id="rect3770"
       width="92.954033"
       height="2.000005"
       x="1.045976"
       y="1040.3622" />
    <g
       id="g3875"
       transform="matrix(1.8333339,0,0,1.8333339,122.43231,-828.63574)">
      <path
         transform="matrix(0.96774194,0,0,0.96774194,-1.8064516,957.20089)"
         d="M -25,41.5 C -25,50.060414 -31.939586,57 -40.5,57 -49.060414,57 -56,50.060414 -56,41.5 -56,32.939586 -49.060414,26 -40.5,26 c 8.560414,0 15.5,6.939586 15.5,15.5 z"
         sodipodi:ry="15.5"
         sodipodi:rx="15.5"
         sodipodi:cy="41.5"
         sodipodi:cx="-40.5"
         id="path3873"
         style="fill:#ffffff;fill-opacity:1;fill-rule:evenodd;stroke:none"
         sodipodi:type="arc" />
      <path
         transform="translate(0,956.36218)"
         id="path3869"
         d="m -29,46 c 0.316178,-0.758693 0.5815,-1.551563 0.75,-2.375 0.173172,-0.846269 0.25,-1.727537 0.25,-2.625 0,-0.897463 -0.07683,-1.778731 -0.25,-2.625 -0.173172,-0.846269 -0.452332,-1.659851 -0.78125,-2.4375 -0.637201,-1.506513 -1.561828,-2.84706 -2.6875,-4 L -37,46 l 8,0 z"
         style="fill:#fdb22f;fill-opacity:1;fill-rule:evenodd;stroke:none"
         inkscape:connector-curvature="0" />
      <path
         transform="translate(0,956.36218)"
         id="path3865"
         d="M -42.09375,53.90625 C -41.728134,53.937142 -41.373607,54 -41,54 c 0.897463,0 1.778731,-0.07683 2.625,-0.25 0.846269,-0.173172 1.659851,-0.452332 2.4375,-0.78125 1.555299,-0.657836 2.948731,-1.604981 4.125,-2.78125 0.899617,-0.899617 1.51904,-2.025339 2.125,-3.15625 l -14.84375,-0.6875 2.4375,7.5625 z"
         style="fill:#2f7a12;fill-opacity:1;fill-rule:evenodd;stroke:none"
         inkscape:connector-curvature="0" />
      <path
         transform="translate(0,956.36218)"
         id="path3861"
         d="m -53.625,44 c 0.167729,0.70759 0.378123,1.404935 0.65625,2.0625 0.657836,1.555299 1.604981,2.948731 2.78125,4.125 1.176269,1.176269 2.569701,2.123414 4.125,2.78125 0.777649,0.328918 1.591231,0.608078 2.4375,0.78125 0.140728,0.0288 0.295156,0.007 0.4375,0.03125 l -4,-14.46875 L -53.625,44 z"
         style="fill:#2679db;fill-opacity:1;fill-rule:evenodd;stroke:none"
         inkscape:connector-curvature="0" />
      <path
         transform="translate(0,956.36218)"
         id="path3857"
         d="m -47.5625,30.0625 c -0.908576,0.547689 -1.879094,1.004094 -2.625,1.75 -1.176269,1.176269 -2.123414,2.569701 -2.78125,4.125 -0.328918,0.777649 -0.608078,1.591231 -0.78125,2.4375 -0.173172,0.846269 -0.25,1.727537 -0.25,2.625 0,0.641333 0.0978,1.25854 0.1875,1.875 l 12.5,-8.28125 -6.25,-4.53125 z"
         style="fill:#ac39b6;fill-opacity:1;fill-rule:evenodd;stroke:none"
         inkscape:connector-curvature="0" />
      <path
         transform="translate(0,956.36218)"
         id="path3855"
         d="m -32.59375,31.28125 c -1.019891,-0.881828 -2.083802,-1.717087 -3.34375,-2.25 C -36.715149,28.702332 -37.528731,28.423172 -38.375,28.25 -39.221269,28.076828 -40.102537,28 -41,28 c -0.897463,0 -1.778731,0.07683 -2.625,0.25 -0.846269,0.173172 -1.659851,0.452332 -2.4375,0.78125 -0.233003,0.09855 -0.399174,0.294732 -0.625,0.40625 L -35,38.75 l 2.40625,-7.46875 z"
         style="fill:#d53728;fill-opacity:1;fill-rule:evenodd;stroke:none"
         inkscape:connector-curvature="0" />
    </g>
  </g>
</svg>
