<?xml version="1.0" encoding="UTF-8" standalone="no"?>
<!-- Created with Inkscape (http://www.inkscape.org/) -->

<svg
   xmlns:dc="http://purl.org/dc/elements/1.1/"
   xmlns:cc="http://creativecommons.org/ns#"
   xmlns:rdf="http://www.w3.org/1999/02/22-rdf-syntax-ns#"
   xmlns:svg="http://www.w3.org/2000/svg"
   xmlns="http://www.w3.org/2000/svg"
   xmlns:xlink="http://www.w3.org/1999/xlink"
   xmlns:sodipodi="http://sodipodi.sourceforge.net/DTD/sodipodi-0.dtd"
   xmlns:inkscape="http://www.inkscape.org/namespaces/inkscape"
   width="96"
   height="96"
   id="svg2"
   version="1.1"
   inkscape:version="0.48.4 r9939"
   sodipodi:docname="gtk-chtheme.svg">
  <defs
     id="defs4">
    <linearGradient
       id="linearGradient3774">
      <stop
         style="stop-color:#f96b07;stop-opacity:1;"
         offset="0"
         id="stop3776" />
      <stop
         style="stop-color:#ff9f05;stop-opacity:1;"
         offset="1"
         id="stop3778" />
    </linearGradient>
    <linearGradient
       inkscape:collect="always"
       xlink:href="#linearGradient3774"
       id="linearGradient3780"
       x1="40"
       y1="1047.3622"
       x2="40"
       y2="957.36218"
       gradientUnits="userSpaceOnUse" />
  </defs>
  <sodipodi:namedview
     id="base"
     pagecolor="#ffffff"
     bordercolor="#666666"
     borderopacity="1.0"
     inkscape:pageopacity="0.0"
     inkscape:pageshadow="2"
     inkscape:zoom="10.167029"
     inkscape:cx="48.840738"
     inkscape:cy="31.001745"
     inkscape:document-units="px"
     inkscape:current-layer="layer1"
     showgrid="true"
     inkscape:snap-page="true"
     inkscape:snap-global="false"
     inkscape:snap-center="true"
     inkscape:snap-object-midpoints="false"
     showguides="true"
     inkscape:guide-bbox="true"
     inkscape:snap-bbox="true"
     inkscape:object-paths="true"
     inkscape:object-nodes="true"
     inkscape:window-width="1305"
     inkscape:window-height="744"
     inkscape:window-x="61"
     inkscape:window-y="24"
     inkscape:window-maximized="1"
     inkscape:snap-midpoints="true"
     inkscape:snap-grids="true"
     inkscape:snap-to-guides="false">
    <inkscape:grid
       type="xygrid"
       id="grid3002"
       empspacing="5"
       visible="true"
       enabled="true"
       snapvisiblegridlinesonly="true" />
  </sodipodi:namedview>
  <metadata
     id="metadata7">
    <rdf:RDF>
      <cc:Work
         rdf:about="">
        <dc:format>image/svg+xml</dc:format>
        <dc:type
           rdf:resource="http://purl.org/dc/dcmitype/StillImage" />
        <dc:title />
      </cc:Work>
    </rdf:RDF>
  </metadata>
  <g
     inkscape:label="Layer 1"
     inkscape:groupmode="layer"
     id="layer1"
     transform="translate(0,-956.36218)">
    <rect
       style="fill:#ffffff;fill-opacity:0;fill-rule:nonzero;stroke:none"
       id="rect3775"
       width="96"
       height="96"
       x="0"
       y="956.36218"
       ry="0" />
    <path
       style="fill:#000000;fill-opacity:0.09589041;fill-rule:nonzero;stroke:none"
       d="m 3.353015,956.30662 c -1.884176,0 -3.4111555,1.43156 -3.4111555,3.19799 l 0,83.65949 c 0,1.7665 1.5269795,3.1981 3.4111555,3.1981 l 89.23583,0 c 1.884174,0 3.411155,-1.4316 3.411155,-3.1981 l 0,-83.65949 c 0,-1.76643 -1.526981,-3.19799 -3.411155,-3.19799 z"
       id="rect3772"
       inkscape:connector-curvature="0"
       sodipodi:nodetypes="sssssssss" />
    <path
       style="fill:#000000;fill-opacity:0.18721463;fill-rule:nonzero;stroke:none"
       d="m 1.0459761,1041.8066 0,7.4219 c 0,1.7392 1.461916,3.1337 3.2852054,3.1337 l 86.3836135,0 c 1.823288,0 3.285205,-1.3945 3.285205,-3.1337 l 0,-7.4219 -92.9540239,0 z"
       id="rect3785"
       inkscape:connector-curvature="0" />
    <path
       style="fill:#000000;fill-opacity:0.38356168;fill-rule:nonzero;stroke:none"
       d="m 1.0459761,1041.8066 0,5.3807 c 0,1.762 1.461916,3.1749 3.2852054,3.1749 l 86.3836135,0 c 1.823288,0 3.285205,-1.4129 3.285205,-3.1749 l 0,-5.3807 -92.9540239,0 z"
       id="rect3783"
       inkscape:connector-curvature="0" />
    <rect
       style="fill:url(#linearGradient3780);fill-opacity:1;fill-rule:nonzero;stroke:none"
       id="rect2985"
       width="92.954025"
       height="89"
       x="1.045977"
       y="957.36218"
       ry="3.1511393" />
    <path
       sodipodi:type="star"
       style="fill:#ffffff;fill-opacity:1;fill-rule:nonzero;stroke:none"
       id="path3778"
       sodipodi:sides="5"
       sodipodi:cx="-149.62183"
       sodipodi:cy="-11.36222"
       sodipodi:r1="19.341778"
       sodipodi:r2="9.6708889"
       sodipodi:arg1="0.93910569"
       sodipodi:arg2="1.5674242"
       inkscape:flatsided="false"
       inkscape:rounded="0"
       inkscape:randomized="0"
       d="m -138.20031,4.2471814 -11.3889,-5.9385673 -11.3486,6.0152408 2.12855,-12.6666074 -9.22774,-8.9343415 12.70442,-1.889826 5.64553,-11.536968 5.72321,11.498631 12.71688,1.804103 -9.16728,8.9963709 z"
       transform="translate(198.80926,1025.7049)"
       inkscape:transform-center-x="0.020154816"
       inkscape:transform-center-y="-1.8277965" />
    <path
       inkscape:transform-center-y="0.44788354"
       inkscape:transform-center-x="0.6267214"
       transform="matrix(0.5197317,-0.24564144,0.24564144,0.5197317,101.18245,967.75029)"
       d="m -138.20031,4.2471814 -11.3889,-5.9385673 -11.3486,6.0152408 2.12855,-12.6666074 -9.22774,-8.9343415 12.70442,-1.889826 5.64553,-11.536968 5.72321,11.498631 12.71688,1.804103 -9.16728,8.9963709 z"
       inkscape:randomized="0"
       inkscape:rounded="0"
       inkscape:flatsided="false"
       sodipodi:arg2="1.5674242"
       sodipodi:arg1="0.93910569"
       sodipodi:r2="9.6708889"
       sodipodi:r1="19.341778"
       sodipodi:cy="-11.36222"
       sodipodi:cx="-149.62183"
       sodipodi:sides="5"
       id="path3780"
       style="opacity:0.37448563;fill:#ffffff;fill-opacity:1;fill-rule:nonzero;stroke:none"
       sodipodi:type="star" />
    <path
       sodipodi:type="star"
       style="opacity:0.26748974;fill:#ffffff;fill-opacity:1;fill-rule:nonzero;stroke:none"
       id="path3782"
       sodipodi:sides="5"
       sodipodi:cx="-149.62183"
       sodipodi:cy="-11.36222"
       sodipodi:r1="19.341778"
       sodipodi:r2="9.6708889"
       sodipodi:arg1="0.93910569"
       sodipodi:arg2="1.5674242"
       inkscape:flatsided="false"
       inkscape:rounded="0"
       inkscape:randomized="0"
       d="m -138.20031,4.2471814 -11.3889,-5.9385673 -11.3486,6.0152408 2.12855,-12.6666074 -9.22774,-8.9343415 12.70442,-1.889826 5.64553,-11.536968 5.72321,11.498631 12.71688,1.804103 -9.16728,8.9963709 z"
       transform="matrix(0.23871699,0.23979782,-0.23979782,0.23871699,69.431309,1026.6196)"
       inkscape:transform-center-x="0.31414486"
       inkscape:transform-center-y="0.31854631" />
    <rect
       style="fill:#ffffff;fill-opacity:0.11764706;fill-rule:nonzero;stroke:none"
       id="rect3003"
       width="37"
       height="38"
       x="31"
       y="52"
       transform="translate(0,956.36218)" />
    <rect
       y="1008.3622"
       x="38"
       height="38"
       width="22.606571"
       id="rect3005"
       style="fill:#ffffff;fill-opacity:0.11764706;fill-rule:nonzero;stroke:none" />
    <path
       style="fill:#000000;fill-opacity:0.38356168;fill-rule:nonzero;stroke:none"
       d="m 1,1042.3622 0.045976,2.7457 c 0.03024,1.8058 1.461916,3.2543 3.2852054,3.2543 l 86.3836136,0 c 1.823288,0 3.285205,-1.4481 3.285205,-3.2543 l -0.04598,-2.7457 z"
       id="rect3781"
       inkscape:connector-curvature="0"
       sodipodi:nodetypes="csssscc" />
    <rect
       style="fill:#ffffff;fill-opacity:0.30000001;fill-rule:nonzero;stroke:none"
       id="rect3770"
       width="92.954033"
       height="2.000005"
       x="1.045976"
       y="1040.3622" />
  </g>
</svg>
