<?xml version="1.0" encoding="UTF-8" standalone="no"?>
<!-- Created with Inkscape (http://www.inkscape.org/) -->

<svg
   xmlns:dc="http://purl.org/dc/elements/1.1/"
   xmlns:cc="http://creativecommons.org/ns#"
   xmlns:rdf="http://www.w3.org/1999/02/22-rdf-syntax-ns#"
   xmlns:svg="http://www.w3.org/2000/svg"
   xmlns="http://www.w3.org/2000/svg"
   xmlns:xlink="http://www.w3.org/1999/xlink"
   xmlns:sodipodi="http://sodipodi.sourceforge.net/DTD/sodipodi-0.dtd"
   xmlns:inkscape="http://www.inkscape.org/namespaces/inkscape"
   width="96"
   height="96"
   id="svg2"
   version="1.1"
   inkscape:version="0.48.4 r9939"
   sodipodi:docname="gtkam.svg">
  <defs
     id="defs4">
    <linearGradient
       id="linearGradient4224">
      <stop
         style="stop-color:#ffffff;stop-opacity:1;"
         offset="0"
         id="stop4226" />
      <stop
         style="stop-color:#fbd8ff;stop-opacity:1;"
         offset="1"
         id="stop4228" />
    </linearGradient>
    <linearGradient
       inkscape:collect="always"
       id="linearGradient4112">
      <stop
         style="stop-color:#54bc00;stop-opacity:1;"
         offset="0"
         id="stop4114" />
      <stop
         style="stop-color:#54bc00;stop-opacity:0;"
         offset="1"
         id="stop4116" />
    </linearGradient>
    <linearGradient
       id="linearGradient3746-0">
      <stop
         offset="0"
         style="stop-color:#5d5d5d;stop-opacity:1"
         id="stop3748-0" />
      <stop
         offset="0.60000002"
         style="stop-color:#0a0a0a;stop-opacity:1"
         id="stop3753-0" />
      <stop
         offset="1"
         style="stop-color:#4e4e4e;stop-opacity:1"
         id="stop3751-3" />
    </linearGradient>
    <linearGradient
       id="linearGradient3681-1">
      <stop
         offset="0"
         style="stop-color:#ffffff;stop-opacity:0.18548387"
         id="stop3683-2" />
      <stop
         offset="0.3086735"
         style="stop-color:#ffffff;stop-opacity:0.10887097"
         id="stop3689-4" />
      <stop
         offset="0.43622452"
         style="stop-color:#000000;stop-opacity:0"
         id="stop3691-5" />
      <stop
         offset="0.54464293"
         style="stop-color:#000000;stop-opacity:0"
         id="stop3693-4" />
      <stop
         offset="0.58290821"
         style="stop-color:#ffffff;stop-opacity:0"
         id="stop3695-2" />
      <stop
         offset="0.61479598"
         style="stop-color:#000000;stop-opacity:0.1814516"
         id="stop3697-8" />
      <stop
         offset="0.69132656"
         style="stop-color:#000000;stop-opacity:0.43145162"
         id="stop3699-5" />
      <stop
         offset="0.78061229"
         style="stop-color:#ffffff;stop-opacity:0.08064516"
         id="stop3701-5" />
      <stop
         offset="0.87627554"
         style="stop-color:#000000;stop-opacity:0"
         id="stop3703-0" />
      <stop
         offset="1"
         style="stop-color:#ffffff;stop-opacity:0"
         id="stop3685-3" />
    </linearGradient>
    <linearGradient
       inkscape:collect="always"
       xlink:href="#linearGradient3727-0"
       id="linearGradient3265"
       gradientUnits="userSpaceOnUse"
       x1="33.199345"
       y1="45.997448"
       x2="67.957489"
       y2="45.997448" />
    <linearGradient
       id="linearGradient3727-0">
      <stop
         offset="0"
         style="stop-color:#ffffff;stop-opacity:1"
         id="stop3729-1" />
      <stop
         offset="1"
         style="stop-color:#ffffff;stop-opacity:0"
         id="stop3731-5" />
    </linearGradient>
    <filter
       id="filter3774-9"
       color-interpolation-filters="sRGB">
      <feGaussianBlur
         stdDeviation="0.27274118"
         id="feGaussianBlur3776-0" />
    </filter>
    <linearGradient
       id="linearGradient3761-5">
      <stop
         offset="0"
         style="stop-color:#ffffff;stop-opacity:1"
         id="stop3763-9" />
      <stop
         offset="1"
         style="stop-color:#ffffff;stop-opacity:0"
         id="stop3765-5" />
    </linearGradient>
    <clipPath
       id="clipPath3798">
      <path
         inkscape:connector-curvature="0"
         style="fill:#ff00ff;fill-opacity:1;stroke:none"
         id="path3800"
         transform="matrix(1.0266143,0,0,1.0266143,-0.999999,0.778362)"
         d="m 61.366765,45.997448 a 13.637059,13.637059 0 1 1 -27.274118,0 13.637059,13.637059 0 1 1 27.274118,0 z" />
    </clipPath>
    <filter
       id="filter3833-4"
       color-interpolation-filters="sRGB"
       height="1.48"
       width="1.48"
       y="-0.24000001"
       x="-0.23999999">
      <feGaussianBlur
         stdDeviation="2.8000002"
         id="feGaussianBlur3835-9" />
    </filter>
    <filter
       id="filter3987-8"
       color-interpolation-filters="sRGB">
      <feGaussianBlur
         stdDeviation="0.42020394"
         id="feGaussianBlur3989-1" />
    </filter>
    <linearGradient
       inkscape:collect="always"
       xlink:href="#linearGradient3881-9"
       id="linearGradient3279"
       gradientUnits="userSpaceOnUse"
       gradientTransform="matrix(1.0266143,0,0,1.0266143,-0.9999987,50.778362)"
       x1="53.510502"
       y1="59.608364"
       x2="61.49099"
       y2="39.92907" />
    <linearGradient
       id="linearGradient3881-9">
      <stop
         offset="0"
         style="stop-color:#d40000;stop-opacity:0"
         id="stop3883-6" />
      <stop
         offset="0.5"
         style="stop-color:#d40000;stop-opacity:1"
         id="stop3889-3" />
      <stop
         offset="1"
         style="stop-color:#d40000;stop-opacity:0"
         id="stop3885-3" />
    </linearGradient>
    <linearGradient
       inkscape:collect="always"
       xlink:href="#linearGradient3891-4"
       id="linearGradient3281"
       gradientUnits="userSpaceOnUse"
       gradientTransform="matrix(0.72592593,0.72592593,-0.72592593,0.72592593,46.742509,29.961028)"
       x1="53.730709"
       y1="60.139374"
       x2="62.58559"
       y2="38.831467" />
    <linearGradient
       id="linearGradient3891-4">
      <stop
         offset="0"
         style="stop-color:#d42aff;stop-opacity:0"
         id="stop3893-9" />
      <stop
         offset="0.5"
         style="stop-color:#d42aff;stop-opacity:1"
         id="stop3899-9" />
      <stop
         offset="1"
         style="stop-color:#d42aff;stop-opacity:0"
         id="stop3895-7" />
    </linearGradient>
    <linearGradient
       inkscape:collect="always"
       xlink:href="#linearGradient3901-4"
       id="linearGradient3283"
       gradientUnits="userSpaceOnUse"
       gradientTransform="matrix(0,1.0266143,-1.0266143,0,95.221638,49.000001)"
       x1="53.387505"
       y1="60.34634"
       x2="61.982975"
       y2="39.437084" />
    <linearGradient
       id="linearGradient3901-4">
      <stop
         offset="0"
         style="stop-color:#6600ff;stop-opacity:0"
         id="stop3903-9" />
      <stop
         offset="0.5"
         style="stop-color:#6600ff;stop-opacity:1"
         id="stop3909-8" />
      <stop
         offset="1"
         style="stop-color:#6600ff;stop-opacity:0"
         id="stop3905-9" />
    </linearGradient>
    <linearGradient
       inkscape:collect="always"
       xlink:href="#linearGradient3911-4"
       id="linearGradient3285"
       gradientUnits="userSpaceOnUse"
       gradientTransform="matrix(-0.72592593,0.72592593,-0.72592593,-0.72592593,116.03897,96.742509)"
       x1="53.295853"
       y1="59.182693"
       x2="61.88982"
       y2="40.223007" />
    <linearGradient
       id="linearGradient3911-4">
      <stop
         offset="0"
         style="stop-color:#2a7fff;stop-opacity:0"
         id="stop3913-9" />
      <stop
         offset="0.5"
         style="stop-color:#2a7fff;stop-opacity:1"
         id="stop3919-6" />
      <stop
         offset="1"
         style="stop-color:#2a7fff;stop-opacity:0"
         id="stop3915-0" />
    </linearGradient>
    <linearGradient
       inkscape:collect="always"
       xlink:href="#linearGradient3921-1"
       id="linearGradient3287"
       gradientUnits="userSpaceOnUse"
       gradientTransform="matrix(-1.0266143,0,0,-1.0266143,96.999997,145.22164)"
       x1="53.87949"
       y1="61.330303"
       x2="60.999012"
       y2="39.683075" />
    <linearGradient
       id="linearGradient3921-1">
      <stop
         offset="0"
         style="stop-color:#5fd3bc;stop-opacity:0"
         id="stop3923-2" />
      <stop
         offset="0.5"
         style="stop-color:#5fd3bc;stop-opacity:1"
         id="stop3929-0" />
      <stop
         offset="1"
         style="stop-color:#5fd3bc;stop-opacity:0"
         id="stop3925-1" />
    </linearGradient>
    <linearGradient
       inkscape:collect="always"
       xlink:href="#linearGradient3851-0"
       id="linearGradient3289"
       gradientUnits="userSpaceOnUse"
       gradientTransform="matrix(-0.72592593,-0.72592593,0.72592593,-0.72592593,49.25749,166.03897)"
       x1="53.469795"
       y1="59.878456"
       x2="60.324341"
       y2="39.70118" />
    <linearGradient
       id="linearGradient3851-0">
      <stop
         offset="0"
         style="stop-color:#55d400;stop-opacity:0"
         id="stop3853-5-7" />
      <stop
         offset="0.5"
         style="stop-color:#55d400;stop-opacity:1"
         id="stop3859-2" />
      <stop
         offset="1"
         style="stop-color:#55d400;stop-opacity:0"
         id="stop3855-8" />
    </linearGradient>
    <linearGradient
       inkscape:collect="always"
       xlink:href="#linearGradient3861-4"
       id="linearGradient3291"
       gradientUnits="userSpaceOnUse"
       gradientTransform="matrix(0,-1.0266143,1.0266143,0,0.77836254,147)"
       x1="61.628212"
       y1="39.683075"
       x2="52.881298"
       y2="60.715324" />
    <linearGradient
       id="linearGradient3861-4">
      <stop
         offset="0"
         style="stop-color:#ffcc00;stop-opacity:0"
         id="stop3863-3" />
      <stop
         offset="0.5"
         style="stop-color:#ffcc00;stop-opacity:1"
         id="stop3869-8" />
      <stop
         offset="1"
         style="stop-color:#ffcc00;stop-opacity:0"
         id="stop3865-6" />
    </linearGradient>
    <linearGradient
       inkscape:collect="always"
       xlink:href="#linearGradient3871-5"
       id="linearGradient3293"
       gradientUnits="userSpaceOnUse"
       gradientTransform="matrix(0.72592593,-0.72592593,0.72592593,0.72592593,-20.03897,99.25749)"
       x1="53.034939"
       y1="61.183025"
       x2="61.802849"
       y2="40.483921" />
    <linearGradient
       id="linearGradient3871-5">
      <stop
         offset="0"
         style="stop-color:#ff6600;stop-opacity:0"
         id="stop3873-3" />
      <stop
         offset="0.5"
         style="stop-color:#ff6600;stop-opacity:1"
         id="stop3879-9" />
      <stop
         offset="1"
         style="stop-color:#ff6600;stop-opacity:0"
         id="stop3875-7" />
    </linearGradient>
    <radialGradient
       inkscape:collect="always"
       xlink:href="#linearGradient3797-6-4"
       id="radialGradient3295"
       gradientUnits="userSpaceOnUse"
       gradientTransform="matrix(1,0,0,0.61803397,0,19.862234)"
       cx="41"
       cy="52"
       fx="41"
       fy="52"
       r="9.7082043" />
    <linearGradient
       id="linearGradient3797-6-4">
      <stop
         offset="0"
         style="stop-color:#ffffff;stop-opacity:1"
         id="stop3799-8-2" />
      <stop
         offset="0.5"
         style="stop-color:#ffffff;stop-opacity:1"
         id="stop3805-1-4" />
      <stop
         offset="1"
         style="stop-color:#ffffff;stop-opacity:0"
         id="stop3801-2-0" />
    </linearGradient>
    <radialGradient
       inkscape:collect="always"
       xlink:href="#linearGradient4112"
       id="radialGradient4118"
       cx="10"
       cy="11"
       fx="10"
       fy="11"
       r="5"
       gradientUnits="userSpaceOnUse" />
    <linearGradient
       inkscape:collect="always"
       xlink:href="#linearGradient3761-5"
       id="linearGradient4143"
       gradientUnits="userSpaceOnUse"
       gradientTransform="matrix(0.88183904,0,0,0.88183904,5.9254974,957.89939)"
       x1="64.072342"
       y1="64.036171"
       x2="46.604744"
       y2="46.568573" />
    <linearGradient
       inkscape:collect="always"
       xlink:href="#linearGradient3761-5"
       id="linearGradient4146"
       gradientUnits="userSpaceOnUse"
       gradientTransform="matrix(0.07908896,-0.07908896,0.07908896,0.07908896,41.637748,1000.0079)"
       x1="40.068184"
       y1="58.17598"
       x2="40.068184"
       y2="41.697067" />
    <linearGradient
       inkscape:collect="always"
       xlink:href="#linearGradient3761-5"
       id="linearGradient4149"
       gradientUnits="userSpaceOnUse"
       gradientTransform="matrix(-0.170714,0.170714,-0.170714,-0.170714,58.125298,996.01156)"
       x1="40.068184"
       y1="58.17598"
       x2="40.068184"
       y2="41.697067" />
    <linearGradient
       inkscape:collect="always"
       xlink:href="#linearGradient3761-5"
       id="linearGradient4152"
       gradientUnits="userSpaceOnUse"
       gradientTransform="matrix(-0.09486566,0.09486566,-0.09486566,-0.09486566,55.307726,999.41355)"
       x1="40.068184"
       y1="58.17598"
       x2="40.068184"
       y2="41.697067" />
    <linearGradient
       inkscape:collect="always"
       xlink:href="#linearGradient3761-5"
       id="linearGradient4155"
       gradientUnits="userSpaceOnUse"
       gradientTransform="matrix(0.13295394,-0.13295394,0.13295394,0.13295394,38.895466,1001.6826)"
       x1="40.068184"
       y1="58.17598"
       x2="40.068184"
       y2="41.697067" />
    <linearGradient
       inkscape:collect="always"
       xlink:href="#linearGradient3761-5"
       id="linearGradient4158"
       gradientUnits="userSpaceOnUse"
       gradientTransform="matrix(0.51383705,-0.51383705,0.51383705,0.51383705,5.2697971,999.28928)"
       x1="40.068184"
       y1="58.17598"
       x2="31.793724"
       y2="49.665066" />
    <radialGradient
       inkscape:collect="always"
       xlink:href="#linearGradient3681-1"
       id="radialGradient4163"
       gradientUnits="userSpaceOnUse"
       gradientTransform="matrix(0.90530859,0,0,0.90530859,5.0436583,958.58577)"
       cx="47.729706"
       cy="45.997448"
       fx="47.729706"
       fy="45.997448"
       r="13.637059" />
    <linearGradient
       inkscape:collect="always"
       xlink:href="#linearGradient3746-0"
       id="linearGradient4168"
       gradientUnits="userSpaceOnUse"
       gradientTransform="matrix(0,0.57238182,-0.57238182,0,73.714586,973.63078)"
       x1="16.162441"
       y1="44.48222"
       x2="76.771591"
       y2="44.48222" />
    <radialGradient
       inkscape:collect="always"
       xlink:href="#linearGradient4224"
       id="radialGradient4230"
       cx="47.522991"
       cy="1001.8622"
       fx="47.522991"
       fy="1001.8622"
       r="46.477013"
       gradientTransform="matrix(1.4518362,0.01075796,-0.00709451,0.95743629,-14.364889,42.131725)"
       gradientUnits="userSpaceOnUse" />
  </defs>
  <sodipodi:namedview
     id="base"
     pagecolor="#ffffff"
     bordercolor="#666666"
     borderopacity="1.0"
     inkscape:pageopacity="0.0"
     inkscape:pageshadow="2"
     inkscape:zoom="5.90625"
     inkscape:cx="47.830688"
     inkscape:cy="48"
     inkscape:document-units="px"
     inkscape:current-layer="layer1"
     showgrid="true"
     inkscape:snap-page="true"
     inkscape:snap-global="true"
     inkscape:snap-center="true"
     inkscape:snap-object-midpoints="false"
     showguides="true"
     inkscape:guide-bbox="true"
     inkscape:snap-bbox="true"
     inkscape:object-paths="true"
     inkscape:object-nodes="true"
     inkscape:window-width="1305"
     inkscape:window-height="744"
     inkscape:window-x="61"
     inkscape:window-y="24"
     inkscape:window-maximized="1"
     inkscape:snap-midpoints="false"
     inkscape:snap-grids="true"
     inkscape:snap-to-guides="false">
    <inkscape:grid
       type="xygrid"
       id="grid3002"
       empspacing="5"
       visible="true"
       enabled="true"
       snapvisiblegridlinesonly="true" />
  </sodipodi:namedview>
  <metadata
     id="metadata7">
    <rdf:RDF>
      <cc:Work
         rdf:about="">
        <dc:format>image/svg+xml</dc:format>
        <dc:type
           rdf:resource="http://purl.org/dc/dcmitype/StillImage" />
        <dc:title />
      </cc:Work>
    </rdf:RDF>
  </metadata>
  <g
     inkscape:label="Layer 1"
     inkscape:groupmode="layer"
     id="layer1"
     transform="translate(0,-956.36218)">
    <rect
       style="fill:#ffffff;fill-opacity:0;fill-rule:nonzero;stroke:none"
       id="rect3775"
       width="96"
       height="96"
       x="0"
       y="956.36218"
       ry="0" />
    <path
       style="fill:#000000;fill-opacity:0.09589041;fill-rule:nonzero;stroke:none"
       d="m 3.353015,956.30662 c -1.884176,0 -3.4111555,1.43156 -3.4111555,3.19799 l 0,83.65949 c 0,1.7665 1.5269795,3.1981 3.4111555,3.1981 l 89.23583,0 c 1.884174,0 3.411155,-1.4316 3.411155,-3.1981 l 0,-83.65949 c 0,-1.76643 -1.526981,-3.19799 -3.411155,-3.19799 z"
       id="rect3772"
       inkscape:connector-curvature="0"
       sodipodi:nodetypes="sssssssss" />
    <path
       style="fill:#000000;fill-opacity:0.18721463;fill-rule:nonzero;stroke:none"
       d="m 1.0459761,1041.8066 0,7.4219 c 0,1.7392 1.461916,3.1337 3.2852054,3.1337 l 86.3836135,0 c 1.823288,0 3.285205,-1.3945 3.285205,-3.1337 l 0,-7.4219 -92.9540239,0 z"
       id="rect3785"
       inkscape:connector-curvature="0" />
    <path
       style="fill:#000000;fill-opacity:0.38356168;fill-rule:nonzero;stroke:none"
       d="m 1.0459761,1041.8066 0,5.3807 c 0,1.762 1.461916,3.1749 3.2852054,3.1749 l 86.3836135,0 c 1.823288,0 3.285205,-1.4129 3.285205,-3.1749 l 0,-5.3807 -92.9540239,0 z"
       id="rect3783"
       inkscape:connector-curvature="0" />
    <rect
       style="fill:url(#radialGradient4230);fill-opacity:1;fill-rule:nonzero;stroke:none"
       id="rect2985"
       width="92.954025"
       height="89"
       x="1.045977"
       y="957.36218"
       ry="3.1511393" />
    <path
       transform="matrix(1.5,0,0,1.5,-2.5,953.36218)"
       d="M 15,11 A 5,5 0 1 1 5,11 5,5 0 1 1 15,11 z"
       sodipodi:ry="5"
       sodipodi:rx="5"
       sodipodi:cy="11"
       sodipodi:cx="10"
       id="path4120"
       style="fill:#000000;fill-opacity:1;fill-rule:evenodd;stroke:none"
       sodipodi:type="arc" />
    <path
       sodipodi:type="arc"
       style="fill:url(#radialGradient4118);fill-opacity:1;fill-rule:evenodd;stroke:none"
       id="path4102"
       sodipodi:cx="10"
       sodipodi:cy="11"
       sodipodi:rx="5"
       sodipodi:ry="5"
       d="M 15,11 A 5,5 0 1 1 5,11 5,5 0 1 1 15,11 z"
       transform="matrix(1.5,0,0,1.5,-2.5,953.36218)" />
    <rect
       style="fill:#4c280f;fill-opacity:0.45205479;fill-rule:evenodd;stroke:none"
       id="rect3116"
       width="5"
       height="89"
       x="25"
       y="957.36218" />
    <rect
       y="957.36218"
       x="35"
       height="89"
       width="5"
       id="rect3886"
       style="fill:#4c0f48;fill-opacity:0.45205479;fill-rule:evenodd;stroke:none" />
    <rect
       style="fill:#ffcc00;fill-opacity:0.4520548;fill-rule:evenodd;stroke:none"
       id="rect3888"
       width="5"
       height="89"
       x="45"
       y="957.36218" />
    <g
       id="g4188"
       transform="matrix(1.7584423,0,0,1.7584423,-36.578227,-758.61491)">
      <path
         inkscape:connector-curvature="0"
         d="m 48.253771,1017.5734 a 17.345789,17.345789 0 1 1 0,-34.69154 17.345789,17.345789 0 0 1 0,34.69154 z"
         id="path3742"
         style="fill:url(#linearGradient4168);fill-opacity:1;stroke:#1a1a1a;stroke-width:1.85730469;stroke-miterlimit:4;stroke-dasharray:none" />
      <path
         inkscape:connector-curvature="0"
         d="m 60.599518,1000.2277 a 12.345747,12.345747 0 0 1 -24.691493,0 12.345747,12.345747 0 1 1 24.691493,0 z"
         id="path3757"
         style="fill:#000000;fill-opacity:1;stroke:none" />
      <path
         inkscape:connector-curvature="0"
         d="m 47.812852,987.00008 c -7.061882,0 -12.786666,5.72478 -12.786666,12.7867 0,7.06182 5.724784,12.78662 12.786666,12.78662 0.07495,0 0.145777,0 0.22046,0 -6.716192,-0.1181 -12.125287,-5.6013 -12.125287,-12.3457 0,-6.81842 5.527375,-12.34579 12.345746,-12.34579 6.744394,0 12.227607,5.40909 12.345747,12.12529 9.02e-4,-0.0749 0,-0.14548 0,-0.22042 0,-7.06192 -5.724785,-12.7867 -12.786666,-12.7867 z"
         id="path3760"
         style="opacity:0.6;fill:#000000;fill-opacity:1;stroke:none" />
      <path
         inkscape:connector-curvature="0"
         d="m 60.599518,1000.2277 a 12.345747,12.345747 0 0 1 -24.691493,0 12.345747,12.345747 0 1 1 24.691493,0 z"
         id="path2907"
         style="fill:url(#radialGradient4163);fill-opacity:1;stroke:none" />
      <path
         inkscape:connector-curvature="0"
         d="m 61.366765,45.997448 a 13.637059,13.637059 0 1 1 -27.274118,0 13.637059,13.637059 0 1 1 27.274118,0 z"
         transform="matrix(0,0.85680988,-0.85680988,0,87.664841,959.33237)"
         id="path3705"
         style="fill:none;stroke:url(#linearGradient3265);stroke-width:1.08384883;stroke-miterlimit:4;stroke-opacity:1;stroke-dasharray:none;filter:url(#filter3774-9)" />
      <path
         inkscape:connector-curvature="0"
         d="m 42.38403,999.67653 c 0.06243,-0.67669 0.251695,-1.31079 0.523592,-1.90147 l -4.050948,-2.12194 c -0.532631,1.09615 -0.897879,2.31219 -1.019626,3.58251 l 4.546982,0.4409 z m 1.21253,-3.03139 c 0.944475,-1.22489 2.352419,-2.07137 3.968275,-2.25966 l -0.523592,-4.54699 c -3.173272,0.36781 -5.867863,2.14795 -7.523189,4.68477 l 4.078506,2.12188 z"
         id="path3735"
         style="opacity:0.6;fill:#ffffff;fill-opacity:1;stroke:none" />
      <path
         inkscape:connector-curvature="0"
         d="m 58.045078,999.953 a 4.3600663,7.054732 45 1 1 -9.976872,9.9769 4.3600663,7.054732 45 0 1 9.976872,-9.9769 z"
         id="path3759"
         style="opacity:0.4314516;fill:url(#linearGradient4158);fill-opacity:1;stroke:none" />
      <path
         inkscape:connector-curvature="0"
         d="m 52.550929,1001.8543 a 1.1281606,1.8254023 45 1 1 -2.581487,2.5815 1.1281606,1.8254023 45 1 1 2.581487,-2.5815 z"
         id="path3769"
         style="opacity:0.3;fill:url(#linearGradient4155);fill-opacity:1;stroke:none" />
      <path
         inkscape:connector-curvature="0"
         d="m 45.564241,999.29096 a 0.80496185,1.3024556 45 1 1 1.841951,-1.84191 0.80496185,1.3024556 45 1 1 -1.841951,1.84191 z"
         id="path3773"
         style="opacity:0.3;fill:url(#linearGradient4152);fill-opacity:1;stroke:none" />
      <path
         inkscape:connector-curvature="0"
         d="m 40.591569,995.79106 a 1.4485608,2.3438207 45 1 1 3.314656,-3.31467 1.4485608,2.3438207 45 0 1 -3.314656,3.31467 z"
         id="path3777"
         style="opacity:0.4314516;fill:url(#linearGradient4149);fill-opacity:1;stroke:none" />
      <path
         inkscape:connector-curvature="0"
         d="m 49.760835,1000.1101 a 0.67109249,1.0858504 45 0 1 -1.535626,1.5356 0.67109249,1.0858504 45 1 1 1.535626,-1.5356 z"
         id="path3789"
         style="opacity:0.6;fill:url(#linearGradient4146);fill-opacity:1;stroke:none" />
      <path
         inkscape:connector-curvature="0"
         d="m 48.253771,986.11823 c -7.792423,0 -14.109424,6.317 -14.109424,14.10947 0,7.7924 6.317001,14.1093 14.109424,14.1093 7.792424,0 14.109425,-6.3169 14.109425,-14.1093 0,-7.79247 -6.317001,-14.10947 -14.109425,-14.10947 z m 0,1.32276 c 7.061882,0 12.786667,5.72478 12.786667,12.78671 0,7.0619 -5.724785,12.7866 -12.786667,12.7866 -7.061881,0 -12.786666,-5.7247 -12.786666,-12.7866 0,-7.06193 5.724785,-12.78671 12.786666,-12.78671 z"
         id="path3806"
         style="opacity:0.7;fill:url(#linearGradient4143);fill-opacity:1;stroke:none;display:inline" />
      <g
         transform="matrix(0.88183904,0,0,0.88183904,5.9254974,957.89939)"
         id="layer6"
         style="display:inline">
        <g
           clip-path="url(#clipPath3798)"
           id="g3786"
           style="opacity:0.4;display:inline;filter:url(#filter3833-4)">
          <path
             inkscape:connector-curvature="0"
             d="m 61.366765,45.997448 a 13.637059,13.637059 0 0 1 -3.994202,9.642857 l -9.642857,-9.642857 z"
             transform="matrix(1.0266143,0,0,1.0266143,-0.9999987,0.7783622)"
             id="path3756"
             style="fill:#d40000;fill-opacity:1;stroke:none" />
          <path
             inkscape:connector-curvature="0"
             d="m 61.366765,45.997448 a 13.637059,13.637059 0 0 1 -3.994202,9.642857 l -9.642857,-9.642857 z"
             transform="matrix(0.72592593,0.72592593,-0.72592593,0.72592593,46.742509,-20.038972)"
             id="path3772"
             style="fill:#d42aff;fill-opacity:1;stroke:none" />
          <path
             inkscape:connector-curvature="0"
             d="m 61.366765,45.997448 a 13.637059,13.637059 0 0 1 -3.994202,9.642857 l -9.642857,-9.642857 z"
             transform="matrix(0,1.0266143,-1.0266143,0,95.221638,-0.99999877)"
             id="path3774"
             style="fill:#6600ff;fill-opacity:1;stroke:none" />
          <path
             inkscape:connector-curvature="0"
             d="m 61.366765,45.997448 a 13.637059,13.637059 0 0 1 -3.994202,9.642857 l -9.642857,-9.642857 z"
             transform="matrix(-0.72592593,0.72592593,-0.72592593,-0.72592593,116.03897,46.742509)"
             id="path3776"
             style="fill:#2a7fff;fill-opacity:1;stroke:none" />
          <path
             inkscape:connector-curvature="0"
             d="m 61.366765,45.997448 a 13.637059,13.637059 0 0 1 -3.994202,9.642857 l -9.642857,-9.642857 z"
             transform="matrix(-1.0266143,0,0,-1.0266143,96.999997,95.221637)"
             id="path3778-7"
             style="fill:#5fd3bc;fill-opacity:1;stroke:none" />
          <path
             inkscape:connector-curvature="0"
             d="m 61.366765,45.997448 a 13.637059,13.637059 0 0 1 -3.994202,9.642857 l -9.642857,-9.642857 z"
             transform="matrix(-0.72592593,-0.72592593,0.72592593,-0.72592593,49.25749,116.03897)"
             id="path3780"
             style="fill:#55d400;fill-opacity:1;stroke:none" />
          <path
             inkscape:connector-curvature="0"
             d="m 61.366765,45.997448 a 13.637059,13.637059 0 0 1 -3.994202,9.642857 l -9.642857,-9.642857 z"
             transform="matrix(0,-1.0266143,1.0266143,0,0.77836254,96.999997)"
             id="path3782"
             style="fill:#ffcc00;fill-opacity:1;stroke:none" />
          <path
             inkscape:connector-curvature="0"
             d="m 61.366765,45.997448 a 13.637059,13.637059 0 0 1 -3.994202,9.642857 l -9.642857,-9.642857 z"
             transform="matrix(0.72592593,-0.72592593,0.72592593,0.72592593,-20.03897,49.25749)"
             id="path3784"
             style="fill:#ff6600;fill-opacity:1;stroke:none" />
        </g>
        <g
           transform="translate(0,-50)"
           id="g3957"
           style="opacity:0.8;filter:url(#filter3987-8)">
          <path
             inkscape:connector-curvature="0"
             d="m 61.53125,94.375 -0.96875,0.25 C 60.849921,95.699342 61,96.835019 61,98 c 0,4.80784 -2.619633,9.00086 -6.5,11.25 l 0.5,0.875 c 5.487553,-3.16824 8.171252,-9.62943 6.53125,-15.75 z"
             id="path3726"
             style="opacity:0.8;fill:url(#linearGradient3279);fill-opacity:1;stroke:none" />
          <path
             inkscape:connector-curvature="0"
             d="m 59.25,104.5 c -2.249137,3.88037 -6.442164,6.5 -11.25,6.5 -1.164981,0 -2.300658,-0.15008 -3.375,-0.4375 l -0.25,0.96875 c 6.120569,1.64 12.58176,-1.0437 15.75,-6.53125 l -0.875,-0.5 z"
             id="path3728"
             style="opacity:0.8;fill:url(#linearGradient3281);fill-opacity:1;stroke:none" />
          <path
             inkscape:connector-curvature="0"
             d="m 36.75,104.5 -0.875,0.5 c 3.16824,5.48755 9.629431,8.17125 15.75,6.53125 l -0.25,-0.96875 C 50.300658,110.84992 49.164981,111 48,111 c -4.807836,0 -9.000863,-2.61963 -11.25,-6.5 z"
             id="path3730"
             style="fill:url(#linearGradient3283);fill-opacity:1;stroke:none" />
          <path
             inkscape:connector-curvature="0"
             d="m 34.46875,94.375 c -1.640002,6.12057 1.043697,12.58176 6.53125,15.75 l 0.5,-0.875 C 37.619633,107.00086 35,102.80784 35,98 c 0,-1.164981 0.150079,-2.300658 0.4375,-3.375 l -0.96875,-0.25 z"
             id="path3732"
             style="opacity:0.9;fill:url(#linearGradient3285);fill-opacity:1;stroke:none" />
          <path
             inkscape:connector-curvature="0"
             d="m 41,85.875 c -5.487553,3.16824 -8.171252,9.629431 -6.53125,15.75 l 0.96875,-0.25 C 35.150079,100.30066 35,99.164981 35,98 35,93.192164 37.619633,88.999137 41.5,86.75 L 41,85.875 z"
             id="path3734"
             style="fill:url(#linearGradient3287);fill-opacity:1;stroke:none" />
          <path
             inkscape:connector-curvature="0"
             d="M 48.15625,84 C 43.183834,83.93941 38.449195,86.541364 35.875,91 l 0.875,0.5 C 38.999137,87.619633 43.192164,85 48,85 c 1.164981,0 2.300658,0.150079 3.375,0.4375 l 0.25,-0.96875 C 50.477393,84.16125 49.303731,84.013982 48.15625,84 z"
             id="path3736"
             style="fill:url(#linearGradient3289);fill-opacity:1;stroke:none" />
          <path
             inkscape:connector-curvature="0"
             d="m 47.84375,84 c -1.147481,0.01398 -2.321143,0.16125 -3.46875,0.46875 l 0.25,0.96875 C 45.699342,85.150079 46.835019,85 48,85 c 4.807836,0 9.000863,2.619633 11.25,6.5 L 60.125,91 C 57.550805,86.541363 52.816166,83.939411 47.84375,84 z"
             id="path3738"
             style="fill:url(#linearGradient3291);fill-opacity:1;stroke:none" />
          <path
             inkscape:connector-curvature="0"
             d="m 55,85.875 -0.5,0.875 c 3.880367,2.249137 6.5,6.442164 6.5,11.25 0,1.164981 -0.150079,2.30066 -0.4375,3.375 l 0.96875,0.25 C 63.171252,95.504431 60.487553,89.04324 55,85.875 z"
             id="path3740"
             style="opacity:0.9;fill:url(#linearGradient3293);fill-opacity:1;stroke:none" />
        </g>
        <path
           inkscape:connector-curvature="0"
           d="m 50.708204,52 a 9.7082043,6 0 1 1 -19.416408,0 9.7082043,6 0 1 1 19.416408,0 z"
           transform="matrix(0.23287504,-0.23287504,0.23287504,0.23287504,33.266783,52.13527)"
           id="path3793"
           style="fill:url(#radialGradient3295);fill-opacity:1;stroke:none;display:inline" />
      </g>
    </g>
    <path
       style="fill:#000000;fill-opacity:0.38356168;fill-rule:nonzero;stroke:none"
       d="m 1,1042.3622 0.045976,2.7457 c 0.03024,1.8058 1.461916,3.2543 3.2852054,3.2543 l 86.3836136,0 c 1.823288,0 3.285205,-1.4481 3.285205,-3.2543 l -0.04598,-2.7457 z"
       id="rect3781"
       inkscape:connector-curvature="0"
       sodipodi:nodetypes="csssscc" />
    <rect
       style="fill:#ffffff;fill-opacity:0.30000001;fill-rule:nonzero;stroke:none"
       id="rect3770"
       width="92.954033"
       height="2.000005"
       x="1.045976"
       y="1040.3622" />
  </g>
</svg>
