<?xml version="1.0" encoding="UTF-8" standalone="no"?>
<!-- Created with Inkscape (http://www.inkscape.org/) -->

<svg
   xmlns:dc="http://purl.org/dc/elements/1.1/"
   xmlns:cc="http://creativecommons.org/ns#"
   xmlns:rdf="http://www.w3.org/1999/02/22-rdf-syntax-ns#"
   xmlns:svg="http://www.w3.org/2000/svg"
   xmlns="http://www.w3.org/2000/svg"
   xmlns:sodipodi="http://sodipodi.sourceforge.net/DTD/sodipodi-0.dtd"
   xmlns:inkscape="http://www.inkscape.org/namespaces/inkscape"
   width="96"
   height="96"
   id="svg2"
   version="1.1"
   inkscape:version="0.48.4 r9939"
   sodipodi:docname="gummi.svg">
  <defs
     id="defs4" />
  <sodipodi:namedview
     id="base"
     pagecolor="#ffffff"
     bordercolor="#666666"
     borderopacity="1.0"
     inkscape:pageopacity="0.0"
     inkscape:pageshadow="2"
     inkscape:zoom="3.3790253"
     inkscape:cx="2.8541299"
     inkscape:cy="62.712157"
     inkscape:document-units="px"
     inkscape:current-layer="layer1"
     showgrid="true"
     inkscape:snap-page="false"
     inkscape:snap-global="true"
     inkscape:snap-center="true"
     inkscape:snap-object-midpoints="false"
     showguides="true"
     inkscape:guide-bbox="true"
     inkscape:snap-bbox="true"
     inkscape:object-paths="true"
     inkscape:object-nodes="true"
     inkscape:window-width="1305"
     inkscape:window-height="744"
     inkscape:window-x="61"
     inkscape:window-y="24"
     inkscape:window-maximized="1"
     inkscape:snap-midpoints="false"
     inkscape:snap-grids="true"
     inkscape:snap-to-guides="false">
    <inkscape:grid
       type="xygrid"
       id="grid3002"
       empspacing="5"
       visible="true"
       enabled="true"
       snapvisiblegridlinesonly="true" />
  </sodipodi:namedview>
  <metadata
     id="metadata7">
    <rdf:RDF>
      <cc:Work
         rdf:about="">
        <dc:format>image/svg+xml</dc:format>
        <dc:type
           rdf:resource="http://purl.org/dc/dcmitype/StillImage" />
        <dc:title />
      </cc:Work>
    </rdf:RDF>
  </metadata>
  <g
     inkscape:label="Layer 1"
     inkscape:groupmode="layer"
     id="layer1"
     transform="translate(0,-956.36218)">
    <rect
       style="fill:#ffffff;fill-opacity:0;fill-rule:nonzero;stroke:none"
       id="rect3775"
       width="96"
       height="96"
       x="0"
       y="956.36218"
       ry="0" />
    <path
       style="fill:#000000;fill-opacity:0.09589041;fill-rule:nonzero;stroke:none"
       d="m 3.353015,956.30662 c -1.884176,0 -3.4111555,1.43156 -3.4111555,3.19799 l 0,83.65949 c 0,1.7665 1.5269795,3.1981 3.4111555,3.1981 l 89.23583,0 c 1.884174,0 3.411155,-1.4316 3.411155,-3.1981 l 0,-83.65949 c 0,-1.76643 -1.526981,-3.19799 -3.411155,-3.19799 z"
       id="rect3772"
       inkscape:connector-curvature="0"
       sodipodi:nodetypes="sssssssss" />
    <path
       style="fill:#000000;fill-opacity:0.18721463;fill-rule:nonzero;stroke:none"
       d="m 1.0459761,1041.8066 0,7.4219 c 0,1.7392 1.461916,3.1337 3.2852054,3.1337 l 86.3836135,0 c 1.823288,0 3.285205,-1.3945 3.285205,-3.1337 l 0,-7.4219 -92.9540239,0 z"
       id="rect3785"
       inkscape:connector-curvature="0" />
    <path
       style="fill:#000000;fill-opacity:0.38356168;fill-rule:nonzero;stroke:none"
       d="m 1.0459761,1041.8066 0,5.3807 c 0,1.762 1.461916,3.1749 3.2852054,3.1749 l 86.3836135,0 c 1.823288,0 3.285205,-1.4129 3.285205,-3.1749 l 0,-5.3807 -92.9540239,0 z"
       id="rect3783"
       inkscape:connector-curvature="0" />
    <rect
       style="fill:#1eb53a;fill-opacity:1;fill-rule:nonzero;stroke:none"
       id="rect2985"
       width="92.954025"
       height="89"
       x="1.045977"
       y="957.36218"
       ry="3.1511393" />
    <path
       style="fill:#000000;fill-opacity:0.38356168;fill-rule:nonzero;stroke:none"
       d="m 1,1042.3622 0.045976,2.7457 c 0.03024,1.8058 1.461916,3.2543 3.2852054,3.2543 l 86.3836136,0 c 1.823288,0 3.285205,-1.4481 3.285205,-3.2543 l -0.04598,-2.7457 z"
       id="rect3781"
       inkscape:connector-curvature="0"
       sodipodi:nodetypes="csssscc" />
    <rect
       style="fill:#ffffff;fill-opacity:0.17351598;fill-rule:nonzero;stroke:none"
       id="rect3770"
       width="92.954033"
       height="2.000005"
       x="1.045976"
       y="1040.3622" />
    <path
       style="font-size:45.79383468999999707px;font-style:normal;font-variant:normal;font-weight:normal;font-stretch:normal;text-align:end;line-height:125%;letter-spacing:0px;word-spacing:0px;text-anchor:end;fill:#000000;fill-opacity:0.70776254;stroke:none;font-family:Andale Mono;-inkscape-font-specification:Andale Mono"
       d="M 26.75 10.09375 C 24.428292 10.093781 22.261825 10.477299 20.21875 11.28125 C 18.191129 12.070904 16.439147 13.189346 14.96875 14.625 C 13.451906 16.089421 12.273305 17.816926 11.4375 19.8125 C 10.617167 21.79376 10.218748 23.955463 10.21875 26.28125 C 10.218748 28.693208 10.633233 30.859983 11.5 32.8125 C 12.366761 34.765034 13.52959 36.448607 15 37.8125 C 16.454919 39.162043 18.174769 40.174053 20.125 40.90625 C 22.075208 41.638447 24.082483 42.031249 26.1875 42.03125 C 28.15318 42.031249 30.175639 41.803168 32.21875 41.34375 C 34.261813 40.884332 36.316405 40.20516 38.375 39.34375 C 38.344014 38.956118 38.312176 38.477989 38.28125 37.875 C 38.265742 37.272018 38.24997 36.097823 38.25 34.375 L 38.25 32 C 38.24997 31.468808 38.345485 31.012644 38.53125 30.625 C 38.732433 30.22302 39.066881 29.902864 39.53125 29.6875 C 39.918167 29.51523 40.4121 29.398653 41.03125 29.3125 C 41.665813 29.212014 42.159745 29.136833 42.53125 29.09375 L 42.53125 27.53125 L 28.09375 27.53125 L 28.09375 29.09375 C 28.589024 29.122476 29.289464 29.197658 30.15625 29.3125 C 31.03847 29.41301 31.739204 29.565909 32.25 29.78125 C 32.807182 29.996614 33.173468 30.338736 33.34375 30.8125 C 33.52946 31.271928 33.593725 31.803273 33.59375 32.40625 L 33.59375 34.09375 C 33.593725 34.624959 33.609203 35.270345 33.59375 36.03125 C 33.593725 36.792166 33.530048 37.534699 33.40625 38.28125 C 32.941887 38.711957 32.129866 39.143618 31 39.53125 C 29.885566 39.918886 28.643289 40.093751 27.28125 40.09375 C 25.454835 40.093751 23.845684 39.732199 22.40625 39 C 20.966788 38.267805 19.740871 37.277761 18.78125 36 C 17.821608 34.750963 17.104514 33.270969 16.59375 31.5625 C 16.098448 29.839693 15.843743 28.000684 15.84375 26.0625 C 15.843743 23.865924 16.11422 21.874015 16.625 20.09375 C 17.135764 18.313527 17.837086 16.81664 18.78125 15.625 C 19.740871 14.390341 20.88734 13.492371 22.1875 12.875 C 23.487633 12.243329 24.968843 11.906279 26.625 11.90625 C 28.141819 11.906279 29.447773 12.17322 30.53125 12.71875 C 31.630161 13.24998 32.554056 13.970548 33.3125 14.875 C 34.070894 15.779505 34.676407 16.820229 35.15625 17.96875 C 35.636039 19.102961 36.049935 20.260262 36.375 21.4375 L 38.28125 21.4375 L 38.0625 10.75 L 36.21875 10.75 L 35.25 12.21875 C 34.197474 11.63015 33.002513 11.135128 31.625 10.71875 C 30.247441 10.302433 28.607334 10.093781 26.75 10.09375 z "
       transform="translate(0,956.36218)"
       id="text3001" />
    <rect
       style="fill:#000000;fill-opacity:0.70776254;fill-rule:evenodd;stroke:none"
       id="rect3006"
       width="35"
       height="5"
       x="45"
       y="11"
       transform="translate(0,956.36218)" />
    <rect
       y="982.36218"
       x="45"
       height="5"
       width="35"
       id="rect3008"
       style="fill:#000000;fill-opacity:0.70776254;fill-rule:evenodd;stroke:none" />
    <rect
       style="fill:#000000;fill-opacity:0.70776254;fill-rule:evenodd;stroke:none"
       id="rect3010"
       width="35"
       height="5"
       x="45"
       y="997.36218" />
    <rect
       y="1012.3622"
       x="10"
       height="5"
       width="70"
       id="rect3012"
       style="fill:#000000;fill-opacity:0.70776254;fill-rule:evenodd;stroke:none" />
    <rect
       style="fill:#000000;fill-opacity:0.70776254;fill-rule:evenodd;stroke:none"
       id="rect3014"
       width="50"
       height="5"
       x="10"
       y="1027.3622" />
  </g>
</svg>
