<?xml version="1.0" encoding="UTF-8" standalone="no"?>
<!-- Created with Inkscape (http://www.inkscape.org/) -->

<svg
   xmlns:dc="http://purl.org/dc/elements/1.1/"
   xmlns:cc="http://creativecommons.org/ns#"
   xmlns:rdf="http://www.w3.org/1999/02/22-rdf-syntax-ns#"
   xmlns:svg="http://www.w3.org/2000/svg"
   xmlns="http://www.w3.org/2000/svg"
   xmlns:sodipodi="http://sodipodi.sourceforge.net/DTD/sodipodi-0.dtd"
   xmlns:inkscape="http://www.inkscape.org/namespaces/inkscape"
   width="96"
   height="96"
   id="svg2"
   version="1.1"
   inkscape:version="0.48.4 r9939"
   sodipodi:docname="gvim.svg">
  <defs
     id="defs4" />
  <sodipodi:namedview
     id="base"
     pagecolor="#ffffff"
     bordercolor="#666666"
     borderopacity="1.0"
     inkscape:pageopacity="0.0"
     inkscape:pageshadow="2"
     inkscape:zoom="5.90625"
     inkscape:cx="37.808133"
     inkscape:cy="48.048479"
     inkscape:document-units="px"
     inkscape:current-layer="layer1"
     showgrid="true"
     inkscape:snap-page="true"
     inkscape:snap-global="false"
     inkscape:snap-center="true"
     inkscape:snap-object-midpoints="false"
     showguides="true"
     inkscape:guide-bbox="true"
     inkscape:snap-bbox="true"
     inkscape:object-paths="true"
     inkscape:object-nodes="true"
     inkscape:window-width="1305"
     inkscape:window-height="744"
     inkscape:window-x="61"
     inkscape:window-y="24"
     inkscape:window-maximized="1"
     inkscape:snap-midpoints="false"
     inkscape:snap-grids="true"
     inkscape:snap-to-guides="false">
    <inkscape:grid
       type="xygrid"
       id="grid3002"
       empspacing="5"
       visible="true"
       enabled="true"
       snapvisiblegridlinesonly="true" />
  </sodipodi:namedview>
  <metadata
     id="metadata7">
    <rdf:RDF>
      <cc:Work
         rdf:about="">
        <dc:format>image/svg+xml</dc:format>
        <dc:type
           rdf:resource="http://purl.org/dc/dcmitype/StillImage" />
        <dc:title />
      </cc:Work>
    </rdf:RDF>
  </metadata>
  <g
     inkscape:label="Layer 1"
     inkscape:groupmode="layer"
     id="layer1"
     transform="translate(0,-956.36218)">
    <rect
       style="fill:#ffffff;fill-opacity:0;fill-rule:nonzero;stroke:none"
       id="rect3775"
       width="96"
       height="96"
       x="0"
       y="956.36218"
       ry="0" />
    <path
       style="fill:#000000;fill-opacity:0.09589041;fill-rule:nonzero;stroke:none"
       d="m 3.353015,956.30662 c -1.884176,0 -3.4111555,1.43156 -3.4111555,3.19799 l 0,83.65949 c 0,1.7665 1.5269795,3.1981 3.4111555,3.1981 l 89.23583,0 c 1.884174,0 3.411155,-1.4316 3.411155,-3.1981 l 0,-83.65949 c 0,-1.76643 -1.526981,-3.19799 -3.411155,-3.19799 z"
       id="rect3772"
       inkscape:connector-curvature="0"
       sodipodi:nodetypes="sssssssss" />
    <path
       style="fill:#000000;fill-opacity:0.18721463;fill-rule:nonzero;stroke:none"
       d="m 1.0459761,1041.8066 0,7.4219 c 0,1.7392 1.461916,3.1337 3.2852054,3.1337 l 86.3836135,0 c 1.823288,0 3.285205,-1.3945 3.285205,-3.1337 l 0,-7.4219 -92.9540239,0 z"
       id="rect3785"
       inkscape:connector-curvature="0" />
    <path
       style="fill:#000000;fill-opacity:0.38356168;fill-rule:nonzero;stroke:none"
       d="m 1.0459761,1041.8066 0,5.3807 c 0,1.762 1.461916,3.1749 3.2852054,3.1749 l 86.3836135,0 c 1.823288,0 3.285205,-1.4129 3.285205,-3.1749 l 0,-5.3807 -92.9540239,0 z"
       id="rect3783"
       inkscape:connector-curvature="0" />
    <rect
       style="fill:#1eb53a;fill-opacity:1;fill-rule:nonzero;stroke:none"
       id="rect2985-2"
       width="93"
       height="88.999962"
       x="0.9999969"
       y="957.36224"
       ry="3.1511383" />
    <path
       style="fill:#000000;fill-opacity:0.38356168;fill-rule:nonzero;stroke:none"
       d="m 1,1042.3622 0.045976,2.7457 c 0.03024,1.8058 1.461916,3.2543 3.2852054,3.2543 l 86.3836136,0 c 1.823288,0 3.285205,-1.4481 3.285205,-3.2543 l -0.04598,-2.7457 z"
       id="rect3781"
       inkscape:connector-curvature="0"
       sodipodi:nodetypes="csssscc" />
    <rect
       style="fill:#ffffff;fill-opacity:0.30000001;fill-rule:nonzero;stroke:none"
       id="rect3770"
       width="92.954033"
       height="2.000005"
       x="1.045976"
       y="1040.3622" />
    <path
       style="fill:#ffffff;fill-opacity:0.6484018;fill-rule:evenodd;stroke-width:0.25000000000000000"
       d="m 42.166437,983.15128 c -0.561813,-0.0225 -1.049084,0.32697 -0.982989,0.94991 l 0,1.41435 c 0.0221,0.85114 0.649297,0.97255 1.100947,0.9499 l 1.592446,0 c 0.418611,0.18116 0.58742,0.42878 0.609454,0.94975 -0.05174,1.07244 -0.06491,1.0657 -1.06163,2.10167 l -15.039726,15.88324 -0.05902,-18.61138 1.73006,0 c 0.319469,-0.0353 0.731309,-0.40068 0.786395,-0.80827 l 0,-2.08144 c -0.0111,-0.39619 -0.253736,-0.69842 -0.727415,-0.68718 l -13.565237,0 c -0.495708,-0.0225 -0.83909,0.42895 -0.806052,0.94991 l -0.01961,1.55597 c -0.0019,0.52306 0.363047,0.94494 0.825707,0.99007 l 2.142915,0 -0.03931,34.95972 c -0.033,0.3625 0.03051,0.5627 0.294896,0.6872 l 2.850664,0 c 0.374555,-0.034 0.876566,-0.5009 1.317207,-1.0105 l 32.16338,-33.62581 c 0.352516,-0.39651 0.738432,-0.85677 0.727414,-1.25295 l -0.05898,-2.68769 c 0,-0.35106 -0.258463,-0.6088 -0.688091,-0.58616 l -13.093409,-0.0401 z m 0.766738,21.78402 c -1.227944,0 -2.22156,1.1137 -2.22156,2.4857 0,1.372 0.993616,2.4857 2.22156,2.4857 1.227932,0 2.221553,-1.1137 2.221553,-2.4857 0,-1.372 -0.993621,-2.4857 -2.221553,-2.4857 z m 4.85596,5.4159 c -0.577431,0 -1.133789,0.073 -1.671078,0.1413 -0.420519,-0.032 -0.585438,0.6646 -0.432518,1.1518 l 0.452176,0.9094 c 0.05748,0.7399 0.408045,1.5347 -3.165227,8.2046 -0.351713,0.7934 0.132105,1.6041 0.904353,1.5963 l 3.145563,-0.04 c 0.366561,-0.016 1.00962,-0.8663 0.727413,-1.4751 l -0.668433,-0.8488 c -0.304287,-0.5422 0.349281,-2.135 1.120607,-3.7587 1.115088,-1.5048 2.408114,-1.6017 3.224201,-1.6164 0.243411,0.056 0.340783,0.3555 0.412856,0.6667 -0.4126,1.1637 -0.940737,2.535 -2.516451,5.4764 -0.351711,0.7938 0.0928,1.6041 0.865031,1.5963 l 3.184881,-0.038 c 0.366561,-0.016 1.00963,-0.8666 0.727413,-1.4753 l -0.668433,-0.8487 c -0.308693,-0.5501 0.353445,-2.1709 1.140267,-3.8194 1.031207,-1.519 2.288012,-1.556 3.066924,-1.556 0.310936,0.098 0.373396,0.5144 0.373536,0.9297 -0.430544,1.1677 -0.86042,2.416 -2.359174,5.2135 -0.351711,0.7939 0.0928,1.6043 0.865031,1.5963 l 3.165222,-0.04 c 0.366562,-0.016 1.029299,-0.8663 0.74707,-1.4751 l -0.668432,-0.8486 c -0.629845,-1.1228 1.915211,-4.3987 2.654071,-6.4466 0.458767,-1.4617 -1.113993,-2.728 -1.985639,-3.0109 l -2.398492,-0.04 c -0.432884,0.1027 -0.529703,0.362 -0.648769,0.8284 l -1.651422,-0.021 c 0.03233,-0.4319 -0.06425,-0.7165 -0.373534,-0.7479 l -2.516452,-0.038 c -0.811242,-0.018 -0.741323,0.2957 -0.84537,0.8081 l -2.437811,0 c 0.135052,-0.2688 0.121428,-0.6518 -0.01967,-0.8285 -0.583156,-0.1108 -1.172278,-0.1509 -1.749711,-0.1444 z m -4.914939,0.4445 -1.710404,0.038 c -1.116309,-0.023 -1.331392,0.3772 -1.277885,1.4145 0.02296,0.7783 0.573655,1.3672 -3.165226,8.3461 -0.351703,0.7937 0.09278,1.6049 0.865031,1.5963 l 3.165226,-0.022 c 0.366558,-0.016 1.029294,-0.8865 0.747072,-1.4954 l -0.668436,-0.8487 c -0.629832,-1.1226 2.704909,-6.6787 3.145565,-7.9013 0.275256,-0.799 -0.06874,-1.1761 -1.100943,-1.129 z"
       id="path2933"
       inkscape:connector-curvature="0" />
  </g>
</svg>
