<?xml version="1.0" encoding="UTF-8" standalone="no"?>
<!-- Created with Inkscape (http://www.inkscape.org/) -->

<svg
   xmlns:dc="http://purl.org/dc/elements/1.1/"
   xmlns:cc="http://creativecommons.org/ns#"
   xmlns:rdf="http://www.w3.org/1999/02/22-rdf-syntax-ns#"
   xmlns:svg="http://www.w3.org/2000/svg"
   xmlns="http://www.w3.org/2000/svg"
   xmlns:sodipodi="http://sodipodi.sourceforge.net/DTD/sodipodi-0.dtd"
   xmlns:inkscape="http://www.inkscape.org/namespaces/inkscape"
   width="96"
   height="96"
   id="svg2"
   version="1.1"
   inkscape:version="0.48.4 r9939"
   sodipodi:docname="ibus-setup.svg">
  <defs
     id="defs4" />
  <sodipodi:namedview
     id="base"
     pagecolor="#ffffff"
     bordercolor="#666666"
     borderopacity="1.0"
     inkscape:pageopacity="0.0"
     inkscape:pageshadow="2"
     inkscape:zoom="5.90625"
     inkscape:cx="33.94013"
     inkscape:cy="50.178233"
     inkscape:document-units="px"
     inkscape:current-layer="layer1"
     showgrid="true"
     inkscape:snap-page="true"
     inkscape:snap-global="true"
     inkscape:snap-center="true"
     inkscape:snap-object-midpoints="false"
     showguides="true"
     inkscape:guide-bbox="true"
     inkscape:snap-bbox="true"
     inkscape:object-paths="true"
     inkscape:object-nodes="true"
     inkscape:window-width="1305"
     inkscape:window-height="744"
     inkscape:window-x="61"
     inkscape:window-y="24"
     inkscape:window-maximized="1"
     inkscape:snap-midpoints="false"
     inkscape:snap-grids="true"
     inkscape:snap-to-guides="false">
    <inkscape:grid
       type="xygrid"
       id="grid3002"
       empspacing="5"
       visible="true"
       enabled="true"
       snapvisiblegridlinesonly="true" />
  </sodipodi:namedview>
  <metadata
     id="metadata7">
    <rdf:RDF>
      <cc:Work
         rdf:about="">
        <dc:format>image/svg+xml</dc:format>
        <dc:type
           rdf:resource="http://purl.org/dc/dcmitype/StillImage" />
        <dc:title />
      </cc:Work>
    </rdf:RDF>
  </metadata>
  <g
     inkscape:label="Layer 1"
     inkscape:groupmode="layer"
     id="layer1"
     transform="translate(0,-956.36218)">
    <rect
       style="fill:#ffffff;fill-opacity:0;fill-rule:nonzero;stroke:none"
       id="rect3775"
       width="96"
       height="96"
       x="0"
       y="956.36218"
       ry="0" />
    <path
       style="fill:#000000;fill-opacity:0.09589041;fill-rule:nonzero;stroke:none"
       d="m 3.353015,956.30662 c -1.884176,0 -3.4111555,1.43156 -3.4111555,3.19799 l 0,83.65949 c 0,1.7665 1.5269795,3.1981 3.4111555,3.1981 l 89.23583,0 c 1.884174,0 3.411155,-1.4316 3.411155,-3.1981 l 0,-83.65949 c 0,-1.76643 -1.526981,-3.19799 -3.411155,-3.19799 z"
       id="rect3772"
       inkscape:connector-curvature="0"
       sodipodi:nodetypes="sssssssss" />
    <path
       style="fill:#000000;fill-opacity:0.18721463;fill-rule:nonzero;stroke:none"
       d="m 1.0459761,1041.8066 0,7.4219 c 0,1.7392 1.461916,3.1337 3.2852054,3.1337 l 86.3836135,0 c 1.823288,0 3.285205,-1.3945 3.285205,-3.1337 l 0,-7.4219 -92.9540239,0 z"
       id="rect3785"
       inkscape:connector-curvature="0" />
    <path
       style="fill:#000000;fill-opacity:0.38356168;fill-rule:nonzero;stroke:none"
       d="m 1.0459761,1041.8066 0,5.3807 c 0,1.762 1.461916,3.1749 3.2852054,3.1749 l 86.3836135,0 c 1.823288,0 3.285205,-1.4129 3.285205,-3.1749 l 0,-5.3807 -92.9540239,0 z"
       id="rect3783"
       inkscape:connector-curvature="0" />
    <rect
       style="fill:#a8007a;fill-opacity:1;fill-rule:nonzero;stroke:none"
       id="rect2985"
       width="92.954025"
       height="89"
       x="1.045977"
       y="-1046.3622"
       ry="3.1511393"
       transform="scale(1,-1)" />
    <path
       inkscape:connector-curvature="0"
       id="path3057"
       d="m 58.011025,975.09706 -6.771164,1.26757 0.834801,4.45234 c -2.276326,0.73878 -4.403517,1.76108 -6.338304,3.03 l -2.937263,-3.43192 -5.225234,4.48318 2.937263,3.43192 c -1.563987,1.74587 -2.898942,3.69013 -3.957576,5.78174 l -4.266761,-1.515 -2.287972,6.49291 4.26676,1.515 c -0.477131,2.2476 -0.656236,4.5847 -0.525615,6.9568 l -4.452272,0.8348 1.267661,6.8021 4.452272,-0.8349 c 0.735154,2.269 1.738483,4.378 2.9991,6.3074 l -3.431959,2.9374 4.483189,5.2251 3.462877,-2.9373 c 1.741339,1.5646 3.663388,2.8982 5.750852,3.9576 l -1.515008,4.2668 6.523813,2.288 1.51501,-4.2668 c 2.244869,0.4747 4.586128,0.6891 6.956674,0.5566 l 0.834801,4.4523 6.771164,-1.2678 -0.834801,-4.4522 c 2.274887,-0.7359 4.40452,-1.7354 6.338304,-2.9991 l 2.906343,3.401 5.256155,-4.4832 -2.937263,-3.4319 c 1.564472,-1.7421 2.86757,-3.6935 3.926657,-5.7818 l 4.297679,1.515 2.287972,-6.4929 -4.26676,-1.515 c 0.478195,-2.249 0.65702,-4.5812 0.525616,-6.9566 l 4.452271,-0.8348 -1.267661,-6.8022 -4.452271,0.8348 c -0.734784,-2.26304 -1.741346,-4.38239 -2.999101,-6.30739 l 3.431959,-2.93721 -4.483189,-5.22532 -3.462877,2.93733 c -1.740326,-1.56295 -3.664961,-2.89908 -5.750852,-3.95761 l 1.51501,-4.26674 -6.523815,-2.28799 -1.51501,4.26673 c -2.246443,-0.47532 -4.584341,-0.65836 -6.956674,-0.52556 l -0.834801,-4.48318 z m 1.607764,9.67753 c 10.354697,-0.33727 19.715085,6.9464 21.673906,17.43801 2.161471,11.5771 -5.520963,22.6971 -17.09796,24.8585 -11.576997,2.1615 -22.697046,-5.4591 -24.858517,-17.0361 -2.161458,-11.5769 5.459126,-22.72796 17.036124,-24.88947 1.085342,-0.20258 2.175272,-0.33606 3.246447,-0.37094 z"
       style="fill:#2b0011;fill-opacity:0.46575347;stroke:none" />
    <path
       style="fill:#000000;fill-opacity:0.38356168;fill-rule:nonzero;stroke:none"
       d="m 1,1042.3622 0.045976,2.7457 c 0.03024,1.8058 1.461916,3.2543 3.2852054,3.2543 l 86.3836136,0 c 1.823288,0 3.285205,-1.4481 3.285205,-3.2543 l -0.04598,-2.7457 z"
       id="rect3781"
       inkscape:connector-curvature="0"
       sodipodi:nodetypes="csssscc" />
    <rect
       style="fill:#ffffff;fill-opacity:0.30000001;fill-rule:nonzero;stroke:none"
       id="rect3770"
       width="92.954033"
       height="2.000005"
       x="1.045976"
       y="1040.3622" />
    <path
       sodipodi:type="arc"
       style="fill:#ffffff;fill-opacity:0.18981485;fill-rule:nonzero;stroke:none"
       id="path3754"
       sodipodi:cx="22.8622"
       sodipodi:cy="22.355394"
       sodipodi:rx="3.439446"
       sodipodi:ry="4.4510474"
       d="m 26.301646,22.355394 c 0,2.458246 -1.539893,4.451048 -3.439446,4.451048 -1.899554,0 -3.439446,-1.992802 -3.439446,-4.451048 0,-2.458245 1.539892,-4.451047 3.439446,-4.451047 1.899553,0 3.439446,1.992802 3.439446,4.451047 z"
       transform="matrix(1.0000157,0,0,0.77273946,-9.862559,945.64778)" />
    <path
       transform="matrix(1.0000157,0,0,0.77273946,-9.862559,955.64778)"
       d="m 26.301646,22.355394 c 0,2.458246 -1.539893,4.451048 -3.439446,4.451048 -1.899554,0 -3.439446,-1.992802 -3.439446,-4.451048 0,-2.458245 1.539892,-4.451047 3.439446,-4.451047 1.899553,0 3.439446,1.992802 3.439446,4.451047 z"
       sodipodi:ry="4.4510474"
       sodipodi:rx="3.439446"
       sodipodi:cy="22.355394"
       sodipodi:cx="22.8622"
       id="path3756"
       style="fill:#ffffff;fill-opacity:0.18981485;fill-rule:nonzero;stroke:none"
       sodipodi:type="arc" />
    <path
       sodipodi:type="arc"
       style="fill:#ffffff;fill-opacity:0.18981485;fill-rule:nonzero;stroke:none"
       id="path3758"
       sodipodi:cx="22.8622"
       sodipodi:cy="22.355394"
       sodipodi:rx="3.439446"
       sodipodi:ry="4.4510474"
       d="m 26.301646,22.355394 c 0,2.458246 -1.539893,4.451048 -3.439446,4.451048 -1.899554,0 -3.439446,-1.992802 -3.439446,-4.451048 0,-2.458245 1.539892,-4.451047 3.439446,-4.451047 1.899553,0 3.439446,1.992802 3.439446,4.451047 z"
       transform="matrix(1.0000157,0,0,0.77273946,-9.862559,965.64778)" />
    <path
       transform="matrix(1.0000157,0,0,0.77273946,-9.862559,975.64778)"
       d="m 26.301646,22.355394 c 0,2.458246 -1.539893,4.451048 -3.439446,4.451048 -1.899554,0 -3.439446,-1.992802 -3.439446,-4.451048 0,-2.458245 1.539892,-4.451047 3.439446,-4.451047 1.899553,0 3.439446,1.992802 3.439446,4.451047 z"
       sodipodi:ry="4.4510474"
       sodipodi:rx="3.439446"
       sodipodi:cy="22.355394"
       sodipodi:cx="22.8622"
       id="path3760"
       style="fill:#ffffff;fill-opacity:0.18981485;fill-rule:nonzero;stroke:none"
       sodipodi:type="arc" />
    <path
       sodipodi:type="arc"
       style="fill:#ffffff;fill-opacity:0.18981485;fill-rule:nonzero;stroke:none"
       id="path3762"
       sodipodi:cx="22.8622"
       sodipodi:cy="22.355394"
       sodipodi:rx="3.439446"
       sodipodi:ry="4.4510474"
       d="m 26.301646,22.355394 c 0,2.458246 -1.539893,4.451048 -3.439446,4.451048 -1.899554,0 -3.439446,-1.992802 -3.439446,-4.451048 0,-2.458245 1.539892,-4.451047 3.439446,-4.451047 1.899553,0 3.439446,1.992802 3.439446,4.451047 z"
       transform="matrix(1.0000157,0,0,0.77273946,-9.862559,985.64778)" />
    <path
       transform="matrix(1.0000157,0,0,0.77273946,-9.862559,995.6476)"
       d="m 26.301646,22.355394 c 0,2.458246 -1.539893,4.451048 -3.439446,4.451048 -1.899554,0 -3.439446,-1.992802 -3.439446,-4.451048 0,-2.458245 1.539892,-4.451047 3.439446,-4.451047 1.899553,0 3.439446,1.992802 3.439446,4.451047 z"
       sodipodi:ry="4.4510474"
       sodipodi:rx="3.439446"
       sodipodi:cy="22.355394"
       sodipodi:cx="22.8622"
       id="path3764"
       style="fill:#ffffff;fill-opacity:0.18981485;fill-rule:nonzero;stroke:none"
       sodipodi:type="arc" />
    <path
       sodipodi:type="arc"
       style="fill:#ffffff;fill-opacity:0.18981485;fill-rule:nonzero;stroke:none"
       id="path3766"
       sodipodi:cx="22.8622"
       sodipodi:cy="22.355394"
       sodipodi:rx="3.439446"
       sodipodi:ry="4.4510474"
       d="m 26.301646,22.355394 c 0,2.458246 -1.539893,4.451048 -3.439446,4.451048 -1.899554,0 -3.439446,-1.992802 -3.439446,-4.451048 0,-2.458245 1.539892,-4.451047 3.439446,-4.451047 1.899553,0 3.439446,1.992802 3.439446,4.451047 z"
       transform="matrix(1.0000157,0,0,0.77273946,-9.862559,1005.6476)" />
    <path
       transform="matrix(1.0000157,0,0,0.77273946,-9.862559,1015.6476)"
       d="m 26.301646,22.355394 c 0,2.458246 -1.539893,4.451048 -3.439446,4.451048 -1.899554,0 -3.439446,-1.992802 -3.439446,-4.451048 0,-2.458245 1.539892,-4.451047 3.439446,-4.451047 1.899553,0 3.439446,1.992802 3.439446,4.451047 z"
       sodipodi:ry="4.4510474"
       sodipodi:rx="3.439446"
       sodipodi:cy="22.355394"
       sodipodi:cx="22.8622"
       id="path3768"
       style="fill:#ffffff;fill-opacity:0.18981485;fill-rule:nonzero;stroke:none"
       sodipodi:type="arc" />
    <path
       transform="matrix(1.0000157,0,0,0.77273946,0.137442,945.64778)"
       d="m 26.301646,22.355394 c 0,2.458246 -1.539893,4.451048 -3.439446,4.451048 -1.899554,0 -3.439446,-1.992802 -3.439446,-4.451048 0,-2.458245 1.539892,-4.451047 3.439446,-4.451047 1.899553,0 3.439446,1.992802 3.439446,4.451047 z"
       sodipodi:ry="4.4510474"
       sodipodi:rx="3.439446"
       sodipodi:cy="22.355394"
       sodipodi:cx="22.8622"
       id="path3770"
       style="fill:#ffffff;fill-opacity:0.18981485;fill-rule:nonzero;stroke:none"
       sodipodi:type="arc" />
    <path
       sodipodi:type="arc"
       style="fill:#ffffff;fill-opacity:0.18981485;fill-rule:nonzero;stroke:none"
       id="path3772"
       sodipodi:cx="22.8622"
       sodipodi:cy="22.355394"
       sodipodi:rx="3.439446"
       sodipodi:ry="4.4510474"
       d="m 26.301646,22.355394 c 0,2.458246 -1.539893,4.451048 -3.439446,4.451048 -1.899554,0 -3.439446,-1.992802 -3.439446,-4.451048 0,-2.458245 1.539892,-4.451047 3.439446,-4.451047 1.899553,0 3.439446,1.992802 3.439446,4.451047 z"
       transform="matrix(1.0000157,0,0,0.77273946,0.137442,955.64778)" />
    <path
       transform="matrix(1.0000157,0,0,0.77273946,0.137442,965.64778)"
       d="m 26.301646,22.355394 c 0,2.458246 -1.539893,4.451048 -3.439446,4.451048 -1.899554,0 -3.439446,-1.992802 -3.439446,-4.451048 0,-2.458245 1.539892,-4.451047 3.439446,-4.451047 1.899553,0 3.439446,1.992802 3.439446,4.451047 z"
       sodipodi:ry="4.4510474"
       sodipodi:rx="3.439446"
       sodipodi:cy="22.355394"
       sodipodi:cx="22.8622"
       id="path3774"
       style="fill:#ffffff;fill-opacity:0.18981485;fill-rule:nonzero;stroke:none"
       sodipodi:type="arc" />
    <path
       sodipodi:type="arc"
       style="fill:#ffffff;fill-opacity:0.18981485;fill-rule:nonzero;stroke:none"
       id="path3776"
       sodipodi:cx="22.8622"
       sodipodi:cy="22.355394"
       sodipodi:rx="3.439446"
       sodipodi:ry="4.4510474"
       d="m 26.301646,22.355394 c 0,2.458246 -1.539893,4.451048 -3.439446,4.451048 -1.899554,0 -3.439446,-1.992802 -3.439446,-4.451048 0,-2.458245 1.539892,-4.451047 3.439446,-4.451047 1.899553,0 3.439446,1.992802 3.439446,4.451047 z"
       transform="matrix(1.0000157,0,0,0.77273946,0.137442,975.64778)" />
    <path
       transform="matrix(1.0000157,0,0,0.77273946,0.137442,985.64778)"
       d="m 26.301646,22.355394 c 0,2.458246 -1.539893,4.451048 -3.439446,4.451048 -1.899554,0 -3.439446,-1.992802 -3.439446,-4.451048 0,-2.458245 1.539892,-4.451047 3.439446,-4.451047 1.899553,0 3.439446,1.992802 3.439446,4.451047 z"
       sodipodi:ry="4.4510474"
       sodipodi:rx="3.439446"
       sodipodi:cy="22.355394"
       sodipodi:cx="22.8622"
       id="path3778"
       style="fill:#ffffff;fill-opacity:0.18981485;fill-rule:nonzero;stroke:none"
       sodipodi:type="arc" />
    <path
       sodipodi:type="arc"
       style="fill:#ffffff;fill-opacity:0.18981485;fill-rule:nonzero;stroke:none"
       id="path3780"
       sodipodi:cx="22.8622"
       sodipodi:cy="22.355394"
       sodipodi:rx="3.439446"
       sodipodi:ry="4.4510474"
       d="m 26.301646,22.355394 c 0,2.458246 -1.539893,4.451048 -3.439446,4.451048 -1.899554,0 -3.439446,-1.992802 -3.439446,-4.451048 0,-2.458245 1.539892,-4.451047 3.439446,-4.451047 1.899553,0 3.439446,1.992802 3.439446,4.451047 z"
       transform="matrix(1.0000157,0,0,0.77273946,0.137442,995.6476)" />
    <path
       transform="matrix(1.0000157,0,0,0.77273946,0.137442,1005.6476)"
       d="m 26.301646,22.355394 c 0,2.458246 -1.539893,4.451048 -3.439446,4.451048 -1.899554,0 -3.439446,-1.992802 -3.439446,-4.451048 0,-2.458245 1.539892,-4.451047 3.439446,-4.451047 1.899553,0 3.439446,1.992802 3.439446,4.451047 z"
       sodipodi:ry="4.4510474"
       sodipodi:rx="3.439446"
       sodipodi:cy="22.355394"
       sodipodi:cx="22.8622"
       id="path3782"
       style="fill:#ffffff;fill-opacity:0.18981485;fill-rule:nonzero;stroke:none"
       sodipodi:type="arc" />
    <path
       sodipodi:type="arc"
       style="fill:#ffffff;fill-opacity:0.18981485;fill-rule:nonzero;stroke:none"
       id="path3784"
       sodipodi:cx="22.8622"
       sodipodi:cy="22.355394"
       sodipodi:rx="3.439446"
       sodipodi:ry="4.4510474"
       d="m 26.301646,22.355394 c 0,2.458246 -1.539893,4.451048 -3.439446,4.451048 -1.899554,0 -3.439446,-1.992802 -3.439446,-4.451048 0,-2.458245 1.539892,-4.451047 3.439446,-4.451047 1.899553,0 3.439446,1.992802 3.439446,4.451047 z"
       transform="matrix(1.0000157,0,0,0.77273946,0.137442,1015.6476)" />
    <path
       sodipodi:type="arc"
       style="fill:#ffffff;fill-opacity:0.18981485;fill-rule:nonzero;stroke:none"
       id="path3786"
       sodipodi:cx="22.8622"
       sodipodi:cy="22.355394"
       sodipodi:rx="3.439446"
       sodipodi:ry="4.4510474"
       d="m 26.301646,22.355394 c 0,2.458246 -1.539893,4.451048 -3.439446,4.451048 -1.899554,0 -3.439446,-1.992802 -3.439446,-4.451048 0,-2.458245 1.539892,-4.451047 3.439446,-4.451047 1.899553,0 3.439446,1.992802 3.439446,4.451047 z"
       transform="matrix(1.0000157,0,0,0.77273946,10.137441,945.64778)" />
    <path
       transform="matrix(1.0000157,0,0,0.77273946,10.137441,955.64778)"
       d="m 26.301646,22.355394 c 0,2.458246 -1.539893,4.451048 -3.439446,4.451048 -1.899554,0 -3.439446,-1.992802 -3.439446,-4.451048 0,-2.458245 1.539892,-4.451047 3.439446,-4.451047 1.899553,0 3.439446,1.992802 3.439446,4.451047 z"
       sodipodi:ry="4.4510474"
       sodipodi:rx="3.439446"
       sodipodi:cy="22.355394"
       sodipodi:cx="22.8622"
       id="path3788"
       style="fill:#ffffff;fill-opacity:0.18981485;fill-rule:nonzero;stroke:none"
       sodipodi:type="arc" />
    <path
       sodipodi:type="arc"
       style="fill:#ffffff;fill-opacity:0.18999999;fill-rule:nonzero;stroke:none"
       id="path3790"
       sodipodi:cx="22.8622"
       sodipodi:cy="22.355394"
       sodipodi:rx="3.439446"
       sodipodi:ry="4.4510474"
       d="m 26.301646,22.355394 c 0,2.458246 -1.539893,4.451048 -3.439446,4.451048 -1.899554,0 -3.439446,-1.992802 -3.439446,-4.451048 0,-2.458245 1.539892,-4.451047 3.439446,-4.451047 1.899553,0 3.439446,1.992802 3.439446,4.451047 z"
       transform="matrix(1.0000157,0,0,0.77273946,10.137441,965.64778)" />
    <path
       transform="matrix(1.0000157,0,0,0.77273946,10.137441,975.64778)"
       d="m 26.301646,22.355394 c 0,2.458246 -1.539893,4.451048 -3.439446,4.451048 -1.899554,0 -3.439446,-1.992802 -3.439446,-4.451048 0,-2.458245 1.539892,-4.451047 3.439446,-4.451047 1.899553,0 3.439446,1.992802 3.439446,4.451047 z"
       sodipodi:ry="4.4510474"
       sodipodi:rx="3.439446"
       sodipodi:cy="22.355394"
       sodipodi:cx="22.8622"
       id="path3792"
       style="fill:#fcd116;fill-opacity:1;fill-rule:nonzero;stroke:none"
       sodipodi:type="arc" />
    <path
       sodipodi:type="arc"
       style="fill:#ffffff;fill-opacity:0.18981485;fill-rule:nonzero;stroke:none"
       id="path3794"
       sodipodi:cx="22.8622"
       sodipodi:cy="22.355394"
       sodipodi:rx="3.439446"
       sodipodi:ry="4.4510474"
       d="m 26.301646,22.355394 c 0,2.458246 -1.539893,4.451048 -3.439446,4.451048 -1.899554,0 -3.439446,-1.992802 -3.439446,-4.451048 0,-2.458245 1.539892,-4.451047 3.439446,-4.451047 1.899553,0 3.439446,1.992802 3.439446,4.451047 z"
       transform="matrix(1.0000157,0,0,0.77273946,10.137441,985.64778)" />
    <path
       transform="matrix(1.0000157,0,0,0.77273946,10.137441,995.6476)"
       d="m 26.301646,22.355394 c 0,2.458246 -1.539893,4.451048 -3.439446,4.451048 -1.899554,0 -3.439446,-1.992802 -3.439446,-4.451048 0,-2.458245 1.539892,-4.451047 3.439446,-4.451047 1.899553,0 3.439446,1.992802 3.439446,4.451047 z"
       sodipodi:ry="4.4510474"
       sodipodi:rx="3.439446"
       sodipodi:cy="22.355394"
       sodipodi:cx="22.8622"
       id="path3796"
       style="fill:#ffffff;fill-opacity:0.18999999;fill-rule:nonzero;stroke:none"
       sodipodi:type="arc" />
    <path
       sodipodi:type="arc"
       style="fill:#fcd116;fill-opacity:1;fill-rule:nonzero;stroke:none"
       id="path3798"
       sodipodi:cx="22.8622"
       sodipodi:cy="22.355394"
       sodipodi:rx="3.439446"
       sodipodi:ry="4.4510474"
       d="m 26.301646,22.355394 c 0,2.458246 -1.539893,4.451048 -3.439446,4.451048 -1.899554,0 -3.439446,-1.992802 -3.439446,-4.451048 0,-2.458245 1.539892,-4.451047 3.439446,-4.451047 1.899553,0 3.439446,1.992802 3.439446,4.451047 z"
       transform="matrix(1.0000157,0,0,0.77273946,10.137441,1005.6476)" />
    <path
       transform="matrix(1.0000157,0,0,0.77273946,10.137441,1015.6476)"
       d="m 26.301646,22.355394 c 0,2.458246 -1.539893,4.451048 -3.439446,4.451048 -1.899554,0 -3.439446,-1.992802 -3.439446,-4.451048 0,-2.458245 1.539892,-4.451047 3.439446,-4.451047 1.899553,0 3.439446,1.992802 3.439446,4.451047 z"
       sodipodi:ry="4.4510474"
       sodipodi:rx="3.439446"
       sodipodi:cy="22.355394"
       sodipodi:cx="22.8622"
       id="path3800"
       style="fill:#ffffff;fill-opacity:0.18981485;fill-rule:nonzero;stroke:none"
       sodipodi:type="arc" />
    <path
       transform="matrix(1.0000157,0,0,0.77273946,20.137441,945.64778)"
       d="m 26.301646,22.355394 c 0,2.458246 -1.539893,4.451048 -3.439446,4.451048 -1.899554,0 -3.439446,-1.992802 -3.439446,-4.451048 0,-2.458245 1.539892,-4.451047 3.439446,-4.451047 1.899553,0 3.439446,1.992802 3.439446,4.451047 z"
       sodipodi:ry="4.4510474"
       sodipodi:rx="3.439446"
       sodipodi:cy="22.355394"
       sodipodi:cx="22.8622"
       id="path3802"
       style="fill:#fcd116;fill-opacity:1;fill-rule:nonzero;stroke:none"
       sodipodi:type="arc" />
    <path
       sodipodi:type="arc"
       style="fill:#fcd116;fill-opacity:1;fill-rule:nonzero;stroke:none"
       id="path3804"
       sodipodi:cx="22.8622"
       sodipodi:cy="22.355394"
       sodipodi:rx="3.439446"
       sodipodi:ry="4.4510474"
       d="m 26.301646,22.355394 c 0,2.458246 -1.539893,4.451048 -3.439446,4.451048 -1.899554,0 -3.439446,-1.992802 -3.439446,-4.451048 0,-2.458245 1.539892,-4.451047 3.439446,-4.451047 1.899553,0 3.439446,1.992802 3.439446,4.451047 z"
       transform="matrix(1.0000157,0,0,0.77273946,20.137441,955.64778)" />
    <path
       transform="matrix(1.0000157,0,0,0.77273946,20.137441,965.64778)"
       d="m 26.301646,22.355394 c 0,2.458246 -1.539893,4.451048 -3.439446,4.451048 -1.899554,0 -3.439446,-1.992802 -3.439446,-4.451048 0,-2.458245 1.539892,-4.451047 3.439446,-4.451047 1.899553,0 3.439446,1.992802 3.439446,4.451047 z"
       sodipodi:ry="4.4510474"
       sodipodi:rx="3.439446"
       sodipodi:cy="22.355394"
       sodipodi:cx="22.8622"
       id="path3806"
       style="fill:#ffffff;fill-opacity:0.18999999;fill-rule:nonzero;stroke:none"
       sodipodi:type="arc" />
    <path
       sodipodi:type="arc"
       style="fill:#fcd116;fill-opacity:1;fill-rule:nonzero;stroke:none"
       id="path3808"
       sodipodi:cx="22.8622"
       sodipodi:cy="22.355394"
       sodipodi:rx="3.439446"
       sodipodi:ry="4.4510474"
       d="m 26.301646,22.355394 c 0,2.458246 -1.539893,4.451048 -3.439446,4.451048 -1.899554,0 -3.439446,-1.992802 -3.439446,-4.451048 0,-2.458245 1.539892,-4.451047 3.439446,-4.451047 1.899553,0 3.439446,1.992802 3.439446,4.451047 z"
       transform="matrix(1.0000157,0,0,0.77273946,20.137441,975.64778)" />
    <path
       transform="matrix(1.0000157,0,0,0.77273946,20.137441,985.64778)"
       d="m 26.301646,22.355394 c 0,2.458246 -1.539893,4.451048 -3.439446,4.451048 -1.899554,0 -3.439446,-1.992802 -3.439446,-4.451048 0,-2.458245 1.539892,-4.451047 3.439446,-4.451047 1.899553,0 3.439446,1.992802 3.439446,4.451047 z"
       sodipodi:ry="4.4510474"
       sodipodi:rx="3.439446"
       sodipodi:cy="22.355394"
       sodipodi:cx="22.8622"
       id="path3810"
       style="fill:#fcd116;fill-opacity:1;fill-rule:nonzero;stroke:none"
       sodipodi:type="arc" />
    <path
       sodipodi:type="arc"
       style="fill:#fcd116;fill-opacity:1;fill-rule:nonzero;stroke:none"
       id="path3812"
       sodipodi:cx="22.8622"
       sodipodi:cy="22.355394"
       sodipodi:rx="3.439446"
       sodipodi:ry="4.4510474"
       d="m 26.301646,22.355394 c 0,2.458246 -1.539893,4.451048 -3.439446,4.451048 -1.899554,0 -3.439446,-1.992802 -3.439446,-4.451048 0,-2.458245 1.539892,-4.451047 3.439446,-4.451047 1.899553,0 3.439446,1.992802 3.439446,4.451047 z"
       transform="matrix(1.0000157,0,0,0.77273946,20.137441,995.6476)" />
    <path
       transform="matrix(1.0000157,0,0,0.77273946,20.137441,1005.6476)"
       d="m 26.301646,22.355394 c 0,2.458246 -1.539893,4.451048 -3.439446,4.451048 -1.899554,0 -3.439446,-1.992802 -3.439446,-4.451048 0,-2.458245 1.539892,-4.451047 3.439446,-4.451047 1.899553,0 3.439446,1.992802 3.439446,4.451047 z"
       sodipodi:ry="4.4510474"
       sodipodi:rx="3.439446"
       sodipodi:cy="22.355394"
       sodipodi:cx="22.8622"
       id="path3814"
       style="fill:#fcd116;fill-opacity:1;fill-rule:nonzero;stroke:none"
       sodipodi:type="arc" />
    <path
       sodipodi:type="arc"
       style="fill:#ffffff;fill-opacity:0.18999999;fill-rule:nonzero;stroke:none"
       id="path3816"
       sodipodi:cx="22.8622"
       sodipodi:cy="22.355394"
       sodipodi:rx="3.439446"
       sodipodi:ry="4.4510474"
       d="m 26.301646,22.355394 c 0,2.458246 -1.539893,4.451048 -3.439446,4.451048 -1.899554,0 -3.439446,-1.992802 -3.439446,-4.451048 0,-2.458245 1.539892,-4.451047 3.439446,-4.451047 1.899553,0 3.439446,1.992802 3.439446,4.451047 z"
       transform="matrix(1.0000157,0,0,0.77273946,20.137441,1015.6476)" />
    <path
       sodipodi:type="arc"
       style="fill:#fcd116;fill-opacity:1;fill-rule:nonzero;stroke:none"
       id="path3818"
       sodipodi:cx="22.8622"
       sodipodi:cy="22.355394"
       sodipodi:rx="3.439446"
       sodipodi:ry="4.4510474"
       d="m 26.301646,22.355394 c 0,2.458246 -1.539893,4.451048 -3.439446,4.451048 -1.899554,0 -3.439446,-1.992802 -3.439446,-4.451048 0,-2.458245 1.539892,-4.451047 3.439446,-4.451047 1.899553,0 3.439446,1.992802 3.439446,4.451047 z"
       transform="matrix(1.0000157,0,0,0.77273946,30.137441,945.64778)" />
    <path
       transform="matrix(1.0000157,0,0,0.77273946,30.137441,955.64778)"
       d="m 26.301646,22.355394 c 0,2.458246 -1.539893,4.451048 -3.439446,4.451048 -1.899554,0 -3.439446,-1.992802 -3.439446,-4.451048 0,-2.458245 1.539892,-4.451047 3.439446,-4.451047 1.899553,0 3.439446,1.992802 3.439446,4.451047 z"
       sodipodi:ry="4.4510474"
       sodipodi:rx="3.439446"
       sodipodi:cy="22.355394"
       sodipodi:cx="22.8622"
       id="path3820"
       style="fill:#fcd116;fill-opacity:1;fill-rule:nonzero;stroke:none"
       sodipodi:type="arc" />
    <path
       sodipodi:type="arc"
       style="fill:#ffffff;fill-opacity:0.18999999;fill-rule:nonzero;stroke:none"
       id="path3822"
       sodipodi:cx="22.8622"
       sodipodi:cy="22.355394"
       sodipodi:rx="3.439446"
       sodipodi:ry="4.4510474"
       d="m 26.301646,22.355394 c 0,2.458246 -1.539893,4.451048 -3.439446,4.451048 -1.899554,0 -3.439446,-1.992802 -3.439446,-4.451048 0,-2.458245 1.539892,-4.451047 3.439446,-4.451047 1.899553,0 3.439446,1.992802 3.439446,4.451047 z"
       transform="matrix(1.0000157,0,0,0.77273946,30.137441,965.64778)" />
    <path
       transform="matrix(1.0000157,0,0,0.77273946,30.137441,975.64778)"
       d="m 26.301646,22.355394 c 0,2.458246 -1.539893,4.451048 -3.439446,4.451048 -1.899554,0 -3.439446,-1.992802 -3.439446,-4.451048 0,-2.458245 1.539892,-4.451047 3.439446,-4.451047 1.899553,0 3.439446,1.992802 3.439446,4.451047 z"
       sodipodi:ry="4.4510474"
       sodipodi:rx="3.439446"
       sodipodi:cy="22.355394"
       sodipodi:cx="22.8622"
       id="path3824"
       style="fill:#fcd116;fill-opacity:1;fill-rule:nonzero;stroke:none"
       sodipodi:type="arc" />
    <path
       sodipodi:type="arc"
       style="fill:#fcd116;fill-opacity:1;fill-rule:nonzero;stroke:none"
       id="path3826"
       sodipodi:cx="22.8622"
       sodipodi:cy="22.355394"
       sodipodi:rx="3.439446"
       sodipodi:ry="4.4510474"
       d="m 26.301646,22.355394 c 0,2.458246 -1.539893,4.451048 -3.439446,4.451048 -1.899554,0 -3.439446,-1.992802 -3.439446,-4.451048 0,-2.458245 1.539892,-4.451047 3.439446,-4.451047 1.899553,0 3.439446,1.992802 3.439446,4.451047 z"
       transform="matrix(1.0000157,0,0,0.77273946,30.137441,985.64778)" />
    <path
       transform="matrix(1.0000157,0,0,0.77273946,30.137441,995.6476)"
       d="m 26.301646,22.355394 c 0,2.458246 -1.539893,4.451048 -3.439446,4.451048 -1.899554,0 -3.439446,-1.992802 -3.439446,-4.451048 0,-2.458245 1.539892,-4.451047 3.439446,-4.451047 1.899553,0 3.439446,1.992802 3.439446,4.451047 z"
       sodipodi:ry="4.4510474"
       sodipodi:rx="3.439446"
       sodipodi:cy="22.355394"
       sodipodi:cx="22.8622"
       id="path3828"
       style="fill:#fcd116;fill-opacity:1;fill-rule:nonzero;stroke:none"
       sodipodi:type="arc" />
    <path
       sodipodi:type="arc"
       style="fill:#fcd116;fill-opacity:1;fill-rule:nonzero;stroke:none"
       id="path3830"
       sodipodi:cx="22.8622"
       sodipodi:cy="22.355394"
       sodipodi:rx="3.439446"
       sodipodi:ry="4.4510474"
       d="m 26.301646,22.355394 c 0,2.458246 -1.539893,4.451048 -3.439446,4.451048 -1.899554,0 -3.439446,-1.992802 -3.439446,-4.451048 0,-2.458245 1.539892,-4.451047 3.439446,-4.451047 1.899553,0 3.439446,1.992802 3.439446,4.451047 z"
       transform="matrix(1.0000157,0,0,0.77273946,30.137441,1005.6476)" />
    <path
       transform="matrix(1.0000157,0,0,0.77273946,30.137441,1015.6476)"
       d="m 26.301646,22.355394 c 0,2.458246 -1.539893,4.451048 -3.439446,4.451048 -1.899554,0 -3.439446,-1.992802 -3.439446,-4.451048 0,-2.458245 1.539892,-4.451047 3.439446,-4.451047 1.899553,0 3.439446,1.992802 3.439446,4.451047 z"
       sodipodi:ry="4.4510474"
       sodipodi:rx="3.439446"
       sodipodi:cy="22.355394"
       sodipodi:cx="22.8622"
       id="path3832"
       style="fill:#ffffff;fill-opacity:0.18999999;fill-rule:nonzero;stroke:none"
       sodipodi:type="arc" />
    <path
       transform="matrix(1.0000157,0,0,0.77273946,40.137441,945.64778)"
       d="m 26.301646,22.355394 c 0,2.458246 -1.539893,4.451048 -3.439446,4.451048 -1.899554,0 -3.439446,-1.992802 -3.439446,-4.451048 0,-2.458245 1.539892,-4.451047 3.439446,-4.451047 1.899553,0 3.439446,1.992802 3.439446,4.451047 z"
       sodipodi:ry="4.4510474"
       sodipodi:rx="3.439446"
       sodipodi:cy="22.355394"
       sodipodi:cx="22.8622"
       id="path3834"
       style="fill:#ffffff;fill-opacity:0.18981485;fill-rule:nonzero;stroke:none"
       sodipodi:type="arc" />
    <path
       sodipodi:type="arc"
       style="fill:#ffffff;fill-opacity:0.18981485;fill-rule:nonzero;stroke:none"
       id="path3836"
       sodipodi:cx="22.8622"
       sodipodi:cy="22.355394"
       sodipodi:rx="3.439446"
       sodipodi:ry="4.4510474"
       d="m 26.301646,22.355394 c 0,2.458246 -1.539893,4.451048 -3.439446,4.451048 -1.899554,0 -3.439446,-1.992802 -3.439446,-4.451048 0,-2.458245 1.539892,-4.451047 3.439446,-4.451047 1.899553,0 3.439446,1.992802 3.439446,4.451047 z"
       transform="matrix(1.0000157,0,0,0.77273946,40.137441,955.64778)" />
    <path
       transform="matrix(1.0000157,0,0,0.77273946,40.137441,965.64778)"
       d="m 26.301646,22.355394 c 0,2.458246 -1.539893,4.451048 -3.439446,4.451048 -1.899554,0 -3.439446,-1.992802 -3.439446,-4.451048 0,-2.458245 1.539892,-4.451047 3.439446,-4.451047 1.899553,0 3.439446,1.992802 3.439446,4.451047 z"
       sodipodi:ry="4.4510474"
       sodipodi:rx="3.439446"
       sodipodi:cy="22.355394"
       sodipodi:cx="22.8622"
       id="path3838"
       style="fill:#ffffff;fill-opacity:0.18981485;fill-rule:nonzero;stroke:none"
       sodipodi:type="arc" />
    <path
       sodipodi:type="arc"
       style="fill:#ffffff;fill-opacity:0.18981485;fill-rule:nonzero;stroke:none"
       id="path3840"
       sodipodi:cx="22.8622"
       sodipodi:cy="22.355394"
       sodipodi:rx="3.439446"
       sodipodi:ry="4.4510474"
       d="m 26.301646,22.355394 c 0,2.458246 -1.539893,4.451048 -3.439446,4.451048 -1.899554,0 -3.439446,-1.992802 -3.439446,-4.451048 0,-2.458245 1.539892,-4.451047 3.439446,-4.451047 1.899553,0 3.439446,1.992802 3.439446,4.451047 z"
       transform="matrix(1.0000157,0,0,0.77273946,40.137441,975.64778)" />
    <path
       transform="matrix(1.0000157,0,0,0.77273946,40.137441,985.64778)"
       d="m 26.301646,22.355394 c 0,2.458246 -1.539893,4.451048 -3.439446,4.451048 -1.899554,0 -3.439446,-1.992802 -3.439446,-4.451048 0,-2.458245 1.539892,-4.451047 3.439446,-4.451047 1.899553,0 3.439446,1.992802 3.439446,4.451047 z"
       sodipodi:ry="4.4510474"
       sodipodi:rx="3.439446"
       sodipodi:cy="22.355394"
       sodipodi:cx="22.8622"
       id="path3842"
       style="fill:#ffffff;fill-opacity:0.18981485;fill-rule:nonzero;stroke:none"
       sodipodi:type="arc" />
    <path
       sodipodi:type="arc"
       style="fill:#ffffff;fill-opacity:0.18999999;fill-rule:nonzero;stroke:none"
       id="path3844"
       sodipodi:cx="22.8622"
       sodipodi:cy="22.355394"
       sodipodi:rx="3.439446"
       sodipodi:ry="4.4510474"
       d="m 26.301646,22.355394 c 0,2.458246 -1.539893,4.451048 -3.439446,4.451048 -1.899554,0 -3.439446,-1.992802 -3.439446,-4.451048 0,-2.458245 1.539892,-4.451047 3.439446,-4.451047 1.899553,0 3.439446,1.992802 3.439446,4.451047 z"
       transform="matrix(1.0000157,0,0,0.77273946,40.137441,995.6476)" />
    <path
       transform="matrix(1.0000157,0,0,0.77273946,40.137441,1005.6476)"
       d="m 26.301646,22.355394 c 0,2.458246 -1.539893,4.451048 -3.439446,4.451048 -1.899554,0 -3.439446,-1.992802 -3.439446,-4.451048 0,-2.458245 1.539892,-4.451047 3.439446,-4.451047 1.899553,0 3.439446,1.992802 3.439446,4.451047 z"
       sodipodi:ry="4.4510474"
       sodipodi:rx="3.439446"
       sodipodi:cy="22.355394"
       sodipodi:cx="22.8622"
       id="path3846"
       style="fill:#fcd116;fill-opacity:1;fill-rule:nonzero;stroke:none"
       sodipodi:type="arc" />
    <path
       sodipodi:type="arc"
       style="fill:#ffffff;fill-opacity:0.18981485;fill-rule:nonzero;stroke:none"
       id="path3848"
       sodipodi:cx="22.8622"
       sodipodi:cy="22.355394"
       sodipodi:rx="3.439446"
       sodipodi:ry="4.4510474"
       d="m 26.301646,22.355394 c 0,2.458246 -1.539893,4.451048 -3.439446,4.451048 -1.899554,0 -3.439446,-1.992802 -3.439446,-4.451048 0,-2.458245 1.539892,-4.451047 3.439446,-4.451047 1.899553,0 3.439446,1.992802 3.439446,4.451047 z"
       transform="matrix(1.0000157,0,0,0.77273946,40.137441,1015.6476)" />
    <path
       sodipodi:type="arc"
       style="fill:#ffffff;fill-opacity:0.18981485;fill-rule:nonzero;stroke:none"
       id="path3850"
       sodipodi:cx="22.8622"
       sodipodi:cy="22.355394"
       sodipodi:rx="3.439446"
       sodipodi:ry="4.4510474"
       d="m 26.301646,22.355394 c 0,2.458246 -1.539893,4.451048 -3.439446,4.451048 -1.899554,0 -3.439446,-1.992802 -3.439446,-4.451048 0,-2.458245 1.539892,-4.451047 3.439446,-4.451047 1.899553,0 3.439446,1.992802 3.439446,4.451047 z"
       transform="matrix(1.0000157,0,0,0.77273946,50.137441,945.64778)" />
    <path
       transform="matrix(1.0000157,0,0,0.77273946,50.137441,955.64778)"
       d="m 26.301646,22.355394 c 0,2.458246 -1.539893,4.451048 -3.439446,4.451048 -1.899554,0 -3.439446,-1.992802 -3.439446,-4.451048 0,-2.458245 1.539892,-4.451047 3.439446,-4.451047 1.899553,0 3.439446,1.992802 3.439446,4.451047 z"
       sodipodi:ry="4.4510474"
       sodipodi:rx="3.439446"
       sodipodi:cy="22.355394"
       sodipodi:cx="22.8622"
       id="path3852"
       style="fill:#ffffff;fill-opacity:0.18981485;fill-rule:nonzero;stroke:none"
       sodipodi:type="arc" />
    <path
       sodipodi:type="arc"
       style="fill:#ffffff;fill-opacity:0.18981485;fill-rule:nonzero;stroke:none"
       id="path3854"
       sodipodi:cx="22.8622"
       sodipodi:cy="22.355394"
       sodipodi:rx="3.439446"
       sodipodi:ry="4.4510474"
       d="m 26.301646,22.355394 c 0,2.458246 -1.539893,4.451048 -3.439446,4.451048 -1.899554,0 -3.439446,-1.992802 -3.439446,-4.451048 0,-2.458245 1.539892,-4.451047 3.439446,-4.451047 1.899553,0 3.439446,1.992802 3.439446,4.451047 z"
       transform="matrix(1.0000157,0,0,0.77273946,50.137441,965.64778)" />
    <path
       transform="matrix(1.0000157,0,0,0.77273946,50.137441,975.64778)"
       d="m 26.301646,22.355394 c 0,2.458246 -1.539893,4.451048 -3.439446,4.451048 -1.899554,0 -3.439446,-1.992802 -3.439446,-4.451048 0,-2.458245 1.539892,-4.451047 3.439446,-4.451047 1.899553,0 3.439446,1.992802 3.439446,4.451047 z"
       sodipodi:ry="4.4510474"
       sodipodi:rx="3.439446"
       sodipodi:cy="22.355394"
       sodipodi:cx="22.8622"
       id="path3856"
       style="fill:#ffffff;fill-opacity:0.18981485;fill-rule:nonzero;stroke:none"
       sodipodi:type="arc" />
    <path
       sodipodi:type="arc"
       style="fill:#ffffff;fill-opacity:0.18981485;fill-rule:nonzero;stroke:none"
       id="path3858"
       sodipodi:cx="22.8622"
       sodipodi:cy="22.355394"
       sodipodi:rx="3.439446"
       sodipodi:ry="4.4510474"
       d="m 26.301646,22.355394 c 0,2.458246 -1.539893,4.451048 -3.439446,4.451048 -1.899554,0 -3.439446,-1.992802 -3.439446,-4.451048 0,-2.458245 1.539892,-4.451047 3.439446,-4.451047 1.899553,0 3.439446,1.992802 3.439446,4.451047 z"
       transform="matrix(1.0000157,0,0,0.77273946,50.137441,985.64778)" />
    <path
       transform="matrix(1.0000157,0,0,0.77273946,50.137441,995.6476)"
       d="m 26.301646,22.355394 c 0,2.458246 -1.539893,4.451048 -3.439446,4.451048 -1.899554,0 -3.439446,-1.992802 -3.439446,-4.451048 0,-2.458245 1.539892,-4.451047 3.439446,-4.451047 1.899553,0 3.439446,1.992802 3.439446,4.451047 z"
       sodipodi:ry="4.4510474"
       sodipodi:rx="3.439446"
       sodipodi:cy="22.355394"
       sodipodi:cx="22.8622"
       id="path3860"
       style="fill:#ffffff;fill-opacity:0.18981485;fill-rule:nonzero;stroke:none"
       sodipodi:type="arc" />
    <path
       sodipodi:type="arc"
       style="fill:#ffffff;fill-opacity:0.18981485;fill-rule:nonzero;stroke:none"
       id="path3862"
       sodipodi:cx="22.8622"
       sodipodi:cy="22.355394"
       sodipodi:rx="3.439446"
       sodipodi:ry="4.4510474"
       d="m 26.301646,22.355394 c 0,2.458246 -1.539893,4.451048 -3.439446,4.451048 -1.899554,0 -3.439446,-1.992802 -3.439446,-4.451048 0,-2.458245 1.539892,-4.451047 3.439446,-4.451047 1.899553,0 3.439446,1.992802 3.439446,4.451047 z"
       transform="matrix(1.0000157,0,0,0.77273946,50.137441,1005.6476)" />
    <path
       transform="matrix(1.0000157,0,0,0.77273946,50.137441,1015.6476)"
       d="m 26.301646,22.355394 c 0,2.458246 -1.539893,4.451048 -3.439446,4.451048 -1.899554,0 -3.439446,-1.992802 -3.439446,-4.451048 0,-2.458245 1.539892,-4.451047 3.439446,-4.451047 1.899553,0 3.439446,1.992802 3.439446,4.451047 z"
       sodipodi:ry="4.4510474"
       sodipodi:rx="3.439446"
       sodipodi:cy="22.355394"
       sodipodi:cx="22.8622"
       id="path3864"
       style="fill:#ffffff;fill-opacity:0.18981485;fill-rule:nonzero;stroke:none"
       sodipodi:type="arc" />
    <path
       transform="matrix(1.0000157,0,0,0.77273946,60.137441,945.64778)"
       d="m 26.301646,22.355394 c 0,2.458246 -1.539893,4.451048 -3.439446,4.451048 -1.899554,0 -3.439446,-1.992802 -3.439446,-4.451048 0,-2.458245 1.539892,-4.451047 3.439446,-4.451047 1.899553,0 3.439446,1.992802 3.439446,4.451047 z"
       sodipodi:ry="4.4510474"
       sodipodi:rx="3.439446"
       sodipodi:cy="22.355394"
       sodipodi:cx="22.8622"
       id="path3866"
       style="fill:#ffffff;fill-opacity:0.18981485;fill-rule:nonzero;stroke:none"
       sodipodi:type="arc" />
    <path
       sodipodi:type="arc"
       style="fill:#ffffff;fill-opacity:0.18981485;fill-rule:nonzero;stroke:none"
       id="path3868"
       sodipodi:cx="22.8622"
       sodipodi:cy="22.355394"
       sodipodi:rx="3.439446"
       sodipodi:ry="4.4510474"
       d="m 26.301646,22.355394 c 0,2.458246 -1.539893,4.451048 -3.439446,4.451048 -1.899554,0 -3.439446,-1.992802 -3.439446,-4.451048 0,-2.458245 1.539892,-4.451047 3.439446,-4.451047 1.899553,0 3.439446,1.992802 3.439446,4.451047 z"
       transform="matrix(1.0000157,0,0,0.77273946,60.137441,955.64778)" />
    <path
       transform="matrix(1.0000157,0,0,0.77273946,60.137441,965.64778)"
       d="m 26.301646,22.355394 c 0,2.458246 -1.539893,4.451048 -3.439446,4.451048 -1.899554,0 -3.439446,-1.992802 -3.439446,-4.451048 0,-2.458245 1.539892,-4.451047 3.439446,-4.451047 1.899553,0 3.439446,1.992802 3.439446,4.451047 z"
       sodipodi:ry="4.4510474"
       sodipodi:rx="3.439446"
       sodipodi:cy="22.355394"
       sodipodi:cx="22.8622"
       id="path3870"
       style="fill:#ffffff;fill-opacity:0.18981485;fill-rule:nonzero;stroke:none"
       sodipodi:type="arc" />
    <path
       sodipodi:type="arc"
       style="fill:#ffffff;fill-opacity:0.18981485;fill-rule:nonzero;stroke:none"
       id="path3872"
       sodipodi:cx="22.8622"
       sodipodi:cy="22.355394"
       sodipodi:rx="3.439446"
       sodipodi:ry="4.4510474"
       d="m 26.301646,22.355394 c 0,2.458246 -1.539893,4.451048 -3.439446,4.451048 -1.899554,0 -3.439446,-1.992802 -3.439446,-4.451048 0,-2.458245 1.539892,-4.451047 3.439446,-4.451047 1.899553,0 3.439446,1.992802 3.439446,4.451047 z"
       transform="matrix(1.0000157,0,0,0.77273946,60.137441,975.64778)" />
    <path
       transform="matrix(1.0000157,0,0,0.77273946,60.137441,985.64778)"
       d="m 26.301646,22.355394 c 0,2.458246 -1.539893,4.451048 -3.439446,4.451048 -1.899554,0 -3.439446,-1.992802 -3.439446,-4.451048 0,-2.458245 1.539892,-4.451047 3.439446,-4.451047 1.899553,0 3.439446,1.992802 3.439446,4.451047 z"
       sodipodi:ry="4.4510474"
       sodipodi:rx="3.439446"
       sodipodi:cy="22.355394"
       sodipodi:cx="22.8622"
       id="path3874"
       style="fill:#ffffff;fill-opacity:0.18981485;fill-rule:nonzero;stroke:none"
       sodipodi:type="arc" />
    <path
       sodipodi:type="arc"
       style="fill:#ffffff;fill-opacity:0.18981485;fill-rule:nonzero;stroke:none"
       id="path3876"
       sodipodi:cx="22.8622"
       sodipodi:cy="22.355394"
       sodipodi:rx="3.439446"
       sodipodi:ry="4.4510474"
       d="m 26.301646,22.355394 c 0,2.458246 -1.539893,4.451048 -3.439446,4.451048 -1.899554,0 -3.439446,-1.992802 -3.439446,-4.451048 0,-2.458245 1.539892,-4.451047 3.439446,-4.451047 1.899553,0 3.439446,1.992802 3.439446,4.451047 z"
       transform="matrix(1.0000157,0,0,0.77273946,60.137441,995.6476)" />
    <path
       transform="matrix(1.0000157,0,0,0.77273946,60.137441,1005.6476)"
       d="m 26.301646,22.355394 c 0,2.458246 -1.539893,4.451048 -3.439446,4.451048 -1.899554,0 -3.439446,-1.992802 -3.439446,-4.451048 0,-2.458245 1.539892,-4.451047 3.439446,-4.451047 1.899553,0 3.439446,1.992802 3.439446,4.451047 z"
       sodipodi:ry="4.4510474"
       sodipodi:rx="3.439446"
       sodipodi:cy="22.355394"
       sodipodi:cx="22.8622"
       id="path3878"
       style="fill:#ffffff;fill-opacity:0.18981485;fill-rule:nonzero;stroke:none"
       sodipodi:type="arc" />
    <path
       sodipodi:type="arc"
       style="fill:#ffffff;fill-opacity:0.18981485;fill-rule:nonzero;stroke:none"
       id="path3880"
       sodipodi:cx="22.8622"
       sodipodi:cy="22.355394"
       sodipodi:rx="3.439446"
       sodipodi:ry="4.4510474"
       d="m 26.301646,22.355394 c 0,2.458246 -1.539893,4.451048 -3.439446,4.451048 -1.899554,0 -3.439446,-1.992802 -3.439446,-4.451048 0,-2.458245 1.539892,-4.451047 3.439446,-4.451047 1.899553,0 3.439446,1.992802 3.439446,4.451047 z"
       transform="matrix(1.0000157,0,0,0.77273946,60.137441,1015.6476)" />
  </g>
</svg>
