<?xml version="1.0" encoding="UTF-8" standalone="no"?>
<!-- Created with Inkscape (http://www.inkscape.org/) -->

<svg
   xmlns:dc="http://purl.org/dc/elements/1.1/"
   xmlns:cc="http://creativecommons.org/ns#"
   xmlns:rdf="http://www.w3.org/1999/02/22-rdf-syntax-ns#"
   xmlns:svg="http://www.w3.org/2000/svg"
   xmlns="http://www.w3.org/2000/svg"
   xmlns:sodipodi="http://sodipodi.sourceforge.net/DTD/sodipodi-0.dtd"
   xmlns:inkscape="http://www.inkscape.org/namespaces/inkscape"
   width="96"
   height="96"
   id="svg2"
   version="1.1"
   inkscape:version="0.48.4 r9939"
   sodipodi:docname="ibus.svg">
  <defs
     id="defs4" />
  <sodipodi:namedview
     id="base"
     pagecolor="#ffffff"
     bordercolor="#666666"
     borderopacity="1.0"
     inkscape:pageopacity="0.0"
     inkscape:pageshadow="2"
     inkscape:zoom="5.90625"
     inkscape:cx="18.031746"
     inkscape:cy="50.178233"
     inkscape:document-units="px"
     inkscape:current-layer="layer1"
     showgrid="true"
     inkscape:snap-page="true"
     inkscape:snap-global="true"
     inkscape:snap-center="true"
     inkscape:snap-object-midpoints="false"
     showguides="true"
     inkscape:guide-bbox="true"
     inkscape:snap-bbox="true"
     inkscape:object-paths="true"
     inkscape:object-nodes="true"
     inkscape:window-width="1305"
     inkscape:window-height="744"
     inkscape:window-x="61"
     inkscape:window-y="24"
     inkscape:window-maximized="1"
     inkscape:snap-midpoints="false"
     inkscape:snap-grids="true"
     inkscape:snap-to-guides="false">
    <inkscape:grid
       type="xygrid"
       id="grid3002"
       empspacing="5"
       visible="true"
       enabled="true"
       snapvisiblegridlinesonly="true" />
  </sodipodi:namedview>
  <metadata
     id="metadata7">
    <rdf:RDF>
      <cc:Work
         rdf:about="">
        <dc:format>image/svg+xml</dc:format>
        <dc:type
           rdf:resource="http://purl.org/dc/dcmitype/StillImage" />
        <dc:title />
      </cc:Work>
    </rdf:RDF>
  </metadata>
  <g
     inkscape:label="Layer 1"
     inkscape:groupmode="layer"
     id="layer1"
     transform="translate(0,-956.36218)">
    <rect
       style="fill:#ffffff;fill-opacity:0;fill-rule:nonzero;stroke:none"
       id="rect3775"
       width="96"
       height="96"
       x="0"
       y="956.36218"
       ry="0" />
    <path
       style="fill:#000000;fill-opacity:0.09589041;fill-rule:nonzero;stroke:none"
       d="m 3.353015,956.30662 c -1.884176,0 -3.4111555,1.43156 -3.4111555,3.19799 l 0,83.65949 c 0,1.7665 1.5269795,3.1981 3.4111555,3.1981 l 89.23583,0 c 1.884174,0 3.411155,-1.4316 3.411155,-3.1981 l 0,-83.65949 c 0,-1.76643 -1.526981,-3.19799 -3.411155,-3.19799 z"
       id="rect3772"
       inkscape:connector-curvature="0"
       sodipodi:nodetypes="sssssssss" />
    <path
       style="fill:#000000;fill-opacity:0.18721463;fill-rule:nonzero;stroke:none"
       d="m 1.0459761,1041.8066 0,7.4219 c 0,1.7392 1.461916,3.1337 3.2852054,3.1337 l 86.3836135,0 c 1.823288,0 3.285205,-1.3945 3.285205,-3.1337 l 0,-7.4219 -92.9540239,0 z"
       id="rect3785"
       inkscape:connector-curvature="0" />
    <path
       style="fill:#000000;fill-opacity:0.38356168;fill-rule:nonzero;stroke:none"
       d="m 1.0459761,1041.8066 0,5.3807 c 0,1.762 1.461916,3.1749 3.2852054,3.1749 l 86.3836135,0 c 1.823288,0 3.285205,-1.4129 3.285205,-3.1749 l 0,-5.3807 -92.9540239,0 z"
       id="rect3783"
       inkscape:connector-curvature="0" />
    <rect
       style="fill:#0050ff;fill-opacity:1;fill-rule:nonzero;stroke:none"
       id="rect2985"
       width="92.954025"
       height="89"
       x="1.045977"
       y="-1046.3622"
       ry="3.1511393"
       transform="scale(1,-1)" />
    <path
       style="fill:#000000;fill-opacity:0.38356168;fill-rule:nonzero;stroke:none"
       d="m 1,1042.3622 0.045976,2.7457 c 0.03024,1.8058 1.461916,3.2543 3.2852054,3.2543 l 86.3836136,0 c 1.823288,0 3.285205,-1.4481 3.285205,-3.2543 l -0.04598,-2.7457 z"
       id="rect3781"
       inkscape:connector-curvature="0"
       sodipodi:nodetypes="csssscc" />
    <rect
       style="fill:#ffffff;fill-opacity:0.30000001;fill-rule:nonzero;stroke:none"
       id="rect3770"
       width="92.954033"
       height="2.000005"
       x="1.045976"
       y="1040.3622" />
    <g
       id="g3128"
       transform="translate(54.970632,23.709095)">
      <path
         transform="matrix(1.0000157,0,0,0.77273946,-64.833191,921.93869)"
         d="m 26.301646,22.355394 c 0,2.458246 -1.539893,4.451048 -3.439446,4.451048 -1.899554,0 -3.439446,-1.992802 -3.439446,-4.451048 0,-2.458245 1.539892,-4.451047 3.439446,-4.451047 1.899553,0 3.439446,1.992802 3.439446,4.451047 z"
         sodipodi:ry="4.4510474"
         sodipodi:rx="3.439446"
         sodipodi:cy="22.355394"
         sodipodi:cx="22.8622"
         id="path3754"
         style="fill:#ffffff;fill-opacity:0.18981485;fill-rule:nonzero;stroke:none"
         sodipodi:type="arc" />
      <path
         sodipodi:type="arc"
         style="fill:#ffffff;fill-opacity:0.18981485;fill-rule:nonzero;stroke:none"
         id="path3756"
         sodipodi:cx="22.8622"
         sodipodi:cy="22.355394"
         sodipodi:rx="3.439446"
         sodipodi:ry="4.4510474"
         d="m 26.301646,22.355394 c 0,2.458246 -1.539893,4.451048 -3.439446,4.451048 -1.899554,0 -3.439446,-1.992802 -3.439446,-4.451048 0,-2.458245 1.539892,-4.451047 3.439446,-4.451047 1.899553,0 3.439446,1.992802 3.439446,4.451047 z"
         transform="matrix(1.0000157,0,0,0.77273946,-64.833191,931.93868)" />
      <path
         transform="matrix(1.0000157,0,0,0.77273946,-64.833191,941.93868)"
         d="m 26.301646,22.355394 c 0,2.458246 -1.539893,4.451048 -3.439446,4.451048 -1.899554,0 -3.439446,-1.992802 -3.439446,-4.451048 0,-2.458245 1.539892,-4.451047 3.439446,-4.451047 1.899553,0 3.439446,1.992802 3.439446,4.451047 z"
         sodipodi:ry="4.4510474"
         sodipodi:rx="3.439446"
         sodipodi:cy="22.355394"
         sodipodi:cx="22.8622"
         id="path3758"
         style="fill:#ffffff;fill-opacity:0.18981485;fill-rule:nonzero;stroke:none"
         sodipodi:type="arc" />
      <path
         sodipodi:type="arc"
         style="fill:#ffffff;fill-opacity:0.18981485;fill-rule:nonzero;stroke:none"
         id="path3760"
         sodipodi:cx="22.8622"
         sodipodi:cy="22.355394"
         sodipodi:rx="3.439446"
         sodipodi:ry="4.4510474"
         d="m 26.301646,22.355394 c 0,2.458246 -1.539893,4.451048 -3.439446,4.451048 -1.899554,0 -3.439446,-1.992802 -3.439446,-4.451048 0,-2.458245 1.539892,-4.451047 3.439446,-4.451047 1.899553,0 3.439446,1.992802 3.439446,4.451047 z"
         transform="matrix(1.0000157,0,0,0.77273946,-64.833191,951.93869)" />
      <path
         transform="matrix(1.0000157,0,0,0.77273946,-64.833191,961.93869)"
         d="m 26.301646,22.355394 c 0,2.458246 -1.539893,4.451048 -3.439446,4.451048 -1.899554,0 -3.439446,-1.992802 -3.439446,-4.451048 0,-2.458245 1.539892,-4.451047 3.439446,-4.451047 1.899553,0 3.439446,1.992802 3.439446,4.451047 z"
         sodipodi:ry="4.4510474"
         sodipodi:rx="3.439446"
         sodipodi:cy="22.355394"
         sodipodi:cx="22.8622"
         id="path3762"
         style="fill:#ffffff;fill-opacity:0.18981485;fill-rule:nonzero;stroke:none"
         sodipodi:type="arc" />
      <path
         sodipodi:type="arc"
         style="fill:#ffffff;fill-opacity:0.18981485;fill-rule:nonzero;stroke:none"
         id="path3764"
         sodipodi:cx="22.8622"
         sodipodi:cy="22.355394"
         sodipodi:rx="3.439446"
         sodipodi:ry="4.4510474"
         d="m 26.301646,22.355394 c 0,2.458246 -1.539893,4.451048 -3.439446,4.451048 -1.899554,0 -3.439446,-1.992802 -3.439446,-4.451048 0,-2.458245 1.539892,-4.451047 3.439446,-4.451047 1.899553,0 3.439446,1.992802 3.439446,4.451047 z"
         transform="matrix(1.0000157,0,0,0.77273946,-64.833191,971.9385)" />
      <path
         transform="matrix(1.0000157,0,0,0.77273946,-64.833191,981.9385)"
         d="m 26.301646,22.355394 c 0,2.458246 -1.539893,4.451048 -3.439446,4.451048 -1.899554,0 -3.439446,-1.992802 -3.439446,-4.451048 0,-2.458245 1.539892,-4.451047 3.439446,-4.451047 1.899553,0 3.439446,1.992802 3.439446,4.451047 z"
         sodipodi:ry="4.4510474"
         sodipodi:rx="3.439446"
         sodipodi:cy="22.355394"
         sodipodi:cx="22.8622"
         id="path3766"
         style="fill:#ffffff;fill-opacity:0.18981485;fill-rule:nonzero;stroke:none"
         sodipodi:type="arc" />
      <path
         sodipodi:type="arc"
         style="fill:#ffffff;fill-opacity:0.18981485;fill-rule:nonzero;stroke:none"
         id="path3768"
         sodipodi:cx="22.8622"
         sodipodi:cy="22.355394"
         sodipodi:rx="3.439446"
         sodipodi:ry="4.4510474"
         d="m 26.301646,22.355394 c 0,2.458246 -1.539893,4.451048 -3.439446,4.451048 -1.899554,0 -3.439446,-1.992802 -3.439446,-4.451048 0,-2.458245 1.539892,-4.451047 3.439446,-4.451047 1.899553,0 3.439446,1.992802 3.439446,4.451047 z"
         transform="matrix(1.0000157,0,0,0.77273946,-64.833191,991.9385)" />
      <path
         sodipodi:type="arc"
         style="fill:#ffffff;fill-opacity:0.18981485;fill-rule:nonzero;stroke:none"
         id="path3770"
         sodipodi:cx="22.8622"
         sodipodi:cy="22.355394"
         sodipodi:rx="3.439446"
         sodipodi:ry="4.4510474"
         d="m 26.301646,22.355394 c 0,2.458246 -1.539893,4.451048 -3.439446,4.451048 -1.899554,0 -3.439446,-1.992802 -3.439446,-4.451048 0,-2.458245 1.539892,-4.451047 3.439446,-4.451047 1.899553,0 3.439446,1.992802 3.439446,4.451047 z"
         transform="matrix(1.0000157,0,0,0.77273946,-54.83319,921.93869)" />
      <path
         transform="matrix(1.0000157,0,0,0.77273946,-54.83319,931.93868)"
         d="m 26.301646,22.355394 c 0,2.458246 -1.539893,4.451048 -3.439446,4.451048 -1.899554,0 -3.439446,-1.992802 -3.439446,-4.451048 0,-2.458245 1.539892,-4.451047 3.439446,-4.451047 1.899553,0 3.439446,1.992802 3.439446,4.451047 z"
         sodipodi:ry="4.4510474"
         sodipodi:rx="3.439446"
         sodipodi:cy="22.355394"
         sodipodi:cx="22.8622"
         id="path3772"
         style="fill:#ffffff;fill-opacity:0.18981485;fill-rule:nonzero;stroke:none"
         sodipodi:type="arc" />
      <path
         sodipodi:type="arc"
         style="fill:#ffffff;fill-opacity:0.18981485;fill-rule:nonzero;stroke:none"
         id="path3774"
         sodipodi:cx="22.8622"
         sodipodi:cy="22.355394"
         sodipodi:rx="3.439446"
         sodipodi:ry="4.4510474"
         d="m 26.301646,22.355394 c 0,2.458246 -1.539893,4.451048 -3.439446,4.451048 -1.899554,0 -3.439446,-1.992802 -3.439446,-4.451048 0,-2.458245 1.539892,-4.451047 3.439446,-4.451047 1.899553,0 3.439446,1.992802 3.439446,4.451047 z"
         transform="matrix(1.0000157,0,0,0.77273946,-54.83319,941.93868)" />
      <path
         transform="matrix(1.0000157,0,0,0.77273946,-54.83319,951.93869)"
         d="m 26.301646,22.355394 c 0,2.458246 -1.539893,4.451048 -3.439446,4.451048 -1.899554,0 -3.439446,-1.992802 -3.439446,-4.451048 0,-2.458245 1.539892,-4.451047 3.439446,-4.451047 1.899553,0 3.439446,1.992802 3.439446,4.451047 z"
         sodipodi:ry="4.4510474"
         sodipodi:rx="3.439446"
         sodipodi:cy="22.355394"
         sodipodi:cx="22.8622"
         id="path3776"
         style="fill:#ffffff;fill-opacity:0.18981485;fill-rule:nonzero;stroke:none"
         sodipodi:type="arc" />
      <path
         sodipodi:type="arc"
         style="fill:#ffffff;fill-opacity:0.18981485;fill-rule:nonzero;stroke:none"
         id="path3778"
         sodipodi:cx="22.8622"
         sodipodi:cy="22.355394"
         sodipodi:rx="3.439446"
         sodipodi:ry="4.4510474"
         d="m 26.301646,22.355394 c 0,2.458246 -1.539893,4.451048 -3.439446,4.451048 -1.899554,0 -3.439446,-1.992802 -3.439446,-4.451048 0,-2.458245 1.539892,-4.451047 3.439446,-4.451047 1.899553,0 3.439446,1.992802 3.439446,4.451047 z"
         transform="matrix(1.0000157,0,0,0.77273946,-54.83319,961.93869)" />
      <path
         transform="matrix(1.0000157,0,0,0.77273946,-54.83319,971.9385)"
         d="m 26.301646,22.355394 c 0,2.458246 -1.539893,4.451048 -3.439446,4.451048 -1.899554,0 -3.439446,-1.992802 -3.439446,-4.451048 0,-2.458245 1.539892,-4.451047 3.439446,-4.451047 1.899553,0 3.439446,1.992802 3.439446,4.451047 z"
         sodipodi:ry="4.4510474"
         sodipodi:rx="3.439446"
         sodipodi:cy="22.355394"
         sodipodi:cx="22.8622"
         id="path3780"
         style="fill:#ffffff;fill-opacity:0.18981485;fill-rule:nonzero;stroke:none"
         sodipodi:type="arc" />
      <path
         sodipodi:type="arc"
         style="fill:#ffffff;fill-opacity:0.18981485;fill-rule:nonzero;stroke:none"
         id="path3782"
         sodipodi:cx="22.8622"
         sodipodi:cy="22.355394"
         sodipodi:rx="3.439446"
         sodipodi:ry="4.4510474"
         d="m 26.301646,22.355394 c 0,2.458246 -1.539893,4.451048 -3.439446,4.451048 -1.899554,0 -3.439446,-1.992802 -3.439446,-4.451048 0,-2.458245 1.539892,-4.451047 3.439446,-4.451047 1.899553,0 3.439446,1.992802 3.439446,4.451047 z"
         transform="matrix(1.0000157,0,0,0.77273946,-54.83319,981.9385)" />
      <path
         transform="matrix(1.0000157,0,0,0.77273946,-54.83319,991.9385)"
         d="m 26.301646,22.355394 c 0,2.458246 -1.539893,4.451048 -3.439446,4.451048 -1.899554,0 -3.439446,-1.992802 -3.439446,-4.451048 0,-2.458245 1.539892,-4.451047 3.439446,-4.451047 1.899553,0 3.439446,1.992802 3.439446,4.451047 z"
         sodipodi:ry="4.4510474"
         sodipodi:rx="3.439446"
         sodipodi:cy="22.355394"
         sodipodi:cx="22.8622"
         id="path3784"
         style="fill:#ffffff;fill-opacity:0.18981485;fill-rule:nonzero;stroke:none"
         sodipodi:type="arc" />
      <path
         transform="matrix(1.0000157,0,0,0.77273946,-44.833191,921.93869)"
         d="m 26.301646,22.355394 c 0,2.458246 -1.539893,4.451048 -3.439446,4.451048 -1.899554,0 -3.439446,-1.992802 -3.439446,-4.451048 0,-2.458245 1.539892,-4.451047 3.439446,-4.451047 1.899553,0 3.439446,1.992802 3.439446,4.451047 z"
         sodipodi:ry="4.4510474"
         sodipodi:rx="3.439446"
         sodipodi:cy="22.355394"
         sodipodi:cx="22.8622"
         id="path3786"
         style="fill:#ffffff;fill-opacity:0.18981485;fill-rule:nonzero;stroke:none"
         sodipodi:type="arc" />
      <path
         sodipodi:type="arc"
         style="fill:#ffffff;fill-opacity:0.18981485;fill-rule:nonzero;stroke:none"
         id="path3788"
         sodipodi:cx="22.8622"
         sodipodi:cy="22.355394"
         sodipodi:rx="3.439446"
         sodipodi:ry="4.4510474"
         d="m 26.301646,22.355394 c 0,2.458246 -1.539893,4.451048 -3.439446,4.451048 -1.899554,0 -3.439446,-1.992802 -3.439446,-4.451048 0,-2.458245 1.539892,-4.451047 3.439446,-4.451047 1.899553,0 3.439446,1.992802 3.439446,4.451047 z"
         transform="matrix(1.0000157,0,0,0.77273946,-44.833191,931.93868)" />
      <path
         transform="matrix(1.0000157,0,0,0.77273946,-44.833191,941.93868)"
         d="m 26.301646,22.355394 c 0,2.458246 -1.539893,4.451048 -3.439446,4.451048 -1.899554,0 -3.439446,-1.992802 -3.439446,-4.451048 0,-2.458245 1.539892,-4.451047 3.439446,-4.451047 1.899553,0 3.439446,1.992802 3.439446,4.451047 z"
         sodipodi:ry="4.4510474"
         sodipodi:rx="3.439446"
         sodipodi:cy="22.355394"
         sodipodi:cx="22.8622"
         id="path3790"
         style="fill:#ffffff;fill-opacity:0.18999999;fill-rule:nonzero;stroke:none"
         sodipodi:type="arc" />
      <path
         sodipodi:type="arc"
         style="fill:#ffffff;fill-opacity:1;fill-rule:nonzero;stroke:none"
         id="path3792"
         sodipodi:cx="22.8622"
         sodipodi:cy="22.355394"
         sodipodi:rx="3.439446"
         sodipodi:ry="4.4510474"
         d="m 26.301646,22.355394 c 0,2.458246 -1.539893,4.451048 -3.439446,4.451048 -1.899554,0 -3.439446,-1.992802 -3.439446,-4.451048 0,-2.458245 1.539892,-4.451047 3.439446,-4.451047 1.899553,0 3.439446,1.992802 3.439446,4.451047 z"
         transform="matrix(1.0000157,0,0,0.77273946,-44.833191,951.93869)" />
      <path
         transform="matrix(1.0000157,0,0,0.77273946,-44.833191,961.93869)"
         d="m 26.301646,22.355394 c 0,2.458246 -1.539893,4.451048 -3.439446,4.451048 -1.899554,0 -3.439446,-1.992802 -3.439446,-4.451048 0,-2.458245 1.539892,-4.451047 3.439446,-4.451047 1.899553,0 3.439446,1.992802 3.439446,4.451047 z"
         sodipodi:ry="4.4510474"
         sodipodi:rx="3.439446"
         sodipodi:cy="22.355394"
         sodipodi:cx="22.8622"
         id="path3794"
         style="fill:#ffffff;fill-opacity:0.18981485;fill-rule:nonzero;stroke:none"
         sodipodi:type="arc" />
      <path
         sodipodi:type="arc"
         style="fill:#ffffff;fill-opacity:0.18999999;fill-rule:nonzero;stroke:none"
         id="path3796"
         sodipodi:cx="22.8622"
         sodipodi:cy="22.355394"
         sodipodi:rx="3.439446"
         sodipodi:ry="4.4510474"
         d="m 26.301646,22.355394 c 0,2.458246 -1.539893,4.451048 -3.439446,4.451048 -1.899554,0 -3.439446,-1.992802 -3.439446,-4.451048 0,-2.458245 1.539892,-4.451047 3.439446,-4.451047 1.899553,0 3.439446,1.992802 3.439446,4.451047 z"
         transform="matrix(1.0000157,0,0,0.77273946,-44.833191,971.9385)" />
      <path
         transform="matrix(1.0000157,0,0,0.77273946,-44.833191,981.9385)"
         d="m 26.301646,22.355394 c 0,2.458246 -1.539893,4.451048 -3.439446,4.451048 -1.899554,0 -3.439446,-1.992802 -3.439446,-4.451048 0,-2.458245 1.539892,-4.451047 3.439446,-4.451047 1.899553,0 3.439446,1.992802 3.439446,4.451047 z"
         sodipodi:ry="4.4510474"
         sodipodi:rx="3.439446"
         sodipodi:cy="22.355394"
         sodipodi:cx="22.8622"
         id="path3798"
         style="fill:#ffffff;fill-opacity:1;fill-rule:nonzero;stroke:none"
         sodipodi:type="arc" />
      <path
         sodipodi:type="arc"
         style="fill:#ffffff;fill-opacity:0.18981485;fill-rule:nonzero;stroke:none"
         id="path3800"
         sodipodi:cx="22.8622"
         sodipodi:cy="22.355394"
         sodipodi:rx="3.439446"
         sodipodi:ry="4.4510474"
         d="m 26.301646,22.355394 c 0,2.458246 -1.539893,4.451048 -3.439446,4.451048 -1.899554,0 -3.439446,-1.992802 -3.439446,-4.451048 0,-2.458245 1.539892,-4.451047 3.439446,-4.451047 1.899553,0 3.439446,1.992802 3.439446,4.451047 z"
         transform="matrix(1.0000157,0,0,0.77273946,-44.833191,991.9385)" />
      <path
         sodipodi:type="arc"
         style="fill:#ffffff;fill-opacity:1;fill-rule:nonzero;stroke:none"
         id="path3802"
         sodipodi:cx="22.8622"
         sodipodi:cy="22.355394"
         sodipodi:rx="3.439446"
         sodipodi:ry="4.4510474"
         d="m 26.301646,22.355394 c 0,2.458246 -1.539893,4.451048 -3.439446,4.451048 -1.899554,0 -3.439446,-1.992802 -3.439446,-4.451048 0,-2.458245 1.539892,-4.451047 3.439446,-4.451047 1.899553,0 3.439446,1.992802 3.439446,4.451047 z"
         transform="matrix(1.0000157,0,0,0.77273946,-34.833191,921.93869)" />
      <path
         transform="matrix(1.0000157,0,0,0.77273946,-34.833191,931.93868)"
         d="m 26.301646,22.355394 c 0,2.458246 -1.539893,4.451048 -3.439446,4.451048 -1.899554,0 -3.439446,-1.992802 -3.439446,-4.451048 0,-2.458245 1.539892,-4.451047 3.439446,-4.451047 1.899553,0 3.439446,1.992802 3.439446,4.451047 z"
         sodipodi:ry="4.4510474"
         sodipodi:rx="3.439446"
         sodipodi:cy="22.355394"
         sodipodi:cx="22.8622"
         id="path3804"
         style="fill:#ffffff;fill-opacity:1;fill-rule:nonzero;stroke:none"
         sodipodi:type="arc" />
      <path
         sodipodi:type="arc"
         style="fill:#ffffff;fill-opacity:0.18999999;fill-rule:nonzero;stroke:none"
         id="path3806"
         sodipodi:cx="22.8622"
         sodipodi:cy="22.355394"
         sodipodi:rx="3.439446"
         sodipodi:ry="4.4510474"
         d="m 26.301646,22.355394 c 0,2.458246 -1.539893,4.451048 -3.439446,4.451048 -1.899554,0 -3.439446,-1.992802 -3.439446,-4.451048 0,-2.458245 1.539892,-4.451047 3.439446,-4.451047 1.899553,0 3.439446,1.992802 3.439446,4.451047 z"
         transform="matrix(1.0000157,0,0,0.77273946,-34.833191,941.93868)" />
      <path
         transform="matrix(1.0000157,0,0,0.77273946,-34.833191,951.93869)"
         d="m 26.301646,22.355394 c 0,2.458246 -1.539893,4.451048 -3.439446,4.451048 -1.899554,0 -3.439446,-1.992802 -3.439446,-4.451048 0,-2.458245 1.539892,-4.451047 3.439446,-4.451047 1.899553,0 3.439446,1.992802 3.439446,4.451047 z"
         sodipodi:ry="4.4510474"
         sodipodi:rx="3.439446"
         sodipodi:cy="22.355394"
         sodipodi:cx="22.8622"
         id="path3808"
         style="fill:#ffffff;fill-opacity:1;fill-rule:nonzero;stroke:none"
         sodipodi:type="arc" />
      <path
         sodipodi:type="arc"
         style="fill:#ffffff;fill-opacity:1;fill-rule:nonzero;stroke:none"
         id="path3810"
         sodipodi:cx="22.8622"
         sodipodi:cy="22.355394"
         sodipodi:rx="3.439446"
         sodipodi:ry="4.4510474"
         d="m 26.301646,22.355394 c 0,2.458246 -1.539893,4.451048 -3.439446,4.451048 -1.899554,0 -3.439446,-1.992802 -3.439446,-4.451048 0,-2.458245 1.539892,-4.451047 3.439446,-4.451047 1.899553,0 3.439446,1.992802 3.439446,4.451047 z"
         transform="matrix(1.0000157,0,0,0.77273946,-34.833191,961.93869)" />
      <path
         transform="matrix(1.0000157,0,0,0.77273946,-34.833191,971.9385)"
         d="m 26.301646,22.355394 c 0,2.458246 -1.539893,4.451048 -3.439446,4.451048 -1.899554,0 -3.439446,-1.992802 -3.439446,-4.451048 0,-2.458245 1.539892,-4.451047 3.439446,-4.451047 1.899553,0 3.439446,1.992802 3.439446,4.451047 z"
         sodipodi:ry="4.4510474"
         sodipodi:rx="3.439446"
         sodipodi:cy="22.355394"
         sodipodi:cx="22.8622"
         id="path3812"
         style="fill:#ffffff;fill-opacity:1;fill-rule:nonzero;stroke:none"
         sodipodi:type="arc" />
      <path
         sodipodi:type="arc"
         style="fill:#ffffff;fill-opacity:1;fill-rule:nonzero;stroke:none"
         id="path3814"
         sodipodi:cx="22.8622"
         sodipodi:cy="22.355394"
         sodipodi:rx="3.439446"
         sodipodi:ry="4.4510474"
         d="m 26.301646,22.355394 c 0,2.458246 -1.539893,4.451048 -3.439446,4.451048 -1.899554,0 -3.439446,-1.992802 -3.439446,-4.451048 0,-2.458245 1.539892,-4.451047 3.439446,-4.451047 1.899553,0 3.439446,1.992802 3.439446,4.451047 z"
         transform="matrix(1.0000157,0,0,0.77273946,-34.833191,981.9385)" />
      <path
         transform="matrix(1.0000157,0,0,0.77273946,-34.833191,991.9385)"
         d="m 26.301646,22.355394 c 0,2.458246 -1.539893,4.451048 -3.439446,4.451048 -1.899554,0 -3.439446,-1.992802 -3.439446,-4.451048 0,-2.458245 1.539892,-4.451047 3.439446,-4.451047 1.899553,0 3.439446,1.992802 3.439446,4.451047 z"
         sodipodi:ry="4.4510474"
         sodipodi:rx="3.439446"
         sodipodi:cy="22.355394"
         sodipodi:cx="22.8622"
         id="path3816"
         style="fill:#ffffff;fill-opacity:0.18999999;fill-rule:nonzero;stroke:none"
         sodipodi:type="arc" />
      <path
         transform="matrix(1.0000157,0,0,0.77273946,-24.833191,921.93869)"
         d="m 26.301646,22.355394 c 0,2.458246 -1.539893,4.451048 -3.439446,4.451048 -1.899554,0 -3.439446,-1.992802 -3.439446,-4.451048 0,-2.458245 1.539892,-4.451047 3.439446,-4.451047 1.899553,0 3.439446,1.992802 3.439446,4.451047 z"
         sodipodi:ry="4.4510474"
         sodipodi:rx="3.439446"
         sodipodi:cy="22.355394"
         sodipodi:cx="22.8622"
         id="path3818"
         style="fill:#ffffff;fill-opacity:1;fill-rule:nonzero;stroke:none"
         sodipodi:type="arc" />
      <path
         sodipodi:type="arc"
         style="fill:#ffffff;fill-opacity:1;fill-rule:nonzero;stroke:none"
         id="path3820"
         sodipodi:cx="22.8622"
         sodipodi:cy="22.355394"
         sodipodi:rx="3.439446"
         sodipodi:ry="4.4510474"
         d="m 26.301646,22.355394 c 0,2.458246 -1.539893,4.451048 -3.439446,4.451048 -1.899554,0 -3.439446,-1.992802 -3.439446,-4.451048 0,-2.458245 1.539892,-4.451047 3.439446,-4.451047 1.899553,0 3.439446,1.992802 3.439446,4.451047 z"
         transform="matrix(1.0000157,0,0,0.77273946,-24.833191,931.93868)" />
      <path
         transform="matrix(1.0000157,0,0,0.77273946,-24.833191,941.93868)"
         d="m 26.301646,22.355394 c 0,2.458246 -1.539893,4.451048 -3.439446,4.451048 -1.899554,0 -3.439446,-1.992802 -3.439446,-4.451048 0,-2.458245 1.539892,-4.451047 3.439446,-4.451047 1.899553,0 3.439446,1.992802 3.439446,4.451047 z"
         sodipodi:ry="4.4510474"
         sodipodi:rx="3.439446"
         sodipodi:cy="22.355394"
         sodipodi:cx="22.8622"
         id="path3822"
         style="fill:#ffffff;fill-opacity:0.18999999;fill-rule:nonzero;stroke:none"
         sodipodi:type="arc" />
      <path
         sodipodi:type="arc"
         style="fill:#ffffff;fill-opacity:1;fill-rule:nonzero;stroke:none"
         id="path3824"
         sodipodi:cx="22.8622"
         sodipodi:cy="22.355394"
         sodipodi:rx="3.439446"
         sodipodi:ry="4.4510474"
         d="m 26.301646,22.355394 c 0,2.458246 -1.539893,4.451048 -3.439446,4.451048 -1.899554,0 -3.439446,-1.992802 -3.439446,-4.451048 0,-2.458245 1.539892,-4.451047 3.439446,-4.451047 1.899553,0 3.439446,1.992802 3.439446,4.451047 z"
         transform="matrix(1.0000157,0,0,0.77273946,-24.833191,951.93869)" />
      <path
         transform="matrix(1.0000157,0,0,0.77273946,-24.833191,961.93869)"
         d="m 26.301646,22.355394 c 0,2.458246 -1.539893,4.451048 -3.439446,4.451048 -1.899554,0 -3.439446,-1.992802 -3.439446,-4.451048 0,-2.458245 1.539892,-4.451047 3.439446,-4.451047 1.899553,0 3.439446,1.992802 3.439446,4.451047 z"
         sodipodi:ry="4.4510474"
         sodipodi:rx="3.439446"
         sodipodi:cy="22.355394"
         sodipodi:cx="22.8622"
         id="path3826"
         style="fill:#ffffff;fill-opacity:1;fill-rule:nonzero;stroke:none"
         sodipodi:type="arc" />
      <path
         sodipodi:type="arc"
         style="fill:#ffffff;fill-opacity:1;fill-rule:nonzero;stroke:none"
         id="path3828"
         sodipodi:cx="22.8622"
         sodipodi:cy="22.355394"
         sodipodi:rx="3.439446"
         sodipodi:ry="4.4510474"
         d="m 26.301646,22.355394 c 0,2.458246 -1.539893,4.451048 -3.439446,4.451048 -1.899554,0 -3.439446,-1.992802 -3.439446,-4.451048 0,-2.458245 1.539892,-4.451047 3.439446,-4.451047 1.899553,0 3.439446,1.992802 3.439446,4.451047 z"
         transform="matrix(1.0000157,0,0,0.77273946,-24.833191,971.9385)" />
      <path
         transform="matrix(1.0000157,0,0,0.77273946,-24.833191,981.9385)"
         d="m 26.301646,22.355394 c 0,2.458246 -1.539893,4.451048 -3.439446,4.451048 -1.899554,0 -3.439446,-1.992802 -3.439446,-4.451048 0,-2.458245 1.539892,-4.451047 3.439446,-4.451047 1.899553,0 3.439446,1.992802 3.439446,4.451047 z"
         sodipodi:ry="4.4510474"
         sodipodi:rx="3.439446"
         sodipodi:cy="22.355394"
         sodipodi:cx="22.8622"
         id="path3830"
         style="fill:#ffffff;fill-opacity:1;fill-rule:nonzero;stroke:none"
         sodipodi:type="arc" />
      <path
         sodipodi:type="arc"
         style="fill:#ffffff;fill-opacity:0.18999999;fill-rule:nonzero;stroke:none"
         id="path3832"
         sodipodi:cx="22.8622"
         sodipodi:cy="22.355394"
         sodipodi:rx="3.439446"
         sodipodi:ry="4.4510474"
         d="m 26.301646,22.355394 c 0,2.458246 -1.539893,4.451048 -3.439446,4.451048 -1.899554,0 -3.439446,-1.992802 -3.439446,-4.451048 0,-2.458245 1.539892,-4.451047 3.439446,-4.451047 1.899553,0 3.439446,1.992802 3.439446,4.451047 z"
         transform="matrix(1.0000157,0,0,0.77273946,-24.833191,991.9385)" />
      <path
         sodipodi:type="arc"
         style="fill:#ffffff;fill-opacity:0.18981485;fill-rule:nonzero;stroke:none"
         id="path3834"
         sodipodi:cx="22.8622"
         sodipodi:cy="22.355394"
         sodipodi:rx="3.439446"
         sodipodi:ry="4.4510474"
         d="m 26.301646,22.355394 c 0,2.458246 -1.539893,4.451048 -3.439446,4.451048 -1.899554,0 -3.439446,-1.992802 -3.439446,-4.451048 0,-2.458245 1.539892,-4.451047 3.439446,-4.451047 1.899553,0 3.439446,1.992802 3.439446,4.451047 z"
         transform="matrix(1.0000157,0,0,0.77273946,-14.833191,921.93869)" />
      <path
         transform="matrix(1.0000157,0,0,0.77273946,-14.833191,931.93868)"
         d="m 26.301646,22.355394 c 0,2.458246 -1.539893,4.451048 -3.439446,4.451048 -1.899554,0 -3.439446,-1.992802 -3.439446,-4.451048 0,-2.458245 1.539892,-4.451047 3.439446,-4.451047 1.899553,0 3.439446,1.992802 3.439446,4.451047 z"
         sodipodi:ry="4.4510474"
         sodipodi:rx="3.439446"
         sodipodi:cy="22.355394"
         sodipodi:cx="22.8622"
         id="path3836"
         style="fill:#ffffff;fill-opacity:0.18981485;fill-rule:nonzero;stroke:none"
         sodipodi:type="arc" />
      <path
         sodipodi:type="arc"
         style="fill:#ffffff;fill-opacity:0.18981485;fill-rule:nonzero;stroke:none"
         id="path3838"
         sodipodi:cx="22.8622"
         sodipodi:cy="22.355394"
         sodipodi:rx="3.439446"
         sodipodi:ry="4.4510474"
         d="m 26.301646,22.355394 c 0,2.458246 -1.539893,4.451048 -3.439446,4.451048 -1.899554,0 -3.439446,-1.992802 -3.439446,-4.451048 0,-2.458245 1.539892,-4.451047 3.439446,-4.451047 1.899553,0 3.439446,1.992802 3.439446,4.451047 z"
         transform="matrix(1.0000157,0,0,0.77273946,-14.833191,941.93868)" />
      <path
         transform="matrix(1.0000157,0,0,0.77273946,-14.833191,951.93869)"
         d="m 26.301646,22.355394 c 0,2.458246 -1.539893,4.451048 -3.439446,4.451048 -1.899554,0 -3.439446,-1.992802 -3.439446,-4.451048 0,-2.458245 1.539892,-4.451047 3.439446,-4.451047 1.899553,0 3.439446,1.992802 3.439446,4.451047 z"
         sodipodi:ry="4.4510474"
         sodipodi:rx="3.439446"
         sodipodi:cy="22.355394"
         sodipodi:cx="22.8622"
         id="path3840"
         style="fill:#ffffff;fill-opacity:0.18981485;fill-rule:nonzero;stroke:none"
         sodipodi:type="arc" />
      <path
         sodipodi:type="arc"
         style="fill:#ffffff;fill-opacity:0.18981485;fill-rule:nonzero;stroke:none"
         id="path3842"
         sodipodi:cx="22.8622"
         sodipodi:cy="22.355394"
         sodipodi:rx="3.439446"
         sodipodi:ry="4.4510474"
         d="m 26.301646,22.355394 c 0,2.458246 -1.539893,4.451048 -3.439446,4.451048 -1.899554,0 -3.439446,-1.992802 -3.439446,-4.451048 0,-2.458245 1.539892,-4.451047 3.439446,-4.451047 1.899553,0 3.439446,1.992802 3.439446,4.451047 z"
         transform="matrix(1.0000157,0,0,0.77273946,-14.833191,961.93869)" />
      <path
         transform="matrix(1.0000157,0,0,0.77273946,-14.833191,971.9385)"
         d="m 26.301646,22.355394 c 0,2.458246 -1.539893,4.451048 -3.439446,4.451048 -1.899554,0 -3.439446,-1.992802 -3.439446,-4.451048 0,-2.458245 1.539892,-4.451047 3.439446,-4.451047 1.899553,0 3.439446,1.992802 3.439446,4.451047 z"
         sodipodi:ry="4.4510474"
         sodipodi:rx="3.439446"
         sodipodi:cy="22.355394"
         sodipodi:cx="22.8622"
         id="path3844"
         style="fill:#ffffff;fill-opacity:0.18999999;fill-rule:nonzero;stroke:none"
         sodipodi:type="arc" />
      <path
         sodipodi:type="arc"
         style="fill:#ffffff;fill-opacity:1;fill-rule:nonzero;stroke:none"
         id="path3846"
         sodipodi:cx="22.8622"
         sodipodi:cy="22.355394"
         sodipodi:rx="3.439446"
         sodipodi:ry="4.4510474"
         d="m 26.301646,22.355394 c 0,2.458246 -1.539893,4.451048 -3.439446,4.451048 -1.899554,0 -3.439446,-1.992802 -3.439446,-4.451048 0,-2.458245 1.539892,-4.451047 3.439446,-4.451047 1.899553,0 3.439446,1.992802 3.439446,4.451047 z"
         transform="matrix(1.0000157,0,0,0.77273946,-14.833191,981.9385)" />
      <path
         transform="matrix(1.0000157,0,0,0.77273946,-14.833191,991.9385)"
         d="m 26.301646,22.355394 c 0,2.458246 -1.539893,4.451048 -3.439446,4.451048 -1.899554,0 -3.439446,-1.992802 -3.439446,-4.451048 0,-2.458245 1.539892,-4.451047 3.439446,-4.451047 1.899553,0 3.439446,1.992802 3.439446,4.451047 z"
         sodipodi:ry="4.4510474"
         sodipodi:rx="3.439446"
         sodipodi:cy="22.355394"
         sodipodi:cx="22.8622"
         id="path3848"
         style="fill:#ffffff;fill-opacity:0.18981485;fill-rule:nonzero;stroke:none"
         sodipodi:type="arc" />
      <path
         transform="matrix(1.0000157,0,0,0.77273946,-4.833191,921.93869)"
         d="m 26.301646,22.355394 c 0,2.458246 -1.539893,4.451048 -3.439446,4.451048 -1.899554,0 -3.439446,-1.992802 -3.439446,-4.451048 0,-2.458245 1.539892,-4.451047 3.439446,-4.451047 1.899553,0 3.439446,1.992802 3.439446,4.451047 z"
         sodipodi:ry="4.4510474"
         sodipodi:rx="3.439446"
         sodipodi:cy="22.355394"
         sodipodi:cx="22.8622"
         id="path3850"
         style="fill:#ffffff;fill-opacity:0.18981485;fill-rule:nonzero;stroke:none"
         sodipodi:type="arc" />
      <path
         sodipodi:type="arc"
         style="fill:#ffffff;fill-opacity:0.18981485;fill-rule:nonzero;stroke:none"
         id="path3852"
         sodipodi:cx="22.8622"
         sodipodi:cy="22.355394"
         sodipodi:rx="3.439446"
         sodipodi:ry="4.4510474"
         d="m 26.301646,22.355394 c 0,2.458246 -1.539893,4.451048 -3.439446,4.451048 -1.899554,0 -3.439446,-1.992802 -3.439446,-4.451048 0,-2.458245 1.539892,-4.451047 3.439446,-4.451047 1.899553,0 3.439446,1.992802 3.439446,4.451047 z"
         transform="matrix(1.0000157,0,0,0.77273946,-4.833191,931.93868)" />
      <path
         transform="matrix(1.0000157,0,0,0.77273946,-4.833191,941.93868)"
         d="m 26.301646,22.355394 c 0,2.458246 -1.539893,4.451048 -3.439446,4.451048 -1.899554,0 -3.439446,-1.992802 -3.439446,-4.451048 0,-2.458245 1.539892,-4.451047 3.439446,-4.451047 1.899553,0 3.439446,1.992802 3.439446,4.451047 z"
         sodipodi:ry="4.4510474"
         sodipodi:rx="3.439446"
         sodipodi:cy="22.355394"
         sodipodi:cx="22.8622"
         id="path3854"
         style="fill:#ffffff;fill-opacity:0.18981485;fill-rule:nonzero;stroke:none"
         sodipodi:type="arc" />
      <path
         sodipodi:type="arc"
         style="fill:#ffffff;fill-opacity:0.18981485;fill-rule:nonzero;stroke:none"
         id="path3856"
         sodipodi:cx="22.8622"
         sodipodi:cy="22.355394"
         sodipodi:rx="3.439446"
         sodipodi:ry="4.4510474"
         d="m 26.301646,22.355394 c 0,2.458246 -1.539893,4.451048 -3.439446,4.451048 -1.899554,0 -3.439446,-1.992802 -3.439446,-4.451048 0,-2.458245 1.539892,-4.451047 3.439446,-4.451047 1.899553,0 3.439446,1.992802 3.439446,4.451047 z"
         transform="matrix(1.0000157,0,0,0.77273946,-4.833191,951.93869)" />
      <path
         transform="matrix(1.0000157,0,0,0.77273946,-4.833191,961.93869)"
         d="m 26.301646,22.355394 c 0,2.458246 -1.539893,4.451048 -3.439446,4.451048 -1.899554,0 -3.439446,-1.992802 -3.439446,-4.451048 0,-2.458245 1.539892,-4.451047 3.439446,-4.451047 1.899553,0 3.439446,1.992802 3.439446,4.451047 z"
         sodipodi:ry="4.4510474"
         sodipodi:rx="3.439446"
         sodipodi:cy="22.355394"
         sodipodi:cx="22.8622"
         id="path3858"
         style="fill:#ffffff;fill-opacity:0.18981485;fill-rule:nonzero;stroke:none"
         sodipodi:type="arc" />
      <path
         sodipodi:type="arc"
         style="fill:#ffffff;fill-opacity:0.18981485;fill-rule:nonzero;stroke:none"
         id="path3860"
         sodipodi:cx="22.8622"
         sodipodi:cy="22.355394"
         sodipodi:rx="3.439446"
         sodipodi:ry="4.4510474"
         d="m 26.301646,22.355394 c 0,2.458246 -1.539893,4.451048 -3.439446,4.451048 -1.899554,0 -3.439446,-1.992802 -3.439446,-4.451048 0,-2.458245 1.539892,-4.451047 3.439446,-4.451047 1.899553,0 3.439446,1.992802 3.439446,4.451047 z"
         transform="matrix(1.0000157,0,0,0.77273946,-4.833191,971.9385)" />
      <path
         transform="matrix(1.0000157,0,0,0.77273946,-4.833191,981.9385)"
         d="m 26.301646,22.355394 c 0,2.458246 -1.539893,4.451048 -3.439446,4.451048 -1.899554,0 -3.439446,-1.992802 -3.439446,-4.451048 0,-2.458245 1.539892,-4.451047 3.439446,-4.451047 1.899553,0 3.439446,1.992802 3.439446,4.451047 z"
         sodipodi:ry="4.4510474"
         sodipodi:rx="3.439446"
         sodipodi:cy="22.355394"
         sodipodi:cx="22.8622"
         id="path3862"
         style="fill:#ffffff;fill-opacity:0.18981485;fill-rule:nonzero;stroke:none"
         sodipodi:type="arc" />
      <path
         sodipodi:type="arc"
         style="fill:#ffffff;fill-opacity:0.18981485;fill-rule:nonzero;stroke:none"
         id="path3864"
         sodipodi:cx="22.8622"
         sodipodi:cy="22.355394"
         sodipodi:rx="3.439446"
         sodipodi:ry="4.4510474"
         d="m 26.301646,22.355394 c 0,2.458246 -1.539893,4.451048 -3.439446,4.451048 -1.899554,0 -3.439446,-1.992802 -3.439446,-4.451048 0,-2.458245 1.539892,-4.451047 3.439446,-4.451047 1.899553,0 3.439446,1.992802 3.439446,4.451047 z"
         transform="matrix(1.0000157,0,0,0.77273946,-4.833191,991.9385)" />
      <path
         sodipodi:type="arc"
         style="fill:#ffffff;fill-opacity:0.18981485;fill-rule:nonzero;stroke:none"
         id="path3866"
         sodipodi:cx="22.8622"
         sodipodi:cy="22.355394"
         sodipodi:rx="3.439446"
         sodipodi:ry="4.4510474"
         d="m 26.301646,22.355394 c 0,2.458246 -1.539893,4.451048 -3.439446,4.451048 -1.899554,0 -3.439446,-1.992802 -3.439446,-4.451048 0,-2.458245 1.539892,-4.451047 3.439446,-4.451047 1.899553,0 3.439446,1.992802 3.439446,4.451047 z"
         transform="matrix(1.0000157,0,0,0.77273946,5.166809,921.93869)" />
      <path
         transform="matrix(1.0000157,0,0,0.77273946,5.166809,931.93868)"
         d="m 26.301646,22.355394 c 0,2.458246 -1.539893,4.451048 -3.439446,4.451048 -1.899554,0 -3.439446,-1.992802 -3.439446,-4.451048 0,-2.458245 1.539892,-4.451047 3.439446,-4.451047 1.899553,0 3.439446,1.992802 3.439446,4.451047 z"
         sodipodi:ry="4.4510474"
         sodipodi:rx="3.439446"
         sodipodi:cy="22.355394"
         sodipodi:cx="22.8622"
         id="path3868"
         style="fill:#ffffff;fill-opacity:0.18981485;fill-rule:nonzero;stroke:none"
         sodipodi:type="arc" />
      <path
         sodipodi:type="arc"
         style="fill:#ffffff;fill-opacity:0.18981485;fill-rule:nonzero;stroke:none"
         id="path3870"
         sodipodi:cx="22.8622"
         sodipodi:cy="22.355394"
         sodipodi:rx="3.439446"
         sodipodi:ry="4.4510474"
         d="m 26.301646,22.355394 c 0,2.458246 -1.539893,4.451048 -3.439446,4.451048 -1.899554,0 -3.439446,-1.992802 -3.439446,-4.451048 0,-2.458245 1.539892,-4.451047 3.439446,-4.451047 1.899553,0 3.439446,1.992802 3.439446,4.451047 z"
         transform="matrix(1.0000157,0,0,0.77273946,5.166809,941.93868)" />
      <path
         transform="matrix(1.0000157,0,0,0.77273946,5.166809,951.93869)"
         d="m 26.301646,22.355394 c 0,2.458246 -1.539893,4.451048 -3.439446,4.451048 -1.899554,0 -3.439446,-1.992802 -3.439446,-4.451048 0,-2.458245 1.539892,-4.451047 3.439446,-4.451047 1.899553,0 3.439446,1.992802 3.439446,4.451047 z"
         sodipodi:ry="4.4510474"
         sodipodi:rx="3.439446"
         sodipodi:cy="22.355394"
         sodipodi:cx="22.8622"
         id="path3872"
         style="fill:#ffffff;fill-opacity:0.18981485;fill-rule:nonzero;stroke:none"
         sodipodi:type="arc" />
      <path
         sodipodi:type="arc"
         style="fill:#ffffff;fill-opacity:0.18981485;fill-rule:nonzero;stroke:none"
         id="path3874"
         sodipodi:cx="22.8622"
         sodipodi:cy="22.355394"
         sodipodi:rx="3.439446"
         sodipodi:ry="4.4510474"
         d="m 26.301646,22.355394 c 0,2.458246 -1.539893,4.451048 -3.439446,4.451048 -1.899554,0 -3.439446,-1.992802 -3.439446,-4.451048 0,-2.458245 1.539892,-4.451047 3.439446,-4.451047 1.899553,0 3.439446,1.992802 3.439446,4.451047 z"
         transform="matrix(1.0000157,0,0,0.77273946,5.166809,961.93869)" />
      <path
         transform="matrix(1.0000157,0,0,0.77273946,5.166809,971.9385)"
         d="m 26.301646,22.355394 c 0,2.458246 -1.539893,4.451048 -3.439446,4.451048 -1.899554,0 -3.439446,-1.992802 -3.439446,-4.451048 0,-2.458245 1.539892,-4.451047 3.439446,-4.451047 1.899553,0 3.439446,1.992802 3.439446,4.451047 z"
         sodipodi:ry="4.4510474"
         sodipodi:rx="3.439446"
         sodipodi:cy="22.355394"
         sodipodi:cx="22.8622"
         id="path3876"
         style="fill:#ffffff;fill-opacity:0.18981485;fill-rule:nonzero;stroke:none"
         sodipodi:type="arc" />
      <path
         sodipodi:type="arc"
         style="fill:#ffffff;fill-opacity:0.18981485;fill-rule:nonzero;stroke:none"
         id="path3878"
         sodipodi:cx="22.8622"
         sodipodi:cy="22.355394"
         sodipodi:rx="3.439446"
         sodipodi:ry="4.4510474"
         d="m 26.301646,22.355394 c 0,2.458246 -1.539893,4.451048 -3.439446,4.451048 -1.899554,0 -3.439446,-1.992802 -3.439446,-4.451048 0,-2.458245 1.539892,-4.451047 3.439446,-4.451047 1.899553,0 3.439446,1.992802 3.439446,4.451047 z"
         transform="matrix(1.0000157,0,0,0.77273946,5.166809,981.9385)" />
      <path
         transform="matrix(1.0000157,0,0,0.77273946,5.166809,991.9385)"
         d="m 26.301646,22.355394 c 0,2.458246 -1.539893,4.451048 -3.439446,4.451048 -1.899554,0 -3.439446,-1.992802 -3.439446,-4.451048 0,-2.458245 1.539892,-4.451047 3.439446,-4.451047 1.899553,0 3.439446,1.992802 3.439446,4.451047 z"
         sodipodi:ry="4.4510474"
         sodipodi:rx="3.439446"
         sodipodi:cy="22.355394"
         sodipodi:cx="22.8622"
         id="path3880"
         style="fill:#ffffff;fill-opacity:0.18981485;fill-rule:nonzero;stroke:none"
         sodipodi:type="arc" />
    </g>
  </g>
</svg>
