<?xml version="1.0" encoding="UTF-8" standalone="no"?>
<!-- Created with Inkscape (http://www.inkscape.org/) -->

<svg
   xmlns:dc="http://purl.org/dc/elements/1.1/"
   xmlns:cc="http://creativecommons.org/ns#"
   xmlns:rdf="http://www.w3.org/1999/02/22-rdf-syntax-ns#"
   xmlns:svg="http://www.w3.org/2000/svg"
   xmlns="http://www.w3.org/2000/svg"
   xmlns:sodipodi="http://sodipodi.sourceforge.net/DTD/sodipodi-0.dtd"
   xmlns:inkscape="http://www.inkscape.org/namespaces/inkscape"
   width="96"
   height="96"
   id="svg2"
   version="1.1"
   inkscape:version="0.48.4 r9939"
   sodipodi:docname="iceweasel.svg">
  <defs
     id="defs4" />
  <sodipodi:namedview
     id="base"
     pagecolor="#ffffff"
     bordercolor="#666666"
     borderopacity="1.0"
     inkscape:pageopacity="0.0"
     inkscape:pageshadow="2"
     inkscape:zoom="5.90625"
     inkscape:cx="34.222548"
     inkscape:cy="48"
     inkscape:document-units="px"
     inkscape:current-layer="layer1"
     showgrid="true"
     inkscape:snap-page="true"
     inkscape:snap-global="true"
     inkscape:snap-center="true"
     inkscape:snap-object-midpoints="false"
     showguides="true"
     inkscape:guide-bbox="true"
     inkscape:snap-bbox="true"
     inkscape:object-paths="true"
     inkscape:object-nodes="true"
     inkscape:window-width="1305"
     inkscape:window-height="744"
     inkscape:window-x="61"
     inkscape:window-y="24"
     inkscape:window-maximized="1"
     inkscape:snap-midpoints="false"
     inkscape:snap-grids="true"
     inkscape:snap-to-guides="false">
    <inkscape:grid
       type="xygrid"
       id="grid3002"
       empspacing="5"
       visible="true"
       enabled="true"
       snapvisiblegridlinesonly="true" />
  </sodipodi:namedview>
  <metadata
     id="metadata7">
    <rdf:RDF>
      <cc:Work
         rdf:about="">
        <dc:format>image/svg+xml</dc:format>
        <dc:type
           rdf:resource="http://purl.org/dc/dcmitype/StillImage" />
        <dc:title />
      </cc:Work>
    </rdf:RDF>
  </metadata>
  <g
     inkscape:label="Layer 1"
     inkscape:groupmode="layer"
     id="layer1"
     transform="translate(0,-956.36218)">
    <rect
       style="fill:#ffffff;fill-opacity:0;fill-rule:nonzero;stroke:none"
       id="rect3775"
       width="96"
       height="96"
       x="0"
       y="956.36218"
       ry="0" />
    <path
       style="fill:#000000;fill-opacity:0.09589041;fill-rule:nonzero;stroke:none"
       d="m 3.353015,956.30662 c -1.884176,0 -3.4111555,1.43156 -3.4111555,3.19799 l 0,83.65949 c 0,1.7665 1.5269795,3.1981 3.4111555,3.1981 l 89.23583,0 c 1.884174,0 3.411155,-1.4316 3.411155,-3.1981 l 0,-83.65949 c 0,-1.76643 -1.526981,-3.19799 -3.411155,-3.19799 z"
       id="rect3772"
       inkscape:connector-curvature="0"
       sodipodi:nodetypes="sssssssss" />
    <path
       style="fill:#000000;fill-opacity:0.18721463;fill-rule:nonzero;stroke:none"
       d="m 1.0459761,1041.8066 0,7.4219 c 0,1.7392 1.461916,3.1337 3.2852054,3.1337 l 86.3836135,0 c 1.823288,0 3.285205,-1.3945 3.285205,-3.1337 l 0,-7.4219 -92.9540239,0 z"
       id="rect3785"
       inkscape:connector-curvature="0" />
    <path
       style="fill:#000000;fill-opacity:0.38356168;fill-rule:nonzero;stroke:none"
       d="m 1.0459761,1041.8066 0,5.3807 c 0,1.762 1.461916,3.1749 3.2852054,3.1749 l 86.3836135,0 c 1.823288,0 3.285205,-1.4129 3.285205,-3.1749 l 0,-5.3807 -92.9540239,0 z"
       id="rect3783"
       inkscape:connector-curvature="0" />
    <rect
       style="fill:#1c1c1c;fill-opacity:1;fill-rule:nonzero;stroke:none"
       id="rect2985-2"
       width="93"
       height="88.999962"
       x="0.9999969"
       y="957.36224"
       ry="3.1511383" />
    <path
       style="fill:#00bce2;fill-opacity:1;fill-rule:evenodd;stroke:none"
       d="M 2 3 L 2 5 L 4 5 L 4 3 L 2 3 z M 5 3 L 5 5 L 7 5 L 7 3 L 5 3 z M 8 3 L 8 5 L 10 5 L 10 3 L 8 3 z M 11 3 L 11 5 L 13 5 L 13 3 L 11 3 z M 14 3 L 14 5 L 16 5 L 16 3 L 14 3 z M 17 3 L 17 5 L 19 5 L 19 3 L 17 3 z M 20 3 L 20 5 L 22 5 L 22 3 L 20 3 z M 23 3 L 23 5 L 25 5 L 25 3 L 23 3 z M 26 3 L 26 5 L 28 5 L 28 3 L 26 3 z M 29 3 L 29 5 L 31 5 L 31 3 L 29 3 z M 32 3 L 32 5 L 34 5 L 34 3 L 32 3 z M 35 3 L 35 5 L 37 5 L 37 3 L 35 3 z M 38 3 L 38 5 L 40 5 L 40 3 L 38 3 z M 41 3 L 41 5 L 43 5 L 43 3 L 41 3 z M 44 3 L 44 5 L 46 5 L 46 3 L 44 3 z M 47 3 L 47 5 L 49 5 L 49 3 L 47 3 z M 50 3 L 50 5 L 52 5 L 52 3 L 50 3 z M 53 3 L 53 5 L 55 5 L 55 3 L 53 3 z M 56 3 L 56 5 L 58 5 L 58 3 L 56 3 z M 59 3 L 59 5 L 61 5 L 61 3 L 59 3 z M 62 3 L 62 5 L 64 5 L 64 3 L 62 3 z M 65 3 L 65 5 L 67 5 L 67 3 L 65 3 z M 68 3 L 68 5 L 70 5 L 70 3 L 68 3 z M 71 3 L 71 5 L 73 5 L 73 3 L 71 3 z M 74 3 L 74 5 L 76 5 L 76 3 L 74 3 z M 77 3 L 77 5 L 79 5 L 79 3 L 77 3 z M 80 3 L 80 5 L 82 5 L 82 3 L 80 3 z M 83 3 L 83 5 L 85 5 L 85 3 L 83 3 z M 86 3 L 86 5 L 88 5 L 88 3 L 86 3 z M 89 3 L 89 5 L 91 5 L 91 3 L 89 3 z M 92 3 L 92 5 L 94 5 L 94 3 L 92 3 z M 2 6 L 2 8 L 4 8 L 4 6 L 2 6 z M 5 6 L 5 8 L 7 8 L 7 6 L 5 6 z M 8 6 L 8 8 L 10 8 L 10 6 L 8 6 z M 11 6 L 11 8 L 13 8 L 13 6 L 11 6 z M 14 6 L 14 8 L 16 8 L 16 6 L 14 6 z M 17 6 L 17 8 L 19 8 L 19 6 L 17 6 z M 20 6 L 20 8 L 22 8 L 22 6 L 20 6 z M 23 6 L 23 8 L 25 8 L 25 6 L 23 6 z M 26 6 L 26 8 L 28 8 L 28 6 L 26 6 z M 29 6 L 29 8 L 31 8 L 31 6 L 29 6 z M 32 6 L 32 8 L 34 8 L 34 6 L 32 6 z M 35 6 L 35 8 L 37 8 L 37 6 L 35 6 z M 38 6 L 38 8 L 40 8 L 40 6 L 38 6 z M 41 6 L 41 8 L 43 8 L 43 6 L 41 6 z M 44 6 L 44 8 L 46 8 L 46 6 L 44 6 z M 47 6 L 47 8 L 49 8 L 49 6 L 47 6 z M 50 6 L 50 8 L 52 8 L 52 6 L 50 6 z M 53 6 L 53 8 L 55 8 L 55 6 L 53 6 z M 56 6 L 56 8 L 58 8 L 58 6 L 56 6 z M 59 6 L 59 8 L 61 8 L 61 6 L 59 6 z M 62 6 L 62 8 L 64 8 L 64 6 L 62 6 z M 65 6 L 65 8 L 67 8 L 67 6 L 65 6 z M 68 6 L 68 8 L 70 8 L 70 6 L 68 6 z M 71 6 L 71 8 L 73 8 L 73 6 L 71 6 z M 74 6 L 74 8 L 76 8 L 76 6 L 74 6 z M 77 6 L 77 8 L 79 8 L 79 6 L 77 6 z M 80 6 L 80 8 L 82 8 L 82 6 L 80 6 z M 83 6 L 83 8 L 85 8 L 85 6 L 83 6 z M 86 6 L 86 8 L 88 8 L 88 6 L 86 6 z M 89 6 L 89 8 L 91 8 L 91 6 L 89 6 z M 92 6 L 92 8 L 94 8 L 94 6 L 92 6 z M 2 9 L 2 11 L 4 11 L 4 9 L 2 9 z M 5 9 L 5 11 L 7 11 L 7 9 L 5 9 z M 8 9 L 8 11 L 10 11 L 10 9 L 8 9 z M 11 9 L 11 11 L 13 11 L 13 9 L 11 9 z M 14 9 L 14 11 L 16 11 L 16 9 L 14 9 z M 17 9 L 17 11 L 19 11 L 19 9 L 17 9 z M 20 9 L 20 11 L 22 11 L 22 9 L 20 9 z M 23 9 L 23 11 L 25 11 L 25 9 L 23 9 z M 26 9 L 26 11 L 28 11 L 28 9 L 26 9 z M 29 9 L 29 11 L 31 11 L 31 9 L 29 9 z M 32 9 L 32 11 L 34 11 L 34 9 L 32 9 z M 35 9 L 35 11 L 37 11 L 37 9 L 35 9 z M 38 9 L 38 11 L 40 11 L 40 9 L 38 9 z M 41 9 L 41 11 L 43 11 L 43 9 L 41 9 z M 44 9 L 44 11 L 46 11 L 46 9 L 44 9 z M 47 9 L 47 11 L 49 11 L 49 9 L 47 9 z M 50 9 L 50 11 L 52 11 L 52 9 L 50 9 z M 53 9 L 53 11 L 55 11 L 55 9 L 53 9 z M 56 9 L 56 11 L 58 11 L 58 9 L 56 9 z M 59 9 L 59 11 L 61 11 L 61 9 L 59 9 z M 62 9 L 62 11 L 64 11 L 64 9 L 62 9 z M 65 9 L 65 11 L 67 11 L 67 9 L 65 9 z M 68 9 L 68 11 L 70 11 L 70 9 L 68 9 z M 71 9 L 71 11 L 73 11 L 73 9 L 71 9 z M 74 9 L 74 11 L 76 11 L 76 9 L 74 9 z M 77 9 L 77 11 L 79 11 L 79 9 L 77 9 z M 80 9 L 80 11 L 82 11 L 82 9 L 80 9 z M 83 9 L 83 11 L 85 11 L 85 9 L 83 9 z M 86 9 L 86 11 L 88 11 L 88 9 L 86 9 z M 89 9 L 89 11 L 91 11 L 91 9 L 89 9 z M 92 9 L 92 11 L 94 11 L 94 9 L 92 9 z M 2 12 L 2 14 L 4 14 L 4 12 L 2 12 z M 5 12 L 5 14 L 7 14 L 7 12 L 5 12 z M 8 12 L 8 14 L 10 14 L 10 12 L 8 12 z M 11 12 L 11 14 L 13 14 L 13 12 L 11 12 z M 14 12 L 14 14 L 16 14 L 16 12 L 14 12 z M 17 12 L 17 14 L 19 14 L 19 12 L 17 12 z M 20 12 L 20 14 L 22 14 L 22 12 L 20 12 z M 23 12 L 23 14 L 25 14 L 25 12 L 23 12 z M 26 12 L 26 14 L 28 14 L 28 12 L 26 12 z M 29 12 L 29 14 L 31 14 L 31 12 L 29 12 z M 32 12 L 32 14 L 34 14 L 34 12 L 32 12 z M 35 12 L 35 14 L 37 14 L 37 12 L 35 12 z M 38 12 L 38 14 L 40 14 L 40 12 L 38 12 z M 41 12 L 41 14 L 43 14 L 43 12 L 41 12 z M 44 12 L 44 14 L 46 14 L 46 12 L 44 12 z M 47 12 L 47 14 L 49 14 L 49 12 L 47 12 z M 50 12 L 50 14 L 52 14 L 52 12 L 50 12 z M 53 12 L 53 14 L 55 14 L 55 12 L 53 12 z M 56 12 L 56 14 L 58 14 L 58 12 L 56 12 z M 59 12 L 59 14 L 61 14 L 61 12 L 59 12 z M 62 12 L 62 14 L 64 14 L 64 12 L 62 12 z M 65 12 L 65 14 L 67 14 L 67 12 L 65 12 z M 68 12 L 68 14 L 70 14 L 70 12 L 68 12 z M 71 12 L 71 14 L 73 14 L 73 12 L 71 12 z M 74 12 L 74 14 L 76 14 L 76 12 L 74 12 z M 77 12 L 77 14 L 79 14 L 79 12 L 77 12 z M 80 12 L 80 14 L 82 14 L 82 12 L 80 12 z M 83 12 L 83 14 L 85 14 L 85 12 L 83 12 z M 86 12 L 86 14 L 88 14 L 88 12 L 86 12 z M 89 12 L 89 14 L 91 14 L 91 12 L 89 12 z M 92 12 L 92 14 L 94 14 L 94 12 L 92 12 z M 2 15 L 2 17 L 4 17 L 4 15 L 2 15 z M 5 15 L 5 17 L 7 17 L 7 15 L 5 15 z M 8 15 L 8 17 L 10 17 L 10 15 L 8 15 z M 11 15 L 11 17 L 13 17 L 13 15 L 11 15 z M 14 15 L 14 17 L 16 17 L 16 15 L 14 15 z M 17 15 L 17 17 L 19 17 L 19 15 L 17 15 z M 20 15 L 20 17 L 22 17 L 22 15 L 20 15 z M 23 15 L 23 17 L 25 17 L 25 15 L 23 15 z M 26 15 L 26 17 L 28 17 L 28 15 L 26 15 z M 29 15 L 29 17 L 31 17 L 31 15 L 29 15 z M 32 15 L 32 17 L 34 17 L 34 15 L 32 15 z M 35 15 L 35 17 L 37 17 L 37 15 L 35 15 z M 38 15 L 38 17 L 40 17 L 40 15 L 38 15 z M 41 15 L 41 17 L 43 17 L 43 15 L 41 15 z M 44 15 L 44 17 L 46 17 L 46 15 L 44 15 z M 47 15 L 47 17 L 49 17 L 49 15 L 47 15 z M 50 15 L 50 17 L 52 17 L 52 15 L 50 15 z M 53 15 L 53 17 L 55 17 L 55 15 L 53 15 z M 56 15 L 56 17 L 58 17 L 58 15 L 56 15 z M 59 15 L 59 17 L 61 17 L 61 15 L 59 15 z M 62 15 L 62 17 L 64 17 L 64 15 L 62 15 z M 65 15 L 65 17 L 67 17 L 67 15 L 65 15 z M 68 15 L 68 17 L 70 17 L 70 15 L 68 15 z M 71 15 L 71 17 L 73 17 L 73 15 L 71 15 z M 74 15 L 74 17 L 76 17 L 76 15 L 74 15 z M 77 15 L 77 17 L 79 17 L 79 15 L 77 15 z M 80 15 L 80 17 L 82 17 L 82 15 L 80 15 z M 83 15 L 83 17 L 85 17 L 85 15 L 83 15 z M 86 15 L 86 17 L 88 17 L 88 15 L 86 15 z M 89 15 L 89 17 L 91 17 L 91 15 L 89 15 z M 92 15 L 92 17 L 94 17 L 94 15 L 92 15 z M 2 18 L 2 20 L 4 20 L 4 18 L 2 18 z M 5 18 L 5 20 L 7 20 L 7 18 L 5 18 z M 8 18 L 8 20 L 10 20 L 10 18 L 8 18 z M 11 18 L 11 20 L 13 20 L 13 18 L 11 18 z M 14 18 L 14 20 L 16 20 L 16 18 L 14 18 z M 17 18 L 17 20 L 19 20 L 19 18 L 17 18 z M 20 18 L 20 20 L 22 20 L 22 18 L 20 18 z M 23 18 L 23 20 L 25 20 L 25 18 L 23 18 z M 26 18 L 26 20 L 28 20 L 28 18 L 26 18 z M 29 18 L 29 20 L 31 20 L 31 18 L 29 18 z M 32 18 L 32 20 L 34 20 L 34 18 L 32 18 z M 35 18 L 35 20 L 37 20 L 37 18 L 35 18 z M 38 18 L 38 20 L 40 20 L 40 18 L 38 18 z M 41 18 L 41 20 L 43 20 L 43 18 L 41 18 z M 44 18 L 44 20 L 46 20 L 46 18 L 44 18 z M 47 18 L 47 20 L 49 20 L 49 18 L 47 18 z M 50 18 L 50 20 L 52 20 L 52 18 L 50 18 z M 53 18 L 53 20 L 55 20 L 55 18 L 53 18 z M 56 18 L 56 20 L 58 20 L 58 18 L 56 18 z M 59 18 L 59 20 L 61 20 L 61 18 L 59 18 z M 62 18 L 62 20 L 64 20 L 64 18 L 62 18 z M 65 18 L 65 20 L 67 20 L 67 18 L 65 18 z M 68 18 L 68 20 L 70 20 L 70 18 L 68 18 z M 71 18 L 71 20 L 73 20 L 73 18 L 71 18 z M 74 18 L 74 20 L 76 20 L 76 18 L 74 18 z M 77 18 L 77 20 L 79 20 L 79 18 L 77 18 z M 80 18 L 80 20 L 82 20 L 82 18 L 80 18 z M 83 18 L 83 20 L 85 20 L 85 18 L 83 18 z M 86 18 L 86 20 L 88 20 L 88 18 L 86 18 z M 89 18 L 89 20 L 91 20 L 91 18 L 89 18 z M 92 18 L 92 20 L 94 20 L 94 18 L 92 18 z M 2 21 L 2 23 L 4 23 L 4 21 L 2 21 z M 5 21 L 5 23 L 7 23 L 7 21 L 5 21 z M 8 21 L 8 23 L 10 23 L 10 21 L 8 21 z M 11 21 L 11 23 L 13 23 L 13 21 L 11 21 z M 14 21 L 14 23 L 16 23 L 16 21 L 14 21 z M 17 21 L 17 23 L 19 23 L 19 21 L 17 21 z M 20 21 L 20 23 L 22 23 L 22 21 L 20 21 z M 23 21 L 23 23 L 25 23 L 25 21 L 23 21 z M 26 21 L 26 23 L 28 23 L 28 21 L 26 21 z M 29 21 L 29 23 L 31 23 L 31 21 L 29 21 z M 32 21 L 32 23 L 34 23 L 34 21 L 32 21 z M 35 21 L 35 23 L 37 23 L 37 21 L 35 21 z M 38 21 L 38 23 L 40 23 L 40 21 L 38 21 z M 41 21 L 41 23 L 43 23 L 43 21 L 41 21 z M 44 21 L 44 23 L 46 23 L 46 21 L 44 21 z M 47 21 L 47 23 L 49 23 L 49 21 L 47 21 z M 50 21 L 50 23 L 52 23 L 52 21 L 50 21 z M 53 21 L 53 23 L 55 23 L 55 21 L 53 21 z M 56 21 L 56 23 L 58 23 L 58 21 L 56 21 z M 59 21 L 59 23 L 61 23 L 61 21 L 59 21 z M 62 21 L 62 23 L 64 23 L 64 21 L 62 21 z M 65 21 L 65 23 L 67 23 L 67 21 L 65 21 z M 68 21 L 68 23 L 70 23 L 70 21 L 68 21 z M 71 21 L 71 23 L 73 23 L 73 21 L 71 21 z M 74 21 L 74 23 L 76 23 L 76 21 L 74 21 z M 77 21 L 77 23 L 79 23 L 79 21 L 77 21 z M 80 21 L 80 23 L 82 23 L 82 21 L 80 21 z M 83 21 L 83 23 L 85 23 L 85 21 L 83 21 z M 86 21 L 86 23 L 88 23 L 88 21 L 86 21 z M 89 21 L 89 23 L 91 23 L 91 21 L 89 21 z M 92 21 L 92 23 L 94 23 L 94 21 L 92 21 z M 2 24 L 2 26 L 4 26 L 4 24 L 2 24 z M 5 24 L 5 26 L 7 26 L 7 24 L 5 24 z M 8 24 L 8 26 L 10 26 L 10 24 L 8 24 z M 11 24 L 11 26 L 13 26 L 13 24 L 11 24 z M 14 24 L 14 26 L 16 26 L 16 24 L 14 24 z M 17 24 L 17 26 L 19 26 L 19 24 L 17 24 z M 20 24 L 20 26 L 22 26 L 22 24 L 20 24 z M 23 24 L 23 26 L 25 26 L 25 24 L 23 24 z M 26 24 L 26 26 L 28 26 L 28 24 L 26 24 z M 29 24 L 29 26 L 31 26 L 31 24 L 29 24 z M 32 24 L 32 26 L 34 26 L 34 24 L 32 24 z M 35 24 L 35 26 L 37 26 L 37 24 L 35 24 z M 38 24 L 38 26 L 40 26 L 40 24 L 38 24 z M 41 24 L 41 26 L 43 26 L 43 24 L 41 24 z M 44 24 L 44 26 L 46 26 L 46 24 L 44 24 z M 47 24 L 47 26 L 49 26 L 49 24 L 47 24 z M 50 24 L 50 26 L 52 26 L 52 24 L 50 24 z M 53 24 L 53 26 L 55 26 L 55 24 L 53 24 z M 56 24 L 56 26 L 58 26 L 58 24 L 56 24 z M 59 24 L 59 26 L 61 26 L 61 24 L 59 24 z M 62 24 L 62 26 L 64 26 L 64 24 L 62 24 z M 65 24 L 65 26 L 67 26 L 67 24 L 65 24 z M 68 24 L 68 26 L 70 26 L 70 24 L 68 24 z M 71 24 L 71 26 L 73 26 L 73 24 L 71 24 z M 74 24 L 74 26 L 76 26 L 76 24 L 74 24 z M 77 24 L 77 26 L 79 26 L 79 24 L 77 24 z M 80 24 L 80 26 L 82 26 L 82 24 L 80 24 z M 83 24 L 83 26 L 85 26 L 85 24 L 83 24 z M 86 24 L 86 26 L 88 26 L 88 24 L 86 24 z M 89 24 L 89 26 L 91 26 L 91 24 L 89 24 z M 92 24 L 92 26 L 94 26 L 94 24 L 92 24 z M 2 27 L 2 29 L 4 29 L 4 27 L 2 27 z M 5 27 L 5 29 L 7 29 L 7 27 L 5 27 z M 8 27 L 8 29 L 10 29 L 10 27 L 8 27 z M 11 27 L 11 29 L 13 29 L 13 27 L 11 27 z M 14 27 L 14 29 L 16 29 L 16 27 L 14 27 z M 17 27 L 17 29 L 19 29 L 19 27 L 17 27 z M 20 27 L 20 29 L 22 29 L 22 27 L 20 27 z M 23 27 L 23 29 L 25 29 L 25 27 L 23 27 z M 26 27 L 26 29 L 28 29 L 28 27 L 26 27 z M 29 27 L 29 29 L 31 29 L 31 27 L 29 27 z M 32 27 L 32 29 L 34 29 L 34 27 L 32 27 z M 35 27 L 35 29 L 37 29 L 37 27 L 35 27 z M 38 27 L 38 29 L 40 29 L 40 27 L 38 27 z M 41 27 L 41 29 L 43 29 L 43 27 L 41 27 z M 44 27 L 44 29 L 46 29 L 46 27 L 44 27 z M 47 27 L 47 29 L 49 29 L 49 27 L 47 27 z M 50 27 L 50 29 L 52 29 L 52 27 L 50 27 z M 53 27 L 53 29 L 55 29 L 55 27 L 53 27 z M 56 27 L 56 29 L 58 29 L 58 27 L 56 27 z M 59 27 L 59 29 L 61 29 L 61 27 L 59 27 z M 62 27 L 62 29 L 64 29 L 64 27 L 62 27 z M 65 27 L 65 29 L 67 29 L 67 27 L 65 27 z M 68 27 L 68 29 L 70 29 L 70 27 L 68 27 z M 71 27 L 71 29 L 73 29 L 73 27 L 71 27 z M 74 27 L 74 29 L 76 29 L 76 27 L 74 27 z M 77 27 L 77 29 L 79 29 L 79 27 L 77 27 z M 80 27 L 80 29 L 82 29 L 82 27 L 80 27 z M 83 27 L 83 29 L 85 29 L 85 27 L 83 27 z M 86 27 L 86 29 L 88 29 L 88 27 L 86 27 z M 89 27 L 89 29 L 91 29 L 91 27 L 89 27 z M 92 27 L 92 29 L 94 29 L 94 27 L 92 27 z M 2 30 L 2 32 L 4 32 L 4 30 L 2 30 z M 5 30 L 5 32 L 7 32 L 7 30 L 5 30 z M 8 30 L 8 32 L 10 32 L 10 30 L 8 30 z M 11 30 L 11 32 L 13 32 L 13 30 L 11 30 z M 14 30 L 14 32 L 16 32 L 16 30 L 14 30 z M 17 30 L 17 32 L 19 32 L 19 30 L 17 30 z M 20 30 L 20 32 L 22 32 L 22 30 L 20 30 z M 23 30 L 23 32 L 25 32 L 25 30 L 23 30 z M 26 30 L 26 32 L 28 32 L 28 30 L 26 30 z M 29 30 L 29 32 L 31 32 L 31 30 L 29 30 z M 32 30 L 32 32 L 34 32 L 34 30 L 32 30 z M 35 30 L 35 32 L 37 32 L 37 30 L 35 30 z M 38 30 L 38 32 L 40 32 L 40 30 L 38 30 z M 41 30 L 41 32 L 43 32 L 43 30 L 41 30 z M 44 30 L 44 32 L 46 32 L 46 30 L 44 30 z M 47 30 L 47 32 L 49 32 L 49 30 L 47 30 z M 50 30 L 50 32 L 52 32 L 52 30 L 50 30 z M 53 30 L 53 32 L 55 32 L 55 30 L 53 30 z M 56 30 L 56 32 L 58 32 L 58 30 L 56 30 z M 59 30 L 59 32 L 61 32 L 61 30 L 59 30 z M 62 30 L 62 32 L 64 32 L 64 30 L 62 30 z M 65 30 L 65 32 L 67 32 L 67 30 L 65 30 z M 68 30 L 68 32 L 70 32 L 70 30 L 68 30 z M 71 30 L 71 32 L 73 32 L 73 30 L 71 30 z M 74 30 L 74 32 L 76 32 L 76 30 L 74 30 z M 77 30 L 77 32 L 79 32 L 79 30 L 77 30 z M 80 30 L 80 32 L 82 32 L 82 30 L 80 30 z M 83 30 L 83 32 L 85 32 L 85 30 L 83 30 z M 86 30 L 86 32 L 88 32 L 88 30 L 86 30 z M 89 30 L 89 32 L 91 32 L 91 30 L 89 30 z M 92 30 L 92 32 L 94 32 L 94 30 L 92 30 z M 2 33 L 2 35 L 4 35 L 4 33 L 2 33 z M 5 33 L 5 35 L 7 35 L 7 33 L 5 33 z M 8 33 L 8 35 L 10 35 L 10 33 L 8 33 z M 11 33 L 11 35 L 13 35 L 13 33 L 11 33 z M 14 33 L 14 35 L 16 35 L 16 33 L 14 33 z M 17 33 L 17 35 L 19 35 L 19 33 L 17 33 z M 20 33 L 20 35 L 22 35 L 22 33 L 20 33 z M 23 33 L 23 35 L 25 35 L 25 33 L 23 33 z M 26 33 L 26 35 L 28 35 L 28 33 L 26 33 z M 29 33 L 29 35 L 31 35 L 31 33 L 29 33 z M 32 33 L 32 35 L 34 35 L 34 33 L 32 33 z M 35 33 L 35 35 L 37 35 L 37 33 L 35 33 z M 38 33 L 38 35 L 40 35 L 40 33 L 38 33 z M 41 33 L 41 35 L 43 35 L 43 33 L 41 33 z M 44 33 L 44 35 L 46 35 L 46 33 L 44 33 z M 47 33 L 47 35 L 49 35 L 49 33 L 47 33 z M 50 33 L 50 35 L 52 35 L 52 33 L 50 33 z M 53 33 L 53 35 L 55 35 L 55 33 L 53 33 z M 56 33 L 56 35 L 58 35 L 58 33 L 56 33 z M 59 33 L 59 35 L 61 35 L 61 33 L 59 33 z M 62 33 L 62 35 L 64 35 L 64 33 L 62 33 z M 65 33 L 65 35 L 67 35 L 67 33 L 65 33 z M 68 33 L 68 35 L 70 35 L 70 33 L 68 33 z M 71 33 L 71 35 L 73 35 L 73 33 L 71 33 z M 74 33 L 74 35 L 76 35 L 76 33 L 74 33 z M 77 33 L 77 35 L 79 35 L 79 33 L 77 33 z M 80 33 L 80 35 L 82 35 L 82 33 L 80 33 z M 83 33 L 83 35 L 85 35 L 85 33 L 83 33 z M 86 33 L 86 35 L 88 35 L 88 33 L 86 33 z M 89 33 L 89 35 L 91 35 L 91 33 L 89 33 z M 92 33 L 92 35 L 94 35 L 94 33 L 92 33 z M 2 36 L 2 38 L 4 38 L 4 36 L 2 36 z M 5 36 L 5 38 L 7 38 L 7 36 L 5 36 z M 8 36 L 8 38 L 10 38 L 10 36 L 8 36 z M 11 36 L 11 38 L 13 38 L 13 36 L 11 36 z M 14 36 L 14 38 L 16 38 L 16 36 L 14 36 z M 17 36 L 17 38 L 19 38 L 19 36 L 17 36 z M 20 36 L 20 38 L 22 38 L 22 36 L 20 36 z M 23 36 L 23 38 L 25 38 L 25 36 L 23 36 z M 26 36 L 26 38 L 28 38 L 28 36 L 26 36 z M 29 36 L 29 38 L 31 38 L 31 36 L 29 36 z M 32 36 L 32 38 L 34 38 L 34 36 L 32 36 z M 35 36 L 35 38 L 37 38 L 37 36 L 35 36 z M 38 36 L 38 38 L 40 38 L 40 36 L 38 36 z M 41 36 L 41 38 L 43 38 L 43 36 L 41 36 z M 44 36 L 44 38 L 46 38 L 46 36 L 44 36 z M 47 36 L 47 38 L 49 38 L 49 36 L 47 36 z M 50 36 L 50 38 L 52 38 L 52 36 L 50 36 z M 53 36 L 53 38 L 55 38 L 55 36 L 53 36 z M 56 36 L 56 38 L 58 38 L 58 36 L 56 36 z M 59 36 L 59 38 L 61 38 L 61 36 L 59 36 z M 62 36 L 62 38 L 64 38 L 64 36 L 62 36 z M 65 36 L 65 38 L 67 38 L 67 36 L 65 36 z M 68 36 L 68 38 L 70 38 L 70 36 L 68 36 z M 71 36 L 71 38 L 73 38 L 73 36 L 71 36 z M 74 36 L 74 38 L 76 38 L 76 36 L 74 36 z M 77 36 L 77 38 L 79 38 L 79 36 L 77 36 z M 80 36 L 80 38 L 82 38 L 82 36 L 80 36 z M 83 36 L 83 38 L 85 38 L 85 36 L 83 36 z M 86 36 L 86 38 L 88 38 L 88 36 L 86 36 z M 89 36 L 89 38 L 91 38 L 91 36 L 89 36 z M 92 36 L 92 38 L 94 38 L 94 36 L 92 36 z M 2 39 L 2 41 L 4 41 L 4 39 L 2 39 z M 5 39 L 5 41 L 7 41 L 7 39 L 5 39 z M 8 39 L 8 41 L 10 41 L 10 39 L 8 39 z M 11 39 L 11 41 L 13 41 L 13 39 L 11 39 z M 14 39 L 14 41 L 16 41 L 16 39 L 14 39 z M 17 39 L 17 41 L 19 41 L 19 39 L 17 39 z M 20 39 L 20 41 L 22 41 L 22 39 L 20 39 z M 23 39 L 23 41 L 25 41 L 25 39 L 23 39 z M 26 39 L 26 41 L 28 41 L 28 39 L 26 39 z M 29 39 L 29 41 L 31 41 L 31 39 L 29 39 z M 32 39 L 32 41 L 34 41 L 34 39 L 32 39 z M 35 39 L 35 41 L 37 41 L 37 39 L 35 39 z M 38 39 L 38 41 L 40 41 L 40 39 L 38 39 z M 41 39 L 41 41 L 43 41 L 43 39 L 41 39 z M 44 39 L 44 41 L 46 41 L 46 39 L 44 39 z M 47 39 L 47 41 L 49 41 L 49 39 L 47 39 z M 50 39 L 50 41 L 52 41 L 52 39 L 50 39 z M 53 39 L 53 41 L 55 41 L 55 39 L 53 39 z M 56 39 L 56 41 L 58 41 L 58 39 L 56 39 z M 59 39 L 59 41 L 61 41 L 61 39 L 59 39 z M 62 39 L 62 41 L 64 41 L 64 39 L 62 39 z M 65 39 L 65 41 L 67 41 L 67 39 L 65 39 z M 68 39 L 68 41 L 70 41 L 70 39 L 68 39 z M 71 39 L 71 41 L 73 41 L 73 39 L 71 39 z M 74 39 L 74 41 L 76 41 L 76 39 L 74 39 z M 77 39 L 77 41 L 79 41 L 79 39 L 77 39 z M 80 39 L 80 41 L 82 41 L 82 39 L 80 39 z M 83 39 L 83 41 L 85 41 L 85 39 L 83 39 z M 86 39 L 86 41 L 88 41 L 88 39 L 86 39 z M 89 39 L 89 41 L 91 41 L 91 39 L 89 39 z M 92 39 L 92 41 L 94 41 L 94 39 L 92 39 z M 2 42 L 2 44 L 4 44 L 4 42 L 2 42 z M 5 42 L 5 44 L 7 44 L 7 42 L 5 42 z M 8 42 L 8 44 L 10 44 L 10 42 L 8 42 z M 11 42 L 11 44 L 13 44 L 13 42 L 11 42 z M 14 42 L 14 44 L 16 44 L 16 42 L 14 42 z M 17 42 L 17 44 L 19 44 L 19 42 L 17 42 z M 20 42 L 20 44 L 22 44 L 22 42 L 20 42 z M 23 42 L 23 44 L 25 44 L 25 42 L 23 42 z M 26 42 L 26 44 L 28 44 L 28 42 L 26 42 z M 29 42 L 29 44 L 31 44 L 31 42 L 29 42 z M 32 42 L 32 44 L 34 44 L 34 42 L 32 42 z M 35 42 L 35 44 L 37 44 L 37 42 L 35 42 z M 38 42 L 38 44 L 40 44 L 40 42 L 38 42 z M 41 42 L 41 44 L 43 44 L 43 42 L 41 42 z M 44 42 L 44 44 L 46 44 L 46 42 L 44 42 z M 47 42 L 47 44 L 49 44 L 49 42 L 47 42 z M 50 42 L 50 44 L 52 44 L 52 42 L 50 42 z M 53 42 L 53 44 L 55 44 L 55 42 L 53 42 z M 56 42 L 56 44 L 58 44 L 58 42 L 56 42 z M 59 42 L 59 44 L 61 44 L 61 42 L 59 42 z M 62 42 L 62 44 L 64 44 L 64 42 L 62 42 z M 65 42 L 65 44 L 67 44 L 67 42 L 65 42 z M 68 42 L 68 44 L 70 44 L 70 42 L 68 42 z M 71 42 L 71 44 L 73 44 L 73 42 L 71 42 z M 74 42 L 74 44 L 76 44 L 76 42 L 74 42 z M 77 42 L 77 44 L 79 44 L 79 42 L 77 42 z M 80 42 L 80 44 L 82 44 L 82 42 L 80 42 z M 83 42 L 83 44 L 85 44 L 85 42 L 83 42 z M 86 42 L 86 44 L 88 44 L 88 42 L 86 42 z M 89 42 L 89 44 L 91 44 L 91 42 L 89 42 z M 92 42 L 92 44 L 94 44 L 94 42 L 92 42 z M 2 45 L 2 47 L 4 47 L 4 45 L 2 45 z M 5 45 L 5 47 L 7 47 L 7 45 L 5 45 z M 8 45 L 8 47 L 10 47 L 10 45 L 8 45 z M 11 45 L 11 47 L 13 47 L 13 45 L 11 45 z M 14 45 L 14 47 L 16 47 L 16 45 L 14 45 z M 17 45 L 17 47 L 19 47 L 19 45 L 17 45 z M 20 45 L 20 47 L 22 47 L 22 45 L 20 45 z M 23 45 L 23 47 L 25 47 L 25 45 L 23 45 z M 26 45 L 26 47 L 28 47 L 28 45 L 26 45 z M 29 45 L 29 47 L 31 47 L 31 45 L 29 45 z M 32 45 L 32 47 L 34 47 L 34 45 L 32 45 z M 35 45 L 35 47 L 37 47 L 37 45 L 35 45 z M 38 45 L 38 47 L 40 47 L 40 45 L 38 45 z M 41 45 L 41 47 L 43 47 L 43 45 L 41 45 z M 44 45 L 44 47 L 46 47 L 46 45 L 44 45 z M 47 45 L 47 47 L 49 47 L 49 45 L 47 45 z M 50 45 L 50 47 L 52 47 L 52 45 L 50 45 z M 53 45 L 53 47 L 55 47 L 55 45 L 53 45 z M 56 45 L 56 47 L 58 47 L 58 45 L 56 45 z M 59 45 L 59 47 L 61 47 L 61 45 L 59 45 z M 62 45 L 62 47 L 64 47 L 64 45 L 62 45 z M 65 45 L 65 47 L 67 47 L 67 45 L 65 45 z M 68 45 L 68 47 L 70 47 L 70 45 L 68 45 z M 71 45 L 71 47 L 73 47 L 73 45 L 71 45 z M 74 45 L 74 47 L 76 47 L 76 45 L 74 45 z M 77 45 L 77 47 L 79 47 L 79 45 L 77 45 z M 80 45 L 80 47 L 82 47 L 82 45 L 80 45 z M 83 45 L 83 47 L 85 47 L 85 45 L 83 45 z M 86 45 L 86 47 L 88 47 L 88 45 L 86 45 z M 89 45 L 89 47 L 91 47 L 91 45 L 89 45 z M 92 45 L 92 47 L 94 47 L 94 45 L 92 45 z M 2 48 L 2 50 L 4 50 L 4 48 L 2 48 z M 5 48 L 5 50 L 7 50 L 7 48 L 5 48 z M 8 48 L 8 50 L 10 50 L 10 48 L 8 48 z M 11 48 L 11 50 L 13 50 L 13 48 L 11 48 z M 14 48 L 14 50 L 16 50 L 16 48 L 14 48 z M 17 48 L 17 50 L 19 50 L 19 48 L 17 48 z M 20 48 L 20 50 L 22 50 L 22 48 L 20 48 z M 23 48 L 23 50 L 25 50 L 25 48 L 23 48 z M 26 48 L 26 50 L 28 50 L 28 48 L 26 48 z M 29 48 L 29 50 L 31 50 L 31 48 L 29 48 z M 32 48 L 32 50 L 34 50 L 34 48 L 32 48 z M 35 48 L 35 50 L 37 50 L 37 48 L 35 48 z M 38 48 L 38 50 L 40 50 L 40 48 L 38 48 z M 41 48 L 41 50 L 43 50 L 43 48 L 41 48 z M 44 48 L 44 50 L 46 50 L 46 48 L 44 48 z M 47 48 L 47 50 L 49 50 L 49 48 L 47 48 z M 50 48 L 50 50 L 52 50 L 52 48 L 50 48 z M 53 48 L 53 50 L 55 50 L 55 48 L 53 48 z M 56 48 L 56 50 L 58 50 L 58 48 L 56 48 z M 59 48 L 59 50 L 61 50 L 61 48 L 59 48 z M 62 48 L 62 50 L 64 50 L 64 48 L 62 48 z M 65 48 L 65 50 L 67 50 L 67 48 L 65 48 z M 68 48 L 68 50 L 70 50 L 70 48 L 68 48 z M 71 48 L 71 50 L 73 50 L 73 48 L 71 48 z M 74 48 L 74 50 L 76 50 L 76 48 L 74 48 z M 77 48 L 77 50 L 79 50 L 79 48 L 77 48 z M 80 48 L 80 50 L 82 50 L 82 48 L 80 48 z M 83 48 L 83 50 L 85 50 L 85 48 L 83 48 z M 86 48 L 86 50 L 88 50 L 88 48 L 86 48 z M 89 48 L 89 50 L 91 50 L 91 48 L 89 48 z M 92 48 L 92 50 L 94 50 L 94 48 L 92 48 z M 2 51 L 2 53 L 4 53 L 4 51 L 2 51 z M 5 51 L 5 53 L 7 53 L 7 51 L 5 51 z M 8 51 L 8 53 L 10 53 L 10 51 L 8 51 z M 11 51 L 11 53 L 13 53 L 13 51 L 11 51 z M 14 51 L 14 53 L 16 53 L 16 51 L 14 51 z M 17 51 L 17 53 L 19 53 L 19 51 L 17 51 z M 20 51 L 20 53 L 22 53 L 22 51 L 20 51 z M 23 51 L 23 53 L 25 53 L 25 51 L 23 51 z M 26 51 L 26 53 L 28 53 L 28 51 L 26 51 z M 29 51 L 29 53 L 31 53 L 31 51 L 29 51 z M 32 51 L 32 53 L 34 53 L 34 51 L 32 51 z M 35 51 L 35 53 L 37 53 L 37 51 L 35 51 z M 38 51 L 38 53 L 40 53 L 40 51 L 38 51 z M 41 51 L 41 53 L 43 53 L 43 51 L 41 51 z M 44 51 L 44 53 L 46 53 L 46 51 L 44 51 z M 47 51 L 47 53 L 49 53 L 49 51 L 47 51 z M 50 51 L 50 53 L 52 53 L 52 51 L 50 51 z M 53 51 L 53 53 L 55 53 L 55 51 L 53 51 z M 56 51 L 56 53 L 58 53 L 58 51 L 56 51 z M 59 51 L 59 53 L 61 53 L 61 51 L 59 51 z M 62 51 L 62 53 L 64 53 L 64 51 L 62 51 z M 65 51 L 65 53 L 67 53 L 67 51 L 65 51 z M 68 51 L 68 53 L 70 53 L 70 51 L 68 51 z M 71 51 L 71 53 L 73 53 L 73 51 L 71 51 z M 74 51 L 74 53 L 76 53 L 76 51 L 74 51 z M 77 51 L 77 53 L 79 53 L 79 51 L 77 51 z M 80 51 L 80 53 L 82 53 L 82 51 L 80 51 z M 83 51 L 83 53 L 85 53 L 85 51 L 83 51 z M 86 51 L 86 53 L 88 53 L 88 51 L 86 51 z M 89 51 L 89 53 L 91 53 L 91 51 L 89 51 z M 92 51 L 92 53 L 94 53 L 94 51 L 92 51 z M 2 54 L 2 56 L 4 56 L 4 54 L 2 54 z M 5 54 L 5 56 L 7 56 L 7 54 L 5 54 z M 8 54 L 8 56 L 10 56 L 10 54 L 8 54 z M 11 54 L 11 56 L 13 56 L 13 54 L 11 54 z M 14 54 L 14 56 L 16 56 L 16 54 L 14 54 z M 17 54 L 17 56 L 19 56 L 19 54 L 17 54 z M 20 54 L 20 56 L 22 56 L 22 54 L 20 54 z M 23 54 L 23 56 L 25 56 L 25 54 L 23 54 z M 26 54 L 26 56 L 28 56 L 28 54 L 26 54 z M 29 54 L 29 56 L 31 56 L 31 54 L 29 54 z M 32 54 L 32 56 L 34 56 L 34 54 L 32 54 z M 35 54 L 35 56 L 37 56 L 37 54 L 35 54 z M 38 54 L 38 56 L 40 56 L 40 54 L 38 54 z M 41 54 L 41 56 L 43 56 L 43 54 L 41 54 z M 44 54 L 44 56 L 46 56 L 46 54 L 44 54 z M 47 54 L 47 56 L 49 56 L 49 54 L 47 54 z M 50 54 L 50 56 L 52 56 L 52 54 L 50 54 z M 53 54 L 53 56 L 55 56 L 55 54 L 53 54 z M 56 54 L 56 56 L 58 56 L 58 54 L 56 54 z M 59 54 L 59 56 L 61 56 L 61 54 L 59 54 z M 62 54 L 62 56 L 64 56 L 64 54 L 62 54 z M 65 54 L 65 56 L 67 56 L 67 54 L 65 54 z M 68 54 L 68 56 L 70 56 L 70 54 L 68 54 z M 71 54 L 71 56 L 73 56 L 73 54 L 71 54 z M 74 54 L 74 56 L 76 56 L 76 54 L 74 54 z M 77 54 L 77 56 L 79 56 L 79 54 L 77 54 z M 80 54 L 80 56 L 82 56 L 82 54 L 80 54 z M 83 54 L 83 56 L 85 56 L 85 54 L 83 54 z M 86 54 L 86 56 L 88 56 L 88 54 L 86 54 z M 89 54 L 89 56 L 91 56 L 91 54 L 89 54 z M 92 54 L 92 56 L 94 56 L 94 54 L 92 54 z M 2 57 L 2 59 L 4 59 L 4 57 L 2 57 z M 5 57 L 5 59 L 7 59 L 7 57 L 5 57 z M 8 57 L 8 59 L 10 59 L 10 57 L 8 57 z M 11 57 L 11 59 L 13 59 L 13 57 L 11 57 z M 14 57 L 14 59 L 16 59 L 16 57 L 14 57 z M 17 57 L 17 59 L 19 59 L 19 57 L 17 57 z M 20 57 L 20 59 L 22 59 L 22 57 L 20 57 z M 23 57 L 23 59 L 25 59 L 25 57 L 23 57 z M 26 57 L 26 59 L 28 59 L 28 57 L 26 57 z M 29 57 L 29 59 L 31 59 L 31 57 L 29 57 z M 32 57 L 32 59 L 34 59 L 34 57 L 32 57 z M 35 57 L 35 59 L 37 59 L 37 57 L 35 57 z M 38 57 L 38 59 L 40 59 L 40 57 L 38 57 z M 41 57 L 41 59 L 43 59 L 43 57 L 41 57 z M 44 57 L 44 59 L 46 59 L 46 57 L 44 57 z M 47 57 L 47 59 L 49 59 L 49 57 L 47 57 z M 50 57 L 50 59 L 52 59 L 52 57 L 50 57 z M 53 57 L 53 59 L 55 59 L 55 57 L 53 57 z M 56 57 L 56 59 L 58 59 L 58 57 L 56 57 z M 59 57 L 59 59 L 61 59 L 61 57 L 59 57 z M 62 57 L 62 59 L 64 59 L 64 57 L 62 57 z M 65 57 L 65 59 L 67 59 L 67 57 L 65 57 z M 68 57 L 68 59 L 70 59 L 70 57 L 68 57 z M 71 57 L 71 59 L 73 59 L 73 57 L 71 57 z M 74 57 L 74 59 L 76 59 L 76 57 L 74 57 z M 77 57 L 77 59 L 79 59 L 79 57 L 77 57 z M 80 57 L 80 59 L 82 59 L 82 57 L 80 57 z M 83 57 L 83 59 L 85 59 L 85 57 L 83 57 z M 86 57 L 86 59 L 88 59 L 88 57 L 86 57 z M 89 57 L 89 59 L 91 59 L 91 57 L 89 57 z M 92 57 L 92 59 L 94 59 L 94 57 L 92 57 z M 2 60 L 2 62 L 4 62 L 4 60 L 2 60 z M 5 60 L 5 62 L 7 62 L 7 60 L 5 60 z M 8 60 L 8 62 L 10 62 L 10 60 L 8 60 z M 11 60 L 11 62 L 13 62 L 13 60 L 11 60 z M 14 60 L 14 62 L 16 62 L 16 60 L 14 60 z M 17 60 L 17 62 L 19 62 L 19 60 L 17 60 z M 20 60 L 20 62 L 22 62 L 22 60 L 20 60 z M 23 60 L 23 62 L 25 62 L 25 60 L 23 60 z M 26 60 L 26 62 L 28 62 L 28 60 L 26 60 z M 29 60 L 29 62 L 31 62 L 31 60 L 29 60 z M 32 60 L 32 62 L 34 62 L 34 60 L 32 60 z M 35 60 L 35 62 L 37 62 L 37 60 L 35 60 z M 38 60 L 38 62 L 40 62 L 40 60 L 38 60 z M 41 60 L 41 62 L 43 62 L 43 60 L 41 60 z M 44 60 L 44 62 L 46 62 L 46 60 L 44 60 z M 47 60 L 47 62 L 49 62 L 49 60 L 47 60 z M 50 60 L 50 62 L 52 62 L 52 60 L 50 60 z M 53 60 L 53 62 L 55 62 L 55 60 L 53 60 z M 56 60 L 56 62 L 58 62 L 58 60 L 56 60 z M 59 60 L 59 62 L 61 62 L 61 60 L 59 60 z M 62 60 L 62 62 L 64 62 L 64 60 L 62 60 z M 65 60 L 65 62 L 67 62 L 67 60 L 65 60 z M 68 60 L 68 62 L 70 62 L 70 60 L 68 60 z M 71 60 L 71 62 L 73 62 L 73 60 L 71 60 z M 74 60 L 74 62 L 76 62 L 76 60 L 74 60 z M 77 60 L 77 62 L 79 62 L 79 60 L 77 60 z M 80 60 L 80 62 L 82 62 L 82 60 L 80 60 z M 83 60 L 83 62 L 85 62 L 85 60 L 83 60 z M 86 60 L 86 62 L 88 62 L 88 60 L 86 60 z M 89 60 L 89 62 L 91 62 L 91 60 L 89 60 z M 92 60 L 92 62 L 94 62 L 94 60 L 92 60 z M 2 63 L 2 65 L 4 65 L 4 63 L 2 63 z M 5 63 L 5 65 L 7 65 L 7 63 L 5 63 z M 8 63 L 8 65 L 10 65 L 10 63 L 8 63 z M 11 63 L 11 65 L 13 65 L 13 63 L 11 63 z M 14 63 L 14 65 L 16 65 L 16 63 L 14 63 z M 17 63 L 17 65 L 19 65 L 19 63 L 17 63 z M 20 63 L 20 65 L 22 65 L 22 63 L 20 63 z M 23 63 L 23 65 L 25 65 L 25 63 L 23 63 z M 26 63 L 26 65 L 28 65 L 28 63 L 26 63 z M 29 63 L 29 65 L 31 65 L 31 63 L 29 63 z M 32 63 L 32 65 L 34 65 L 34 63 L 32 63 z M 35 63 L 35 65 L 37 65 L 37 63 L 35 63 z M 38 63 L 38 65 L 40 65 L 40 63 L 38 63 z M 41 63 L 41 65 L 43 65 L 43 63 L 41 63 z M 44 63 L 44 65 L 46 65 L 46 63 L 44 63 z M 47 63 L 47 65 L 49 65 L 49 63 L 47 63 z M 50 63 L 50 65 L 52 65 L 52 63 L 50 63 z M 53 63 L 53 65 L 55 65 L 55 63 L 53 63 z M 56 63 L 56 65 L 58 65 L 58 63 L 56 63 z M 59 63 L 59 65 L 61 65 L 61 63 L 59 63 z M 62 63 L 62 65 L 64 65 L 64 63 L 62 63 z M 65 63 L 65 65 L 67 65 L 67 63 L 65 63 z M 68 63 L 68 65 L 70 65 L 70 63 L 68 63 z M 71 63 L 71 65 L 73 65 L 73 63 L 71 63 z M 74 63 L 74 65 L 76 65 L 76 63 L 74 63 z M 77 63 L 77 65 L 79 65 L 79 63 L 77 63 z M 80 63 L 80 65 L 82 65 L 82 63 L 80 63 z M 83 63 L 83 65 L 85 65 L 85 63 L 83 63 z M 86 63 L 86 65 L 88 65 L 88 63 L 86 63 z M 89 63 L 89 65 L 91 65 L 91 63 L 89 63 z M 92 63 L 92 65 L 94 65 L 94 63 L 92 63 z M 2 66 L 2 68 L 4 68 L 4 66 L 2 66 z M 5 66 L 5 68 L 7 68 L 7 66 L 5 66 z M 8 66 L 8 68 L 10 68 L 10 66 L 8 66 z M 11 66 L 11 68 L 13 68 L 13 66 L 11 66 z M 14 66 L 14 68 L 16 68 L 16 66 L 14 66 z M 17 66 L 17 68 L 19 68 L 19 66 L 17 66 z M 20 66 L 20 68 L 22 68 L 22 66 L 20 66 z M 23 66 L 23 68 L 25 68 L 25 66 L 23 66 z M 26 66 L 26 68 L 28 68 L 28 66 L 26 66 z M 29 66 L 29 68 L 31 68 L 31 66 L 29 66 z M 32 66 L 32 68 L 34 68 L 34 66 L 32 66 z M 35 66 L 35 68 L 37 68 L 37 66 L 35 66 z M 38 66 L 38 68 L 40 68 L 40 66 L 38 66 z M 41 66 L 41 68 L 43 68 L 43 66 L 41 66 z M 44 66 L 44 68 L 46 68 L 46 66 L 44 66 z M 47 66 L 47 68 L 49 68 L 49 66 L 47 66 z M 50 66 L 50 68 L 52 68 L 52 66 L 50 66 z M 53 66 L 53 68 L 55 68 L 55 66 L 53 66 z M 56 66 L 56 68 L 58 68 L 58 66 L 56 66 z M 59 66 L 59 68 L 61 68 L 61 66 L 59 66 z M 62 66 L 62 68 L 64 68 L 64 66 L 62 66 z M 65 66 L 65 68 L 67 68 L 67 66 L 65 66 z M 68 66 L 68 68 L 70 68 L 70 66 L 68 66 z M 71 66 L 71 68 L 73 68 L 73 66 L 71 66 z M 74 66 L 74 68 L 76 68 L 76 66 L 74 66 z M 77 66 L 77 68 L 79 68 L 79 66 L 77 66 z M 80 66 L 80 68 L 82 68 L 82 66 L 80 66 z M 83 66 L 83 68 L 85 68 L 85 66 L 83 66 z M 86 66 L 86 68 L 88 68 L 88 66 L 86 66 z M 89 66 L 89 68 L 91 68 L 91 66 L 89 66 z M 92 66 L 92 68 L 94 68 L 94 66 L 92 66 z M 2 69 L 2 71 L 4 71 L 4 69 L 2 69 z M 5 69 L 5 71 L 7 71 L 7 69 L 5 69 z M 8 69 L 8 71 L 10 71 L 10 69 L 8 69 z M 11 69 L 11 71 L 13 71 L 13 69 L 11 69 z M 14 69 L 14 71 L 16 71 L 16 69 L 14 69 z M 17 69 L 17 71 L 19 71 L 19 69 L 17 69 z M 20 69 L 20 71 L 22 71 L 22 69 L 20 69 z M 23 69 L 23 71 L 25 71 L 25 69 L 23 69 z M 26 69 L 26 71 L 28 71 L 28 69 L 26 69 z M 29 69 L 29 71 L 31 71 L 31 69 L 29 69 z M 32 69 L 32 71 L 34 71 L 34 69 L 32 69 z M 35 69 L 35 71 L 37 71 L 37 69 L 35 69 z M 38 69 L 38 71 L 40 71 L 40 69 L 38 69 z M 41 69 L 41 71 L 43 71 L 43 69 L 41 69 z M 44 69 L 44 71 L 46 71 L 46 69 L 44 69 z M 47 69 L 47 71 L 49 71 L 49 69 L 47 69 z M 50 69 L 50 71 L 52 71 L 52 69 L 50 69 z M 53 69 L 53 71 L 55 71 L 55 69 L 53 69 z M 56 69 L 56 71 L 58 71 L 58 69 L 56 69 z M 59 69 L 59 71 L 61 71 L 61 69 L 59 69 z M 62 69 L 62 71 L 64 71 L 64 69 L 62 69 z M 65 69 L 65 71 L 67 71 L 67 69 L 65 69 z M 68 69 L 68 71 L 70 71 L 70 69 L 68 69 z M 71 69 L 71 71 L 73 71 L 73 69 L 71 69 z M 74 69 L 74 71 L 76 71 L 76 69 L 74 69 z M 77 69 L 77 71 L 79 71 L 79 69 L 77 69 z M 80 69 L 80 71 L 82 71 L 82 69 L 80 69 z M 83 69 L 83 71 L 85 71 L 85 69 L 83 69 z M 86 69 L 86 71 L 88 71 L 88 69 L 86 69 z M 89 69 L 89 71 L 91 71 L 91 69 L 89 69 z M 92 69 L 92 71 L 94 71 L 94 69 L 92 69 z M 2 72 L 2 74 L 4 74 L 4 72 L 2 72 z M 5 72 L 5 74 L 7 74 L 7 72 L 5 72 z M 8 72 L 8 74 L 10 74 L 10 72 L 8 72 z M 11 72 L 11 74 L 13 74 L 13 72 L 11 72 z M 14 72 L 14 74 L 16 74 L 16 72 L 14 72 z M 17 72 L 17 74 L 19 74 L 19 72 L 17 72 z M 20 72 L 20 74 L 22 74 L 22 72 L 20 72 z M 23 72 L 23 74 L 25 74 L 25 72 L 23 72 z M 26 72 L 26 74 L 28 74 L 28 72 L 26 72 z M 29 72 L 29 74 L 31 74 L 31 72 L 29 72 z M 32 72 L 32 74 L 34 74 L 34 72 L 32 72 z M 35 72 L 35 74 L 37 74 L 37 72 L 35 72 z M 38 72 L 38 74 L 40 74 L 40 72 L 38 72 z M 41 72 L 41 74 L 43 74 L 43 72 L 41 72 z M 44 72 L 44 74 L 46 74 L 46 72 L 44 72 z M 47 72 L 47 74 L 49 74 L 49 72 L 47 72 z M 50 72 L 50 74 L 52 74 L 52 72 L 50 72 z M 53 72 L 53 74 L 55 74 L 55 72 L 53 72 z M 56 72 L 56 74 L 58 74 L 58 72 L 56 72 z M 59 72 L 59 74 L 61 74 L 61 72 L 59 72 z M 62 72 L 62 74 L 64 74 L 64 72 L 62 72 z M 65 72 L 65 74 L 67 74 L 67 72 L 65 72 z M 68 72 L 68 74 L 70 74 L 70 72 L 68 72 z M 71 72 L 71 74 L 73 74 L 73 72 L 71 72 z M 74 72 L 74 74 L 76 74 L 76 72 L 74 72 z M 77 72 L 77 74 L 79 74 L 79 72 L 77 72 z M 80 72 L 80 74 L 82 74 L 82 72 L 80 72 z M 83 72 L 83 74 L 85 74 L 85 72 L 83 72 z M 86 72 L 86 74 L 88 74 L 88 72 L 86 72 z M 89 72 L 89 74 L 91 74 L 91 72 L 89 72 z M 92 72 L 92 74 L 94 74 L 94 72 L 92 72 z M 2 75 L 2 77 L 4 77 L 4 75 L 2 75 z M 5 75 L 5 77 L 7 77 L 7 75 L 5 75 z M 8 75 L 8 77 L 10 77 L 10 75 L 8 75 z M 11 75 L 11 77 L 13 77 L 13 75 L 11 75 z M 14 75 L 14 77 L 16 77 L 16 75 L 14 75 z M 17 75 L 17 77 L 19 77 L 19 75 L 17 75 z M 20 75 L 20 77 L 22 77 L 22 75 L 20 75 z M 23 75 L 23 77 L 25 77 L 25 75 L 23 75 z M 26 75 L 26 77 L 28 77 L 28 75 L 26 75 z M 29 75 L 29 77 L 31 77 L 31 75 L 29 75 z M 32 75 L 32 77 L 34 77 L 34 75 L 32 75 z M 35 75 L 35 77 L 37 77 L 37 75 L 35 75 z M 38 75 L 38 77 L 40 77 L 40 75 L 38 75 z M 41 75 L 41 77 L 43 77 L 43 75 L 41 75 z M 44 75 L 44 77 L 46 77 L 46 75 L 44 75 z M 47 75 L 47 77 L 49 77 L 49 75 L 47 75 z M 50 75 L 50 77 L 52 77 L 52 75 L 50 75 z M 53 75 L 53 77 L 55 77 L 55 75 L 53 75 z M 56 75 L 56 77 L 58 77 L 58 75 L 56 75 z M 59 75 L 59 77 L 61 77 L 61 75 L 59 75 z M 62 75 L 62 77 L 64 77 L 64 75 L 62 75 z M 65 75 L 65 77 L 67 77 L 67 75 L 65 75 z M 68 75 L 68 77 L 70 77 L 70 75 L 68 75 z M 71 75 L 71 77 L 73 77 L 73 75 L 71 75 z M 74 75 L 74 77 L 76 77 L 76 75 L 74 75 z M 77 75 L 77 77 L 79 77 L 79 75 L 77 75 z M 80 75 L 80 77 L 82 77 L 82 75 L 80 75 z M 83 75 L 83 77 L 85 77 L 85 75 L 83 75 z M 86 75 L 86 77 L 88 77 L 88 75 L 86 75 z M 89 75 L 89 77 L 91 77 L 91 75 L 89 75 z M 92 75 L 92 77 L 94 77 L 94 75 L 92 75 z M 2 78 L 2 80 L 4 80 L 4 78 L 2 78 z M 5 78 L 5 80 L 7 80 L 7 78 L 5 78 z M 8 78 L 8 80 L 10 80 L 10 78 L 8 78 z M 11 78 L 11 80 L 13 80 L 13 78 L 11 78 z M 14 78 L 14 80 L 16 80 L 16 78 L 14 78 z M 17 78 L 17 80 L 19 80 L 19 78 L 17 78 z M 20 78 L 20 80 L 22 80 L 22 78 L 20 78 z M 23 78 L 23 80 L 25 80 L 25 78 L 23 78 z M 26 78 L 26 80 L 28 80 L 28 78 L 26 78 z M 29 78 L 29 80 L 31 80 L 31 78 L 29 78 z M 32 78 L 32 80 L 34 80 L 34 78 L 32 78 z M 35 78 L 35 80 L 37 80 L 37 78 L 35 78 z M 38 78 L 38 80 L 40 80 L 40 78 L 38 78 z M 41 78 L 41 80 L 43 80 L 43 78 L 41 78 z M 44 78 L 44 80 L 46 80 L 46 78 L 44 78 z M 47 78 L 47 80 L 49 80 L 49 78 L 47 78 z M 50 78 L 50 80 L 52 80 L 52 78 L 50 78 z M 53 78 L 53 80 L 55 80 L 55 78 L 53 78 z M 56 78 L 56 80 L 58 80 L 58 78 L 56 78 z M 59 78 L 59 80 L 61 80 L 61 78 L 59 78 z M 62 78 L 62 80 L 64 80 L 64 78 L 62 78 z M 65 78 L 65 80 L 67 80 L 67 78 L 65 78 z M 68 78 L 68 80 L 70 80 L 70 78 L 68 78 z M 71 78 L 71 80 L 73 80 L 73 78 L 71 78 z M 74 78 L 74 80 L 76 80 L 76 78 L 74 78 z M 77 78 L 77 80 L 79 80 L 79 78 L 77 78 z M 80 78 L 80 80 L 82 80 L 82 78 L 80 78 z M 83 78 L 83 80 L 85 80 L 85 78 L 83 78 z M 86 78 L 86 80 L 88 80 L 88 78 L 86 78 z M 89 78 L 89 80 L 91 80 L 91 78 L 89 78 z M 92 78 L 92 80 L 94 80 L 94 78 L 92 78 z M 2 81 L 2 83 L 4 83 L 4 81 L 2 81 z M 5 81 L 5 83 L 7 83 L 7 81 L 5 81 z M 8 81 L 8 83 L 10 83 L 10 81 L 8 81 z M 11 81 L 11 83 L 13 83 L 13 81 L 11 81 z M 14 81 L 14 83 L 16 83 L 16 81 L 14 81 z M 17 81 L 17 83 L 19 83 L 19 81 L 17 81 z M 20 81 L 20 83 L 22 83 L 22 81 L 20 81 z M 23 81 L 23 83 L 25 83 L 25 81 L 23 81 z M 26 81 L 26 83 L 28 83 L 28 81 L 26 81 z M 29 81 L 29 83 L 31 83 L 31 81 L 29 81 z M 32 81 L 32 83 L 34 83 L 34 81 L 32 81 z M 35 81 L 35 83 L 37 83 L 37 81 L 35 81 z M 38 81 L 38 83 L 40 83 L 40 81 L 38 81 z M 41 81 L 41 83 L 43 83 L 43 81 L 41 81 z M 44 81 L 44 83 L 46 83 L 46 81 L 44 81 z M 47 81 L 47 83 L 49 83 L 49 81 L 47 81 z M 50 81 L 50 83 L 52 83 L 52 81 L 50 81 z M 53 81 L 53 83 L 55 83 L 55 81 L 53 81 z M 56 81 L 56 83 L 58 83 L 58 81 L 56 81 z M 59 81 L 59 83 L 61 83 L 61 81 L 59 81 z M 62 81 L 62 83 L 64 83 L 64 81 L 62 81 z M 65 81 L 65 83 L 67 83 L 67 81 L 65 81 z M 68 81 L 68 83 L 70 83 L 70 81 L 68 81 z M 71 81 L 71 83 L 73 83 L 73 81 L 71 81 z M 74 81 L 74 83 L 76 83 L 76 81 L 74 81 z M 77 81 L 77 83 L 79 83 L 79 81 L 77 81 z M 80 81 L 80 83 L 82 83 L 82 81 L 80 81 z M 83 81 L 83 83 L 85 83 L 85 81 L 83 81 z M 86 81 L 86 83 L 88 83 L 88 81 L 86 81 z M 89 81 L 89 83 L 91 83 L 91 81 L 89 81 z M 92 81 L 92 83 L 94 83 L 94 81 L 92 81 z "
       transform="translate(0,956.36218)"
       id="rect3794" />
    <g
       transform="matrix(1.1071429,0,0,1.0595234,-5.6428605,-62.283009)"
       id="g3775"
       style="fill:#1c1c1c;fill-opacity:1">
      <path
         transform="translate(0,956.36218)"
         id="path3773"
         d="m 6,73.59375 9.90625,-12.21875 -3.5625,-5.09375 2.34375,-16 4.0625,-2.09375 2.1875,-3.8125 -5.1875,-3 0.40625,-5.75 L 13,24.1875 6.09375,12.21875 6,11.625 6,73.59375 z"
         style="fill:#1c1c1c;fill-opacity:1;stroke:none"
         inkscape:connector-curvature="0" />
      <path
         transform="translate(0,956.36218)"
         id="path3765"
         d="m 90,48.59375 0,-39.625 C 90,8.1449218 89.66257,7.4125702 89.125,6.875 88.58743,6.3374298 87.855078,6 87.03125,6 l -39.625,0 -1.4375,2.4375 -2,-1.5625 -3.3125,0.84375 -1.21875,3.25 -7.65625,1.40625 -1.375,5.75 -2.5,-1.40625 -0.25,-4.6875 -8.125,-4.78125 -6,3.875 1.25,4.75 1.375,0.84375 4.0625,-0.1875 1.21875,2.28125 -3.09375,3.625 2.75,2.09375 -1.84375,5.09375 5.09375,2.96875 6.40625,0.84375 2.75,3.53125 6.71875,4.25 -2.09375,4.8125 5.40625,3.25 -2.34375,5.6875 3.9375,2.25 5.78125,12.40625 -4.75,1.84375 L 41.625,77.6875 6.65625,88.625 c 0.103703,0.151342 0.08948,0.37073 0.21875,0.5 C 7.4125702,89.66257 8.1449218,90 8.96875,90 l 78.0625,0 c 0.823828,0 1.55618,-0.33743 2.09375,-0.875 0.232339,-0.232339 0.229751,-0.607111 0.375,-0.90625 L 88.625,83.6875 90,83.59375 90,80.125 l -1.5625,-3.09375 -9.875,-6.3125 -2.90625,-8.75 6.21875,-11.75 8.125,-1.625 z m -56.1875,-31.375 0.65625,5.90625 -2,-3.34375 1.34375,-2.5625 z m -7.125,1.15625 4.78125,4.90625 -2.125,1.9375 -4.875,-4.59375 2.21875,-2.25 z m 6.65625,7.5 7.6875,10.5 -2.125,-0.25 -7.28125,-8.75 1.71875,-1.5 z"
         style="fill:#1c1c1c;fill-opacity:1;stroke:none"
         inkscape:connector-curvature="0" />
    </g>
    <path
       style="fill:#000000;fill-opacity:0.38356168;fill-rule:nonzero;stroke:none"
       d="m 1,1042.3622 0.045976,2.7457 c 0.03024,1.8058 1.461916,3.2543 3.2852054,3.2543 l 86.3836136,0 c 1.823288,0 3.285205,-1.4481 3.285205,-3.2543 l -0.04598,-2.7457 z"
       id="rect3781"
       inkscape:connector-curvature="0"
       sodipodi:nodetypes="csssscc" />
    <rect
       style="fill:#ffffff;fill-opacity:0.30000001;fill-rule:nonzero;stroke:none"
       id="rect3770"
       width="92.954033"
       height="2.000005"
       x="1.045976"
       y="1040.3622" />
  </g>
</svg>
