<?xml version="1.0" encoding="UTF-8" standalone="no"?>
<!-- Created with Inkscape (http://www.inkscape.org/) -->

<svg
   xmlns:dc="http://purl.org/dc/elements/1.1/"
   xmlns:cc="http://creativecommons.org/ns#"
   xmlns:rdf="http://www.w3.org/1999/02/22-rdf-syntax-ns#"
   xmlns:svg="http://www.w3.org/2000/svg"
   xmlns="http://www.w3.org/2000/svg"
   xmlns:xlink="http://www.w3.org/1999/xlink"
   xmlns:sodipodi="http://sodipodi.sourceforge.net/DTD/sodipodi-0.dtd"
   xmlns:inkscape="http://www.inkscape.org/namespaces/inkscape"
   width="96"
   height="96"
   id="svg2"
   version="1.1"
   inkscape:version="0.48.4 r9939"
   sodipodi:docname="preferences-desktop-icons.svg">
  <defs
     id="defs4">
    <linearGradient
       id="linearGradient3766">
      <stop
         style="stop-color:#5d0085;stop-opacity:1"
         offset="0"
         id="stop3768" />
      <stop
         style="stop-color:#004fad;stop-opacity:1;"
         offset="1"
         id="stop3770" />
    </linearGradient>
    <radialGradient
       inkscape:collect="always"
       xlink:href="#linearGradient3766"
       id="radialGradient3778"
       cx="15.035707"
       cy="1038.9576"
       fx="15.035707"
       fy="1038.9576"
       r="46.5"
       gradientTransform="matrix(2.0430108,3.1888422e-7,-2.1818382e-7,1.3978487,-20.717886,-414.94343)"
       gradientUnits="userSpaceOnUse" />
  </defs>
  <sodipodi:namedview
     id="base"
     pagecolor="#ffffff"
     bordercolor="#666666"
     borderopacity="1.0"
     inkscape:pageopacity="0.0"
     inkscape:pageshadow="2"
     inkscape:zoom="5.90625"
     inkscape:cx="48"
     inkscape:cy="48"
     inkscape:document-units="px"
     inkscape:current-layer="layer1"
     showgrid="true"
     inkscape:snap-page="true"
     inkscape:snap-global="true"
     inkscape:snap-center="true"
     inkscape:snap-object-midpoints="false"
     showguides="true"
     inkscape:guide-bbox="true"
     inkscape:snap-bbox="true"
     inkscape:object-paths="true"
     inkscape:object-nodes="true"
     inkscape:window-width="1305"
     inkscape:window-height="744"
     inkscape:window-x="61"
     inkscape:window-y="24"
     inkscape:window-maximized="1"
     inkscape:snap-midpoints="true"
     inkscape:snap-grids="true"
     inkscape:snap-to-guides="false">
    <inkscape:grid
       type="xygrid"
       id="grid3002"
       empspacing="5"
       visible="true"
       enabled="true"
       snapvisiblegridlinesonly="true" />
  </sodipodi:namedview>
  <metadata
     id="metadata7">
    <rdf:RDF>
      <cc:Work
         rdf:about="">
        <dc:format>image/svg+xml</dc:format>
        <dc:type
           rdf:resource="http://purl.org/dc/dcmitype/StillImage" />
        <dc:title />
      </cc:Work>
    </rdf:RDF>
  </metadata>
  <g
     inkscape:label="Layer 1"
     inkscape:groupmode="layer"
     id="layer1"
     transform="translate(0,-956.36218)">
    <rect
       style="fill:#ffffff;fill-opacity:0;fill-rule:nonzero;stroke:none"
       id="rect3775"
       width="96"
       height="96"
       x="0"
       y="956.36218"
       ry="0" />
    <path
       style="fill:#000000;fill-opacity:0.09589041;fill-rule:nonzero;stroke:none"
       d="m 3.353015,956.30662 c -1.884176,0 -3.4111555,1.43156 -3.4111555,3.19799 l 0,83.65949 c 0,1.7665 1.5269795,3.1981 3.4111555,3.1981 l 89.23583,0 c 1.884174,0 3.411155,-1.4316 3.411155,-3.1981 l 0,-83.65949 c 0,-1.76643 -1.526981,-3.19799 -3.411155,-3.19799 z"
       id="rect3772"
       inkscape:connector-curvature="0"
       sodipodi:nodetypes="sssssssss" />
    <path
       style="fill:#000000;fill-opacity:0.18721463;fill-rule:nonzero;stroke:none"
       d="m 1.0459761,1041.8066 0,7.4219 c 0,1.7392 1.461916,3.1337 3.2852054,3.1337 l 86.3836135,0 c 1.823288,0 3.285205,-1.3945 3.285205,-3.1337 l 0,-7.4219 -92.9540239,0 z"
       id="rect3785"
       inkscape:connector-curvature="0" />
    <path
       style="fill:#000000;fill-opacity:0.38356168;fill-rule:nonzero;stroke:none"
       d="m 1.0459761,1041.8066 0,5.3807 c 0,1.762 1.461916,3.1749 3.2852054,3.1749 l 86.3836135,0 c 1.823288,0 3.285205,-1.4129 3.285205,-3.1749 l 0,-5.3807 -92.9540239,0 z"
       id="rect3783"
       inkscape:connector-curvature="0" />
    <rect
       style="fill:url(#radialGradient3778);fill-opacity:1;fill-rule:nonzero;stroke:none"
       id="rect2985-9"
       width="93"
       height="88.999977"
       x="0.99999893"
       y="957.36224"
       ry="3.1511385" />
    <path
       id="path3821"
       d="m 4.2868294,957.36223 c -1.8241907,0 -3.2868305,1.39973 -3.2868305,3.14546 l 0,82.70901 c 0,1.7458 1.4626398,3.1455 3.2868305,3.1455 l 5.0513395,0 72.1026811,-88.99997 z"
       style="fill:#ffffff;fill-opacity:0.17351601;fill-rule:nonzero;stroke:none"
       inkscape:connector-curvature="0"
       sodipodi:nodetypes="ssssccs" />
    <path
       style="fill:#ffffff;fill-opacity:0.17351601;fill-rule:nonzero;stroke:none"
       d="m 4.2868294,957.36223 c -1.8241907,0 -3.2868305,1.39973 -3.2868305,3.14546 l 0,82.70901 c 0,1.7458 1.4626398,3.1455 3.2868305,3.1455 l 2.8370537,0 41.1026799,-88.99997 z"
       id="rect3050"
       inkscape:connector-curvature="0"
       sodipodi:nodetypes="ssssccs" />
    <path
       style="fill:#000000;fill-opacity:0.38356168;fill-rule:nonzero;stroke:none"
       d="m 1,1042.3622 0.045976,2.7457 c 0.03024,1.8058 1.461916,3.2543 3.2852054,3.2543 l 86.3836136,0 c 1.823288,0 3.285205,-1.4481 3.285205,-3.2543 l -0.04598,-2.7457 z"
       id="rect3781"
       inkscape:connector-curvature="0"
       sodipodi:nodetypes="csssscc" />
    <rect
       style="fill:#ffffff;fill-opacity:0.30000001;fill-rule:nonzero;stroke:none"
       id="rect3770"
       width="92.954033"
       height="2.000005"
       x="1.045976"
       y="1040.3622" />
    <path
       style="fill:#000000;fill-opacity:0.46118721;fill-rule:evenodd;stroke:none"
       d="M 94 11 L 94 4.15625 C 94 3.2833846 93.663318 2.4758183 93.09375 1.90625 C 92.524182 1.3366817 91.716615 1 90.84375 1 L 4.15625 1 C 3.2833846 1 2.4758183 1.3366817 1.90625 1.90625 C 1.3366817 2.4758183 1 3.2833846 1 4.15625 L 1 11 L 94 11 z "
       id="path3776"
       transform="translate(0,956.36218)" />
    <rect
       style="fill:#ffffff;fill-opacity:0.46118721;fill-rule:evenodd;stroke:none"
       id="rect3780"
       width="6"
       height="1"
       x="84"
       y="959.36218"
       ry="0.5" />
    <rect
       ry="0.5"
       y="961.36218"
       x="84"
       height="1"
       width="6"
       id="rect3782"
       style="fill:#ffffff;fill-opacity:0.46118721;fill-rule:evenodd;stroke:none" />
    <rect
       style="fill:#ffffff;fill-opacity:0.46118721;fill-rule:evenodd;stroke:none"
       id="rect3784"
       width="6"
       height="1"
       x="84"
       y="963.36218"
       ry="0.5" />
    <rect
       ry="0.5"
       y="965.36218"
       x="84"
       height="1"
       width="6"
       id="rect3786"
       style="fill:#ffffff;fill-opacity:0.46118721;fill-rule:evenodd;stroke:none" />
    <path
       style="fill:#ffffff;fill-opacity:0.4627451;stroke:none"
       d="m 78.533809,959.36218 -0.519575,0.40348 c 0.807497,0.83141 1.302492,1.90404 1.302492,3.09332 0,1.18749 -0.486544,2.27143 -1.288256,3.09973 l 0.519573,0.40347 C 79.455177,965.42499 80,964.19659 80,962.85898 c 0,-1.34201 -0.557355,-2.56105 -1.466191,-3.4968 z m -4.106763,0.51876 c -0.620098,0 -1.150916,0.71268 -1.395018,1.73558 l -0.647687,0 c -0.211998,0 -0.384341,0.55882 -0.384341,1.24886 0,0.69 0.172343,1.24886 0.384341,1.24886 l 0.647687,0 c 0.244102,1.0229 0.77492,1.73559 1.395018,1.73559 0.850526,0 1.544485,-1.33738 1.544485,-2.98445 0,-1.64708 -0.693959,-2.98444 -1.544485,-2.98444 z m 3.096087,0.27539 -0.512457,0.40347 c 0.597313,0.61824 0.960855,1.41772 0.960855,2.29918 0,0.88264 -0.363912,1.68855 -0.960855,2.30558 l 0.512457,0.40348 c 0.700975,-0.72457 1.131673,-1.67332 1.131673,-2.70906 0,-1.03516 -0.433279,-1.97979 -1.131673,-2.70265 z m -3.096087,0.49313 c 0.502486,0 0.911033,0.99513 0.911033,2.21592 0,1.22075 -0.408547,2.20952 -0.911033,2.20952 -0.502484,0 -0.903914,-0.98877 -0.903914,-2.20952 0,-1.22081 0.40143,-2.21592 0.903914,-2.21592 z m 2.078292,0.29461 -0.512454,0.40347 c 0.396151,0.4088 0.640568,0.93324 0.640568,1.51144 0,0.57777 -0.237711,1.11423 -0.626334,1.51784 l 0.512455,0.40348 c 0.494127,-0.51319 0.797154,-1.19089 0.797154,-1.92132 0,-0.73598 -0.317591,-1.40535 -0.811389,-1.91491 z m -2.448398,0.97346 c -0.271182,0 -0.498221,0.42466 -0.498221,0.94785 0,0.52316 0.22704,0.94145 0.498221,0.94145 0.271182,0 0.483984,-0.41827 0.483984,-0.94145 0,-0.52319 -0.212802,-0.94785 -0.483984,-0.94785 z"
       id="rect2998"
       inkscape:connector-curvature="0" />
    <path
       style="fill:#fff3f3;fill-opacity:0.4627451;fill-rule:evenodd;stroke:none"
       d="m 6.723502,959.36218 c -0.425492,0.0925 -0.821998,0.25543 -1.176058,0.48577 l 0.247591,0.75979 -0.569459,0.57294 -0.742774,-0.26156 C 4.253874,961.27535 4.09193,961.67429 4,962.1024 l 0.705635,0.37365 0,0.79716 L 4,963.62196 c 0.09193,0.4281 0.253874,0.82705 0.482802,1.18328 l 0.755153,-0.24911 0.56946,0.57295 -0.259971,0.74733 c 0.35406,0.23033 0.750565,0.39328 1.176058,0.48577 l 0.371386,-0.70997 0.792291,0 0.346627,0.70997 c 0.425493,-0.0925 0.821998,-0.25544 1.176058,-0.48577 l -0.247591,-0.75979 0.569459,-0.57295 0.742774,0.26157 c 0.228928,-0.35623 0.390872,-0.75518 0.482802,-1.18328 l -0.705635,-0.37366 0,-0.79716 0.705635,-0.34874 c -0.09193,-0.42811 -0.253874,-0.82705 -0.482802,-1.18328 l -0.755153,0.24911 -0.56946,-0.57296 0.259971,-0.74732 c -0.354058,-0.23034 -0.750563,-0.39328 -1.176057,-0.48577 l -0.371387,0.70996 -0.79229,0 -0.346628,-0.70996 z m 0.755152,1.9057 c 0.875141,0 1.584583,0.71379 1.584583,1.5943 0,0.8805 -0.709442,1.5943 -1.584583,1.5943 -0.875141,0 -1.584583,-0.7138 -1.584583,-1.5943 0,-0.88051 0.709442,-1.5943 1.584583,-1.5943 z"
       id="path3802"
       inkscape:connector-curvature="0" />
    <rect
       style="fill:#000000;fill-opacity:0.66666669;fill-rule:evenodd;stroke:none"
       id="rect3829"
       width="93"
       height="2"
       x="1"
       y="11"
       transform="translate(0,956.36218)" />
    <rect
       y="967.36218"
       x="1"
       height="1"
       width="93"
       id="rect3831"
       style="fill:#000000;fill-opacity:0.66666667;fill-rule:evenodd;stroke:none" />
    <rect
       style="fill:#00fff9;fill-opacity:0.23744293;fill-rule:evenodd;stroke:none"
       id="rect3835"
       width="30"
       height="24.999996"
       x="5"
       y="972.36218"
       ry="4.9999976" />
    <rect
       style="fill:#00ff05;fill-opacity:0.456621;fill-rule:evenodd;stroke:none"
       id="rect3839"
       width="20"
       height="15.000003"
       x="10"
       y="1002.3622"
       ry="2.9999995" />
    <rect
       ry="2.9999993"
       y="977.36218"
       x="10"
       height="15.000001"
       width="20"
       id="rect3789"
       style="fill:#00fff9;fill-opacity:1;fill-rule:evenodd;stroke:none" />
    <rect
       ry="2.9999995"
       y="1022.3622"
       x="10"
       height="15.000003"
       width="20"
       id="rect3791"
       style="fill:#ff00f4;fill-opacity:0.45662099;fill-rule:evenodd;stroke:none" />
  </g>
</svg>
