<?xml version="1.0" encoding="UTF-8" standalone="no"?>
<!-- Created with Inkscape (http://www.inkscape.org/) -->

<svg
   xmlns:dc="http://purl.org/dc/elements/1.1/"
   xmlns:cc="http://creativecommons.org/ns#"
   xmlns:rdf="http://www.w3.org/1999/02/22-rdf-syntax-ns#"
   xmlns:svg="http://www.w3.org/2000/svg"
   xmlns="http://www.w3.org/2000/svg"
   xmlns:xlink="http://www.w3.org/1999/xlink"
   xmlns:sodipodi="http://sodipodi.sourceforge.net/DTD/sodipodi-0.dtd"
   xmlns:inkscape="http://www.inkscape.org/namespaces/inkscape"
   width="96"
   height="96"
   id="svg2"
   version="1.1"
   inkscape:version="0.48.4 r9939"
   sodipodi:docname="illustrator.svg">
  <defs
     id="defs4">
    <linearGradient
       id="linearGradient3771">
      <stop
         style="stop-color:#f96302;stop-opacity:1;"
         offset="0"
         id="stop3773" />
      <stop
         style="stop-color:#dca602;stop-opacity:0.98461539;"
         offset="1"
         id="stop3775" />
    </linearGradient>
    <linearGradient
       inkscape:collect="always"
       xlink:href="#linearGradient3771"
       id="linearGradient3777"
       x1="45"
       y1="1047.3622"
       x2="45"
       y2="957.36218"
       gradientUnits="userSpaceOnUse" />
  </defs>
  <sodipodi:namedview
     id="base"
     pagecolor="#ffffff"
     bordercolor="#666666"
     borderopacity="1.0"
     inkscape:pageopacity="0.0"
     inkscape:pageshadow="2"
     inkscape:zoom="4.6264763"
     inkscape:cx="23.79628"
     inkscape:cy="51.803805"
     inkscape:document-units="px"
     inkscape:current-layer="layer1"
     showgrid="true"
     inkscape:snap-page="true"
     inkscape:snap-global="true"
     inkscape:snap-center="true"
     inkscape:snap-object-midpoints="false"
     showguides="true"
     inkscape:guide-bbox="true"
     inkscape:snap-bbox="true"
     inkscape:object-paths="true"
     inkscape:object-nodes="true"
     inkscape:window-width="1305"
     inkscape:window-height="744"
     inkscape:window-x="61"
     inkscape:window-y="24"
     inkscape:window-maximized="1"
     inkscape:snap-midpoints="true"
     inkscape:snap-grids="false"
     inkscape:snap-to-guides="false">
    <inkscape:grid
       type="xygrid"
       id="grid3002"
       empspacing="5"
       visible="true"
       enabled="true"
       snapvisiblegridlinesonly="true" />
  </sodipodi:namedview>
  <metadata
     id="metadata7">
    <rdf:RDF>
      <cc:Work
         rdf:about="">
        <dc:format>image/svg+xml</dc:format>
        <dc:type
           rdf:resource="http://purl.org/dc/dcmitype/StillImage" />
        <dc:title />
      </cc:Work>
    </rdf:RDF>
  </metadata>
  <g
     inkscape:label="Layer 1"
     inkscape:groupmode="layer"
     id="layer1"
     transform="translate(0,-956.36218)">
    <rect
       style="fill:#ffffff;fill-opacity:0;fill-rule:nonzero;stroke:none"
       id="rect3775"
       width="96"
       height="96"
       x="0"
       y="956.36218"
       ry="0" />
    <path
       style="fill:#000000;fill-opacity:0.09589041;fill-rule:nonzero;stroke:none"
       d="m 3.353015,956.30662 c -1.884176,0 -3.4111555,1.43156 -3.4111555,3.19799 l 0,83.65949 c 0,1.7665 1.5269795,3.1981 3.4111555,3.1981 l 89.23583,0 c 1.884174,0 3.411155,-1.4316 3.411155,-3.1981 l 0,-83.65949 c 0,-1.76643 -1.526981,-3.19799 -3.411155,-3.19799 z"
       id="rect3772"
       inkscape:connector-curvature="0"
       sodipodi:nodetypes="sssssssss" />
    <path
       style="fill:#000000;fill-opacity:0.18721463;fill-rule:nonzero;stroke:none"
       d="m 1.0459761,1041.8066 0,7.4219 c 0,1.7392 1.461916,3.1337 3.2852054,3.1337 l 86.3836135,0 c 1.823288,0 3.285205,-1.3945 3.285205,-3.1337 l 0,-7.4219 -92.9540239,0 z"
       id="rect3785"
       inkscape:connector-curvature="0" />
    <path
       style="fill:#000000;fill-opacity:0.38356168;fill-rule:nonzero;stroke:none"
       d="m 1.0459761,1041.8066 0,5.3807 c 0,1.762 1.461916,3.1749 3.2852054,3.1749 l 86.3836135,0 c 1.823288,0 3.285205,-1.4129 3.285205,-3.1749 l 0,-5.3807 -92.9540239,0 z"
       id="rect3783"
       inkscape:connector-curvature="0" />
    <rect
       style="fill:url(#linearGradient3777);fill-opacity:1;fill-rule:nonzero;stroke:none"
       id="rect2985"
       width="92.954025"
       height="89"
       x="1.045977"
       y="957.36218"
       ry="3.1511393" />
    <path
       style="fill:#000000;fill-opacity:0.38356168;fill-rule:nonzero;stroke:none"
       d="m 1,1042.3622 0.045976,2.7457 c 0.03024,1.8058 1.461916,3.2543 3.2852054,3.2543 l 86.3836136,0 c 1.823288,0 3.285205,-1.4481 3.285205,-3.2543 l -0.04598,-2.7457 z"
       id="rect3781"
       inkscape:connector-curvature="0"
       sodipodi:nodetypes="csssscc" />
    <rect
       style="fill:#ffffff;fill-opacity:0.17351598;fill-rule:nonzero;stroke:none"
       id="rect3770"
       width="92.954033"
       height="2.000005"
       x="1.045976"
       y="1040.3622" />
    <rect
       style="fill:#ffffff;fill-opacity:0.21461187;fill-rule:nonzero;stroke:none"
       id="rect3790"
       width="40.028519"
       height="6.6666698"
       x="53.971485"
       y="977.36218" />
    <rect
       y="-1017.3622"
       x="53.971485"
       height="29.333307"
       width="40.028519"
       id="rect3792"
       style="fill:#ffffff;fill-opacity:0.21461187;fill-rule:nonzero;stroke:none"
       transform="scale(1,-1)" />
    <path
       style="fill:#ffffff;fill-opacity:0.21461187;fill-rule:nonzero;stroke:none"
       d="m 1.03125,21 0,40 50.78125,0 -18.217397,-40 z"
       transform="translate(0,956.36218)"
       id="rect3794"
       inkscape:connector-curvature="0"
       sodipodi:nodetypes="ccccc" />
    <path
       style="font-size:11px;font-style:normal;font-variant:normal;font-weight:normal;font-stretch:normal;text-align:end;line-height:125%;letter-spacing:0px;word-spacing:0px;text-anchor:end;fill:#000000;fill-opacity:0.21461188;stroke:none;font-family:Andale Mono;-inkscape-font-specification:Andale Mono"
       d="m 33.595103,981.36218 -11.45418,40.00002 6.751938,0 2.411406,-8.8889 11.333609,0 2.290836,8.8889 6.872509,0 -11.33361,-40.00002 -6.872507,0 z m 20.376382,0 0,6.66667 6.028515,0 0,-6.66667 -6.028515,0 z m -17.000414,9.84127 3.85825,14.76165 -7.83707,0 3.97882,-14.76165 z m 17.000414,1.26984 0,28.88891 6.028515,0 0,-28.88891 -6.028515,0 z"
       id="path3786"
       inkscape:connector-curvature="0" />
    <path
       inkscape:connector-curvature="0"
       id="path3788"
       d="m 33.595103,983.36218 -11.45418,40.00002 6.751938,0 2.411406,-8.8889 11.333609,0 2.290836,8.8889 6.872509,0 -11.33361,-40.00002 -6.872507,0 z m 20.376382,0 0,6.66667 6.028515,0 0,-6.66667 -6.028515,0 z m -17.000414,9.84127 3.85825,14.76165 -7.83707,0 3.97882,-14.76165 z m 17.000414,1.26984 0,28.88891 6.028515,0 0,-28.88891 -6.028515,0 z"
       style="font-size:11px;font-style:normal;font-variant:normal;font-weight:normal;font-stretch:normal;text-align:end;line-height:125%;letter-spacing:0px;word-spacing:0px;text-anchor:end;fill:#000000;fill-opacity:0.21461188;stroke:none;font-family:Andale Mono;-inkscape-font-specification:Andale Mono" />
    <path
       inkscape:connector-curvature="0"
       id="path3784"
       d="m 33.595103,979.36218 -11.45418,40.00002 6.751938,0 2.411406,-8.8889 11.333609,0 2.290836,8.8889 6.872509,0 -11.33361,-40.00002 -6.872507,0 z m 20.376382,0 0,6.66667 6.028515,0 0,-6.66667 -6.028515,0 z m -17.000414,9.84127 3.85825,14.76165 -7.83707,0 3.97882,-14.76165 z m 17.000414,1.26984 0,28.88891 6.028515,0 0,-28.88891 -6.028515,0 z"
       style="font-size:11px;font-style:normal;font-variant:normal;font-weight:normal;font-stretch:normal;text-align:end;line-height:125%;letter-spacing:0px;word-spacing:0px;text-anchor:end;fill:#000000;fill-opacity:0.21461188;stroke:none;font-family:Andale Mono;-inkscape-font-specification:Andale Mono" />
    <path
       style="font-size:11px;font-style:normal;font-variant:normal;font-weight:normal;font-stretch:normal;text-align:end;line-height:125%;letter-spacing:0px;word-spacing:0px;text-anchor:end;fill:#ffffff;fill-opacity:1;stroke:none;font-family:Andale Mono;-inkscape-font-specification:Andale Mono"
       d="m 33.595103,977.36218 -11.45418,40.00002 6.751938,0 2.411406,-8.8889 11.333609,0 2.290836,8.8889 6.872509,0 -11.33361,-40.00002 -6.872507,0 z m 20.376382,0 0,6.66667 6.028515,0 0,-6.66667 -6.028515,0 z m -17.000414,9.84127 3.85825,14.76165 -7.83707,0 3.97882,-14.76165 z m 17.000414,1.26984 0,28.88891 6.028515,0 0,-28.88891 -6.028515,0 z"
       id="text3779"
       inkscape:connector-curvature="0" />
  </g>
</svg>
