<?xml version="1.0" encoding="UTF-8" standalone="no"?>
<!-- Created with Inkscape (http://www.inkscape.org/) -->

<svg
   xmlns:dc="http://purl.org/dc/elements/1.1/"
   xmlns:cc="http://creativecommons.org/ns#"
   xmlns:rdf="http://www.w3.org/1999/02/22-rdf-syntax-ns#"
   xmlns:svg="http://www.w3.org/2000/svg"
   xmlns="http://www.w3.org/2000/svg"
   xmlns:sodipodi="http://sodipodi.sourceforge.net/DTD/sodipodi-0.dtd"
   xmlns:inkscape="http://www.inkscape.org/namespaces/inkscape"
   width="96"
   height="96"
   id="svg2"
   version="1.1"
   inkscape:version="0.48.4 r9939"
   sodipodi:docname="im-msn.svg">
  <defs
     id="defs4" />
  <sodipodi:namedview
     id="base"
     pagecolor="#ffffff"
     bordercolor="#666666"
     borderopacity="1.0"
     inkscape:pageopacity="0.0"
     inkscape:pageshadow="2"
     inkscape:zoom="5.90625"
     inkscape:cx="48"
     inkscape:cy="48"
     inkscape:document-units="px"
     inkscape:current-layer="layer1"
     showgrid="true"
     inkscape:snap-page="true"
     inkscape:snap-global="true"
     inkscape:snap-center="true"
     inkscape:snap-object-midpoints="false"
     showguides="true"
     inkscape:guide-bbox="true"
     inkscape:snap-bbox="true"
     inkscape:object-paths="true"
     inkscape:object-nodes="true"
     inkscape:window-width="1303"
     inkscape:window-height="744"
     inkscape:window-x="65"
     inkscape:window-y="24"
     inkscape:window-maximized="1"
     inkscape:snap-midpoints="true"
     inkscape:snap-grids="true"
     inkscape:snap-to-guides="false">
    <inkscape:grid
       type="xygrid"
       id="grid3002"
       empspacing="5"
       visible="true"
       enabled="true"
       snapvisiblegridlinesonly="true" />
  </sodipodi:namedview>
  <metadata
     id="metadata7">
    <rdf:RDF>
      <cc:Work
         rdf:about="">
        <dc:format>image/svg+xml</dc:format>
        <dc:type
           rdf:resource="http://purl.org/dc/dcmitype/StillImage" />
        <dc:title />
      </cc:Work>
    </rdf:RDF>
  </metadata>
  <g
     inkscape:label="Layer 1"
     inkscape:groupmode="layer"
     id="layer1"
     transform="translate(0,-956.36218)">
    <rect
       style="fill:#ffffff;fill-opacity:0;fill-rule:nonzero;stroke:none"
       id="rect3775"
       width="96"
       height="96"
       x="0"
       y="956.36218"
       ry="0" />
    <path
       style="fill:#000000;fill-opacity:0.09589041;fill-rule:nonzero;stroke:none"
       d="m 3.353015,956.30662 c -1.884176,0 -3.4111555,1.43156 -3.4111555,3.19799 l 0,83.65949 c 0,1.7665 1.5269795,3.1981 3.4111555,3.1981 l 89.23583,0 c 1.884174,0 3.411155,-1.4316 3.411155,-3.1981 l 0,-83.65949 c 0,-1.76643 -1.526981,-3.19799 -3.411155,-3.19799 z"
       id="rect3772"
       inkscape:connector-curvature="0"
       sodipodi:nodetypes="sssssssss" />
    <path
       style="fill:#000000;fill-opacity:0.18721463;fill-rule:nonzero;stroke:none"
       d="m 1.0459761,1041.8066 0,7.4219 c 0,1.7392 1.461916,3.1337 3.2852054,3.1337 l 86.3836135,0 c 1.823288,0 3.285205,-1.3945 3.285205,-3.1337 l 0,-7.4219 -92.9540239,0 z"
       id="rect3785"
       inkscape:connector-curvature="0" />
    <path
       style="fill:#000000;fill-opacity:0.38356168;fill-rule:nonzero;stroke:none"
       d="m 1.0459761,1041.8066 0,5.3807 c 0,1.762 1.461916,3.1749 3.2852054,3.1749 l 86.3836135,0 c 1.823288,0 3.285205,-1.4129 3.285205,-3.1749 l 0,-5.3807 -92.9540239,0 z"
       id="rect3783"
       inkscape:connector-curvature="0" />
    <rect
       style="fill:#393939;fill-opacity:1;fill-rule:nonzero;stroke:none"
       id="rect2985"
       width="92.954025"
       height="89"
       x="1.045977"
       y="957.36218"
       ry="3.1511393" />
    <path
       style="fill:#b72d40;fill-opacity:1;fill-rule:nonzero;stroke:none"
       d="M 94 49.3125 L 94 4.15625 C 94 3.2833844 93.663318 2.4758184 93.09375 1.90625 C 92.524182 1.3366816 91.716616 1 90.84375 1 L 42.59375 1 C 36.007961 14.695057 29.957924 32.542667 25 56 C 56.98429 60.622993 79.153676 57.076955 94 49.3125 z "
       id="path3779"
       transform="translate(0,956.36218)" />
    <path
       style="fill:#ffe500;fill-opacity:0.5022831;fill-rule:nonzero;stroke:none"
       d="M 47.1875 90 L 90.84375 90 C 91.716616 90 92.524182 89.663318 93.09375 89.09375 C 93.663318 88.524182 94 87.716616 94 86.84375 L 94 46.03125 C 79.796521 42.746798 57.646518 44.630766 25 56 C 31.908851 71.435118 39.478401 82.372345 47.1875 90 z "
       id="path3002"
       transform="translate(0,956.36218)" />
    <path
       style="fill:#5f6bb4;fill-opacity:1;fill-rule:nonzero;stroke:none"
       d="M 7.40625 1 L 4.1875 1 C 3.3146344 1 2.5383184 1.3366816 1.96875 1.90625 C 1.3991816 2.4758184 1.03125 3.2833844 1.03125 4.15625 L 1.03125 57.90625 C 8.3965945 57.774941 16.22964 57.267663 25 56 C 20.042076 32.542671 13.992039 14.695054 7.40625 1 z "
       id="path3790"
       transform="translate(0,956.36218)" />
    <path
       style="fill:#64bb41;fill-opacity:0.5022831;fill-rule:nonzero;stroke:none"
       d="M 1.03125 48.9375 L 1.03125 86.84375 C 1.03125 87.716616 1.3991816 88.524182 1.96875 89.09375 C 2.2818093 89.406809 2.7646985 89.434648 3.1875 89.59375 C 10.763747 81.979518 18.205731 71.17913 25 56 C 16.214428 52.940404 8.3555698 50.713548 1.03125 48.9375 z "
       id="path3774"
       transform="translate(0,956.36218)" />
    <path
       sodipodi:type="arc"
       style="fill:#bd00ff;fill-opacity:0.37442926;fill-rule:nonzero;stroke:none"
       id="path3797"
       sodipodi:cx="25"
       sodipodi:cy="56"
       sodipodi:rx="5"
       sodipodi:ry="30"
       d="m 30,56 a 5,30 0 1 1 -10,0 5,30 0 1 1 10,0 z"
       transform="matrix(2.9942582,-0.19496425,0.08245364,1.3985223,-54.473859,930.95182)" />
    <path
       style="fill:#000000;fill-opacity:0.38356168;fill-rule:nonzero;stroke:none"
       d="m 1,1042.3622 0.045976,2.7457 c 0.03024,1.8058 1.461916,3.2543 3.2852054,3.2543 l 86.3836136,0 c 1.823288,0 3.285205,-1.4481 3.285205,-3.2543 l -0.04598,-2.7457 z"
       id="rect3781"
       inkscape:connector-curvature="0"
       sodipodi:nodetypes="csssscc" />
    <rect
       style="fill:#ffffff;fill-opacity:0.23529412;fill-rule:nonzero;stroke:none"
       id="rect3770"
       width="92.954033"
       height="2.000005"
       x="1.045976"
       y="1040.3622" />
  </g>
</svg>
