<?xml version="1.0" encoding="UTF-8" standalone="no"?>
<!-- Created with Inkscape (http://www.inkscape.org/) -->

<svg
   xmlns:dc="http://purl.org/dc/elements/1.1/"
   xmlns:cc="http://creativecommons.org/ns#"
   xmlns:rdf="http://www.w3.org/1999/02/22-rdf-syntax-ns#"
   xmlns:svg="http://www.w3.org/2000/svg"
   xmlns="http://www.w3.org/2000/svg"
   xmlns:sodipodi="http://sodipodi.sourceforge.net/DTD/sodipodi-0.dtd"
   xmlns:inkscape="http://www.inkscape.org/namespaces/inkscape"
   width="96"
   height="96"
   id="svg2"
   version="1.1"
   inkscape:version="0.48.4 r9939"
   sodipodi:docname="imageshack-uploader.svg">
  <defs
     id="defs4" />
  <sodipodi:namedview
     id="base"
     pagecolor="#ffffff"
     bordercolor="#666666"
     borderopacity="1.0"
     inkscape:pageopacity="0.0"
     inkscape:pageshadow="2"
     inkscape:zoom="5.90625"
     inkscape:cx="48"
     inkscape:cy="48"
     inkscape:document-units="px"
     inkscape:current-layer="layer1"
     showgrid="true"
     inkscape:snap-page="true"
     inkscape:snap-global="false"
     inkscape:snap-center="true"
     inkscape:snap-object-midpoints="false"
     showguides="true"
     inkscape:guide-bbox="true"
     inkscape:snap-bbox="true"
     inkscape:object-paths="true"
     inkscape:object-nodes="true"
     inkscape:window-width="1305"
     inkscape:window-height="744"
     inkscape:window-x="61"
     inkscape:window-y="24"
     inkscape:window-maximized="1"
     inkscape:snap-midpoints="false"
     inkscape:snap-grids="true"
     inkscape:snap-to-guides="false">
    <inkscape:grid
       type="xygrid"
       id="grid3002"
       empspacing="5"
       visible="true"
       enabled="true"
       snapvisiblegridlinesonly="true" />
  </sodipodi:namedview>
  <metadata
     id="metadata7">
    <rdf:RDF>
      <cc:Work
         rdf:about="">
        <dc:format>image/svg+xml</dc:format>
        <dc:type
           rdf:resource="http://purl.org/dc/dcmitype/StillImage" />
        <dc:title />
      </cc:Work>
    </rdf:RDF>
  </metadata>
  <g
     inkscape:label="Layer 1"
     inkscape:groupmode="layer"
     id="layer1"
     transform="translate(0,-956.36218)">
    <rect
       style="fill:#ffffff;fill-opacity:0;fill-rule:nonzero;stroke:none"
       id="rect3775"
       width="96"
       height="96"
       x="0"
       y="956.36218"
       ry="0" />
    <path
       style="fill:#000000;fill-opacity:0.09589041;fill-rule:nonzero;stroke:none"
       d="m 3.353015,956.30662 c -1.884176,0 -3.4111555,1.43156 -3.4111555,3.19799 l 0,83.65949 c 0,1.7665 1.5269795,3.1981 3.4111555,3.1981 l 89.23583,0 c 1.884174,0 3.411155,-1.4316 3.411155,-3.1981 l 0,-83.65949 c 0,-1.76643 -1.526981,-3.19799 -3.411155,-3.19799 z"
       id="rect3772"
       inkscape:connector-curvature="0"
       sodipodi:nodetypes="sssssssss" />
    <path
       style="fill:#000000;fill-opacity:0.18721463;fill-rule:nonzero;stroke:none"
       d="m 1.0459761,1041.8066 0,7.4219 c 0,1.7392 1.461916,3.1337 3.2852054,3.1337 l 86.3836135,0 c 1.823288,0 3.285205,-1.3945 3.285205,-3.1337 l 0,-7.4219 -92.9540239,0 z"
       id="rect3785"
       inkscape:connector-curvature="0" />
    <path
       style="fill:#000000;fill-opacity:0.38356168;fill-rule:nonzero;stroke:none"
       d="m 1.0459761,1041.8066 0,5.3807 c 0,1.762 1.461916,3.1749 3.2852054,3.1749 l 86.3836135,0 c 1.823288,0 3.285205,-1.4129 3.285205,-3.1749 l 0,-5.3807 -92.9540239,0 z"
       id="rect3783"
       inkscape:connector-curvature="0" />
    <rect
       style="fill:#fca311;fill-opacity:1;fill-rule:nonzero;stroke:none"
       id="rect2985"
       width="92.954025"
       height="89"
       x="1.045977"
       y="-1046.3622"
       ry="3.1511393"
       transform="scale(1,-1)" />
    <path
       style="fill:#000000;fill-opacity:0.38356168;fill-rule:nonzero;stroke:none"
       d="m 1,1042.3622 0.045976,2.7457 c 0.03024,1.8058 1.461916,3.2543 3.2852054,3.2543 l 86.3836136,0 c 1.823288,0 3.285205,-1.4481 3.285205,-3.2543 l -0.04598,-2.7457 z"
       id="rect3781"
       inkscape:connector-curvature="0"
       sodipodi:nodetypes="csssscc" />
    <rect
       style="fill:#ffffff;fill-opacity:0.30000001;fill-rule:nonzero;stroke:none"
       id="rect3770"
       width="92.954033"
       height="2.000005"
       x="1.045976"
       y="1040.3622" />
    <path
       style="fill:#ffffff;fill-opacity:1;stroke:none"
       d="M 49.5 11.46875 C 41.448429 11.46875 34.716032 17.32369 33.03125 25.15625 C 32.914073 25.15235 32.805404 25.125 32.6875 25.125 C 25.585705 25.125 19.84375 31.0949 19.84375 38.46875 C 19.84375 39.62555 19.983673 40.7424 20.25 41.8125 C 17.066772 43.7355 14.90625 47.30695 14.90625 51.40625 C 14.90625 57.53735 19.72014 62.5 25.625 62.5 L 25.625 62.53125 L 66.9375 62.53125 C 74.757453 62.53125 81.09375 55.96325 81.09375 47.84375 C 81.09375 39.72435 74.757453 33.125 66.9375 33.125 C 66.564413 33.125 66.209561 33.1583 65.84375 33.1875 C 66.165607 31.83599 66.375 30.4237 66.375 28.96875 C 66.375 19.59339 59.2609 11.93806 50.34375 11.46875 C 50.056105 11.45355 49.791282 11.46875 49.5 11.46875 z M 50.03125 17.46875 C 55.682922 17.7662 60.34375 22.64073 60.34375 28.96875 C 60.34375 29.84573 60.212762 30.72537 59.96875 31.75 A 6.0245358 6.0245358 0 0 0 66.3125 39.15625 C 66.392591 39.14986 66.586479 39.15625 66.9375 39.15625 C 71.368341 39.15625 75.0625 42.85824 75.0625 47.84375 C 75.0625 52.82925 71.384492 56.5 66.9375 56.5 L 26.21875 56.5 A 6.0245358 6.0245358 0 0 0 25.625 56.46875 C 23.116542 56.46875 20.9375 54.3529 20.9375 51.375 C 20.9375 49.3923 21.959973 47.82355 23.375 46.96875 A 6.0245358 6.0245358 0 0 0 26.09375 40.34375 C 25.94524 39.74704 25.875 39.13979 25.875 38.46875 C 25.875 34.22209 28.961591 31.15625 32.6875 31.15625 C 32.938243 31.15625 32.983766 31.16091 32.84375 31.15625 A 6.0245358 6.0245358 0 0 0 38.90625 26.40625 C 40.02633 21.19899 44.353164 17.5 49.5 17.5 C 50.000847 17.5 50.149496 17.475 50.03125 17.46875 z "
       transform="translate(0,956.36218)"
       id="path3880" />
  </g>
</svg>
