<?xml version="1.0" encoding="UTF-8" standalone="no"?>
<!-- Created with Inkscape (http://www.inkscape.org/) -->

<svg
   xmlns:dc="http://purl.org/dc/elements/1.1/"
   xmlns:cc="http://creativecommons.org/ns#"
   xmlns:rdf="http://www.w3.org/1999/02/22-rdf-syntax-ns#"
   xmlns:svg="http://www.w3.org/2000/svg"
   xmlns="http://www.w3.org/2000/svg"
   xmlns:xlink="http://www.w3.org/1999/xlink"
   xmlns:sodipodi="http://sodipodi.sourceforge.net/DTD/sodipodi-0.dtd"
   xmlns:inkscape="http://www.inkscape.org/namespaces/inkscape"
   width="96"
   height="96"
   id="svg2"
   version="1.1"
   inkscape:version="0.48.4 r9939"
   sodipodi:docname="imagination.svg">
  <defs
     id="defs4">
    <radialGradient
       inkscape:collect="always"
       xlink:href="#linearGradient3796"
       id="radialGradient3804"
       cx="47.5"
       cy="48.5"
       fx="47.5"
       fy="48.5"
       r="27.5"
       gradientUnits="userSpaceOnUse"
       gradientTransform="matrix(2.9031181,2.9031194,-0.63636371,0.63636343,-59.534472,831.10038)" />
    <linearGradient
       id="linearGradient3796">
      <stop
         style="stop-color:#ba00ff;stop-opacity:1;"
         offset="0"
         id="stop3798" />
      <stop
         style="stop-color:#3f0077;stop-opacity:1;"
         offset="1"
         id="stop3800" />
    </linearGradient>
  </defs>
  <sodipodi:namedview
     id="base"
     pagecolor="#ffffff"
     bordercolor="#666666"
     borderopacity="1.0"
     inkscape:pageopacity="0.0"
     inkscape:pageshadow="2"
     inkscape:zoom="5.90625"
     inkscape:cx="51.281479"
     inkscape:cy="48"
     inkscape:document-units="px"
     inkscape:current-layer="layer1"
     showgrid="true"
     inkscape:snap-page="true"
     inkscape:snap-global="true"
     inkscape:snap-center="true"
     inkscape:snap-object-midpoints="false"
     showguides="true"
     inkscape:guide-bbox="true"
     inkscape:snap-bbox="true"
     inkscape:object-paths="true"
     inkscape:object-nodes="true"
     inkscape:window-width="1305"
     inkscape:window-height="744"
     inkscape:window-x="61"
     inkscape:window-y="24"
     inkscape:window-maximized="1"
     inkscape:snap-midpoints="false"
     inkscape:snap-grids="true"
     inkscape:snap-to-guides="false">
    <inkscape:grid
       type="xygrid"
       id="grid3002"
       empspacing="5"
       visible="true"
       enabled="true"
       snapvisiblegridlinesonly="true" />
  </sodipodi:namedview>
  <metadata
     id="metadata7">
    <rdf:RDF>
      <cc:Work
         rdf:about="">
        <dc:format>image/svg+xml</dc:format>
        <dc:type
           rdf:resource="http://purl.org/dc/dcmitype/StillImage" />
        <dc:title />
      </cc:Work>
    </rdf:RDF>
  </metadata>
  <g
     inkscape:label="Layer 1"
     inkscape:groupmode="layer"
     id="layer1"
     transform="translate(0,-956.36218)">
    <rect
       style="fill:#ffffff;fill-opacity:0;fill-rule:nonzero;stroke:none"
       id="rect3775"
       width="96"
       height="96"
       x="0"
       y="956.36218"
       ry="0" />
    <path
       style="fill:#000000;fill-opacity:0.09589041;fill-rule:nonzero;stroke:none"
       d="m 3.353015,956.30662 c -1.884176,0 -3.4111555,1.43156 -3.4111555,3.19799 l 0,83.65949 c 0,1.7665 1.5269795,3.1981 3.4111555,3.1981 l 89.23583,0 c 1.884174,0 3.411155,-1.4316 3.411155,-3.1981 l 0,-83.65949 c 0,-1.76643 -1.526981,-3.19799 -3.411155,-3.19799 z"
       id="rect3772"
       inkscape:connector-curvature="0"
       sodipodi:nodetypes="sssssssss" />
    <path
       style="fill:#000000;fill-opacity:0.18721463;fill-rule:nonzero;stroke:none"
       d="m 1.0459761,1041.8066 0,7.4219 c 0,1.7392 1.461916,3.1337 3.2852054,3.1337 l 86.3836135,0 c 1.823288,0 3.285205,-1.3945 3.285205,-3.1337 l 0,-7.4219 -92.9540239,0 z"
       id="rect3785"
       inkscape:connector-curvature="0" />
    <path
       style="fill:#000000;fill-opacity:0.38356168;fill-rule:nonzero;stroke:none"
       d="m 1.0459761,1041.8066 0,5.3807 c 0,1.762 1.461916,3.1749 3.2852054,3.1749 l 86.3836135,0 c 1.823288,0 3.285205,-1.4129 3.285205,-3.1749 l 0,-5.3807 -92.9540239,0 z"
       id="rect3783"
       inkscape:connector-curvature="0" />
    <rect
       style="fill:#00a3dd;fill-opacity:1;fill-rule:nonzero;stroke:none"
       id="rect2985-2"
       width="93"
       height="88.999962"
       x="0.9999969"
       y="957.36224"
       ry="3.1511383" />
    <path
       style="fill:#000000;fill-opacity:0.38356168;fill-rule:nonzero;stroke:none"
       d="m 1,1042.3622 0.045976,2.7457 c 0.03024,1.8058 1.461916,3.2543 3.2852054,3.2543 l 86.3836136,0 c 1.823288,0 3.285205,-1.4481 3.285205,-3.2543 l -0.04598,-2.7457 z"
       id="rect3781"
       inkscape:connector-curvature="0"
       sodipodi:nodetypes="csssscc" />
    <rect
       style="fill:#ffffff;fill-opacity:0.30000001;fill-rule:nonzero;stroke:none"
       id="rect3770"
       width="92.954033"
       height="2.000005"
       x="1.045976"
       y="1040.3622" />
    <path
       style="fill:#ffffff;fill-opacity:0.26484022;fill-rule:nonzero;stroke:none"
       d="m 20,957.36218 0,39.65623 25,20.34379 30,-20.34379 0,-39.65623 z"
       id="rect3791"
       inkscape:connector-curvature="0"
       sodipodi:nodetypes="cccccc" />
    <path
       sodipodi:nodetypes="ccccccc"
       inkscape:connector-curvature="0"
       id="path3794"
       d="m 40,957.36218 0,39.65623 0,10.34379 15,0 0,-10.34379 0,-39.65623 z"
       style="fill:#ffffff;fill-opacity:0.26484022;fill-rule:nonzero;stroke:none" />
    <path
       inkscape:connector-curvature="0"
       style="fill:url(#radialGradient3804);fill-opacity:1;fill-rule:nonzero;stroke:none"
       d="m 47.5,972.36218 c -15.187831,0 -27.5,12.31217 -27.5,27.50003 0,15.18779 12.312169,27.49999 27.5,27.49999 15.187831,0 27.5,-12.3122 27.5,-27.49999 0,-15.18786 -12.312169,-27.50003 -27.5,-27.50003 z m 0,20 c 4.142136,0 7.5,3.35783 7.5,7.50003 0,4.14209 -3.357864,7.49999 -7.5,7.49999 -4.142136,0 -7.5,-3.3579 -7.5,-7.49999 0,-4.1422 3.357864,-7.50003 7.5,-7.50003 z"
       id="path3006" />
    <path
       inkscape:connector-curvature="0"
       style="font-size:15.31555367px;font-style:normal;font-variant:normal;font-weight:normal;font-stretch:normal;text-align:end;line-height:125%;letter-spacing:0px;word-spacing:0px;text-anchor:end;fill:#ffffff;fill-opacity:0.41552513;stroke:none;font-family:Andale Mono;-inkscape-font-specification:Andale Mono"
       d="m 62,1005.4559 c -0.847466,0 -1.61758,0.1414 -2.28125,0.4375 -0.663677,0.2961 -1.228036,0.6981 -1.6875,1.2188 -0.459468,0.5207 -0.817452,1.1392 -1.0625,1.8437 -0.24505,0.7046 -0.343751,1.4747 -0.34375,2.2813 -10e-7,0.7862 0.0987,1.5244 0.34375,2.2187 0.245048,0.6943 0.603032,1.2708 1.0625,1.7813 0.459464,0.5105 1.023823,0.9226 1.6875,1.2187 0.66367,0.2961 1.433784,0.4375 2.28125,0.4375 0.847454,0 1.586318,-0.1414 2.25,-0.4375 0.663665,-0.2961 1.228024,-0.7082 1.6875,-1.2187 0.459456,-0.5105 0.81744,-1.087 1.0625,-1.7813 0.245038,-0.6943 0.374989,-1.4325 0.375,-2.2187 -1.1e-5,-0.8066 -0.129962,-1.5767 -0.375,-2.2813 -0.24506,-0.7045 -0.603044,-1.323 -1.0625,-1.8437 -0.459476,-0.5207 -1.023835,-0.9227 -1.6875,-1.2188 -0.663682,-0.2961 -1.402546,-0.4375 -2.25,-0.4375 z m -9.8125,0.1563 c -0.547562,0.4469 -1.121065,0.877 -1.78125,1.1562 -0.897288,0.3796 -1.870716,0.5938 -2.90625,0.5938 -0.111254,0 -0.202428,-0.058 -0.3125,-0.062 -0.234839,0.4084 -0.343751,0.9072 -0.34375,1.4687 -10e-7,0.5106 0.06621,0.9341 0.25,1.2813 0.193996,0.3471 0.443687,0.6401 0.75,0.875 0.306309,0.2348 0.674504,0.4093 1.0625,0.5625 0.387991,0.1429 0.779082,0.2729 1.1875,0.375 0.3982,0.1123 0.799501,0.2206 1.1875,0.3125 0.387988,0.082 0.724933,0.1797 1.03125,0.3125 0.306305,0.1225 0.566207,0.2849 0.75,0.4687 0.19399,0.1838 0.281243,0.4227 0.28125,0.7188 -7e-6,0.2757 -0.07581,0.5037 -0.21875,0.6875 -0.142952,0.1736 -0.316839,0.3041 -0.53125,0.4062 -0.214424,0.1021 -0.442457,0.1779 -0.6875,0.2188 -0.245054,0.031 -0.473088,0.062 -0.6875,0.062 -0.326737,0 -0.641404,-0.053 -0.9375,-0.125 -0.285894,-0.082 -0.556626,-0.1906 -0.78125,-0.3438 -0.214421,-0.1633 -0.367268,-0.3697 -0.5,-0.625 -0.132738,-0.2552 -0.218753,-0.5699 -0.21875,-0.9375 l -2.3125,0 c -0.01021,0.6739 0.11974,1.2599 0.375,1.75 0.265469,0.4901 0.602413,0.871 1.03125,1.1875 0.428833,0.3166 0.938427,0.5656 1.5,0.7188 0.571777,0.1531 1.147584,0.2187 1.75,0.2187 0.745351,0 1.407173,-0.076 1.96875,-0.25 0.571773,-0.1838 1.028458,-0.4124 1.40625,-0.7187 0.387985,-0.3165 0.680994,-0.6962 0.875,-1.125 0.193988,-0.4289 0.28124,-0.906 0.28125,-1.4063 -1e-5,-0.4084 -0.03374,-0.7562 -0.15625,-1.0625 -0.122534,-0.3165 -0.295802,-0.5878 -0.5,-0.8125 -0.194006,-0.2246 -0.41121,-0.4093 -0.65625,-0.5625 -0.234846,-0.1531 -0.473709,-0.2831 -0.71875,-0.375 -0.234846,-0.1021 -0.473089,-0.1677 -0.6875,-0.2187 -0.214424,-0.061 -0.367272,-0.1256 -0.5,-0.1563 -0.6841,-0.1735 -1.25867,-0.3251 -1.6875,-0.4375 -0.418629,-0.1225 -0.754955,-0.2104 -1,-0.3125 -0.234842,-0.1123 -0.38707,-0.2422 -0.46875,-0.375 -0.08169,-0.1327 -0.125003,-0.3168 -0.125,-0.5312 -3e-6,-0.2246 0.05414,-0.4094 0.15625,-0.5625 0.1021,-0.1634 0.221841,-0.3042 0.375,-0.4063 0.163362,-0.1021 0.337249,-0.1466 0.53125,-0.1875 0.193993,-0.041 0.399748,-0.062 0.59375,-0.062 0.285885,0 0.557235,0.011 0.8125,0.062 0.255253,0.051 0.493497,0.1275 0.6875,0.25 0.193991,0.1226 0.325179,0.3169 0.4375,0.5313 0.122518,0.2144 0.198322,0.4858 0.21875,0.8125 l 2.34375,0 c -9e-6,-0.6331 -0.12996,-1.186 -0.375,-1.625 -0.234847,-0.4493 -0.560344,-0.8079 -0.96875,-1.0938 -0.408422,-0.2858 -0.875318,-0.5024 -1.40625,-0.625 -0.119731,-0.031 -0.252571,-0.01 -0.375,-0.031 z m -9.5625,0.094 0,10.9375 2.40625,0 0,-9.7812 c -0.139262,-0.049 -0.30216,-0.037 -0.4375,-0.094 -0.595492,-0.2518 -1.088613,-0.6729 -1.59375,-1.0625 l -0.375,0 z m 19.375,1.75 c 0.541143,0 0.997209,0.1294 1.375,0.3438 0.377776,0.2042 0.671403,0.4864 0.90625,0.8437 0.23483,0.3472 0.397888,0.7383 0.5,1.1875 0.112305,0.4493 0.187491,0.9264 0.1875,1.4063 -9e-6,0.4595 -0.07519,0.9047 -0.1875,1.3437 -0.102112,0.4289 -0.26517,0.8091 -0.5,1.1563 -0.234847,0.3471 -0.528474,0.6293 -0.90625,0.8437 -0.377791,0.2042 -0.833857,0.3125 -1.375,0.3125 -0.541155,0 -1.028471,-0.1083 -1.40625,-0.3125 -0.377788,-0.2144 -0.671415,-0.4966 -0.90625,-0.8437 -0.234842,-0.3472 -0.418939,-0.7274 -0.53125,-1.1563 -0.102107,-0.439 -0.156253,-0.8842 -0.15625,-1.3437 -3e-6,-0.4799 0.05414,-0.957 0.15625,-1.4063 0.112311,-0.4492 0.296408,-0.8403 0.53125,-1.1875 0.234835,-0.3573 0.528462,-0.6395 0.90625,-0.8437 0.377779,-0.2144 0.865095,-0.3438 1.40625,-0.3438 z"
       id="path3819" />
  </g>
</svg>
