<?xml version="1.0" encoding="UTF-8" standalone="no"?>
<!-- Created with Inkscape (http://www.inkscape.org/) -->

<svg
   xmlns:dc="http://purl.org/dc/elements/1.1/"
   xmlns:cc="http://creativecommons.org/ns#"
   xmlns:rdf="http://www.w3.org/1999/02/22-rdf-syntax-ns#"
   xmlns:svg="http://www.w3.org/2000/svg"
   xmlns="http://www.w3.org/2000/svg"
   xmlns:xlink="http://www.w3.org/1999/xlink"
   xmlns:sodipodi="http://sodipodi.sourceforge.net/DTD/sodipodi-0.dtd"
   xmlns:inkscape="http://www.inkscape.org/namespaces/inkscape"
   width="96"
   height="96"
   id="svg2"
   version="1.1"
   inkscape:version="0.48.4 r9939"
   sodipodi:docname="imagemagick.svg">
  <defs
     id="defs4">
    <radialGradient
       inkscape:collect="always"
       xlink:href="#linearGradient4778"
       id="radialGradient3157"
       gradientUnits="userSpaceOnUse"
       gradientTransform="matrix(0.02412765,1.5726927,-0.94558884,0.01532502,-53.219433,916.0221)"
       cx="39.04879"
       cy="28.09796"
       fx="39.04879"
       fy="28.09796"
       r="36.428211" />
    <linearGradient
       id="linearGradient4778">
      <stop
         offset="0"
         style="stop-color:#fff9b9;stop-opacity:1"
         id="stop4780" />
      <stop
         offset="1"
         style="stop-color:#fff79e;stop-opacity:0"
         id="stop4782" />
    </linearGradient>
    <radialGradient
       inkscape:collect="always"
       xlink:href="#linearGradient4215"
       id="radialGradient3159"
       gradientUnits="userSpaceOnUse"
       cx="32"
       cy="32"
       fx="32"
       fy="32"
       r="8" />
    <linearGradient
       id="linearGradient4215">
      <stop
         offset="0"
         style="stop-color:#ffb800;stop-opacity:1"
         id="stop4217" />
      <stop
         offset="1"
         style="stop-color:#ffb800;stop-opacity:0"
         id="stop4219" />
    </linearGradient>
    <radialGradient
       inkscape:collect="always"
       xlink:href="#linearGradient4223"
       id="radialGradient3161"
       gradientUnits="userSpaceOnUse"
       cx="29.094891"
       cy="31.601685"
       fx="29.094891"
       fy="31.601685"
       r="7.2449093" />
    <linearGradient
       id="linearGradient4223">
      <stop
         offset="0"
         style="stop-color:#ffe375;stop-opacity:1"
         id="stop4225" />
      <stop
         offset="1"
         style="stop-color:#ffa600;stop-opacity:1"
         id="stop4227" />
    </linearGradient>
    <radialGradient
       inkscape:collect="always"
       xlink:href="#linearGradient4215"
       id="radialGradient3163"
       gradientUnits="userSpaceOnUse"
       cx="32"
       cy="32"
       fx="32"
       fy="32"
       r="8" />
    <radialGradient
       inkscape:collect="always"
       xlink:href="#linearGradient4223"
       id="radialGradient3165"
       gradientUnits="userSpaceOnUse"
       cx="29.094891"
       cy="31.601685"
       fx="29.094891"
       fy="31.601685"
       r="7.2449093" />
    <radialGradient
       inkscape:collect="always"
       xlink:href="#linearGradient4215"
       id="radialGradient3167"
       gradientUnits="userSpaceOnUse"
       cx="32"
       cy="32"
       fx="32"
       fy="32"
       r="8" />
    <radialGradient
       inkscape:collect="always"
       xlink:href="#linearGradient4223"
       id="radialGradient3169"
       gradientUnits="userSpaceOnUse"
       cx="29.094891"
       cy="31.601685"
       fx="29.094891"
       fy="31.601685"
       r="7.2449093" />
    <radialGradient
       inkscape:collect="always"
       xlink:href="#linearGradient4215"
       id="radialGradient3171"
       gradientUnits="userSpaceOnUse"
       cx="32"
       cy="32"
       fx="32"
       fy="32"
       r="8" />
    <radialGradient
       inkscape:collect="always"
       xlink:href="#linearGradient4223"
       id="radialGradient3173"
       gradientUnits="userSpaceOnUse"
       cx="29.094891"
       cy="31.601685"
       fx="29.094891"
       fy="31.601685"
       r="7.2449093" />
  </defs>
  <sodipodi:namedview
     id="base"
     pagecolor="#ffffff"
     bordercolor="#666666"
     borderopacity="1.0"
     inkscape:pageopacity="0.0"
     inkscape:pageshadow="2"
     inkscape:zoom="5.90625"
     inkscape:cx="41.537843"
     inkscape:cy="48"
     inkscape:document-units="px"
     inkscape:current-layer="layer1"
     showgrid="true"
     inkscape:snap-page="true"
     inkscape:snap-global="true"
     inkscape:snap-center="true"
     inkscape:snap-object-midpoints="false"
     showguides="true"
     inkscape:guide-bbox="true"
     inkscape:snap-bbox="true"
     inkscape:object-paths="true"
     inkscape:object-nodes="true"
     inkscape:window-width="1305"
     inkscape:window-height="744"
     inkscape:window-x="61"
     inkscape:window-y="24"
     inkscape:window-maximized="1"
     inkscape:snap-midpoints="false"
     inkscape:snap-grids="true"
     inkscape:snap-to-guides="false">
    <inkscape:grid
       type="xygrid"
       id="grid3002"
       empspacing="5"
       visible="true"
       enabled="true"
       snapvisiblegridlinesonly="true" />
  </sodipodi:namedview>
  <metadata
     id="metadata7">
    <rdf:RDF>
      <cc:Work
         rdf:about="">
        <dc:format>image/svg+xml</dc:format>
        <dc:type
           rdf:resource="http://purl.org/dc/dcmitype/StillImage" />
        <dc:title />
      </cc:Work>
    </rdf:RDF>
  </metadata>
  <g
     inkscape:label="Layer 1"
     inkscape:groupmode="layer"
     id="layer1"
     transform="translate(0,-956.36218)">
    <rect
       style="fill:#ffffff;fill-opacity:0;fill-rule:nonzero;stroke:none"
       id="rect3775"
       width="96"
       height="96"
       x="0"
       y="956.36218"
       ry="0" />
    <path
       style="fill:#000000;fill-opacity:0.09589041;fill-rule:nonzero;stroke:none"
       d="m 3.353015,956.30662 c -1.884176,0 -3.4111555,1.43156 -3.4111555,3.19799 l 0,83.65949 c 0,1.7665 1.5269795,3.1981 3.4111555,3.1981 l 89.23583,0 c 1.884174,0 3.411155,-1.4316 3.411155,-3.1981 l 0,-83.65949 c 0,-1.76643 -1.526981,-3.19799 -3.411155,-3.19799 z"
       id="rect3772"
       inkscape:connector-curvature="0"
       sodipodi:nodetypes="sssssssss" />
    <path
       style="fill:#000000;fill-opacity:0.18721463;fill-rule:nonzero;stroke:none"
       d="m 1.0459761,1041.8066 0,7.4219 c 0,1.7392 1.461916,3.1337 3.2852054,3.1337 l 86.3836135,0 c 1.823288,0 3.285205,-1.3945 3.285205,-3.1337 l 0,-7.4219 -92.9540239,0 z"
       id="rect3785"
       inkscape:connector-curvature="0" />
    <path
       style="fill:#000000;fill-opacity:0.38356168;fill-rule:nonzero;stroke:none"
       d="m 1.0459761,1041.8066 0,5.3807 c 0,1.762 1.461916,3.1749 3.2852054,3.1749 l 86.3836135,0 c 1.823288,0 3.285205,-1.4129 3.285205,-3.1749 l 0,-5.3807 -92.9540239,0 z"
       id="rect3783"
       inkscape:connector-curvature="0" />
    <rect
       style="fill:#ff4960;fill-opacity:1;fill-rule:nonzero;stroke:none"
       id="rect2985"
       width="92.954025"
       height="89"
       x="1.045977"
       y="-1046.3622"
       ry="3.1511393"
       transform="scale(1,-1)" />
    <path
       style="fill:#000000;fill-opacity:0.38356168;fill-rule:nonzero;stroke:none"
       d="m 1,1042.3622 0.045976,2.7457 c 0.03024,1.8058 1.461916,3.2543 3.2852054,3.2543 l 86.3836136,0 c 1.823288,0 3.285205,-1.4481 3.285205,-3.2543 l -0.04598,-2.7457 z"
       id="rect3781"
       inkscape:connector-curvature="0"
       sodipodi:nodetypes="csssscc" />
    <rect
       style="fill:#ffffff;fill-opacity:0.30000001;fill-rule:nonzero;stroke:none"
       id="rect3770"
       width="92.954033"
       height="2.000005"
       x="1.045976"
       y="1040.3622" />
    <g
       id="g3134"
       transform="translate(124.10302,8.608223)">
      <path
         d="m -46.034899,956.13965 c -7.041902,25.07462 -21.674085,53.50205 -34.442779,49.19845 -13.439649,-4.5299 -4.897141,-22.89221 -0.627863,-27.41104 -5.026952,4.84481 -17.604116,24.86104 -1.554709,33.61844 12.373224,6.7513 38.014505,-8.6384 52.561117,-29.46992 l 0,-20.03581 c 0,-3.26867 -2.560247,-5.90012 -5.740464,-5.90012 l -10.195302,0 z"
         inkscape:connector-curvature="0"
         id="path4776"
         style="opacity:0.4;fill:url(#radialGradient3157);fill-opacity:1;stroke:none" />
      <g
         transform="matrix(1.0810102,0,0,1.1110752,-109.08075,979.29762)"
         id="g4201"
         style="fill:#ffcc00;display:inline;enable-background:new">
        <path
           inkscape:connector-curvature="0"
           d="m 40,32 a 8,8 0 1 1 -16,0 8,8 0 1 1 16,0 z"
           transform="translate(-1,-1)"
           id="path4203"
           style="color:#000000;fill:url(#radialGradient3159);fill-opacity:1;fill-rule:nonzero;stroke:none;stroke-width:1;marker:none;visibility:visible;display:inline;overflow:visible;enable-background:accumulate" />
        <path
           d="m 23.90625,22.633975 2.383468,8.216066 -6.186993,5.931209 8.186993,-2.467107 5.991532,6.270632 -2.52743,-8.270632 6.330955,-5.907893 -8.330955,2.443791 -5.84757,-6.216066 z"
           inkscape:connector-curvature="0"
           transform="matrix(0.8660254,0.5,-0.5,0.8660254,21.657457,-10.861778)"
           id="path4205"
           style="opacity:0.1;color:#000000;fill:#ffcc00;fill-opacity:1;fill-rule:nonzero;stroke:none;stroke-width:1;marker:none;visibility:visible;display:inline;overflow:visible;enable-background:accumulate" />
        <path
           d="m 33.777741,39.712619 -5.216804,-6.034048 -7.576981,2.605964 6.074408,-5.15034 -2.646323,-7.643445 5.163457,6.064847 7.630327,-2.636762 -6.025795,5.354295 2.597711,7.439489 z"
           inkscape:connector-curvature="0"
           transform="matrix(0.8660254,0.5,-0.5,0.8660254,21.657457,-10.861778)"
           id="path4207"
           style="opacity:0.2;color:#000000;fill:#ffcc00;fill-opacity:1;fill-rule:nonzero;stroke:none;stroke-width:1;marker:none;visibility:visible;display:inline;overflow:visible;enable-background:accumulate" />
        <path
           inkscape:connector-curvature="0"
           d="m 33.277741,38.846594 -4.529283,-5.952006 -6.898477,2.889947 5.952006,-4.529283 -2.889946,-6.898477 4.529282,5.952006 6.898477,-2.889946 -5.952006,4.529282 z"
           transform="matrix(0.8660254,0.5,-0.5,0.8660254,21.657457,-10.861778)"
           id="path4209"
           style="color:#000000;fill:url(#radialGradient3161);fill-opacity:1;fill-rule:nonzero;stroke:none;stroke-width:1;marker:none;visibility:visible;display:inline;overflow:visible;enable-background:accumulate" />
      </g>
      <g
         transform="matrix(0.71598514,0,0,0.73589813,-68.573507,973.00798)"
         id="g4345"
         style="fill:#ffcc00;display:inline;enable-background:new">
        <path
           inkscape:connector-curvature="0"
           d="m 40,32 a 8,8 0 1 1 -16,0 8,8 0 1 1 16,0 z"
           transform="translate(-1,-1)"
           id="path4347"
           style="color:#000000;fill:url(#radialGradient3163);fill-opacity:1;fill-rule:nonzero;stroke:none;stroke-width:1;marker:none;visibility:visible;display:inline;overflow:visible;enable-background:accumulate" />
        <path
           d="m 23.90625,22.633975 2.383468,8.216066 -6.186993,5.931209 8.186993,-2.467107 5.991532,6.270632 -2.52743,-8.270632 6.330955,-5.907893 -8.330955,2.443791 -5.84757,-6.216066 z"
           inkscape:connector-curvature="0"
           transform="matrix(0.8660254,0.5,-0.5,0.8660254,21.657457,-10.861778)"
           id="path4349"
           style="opacity:0.1;color:#000000;fill:#ffcc00;fill-opacity:1;fill-rule:nonzero;stroke:none;stroke-width:1;marker:none;visibility:visible;display:inline;overflow:visible;enable-background:accumulate" />
        <path
           d="m 33.777741,39.712619 -5.216804,-6.034048 -7.576981,2.605964 6.074408,-5.15034 -2.646323,-7.643445 5.163457,6.064847 7.630327,-2.636762 -6.025795,5.354295 2.597711,7.439489 z"
           inkscape:connector-curvature="0"
           transform="matrix(0.8660254,0.5,-0.5,0.8660254,21.657457,-10.861778)"
           id="path4351"
           style="opacity:0.2;color:#000000;fill:#ffcc00;fill-opacity:1;fill-rule:nonzero;stroke:none;stroke-width:1;marker:none;visibility:visible;display:inline;overflow:visible;enable-background:accumulate" />
        <path
           inkscape:connector-curvature="0"
           d="m 33.277741,38.846594 -4.529283,-5.952006 -6.898477,2.889947 5.952006,-4.529283 -2.889946,-6.898477 4.529282,5.952006 6.898477,-2.889946 -5.952006,4.529282 z"
           transform="matrix(0.8660254,0.5,-0.5,0.8660254,21.657457,-10.861778)"
           id="path4353"
           style="color:#000000;fill:url(#radialGradient3165);fill-opacity:1;fill-rule:nonzero;stroke:none;stroke-width:1;marker:none;visibility:visible;display:inline;overflow:visible;enable-background:accumulate" />
      </g>
      <g
         transform="matrix(1.7602494,0,0,1.8092055,-146.04197,939.57977)"
         id="g4387"
         style="fill:#ffcc00;display:inline;enable-background:new">
        <path
           inkscape:connector-curvature="0"
           d="m 40,32 a 8,8 0 1 1 -16,0 8,8 0 1 1 16,0 z"
           transform="translate(-1,-1)"
           id="path4389"
           style="color:#000000;fill:url(#radialGradient3167);fill-opacity:1;fill-rule:nonzero;stroke:none;stroke-width:1;marker:none;visibility:visible;display:inline;overflow:visible;enable-background:accumulate" />
        <path
           d="m 23.90625,22.633975 2.383468,8.216066 -6.186993,5.931209 8.186993,-2.467107 5.991532,6.270632 -2.52743,-8.270632 6.330955,-5.907893 -8.330955,2.443791 -5.84757,-6.216066 z"
           inkscape:connector-curvature="0"
           transform="matrix(0.8660254,0.5,-0.5,0.8660254,21.657457,-10.861778)"
           id="path4391"
           style="opacity:0.1;color:#000000;fill:#ffcc00;fill-opacity:1;fill-rule:nonzero;stroke:none;stroke-width:1;marker:none;visibility:visible;display:inline;overflow:visible;enable-background:accumulate" />
        <path
           d="m 33.777741,39.712619 -5.216804,-6.034048 -7.576981,2.605964 6.074408,-5.15034 -2.646323,-7.643445 5.163457,6.064847 7.630327,-2.636762 -6.025795,5.354295 2.597711,7.439489 z"
           inkscape:connector-curvature="0"
           transform="matrix(0.8660254,0.5,-0.5,0.8660254,21.657457,-10.861778)"
           id="path4393"
           style="opacity:0.2;color:#000000;fill:#ffcc00;fill-opacity:1;fill-rule:nonzero;stroke:none;stroke-width:1;marker:none;visibility:visible;display:inline;overflow:visible;enable-background:accumulate" />
        <path
           inkscape:connector-curvature="0"
           d="m 33.277741,38.846594 -4.529283,-5.952006 -6.898477,2.889947 5.952006,-4.529283 -2.889946,-6.898477 4.529282,5.952006 6.898477,-2.889946 -5.952006,4.529282 z"
           transform="matrix(0.8660254,0.5,-0.5,0.8660254,21.657457,-10.861778)"
           id="path4395"
           style="color:#000000;fill:url(#radialGradient3169);fill-opacity:1;fill-rule:nonzero;stroke:none;stroke-width:1;marker:none;visibility:visible;display:inline;overflow:visible;enable-background:accumulate" />
      </g>
      <g
         transform="matrix(0.83990284,0,0,0.86326222,-112.44348,944.00485)"
         id="g4471"
         style="fill:#ffcc00;display:inline;enable-background:new">
        <path
           inkscape:connector-curvature="0"
           d="m 40,32 a 8,8 0 1 1 -16,0 8,8 0 1 1 16,0 z"
           transform="translate(-1,-1)"
           id="path4473"
           style="color:#000000;fill:url(#radialGradient3171);fill-opacity:1;fill-rule:nonzero;stroke:none;stroke-width:1;marker:none;visibility:visible;display:inline;overflow:visible;enable-background:accumulate" />
        <path
           d="m 23.90625,22.633975 2.383468,8.216066 -6.186993,5.931209 8.186993,-2.467107 5.991532,6.270632 -2.52743,-8.270632 6.330955,-5.907893 -8.330955,2.443791 -5.84757,-6.216066 z"
           inkscape:connector-curvature="0"
           transform="matrix(0.8660254,0.5,-0.5,0.8660254,21.657457,-10.861778)"
           id="path4475"
           style="opacity:0.1;color:#000000;fill:#ffcc00;fill-opacity:1;fill-rule:nonzero;stroke:none;stroke-width:1;marker:none;visibility:visible;display:inline;overflow:visible;enable-background:accumulate" />
        <path
           d="m 33.777741,39.712619 -5.216804,-6.034048 -7.576981,2.605964 6.074408,-5.15034 -2.646323,-7.643445 5.163457,6.064847 7.630327,-2.636762 -6.025795,5.354295 2.597711,7.439489 z"
           inkscape:connector-curvature="0"
           transform="matrix(0.8660254,0.5,-0.5,0.8660254,21.657457,-10.861778)"
           id="path4477"
           style="opacity:0.2;color:#000000;fill:#ffcc00;fill-opacity:1;fill-rule:nonzero;stroke:none;stroke-width:1;marker:none;visibility:visible;display:inline;overflow:visible;enable-background:accumulate" />
        <path
           inkscape:connector-curvature="0"
           d="m 33.277741,38.846594 -4.529283,-5.952006 -6.898477,2.889947 5.952006,-4.529283 -2.889946,-6.898477 4.529282,5.952006 6.898477,-2.889946 -5.952006,4.529282 z"
           transform="matrix(0.8660254,0.5,-0.5,0.8660254,21.657457,-10.861778)"
           id="path4479"
           style="color:#000000;fill:url(#radialGradient3173);fill-opacity:1;fill-rule:nonzero;stroke:none;stroke-width:1;marker:none;visibility:visible;display:inline;overflow:visible;enable-background:accumulate" />
      </g>
    </g>
  </g>
</svg>
