<?xml version="1.0" encoding="UTF-8" standalone="no"?>
<!-- Created with Inkscape (http://www.inkscape.org/) -->

<svg
   xmlns:dc="http://purl.org/dc/elements/1.1/"
   xmlns:cc="http://creativecommons.org/ns#"
   xmlns:rdf="http://www.w3.org/1999/02/22-rdf-syntax-ns#"
   xmlns:svg="http://www.w3.org/2000/svg"
   xmlns="http://www.w3.org/2000/svg"
   xmlns:xlink="http://www.w3.org/1999/xlink"
   xmlns:sodipodi="http://sodipodi.sourceforge.net/DTD/sodipodi-0.dtd"
   xmlns:inkscape="http://www.inkscape.org/namespaces/inkscape"
   width="96"
   height="96"
   id="svg2"
   version="1.1"
   inkscape:version="0.48.4 r9939"
   sodipodi:docname="inkscape (copy).svg">
  <defs
     id="defs4">
    <linearGradient
       inkscape:collect="always"
       xlink:href="#linearGradient3849"
       id="linearGradient3027"
       gradientUnits="userSpaceOnUse"
       x1="33.7864"
       y1="1027.2502"
       x2="33.741676"
       y2="1011.9337"
       gradientTransform="matrix(0.70710678,-0.70710678,0.70710678,0.70710678,-704.56078,326.99289)" />
    <linearGradient
       id="linearGradient3849">
      <stop
         style="stop-color:#f76300;stop-opacity:1;"
         offset="0"
         id="stop3851" />
      <stop
         style="stop-color:#ffe0cc;stop-opacity:1;"
         offset="1"
         id="stop3853" />
    </linearGradient>
    <linearGradient
       inkscape:collect="always"
       xlink:href="#linearGradient3825"
       id="linearGradient3023"
       gradientUnits="userSpaceOnUse"
       gradientTransform="translate(1772.2031,-729.4186)"
       x1="-1027.2545"
       y1="70.798042"
       x2="-1011.9294"
       y2="70.798042" />
    <linearGradient
       id="linearGradient3825">
      <stop
         style="stop-color:#ffdcdc;stop-opacity:1;"
         offset="0"
         id="stop3827" />
      <stop
         style="stop-color:#d96d6d;stop-opacity:1;"
         offset="1"
         id="stop3829" />
    </linearGradient>
    <linearGradient
       inkscape:collect="always"
       xlink:href="#linearGradient3841"
       id="linearGradient3020"
       gradientUnits="userSpaceOnUse"
       gradientTransform="translate(1772.2031,-729.4186)"
       x1="-1027.2545"
       y1="66.705544"
       x2="-1011.9294"
       y2="66.705544" />
    <linearGradient
       id="linearGradient3841">
      <stop
         style="stop-color:#ffffff;stop-opacity:1;"
         offset="0"
         id="stop3843" />
      <stop
         style="stop-color:#dadada;stop-opacity:1;"
         offset="1"
         id="stop3845" />
    </linearGradient>
    <linearGradient
       inkscape:collect="always"
       xlink:href="#linearGradient3833"
       id="linearGradient3016"
       gradientUnits="userSpaceOnUse"
       x1="-1027.2545"
       y1="66.705536"
       x2="-1011.9294"
       y2="66.705536"
       gradientTransform="translate(266.98082,-729.4186)" />
    <linearGradient
       inkscape:collect="always"
       id="linearGradient3833">
      <stop
         style="stop-color:#999999;stop-opacity:1;"
         offset="0"
         id="stop3835" />
      <stop
         style="stop-color:#999999;stop-opacity:0;"
         offset="1"
         id="stop3837" />
    </linearGradient>
  </defs>
  <sodipodi:namedview
     id="base"
     pagecolor="#ffffff"
     bordercolor="#666666"
     borderopacity="1.0"
     inkscape:pageopacity="0.0"
     inkscape:pageshadow="2"
     inkscape:zoom="4.1763494"
     inkscape:cx="5.6184885"
     inkscape:cy="48"
     inkscape:document-units="px"
     inkscape:current-layer="layer1"
     showgrid="true"
     inkscape:snap-page="true"
     inkscape:snap-global="true"
     inkscape:snap-center="true"
     inkscape:snap-object-midpoints="false"
     showguides="true"
     inkscape:guide-bbox="true"
     inkscape:snap-bbox="true"
     inkscape:object-paths="true"
     inkscape:object-nodes="true"
     inkscape:window-width="1305"
     inkscape:window-height="744"
     inkscape:window-x="61"
     inkscape:window-y="24"
     inkscape:window-maximized="1"
     inkscape:snap-midpoints="false"
     inkscape:snap-grids="true"
     inkscape:snap-to-guides="false">
    <inkscape:grid
       type="xygrid"
       id="grid3002"
       empspacing="5"
       visible="true"
       enabled="true"
       snapvisiblegridlinesonly="true" />
  </sodipodi:namedview>
  <metadata
     id="metadata7">
    <rdf:RDF>
      <cc:Work
         rdf:about="">
        <dc:format>image/svg+xml</dc:format>
        <dc:type
           rdf:resource="http://purl.org/dc/dcmitype/StillImage" />
        <dc:title />
      </cc:Work>
    </rdf:RDF>
  </metadata>
  <g
     inkscape:label="Layer 1"
     inkscape:groupmode="layer"
     id="layer1"
     transform="translate(0,-956.36218)">
    <rect
       style="fill:#ffffff;fill-opacity:0;fill-rule:nonzero;stroke:none"
       id="rect3775"
       width="96"
       height="96"
       x="0"
       y="956.36218"
       ry="0" />
    <path
       style="fill:#000000;fill-opacity:0.09589041;fill-rule:nonzero;stroke:none"
       d="m 3.353015,956.30662 c -1.884176,0 -3.4111555,1.43156 -3.4111555,3.19799 l 0,83.65949 c 0,1.7665 1.5269795,3.1981 3.4111555,3.1981 l 89.23583,0 c 1.884174,0 3.411155,-1.4316 3.411155,-3.1981 l 0,-83.65949 c 0,-1.76643 -1.526981,-3.19799 -3.411155,-3.19799 z"
       id="rect3772"
       inkscape:connector-curvature="0"
       sodipodi:nodetypes="sssssssss" />
    <path
       style="fill:#000000;fill-opacity:0.18721463;fill-rule:nonzero;stroke:none"
       d="m 1.0459761,1041.8066 0,7.4219 c 0,1.7392 1.461916,3.1337 3.2852054,3.1337 l 86.3836135,0 c 1.823288,0 3.285205,-1.3945 3.285205,-3.1337 l 0,-7.4219 -92.9540239,0 z"
       id="rect3785"
       inkscape:connector-curvature="0" />
    <path
       style="fill:#000000;fill-opacity:0.38356168;fill-rule:nonzero;stroke:none"
       d="m 1.0459761,1041.8066 0,5.3807 c 0,1.762 1.461916,3.1749 3.2852054,3.1749 l 86.3836135,0 c 1.823288,0 3.285205,-1.4129 3.285205,-3.1749 l 0,-5.3807 -92.9540239,0 z"
       id="rect3783"
       inkscape:connector-curvature="0" />
    <rect
       style="fill:#fca311;fill-opacity:1;fill-rule:nonzero;stroke:none"
       id="rect2985-6"
       width="93"
       height="88.999977"
       x="1"
       y="957.36218"
       ry="3.1511388" />
    <path
       style="fill:#000000;fill-opacity:0.08675799;fill-rule:evenodd;stroke:none;stroke-width:0.50000000000000000;stroke-linecap:square;stroke-linejoin:miter;stroke-miterlimit:4;stroke-opacity:1;stroke-dasharray:none;stroke-dashoffset:0"
       d="M 12 1 L 12 5 L 1 5 L 1 6 L 12 6 L 12 15 L 1 15 L 1 16 L 12 16 L 12 25 L 1 25 L 1 26 L 12 26 L 12 35 L 1 35 L 1 36 L 12 36 L 12 45 L 1 45 L 1 46 L 12 46 L 12 55 L 1 55 L 1 56 L 12 56 L 12 65 L 1 65 L 1 66 L 12 66 L 12 75 L 1 75 L 1 76 L 12 76 L 12 90 L 13 90 L 13 76 L 22 76 L 22 90 L 23 90 L 23 76 L 32 76 L 32 90 L 33 90 L 33 76 L 42 76 L 42 90 L 43 90 L 43 76 L 52 76 L 52 90 L 53 90 L 53 76 L 62 76 L 62 90 L 63 90 L 63 76 L 72 76 L 72 90 L 73 90 L 73 76 L 82 76 L 82 90 L 83 90 L 83 76 L 94 76 L 94 75 L 83 75 L 83 66 L 94 66 L 94 65 L 83 65 L 83 56 L 94 56 L 94 55 L 83 55 L 83 46 L 94 46 L 94 45 L 83 45 L 83 36 L 94 36 L 94 35 L 83 35 L 83 26 L 94 26 L 94 25 L 83 25 L 83 16 L 94 16 L 94 15 L 83 15 L 83 6 L 94 6 L 94 5 L 83 5 L 83 1 L 82 1 L 82 5 L 73 5 L 73 1 L 72 1 L 72 5 L 63 5 L 63 1 L 62 1 L 62 5 L 53 5 L 53 1 L 52 1 L 52 5 L 43 5 L 43 1 L 42 1 L 42 5 L 33 5 L 33 1 L 32 1 L 32 5 L 23 5 L 23 1 L 22 1 L 22 5 L 13 5 L 13 1 L 12 1 z M 13 6 L 22 6 L 22 15 L 13 15 L 13 6 z M 23 6 L 32 6 L 32 15 L 23 15 L 23 6 z M 33 6 L 42 6 L 42 15 L 33 15 L 33 6 z M 43 6 L 52 6 L 52 15 L 43 15 L 43 6 z M 53 6 L 62 6 L 62 15 L 53 15 L 53 6 z M 63 6 L 72 6 L 72 15 L 63 15 L 63 6 z M 73 6 L 82 6 L 82 15 L 73 15 L 73 6 z M 13 16 L 22 16 L 22 25 L 13 25 L 13 16 z M 23 16 L 32 16 L 32 25 L 23 25 L 23 16 z M 33 16 L 42 16 L 42 25 L 33 25 L 33 16 z M 43 16 L 52 16 L 52 25 L 43 25 L 43 16 z M 53 16 L 62 16 L 62 25 L 53 25 L 53 16 z M 63 16 L 72 16 L 72 25 L 63 25 L 63 16 z M 73 16 L 82 16 L 82 25 L 73 25 L 73 16 z M 13 26 L 22 26 L 22 35 L 13 35 L 13 26 z M 23 26 L 32 26 L 32 35 L 23 35 L 23 26 z M 33 26 L 42 26 L 42 35 L 33 35 L 33 26 z M 43 26 L 52 26 L 52 35 L 43 35 L 43 26 z M 53 26 L 62 26 L 62 35 L 53 35 L 53 26 z M 63 26 L 72 26 L 72 35 L 63 35 L 63 26 z M 73 26 L 82 26 L 82 35 L 73 35 L 73 26 z M 13 36 L 22 36 L 22 45 L 13 45 L 13 36 z M 23 36 L 32 36 L 32 45 L 23 45 L 23 36 z M 33 36 L 42 36 L 42 45 L 33 45 L 33 36 z M 43 36 L 52 36 L 52 45 L 43 45 L 43 36 z M 53 36 L 62 36 L 62 45 L 53 45 L 53 36 z M 63 36 L 72 36 L 72 45 L 63 45 L 63 36 z M 73 36 L 82 36 L 82 45 L 73 45 L 73 36 z M 13 46 L 22 46 L 22 55 L 13 55 L 13 46 z M 23 46 L 32 46 L 32 55 L 23 55 L 23 46 z M 33 46 L 42 46 L 42 55 L 33 55 L 33 46 z M 43 46 L 52 46 L 52 55 L 43 55 L 43 46 z M 53 46 L 62 46 L 62 55 L 53 55 L 53 46 z M 63 46 L 72 46 L 72 55 L 63 55 L 63 46 z M 73 46 L 82 46 L 82 55 L 73 55 L 73 46 z M 13 56 L 22 56 L 22 65 L 13 65 L 13 56 z M 23 56 L 32 56 L 32 65 L 23 65 L 23 56 z M 33 56 L 42 56 L 42 65 L 33 65 L 33 56 z M 43 56 L 52 56 L 52 65 L 43 65 L 43 56 z M 53 56 L 62 56 L 62 65 L 53 65 L 53 56 z M 63 56 L 72 56 L 72 65 L 63 65 L 63 56 z M 73 56 L 82 56 L 82 65 L 73 65 L 73 56 z M 13 66 L 22 66 L 22 75 L 13 75 L 13 66 z M 23 66 L 32 66 L 32 75 L 23 75 L 23 66 z M 33 66 L 42 66 L 42 75 L 33 75 L 33 66 z M 43 66 L 52 66 L 52 75 L 43 75 L 43 66 z M 53 66 L 62 66 L 62 75 L 53 75 L 53 66 z M 63 66 L 72 66 L 72 75 L 63 75 L 63 66 z M 73 66 L 82 66 L 82 75 L 73 75 L 73 66 z "
       transform="translate(0,956.36218)"
       id="rect3950" />
    <path
       style="fill:#000000;fill-opacity:0.43378996;fill-rule:evenodd;stroke:none"
       d="m 61.5625,90 29.28125,0 c 0.872865,0 1.680432,-0.336682 2.25,-0.90625 C 93.663318,88.524182 94,87.716615 94,86.84375 L 94,20.125 83.65625,10.3125 31.9527,61.955239 z"
       id="rect3846"
       transform="translate(0,956.36218)"
       inkscape:connector-curvature="0"
       sodipodi:nodetypes="cssscccc" />
    <g
       id="g3041"
       transform="matrix(1.2660312,0,0,1.2660312,-7.079613,-290.09017)">
      <path
         sodipodi:nodetypes="ccccc"
         inkscape:connector-curvature="0"
         id="rect3766"
         d="m 45.684852,1029.5046 -0.310347,-5.1079 18.497473,-18.4975 2.709138,2.7092 z"
         style="fill:#002255;fill-opacity:1;fill-rule:nonzero;stroke:none" />
      <path
         inkscape:connector-curvature="0"
         id="path3769"
         d="m 39.969379,1018.9762 0.287262,5.1044 5.126559,0.3094 18.495262,-18.4953 -2.717977,-2.7179 -2.695844,-2.6959 -18.495262,18.4953 z"
         style="fill:#0055d4;fill-opacity:1;fill-rule:nonzero;stroke:none" />
      <path
         style="fill:#ffcc00;fill-opacity:1;fill-rule:nonzero;stroke:none"
         d="m 34.84837,1018.6682 5.107929,0.3103 18.497482,-18.4975 -2.709138,-2.70911 z"
         id="path3773"
         inkscape:connector-curvature="0"
         sodipodi:nodetypes="ccccc" />
      <path
         sodipodi:nodetypes="ccccccc"
         inkscape:connector-curvature="0"
         id="rect3777"
         d="m 45.684852,1029.5046 -0.310347,-5.1079 -5.107929,-0.3103 -0.310277,-5.1079 -5.107929,-0.3103 -4.015401,14.8475 z"
         style="fill:url(#linearGradient3027);fill-opacity:1;fill-rule:nonzero;stroke:none" />
      <path
         sodipodi:nodetypes="ccccc"
         inkscape:connector-curvature="0"
         id="path3782"
         d="m 34.84837,1018.6682 5.107929,0.3103 18.497482,-18.4975 -2.709138,-2.70911 z"
         style="fill:#5599ff;fill-opacity:1;fill-rule:nonzero;stroke:none" />
      <rect
         transform="matrix(0.70710678,0.70710678,0.70710678,-0.70710678,0,0)"
         y="-666.11383"
         x="744.94855"
         height="14.986588"
         width="15.325094"
         id="rect3784"
         style="fill:url(#linearGradient3023);fill-opacity:1;fill-rule:nonzero;stroke:none" />
      <rect
         transform="matrix(0.70710678,0.70710678,0.70710678,-0.70710678,0,0)"
         style="fill:url(#linearGradient3020);fill-opacity:1;fill-rule:nonzero;stroke:none"
         id="rect3786"
         width="15.325094"
         height="6.8015881"
         x="744.94855"
         y="-666.11383" />
      <path
         sodipodi:nodetypes="cccc"
         id="path3795"
         d="m 32.441298,1027.5728 -1.611663,5.9446 5.952026,-1.6042 z"
         style="fill:#4d4d4d;fill-opacity:1;fill-rule:nonzero;stroke:none"
         inkscape:connector-curvature="0" />
      <rect
         transform="matrix(-0.70710678,-0.70710678,0.70710678,-0.70710678,0,0)"
         y="-664.26935"
         x="-760.27368"
         height="3.1125743"
         width="15.325094"
         id="rect3797"
         style="fill:url(#linearGradient3016);fill-opacity:1;fill-rule:nonzero;stroke:none" />
      <g
         id="text3032"
         style="font-size:11px;font-style:normal;font-variant:normal;font-weight:normal;font-stretch:normal;text-align:end;line-height:125%;letter-spacing:0px;word-spacing:0px;text-anchor:end;fill:#ffffff;fill-opacity:1;stroke:none;font-family:mry_KacstQurn;-inkscape-font-specification:mry_KacstQurn"
         transform="matrix(0.43563257,-0.43563257,0.43563257,0.43563257,49.010103,948.32733)">
        <path
           inkscape:connector-curvature="0"
           id="path3037"
           style="font-weight:bold;fill:#ffffff;font-family:Open Sans;-inkscape-font-specification:Open Sans Bold"
           d="m -65.353737,80.683456 -5.489258,0 0,-1.154785 1.971192,-1.992676 c 0.583656,-0.597978 0.965003,-1.011551 1.144043,-1.240722 0.179032,-0.232743 0.307939,-0.447586 0.386718,-0.644531 0.07877,-0.196935 0.11816,-0.401037 0.118164,-0.612305 -4e-6,-0.315098 -0.08773,-0.549636 -0.263183,-0.703613 -0.171879,-0.153965 -0.402836,-0.230951 -0.692871,-0.230957 -0.304365,6e-6 -0.599775,0.06983 -0.886231,0.209472 -0.28646,0.139655 -0.585451,0.338385 -0.896972,0.596192 l -0.902344,-1.068848 c 0.386718,-0.32942 0.707193,-0.562167 0.961426,-0.698242 0.25423,-0.13606 0.531736,-0.239901 0.832519,-0.311524 0.300779,-0.07519 0.637367,-0.112785 1.009766,-0.112793 0.490556,8e-6 0.923824,0.08953 1.299805,0.268555 0.375971,0.179044 0.6678,0.429695 0.875488,0.751953 0.207677,0.322272 0.311518,0.691087 0.311523,1.106446 -5e-6,0.361659 -0.06446,0.701828 -0.193359,1.020507 -0.125331,0.315109 -0.322271,0.639165 -0.59082,0.972168 -0.264979,0.333012 -0.734054,0.807458 -1.407227,1.42334 l -1.009766,0.950684 0,0.0752 3.421387,0 0,1.396484" />
        <path
           inkscape:connector-curvature="0"
           id="path3039"
           style="font-weight:bold;fill:#ffffff;font-family:Open Sans;-inkscape-font-specification:Open Sans Bold"
           d="m -64.021706,72.830917 2.443848,0 c 1.113602,8e-6 1.921056,0.15935 2.422363,0.478028 0.504877,0.315111 0.757318,0.818203 0.757325,1.509277 -7e-6,0.469081 -0.11101,0.854009 -0.333008,1.154785 -0.218431,0.300786 -0.51026,0.481613 -0.875489,0.542481 l 0,0.05371 c 0.497716,0.111006 0.855788,0.318688 1.074219,0.623046 0.221999,0.304366 0.333001,0.708988 0.333008,1.213868 -7e-6,0.716147 -0.259609,1.27474 -0.778809,1.675781 -0.51563,0.401042 -1.217452,0.601562 -2.105468,0.601562 l -2.937989,0 0,-7.852539 m 1.665039,3.109864 0.966797,0 c 0.451168,4e-6 0.777014,-0.06982 0.977539,-0.209473 0.204097,-0.139643 0.306148,-0.3706 0.306153,-0.692871 -5e-6,-0.300775 -0.111008,-0.515619 -0.333008,-0.644531 -0.218429,-0.132481 -0.565759,-0.198724 -1.041992,-0.198731 l -0.875489,0 0,1.745606 m 0,1.321289 0,2.046386 1.084961,0 c 0.45833,2e-6 0.796708,-0.08773 1.015137,-0.263183 0.21842,-0.175454 0.327632,-0.444009 0.327637,-0.805664 -5e-6,-0.65169 -0.4655,-0.977536 -1.396485,-0.977539 l -1.03125,0" />
      </g>
    </g>
    <path
       style="fill:#000000;fill-opacity:0.38356168;fill-rule:nonzero;stroke:none"
       d="m 1,1042.3622 0.045976,2.7457 c 0.03024,1.8058 1.461916,3.2543 3.2852054,3.2543 l 86.3836136,0 c 1.823288,0 3.285205,-1.4481 3.285205,-3.2543 l -0.04598,-2.7457 z"
       id="rect3781"
       inkscape:connector-curvature="0"
       sodipodi:nodetypes="csssscc" />
    <rect
       style="fill:#ffffff;fill-opacity:0.30000001;fill-rule:nonzero;stroke:none"
       id="rect3770"
       width="92.954033"
       height="2.000005"
       x="1.045976"
       y="1040.3622" />
  </g>
</svg>
