<?xml version="1.0" encoding="UTF-8" standalone="no"?>
<!-- Created with Inkscape (http://www.inkscape.org/) -->

<svg
   xmlns:dc="http://purl.org/dc/elements/1.1/"
   xmlns:cc="http://creativecommons.org/ns#"
   xmlns:rdf="http://www.w3.org/1999/02/22-rdf-syntax-ns#"
   xmlns:svg="http://www.w3.org/2000/svg"
   xmlns="http://www.w3.org/2000/svg"
   xmlns:sodipodi="http://sodipodi.sourceforge.net/DTD/sodipodi-0.dtd"
   xmlns:inkscape="http://www.inkscape.org/namespaces/inkscape"
   width="96"
   height="96"
   id="svg2"
   version="1.1"
   inkscape:version="0.48.4 r9939"
   sodipodi:docname="intel-installer.svg">
  <defs
     id="defs4" />
  <sodipodi:namedview
     id="base"
     pagecolor="#ffffff"
     bordercolor="#666666"
     borderopacity="1.0"
     inkscape:pageopacity="0.0"
     inkscape:pageshadow="2"
     inkscape:zoom="5.90625"
     inkscape:cx="45.037037"
     inkscape:cy="58.649231"
     inkscape:document-units="px"
     inkscape:current-layer="layer1"
     showgrid="true"
     inkscape:snap-page="true"
     inkscape:snap-global="true"
     inkscape:snap-center="true"
     inkscape:snap-object-midpoints="false"
     showguides="true"
     inkscape:guide-bbox="true"
     inkscape:snap-bbox="true"
     inkscape:object-paths="true"
     inkscape:object-nodes="true"
     inkscape:window-width="1305"
     inkscape:window-height="744"
     inkscape:window-x="61"
     inkscape:window-y="24"
     inkscape:window-maximized="1"
     inkscape:snap-midpoints="false"
     inkscape:snap-grids="true"
     inkscape:snap-to-guides="false">
    <inkscape:grid
       type="xygrid"
       id="grid3002"
       empspacing="5"
       visible="true"
       enabled="true"
       snapvisiblegridlinesonly="true" />
  </sodipodi:namedview>
  <metadata
     id="metadata7">
    <rdf:RDF>
      <cc:Work
         rdf:about="">
        <dc:format>image/svg+xml</dc:format>
        <dc:type
           rdf:resource="http://purl.org/dc/dcmitype/StillImage" />
        <dc:title />
      </cc:Work>
    </rdf:RDF>
  </metadata>
  <g
     inkscape:label="Layer 1"
     inkscape:groupmode="layer"
     id="layer1"
     transform="translate(0,-956.36218)">
    <rect
       style="fill:#ffffff;fill-opacity:0;fill-rule:nonzero;stroke:none"
       id="rect3775"
       width="96"
       height="96"
       x="0"
       y="956.36218"
       ry="0" />
    <path
       style="fill:#000000;fill-opacity:0.09589041;fill-rule:nonzero;stroke:none"
       d="m 3.353015,956.30662 c -1.884176,0 -3.4111555,1.43156 -3.4111555,3.19799 l 0,83.65949 c 0,1.7665 1.5269795,3.1981 3.4111555,3.1981 l 89.23583,0 c 1.884174,0 3.411155,-1.4316 3.411155,-3.1981 l 0,-83.65949 c 0,-1.76643 -1.526981,-3.19799 -3.411155,-3.19799 z"
       id="rect3772"
       inkscape:connector-curvature="0"
       sodipodi:nodetypes="sssssssss" />
    <path
       style="fill:#000000;fill-opacity:0.18721463;fill-rule:nonzero;stroke:none"
       d="m 1.0459761,1041.8066 0,7.4219 c 0,1.7392 1.461916,3.1337 3.2852054,3.1337 l 86.3836135,0 c 1.823288,0 3.285205,-1.3945 3.285205,-3.1337 l 0,-7.4219 -92.9540239,0 z"
       id="rect3785"
       inkscape:connector-curvature="0" />
    <path
       style="fill:#000000;fill-opacity:0.38356168;fill-rule:nonzero;stroke:none"
       d="m 1.0459761,1041.8066 0,5.3807 c 0,1.762 1.461916,3.1749 3.2852054,3.1749 l 86.3836135,0 c 1.823288,0 3.285205,-1.4129 3.285205,-3.1749 l 0,-5.3807 -92.9540239,0 z"
       id="rect3783"
       inkscape:connector-curvature="0" />
    <rect
       style="fill:#008ed6;fill-opacity:1;fill-rule:nonzero;stroke:none"
       id="rect2985-2"
       width="93"
       height="88.999962"
       x="0.9999969"
       y="957.36224"
       ry="3.1511383" />
    <path
       style="fill:#000000;fill-opacity:0.38356168;fill-rule:nonzero;stroke:none"
       d="m 1,1042.3622 0.045976,2.7457 c 0.03024,1.8058 1.461916,3.2543 3.2852054,3.2543 l 86.3836136,0 c 1.823288,0 3.285205,-1.4481 3.285205,-3.2543 l -0.04598,-2.7457 z"
       id="rect3781"
       inkscape:connector-curvature="0"
       sodipodi:nodetypes="csssscc" />
    <rect
       style="fill:#ffffff;fill-opacity:0.30000001;fill-rule:nonzero;stroke:none"
       id="rect3770"
       width="92.954033"
       height="2.000005"
       x="1.045976"
       y="1040.3622" />
    <path
       style="fill:#ffffff;fill-opacity:1"
       d="m 55.900167,981.81238 c -7.99642,0.10664 -16.923256,2.41761 -24.117936,6.8122 l 0,1.11141 c 16.423402,-8.47737 39.727247,-8.42504 41.847905,3.71989 0.714551,4.02333 -1.53918,8.20852 -5.574594,10.61622 l 0,3.1518 c 4.857763,-1.7823 9.824867,-7.55186 8.386412,-14.62349 -1.521407,-7.41623 -10.26067,-10.92512 -20.541787,-10.78803 z m 7.169817,8.88076 0,13.31236 c 0,1.5632 0.744691,2.9222 2.973111,3.1378 l 0,-16.45016 -2.973111,0 z m 5.683271,0.0456 c -0.09065,0 -0.176102,0.009 -0.25945,0.0316 -0.08329,0.023 -0.161562,0.0566 -0.234911,0.0982 -0.07252,0.0417 -0.14002,0.0923 -0.199833,0.15079 -0.05978,0.0585 -0.111657,0.12441 -0.154202,0.19636 -0.04254,0.0709 -0.07468,0.1463 -0.09819,0.22789 -0.02352,0.0817 -0.035,0.1673 -0.035,0.25593 0,0.0887 0.01077,0.17341 0.035,0.25593 0.02352,0.0817 0.05547,0.15959 0.09819,0.23141 0.04255,0.0709 0.09442,0.13428 0.154202,0.19283 0.06068,0.0576 0.127274,0.10897 0.199833,0.15079 0.07252,0.0417 0.151509,0.075 0.234911,0.0982 0.08437,0.023 0.16964,0.0316 0.25945,0.0316 0.09065,0 0.179549,-0.009 0.26295,-0.0316 0.08419,-0.0232 0.16246,-0.0566 0.234893,-0.0982 0.07342,-0.0416 0.140918,-0.0932 0.199852,-0.15079 0.05978,-0.0585 0.108067,-0.12189 0.150791,-0.19283 0.04254,-0.0718 0.07809,-0.14971 0.101604,-0.23141 0.02352,-0.0826 0.035,-0.16731 0.035,-0.25593 0,-0.13302 -0.02549,-0.25893 -0.07719,-0.37515 -0.0508,-0.11704 -0.120632,-0.21809 -0.210353,-0.30503 -0.08886,-0.0869 -0.195902,-0.15635 -0.315548,-0.20685 -0.118658,-0.0506 -0.246201,-0.0736 -0.382147,-0.0736 z m 0,0.12619 c 0.07881,0 0.155279,0.007 0.227892,0.028 0.07342,0.0196 0.14343,0.0478 0.206852,0.0842 0.06337,0.0364 0.119197,0.0819 0.171794,0.1332 0.0526,0.0506 0.09963,0.10627 0.136789,0.1682 0.03716,0.0612 0.06427,0.12799 0.08419,0.19985 0.02082,0.0709 0.03159,0.14451 0.03159,0.22088 0,0.0772 -0.01077,0.15258 -0.03159,0.22439 -0.01993,0.0709 -0.04703,0.13768 -0.08419,0.19983 -0.03716,0.0621 -0.08419,0.11686 -0.136789,0.1682 -0.0526,0.0506 -0.108426,0.0933 -0.171794,0.12979 -0.06337,0.0355 -0.133378,0.0637 -0.206852,0.0842 -0.07252,0.0196 -0.148996,0.0316 -0.227892,0.0316 -0.11776,0 -0.22624,-0.0232 -0.329568,-0.0666 -0.103399,-0.0434 -0.195525,-0.1034 -0.27347,-0.1788 -0.07701,-0.0763 -0.136968,-0.16533 -0.182313,-0.26645 -0.04434,-0.10196 -0.0666,-0.20985 -0.0666,-0.32607 0,-0.11524 0.02226,-0.22492 0.0666,-0.32606 0.04524,-0.10107 0.105195,-0.18754 0.182313,-0.26295 0.07791,-0.0763 0.170179,-0.13536 0.27347,-0.1788 0.1034,-0.0443 0.211736,-0.0666 0.329568,-0.0666 z m -41.125671,0.2349 0,2.82937 2.973111,0 0,-2.82937 -2.973111,0 z m 40.736487,0.0492 0,1.1079 0.175384,0 0,-0.44876 0.217372,0 0.26997,0.44876 0.199834,0 -0.30151,-0.4663 c 0.07701,-0.0162 0.138584,-0.0546 0.185813,-0.10861 0.04721,-0.0549 0.07019,-0.12691 0.07019,-0.21739 0,-0.0984 -0.03285,-0.17556 -0.101604,-0.23139 -0.06804,-0.0558 -0.16587,-0.0842 -0.294509,-0.0842 l -0.420725,0 z m 0.175384,0.12979 0.231392,0 c 0.07342,0 0.12925,0.018 0.171794,0.049 0.04344,0.0319 0.0666,0.079 0.0666,0.1402 0,0.0666 -0.01795,0.11955 -0.05601,0.15779 -0.03806,0.0372 -0.09586,0.056 -0.168203,0.056 l -0.245412,0 0,-0.40321 z M 45,992.36218 l 0,11.54532 c 0,1.6609 1.020028,3.3413 3.432394,3.3413 l 1.738996,0 0,-2.4683 -1.199057,0 c -0.702972,0 -1.027263,-0.3725 -1.027263,-1.0518 l 0,-5.77441 2.22632,0 0,-2.39461 -2.22632,0 0,-3.1975 -2.94507,0 z m -19.472447,0.34711 c -4.760467,4.19013 -7.348092,9.48771 -5.855065,15.74551 1.904057,8.0305 12.053771,12.5786 27.54683,11.0652 6.134315,-0.5923 14.163999,-2.577 19.735415,-5.6518 l 0,-4.3685 c -5.063215,3.032 -13.43751,5.5387 -20.41559,6.1846 -11.349093,1.0503 -23.174146,-0.6017 -24.82965,-9.5048 -0.822151,-4.3841 1.178017,-9.03712 3.81806,-11.92407 l 0,-1.54614 z m 30.856509,2.65054 c -3.105143,0 -5.465881,2.17828 -5.465881,6.03397 0,4.5085 2.705403,6.0548 5.528998,6.0548 2.163812,0 3.385828,-0.701 4.554314,-1.8547 l -1.816114,-1.753 c -0.757365,0.749 -1.407812,1.1184 -2.717161,1.1184 -1.666221,0 -2.615503,-1.1175 -2.615503,-2.6329 l 7.485365,0 0,-1.066 c 0,-3.34892 -1.805667,-5.90057 -4.954018,-5.90057 z m -28.756406,0.19985 0,8.69142 c 0,1.5638 0.744512,2.9225 2.973111,3.1379 l 0,-11.82932 -2.973111,0 z m 5.602634,0 0,11.70672 2.941552,0 0,-9.31211 2.447192,0 c 0.86536,0 1.220095,0.42637 1.220095,1.12198 l 0,8.19013 2.955591,0 0,-8.20072 c 0,-1.66639 -0.888841,-3.506 -3.474473,-3.506 l -6.089957,0 z m 23.024056,2.24736 c 1.51473,0 2.087717,1.22489 2.152701,2.50346 l -4.554332,0 c 0.03213,-0.52354 0.0964,-0.84704 0.291008,-1.27283 0.324721,-0.70656 1.104686,-1.23063 2.110623,-1.23063 z"
       id="path6"
       inkscape:connector-curvature="0" />
  </g>
</svg>
