<?xml version="1.0" encoding="UTF-8" standalone="no"?>
<!-- Created with Inkscape (http://www.inkscape.org/) -->

<svg
   xmlns:dc="http://purl.org/dc/elements/1.1/"
   xmlns:cc="http://creativecommons.org/ns#"
   xmlns:rdf="http://www.w3.org/1999/02/22-rdf-syntax-ns#"
   xmlns:svg="http://www.w3.org/2000/svg"
   xmlns="http://www.w3.org/2000/svg"
   xmlns:sodipodi="http://sodipodi.sourceforge.net/DTD/sodipodi-0.dtd"
   xmlns:inkscape="http://www.inkscape.org/namespaces/inkscape"
   width="96"
   height="96"
   id="svg2"
   version="1.1"
   inkscape:version="0.48.4 r9939"
   sodipodi:docname="ipython.svg">
  <defs
     id="defs4" />
  <sodipodi:namedview
     id="base"
     pagecolor="#ffffff"
     bordercolor="#666666"
     borderopacity="1.0"
     inkscape:pageopacity="0.0"
     inkscape:pageshadow="2"
     inkscape:zoom="5.90625"
     inkscape:cx="22.010582"
     inkscape:cy="48"
     inkscape:document-units="px"
     inkscape:current-layer="layer1"
     showgrid="true"
     inkscape:snap-page="true"
     inkscape:snap-global="true"
     inkscape:snap-center="true"
     inkscape:snap-object-midpoints="false"
     showguides="true"
     inkscape:guide-bbox="true"
     inkscape:snap-bbox="true"
     inkscape:object-paths="true"
     inkscape:object-nodes="true"
     inkscape:window-width="1305"
     inkscape:window-height="744"
     inkscape:window-x="61"
     inkscape:window-y="24"
     inkscape:window-maximized="1"
     inkscape:snap-midpoints="false"
     inkscape:snap-grids="true"
     inkscape:snap-to-guides="false">
    <inkscape:grid
       type="xygrid"
       id="grid3002"
       empspacing="5"
       visible="true"
       enabled="true"
       snapvisiblegridlinesonly="true" />
  </sodipodi:namedview>
  <metadata
     id="metadata7">
    <rdf:RDF>
      <cc:Work
         rdf:about="">
        <dc:format>image/svg+xml</dc:format>
        <dc:type
           rdf:resource="http://purl.org/dc/dcmitype/StillImage" />
        <dc:title />
      </cc:Work>
    </rdf:RDF>
  </metadata>
  <g
     inkscape:label="Layer 1"
     inkscape:groupmode="layer"
     id="layer1"
     transform="translate(0,-956.36218)">
    <rect
       style="fill:#ffffff;fill-opacity:0;fill-rule:nonzero;stroke:none"
       id="rect3775"
       width="96"
       height="96"
       x="0"
       y="956.36218"
       ry="0" />
    <path
       style="fill:#000000;fill-opacity:0.09589041;fill-rule:nonzero;stroke:none"
       d="m 3.353015,956.30662 c -1.884176,0 -3.4111555,1.43156 -3.4111555,3.19799 l 0,83.65949 c 0,1.7665 1.5269795,3.1981 3.4111555,3.1981 l 89.23583,0 c 1.884174,0 3.411155,-1.4316 3.411155,-3.1981 l 0,-83.65949 c 0,-1.76643 -1.526981,-3.19799 -3.411155,-3.19799 z"
       id="rect3772"
       inkscape:connector-curvature="0"
       sodipodi:nodetypes="sssssssss" />
    <path
       style="fill:#000000;fill-opacity:0.18721463;fill-rule:nonzero;stroke:none"
       d="m 1.0459761,1041.8066 0,7.4219 c 0,1.7392 1.461916,3.1337 3.2852054,3.1337 l 86.3836135,0 c 1.823288,0 3.285205,-1.3945 3.285205,-3.1337 l 0,-7.4219 -92.9540239,0 z"
       id="rect3785"
       inkscape:connector-curvature="0" />
    <path
       style="fill:#000000;fill-opacity:0.38356168;fill-rule:nonzero;stroke:none"
       d="m 1.0459761,1041.8066 0,5.3807 c 0,1.762 1.461916,3.1749 3.2852054,3.1749 l 86.3836135,0 c 1.823288,0 3.285205,-1.4129 3.285205,-3.1749 l 0,-5.3807 -92.9540239,0 z"
       id="rect3783"
       inkscape:connector-curvature="0" />
    <rect
       style="fill:#1c1c1c;fill-opacity:1;fill-rule:nonzero;stroke:none"
       id="rect2985"
       width="92.954025"
       height="89"
       x="1.045977"
       y="-1046.3622"
       ry="3.1511393"
       transform="scale(1,-1)" />
    <path
       style="fill:#000000;fill-opacity:1;fill-rule:nonzero;stroke:none"
       d="m 1,1042.3622 0.045976,2.7457 c 0.03024,1.8058 1.461916,3.2543 3.2852054,3.2543 l 86.3836136,0 c 1.823288,0 3.285205,-1.4481 3.285205,-3.2543 l -0.04598,-2.7457 z"
       id="rect3781"
       inkscape:connector-curvature="0"
       sodipodi:nodetypes="csssscc" />
    <rect
       style="fill:#ffffff;fill-opacity:0.30000001;fill-rule:nonzero;stroke:none"
       id="rect3770"
       width="92.954033"
       height="2.000005"
       x="1.045976"
       y="1040.3622" />
    <path
       style="font-size:55.91333388999999698px;font-style:normal;font-variant:normal;font-weight:500;font-stretch:normal;text-align:end;line-height:125%;letter-spacing:0px;word-spacing:0px;text-anchor:end;fill:#ffc000;fill-opacity:1;stroke:none;font-family:Ubuntu;-inkscape-font-specification:Ubuntu Medium"
       d="M 38.84375 44 L 38.84375 48.5 L 33.90625 48.5 C 31.4545 48.5 29.33855 49.42325 27.5625 51.21875 C 25.78643 53.01415 24.90624 55.12275 24.90625 57.59375 C 24.90624 60.12275 25.78643 62.25515 27.5625 64.03125 C 29.33855 65.80725 31.49033 66.71875 34 66.71875 C 36.50963 66.71875 38.66142 65.8192 40.4375 64.0625 C 42.23284 62.2864 43.12498 60.18965 43.125 57.71875 L 43.125 52.78125 L 51.6875 52.78125 L 51.6875 57.71875 C 51.68747 60.18965 52.56765 62.2864 54.34375 64.0625 C 56.13908 65.8192 58.30281 66.71875 60.8125 66.71875 C 63.34141 66.71875 65.4932 65.80725 67.25 64.03125 C 69.02601 62.25515 69.9062 60.12275 69.90625 57.59375 C 69.9062 55.12275 69.02601 53.01415 67.25 51.21875 C 65.4932 49.42325 63.37725 48.5 60.90625 48.5 L 55.96875 48.5 L 55.96875 44 L 51.6875 44 L 51.6875 48.5 L 43.125 48.5 L 43.125 44 L 38.84375 44 z M 34.03125 52.78125 L 38.84375 52.78125 L 38.84375 57.59375 C 38.84373 58.90655 38.35218 60.054 37.40625 61 C 36.46029 61.9459 35.34397 62.40625 34.03125 62.40625 C 32.69919 62.40625 31.57093 61.9459 30.625 61 C 29.67904 60.054 29.18749 58.92585 29.1875 57.59375 C 29.18749 56.28105 29.67904 55.1334 30.625 54.1875 C 31.57093 53.2415 32.69919 52.78125 34.03125 52.78125 z M 55.96875 52.78125 L 60.8125 52.78125 C 62.1252 52.78125 63.24151 53.2415 64.1875 54.1875 C 65.1334 55.1334 65.62495 56.28105 65.625 57.59375 C 65.62495 58.92585 65.1334 60.054 64.1875 61 C 63.26081 61.9459 62.1445 62.40625 60.8125 62.40625 C 59.48041 62.40625 58.35215 61.9459 57.40625 61 C 56.46026 60.054 55.96871 58.90655 55.96875 57.59375 L 55.96875 52.78125 z "
       transform="translate(0,956.36218)"
       id="text3775" />
    <path
       style="fill:#4182b8;fill-opacity:1;fill-rule:evenodd;stroke:none"
       d="m 34,978.08093 c -1.254835,3e-5 -2.42634,0.21029 -3.5,0.65625 -1.07366,0.44596 -2.049475,1.11199 -2.9375,2 -0.888035,0.88805 -1.557945,1.86482 -2,2.9375 -0.442055,1.07268 -0.656255,2.2452 -0.65625,3.5 -5e-6,1.24519 0.214195,2.40485 0.65625,3.46875 0.442055,1.0639 1.111965,2.03984 2,2.9375 0.888025,0.8977 1.848788,1.57892 2.90625,2.03125 1.057462,0.45234 2.211625,0.65626 3.4375,0.65625 l 4.9375,0 0,4.09377 4.28125,0 0,-4.09377 8.5625,0 0,4.09377 4.28125,0 0,-4.09377 4.9375,0 c 1.2355,1e-5 2.380038,-0.20391 3.4375,-0.65625 1.057462,-0.45233 2.02785,-1.13355 2.90625,-2.03125 0.888005,-0.89766 1.557945,-1.8736 2,-2.9375 0.442055,-1.0639 0.656225,-2.22356 0.65625,-3.46875 -2.5e-5,-1.2548 -0.214195,-2.42732 -0.65625,-3.5 -0.442055,-1.07268 -1.111995,-2.04945 -2,-2.9375 -0.8784,-0.88801 -1.863839,-1.55404 -2.9375,-2 -1.073661,-0.44596 -2.235545,-0.65622 -3.5,-0.65625 -1.254845,3e-5 -2.42094,0.21029 -3.5,0.65625 -1.07906,0.44596 -2.071085,1.11199 -2.96875,2 -0.88805,0.8784 -1.557946,1.8527 -2,2.90625 -0.442054,1.05356 -0.656265,2.202 -0.65625,3.4375 l 0,4.90625 -8.5625,0 0,-4.90625 c -1e-5,-1.2355 -0.208795,-2.38394 -0.65625,-3.4375 -0.447455,-1.05355 -1.13358,-2.02785 -2.03125,-2.90625 -0.88804,-0.88801 -1.863839,-1.55404 -2.9375,-2 -1.073661,-0.44596 -2.245185,-0.65622 -3.5,-0.65625 z m 0,4.28125 c 0.666015,2e-5 1.276936,0.11043 1.84375,0.34375 0.566814,0.23332 1.08952,0.58955 1.5625,1.0625 0.472965,0.46334 0.821369,0.9923 1.0625,1.5625 0.241131,0.5702 0.37499,1.17775 0.375,1.84375 l 0,4.8125 -4.8125,0 c -0.66603,1e-5 -1.276936,-0.11043 -1.84375,-0.34375 -0.566814,-0.23332 -1.089535,-0.58951 -1.5625,-1.0625 -0.47298,-0.47296 -0.821369,-0.99471 -1.0625,-1.5625 -0.241131,-0.56779 -0.375005,-1.17771 -0.375,-1.84375 -5e-6,-0.666 0.133869,-1.27355 0.375,-1.84375 0.241131,-0.5702 0.58952,-1.09916 1.0625,-1.5625 0.472965,-0.47295 1.001086,-0.82918 1.5625,-1.0625 0.561414,-0.23332 1.15612,-0.34373 1.8125,-0.34375 z m 26.8125,0 c 0.666,2e-5 1.282336,0.11043 1.84375,0.34375 0.561414,0.23332 1.067905,0.58955 1.53125,1.0625 0.47295,0.46334 0.821369,0.9923 1.0625,1.5625 0.241131,0.5702 0.374975,1.17775 0.375,1.84375 -2.5e-5,0.66604 -0.133869,1.27596 -0.375,1.84375 -0.241131,0.56779 -0.58955,1.08954 -1.0625,1.5625 -0.472995,0.47299 -1.001086,0.82918 -1.5625,1.0625 -0.561414,0.23332 -1.15615,0.34376 -1.8125,0.34375 l -4.84375,0 0,-4.8125 c -2e-5,-0.666 0.133869,-1.27355 0.375,-1.84375 0.241131,-0.5702 0.589505,-1.09916 1.0625,-1.5625 0.47295,-0.47295 0.995686,-0.82918 1.5625,-1.0625 0.283407,-0.11666 0.56817,-0.1932 0.875,-0.25 0.30683,-0.0567 0.635728,-0.0937 0.96875,-0.0937 z"
       id="path3062"
       inkscape:connector-curvature="0" />
  </g>
</svg>
