<?xml version="1.0" encoding="UTF-8" standalone="no"?>
<!-- Created with Inkscape (http://www.inkscape.org/) -->

<svg
   xmlns:dc="http://purl.org/dc/elements/1.1/"
   xmlns:cc="http://creativecommons.org/ns#"
   xmlns:rdf="http://www.w3.org/1999/02/22-rdf-syntax-ns#"
   xmlns:svg="http://www.w3.org/2000/svg"
   xmlns="http://www.w3.org/2000/svg"
   xmlns:sodipodi="http://sodipodi.sourceforge.net/DTD/sodipodi-0.dtd"
   xmlns:inkscape="http://www.inkscape.org/namespaces/inkscape"
   width="96"
   height="96"
   id="svg2"
   version="1.1"
   inkscape:version="0.48.4 r9939"
   sodipodi:docname="kanagram.svg">
  <defs
     id="defs4" />
  <sodipodi:namedview
     id="base"
     pagecolor="#ffffff"
     bordercolor="#666666"
     borderopacity="1.0"
     inkscape:pageopacity="0.0"
     inkscape:pageshadow="2"
     inkscape:zoom="5.90625"
     inkscape:cx="50.549902"
     inkscape:cy="48"
     inkscape:document-units="px"
     inkscape:current-layer="layer1"
     showgrid="true"
     inkscape:snap-page="true"
     inkscape:snap-global="false"
     inkscape:snap-center="true"
     inkscape:snap-object-midpoints="false"
     showguides="true"
     inkscape:guide-bbox="true"
     inkscape:snap-bbox="true"
     inkscape:object-paths="true"
     inkscape:object-nodes="true"
     inkscape:window-width="1305"
     inkscape:window-height="744"
     inkscape:window-x="61"
     inkscape:window-y="24"
     inkscape:window-maximized="1"
     inkscape:snap-midpoints="true"
     inkscape:snap-grids="true"
     inkscape:snap-to-guides="false">
    <inkscape:grid
       type="xygrid"
       id="grid3002"
       empspacing="5"
       visible="true"
       enabled="true"
       snapvisiblegridlinesonly="true" />
  </sodipodi:namedview>
  <metadata
     id="metadata7">
    <rdf:RDF>
      <cc:Work
         rdf:about="">
        <dc:format>image/svg+xml</dc:format>
        <dc:type
           rdf:resource="http://purl.org/dc/dcmitype/StillImage" />
        <dc:title />
      </cc:Work>
    </rdf:RDF>
  </metadata>
  <g
     inkscape:label="Layer 1"
     inkscape:groupmode="layer"
     id="layer1"
     transform="translate(0,-956.36218)">
    <rect
       style="fill:#ffffff;fill-opacity:0;fill-rule:nonzero;stroke:none"
       id="rect3775"
       width="96"
       height="96"
       x="0"
       y="956.36218"
       ry="0" />
    <path
       style="fill:#000000;fill-opacity:0.09589041;fill-rule:nonzero;stroke:none"
       d="m 3.353015,956.30662 c -1.884176,0 -3.4111555,1.43156 -3.4111555,3.19799 l 0,83.65949 c 0,1.7665 1.5269795,3.1981 3.4111555,3.1981 l 89.23583,0 c 1.884174,0 3.411155,-1.4316 3.411155,-3.1981 l 0,-83.65949 c 0,-1.76643 -1.526981,-3.19799 -3.411155,-3.19799 z"
       id="rect3772"
       inkscape:connector-curvature="0"
       sodipodi:nodetypes="sssssssss" />
    <path
       style="fill:#000000;fill-opacity:0.18721463;fill-rule:nonzero;stroke:none"
       d="m 1.0459761,1041.8066 0,7.4219 c 0,1.7392 1.461916,3.1337 3.2852054,3.1337 l 86.3836135,0 c 1.823288,0 3.285205,-1.3945 3.285205,-3.1337 l 0,-7.4219 -92.9540239,0 z"
       id="rect3785"
       inkscape:connector-curvature="0" />
    <path
       style="fill:#000000;fill-opacity:0.38356168;fill-rule:nonzero;stroke:none"
       d="m 1.0459761,1041.8066 0,5.3807 c 0,1.762 1.461916,3.1749 3.2852054,3.1749 l 86.3836135,0 c 1.823288,0 3.285205,-1.4129 3.285205,-3.1749 l 0,-5.3807 -92.9540239,0 z"
       id="rect3783"
       inkscape:connector-curvature="0" />
    <rect
       style="fill:#b35900;fill-opacity:1;fill-rule:nonzero;stroke:none"
       id="rect2985-4"
       width="93"
       height="89.000008"
       x="1"
       y="957.36212"
       ry="3.1511397" />
    <path
       inkscape:connector-curvature="0"
       style="font-size:medium;font-style:normal;font-variant:normal;font-weight:normal;font-stretch:normal;text-indent:0;text-align:start;text-decoration:none;line-height:normal;letter-spacing:normal;word-spacing:normal;text-transform:none;direction:ltr;block-progression:tb;writing-mode:lr-tb;text-anchor:start;baseline-shift:baseline;color:#000000;fill:#000000;fill-opacity:0.36529685;stroke:none;stroke-width:3;marker:none;visibility:visible;display:inline;overflow:visible;enable-background:accumulate;font-family:Sans;-inkscape-font-specification:Sans"
       d="m 3.6294646,957.627 c -0.608974,0.1238 -1.2345159,0.23292 -1.6607146,0.60645 -0.4261988,0.37353 -0.5507133,0.92176 -0.6919645,1.45548 l 43.8705365,38.4488 -43.8705365,38.44887 c 0.1412512,0.5337 0.2657657,1.0819 0.6919645,1.4555 0.4261987,0.3735 1.0517406,0.4826 1.6607146,0.6065 l 43.8705364,-38.4489 43.870537,38.4489 c 0.608974,-0.1239 1.234515,-0.233 1.660715,-0.6065 0.4262,-0.3736 0.550713,-0.9218 0.691964,-1.4555 L 49.85268,998.13773 93.723217,959.68893 c -0.141251,-0.53372 -0.265764,-1.08195 -0.691964,-1.45548 -0.4262,-0.37353 -1.051741,-0.48265 -1.660715,-0.60645 L 47.500001,996.07583 3.6294646,957.627 z"
       id="path3811" />
    <path
       inkscape:connector-curvature="0"
       style="fill:#1b1b1b;fill-opacity:1;fill-rule:nonzero;stroke:none"
       d="m 7.7120537,963.78548 0,68.57672 79.5758953,0 0,-68.57672 -79.5758953,0 z"
       id="path3796" />
    <path
       style="fill:#000000;fill-opacity:0.38356168;fill-rule:nonzero;stroke:none"
       d="m 1,1042.3622 0.045976,2.7457 c 0.03024,1.8058 1.461916,3.2543 3.2852054,3.2543 l 86.3836136,0 c 1.823288,0 3.285205,-1.4481 3.285205,-3.2543 l -0.04598,-2.7457 z"
       id="rect3781"
       inkscape:connector-curvature="0"
       sodipodi:nodetypes="csssscc" />
    <rect
       style="fill:#ffffff;fill-opacity:0.30000001;fill-rule:nonzero;stroke:none"
       id="rect3770"
       width="92.954033"
       height="2.000005"
       x="1.045976"
       y="1040.3622" />
    <rect
       style="fill:#060000;fill-opacity:0.41095892;fill-rule:nonzero;stroke:none"
       id="rect3055"
       width="79.575897"
       height="6.2856951"
       x="7.7120538"
       y="963.78546" />
    <rect
       y="963.78546"
       x="7.7120538"
       height="3.0687637"
       width="79.575897"
       id="rect3825"
       style="fill:#060000;fill-opacity:0.41095892;fill-rule:nonzero;stroke:none" />
    <rect
       style="fill:#ffffff;fill-opacity:0.18264841;fill-rule:nonzero;stroke:none"
       id="rect3827"
       width="79.575897"
       height="1.8835815"
       x="7.7120538"
       y="1032.1876" />
    <path
       style="font-size:23.57718467999999845px;font-style:normal;font-variant:normal;font-weight:normal;font-stretch:normal;text-align:end;line-height:87.99999952000000292%;letter-spacing:0px;word-spacing:0px;text-anchor:end;fill:#fff6f6;fill-opacity:0.57990867;stroke:none;font-family:Andale Mono;-inkscape-font-specification:Andale Mono"
       d="M 23.25 19.34375 C 23.116282 19.343771 23.011784 19.371005 22.9375 19.4375 C 22.863212 19.504036 22.810962 19.644224 22.78125 19.84375 C 22.751533 20.043317 22.702355 20.223352 22.6875 20.40625 L 22.6875 21.3125 L 22.6875 21.59375 C 22.687498 26.083568 22.844246 30.587326 23.15625 35.09375 C 23.171105 35.359817 23.205426 35.736516 23.25 36.21875 C 23.413427 38.596685 23.570175 40.118102 23.71875 40.75 C 23.882176 41.398526 24.229993 41.718748 24.75 41.71875 C 25.136283 41.718748 25.343745 41.216483 25.34375 40.21875 C 25.343745 39.47045 25.242318 38.411451 25.09375 37.03125 C 24.960031 35.634426 24.906246 34.839173 24.90625 34.65625 C 24.906246 34.223904 24.976423 34.000006 25.125 34 C 25.273568 34.000006 26.300627 34.544127 28.1875 35.625 C 30.074358 36.689253 31.503019 37.538975 32.46875 38.1875 C 32.929312 38.486822 33.662338 38.834279 34.6875 39.25 C 35.712633 39.665723 36.373947 39.875 36.65625 39.875 C 36.804806 39.875 36.874984 39.7222 36.875 39.40625 C 36.874984 39.156817 36.57788 38.738263 35.96875 38.15625 C 35.374446 37.557612 34.923666 37.281253 34.65625 37.28125 C 34.552235 37.281253 34.447737 37.23739 34.34375 37.1875 C 34.239736 37.137616 34.081452 37.041292 33.84375 36.875 C 33.606021 36.708714 33.343239 36.497429 33.03125 36.28125 C 32.719236 36.048449 32.198278 35.744856 31.5 35.3125 C 30.8017 34.863525 30.034352 34.359252 29.1875 33.84375 C 26.676623 32.313898 25.406245 31.520653 25.40625 31.4375 C 25.406245 30.905384 26.484018 29.455065 28.59375 27.09375 C 30.703466 24.732461 32.082949 23.434942 32.78125 23.21875 C 33.152668 23.085736 33.428772 22.960169 33.5625 22.84375 C 33.711059 22.727365 33.781237 22.574564 33.78125 22.375 C 33.781237 22.059069 33.693131 21.807936 33.5 21.625 C 33.321701 21.425472 33.09631 21.343769 32.84375 21.34375 C 32.561451 21.343769 32.264347 21.496569 31.9375 21.8125 C 31.61063 22.128467 31.334526 22.281268 31.15625 22.28125 C 30.977953 22.281268 30.713635 22.505166 30.3125 22.9375 C 29.926203 23.369868 29.615778 23.562516 29.4375 23.5625 C 29.214633 23.562516 28.377108 24.441481 26.90625 26.1875 L 24.71875 28.8125 L 24.53125 27.40625 C 24.397531 26.475045 24.312496 25.125066 24.3125 23.3125 C 24.282782 21.499968 24.178283 20.367863 24 19.96875 C 23.791996 19.536419 23.561999 19.343771 23.25 19.34375 z M 53.625 25.71875 C 53.327853 25.718764 53.187497 25.997131 53.1875 26.5625 C 53.187497 27.260927 53.29046 28.587687 53.46875 30.5 C 53.647033 32.345816 53.770996 34.156205 53.875 35.96875 C 53.978997 37.764674 54.065567 38.978482 54.125 39.59375 C 54.184425 40.19239 54.305317 40.567082 54.46875 40.75 C 54.691604 41.03269 54.849888 41.187499 54.96875 41.1875 C 55.043031 41.187499 55.149066 40.352398 55.3125 38.65625 C 55.416496 37.558745 55.570173 36.694402 55.71875 36.0625 C 55.882174 35.413977 56.16442 34.478537 56.625 33.28125 C 57.115282 31.967575 57.72281 30.711912 58.40625 29.53125 C 59.089674 28.333981 59.594239 27.750012 59.90625 27.75 C 60.054813 27.750012 60.211561 27.860958 60.375 28.09375 C 60.538419 28.326566 60.644454 28.533836 60.71875 28.75 C 60.852455 29.132476 60.973346 30.01144 61.0625 31.375 C 61.16649 32.721949 61.218739 34.117799 61.21875 35.53125 C 61.218739 36.096637 61.185954 36.793558 61.15625 37.625 C 61.126525 38.439818 61.124989 38.969318 61.125 39.21875 C 61.124989 39.667731 61.142918 39.946098 61.1875 40.0625 C 61.232061 40.195531 61.335024 40.25 61.46875 40.25 C 61.706454 40.233371 61.848345 40.193523 61.9375 40.09375 C 62.041489 40.010606 62.111667 39.772086 62.15625 39.40625 C 62.215667 39.023786 62.249988 38.425197 62.25 37.59375 C 62.249988 37.261175 62.248453 36.202176 62.21875 34.40625 C 62.174167 31.612602 62.103989 29.842061 62 29.09375 C 61.895988 28.345461 61.616813 27.577442 61.15625 26.8125 C 60.814523 26.230502 60.448778 25.937514 60.0625 25.9375 C 59.468202 25.937514 58.615819 26.789244 57.53125 28.46875 C 56.996383 29.333464 56.614245 30.001143 56.40625 30.5 C 56.198243 30.982247 55.953389 31.777501 55.65625 32.875 C 55.463101 33.556792 55.306353 34.088299 55.1875 34.4375 C 55.083495 34.770083 55.014853 34.922884 55 34.90625 C 54.985138 34.872997 54.82839 33.506389 54.53125 30.8125 C 54.29353 28.40132 54.15164 26.951001 54.0625 26.46875 C 53.973353 25.969897 53.81814 25.718764 53.625 25.71875 z M 45.875 26.375 C 45.325275 26.375014 44.646034 26.557057 43.84375 26.90625 C 43.502028 27.072552 43.069176 27.237966 42.59375 27.4375 C 42.118315 27.62043 41.785355 27.775239 41.5625 27.875 C 41.354495 27.974786 41.143962 28.100352 40.90625 28.25 C 40.668532 28.399672 40.495391 28.552472 40.40625 28.71875 C 40.317104 28.88505 40.281248 29.079706 40.28125 29.3125 C 40.281248 29.4788 40.352961 29.562511 40.53125 29.5625 C 40.798677 29.562511 41.249458 29.40971 41.84375 29.09375 C 42.438035 28.761183 43.086026 28.440961 43.84375 28.125 C 44.616319 27.809063 45.34781 27.656262 46.03125 27.65625 C 46.566102 27.656262 46.982561 28.072809 47.25 28.9375 C 47.532278 29.802213 47.65624 31.334235 47.65625 33.5625 C 47.65624 33.928342 47.621919 34.125006 47.5625 34.125 C 47.547633 34.125006 47.441599 34.041295 47.21875 33.875 C 46.995883 33.692088 46.87192 33.593756 46.8125 33.59375 C 46.738205 33.593756 46.618849 33.539288 46.5 33.40625 C 46.381134 33.256597 46.206457 33.101788 45.96875 32.96875 C 45.731027 32.835726 45.450316 32.781257 45.09375 32.78125 C 44.217167 32.781257 43.311 33.072237 42.375 33.6875 C 41.513277 34.219631 40.904213 34.765759 40.5625 35.28125 C 40.235639 35.780121 40.062498 36.36409 40.0625 37.0625 C 40.062498 37.528112 40.114747 37.988522 40.21875 38.4375 C 40.337605 38.886482 40.492818 39.194091 40.65625 39.34375 C 40.879105 39.526668 41.228458 39.708711 41.71875 39.875 C 42.223891 40.02466 42.659815 40.09375 43.03125 40.09375 C 43.640391 40.09375 44.38981 39.773528 45.28125 39.125 C 46.187533 38.459845 46.796597 37.830006 47.09375 37.28125 C 47.182884 37.098335 47.236669 37.031253 47.28125 37.03125 C 47.296098 37.031253 47.399061 37.560753 47.5625 38.625 C 47.72592 39.672621 47.952846 40.1875 48.25 40.1875 C 48.339133 40.1875 48.477953 40.047312 48.65625 39.78125 C 48.849383 39.515188 48.937489 39.264055 48.9375 39.03125 L 48.90625 38.71875 C 48.876525 38.485947 48.842204 37.941826 48.8125 37.09375 C 48.782775 36.229051 48.764846 35.170052 48.75 33.90625 C 48.720275 31.644727 48.669561 30.263498 48.625 29.78125 C 48.580418 29.282394 48.42367 28.738273 48.15625 28.15625 C 47.606523 26.958982 46.855568 26.375014 45.875 26.375 z M 72.0625 26.375 C 71.512775 26.375014 70.833534 26.557057 70.03125 26.90625 C 69.689528 27.072552 69.287926 27.237966 68.8125 27.4375 C 68.337065 27.62043 67.972855 27.775239 67.75 27.875 C 67.541995 27.974786 67.331462 28.100352 67.09375 28.25 C 66.856032 28.399672 66.682891 28.552472 66.59375 28.71875 C 66.504604 28.88505 66.468748 29.079706 66.46875 29.3125 C 66.468748 29.4788 66.571711 29.562511 66.75 29.5625 C 67.017427 29.562511 67.436958 29.40971 68.03125 29.09375 C 68.625535 28.761183 69.304776 28.440961 70.0625 28.125 C 70.835069 27.809063 71.56656 27.656262 72.25 27.65625 C 72.784852 27.656262 73.170061 28.072809 73.4375 28.9375 C 73.719778 29.802213 73.87499 31.334235 73.875 33.5625 C 73.87499 33.928342 73.840669 34.125006 73.78125 34.125 C 73.766383 34.125006 73.660349 34.041295 73.4375 33.875 C 73.214633 33.692088 73.05942 33.593756 73 33.59375 C 72.925705 33.593756 72.837599 33.539288 72.71875 33.40625 C 72.599884 33.256597 72.425207 33.101788 72.1875 32.96875 C 71.949777 32.835726 71.637816 32.781257 71.28125 32.78125 C 70.404667 32.781257 69.4985 33.072237 68.5625 33.6875 C 67.700777 34.219631 67.091713 34.765759 66.75 35.28125 C 66.423139 35.780121 66.281248 36.36409 66.28125 37.0625 C 66.281248 37.528112 66.333497 37.988522 66.4375 38.4375 C 66.556355 38.886482 66.680318 39.194091 66.84375 39.34375 C 67.066605 39.526668 67.415958 39.708711 67.90625 39.875 C 68.411391 40.02466 68.878565 40.09375 69.25 40.09375 C 69.859141 40.09375 70.60856 39.773528 71.5 39.125 C 72.406283 38.459845 72.984097 37.830006 73.28125 37.28125 C 73.370384 37.098335 73.455419 37.031253 73.5 37.03125 C 73.514848 37.031253 73.586561 37.560753 73.75 38.625 C 73.91342 39.672621 74.140346 40.1875 74.4375 40.1875 C 74.526633 40.1875 74.665453 40.047312 74.84375 39.78125 C 75.036883 39.515188 75.156239 39.264055 75.15625 39.03125 L 75.09375 38.71875 C 75.064025 38.485947 75.029704 37.941826 75 37.09375 C 74.970275 36.229051 74.952346 35.170052 74.9375 33.90625 C 74.907775 31.644727 74.888311 30.263498 74.84375 29.78125 C 74.799168 29.282394 74.64242 28.738273 74.375 28.15625 C 73.825273 26.958982 73.043068 26.375014 72.0625 26.375 z M 44.625 34.0625 C 44.996424 34.062506 45.327848 34.104361 45.625 34.1875 C 45.922137 34.254021 46.180312 34.352353 46.34375 34.46875 C 46.522028 34.568529 46.645991 34.679474 46.75 34.8125 C 46.868849 34.928907 46.939027 35.056482 46.96875 35.15625 C 47.013313 35.239399 47.031241 35.308489 47.03125 35.375 C 47.031241 35.59118 46.804315 35.953258 46.34375 36.46875 C 45.898025 36.96762 45.687492 37.273222 45.6875 37.40625 C 45.687492 37.58917 45.320211 37.89678 44.5625 38.3125 C 43.819633 38.711595 43.19264 38.906251 42.6875 38.90625 C 42.420065 38.906251 42.108105 38.839169 41.78125 38.65625 C 41.513816 38.489963 41.355533 38.305912 41.28125 38.15625 C 41.221818 38.006592 41.187497 37.728225 41.1875 37.3125 C 41.187497 37.063069 41.239746 36.784702 41.34375 36.46875 C 41.462604 36.136176 41.637281 35.788719 41.875 35.40625 C 42.112711 35.02379 42.462064 34.686939 42.9375 34.4375 C 43.427783 34.188072 43.986133 34.062506 44.625 34.0625 z M 70.84375 34.0625 C 71.215174 34.062506 71.546598 34.104361 71.84375 34.1875 C 72.140887 34.254021 72.367812 34.352353 72.53125 34.46875 C 72.709528 34.568529 72.864741 34.679474 72.96875 34.8125 C 73.087599 34.928907 73.157777 35.056482 73.1875 35.15625 C 73.232063 35.239399 73.249991 35.308489 73.25 35.375 C 73.249991 35.59118 73.023065 35.953258 72.5625 36.46875 C 72.116775 36.96762 71.874992 37.273222 71.875 37.40625 C 71.874992 37.58917 71.507711 37.89678 70.75 38.3125 C 70.007133 38.711595 69.38014 38.906251 68.875 38.90625 C 68.607565 38.906251 68.326855 38.839169 68 38.65625 C 67.732566 38.489963 67.543033 38.305912 67.46875 38.15625 C 67.409318 38.006592 67.374997 37.728225 67.375 37.3125 C 67.374997 37.063069 67.427246 36.784702 67.53125 36.46875 C 67.650104 36.136176 67.824781 35.788719 68.0625 35.40625 C 68.300211 35.02379 68.680814 34.686939 69.15625 34.4375 C 69.646533 34.188072 70.204883 34.062506 70.84375 34.0625 z M 29.125 43.03125 C 28.515843 43.031269 28.117312 43.186077 27.96875 43.46875 C 27.879597 43.635057 27.651136 43.829714 27.25 44.0625 C 26.863703 44.278694 26.42778 44.500584 25.9375 44.75 C 25.462061 44.999451 24.887318 45.45986 24.21875 46.125 C 23.550169 46.790171 22.93957 47.600046 22.375 48.53125 C 21.572706 49.861575 21.001034 50.891331 20.71875 51.65625 C 20.451318 52.421189 20.24232 53.482196 20.09375 54.8125 C 20.004605 55.627323 19.968748 56.282389 19.96875 56.78125 C 19.968748 57.496297 20.08964 58.291551 20.3125 59.15625 C 20.505642 59.971068 20.696711 60.542423 20.875 60.875 C 21.068141 61.19095 21.363709 61.454696 21.75 61.6875 C 22.255142 62.003449 22.795563 62.15625 23.375 62.15625 C 24.370428 62.15625 25.399022 61.739703 26.46875 60.875 C 27.538461 59.99367 28.496878 58.75062 29.34375 57.1875 L 30.0625 55.875 L 30.0625 58.71875 C 30.062488 60.56456 30.202843 61.652801 30.5 61.96875 C 30.663417 62.135039 30.820165 62.21875 30.96875 62.21875 C 31.117309 62.21875 31.256129 62.147652 31.375 62.03125 C 31.642417 61.831703 31.749986 61.191259 31.75 60.09375 C 31.749986 57.998512 31.643952 56.14426 31.40625 54.53125 C 31.183379 52.918255 30.868347 51.899104 30.4375 51.5 C 30.184915 51.267206 29.662421 51.074558 28.875 50.875 C 28.087557 50.675464 27.391922 50.562511 26.8125 50.5625 C 26.366775 50.562511 26.105528 50.61698 26.03125 50.75 C 25.956956 50.899671 25.78228 51.025238 25.5 51.125 C 25.217706 51.224784 24.972852 51.350351 24.75 51.5 C 24.527135 51.64967 24.406244 51.873569 24.40625 52.15625 C 24.406244 52.60524 24.633169 52.925462 25.09375 53.125 C 25.554317 53.324556 26.024561 53.437509 26.5 53.4375 C 26.945708 53.437509 27.275597 53.353798 27.46875 53.1875 C 27.676742 53.004591 27.849882 52.906259 27.96875 52.90625 C 28.161884 52.906259 28.321703 53.002583 28.5 53.21875 C 28.693133 53.418305 28.812489 53.671446 28.8125 53.9375 C 28.812489 54.369859 28.622956 54.981062 28.28125 55.8125 C 27.939524 56.643951 27.537922 57.441212 27.0625 58.15625 C 26.096772 59.586338 24.860716 60.281252 23.375 60.28125 C 22.676706 60.281252 22.221319 59.988264 21.96875 59.40625 C 21.716174 58.807613 21.593747 57.692137 21.59375 56.0625 C 21.593747 54.931742 21.645996 54.138496 21.75 53.65625 C 21.853997 53.174021 22.116779 52.464486 22.5625 51.5 C 23.052783 50.435762 23.609598 49.487708 24.21875 48.65625 C 24.82789 47.80819 25.38624 47.153124 25.90625 46.6875 C 26.441102 46.221906 26.979988 45.815965 27.5 45.5 C 28.03485 45.184068 28.470773 44.97479 28.8125 44.875 C 29.154205 44.775244 29.43338 44.718767 29.65625 44.71875 C 29.879097 44.718767 30.020987 44.913423 30.125 45.3125 C 30.228988 45.694981 30.367808 45.906266 30.53125 45.90625 C 30.724381 45.906266 30.91545 45.694981 31.09375 45.3125 C 31.272024 44.913423 31.374987 44.637064 31.375 44.4375 C 31.374987 44.121569 31.149596 43.799338 30.71875 43.5 C 30.302735 43.18407 29.778706 43.031269 29.125 43.03125 z M 61.34375 48.03125 C 61.106031 48.031264 60.999997 48.504287 61 49.46875 C 60.999997 49.917743 61.052246 50.949507 61.15625 52.5625 C 61.275104 54.175512 61.312496 55.946053 61.3125 57.875 C 61.312496 60.269564 61.36321 61.858063 61.4375 62.65625 C 61.52664 63.454436 61.69978 63.843748 61.9375 63.84375 C 62.115782 63.843748 62.221817 63.762045 62.28125 63.5625 C 62.370389 63.329694 62.439031 62.367019 62.46875 60.6875 C 62.513317 58.891581 62.568637 57.761485 62.6875 57.3125 C 62.82121 56.846896 62.906245 56.44497 62.90625 56.0625 C 62.906245 55.413979 63.045065 54.687816 63.3125 53.90625 C 63.891926 52.293256 64.309921 51.190394 64.5625 50.625 C 64.815066 50.043 65.041992 49.781262 65.25 49.78125 C 65.428279 49.781262 65.707454 50.072242 66.09375 50.6875 C 66.613744 51.568842 66.963097 52.558752 67.15625 53.65625 C 67.349384 54.737136 67.48974 56.618623 67.59375 59.3125 C 67.653169 60.775845 67.705418 61.667422 67.75 62 C 67.809419 62.349207 67.946703 62.531249 68.125 62.53125 C 68.273562 62.531249 68.378061 62.46216 68.4375 62.3125 C 68.511775 62.16284 68.547632 61.884473 68.5625 61.46875 C 68.636775 59.739346 68.862166 58.008652 69.21875 56.3125 C 69.575312 54.616359 70.011235 53.180661 70.53125 52 C 71.15524 50.569926 71.644948 49.875012 72.03125 49.875 C 72.744382 49.875012 73.124985 52.480654 73.125 57.71875 C 73.139842 59.863881 73.15777 61.159391 73.1875 61.625 C 73.217199 62.090609 73.303769 62.34375 73.4375 62.34375 C 73.496913 62.34375 73.549163 62.329129 73.59375 62.3125 C 73.712592 62.295871 73.767912 62.239394 73.8125 62.15625 C 73.857056 62.089734 73.924162 61.853223 73.96875 61.4375 C 74.028163 61.005149 74.047626 60.322849 74.0625 59.375 C 74.077341 58.427156 74.093734 57.08979 74.09375 55.34375 C 74.093734 53.015712 74.008699 51.494296 73.875 50.8125 C 73.741269 50.08084 73.530736 49.496872 73.21875 49.03125 C 72.906733 48.549025 72.558916 48.281264 72.1875 48.28125 C 71.593197 48.281264 70.948276 48.827392 70.25 49.875 C 69.551699 50.922632 69.027669 52.147045 68.65625 53.59375 L 68.28125 55.09375 L 67.90625 52.75 C 67.757668 51.735647 67.633705 51.038726 67.5 50.65625 C 67.381133 50.257168 67.137814 49.840622 66.78125 49.375 C 66.231524 48.65997 65.741816 48.281264 65.28125 48.28125 C 64.865241 48.281264 64.569673 48.364975 64.40625 48.53125 C 64.242814 48.680923 63.999496 49.12872 63.6875 49.84375 C 63.434922 50.442402 63.242317 50.846335 63.09375 51.0625 C 63.034316 51.129027 62.932888 51.296448 62.84375 51.5625 C 62.754602 51.811944 62.699281 52.033834 62.625 52.25 C 62.550709 52.449556 62.49846 52.562509 62.46875 52.5625 C 62.379602 52.562509 62.206461 51.794491 61.96875 50.28125 C 61.745888 48.768033 61.53689 48.031264 61.34375 48.03125 z M 53.25 48.3125 C 52.700275 48.312514 52.021034 48.494557 51.21875 48.84375 C 50.877028 49.010052 50.475426 49.206716 50 49.40625 C 49.524565 49.58918 49.191605 49.712739 48.96875 49.8125 C 48.760745 49.912286 48.518962 50.037852 48.28125 50.1875 C 48.043532 50.337172 47.901641 50.489972 47.8125 50.65625 C 47.723354 50.82255 47.656248 51.017206 47.65625 51.25 C 47.656248 51.4163 47.759211 51.500011 47.9375 51.5 C 48.204927 51.500011 48.624458 51.34721 49.21875 51.03125 C 49.813035 50.698683 50.492276 50.378461 51.25 50.0625 C 52.022569 49.746563 52.75406 49.593762 53.4375 49.59375 C 53.972352 49.593762 54.388811 50.010309 54.65625 50.875 C 54.938528 51.739713 55.06249 53.302985 55.0625 55.53125 C 55.06249 55.897092 55.028169 56.062506 54.96875 56.0625 C 54.953883 56.062506 54.847849 55.978795 54.625 55.8125 C 54.402133 55.629588 54.24692 55.562506 54.1875 55.5625 C 54.113205 55.562506 54.025099 55.476788 53.90625 55.34375 C 53.787384 55.194097 53.612707 55.070538 53.375 54.9375 C 53.137277 54.804476 52.825316 54.718757 52.46875 54.71875 C 51.592167 54.718757 50.686 55.040987 49.75 55.65625 C 48.888277 56.188381 48.310463 56.703259 47.96875 57.21875 C 47.641889 57.717621 47.468748 58.33284 47.46875 59.03125 C 47.468748 59.496862 47.520997 59.957272 47.625 60.40625 C 47.743855 60.855232 47.867818 61.131591 48.03125 61.28125 C 48.254105 61.464168 48.634708 61.646211 49.125 61.8125 C 49.630141 61.96216 50.066065 62.03125 50.4375 62.03125 C 51.046641 62.03125 51.79606 61.711028 52.6875 61.0625 C 53.593783 60.397345 54.202847 59.798756 54.5 59.25 C 54.589134 59.067085 54.642919 58.968753 54.6875 58.96875 C 54.702348 58.968753 54.805311 59.498253 54.96875 60.5625 C 55.13217 61.610121 55.359096 62.125 55.65625 62.125 C 55.745383 62.125 55.884203 62.016062 56.0625 61.75 C 56.255633 61.483938 56.343739 61.232805 56.34375 61 L 56.28125 60.65625 C 56.251525 60.423447 56.248454 59.879326 56.21875 59.03125 C 56.189025 58.166551 56.139846 57.107552 56.125 55.84375 C 56.095275 53.582227 56.075811 52.232248 56.03125 51.75 C 55.986668 51.251144 55.82992 50.707023 55.5625 50.125 C 55.012773 48.927732 54.230568 48.312514 53.25 48.3125 z M 36.59375 48.53125 C 36.341174 48.531263 36.132177 48.780388 35.96875 49.3125 C 35.909319 49.512059 35.906248 50.041559 35.90625 50.90625 C 35.906248 53.334079 36.080924 56.653271 36.4375 60.84375 C 36.437497 60.893638 36.42264 60.962728 36.4375 61.0625 C 36.482069 61.594625 36.532783 61.956703 36.5625 62.15625 C 36.607069 62.355797 36.677246 62.55246 36.78125 62.71875 C 36.900105 62.885038 37.073245 62.968749 37.28125 62.96875 C 37.518962 62.968749 37.695174 62.688374 37.84375 62.15625 C 37.992318 61.640754 38.19978 60.554521 38.4375 58.875 C 38.645496 57.395032 39.205382 55.861002 40.15625 54.28125 C 41.121962 52.684884 42.078844 51.665733 43 51.25 C 43.564565 51.000577 43.84374 50.793308 43.84375 50.59375 C 43.84374 50.477359 43.755634 50.322551 43.5625 50.15625 C 43.369346 49.973344 43.127563 49.906262 42.875 49.90625 C 42.250988 49.906262 41.501568 50.310195 40.625 51.125 C 39.763275 51.923198 39.082497 52.85663 38.5625 53.9375 C 38.146493 54.852097 37.883711 55.312507 37.75 55.3125 C 37.645995 55.312507 37.489247 54.475398 37.28125 52.8125 C 37.073245 51.14962 36.968747 49.935813 36.96875 49.1875 C 36.968747 48.738533 36.831462 48.531263 36.59375 48.53125 z M 52.03125 56.03125 C 52.402674 56.031256 52.734098 56.073111 53.03125 56.15625 C 53.328387 56.222771 53.555312 56.321103 53.71875 56.4375 C 53.897028 56.537279 54.052241 56.648224 54.15625 56.78125 C 54.275099 56.897657 54.345277 56.993982 54.375 57.09375 C 54.419563 57.176899 54.437491 57.245989 54.4375 57.3125 C 54.437491 57.52868 54.210565 57.890758 53.75 58.40625 C 53.304275 58.90512 53.093742 59.241972 53.09375 59.375 C 53.093742 59.55792 52.695211 59.86553 51.9375 60.28125 C 51.194633 60.680345 50.56764 60.875001 50.0625 60.875 C 49.795065 60.875001 49.514355 60.776669 49.1875 60.59375 C 48.920066 60.427463 48.730533 60.274662 48.65625 60.125 C 48.596818 59.975342 48.593747 59.696975 48.59375 59.28125 C 48.593747 59.031819 48.645996 58.722202 48.75 58.40625 C 48.868854 58.073676 49.043531 57.726219 49.28125 57.34375 C 49.518961 56.96129 49.868314 56.655689 50.34375 56.40625 C 50.834033 56.156822 51.392383 56.031256 52.03125 56.03125 z "
       transform="translate(0,956.36218)"
       id="text3776" />
  </g>
</svg>
