<?xml version="1.0" encoding="UTF-8" standalone="no"?>
<!-- Created with Inkscape (http://www.inkscape.org/) -->

<svg
   xmlns:dc="http://purl.org/dc/elements/1.1/"
   xmlns:cc="http://creativecommons.org/ns#"
   xmlns:rdf="http://www.w3.org/1999/02/22-rdf-syntax-ns#"
   xmlns:svg="http://www.w3.org/2000/svg"
   xmlns="http://www.w3.org/2000/svg"
   xmlns:sodipodi="http://sodipodi.sourceforge.net/DTD/sodipodi-0.dtd"
   xmlns:inkscape="http://www.inkscape.org/namespaces/inkscape"
   width="96"
   height="96"
   id="svg2"
   version="1.1"
   inkscape:version="0.48.4 r9939"
   sodipodi:docname="kbruch.svg">
  <defs
     id="defs4" />
  <sodipodi:namedview
     id="base"
     pagecolor="#ffffff"
     bordercolor="#666666"
     borderopacity="1.0"
     inkscape:pageopacity="0.0"
     inkscape:pageshadow="2"
     inkscape:zoom="5.90625"
     inkscape:cx="50.549902"
     inkscape:cy="48"
     inkscape:document-units="px"
     inkscape:current-layer="layer1"
     showgrid="true"
     inkscape:snap-page="true"
     inkscape:snap-global="false"
     inkscape:snap-center="true"
     inkscape:snap-object-midpoints="false"
     showguides="true"
     inkscape:guide-bbox="true"
     inkscape:snap-bbox="true"
     inkscape:object-paths="true"
     inkscape:object-nodes="true"
     inkscape:window-width="1305"
     inkscape:window-height="744"
     inkscape:window-x="61"
     inkscape:window-y="24"
     inkscape:window-maximized="1"
     inkscape:snap-midpoints="true"
     inkscape:snap-grids="true"
     inkscape:snap-to-guides="false">
    <inkscape:grid
       type="xygrid"
       id="grid3002"
       empspacing="5"
       visible="true"
       enabled="true"
       snapvisiblegridlinesonly="true" />
  </sodipodi:namedview>
  <metadata
     id="metadata7">
    <rdf:RDF>
      <cc:Work
         rdf:about="">
        <dc:format>image/svg+xml</dc:format>
        <dc:type
           rdf:resource="http://purl.org/dc/dcmitype/StillImage" />
        <dc:title />
      </cc:Work>
    </rdf:RDF>
  </metadata>
  <g
     inkscape:label="Layer 1"
     inkscape:groupmode="layer"
     id="layer1"
     transform="translate(0,-956.36218)">
    <rect
       style="fill:#ffffff;fill-opacity:0;fill-rule:nonzero;stroke:none"
       id="rect3775"
       width="96"
       height="96"
       x="0"
       y="956.36218"
       ry="0" />
    <path
       style="fill:#000000;fill-opacity:0.09589041;fill-rule:nonzero;stroke:none"
       d="m 3.353015,956.30662 c -1.884176,0 -3.4111555,1.43156 -3.4111555,3.19799 l 0,83.65949 c 0,1.7665 1.5269795,3.1981 3.4111555,3.1981 l 89.23583,0 c 1.884174,0 3.411155,-1.4316 3.411155,-3.1981 l 0,-83.65949 c 0,-1.76643 -1.526981,-3.19799 -3.411155,-3.19799 z"
       id="rect3772"
       inkscape:connector-curvature="0"
       sodipodi:nodetypes="sssssssss" />
    <path
       style="fill:#000000;fill-opacity:0.18721463;fill-rule:nonzero;stroke:none"
       d="m 1.0459761,1041.8066 0,7.4219 c 0,1.7392 1.461916,3.1337 3.2852054,3.1337 l 86.3836135,0 c 1.823288,0 3.285205,-1.3945 3.285205,-3.1337 l 0,-7.4219 -92.9540239,0 z"
       id="rect3785"
       inkscape:connector-curvature="0" />
    <path
       style="fill:#000000;fill-opacity:0.38356168;fill-rule:nonzero;stroke:none"
       d="m 1.0459761,1041.8066 0,5.3807 c 0,1.762 1.461916,3.1749 3.2852054,3.1749 l 86.3836135,0 c 1.823288,0 3.285205,-1.4129 3.285205,-3.1749 l 0,-5.3807 -92.9540239,0 z"
       id="rect3783"
       inkscape:connector-curvature="0" />
    <rect
       style="fill:#b35900;fill-opacity:1;fill-rule:nonzero;stroke:none"
       id="rect2985-4"
       width="93"
       height="89.000008"
       x="1"
       y="957.36212"
       ry="3.1511397" />
    <path
       inkscape:connector-curvature="0"
       style="font-size:medium;font-style:normal;font-variant:normal;font-weight:normal;font-stretch:normal;text-indent:0;text-align:start;text-decoration:none;line-height:normal;letter-spacing:normal;word-spacing:normal;text-transform:none;direction:ltr;block-progression:tb;writing-mode:lr-tb;text-anchor:start;baseline-shift:baseline;color:#000000;fill:#000000;fill-opacity:0.36529685;stroke:none;stroke-width:3;marker:none;visibility:visible;display:inline;overflow:visible;enable-background:accumulate;font-family:Sans;-inkscape-font-specification:Sans"
       d="m 3.6294646,957.627 c -0.608974,0.1238 -1.2345159,0.23292 -1.6607146,0.60645 -0.4261988,0.37353 -0.5507133,0.92176 -0.6919645,1.45548 l 43.8705365,38.4488 -43.8705365,38.44887 c 0.1412512,0.5337 0.2657657,1.0819 0.6919645,1.4555 0.4261987,0.3735 1.0517406,0.4826 1.6607146,0.6065 l 43.8705364,-38.4489 43.870537,38.4489 c 0.608974,-0.1239 1.234515,-0.233 1.660715,-0.6065 0.4262,-0.3736 0.550713,-0.9218 0.691964,-1.4555 L 49.85268,998.13773 93.723217,959.68893 c -0.141251,-0.53372 -0.265764,-1.08195 -0.691964,-1.45548 -0.4262,-0.37353 -1.051741,-0.48265 -1.660715,-0.60645 L 47.500001,996.07583 3.6294646,957.627 z"
       id="path3811" />
    <path
       inkscape:connector-curvature="0"
       style="fill:#1b1b1b;fill-opacity:1;fill-rule:nonzero;stroke:none"
       d="m 7.7120537,963.78548 0,68.57672 79.5758953,0 0,-68.57672 -79.5758953,0 z"
       id="path3796" />
    <path
       style="fill:#000000;fill-opacity:0.38356168;fill-rule:nonzero;stroke:none"
       d="m 1,1042.3622 0.045976,2.7457 c 0.03024,1.8058 1.461916,3.2543 3.2852054,3.2543 l 86.3836136,0 c 1.823288,0 3.285205,-1.4481 3.285205,-3.2543 l -0.04598,-2.7457 z"
       id="rect3781"
       inkscape:connector-curvature="0"
       sodipodi:nodetypes="csssscc" />
    <rect
       style="fill:#ffffff;fill-opacity:0.30000001;fill-rule:nonzero;stroke:none"
       id="rect3770"
       width="92.954033"
       height="2.000005"
       x="1.045976"
       y="1040.3622" />
    <rect
       style="fill:#060000;fill-opacity:0.41095892;fill-rule:nonzero;stroke:none"
       id="rect3055"
       width="79.575897"
       height="6.2856951"
       x="7.7120538"
       y="963.78546" />
    <rect
       y="963.78546"
       x="7.7120538"
       height="3.0687637"
       width="79.575897"
       id="rect3825"
       style="fill:#060000;fill-opacity:0.41095892;fill-rule:nonzero;stroke:none" />
    <rect
       style="fill:#ffffff;fill-opacity:0.18264841;fill-rule:nonzero;stroke:none"
       id="rect3827"
       width="79.575897"
       height="1.8835815"
       x="7.7120538"
       y="1032.1876" />
    <path
       style="font-size:63.2628212px;font-style:normal;font-variant:normal;font-weight:normal;font-stretch:normal;text-align:end;line-height:111.00000143%;letter-spacing:0px;word-spacing:0px;text-anchor:end;fill:#ffffff;fill-opacity:0.55251142;stroke:none;font-family:mry_KacstQurn;-inkscape-font-specification:mry_KacstQurn"
       d="m 29.023117,972.96963 c -0.781762,3e-5 -1.381403,0.60932 -1.782297,1.812 0,0.0201 -0.125583,0.38715 -0.386159,1.12879 -0.240543,0.74169 -0.525876,1.63631 -0.846595,2.65859 -0.300677,1.00226 -0.614984,2.04625 -0.935702,3.14873 -0.320719,1.08243 -0.581543,2.1123 -0.802028,3.07445 -0.220501,0.96217 -0.34161,1.64355 -0.34161,2.06449 0,1.34301 0.362608,2.50813 1.084228,3.49033 0.741664,0.96216 1.703911,1.44069 2.866526,1.44069 0.942106,0 1.681455,-0.0966 2.242717,-0.29705 0.581295,-0.20045 1.345159,-0.67898 2.287281,-1.44069 0.942098,-0.76171 1.522422,-1.37101 1.72288,-1.81199 0.120261,-0.28064 0.274819,-0.57043 0.475278,-0.89116 0.220485,-0.32071 0.365385,-0.60605 0.445576,-0.84658 0.08017,-0.24054 0.133659,-0.55485 0.133675,-0.93571 -1.6e-5,-0.92206 -0.266024,-1.67626 -0.787186,-2.25757 -0.38086,-0.4009 -0.955992,-0.73899 -1.73773,-1.03967 -0.781763,-0.30067 -1.497327,-0.46042 -2.138757,-0.46043 -0.380868,10e-6 -0.77245,0.0772 -1.173345,0.23763 -0.400902,0.16037 -0.773168,0.35876 -1.113929,0.57924 -0.320734,0.20047 -0.538443,0.31639 -0.63866,0.35647 0,-0.56125 0.420566,-2.05479 1.262461,-4.5003 0.861923,-2.44547 1.292155,-3.97318 1.292163,-4.57454 -8e-6,-0.26058 -0.115924,-0.48794 -0.356459,-0.66837 -0.220501,-0.18038 -0.471658,-0.26732 -0.772328,-0.26735 z m 1.559506,11.12449 c 0.380844,2e-5 0.830394,0.12559 1.35157,0.38618 0.521163,0.26058 0.787179,0.61353 0.787186,1.05451 -7e-6,0.40091 -0.256365,0.98123 -0.757477,1.72289 -0.481086,0.72162 -0.930635,1.18083 -1.351571,1.38127 -1.543475,0.78176 -2.442565,1.17335 -2.70315,1.17335 -0.08018,0 -0.220617,-0.0483 -0.401018,-0.14853 -0.160359,-0.12026 -0.343901,-0.41526 -0.564393,-0.8763 -0.200451,-0.48107 -0.297052,-1.10968 -0.297044,-1.8714 -8e-6,-0.28062 0.03865,-0.48349 0.118818,-0.6238 0.08018,-0.16035 0.273375,-0.38773 0.594102,-0.66836 0.501119,-0.44099 1.071776,-0.80359 1.693172,-1.08423 0.641437,-0.28063 1.148944,-0.42553 1.529805,-0.44558 z m 43.1611,4.73794 c -0.04012,2e-5 -0.562466,0.087 -1.544655,0.26734 -0.100238,0.0201 -0.733324,0.11667 -1.915965,0.29705 -1.182665,0.18043 -2.357429,0.37881 -3.520029,0.57924 -1.142572,0.18043 -2.288362,0.39294 -3.430919,0.65351 -1.142564,0.2606 -1.858122,0.48798 -2.138748,0.66837 -0.160367,0.10018 -0.256967,0.25479 -0.297052,0.47527 -7e-6,0.18043 0.05793,0.34018 0.178226,0.46043 0.140318,0.10029 0.309726,0.15822 0.490135,0.17821 l 0.0297,0.23768 c 0.02006,0.18036 0.08767,0.33496 0.207934,0.47529 0.120267,0.12026 0.303809,0.1782 0.564393,0.1782 0.08018,0 0.602541,-0.0679 1.544655,-0.20791 0.942114,-0.16037 2.024745,-0.32462 3.267543,-0.50498 1.262826,-0.18044 2.273374,-0.29635 3.015044,-0.35649 -0.340776,0.44103 -1.123949,1.29179 -2.346683,2.55463 -1.222756,1.24281 -2.00593,1.89521 -2.34669,1.97531 -0.240543,0 -0.438934,0.1024 -0.579244,0.2822 -0.140317,0.1804 -0.207942,0.393 -0.207934,0.6536 -8e-6,0.3607 0.140425,0.675 0.401018,0.9357 0.260577,0.2605 0.617992,0.3861 1.099078,0.3861 0.360804,0 0.950785,-0.2125 1.75259,-0.6535 0.801788,-0.461 1.710545,-0.6981 2.73285,-0.6981 0.661471,0 1.140003,0.1739 1.440687,0.5348 0.320712,0.3608 0.49012,1.1343 0.490135,2.31689 -1.5e-5,1.2628 -0.246707,2.1865 -0.727769,2.7478 -0.200466,0.2404 -0.476132,0.4916 -0.816886,0.7722 -0.320734,0.2807 -0.905524,0.6143 -1.767446,0.9952 -0.841896,0.3608 -1.740995,0.5347 -2.703143,0.5347 -0.360818,0 -0.588192,-0.011 -0.668361,-0.029 -0.06017,-0.041 -0.08912,-0.1463 -0.08912,-0.3268 -7e-6,-0.5212 -0.193207,-1.0287 -0.594093,-1.5298 -0.38086,-0.5011 -0.820751,-0.7574 -1.321871,-0.7574 -0.641444,0 -0.965411,0.5416 -0.965411,1.604 0,2.3453 1.155448,3.5052 3.460619,3.5052 1.383101,0 2.818681,-0.3381 4.322064,-1.0396 1.50336,-0.7017 2.620174,-1.6253 3.341802,-2.7478 0.902007,-1.383 1.351556,-2.925 1.35158,-4.64879 -2.4e-5,-0.4811 -0.03866,-0.8823 -0.118826,-1.2031 -0.220508,-0.7817 -0.737674,-1.5359 -1.559505,-2.2576 -0.821861,-0.7416 -1.585719,-1.11383 -2.287273,-1.11393 l -0.430727,0 c 0.240527,-0.26047 0.593477,-0.62313 1.054528,-1.08414 l 1.113929,-1.11396 c 0.300661,-0.30063 0.614969,-0.62463 0.935711,-0.9654 0.320703,-0.36079 0.567394,-0.6506 0.727769,-0.89115 0.160344,-0.26056 0.237619,-0.46861 0.237635,-0.60895 -1.6e-5,-0.28061 -0.159765,-0.60459 -0.460427,-0.96541 -0.280642,-0.38084 -0.5801,-0.56437 -0.920852,-0.56439 z m -21.135036,6.31235 c -0.721627,0 -1.9447,0.077 -3.668561,0.2376 -0.180409,0.02 -0.412241,0.049 -0.712911,0.088 -0.881987,0.1203 -1.471962,0.2415 -1.752597,0.3417 -0.280626,0.08 -0.415868,0.2541 -0.415868,0.5346 0,0.02 0.04829,0.2861 0.148526,0.7872 0.100227,0.3408 0.235467,0.563 0.415868,0.6832 0.180401,0.1003 0.485051,0.1485 0.906002,0.1485 0.922064,0 2.116154,-0.068 3.579445,-0.2078 1.463268,-0.1605 2.410667,-0.3536 2.851668,-0.5942 0.400887,-0.2205 0.608944,-0.554 0.608951,-0.9951 -7e-6,-0.4009 -0.159765,-0.6765 -0.460426,-0.8168 -0.300684,-0.1404 -0.798533,-0.208 -1.500097,-0.208 z m -21.298295,1.3515 c -4.129274,0 -7.092577,0.087 -8.896621,0.2673 -1.463282,0.1604 -2.415872,0.3536 -2.836817,0.5941 -0.400902,0.2407 -0.632744,0.7919 -0.712918,1.6339 l -0.178227,1.94559 10.66406,-0.2377 c 4.670462,-0.1203 7.774197,-0.2845 9.297637,-0.505 1.523395,-0.22039 2.287251,-0.69889 2.287275,-1.44069 -2.4e-5,-0.2806 -0.140456,-0.6432 -0.40101,-1.0842 -0.32075,-0.5011 -1.021457,-0.825 -2.123907,-0.9654 -1.102488,-0.1403 -3.47135,-0.2079 -7.099472,-0.2079 z m 20.466559,2.9408 c -2.365321,0 -4.052784,0.2081 -5.034982,0.60889 -0.481085,0.2006 -0.712926,0.5438 -0.712919,1.0249 -7e-6,0.4811 0.193192,0.7857 0.594094,0.906 0.420944,0.1003 1.262084,0.1484 2.524917,0.1484 0.240534,0 0.467901,0 0.668359,0 0.220494,-0.02 0.621743,-0.039 1.203055,-0.06 0.581295,-0.02 1.088802,-0.074 1.529804,-0.1337 0.46102,-0.08 0.939552,-0.1671 1.440688,-0.2674 0.501112,-0.1202 0.892696,-0.2748 1.173338,-0.4752 0.280619,-0.2005 0.43071,-0.4375 0.430726,-0.6981 -1.6e-5,-0.2205 -0.09214,-0.3944 -0.252493,-0.53469 -0.140325,-0.1403 -0.497749,-0.2562 -1.099086,-0.3565 -0.581312,-0.1003 -1.403127,-0.1633 -2.465501,-0.1633 z m -22.724133,7.29249 c -1.242798,0 -2.398238,0.1985 -3.46062,0.5793 -1.062389,0.3608 -1.826246,0.7234 -2.287274,1.0842 -0.240551,0.1603 -0.520683,0.3536 -0.861444,0.594 -0.340769,0.2407 -0.606776,0.4294 -0.787178,0.5496 -0.160367,0.1203 -0.324584,0.2555 -0.504985,0.4159 -0.180409,0.1404 -0.3305,0.2756 -0.430718,0.4159 -0.08019,0.1203 -0.128483,0.2607 -0.148525,0.401 -0.04012,0.1604 -0.146359,0.2957 -0.326759,0.4159 -0.16036,0.1203 -0.334235,0.2265 -0.534686,0.3267 -0.180409,0.1003 -0.359475,0.2986 -0.519835,0.5792 -0.140317,0.2807 -0.207934,0.653 -0.207934,1.114 0,0.3608 0.01929,0.6409 0.0594,0.8614 0.04012,0.2005 0.07873,0.3313 0.118818,0.3714 0.0601,0.041 0.12775,0.069 0.207934,0.089 0.08018,0.02 0.128475,0.048 0.148526,0.088 0.160358,0 0.436025,-0.1887 0.816886,-0.5495 0.380852,-0.3609 0.840059,-0.8008 1.381279,-1.3219 0.541211,-0.5211 1.15051,-1.0383 1.811997,-1.5595 0.66148,-0.5211 1.454312,-0.961 2.376391,-1.3219 0.942106,-0.3607 1.899163,-0.5346 2.881376,-0.5346 0.942107,0 1.546213,0.088 1.826856,0.2673 0.300661,0.1804 0.46041,0.5141 0.460426,0.9952 -1.6e-5,1.5033 -0.696255,3.4561 -2.079348,5.8815 -1.363066,2.4055 -2.407063,3.8753 -3.148718,4.3965 -0.561261,0.3808 -1.267168,1.0287 -2.109049,1.9307 -0.841895,0.902 -1.262462,1.5545 -1.262454,1.9755 -8e-6,0.3206 0.183534,0.606 0.564394,0.8465 0.400886,0.2406 0.831118,0.3564 1.292162,0.3565 0.440978,-1e-4 0.803586,-0.097 1.084228,-0.2971 0.140302,-0.1202 0.454618,-0.2072 0.935704,-0.2674 0.501112,-0.06 1.332593,-0.1715 2.495208,-0.3118 1.182641,-0.1404 2.367071,-0.3045 3.549737,-0.505 0.982189,-0.1604 1.939246,-0.2763 2.881375,-0.3565 0.942099,-0.08 1.657656,-0.1188 2.138757,-0.1188 0.501104,0 0.950653,-0.019 1.35157,-0.06 0.400879,-0.06 0.676554,-0.1715 0.816886,-0.3118 0.140295,-0.1604 0.207911,-0.4019 0.207935,-0.7426 -2.4e-5,-0.5011 -0.246714,-0.8252 -0.727769,-0.9655 -0.46106,-0.1603 -1.161759,-0.2376 -2.123899,-0.2376 -2.38537,0 -5.508431,0.2898 -9.357046,0.8911 1.563493,-1.5634 3.226449,-4.0868 4.990423,-7.5748 0.78174,-1.5635 1.173322,-3.1395 1.173346,-4.7231 -2.4e-5,-0.8419 -0.16424,-1.5136 -0.504985,-2.0348 -0.721636,-1.0824 -2.123775,-1.6338 -4.188396,-1.6338 z"
       id="text2995"
       inkscape:connector-curvature="0"
       sodipodi:nodetypes="ccccccscscscccccccccccccccscccsccccccccccccccccccsccccccccscscccccscccssscccccccccccccccccccsccsccccccscccccccccsccccscscccccccccccccccccccsccccscscscccccccccccccsccccscccccc" />
  </g>
</svg>
