<?xml version="1.0" encoding="UTF-8" standalone="no"?>
<!-- Created with Inkscape (http://www.inkscape.org/) -->

<svg
   xmlns:dc="http://purl.org/dc/elements/1.1/"
   xmlns:cc="http://creativecommons.org/ns#"
   xmlns:rdf="http://www.w3.org/1999/02/22-rdf-syntax-ns#"
   xmlns:svg="http://www.w3.org/2000/svg"
   xmlns="http://www.w3.org/2000/svg"
   xmlns:sodipodi="http://sodipodi.sourceforge.net/DTD/sodipodi-0.dtd"
   xmlns:inkscape="http://www.inkscape.org/namespaces/inkscape"
   width="96"
   height="96"
   id="svg2"
   version="1.1"
   inkscape:version="0.48.4 r9939"
   sodipodi:docname="kbugbuster.svg">
  <defs
     id="defs4" />
  <sodipodi:namedview
     id="base"
     pagecolor="#ffffff"
     bordercolor="#666666"
     borderopacity="1.0"
     inkscape:pageopacity="0.0"
     inkscape:pageshadow="2"
     inkscape:zoom="3.7324425"
     inkscape:cx="38.770388"
     inkscape:cy="33.245492"
     inkscape:document-units="px"
     inkscape:current-layer="layer1"
     showgrid="true"
     inkscape:snap-page="true"
     inkscape:snap-global="true"
     inkscape:snap-center="true"
     inkscape:snap-object-midpoints="false"
     showguides="true"
     inkscape:guide-bbox="true"
     inkscape:snap-bbox="true"
     inkscape:object-paths="true"
     inkscape:object-nodes="true"
     inkscape:window-width="1305"
     inkscape:window-height="744"
     inkscape:window-x="61"
     inkscape:window-y="24"
     inkscape:window-maximized="1"
     inkscape:snap-midpoints="false"
     inkscape:snap-grids="true"
     inkscape:snap-to-guides="false">
    <inkscape:grid
       type="xygrid"
       id="grid3002"
       empspacing="5"
       visible="true"
       enabled="true"
       snapvisiblegridlinesonly="true" />
  </sodipodi:namedview>
  <metadata
     id="metadata7">
    <rdf:RDF>
      <cc:Work
         rdf:about="">
        <dc:format>image/svg+xml</dc:format>
        <dc:type
           rdf:resource="http://purl.org/dc/dcmitype/StillImage" />
        <dc:title />
      </cc:Work>
    </rdf:RDF>
  </metadata>
  <g
     inkscape:label="Layer 1"
     inkscape:groupmode="layer"
     id="layer1"
     transform="translate(0,-956.36218)">
    <rect
       style="fill:#ffffff;fill-opacity:0;fill-rule:nonzero;stroke:none"
       id="rect3775"
       width="96"
       height="96"
       x="0"
       y="956.36218"
       ry="0" />
    <path
       style="fill:#000000;fill-opacity:0.09589041;fill-rule:nonzero;stroke:none"
       d="m 3.353015,956.30662 c -1.884176,0 -3.4111555,1.43156 -3.4111555,3.19799 l 0,83.65949 c 0,1.7665 1.5269795,3.1981 3.4111555,3.1981 l 89.23583,0 c 1.884174,0 3.411155,-1.4316 3.411155,-3.1981 l 0,-83.65949 c 0,-1.76643 -1.526981,-3.19799 -3.411155,-3.19799 z"
       id="rect3772"
       inkscape:connector-curvature="0"
       sodipodi:nodetypes="sssssssss" />
    <path
       style="fill:#000000;fill-opacity:0.18721463;fill-rule:nonzero;stroke:none"
       d="m 1.0459761,1041.8066 0,7.4219 c 0,1.7392 1.461916,3.1337 3.2852054,3.1337 l 86.3836135,0 c 1.823288,0 3.285205,-1.3945 3.285205,-3.1337 l 0,-7.4219 -92.9540239,0 z"
       id="rect3785"
       inkscape:connector-curvature="0" />
    <path
       style="fill:#000000;fill-opacity:0.38356168;fill-rule:nonzero;stroke:none"
       d="m 1.0459761,1041.8066 0,5.3807 c 0,1.762 1.461916,3.1749 3.2852054,3.1749 l 86.3836135,0 c 1.823288,0 3.285205,-1.4129 3.285205,-3.1749 l 0,-5.3807 -92.9540239,0 z"
       id="rect3783"
       inkscape:connector-curvature="0" />
    <rect
       style="fill:#e8112d;fill-opacity:1;fill-rule:nonzero;stroke:none"
       id="rect2985-4"
       width="93"
       height="88.999977"
       x="1"
       y="957.36218"
       ry="3.1511385" />
    <path
       style="fill:#1a1a1a;fill-opacity:1;fill-rule:nonzero;stroke:none"
       d="m 1.000001,1013.0534 0,30.1633 c 0,0.8729 0.373583,1.6488 0.96875,2.2184 0.595167,0.5695 1.405985,0.9271 2.31808,0.9271 l 86.426339,0 c 0.9121,0 1.72292,-0.3576 2.31808,-0.9271 C 93.62642,1044.8655 94,1044.0896 94,1043.2167 l 0,-25.859 c -14.569566,-12.4647 -32.69506,-15.4625 -53.281248,-15.4625 -14.545424,0 -29.254115,4.7903 -39.718751,11.1582 z"
       id="path3755"
       inkscape:connector-curvature="0"
       sodipodi:nodetypes="csssssscsc" />
    <path
       sodipodi:type="arc"
       style="fill:#ffffff;fill-opacity:1;fill-rule:nonzero;stroke:none"
       id="path3762"
       sodipodi:cx="-120.58292"
       sodipodi:cy="39.957264"
       sodipodi:rx="12.948503"
       sodipodi:ry="7.8904934"
       d="m -107.63441,39.957264 c 0,4.357799 -5.79725,7.890493 -12.94851,7.890493 -7.15126,0 -12.9485,-3.532694 -12.9485,-7.890493 0,-4.357799 5.79724,-7.890493 12.9485,-7.890493 7.15126,0 12.94851,3.532694 12.94851,7.890493 z"
       transform="matrix(1.0394312,-0.36484774,0.38124552,0.99472417,130.44498,934.03724)" />
    <path
       transform="matrix(0.49930579,-0.19412705,0.18313679,0.52926974,72.334974,970.64917)"
       d="m -107.63441,39.957264 c 0,4.357799 -5.79725,7.890493 -12.94851,7.890493 -7.15126,0 -12.9485,-3.532694 -12.9485,-7.890493 0,-4.357799 5.79724,-7.890493 12.9485,-7.890493 7.15126,0 12.94851,3.532694 12.94851,7.890493 z"
       sodipodi:ry="7.8904934"
       sodipodi:rx="12.948503"
       sodipodi:cy="39.957264"
       sodipodi:cx="-120.58292"
       id="path3764"
       style="fill:#1a1a1a;fill-opacity:1;fill-rule:nonzero;stroke:none"
       sodipodi:type="arc" />
    <path
       transform="matrix(-1.0394312,-0.36484774,-0.38124552,0.99472417,-38.834691,934.03724)"
       d="m -107.63441,39.957264 c 0,4.357799 -5.79725,7.890493 -12.94851,7.890493 -7.15126,0 -12.9485,-3.532694 -12.9485,-7.890493 0,-4.357799 5.79724,-7.890493 12.9485,-7.890493 7.15126,0 12.94851,3.532694 12.94851,7.890493 z"
       sodipodi:ry="7.8904934"
       sodipodi:rx="12.948503"
       sodipodi:cy="39.957264"
       sodipodi:cx="-120.58292"
       id="path3770"
       style="fill:#ffffff;fill-opacity:1;fill-rule:nonzero;stroke:none"
       sodipodi:type="arc" />
    <path
       sodipodi:type="arc"
       style="fill:#1a1a1a;fill-opacity:1;fill-rule:nonzero;stroke:none"
       id="path3772"
       sodipodi:cx="-120.58292"
       sodipodi:cy="39.957264"
       sodipodi:rx="12.948503"
       sodipodi:ry="7.8904934"
       d="m -107.63441,39.957264 c 0,4.357799 -5.79725,7.890493 -12.94851,7.890493 -7.15126,0 -12.9485,-3.532694 -12.9485,-7.890493 0,-4.357799 5.79724,-7.890493 12.9485,-7.890493 7.15126,0 12.94851,3.532694 12.94851,7.890493 z"
       transform="matrix(-0.49930579,-0.19412705,-0.18313679,0.52926974,19.275319,970.64917)" />
    <path
       style="fill:#000000;fill-opacity:0.38356168;fill-rule:nonzero;stroke:none"
       d="m 1,1042.3622 0.045976,2.7457 c 0.03024,1.8058 1.461916,3.2543 3.2852054,3.2543 l 86.3836136,0 c 1.823288,0 3.285205,-1.4481 3.285205,-3.2543 l -0.04598,-2.7457 z"
       id="rect3781"
       inkscape:connector-curvature="0"
       sodipodi:nodetypes="csssscc" />
    <rect
       style="fill:#ffffff;fill-opacity:0.11764706;fill-rule:nonzero;stroke:none"
       id="rect3770"
       width="92.954033"
       height="2.000005"
       x="1.045976"
       y="1040.3622" />
    <path
       style="fill:#000000;fill-opacity:0.38356168;fill-rule:nonzero;stroke:none"
       d="M 93.96875 86.90625 C 93.949259 87.7492 93.646964 88.540536 93.09375 89.09375 C 92.524182 89.663318 91.716615 90 90.84375 90 L 4.15625 90 C 3.2833846 90 2.4758183 89.663318 1.90625 89.09375 C 1.3434882 88.530988 1.0082783 87.735407 1 86.875 L 1.03125 88.75 C 1.06149 90.5558 2.5204606 92 4.34375 92 L 90.71875 92 C 92.542038 92 94 90.5562 94 88.75 L 93.96875 86.90625 z "
       id="path3838"
       transform="translate(0,956.36218)" />
    <path
       style="fill:#000000;fill-opacity:1;fill-rule:nonzero;stroke:none"
       d="M 1 86 L 1 86.875 C 1.0082783 87.735407 1.3434882 88.530988 1.90625 89.09375 C 2.4758183 89.663318 3.2833846 90 4.15625 90 L 90.84375 90 C 91.716615 90 92.524182 89.663318 93.09375 89.09375 C 93.646964 88.540536 93.949259 87.7492 93.96875 86.90625 L 93.96875 86 L 1 86 z "
       id="path3833"
       transform="translate(0,956.36218)" />
    <path
       sodipodi:type="arc"
       style="fill:#000000;fill-opacity:0.33333333;fill-rule:evenodd;stroke:none"
       id="path3001"
       sodipodi:cx="17.5"
       sodipodi:cy="18.5"
       sodipodi:rx="7.5"
       sodipodi:ry="12.5"
       d="m 25,18.5 a 7.5,12.5 0 1 1 -15,0 7.5,12.5 0 1 1 15,0 z"
       transform="matrix(1.3333333,0,0,1,-3.3333333,956.36218)" />
    <path
       transform="matrix(1.3333333,0,0,1,56.666667,958.86218)"
       d="m 25,18.5 a 7.5,12.5 0 1 1 -15,0 7.5,12.5 0 1 1 15,0 z"
       sodipodi:ry="12.5"
       sodipodi:rx="7.5"
       sodipodi:cy="18.5"
       sodipodi:cx="17.5"
       id="path3771"
       style="fill:#000000;fill-opacity:0.33333333;fill-rule:evenodd;stroke:none"
       sodipodi:type="arc" />
    <path
       sodipodi:type="arc"
       style="fill:#000000;fill-opacity:0.33333333;fill-rule:evenodd;stroke:none"
       id="path3773"
       sodipodi:cx="17.5"
       sodipodi:cy="18.5"
       sodipodi:rx="7.5"
       sodipodi:ry="12.5"
       d="m 25,18.5 a 7.5,12.5 0 1 1 -15,0 7.5,12.5 0 1 1 15,0 z"
       transform="matrix(1,0,0,0.6,0,986.26218)" />
    <path
       transform="matrix(1,0,0,0.6,22.5,976.26218)"
       d="m 25,18.5 a 7.5,12.5 0 1 1 -15,0 7.5,12.5 0 1 1 15,0 z"
       sodipodi:ry="12.5"
       sodipodi:rx="7.5"
       sodipodi:cy="18.5"
       sodipodi:cx="17.5"
       id="path3775"
       style="fill:#000000;fill-opacity:0.33333333;fill-rule:evenodd;stroke:none"
       sodipodi:type="arc" />
    <path
       sodipodi:type="arc"
       style="fill:#000000;fill-opacity:0.33333333;fill-rule:evenodd;stroke:none"
       id="path3777"
       sodipodi:cx="17.5"
       sodipodi:cy="18.5"
       sodipodi:rx="7.5"
       sodipodi:ry="12.5"
       d="m 25,18.5 a 7.5,12.5 0 1 1 -15,0 7.5,12.5 0 1 1 15,0 z"
       transform="matrix(1,0,0,0.6,52.5,986.26218)" />
  </g>
</svg>
