<?xml version="1.0" encoding="UTF-8" standalone="no"?>
<!-- Created with Inkscape (http://www.inkscape.org/) -->

<svg
   xmlns:dc="http://purl.org/dc/elements/1.1/"
   xmlns:cc="http://creativecommons.org/ns#"
   xmlns:rdf="http://www.w3.org/1999/02/22-rdf-syntax-ns#"
   xmlns:svg="http://www.w3.org/2000/svg"
   xmlns="http://www.w3.org/2000/svg"
   xmlns:sodipodi="http://sodipodi.sourceforge.net/DTD/sodipodi-0.dtd"
   xmlns:inkscape="http://www.inkscape.org/namespaces/inkscape"
   width="96"
   height="96"
   id="svg2"
   version="1.1"
   inkscape:version="0.48.4 r9939"
   sodipodi:docname="keepassx.svg">
  <defs
     id="defs4" />
  <sodipodi:namedview
     id="base"
     pagecolor="#ffffff"
     bordercolor="#666666"
     borderopacity="1.0"
     inkscape:pageopacity="0.0"
     inkscape:pageshadow="2"
     inkscape:zoom="4.1763494"
     inkscape:cx="-15.974319"
     inkscape:cy="48"
     inkscape:document-units="px"
     inkscape:current-layer="layer1"
     showgrid="true"
     inkscape:snap-page="true"
     inkscape:snap-global="true"
     inkscape:snap-center="true"
     inkscape:snap-object-midpoints="false"
     showguides="true"
     inkscape:guide-bbox="true"
     inkscape:snap-bbox="true"
     inkscape:object-paths="true"
     inkscape:object-nodes="true"
     inkscape:window-width="1305"
     inkscape:window-height="744"
     inkscape:window-x="61"
     inkscape:window-y="24"
     inkscape:window-maximized="1"
     inkscape:snap-midpoints="false"
     inkscape:snap-grids="true"
     inkscape:snap-to-guides="false">
    <inkscape:grid
       type="xygrid"
       id="grid3002"
       empspacing="5"
       visible="true"
       enabled="true"
       snapvisiblegridlinesonly="true" />
  </sodipodi:namedview>
  <metadata
     id="metadata7">
    <rdf:RDF>
      <cc:Work
         rdf:about="">
        <dc:format>image/svg+xml</dc:format>
        <dc:type
           rdf:resource="http://purl.org/dc/dcmitype/StillImage" />
        <dc:title />
      </cc:Work>
    </rdf:RDF>
  </metadata>
  <g
     inkscape:label="Layer 1"
     inkscape:groupmode="layer"
     id="layer1"
     transform="translate(0,-956.36218)">
    <rect
       style="fill:#ffffff;fill-opacity:0;fill-rule:nonzero;stroke:none"
       id="rect3775"
       width="96"
       height="96"
       x="0"
       y="956.36218"
       ry="0" />
    <path
       style="fill:#000000;fill-opacity:0.09589041;fill-rule:nonzero;stroke:none"
       d="m 3.353015,956.30662 c -1.884176,0 -3.4111555,1.43156 -3.4111555,3.19799 l 0,83.65949 c 0,1.7665 1.5269795,3.1981 3.4111555,3.1981 l 89.23583,0 c 1.884174,0 3.411155,-1.4316 3.411155,-3.1981 l 0,-83.65949 c 0,-1.76643 -1.526981,-3.19799 -3.411155,-3.19799 z"
       id="rect3772"
       inkscape:connector-curvature="0"
       sodipodi:nodetypes="sssssssss" />
    <path
       style="fill:#000000;fill-opacity:0.18721463;fill-rule:nonzero;stroke:none"
       d="m 1.0459761,1041.8066 0,7.4219 c 0,1.7392 1.461916,3.1337 3.2852054,3.1337 l 86.3836135,0 c 1.823288,0 3.285205,-1.3945 3.285205,-3.1337 l 0,-7.4219 -92.9540239,0 z"
       id="rect3785"
       inkscape:connector-curvature="0" />
    <path
       style="fill:#000000;fill-opacity:0.38356168;fill-rule:nonzero;stroke:none"
       d="m 1.0459761,1041.8066 0,5.3807 c 0,1.762 1.461916,3.1749 3.2852054,3.1749 l 86.3836135,0 c 1.823288,0 3.285205,-1.4129 3.285205,-3.1749 l 0,-5.3807 -92.9540239,0 z"
       id="rect3783"
       inkscape:connector-curvature="0" />
    <rect
       style="fill:#e5053a;fill-opacity:1;fill-rule:nonzero;stroke:none"
       id="rect2985"
       width="92.954025"
       height="89"
       x="1.045977"
       y="-1046.3622"
       ry="3.1511393"
       transform="scale(1,-1)" />
    <path
       style="fill:#000000;fill-opacity:0.38356168;fill-rule:nonzero;stroke:none"
       d="m 1,1042.3622 0.045976,2.7457 c 0.03024,1.8058 1.461916,3.2543 3.2852054,3.2543 l 86.3836136,0 c 1.823288,0 3.285205,-1.4481 3.285205,-3.2543 l -0.04598,-2.7457 z"
       id="rect3781"
       inkscape:connector-curvature="0"
       sodipodi:nodetypes="csssscc" />
    <rect
       style="fill:#ffffff;fill-opacity:0.30000001;fill-rule:nonzero;stroke:none"
       id="rect3770"
       width="92.954033"
       height="2.000005"
       x="1.045976"
       y="1040.3622" />
    <path
       transform="matrix(0.99999638,0,0,1.0533295,121.64434,957.91335)"
       d="m -41.677992,39.350304 a 31.966616,30.348053 0 1 1 -63.933228,0 31.966616,30.348053 0 1 1 63.933228,0 z"
       sodipodi:ry="30.348053"
       sodipodi:rx="31.966616"
       sodipodi:cy="39.350304"
       sodipodi:cx="-73.644608"
       id="path3785"
       style="fill:#333333;fill-opacity:0.32876713;fill-rule:nonzero;stroke:none"
       sodipodi:type="arc" />
    <path
       style="fill:#ffffff;fill-opacity:1;fill-rule:nonzero;stroke:none"
       d="M 48 15.5 C 32.803635 15.5 20.5 27.803636 20.5 43 C 20.5 58.196364 32.803635 70.5 48 70.5 C 63.196365 70.5 75.5 58.196364 75.5 43 C 75.5 27.803636 63.196365 15.5 48 15.5 z M 40 24.8125 C 41.002734 24.8125 42.011437 25.198935 42.78125 25.96875 L 45.4375 28.625 C 46.977124 30.16463 46.977124 32.61662 45.4375 34.15625 L 43.65625 35.96875 L 49.625 41.90625 L 47.625 43.90625 L 49.96875 46.28125 L 51.21875 45.0625 L 52.53125 46.375 L 51.90625 47 L 53.75 48.84375 L 53.15625 49.4375 L 55.5 51.8125 L 56.75 50.59375 L 58.0625 51.90625 L 56.84375 53.125 L 59.1875 55.5 L 61.1875 53.5 L 63.03125 55.34375 L 63.34375 61.1875 L 57.5 60.875 L 38.125 41.5 L 36.3125 43.28125 C 34.772876 44.82085 32.289632 44.82085 30.75 43.28125 L 28.09375 40.625 C 26.554118 39.0855 26.585368 36.60212 28.125 35.0625 L 37.21875 25.96875 C 37.988563 25.198935 38.997266 24.8125 40 24.8125 z M 56 24.8125 C 57.005133 24.81495 58.011438 25.198935 58.78125 25.96875 L 67.90625 35.09375 C 69.445872 36.63337 69.445879 39.0854 67.90625 40.625 L 65.25 43.28125 C 63.710376 44.82125 61.227117 44.82095 59.6875 43.28125 L 57.90625 41.5 L 54.1875 45.21875 A 2.0387627 2.0387627 0 0 0 53.96875 44.9375 L 52.625 43.59375 A 2.0387627 2.0387627 0 0 0 51.3125 43 A 2.0387627 2.0387627 0 0 0 51.03125 40.46875 L 49.46875 38.875 L 52.375 35.96875 L 50.5625 34.1875 C 49.022876 32.64787 49.022876 30.16463 50.5625 28.625 L 53.21875 25.96875 C 53.988566 25.199135 54.994867 24.81005 56 24.8125 z M 40 28.625 C 39.99981 28.625 40.006735 28.6495 39.96875 28.6875 L 30.84375 37.8125 C 30.80579 37.85056 30.78191 37.83975 30.78125 37.84375 C 30.78031 37.84775 30.81146 37.87395 30.84375 37.90625 L 33.5 40.5625 C 33.56454 40.6275 33.52917 40.6275 33.59375 40.5625 L 35.375 38.75 L 40.90625 33.21875 L 42.6875 31.4375 C 42.75209 31.3729 42.76347 31.41975 42.6875 31.34375 L 40.03125 28.6875 C 39.993174 28.6495 40.00019 28.625 40 28.625 z M 56 28.65625 C 55.99601 28.65525 56.00104 28.6552 55.96875 28.6875 L 53.3125 31.34375 C 53.28021 31.37595 53.25 31.39825 53.25 31.40625 C 53.25 31.41415 53.28021 31.4052 53.3125 31.4375 L 55.09375 33.25 L 60.625 38.78125 L 62.40625 40.5625 C 62.47077 40.6265 62.42403 40.6385 62.5 40.5625 L 65.15625 37.90625 C 65.23222 37.83011 65.23222 37.8885 65.15625 37.8125 L 56.03125 28.71875 C 55.993225 28.68085 56.0036 28.65691 56 28.65625 z M 41.03125 47.3125 L 45.1875 51.4375 L 45.03125 51.625 L 44.40625 51 L 42.03125 53.375 L 43.28125 54.59375 L 41.9375 55.9375 L 40.71875 54.6875 L 38.34375 57.0625 L 40.34375 59.0625 L 38.5 60.90625 L 32.65625 61.1875 L 32.96875 55.375 L 41.03125 47.3125 z "
       transform="translate(0,956.36218)"
       id="path3755" />
  </g>
</svg>
