<?xml version="1.0" encoding="UTF-8" standalone="no"?>
<!-- Created with Inkscape (http://www.inkscape.org/) -->

<svg
   xmlns:dc="http://purl.org/dc/elements/1.1/"
   xmlns:cc="http://creativecommons.org/ns#"
   xmlns:rdf="http://www.w3.org/1999/02/22-rdf-syntax-ns#"
   xmlns:svg="http://www.w3.org/2000/svg"
   xmlns="http://www.w3.org/2000/svg"
   xmlns:sodipodi="http://sodipodi.sourceforge.net/DTD/sodipodi-0.dtd"
   xmlns:inkscape="http://www.inkscape.org/namespaces/inkscape"
   width="96"
   height="96"
   id="svg2"
   version="1.1"
   inkscape:version="0.48.4 r9939"
   sodipodi:docname="kfilereplace.svg">
  <defs
     id="defs4" />
  <sodipodi:namedview
     id="base"
     pagecolor="#ffffff"
     bordercolor="#666666"
     borderopacity="1.0"
     inkscape:pageopacity="0.0"
     inkscape:pageshadow="2"
     inkscape:zoom="5.90625"
     inkscape:cx="-11.936508"
     inkscape:cy="48"
     inkscape:document-units="px"
     inkscape:current-layer="layer1"
     showgrid="true"
     inkscape:snap-page="true"
     inkscape:snap-global="true"
     inkscape:snap-center="true"
     inkscape:snap-object-midpoints="false"
     showguides="true"
     inkscape:guide-bbox="true"
     inkscape:snap-bbox="true"
     inkscape:object-paths="true"
     inkscape:object-nodes="true"
     inkscape:window-width="1305"
     inkscape:window-height="744"
     inkscape:window-x="61"
     inkscape:window-y="24"
     inkscape:window-maximized="1"
     inkscape:snap-midpoints="false"
     inkscape:snap-grids="true"
     inkscape:snap-to-guides="false">
    <inkscape:grid
       type="xygrid"
       id="grid3002"
       empspacing="5"
       visible="true"
       enabled="true"
       snapvisiblegridlinesonly="true" />
  </sodipodi:namedview>
  <metadata
     id="metadata7">
    <rdf:RDF>
      <cc:Work
         rdf:about="">
        <dc:format>image/svg+xml</dc:format>
        <dc:type
           rdf:resource="http://purl.org/dc/dcmitype/StillImage" />
        <dc:title />
      </cc:Work>
    </rdf:RDF>
  </metadata>
  <g
     inkscape:label="Layer 1"
     inkscape:groupmode="layer"
     id="layer1"
     transform="translate(0,-956.36218)">
    <rect
       style="fill:#ffffff;fill-opacity:0;fill-rule:nonzero;stroke:none"
       id="rect3775"
       width="96"
       height="96"
       x="0"
       y="956.36218"
       ry="0" />
    <path
       style="fill:#000000;fill-opacity:0.09589041;fill-rule:nonzero;stroke:none"
       d="m 3.353015,956.30662 c -1.884176,0 -3.4111555,1.43156 -3.4111555,3.19799 l 0,83.65949 c 0,1.7665 1.5269795,3.1981 3.4111555,3.1981 l 89.23583,0 c 1.884174,0 3.411155,-1.4316 3.411155,-3.1981 l 0,-83.65949 c 0,-1.76643 -1.526981,-3.19799 -3.411155,-3.19799 z"
       id="rect3772"
       inkscape:connector-curvature="0"
       sodipodi:nodetypes="sssssssss" />
    <path
       style="fill:#000000;fill-opacity:0.18721463;fill-rule:nonzero;stroke:none"
       d="m 1.0459761,1041.8066 0,7.4219 c 0,1.7392 1.461916,3.1337 3.2852054,3.1337 l 86.3836135,0 c 1.823288,0 3.285205,-1.3945 3.285205,-3.1337 l 0,-7.4219 -92.9540239,0 z"
       id="rect3785"
       inkscape:connector-curvature="0" />
    <path
       style="fill:#000000;fill-opacity:0.38356168;fill-rule:nonzero;stroke:none"
       d="m 1.0459761,1041.8066 0,5.3807 c 0,1.762 1.461916,3.1749 3.2852054,3.1749 l 86.3836135,0 c 1.823288,0 3.285205,-1.4129 3.285205,-3.1749 l 0,-5.3807 -92.9540239,0 z"
       id="rect3783"
       inkscape:connector-curvature="0" />
    <rect
       style="fill:#660066;fill-opacity:1;fill-rule:nonzero;stroke:none"
       id="rect2985-2"
       width="93"
       height="88.999962"
       x="0.99999714"
       y="957.36224"
       ry="3.1511383" />
    <path
       style="fill:#000000;fill-opacity:0.38356168;fill-rule:nonzero;stroke:none"
       d="m 1,1042.3622 0.045976,2.7457 c 0.03024,1.8058 1.461916,3.2543 3.2852054,3.2543 l 86.3836136,0 c 1.823288,0 3.285205,-1.4481 3.285205,-3.2543 l -0.04598,-2.7457 z"
       id="rect3781"
       inkscape:connector-curvature="0"
       sodipodi:nodetypes="csssscc" />
    <rect
       style="fill:#ffffff;fill-opacity:0.30000001;fill-rule:nonzero;stroke:none"
       id="rect3770"
       width="92.954033"
       height="2.000005"
       x="1.045976"
       y="1040.3622" />
    <path
       sodipodi:type="inkscape:offset"
       inkscape:radius="-6.2058754"
       inkscape:original="M 8.96875 962.375 C 7.3210935 962.375 6 963.69609 6 965.34375 L 6 1043.375 C 6 1045.0227 7.3210935 1046.375 8.96875 1046.375 L 87.03125 1046.375 C 88.678906 1046.375 90 1045.0227 90 1043.375 L 90 965.34375 C 90 963.69609 88.678906 962.375 87.03125 962.375 L 8.96875 962.375 z "
       style="fill:#ffffff;fill-opacity:0.40639271;fill-rule:nonzero;stroke:none"
       id="path3762-1"
       d="m 12.21875,968.59375 0,71.56245 71.5625,0 0,-71.56245 -71.5625,0 z"
       transform="matrix(1,0,0,0.05654376,-0.62012236,977.17619)" />
    <path
       sodipodi:type="inkscape:offset"
       inkscape:radius="-6.2058754"
       inkscape:original="M 8.96875 962.375 C 7.3210935 962.375 6 963.69609 6 965.34375 L 6 1043.375 C 6 1045.0227 7.3210935 1046.375 8.96875 1046.375 L 87.03125 1046.375 C 88.678906 1046.375 90 1045.0227 90 1043.375 L 90 965.34375 C 90 963.69609 88.678906 962.375 87.03125 962.375 L 8.96875 962.375 z "
       style="fill:#ffffff;fill-opacity:1;fill-rule:nonzero;stroke:none"
       id="path3762"
       d="m 12.21875,968.59375 0,71.56245 71.5625,0 0,-71.56245 -71.5625,0 z"
       transform="matrix(1,0,0,0.9208388,-0.6201224,74.127928)" />
    <path
       style="fill:none;stroke:#c6c6c6;stroke-width:3;stroke-miterlimit:4;stroke-opacity:1;stroke-dasharray:none"
       d="m 35.458004,958.84632 c -1.021547,0 -1.84375,0.82221 -1.84375,1.84375 l 0,6.84375 c 0,1.02155 0.822203,1.84375 1.84375,1.84375 l 5.0625,0 c 1.15481,2.00137 3.773493,3.40625 6.84375,3.40625 3.070257,0 5.72019,-1.40488 6.875,-3.40625 l 5.0625,0 c 1.021547,0 1.84375,-0.8222 1.84375,-1.84375 l 0,-6.84375 c 0,-1.02154 -0.822203,-1.84375 -1.84375,-1.84375 z"
       id="rect2987"
       inkscape:connector-curvature="0"
       sodipodi:nodetypes="sssscscsssss" />
    <path
       sodipodi:type="arc"
       style="fill:#660066;fill-opacity:1;fill-rule:nonzero;stroke:none"
       id="path3800"
       sodipodi:cx="-119.57133"
       sodipodi:cy="28.425003"
       sodipodi:rx="6.2719307"
       sodipodi:ry="7.2835326"
       d="m -113.2994,28.425003 c 0,4.022584 -2.80804,7.283533 -6.27193,7.283533 -3.46389,0 -6.27193,-3.260949 -6.27193,-7.283533 0,-4.022584 2.80804,-7.283533 6.27193,-7.283533 3.46389,0 6.27193,3.260949 6.27193,7.283533 z"
       transform="matrix(0.95664322,0,0,0.82377604,140.38046,960.91705)" />
    <rect
       style="fill:#660066;fill-opacity:1;fill-rule:nonzero;stroke:none"
       id="rect3802"
       width="36.534584"
       height="4"
       x="38.606823"
       y="981.88184"
       ry="0" />
    <path
       transform="matrix(0.95664322,0,0,0.82377604,140.38046,976.91705)"
       d="m -113.2994,28.425003 c 0,4.022584 -2.80804,7.283533 -6.27193,7.283533 -3.46389,0 -6.27193,-3.260949 -6.27193,-7.283533 0,-4.022584 2.80804,-7.283533 6.27193,-7.283533 3.46389,0 6.27193,3.260949 6.27193,7.283533 z"
       sodipodi:ry="7.2835326"
       sodipodi:rx="6.2719307"
       sodipodi:cy="28.425003"
       sodipodi:cx="-119.57133"
       id="path3804"
       style="fill:#660066;fill-opacity:1;fill-rule:nonzero;stroke:none"
       sodipodi:type="arc" />
    <rect
       ry="0"
       y="997.88196"
       x="38.606823"
       height="4"
       width="36.534584"
       id="rect3806"
       style="fill:#660066;fill-opacity:1;fill-rule:nonzero;stroke:none" />
    <path
       sodipodi:type="arc"
       style="fill:#660066;fill-opacity:1;fill-rule:nonzero;stroke:none"
       id="path3808"
       sodipodi:cx="-119.57133"
       sodipodi:cy="28.425003"
       sodipodi:rx="6.2719307"
       sodipodi:ry="7.2835326"
       d="m -113.2994,28.425003 c 0,4.022584 -2.80804,7.283533 -6.27193,7.283533 -3.46389,0 -6.27193,-3.260949 -6.27193,-7.283533 0,-4.022584 2.80804,-7.283533 6.27193,-7.283533 3.46389,0 6.27193,3.260949 6.27193,7.283533 z"
       transform="matrix(0.95664322,0,0,0.82377604,140.38046,992.91705)" />
    <rect
       style="fill:#660066;fill-opacity:1;fill-rule:nonzero;stroke:none"
       id="rect3810"
       width="36.534584"
       height="4"
       x="38.606823"
       y="1013.882"
       ry="0" />
  </g>
</svg>
