<?xml version="1.0" encoding="UTF-8" standalone="no"?>
<!-- Created with Inkscape (http://www.inkscape.org/) -->

<svg
   xmlns:dc="http://purl.org/dc/elements/1.1/"
   xmlns:cc="http://creativecommons.org/ns#"
   xmlns:rdf="http://www.w3.org/1999/02/22-rdf-syntax-ns#"
   xmlns:svg="http://www.w3.org/2000/svg"
   xmlns="http://www.w3.org/2000/svg"
   xmlns:xlink="http://www.w3.org/1999/xlink"
   xmlns:sodipodi="http://sodipodi.sourceforge.net/DTD/sodipodi-0.dtd"
   xmlns:inkscape="http://www.inkscape.org/namespaces/inkscape"
   width="96"
   height="96"
   id="svg2"
   version="1.1"
   inkscape:version="0.48.4 r9939"
   sodipodi:docname="kfm.svg">
  <defs
     id="defs4">
    <linearGradient
       inkscape:collect="always"
       id="linearGradient3905">
      <stop
         style="stop-color:#000000;stop-opacity:1;"
         offset="0"
         id="stop3907" />
      <stop
         style="stop-color:#000000;stop-opacity:0;"
         offset="1"
         id="stop3909" />
    </linearGradient>
    <linearGradient
       inkscape:collect="always"
       id="linearGradient3837">
      <stop
         style="stop-color:#ffffff;stop-opacity:1;"
         offset="0"
         id="stop3839" />
      <stop
         style="stop-color:#ffffff;stop-opacity:0;"
         offset="1"
         id="stop3841" />
    </linearGradient>
    <linearGradient
       id="linearGradient3785">
      <stop
         style="stop-color:#ffffff;stop-opacity:1;"
         offset="0"
         id="stop3787" />
      <stop
         id="stop3795"
         offset="0.04609717"
         style="stop-color:#ffc78c;stop-opacity:1;" />
      <stop
         id="stop3793"
         offset="0.95514023"
         style="stop-color:#ffc78c;stop-opacity:1;" />
      <stop
         style="stop-color:#6e6e6e;stop-opacity:1;"
         offset="1"
         id="stop3789" />
    </linearGradient>
    <linearGradient
       inkscape:collect="always"
       xlink:href="#linearGradient3785"
       id="linearGradient3791"
       x1="1"
       y1="45.078125"
       x2="94"
       y2="45.078125"
       gradientUnits="userSpaceOnUse" />
    <linearGradient
       inkscape:collect="always"
       xlink:href="#linearGradient3837"
       id="linearGradient3843"
       x1="15"
       y1="76"
       x2="15"
       y2="16"
       gradientUnits="userSpaceOnUse" />
    <linearGradient
       inkscape:collect="always"
       xlink:href="#linearGradient4076"
       id="linearGradient3857"
       x1="80"
       y1="36"
       x2="20.416666"
       y2="36"
       gradientUnits="userSpaceOnUse"
       gradientTransform="matrix(0.92307692,0,0,1,1.1538462,956.36218)" />
    <linearGradient
       inkscape:collect="always"
       xlink:href="#linearGradient4084"
       id="linearGradient3861"
       gradientUnits="userSpaceOnUse"
       x1="74.583336"
       y1="31"
       x2="20.416666"
       y2="31"
       gradientTransform="matrix(0.92307692,0,0,1,6.1538462,951.36218)" />
    <linearGradient
       inkscape:collect="always"
       xlink:href="#linearGradient4068"
       id="linearGradient3871"
       gradientUnits="userSpaceOnUse"
       gradientTransform="matrix(0.92307692,0,0,1,1.1538462,946.36218)"
       x1="74.583336"
       y1="31"
       x2="20.416666"
       y2="31" />
    <linearGradient
       inkscape:collect="always"
       xlink:href="#linearGradient4052"
       id="linearGradient3881"
       gradientUnits="userSpaceOnUse"
       gradientTransform="matrix(0.92307692,0,0,1,1.1538462,941.36218)"
       x1="36.666668"
       y1="36"
       x2="36.666668"
       y2="31" />
    <linearGradient
       inkscape:collect="always"
       xlink:href="#linearGradient3905"
       id="linearGradient3911"
       x1="5"
       y1="56"
       x2="5"
       y2="34"
       gradientUnits="userSpaceOnUse"
       gradientTransform="matrix(1,0,0,1.5909091,0,-33.09091)" />
    <linearGradient
       id="linearGradient4052">
      <stop
         style="stop-color:#00d4aa;stop-opacity:1;"
         offset="0"
         id="stop4054" />
      <stop
         style="stop-color:#9dffff;stop-opacity:1;"
         offset="1"
         id="stop4056" />
    </linearGradient>
    <linearGradient
       id="linearGradient4068">
      <stop
         style="stop-color:#55d400;stop-opacity:1;"
         offset="0"
         id="stop4070" />
      <stop
         style="stop-color:#6eff42;stop-opacity:1;"
         offset="1"
         id="stop4072" />
    </linearGradient>
    <linearGradient
       id="linearGradient4076">
      <stop
         style="stop-color:#ffcc00;stop-opacity:1;"
         offset="0"
         id="stop4078" />
      <stop
         style="stop-color:#ffff18;stop-opacity:1;"
         offset="1"
         id="stop4080" />
    </linearGradient>
    <linearGradient
       id="linearGradient4084">
      <stop
         style="stop-color:#d45500;stop-opacity:1;"
         offset="0"
         id="stop4086" />
      <stop
         style="stop-color:#ffb300;stop-opacity:1;"
         offset="1"
         id="stop4088" />
    </linearGradient>
    <linearGradient
       inkscape:collect="always"
       xlink:href="#linearGradient4084"
       id="linearGradient3833"
       x1="60"
       y1="106"
       x2="60"
       y2="46"
       gradientUnits="userSpaceOnUse"
       gradientTransform="matrix(-1,0,0,1,95,956.36218)" />
  </defs>
  <sodipodi:namedview
     id="base"
     pagecolor="#ffffff"
     bordercolor="#666666"
     borderopacity="1.0"
     inkscape:pageopacity="0.0"
     inkscape:pageshadow="2"
     inkscape:zoom="5.90625"
     inkscape:cx="18.031746"
     inkscape:cy="48"
     inkscape:document-units="px"
     inkscape:current-layer="layer1"
     showgrid="true"
     inkscape:snap-page="true"
     inkscape:snap-global="true"
     inkscape:snap-center="true"
     inkscape:snap-object-midpoints="false"
     showguides="true"
     inkscape:guide-bbox="true"
     inkscape:snap-bbox="true"
     inkscape:object-paths="true"
     inkscape:object-nodes="true"
     inkscape:window-width="1305"
     inkscape:window-height="744"
     inkscape:window-x="61"
     inkscape:window-y="24"
     inkscape:window-maximized="1"
     inkscape:snap-midpoints="false"
     inkscape:snap-grids="true"
     inkscape:snap-to-guides="false">
    <inkscape:grid
       type="xygrid"
       id="grid3002"
       empspacing="5"
       visible="true"
       enabled="true"
       snapvisiblegridlinesonly="true" />
  </sodipodi:namedview>
  <metadata
     id="metadata7">
    <rdf:RDF>
      <cc:Work
         rdf:about="">
        <dc:format>image/svg+xml</dc:format>
        <dc:type
           rdf:resource="http://purl.org/dc/dcmitype/StillImage" />
        <dc:title />
      </cc:Work>
    </rdf:RDF>
  </metadata>
  <g
     inkscape:label="Layer 1"
     inkscape:groupmode="layer"
     id="layer1"
     transform="translate(0,-956.36218)">
    <rect
       style="fill:#ffffff;fill-opacity:0;fill-rule:nonzero;stroke:none"
       id="rect3775"
       width="96"
       height="96"
       x="0"
       y="956.36218"
       ry="0" />
    <path
       style="fill:#000000;fill-opacity:0.09589041;fill-rule:nonzero;stroke:none"
       d="m 3.353015,956.30662 c -1.884176,0 -3.4111555,1.43156 -3.4111555,3.19799 l 0,83.65949 c 0,1.7665 1.5269795,3.1981 3.4111555,3.1981 l 89.23583,0 c 1.884174,0 3.411155,-1.4316 3.411155,-3.1981 l 0,-83.65949 c 0,-1.76643 -1.526981,-3.19799 -3.411155,-3.19799 z"
       id="rect3772"
       inkscape:connector-curvature="0"
       sodipodi:nodetypes="sssssssss" />
    <rect
       style="fill:#dc7100;fill-opacity:1;fill-rule:nonzero;stroke:none"
       id="rect2985-9"
       width="93"
       height="88.999977"
       x="0.99999893"
       y="957.36224"
       ry="3.1511385" />
    <path
       inkscape:connector-curvature="0"
       id="path4048"
       d="m 19.615385,964.36218 c -2.556923,0 -4.615385,2.23 -4.615385,5 l 0,15.00002 60,0 0,-15.00002 c 0,-2.77 -2.058462,-5 -4.615385,-5 l -50.76923,0 z"
       style="fill:#000000;fill-opacity:0.14509804;fill-rule:evenodd;stroke:none" />
    <path
       style="fill:#000000;fill-opacity:0.14509804;fill-rule:evenodd;stroke:none"
       d="m 19.615385,963.36218 c -2.556923,0 -4.615385,2.23 -4.615385,5 l 0,15.00002 60,0 0,-15.00002 c 0,-2.77 -2.058462,-5 -4.615385,-5 l -50.76923,0 z"
       id="path4046"
       inkscape:connector-curvature="0" />
    <rect
       ry="2.5396814"
       y="965.99713"
       x="10.023008"
       height="71.730141"
       width="74.953979"
       id="rect3778"
       style="fill:#1c1c1c;fill-opacity:1;fill-rule:nonzero;stroke:none" />
    <path
       style="fill:url(#linearGradient3843);fill-opacity:1;fill-rule:evenodd;stroke:none"
       d="M 10 16 L 10 41 L 15 41 L 15 16 L 10 16 z M 80 16 L 80 41 L 85 41 L 85 16 L 80 16 z "
       transform="translate(0,956.36218)"
       id="rect3832" />
    <path
       inkscape:connector-curvature="0"
       style="fill:#ff0066;fill-opacity:1;fill-rule:evenodd;stroke:none"
       d="m 19.615385,967.36218 c -2.556923,0 -4.615385,2.23 -4.615385,5 l 0,15.00002 60,0 0,-15.00002 c 0,-2.77 -2.058462,-5 -4.615385,-5 l -50.76923,0 z"
       id="path3891" />
    <path
       inkscape:connector-curvature="0"
       id="path4043"
       d="m 19.615385,969.36218 c -2.556923,0 -4.615385,2.23 -4.615385,5 l 0,15.00002 60,0 0,-15.00002 c 0,-2.77 -2.058462,-5 -4.615385,-5 l -50.76923,0 z"
       style="fill:#000000;fill-opacity:0.14509804;fill-rule:evenodd;stroke:none" />
    <path
       style="fill:#000000;fill-opacity:0.14509804;fill-rule:evenodd;stroke:none"
       d="m 19.615385,970.36218 c -2.556923,0 -4.615385,2.23 -4.615385,5 l 0,15.00002 60,0 0,-15.00002 c 0,-2.77 -2.058462,-5 -4.615385,-5 l -50.76923,0 z"
       id="path4041"
       inkscape:connector-curvature="0" />
    <path
       inkscape:connector-curvature="0"
       id="path4039"
       d="m 19.615385,971.36218 c -2.556923,0 -4.615385,2.23 -4.615385,5 l 0,15.00002 60,0 0,-15.00002 c 0,-2.77 -2.058462,-5 -4.615385,-5 l -50.76923,0 z"
       style="fill:#000000;fill-opacity:0.14509804;fill-rule:evenodd;stroke:none" />
    <path
       id="path3879"
       d="m 19.615385,972.36218 c -2.556923,0 -4.615385,2.23 -4.615385,5 l 0,15.00002 60,0 0,-15.00002 c 0,-2.77 -2.058462,-5 -4.615385,-5 l -50.76923,0 z"
       style="fill:url(#linearGradient3881);fill-opacity:1;fill-rule:evenodd;stroke:none"
       inkscape:connector-curvature="0" />
    <path
       style="fill:#000000;fill-opacity:0.14509804;fill-rule:evenodd;stroke:none"
       d="m 19.615385,974.36218 c -2.556923,0 -4.615385,2.23 -4.615385,5 l 0,15.00002 60,0 0,-15.00002 c 0,-2.77 -2.058462,-5 -4.615385,-5 l -50.76923,0 z"
       id="path4037"
       inkscape:connector-curvature="0" />
    <path
       inkscape:connector-curvature="0"
       id="path4035"
       d="m 19.615385,975.36218 c -2.556923,0 -4.615385,2.23 -4.615385,5 l 0,15.00002 60,0 0,-15.00002 c 0,-2.77 -2.058462,-5 -4.615385,-5 l -50.76923,0 z"
       style="fill:#000000;fill-opacity:0.14509804;fill-rule:evenodd;stroke:none" />
    <path
       style="fill:#000000;fill-opacity:0.14509804;fill-rule:evenodd;stroke:none"
       d="m 19.615385,976.36218 c -2.556923,0 -4.615385,2.23 -4.615385,5 l 0,15.00002 60,0 0,-15.00002 c 0,-2.77 -2.058462,-5 -4.615385,-5 l -50.76923,0 z"
       id="path4033"
       inkscape:connector-curvature="0" />
    <path
       inkscape:connector-curvature="0"
       style="fill:url(#linearGradient3871);fill-opacity:1;fill-rule:evenodd;stroke:none"
       d="m 19.615385,977.36218 c -2.556923,0 -4.615385,2.23 -4.615385,5 l 0,15.00002 60,0 0,-15.00002 c 0,-2.77 -2.058462,-5 -4.615385,-5 l -50.76923,0 z"
       id="path3869" />
    <rect
       style="fill:#ffedf3;fill-opacity:1;fill-rule:evenodd;stroke:none"
       id="rect3901"
       width="45"
       height="13.476193"
       x="20"
       y="978.88599"
       ry="0" />
    <path
       inkscape:connector-curvature="0"
       id="path4031"
       d="m 24.615385,980.36218 c -2.556923,0 -4.615385,2.23 -4.615385,5 l 0,15.00002 60,0 0,-15.00002 c 0,-2.77 -2.058462,-5 -4.615385,-5 l -50.76923,0 z"
       style="fill:#000000;fill-opacity:0.14509804;fill-rule:evenodd;stroke:none" />
    <path
       style="fill:#000000;fill-opacity:0.14509804;fill-rule:evenodd;stroke:none"
       d="m 24.615385,981.36218 c -2.556923,0 -4.615385,2.23 -4.615385,5 l 0,15.00002 60,0 0,-15.00002 c 0,-2.77 -2.058462,-5 -4.615385,-5 l -50.76923,0 z"
       id="path4029"
       inkscape:connector-curvature="0" />
    <path
       id="path3859"
       d="m 24.615385,982.36218 c -2.556923,0 -4.615385,2.23 -4.615385,5 l 0,15.00002 60,0 0,-15.00002 c 0,-2.77 -2.058462,-5 -4.615385,-5 l -50.76923,0 z"
       style="fill:url(#linearGradient3861);fill-opacity:1;fill-rule:evenodd;stroke:none"
       inkscape:connector-curvature="0" />
    <path
       inkscape:connector-curvature="0"
       id="path4027"
       d="m 19.615385,984.36218 c -2.556923,0 -4.615385,2.23 -4.615385,5 l 0,15.00002 60,0 0,-15.00002 c 0,-2.77 -2.058462,-5 -4.615385,-5 l -50.76923,0 z"
       style="fill:#000000;fill-opacity:0.14509804;fill-rule:evenodd;stroke:none" />
    <path
       inkscape:connector-curvature="0"
       id="path4021"
       d="m 19.615385,986.36218 c -2.556923,0 -4.615385,2.23 -4.615385,5 l 0,15.00002 60,0 0,-15.00002 c 0,-2.77 -2.058462,-5 -4.615385,-5 l -50.76923,0 z"
       style="fill:#000000;fill-opacity:0.14509805;fill-rule:evenodd;stroke:none" />
    <path
       style="fill:#000000;fill-opacity:0.14509804;fill-rule:evenodd;stroke:none"
       d="m 19.615385,985.36218 c -2.556923,0 -4.615385,2.23 -4.615385,5 l 0,15.00002 60,0 0,-15.00002 c 0,-2.77 -2.058462,-5 -4.615385,-5 l -50.76923,0 z"
       id="path4025"
       inkscape:connector-curvature="0" />
    <path
       style="fill:url(#linearGradient3857);fill-opacity:1;fill-rule:evenodd;stroke:none"
       d="m 19.615385,987.36218 c -2.556923,0 -4.615385,2.23 -4.615385,5 l 0,15.00002 60,0 0,-15.00002 c 0,-2.77 -2.058462,-5 -4.615385,-5 l -50.76923,0 z"
       id="rect3845"
       inkscape:connector-curvature="0" />
    <path
       style="fill:url(#linearGradient3911);fill-opacity:1;fill-rule:evenodd;stroke:none"
       d="m 1,21 0,24 9,0 0,-24 z m 84,0 0,24 9,0 0,-24 z"
       transform="translate(0,956.36218)"
       id="rect3903"
       inkscape:connector-curvature="0"
       sodipodi:nodetypes="cccccccccc" />
    <path
       style="fill:#000000;fill-opacity:0.1461187;fill-rule:evenodd;stroke:none"
       d="m 15,996.36218 0,2 60,0 0,-2 -60,0 z"
       id="rect4010"
       inkscape:connector-curvature="0" />
    <path
       inkscape:connector-curvature="0"
       id="path4017"
       d="m 15,995.36218 0,3 60,0 0,-3 -60,0 z"
       style="fill:#000000;fill-opacity:0.1461187;fill-rule:evenodd;stroke:none" />
    <path
       style="fill:#000000;fill-opacity:0.1461187;fill-rule:evenodd;stroke:none"
       d="m 15,994.36218 0,4 60,0 0,-4 -60,0 z"
       id="path4019"
       inkscape:connector-curvature="0" />
    <path
       style="fill:#000000;fill-opacity:0.18721463;fill-rule:nonzero;stroke:none"
       d="m 1.0459761,1041.8066 0,7.4219 c 0,1.7392 1.461916,3.1337 3.2852054,3.1337 l 86.3836135,0 c 1.823288,0 3.285205,-1.3945 3.285205,-3.1337 l 0,-7.4219 -92.9540239,0 z"
       id="rect3785"
       inkscape:connector-curvature="0" />
    <path
       style="fill:#000000;fill-opacity:0.38356168;fill-rule:nonzero;stroke:none"
       d="m 1,1042.3622 0.045976,2.7457 c 0.03024,1.8058 1.461916,3.2543 3.2852054,3.2543 l 86.3836136,0 c 1.823288,0 3.285205,-1.4481 3.285205,-3.2543 l -0.04598,-2.7457 z"
       id="rect3781"
       inkscape:connector-curvature="0"
       sodipodi:nodetypes="csssscc" />
    <path
       style="fill:#000000;fill-opacity:0.38356168;fill-rule:nonzero;stroke:none"
       d="m 1.0459761,1041.8066 0,5.3807 c 0,1.762 1.461916,3.1749 3.2852054,3.1749 l 86.3836135,0 c 1.823288,0 3.285205,-1.4129 3.285205,-3.1749 l 0,-5.3807 -92.9540239,0 z"
       id="rect3783"
       inkscape:connector-curvature="0" />
    <rect
       style="fill:#ffffff;fill-opacity:0.30000001;fill-rule:nonzero;stroke:none"
       id="rect3770"
       width="92.954033"
       height="2.000005"
       x="1.045976"
       y="1040.3622" />
    <path
       style="fill:url(#linearGradient3833);fill-opacity:1;fill-rule:nonzero;stroke:none"
       d="m 94,1000.5184 0,42.6875 c 0,0.8729 -0.336682,1.6805 -0.90625,2.25 -0.569568,0.5696 -1.377135,0.9063 -2.25,0.9063 l -86.6875,0 c -0.872865,0 -1.680432,-0.3367 -2.25,-0.9063 C 1.336682,1044.8864 1,1044.0788 1,1043.2059 l 0,-42.6875 c 0,-1.7457 1.410519,-3.15622 3.15625,-3.15622 l 86.6875,0 c 1.745731,0 3.15625,1.41052 3.15625,3.15622 z"
       id="rect3002"
       inkscape:connector-curvature="0" />
    <path
       style="fill:url(#linearGradient3791);fill-opacity:1;fill-rule:nonzero;stroke:none"
       d="M 4.15625 41 C 2.4105192 41 1 42.410519 1 44.15625 L 1 49.15625 C 1 47.40405 2.4105192 46 4.15625 46 L 90.84375 46 C 92.589481 46 94 47.40405 94 49.15625 L 94 44.15625 C 94 42.410519 92.589481 41 90.84375 41 L 4.15625 41 z "
       transform="translate(0,956.36218)"
       id="path3780" />
    <rect
       style="fill:#000000;fill-opacity:0.33789954;fill-rule:evenodd;stroke:none"
       id="rect3830"
       width="35"
       height="38"
       x="55"
       y="1008.3622" />
    <rect
       style="fill:#000000;fill-opacity:0.33789954;fill-rule:evenodd;stroke:none"
       id="rect3812"
       width="5"
       height="5"
       x="60"
       y="1012.3622" />
    <rect
       y="1022.3622"
       x="60"
       height="5"
       width="5"
       id="rect3814"
       style="fill:#000000;fill-opacity:0.33789954;fill-rule:evenodd;stroke:none" />
    <rect
       style="fill:#000000;fill-opacity:0.33789954;fill-rule:evenodd;stroke:none"
       id="rect3816"
       width="5"
       height="5"
       x="60"
       y="1032.3622" />
    <rect
       y="1012.3622"
       x="70"
       height="5"
       width="5"
       id="rect3818"
       style="fill:#000000;fill-opacity:0.33789954;fill-rule:evenodd;stroke:none" />
    <rect
       style="fill:#000000;fill-opacity:0.33789954;fill-rule:evenodd;stroke:none"
       id="rect3820"
       width="5"
       height="5"
       x="70"
       y="1022.3622" />
    <rect
       y="1032.3622"
       x="70"
       height="5"
       width="15"
       id="rect3822"
       style="fill:#000000;fill-opacity:0.33789954;fill-rule:evenodd;stroke:none" />
    <rect
       style="fill:#000000;fill-opacity:0.33789954;fill-rule:evenodd;stroke:none"
       id="rect3824"
       width="5"
       height="5"
       x="80"
       y="1012.3622" />
    <rect
       y="1022.3622"
       x="80"
       height="5"
       width="5"
       id="rect3826"
       style="fill:#000000;fill-opacity:0.33789954;fill-rule:evenodd;stroke:none" />
    <rect
       style="opacity:1;fill:#3d3d3d;fill-opacity:0.99543381;fill-rule:evenodd;stroke:none"
       id="rect3060"
       width="5"
       height="10"
       x="15"
       y="61"
       transform="translate(0,956.36218)" />
    <rect
       style="fill:#3d3d3d;fill-opacity:0.99543379;fill-rule:evenodd;stroke:none"
       id="rect3831"
       width="30"
       height="5"
       x="15"
       y="66"
       transform="translate(0,956.36218)" />
    <rect
       style="fill:#3d3d3d;fill-opacity:0.99543379;fill-rule:evenodd;stroke:none"
       id="rect3833"
       width="5"
       height="10"
       x="40"
       y="61"
       transform="translate(0,956.36218)" />
  </g>
</svg>
