<?xml version="1.0" encoding="UTF-8" standalone="no"?>
<!-- Created with Inkscape (http://www.inkscape.org/) -->

<svg
   xmlns:dc="http://purl.org/dc/elements/1.1/"
   xmlns:cc="http://creativecommons.org/ns#"
   xmlns:rdf="http://www.w3.org/1999/02/22-rdf-syntax-ns#"
   xmlns:svg="http://www.w3.org/2000/svg"
   xmlns="http://www.w3.org/2000/svg"
   xmlns:xlink="http://www.w3.org/1999/xlink"
   xmlns:sodipodi="http://sodipodi.sourceforge.net/DTD/sodipodi-0.dtd"
   xmlns:inkscape="http://www.inkscape.org/namespaces/inkscape"
   width="96"
   height="96"
   id="svg2"
   version="1.1"
   inkscape:version="0.48.4 r9939"
   sodipodi:docname="khangman.svg">
  <defs
     id="defs4">
    <linearGradient
       id="linearGradient3767">
      <stop
         style="stop-color:#e86b06;stop-opacity:1;"
         offset="0"
         id="stop3769" />
      <stop
         style="stop-color:#faab2e;stop-opacity:1;"
         offset="1"
         id="stop3771" />
    </linearGradient>
    <linearGradient
       inkscape:collect="always"
       xlink:href="#linearGradient3767"
       id="linearGradient3773"
       x1="25"
       y1="1047.3622"
       x2="25"
       y2="957.36218"
       gradientUnits="userSpaceOnUse" />
    <radialGradient
       inkscape:collect="always"
       xlink:href="#linearGradient3908"
       id="radialGradient3024"
       gradientUnits="userSpaceOnUse"
       gradientTransform="matrix(1.1973982,0,0,1.2307866,-13.132058,942.33705)"
       cx="48"
       cy="48"
       fx="48"
       fy="48"
       r="42" />
    <linearGradient
       id="linearGradient3908">
      <stop
         offset="0"
         style="stop-color:#d45500;stop-opacity:0.34351146"
         id="stop3910" />
      <stop
         offset="1"
         style="stop-color:#e65c00;stop-opacity:1"
         id="stop3912" />
    </linearGradient>
    <radialGradient
       inkscape:collect="always"
       xlink:href="#linearGradient3908"
       id="radialGradient3019"
       gradientUnits="userSpaceOnUse"
       gradientTransform="matrix(1.1973982,0,0,1.2307866,-13.132058,942.33705)"
       cx="48"
       cy="48"
       fx="48"
       fy="48"
       r="42" />
    <radialGradient
       inkscape:collect="always"
       xlink:href="#linearGradient3908"
       id="radialGradient3023"
       gradientUnits="userSpaceOnUse"
       gradientTransform="matrix(1.3256909,0,0,1.3040477,-16.133931,939.25743)"
       cx="48"
       cy="48"
       fx="48"
       fy="48"
       r="42" />
  </defs>
  <sodipodi:namedview
     id="base"
     pagecolor="#ffffff"
     bordercolor="#666666"
     borderopacity="1.0"
     inkscape:pageopacity="0.0"
     inkscape:pageshadow="2"
     inkscape:zoom="5.90625"
     inkscape:cx="22.010582"
     inkscape:cy="48"
     inkscape:document-units="px"
     inkscape:current-layer="layer1"
     showgrid="true"
     inkscape:snap-page="true"
     inkscape:snap-global="true"
     inkscape:snap-center="true"
     inkscape:snap-object-midpoints="false"
     showguides="true"
     inkscape:guide-bbox="true"
     inkscape:snap-bbox="true"
     inkscape:object-paths="true"
     inkscape:object-nodes="true"
     inkscape:window-width="1305"
     inkscape:window-height="744"
     inkscape:window-x="61"
     inkscape:window-y="24"
     inkscape:window-maximized="1"
     inkscape:snap-midpoints="true"
     inkscape:snap-grids="true"
     inkscape:snap-to-guides="false">
    <inkscape:grid
       type="xygrid"
       id="grid3002"
       empspacing="5"
       visible="true"
       enabled="true"
       snapvisiblegridlinesonly="true" />
  </sodipodi:namedview>
  <metadata
     id="metadata7">
    <rdf:RDF>
      <cc:Work
         rdf:about="">
        <dc:format>image/svg+xml</dc:format>
        <dc:type
           rdf:resource="http://purl.org/dc/dcmitype/StillImage" />
        <dc:title />
      </cc:Work>
    </rdf:RDF>
  </metadata>
  <g
     inkscape:label="Layer 1"
     inkscape:groupmode="layer"
     id="layer1"
     transform="translate(0,-956.36218)">
    <rect
       style="fill:#ffffff;fill-opacity:0;fill-rule:nonzero;stroke:none"
       id="rect3775"
       width="96"
       height="96"
       x="0"
       y="956.36218"
       ry="0" />
    <path
       style="fill:#000000;fill-opacity:0.09589041;fill-rule:nonzero;stroke:none"
       d="m 3.353015,956.30662 c -1.884176,0 -3.4111555,1.43156 -3.4111555,3.19799 l 0,83.65949 c 0,1.7665 1.5269795,3.1981 3.4111555,3.1981 l 89.23583,0 c 1.884174,0 3.411155,-1.4316 3.411155,-3.1981 l 0,-83.65949 c 0,-1.76643 -1.526981,-3.19799 -3.411155,-3.19799 z"
       id="rect3772"
       inkscape:connector-curvature="0"
       sodipodi:nodetypes="sssssssss" />
    <path
       style="fill:#000000;fill-opacity:0.18721463;fill-rule:nonzero;stroke:none"
       d="m 1.0459761,1041.8066 0,7.4219 c 0,1.7392 1.461916,3.1337 3.2852054,3.1337 l 86.3836135,0 c 1.823288,0 3.285205,-1.3945 3.285205,-3.1337 l 0,-7.4219 -92.9540239,0 z"
       id="rect3785"
       inkscape:connector-curvature="0" />
    <path
       style="fill:#000000;fill-opacity:0.38356168;fill-rule:nonzero;stroke:none"
       d="m 1.0459761,1041.8066 0,5.3807 c 0,1.762 1.461916,3.1749 3.2852054,3.1749 l 86.3836135,0 c 1.823288,0 3.285205,-1.4129 3.285205,-3.1749 l 0,-5.3807 -92.9540239,0 z"
       id="rect3783"
       inkscape:connector-curvature="0" />
    <rect
       style="fill:#ff9900;fill-opacity:1;fill-rule:nonzero;stroke:none"
       id="rect2985-4"
       width="93"
       height="89"
       x="1.0000001"
       y="957.36218"
       ry="3.1511395" />
    <path
       style="opacity:0.5;fill:url(#radialGradient3023);fill-opacity:1;stroke:none"
       d="m 38.193082,957.36216 -19.997769,0 27.505582,42.74514 -44.7008948,-28.34223 0,20.39583 44.1473228,9.7013 -44.1473228,9.4695 0,20.1972 44.7008948,-27.9119 -27.955358,42.7452 20.136161,0 9.618304,-42.1823 9.30692,42.1823 20.066965,0 -27.574778,-42.7452 44.700895,28.276 0,-20.3296 -44.147323,-9.7012 44.147323,-9.50264 0,-20.19717 -44.700895,27.94491 27.955358,-42.74514 -20.136161,0 -9.618304,42.14915 -9.30692,-42.14915 z"
       id="path3806"
       inkscape:connector-curvature="0" />
    <path
       style="font-size:88.20948029px;font-style:normal;font-variant:normal;font-weight:normal;font-stretch:normal;text-align:end;line-height:125%;letter-spacing:0px;word-spacing:0px;text-anchor:end;fill:#ffffff;fill-opacity:1;stroke:none;font-family:mry_KacstQurn;-inkscape-font-specification:mry_KacstQurn"
       d="m 26.98326,976.36739 c -2.53917,0 -3.238243,0.1014 -4.117188,0.66221 -1.464906,0.84114 -2.31808,2.4175 -2.31808,4.00632 0,1.49536 0.77171,2.90618 2.041295,3.84077 0.878944,0.65423 1.952463,0.86087 4.393973,0.86087 l 1.453125,0 0,35.79204 -1.453125,0 c -2.343849,0 -3.238243,0.068 -4.117188,0.6291 -1.464906,0.8411 -2.31808,2.4505 -2.31808,4.0394 0,1.4018 0.77171,2.9003 2.041295,3.7415 0.781283,0.6541 2.147784,0.9271 4.393973,0.9271 l 14.635045,0 c 1.953209,0 3.433565,-0.2884 4.117188,-0.6622 1.464906,-0.8412 2.352679,-2.4175 2.352679,-4.0064 0,-1.4953 -0.806308,-2.9062 -2.075893,-3.8408 -0.976604,-0.6542 -1.757142,-0.8277 -4.393974,-0.8277 l -3.390625,0 0,-10.0986 5.847099,-4.7679 c 5.957284,1.7758 12.190096,10.8387 16.780134,24.2036 l 10.760045,0 c 1.953208,0 3.398967,-0.2884 4.08259,-0.6622 1.464906,-0.8412 2.352678,-2.4175 2.352678,-4.0064 0,-1.4953 -0.771709,-2.9062 -2.041294,-3.8408 -0.976604,-0.6542 -1.757142,-0.8277 -4.393974,-0.8277 l -3.113839,0 C 64.00874,1010.7817 57.955055,1002.9988 51.99777,1000.008 l 17.160715,-14.27044 c 4.004076,0 6.054688,-1.61747 6.054688,-4.70164 0,-1.49536 -0.765575,-2.87308 -1.9375,-3.80766 -0.976604,-0.65423 -1.860937,-0.86087 -4.497768,-0.86087 l -9.756697,0 c -0.781283,0 -0.903968,0.0118 -2.075893,0.19866 -2.832151,0.28039 -4.393974,1.95231 -4.393974,4.5692 0,2.14958 0.993775,3.4573 3.044643,4.20499 l -17.368304,14.30351 0,-13.90619 3.390625,0 c 2.24619,0 3.335905,-0.1949 4.117188,-0.66221 1.464906,-0.84115 2.352679,-2.45061 2.352679,-4.03943 0,-1.49536 -0.806308,-2.87308 -2.075893,-3.80766 -0.878944,-0.65423 -1.757142,-0.86087 -4.393974,-0.86087 l -14.635045,0 z"
       id="text3029"
       inkscape:connector-curvature="0" />
    <path
       style="fill:#000000;fill-opacity:0.38356168;fill-rule:nonzero;stroke:none"
       d="m 1,1042.3622 0.045976,2.7457 c 0.03024,1.8058 1.461916,3.2543 3.2852054,3.2543 l 86.3836136,0 c 1.823288,0 3.285205,-1.4481 3.285205,-3.2543 l -0.04598,-2.7457 z"
       id="rect3781"
       inkscape:connector-curvature="0"
       sodipodi:nodetypes="csssscc" />
    <rect
       style="fill:#ffffff;fill-opacity:0.30000001;fill-rule:nonzero;stroke:none"
       id="rect3770"
       width="92.954033"
       height="2.000005"
       x="1.045976"
       y="1040.3622" />
  </g>
</svg>
