<?xml version="1.0" encoding="UTF-8" standalone="no"?>
<!-- Created with Inkscape (http://www.inkscape.org/) -->

<svg
   xmlns:dc="http://purl.org/dc/elements/1.1/"
   xmlns:cc="http://creativecommons.org/ns#"
   xmlns:rdf="http://www.w3.org/1999/02/22-rdf-syntax-ns#"
   xmlns:svg="http://www.w3.org/2000/svg"
   xmlns="http://www.w3.org/2000/svg"
   xmlns:xlink="http://www.w3.org/1999/xlink"
   xmlns:sodipodi="http://sodipodi.sourceforge.net/DTD/sodipodi-0.dtd"
   xmlns:inkscape="http://www.inkscape.org/namespaces/inkscape"
   width="96"
   height="96"
   id="svg2"
   version="1.1"
   inkscape:version="0.48.4 r9939"
   sodipodi:docname="kid3.svg">
  <sodipodi:namedview
     id="base"
     pagecolor="#ffffff"
     bordercolor="#666666"
     borderopacity="1.0"
     inkscape:pageopacity="0.0"
     inkscape:pageshadow="2"
     inkscape:zoom="4.286426"
     inkscape:cx="20.615574"
     inkscape:cy="36.538338"
     inkscape:document-units="px"
     inkscape:current-layer="layer1"
     showgrid="true"
     inkscape:snap-page="true"
     inkscape:snap-global="true"
     inkscape:snap-center="true"
     inkscape:snap-object-midpoints="false"
     showguides="true"
     inkscape:guide-bbox="true"
     inkscape:snap-bbox="true"
     inkscape:object-paths="true"
     inkscape:object-nodes="true"
     inkscape:window-width="1305"
     inkscape:window-height="744"
     inkscape:window-x="61"
     inkscape:window-y="24"
     inkscape:window-maximized="1"
     inkscape:snap-midpoints="false"
     inkscape:snap-grids="true"
     inkscape:snap-to-guides="false">
    <inkscape:grid
       type="xygrid"
       id="grid3002"
       empspacing="5"
       visible="true"
       enabled="true"
       snapvisiblegridlinesonly="true" />
  </sodipodi:namedview>
  <defs
     id="defs4">
    <linearGradient
       inkscape:collect="always"
       id="linearGradient3858">
      <stop
         style="stop-color:#000000;stop-opacity:1;"
         offset="0"
         id="stop3860" />
      <stop
         style="stop-color:#000000;stop-opacity:0;"
         offset="1"
         id="stop3862" />
    </linearGradient>
    <linearGradient
       id="linearGradient3820">
      <stop
         id="stop3822"
         offset="0"
         style="stop-color:#000000;stop-opacity:1;" />
      <stop
         style="stop-color:#ffffff;stop-opacity:1;"
         offset="0.59999979"
         id="stop3824" />
      <stop
         style="stop-color:#ffffff;stop-opacity:1;"
         offset="0.59999979"
         id="stop3826" />
      <stop
         id="stop3828"
         offset="1"
         style="stop-color:#000000;stop-opacity:1;" />
    </linearGradient>
    <radialGradient
       inkscape:collect="always"
       xlink:href="#linearGradient3820"
       id="radialGradient3796"
       cx="47.5"
       cy="33.5"
       fx="47.5"
       fy="33.5"
       r="7.5"
       gradientUnits="userSpaceOnUse"
       gradientTransform="matrix(2,0,0,2.0000003,-69.999999,915.36217)" />
    <linearGradient
       inkscape:collect="always"
       xlink:href="#linearGradient3858"
       id="linearGradient3864"
       x1="20"
       y1="14.03125"
       x2="30"
       y2="14.03125"
       gradientUnits="userSpaceOnUse" />
  </defs>
  <metadata
     id="metadata7">
    <rdf:RDF>
      <cc:Work
         rdf:about="">
        <dc:format>image/svg+xml</dc:format>
        <dc:type
           rdf:resource="http://purl.org/dc/dcmitype/StillImage" />
        <dc:title />
      </cc:Work>
    </rdf:RDF>
  </metadata>
  <g
     inkscape:label="Layer 1"
     inkscape:groupmode="layer"
     id="layer1"
     transform="translate(0,-956.36218)">
    <rect
       style="fill:#ffffff;fill-opacity:0;fill-rule:nonzero;stroke:none"
       id="rect3775"
       width="96"
       height="96"
       x="0"
       y="956.36218"
       ry="0" />
    <path
       style="fill:#000000;fill-opacity:0.09589041;fill-rule:nonzero;stroke:none"
       d="m 3.353015,956.30662 c -1.884176,0 -3.4111555,1.43156 -3.4111555,3.19799 l 0,83.65949 c 0,1.7665 1.5269795,3.1981 3.4111555,3.1981 l 89.23583,0 c 1.884174,0 3.411155,-1.4316 3.411155,-3.1981 l 0,-83.65949 c 0,-1.76643 -1.526981,-3.19799 -3.411155,-3.19799 z"
       id="rect3772"
       inkscape:connector-curvature="0"
       sodipodi:nodetypes="sssssssss" />
    <path
       style="fill:#000000;fill-opacity:0.18721463;fill-rule:nonzero;stroke:none"
       d="m 1.0459761,1041.8066 0,7.4219 c 0,1.7392 1.461916,3.1337 3.2852054,3.1337 l 86.3836135,0 c 1.823288,0 3.285205,-1.3945 3.285205,-3.1337 l 0,-7.4219 -92.9540239,0 z"
       id="rect3785"
       inkscape:connector-curvature="0" />
    <path
       style="fill:#000000;fill-opacity:0.38356168;fill-rule:nonzero;stroke:none"
       d="m 1.0459761,1041.8066 0,5.3807 c 0,1.762 1.461916,3.1749 3.2852054,3.1749 l 86.3836135,0 c 1.823288,0 3.285205,-1.4129 3.285205,-3.1749 l 0,-5.3807 -92.9540239,0 z"
       id="rect3783"
       inkscape:connector-curvature="0" />
    <rect
       style="fill:#ef99a3;fill-opacity:1;fill-rule:nonzero;stroke:none"
       id="rect2985"
       width="92.954025"
       height="89"
       x="1.045977"
       y="957.36218"
       ry="3.1511393" />
    <path
       style="fill:#000000;fill-opacity:0.38356168;fill-rule:nonzero;stroke:none"
       d="m 1,1042.3622 0.045976,2.7457 c 0.03024,1.8058 1.461916,3.2543 3.2852054,3.2543 l 86.3836136,0 c 1.823288,0 3.285205,-1.4481 3.285205,-3.2543 l -0.04598,-2.7457 z"
       id="rect3781"
       inkscape:connector-curvature="0"
       sodipodi:nodetypes="csssscc" />
    <rect
       style="fill:#ffffff;fill-opacity:0.15686275;fill-rule:nonzero;stroke:none"
       id="rect3770"
       width="92.954033"
       height="2.000005"
       x="1.045976"
       y="1040.3622" />
    <path
       style="font-size:medium;font-style:normal;font-variant:normal;font-weight:normal;font-stretch:normal;text-indent:0;text-align:start;text-decoration:none;line-height:normal;letter-spacing:normal;word-spacing:normal;text-transform:none;direction:ltr;block-progression:tb;writing-mode:lr-tb;text-anchor:start;baseline-shift:baseline;color:#000000;fill:#ffffff;fill-opacity:1;stroke:none;stroke-width:2;marker:none;visibility:visible;display:inline;overflow:visible;enable-background:accumulate;font-family:Sans;-inkscape-font-specification:Sans"
       d="m 9.375,963.30586 -0.09375,0 -0.09375,0.0312 -0.5,0.15625 -0.09375,0.0312 -0.09375,0.0312 -0.40625,0.21875 0.96875,1.75 0.34375,-0.15625 0.03125,-0.0312 0.28125,-0.0937 0.0625,0 0.25,-0.0312 0,0.0312 4.46875,0 0,-2 -4.46875,0 -0.0625,0 -0.03125,0 z m 7.125,1.9375 6,0 0,-2 -6,0 z m 8,0 6,0 0,-2 -6,0 z m 8,0 6,0 0,-2 -6,0 z m 8,0 6,0 0,-2 -6,0 z m 8,0 6,0 0,-2 -6,0 z m 8,0 6,0 0,-2 -6,0 z m 8,0 6,0 0,-2 -6,0 z m 8,0 6,0 0,-2 -6,0 z m 8,0 4.5,0 0,-0.0312 0.25,0.0312 0.0625,0 0.28125,0.0937 0.03125,0.0312 0.3125,0.15625 0.9375,-1.78125 -0.34375,-0.1875 -0.09375,-0.0312 -0.09375,-0.0312 -0.5,-0.15625 -0.09375,-0.0312 -0.09375,0 -0.5625,-0.0625 -0.03125,0 -0.0625,0 -4.5,0 z m 6.15625,1.21875 0.03125,0.0312 0,0.0625 0.0625,0.40625 0,0.0937 0,5.09375 2,0 0,-5.1875 0,-0.0625 0,-0.0625 -0.0625,-0.53125 0,-0.125 -0.03125,-0.0937 -0.09375,-0.2187 z m -80.25,-0.34375 -0.03125,0.0937 0,0.0937 -0.0625,0.53125 0,0.0625 0,0.0625 0,5.25 2,0 0,-5.15625 0,-0.0937 0.0625,-0.4375 0,-0.0312 -0.15625,0 -1.75,-0.5625 z m 80.34375,14.03125 2,0 0,-6 -2,0 z m -80.4375,0.0625 2,0 0,-6 -2,0 z m 80.4375,7.9375 2,0 0,-6 -2,0 z m -80.4375,0.0625 2,0 0,-6 -2,0 z m 80.4375,7.9375 2,0 0,-6 -2,0 z m -80.4375,0.0625 2,0 0,-6 -2,0 z m 80.4375,7.93749 2,0 0,-5.99999 -2,0 z m -80.4375,0.063 2,0 0,-6.00009 -2,0 z m 80.4375,7.9374 2,0 0,-6 -2,0 z m -80.4375,0.063 2,0 0,-6 -2,0 z m 80.4375,7.9374 2,0 0,-6 -2,0 z m -80.4375,0.063 2,0 0,-6 -2,0 z m 80.4375,7.9374 2,0 0,-6 -2,0 z m -80.4375,0.063 2,0 0,-6 -2,0 z m 80.4375,3.625 0,0.125 -0.0625,0.4374 -0.03125,0.125 0,0.031 -0.15625,0.2813 -0.03125,0.031 -0.0625,0.125 -0.09375,0.094 -0.375,0.3124 -0.03125,0.031 -0.125,0.062 -0.03125,0 -0.46875,0.1562 -0.03125,0 -0.25,0.031 0.1875,1.9687 0.46875,-0.031 0.09375,-0.031 0.09375,0 0.5,-0.1563 0.09375,-0.031 0.09375,-0.062 0.46875,-0.25 0.09375,-0.031 0.0625,-0.062 0.40625,-0.3438 0.09375,-0.062 0.0625,-0.063 0.3125,-0.4062 0.0625,-0.062 0.0625,-0.094 0.25,-0.4688 0.0625,-0.094 0.03125,-0.094 0.15625,-0.5 0.03125,-0.094 0,-0.094 0.0625,-0.5625 0,-0.062 0,-0.031 0,-1.8126 -2,0 z m -80.4375,0.125 0,0.031 0,0.062 0.0625,0.5313 0,0.125 0.03125,0.094 0.15625,0.5 0.03125,0.094 0.0625,0.094 0.25,0.4688 0.03125,0.062 0.0625,0.094 0.34375,0.4062 0.0625,0.063 0.0625,0.062 0.40625,0.3438 0.0625,0.062 0.09375,0.031 0.46875,0.25 0.09375,0.062 0.09375,0 0.5,0.1876 0.09375,0 0.09375,0.031 0.5625,0.062 0.09375,-1 0,1 1.0625,0 0,-2 -0.96875,0 -0.09375,0 -0.25,-0.031 -0.0625,0 -0.4375,-0.1562 -0.03125,0 -0.09375,-0.062 -0.34375,-0.2813 -0.0625,-0.031 -0.09375,-0.125 0,-0.031 -0.25,-0.4063 0,-0.031 -0.03125,-0.125 -0.0625,-0.4374 0,-0.094 0,-1.6562 -2,0 z m 6.78125,3.7187 6,0 0,-2 -6,0 z m 8,0 6,0 0,-2 -6,0 z m 8,0 6,0 0,-2 -6,0 z m 8,0 6,0 0,-2 -6,0 z m 8,0 6,0 0,-2 -6,0 z m 8,0 6,0 0,-2 -6,0 z m 8,0 6,0 0,-2 -6,0 z m 8,0 6,0 0,-2 -6,0 z m 8,0 6,0 0,-2 -6,0 z"
       id="path4194"
       inkscape:connector-curvature="0" />
    <path
       inkscape:connector-curvature="0"
       id="rect3882"
       d="m 9.375,962.4375 -0.09375,0 -0.09375,0.0312 -0.5,0.15625 -0.09375,0.0312 -0.09375,0.0312 -0.40625,0.21875 0.96875,1.75 0.34375,-0.15625 0.03125,-0.0312 0.28125,-0.0937 0.0625,0 0.25,-0.0312 0,0.0312 4.46875,0 0,-2 -4.46875,0 -0.0625,0 -0.03125,0 z m 7.125,1.9375 6,0 0,-2 -6,0 z m 8,0 6,0 0,-2 -6,0 z m 8,0 6,0 0,-2 -6,0 z m 8,0 6,0 0,-2 -6,0 z m 8,0 6,0 0,-2 -6,0 z m 8,0 6,0 0,-2 -6,0 z m 8,0 6,0 0,-2 -6,0 z m 8,0 6,0 0,-2 -6,0 z m 8,0 4.5,0 0,-0.0312 0.25,0.0312 0.0625,0 0.28125,0.0937 0.03125,0.0312 0.3125,0.15625 0.9375,-1.78125 -0.34375,-0.1875 -0.09375,-0.0312 -0.09375,-0.0312 -0.5,-0.15625 -0.09375,-0.0312 -0.09375,0 -0.5625,-0.0625 -0.03125,0 -0.0625,0 -4.5,0 z m 6.15625,1.21875 0.03125,0.0312 0,0.0625 0.0625,0.40625 0,0.0937 0,5.09375 2,0 0,-5.1875 0,-0.0625 0,-0.0625 -0.0625,-0.53125 0,-0.125 -0.03125,-0.0937 L 88.5625,965 z m -80.25,-0.34375 -0.03125,0.0937 0,0.0937 -0.0625,0.53125 0,0.0625 0,0.0625 0,5.25 2,0 0,-5.15625 0,-0.0937 0.0625,-0.4375 0,-0.0312 -0.15625,0 -1.75,-0.5625 z m 80.34375,14.03125 2,0 0,-6 -2,0 z m -80.4375,0.0625 2,0 0,-6 -2,0 z m 80.4375,7.9375 2,0 0,-6 -2,0 z m -80.4375,0.0625 2,0 0,-6 -2,0 z m 80.4375,7.9375 2,0 0,-6 -2,0 z m -80.4375,0.0625 2,0 0,-6 -2,0 z m 80.4375,7.93745 2,0 0,-5.99995 -2,0 z m -80.4375,0.063 2,0 0,-6.00005 -2,0 z m 80.4375,7.9374 2,0 0,-6 -2,0 z m -80.4375,0.063 2,0 0,-6 -2,0 z m 80.4375,7.9374 2,0 0,-6 -2,0 z m -80.4375,0.063 2,0 0,-6 -2,0 z m 80.4375,7.9374 2,0 0,-6 -2,0 z m -80.4375,0.063 2,0 0,-6 -2,0 z m 80.4375,3.625 0,0.125 -0.0625,0.4374 -0.03125,0.125 0,0.031 -0.15625,0.2813 -0.03125,0.031 -0.0625,0.125 -0.09375,0.094 -0.375,0.3124 -0.03125,0.031 -0.125,0.062 -0.03125,0 -0.46875,0.1562 -0.03125,0 -0.25,0.031 0.1875,1.9687 0.46875,-0.031 0.09375,-0.031 0.09375,0 0.5,-0.1563 0.09375,-0.031 0.09375,-0.062 0.46875,-0.25 0.09375,-0.031 0.0625,-0.062 0.40625,-0.3438 0.09375,-0.062 0.0625,-0.063 0.3125,-0.4062 0.0625,-0.062 0.0625,-0.094 0.25,-0.4688 0.0625,-0.094 0.03125,-0.094 0.15625,-0.5 0.03125,-0.094 0,-0.094 0.0625,-0.5625 0,-0.062 0,-0.031 0,-1.8126 -2,0 z m -80.4375,0.125 0,0.031 0,0.062 0.0625,0.5313 0,0.125 0.03125,0.094 0.15625,0.5 0.03125,0.094 0.0625,0.094 0.25,0.4688 0.03125,0.062 0.0625,0.094 0.34375,0.4062 0.0625,0.063 0.0625,0.062 0.40625,0.3438 0.0625,0.062 0.09375,0.031 0.46875,0.25 0.09375,0.062 0.09375,0 0.5,0.1876 0.09375,0 0.09375,0.031 0.5625,0.062 0.09375,-1 0,1 1.0625,0 0,-2 -0.96875,0 -0.09375,0 -0.25,-0.031 -0.0625,0 -0.4375,-0.1562 -0.03125,0 -0.09375,-0.062 -0.34375,-0.2813 -0.0625,-0.031 -0.09375,-0.125 0,-0.031 -0.25,-0.4063 0,-0.031 -0.03125,-0.125 -0.0625,-0.4374 0,-0.094 0,-1.6562 -2,0 z m 6.78125,3.7187 6,0 0,-2 -6,0 z m 8,0 6,0 0,-2 -6,0 z m 8,0 6,0 0,-2 -6,0 z m 8,0 6,0 0,-2 -6,0 z m 8,0 6,0 0,-2 -6,0 z m 8,0 6,0 0,-2 -6,0 z m 8,0 6,0 0,-2 -6,0 z m 8,0 6,0 0,-2 -6,0 z m 8,0 6,0 0,-2 -6,0 z"
       style="font-size:medium;font-style:normal;font-variant:normal;font-weight:normal;font-stretch:normal;text-indent:0;text-align:start;text-decoration:none;line-height:normal;letter-spacing:normal;word-spacing:normal;text-transform:none;direction:ltr;block-progression:tb;writing-mode:lr-tb;text-anchor:start;baseline-shift:baseline;opacity:0.83950614;color:#000000;fill:#000000;fill-opacity:1;stroke:none;stroke-width:2;marker:none;visibility:visible;display:inline;overflow:visible;enable-background:accumulate;font-family:Sans;-inkscape-font-specification:Sans" />
    <path
       style="fill:url(#radialGradient3796);fill-opacity:1;fill-rule:evenodd;stroke:none"
       d="m 24.999999,967.36218 c -8.284271,0 -14.999999,6.7157 -14.999999,15 0,8.28427 6.715728,15 14.999999,15 8.284273,0 15.000001,-6.71573 15.000001,-15 0,-8.2843 -6.715728,-15 -15.000001,-15 z m 0,7.375 c 4.193923,0 7.625,3.4311 7.625,7.625 0,4.1939 -3.431077,7.625 -7.625,7.625 -4.19392,0 -7.624998,-3.4311 -7.624998,-7.625 0,-4.1939 3.431078,-7.625 7.624998,-7.625 z"
       id="path3006"
       inkscape:connector-curvature="0" />
    <path
       sodipodi:type="arc"
       style="fill:#000000;fill-opacity:1;fill-rule:evenodd;stroke:none"
       id="path3830"
       sodipodi:cx="22.5"
       sodipodi:cy="23.5"
       sodipodi:rx="12.5"
       sodipodi:ry="12.5"
       d="M 35,23.5 C 35,30.403559 29.403559,36 22.5,36 15.596441,36 10,30.403559 10,23.5 10,16.596441 15.596441,11 22.5,11 29.403559,11 35,16.596441 35,23.5 z"
       transform="matrix(0.72,0,0,0.72,8.8,965.44218)" />
    <path
       style="fill:#ed0091;fill-opacity:1;fill-rule:evenodd;stroke:none"
       d="m 30,957.36218 -10,0 0,25 c 0,2.77 2.23,5 5,5 2.77,0 5,-2.23 5,-5 l 0,-25 z"
       id="path3869"
       inkscape:connector-curvature="0" />
    <path
       style="fill:url(#linearGradient3864);fill-opacity:1;fill-rule:evenodd;stroke:none"
       d="M 20 26 C 20 26.6925 20.153906 27.338906 20.40625 27.9375 C 20.658594 28.536094 21.016875 29.079375 21.46875 29.53125 C 21.920625 29.983125 22.463906 30.341406 23.0625 30.59375 C 23.661094 30.846094 24.3075 31 25 31 C 25.6925 31 26.338906 30.846094 26.9375 30.59375 C 27.303157 30.439603 27.591507 30.169936 27.90625 29.9375 L 20 26 z "
       id="path3880"
       transform="translate(0,956.36218)" />
    <path
       style="fill:url(#linearGradient3864);fill-opacity:1;fill-rule:evenodd;stroke:none"
       d="M 20 16 L 20 21 L 30 26 L 30 21 L 20 16 z "
       id="path3878"
       transform="translate(0,956.36218)" />
    <path
       style="fill:url(#linearGradient3864);fill-opacity:1;fill-rule:evenodd;stroke:none"
       d="M 20 6 L 20 11 L 30 16 L 30 11 L 20 6 z "
       id="path3876"
       transform="translate(0,956.36218)" />
    <path
       style="fill:url(#linearGradient3864);fill-opacity:1;fill-rule:evenodd;stroke:none"
       d="M 30 1 L 20 1 L 30 6 L 30 1 z "
       id="path3874"
       transform="translate(0,956.36218)" />
    <path
       inkscape:connector-curvature="0"
       style="font-size:45.53670883px;font-style:normal;font-variant:normal;font-weight:normal;font-stretch:normal;text-align:end;line-height:125%;letter-spacing:0px;word-spacing:0px;text-anchor:end;fill:#000000;fill-opacity:0.51598176;stroke:none;font-family:Andale Mono;-inkscape-font-specification:Andale Mono"
       d="m 61.301683,973.41761 -1.678562,7.83945 -6.126752,0 0,3.87662 5.427351,0 -1.258922,6.17396 -4.168429,0 0,3.84792 3.3851,0 -1.594634,7.78194 3.776765,0 1.566658,-7.78194 7.133889,0 -1.650586,7.78194 3.776765,0 1.650586,-7.78194 6.0708,0 0,-3.84792 -5.371399,0 1.258922,-6.17396 4.112477,0 0,-3.87662 -3.3851,0 1.62261,-7.83945 -3.748789,0 -1.650586,7.83945 -7.049961,0 1.678562,-7.83945 -3.776765,0 z m 1.370826,11.71607 7.077937,0 -1.230946,6.1452 -7.105913,0 1.258922,-6.1452 z"
       id="text3889" />
    <rect
       y="1002.3622"
       x="12.17089"
       height="27.611938"
       width="27.829109"
       id="rect4188"
       style="fill:#ffffff;fill-opacity:1;stroke:none" />
    <path
       style="fill:#000000;stroke:none"
       d="m 15.0625,1004.6181 0,2.2422 0,2.1816 0,2.2422 0,2.1816 0,2.2422 0,2.1816 0,2.2422 0,2.1817 0,2.2422 0,2.1816 2.242211,0 2.181611,0 2.242211,0 2.181611,0 2.242212,0 2.181611,0 2.242211,0 2.181611,0 2.242211,0 2.181611,0 0,-2.1816 -2.181611,0 -2.242211,0 -2.181611,0 0,-2.2422 -2.242211,0 0,2.2422 -2.181611,0 0,-2.2422 2.181611,0 0,-2.1817 0,-2.2422 -2.181611,0 0,2.2422 -2.242212,0 0,2.1817 -2.181611,0 0,2.2422 -2.242211,0 0,-2.2422 2.242211,0 0,-2.1817 -2.242211,0 -2.181611,0 0,-2.2422 0,-2.1816 0,-2.2422 2.181611,0 0,2.2422 2.242211,0 0,-2.2422 0,-2.1816 -2.242211,0 0,-2.2422 -2.181611,0 0,-2.1816 0,-2.2422 -2.242211,0 z m 4.423822,4.4238 2.242211,0 0,-2.1816 0,-2.2422 -2.242211,0 0,2.2422 0,2.1816 z m 2.242211,6.666 0,2.1816 0,2.2422 2.181611,0 0,-2.2422 2.242212,0 0,-2.1816 2.181611,0 0,-2.2422 -2.181611,0 0,-2.1816 0,-2.2422 -2.242212,0 0,2.2422 0,2.1816 0,2.2422 -2.181611,0 z m 4.423823,-6.666 2.181611,0 0,-2.1816 -2.181611,0 0,2.1816 z m 0,-2.1816 0,-2.2422 -2.242212,0 0,2.2422 2.242212,0 z m 2.181611,0 2.242211,0 0,-2.2422 -2.242211,0 0,2.2422 z m 2.242211,0 0,2.1816 0,2.2422 2.181611,0 0,-2.2422 0,-2.1816 -2.181611,0 z m 2.181611,0 2.242211,0 0,-2.2422 -2.242211,0 0,2.2422 z m 2.242211,0 0,2.1816 2.181611,0 0,-2.1816 -2.181611,0 z m -2.242211,4.4238 0,2.1816 2.242211,0 2.181611,0 0,-2.1816 -2.181611,0 -2.242211,0 z m -4.423822,4.4238 0,2.1816 2.242211,0 0,2.2422 0,2.1817 2.181611,0 0,-2.1817 2.242211,0 0,-2.2422 2.181611,0 0,-2.1816 -2.181611,0 -2.242211,0 -2.181611,0 -2.242211,0 z M 35,1020.1317 l 0,2.1817 2.181611,0 0,-2.1817 -2.181611,0 z"
       id="rect3071"
       inkscape:connector-curvature="0" />
  </g>
</svg>
