<?xml version="1.0" encoding="UTF-8" standalone="no"?>
<!-- Created with Inkscape (http://www.inkscape.org/) -->

<svg
   xmlns:dc="http://purl.org/dc/elements/1.1/"
   xmlns:cc="http://creativecommons.org/ns#"
   xmlns:rdf="http://www.w3.org/1999/02/22-rdf-syntax-ns#"
   xmlns:svg="http://www.w3.org/2000/svg"
   xmlns="http://www.w3.org/2000/svg"
   xmlns:xlink="http://www.w3.org/1999/xlink"
   xmlns:sodipodi="http://sodipodi.sourceforge.net/DTD/sodipodi-0.dtd"
   xmlns:inkscape="http://www.inkscape.org/namespaces/inkscape"
   width="96"
   height="96"
   id="svg2"
   version="1.1"
   inkscape:version="0.48.4 r9939"
   sodipodi:docname="klettres.svg">
  <defs
     id="defs4">
    <linearGradient
       id="linearGradient3786">
      <stop
         style="stop-color:#006fa3;stop-opacity:1;"
         offset="0"
         id="stop3788" />
      <stop
         style="stop-color:#28b6e8;stop-opacity:1;"
         offset="1"
         id="stop3790" />
    </linearGradient>
    <linearGradient
       inkscape:collect="always"
       xlink:href="#linearGradient3786"
       id="linearGradient3792"
       x1="30"
       y1="1047.3622"
       x2="30"
       y2="957.36218"
       gradientUnits="userSpaceOnUse" />
  </defs>
  <sodipodi:namedview
     id="base"
     pagecolor="#ffffff"
     bordercolor="#666666"
     borderopacity="1.0"
     inkscape:pageopacity="0.0"
     inkscape:pageshadow="2"
     inkscape:zoom="5.90625"
     inkscape:cx="48"
     inkscape:cy="48"
     inkscape:document-units="px"
     inkscape:current-layer="layer1"
     showgrid="true"
     inkscape:snap-page="true"
     inkscape:snap-global="false"
     inkscape:snap-center="true"
     inkscape:snap-object-midpoints="false"
     showguides="true"
     inkscape:guide-bbox="true"
     inkscape:snap-bbox="true"
     inkscape:object-paths="true"
     inkscape:object-nodes="true"
     inkscape:window-width="1305"
     inkscape:window-height="744"
     inkscape:window-x="61"
     inkscape:window-y="24"
     inkscape:window-maximized="1"
     inkscape:snap-midpoints="true"
     inkscape:snap-grids="true"
     inkscape:snap-to-guides="false">
    <inkscape:grid
       type="xygrid"
       id="grid3002"
       empspacing="5"
       visible="true"
       enabled="true"
       snapvisiblegridlinesonly="true" />
  </sodipodi:namedview>
  <metadata
     id="metadata7">
    <rdf:RDF>
      <cc:Work
         rdf:about="">
        <dc:format>image/svg+xml</dc:format>
        <dc:type
           rdf:resource="http://purl.org/dc/dcmitype/StillImage" />
        <dc:title />
      </cc:Work>
    </rdf:RDF>
  </metadata>
  <g
     inkscape:label="Layer 1"
     inkscape:groupmode="layer"
     id="layer1"
     transform="translate(0,-956.36218)">
    <rect
       style="fill:#ffffff;fill-opacity:0;fill-rule:nonzero;stroke:none"
       id="rect3775"
       width="96"
       height="96"
       x="0"
       y="956.36218"
       ry="0" />
    <path
       style="fill:#000000;fill-opacity:0.09589041;fill-rule:nonzero;stroke:none"
       d="m 3.353015,956.30662 c -1.884176,0 -3.4111555,1.43156 -3.4111555,3.19799 l 0,83.65949 c 0,1.7665 1.5269795,3.1981 3.4111555,3.1981 l 89.23583,0 c 1.884174,0 3.411155,-1.4316 3.411155,-3.1981 l 0,-83.65949 c 0,-1.76643 -1.526981,-3.19799 -3.411155,-3.19799 z"
       id="rect3772"
       inkscape:connector-curvature="0"
       sodipodi:nodetypes="sssssssss" />
    <path
       style="fill:#000000;fill-opacity:0.18721463;fill-rule:nonzero;stroke:none"
       d="m 1.0459761,1041.8066 0,7.4219 c 0,1.7392 1.461916,3.1337 3.2852054,3.1337 l 86.3836135,0 c 1.823288,0 3.285205,-1.3945 3.285205,-3.1337 l 0,-7.4219 -92.9540239,0 z"
       id="rect3785"
       inkscape:connector-curvature="0" />
    <path
       style="fill:#000000;fill-opacity:0.38356168;fill-rule:nonzero;stroke:none"
       d="m 1.0459761,1041.8066 0,5.3807 c 0,1.762 1.461916,3.1749 3.2852054,3.1749 l 86.3836135,0 c 1.823288,0 3.285205,-1.4129 3.285205,-3.1749 l 0,-5.3807 -92.9540239,0 z"
       id="rect3783"
       inkscape:connector-curvature="0" />
    <rect
       style="fill:#b35900;fill-opacity:1;fill-rule:nonzero;stroke:none"
       id="rect2985-4"
       width="93"
       height="89.000008"
       x="1"
       y="957.36212"
       ry="3.1511397" />
    <path
       inkscape:connector-curvature="0"
       style="font-size:medium;font-style:normal;font-variant:normal;font-weight:normal;font-stretch:normal;text-indent:0;text-align:start;text-decoration:none;line-height:normal;letter-spacing:normal;word-spacing:normal;text-transform:none;direction:ltr;block-progression:tb;writing-mode:lr-tb;text-anchor:start;baseline-shift:baseline;color:#000000;fill:#000000;fill-opacity:0.36529685;stroke:none;stroke-width:3;marker:none;visibility:visible;display:inline;overflow:visible;enable-background:accumulate;font-family:Sans;-inkscape-font-specification:Sans"
       d="m 3.6294646,957.627 c -0.608974,0.1238 -1.2345159,0.23292 -1.6607146,0.60645 -0.4261988,0.37353 -0.5507133,0.92176 -0.6919645,1.45548 l 43.8705365,38.4488 -43.8705365,38.44887 c 0.1412512,0.5337 0.2657657,1.0819 0.6919645,1.4555 0.4261987,0.3735 1.0517406,0.4826 1.6607146,0.6065 l 43.8705364,-38.4489 43.870537,38.4489 c 0.608974,-0.1239 1.234515,-0.233 1.660715,-0.6065 0.4262,-0.3736 0.550713,-0.9218 0.691964,-1.4555 L 49.85268,998.13773 93.723217,959.68893 c -0.141251,-0.53372 -0.265764,-1.08195 -0.691964,-1.45548 -0.4262,-0.37353 -1.051741,-0.48265 -1.660715,-0.60645 L 47.500001,996.07583 3.6294646,957.627 z"
       id="path3811" />
    <path
       inkscape:connector-curvature="0"
       style="fill:#002b00;fill-opacity:1;fill-rule:nonzero;stroke:none"
       d="m 7.7120537,963.78548 0,68.57672 79.5758953,0 0,-68.57672 -79.5758953,0 z"
       id="path3796" />
    <g
       id="g3012"
       transform="matrix(1.1071429,0,0,1.0595239,117.4922,-44.266953)">
      <path
         d="m -84.509822,998.92589 c 0,-0.01 0,-0.022 0,-0.044 0,-0.029 0,-0.051 0,-0.066 0,-0.022 0,-0.044 0,-0.066 0,-0.029 0,-0.051 0,-0.066 0.007,-0.022 0.0147,-0.04 0.022,-0.055 0.007,-0.022 0.0183,-0.04 0.033,-0.055 0.0147,-0.015 0.0293,-0.026 0.044,-0.033 0.022,-0.01 0.044,-0.011 0.066,-0.011 0.14667,0 0.275,0.1357 0.385,0.407 0.0953,0.242 0.19067,1.39701 0.286,3.46501 0.10267,2.1634 0.187,3.3917 0.253,3.685 0.0513,0.2274 0.14666,0.3484 0.286,0.363 0.0293,0.01 0.0733,0.011 0.132,0.011 0.19066,0 0.627,-0.077 1.309,-0.231 0.68933,-0.1613 1.33833,-0.319 1.947,-0.473 0.61599,-0.1613 0.93499,-0.242 0.957,-0.242 0.12466,0 0.22366,0.048 0.297,0.143 0.0807,0.095 0.12099,0.1724 0.121,0.231 -1e-5,0.051 -0.0697,0.143 -0.209,0.275 -0.23467,0.1907 -0.91667,0.429 -2.046,0.715 -1.12934,0.286 -2.03134,0.429 -2.706,0.429 -0.308,0 -0.50967,-0.055 -0.605,-0.165 -0.154,-0.176 -0.264,-0.7333 -0.33,-1.672 -0.022,-0.3886 -0.0623,-1.265 -0.121,-2.629 -0.0807,-1.8333 -0.121,-3.13861 -0.121,-3.91601"
         style="font-size:11px;font-style:normal;font-variant:normal;font-weight:normal;font-stretch:normal;text-align:center;line-height:115.99999666%;letter-spacing:0px;word-spacing:0px;text-anchor:middle;fill:#ffffff;fill-opacity:1;stroke:none;font-family:Purisa;-inkscape-font-specification:Purisa"
         id="path3004"
         inkscape:connector-curvature="0" />
      <path
         d="m -71.529992,1004.8329 c 0.0367,0 0.055,0.029 0.055,0.088 -1e-5,0.132 -0.099,0.3447 -0.297,0.638 -0.19067,0.2934 -0.39601,0.5354 -0.616,0.726 -0.77001,0.682 -1.54001,1.023 -2.31,1.023 -0.29334,0 -0.58667,-0.066 -0.88,-0.198 -0.286,-0.1393 -0.55367,-0.3336 -0.803,-0.583 -0.24934,-0.2493 -0.451,-0.583 -0.605,-1.001 -0.154,-0.418 -0.231,-0.8836 -0.231,-1.397 0,-0.3153 0.0367,-0.583 0.11,-0.803 0.14666,-0.4473 0.45833,-0.9203 0.935,-1.419 0.484,-0.4986 0.93866,-0.748 1.364,-0.748 0.11733,0 0.29333,0.011 0.528,0.033 0.35199,0.029 0.59766,0.066 0.737,0.11 0.14666,0.044 0.31166,0.1357 0.495,0.275 0.23466,0.176 0.43633,0.4034 0.605,0.682 0.17599,0.2714 0.26399,0.4987 0.264,0.682 -1e-5,0.2347 -0.0917,0.4144 -0.275,0.539 -0.18334,0.1174 -0.53901,0.2347 -1.067,0.352 -0.682,0.154 -1.35667,0.2494 -2.024,0.286 l -1.023,0.055 0,0.44 c 0,0.5427 0.253,1.056 0.759,1.54 0.38133,0.3667 0.77733,0.55 1.188,0.55 0.31533,0 0.64899,-0.095 1.001,-0.286 0.35933,-0.198 0.66366,-0.4143 0.913,-0.649 0.24933,-0.2346 0.48766,-0.4473 0.715,-0.638 0.22733,-0.198 0.38133,-0.297 0.462,-0.297 m -1.771,-2.684 c -0.22734,-0.2053 -0.39967,-0.3336 -0.517,-0.385 -0.11001,-0.059 -0.25667,-0.088 -0.44,-0.088 -0.36667,0 -0.64167,0.037 -0.825,0.11 -0.176,0.066 -0.35567,0.2054 -0.539,0.418 -0.55734,0.638 -0.836,1.0634 -0.836,1.276 0,0.095 0.088,0.143 0.264,0.143 0.66733,0 1.61333,-0.1393 2.838,-0.418 0.36666,-0.088 0.54999,-0.242 0.55,-0.462 -1e-5,-0.1026 -0.16501,-0.3006 -0.495,-0.594"
         style="font-size:11px;font-style:normal;font-variant:normal;font-weight:normal;font-stretch:normal;text-align:center;line-height:115.99999666%;letter-spacing:0px;word-spacing:0px;text-anchor:middle;fill:#ffffff;fill-opacity:1;stroke:none;font-family:Purisa;-inkscape-font-specification:Purisa"
         id="path3006"
         inkscape:connector-curvature="0" />
      <path
         sodipodi:nodetypes="cssccsccccscssccccsscsccccscsssscccc"
         d="m -69.319107,999.55289 c 0,-0.2713 -0.0257,-0.616 -0.077,-1.034 -0.0513,-0.418 -0.077,-0.7663 -0.077,-1.045 0,-0.1393 0.004,-0.231 0.011,-0.275 0.022,-0.1173 0.0623,-0.209 0.121,-0.275 0.066,-0.073 0.132,-0.11 0.198,-0.11 0.088,0 0.15033,0.04 0.187,0.121 0.022,0.051 0.055,0.3227 0.099,0.814 0.044,0.4914 0.0843,0.9717 0.121,1.441 0.0367,0.4694 0.0623,0.7114 0.077,0.726 0.007,0.01 0.0183,0.011 0.033,0.011 0.0587,0 0.22733,-0.029 0.506,-0.088 0.286,-0.066 0.52066,-0.099 0.704,-0.099 0.36666,0 0.55,0.081 0.55,0.242 0,0.16141 -0.40334,0.34101 -1.21,0.53901 l -0.55,0.132 0.066,1.859 c 0.0367,1.0927 0.10633,2.1157 0.209,3.069 -0.0058,1.8502 3.264399,-0.8333 3.445236,-0.2747 0.07004,0.2163 -3.375536,2.2217 -3.544236,2.2217 -0.132,0 -0.242,-0.1173 -0.33,-0.352 -0.0807,-0.2346 -0.121,-0.539 -0.121,-0.913 0,-0.2713 -0.011,-0.5463 -0.033,-0.825 -0.022,-0.286 -0.0623,-0.726 -0.121,-1.32 -0.0513,-0.6013 -0.10267,-1.2173 -0.154,-1.848 -0.022,-0.3373 -0.0403,-0.5976 -0.055,-0.781 -0.007,-0.1833 -0.0183,-0.319 -0.033,-0.407 -0.0147,-0.088 -0.0257,-0.1393 -0.033,-0.154 -0.007,-0.022 -0.022,-0.033 -0.044,-0.033 -0.11733,0 -0.39967,0.04 -0.847,0.121 -0.44733,0.081 -0.726,0.121 -0.836,0.121 -0.21267,0 -0.319,-0.088 -0.319,-0.264 0,-0.1246 0.132,-0.231 0.396,-0.319 0.27133,-0.088 0.57567,-0.165 0.913,-0.231 0.33733,-0.073 0.54633,-0.1356 0.627,-0.187 0.0807,-0.059 0.121,-0.25301 0.121,-0.58301"
         style="font-size:11px;font-style:normal;font-variant:normal;font-weight:normal;font-stretch:normal;text-align:center;line-height:115.99999666%;letter-spacing:0px;word-spacing:0px;text-anchor:middle;fill:#ffffff;fill-opacity:1;stroke:none;font-family:Purisa;-inkscape-font-specification:Purisa"
         id="path3008"
         inkscape:connector-curvature="0" />
      <path
         d="m -55.005242,1001.8519 c 0.12466,0 0.23466,0.04 0.33,0.121 0.0953,0.073 0.14299,0.1357 0.143,0.187 -1e-5,0.088 -0.13934,0.187 -0.418,0.297 -0.45467,0.1834 -0.92034,0.627 -1.397,1.331 -0.46934,0.6967 -0.75534,1.3714 -0.858,2.024 -0.11734,0.7407 -0.21267,1.2247 -0.286,1.452 -0.0733,0.2347 -0.16867,0.352 -0.286,0.352 -0.10267,0 -0.18334,-0.037 -0.242,-0.11 -0.0513,-0.073 -0.088,-0.154 -0.11,-0.242 -0.0147,-0.088 -0.033,-0.2493 -0.055,-0.484 -0.007,-0.044 -0.011,-0.077 -0.011,-0.099 -0.176,-1.848 -0.264,-3.3073 -0.264,-4.378 0,-0.3813 0.0147,-0.616 0.044,-0.704 0.0807,-0.2346 0.18333,-0.352 0.308,-0.352 0.11733,0 0.176,0.099 0.176,0.297 0,0.33 0.0513,0.8617 0.154,1.595 0.10266,0.7334 0.17966,1.1 0.231,1.1 0.066,0 0.20166,-0.2016 0.407,-0.605 0.25666,-0.4766 0.59766,-0.891 1.023,-1.243 0.43266,-0.3593 0.80299,-0.539 1.111,-0.539"
         style="font-size:11px;font-style:normal;font-variant:normal;font-weight:normal;font-stretch:normal;text-align:center;line-height:115.99999666%;letter-spacing:0px;word-spacing:0px;text-anchor:middle;fill:#ffffff;fill-opacity:1;stroke:none;font-family:Purisa;-inkscape-font-specification:Purisa"
         id="path3013"
         inkscape:connector-curvature="0" />
      <path
         d="m -47.531942,1004.8329 c 0.0367,0 0.055,0.029 0.055,0.088 -10e-6,0.132 -0.099,0.3447 -0.297,0.638 -0.19068,0.2934 -0.39601,0.5354 -0.616,0.726 -0.77001,0.682 -1.54001,1.023 -2.31,1.023 -0.29334,0 -0.58667,-0.066 -0.88,-0.198 -0.28601,-0.1393 -0.55367,-0.3336 -0.803,-0.583 -0.24934,-0.2493 -0.45101,-0.583 -0.605,-1.001 -0.15401,-0.418 -0.23101,-0.8836 -0.231,-1.397 -1e-5,-0.3153 0.0367,-0.583 0.11,-0.803 0.14666,-0.4473 0.45833,-0.9203 0.935,-1.419 0.48399,-0.4986 0.93866,-0.748 1.364,-0.748 0.11733,0 0.29333,0.011 0.528,0.033 0.35199,0.029 0.59766,0.066 0.737,0.11 0.14666,0.044 0.31166,0.1357 0.495,0.275 0.23466,0.176 0.43632,0.4034 0.605,0.682 0.17599,0.2714 0.26399,0.4987 0.264,0.682 -10e-6,0.2347 -0.0917,0.4144 -0.275,0.539 -0.18334,0.1174 -0.53901,0.2347 -1.067,0.352 -0.68201,0.154 -1.35667,0.2494 -2.024,0.286 l -1.023,0.055 0,0.44 c -1e-5,0.5427 0.25299,1.056 0.759,1.54 0.38133,0.3667 0.77733,0.55 1.188,0.55 0.31533,0 0.64899,-0.095 1.001,-0.286 0.35932,-0.198 0.66366,-0.4143 0.913,-0.649 0.24932,-0.2346 0.48766,-0.4473 0.715,-0.638 0.22732,-0.198 0.38132,-0.297 0.462,-0.297 m -1.771,-2.684 c -0.22734,-0.2053 -0.39968,-0.3336 -0.517,-0.385 -0.11001,-0.059 -0.25667,-0.088 -0.44,-0.088 -0.36667,0 -0.64167,0.037 -0.825,0.11 -0.17601,0.066 -0.35567,0.2054 -0.539,0.418 -0.55734,0.638 -0.83601,1.0634 -0.836,1.276 -1e-5,0.095 0.088,0.143 0.264,0.143 0.66733,0 1.61333,-0.1393 2.838,-0.418 0.36666,-0.088 0.54999,-0.242 0.55,-0.462 -1e-5,-0.1026 -0.16501,-0.3006 -0.495,-0.594"
         style="font-size:11px;font-style:normal;font-variant:normal;font-weight:normal;font-stretch:normal;text-align:center;line-height:115.99999666%;letter-spacing:0px;word-spacing:0px;text-anchor:middle;fill:#ffffff;fill-opacity:1;stroke:none;font-family:Purisa;-inkscape-font-specification:Purisa"
         id="path3015"
         inkscape:connector-curvature="0" />
      <path
         d="m -44.999882,1004.6129 c -0.11,0 -0.34467,-0.132 -0.704,-0.396 -0.35934,-0.2713 -0.539,-0.5463 -0.539,-0.825 0,-0.264 0.187,-0.627 0.561,-1.089 0.374,-0.4693 0.825,-0.77 1.353,-0.902 0.242,-0.066 0.56099,-0.099 0.957,-0.099 0.16866,0 0.29333,0.022 0.374,0.066 0.0807,0.044 0.19066,0.143 0.33,0.297 0.22733,0.2567 0.34099,0.4327 0.341,0.528 -1e-5,0.088 -0.0477,0.132 -0.143,0.132 -0.11734,0 -0.21634,-0.04 -0.297,-0.121 -0.0807,-0.088 -0.17967,-0.176 -0.297,-0.264 -0.11734,-0.088 -0.27501,-0.132 -0.473,-0.132 -0.25667,0 -0.53167,0.07 -0.825,0.209 -0.29334,0.1394 -0.55367,0.3337 -0.781,0.583 -0.32267,0.3447 -0.484,0.5794 -0.484,0.704 0,0.1247 0.0953,0.275 0.286,0.451 0.19066,0.1687 0.50966,0.33 0.957,0.484 0.70399,0.242 1.18066,0.4694 1.43,0.682 0.24933,0.2127 0.37399,0.4987 0.374,0.858 -1e-5,0.3374 -0.0587,0.6454 -0.176,0.924 -0.0807,0.2127 -0.25301,0.451 -0.517,0.715 -0.26401,0.264 -0.52434,0.396 -0.781,0.396 -0.198,0 -0.45467,-0.033 -0.77,-0.099 -0.31534,-0.059 -0.55367,-0.1283 -0.715,-0.209 -0.132,-0.066 -0.253,-0.1943 -0.363,-0.385 -0.11,-0.198 -0.165,-0.374 -0.165,-0.528 0,-0.081 0.0183,-0.1503 0.055,-0.209 0.044,-0.066 0.0953,-0.099 0.154,-0.099 0.11,0 0.21266,0.1027 0.308,0.308 0.088,0.1834 0.264,0.3484 0.528,0.495 0.27133,0.1467 0.52433,0.22 0.759,0.22 0.31533,0 0.59399,-0.187 0.836,-0.561 0.24199,-0.3813 0.36299,-0.6783 0.363,-0.891 -1e-5,-0.051 -0.0147,-0.1136 -0.044,-0.187 -0.022,-0.081 -0.0843,-0.176 -0.187,-0.286 -0.10267,-0.11 -0.23467,-0.1943 -0.396,-0.253 -0.15401,-0.051 -0.33367,-0.121 -0.539,-0.209 -0.20534,-0.088 -0.37767,-0.1613 -0.517,-0.22 -0.132,-0.059 -0.21634,-0.088 -0.253,-0.088"
         style="font-size:11px;font-style:normal;font-variant:normal;font-weight:normal;font-stretch:normal;text-align:center;line-height:115.99999666%;letter-spacing:0px;word-spacing:0px;text-anchor:middle;fill:#ffffff;fill-opacity:1;stroke:none;font-family:Purisa;-inkscape-font-specification:Purisa"
         id="path3017"
         inkscape:connector-curvature="0" />
      <path
         inkscape:connector-curvature="0"
         id="path3795"
         style="font-size:11px;font-style:normal;font-variant:normal;font-weight:normal;font-stretch:normal;text-align:center;line-height:115.99999666%;letter-spacing:0px;word-spacing:0px;text-anchor:middle;fill:#ffffff;fill-opacity:1;stroke:none;font-family:Purisa;-inkscape-font-specification:Purisa"
         d="m -63.944761,999.55289 c 0,-0.2713 -0.0257,-0.616 -0.077,-1.034 -0.0513,-0.418 -0.077,-0.7663 -0.077,-1.045 0,-0.1393 0.004,-0.231 0.011,-0.275 0.022,-0.1173 0.0623,-0.209 0.121,-0.275 0.066,-0.073 0.132,-0.11 0.198,-0.11 0.088,0 0.15033,0.04 0.187,0.121 0.022,0.051 0.055,0.3227 0.099,0.814 0.044,0.4914 0.0843,0.9717 0.121,1.441 0.0367,0.4694 0.0623,0.7114 0.077,0.726 0.007,0.01 0.0183,0.011 0.033,0.011 0.0587,0 0.22733,-0.029 0.506,-0.088 0.286,-0.066 0.52066,-0.099 0.704,-0.099 0.36666,0 0.55,0.081 0.55,0.242 0,0.16141 -0.40334,0.34101 -1.21,0.53901 l -0.55,0.132 0.066,1.859 c 0.0367,1.0927 0.10633,2.1157 0.209,3.069 -0.0058,1.8502 3.264399,-0.8333 3.445236,-0.2747 0.07004,0.2163 -3.375536,2.2217 -3.544236,2.2217 -0.132,0 -0.242,-0.1173 -0.33,-0.352 -0.0807,-0.2346 -0.121,-0.539 -0.121,-0.913 0,-0.2713 -0.011,-0.5463 -0.033,-0.825 -0.022,-0.286 -0.0623,-0.726 -0.121,-1.32 -0.0513,-0.6013 -0.10267,-1.2173 -0.154,-1.848 -0.022,-0.3373 -0.0403,-0.5976 -0.055,-0.781 -0.007,-0.1833 -0.0183,-0.319 -0.033,-0.407 -0.0147,-0.088 -0.0257,-0.1393 -0.033,-0.154 -0.007,-0.022 -0.022,-0.033 -0.044,-0.033 -0.11733,0 -0.39967,0.04 -0.847,0.121 -0.44733,0.081 -0.726,0.121 -0.836,0.121 -0.21267,0 -0.319,-0.088 -0.319,-0.264 0,-0.1246 0.132,-0.231 0.396,-0.319 0.27133,-0.088 0.57567,-0.165 0.913,-0.231 0.33733,-0.073 0.54633,-0.1356 0.627,-0.187 0.0807,-0.059 0.121,-0.25301 0.121,-0.58301"
         sodipodi:nodetypes="cssccsccccscssccccsscsccccscsssscccc" />
    </g>
    <path
       style="font-size:45.44913864px;font-style:normal;font-variant:normal;font-weight:normal;font-stretch:normal;text-align:end;line-height:125%;letter-spacing:0px;word-spacing:0px;text-anchor:end;fill:#ffffff;fill-opacity:0.21004567;stroke:none;font-family:mry_KacstQurn;-inkscape-font-specification:mry_KacstQurn"
       d="m 51.688147,969.20993 -5.816043,2.02956 -6.426567,19.74199 18.315715,11.34702 5.848176,-2.0602 -18.669176,-11.22412 6.747895,-19.83425 z m -18.25145,6.39616 -4.723527,1.66054 11.921282,31.05837 4.723527,-1.6607 -6.008841,-15.65206 -5.912441,-15.40615 z"
       id="text3021"
       inkscape:connector-curvature="0" />
    <path
       style="fill:#000000;fill-opacity:0.38356168;fill-rule:nonzero;stroke:none"
       d="m 1,1042.3622 0.045976,2.7457 c 0.03024,1.8058 1.461916,3.2543 3.2852054,3.2543 l 86.3836136,0 c 1.823288,0 3.285205,-1.4481 3.285205,-3.2543 l -0.04598,-2.7457 z"
       id="rect3781"
       inkscape:connector-curvature="0"
       sodipodi:nodetypes="csssscc" />
    <rect
       style="fill:#ffffff;fill-opacity:0.30000001;fill-rule:nonzero;stroke:none"
       id="rect3770"
       width="92.954033"
       height="2.000005"
       x="1.045976"
       y="1040.3622" />
    <rect
       style="fill:#060000;fill-opacity:0.41095892;fill-rule:nonzero;stroke:none"
       id="rect3055"
       width="79.575897"
       height="6.2856951"
       x="7.7120538"
       y="963.78546" />
    <rect
       y="963.78546"
       x="7.7120538"
       height="3.0687637"
       width="79.575897"
       id="rect3825"
       style="fill:#060000;fill-opacity:0.41095892;fill-rule:nonzero;stroke:none" />
    <rect
       style="fill:#ffffff;fill-opacity:0.18264841;fill-rule:nonzero;stroke:none"
       id="rect3827"
       width="79.575897"
       height="1.8835815"
       x="7.7120538"
       y="1032.1876" />
  </g>
</svg>
