<?xml version="1.0" encoding="UTF-8" standalone="no"?>
<!-- Created with Inkscape (http://www.inkscape.org/) -->

<svg
   xmlns:dc="http://purl.org/dc/elements/1.1/"
   xmlns:cc="http://creativecommons.org/ns#"
   xmlns:rdf="http://www.w3.org/1999/02/22-rdf-syntax-ns#"
   xmlns:svg="http://www.w3.org/2000/svg"
   xmlns="http://www.w3.org/2000/svg"
   xmlns:xlink="http://www.w3.org/1999/xlink"
   xmlns:sodipodi="http://sodipodi.sourceforge.net/DTD/sodipodi-0.dtd"
   xmlns:inkscape="http://www.inkscape.org/namespaces/inkscape"
   width="96"
   height="96"
   id="svg2"
   version="1.1"
   inkscape:version="0.48.4 r9939"
   sodipodi:docname="knewsticker.svg">
  <defs
     id="defs4">
    <linearGradient
       inkscape:collect="always"
       xlink:href="#linearGradient3984"
       id="linearGradient3310"
       gradientUnits="userSpaceOnUse"
       gradientTransform="translate(52,-6.00002)"
       x1="-23.016985"
       y1="991.70306"
       x2="-22.966122"
       y2="985.66705" />
    <linearGradient
       id="linearGradient3984">
      <stop
         style="stop-color:#fff3d6;stop-opacity:1;"
         offset="0"
         id="stop3986" />
      <stop
         style="stop-color:#ffffff;stop-opacity:1;"
         offset="1"
         id="stop3988" />
    </linearGradient>
    <radialGradient
       inkscape:collect="always"
       xlink:href="#linearGradient3992"
       id="radialGradient3312"
       gradientUnits="userSpaceOnUse"
       gradientTransform="translate(-3.2891995e-6,0)"
       cx="-52.864052"
       cy="32.322845"
       fx="-52.864052"
       fy="32.322845"
       r="19.944166" />
    <linearGradient
       id="linearGradient3992">
      <stop
         style="stop-color:#e5dbc3;stop-opacity:1;"
         offset="0"
         id="stop3994" />
      <stop
         id="stop4000"
         offset="0.9145394"
         style="stop-color:#ffffff;stop-opacity:1;" />
      <stop
         style="stop-color:#ede3ca;stop-opacity:1;"
         offset="1"
         id="stop3996" />
    </linearGradient>
    <linearGradient
       inkscape:collect="always"
       xlink:href="#linearGradient3930"
       id="linearGradient3314"
       gradientUnits="userSpaceOnUse"
       x1="-102.88795"
       y1="-37.972164"
       x2="-39.458958"
       y2="48.997475" />
    <linearGradient
       inkscape:collect="always"
       id="linearGradient3930">
      <stop
         style="stop-color:#ffffff;stop-opacity:1;"
         offset="0"
         id="stop3932" />
      <stop
         style="stop-color:#ffffff;stop-opacity:0;"
         offset="1"
         id="stop3934" />
    </linearGradient>
    <linearGradient
       inkscape:collect="always"
       xlink:href="#linearGradient3955"
       id="linearGradient3316"
       gradientUnits="userSpaceOnUse"
       x1="-61.754829"
       y1="21.149305"
       x2="-56.468418"
       y2="25.474546" />
    <linearGradient
       inkscape:collect="always"
       id="linearGradient3955">
      <stop
         style="stop-color:#ffffff;stop-opacity:1;"
         offset="0"
         id="stop3957" />
      <stop
         style="stop-color:#ffffff;stop-opacity:0;"
         offset="1"
         id="stop3959" />
    </linearGradient>
    <linearGradient
       inkscape:collect="always"
       xlink:href="#linearGradient3955"
       id="linearGradient3318"
       gradientUnits="userSpaceOnUse"
       x1="-61.754829"
       y1="21.149305"
       x2="-56.468418"
       y2="25.474546" />
    <linearGradient
       inkscape:collect="always"
       xlink:href="#linearGradient3955"
       id="linearGradient3320"
       gradientUnits="userSpaceOnUse"
       x1="-61.754829"
       y1="21.149305"
       x2="-56.468418"
       y2="25.474546" />
    <linearGradient
       inkscape:collect="always"
       xlink:href="#linearGradient3955"
       id="linearGradient3322"
       gradientUnits="userSpaceOnUse"
       x1="-61.754829"
       y1="21.149305"
       x2="-56.468418"
       y2="25.474546" />
    <linearGradient
       inkscape:collect="always"
       xlink:href="#linearGradient3930"
       id="linearGradient3324"
       gradientUnits="userSpaceOnUse"
       gradientTransform="matrix(0.73493977,0,0,0.73493977,37.98784,958.92968)"
       x1="-102.88795"
       y1="-37.972164"
       x2="-39.458958"
       y2="48.997475" />
  </defs>
  <sodipodi:namedview
     id="base"
     pagecolor="#ffffff"
     bordercolor="#666666"
     borderopacity="1.0"
     inkscape:pageopacity="0.0"
     inkscape:pageshadow="2"
     inkscape:zoom="4.1763494"
     inkscape:cx="26.206664"
     inkscape:cy="48"
     inkscape:document-units="px"
     inkscape:current-layer="layer1"
     showgrid="true"
     inkscape:snap-page="true"
     inkscape:snap-global="true"
     inkscape:snap-center="true"
     inkscape:snap-object-midpoints="false"
     showguides="true"
     inkscape:guide-bbox="true"
     inkscape:snap-bbox="true"
     inkscape:object-paths="true"
     inkscape:object-nodes="true"
     inkscape:window-width="1305"
     inkscape:window-height="744"
     inkscape:window-x="61"
     inkscape:window-y="24"
     inkscape:window-maximized="1"
     inkscape:snap-midpoints="false"
     inkscape:snap-grids="true"
     inkscape:snap-to-guides="false">
    <inkscape:grid
       type="xygrid"
       id="grid3002"
       empspacing="5"
       visible="true"
       enabled="true"
       snapvisiblegridlinesonly="true" />
  </sodipodi:namedview>
  <metadata
     id="metadata7">
    <rdf:RDF>
      <cc:Work
         rdf:about="">
        <dc:format>image/svg+xml</dc:format>
        <dc:type
           rdf:resource="http://purl.org/dc/dcmitype/StillImage" />
        <dc:title />
      </cc:Work>
    </rdf:RDF>
  </metadata>
  <g
     inkscape:label="Layer 1"
     inkscape:groupmode="layer"
     id="layer1"
     transform="translate(0,-956.36218)">
    <rect
       style="fill:#ffffff;fill-opacity:0;fill-rule:nonzero;stroke:none"
       id="rect3775"
       width="96"
       height="96"
       x="0"
       y="956.36218"
       ry="0" />
    <path
       style="fill:#000000;fill-opacity:0.09589041;fill-rule:nonzero;stroke:none"
       d="m 3.353015,956.30662 c -1.884176,0 -3.4111555,1.43156 -3.4111555,3.19799 l 0,83.65949 c 0,1.7665 1.5269795,3.1981 3.4111555,3.1981 l 89.23583,0 c 1.884174,0 3.411155,-1.4316 3.411155,-3.1981 l 0,-83.65949 c 0,-1.76643 -1.526981,-3.19799 -3.411155,-3.19799 z"
       id="rect3772"
       inkscape:connector-curvature="0"
       sodipodi:nodetypes="sssssssss" />
    <path
       style="fill:#000000;fill-opacity:0.18721463;fill-rule:nonzero;stroke:none"
       d="m 1.0459761,1041.8066 0,7.4219 c 0,1.7392 1.461916,3.1337 3.2852054,3.1337 l 86.3836135,0 c 1.823288,0 3.285205,-1.3945 3.285205,-3.1337 l 0,-7.4219 -92.9540239,0 z"
       id="rect3785"
       inkscape:connector-curvature="0" />
    <path
       style="fill:#000000;fill-opacity:0.38356168;fill-rule:nonzero;stroke:none"
       d="m 1.0459761,1041.8066 0,5.3807 c 0,1.762 1.461916,3.1749 3.2852054,3.1749 l 86.3836135,0 c 1.823288,0 3.285205,-1.4129 3.285205,-3.1749 l 0,-5.3807 -92.9540239,0 z"
       id="rect3783"
       inkscape:connector-curvature="0" />
    <rect
       style="fill:#cccccc;fill-opacity:1;fill-rule:nonzero;stroke:none"
       id="rect2985-2"
       width="93"
       height="88.999962"
       x="0.9999969"
       y="957.36224"
       ry="3.1511383" />
    <path
       style="fill:#333333;fill-opacity:1;fill-rule:evenodd;stroke:none"
       d="M 94 16 L 94 4.15625 C 94 3.2833847 93.663318 2.4758182 93.09375 1.90625 C 92.524182 1.3366818 91.716615 1 90.84375 1 L 4.15625 1 C 3.2833847 1 2.4758182 1.3366818 1.90625 1.90625 C 1.3366818 2.4758182 1 3.2833847 1 4.15625 L 1 16 L 94 16 z "
       id="path3252"
       transform="translate(0,956.36218)" />
    <g
       id="g3225"
       transform="translate(61.855356,15.66137)">
      <rect
         y="970.46051"
         x="-47.661289"
         height="50.701435"
         width="15.611864"
         id="rect2992"
         style="fill:#bfbfbf;fill-opacity:1;fill-rule:nonzero;stroke:none" />
      <rect
         style="fill:#bfbfbf;fill-opacity:1;fill-rule:nonzero;stroke:none"
         id="rect2994"
         width="15.611864"
         height="62.4757"
         x="-29.098257"
         y="958.68622" />
      <rect
         y="958.68622"
         x="-10.535224"
         height="62.4757"
         width="15.611864"
         id="rect2996"
         style="fill:#bfbfbf;fill-opacity:1;fill-rule:nonzero;stroke:none" />
      <rect
         style="fill:#bfbfbf;fill-opacity:1;fill-rule:nonzero;stroke:none"
         id="rect2998"
         width="15.611864"
         height="62.4757"
         x="8.0278177"
         y="958.68622" />
      <rect
         style="fill:#4a4a4a;fill-opacity:1;fill-rule:nonzero;stroke:none"
         id="rect3010"
         width="15.611864"
         height="9.8519392"
         x="-47.661289"
         y="958.70081" />
      <path
         inkscape:connector-curvature="0"
         id="text3787"
         d="m -44.25,944.73718 0,0.63035 0.519297,0 c 0.0833,10e-6 0.166967,0.015 0.242338,0.035 0.07537,0.0161 0.117562,0.0529 0.173099,0.10505 0.0595,0.0522 0.106743,0.14483 0.138479,0.24514 0.0357,0.0963 0.06924,0.2207 0.06924,0.38521 l 0,5.95328 c -1e-6,0.17655 -0.03751,0.3159 -0.06924,0.42023 -0.03174,0.10433 -0.07898,0.15394 -0.138479,0.21011 -0.05554,0.0562 -0.09773,0.12002 -0.173099,0.14008 -0.07537,0.016 -0.155069,0 -0.242338,0 l -0.519297,0 0,0.66537 3.18502,0 0,-0.66537 -0.519297,0 c -0.08331,0 -0.163004,0.016 -0.242338,0 -0.07537,-0.0201 -0.152186,-0.0839 -0.207719,-0.14008 -0.05554,-0.0562 -0.10278,-0.10578 -0.138479,-0.21011 -0.03174,-0.10433 -0.03462,-0.24368 -0.03462,-0.42023 l 0,-5.35795 4.74291,6.79374 1.142452,0 0,-7.35405 c -7e-6,-0.17655 0.0029,-0.3159 0.03462,-0.42023 0.03173,-0.10432 0.08293,-0.18895 0.138479,-0.24514 0.05949,-0.0562 0.13234,-0.089 0.207719,-0.10505 0.07536,-0.0201 0.159026,-0.035 0.242338,-0.035 l 0.484677,0 0,-0.63035 -3.1504,0 0,0.63035 0.484677,0 c 0.0833,10e-6 0.166962,0.015 0.242339,0.035 0.07536,0.0161 0.152175,0.0529 0.207718,0.10505 0.0595,0.0522 0.106738,0.14483 0.13848,0.24514 0.03569,0.0963 0.03461,0.2207 0.03462,0.38521 l 0,4.76262 -4.292852,-6.16339 -2.700343,0 z m 12.878558,2.03112 c -0.479992,0 -0.904084,0.0616 -1.280932,0.21011 -0.372886,0.14446 -0.71151,0.37245 -0.969354,0.66537 -0.257846,0.29293 -0.453664,0.64823 -0.588536,1.0856 -0.134873,0.43738 -0.20772,0.96303 -0.207719,1.54085 -10e-7,0.53769 0.07285,1.01446 0.207719,1.43579 0.134872,0.41731 0.357376,0.76167 0.623156,1.05057 0.265777,0.28891 0.576634,0.51289 0.969354,0.66537 0.396681,0.15248 0.869097,0.24513 1.384791,0.24513 0.412548,0 0.741075,-0.0679 1.038593,-0.14007 0.301476,-0.0722 0.563288,-0.15978 0.761635,-0.28016 0.198337,-0.12038 0.354847,-0.26373 0.450057,-0.42023 0.0952,-0.1605 0.138473,-0.31371 0.13848,-0.49027 -7e-6,-0.28088 -0.128027,-0.47495 -0.346198,-0.59533 -0.07141,0.14045 -0.131273,0.26083 -0.242339,0.38522 -0.10711,0.12038 -0.234049,0.22288 -0.380817,0.31517 -0.142812,0.0883 -0.306174,0.15795 -0.484677,0.21012 -0.178513,0.0481 -0.378297,0.07 -0.588536,0.07 -0.253882,10e-6 -0.494057,-0.0478 -0.692396,-0.14007 -0.194379,-0.0923 -0.34584,-0.22763 -0.484677,-0.42023 -0.134875,-0.19261 -0.266864,-0.43847 -0.346198,-0.73541 -0.07537,-0.29693 -0.09196,-0.63727 -0.103859,-1.05058 l 3.981275,0 0,-0.63034 c -7e-6,-0.48954 -0.07682,-0.92655 -0.207719,-1.29572 -0.130913,-0.36915 -0.307978,-0.69673 -0.553917,-0.94552 -0.24595,-0.24877 -0.54707,-0.43591 -0.900114,-0.56031 -0.353054,-0.12839 -0.736756,-0.17509 -1.177072,-0.17509 z m 16.859832,0 c -0.392721,0 -0.751901,0.0598 -1.073213,0.14007 -0.321317,0.0803 -0.566179,0.18569 -0.796255,0.3502 -0.230078,0.16051 -0.426978,0.38558 -0.553916,0.63034 -0.122973,0.24478 -0.173099,0.51144 -0.173099,0.84047 0,0.27687 0.05121,0.51872 0.138479,0.7354 0.09124,0.21267 0.210242,0.4268 0.380817,0.59533 0.17454,0.16452 0.373244,0.28782 0.623156,0.42023 0.253877,0.12841 0.570863,0.26885 0.900115,0.38521 0.28561,0.10032 0.501983,0.18787 0.692395,0.28016 0.194373,0.0883 0.369635,0.18385 0.484677,0.28015 0.115035,0.0923 0.194733,0.20684 0.242338,0.31517 0.05157,0.10433 0.06924,0.21377 0.06924,0.3502 -4e-6,0.11235 -0.02164,0.21084 -0.06924,0.31517 -0.0476,0.10032 -0.14317,0.1999 -0.242338,0.28015 -0.09521,0.0763 -0.191494,0.13096 -0.346198,0.1751 -0.150744,0.0441 -0.343676,0.07 -0.553916,0.07 -0.198346,0 -0.391278,-0.0288 -0.553917,-0.10506 -0.158676,-0.0762 -0.265781,-0.20975 -0.380817,-0.35019 -0.115041,-0.14445 -0.213491,-0.32064 -0.276958,-0.52529 -0.06347,-0.20464 -0.103861,-0.40856 -0.10386,-0.66537 -0.107106,10e-6 -0.215293,0.0109 -0.346198,0.035 -0.130907,0.0201 -0.261813,0.0719 -0.380817,0.14008 -0.11504,0.0682 -0.232242,0.15577 -0.311578,0.28015 -0.07537,0.12038 -0.10386,0.28964 -0.10386,0.49027 0,0.20465 0.05121,0.38376 0.13848,0.56031 0.09124,0.17656 0.221061,0.32685 0.415437,0.45525 0.198341,0.12841 0.45222,0.20793 0.761635,0.28016 0.313379,0.0722 0.70213,0.14007 1.142453,0.14007 0.420482,0 0.77858,-0.0788 1.107833,-0.17509 0.329244,-0.10032 0.639379,-0.23565 0.865494,-0.42023 0.226106,-0.18458 0.369633,-0.39652 0.484677,-0.66537 0.119,-0.26884 0.173093,-0.56942 0.173099,-0.9105 -6e-6,-0.26082 -0.01263,-0.49975 -0.103859,-0.70039 -0.09124,-0.20464 -0.248835,-0.40381 -0.415438,-0.5603 -0.162645,-0.16051 -0.358463,-0.29985 -0.588536,-0.42024 -0.226114,-0.12438 -0.457273,-0.21886 -0.727015,-0.31517 -0.333219,-0.11636 -0.616668,-0.21887 -0.830875,-0.31517 -0.214213,-0.0963 -0.39236,-0.18786 -0.519297,-0.28016 -0.122975,-0.0963 -0.190771,-0.21084 -0.242338,-0.31517 -0.0476,-0.10432 -0.06924,-0.21777 -0.06924,-0.35019 -2e-6,-0.1284 0.01767,-0.22288 0.06924,-0.31518 0.05553,-0.0963 0.120446,-0.18092 0.207719,-0.24513 0.09124,-0.0642 0.19257,-0.10797 0.311578,-0.14008 0.122969,-0.0321 0.249908,-0.07 0.380817,-0.07 0.353047,10e-6 0.617743,0.12148 0.796255,0.3502 0.182471,0.22471 0.276954,0.53623 0.276958,0.94552 0.444283,0 0.778941,-0.0657 0.969354,-0.21012 0.19437,-0.14445 0.276953,-0.35347 0.276958,-0.63035 -5e-6,-0.14043 -0.02453,-0.28379 -0.103859,-0.42023 -0.07934,-0.13642 -0.210248,-0.24184 -0.380818,-0.35019 -0.170578,-0.10833 -0.388034,-0.21595 -0.657775,-0.28015 -0.26975,-0.0682 -0.619193,-0.10506 -1.003974,-0.10506 z m -13.536334,0.14007 0,0.66537 0.03462,0 c 0.119006,10e-6 0.224308,0.015 0.311578,0.035 0.08727,0.0201 0.140282,0.0569 0.207719,0.10506 0.06744,0.0482 0.121529,0.12585 0.173099,0.21011 0.05157,0.0843 0.129462,0.18678 0.173099,0.31518 l 1.55789,5.28791 1.315551,0 1.384792,-4.09726 1.350171,4.09726 1.315552,0 1.55789,-4.97274 c 0.06346,-0.20063 0.148205,-0.36587 0.207718,-0.49027 0.05949,-0.1284 0.105653,-0.24695 0.173099,-0.31517 0.06743,-0.0722 0.155058,-0.116 0.242339,-0.14008 0.08726,-0.0241 0.192562,-0.035 0.311578,-0.035 l 0.138479,0 0,-0.66537 -2.769583,0 0,0.66537 0.06924,0 c 0.273704,10e-6 0.492242,0.0438 0.623156,0.14008 0.134864,0.0963 0.17309,0.2466 0.173099,0.45525 -9e-6,0.0682 -0.01083,0.15978 -0.03462,0.28015 -0.01984,0.12039 -0.03751,0.24587 -0.06924,0.3502 l -0.519297,1.78598 c -0.04761,0.15248 -0.106752,0.29985 -0.138479,0.42023 -0.03174,0.11637 -0.04148,0.21486 -0.06924,0.31517 -0.02381,0.10032 -0.04941,0.22289 -0.06924,0.31518 -0.01588,0.0923 -0.04941,0.17582 -0.06924,0.28015 l -0.03462,0 c -0.02777,-0.15248 -0.06023,-0.32064 -0.103859,-0.52529 -0.04364,-0.20865 -0.108554,-0.47349 -0.207719,-0.77042 l -1.177072,-3.64201 -0.796255,0 -1.246312,3.53695 c -0.103142,0.30496 -0.178873,0.54973 -0.242339,0.77042 -0.05951,0.21669 -0.137401,0.42571 -0.173099,0.63035 l -0.03462,0 c -0.01587,-0.10433 -0.04147,-0.21777 -0.06924,-0.35019 -0.0238,-0.13242 -0.03751,-0.27176 -0.06924,-0.42023 -0.03174,-0.14847 -0.06816,-0.29876 -0.10386,-0.45525 -0.03571,-0.15649 -0.06419,-0.30678 -0.103859,-0.45525 l -0.450057,-1.61089 c -0.0238,-0.0923 -0.04544,-0.18385 -0.06924,-0.28015 -0.01984,-0.0963 -0.03462,-0.17692 -0.03462,-0.24514 -2e-6,-0.20464 0.05409,-0.35201 0.173099,-0.42023 0.12297,-0.0722 0.307969,-0.10505 0.553917,-0.10506 l 0.173099,0 0,-0.66537 -3.565838,0 z m -3.323498,0.66537 c 0.174538,10e-6 0.331048,0.0478 0.450057,0.14008 0.122968,0.0923 0.236203,0.21267 0.311578,0.38521 0.07933,0.17255 0.137392,0.38157 0.173099,0.63035 0.0357,0.24878 0.03461,0.52748 0.03462,0.84046 l -2.111807,0 c 0.01983,-0.65807 0.147853,-1.16475 0.346198,-1.50583 0.202306,-0.34107 0.455102,-0.49026 0.796255,-0.49027 z"
         style="font-size:11px;font-style:normal;font-variant:normal;font-weight:normal;font-stretch:normal;text-align:end;line-height:125%;letter-spacing:0px;word-spacing:0px;text-anchor:end;fill:#b7c8be;fill-opacity:1;stroke:none;font-family:mry_KacstQurn;-inkscape-font-specification:mry_KacstQurn" />
      <rect
         style="fill:#a6a6a6;fill-opacity:1;fill-rule:nonzero;stroke:none"
         id="rect3792"
         width="15.611864"
         height="2"
         x="-47.661289"
         y="970.38281" />
      <rect
         y="974.38281"
         x="-47.661289"
         height="2"
         width="15.611864"
         id="rect3794"
         style="fill:#a6a6a6;fill-opacity:1;fill-rule:nonzero;stroke:none" />
      <rect
         style="fill:#a6a6a6;fill-opacity:1;fill-rule:nonzero;stroke:none"
         id="rect3796"
         width="15.611864"
         height="2"
         x="-47.661289"
         y="978.38281" />
      <rect
         y="982.38281"
         x="-47.661289"
         height="2"
         width="15.611864"
         id="rect3798"
         style="fill:#a6a6a6;fill-opacity:1;fill-rule:nonzero;stroke:none" />
      <rect
         style="fill:#a6a6a6;fill-opacity:1;fill-rule:nonzero;stroke:none"
         id="rect3800"
         width="15.611864"
         height="2"
         x="-47.661289"
         y="986.38281" />
      <rect
         y="990.38281"
         x="-47.661289"
         height="2"
         width="10.806041"
         id="rect3802"
         style="fill:#a6a6a6;fill-opacity:1;fill-rule:nonzero;stroke:none" />
      <rect
         y="994.38281"
         x="-47.661289"
         height="2"
         width="15.611864"
         id="rect3804"
         style="fill:#a6a6a6;fill-opacity:1;fill-rule:nonzero;stroke:none" />
      <rect
         style="fill:#a6a6a6;fill-opacity:1;fill-rule:nonzero;stroke:none"
         id="rect3806"
         width="15.611864"
         height="2"
         x="-47.661289"
         y="998.38281" />
      <rect
         y="1002.3828"
         x="-47.661289"
         height="2"
         width="15.611864"
         id="rect3808"
         style="fill:#a6a6a6;fill-opacity:1;fill-rule:nonzero;stroke:none" />
      <rect
         style="fill:#a6a6a6;fill-opacity:1;fill-rule:nonzero;stroke:none"
         id="rect3810"
         width="15.611864"
         height="2"
         x="-47.661289"
         y="1006.3828" />
      <rect
         y="1010.3828"
         x="-47.661289"
         height="2"
         width="15.611864"
         id="rect3812"
         style="fill:#a6a6a6;fill-opacity:1;fill-rule:nonzero;stroke:none" />
      <rect
         style="fill:#a6a6a6;fill-opacity:1;fill-rule:nonzero;stroke:none"
         id="rect3814"
         width="15.611864"
         height="2"
         x="-47.661289"
         y="1014.3828" />
      <rect
         y="1018.3828"
         x="-47.661289"
         height="2"
         width="15.611864"
         id="rect3816"
         style="fill:#a6a6a6;fill-opacity:1;fill-rule:nonzero;stroke:none" />
      <rect
         style="fill:#a6a6a6;fill-opacity:1;fill-rule:nonzero;stroke:none"
         id="rect3818"
         width="15.611862"
         height="2"
         x="-29.098257"
         y="974.38281" />
      <rect
         y="978.38281"
         x="-29.098257"
         height="2"
         width="15.611862"
         id="rect3820"
         style="fill:#a6a6a6;fill-opacity:1;fill-rule:nonzero;stroke:none" />
      <rect
         style="fill:#a6a6a6;fill-opacity:1;fill-rule:nonzero;stroke:none"
         id="rect3822"
         width="15.611862"
         height="2"
         x="-29.098257"
         y="982.38281" />
      <rect
         y="986.38281"
         x="-29.098257"
         height="2"
         width="15.611862"
         id="rect3824"
         style="fill:#a6a6a6;fill-opacity:1;fill-rule:nonzero;stroke:none" />
      <rect
         style="fill:#a6a6a6;fill-opacity:1;fill-rule:nonzero;stroke:none"
         id="rect3826"
         width="15.611862"
         height="2"
         x="-29.098257"
         y="990.38281" />
      <rect
         style="fill:#a6a6a6;fill-opacity:1;fill-rule:nonzero;stroke:none"
         id="rect3828"
         width="15.611862"
         height="2"
         x="-29.098257"
         y="994.38281" />
      <rect
         y="998.38281"
         x="-29.098257"
         height="2"
         width="15.611862"
         id="rect3830"
         style="fill:#a6a6a6;fill-opacity:1;fill-rule:nonzero;stroke:none" />
      <rect
         style="fill:#a6a6a6;fill-opacity:1;fill-rule:nonzero;stroke:none"
         id="rect3832"
         width="15.611862"
         height="2"
         x="-29.098257"
         y="1002.3828" />
      <rect
         y="1006.3828"
         x="-29.098257"
         height="2"
         width="15.611862"
         id="rect3834"
         style="fill:#a6a6a6;fill-opacity:1;fill-rule:nonzero;stroke:none" />
      <rect
         style="fill:#a6a6a6;fill-opacity:1;fill-rule:nonzero;stroke:none"
         id="rect3836"
         width="15.611862"
         height="2"
         x="-29.098257"
         y="1010.3828" />
      <rect
         y="1014.3828"
         x="-29.098257"
         height="2"
         width="15.611862"
         id="rect3838"
         style="fill:#a6a6a6;fill-opacity:1;fill-rule:nonzero;stroke:none" />
      <rect
         style="fill:#a6a6a6;fill-opacity:1;fill-rule:nonzero;stroke:none"
         id="rect3840"
         width="15.611862"
         height="2"
         x="-29.098257"
         y="1018.3828" />
      <rect
         style="fill:#a6a6a6;fill-opacity:1;fill-rule:nonzero;stroke:none"
         id="rect3844"
         width="15.611862"
         height="2"
         x="-29.098257"
         y="958.38281" />
      <rect
         y="962.38281"
         x="-29.098257"
         height="2"
         width="15.611862"
         id="rect3846"
         style="fill:#a6a6a6;fill-opacity:1;fill-rule:nonzero;stroke:none" />
      <rect
         style="fill:#a6a6a6;fill-opacity:1;fill-rule:nonzero;stroke:none"
         id="rect3848"
         width="15.611862"
         height="2"
         x="-29.098257"
         y="966.38281" />
      <rect
         y="970.38281"
         x="-29.098257"
         height="2"
         width="8.4031277"
         id="rect3850"
         style="fill:#a6a6a6;fill-opacity:1;fill-rule:nonzero;stroke:none" />
      <rect
         y="974.38281"
         x="-10.617675"
         height="2"
         width="15.611862"
         id="rect3852"
         style="fill:#a6a6a6;fill-opacity:1;fill-rule:nonzero;stroke:none" />
      <rect
         style="fill:#a6a6a6;fill-opacity:1;fill-rule:nonzero;stroke:none"
         id="rect3854"
         width="15.611862"
         height="2"
         x="-10.617675"
         y="978.38281" />
      <rect
         y="982.38281"
         x="-10.617675"
         height="2"
         width="15.611862"
         id="rect3856"
         style="fill:#a6a6a6;fill-opacity:1;fill-rule:nonzero;stroke:none" />
      <rect
         style="fill:#a6a6a6;fill-opacity:1;fill-rule:nonzero;stroke:none"
         id="rect3858"
         width="15.611862"
         height="2"
         x="-10.617675"
         y="986.38281" />
      <rect
         y="990.38281"
         x="-10.617675"
         height="2"
         width="15.611862"
         id="rect3860"
         style="fill:#a6a6a6;fill-opacity:1;fill-rule:nonzero;stroke:none" />
      <rect
         y="994.38281"
         x="-10.617675"
         height="2"
         width="15.611862"
         id="rect3862"
         style="fill:#a6a6a6;fill-opacity:1;fill-rule:nonzero;stroke:none" />
      <rect
         style="fill:#a6a6a6;fill-opacity:1;fill-rule:nonzero;stroke:none"
         id="rect3864"
         width="15.611862"
         height="2"
         x="-10.617675"
         y="998.38281" />
      <rect
         y="1002.3828"
         x="-10.617675"
         height="2"
         width="15.611862"
         id="rect3866"
         style="fill:#a6a6a6;fill-opacity:1;fill-rule:nonzero;stroke:none" />
      <rect
         style="fill:#a6a6a6;fill-opacity:1;fill-rule:nonzero;stroke:none"
         id="rect3868"
         width="15.611862"
         height="2"
         x="-10.617675"
         y="1006.3828" />
      <rect
         y="1010.3828"
         x="-10.617675"
         height="2"
         width="15.611862"
         id="rect3870"
         style="fill:#a6a6a6;fill-opacity:1;fill-rule:nonzero;stroke:none" />
      <rect
         style="fill:#a6a6a6;fill-opacity:1;fill-rule:nonzero;stroke:none"
         id="rect3872"
         width="15.611862"
         height="2"
         x="-10.617675"
         y="1014.3828" />
      <rect
         y="1018.3828"
         x="-10.617675"
         height="2"
         width="9.2064543"
         id="rect3874"
         style="fill:#a6a6a6;fill-opacity:1;fill-rule:nonzero;stroke:none" />
      <rect
         y="958.38281"
         x="-10.617675"
         height="2"
         width="15.611862"
         id="rect3876"
         style="fill:#a6a6a6;fill-opacity:1;fill-rule:nonzero;stroke:none" />
      <rect
         style="fill:#a6a6a6;fill-opacity:1;fill-rule:nonzero;stroke:none"
         id="rect3878"
         width="15.611862"
         height="2"
         x="-10.617675"
         y="962.38281" />
      <rect
         y="966.38281"
         x="-10.617675"
         height="2"
         width="15.611862"
         id="rect3880"
         style="fill:#a6a6a6;fill-opacity:1;fill-rule:nonzero;stroke:none" />
      <rect
         style="fill:#a6a6a6;fill-opacity:1;fill-rule:nonzero;stroke:none"
         id="rect3882"
         width="15.611862"
         height="2"
         x="-10.617675"
         y="970.38281" />
      <rect
         style="fill:#a6a6a6;fill-opacity:1;fill-rule:nonzero;stroke:none"
         id="rect3884"
         width="15.611862"
         height="2"
         x="8.1031885"
         y="974.38281" />
      <rect
         y="978.38281"
         x="8.1031885"
         height="2"
         width="15.611862"
         id="rect3886"
         style="fill:#a6a6a6;fill-opacity:1;fill-rule:nonzero;stroke:none" />
      <rect
         style="fill:#a6a6a6;fill-opacity:1;fill-rule:nonzero;stroke:none"
         id="rect3888"
         width="15.611862"
         height="2"
         x="8.1031885"
         y="982.38281" />
      <rect
         y="986.38281"
         x="8.1031885"
         height="2"
         width="9.8448744"
         id="rect3890"
         style="fill:#a6a6a6;fill-opacity:1;fill-rule:nonzero;stroke:none" />
      <rect
         style="fill:#a6a6a6;fill-opacity:1;fill-rule:nonzero;stroke:none"
         id="rect3892"
         width="15.611862"
         height="2"
         x="8.1031885"
         y="990.38281" />
      <rect
         style="fill:#a6a6a6;fill-opacity:1;fill-rule:nonzero;stroke:none"
         id="rect3894"
         width="15.611862"
         height="2"
         x="8.1031885"
         y="994.38281" />
      <rect
         y="998.38281"
         x="8.1031885"
         height="2"
         width="15.611862"
         id="rect3896"
         style="fill:#a6a6a6;fill-opacity:1;fill-rule:nonzero;stroke:none" />
      <rect
         style="fill:#a6a6a6;fill-opacity:1;fill-rule:nonzero;stroke:none"
         id="rect3898"
         width="15.611862"
         height="2"
         x="8.1031885"
         y="1002.3828" />
      <rect
         y="1006.3828"
         x="8.1031885"
         height="2"
         width="15.611862"
         id="rect3900"
         style="fill:#a6a6a6;fill-opacity:1;fill-rule:nonzero;stroke:none" />
      <rect
         style="fill:#a6a6a6;fill-opacity:1;fill-rule:nonzero;stroke:none"
         id="rect3902"
         width="15.611862"
         height="2"
         x="8.1031885"
         y="1010.3828" />
      <rect
         y="1014.3828"
         x="8.1031885"
         height="2"
         width="15.611862"
         id="rect3904"
         style="fill:#a6a6a6;fill-opacity:1;fill-rule:nonzero;stroke:none" />
      <rect
         style="fill:#a6a6a6;fill-opacity:1;fill-rule:nonzero;stroke:none"
         id="rect3906"
         width="15.611862"
         height="2"
         x="8.1031885"
         y="1018.3828" />
      <rect
         style="fill:#a6a6a6;fill-opacity:1;fill-rule:nonzero;stroke:none"
         id="rect3908"
         width="15.611862"
         height="2"
         x="8.1031885"
         y="958.38281" />
      <rect
         y="962.38281"
         x="8.1031885"
         height="2"
         width="15.611862"
         id="rect3910"
         style="fill:#a6a6a6;fill-opacity:1;fill-rule:nonzero;stroke:none" />
      <rect
         style="fill:#a6a6a6;fill-opacity:1;fill-rule:nonzero;stroke:none"
         id="rect3912"
         width="15.611862"
         height="2"
         x="8.1031885"
         y="966.38281" />
      <rect
         y="970.38281"
         x="8.1031885"
         height="2"
         width="15.611862"
         id="rect3914"
         style="fill:#a6a6a6;fill-opacity:1;fill-rule:nonzero;stroke:none" />
      <path
         sodipodi:type="inkscape:offset"
         inkscape:radius="2.2276201"
         inkscape:original="M -52.875 12.375 C -63.889859 12.375 -72.8125 21.297641 -72.8125 32.3125 C -72.8125 43.327359 -63.889859 52.28125 -52.875 52.28125 C -41.860141 52.28125 -32.90625 43.327359 -32.90625 32.3125 C -32.90625 21.297641 -41.860141 12.375 -52.875 12.375 z "
         style="fill:#1a1a1a;fill-opacity:0.26388891;fill-rule:nonzero;stroke:none"
         id="path4106"
         d="m -52.875,10.15625 c -12.217855,0 -22.15625,9.938395 -22.15625,22.15625 0,12.217855 9.934181,22.1875 22.15625,22.1875 12.222069,0 22.1875,-9.965431 22.1875,-22.1875 0,-12.222069 -9.969645,-22.15625 -22.1875,-22.15625 z"
         transform="matrix(1.4096385,0,0,1.4096385,73.655152,937.1215)" />
      <path
         transform="matrix(1.4096385,0,0,1.4096385,73.655152,937.1215)"
         d="m -52.875,11.21875 c -11.636283,0 -21.09375,9.457467 -21.09375,21.09375 0,11.636283 9.455291,21.125 21.09375,21.125 11.638459,0 21.125,-9.486541 21.125,-21.125 0,-11.638459 -9.488717,-21.09375 -21.125,-21.09375 z"
         id="path4104"
         style="fill:#1a1a1a;fill-opacity:0.26388891;fill-rule:nonzero;stroke:none"
         inkscape:original="M -52.875 12.375 C -63.889859 12.375 -72.8125 21.297641 -72.8125 32.3125 C -72.8125 43.327359 -63.889859 52.28125 -52.875 52.28125 C -41.860141 52.28125 -32.90625 43.327359 -32.90625 32.3125 C -32.90625 21.297641 -41.860141 12.375 -52.875 12.375 z "
         inkscape:radius="1.1507065"
         sodipodi:type="inkscape:offset" />
      <path
         sodipodi:type="arc"
         style="fill:#f6f1e4;fill-opacity:1;fill-rule:nonzero;stroke:none"
         id="path3940"
         sodipodi:cx="-52.864052"
         sodipodi:cy="32.322845"
         sodipodi:rx="19.944166"
         sodipodi:ry="19.944166"
         d="m -32.919886,32.322845 c 0,11.014859 -8.929307,19.944167 -19.944166,19.944167 -11.014859,0 -19.944166,-8.929308 -19.944166,-19.944167 0,-11.014858 8.929307,-19.944166 19.944166,-19.944166 11.014859,0 19.944166,8.929308 19.944166,19.944166 z"
         transform="matrix(1.4096385,0,0,1.4096385,73.655152,937.1215)" />
      <path
         sodipodi:type="inkscape:offset"
         inkscape:radius="2.3476775"
         inkscape:original="M -52.875 12.375 C -63.889859 12.375 -72.8125 21.297641 -72.8125 32.3125 C -72.8125 43.327359 -63.889859 52.28125 -52.875 52.28125 C -41.860141 52.28125 -32.90625 43.327359 -32.90625 32.3125 C -32.90625 21.297641 -41.860141 12.375 -52.875 12.375 z "
         style="fill:#1a1a1a;fill-opacity:0.19907406;fill-rule:nonzero;stroke:none"
         id="path3949"
         d="m -52.875,10.03125 c -12.282691,0 -22.28125,9.998559 -22.28125,22.28125 0,12.282691 9.994119,22.3125 22.28125,22.3125 12.287131,0 22.3125,-10.025369 22.3125,-22.3125 0,-12.287131 -10.029809,-22.28125 -22.3125,-22.28125 z"
         transform="translate(52.480582,951.32334)" />
      <path
         transform="translate(53.441752,952.52479)"
         d="m -52.875,8.5 c -13.114921,0 -23.8125,10.697579 -23.8125,23.8125 0,13.114921 10.690224,23.84375 23.8125,23.84375 13.122276,0 23.84375,-10.721474 23.84375,-23.84375 C -29.03125,19.190224 -39.760079,8.5 -52.875,8.5 z"
         id="path3951"
         style="fill:#1a1a1a;fill-opacity:0.19907406;fill-rule:nonzero;stroke:none"
         inkscape:original="M -52.875 12.375 C -63.889859 12.375 -72.8125 21.297641 -72.8125 32.3125 C -72.8125 43.327359 -63.889859 52.28125 -52.875 52.28125 C -41.860141 52.28125 -32.90625 43.327359 -32.90625 32.3125 C -32.90625 21.297641 -41.860141 12.375 -52.875 12.375 z "
         inkscape:radius="3.8887401"
         sodipodi:type="inkscape:offset" />
      <path
         transform="translate(52,-6.00002)"
         d="m -47.6875,985 c -2.024033,0 -3.6875,1.66347 -3.6875,3.6875 0,2.02403 1.663467,3.6875 3.6875,3.6875 l 21.65625,0 c 2.024033,0 3.6875,-1.66347 3.6875,-3.6875 0,-2.02403 -1.663467,-3.6875 -3.6875,-3.6875 l -21.65625,0 z"
         id="path4004"
         style="fill:#1a1a1a;fill-opacity:0.41666667;fill-rule:nonzero;stroke:none"
         inkscape:original="M -47.6875 985.6875 C -49.3495 985.6875 -50.6875 987.0255 -50.6875 988.6875 C -50.6875 990.3495 -49.3495 991.6875 -47.6875 991.6875 L -26.03125 991.6875 C -24.36925 991.6875 -23.03125 990.3495 -23.03125 988.6875 C -23.03125 987.0255 -24.36925 985.6875 -26.03125 985.6875 L -47.6875 985.6875 z "
         inkscape:radius="0.67455077"
         sodipodi:type="inkscape:offset" />
      <rect
         ry="3"
         y="979.68512"
         x="1.3026211"
         height="6"
         width="27.666668"
         id="rect3942"
         style="fill:url(#linearGradient3310);fill-opacity:1;fill-rule:nonzero;stroke:none" />
      <path
         transform="translate(52,950.36218)"
         d="m -52.875,11.21875 c -11.643912,0 -21.09375,9.449838 -21.09375,21.09375 0,11.643912 9.447635,21.125 21.09375,21.125 11.646115,0 21.125,-9.478885 21.125,-21.125 0,-11.646115 -9.481088,-21.09375 -21.125,-21.09375 z"
         id="path3947"
         style="fill:#1a1a1a;fill-opacity:0.19907406;fill-rule:nonzero;stroke:none"
         inkscape:original="M -52.875 12.375 C -63.889859 12.375 -72.8125 21.297641 -72.8125 32.3125 C -72.8125 43.327359 -63.889859 52.28125 -52.875 52.28125 C -41.860141 52.28125 -32.90625 43.327359 -32.90625 32.3125 C -32.90625 21.297641 -41.860141 12.375 -52.875 12.375 z "
         inkscape:radius="1.1648338"
         sodipodi:type="inkscape:offset" />
      <path
         transform="translate(52,950.36218)"
         d="m -32.919886,32.322845 c 0,11.014859 -8.929307,19.944167 -19.944166,19.944167 -11.014859,0 -19.944166,-8.929308 -19.944166,-19.944167 0,-11.014858 8.929307,-19.944166 19.944166,-19.944166 11.014859,0 19.944166,8.929308 19.944166,19.944166 z"
         sodipodi:ry="19.944166"
         sodipodi:rx="19.944166"
         sodipodi:cy="32.322845"
         sodipodi:cx="-52.864052"
         id="path3924"
         style="fill:url(#radialGradient3312);fill-opacity:1;fill-rule:nonzero;stroke:none"
         sodipodi:type="arc" />
      <path
         sodipodi:type="arc"
         style="fill:#28170b;fill-opacity:1;fill-rule:nonzero;stroke:none"
         id="path3926"
         sodipodi:cx="-52.864052"
         sodipodi:cy="32.322845"
         sodipodi:rx="19.944166"
         sodipodi:ry="19.944166"
         d="m -32.919886,32.322845 c 0,11.014859 -8.929307,19.944167 -19.944166,19.944167 -11.014859,0 -19.944166,-8.929308 -19.944166,-19.944167 0,-11.014858 8.929307,-19.944166 19.944166,-19.944166 11.014859,0 19.944166,8.929308 19.944166,19.944166 z"
         transform="matrix(0.8433735,0,0,0.8433735,43.72009,955.42479)" />
      <path
         transform="matrix(0.73493977,0,0,0.73493977,37.98784,958.92968)"
         d="m -32.919886,32.322845 c 0,11.014859 -8.929307,19.944167 -19.944166,19.944167 -11.014859,0 -19.944166,-8.929308 -19.944166,-19.944167 0,-11.014858 8.929307,-19.944166 19.944166,-19.944166 11.014859,0 19.944166,8.929308 19.944166,19.944166 z"
         sodipodi:ry="19.944166"
         sodipodi:rx="19.944166"
         sodipodi:cy="32.322845"
         sodipodi:cx="-52.864052"
         id="path3928"
         style="opacity:0.73662552;fill:url(#linearGradient3314);fill-opacity:1;fill-rule:nonzero;stroke:none"
         sodipodi:type="arc" />
      <path
         transform="translate(52,950.36218)"
         d="m -57.189294,23.071634 c 0,0.995319 -0.806865,1.802184 -1.802184,1.802184 -0.995319,0 -1.802184,-0.806865 -1.802184,-1.802184 0,-0.995318 0.806865,-1.802183 1.802184,-1.802183 0.995319,0 1.802184,0.806865 1.802184,1.802183 z"
         sodipodi:ry="1.8021836"
         sodipodi:rx="1.8021836"
         sodipodi:cy="23.071634"
         sodipodi:cx="-58.991478"
         id="path3953"
         style="opacity:0.34979428;fill:url(#linearGradient3316);fill-opacity:1;fill-rule:nonzero;stroke:none"
         sodipodi:type="arc" />
      <path
         sodipodi:type="arc"
         style="opacity:0.34979428;fill:url(#linearGradient3318);fill-opacity:1;fill-rule:nonzero;stroke:none"
         id="path3963"
         sodipodi:cx="-58.991478"
         sodipodi:cy="23.071634"
         sodipodi:rx="1.8021836"
         sodipodi:ry="1.8021836"
         d="m -57.189294,23.071634 c 0,0.995319 -0.806865,1.802184 -1.802184,1.802184 -0.995319,0 -1.802184,-0.806865 -1.802184,-1.802184 0,-0.995318 0.806865,-1.802183 1.802184,-1.802183 0.995319,0 1.802184,0.806865 1.802184,1.802183 z"
         transform="matrix(0.48896755,0,0,0.46017699,23.734303,963.2189)" />
      <path
         transform="matrix(0.28743362,0,0,0.25864306,11.067231,969.03605)"
         d="m -57.189294,23.071634 c 0,0.995319 -0.806865,1.802184 -1.802184,1.802184 -0.995319,0 -1.802184,-0.806865 -1.802184,-1.802184 0,-0.995318 0.806865,-1.802183 1.802184,-1.802183 0.995319,0 1.802184,0.806865 1.802184,1.802183 z"
         sodipodi:ry="1.8021836"
         sodipodi:rx="1.8021836"
         sodipodi:cy="23.071634"
         sodipodi:cx="-58.991478"
         id="path3967"
         style="opacity:0.34979428;fill:url(#linearGradient3320);fill-opacity:1;fill-rule:nonzero;stroke:none"
         sodipodi:type="arc" />
      <path
         sodipodi:type="arc"
         style="opacity:0.34979428;fill:url(#linearGradient3322);fill-opacity:1;fill-rule:nonzero;stroke:none"
         id="path3971"
         sodipodi:cx="-58.991478"
         sodipodi:cy="23.071634"
         sodipodi:rx="1.8021836"
         sodipodi:ry="1.8021836"
         d="m -57.189294,23.071634 c 0,0.995319 -0.806865,1.802184 -1.802184,1.802184 -0.995319,0 -1.802184,-0.806865 -1.802184,-1.802184 0,-0.995318 0.806865,-1.802183 1.802184,-1.802183 0.995319,0 1.802184,0.806865 1.802184,1.802183 z"
         transform="matrix(0.30633152,-0.21422279,0.1564746,0.22375352,6.729973,954.68722)" />
      <path
         id="path3975"
         d="m -0.875,968.01843 c -8.095258,0 -14.65625,6.56095 -14.65625,14.65625 0,8.0953 6.560992,14.6563 14.65625,14.6563 0.105224,0 0.207805,0 0.3125,0 -7.606129,-0.1685 -13.71875,-6.4222 -13.71875,-14.125 0,-7.8088 6.279862,-14.1563 14.03125,-14.1563 7.667293,0 13.896945,6.2146 14.03125,13.9063 0.0018,-0.094 0,-0.1866 0,-0.2813 0,-8.0953 -6.560992,-14.65625 -14.65625,-14.65625 z"
         style="opacity:0.22222224;fill:url(#linearGradient3324);fill-opacity:1;fill-rule:nonzero;stroke:none"
         inkscape:connector-curvature="0" />
    </g>
    <path
       style="fill:#000000;fill-opacity:0.38356168;fill-rule:nonzero;stroke:none"
       d="m 1,1042.3622 0.045976,2.7457 c 0.03024,1.8058 1.461916,3.2543 3.2852054,3.2543 l 86.3836136,0 c 1.823288,0 3.285205,-1.4481 3.285205,-3.2543 l -0.04598,-2.7457 z"
       id="rect3781"
       inkscape:connector-curvature="0"
       sodipodi:nodetypes="csssscc" />
    <rect
       style="fill:#ffffff;fill-opacity:1;fill-rule:nonzero;stroke:none"
       id="rect3770"
       width="92.954033"
       height="2.000005"
       x="1.045976"
       y="1040.3622" />
  </g>
</svg>
