<?xml version="1.0" encoding="UTF-8" standalone="no"?>
<!-- Created with Inkscape (http://www.inkscape.org/) -->

<svg
   xmlns:dc="http://purl.org/dc/elements/1.1/"
   xmlns:cc="http://creativecommons.org/ns#"
   xmlns:rdf="http://www.w3.org/1999/02/22-rdf-syntax-ns#"
   xmlns:svg="http://www.w3.org/2000/svg"
   xmlns="http://www.w3.org/2000/svg"
   xmlns:xlink="http://www.w3.org/1999/xlink"
   xmlns:sodipodi="http://sodipodi.sourceforge.net/DTD/sodipodi-0.dtd"
   xmlns:inkscape="http://www.inkscape.org/namespaces/inkscape"
   width="96"
   height="96"
   id="svg2"
   version="1.1"
   inkscape:version="0.48.4 r9939"
   sodipodi:docname="kontact-import-wizard.svg">
  <defs
     id="defs4">
    <linearGradient
       id="linearGradient3883">
      <stop
         style="stop-color:#916700;stop-opacity:1;"
         offset="0"
         id="stop3885" />
      <stop
         style="stop-color:#ffb600;stop-opacity:1;"
         offset="1"
         id="stop3887" />
    </linearGradient>
    <linearGradient
       inkscape:collect="always"
       id="linearGradient3866">
      <stop
         style="stop-color:#000000;stop-opacity:1;"
         offset="0"
         id="stop3868" />
      <stop
         style="stop-color:#000000;stop-opacity:0;"
         offset="1"
         id="stop3870" />
    </linearGradient>
    <linearGradient
       id="linearGradient3856">
      <stop
         style="stop-color:#780000;stop-opacity:1;"
         offset="0"
         id="stop3858" />
      <stop
         style="stop-color:#a40000;stop-opacity:0;"
         offset="1"
         id="stop3860" />
    </linearGradient>
    <linearGradient
       inkscape:collect="always"
       id="linearGradient3824">
      <stop
         style="stop-color:#6a0000;stop-opacity:1;"
         offset="0"
         id="stop3826" />
      <stop
         style="stop-color:#6a0000;stop-opacity:0;"
         offset="1"
         id="stop3828" />
    </linearGradient>
    <linearGradient
       inkscape:collect="always"
       id="linearGradient3810">
      <stop
         style="stop-color:#000000;stop-opacity:1;"
         offset="0"
         id="stop3812" />
      <stop
         style="stop-color:#000000;stop-opacity:0;"
         offset="1"
         id="stop3814" />
    </linearGradient>
    <linearGradient
       inkscape:collect="always"
       xlink:href="#linearGradient3810"
       id="linearGradient3816"
       x1="-1"
       y1="36"
       x2="9"
       y2="36"
       gradientUnits="userSpaceOnUse" />
    <linearGradient
       inkscape:collect="always"
       xlink:href="#linearGradient3824"
       id="linearGradient3830"
       x1="15"
       y1="989.36218"
       x2="20"
       y2="989.36218"
       gradientUnits="userSpaceOnUse" />
    <linearGradient
       inkscape:collect="always"
       xlink:href="#linearGradient3856"
       id="linearGradient3862"
       x1="94"
       y1="44"
       x2="90"
       y2="44"
       gradientUnits="userSpaceOnUse" />
    <linearGradient
       inkscape:collect="always"
       xlink:href="#linearGradient3866"
       id="linearGradient3872"
       x1="91"
       y1="1040.3622"
       x2="91"
       y2="1022.3622"
       gradientUnits="userSpaceOnUse" />
    <linearGradient
       inkscape:collect="always"
       xlink:href="#linearGradient3883"
       id="linearGradient3889"
       x1="17"
       y1="1034.3622"
       x2="17"
       y2="1039.3622"
       gradientUnits="userSpaceOnUse" />
  </defs>
  <sodipodi:namedview
     id="base"
     pagecolor="#ffffff"
     bordercolor="#666666"
     borderopacity="1.0"
     inkscape:pageopacity="0.0"
     inkscape:pageshadow="2"
     inkscape:zoom="5.90625"
     inkscape:cx="47.830688"
     inkscape:cy="48"
     inkscape:document-units="px"
     inkscape:current-layer="layer1"
     showgrid="true"
     inkscape:snap-page="true"
     inkscape:snap-global="true"
     inkscape:snap-center="true"
     inkscape:snap-object-midpoints="false"
     showguides="true"
     inkscape:guide-bbox="true"
     inkscape:snap-bbox="true"
     inkscape:object-paths="true"
     inkscape:object-nodes="true"
     inkscape:window-width="1305"
     inkscape:window-height="744"
     inkscape:window-x="61"
     inkscape:window-y="24"
     inkscape:window-maximized="1"
     inkscape:snap-midpoints="false"
     inkscape:snap-grids="true"
     inkscape:snap-to-guides="false">
    <inkscape:grid
       type="xygrid"
       id="grid3002"
       empspacing="5"
       visible="true"
       enabled="true"
       snapvisiblegridlinesonly="true" />
  </sodipodi:namedview>
  <metadata
     id="metadata7">
    <rdf:RDF>
      <cc:Work
         rdf:about="">
        <dc:format>image/svg+xml</dc:format>
        <dc:type
           rdf:resource="http://purl.org/dc/dcmitype/StillImage" />
        <dc:title />
      </cc:Work>
    </rdf:RDF>
  </metadata>
  <g
     inkscape:label="Layer 1"
     inkscape:groupmode="layer"
     id="layer1"
     transform="translate(0,-956.36218)">
    <rect
       style="fill:#ffffff;fill-opacity:0;fill-rule:nonzero;stroke:none"
       id="rect3775"
       width="96"
       height="96"
       x="0"
       y="956.36218"
       ry="0" />
    <path
       style="fill:#000000;fill-opacity:0.09589041;fill-rule:nonzero;stroke:none"
       d="m 3.353015,956.30662 c -1.884176,0 -3.4111555,1.43156 -3.4111555,3.19799 l 0,83.65949 c 0,1.7665 1.5269795,3.1981 3.4111555,3.1981 l 89.23583,0 c 1.884174,0 3.411155,-1.4316 3.411155,-3.1981 l 0,-83.65949 c 0,-1.76643 -1.526981,-3.19799 -3.411155,-3.19799 z"
       id="rect3772"
       inkscape:connector-curvature="0"
       sodipodi:nodetypes="sssssssss" />
    <path
       style="fill:#000000;fill-opacity:0.18721463;fill-rule:nonzero;stroke:none"
       d="m 1.0459761,1041.8066 0,7.4219 c 0,1.7392 1.461916,3.1337 3.2852054,3.1337 l 86.3836135,0 c 1.823288,0 3.285205,-1.3945 3.285205,-3.1337 l 0,-7.4219 -92.9540239,0 z"
       id="rect3785"
       inkscape:connector-curvature="0" />
    <path
       style="fill:#000000;fill-opacity:0.38356168;fill-rule:nonzero;stroke:none"
       d="m 1.0459761,1041.8066 0,5.3807 c 0,1.762 1.461916,3.1749 3.2852054,3.1749 l 86.3836135,0 c 1.823288,0 3.285205,-1.4129 3.285205,-3.1749 l 0,-5.3807 -92.9540239,0 z"
       id="rect3783"
       inkscape:connector-curvature="0" />
    <path
       style="fill:#000000;fill-opacity:0.38356168;fill-rule:nonzero;stroke:none"
       d="m 1,1042.3622 0.045976,2.7457 c 0.03024,1.8058 1.461916,3.2543 3.2852054,3.2543 l 86.3836136,0 c 1.823288,0 3.285205,-1.4481 3.285205,-3.2543 l -0.04598,-2.7457 z"
       id="rect3781"
       inkscape:connector-curvature="0"
       sodipodi:nodetypes="csssscc" />
    <rect
       style="fill:#bc1e1e;fill-opacity:1;fill-rule:nonzero;stroke:none"
       id="rect2985-2"
       width="93"
       height="88.999947"
       x="0.99999738"
       y="957.36218"
       ry="3.1511376" />
    <path
       style="fill:#000000;fill-opacity:0.59360731;fill-rule:evenodd;stroke:none"
       d="M 15,1 4.15625,1 C 3.2833849,1 2.4758181,1.3366819 1.90625,1.90625 1.3366819,2.4758181 1,3.2833849 1,4.15625 l 0,64.90625 14,0 z"
       id="path3801"
       transform="translate(0,956.36218)"
       inkscape:connector-curvature="0"
       sodipodi:nodetypes="csssccc" />
    <path
       style="fill:url(#linearGradient3816);fill-opacity:1;fill-rule:evenodd;stroke:none"
       d="M 4.15625,1 C 3.2833849,1 2.4758181,1.3366819 1.90625,1.90625 1.3366819,2.4758181 1,3.2833849 1,4.15625 L 1,71 9,71 9,1 z"
       id="path3808"
       transform="translate(0,956.36218)"
       inkscape:connector-curvature="0"
       sodipodi:nodetypes="ssscccs" />
    <rect
       style="fill:url(#linearGradient3830);fill-opacity:1;fill-rule:evenodd;stroke:none"
       id="rect3822"
       width="5"
       height="64"
       x="15"
       y="957.36218" />
    <path
       style="fill:url(#linearGradient3862);fill-opacity:1;fill-rule:evenodd;stroke:none"
       d="M 90 90 L 90.84375 90 C 91.716615 90 92.524182 89.663318 93.09375 89.09375 C 93.663318 88.524182 94 87.716615 94 86.84375 L 94 4.15625 C 94 3.2833849 93.663318 2.4758181 93.09375 1.90625 C 92.524182 1.3366819 91.716615 1 90.84375 1 L 90 1 L 90 90 z "
       id="rect3845"
       transform="translate(0,956.36218)" />
    <path
       style="fill:#6a0000;fill-opacity:1;fill-rule:nonzero;stroke:none"
       d="m 1,1024.5184 0,18.6875 c 0,0.8729 0.3366819,1.6805 0.90625,2.25 0.5695681,0.5696 1.3771349,0.9063 2.25,0.9063 l 86.6875,0 c 0.872865,0 1.680432,-0.3367 2.25,-0.9063 0.569568,-0.5695 0.90625,-1.3771 0.90625,-2.25 l 0,-18.6875 c 0,-1.7457 -1.41052,-3.1562 -3.15625,-3.1562 l -86.6875,0 C 2.4105198,1021.3622 1,1022.7727 1,1024.5184 z"
       id="rect3779"
       inkscape:connector-curvature="0" />
    <path
       style="fill:#ffffff;fill-opacity:1;fill-rule:nonzero;stroke:none"
       d="m 5.0625,1025.4247 0,16.875 84.9375,0 0,-16.875 z"
       id="path3789"
       inkscape:connector-curvature="0"
       sodipodi:nodetypes="ccccc" />
    <path
       sodipodi:nodetypes="ccccc"
       inkscape:connector-curvature="0"
       id="path3818"
       d="m 5.0625,1039.1124 0,3.2498 88.937497,0 0,-3.2498 z"
       style="fill:#000000;fill-opacity:1;fill-rule:nonzero;stroke:none" />
    <path
       sodipodi:nodetypes="ccccc"
       inkscape:connector-curvature="0"
       id="path3832"
       d="m 5,1027.4247 0,0.9375 85,0 0,-0.9375 z"
       style="fill:#010101;fill-opacity:0.66210046;fill-rule:nonzero;stroke:none" />
    <path
       style="fill:#010101;fill-opacity:0.66210046;fill-rule:nonzero;stroke:none"
       d="m 5,1030.4247 0,0.9375 85,0 0,-0.9375 z"
       id="path3834"
       inkscape:connector-curvature="0"
       sodipodi:nodetypes="ccccc" />
    <path
       sodipodi:nodetypes="ccccc"
       inkscape:connector-curvature="0"
       id="path3836"
       d="m 5,1033.4247 0,0.9375 85,0 0,-0.9375 z"
       style="fill:#010101;fill-opacity:0.66210046;fill-rule:nonzero;stroke:none" />
    <path
       style="fill:#010101;fill-opacity:0.66210046;fill-rule:nonzero;stroke:none"
       d="m 5,1036.4247 0,0.9375 85,0 0,-0.9375 z"
       id="path3838"
       inkscape:connector-curvature="0"
       sodipodi:nodetypes="ccccc" />
    <path
       sodipodi:nodetypes="ccccccc"
       inkscape:connector-curvature="0"
       id="path3881"
       d="m 10,1034.3622 0,16 7.11111,-5.3333 1.77778,0 7.11111,5.3333 0,-16 z"
       style="fill:#000000;fill-opacity:0.50228307;fill-rule:evenodd;stroke:none" />
    <path
       style="fill:url(#linearGradient3889);fill-opacity:1;fill-rule:evenodd;stroke:none"
       d="m 10,1034.3622 0,15 6.666666,-5 1.666668,0 6.666666,5 0,-15 z"
       id="rect3840"
       inkscape:connector-curvature="0"
       sodipodi:nodetypes="ccccccc" />
    <rect
       style="fill:#000000;fill-opacity:0.72602737;fill-rule:evenodd;stroke:none"
       id="rect3843"
       width="3"
       height="16.999998"
       x="5"
       y="1025.3622" />
    <rect
       style="fill:url(#linearGradient3872);fill-opacity:1;fill-rule:evenodd;stroke:none"
       id="rect3864"
       width="4"
       height="15"
       x="90"
       y="1025.3622" />
    <path
       style="fill:#ffffff;fill-opacity:1;fill-rule:nonzero;stroke:none"
       d="m 45.248027,962.36218 c -11.596886,0 -20.99802,8.71837 -20.99802,19.47302 0,7.49194 4.557395,13.98827 11.246055,17.24486 0.0053,0 0.0149,0 0.0202,0 2.908995,1.41344 6.219987,2.22824 9.731774,2.22824 3.511788,0 6.822779,-0.8148 9.731774,-2.22824 0.0053,0 0.01491,0 0.0202,0 6.688659,-3.25659 11.246055,-9.75292 11.246055,-17.24486 0,-10.75465 -9.401134,-19.47302 -20.99802,-19.47302 z m 0,2.99584 c 9.812749,0 17.767555,7.37709 17.767555,16.47718 0,5.28266 -2.675894,9.97918 -6.844547,12.99448 1.196718,-5.80476 -0.54538,-7.71009 -3.533321,-9.32454 -0.555313,1.28935 -1.267805,2.39133 -2.059421,3.27665 -0.846135,0.94629 -1.770192,1.66476 -2.644942,2.17202 -0.874752,0.50728 -1.633803,0.86133 -2.685324,0.86133 -1.051521,0 -1.810573,-0.35405 -2.685324,-0.86133 -0.87475,-0.50726 -1.798807,-1.22573 -2.644943,-2.17202 -0.791615,-0.88532 -1.504107,-1.9873 -2.059421,-3.27665 -2.98794,1.61445 -4.730039,3.51978 -3.533321,9.32454 -4.168653,-3.0153 -6.844547,-7.71182 -6.844547,-12.99448 0,-9.10009 7.954806,-16.47718 17.767556,-16.47718 z m 0,7.62071 c -6.4982,0 -6.501311,2.6455 -6.501311,7.41472 0,6.35904 4.876761,9.54928 6.501311,9.54928 1.62455,0 6.501309,-3.19024 6.501309,-9.54928 0,-4.76922 -0.003,-7.41472 -6.501309,-7.41472 z m -3.250654,12.03958 6.501308,0 c -2.166065,3.3479 -4.335243,3.3479 -6.501308,0 z"
       id="path3939"
       inkscape:connector-curvature="0" />
    <path
       style="fill:#ffffff;fill-opacity:1;fill-rule:evenodd;stroke:none"
       d="m 73.248121,987.36218 0,12.21054 -5.669174,0 9.921053,10.68428 9.921052,-10.68428 -5.669172,0 0,-12.21054 z"
       id="rect3025"
       inkscape:connector-curvature="0"
       sodipodi:nodetypes="cccccccc" />
    <rect
       style="fill:#ffffff;fill-opacity:1;fill-rule:evenodd;stroke:none"
       id="rect3028"
       width="19.842106"
       height="3.0526316"
       x="67.578949"
       y="1013.3095" />
  </g>
</svg>
