<?xml version="1.0" encoding="UTF-8" standalone="no"?>
<!-- Created with Inkscape (http://www.inkscape.org/) -->

<svg
   xmlns:dc="http://purl.org/dc/elements/1.1/"
   xmlns:cc="http://creativecommons.org/ns#"
   xmlns:rdf="http://www.w3.org/1999/02/22-rdf-syntax-ns#"
   xmlns:svg="http://www.w3.org/2000/svg"
   xmlns="http://www.w3.org/2000/svg"
   xmlns:xlink="http://www.w3.org/1999/xlink"
   xmlns:sodipodi="http://sodipodi.sourceforge.net/DTD/sodipodi-0.dtd"
   xmlns:inkscape="http://www.inkscape.org/namespaces/inkscape"
   width="96"
   height="96"
   id="svg2"
   version="1.1"
   inkscape:version="0.48.4 r9939"
   sodipodi:docname="krita.svg">
  <defs
     id="defs4">
    <linearGradient
       id="linearGradient3784">
      <stop
         style="stop-color:#f9a216;stop-opacity:1;"
         offset="0"
         id="stop3786" />
      <stop
         style="stop-color:#f9d616;stop-opacity:1;"
         offset="1"
         id="stop3788" />
    </linearGradient>
    <linearGradient
       id="linearGradient3849">
      <stop
         id="stop3851"
         offset="0"
         style="stop-color:#ff46c9;stop-opacity:1" />
      <stop
         id="stop3853"
         offset="1"
         style="stop-color:#ffffff;stop-opacity:0;" />
    </linearGradient>
    <linearGradient
       id="linearGradient3839">
      <stop
         style="stop-color:#00f8ff;stop-opacity:0.57692307;"
         offset="0"
         id="stop3841" />
      <stop
         style="stop-color:#ffffff;stop-opacity:0;"
         offset="1"
         id="stop3843" />
    </linearGradient>
    <linearGradient
       id="linearGradient3829">
      <stop
         id="stop3831"
         offset="0"
         style="stop-color:#fff800;stop-opacity:0.57692307;" />
      <stop
         id="stop3833"
         offset="1"
         style="stop-color:#ffffff;stop-opacity:0;" />
    </linearGradient>
    <linearGradient
       id="linearGradient3798">
      <stop
         style="stop-color:#df3692;stop-opacity:0.57692307;"
         offset="0"
         id="stop3800" />
      <stop
         style="stop-color:#ff6cb5;stop-opacity:0;"
         offset="1"
         id="stop3802" />
    </linearGradient>
    <radialGradient
       inkscape:collect="always"
       xlink:href="#linearGradient3798"
       id="radialGradient3804"
       cx="29.999998"
       cy="26"
       fx="29.999998"
       fy="26"
       r="22.5"
       gradientUnits="userSpaceOnUse"
       gradientTransform="matrix(1.1111111,-0.88888889,0.62469504,0.78086881,-19.575405,32.364076)" />
    <radialGradient
       inkscape:collect="always"
       xlink:href="#linearGradient3829"
       id="radialGradient3827"
       gradientUnits="userSpaceOnUse"
       cx="30.674664"
       cy="29.563194"
       fx="30.674664"
       fy="29.563194"
       r="22.5"
       gradientTransform="matrix(1.8119658,-0.82051167,0.41250688,0.91095444,-35.084152,26.930533)" />
    <radialGradient
       inkscape:collect="always"
       xlink:href="#linearGradient3839"
       id="radialGradient3837"
       gradientUnits="userSpaceOnUse"
       cx="30.000019"
       cy="25.999998"
       fx="30.000019"
       fy="25.999998"
       r="22.5"
       gradientTransform="matrix(1.4927305,-1.1941844,0.8888889,1.1111111,-37.893033,32.936665)" />
    <radialGradient
       inkscape:collect="always"
       xlink:href="#linearGradient3849"
       id="radialGradient3847"
       gradientUnits="userSpaceOnUse"
       gradientTransform="matrix(2.2222225,-0.88888903,0.37139067,0.92847668,-46.322831,28.526275)"
       cx="27.284483"
       cy="28.785433"
       fx="27.284483"
       fy="28.785433"
       r="22.5" />
    <linearGradient
       inkscape:collect="always"
       xlink:href="#linearGradient3784"
       id="linearGradient3790"
       x1="35"
       y1="1047.3622"
       x2="35"
       y2="957.36218"
       gradientUnits="userSpaceOnUse" />
  </defs>
  <sodipodi:namedview
     id="base"
     pagecolor="#ffffff"
     bordercolor="#666666"
     borderopacity="1.0"
     inkscape:pageopacity="0.0"
     inkscape:pageshadow="2"
     inkscape:zoom="5.90625"
     inkscape:cx="52.013057"
     inkscape:cy="48"
     inkscape:document-units="px"
     inkscape:current-layer="layer1"
     showgrid="true"
     inkscape:snap-page="true"
     inkscape:snap-global="true"
     inkscape:snap-center="true"
     inkscape:snap-object-midpoints="false"
     showguides="true"
     inkscape:guide-bbox="true"
     inkscape:snap-bbox="true"
     inkscape:object-paths="true"
     inkscape:object-nodes="true"
     inkscape:window-width="1305"
     inkscape:window-height="744"
     inkscape:window-x="61"
     inkscape:window-y="24"
     inkscape:window-maximized="1"
     inkscape:snap-midpoints="true"
     inkscape:snap-grids="true"
     inkscape:snap-to-guides="false">
    <inkscape:grid
       type="xygrid"
       id="grid3002"
       empspacing="5"
       visible="true"
       enabled="true"
       snapvisiblegridlinesonly="true" />
  </sodipodi:namedview>
  <metadata
     id="metadata7">
    <rdf:RDF>
      <cc:Work
         rdf:about="">
        <dc:format>image/svg+xml</dc:format>
        <dc:type
           rdf:resource="http://purl.org/dc/dcmitype/StillImage" />
        <dc:title />
      </cc:Work>
    </rdf:RDF>
  </metadata>
  <g
     inkscape:label="Layer 1"
     inkscape:groupmode="layer"
     id="layer1"
     transform="translate(0,-956.36218)">
    <rect
       style="fill:#ffffff;fill-opacity:0;fill-rule:nonzero;stroke:none"
       id="rect3775"
       width="96"
       height="96"
       x="0"
       y="956.36218"
       ry="0" />
    <path
       style="fill:#000000;fill-opacity:0.09589041;fill-rule:nonzero;stroke:none"
       d="m 3.353015,956.30662 c -1.884176,0 -3.4111555,1.43156 -3.4111555,3.19799 l 0,83.65949 c 0,1.7665 1.5269795,3.1981 3.4111555,3.1981 l 89.23583,0 c 1.884174,0 3.411155,-1.4316 3.411155,-3.1981 l 0,-83.65949 c 0,-1.76643 -1.526981,-3.19799 -3.411155,-3.19799 z"
       id="rect3772"
       inkscape:connector-curvature="0"
       sodipodi:nodetypes="sssssssss" />
    <path
       style="fill:#000000;fill-opacity:0.18721463;fill-rule:nonzero;stroke:none"
       d="m 1.0459761,1041.8066 0,7.4219 c 0,1.7392 1.461916,3.1337 3.2852054,3.1337 l 86.3836135,0 c 1.823288,0 3.285205,-1.3945 3.285205,-3.1337 l 0,-7.4219 -92.9540239,0 z"
       id="rect3785"
       inkscape:connector-curvature="0" />
    <path
       style="fill:#000000;fill-opacity:0.38356168;fill-rule:nonzero;stroke:none"
       d="m 1.0459761,1041.8066 0,5.3807 c 0,1.762 1.461916,3.1749 3.2852054,3.1749 l 86.3836135,0 c 1.823288,0 3.285205,-1.4129 3.285205,-3.1749 l 0,-5.3807 -92.9540239,0 z"
       id="rect3783"
       inkscape:connector-curvature="0" />
    <rect
       style="fill:url(#linearGradient3790);fill-opacity:1;fill-rule:nonzero;stroke:none"
       id="rect2985"
       width="92.954025"
       height="89"
       x="1.045977"
       y="957.36218"
       ry="3.1511393" />
    <path
       style="fill:#000000;fill-opacity:0.38356168;fill-rule:nonzero;stroke:none"
       d="m 1,1042.3622 0.045976,2.7457 c 0.03024,1.8058 1.461916,3.2543 3.2852054,3.2543 l 86.3836136,0 c 1.823288,0 3.285205,-1.4481 3.285205,-3.2543 l -0.04598,-2.7457 z"
       id="rect3781"
       inkscape:connector-curvature="0"
       sodipodi:nodetypes="csssscc" />
    <rect
       style="fill:#ffffff;fill-opacity:0.30000001;fill-rule:nonzero;stroke:none"
       id="rect3770"
       width="92.954033"
       height="2.000005"
       x="1.045976"
       y="1040.3622" />
    <rect
       style="fill:#ffffff;fill-opacity:0.21917808;fill-rule:nonzero;stroke:none"
       id="rect3015"
       width="44"
       height="65"
       x="50"
       y="967.36218" />
    <path
       sodipodi:type="arc"
       style="fill:#ffffff;fill-opacity:1;fill-rule:nonzero;stroke:none"
       id="path3000"
       sodipodi:cx="47.5"
       sodipodi:cy="43.5"
       sodipodi:rx="22.5"
       sodipodi:ry="22.5"
       d="M 70,43.5 C 70,55.926407 59.926407,66 47.5,66 35.073593,66 25,55.926407 25,43.5 25,31.073593 35.073593,21 47.5,21 59.926407,21 70,31.073593 70,43.5 z"
       transform="matrix(0.97163224,-1.0688081,1.0688079,0.9716321,-45.145679,1008.3646)" />
    <path
       transform="matrix(-0.87447917,-0.79497168,0.79497188,-0.87447939,54.456536,1075.6632)"
       d="M 70,43.5 C 70,55.926407 59.926407,66 47.5,66 35.073593,66 25,55.926407 25,43.5 25,31.073593 35.073593,21 47.5,21 59.926407,21 70,31.073593 70,43.5 z"
       sodipodi:ry="22.5"
       sodipodi:rx="22.5"
       sodipodi:cy="43.5"
       sodipodi:cx="47.5"
       id="path3835"
       style="fill:url(#radialGradient3837);fill-opacity:1;fill-rule:nonzero;stroke:none"
       sodipodi:type="arc" />
    <path
       sodipodi:type="arc"
       style="fill:url(#radialGradient3847);fill-opacity:1;fill-rule:nonzero;stroke:none"
       id="path3845"
       sodipodi:cx="47.5"
       sodipodi:cy="43.5"
       sodipodi:rx="22.5"
       sodipodi:ry="22.5"
       d="M 70,43.5 C 70,55.926407 59.926407,66 47.5,66 35.073593,66 25,55.926407 25,43.5 25,31.073593 35.073593,21 47.5,21 59.926407,21 70,31.073593 70,43.5 z"
       transform="matrix(-0.79497188,0.87447939,0.87447917,0.79497168,47.221325,923.74314)" />
    <path
       transform="matrix(0.79497188,-0.87447939,0.87447917,0.79497168,-28.301002,1006.8187)"
       d="M 70,43.5 C 70,55.926407 59.926407,66 47.5,66 35.073593,66 25,55.926407 25,43.5 25,31.073593 35.073593,21 47.5,21 59.926407,21 70,31.073593 70,43.5 z"
       sodipodi:ry="22.5"
       sodipodi:rx="22.5"
       sodipodi:cy="43.5"
       sodipodi:cx="47.5"
       id="path3788"
       style="fill:url(#radialGradient3804);fill-opacity:1;fill-rule:nonzero;stroke:none"
       sodipodi:type="arc" />
    <path
       sodipodi:type="arc"
       style="fill:url(#radialGradient3827);fill-opacity:1;fill-rule:nonzero;stroke:none"
       id="path3825"
       sodipodi:cx="47.5"
       sodipodi:cy="43.5"
       sodipodi:rx="22.5"
       sodipodi:ry="22.5"
       d="M 70,43.5 C 70,55.926407 59.926407,66 47.5,66 35.073593,66 25,55.926407 25,43.5 25,31.073593 35.073593,21 47.5,21 59.926407,21 70,31.073593 70,43.5 z"
       transform="matrix(-0.79497188,0.87447939,-0.87447917,-0.79497168,123.30104,992.9057)" />
  </g>
</svg>
