<?xml version="1.0" encoding="UTF-8" standalone="no"?>
<!-- Created with Inkscape (http://www.inkscape.org/) -->

<svg
   xmlns:dc="http://purl.org/dc/elements/1.1/"
   xmlns:cc="http://creativecommons.org/ns#"
   xmlns:rdf="http://www.w3.org/1999/02/22-rdf-syntax-ns#"
   xmlns:svg="http://www.w3.org/2000/svg"
   xmlns="http://www.w3.org/2000/svg"
   xmlns:xlink="http://www.w3.org/1999/xlink"
   xmlns:sodipodi="http://sodipodi.sourceforge.net/DTD/sodipodi-0.dtd"
   xmlns:inkscape="http://www.inkscape.org/namespaces/inkscape"
   width="96"
   height="96"
   id="svg2"
   version="1.1"
   inkscape:version="0.48.4 r9939"
   sodipodi:docname="kupfer.svg">
  <defs
     id="defs4">
    <linearGradient
       id="linearGradient3775">
      <stop
         style="stop-color:#660000;stop-opacity:1;"
         offset="0"
         id="stop3777" />
      <stop
         style="stop-color:#b00000;stop-opacity:1;"
         offset="1"
         id="stop3779" />
    </linearGradient>
    <linearGradient
       inkscape:collect="always"
       xlink:href="#linearGradient3775"
       id="linearGradient3782"
       x1="35"
       y1="1047.3622"
       x2="35"
       y2="957.36218"
       gradientUnits="userSpaceOnUse" />
  </defs>
  <sodipodi:namedview
     id="base"
     pagecolor="#ffffff"
     bordercolor="#666666"
     borderopacity="1.0"
     inkscape:pageopacity="0.0"
     inkscape:pageshadow="2"
     inkscape:zoom="5.90625"
     inkscape:cx="47.830688"
     inkscape:cy="48"
     inkscape:document-units="px"
     inkscape:current-layer="layer1"
     showgrid="true"
     inkscape:snap-page="true"
     inkscape:snap-global="true"
     inkscape:snap-center="true"
     inkscape:snap-object-midpoints="false"
     showguides="true"
     inkscape:guide-bbox="true"
     inkscape:snap-bbox="true"
     inkscape:object-paths="true"
     inkscape:object-nodes="true"
     inkscape:window-width="1305"
     inkscape:window-height="744"
     inkscape:window-x="61"
     inkscape:window-y="24"
     inkscape:window-maximized="1"
     inkscape:snap-midpoints="true"
     inkscape:snap-grids="true"
     inkscape:snap-to-guides="false">
    <inkscape:grid
       type="xygrid"
       id="grid3002"
       empspacing="5"
       visible="true"
       enabled="true"
       snapvisiblegridlinesonly="true" />
  </sodipodi:namedview>
  <metadata
     id="metadata7">
    <rdf:RDF>
      <cc:Work
         rdf:about="">
        <dc:format>image/svg+xml</dc:format>
        <dc:type
           rdf:resource="http://purl.org/dc/dcmitype/StillImage" />
        <dc:title />
      </cc:Work>
    </rdf:RDF>
  </metadata>
  <g
     inkscape:label="Layer 1"
     inkscape:groupmode="layer"
     id="layer1"
     transform="translate(0,-956.36218)">
    <rect
       style="fill:#ffffff;fill-opacity:0;fill-rule:nonzero;stroke:none"
       id="rect3775"
       width="96"
       height="96"
       x="0"
       y="956.36218"
       ry="0" />
    <path
       style="fill:#000000;fill-opacity:0.09589041;fill-rule:nonzero;stroke:none"
       d="m 3.353015,956.30662 c -1.884176,0 -3.4111555,1.43156 -3.4111555,3.19799 l 0,83.65949 c 0,1.7665 1.5269795,3.1981 3.4111555,3.1981 l 89.23583,0 c 1.884174,0 3.411155,-1.4316 3.411155,-3.1981 l 0,-83.65949 c 0,-1.76643 -1.526981,-3.19799 -3.411155,-3.19799 z"
       id="rect3772"
       inkscape:connector-curvature="0"
       sodipodi:nodetypes="sssssssss" />
    <path
       style="fill:#000000;fill-opacity:0.18721463;fill-rule:nonzero;stroke:none"
       d="m 1.0459761,1041.8066 0,7.4219 c 0,1.7392 1.461916,3.1337 3.2852054,3.1337 l 86.3836135,0 c 1.823288,0 3.285205,-1.3945 3.285205,-3.1337 l 0,-7.4219 -92.9540239,0 z"
       id="rect3785"
       inkscape:connector-curvature="0" />
    <path
       style="fill:#000000;fill-opacity:0.38356168;fill-rule:nonzero;stroke:none"
       d="m 1.0459761,1041.8066 0,5.3807 c 0,1.762 1.461916,3.1749 3.2852054,3.1749 l 86.3836135,0 c 1.823288,0 3.285205,-1.4129 3.285205,-3.1749 l 0,-5.3807 -92.9540239,0 z"
       id="rect3783"
       inkscape:connector-curvature="0" />
    <rect
       style="fill:url(#linearGradient3782);fill-opacity:1;fill-rule:nonzero;stroke:none"
       id="rect2985"
       width="92.954025"
       height="89"
       x="1.045977"
       y="957.36218"
       ry="3.1511393" />
    <path
       style="fill:#000000;fill-opacity:0.38356168;fill-rule:nonzero;stroke:none"
       d="m 1,1042.3622 0.045976,2.7457 c 0.03024,1.8058 1.461916,3.2543 3.2852054,3.2543 l 86.3836136,0 c 1.823288,0 3.285205,-1.4481 3.285205,-3.2543 l -0.04598,-2.7457 z"
       id="rect3781"
       inkscape:connector-curvature="0"
       sodipodi:nodetypes="csssscc" />
    <rect
       style="fill:#ffffff;fill-opacity:0.30000001;fill-rule:nonzero;stroke:none"
       id="rect3770"
       width="92.954033"
       height="2.000005"
       x="1.045976"
       y="1040.3622" />
    <rect
       style="fill:#ffffff;fill-opacity:0.11764706;fill-rule:nonzero;stroke:none"
       id="rect2995"
       width="93"
       height="65"
       x="1"
       y="966.36218" />
    <rect
       y="966.36218"
       x="1"
       height="43.999996"
       width="93"
       id="rect3765"
       style="fill:#ffffff;fill-opacity:0.11764706;fill-rule:nonzero;stroke:none" />
    <rect
       style="fill:#ffffff;fill-opacity:0.11764706;fill-rule:nonzero;stroke:none"
       id="rect3767"
       width="93"
       height="5.0000052"
       x="1"
       y="-1016.3622"
       transform="scale(1,-1)" />
    <path
       style="font-size:medium;font-style:normal;font-variant:normal;font-weight:normal;font-stretch:normal;text-indent:0;text-align:start;text-decoration:none;line-height:normal;letter-spacing:normal;word-spacing:normal;text-transform:none;direction:ltr;block-progression:tb;writing-mode:lr-tb;text-anchor:start;color:#000000;fill:#ffffff;fill-opacity:1;stroke:none;stroke-width:4.61774349;marker:none;visibility:visible;display:inline;overflow:visible;enable-background:accumulate;font-family:Andale Mono;-inkscape-font-specification:Andale Mono"
       id="path3939"
       inkscape:connector-curvature="0"
       d="m 36.308009,966.61321 c -5.541613,0 -10.943953,2.33062 -14.863283,6.40793 -3.91933,4.0773 -6.181904,9.71464 -6.181904,15.48197 0,5.76744 2.262574,11.39818 6.181904,15.47549 3.320542,3.4544 7.705902,5.6583 12.33836,6.2495 l 0,1.068 -7.587457,0 0,5.2662 7.587457,0 1.541984,14.7999 1.972231,0 1.541983,-14.7999 7.587448,0 0,-5.2662 -7.587448,0 0,-1.068 c 4.63995,-0.5912 9.04963,-2.7951 12.370163,-6.2495 3.919319,-4.07731 6.150102,-9.70805 6.150102,-15.47549 0,-5.76733 -2.230783,-11.40467 -6.150102,-15.48197 -3.919329,-4.07731 -9.359825,-6.40793 -14.901439,-6.40793 z m 0,2.07632 c 4.157444,0 8.49025,1.70698 11.314414,4.87692 6.449908,7.23957 6.182412,19.50472 0,26.71655 -2.763946,3.2241 -7.15697,4.8702 -11.314414,4.8702 -4.148546,0 -8.338147,-1.8247 -11.276249,-4.8702 l -0.03176,0 c -6.335213,-7.352 -6.007433,-19.33801 0,-26.71655 2.938935,-3.0574 7.150617,-4.87692 11.308061,-4.87692 l 10e-6,0 z" />
  </g>
</svg>
