<?xml version="1.0" encoding="UTF-8" standalone="no"?>
<!-- Created with Inkscape (http://www.inkscape.org/) -->

<svg
   xmlns:dc="http://purl.org/dc/elements/1.1/"
   xmlns:cc="http://creativecommons.org/ns#"
   xmlns:rdf="http://www.w3.org/1999/02/22-rdf-syntax-ns#"
   xmlns:svg="http://www.w3.org/2000/svg"
   xmlns="http://www.w3.org/2000/svg"
   xmlns:xlink="http://www.w3.org/1999/xlink"
   xmlns:sodipodi="http://sodipodi.sourceforge.net/DTD/sodipodi-0.dtd"
   xmlns:inkscape="http://www.inkscape.org/namespaces/inkscape"
   width="96"
   height="96"
   id="svg2"
   version="1.1"
   inkscape:version="0.48.4 r9939"
   sodipodi:docname="leafpad.svg">
  <defs
     id="defs4">
    <linearGradient
       id="linearGradient3791">
      <stop
         style="stop-color:#005424;stop-opacity:1;"
         offset="0"
         id="stop3793" />
      <stop
         style="stop-color:#008535;stop-opacity:1;"
         offset="1"
         id="stop3795" />
    </linearGradient>
    <linearGradient
       inkscape:collect="always"
       xlink:href="#linearGradient3791"
       id="linearGradient3797"
       x1="45"
       y1="1045.714"
       x2="45"
       y2="957.36218"
       gradientUnits="userSpaceOnUse" />
  </defs>
  <sodipodi:namedview
     id="base"
     pagecolor="#ffffff"
     bordercolor="#666666"
     borderopacity="1.0"
     inkscape:pageopacity="0.0"
     inkscape:pageshadow="2"
     inkscape:zoom="5.90625"
     inkscape:cx="45.231981"
     inkscape:cy="54.772487"
     inkscape:document-units="px"
     inkscape:current-layer="layer1"
     showgrid="true"
     inkscape:snap-page="true"
     inkscape:snap-global="true"
     inkscape:snap-center="true"
     inkscape:snap-object-midpoints="false"
     showguides="true"
     inkscape:guide-bbox="true"
     inkscape:snap-bbox="true"
     inkscape:object-paths="true"
     inkscape:object-nodes="true"
     inkscape:window-width="1305"
     inkscape:window-height="744"
     inkscape:window-x="61"
     inkscape:window-y="24"
     inkscape:window-maximized="1"
     inkscape:snap-midpoints="true"
     inkscape:snap-grids="true"
     inkscape:snap-to-guides="false">
    <inkscape:grid
       type="xygrid"
       id="grid3002"
       empspacing="5"
       visible="true"
       enabled="true"
       snapvisiblegridlinesonly="true" />
  </sodipodi:namedview>
  <metadata
     id="metadata7">
    <rdf:RDF>
      <cc:Work
         rdf:about="">
        <dc:format>image/svg+xml</dc:format>
        <dc:type
           rdf:resource="http://purl.org/dc/dcmitype/StillImage" />
        <dc:title />
      </cc:Work>
    </rdf:RDF>
  </metadata>
  <g
     inkscape:label="Layer 1"
     inkscape:groupmode="layer"
     id="layer1"
     transform="translate(0,-956.36218)">
    <rect
       style="fill:#ffffff;fill-opacity:0;fill-rule:nonzero;stroke:none"
       id="rect3775"
       width="96"
       height="96"
       x="0"
       y="956.36218"
       ry="0" />
    <path
       style="fill:#000000;fill-opacity:0.09589041;fill-rule:nonzero;stroke:none"
       d="m 3.353015,956.30662 c -1.884176,0 -3.4111555,1.43156 -3.4111555,3.19799 l 0,83.65949 c 0,1.7665 1.5269795,3.1981 3.4111555,3.1981 l 89.23583,0 c 1.884174,0 3.411155,-1.4316 3.411155,-3.1981 l 0,-83.65949 c 0,-1.76643 -1.526981,-3.19799 -3.411155,-3.19799 z"
       id="rect3772"
       inkscape:connector-curvature="0"
       sodipodi:nodetypes="sssssssss" />
    <path
       style="fill:#000000;fill-opacity:0.18721463;fill-rule:nonzero;stroke:none"
       d="m 1.0459761,1041.8066 0,7.4219 c 0,1.7392 1.461916,3.1337 3.2852054,3.1337 l 86.3836135,0 c 1.823288,0 3.285205,-1.3945 3.285205,-3.1337 l 0,-7.4219 -92.9540239,0 z"
       id="rect3785"
       inkscape:connector-curvature="0" />
    <path
       style="fill:#000000;fill-opacity:0.38356168;fill-rule:nonzero;stroke:none"
       d="m 1.0459761,1041.8066 0,5.3807 c 0,1.762 1.461916,3.1749 3.2852054,3.1749 l 86.3836135,0 c 1.823288,0 3.285205,-1.4129 3.285205,-3.1749 l 0,-5.3807 -92.9540239,0 z"
       id="rect3783"
       inkscape:connector-curvature="0" />
    <rect
       style="fill:url(#linearGradient3797);fill-opacity:1;fill-rule:nonzero;stroke:none"
       id="rect2985-7"
       width="93"
       height="88.999916"
       x="0.9999969"
       y="957.36224"
       ry="3.1511364" />
    <path
       inkscape:connector-curvature="0"
       style="font-size:medium;font-style:normal;font-variant:normal;font-weight:normal;font-stretch:normal;text-indent:0;text-align:start;text-decoration:none;line-height:normal;letter-spacing:normal;word-spacing:normal;text-transform:none;direction:ltr;block-progression:tb;writing-mode:lr-tb;text-anchor:start;baseline-shift:baseline;color:#000000;fill:#aade87;fill-opacity:1;stroke:none;stroke-width:2;marker:none;visibility:visible;display:inline;overflow:visible;enable-background:accumulate;font-family:Sans;-inkscape-font-specification:Sans"
       d="m 5.670756,957.36227 -0.1729911,11.98585 -4.497768,0.16555 0,0.52976 0.0345982,0.52977 4.4285716,-0.16555 -0.1383928,9.8668 -4.324777,0.3311 0,0.52976 0.0345982,0.49666 4.2555805,-0.298 -0.172991,11.38987 -4.1171877,0.33111 0,0.52976 0.0345982,0.49665 4.0825895,-0.29799 -0.2075893,13.04543 -3.8750002,-0.1656 -0.0345982,0.5297 0,0.5298 3.9095984,0.1656 -0.2421875,16.0583 -3.6328127,-0.1655 -0.0345982,0.5298 0,0.5298 3.6328126,0.1654 -0.172991,11.1582 -3.4598216,-2.2846 0,1.2913 3.4598216,2.2845 -0.069197,3.6753 -3.3214287,-0.4305 -0.0691964,0.5298 0,0.5298 3.3906251,0.4635 -0.069196,4.1388 2.2142858,0 0.1037946,-8.2775 5.535715,0.1324 0.138392,8.1451 2.214286,0 -0.0346,-3.5759 0.934152,0.033 -0.0346,3.5428 2.214285,0 0.172991,-11.8534 4.982144,0.8608 0.0346,10.9926 2.214286,0 0,-3.8739 3.217634,-0.1 -0.103795,3.9732 2.214286,0 0.207589,-7.7809 5.328125,0.5297 0,7.2512 2.214286,0 0.0346,-13.0786 7.819197,3.2118 0.345982,9.8668 2.214286,0 -0.0692,-2.5826 4.359375,-1.6887 0.138393,4.2713 2.214285,0 -0.172991,-5.1321 3.044643,-0.9271 0,6.0592 2.214286,0 0.0346,-6.7214 3.148438,-0.9602 -0.276786,7.6816 2.214286,0 0.311384,-8.1783 5.535714,1.8211 -0.0692,6.3572 2.214286,0 0.0346,-5.6287 0.0692,0.033 0.380581,-1.0264 -0.415179,-0.1324 0.0346,-8.2775 5.328126,0.4304 0.345982,14.6016 2.214286,0 -0.20759,-8.8073 2.698661,0.2649 -0.207589,8.5424 2.248884,0 0.103794,-4.4368 8.026786,-0.3642 0,-0.5298 -0.0346,-0.5298 -7.992188,0.3311 0.242188,-9.5025 7.646206,1.6885 0.138392,-0.5297 0,-0.5628 -7.75,-1.6555 0.0692,-3.0793 0.311384,0.1324 0.449776,-0.9933 -0.76116,-0.2979 0.172991,-7.9464 7.473214,0.3311 0.0346,-0.5298 0,-0.5298 -7.473214,-0.3311 0.242187,-10.1979 7.231027,-0.4635 0,-0.5298 -0.0346,-0.5297 -7.16183,0.4635 0.242187,-10.92635 6.885045,0.9933 0.0692,-0.52976 0,-0.49665 -6.919643,-1.02641 0.311384,-13.40959 6.573661,0.49665 0.0346,-0.52976 0,-0.52976 -6.57366,-0.52976 0.38058,-15.99217 6.123884,0.6622 0.0692,-0.52976 0,-0.52977 -6.158482,-0.6622 0.103795,-4.86718 -2.179688,0 -0.38058,16.05839 -5.777902,0.16555 -0.380581,-16.22394 -2.248884,0 0.20759,8.67484 -3.321429,0.13244 0.0692,-8.80728 -2.214285,0 -0.103795,12.28384 -3.459822,-0.36421 0.449777,-11.91963 -2.214286,0 -0.172991,4.73474 -5.777902,0.16555 0,-4.90029 -2.214285,0 -0.0346,10.03236 -5.604911,0.16555 -0.345982,-10.19791 -2.214286,0 0.103795,3.21168 -4.393973,0.62909 -0.138393,-3.84077 -2.214286,0 0.207589,6.8869 -5.328125,-0.82775 0.0346,-6.05915 -2.214285,0 -0.0346,13.11159 -3.632812,0 0.38058,-13.11159 -2.214286,0 -0.0692,2.88058 -5.708706,1.39062 0,-4.2712 -2.214286,0 0.0346,12.11829 -3.875,0 0.172991,-12.11829 -2.214286,0 -0.0346,3.07924 -3.425224,2.3177 -0.0692,-5.39694 -2.214286,0 0.103795,6.32403 -3.2868308,0.13244 0.1037946,-6.45647 -2.2142858,0 z m 24.806921,3.97321 -0.449777,15.99217 -5.189733,-0.69531 -0.0346,-13.90623 5.674108,-1.39063 z m 19.686384,0.29799 0.380581,11.38987 -4.428572,0.13244 -0.345982,-10.86011 4.393973,-0.6622 z m -33.525671,0.0993 -0.276785,19.30318 -2.837054,-0.29799 -0.242188,-16.65437 3.356027,-2.35082 z m 49.544645,1.42373 -0.415178,11.32365 -5.397322,-0.56287 0.0346,-10.59523 5.777902,-0.16555 z m -27.92076,1.32441 5.362724,0.86086 0.449776,13.87313 -5.847098,0 0.0346,-14.73399 z m -27.194197,0.26488 0.138393,10.03235 -3.5636167,0.13244 0.1383929,-10.03235 3.2868308,-0.13244 z m 66.151788,2.35081 0.276786,10.99255 -3.702009,0.0993 0.0692,-10.95944 3.356027,-0.13244 z m -19.029019,1.35752 -0.0346,11.22432 -5.189732,-0.49665 -0.345982,-10.56212 5.570312,-0.16555 z m 9.929688,1.88727 3.49442,0.3311 -0.0692,11.75408 -3.840402,-0.62909 0.415178,-11.45609 z m -49.406252,0.19866 3.909599,0 0.0346,16.15773 -4.186384,-0.52977 0.242187,-15.62796 z m 13.666295,0.99331 3.667411,0 0,12.54872 -4.013393,0 0.345982,-12.54872 z m 18.198662,2.54947 0.345982,10.29724 -4.46317,-0.79464 -0.311384,-9.37016 4.428572,-0.13244 z m 34.771207,0.39732 -0.345983,14.23734 -5.085937,-0.36421 -0.311384,-13.70752 5.743304,-0.16555 z m -24.979912,0.49665 5.362723,0.56288 -0.415178,11.22432 -4.982143,-0.0993 0.0346,-11.68786 z m -49.129466,0.86087 0.138393,10.39656 -3.9095988,0.13244 0.1383929,-10.39656 3.6328129,-0.13244 z m 13.597098,1.88727 5.155135,0.69531 -0.311384,11.52231 -4.809152,0.13244 -0.0346,-12.35006 z m 52.658485,1.42374 0.207589,9.37015 -0.0346,0.72842 0.0692,0 0.0692,3.21168 -4.08259,0 0.0692,-13.21092 3.702009,-0.0993 z m -24.495537,1.05952 5.155134,0.52976 -0.0346,12.11829 -4.705357,0 -0.415179,-12.64805 z m -14.773438,0.0662 5.881697,0 0.311384,9.80058 -6.227679,-0.26488 0.0346,-9.5357 z m -24.668528,1.48995 2.767857,0.3311 -0.276785,19.23695 -2.179688,0 -0.311384,-19.56805 z m 54.111609,1.09264 3.875001,0.6622 -0.0692,13.24403 -4.290179,-1.05952 0.484375,-12.84671 z m -21.174108,1.82105 4.46317,0.79464 0.380581,11.42298 -4.428572,0.99331 -0.415179,-13.21093 z m -14.462054,0.46354 4.013393,0 -0.0346,10.36346 -4.324777,1.29129 0.345982,-11.65475 z m -13.5625,2.08594 4.186384,0.49665 0,5.16517 -4.255581,0.0993 0.0692,-5.76116 z m -7.058036,0.0662 0.138393,9.17149 -4.2555809,0.52976 0.1383929,-9.56881 3.978795,-0.13244 z m 48.921877,0.43043 4.947545,0.0993 -0.449777,12.1514 -4.532367,-0.72842 0.0346,-11.52231 z m 19.617188,1.68861 5.016741,0.36421 -0.38058,15.42921 -4.324777,-2.9467 -0.311384,-12.84672 z m -41.760046,1.45685 6.262277,0.26488 0.449777,14.03869 -6.746653,-1.5231 0.0346,-12.78047 z m -8.54576,0.13244 -0.276785,10.33033 -4.46317,0 -0.0346,-10.19789 4.774553,-0.13244 z m 44.043529,2.51636 4.151786,0 0.276786,11.68777 -4.497769,-1.0926 0.0692,-10.59517 z m -20.239956,0.39732 4.670759,0 -0.0346,10.79385 -4.290179,-0.4635 -0.345982,-10.33035 z m -30.792412,0.0331 0.0346,16.45569 -4.566964,0.2649 0.242187,-16.62126 4.290179,-0.0993 z m 13.354911,2.64881 -0.0346,12.61498 -4.601563,-0.7947 0.276786,-10.49588 4.359375,-1.3244 z m 31.138394,0.19866 4.290179,1.05952 -0.0692,11.6879 -4.705357,0.8939 0.484375,-13.64132 z m -55.599332,0.72842 0.311384,19.0714 -4.8783488,0.1324 0.2767857,-18.70715 4.2901791,-0.49665 z m 39.822546,0.43043 0.484375,15.19747 -4.497768,-1.3244 -0.415179,-12.84665 4.428572,-1.02642 z m 8.926339,2.35077 4.497769,0.7616 -0.657367,18.0781 -3.875,-0.5298 0.0346,-18.3099 z m -46.430805,2.086 2.145089,0 -0.415178,28.0442 -1.314732,-0.1324 -0.415179,-27.9118 z m 11.036831,0 4.428571,0 -0.38058,14.1711 -4.013393,0 -0.0346,-14.1711 z m 55.391743,1.192 4.290179,2.8805 -0.138393,5.3638 -3.875,2.7482 -0.276786,-10.9925 z m -42.140627,1.1588 6.815849,1.523 0.345982,10.9926 -7.196429,1.7879 0.0346,-14.3035 z m 35.463171,0.4635 4.532367,1.1258 0.276785,11.7871 -4.878348,-1.8872 0.0692,-11.0257 z m -19.790179,0.1325 4.255581,0.4635 -0.0346,16.6213 -3.702009,-1.0926 -0.518973,-15.9922 z m -22.48884,4.1718 4.601563,0.7947 -0.0346,16.2239 -5.051339,0.1324 0.484375,-17.151 z m 40.030135,1.1589 -0.103794,15.1313 -5.155134,0.3973 0.518973,-14.6347 4.739955,-0.8939 z m -48.679689,0.7947 0.0346,11.2242 -4.739955,-2.0196 0.138393,-8.9397 4.566964,-0.2649 z m 24.703126,1.4899 4.497768,1.3244 0.553572,16.7868 -4.566965,-3.8077 -0.484375,-14.3035 z m 37.020091,0.2318 -0.276786,11.9196 -3.356027,-1.3575 -0.172991,-7.8471 3.805804,-2.715 z m -10.86384,4.2049 4.912947,1.8874 0.276785,11.4229 -5.258928,-0.4304 0.0692,-12.8799 z m -48.610493,0.2318 3.978795,0 -0.345982,12.946 -3.598215,0 -0.0346,-12.946 z m -13.078125,0.033 0.311384,19.5019 -5.5011167,-0.1325 0.2767857,-19.237 4.912947,-0.1324 z m 33.491072,0.6954 0.553572,16.9523 -7.784599,-3.1785 0,-11.9859 7.231027,-1.7879 z m 14.911831,1.3574 3.840402,0.4967 -0.415178,11.1912 -3.425224,-0.9602 0,-10.7277 z m -42.279019,2.1191 4.739955,2.0197 0.0346,10.4297 -4.947545,-0.8277 0.172991,-11.6217 z m 36.397323,0.6291 3.66741,1.1257 -0.0346,13.0454 -3.217634,-0.7284 -0.415178,-13.4427 z m 26.433036,2.4502 3.286831,1.3574 -0.242188,10.496 -2.767857,-0.2649 -0.276786,-11.5885 z m -9.549107,1.9203 -0.0692,12.0521 -5.501116,-1.7879 0.345982,-9.8006 5.224331,-0.4636 z m -35.359377,0.7615 -0.0346,10.4628 -5.293527,-0.5298 0.276786,-9.8005 5.051339,-0.1325 z m 12.005581,1.0927 4.566965,3.8076 0.276785,8.4431 -4.393973,1.7218 -0.449777,-13.9725 z m -33.594867,2.715 1.280134,0.1325 -0.138393,10.2309 -1.003348,-0.033 -0.138393,-10.3304 z m 45.94643,0.1655 3.390625,0.9603 -0.172991,5.0327 -3.217634,0.9601 0,-6.9531 z m -35.29018,0.066 3.563617,0 -0.276786,9.7013 -3.252232,0.1 -0.0346,-9.8006 z m 29.85826,5.397 3.183036,0.6622 0,1.5231 -3.079241,0.9601 -0.103795,-3.1454 z"
       id="path4544" />
    <path
       style="fill:#000000;fill-opacity:0.38356168;fill-rule:nonzero;stroke:none"
       d="m 1,1042.3622 0.045976,2.7457 c 0.03024,1.8058 1.461916,3.2543 3.2852054,3.2543 l 86.3836136,0 c 1.823288,0 3.285205,-1.4481 3.285205,-3.2543 l -0.04598,-2.7457 z"
       id="rect3781"
       inkscape:connector-curvature="0"
       sodipodi:nodetypes="csssscc" />
    <rect
       style="fill:#ffffff;fill-opacity:0.21917808;fill-rule:nonzero;stroke:none"
       id="rect3770"
       width="92.954033"
       height="2.000005"
       x="1.045976"
       y="1040.3622" />
  </g>
</svg>
