<?xml version="1.0" encoding="UTF-8" standalone="no"?>
<!-- Created with Inkscape (http://www.inkscape.org/) -->

<svg
   xmlns:dc="http://purl.org/dc/elements/1.1/"
   xmlns:cc="http://creativecommons.org/ns#"
   xmlns:rdf="http://www.w3.org/1999/02/22-rdf-syntax-ns#"
   xmlns:svg="http://www.w3.org/2000/svg"
   xmlns="http://www.w3.org/2000/svg"
   xmlns:sodipodi="http://sodipodi.sourceforge.net/DTD/sodipodi-0.dtd"
   xmlns:inkscape="http://www.inkscape.org/namespaces/inkscape"
   width="96"
   height="96"
   id="svg2"
   version="1.1"
   inkscape:version="0.48.4 r9939"
   sodipodi:docname="linkedin.svg">
  <defs
     id="defs4" />
  <sodipodi:namedview
     id="base"
     pagecolor="#ffffff"
     bordercolor="#666666"
     borderopacity="1.0"
     inkscape:pageopacity="0.0"
     inkscape:pageshadow="2"
     inkscape:zoom="5.7281285"
     inkscape:cx="23.468619"
     inkscape:cy="50.530276"
     inkscape:document-units="px"
     inkscape:current-layer="layer1"
     showgrid="true"
     inkscape:snap-page="true"
     inkscape:snap-global="true"
     inkscape:snap-center="true"
     inkscape:snap-object-midpoints="false"
     showguides="true"
     inkscape:guide-bbox="true"
     inkscape:snap-bbox="true"
     inkscape:object-paths="true"
     inkscape:object-nodes="true"
     inkscape:window-width="1305"
     inkscape:window-height="744"
     inkscape:window-x="61"
     inkscape:window-y="24"
     inkscape:window-maximized="1"
     inkscape:snap-midpoints="true"
     inkscape:snap-grids="true"
     inkscape:snap-to-guides="false">
    <inkscape:grid
       type="xygrid"
       id="grid3002"
       empspacing="5"
       visible="true"
       enabled="true"
       snapvisiblegridlinesonly="true" />
  </sodipodi:namedview>
  <metadata
     id="metadata7">
    <rdf:RDF>
      <cc:Work
         rdf:about="">
        <dc:format>image/svg+xml</dc:format>
        <dc:type
           rdf:resource="http://purl.org/dc/dcmitype/StillImage" />
        <dc:title />
      </cc:Work>
    </rdf:RDF>
  </metadata>
  <g
     inkscape:label="Layer 1"
     inkscape:groupmode="layer"
     id="layer1"
     transform="translate(0,-956.36218)">
    <rect
       style="fill:#ffffff;fill-opacity:0;fill-rule:nonzero;stroke:none"
       id="rect3775"
       width="96"
       height="96"
       x="0"
       y="956.36218"
       ry="0" />
    <path
       style="fill:#000000;fill-opacity:0.09589041;fill-rule:nonzero;stroke:none"
       d="m 3.353015,956.30662 c -1.884176,0 -3.4111555,1.43156 -3.4111555,3.19799 l 0,83.65949 c 0,1.7665 1.5269795,3.1981 3.4111555,3.1981 l 89.23583,0 c 1.884174,0 3.411155,-1.4316 3.411155,-3.1981 l 0,-83.65949 c 0,-1.76643 -1.526981,-3.19799 -3.411155,-3.19799 z"
       id="rect3772"
       inkscape:connector-curvature="0"
       sodipodi:nodetypes="sssssssss" />
    <path
       style="fill:#000000;fill-opacity:0.18721463;fill-rule:nonzero;stroke:none"
       d="m 1.0459761,1041.8066 0,7.4219 c 0,1.7392 1.461916,3.1337 3.2852054,3.1337 l 86.3836135,0 c 1.823288,0 3.285205,-1.3945 3.285205,-3.1337 l 0,-7.4219 -92.9540239,0 z"
       id="rect3785"
       inkscape:connector-curvature="0" />
    <path
       style="fill:#000000;fill-opacity:0.38356168;fill-rule:nonzero;stroke:none"
       d="m 1.0459761,1041.8066 0,5.3807 c 0,1.762 1.461916,3.1749 3.2852054,3.1749 l 86.3836135,0 c 1.823288,0 3.285205,-1.4129 3.285205,-3.1749 l 0,-5.3807 -92.9540239,0 z"
       id="rect3783"
       inkscape:connector-curvature="0" />
    <rect
       style="fill:#00a3dd;fill-opacity:1;fill-rule:nonzero;stroke:none"
       id="rect2985"
       width="92.954025"
       height="89"
       x="1.045977"
       y="957.36218"
       ry="3.1511393" />
    <path
       style="fill:#000000;fill-opacity:0.38356168;fill-rule:nonzero;stroke:none"
       d="m 1,1042.3622 0.045976,2.7457 c 0.03024,1.8058 1.461916,3.2543 3.2852054,3.2543 l 86.3836136,0 c 1.823288,0 3.285205,-1.4481 3.285205,-3.2543 l -0.04598,-2.7457 z"
       id="rect3781"
       inkscape:connector-curvature="0"
       sodipodi:nodetypes="csssscc" />
    <rect
       style="fill:#ffffff;fill-opacity:0.30000001;fill-rule:nonzero;stroke:none"
       id="rect3770"
       width="92.954033"
       height="2.000005"
       x="1.045976"
       y="1040.3622" />
    <path
       style="font-size:45.83571625px;font-style:normal;font-variant:normal;font-weight:normal;font-stretch:normal;text-align:end;line-height:125%;letter-spacing:0px;word-spacing:0px;text-anchor:end;fill:#000000;fill-opacity:0.4840183;stroke:none;font-family:Andale Mono;-inkscape-font-specification:Andale Mono"
       d="m 19.764473,976.91481 c -3.614847,0 -6.539474,2.92462 -6.539474,6.53947 0,3.61484 2.924627,6.53947 6.539474,6.53947 3.614847,0 6.539475,-2.92463 6.539475,-6.53947 0,-3.61485 -2.924628,-6.53947 -6.539475,-6.53947 z m 30.99381,15.27709 c -1.337859,4e-5 -2.591193,0.1534 -3.791796,0.49458 -1.166337,0.34128 -2.247478,0.76441 -3.24226,1.31888 -0.960513,0.55459 -1.807505,1.25321 -2.527864,1.97827 -0.720388,0.68256 -1.29193,1.30813 -1.703561,2.03331 l -0.109912,0 0,-4.94579 -8.737617,0 0,34.29105 9.012385,0 0,-16.596 c -1.1e-5,-1.8341 0.247789,-3.3791 0.659442,-4.6161 0.41163,-1.2795 0.962525,-2.3095 1.648607,-3.0774 0.720358,-0.8103 1.5467,-1.3073 2.472911,-1.6486 0.960479,-0.3411 1.959019,-0.5495 3.022446,-0.5495 4.04779,0 6.099821,2.3419 6.099845,7.034 l 0,19.4536 9.012385,0 0,-22.8608 c -3.5e-5,-2.5165 -0.365079,-4.57648 -1.154026,-6.15471 -0.789013,-1.62085 -1.7669,-2.84108 -2.967492,-3.73687 -1.166346,-0.93835 -2.495287,-1.58206 -3.901703,-1.92334 -1.372164,-0.34121 -2.6255,-0.49454 -3.791795,-0.49458 z m -35.390094,0.87925 0,34.29105 9.067337,0 0,-34.29105 -9.067337,0 z"
       id="path3770"
       inkscape:connector-curvature="0" />
    <path
       inkscape:connector-curvature="0"
       id="path3768"
       d="m 19.764473,974.49995 c -3.614847,0 -6.539474,2.92462 -6.539474,6.53947 0,3.61484 2.924627,6.53947 6.539474,6.53947 3.614847,0 6.539475,-2.92463 6.539475,-6.53947 0,-3.61485 -2.924628,-6.53947 -6.539475,-6.53947 z m 30.99381,15.27709 c -1.337859,4e-5 -2.591193,0.1534 -3.791796,0.49458 -1.166337,0.34128 -2.247478,0.76441 -3.24226,1.31888 -0.960513,0.55455 -1.807505,1.25321 -2.527864,1.97833 -0.720388,0.68251 -1.29193,1.30807 -1.703561,2.03325 l -0.109912,0 0,-4.94579 -8.737617,0 0,34.29101 9.012385,0 0,-16.596 c -1.1e-5,-1.8341 0.247789,-3.3791 0.659442,-4.6161 0.41163,-1.2795 0.962525,-2.3094 1.648607,-3.0774 0.720358,-0.81027 1.5467,-1.30725 2.472911,-1.64859 0.960479,-0.3411 1.959019,-0.5495 3.022446,-0.5495 4.04779,0 6.099821,2.34189 6.099845,7.03399 l 0,19.4536 9.012385,0 0,-22.8607 c -3.5e-5,-2.51654 -0.365079,-4.57654 -1.154026,-6.15477 -0.789013,-1.62076 -1.7669,-2.84105 -2.967492,-3.73684 -1.166346,-0.93838 -2.495287,-1.58209 -3.901703,-1.92337 -1.372164,-0.34121 -2.6255,-0.49454 -3.791795,-0.49458 z m -35.390094,0.87925 0,34.29101 9.067337,0 0,-34.29101 -9.067337,0 z"
       style="font-size:45.83571625px;font-style:normal;font-variant:normal;font-weight:normal;font-stretch:normal;text-align:end;line-height:125%;letter-spacing:0px;word-spacing:0px;text-anchor:end;fill:#000000;fill-opacity:0.4840183;stroke:none;font-family:Andale Mono;-inkscape-font-specification:Andale Mono" />
    <path
       style="font-size:45.83571625px;font-style:normal;font-variant:normal;font-weight:normal;font-stretch:normal;text-align:end;line-height:125%;letter-spacing:0px;word-spacing:0px;text-anchor:end;fill:#ffffff;fill-opacity:1;stroke:none;font-family:Andale Mono;-inkscape-font-specification:Andale Mono"
       d="m 19.764473,972.08509 c -3.614847,0 -6.539474,2.92462 -6.539474,6.53947 0,3.61484 2.924627,6.53947 6.539474,6.53947 3.614847,0 6.539475,-2.92463 6.539475,-6.53947 0,-3.61485 -2.924628,-6.53947 -6.539475,-6.53947 z m 30.99381,15.27709 c -1.337859,4e-5 -2.591193,0.1534 -3.791796,0.49458 -1.166337,0.34128 -2.247478,0.76441 -3.24226,1.31888 -0.960513,0.55455 -1.807505,1.25321 -2.527864,1.97833 -0.720388,0.68251 -1.29193,1.30807 -1.703561,2.03329 l -0.109912,0 0,-4.94583 -8.737617,0 0,34.29107 9.012385,0 0,-16.596 c -1.1e-5,-1.8341 0.247789,-3.3791 0.659442,-4.6162 0.41163,-1.2795 0.962525,-2.3094 1.648607,-3.07733 0.720358,-0.8103 1.5467,-1.30728 2.472911,-1.64862 0.960479,-0.3411 1.959019,-0.5495 3.022446,-0.5495 4.04779,0 6.099821,2.34193 6.099845,7.03405 l 0,19.4536 9.012385,0 0,-22.86078 c -3.5e-5,-2.51652 -0.365079,-4.57652 -1.154026,-6.15475 -0.789013,-1.62081 -1.7669,-2.84105 -2.967492,-3.73684 -1.166346,-0.93838 -2.495287,-1.58209 -3.901703,-1.92337 -1.372164,-0.34121 -2.6255,-0.49454 -3.791795,-0.49458 z m -35.390094,0.87925 0,34.29107 9.067337,0 0,-34.29107 -9.067337,0 z"
       id="text2992"
       inkscape:connector-curvature="0" />
  </g>
</svg>
