<?xml version="1.0" encoding="UTF-8" standalone="no"?>
<!-- Created with Inkscape (http://www.inkscape.org/) -->

<svg
   xmlns:dc="http://purl.org/dc/elements/1.1/"
   xmlns:cc="http://creativecommons.org/ns#"
   xmlns:rdf="http://www.w3.org/1999/02/22-rdf-syntax-ns#"
   xmlns:svg="http://www.w3.org/2000/svg"
   xmlns="http://www.w3.org/2000/svg"
   xmlns:xlink="http://www.w3.org/1999/xlink"
   xmlns:sodipodi="http://sodipodi.sourceforge.net/DTD/sodipodi-0.dtd"
   xmlns:inkscape="http://www.inkscape.org/namespaces/inkscape"
   width="96"
   height="96"
   id="svg2"
   version="1.1"
   inkscape:version="0.48.4 r9939"
   sodipodi:docname="lubuntu-software-center.svg">
  <defs
     id="defs4">
    <linearGradient
       id="linearGradient3784">
      <stop
         style="stop-color:#008aff;stop-opacity:1;"
         offset="0"
         id="stop3786" />
      <stop
         style="stop-color:#21006f;stop-opacity:1;"
         offset="1"
         id="stop3788" />
    </linearGradient>
    <linearGradient
       id="linearGradient3772">
      <stop
         style="stop-color:#ffffff;stop-opacity:0.74485594;"
         offset="0"
         id="stop3774" />
      <stop
         style="stop-color:#ffffff;stop-opacity:0;"
         offset="1"
         id="stop3776" />
    </linearGradient>
    <linearGradient
       inkscape:collect="always"
       id="linearGradient5429">
      <stop
         style="stop-color:#000000;stop-opacity:1;"
         offset="0"
         id="stop5431" />
      <stop
         style="stop-color:#000000;stop-opacity:0;"
         offset="1"
         id="stop5433" />
    </linearGradient>
    <linearGradient
       inkscape:collect="always"
       xlink:href="#linearGradient5429"
       id="linearGradient5435"
       x1="45"
       y1="21"
       x2="45"
       y2="-4"
       gradientUnits="userSpaceOnUse" />
    <linearGradient
       inkscape:collect="always"
       xlink:href="#linearGradient3772"
       id="linearGradient3778"
       x1="15"
       y1="41"
       x2="15"
       y2="111"
       gradientUnits="userSpaceOnUse" />
    <linearGradient
       inkscape:collect="always"
       xlink:href="#linearGradient3784"
       id="linearGradient3790"
       x1="25"
       y1="-987.36218"
       x2="95"
       y2="-1047.3622"
       gradientUnits="userSpaceOnUse" />
  </defs>
  <sodipodi:namedview
     id="base"
     pagecolor="#ffffff"
     bordercolor="#666666"
     borderopacity="1.0"
     inkscape:pageopacity="0.0"
     inkscape:pageshadow="2"
     inkscape:zoom="4.7139443"
     inkscape:cx="27.366677"
     inkscape:cy="57.340295"
     inkscape:document-units="px"
     inkscape:current-layer="layer1"
     showgrid="true"
     inkscape:snap-page="true"
     inkscape:snap-global="true"
     inkscape:snap-center="true"
     inkscape:snap-object-midpoints="false"
     showguides="true"
     inkscape:guide-bbox="true"
     inkscape:snap-bbox="true"
     inkscape:object-paths="true"
     inkscape:object-nodes="true"
     inkscape:window-width="1305"
     inkscape:window-height="744"
     inkscape:window-x="61"
     inkscape:window-y="24"
     inkscape:window-maximized="1"
     inkscape:snap-midpoints="false"
     inkscape:snap-grids="true"
     inkscape:snap-to-guides="false">
    <inkscape:grid
       type="xygrid"
       id="grid3002"
       empspacing="5"
       visible="true"
       enabled="true"
       snapvisiblegridlinesonly="true" />
  </sodipodi:namedview>
  <metadata
     id="metadata7">
    <rdf:RDF>
      <cc:Work
         rdf:about="">
        <dc:format>image/svg+xml</dc:format>
        <dc:type
           rdf:resource="http://purl.org/dc/dcmitype/StillImage" />
        <dc:title />
      </cc:Work>
    </rdf:RDF>
  </metadata>
  <g
     inkscape:label="Layer 1"
     inkscape:groupmode="layer"
     id="layer1"
     transform="translate(0,-956.36218)">
    <path
       style="fill:#000000;fill-opacity:0.38356168;fill-rule:nonzero;stroke:none"
       d="m 1.0459761,1041.8066 0,5.3807 c 0,1.762 1.461916,3.1749 3.2852054,3.1749 l 86.3836135,0 c 1.823288,0 3.285205,-1.4129 3.285205,-3.1749 l 0,-5.3807 -92.9540239,0 z"
       id="rect3783"
       inkscape:connector-curvature="0" />
    <rect
       style="fill:#ffffff;fill-opacity:0;fill-rule:nonzero;stroke:none"
       id="rect3775"
       width="96"
       height="96"
       x="0"
       y="956.36218"
       ry="0" />
    <path
       style="fill:#000000;fill-opacity:0.09589041;fill-rule:nonzero;stroke:none"
       d="m 3.353015,956.30662 c -1.884176,0 -3.4111555,1.43156 -3.4111555,3.19799 l 0,83.65949 c 0,1.7665 1.5269795,3.1981 3.4111555,3.1981 l 89.23583,0 c 1.884174,0 3.411155,-1.4316 3.411155,-3.1981 l 0,-83.65949 c 0,-1.76643 -1.526981,-3.19799 -3.411155,-3.19799 z"
       id="rect3772"
       inkscape:connector-curvature="0"
       sodipodi:nodetypes="sssssssss" />
    <path
       style="fill:#000000;fill-opacity:0.18721463;fill-rule:nonzero;stroke:none"
       d="m 1.0459761,1041.8066 0,7.4219 c 0,1.7392 1.461916,3.1337 3.2852054,3.1337 l 86.3836135,0 c 1.823288,0 3.285205,-1.3945 3.285205,-3.1337 l 0,-7.4219 -92.9540239,0 z"
       id="rect3785"
       inkscape:connector-curvature="0" />
    <rect
       style="fill:url(#linearGradient3790);fill-opacity:1;fill-rule:nonzero;stroke:none"
       id="rect2985"
       width="92.954025"
       height="89"
       x="1.0459766"
       y="-1046.3622"
       ry="3.1511393"
       transform="scale(1,-1)" />
    <path
       style="fill:url(#linearGradient5435);fill-opacity:1;fill-rule:nonzero;stroke:none"
       d="M 94 4.15625 C 94 3.2833844 93.663318 2.4758184 93.09375 1.90625 C 92.524182 1.3366816 91.716616 1 90.84375 1 L 4.1875 1 C 3.3146344 1 2.5383184 1.3366816 1.96875 1.90625 C 1.3991816 2.4758184 1.03125 3.2833844 1.03125 4.15625 L 1.03125 7.90625 C 1.03125 9.6519811 2.4417689 11.03125 4.1875 11.03125 L 90.84375 11.03125 C 92.589481 11.03125 94 9.6519811 94 7.90625 L 94 4.15625 z "
       id="path5312"
       transform="translate(0,956.36218)" />
    <path
       style="fill:url(#linearGradient3778);fill-opacity:1;fill-rule:evenodd;stroke:none;opacity:0.48559671"
       d="M 1.03125 46 L 1.03125 86.84375 C 1.03125 87.716616 1.3991816 88.524182 1.96875 89.09375 C 2.5383184 89.663318 3.3146344 90 4.1875 90 L 90.84375 90 C 91.716616 90 92.524182 89.663318 93.09375 89.09375 C 93.663318 88.524182 94 87.716616 94 86.84375 L 94 46 L 1.03125 46 z "
       id="rect5319"
       transform="translate(0,956.36218)" />
    <path
       style="font-size:12.5165081px;font-style:normal;font-variant:normal;font-weight:normal;font-stretch:normal;text-align:end;line-height:125%;letter-spacing:0px;word-spacing:0px;text-anchor:end;fill:#ffffff;fill-opacity:1;stroke:none;font-family:Andale Mono;-inkscape-font-specification:Andale Mono"
       d="m 22.9069,1007.3622 c -0.615835,0 -1.048199,0.1148 -1.330875,0.375 -0.272583,0.2601 -0.418276,0.6756 -0.418275,1.1875 l 0,0.7812 -1.178775,0 0,0.8438 1.178775,0 0,5.9062 1.254825,0 0,-5.9062 1.406925,0 0,-0.8438 -1.406925,0 0,-0.7812 c -2e-6,-0.235 0.0969,-0.4077 0.22815,-0.5 0.141336,-0.1007 0.335815,-0.1563 0.6084,-0.1563 l 0.6084,0 0,-0.9062 z m 2.167425,0.375 0,1.9687 -1.178775,0 0,0.8438 1.178775,0 0,4.6562 c -1e-6,0.2182 0.03567,0.3947 0.07605,0.5625 0.05048,0.1679 0.145027,0.32 0.266175,0.4375 0.121146,0.1091 0.282315,0.1913 0.494325,0.25 0.212005,0.05 0.503393,0.062 0.83655,0.062 0.262483,0 0.474797,-0.014 0.646425,-0.031 0.171622,-0.017 0.299481,-0.014 0.38025,-0.031 l 0,-0.875 c -0.07067,0.01 -0.147389,0.023 -0.22815,0.031 -0.08077,0.01 -0.20089,0 -0.342225,0 -0.333159,0 -0.573401,-0.039 -0.68445,-0.1563 -0.111055,-0.1175 -0.152102,-0.3252 -0.1521,-0.5937 l 0,-4.3125 1.406925,0 0,-0.8438 -1.406925,0 0,-1.9687 -1.29285,0 z m -14.867775,1.7812 c -0.3533495,0 -0.6756882,0.049 -0.98865,0.125 -0.3129659,0.076 -0.5942566,0.1843 -0.83655,0.3438 -0.2322002,0.151 -0.4290372,0.3588 -0.570375,0.5937 -0.1312437,0.235 -0.1901255,0.502 -0.190125,0.8125 -5e-7,0.3441 0.041048,0.6256 0.1521,0.8438 0.1211466,0.2182 0.2745779,0.397 0.4563,0.5312 0.1918154,0.1343 0.4041286,0.2286 0.646425,0.3125 0.2422929,0.076 0.4801779,0.1516 0.722475,0.2188 0.2422921,0.067 0.490273,0.1516 0.722475,0.2187 0.242292,0.067 0.4647,0.1493 0.646425,0.25 0.191813,0.092 0.345244,0.1927 0.4563,0.3438 0.121143,0.1426 0.19012,0.3359 0.190125,0.5625 -5e-6,0.2434 -0.05115,0.4511 -0.1521,0.5937 -0.10096,0.1427 -0.228819,0.2286 -0.38025,0.3125 -0.141342,0.084 -0.304869,0.1624 -0.4563,0.1875 -0.151438,0.025 -0.279297,0.031 -0.38025,0.031 -0.312967,0 -0.5585902,-0.041 -0.7605,-0.125 -0.191819,-0.084 -0.3452502,-0.2011 -0.4563,-0.3438 -0.1110537,-0.151 -0.1877693,-0.3153 -0.22815,-0.5 -0.040384,-0.193 -0.076052,-0.3923 -0.07605,-0.5937 l -1.254825,0 c -4e-7,0.1762 0.00774,0.3877 0.038025,0.6562 0.030286,0.2686 0.1325739,0.5524 0.3042,0.8125 0.1817202,0.2518 0.4630109,0.4717 0.83655,0.6563 0.3836316,0.1846 0.9105454,0.25 1.59705,0.25 0.373534,0 0.741636,-0.033 1.0647,-0.125 0.323056,-0.084 0.566321,-0.1988 0.798525,-0.375 0.232193,-0.1763 0.439126,-0.3961 0.570375,-0.6563 0.131237,-0.2685 0.190119,-0.585 0.190125,-0.9375 -6e-6,-0.3357 -0.06898,-0.6027 -0.190125,-0.8125 -0.111057,-0.2182 -0.264489,-0.3969 -0.4563,-0.5312 -0.181727,-0.1427 -0.36611,-0.2682 -0.6084,-0.3438 -0.232203,-0.084 -0.480185,-0.1516 -0.722475,-0.2187 -0.252394,-0.067 -0.518208,-0.1288 -0.7605,-0.1875 -0.2322021,-0.059 -0.4165858,-0.1348 -0.6084,-0.2188 -0.1817234,-0.092 -0.3351547,-0.1866 -0.4563,-0.3125 -0.1110537,-0.1258 -0.1901268,-0.2986 -0.190125,-0.5 -1.8e-6,-0.2349 0.051142,-0.4282 0.1521,-0.5625 0.1009541,-0.1426 0.2109797,-0.2453 0.342225,-0.3125 0.1413362,-0.067 0.3048632,-0.1082 0.4563,-0.125 0.1514314,-0.025 0.279291,-0.031 0.38025,-0.031 0.464395,0 0.789091,0.1172 0.950625,0.3437 0.171621,0.2266 0.228145,0.5408 0.22815,0.9688 l 1.29285,0 c -6e-6,-0.2014 -0.03567,-0.4129 -0.07605,-0.6563 -0.03029,-0.2517 -0.104651,-0.5005 -0.266175,-0.7187 -0.161535,-0.2182 -0.42735,-0.3802 -0.7605,-0.5313 -0.33316,-0.151 -0.783358,-0.25 -1.3689,-0.25 z m 6.3882,0 c -0.585548,0 -1.061319,0.1195 -1.44495,0.3125 -0.373539,0.1931 -0.690497,0.454 -0.9126,0.7813 -0.212009,0.3189 -0.36544,0.6657 -0.4563,1.0937 -0.08077,0.428 -0.114075,0.8967 -0.114075,1.375 0,0.4784 0.03331,0.9158 0.114075,1.3438 0.09086,0.428 0.244291,0.8289 0.4563,1.1562 0.222103,0.3189 0.539061,0.557 0.9126,0.75 0.383631,0.193 0.859402,0.2813 1.44495,0.2813 0.585542,0 1.071408,-0.088 1.44495,-0.2813 0.373533,-0.193 0.652466,-0.4311 0.874575,-0.75 0.222098,-0.3273 0.375529,-0.7282 0.4563,-1.1562 0.09086,-0.428 0.152094,-0.8654 0.1521,-1.3438 -6e-6,-0.4783 -0.06124,-0.947 -0.1521,-1.375 -0.08077,-0.428 -0.234202,-0.7748 -0.4563,-1.0937 -0.212014,-0.3273 -0.490947,-0.5882 -0.874575,-0.7813 -0.373542,-0.193 -0.859408,-0.3125 -1.44495,-0.3125 z m 24.41205,0 c -0.969182,0 -1.66736,0.2017 -2.091375,0.5625 -0.424017,0.3525 -0.646426,0.8926 -0.646425,1.6563 l 1.29285,0 0,-0.062 c -2e-6,-0.059 -0.0101,-0.1386 0,-0.2813 0.02019,-0.151 0.07133,-0.3177 0.1521,-0.4687 0.09086,-0.1511 0.236552,-0.2659 0.418275,-0.375 0.191814,-0.1175 0.445175,-0.1875 0.798525,-0.1875 0.86822,0 1.292845,0.337 1.29285,1 -5e-6,0.1427 0.01009,0.243 0,0.3437 -0.0101,0.1007 -0.05351,0.2058 -0.114075,0.2813 -0.05048,0.075 -0.134936,0.1516 -0.266175,0.2187 -0.121152,0.059 -0.300154,0.097 -0.53235,0.1563 l -1.711125,0.4375 c -0.524974,0.1343 -0.926385,0.3686 -1.178775,0.6875 -0.242295,0.3105 -0.342225,0.7091 -0.342225,1.1875 0,0.6042 0.179002,1.085 0.53235,1.4375 0.363441,0.3524 0.915927,0.5 1.6731,0.5 0.38363,0 0.749375,-0.082 1.102725,-0.25 0.363439,-0.1763 0.634633,-0.4167 0.83655,-0.7188 l 0.03803,0 c 0.01009,0.2182 0.0434,0.4138 0.114075,0.5313 0.08076,0.1175 0.193143,0.1912 0.3042,0.25 0.121142,0.05 0.259097,0.085 0.38025,0.094 0.131238,0.01 0.221072,0 0.342225,0 0.161524,0 0.314955,-0.014 0.4563,-0.031 0.141333,-0.017 0.253715,-0.023 0.3042,-0.031 l 0,-0.75 c -0.03029,0.017 -0.0636,0.046 -0.114075,0.062 -0.04039,0.01 -0.109366,0 -0.190125,0 -0.201918,0 -0.311944,-0.047 -0.342225,-0.1562 -0.03029,-0.1091 -0.03803,-0.2324 -0.03802,-0.375 l 0,-3.7813 c -6e-6,-0.1762 -0.04577,-0.3755 -0.07605,-0.5937 -0.0202,-0.2266 -0.104651,-0.4236 -0.266175,-0.625 -0.151439,-0.2014 -0.389325,-0.3657 -0.722475,-0.5 -0.33316,-0.1343 -0.791096,-0.2188 -1.406925,-0.2188 z m 7.22475,0 c -0.232203,0 -0.426682,0.058 -0.6084,0.125 -0.171628,0.059 -0.314964,0.1409 -0.4563,0.25 -0.141341,0.1091 -0.269201,0.2324 -0.38025,0.375 -0.100959,0.1427 -0.213342,0.2781 -0.3042,0.4375 l -0.03802,0 0,-1 -1.254825,0 0,6.75 1.254825,0 0,-4.2812 c -2e-6,-0.277 0.07907,-0.5174 0.190125,-0.7188 0.121145,-0.2014 0.256742,-0.3428 0.418275,-0.4687 0.171622,-0.1343 0.34053,-0.2538 0.53235,-0.3125 0.191814,-0.067 0.370816,-0.094 0.53235,-0.094 0.201908,0 0.365435,0.014 0.4563,0.031 0.100952,0.01 0.167572,0.023 0.22815,0.031 l 0,-1.0312 c -0.121152,-0.05 -0.317989,-0.094 -0.570375,-0.094 z m 4.068675,0 c -0.625932,0 -1.137369,0.1172 -1.521,0.3438 -0.373539,0.2182 -0.662568,0.5225 -0.874575,0.875 -0.201913,0.3441 -0.347607,0.7198 -0.418275,1.1562 -0.06058,0.428 -0.07605,0.8617 -0.07605,1.2813 0,1.1665 0.212312,2.0231 0.646425,2.5937 0.444205,0.5707 1.167956,0.8438 2.167425,0.8438 0.555255,0 1.015549,-0.074 1.3689,-0.25 0.353342,-0.1846 0.634632,-0.4045 0.83655,-0.6563 0.201906,-0.2601 0.309575,-0.5127 0.38025,-0.7812 0.08076,-0.277 0.152094,-0.5113 0.1521,-0.6875 l -1.29285,0 c -5e-6,0.1259 -0.0077,0.2841 -0.03802,0.4687 -0.03029,0.1763 -0.08917,0.3322 -0.190125,0.5 -0.09087,0.1595 -0.236558,0.32 -0.418275,0.4375 -0.181725,0.1091 -0.41961,0.1563 -0.722475,0.1563 -0.393732,0 -0.700595,-0.082 -0.9126,-0.25 -0.201915,-0.1763 -0.355346,-0.3961 -0.4563,-0.6563 -0.100958,-0.2601 -0.169936,-0.5416 -0.190125,-0.8437 -0.0101,-0.3021 -2e-6,-0.5836 0,-0.8438 l 4.2588,0 0,-0.4375 c -6e-6,-0.3608 -0.02558,-0.7389 -0.07605,-1.125 -0.05048,-0.386 -0.160509,-0.7207 -0.342225,-1.0312 -0.181727,-0.3189 -0.435088,-0.5799 -0.798525,-0.7813 -0.363447,-0.2014 -0.867146,-0.3125 -1.48298,-0.3125 z m -24.336,0.1875 1.90125,6.75 1.482975,0 1.3689,-5.5312 0.03802,0 1.406925,5.5312 1.406925,0 1.90125,-6.75 -1.330875,0 -1.254825,5.5 -0.03802,0 -1.330875,-5.5 -1.521,0 -1.3689,5.5 -0.03803,0 -1.29285,-5.5 z m -11.4075,0.6563 c 0.343247,0 0.624538,0.068 0.83655,0.2187 0.212003,0.1427 0.383269,0.342 0.494325,0.5938 0.121142,0.2434 0.187763,0.5393 0.22815,0.875 0.04038,0.3273 0.07605,0.6704 0.07605,1.0312 -5e-6,0.3693 -0.03567,0.704 -0.07605,1.0313 -0.04039,0.3273 -0.107008,0.6232 -0.22815,0.875 -0.121152,0.2434 -0.282322,0.4427 -0.494325,0.5937 -0.212012,0.1427 -0.503399,0.2188 -0.83655,0.2188 -0.323063,0 -0.58652,-0.076 -0.798525,-0.2188 -0.201915,-0.151 -0.34525,-0.3503 -0.4563,-0.5937 -0.111054,-0.2518 -0.187769,-0.5477 -0.22815,-0.875 -0.04038,-0.3273 -0.07605,-0.662 -0.07605,-1.0313 -10e-7,-0.3608 0.03567,-0.7039 0.07605,-1.0312 0.04038,-0.3357 0.117096,-0.6316 0.22815,-0.875 0.121146,-0.2518 0.29241,-0.4511 0.494325,-0.5938 0.20191,-0.151 0.437437,-0.2187 0.7605,-0.2187 z m 35.705475,0 c 0.282674,0 0.502725,0.055 0.68445,0.1562 0.181717,0.1007 0.35534,0.2156 0.4563,0.375 0.111048,0.1595 0.187763,0.3611 0.22815,0.5625 0.04038,0.1931 0.03802,0.3779 0.03802,0.5625 l 0,0.3438 -2.8899,0 0,-0.25 c -2e-6,-0.1007 0.0077,-0.2445 0.03803,-0.4375 0.03028,-0.2014 0.08917,-0.4007 0.190125,-0.5938 0.100954,-0.193 0.264481,-0.3573 0.4563,-0.5 0.20191,-0.151 0.465366,-0.2187 0.798525,-0.2187 z m -10.076625,2.4062 0,1.75 c -5e-6,0.1763 -0.02322,0.3406 -0.114075,0.5 -0.09087,0.1511 -0.22882,0.2888 -0.38025,0.4063 -0.151438,0.1175 -0.330442,0.2141 -0.53235,0.2812 -0.19182,0.067 -0.396396,0.094 -0.6084,0.094 -0.434114,0 -0.740976,-0.1027 -0.9126,-0.3125 -0.161531,-0.2098 -0.228151,-0.4913 -0.22815,-0.8438 -1e-6,-0.2937 0.05114,-0.5364 0.1521,-0.6875 0.11105,-0.1594 0.254385,-0.2659 0.4563,-0.375 0.141336,-0.076 0.302505,-0.1371 0.494325,-0.1875 0.20191,-0.059 0.406484,-0.1371 0.6084,-0.1875 0.212004,-0.059 0.426675,-0.1203 0.6084,-0.1875 0.191813,-0.067 0.335148,-0.1493 0.4563,-0.25 z m -13.727025,6.7188 0,1.9375 -1.178775,0 0,0.8437 1.178775,0 0,4.6563 c 0,0.2182 0.03567,0.4259 0.07605,0.5937 0.05048,0.1679 0.145027,0.2888 0.266175,0.4063 0.121146,0.1091 0.282315,0.1912 0.494325,0.25 0.212005,0.05 0.465368,0.094 0.798525,0.094 0.262483,0 0.474797,-0.014 0.646425,-0.031 0.171622,-0.017 0.299481,-0.046 0.38025,-0.062 l 0,-0.8438 c -0.07067,0.01 -0.147389,-0.01 -0.22815,0 -0.08077,0.01 -0.162865,0.031 -0.3042,0.031 -0.333159,0 -0.573401,-0.07 -0.68445,-0.1875 -0.111055,-0.1175 -0.1521,-0.294 -0.1521,-0.5625 l 0,-4.3438 1.406925,0 0,-0.8437 -1.406925,0 0,-1.9375 -1.29285,0 z m -17.985825,1.7812 c -0.6259312,0 -1.1373688,0.1172 -1.521,0.3438 -0.3735393,0.2182 -0.6625682,0.4913 -0.874575,0.8437 -0.2019131,0.3441 -0.3476063,0.7511 -0.418275,1.1875 -0.060574,0.428 -0.076051,0.8304 -0.07605,1.25 -5e-7,1.1665 0.2123126,2.0544 0.646425,2.625 0.4442056,0.5707 1.1679564,0.8438 2.167425,0.8438 0.504777,0 0.911569,-0.091 1.254825,-0.25 0.343246,-0.1679 0.634633,-0.3504 0.83655,-0.5938 0.212002,-0.2517 0.337504,-0.55 0.418275,-0.8437 0.09085,-0.2937 0.152094,-0.5752 0.1521,-0.8438 l -1.29285,0 c -5e-6,0.1847 0.0024,0.3924 -0.03802,0.5938 -0.03029,0.193 -0.08917,0.3634 -0.190125,0.5312 -0.10096,0.1595 -0.246654,0.2972 -0.418275,0.4063 -0.17163,0.1091 -0.411872,0.1562 -0.68445,0.1562 -0.383636,0 -0.6625696,-0.088 -0.874575,-0.2812 -0.2019147,-0.193 -0.3553459,-0.4106 -0.4563,-0.6875 -0.1009581,-0.277 -0.1699356,-0.5729 -0.190125,-0.875 -0.010098,-0.3021 -1.8e-6,-0.5631 0,-0.7813 -1.8e-6,-0.6126 0.023212,-1.0995 0.114075,-1.4687 0.090859,-0.3693 0.2288135,-0.6507 0.38025,-0.8438 0.1514319,-0.2014 0.3126013,-0.3475 0.494325,-0.4062 0.191814,-0.059 0.368459,-0.094 0.570375,-0.094 0.242292,0 0.446866,0.041 0.6084,0.125 0.171621,0.084 0.32741,0.2095 0.418275,0.3438 0.100952,0.1343 0.149738,0.2696 0.190125,0.4375 0.05047,0.1678 0.07605,0.3405 0.07605,0.5 l 1.29285,0 c -6e-6,-0.193 -0.05351,-0.4045 -0.114075,-0.6563 -0.06058,-0.2601 -0.188439,-0.5234 -0.38025,-0.75 -0.181727,-0.2349 -0.417254,-0.4343 -0.7605,-0.5937 -0.33316,-0.1595 -0.77562,-0.2188 -1.330875,-0.2188 z m 6.502275,0 c -0.625932,0 -1.137369,0.1172 -1.521,0.3438 -0.373539,0.2182 -0.662568,0.4913 -0.874575,0.8437 -0.201913,0.3441 -0.309582,0.7511 -0.38025,1.1875 -0.06058,0.428 -0.114075,0.8304 -0.114075,1.25 0,1.1665 0.212312,2.0544 0.646425,2.625 0.444205,0.5707 1.167956,0.8438 2.167425,0.8438 0.555255,0 1.015549,-0.074 1.3689,-0.25 0.353342,-0.1846 0.634632,-0.4045 0.83655,-0.6563 0.201906,-0.2601 0.3476,-0.5439 0.418275,-0.8125 0.08076,-0.2769 0.114069,-0.5112 0.114075,-0.6875 l -1.29285,0 c -5e-6,0.1259 -0.0077,0.2842 -0.03803,0.4688 -0.03029,0.1762 -0.08917,0.3634 -0.190125,0.5312 -0.09086,0.1595 -0.236558,0.2888 -0.418275,0.4063 -0.181725,0.1091 -0.41961,0.1562 -0.722475,0.1562 -0.393732,0 -0.700595,-0.082 -0.9126,-0.25 -0.201915,-0.1762 -0.355346,-0.3961 -0.4563,-0.6562 -0.100958,-0.2602 -0.131911,-0.5417 -0.1521,-0.8438 -0.0101,-0.3021 -0.03803,-0.5836 -0.03803,-0.8437 l 4.2588,0 0,-0.4063 c -6e-6,-0.3608 -0.02558,-0.7389 -0.07605,-1.125 -0.05048,-0.386 -0.160509,-0.752 -0.342225,-1.0625 -0.181727,-0.3189 -0.435088,-0.5798 -0.798525,-0.7812 -0.363447,-0.2014 -0.867146,-0.2813 -1.482965,-0.2813 z m 7.3008,0 c -0.393733,0 -0.767216,0.082 -1.14075,0.25 -0.373541,0.1679 -0.626901,0.4083 -0.798525,0.7188 l -0.03803,0 0,-0.8125 -1.2168,0 0,6.75 1.254825,0 0,-4.6563 c 0,-0.2433 0.05114,-0.4259 0.1521,-0.5937 0.100954,-0.1762 0.256742,-0.3284 0.418275,-0.4375 0.161527,-0.1091 0.312601,-0.1997 0.494325,-0.25 0.191814,-0.05 0.398745,-0.062 0.570375,-0.062 0.282674,0 0.484891,0.033 0.646425,0.125 0.161525,0.092 0.29948,0.2323 0.38025,0.375 0.08076,0.1343 0.103974,0.278 0.114075,0.4375 0.02019,0.1594 0.03802,0.2804 0.03803,0.4062 l 0,4.6563 1.254825,0 0,-4.7813 c -6e-6,-0.2014 0.02018,-0.4128 0,-0.6562 -0.0202,-0.2518 -0.124842,-0.5006 -0.266175,-0.7188 -0.131249,-0.2182 -0.315633,-0.3885 -0.6084,-0.5312 -0.282682,-0.1511 -0.719762,-0.2188 -1.254825,-0.2188 z m 10.380825,0 c -0.625932,0 -1.137369,0.1172 -1.521,0.3438 -0.373539,0.2182 -0.662568,0.4913 -0.874575,0.8437 -0.201913,0.3441 -0.347607,0.7511 -0.418275,1.1875 -0.06058,0.428 -0.114075,0.8304 -0.114075,1.25 0,1.1665 0.250337,2.0544 0.68445,2.625 0.444205,0.5707 1.167956,0.8438 2.167425,0.8438 0.555255,0 0.977524,-0.074 1.330875,-0.25 0.353342,-0.1846 0.634632,-0.4045 0.83655,-0.6563 0.201906,-0.2601 0.3476,-0.5439 0.418275,-0.8125 0.08076,-0.2769 0.114069,-0.5112 0.114075,-0.6875 l -1.254825,0 c -5e-6,0.1259 -0.0077,0.2842 -0.03803,0.4688 -0.03029,0.1762 -0.127198,0.3634 -0.22815,0.5312 -0.09087,0.1595 -0.198533,0.2888 -0.38025,0.4063 -0.181725,0.1091 -0.41961,0.1562 -0.722475,0.1562 -0.393732,0 -0.700595,-0.082 -0.9126,-0.25 -0.201915,-0.1762 -0.355346,-0.3961 -0.4563,-0.6562 -0.100958,-0.2602 -0.169936,-0.5417 -0.190125,-0.8438 -0.0101,-0.3021 -2e-6,-0.5836 0,-0.8437 l 4.2588,0 0,-0.4063 c -6e-6,-0.3608 -0.02558,-0.7389 -0.07605,-1.125 -0.05048,-0.386 -0.160509,-0.752 -0.342225,-1.0625 -0.181727,-0.3189 -0.473113,-0.5798 -0.83655,-0.7812 -0.363447,-0.2014 -0.829121,-0.2813 -1.444945,-0.2813 z m 7.1487,0 c -0.232203,0 -0.464707,0.027 -0.646425,0.094 -0.171628,0.059 -0.314964,0.1409 -0.4563,0.25 -0.141341,0.1091 -0.269201,0.2323 -0.38025,0.375 -0.100959,0.1427 -0.213342,0.3093 -0.3042,0.4687 l 0,-1.0312 -1.29285,0 0,6.75 1.29285,0 0,-4.25 c 0,-0.277 0.04105,-0.5174 0.1521,-0.7188 0.121145,-0.2014 0.256742,-0.3741 0.418275,-0.5 0.171622,-0.1342 0.378555,-0.2225 0.570375,-0.2812 0.191814,-0.067 0.332791,-0.094 0.494325,-0.094 0.201908,0 0.365435,-0.017 0.4563,0 0.100952,0.01 0.167572,0.023 0.22815,0.031 l 0,-1.0313 c -0.121152,-0.05 -0.279964,-0.062 -0.53235,-0.062 z m -24.86835,0.8125 c 0.282674,0 0.54075,0.056 0.722475,0.1563 0.181717,0.1007 0.317315,0.2468 0.418275,0.4062 0.111048,0.1595 0.187763,0.3299 0.22815,0.5313 0.04038,0.193 0.03802,0.3779 0.03803,0.5625 l 0,0.375 -2.8899,0 0,-0.25 c -2e-6,-0.1007 0.04576,-0.2445 0.07605,-0.4375 0.03029,-0.2014 0.08917,-0.4007 0.190125,-0.5938 0.100954,-0.193 0.226456,-0.3573 0.418275,-0.5 0.20191,-0.151 0.465366,-0.25 0.79852,-0.25 z m 17.681625,0 c 0.282674,0 0.502725,0.056 0.68445,0.1563 0.181717,0.1007 0.317315,0.2468 0.418275,0.4062 0.111048,0.1595 0.187763,0.3299 0.22815,0.5313 0.04038,0.193 0.07605,0.3779 0.07605,0.5625 l 0,0.375 -2.8899,0 0,-0.25 c -2e-6,-0.1007 0.0077,-0.2445 0.03803,-0.4375 0.03028,-0.2014 0.08917,-0.4007 0.190125,-0.5938 0.100954,-0.193 0.264481,-0.3573 0.4563,-0.5 0.20191,-0.151 0.465366,-0.25 0.79852,-0.25 z"
       id="text3780"
       inkscape:connector-curvature="0"
       sodipodi:nodetypes="scsccccccccccscsccscccccscccsscccscsccccccccsccscccccccccccsccccccccscccccccccccccccsccccccccscccscccscccccccsccccccccscccccccscsccccccsscccscccccsccccccccccccscccscccccscccscsccccccccscccccccccscccccccccccccccccscccccccsccsscccsscccsccccccscccccscsccccccccccccscccsscccscscccccccccccscsccccccccscccccccsccccccccccscccscsccccccccscccccccccsccccccccscccsccccccccccccscccscsccccccccscccccccccscccccccccscccscccccsccccccccccsscccsccccccs" />
    <path
       style="font-size:medium;font-style:normal;font-variant:normal;font-weight:normal;font-stretch:normal;text-indent:0;text-align:start;text-decoration:none;line-height:normal;letter-spacing:normal;word-spacing:normal;text-transform:none;direction:ltr;block-progression:tb;writing-mode:lr-tb;text-anchor:start;baseline-shift:baseline;color:#000000;fill:#000000;fill-opacity:0.26027396;stroke:none;stroke-width:4.50000000000000000;marker:none;visibility:visible;display:inline;overflow:visible;enable-background:accumulate;font-family:Sans;-inkscape-font-specification:Sans"
       d="M 29.71875,975.09375 A 2.250225,2.250225 0 0 0 27.9375,978.25 c 4.413607,10.16155 3.902887,19.04016 5.09375,25.5312 0.595431,3.2456 1.88892,6.354 4.9375,7.75 3.04858,1.3961 6.901685,1.034 12.5625,-0.5624 6.482894,-1.8283 10.662927,-4.0095 13.3125,-6.75 2.649573,-2.7406 3.526056,-6.05763 3.5625,-9.12505 0.07289,-6.13483 -2.212762,-11.71321 -0.28125,-16.96875 a 2.2587179,2.2587179 0 1 0 -4.25,-1.53125 c -2.627958,7.15054 0.08724,13.75651 0.03125,18.46875 -0.02799,2.35612 -0.497154,4.15359 -2.3125,6.0313 -1.815346,1.8776 -5.226658,3.8237 -11.28125,5.5312 -5.258884,1.4831 -8.180428,1.4025 -9.46875,0.8125 -1.288322,-0.59 -1.876287,-1.7504 -2.375,-4.4687 -0.997427,-5.43677 -0.562355,-15.34783 -5.40625,-26.50005 a 2.250225,2.250225 0 0 0 -2.34375,-1.375 z"
       id="path5414"
       inkscape:connector-curvature="0" />
    <path
       style="fill:#ffffff;fill-opacity:0.54794521;fill-rule:nonzero;stroke:none"
       d="m 1,964.36218 0,2 c 0,1.74573 1.4105189,3.125 3.15625,3.125 l 86.6875,0 c 1.745731,0 3.15625,-1.37927 3.15625,-3.125 l 0,-2 c 0,1.74573 -1.410519,3.125 -3.15625,3.125 l -86.6875,0 C 2.4105189,967.48718 1,966.10791 1,964.36218 z"
       id="path5314"
       inkscape:connector-curvature="0"
       sodipodi:nodetypes="csssscssc" />
    <path
       style="fill:#000000;fill-opacity:0.61643833;fill-rule:nonzero;stroke:none"
       d="M 91 1 L 91 11 C 92.669109 10.916667 94 9.5968869 94 7.90625 L 94 4.15625 C 94 3.2833844 93.663318 2.4758184 93.09375 1.90625 C 92.559428 1.3719272 91.81065 1.0387172 91 1 z M 4 1.03125 C 3.2070896 1.0777008 2.4953188 1.3796812 1.96875 1.90625 C 1.3991816 2.4758184 1.03125 3.2833844 1.03125 4.15625 L 1.03125 7.90625 C 1.03125 9.5860841 2.3459919 10.901191 4 11 L 4 1.03125 z "
       transform="translate(0,956.36218)"
       id="path5331" />
    <path
       style="fill:#fff0b6;fill-opacity:0.68949771;fill-rule:evenodd;stroke:none"
       d="M 30 16 C 27.238576 16 25 18.238576 25 21 C 25 23.761424 27.238576 26 30 26 C 32.761424 26 35 23.761424 35 21 C 35 18.238576 32.761424 16 30 16 z M 65 16 C 62.238576 16 60 18.238576 60 21 C 60 23.761424 62.238576 26 65 26 C 67.761424 26 70 23.761424 70 21 C 70 18.238576 67.761424 16 65 16 z "
       transform="translate(0,956.36218)"
       id="path5334" />
    <path
       style="fill:#000000;fill-opacity:1;fill-rule:evenodd;stroke:none"
       d="M 30 18 C 28.343146 18 27 19.343146 27 21 C 27 22.656854 28.343146 24 30 24 C 31.656854 24 33 22.656854 33 21 C 33 19.343146 31.656854 18 30 18 z M 65 18 C 63.343146 18 62 19.343146 62 21 C 62 22.656854 63.343146 24 65 24 C 66.656854 24 68 22.656854 68 21 C 68 19.343146 66.656854 18 65 18 z "
       transform="translate(0,956.36218)"
       id="path5338" />
    <path
       style="fill:none;stroke:#000000;stroke-width:6;stroke-linecap:round;stroke-linejoin:miter;stroke-miterlimit:4;stroke-opacity:1;stroke-dasharray:none"
       d="m 30,977.36218 c 9.257502,13.12345 -1.914369,23.14642 19.925028,19.35411 C 75,992.36218 60.44053,985.00093 65,977.36218"
       id="path5344"
       inkscape:connector-curvature="0"
       sodipodi:nodetypes="csc" />
    <path
       style="fill:#000000;fill-opacity:0.38356168;fill-rule:nonzero;stroke:none"
       d="m 1,1042.3622 0.04598,2.7457 c 0.03024,1.8058 1.461916,3.2543 3.285205,3.2543 l 86.383615,0 c 1.82328,0 3.2852,-1.4481 3.2852,-3.2543 l -0.046,-2.7457 z"
       id="rect3781"
       inkscape:connector-curvature="0"
       sodipodi:nodetypes="csssscc" />
    <rect
       style="fill:#ffffff;fill-opacity:0.30000001;fill-rule:nonzero;stroke:none"
       id="rect3770"
       width="92.954033"
       height="2.000005"
       x="1.045976"
       y="1040.3622" />
    <path
       inkscape:connector-curvature="0"
       style="color:#000000;fill:#ffffff;fill-opacity:1;fill-rule:evenodd;stroke:none;stroke-width:1.41732287000000001;marker:none;visibility:visible;display:inline;overflow:visible;enable-background:accumulate"
       d="m 74.816115,1008.5867 c -7.444214,0 -13.495453,5.8957 -13.781092,13.2699 4.577409,-3.2305 12.363288,-8.5308 14.294227,-8.671 0.640735,-0.8117 2.842993,-1.4677 3.241681,-1.4533 l -1.155868,1.4533 c 0,0 -0.0193,1.4664 -0.446583,1.7515 3.987936,2.665 5.893199,12.2315 6.707531,18.0384 l -0.343257,0.2751 c 3.217473,-2.5283 5.292472,-6.4456 5.292472,-10.8546 0,-7.6265 -6.182743,-13.8093 -13.809111,-13.8093 z m -0.196148,11.3449 c -1.072752,0.034 -3.252718,3.238 -5.739056,6.6709 -1.194799,1.6499 -2.743295,3.907 -3.880911,5.471 l -0.819616,-0.8948 c 2.339241,-3.8303 5.251158,-8.504 5.110333,-8.6762 -0.03016,-0.014 -0.06938,-0.043 -0.112085,-0.034 -0.792366,0.1205 -3.973197,4.0843 -6.248687,6.9335 2.402567,4.0678 6.819617,6.8056 11.886167,6.8056 3.075574,0 5.9063,-1.0177 8.201403,-2.7179 -1.699735,-5.1944 -4.982654,-13.4988 -8.285467,-13.5184 -0.03213,-0.014 -0.07747,-0.034 -0.112085,-0.034 z m -8.012261,1.3413 c -0.981177,-0.014 -3.489349,0.8802 -5.572683,1.6832 0.08287,2.059 0.610741,3.9996 1.499126,5.7303 0.4189,-0.6327 1.143351,-1.6719 1.576183,-2.308 1.655473,-2.4329 3.283865,-4.5861 2.907181,-5.0297 -0.06725,-0.076 -0.216755,-0.076 -0.409807,-0.077 z m -5.588442,0.8723 c -0.0015,0.083 -0.01219,0.1662 -0.01219,0.2508 0,0.1157 0.01469,0.228 0.01751,0.3432 l -0.005,-0.594 z m 1.541154,6.5974 c 0.08641,0.1665 0.176814,0.3296 0.269704,0.4922 l -0.269704,-0.4922 z"
       id="path3910-7" />
  </g>
</svg>
