<?xml version="1.0" encoding="UTF-8" standalone="no"?>
<!-- Created with Inkscape (http://www.inkscape.org/) -->

<svg
   xmlns:dc="http://purl.org/dc/elements/1.1/"
   xmlns:cc="http://creativecommons.org/ns#"
   xmlns:rdf="http://www.w3.org/1999/02/22-rdf-syntax-ns#"
   xmlns:svg="http://www.w3.org/2000/svg"
   xmlns="http://www.w3.org/2000/svg"
   xmlns:sodipodi="http://sodipodi.sourceforge.net/DTD/sodipodi-0.dtd"
   xmlns:inkscape="http://www.inkscape.org/namespaces/inkscape"
   width="96"
   height="96"
   id="svg2"
   version="1.1"
   inkscape:version="0.48.4 r9939"
   sodipodi:docname="makehuman.svg">
  <defs
     id="defs4" />
  <sodipodi:namedview
     id="base"
     pagecolor="#ffffff"
     bordercolor="#666666"
     borderopacity="1.0"
     inkscape:pageopacity="0.0"
     inkscape:pageshadow="2"
     inkscape:zoom="5.90625"
     inkscape:cx="36.438973"
     inkscape:cy="48"
     inkscape:document-units="px"
     inkscape:current-layer="layer1"
     showgrid="true"
     inkscape:snap-page="true"
     inkscape:snap-global="true"
     inkscape:snap-center="true"
     inkscape:snap-object-midpoints="false"
     showguides="true"
     inkscape:guide-bbox="true"
     inkscape:snap-bbox="true"
     inkscape:object-paths="true"
     inkscape:object-nodes="true"
     inkscape:window-width="1305"
     inkscape:window-height="744"
     inkscape:window-x="61"
     inkscape:window-y="24"
     inkscape:window-maximized="1"
     inkscape:snap-midpoints="false"
     inkscape:snap-grids="true"
     inkscape:snap-to-guides="false">
    <inkscape:grid
       type="xygrid"
       id="grid3002"
       empspacing="5"
       visible="true"
       enabled="true"
       snapvisiblegridlinesonly="true" />
  </sodipodi:namedview>
  <metadata
     id="metadata7">
    <rdf:RDF>
      <cc:Work
         rdf:about="">
        <dc:format>image/svg+xml</dc:format>
        <dc:type
           rdf:resource="http://purl.org/dc/dcmitype/StillImage" />
        <dc:title />
      </cc:Work>
    </rdf:RDF>
  </metadata>
  <g
     inkscape:label="Layer 1"
     inkscape:groupmode="layer"
     id="layer1"
     transform="translate(0,-956.36218)">
    <rect
       style="fill:#ffffff;fill-opacity:0;fill-rule:nonzero;stroke:none"
       id="rect3775"
       width="96"
       height="96"
       x="0"
       y="956.36218"
       ry="0" />
    <path
       style="fill:#000000;fill-opacity:0.09589041;fill-rule:nonzero;stroke:none"
       d="m 3.353015,956.30662 c -1.884176,0 -3.4111555,1.43156 -3.4111555,3.19799 l 0,83.65949 c 0,1.7665 1.5269795,3.1981 3.4111555,3.1981 l 89.23583,0 c 1.884174,0 3.411155,-1.4316 3.411155,-3.1981 l 0,-83.65949 c 0,-1.76643 -1.526981,-3.19799 -3.411155,-3.19799 z"
       id="rect3772"
       inkscape:connector-curvature="0"
       sodipodi:nodetypes="sssssssss" />
    <path
       style="fill:#000000;fill-opacity:0.18721463;fill-rule:nonzero;stroke:none"
       d="m 1.0459761,1041.8066 0,7.4219 c 0,1.7392 1.461916,3.1337 3.2852054,3.1337 l 86.3836135,0 c 1.823288,0 3.285205,-1.3945 3.285205,-3.1337 l 0,-7.4219 -92.9540239,0 z"
       id="rect3785"
       inkscape:connector-curvature="0" />
    <path
       style="fill:#000000;fill-opacity:0.38356168;fill-rule:nonzero;stroke:none"
       d="m 1.0459761,1041.8066 0,5.3807 c 0,1.762 1.461916,3.1749 3.2852054,3.1749 l 86.3836135,0 c 1.823288,0 3.285205,-1.4129 3.285205,-3.1749 l 0,-5.3807 -92.9540239,0 z"
       id="rect3783"
       inkscape:connector-curvature="0" />
    <rect
       style="fill:#d88c02;fill-opacity:1;fill-rule:nonzero;stroke:none"
       id="rect2985-2"
       width="93"
       height="88.999962"
       x="0.9999969"
       y="957.36224"
       ry="3.1511383" />
    <path
       style="fill:#000000;fill-opacity:0.38356168;fill-rule:nonzero;stroke:none"
       d="m 1,1042.3622 0.045976,2.7457 c 0.03024,1.8058 1.461916,3.2543 3.2852054,3.2543 l 86.3836136,0 c 1.823288,0 3.285205,-1.4481 3.285205,-3.2543 l -0.04598,-2.7457 z"
       id="rect3781"
       inkscape:connector-curvature="0"
       sodipodi:nodetypes="csssscc" />
    <rect
       style="fill:#ffffff;fill-opacity:0.30000001;fill-rule:nonzero;stroke:none"
       id="rect3770"
       width="92.954033"
       height="2.000005"
       x="1.045976"
       y="1040.3622" />
    <path
       style="fill:#ffffff;fill-rule:evenodd;fill-opacity:0.55707765"
       d="m 47.669312,972.29965 c -14.369268,0 -26.031282,11.66199 -26.031282,26.03128 0,14.36927 11.662014,26.03127 26.031282,26.03127 14.369268,0 26.031282,-11.662 26.031282,-26.03127 0,-14.36929 -11.662014,-26.03128 -26.031282,-26.03128 z m 0,4.83568 c 11.877242,0 21.511963,9.63468 21.511963,21.51195 0,11.87732 -9.634721,21.51202 -21.511963,21.51202 -11.877242,0 -21.511963,-9.6347 -21.511963,-21.51202 0,-11.87727 9.634721,-21.51195 21.511963,-21.51195 z m 0.180772,2.57602 c -2.377815,0 -4.293352,1.93712 -4.293352,4.29335 0,2.35427 1.915537,4.20296 4.293352,4.20296 2.377813,0 4.338548,-1.84869 4.338548,-4.20296 0,-2.35623 -1.960735,-4.29335 -4.338548,-4.29335 z m -15.817619,8.76747 c -0.113785,0.0159 -0.210411,-0.006 -0.316353,0.0451 -0.421807,0.20209 -0.717203,0.71988 -0.723091,1.17503 -0.0059,0.45521 0.305208,0.82756 0.723091,1.03946 l 11.479073,3.61544 -0.135584,8.27045 -4.022193,12.3829 c -0.390419,0.565 -0.313486,1.2954 0.271158,1.672 0.584644,0.3769 1.462502,0.2468 1.85292,-0.3163 l 6.507823,-13.3771 6.417434,13.3771 c 0.347254,0.5846 1.111116,0.7423 1.717341,0.4068 0.606224,-0.3336 0.84438,-1.0405 0.497125,-1.627 l -3.977002,-12.4733 -0.180772,-7.77324 11.659845,-4.24816 c 0.46889,-0.31782 0.6992,-0.883 0.497126,-1.40098 -0.204036,-0.51796 -0.784886,-0.78586 -1.355798,-0.7231 -0.198151,0.0313 -0.381442,0.0631 -0.542318,0.18077 l -14.732981,2.25969 -14.642597,-2.25967 c -0.282512,-0.20395 -0.648956,-0.27493 -0.994252,-0.22588 z"
       id="path3021"
       inkscape:connector-curvature="0" />
  </g>
</svg>
