<?xml version="1.0" encoding="UTF-8" standalone="no"?>
<!-- Created with Inkscape (http://www.inkscape.org/) -->

<svg
   xmlns:dc="http://purl.org/dc/elements/1.1/"
   xmlns:cc="http://creativecommons.org/ns#"
   xmlns:rdf="http://www.w3.org/1999/02/22-rdf-syntax-ns#"
   xmlns:svg="http://www.w3.org/2000/svg"
   xmlns="http://www.w3.org/2000/svg"
   xmlns:sodipodi="http://sodipodi.sourceforge.net/DTD/sodipodi-0.dtd"
   xmlns:inkscape="http://www.inkscape.org/namespaces/inkscape"
   width="96"
   height="96"
   id="svg2"
   version="1.1"
   inkscape:version="0.48.4 r9939"
   sodipodi:docname="maps.svg">
  <defs
     id="defs4" />
  <sodipodi:namedview
     id="base"
     pagecolor="#ffffff"
     bordercolor="#666666"
     borderopacity="1.0"
     inkscape:pageopacity="0.0"
     inkscape:pageshadow="2"
     inkscape:zoom="5.013239"
     inkscape:cx="34.906973"
     inkscape:cy="41.699605"
     inkscape:document-units="px"
     inkscape:current-layer="layer1"
     showgrid="true"
     inkscape:snap-page="true"
     inkscape:snap-global="true"
     inkscape:snap-center="true"
     inkscape:snap-object-midpoints="false"
     showguides="true"
     inkscape:guide-bbox="true"
     inkscape:snap-bbox="true"
     inkscape:object-paths="true"
     inkscape:object-nodes="true"
     inkscape:window-width="1305"
     inkscape:window-height="744"
     inkscape:window-x="61"
     inkscape:window-y="24"
     inkscape:window-maximized="1"
     inkscape:snap-midpoints="true"
     inkscape:snap-grids="true"
     inkscape:snap-to-guides="false">
    <inkscape:grid
       type="xygrid"
       id="grid3002"
       empspacing="5"
       visible="true"
       enabled="true"
       snapvisiblegridlinesonly="true" />
  </sodipodi:namedview>
  <metadata
     id="metadata7">
    <rdf:RDF>
      <cc:Work
         rdf:about="">
        <dc:format>image/svg+xml</dc:format>
        <dc:type
           rdf:resource="http://purl.org/dc/dcmitype/StillImage" />
        <dc:title />
      </cc:Work>
    </rdf:RDF>
  </metadata>
  <g
     inkscape:label="Layer 1"
     inkscape:groupmode="layer"
     id="layer1"
     transform="translate(0,-956.36218)">
    <rect
       style="fill:#ffffff;fill-opacity:0;fill-rule:nonzero;stroke:none"
       id="rect3775"
       width="96"
       height="96"
       x="0"
       y="956.36218"
       ry="0" />
    <path
       style="fill:#000000;fill-opacity:0.09589041;fill-rule:nonzero;stroke:none"
       d="m 3.353015,956.30662 c -1.884176,0 -3.4111555,1.43156 -3.4111555,3.19799 l 0,83.65949 c 0,1.7665 1.5269795,3.1981 3.4111555,3.1981 l 89.23583,0 c 1.884174,0 3.411155,-1.4316 3.411155,-3.1981 l 0,-83.65949 c 0,-1.76643 -1.526981,-3.19799 -3.411155,-3.19799 z"
       id="rect3772"
       inkscape:connector-curvature="0"
       sodipodi:nodetypes="sssssssss" />
    <path
       style="fill:#000000;fill-opacity:0.18721463;fill-rule:nonzero;stroke:none"
       d="m 1.0459761,1041.8066 0,7.4219 c 0,1.7392 1.461916,3.1337 3.2852054,3.1337 l 86.3836135,0 c 1.823288,0 3.285205,-1.3945 3.285205,-3.1337 l 0,-7.4219 -92.9540239,0 z"
       id="rect3785"
       inkscape:connector-curvature="0" />
    <path
       style="fill:#000000;fill-opacity:0.38356168;fill-rule:nonzero;stroke:none"
       d="m 1.0459761,1041.8066 0,5.3807 c 0,1.762 1.461916,3.1749 3.2852054,3.1749 l 86.3836135,0 c 1.823288,0 3.285205,-1.4129 3.285205,-3.1749 l 0,-5.3807 -92.9540239,0 z"
       id="rect3783"
       inkscape:connector-curvature="0" />
    <path
       style="fill:#a1ce73;fill-opacity:1;fill-rule:nonzero;stroke:none"
       d="m 4.2868309,957.36222 c -0.9120976,0 -1.7229137,0.35752 -2.3180805,0.92708 -0.5951668,0.56957 -0.96875,1.34551 -0.96875,2.21838 l 0,82.70902 c 0,0.873 0.3735832,1.6488 0.96875,2.2184 0.5951668,0.5696 1.4059829,0.9271 2.3180805,0.9271 l 86.4263431,0 c 0.912095,0 1.722913,-0.3575 2.31808,-0.9271 0.595167,-0.5696 0.96875,-1.3454 0.96875,-2.2184 l 0,-82.70902 c 0,-0.87287 -0.373583,-1.64881 -0.96875,-2.21838 -0.595167,-0.56956 -1.405985,-0.92708 -2.31808,-0.92708 l -86.4263431,0 z"
       id="path3053"
       inkscape:connector-curvature="0" />
    <path
       style="fill:#ffe800;fill-opacity:1;fill-rule:nonzero;stroke:none"
       d="m 3.7332594,1046.1304 c 0.2071133,0.039 0.3342354,0.2318 0.5535715,0.2318 l 17.2991081,0 72.414065,-71.48473 0,-14.36979 c 0,-0.87287 -0.373583,-1.64881 -0.96875,-2.21838 -0.06242,-0.0598 -0.174914,-0.0446 -0.242188,-0.0993 L 3.7332594,1046.1305 z"
       id="path3391"
       inkscape:connector-curvature="0" />
    <path
       style="fill:#ffe800;fill-opacity:1;fill-rule:nonzero;stroke:none"
       d="m 93.723218,1043.8459 c 0.056,-0.2311 0.276786,-0.3814 0.276786,-0.6292 l 0,-13.0122 -34.044644,-33.70613 -7.058036,6.92003 40.825894,40.4275 z"
       id="rect3368"
       inkscape:connector-curvature="0" />
    <path
       style="fill:#5da4d2;fill-opacity:1;fill-rule:nonzero;stroke:none"
       d="m 21.585939,1046.3622 69.127235,0 c 0.912095,0 1.722913,-0.3575 2.31808,-0.9271 0.4262,-0.4079 0.550713,-1.0065 0.691964,-1.5892 l -34.736608,-34.4015 -37.400671,36.9178 z"
       id="rect3370"
       inkscape:connector-curvature="0" />
    <path
       style="fill:#ff9955;fill-opacity:1;fill-rule:nonzero;stroke:none"
       d="m 94.000004,1030.2375 0,-55.36003 -28.024555,27.61383 28.024555,27.7462 z"
       id="path3374"
       inkscape:connector-curvature="0" />
    <path
       sodipodi:nodetypes="scsss"
       inkscape:connector-curvature="0"
       id="path3843"
       d="M 86.464568,972.80415 C 86.18467,985.25048 76.073102,985.55251 74.339836,1007.3737 71.316705,985.55251 60.19518,987.66122 59.635384,972.80415 c -0.277021,-7.3522 6.005919,-13.321 13.414587,-13.321 7.408679,0 13.580005,5.96573 13.414597,13.321 z"
       style="fill:#c01008;fill-opacity:1;fill-rule:nonzero;stroke:none" />
    <path
       style="fill:#ffcbc9;fill-opacity:0.68493152;fill-rule:nonzero;stroke:none"
       d="M 59.6875 19.59375 C 59.634624 20.169308 59.603855 20.748945 59.625 21.34375 C 60.184796 37.09101 71.320619 34.87137 74.34375 58 C 76.077016 34.87137 86.188852 34.53583 86.46875 21.34375 C 86.480698 20.780612 86.458508 20.23344 86.40625 19.6875 C 85.557049 31.04143 76.022851 31.985771 74.34375 53.125 C 71.393075 31.826854 60.717555 33.323899 59.6875 19.59375 z "
       transform="translate(0,956.36218)"
       id="path3065" />
    <path
       style="fill:#ff150b;fill-opacity:1;fill-rule:nonzero;stroke:none"
       d="m 86.464568,974.9232 c -0.279898,12.44633 -10.391466,12.74836 -12.124732,34.5695 -3.023131,-21.82114 -14.144656,-19.71244 -14.704452,-34.5695 -0.277021,-7.3522 6.005919,-13.321 13.414587,-13.321 7.408679,0 13.580005,5.96572 13.414597,13.321 z"
       id="path4168"
       inkscape:connector-curvature="0"
       sodipodi:nodetypes="scsss" />
    <path
       sodipodi:type="arc"
       style="fill:#5b0704;fill-opacity:1;fill-rule:nonzero;stroke:none"
       id="path4171"
       sodipodi:cx="-18.662838"
       sodipodi:cy="132.53151"
       sodipodi:rx="5.1620617"
       sodipodi:ry="5.5591431"
       d="m -13.500776,132.53151 c 0,3.07023 -2.311134,5.55914 -5.162062,5.55914 -2.850928,0 -5.162062,-2.48891 -5.162062,-5.55914 0,-3.07023 2.311134,-5.55914 5.162062,-5.55914 2.850928,0 5.162062,2.48891 5.162062,5.55914 z"
       transform="matrix(0.69964706,0,0,0.63899615,86.365357,887.82561)" />
    <path
       style="fill:#000000;fill-opacity:0.38356168;fill-rule:nonzero;stroke:none"
       d="m 1,1042.3622 0.045976,2.7457 c 0.03024,1.8058 1.461916,3.2543 3.2852054,3.2543 l 86.3836136,0 c 1.823288,0 3.285205,-1.4481 3.285205,-3.2543 l -0.04598,-2.7457 z"
       id="rect3781"
       inkscape:connector-curvature="0"
       sodipodi:nodetypes="csssscc" />
    <rect
       style="fill:#ffffff;fill-opacity:0.30000001;fill-rule:nonzero;stroke:none"
       id="rect3770"
       width="92.954033"
       height="2.000005"
       x="1.045976"
       y="1040.3622" />
    <path
       transform="matrix(1.5,0,0,1.5,-15,933.36218)"
       d="m 40,36 a 10,10 0 1 1 -20,0 10,10 0 1 1 20,0 z"
       sodipodi:ry="10"
       sodipodi:rx="10"
       sodipodi:cy="36"
       sodipodi:cx="30"
       id="path3770"
       style="fill:#ffffff;fill-opacity:0.22374429;fill-rule:evenodd;stroke:none"
       sodipodi:type="arc" />
    <path
       sodipodi:type="arc"
       style="fill:#ffffff;fill-opacity:0.60730597;fill-rule:evenodd;stroke:none"
       id="path3000"
       sodipodi:cx="30"
       sodipodi:cy="36"
       sodipodi:rx="10"
       sodipodi:ry="10"
       d="m 40,36 a 10,10 0 1 1 -20,0 10,10 0 1 1 20,0 z"
       transform="translate(0,951.36218)" />
  </g>
</svg>
