<?xml version="1.0" encoding="UTF-8" standalone="no"?>
<!-- Created with Inkscape (http://www.inkscape.org/) -->

<svg
   xmlns:dc="http://purl.org/dc/elements/1.1/"
   xmlns:cc="http://creativecommons.org/ns#"
   xmlns:rdf="http://www.w3.org/1999/02/22-rdf-syntax-ns#"
   xmlns:svg="http://www.w3.org/2000/svg"
   xmlns="http://www.w3.org/2000/svg"
   xmlns:xlink="http://www.w3.org/1999/xlink"
   xmlns:sodipodi="http://sodipodi.sourceforge.net/DTD/sodipodi-0.dtd"
   xmlns:inkscape="http://www.inkscape.org/namespaces/inkscape"
   width="96"
   height="96"
   id="svg2"
   version="1.1"
   inkscape:version="0.48.4 r9939"
   sodipodi:docname="matlab.svg">
  <defs
     id="defs4">
    <linearGradient
       id="linearGradient3896">
      <stop
         id="stop3898"
         offset="0"
         style="stop-color:#ff8303;stop-opacity:1;" />
      <stop
         style="stop-color:#ff3b00;stop-opacity:1;"
         offset="0.24110986"
         id="stop3900" />
      <stop
         style="stop-color:#a70000;stop-opacity:1;"
         offset="0.38264477"
         id="stop3902" />
      <stop
         style="stop-color:#5e0000;stop-opacity:1;"
         offset="0.58279818"
         id="stop3904" />
      <stop
         id="stop3906"
         offset="1"
         style="stop-color:#000000;stop-opacity:1;" />
    </linearGradient>
    <radialGradient
       inkscape:collect="always"
       xlink:href="#linearGradient3896"
       id="radialGradient3894"
       gradientUnits="userSpaceOnUse"
       gradientTransform="matrix(1.0873869,-0.13836263,0.12079639,0.94933444,-125.1344,56.947433)"
       cx="44.621689"
       cy="1003.6314"
       fx="44.621689"
       fy="1003.6314"
       r="46.5" />
  </defs>
  <sodipodi:namedview
     id="base"
     pagecolor="#ffffff"
     bordercolor="#666666"
     borderopacity="1.0"
     inkscape:pageopacity="0.0"
     inkscape:pageshadow="2"
     inkscape:zoom="5.90625"
     inkscape:cx="48"
     inkscape:cy="48"
     inkscape:document-units="px"
     inkscape:current-layer="layer1"
     showgrid="true"
     inkscape:snap-page="true"
     inkscape:snap-global="false"
     inkscape:snap-center="true"
     inkscape:snap-object-midpoints="false"
     showguides="true"
     inkscape:guide-bbox="true"
     inkscape:snap-bbox="true"
     inkscape:object-paths="true"
     inkscape:object-nodes="true"
     inkscape:window-width="1305"
     inkscape:window-height="744"
     inkscape:window-x="61"
     inkscape:window-y="24"
     inkscape:window-maximized="1"
     inkscape:snap-midpoints="false"
     inkscape:snap-grids="true"
     inkscape:snap-to-guides="false">
    <inkscape:grid
       type="xygrid"
       id="grid3002"
       empspacing="5"
       visible="true"
       enabled="true"
       snapvisiblegridlinesonly="true" />
  </sodipodi:namedview>
  <metadata
     id="metadata7">
    <rdf:RDF>
      <cc:Work
         rdf:about="">
        <dc:format>image/svg+xml</dc:format>
        <dc:type
           rdf:resource="http://purl.org/dc/dcmitype/StillImage" />
        <dc:title />
      </cc:Work>
    </rdf:RDF>
  </metadata>
  <g
     inkscape:label="Layer 1"
     inkscape:groupmode="layer"
     id="layer1"
     transform="translate(0,-956.36218)">
    <rect
       style="fill:#ffffff;fill-opacity:0;fill-rule:nonzero;stroke:none"
       id="rect3775"
       width="96"
       height="96"
       x="0"
       y="956.36218"
       ry="0" />
    <path
       style="fill:#000000;fill-opacity:0.09589041;fill-rule:nonzero;stroke:none"
       d="m 3.353015,956.30662 c -1.884176,0 -3.4111555,1.43156 -3.4111555,3.19799 l 0,83.65949 c 0,1.7665 1.5269795,3.1981 3.4111555,3.1981 l 89.23583,0 c 1.884174,0 3.411155,-1.4316 3.411155,-3.1981 l 0,-83.65949 c 0,-1.76643 -1.526981,-3.19799 -3.411155,-3.19799 z"
       id="rect3772"
       inkscape:connector-curvature="0"
       sodipodi:nodetypes="sssssssss" />
    <path
       style="fill:#000000;fill-opacity:0.18721463;fill-rule:nonzero;stroke:none"
       d="m 1.0459761,1041.8066 0,7.4219 c 0,1.7392 1.461916,3.1337 3.2852054,3.1337 l 86.3836135,0 c 1.823288,0 3.285205,-1.3945 3.285205,-3.1337 l 0,-7.4219 -92.9540239,0 z"
       id="rect3785"
       inkscape:connector-curvature="0" />
    <path
       style="fill:#000000;fill-opacity:0.38356168;fill-rule:nonzero;stroke:none"
       d="m 1.0459761,1041.8066 0,5.3807 c 0,1.762 1.461916,3.1749 3.2852054,3.1749 l 86.3836135,0 c 1.823288,0 3.285205,-1.4129 3.285205,-3.1749 l 0,-5.3807 -92.9540239,0 z"
       id="rect3783"
       inkscape:connector-curvature="0" />
    <rect
       style="fill:url(#radialGradient3894);fill-opacity:1;fill-rule:nonzero;stroke:none"
       id="rect2985-2"
       width="93"
       height="88.999962"
       x="0.9999969"
       y="957.36224"
       ry="3.1511383" />
    <path
       style="fill:#892a00;fill-opacity:1;fill-rule:evenodd;stroke:none"
       d="M 1 72.875 L 1 86.03125 L 37.875 90 L 69.15625 90 L 93.125 88 L 94 86.375 L 94 76 L 80.5 69.21875 L 59.8125 53.125 L 49.8125 45.40625 L 46.0625 47.34375 L 40.21875 45.3125 C 29.343862 46.263489 16.611428 68.179048 1 72.875 z "
       id="rect3771"
       transform="translate(0,956.36218)" />
    <path
       style="fill:#ff9500;fill-opacity:0.55707762;fill-rule:evenodd;stroke:none"
       d="M 1 76.09375 L 1 86.84375 C 1 87.570438 1.3397741 88.186827 1.75 88.71875 L 14.15625 90 L 90.84375 90 C 91.716615 90 92.524182 89.663318 93.09375 89.09375 C 93.663318 88.524182 94 87.716615 94 86.84375 L 94 79.09375 L 80.5 72.625 L 59.8125 57.28125 L 49.8125 49.90625 L 46.0625 51.75 L 40.21875 49.8125 C 29.344482 50.719265 16.610207 71.614235 1 76.09375 z "
       id="path3785"
       transform="translate(0,956.36218)" />
    <path
       style="fill:#ff9500;fill-opacity:0.55707762;fill-rule:evenodd;stroke:none"
       d="M 1 77.75 L 1 86.84375 C 1 87.716615 1.3366818 88.524182 1.90625 89.09375 C 2.0316023 89.219102 2.2611777 89.178456 2.40625 89.28125 L 10.03125 90 L 90.84375 90 C 91.716615 90 92.524182 89.663318 93.09375 89.09375 C 93.663318 88.524182 94 87.716615 94 86.84375 L 94 80.59375 L 80.5 74.78125 L 59.8125 61.03125 L 49.8125 54.40625 L 46.0625 56.0625 L 40.21875 54.3125 C 29.352125 55.126029 16.59518 73.710694 1 77.75 z "
       id="path3787"
       transform="translate(0,956.36218)" />
    <path
       style="fill:#ff9500;fill-opacity:0.55707762;fill-rule:evenodd;stroke:none"
       d="M 1 80.125 L 1 86.84375 C 1 87.716615 1.3366818 88.524182 1.90625 89.09375 C 2.4758182 89.663318 3.2833847 90 4.15625 90 L 90.84375 90 C 91.716615 90 92.524182 89.663318 93.09375 89.09375 C 93.663318 88.524182 94 87.716615 94 86.84375 L 94 82.53125 L 80.5 77.5625 L 59.8125 65.8125 L 49.8125 60.1875 L 46.0625 61.59375 L 40.21875 60.09375 C 29.35201 60.78802 16.595405 76.677387 1 80.125 z "
       id="path3789"
       transform="translate(0,956.36218)" />
    <path
       style="fill:#ff9500;fill-opacity:0.55707762;fill-rule:evenodd;stroke:none"
       d="M 1 82.28125 L 1 86.84375 C 1 87.716615 1.3366818 88.524182 1.90625 89.09375 C 2.4758182 89.663318 3.2833847 90 4.15625 90 L 90.84375 90 C 91.716615 90 92.524182 89.663318 93.09375 89.09375 C 93.663318 88.524182 94 87.716615 94 86.84375 L 94 84.34375 L 80.5 80.15625 L 59.8125 70.28125 L 49.8125 65.53125 L 46.0625 66.71875 L 40.21875 65.46875 C 29.353049 66.052709 16.593364 79.379661 1 82.28125 z "
       id="path3791"
       transform="translate(0,956.36218)" />
    <path
       style="fill:#ff7500;fill-opacity:0.55707762;fill-rule:evenodd;stroke:none"
       d="M 1 83.78125 L 1 86.84375 C 1 87.716615 1.3366818 88.524182 1.90625 89.09375 C 2.4758182 89.663318 3.2833847 90 4.15625 90 L 90.84375 90 C 91.716615 90 92.524182 89.663318 93.09375 89.09375 C 93.663318 88.524182 94 87.716615 94 86.84375 L 94 85.53125 L 80.5 81.90625 L 59.8125 73.3125 L 49.8125 69.15625 L 46.0625 70.1875 L 40.21875 69.09375 C 29.352256 69.602717 16.594923 81.253595 1 83.78125 z "
       id="path3793"
       transform="translate(0,956.36218)" />
    <path
       style="fill:#ff7500;fill-opacity:0.55707762;fill-rule:evenodd;stroke:none"
       d="M 1 86.125 L 1 86.84375 C 1 87.716615 1.3366818 88.524182 1.90625 89.09375 C 2.4758182 89.663318 3.2833847 90 4.15625 90 L 90.84375 90 C 91.716615 90 92.524182 89.663318 93.09375 89.09375 C 93.512064 88.675436 93.619842 88.038483 93.75 87.4375 L 80.5 84.71875 L 59.8125 78.09375 L 49.8125 74.9375 L 46.0625 75.71875 L 40.21875 74.90625 C 29.352488 75.29622 16.594466 84.188605 1 86.125 z "
       id="path3795"
       transform="translate(0,956.36218)" />
    <path
       style="fill:#662f00;fill-opacity:0.55707762;fill-rule:evenodd;stroke:none"
       d="M 1.34375 87.65625 C 1.4951584 88.161116 1.5438061 88.731306 1.90625 89.09375 C 2.4758182 89.663318 3.2833847 90 4.15625 90 L 90.84375 90 C 91.716615 90 92.524182 89.663318 93.09375 89.09375 C 93.205489 88.982011 93.187313 88.783781 93.28125 88.65625 L 80.5 86.5625 L 59.8125 81.3125 L 49.8125 78.78125 L 46.0625 79.40625 L 40.21875 78.75 C 29.431961 79.058252 16.782351 86.044595 1.34375 87.65625 z "
       id="path3803"
       transform="translate(0,956.36218)" />
    <path
       style="fill:#662f00;fill-opacity:0.55707762;fill-rule:evenodd;stroke:none"
       d="M 2.53125 89.34375 C 3.0228535 89.660345 3.5256139 90 4.15625 90 L 90.84375 90 L 80.5 88.84375 L 59.8125 85.21875 L 49.8125 83.5 L 46.0625 83.9375 L 40.21875 83.46875 C 29.738402 83.674592 17.375622 88.067195 2.53125 89.34375 z "
       id="path3805"
       transform="translate(0,956.36218)" />
    <path
       style="fill:#000000;fill-opacity:1;fill-rule:evenodd;stroke:none"
       d="M 30.3125 90 L 58.65625 90 C 52.02249 76.670938 51.042591 61.550692 50.84375 46.1875 L 49.8125 45.40625 L 46.0625 47.34375 L 40.21875 45.28125 C 39.887259 45.31025 39.522455 45.52675 39.1875 45.59375 C 37.253562 60.384779 38.650984 75.862498 30.3125 90 z "
       id="path3781"
       transform="translate(0,956.36218)" />
    <path
       style="fill:#ff0000;fill-opacity:0.4840183;fill-rule:evenodd;stroke:none"
       d="M 32.375 90 L 56.5625 90 C 50.898303 76.6716 50.076049 61.549648 49.90625 46.1875 L 49.03125 45.40625 L 45.8125 47.34375 L 40.84375 45.28125 C 40.560657 45.31025 40.254802 45.52675 39.96875 45.59375 C 38.317188 60.384556 39.49572 75.86267 32.375 90 z "
       id="path3797"
       transform="translate(0,956.36218)" />
    <path
       style="fill:#ff0000;fill-opacity:0.4840183;fill-rule:evenodd;stroke:none"
       d="M 35.65625 90 L 53.4375 90 C 49.300514 76.652409 48.529845 61.579941 48.40625 46.1875 L 47.75 45.40625 L 45.4375 47.34375 L 41.8125 45.28125 C 41.606841 45.31025 41.395307 45.52675 41.1875 45.59375 C 39.987582 60.38591 40.830823 75.861623 35.65625 90 z "
       id="path3799"
       transform="translate(0,956.36218)" />
    <path
       style="fill:#ff5000;fill-opacity:0.4840183;fill-rule:evenodd;stroke:none"
       d="M 40.0625 90 L 48.75 90 C 46.755388 76.65345 46.403352 61.578297 46.34375 46.1875 L 46.03125 45.40625 L 44.90625 47.34375 L 43.15625 45.28125 C 43.05707 45.31025 42.943973 45.52675 42.84375 45.59375 C 42.264348 60.403906 42.568322 75.847708 40.0625 90 z "
       id="path3801"
       transform="translate(0,956.36218)" />
    <path
       style="fill:#000000;fill-opacity:0.38356168;fill-rule:nonzero;stroke:none"
       d="m 1,1042.3622 0.045976,2.7457 c 0.03024,1.8058 1.461916,3.2543 3.2852054,3.2543 l 86.3836136,0 c 1.823288,0 3.285205,-1.4481 3.285205,-3.2543 l -0.04598,-2.7457 z"
       id="rect3781"
       inkscape:connector-curvature="0"
       sodipodi:nodetypes="csssscc" />
    <rect
       style="fill:#ffffff;fill-opacity:0.30000001;fill-rule:nonzero;stroke:none"
       id="rect3770"
       width="92.954033"
       height="2.000005"
       x="1.045976"
       y="1040.3622" />
  </g>
</svg>
