<?xml version="1.0" encoding="UTF-8" standalone="no"?>
<!-- Created with Inkscape (http://www.inkscape.org/) -->

<svg
   xmlns:dc="http://purl.org/dc/elements/1.1/"
   xmlns:cc="http://creativecommons.org/ns#"
   xmlns:rdf="http://www.w3.org/1999/02/22-rdf-syntax-ns#"
   xmlns:svg="http://www.w3.org/2000/svg"
   xmlns="http://www.w3.org/2000/svg"
   xmlns:sodipodi="http://sodipodi.sourceforge.net/DTD/sodipodi-0.dtd"
   xmlns:inkscape="http://www.inkscape.org/namespaces/inkscape"
   width="96"
   height="96"
   id="svg2"
   version="1.1"
   inkscape:version="0.48.4 r9939"
   sodipodi:docname="mediatomb.svg">
  <defs
     id="defs4" />
  <sodipodi:namedview
     id="base"
     pagecolor="#ffffff"
     bordercolor="#666666"
     borderopacity="1.0"
     inkscape:pageopacity="0.0"
     inkscape:pageshadow="2"
     inkscape:zoom="5.7738685"
     inkscape:cx="48.651804"
     inkscape:cy="47.407407"
     inkscape:document-units="px"
     inkscape:current-layer="layer1"
     showgrid="true"
     inkscape:snap-page="true"
     inkscape:snap-global="true"
     inkscape:snap-center="true"
     inkscape:snap-object-midpoints="false"
     showguides="true"
     inkscape:guide-bbox="true"
     inkscape:snap-bbox="true"
     inkscape:object-paths="true"
     inkscape:object-nodes="true"
     inkscape:window-width="1305"
     inkscape:window-height="744"
     inkscape:window-x="61"
     inkscape:window-y="24"
     inkscape:window-maximized="1"
     inkscape:snap-midpoints="true"
     inkscape:snap-grids="true"
     inkscape:snap-to-guides="false">
    <inkscape:grid
       type="xygrid"
       id="grid3002"
       empspacing="5"
       visible="true"
       enabled="true"
       snapvisiblegridlinesonly="true" />
  </sodipodi:namedview>
  <metadata
     id="metadata7">
    <rdf:RDF>
      <cc:Work
         rdf:about="">
        <dc:format>image/svg+xml</dc:format>
        <dc:type
           rdf:resource="http://purl.org/dc/dcmitype/StillImage" />
        <dc:title />
      </cc:Work>
    </rdf:RDF>
  </metadata>
  <g
     inkscape:label="Layer 1"
     inkscape:groupmode="layer"
     id="layer1"
     transform="translate(0,-956.36218)">
    <rect
       style="fill:#ffffff;fill-opacity:0;fill-rule:nonzero;stroke:none"
       id="rect3775"
       width="96"
       height="96"
       x="0"
       y="956.36218"
       ry="0" />
    <path
       style="fill:#000000;fill-opacity:0.09589041;fill-rule:nonzero;stroke:none"
       d="m 3.353015,956.30662 c -1.884176,0 -3.4111555,1.43156 -3.4111555,3.19799 l 0,83.65949 c 0,1.7665 1.5269795,3.1981 3.4111555,3.1981 l 89.23583,0 c 1.884174,0 3.411155,-1.4316 3.411155,-3.1981 l 0,-83.65949 c 0,-1.76643 -1.526981,-3.19799 -3.411155,-3.19799 z"
       id="rect3772"
       inkscape:connector-curvature="0"
       sodipodi:nodetypes="sssssssss" />
    <path
       style="fill:#000000;fill-opacity:0.18721463;fill-rule:nonzero;stroke:none"
       d="m 1.0459761,1041.8066 0,7.4219 c 0,1.7392 1.461916,3.1337 3.2852054,3.1337 l 86.3836135,0 c 1.823288,0 3.285205,-1.3945 3.285205,-3.1337 l 0,-7.4219 -92.9540239,0 z"
       id="rect3785"
       inkscape:connector-curvature="0" />
    <path
       style="fill:#000000;fill-opacity:0.38356168;fill-rule:nonzero;stroke:none"
       d="m 1.0459761,1041.8066 0,5.3807 c 0,1.762 1.461916,3.1749 3.2852054,3.1749 l 86.3836135,0 c 1.823288,0 3.285205,-1.4129 3.285205,-3.1749 l 0,-5.3807 -92.9540239,0 z"
       id="rect3783"
       inkscape:connector-curvature="0" />
    <rect
       style="fill:#454545;fill-opacity:1;fill-rule:nonzero;stroke:none"
       id="rect2985"
       width="92.954025"
       height="89"
       x="1.045977"
       y="957.36218"
       ry="3.1511393" />
    <path
       style="fill:#000000;fill-opacity:0.38356168;fill-rule:nonzero;stroke:none"
       d="m 1,1042.3622 0.045976,2.7457 c 0.03024,1.8058 1.461916,3.2543 3.2852054,3.2543 l 86.3836136,0 c 1.823288,0 3.285205,-1.4481 3.285205,-3.2543 l -0.04598,-2.7457 z"
       id="rect3781"
       inkscape:connector-curvature="0"
       sodipodi:nodetypes="csssscc" />
    <rect
       style="fill:#ffffff;fill-opacity:0.30000001;fill-rule:nonzero;stroke:none"
       id="rect3770"
       width="92.954033"
       height="2.000005"
       x="1.045976"
       y="1040.3622" />
    <path
       style="font-size:38.26511382999999711px;font-style:normal;font-variant:normal;font-weight:normal;font-stretch:normal;text-align:end;line-height:125%;letter-spacing:0px;word-spacing:0px;text-anchor:end;fill:#ffffff;fill-opacity:0.51598173;stroke:none;font-family:Andale Mono;-inkscape-font-specification:Andale Mono"
       d="M 35.6875 21 C 33.827661 22.173617 32.634384 22.952586 32.09375 23.34375 C 30.796187 24.276629 29.641407 25.224587 28.625 26.1875 C 27.608577 27.120376 26.901261 28.034768 26.46875 28.9375 C 25.841594 30.261568 25.403754 31.548662 25.1875 32.8125 C 24.971237 34.07638 24.874995 35.564871 24.875 37.25 C 24.48573 37.3102 24.076762 37.344925 23.6875 37.375 C 23.341483 37.465292 22.896396 37.835678 22.3125 38.4375 C 21.7286 39.009261 21.329256 39.55211 21.15625 40.09375 L 20.84375 41.90625 L 20.90625 42 C 21.555025 41.458358 22.36096 41.187513 23.3125 41.1875 C 24.264034 41.187513 25.069969 41.763927 25.71875 42.9375 C 26.475649 44.291646 26.843743 46.187562 26.84375 48.625 C 26.843743 49.136567 26.737878 49.678258 26.5 50.25 C 26.262109 50.821749 25.910886 51.193293 25.5 51.34375 C 24.634961 51.584488 23.742409 51.923623 22.8125 52.375 C 21.882586 52.796288 21.329256 53.135423 21.15625 53.40625 C 20.766984 54.03818 20.475883 54.647003 20.28125 55.21875 C 20.086617 55.820586 20 56.465291 20 57.1875 C 20 57.668967 20.019248 58.072918 20.0625 58.34375 L 20.34375 58.34375 C 20.516757 57.681724 20.769361 57.106467 21.09375 56.625 C 21.418137 56.143527 21.817481 55.906248 22.25 55.90625 C 22.833896 56.086799 23.39685 56.256946 23.9375 56.4375 C 24.499768 56.618049 25.053098 56.718747 25.59375 56.71875 C 26.934547 56.718747 27.932964 56.312479 28.625 55.5 C 28.797998 55.289355 29.175717 54.715257 29.78125 53.8125 C 30.084002 53.391214 30.317359 52.510388 30.46875 51.15625 C 30.641747 49.802118 30.74999 48.313627 30.75 46.71875 L 30.75 39.25 L 34.625 39.25 L 34.625 47.28125 C 34.624986 47.732635 34.567241 48.106495 34.4375 48.4375 C 34.307731 48.738424 34.074374 49.111126 33.75 49.5625 L 37.4375 54.34375 L 42.875 47.625 L 42.3125 46.8125 L 41.5 47.9375 L 41.5 39.1875 L 43.46875 35.53125 L 41.5 35.53125 L 41.5 25.28125 L 42.46875 24.4375 L 44.71875 26.71875 L 44.71875 48.21875 C 44.718726 50.174728 45.096444 51.800958 45.875 53.125 C 46.134485 53.546287 46.543453 54.019687 47.0625 54.53125 L 47.3125 54.53125 L 50.84375 49.96875 L 50.3125 49.125 C 50.031334 49.877302 49.689734 50.250004 49.34375 50.25 C 49.149088 50.250004 48.985478 49.945592 48.8125 49.34375 C 48.639465 48.711825 48.531222 48.06712 48.53125 47.375 L 48.53125 26.875 L 50.25 23.25 L 49.9375 22.75 L 48.1875 24.5625 L 44.65625 21.125 L 44.46875 21.125 L 38.5 26.59375 C 38.499982 25.390102 38.052517 24.103008 37.1875 22.71875 C 36.906347 22.267403 36.490132 21.692146 35.90625 21 L 35.6875 21 z M 59.65625 21.1875 C 56.347487 21.187533 53.980181 23.049883 52.53125 26.78125 C 51.947351 28.285872 51.713994 29.471109 51.84375 30.34375 L 52.0625 30.34375 C 52.603146 29.200282 53.406703 28.185191 54.53125 27.3125 C 55.655791 26.40977 56.589217 25.968778 57.28125 25.96875 C 57.389373 25.968778 57.514487 25.968778 57.6875 25.96875 C 58.206514 25.968778 58.615482 25.969936 58.875 26 C 59.134503 26.03012 59.4641 26.12966 59.875 26.25 C 57.928665 27.72453 56.32642 29.959582 55.09375 32.96875 C 53.969202 35.707133 53.406248 38.416743 53.40625 41.125 C 53.406248 44.976775 54.49366 48.19335 56.65625 50.78125 C 58.840456 53.339064 61.587857 54.624999 64.875 54.625 C 67.232204 54.624999 69.24104 53.541619 70.90625 51.375 C 72.593047 49.208386 73.601088 46.532343 73.96875 43.3125 L 73.75 43.15625 C 72.993073 44.811315 72.254507 46.09725 71.5625 47 C 70.610942 48.203682 69.427289 49.15164 68 49.84375 L 68 28.09375 C 68.735262 28.093776 69.512325 27.993077 70.3125 27.8125 C 71.112638 27.631975 71.762209 27.394696 72.28125 27.09375 C 72.95163 26.702582 73.476088 26.159734 73.84375 25.4375 C 74.211367 24.715323 74.406227 23.700233 74.40625 22.40625 C 74.406227 22.105363 74.396603 21.766227 74.375 21.375 L 74.0625 21.21875 C 73.716464 22.271999 73.309873 23.015086 72.8125 23.40625 C 72.401587 23.707199 71.809761 23.84378 71.03125 23.84375 C 70.685217 23.84378 68.93861 23.403946 65.78125 22.53125 C 62.645487 21.628525 60.586153 21.187533 59.65625 21.1875 z M 32.4375 24.84375 C 33.151141 24.843779 33.704471 25.047492 34.09375 25.46875 C 34.483001 25.890065 34.656236 26.500045 34.65625 27.3125 L 34.65625 35.53125 L 32.125 35.53125 L 30.75 38.34375 L 30.75 29.65625 C 30.74999 28.783609 30.942472 27.834493 31.375 26.78125 C 31.699377 25.998888 32.069848 25.355341 32.4375 24.84375 z M 40.65625 26.09375 L 40.65625 35.53125 L 38.40625 35.53125 L 38.40625 28.03125 L 40.65625 26.09375 z M 30.53125 26.25 C 30.250104 27.062509 30.096118 27.842636 30.03125 28.625 C 29.966363 29.407414 29.93749 30.490795 29.9375 31.875 L 29.9375 46.96875 C 29.93749 48.082157 29.848496 48.962983 29.71875 49.625 C 29.610611 50.256934 29.398881 50.83219 29.03125 51.34375 C 28.685228 51.855315 28.257011 52.093752 27.78125 52.09375 C 27.413603 52.033568 27.064757 51.966436 26.71875 51.90625 L 26.65625 51.78125 C 27.175264 51.149322 27.475989 50.775463 27.5625 50.625 C 27.670622 50.444452 27.766863 50.174765 27.875 49.84375 C 28.004747 49.512743 28.151487 49.004619 28.28125 48.3125 C 28.432623 47.5903 28.499992 46.913187 28.5 46.28125 L 28.5 32.5 C 28.499992 31.747724 28.538488 30.967597 28.625 30.125 C 28.733121 29.252359 28.899109 28.643536 29.09375 28.3125 C 29.288374 27.981515 29.540979 27.576405 29.84375 27.125 C 30.146502 26.673648 30.358233 26.400487 30.53125 26.25 z M 60.78125 26.40625 L 61.25 26.59375 L 61.25 42.34375 C 61.24999 42.915507 61.163373 43.626186 60.96875 44.46875 C 60.925489 44.709494 60.85812 45.013906 60.75 45.375 C 60.663487 45.736111 60.478251 46.108813 60.21875 46.5 C 60.132238 46.620375 60.026373 46.788206 59.875 46.96875 C 59.226216 46.156276 58.730631 45.412031 58.40625 44.75 C 57.43308 42.703761 56.937494 40.20018 56.9375 37.28125 C 56.937494 35.204926 57.228596 33.239562 57.8125 31.34375 C 58.482895 29.147065 59.48369 27.489585 60.78125 26.40625 z M 64.90625 27.375 L 67.09375 28.03125 L 67.09375 49.96875 L 66.59375 49.96875 L 65.84375 49.96875 C 65.367967 49.968754 64.910878 49.935188 64.5 49.875 C 64.110722 49.81482 63.809996 49.778938 63.59375 49.71875 C 63.00984 49.538203 62.45651 49.268516 61.9375 48.9375 C 61.418469 48.606494 60.91326 48.232634 60.4375 47.78125 C 60.870008 47.269694 61.327097 46.73032 61.78125 46.21875 C 62.408389 45.496552 62.952095 44.817123 63.40625 44.125 C 63.96851 43.282437 64.346228 42.300913 64.5625 41.1875 C 64.778745 40.044021 64.906237 38.656229 64.90625 37.03125 L 64.90625 27.375 z M 38.4375 39.1875 L 40.65625 39.1875 L 40.65625 48.65625 C 40.526474 48.836806 40.439857 48.972229 40.375 49.0625 C 39.985715 49.604159 39.704238 49.875004 39.53125 49.875 C 38.795952 49.875004 38.437482 49.026586 38.4375 47.28125 L 38.4375 39.1875 z "
       transform="translate(0,956.36218)"
       id="text3777" />
  </g>
</svg>
