<?xml version="1.0" encoding="UTF-8" standalone="no"?>
<!-- Created with Inkscape (http://www.inkscape.org/) -->

<svg
   xmlns:dc="http://purl.org/dc/elements/1.1/"
   xmlns:cc="http://creativecommons.org/ns#"
   xmlns:rdf="http://www.w3.org/1999/02/22-rdf-syntax-ns#"
   xmlns:svg="http://www.w3.org/2000/svg"
   xmlns="http://www.w3.org/2000/svg"
   xmlns:xlink="http://www.w3.org/1999/xlink"
   xmlns:sodipodi="http://sodipodi.sourceforge.net/DTD/sodipodi-0.dtd"
   xmlns:inkscape="http://www.inkscape.org/namespaces/inkscape"
   width="96"
   height="96"
   id="svg2"
   version="1.1"
   inkscape:version="0.48.4 r9939"
   sodipodi:docname="mindeley.svg">
  <defs
     id="defs4">
    <linearGradient
       id="linearGradient3766">
      <stop
         style="stop-color:#970014;stop-opacity:1;"
         offset="0"
         id="stop3768" />
      <stop
         style="stop-color:#e81114;stop-opacity:1;"
         offset="1"
         id="stop3770" />
    </linearGradient>
    <linearGradient
       inkscape:collect="always"
       xlink:href="#linearGradient3766"
       id="linearGradient3772"
       x1="40"
       y1="-1047.3622"
       x2="40"
       y2="-957.36218"
       gradientUnits="userSpaceOnUse" />
  </defs>
  <sodipodi:namedview
     id="base"
     pagecolor="#ffffff"
     bordercolor="#666666"
     borderopacity="1.0"
     inkscape:pageopacity="0.0"
     inkscape:pageshadow="2"
     inkscape:zoom="5.90625"
     inkscape:cx="47.427116"
     inkscape:cy="48"
     inkscape:document-units="px"
     inkscape:current-layer="layer1"
     showgrid="true"
     inkscape:snap-page="true"
     inkscape:snap-global="true"
     inkscape:snap-center="true"
     inkscape:snap-object-midpoints="false"
     showguides="true"
     inkscape:guide-bbox="true"
     inkscape:snap-bbox="true"
     inkscape:object-paths="true"
     inkscape:object-nodes="true"
     inkscape:window-width="1305"
     inkscape:window-height="744"
     inkscape:window-x="61"
     inkscape:window-y="24"
     inkscape:window-maximized="1"
     inkscape:snap-midpoints="false"
     inkscape:snap-grids="true"
     inkscape:snap-to-guides="false">
    <inkscape:grid
       type="xygrid"
       id="grid3002"
       empspacing="5"
       visible="true"
       enabled="true"
       snapvisiblegridlinesonly="true" />
  </sodipodi:namedview>
  <metadata
     id="metadata7">
    <rdf:RDF>
      <cc:Work
         rdf:about="">
        <dc:format>image/svg+xml</dc:format>
        <dc:type
           rdf:resource="http://purl.org/dc/dcmitype/StillImage" />
        <dc:title />
      </cc:Work>
    </rdf:RDF>
  </metadata>
  <g
     inkscape:label="Layer 1"
     inkscape:groupmode="layer"
     id="layer1"
     transform="translate(0,-956.36218)">
    <rect
       style="fill:#ffffff;fill-opacity:0;fill-rule:nonzero;stroke:none"
       id="rect3775"
       width="96"
       height="96"
       x="0"
       y="956.36218"
       ry="0" />
    <path
       style="fill:#000000;fill-opacity:0.09589041;fill-rule:nonzero;stroke:none"
       d="m 3.353015,956.30662 c -1.884176,0 -3.4111555,1.43156 -3.4111555,3.19799 l 0,83.65949 c 0,1.7665 1.5269795,3.1981 3.4111555,3.1981 l 89.23583,0 c 1.884174,0 3.411155,-1.4316 3.411155,-3.1981 l 0,-83.65949 c 0,-1.76643 -1.526981,-3.19799 -3.411155,-3.19799 z"
       id="rect3772"
       inkscape:connector-curvature="0"
       sodipodi:nodetypes="sssssssss" />
    <path
       style="fill:#000000;fill-opacity:0.18721463;fill-rule:nonzero;stroke:none"
       d="m 1.0459761,1041.8066 0,7.4219 c 0,1.7392 1.461916,3.1337 3.2852054,3.1337 l 86.3836135,0 c 1.823288,0 3.285205,-1.3945 3.285205,-3.1337 l 0,-7.4219 -92.9540239,0 z"
       id="rect3785"
       inkscape:connector-curvature="0" />
    <path
       style="fill:#000000;fill-opacity:0.38356168;fill-rule:nonzero;stroke:none"
       d="m 1.0459761,1041.8066 0,5.3807 c 0,1.762 1.461916,3.1749 3.2852054,3.1749 l 86.3836135,0 c 1.823288,0 3.285205,-1.4129 3.285205,-3.1749 l 0,-5.3807 -92.9540239,0 z"
       id="rect3783"
       inkscape:connector-curvature="0" />
    <rect
       style="fill:url(#linearGradient3772);fill-opacity:1;fill-rule:nonzero;stroke:none"
       id="rect2985"
       width="92.954025"
       height="89"
       x="1.045977"
       y="-1046.3622"
       ry="3.1511393"
       transform="scale(1,-1)" />
    <path
       style="fill:#000000;fill-opacity:0.38356168;fill-rule:nonzero;stroke:none"
       d="m 1,1042.3622 0.045976,2.7457 c 0.03024,1.8058 1.461916,3.2543 3.2852054,3.2543 l 86.3836136,0 c 1.823288,0 3.285205,-1.4481 3.285205,-3.2543 l -0.04598,-2.7457 z"
       id="rect3781"
       inkscape:connector-curvature="0"
       sodipodi:nodetypes="csssscc" />
    <rect
       style="fill:#ffffff;fill-opacity:0.30000001;fill-rule:nonzero;stroke:none"
       id="rect3770"
       width="92.954033"
       height="2.000005"
       x="1.045976"
       y="1040.3622" />
    <path
       style="fill:#fff8f9;fill-opacity:1;fill-rule:nonzero;stroke:none"
       d="m 32.337418,982.36218 c -5.543939,0 -10.21442,4.82307 -10.21442,11.31606 0,0.8534 0.04622,1.61949 0.17672,2.31303 a 4.898808,4.9322211 0 0 1 -4.912818,5.87153 c 0.0325,7e-4 -0.0025,-10e-5 -0.17672,0 -3.863886,0 -7.21018,3.3915 -7.21018,8.0778 0,4.6863 3.346294,8.0778 7.21018,8.0778 3.863884,0 7.210178,-3.3915 7.210178,-8.0778 0,-0.1843 -9.75e-4,-0.2557 0,-0.2135 a 4.898808,4.9322211 0 0 1 5.937794,-4.9107 c 0.640687,0.139 1.287809,0.1779 1.979266,0.1779 0.691456,0 1.397764,-0.044 2.014608,-0.1779 a 4.898808,4.9322211 0 0 1 5.937794,4.9107 c 9.28e-4,-0.04 0,0.029 0,0.2135 0,4.6863 3.346296,8.0778 7.21018,8.0778 3.863884,0 7.21018,-3.3915 7.21018,-8.0778 0,-0.1843 -9.77e-4,-0.2557 0,-0.2135 a 4.898808,4.9322211 0 0 1 5.937794,-4.9107 c 0.616844,0.1339 1.323152,0.1779 2.014608,0.1779 0.691456,0 1.338579,-0.039 1.979266,-0.1779 a 4.898808,4.9322211 0 0 1 5.937794,4.9107 c 9.28e-4,-0.04 0,0.029 0,0.2135 0,4.6863 3.346294,8.0778 7.210178,8.0778 3.863886,0 7.21018,-3.3915 7.21018,-8.0778 0,-4.6863 -3.346294,-8.0778 -7.21018,-8.0778 -0.174143,0 -0.209235,7e-4 -0.17672,0 a 4.898808,4.9322211 0 0 1 -4.912818,-5.87153 c 0.130499,-0.69354 0.17672,-1.45963 0.17672,-2.31303 0,-6.49299 -4.670481,-11.31606 -10.21442,-11.31606 -5.543936,0 -10.249764,4.83609 -10.249764,11.31606 0,0.74793 0.06162,1.5135 0.212064,2.31303 a 4.898808,4.9322211 0 0 1 -4.912818,5.87153 c 0.05836,0 -0.03792,0 -0.212064,0 -0.174145,0 -0.270443,0 -0.212064,0 a 4.898808,4.9322211 0 0 1 -4.912818,-5.87153 c 0.150443,-0.79953 0.212064,-1.5651 0.212064,-2.31303 0,-6.47997 -4.705828,-11.31606 -10.249764,-11.31606 z"
       id="path3785"
       inkscape:connector-curvature="0" />
  </g>
</svg>
