<?xml version="1.0" encoding="UTF-8" standalone="no"?>
<!-- Created with Inkscape (http://www.inkscape.org/) -->

<svg
   xmlns:dc="http://purl.org/dc/elements/1.1/"
   xmlns:cc="http://creativecommons.org/ns#"
   xmlns:rdf="http://www.w3.org/1999/02/22-rdf-syntax-ns#"
   xmlns:svg="http://www.w3.org/2000/svg"
   xmlns="http://www.w3.org/2000/svg"
   xmlns:xlink="http://www.w3.org/1999/xlink"
   xmlns:sodipodi="http://sodipodi.sourceforge.net/DTD/sodipodi-0.dtd"
   xmlns:inkscape="http://www.inkscape.org/namespaces/inkscape"
   width="96"
   height="96"
   id="svg2"
   version="1.1"
   inkscape:version="0.48.4 r9939"
   sodipodi:docname="mixxx.svg">
  <defs
     id="defs4">
    <radialGradient
       inkscape:collect="always"
       xlink:href="#linearGradient3967"
       id="radialGradient3100"
       gradientUnits="userSpaceOnUse"
       gradientTransform="matrix(2.7806552,0.03277279,-0.00606633,0.51470626,-85.626186,21.65215)"
       cx="48.25"
       cy="47.875"
       fx="48.25"
       fy="47.875"
       r="50.875" />
    <linearGradient
       id="linearGradient3967">
      <stop
         style="stop-color:#a1002d;stop-opacity:1;"
         offset="0"
         id="stop3969" />
      <stop
         style="stop-color:#550000;stop-opacity:1;"
         offset="1"
         id="stop3971" />
    </linearGradient>
    <radialGradient
       inkscape:collect="always"
       xlink:href="#linearGradient3967"
       id="radialGradient3102"
       gradientUnits="userSpaceOnUse"
       gradientTransform="matrix(2.7806552,0.03277279,-0.00606633,0.51470626,-85.626186,21.65215)"
       cx="48.25"
       cy="47.875"
       fx="48.25"
       fy="47.875"
       r="50.875" />
    <radialGradient
       inkscape:collect="always"
       xlink:href="#linearGradient3967"
       id="radialGradient3104"
       gradientUnits="userSpaceOnUse"
       gradientTransform="matrix(2.7806552,0.03277279,-0.00606633,0.51470626,-85.626186,21.65215)"
       cx="48.25"
       cy="47.875"
       fx="48.25"
       fy="47.875"
       r="50.875" />
    <radialGradient
       inkscape:collect="always"
       xlink:href="#linearGradient3967"
       id="radialGradient3106"
       gradientUnits="userSpaceOnUse"
       gradientTransform="matrix(2.7806552,0.03277279,-0.00606633,0.51470626,-85.626186,21.65215)"
       cx="48.25"
       cy="47.875"
       fx="48.25"
       fy="47.875"
       r="50.875" />
    <linearGradient
       inkscape:collect="always"
       xlink:href="#linearGradient4010"
       id="linearGradient3108"
       gradientUnits="userSpaceOnUse"
       gradientTransform="matrix(0.85705202,0,0,0.75787908,-6.6013292,72.1271)"
       x1="57.063118"
       y1="1.7557522"
       x2="57.116581"
       y2="-68.02124" />
    <linearGradient
       id="linearGradient4010">
      <stop
         id="stop4012"
         offset="0"
         style="stop-color:#000000;stop-opacity:1;" />
      <stop
         id="stop4014"
         offset="1"
         style="stop-color:#262626;stop-opacity:1;" />
    </linearGradient>
    <linearGradient
       inkscape:collect="always"
       xlink:href="#linearGradient4010"
       id="linearGradient3110"
       gradientUnits="userSpaceOnUse"
       gradientTransform="matrix(0.85705202,0,0,0.75787908,-6.6013292,72.1271)"
       x1="57.063118"
       y1="1.7557522"
       x2="57.116581"
       y2="-68.02124" />
    <linearGradient
       inkscape:collect="always"
       xlink:href="#linearGradient4010"
       id="linearGradient3112"
       gradientUnits="userSpaceOnUse"
       gradientTransform="matrix(0.85705202,0,0,0.75787908,-6.6013292,72.1271)"
       x1="57.063118"
       y1="1.7557522"
       x2="57.116581"
       y2="-68.02124" />
  </defs>
  <sodipodi:namedview
     id="base"
     pagecolor="#ffffff"
     bordercolor="#666666"
     borderopacity="1.0"
     inkscape:pageopacity="0.0"
     inkscape:pageshadow="2"
     inkscape:zoom="5.90625"
     inkscape:cx="48"
     inkscape:cy="48"
     inkscape:document-units="px"
     inkscape:current-layer="layer1"
     showgrid="true"
     inkscape:snap-page="true"
     inkscape:snap-global="true"
     inkscape:snap-center="true"
     inkscape:snap-object-midpoints="false"
     showguides="true"
     inkscape:guide-bbox="true"
     inkscape:snap-bbox="true"
     inkscape:object-paths="true"
     inkscape:object-nodes="true"
     inkscape:window-width="1305"
     inkscape:window-height="744"
     inkscape:window-x="61"
     inkscape:window-y="24"
     inkscape:window-maximized="1"
     inkscape:snap-midpoints="true"
     inkscape:snap-grids="true"
     inkscape:snap-to-guides="false">
    <inkscape:grid
       type="xygrid"
       id="grid3002"
       empspacing="5"
       visible="true"
       enabled="true"
       snapvisiblegridlinesonly="true" />
  </sodipodi:namedview>
  <metadata
     id="metadata7">
    <rdf:RDF>
      <cc:Work
         rdf:about="">
        <dc:format>image/svg+xml</dc:format>
        <dc:type
           rdf:resource="http://purl.org/dc/dcmitype/StillImage" />
        <dc:title />
      </cc:Work>
    </rdf:RDF>
  </metadata>
  <g
     inkscape:label="Layer 1"
     inkscape:groupmode="layer"
     id="layer1"
     transform="translate(0,-956.36218)">
    <rect
       style="fill:#ffffff;fill-opacity:0;fill-rule:nonzero;stroke:none"
       id="rect3775"
       width="96"
       height="96"
       x="0"
       y="956.36218"
       ry="0" />
    <path
       style="fill:#000000;fill-opacity:0.09589041;fill-rule:nonzero;stroke:none"
       d="m 3.353015,956.30662 c -1.884176,0 -3.4111555,1.43156 -3.4111555,3.19799 l 0,83.65949 c 0,1.7665 1.5269795,3.1981 3.4111555,3.1981 l 89.23583,0 c 1.884174,0 3.411155,-1.4316 3.411155,-3.1981 l 0,-83.65949 c 0,-1.76643 -1.526981,-3.19799 -3.411155,-3.19799 z"
       id="rect3772"
       inkscape:connector-curvature="0"
       sodipodi:nodetypes="sssssssss" />
    <path
       style="fill:#000000;fill-opacity:0.18721463;fill-rule:nonzero;stroke:none"
       d="m 1.0459761,1041.8066 0,7.4219 c 0,1.7392 1.461916,3.1337 3.2852054,3.1337 l 86.3836135,0 c 1.823288,0 3.285205,-1.3945 3.285205,-3.1337 l 0,-7.4219 -92.9540239,0 z"
       id="rect3785"
       inkscape:connector-curvature="0" />
    <path
       style="fill:#000000;fill-opacity:0.38356168;fill-rule:nonzero;stroke:none"
       d="m 1.0459761,1041.8066 0,5.3807 c 0,1.762 1.461916,3.1749 3.2852054,3.1749 l 86.3836135,0 c 1.823288,0 3.285205,-1.4129 3.285205,-3.1749 l 0,-5.3807 -92.9540239,0 z"
       id="rect3783"
       inkscape:connector-curvature="0" />
    <rect
       style="fill:#333333;fill-opacity:1;fill-rule:nonzero;stroke:none"
       id="rect2985-4"
       width="93"
       height="89"
       x="1.0000019"
       y="957.36218"
       ry="3.1511395" />
    <g
       id="g4001"
       transform="matrix(1.0108696,0,0,1.0417664,-1.2744565,-48.318386)">
      <path
         transform="translate(0,956.3622)"
         id="path3986"
         d="m 53.09375,21.6875 20.09375,52.375 10.4375,0 -20.125,-52.375 -10.40625,0 z"
         style="fill:url(#radialGradient3100);fill-opacity:1;stroke:none"
         inkscape:connector-curvature="0" />
      <path
         transform="translate(0,956.3622)"
         id="path3984"
         d="M 12.875,21.6875 33,74.0625 l 10.40625,0 -20.09375,-52.375 -10.4375,0 z m 20.125,0 20.09375,52.375 10.40625,0 -20.09375,-52.375 -10.40625,0 z"
         style="fill:url(#radialGradient3102);fill-opacity:1;stroke:none"
         inkscape:connector-curvature="0" />
      <path
         transform="translate(0,956.3622)"
         id="path3980"
         d="m 94.0625,71.9375 c 0.0015,-0.0206 -0.0015,-0.0419 0,-0.0625 0.13191,-1.8638 0.1875,-3.72305 0.1875,-5.46875 l 0,-17 -10.65625,-27.71875 -10.40625,0 19.84375,51.75 c 0.357458,-0.488677 0.683533,-1.000671 1.03125,-1.5 z"
         style="fill:url(#radialGradient3104);fill-opacity:1;stroke:none"
         inkscape:connector-curvature="0" />
      <path
         transform="translate(0,956.3622)"
         id="rect3925"
         d="m 2.4375,23.8125 c -0.00148,0.0206 0.00146,0.0419 0,0.0625 C 2.30559,25.73881 2.25,27.56673 2.25,29.3125 l 0,17.03125 10.65625,27.71875 10.40625,0 -19.84375,-51.75 c -0.3574571,0.488682 -0.6835332,1.000663 -1.03125,1.5 z"
         style="fill:url(#radialGradient3106);fill-opacity:1;stroke:none"
         inkscape:connector-curvature="0" />
      <path
         transform="translate(0,956.3622)"
         id="path3999"
         d="M 53.09375,21.6875 33,74.0625 l 10.40625,0 20.09375,-52.375 -10.40625,0 z m 20.09375,0 -20.09375,52.375 10.40625,0 20.125,-52.375 -10.4375,0 z"
         style="fill:url(#linearGradient3108);fill-opacity:1;stroke:none"
         inkscape:connector-curvature="0" />
      <path
         transform="translate(0,956.3622)"
         id="path3995"
         d="m 94.25,46.34375 0,-17.03125 c 0,-1.74577 -0.05559,-3.57369 -0.1875,-5.4375 -0.0015,-0.0206 0.0015,-0.0419 0,-0.0625 -0.347717,-0.499337 -0.673792,-1.011318 -1.03125,-1.5 l -19.84375,51.75 10.40625,0 L 94.25,46.34375 z"
         style="fill:url(#linearGradient3110);fill-opacity:1;stroke:none"
         inkscape:connector-curvature="0" />
      <path
         transform="translate(0,956.3622)"
         id="rect3153"
         d="m 2.25,49.40625 0,17 c 0,1.7457 0.05559,3.60495 0.1875,5.46875 0.00146,0.0206 -0.00148,0.0419 0,0.0625 0.3477168,0.499329 0.6737929,1.011323 1.03125,1.5 l 19.84375,-51.75 -10.40625,0 L 2.25,49.40625 z M 33,21.6875 l -20.125,52.375 10.4375,0 20.09375,-52.375 -10.40625,0 z"
         style="fill:url(#linearGradient3112);fill-opacity:1;stroke:none"
         inkscape:connector-curvature="0" />
    </g>
    <path
       style="fill:#000000;fill-opacity:0.38356168;fill-rule:nonzero;stroke:none"
       d="m 1,1042.3622 0.045976,2.7457 c 0.03024,1.8058 1.461916,3.2543 3.2852054,3.2543 l 86.3836136,0 c 1.823288,0 3.285205,-1.4481 3.285205,-3.2543 l -0.04598,-2.7457 z"
       id="rect3781"
       inkscape:connector-curvature="0"
       sodipodi:nodetypes="csssscc" />
    <rect
       style="fill:#ffffff;fill-opacity:0.37442923;fill-rule:nonzero;stroke:none"
       id="rect3770"
       width="92.954033"
       height="2.000005"
       x="1.045976"
       y="1040.3622" />
  </g>
</svg>
