<?xml version="1.0" encoding="UTF-8" standalone="no"?>
<!-- Created with Inkscape (http://www.inkscape.org/) -->

<svg
   xmlns:dc="http://purl.org/dc/elements/1.1/"
   xmlns:cc="http://creativecommons.org/ns#"
   xmlns:rdf="http://www.w3.org/1999/02/22-rdf-syntax-ns#"
   xmlns:svg="http://www.w3.org/2000/svg"
   xmlns="http://www.w3.org/2000/svg"
   xmlns:xlink="http://www.w3.org/1999/xlink"
   xmlns:sodipodi="http://sodipodi.sourceforge.net/DTD/sodipodi-0.dtd"
   xmlns:inkscape="http://www.inkscape.org/namespaces/inkscape"
   width="96"
   height="96"
   id="svg2"
   version="1.1"
   inkscape:version="0.48.4 r9939"
   sodipodi:docname="monodoc-browser.svg">
  <defs
     id="defs4">
    <linearGradient
       id="linearGradient3788">
      <stop
         style="stop-color:#0072c6;stop-opacity:1;"
         offset="0"
         id="stop3790" />
      <stop
         style="stop-color:#008fc6;stop-opacity:1;"
         offset="1"
         id="stop3793" />
    </linearGradient>
    <linearGradient
       inkscape:collect="always"
       xlink:href="#linearGradient3788"
       id="linearGradient3795"
       x1="40"
       y1="1047.3622"
       x2="40"
       y2="957.36218"
       gradientUnits="userSpaceOnUse" />
  </defs>
  <sodipodi:namedview
     id="base"
     pagecolor="#ffffff"
     bordercolor="#666666"
     borderopacity="1.0"
     inkscape:pageopacity="0.0"
     inkscape:pageshadow="2"
     inkscape:zoom="2.953125"
     inkscape:cx="-42.37037"
     inkscape:cy="48"
     inkscape:document-units="px"
     inkscape:current-layer="layer1"
     showgrid="true"
     inkscape:snap-page="true"
     inkscape:snap-global="true"
     inkscape:snap-center="true"
     inkscape:snap-object-midpoints="false"
     showguides="true"
     inkscape:guide-bbox="true"
     inkscape:snap-bbox="true"
     inkscape:object-paths="true"
     inkscape:object-nodes="true"
     inkscape:window-width="1305"
     inkscape:window-height="744"
     inkscape:window-x="61"
     inkscape:window-y="24"
     inkscape:window-maximized="1"
     inkscape:snap-midpoints="false"
     inkscape:snap-grids="true"
     inkscape:snap-to-guides="false">
    <inkscape:grid
       type="xygrid"
       id="grid3002"
       empspacing="5"
       visible="true"
       enabled="true"
       snapvisiblegridlinesonly="true" />
  </sodipodi:namedview>
  <metadata
     id="metadata7">
    <rdf:RDF>
      <cc:Work
         rdf:about="">
        <dc:format>image/svg+xml</dc:format>
        <dc:type
           rdf:resource="http://purl.org/dc/dcmitype/StillImage" />
        <dc:title />
      </cc:Work>
    </rdf:RDF>
  </metadata>
  <g
     inkscape:label="Layer 1"
     inkscape:groupmode="layer"
     id="layer1"
     transform="translate(0,-956.36218)">
    <rect
       style="fill:#ffffff;fill-opacity:0;fill-rule:nonzero;stroke:none"
       id="rect3775"
       width="96"
       height="96"
       x="0"
       y="956.36218"
       ry="0" />
    <path
       style="fill:#000000;fill-opacity:0.09589041;fill-rule:nonzero;stroke:none"
       d="m 3.353015,956.30662 c -1.884176,0 -3.4111555,1.43156 -3.4111555,3.19799 l 0,83.65949 c 0,1.7665 1.5269795,3.1981 3.4111555,3.1981 l 89.23583,0 c 1.884174,0 3.411155,-1.4316 3.411155,-3.1981 l 0,-83.65949 c 0,-1.76643 -1.526981,-3.19799 -3.411155,-3.19799 z"
       id="rect3772"
       inkscape:connector-curvature="0"
       sodipodi:nodetypes="sssssssss" />
    <path
       style="fill:#000000;fill-opacity:0.18721463;fill-rule:nonzero;stroke:none"
       d="m 1.0459761,1041.8066 0,7.4219 c 0,1.7392 1.461916,3.1337 3.2852054,3.1337 l 86.3836135,0 c 1.823288,0 3.285205,-1.3945 3.285205,-3.1337 l 0,-7.4219 -92.9540239,0 z"
       id="rect3785"
       inkscape:connector-curvature="0" />
    <path
       style="fill:#000000;fill-opacity:0.38356168;fill-rule:nonzero;stroke:none"
       d="m 1.0459761,1041.8066 0,5.3807 c 0,1.762 1.461916,3.1749 3.2852054,3.1749 l 86.3836135,0 c 1.823288,0 3.285205,-1.4129 3.285205,-3.1749 l 0,-5.3807 -92.9540239,0 z"
       id="rect3783"
       inkscape:connector-curvature="0" />
    <rect
       style="fill:url(#linearGradient3795);fill-opacity:1;fill-rule:nonzero;stroke:none"
       id="rect2985"
       width="92.954025"
       height="89"
       x="1.045977"
       y="957.36218"
       ry="3.1511393" />
    <path
       style="fill:#000000;fill-opacity:0.38356168;fill-rule:nonzero;stroke:none"
       d="m 1,1042.3622 0.045976,2.7457 c 0.03024,1.8058 1.461916,3.2543 3.2852054,3.2543 l 86.3836136,0 c 1.823288,0 3.285205,-1.4481 3.285205,-3.2543 l -0.04598,-2.7457 z"
       id="rect3781"
       inkscape:connector-curvature="0"
       sodipodi:nodetypes="csssscc" />
    <rect
       style="fill:#ffffff;fill-opacity:0.30000001;fill-rule:nonzero;stroke:none"
       id="rect3770"
       width="92.954033"
       height="2.000005"
       x="1.045976"
       y="1040.3622" />
    <path
       style="fill:#ffffff;fill-opacity:1;fill-rule:nonzero;stroke:none"
       d="m 20,1032.3622 c -2.758152,0 -4.994083,-2.1963 -4.994083,-4.9057 0,-2.7093 2.235931,-4.9056 4.994083,-4.9056 2.758152,0 4.994083,2.1963 4.994083,4.9056 0,2.7094 -2.235931,4.9057 -4.994083,4.9057 z m 11.985799,0 c -2.758152,0 -4.994083,-2.1963 -4.994083,-4.9057 0,-2.7093 2.235931,-4.9056 4.994083,-4.9056 2.758152,0 4.994082,2.1963 4.994082,4.9056 0,2.7094 -2.23593,4.9057 -4.994082,4.9057 z m 11.985798,0 c -2.758155,0 -4.994082,-2.1963 -4.994082,-4.9057 0,-2.7093 2.235927,-4.9056 4.994082,-4.9056 2.758157,0 4.994083,2.1963 4.994083,4.9056 0,2.7094 -2.235926,4.9057 -4.994083,4.9057 z m 11.9858,0 c -2.758157,0 -4.994083,-2.1963 -4.994083,-4.9057 0,-2.7093 2.235926,-4.9056 4.994083,-4.9056 2.758155,0 4.994083,2.1963 4.994083,4.9056 0,2.7094 -2.235928,4.9057 -4.994083,4.9057 z m 11.985798,0 c -2.758156,0 -4.994083,-2.1963 -4.994083,-4.9057 0,-2.7093 2.235927,-4.9056 4.994083,-4.9056 2.758156,0 4.994083,2.1963 4.994083,4.9056 0,2.7094 -2.235927,4.9057 -4.994083,4.9057 z m 11.985799,0 c -2.758156,0 -4.994083,-2.1963 -4.994083,-4.9057 0,-2.7093 2.235927,-4.9056 4.994083,-4.9056 2.758157,0 4.994083,2.1963 4.994083,4.9056 0,2.7094 -2.235926,4.9057 -4.994083,4.9057 z M 20,1019.5462 c -2.188258,0 -3.93284,-1.7137 -3.93284,-3.8632 0,-2.1495 1.744582,-3.8632 3.93284,-3.8632 2.188258,0 3.93284,1.7137 3.93284,3.8632 0,2.1495 -1.744582,3.8632 -3.93284,3.8632 z m 11.985799,0 c -2.188257,0 -3.932841,-1.7137 -3.932841,-3.8632 0,-2.1495 1.744584,-3.8632 3.932841,-3.8632 2.188257,0 3.93284,1.7137 3.93284,3.8632 0,2.1495 -1.744583,3.8632 -3.93284,3.8632 z m 11.985798,0 c -2.188254,0 -3.93284,-1.7137 -3.93284,-3.8632 0,-2.1495 1.744586,-3.8632 3.93284,-3.8632 2.188256,0 3.932841,1.7137 3.932841,3.8632 0,2.1495 -1.744585,3.8632 -3.932841,3.8632 z m 11.9858,0 c -2.188256,0 -3.932841,-1.7137 -3.932841,-3.8632 0,-2.1495 1.744585,-3.8632 3.932841,-3.8632 2.188254,0 3.93284,1.7137 3.93284,3.8632 0,2.1495 -1.744586,3.8632 -3.93284,3.8632 z m 11.985798,0 c -2.188255,0 -3.93284,-1.7137 -3.93284,-3.8632 0,-2.1495 1.744585,-3.8632 3.93284,-3.8632 2.188255,0 3.93284,1.7137 3.93284,3.8632 0,2.1495 -1.744585,3.8632 -3.93284,3.8632 z m 11.985799,0 c -2.188256,0 -3.93284,-1.7137 -3.93284,-3.8632 0,-2.1495 1.744584,-3.8632 3.93284,-3.8632 2.188256,0 3.93284,1.7137 3.93284,3.8632 0,2.1495 -1.744584,3.8632 -3.93284,3.8632 z M 20,1007.1287 c -1.83135,0 -3.277367,-1.4204 -3.277367,-3.2193 0,-1.7989 1.446027,-3.2194 3.277367,-3.2194 1.83134,0 3.277367,1.4205 3.277367,3.2194 0,1.7989 -1.446017,3.2193 -3.277367,3.2193 z m 11.985799,0 c -1.83135,0 -3.277367,-1.4204 -3.277367,-3.2193 0,-1.7989 1.446026,-3.2194 3.277367,-3.2194 1.83134,0 3.277367,1.4205 3.277367,3.2194 0,1.7989 -1.446017,3.2193 -3.277367,3.2193 z m 11.985798,0 c -1.831348,0 -3.277366,-1.4204 -3.277366,-3.2193 0,-1.7989 1.446027,-3.2194 3.277366,-3.2194 1.831339,0 3.277367,1.4205 3.277367,3.2194 0,1.7989 -1.446018,3.2193 -3.277367,3.2193 z m 11.9858,0 c -1.831348,0 -3.277367,-1.4204 -3.277367,-3.2193 0,-1.7989 1.446028,-3.2194 3.277367,-3.2194 1.831339,0 3.277366,1.4205 3.277366,3.2194 0,1.7989 -1.446018,3.2193 -3.277366,3.2193 z m 11.985798,0 c -1.831348,0 -3.277367,-1.4204 -3.277367,-3.2193 0,-1.7989 1.446028,-3.2194 3.277367,-3.2194 1.83134,0 3.277368,1.4205 3.277368,3.2194 0,1.7989 -1.44602,3.2193 -3.277368,3.2193 z m 11.985799,0 c -1.831348,0 -3.277367,-1.4204 -3.277367,-3.2193 0,-1.7989 1.446028,-3.2194 3.277367,-3.2194 1.831339,0 3.277367,1.4205 3.277367,3.2194 0,1.7989 -1.446019,3.2193 -3.277367,3.2193 z M 20,994.74198 c -1.499344,0 -2.653107,-1.1335 -2.653107,-2.6062 0,-1.4729 1.153703,-2.6061 2.653107,-2.6061 1.499404,0 2.653107,1.1332 2.653107,2.6061 0,1.4727 -1.153664,2.6061 -2.653107,2.6062 z m 11.985799,0 c -1.499343,0 -2.653107,-1.1335 -2.653107,-2.6062 0,-1.4729 1.153704,-2.6061 2.653107,-2.6061 1.499403,0 2.653106,1.1332 2.653106,2.6061 0,1.4727 -1.153663,2.6061 -2.653106,2.6062 z m 11.985798,0 c -1.499344,0 -2.653105,-1.1335 -2.653105,-2.6062 0,-1.4729 1.153705,-2.6061 2.653105,-2.6061 1.499401,0 2.653107,1.1332 2.653107,2.6061 0,1.4727 -1.15366,2.6061 -2.653107,2.6062 z m 11.9858,0 c -1.499345,0 -2.653107,-1.1335 -2.653107,-2.6062 0,-1.4729 1.153706,-2.6061 2.653107,-2.6061 1.4994,0 2.653106,1.1332 2.653106,2.6061 0,1.4727 -1.15366,2.6061 -2.653106,2.6062 z m 11.985798,0 c -1.499344,0 -2.653106,-1.1335 -2.653106,-2.6062 0,-1.4729 1.153705,-2.6061 2.653106,-2.6061 1.4994,0 2.653107,1.1332 2.653107,2.6061 0,1.4727 -1.15366,2.6061 -2.653107,2.6062 z m 11.985799,0 c -1.499345,0 -2.653107,-1.1335 -2.653107,-2.6062 0,-1.4729 1.153707,-2.6061 2.653107,-2.6061 1.499401,0 2.653107,1.1332 2.653107,2.6061 0,1.4727 -1.153661,2.6061 -2.653107,2.6062 z M 20,982.29388 c -1.117476,0 -1.966421,-0.8342 -1.966421,-1.9317 0,-1.0978 0.849005,-1.9315 1.966421,-1.9315 1.117615,0 1.96642,0.8335 1.96642,1.9315 0,1.0975 -0.848944,1.9317 -1.96642,1.9317 z m 11.985799,0 c -1.117476,0 -1.96642,-0.8342 -1.96642,-1.9317 0,-1.0978 0.849004,-1.9315 1.96642,-1.9315 1.117615,0 1.96642,0.8335 1.96642,1.9315 0,1.0975 -0.848945,1.9317 -1.96642,1.9317 z m 11.985798,0 c -1.117471,0 -1.966419,-0.8342 -1.966419,-1.9317 0,-1.0978 0.849007,-1.9315 1.966419,-1.9315 1.117619,0 1.966421,0.8335 1.966421,1.9315 0,1.0975 -0.848949,1.9317 -1.966421,1.9317 z m 11.9858,0 c -1.117472,0 -1.966421,-0.8342 -1.966421,-1.9317 0,-1.0978 0.849008,-1.9315 1.966421,-1.9315 1.117617,0 1.966419,0.8335 1.966419,1.9315 0,1.0975 -0.848948,1.9317 -1.966419,1.9317 z m 11.985798,0 c -1.11747,0 -1.96642,-0.8342 -1.96642,-1.9317 0,-1.0978 0.849008,-1.9315 1.96642,-1.9315 1.117618,0 1.96642,0.8335 1.96642,1.9315 0,1.0975 -0.848949,1.9317 -1.96642,1.9317 z m 11.985799,0 c -1.117471,0 -1.966421,-0.8342 -1.966421,-1.9317 0,-1.0978 0.849009,-1.9315 1.966421,-1.9315 1.117618,0 1.966421,0.8335 1.966421,1.9315 0,1.0975 -0.84895,1.9317 -1.966421,1.9317 z M 20,969.81498 c -0.735349,0 -1.24852,-0.5041 -1.24852,-1.2264 0,-0.7225 0.513082,-1.2264 1.24852,-1.2264 0.735438,0 1.24852,0.5039 1.24852,1.2264 0,0.7223 -0.513172,1.2264 -1.24852,1.2264 z m 11.985799,0 c -0.735349,0 -1.248521,-0.5041 -1.248521,-1.2264 0,-0.7225 0.513082,-1.2264 1.248521,-1.2264 0.735439,0 1.248521,0.5039 1.248521,1.2264 0,0.7223 -0.513173,1.2264 -1.248521,1.2264 z m 11.985798,0 c -0.73535,0 -1.24852,-0.5041 -1.24852,-1.2264 0,-0.7225 0.513079,-1.2264 1.24852,-1.2264 0.735442,0 1.248521,0.5039 1.248521,1.2264 0,0.7223 -0.513169,1.2264 -1.248521,1.2264 z m 11.9858,0 c -0.735352,0 -1.248521,-0.5041 -1.248521,-1.2264 0,-0.7225 0.513079,-1.2264 1.248521,-1.2264 0.735441,0 1.24852,0.5039 1.24852,1.2264 0,0.7223 -0.51317,1.2264 -1.24852,1.2264 z m 11.985798,0 c -0.73535,0 -1.248521,-0.5041 -1.248521,-1.2264 0,-0.7225 0.513079,-1.2264 1.248521,-1.2264 0.735441,0 1.248521,0.5039 1.248521,1.2264 0,0.7223 -0.51317,1.2264 -1.248521,1.2264 z m 11.985799,0 c -0.735351,0 -1.24852,-0.5041 -1.24852,-1.2264 0,-0.7225 0.513079,-1.2264 1.24852,-1.2264 0.735442,0 1.248521,0.5039 1.248521,1.2264 0,0.7223 -0.51317,1.2264 -1.248521,1.2264 z"
       id="path3791"
       inkscape:connector-curvature="0" />
  </g>
</svg>
