<?xml version="1.0" encoding="UTF-8" standalone="no"?>
<!-- Created with Inkscape (http://www.inkscape.org/) -->

<svg
   xmlns:dc="http://purl.org/dc/elements/1.1/"
   xmlns:cc="http://creativecommons.org/ns#"
   xmlns:rdf="http://www.w3.org/1999/02/22-rdf-syntax-ns#"
   xmlns:svg="http://www.w3.org/2000/svg"
   xmlns="http://www.w3.org/2000/svg"
   xmlns:xlink="http://www.w3.org/1999/xlink"
   xmlns:sodipodi="http://sodipodi.sourceforge.net/DTD/sodipodi-0.dtd"
   xmlns:inkscape="http://www.inkscape.org/namespaces/inkscape"
   width="96"
   height="96"
   id="svg2"
   version="1.1"
   inkscape:version="0.48.4 r9939"
   sodipodi:docname="multisystem.svg">
  <defs
     id="defs4">
    <linearGradient
       id="linearGradient3791">
      <stop
         id="stop3793"
         offset="0"
         style="stop-color:#356a00;stop-opacity:1;" />
      <stop
         id="stop3795"
         offset="1"
         style="stop-color:#262626;stop-opacity:0;" />
    </linearGradient>
    <linearGradient
       id="linearGradient3781">
      <stop
         style="stop-color:#6a3000;stop-opacity:1;"
         offset="0"
         id="stop3783" />
      <stop
         style="stop-color:#262626;stop-opacity:0;"
         offset="1"
         id="stop3785" />
    </linearGradient>
    <linearGradient
       id="linearGradient3769">
      <stop
         id="stop3771"
         offset="0"
         style="stop-color:#6a0041;stop-opacity:1;" />
      <stop
         id="stop3773"
         offset="1"
         style="stop-color:#262626;stop-opacity:0;" />
    </linearGradient>
    <linearGradient
       id="linearGradient3787">
      <stop
         style="stop-color:#57006a;stop-opacity:1;"
         offset="0"
         id="stop3789" />
      <stop
         style="stop-color:#262626;stop-opacity:0;"
         offset="1"
         id="stop3791" />
    </linearGradient>
    <radialGradient
       inkscape:collect="always"
       xlink:href="#linearGradient3787"
       id="radialGradient2997"
       gradientUnits="userSpaceOnUse"
       gradientTransform="matrix(1,0,0,0.95746257,0,42.616642)"
       cx="0"
       cy="1049.3837"
       fx="0"
       fy="1049.3837"
       r="46.477013" />
    <radialGradient
       inkscape:collect="always"
       xlink:href="#linearGradient3769"
       id="radialGradient3775"
       gradientUnits="userSpaceOnUse"
       gradientTransform="matrix(1,0,0,0.95746257,0,42.616642)"
       cx="0"
       cy="955.38519"
       fx="0"
       fy="955.38519"
       r="46.477013" />
    <radialGradient
       inkscape:collect="always"
       xlink:href="#linearGradient3781"
       id="radialGradient3779"
       gradientUnits="userSpaceOnUse"
       gradientTransform="matrix(1,0,0,0.95746257,0,42.616642)"
       cx="95"
       cy="955.38519"
       fx="95"
       fy="955.38519"
       r="46.477013" />
    <radialGradient
       inkscape:collect="always"
       xlink:href="#linearGradient3791"
       id="radialGradient3789"
       gradientUnits="userSpaceOnUse"
       gradientTransform="matrix(1,0,0,0.95746257,0,42.616642)"
       cx="95"
       cy="1049.3837"
       fx="95"
       fy="1049.3837"
       r="46.477013" />
    <linearGradient
       id="linearGradient4303">
      <stop
         style="stop-color:#f7e94c;stop-opacity:1;"
         offset="0"
         id="stop4305" />
      <stop
         style="stop-color:#bfb108;stop-opacity:1;"
         offset="1"
         id="stop4307" />
    </linearGradient>
    <radialGradient
       inkscape:collect="always"
       xlink:href="#linearGradient4303"
       id="radialGradient3266"
       gradientUnits="userSpaceOnUse"
       gradientTransform="matrix(1.3276066,2.5923995e-8,-2.5488343e-8,1.3052962,-15.330963,-14.763935)"
       cx="46.796875"
       cy="48.359375"
       fx="46.796875"
       fy="48.359375"
       r="30.015625" />
    <radialGradient
       inkscape:collect="always"
       xlink:href="#linearGradient4303"
       id="radialGradient3268"
       gradientUnits="userSpaceOnUse"
       gradientTransform="matrix(1.3276066,2.5923995e-8,-2.5488343e-8,1.3052962,-15.330963,-14.763935)"
       cx="46.796875"
       cy="48.359375"
       fx="46.796875"
       fy="48.359375"
       r="30.015625" />
    <radialGradient
       inkscape:collect="always"
       xlink:href="#linearGradient4303"
       id="radialGradient3270"
       gradientUnits="userSpaceOnUse"
       gradientTransform="matrix(1.3276066,2.5923995e-8,-2.5488343e-8,1.3052962,-15.330963,-14.763935)"
       cx="46.796875"
       cy="48.359375"
       fx="46.796875"
       fy="48.359375"
       r="30.015625" />
    <radialGradient
       inkscape:collect="always"
       xlink:href="#linearGradient4303"
       id="radialGradient3273"
       gradientUnits="userSpaceOnUse"
       gradientTransform="matrix(1.3276066,2.5923995e-8,-2.5488343e-8,1.3052962,-15.330963,-14.763935)"
       cx="46.796875"
       cy="48.359375"
       fx="46.796875"
       fy="48.359375"
       r="30.015625" />
    <radialGradient
       r="30.015625"
       fy="48.359375"
       fx="46.796875"
       cy="48.359375"
       cx="46.796875"
       gradientTransform="matrix(1.3276066,2.5923995e-8,-2.5488343e-8,1.3052962,-15.330963,-14.763935)"
       gradientUnits="userSpaceOnUse"
       id="radialGradient3217"
       xlink:href="#linearGradient4303"
       inkscape:collect="always" />
  </defs>
  <sodipodi:namedview
     id="base"
     pagecolor="#ffffff"
     bordercolor="#666666"
     borderopacity="1.0"
     inkscape:pageopacity="0.0"
     inkscape:pageshadow="2"
     inkscape:zoom="3.2465995"
     inkscape:cx="47.56538"
     inkscape:cy="6.7468625"
     inkscape:document-units="px"
     inkscape:current-layer="layer1"
     showgrid="true"
     inkscape:snap-page="true"
     inkscape:snap-global="true"
     inkscape:snap-center="true"
     inkscape:snap-object-midpoints="false"
     showguides="true"
     inkscape:guide-bbox="true"
     inkscape:snap-bbox="true"
     inkscape:object-paths="true"
     inkscape:object-nodes="true"
     inkscape:window-width="1305"
     inkscape:window-height="744"
     inkscape:window-x="61"
     inkscape:window-y="24"
     inkscape:window-maximized="1"
     inkscape:snap-midpoints="true"
     inkscape:snap-grids="true"
     inkscape:snap-to-guides="false">
    <inkscape:grid
       type="xygrid"
       id="grid3002"
       empspacing="5"
       visible="true"
       enabled="true"
       snapvisiblegridlinesonly="true" />
  </sodipodi:namedview>
  <metadata
     id="metadata7">
    <rdf:RDF>
      <cc:Work
         rdf:about="">
        <dc:format>image/svg+xml</dc:format>
        <dc:type
           rdf:resource="http://purl.org/dc/dcmitype/StillImage" />
        <dc:title />
      </cc:Work>
    </rdf:RDF>
  </metadata>
  <g
     inkscape:label="Layer 1"
     inkscape:groupmode="layer"
     id="layer1"
     transform="translate(0,-956.36218)">
    <rect
       style="fill:#ffffff;fill-opacity:0;fill-rule:nonzero;stroke:none"
       id="rect3775"
       width="96"
       height="96"
       x="0"
       y="956.36218"
       ry="0" />
    <path
       style="fill:#000000;fill-opacity:0.09589041;fill-rule:nonzero;stroke:none"
       d="m 3.353015,956.30662 c -1.884176,0 -3.4111555,1.43156 -3.4111555,3.19799 l 0,83.65949 c 0,1.7665 1.5269795,3.1981 3.4111555,3.1981 l 89.23583,0 c 1.884174,0 3.411155,-1.4316 3.411155,-3.1981 l 0,-83.65949 c 0,-1.76643 -1.526981,-3.19799 -3.411155,-3.19799 z"
       id="rect3772"
       inkscape:connector-curvature="0"
       sodipodi:nodetypes="sssssssss" />
    <path
       style="fill:#000000;fill-opacity:0.18721463;fill-rule:nonzero;stroke:none"
       d="m 1.0459761,1041.8066 0,7.4219 c 0,1.7392 1.461916,3.1337 3.2852054,3.1337 l 86.3836135,0 c 1.823288,0 3.285205,-1.3945 3.285205,-3.1337 l 0,-7.4219 -92.9540239,0 z"
       id="rect3785"
       inkscape:connector-curvature="0" />
    <path
       style="fill:#000000;fill-opacity:0.38356168;fill-rule:nonzero;stroke:none"
       d="m 1.0459761,1041.8066 0,5.3807 c 0,1.762 1.461916,3.1749 3.2852054,3.1749 l 86.3836135,0 c 1.823288,0 3.285205,-1.4129 3.285205,-3.1749 l 0,-5.3807 -92.9540239,0 z"
       id="rect3783"
       inkscape:connector-curvature="0" />
    <rect
       style="fill:#2b2b2b;fill-opacity:1;fill-rule:nonzero;stroke:none"
       id="rect2985"
       width="92.954025"
       height="89"
       x="1.045977"
       y="957.36218"
       ry="3.1511393" />
    <rect
       ry="3.1511393"
       y="957.36218"
       x="1.0459747"
       height="89"
       width="92.954025"
       id="rect2995"
       style="fill:url(#radialGradient2997);fill-opacity:1;fill-rule:nonzero;stroke:none" />
    <rect
       style="fill:url(#radialGradient3775);fill-opacity:1;fill-rule:nonzero;stroke:none"
       id="rect3767"
       width="92.954025"
       height="89"
       x="1.0459747"
       y="957.36218"
       ry="3.1511393" />
    <rect
       ry="3.1511393"
       y="957.36218"
       x="1.0459747"
       height="89"
       width="92.954025"
       id="rect3777"
       style="fill:url(#radialGradient3779);fill-opacity:1.0;fill-rule:nonzero;stroke:none" />
    <rect
       style="fill:url(#radialGradient3789);fill-opacity:1.0;fill-rule:nonzero;stroke:none"
       id="rect3787"
       width="92.954025"
       height="89"
       x="1.0459747"
       y="957.36218"
       ry="3.1511393" />
    <path
       style="fill:#000000;fill-opacity:0.48401827;fill-rule:evenodd;stroke:none"
       d="m 5,6 0,25 25,0 0,-25 z m 30,0 0,25 25,0 0,-25 z m 30,0 0,25 25,0 0,-25 z M 5,36 5,61 30,61 30,36 z m 30,0 0,25 25,0 0,-25 z m 30,0 0,25 25,0 0,-25 z M 5,66 5,90 30,90 30,66 z m 30,0 0,24 25,0 0,-24 z m 30,0 0,24 25,0 0,-24 z"
       transform="translate(0,956.36218)"
       id="rect3013"
       inkscape:connector-curvature="0"
       sodipodi:nodetypes="ccccccccccccccccccccccccccccccccccccccccccccc" />
    <path
       style="fill:#ff0085;display:inline;fill-opacity:0.96803653"
       d="M 77.625 7.96875 C 71.928832 7.96875 67.3125 12.58505 67.3125 18.28125 C 67.3125 23.97742 71.928832 28.59375 77.625 28.59375 C 83.321167 28.59375 87.9375 23.97742 87.9375 18.28125 C 87.9375 12.58505 83.321167 7.96875 77.625 7.96875 z M 47.53125 8 C 41.749894 8 37.066487 12.70483 37.0625 18.5 L 37.0625 25.1875 L 37.0625 26.625 L 37.0625 27.375 C 37.0625 28.27754 37.787189 29 38.6875 29 L 39.4375 29 L 44.6875 29 L 47.53125 29 C 53.313184 28.997 58 24.297 58 18.5 C 58 12.70123 53.315262 8 47.53125 8 z M 17.21875 8.15625 C 16.620352 8.18835 15.806123 8.46975 16.0625 8.21875 C 15.086252 8.60398 13.348085 9.13096 12.375 9.9375 L 12.34375 9.75 C 11.897912 10.22304 10.400614 11.16802 10.28125 11.78125 L 10.15625 11.8125 C 9.9246392 12.15976 9.7776687 12.54921 9.59375 12.90625 C 9.2904677 13.36346 9.1442853 13.08451 9.1875 13.15625 C 8.5906817 14.22575 8.2871047 15.10637 8.03125 15.84375 C 8.2135911 16.0848 8.056275 17.31258 8.125 18.28125 C 7.8256676 23.06607 11.926302 27.709 16.40625 28.78125 C 17.062881 28.98922 18.044463 28.97953 18.875 29 C 17.895323 28.75212 17.76741 28.85672 16.8125 28.5625 C 16.123989 28.27557 15.956744 27.96807 15.46875 27.59375 L 15.65625 27.875 C 14.699761 27.57576 15.122115 27.53023 14.34375 27.3125 L 14.53125 27.0625 C 14.221113 27.0416 13.702152 26.5885 13.5625 26.34375 L 13.25 26.375 C 12.842636 25.9311 12.608926 25.59229 12.625 25.34375 L 12.53125 25.53125 C 12.407144 25.34282 11.005208 23.87452 11.71875 24.21875 C 11.586211 24.1121 11.409782 24.02595 11.21875 23.71875 L 11.375 23.5625 C 11.032194 23.17192 10.759113 22.69802 10.78125 22.53125 C 10.964377 22.7497 11.092797 22.775 11.21875 22.8125 C 10.351587 20.91106 10.281365 22.70591 9.625 20.875 L 9.78125 20.875 C 9.6750517 20.73269 9.5853705 20.58865 9.5 20.4375 L 9.5625 19.90625 C 8.9385441 19.26903 9.4096267 17.16899 9.5 16.03125 C 9.561918 15.5687 10.026396 15.08506 10.375 14.3125 L 10.15625 14.28125 C 10.562559 13.65521 12.457354 11.77811 13.34375 11.875 C 13.772983 11.39848 13.271555 11.86957 13.1875 11.75 C 14.13055 10.88755 14.426158 11.1241 15.0625 10.96875 C 15.74838 10.60891 14.456098 11.1216 14.78125 10.84375 C 15.967768 10.57615 15.639992 10.22953 17.1875 10.09375 C 17.228342 10.11425 17.217464 10.138865 17.1875 10.15625 C 18.284431 9.9245508 20.004518 10.079913 21.1875 10.5625 C 22.799302 11.22885 24.61583 13.21019 24.6875 15.0625 L 24.75 15.0625 C 24.7089 15.79895 24.886494 16.65537 24.59375 17.4375 L 24.8125 17.0625 C 24.83622 17.6252 24.626953 17.92277 24.4375 18.40625 L 24.09375 18.53125 C 23.815236 19.00966 24.105718 18.83841 23.90625 19.21875 C 23.470955 19.5604 22.595494 20.30838 22.3125 20.375 C 22.105655 20.371 22.454678 20.1452 22.5 20.0625 C 21.917939 20.41561 22.01535 20.59753 21.125 20.8125 L 21.125 20.75 C 18.930085 21.66298 15.866196 19.87411 15.90625 17.40625 C 15.88306 17.56277 15.829716 17.4996 15.78125 17.5625 C 15.667952 16.29289 16.439901 15.02148 17.75 14.5 C 19.031376 13.93963 20.551524 14.18078 21.46875 14.9375 C 20.964947 14.35383 19.969876 13.72395 18.78125 13.78125 C 17.616337 13.79805 16.519874 14.44564 16.15625 15.15625 C 15.559698 15.48814 15.478554 16.45126 15.21875 16.625 C 14.868561 18.89818 15.888144 19.8758 17.59375 21.03125 C 17.727606 21.111145 17.728897 21.146215 17.71875 21.1875 C 19.730803 21.85151 21.821851 21.702 23.5625 20.46875 C 24.0057 20.16367 24.485086 19.63199 24.625 19.625 C 24.519734 19.764985 24.547382 19.814201 24.5625 19.84375 C 24.737427 19.49089 24.405136 19.659538 24.96875 18.9375 L 25.1875 19.21875 C 25.09791 18.69611 25.927543 18.0759 25.84375 17.25 C 25.938213 17.12376 25.996013 17.17157 26 17.34375 C 25.989096 17.193828 25.968867 17.045233 26 16.8125 C 26.07668 16.99137 26.166842 17.18611 26.21875 17.375 C 26.037466 16.75196 26.40883 16.33091 26.5 15.96875 C 26.40988 15.93375 26.231242 16.23553 26.1875 15.5 C 26.1941 15.18045 26.276408 15.32872 26.3125 15.25 C 26.24188 15.2139 26.081787 14.96977 25.96875 14.5 C 26.05016 14.38936 26.169526 14.79645 26.28125 14.8125 C 26.20932 14.43916 26.099021 14.16171 26.09375 13.875 C 25.767017 13.27178 25.983304 13.93333 25.71875 13.59375 C 25.370936 12.63556 25.988035 13.37257 26.03125 12.9375 C 26.557714 13.61177 26.861665 14.66077 27 15.09375 C 26.894594 14.56574 26.739147 14.05743 26.53125 13.5625 C 26.691719 13.6224 26.252362 12.49119 26.71875 13.25 C 26.221007 11.63246 24.594357 10.11522 23.09375 9.40625 C 23.27688 9.55462 23.520237 9.72064 23.4375 9.75 C 22.690755 9.35754 22.82573 9.35333 22.71875 9.1875 C 22.111395 8.96879 22.058079 9.20481 21.65625 9.1875 C 20.510047 8.64995 20.27352 8.68006 19.21875 8.34375 L 19.28125 8.5625 C 18.52212 8.33891 18.382759 8.6462 17.5625 8.5625 C 17.5127 8.5283 17.836052 8.43909 18.09375 8.40625 C 17.359652 8.49195 17.405788 8.2859 16.6875 8.4375 C 16.864304 8.3278 17.030087 8.2494 17.21875 8.15625 z M 17.71875 21.1875 C 17.708603 21.228785 17.669581 21.282965 17.6875 21.34375 C 17.120987 21.10945 16.614363 20.74592 16.1875 20.3125 C 16.414104 20.60526 16.652819 20.90141 16.96875 21.125 C 16.434118 20.96547 15.739148 19.97756 15.53125 19.9375 C 16.452165 21.39503 19.243968 22.48276 20.71875 21.9375 C 20.036297 21.9598 19.172495 21.96927 18.40625 21.71875 C 18.08347 21.57226 17.640495 21.24407 17.71875 21.1875 z M 17.03125 10.1875 C 16.899173 10.22223 16.724231 10.29053 16.65625 10.34375 C 16.779763 10.290297 16.937973 10.224648 17.09375 10.1875 C 17.072106 10.194041 17.056649 10.180821 17.03125 10.1875 z M 50.6875 10.3125 C 51.108241 10.3125 51.391804 10.36664 51.78125 10.46875 C 52.349221 10.61805 52.812245 11.08204 52.8125 11.625 C 52.812753 12.28136 52.335282 12.75 51.625 12.75 C 51.28661 12.75 51.182959 12.6875 50.6875 12.6875 C 49.22521 12.6875 48.033712 13.87787 48.03125 15.34375 L 48.03125 17.625 C 48.03125 17.83244 48.199485 18 48.40625 18 L 50.15625 18 C 50.804876 18 51.311988 18.53557 51.3125 19.1875 C 51.3125 19.83973 50.804621 20.34375 50.15625 20.34375 L 48.03125 20.34375 L 48.03125 23.03125 C 48.03125 25.81141 45.773195 28.0625 43 28.0625 C 42.579173 28.0625 42.295697 28.00853 41.90625 27.90625 C 41.338279 27.75702 40.875257 27.29276 40.875 26.75 C 40.875 26.0938 41.351879 25.625 42.0625 25.625 C 42.40055 25.625 42.504795 25.6875 43 25.6875 C 44.462288 25.6875 45.653959 24.49661 45.65625 23.03125 L 45.65625 20.71875 C 45.65625 20.5117 45.488015 20.34375 45.28125 20.34375 L 43.53125 20.34375 C 42.882457 20.34375 42.375 19.83988 42.375 19.1875 C 42.374829 18.53148 42.906833 18 43.5625 18 L 45.65625 18 L 45.65625 15.34375 C 45.65625 12.56334 47.913883 10.3125 50.6875 10.3125 z M 81.09375 10.40625 C 81.992474 10.40625 82.71875 11.12923 82.71875 12.03125 C 82.71875 12.93326 81.992474 13.65625 81.09375 13.65625 C 80.195027 13.65625 79.46875 12.93326 79.46875 12.03125 C 79.46875 11.12923 80.195027 10.40625 81.09375 10.40625 z M 77.65625 11.6875 C 78.02151 11.6875 78.389453 11.71302 78.78125 11.78125 C 78.84278 11.79195 78.90625 11.84388 78.90625 11.90625 C 78.90625 11.90825 78.90638 11.96825 78.90625 11.96875 C 78.90638 13.21969 79.903204 14.25 81.15625 14.25 C 81.58577 14.25 82.032014 14.11777 82.40625 13.875 C 82.45919 13.8406 82.520614 13.8279 82.5625 13.875 C 83.49061 14.91179 84.085028 16.24494 84.21875 17.625 C 84.22215 17.6613 84.21187 17.69185 84.1875 17.71875 C 84.16317 17.74575 84.12991 17.78125 84.09375 17.78125 L 81.59375 17.78125 C 81.53092 17.78125 81.478636 17.71876 81.46875 17.65625 C 81.173472 15.79626 79.539527 14.40625 77.65625 14.40625 C 77.144261 14.40625 76.644565 14.51139 76.15625 14.71875 C 76.09837 14.74325 76.03343 14.70915 76 14.65625 L 74.65625 12.5625 C 74.637 12.5317 74.6464 12.50373 74.65625 12.46875 C 74.66605 12.43375 74.68623 12.3912 74.71875 12.375 C 75.633202 11.92109 76.653214 11.68763 77.65625 11.6875 z M 73.65625 13.03125 C 73.67342 13.02725 73.701 13.02825 73.71875 13.03125 C 73.75426 13.03725 73.79325 13.06315 73.8125 13.09375 L 75.125 15.1875 C 75.15869 15.2412 75.14122 15.33332 75.09375 15.375 C 74.251361 16.11205 73.78125 17.17011 73.78125 18.28125 C 73.78125 19.38417 74.260076 20.41947 75.09375 21.15625 C 75.14123 21.19825 75.1277 21.29032 75.09375 21.34375 L 73.78125 23.40625 C 73.76187 23.43685 73.72301 23.494 73.6875 23.5 C 73.65186 23.506 73.62223 23.48965 73.59375 23.46875 C 72.531528 22.63855 71.733335 21.47045 71.34375 20.1875 C 71.3284 20.1368 71.33373 20.06407 71.375 20.03125 C 71.915607 19.60127 72.25 18.96014 72.25 18.28125 C 72.25 17.60229 71.915476 16.93 71.375 16.5 C 71.33353 16.4671 71.3284 16.42554 71.34375 16.375 C 71.736457 15.08121 72.549511 13.89454 73.625 13.0625 C 73.63912 13.0514 73.63908 13.03545 73.65625 13.03125 z M 70 16.625 C 70.919771 16.625 71.65625 17.38928 71.65625 18.3125 C 71.65625 19.23576 70.919771 19.96875 70 19.96875 C 69.080227 19.96875 68.34375 19.23576 68.34375 18.3125 C 68.34375 17.38928 69.080227 16.625 70 16.625 z M 26 17.40625 C 25.995596 17.57933 25.934845 17.829506 25.84375 18.09375 C 25.982745 17.77152 26.007479 17.579213 26 17.40625 z M 84.09375 18.78125 C 84.12991 18.7811 84.16305 18.81685 84.1875 18.84375 C 84.21195 18.87075 84.22239 18.9013 84.21875 18.9375 C 84.071501 20.41225 83.413677 21.81105 82.375 22.875 C 82.33532 22.9155 82.268827 22.93235 82.21875 22.90625 C 81.889391 22.73375 81.512406 22.625 81.15625 22.625 C 80.007397 22.625 79.03841 23.50972 78.90625 24.65625 C 78.89965 24.71255 78.86817 24.74023 78.8125 24.75 C 78.415889 24.8207 78.032568 24.84375 77.65625 24.84375 C 76.641638 24.84375 75.609106 24.61966 74.6875 24.15625 C 74.65511 24.14005 74.63463 24.0975 74.625 24.0625 C 74.6154 24.0276 74.60559 23.99942 74.625 23.96875 L 75.96875 21.875 C 76.0027 21.8221 76.067247 21.7879 76.125 21.8125 C 76.618778 22.02495 77.138276 22.15625 77.65625 22.15625 C 79.534324 22.15625 81.169439 20.7523 81.46875 18.90625 C 81.47876 18.84425 81.531178 18.81264 81.59375 18.8125 L 84.09375 18.78125 z M 81.15625 23.21875 C 82.076022 23.21875 82.8125 23.95649 82.8125 24.875 C 82.8125 25.79346 82.076022 26.53125 81.15625 26.53125 C 80.236477 26.53125 79.46875 25.79346 79.46875 24.875 C 79.46875 23.95649 80.236477 23.21875 81.15625 23.21875 z M 47.5 38.09375 C 46.565135 40.44983 46.009602 41.99538 44.96875 44.28125 C 45.606921 44.97665 46.384132 45.773 47.65625 46.6875 C 46.2886 46.1091 45.353423 45.5402 44.65625 44.9375 C 43.324158 47.7948 41.2352 51.8652 37 59.6875 C 40.328725 57.7121 42.907718 56.49605 45.3125 56.03125 C 45.209236 55.57475 45.152263 55.0779 45.15625 54.5625 L 45.15625 54.4375 C 45.20907 52.2452 46.310822 50.5731 47.625 50.6875 C 48.939183 50.8015 49.959068 52.6828 49.90625 54.875 C 49.89635 55.2876 49.860334 55.66325 49.78125 56.03125 C 52.159919 56.50965 54.716311 57.7388 58 59.6875 C 57.35252 58.4621 56.770656 57.3645 56.21875 56.3125 C 55.349413 55.62 54.443371 54.69445 52.59375 53.71875 C 53.86507 54.05825 54.790476 54.46835 55.5 54.90625 C 49.888634 44.16705 49.424257 42.73551 47.5 38.09375 z M 67 39.21875 L 67 44.78125 L 69.6875 44.78125 L 69.6875 47.0625 L 69.6875 51.0625 C 69.6875 54.8574 72.683247 57.90625 76.375 57.90625 L 81.1875 57.90625 L 87.875 57.90625 L 87.875 51.0625 L 87.875 46.09375 C 87.875 42.29899 84.879254 39.21875 81.1875 39.21875 L 79.125 39.21875 L 76.4375 39.21875 L 69.6875 39.21875 L 67 39.21875 z M 11.8125 39.53125 L 11.75 41.625 C 10.594334 41.25557 9.4985832 40.95165 8.40625 40.65625 C 8.350242 40.85302 8.2594105 41.01521 8.21875 41.21875 C 8.123593 41.69509 8.0961746 42.19841 8.0625 42.6875 C 8.0288279 43.17659 8 43.6668 8 44.125 L 8 53.84375 C 8 54.30185 8.028825 54.79215 8.0625 55.28125 C 8.096175 55.77035 8.1235928 56.2737 8.21875 56.75 C 8.313908 57.2264 8.4718013 57.67385 8.65625 58.09375 C 8.9210507 57.56045 9.3860864 57.12785 9.90625 56.96875 C 10.503644 56.78615 11.812612 56.7962 13.5625 57 C 15.661209 57.2442 16.834873 57.26375 18.21875 57.15625 C 21.370334 56.91135 23.40892 56.37965 25.71875 55.21875 C 26.925908 54.61215 27.176406 54.38165 27.4375 53.65625 C 27.686461 52.96465 27.81442 52.3125 27.6875 52.3125 C 27.6426 52.3125 27.223686 52.48865 26.75 52.71875 C 24.972558 53.58215 23.448598 53.98065 22.09375 53.90625 C 20.685309 53.82925 18.362617 53.0406 15.625 51.6875 L 14.375 51.0625 L 13.375 48.5625 L 14.3125 49.15625 C 15.875656 50.22325 18.396781 51.4992 19.9375 52 C 22.291287 52.7652 24.167149 52.68 26.0625 51.6875 C 26.730553 51.3375 28 50.4348 28 50.3125 C 28 50.0822 27.341826 47.86015 26.96875 46.84375 C 26.035805 44.30205 25.381246 43.44143 23.84375 42.6875 C 22.136813 41.85054 20.27125 41.24779 16.8125 40.4375 C 15.15887 40.07655 13.490768 39.74636 11.8125 39.53125 z M 68.34375 40.625 L 69.6875 40.625 L 76.4375 40.625 L 79.125 40.625 L 81.1875 40.625 C 84.1563 40.625 86.53125 43.04215 86.53125 46.09375 L 86.53125 51.0625 L 86.53125 56.53125 L 81.1875 56.53125 L 76.375 56.53125 C 73.406201 56.53125 71.03125 54.1142 71.03125 51.0625 L 71.03125 47.0625 L 71.03125 44.78125 C 71.031768 44.05655 70.392521 43.40555 69.6875 43.40625 L 68.34375 43.40625 L 68.34375 40.625 z M 73.0625 42 L 73.0625 51.34375 L 73.0625 51.6875 C 73.0625 53.2207 74.258383 54.46875 75.75 54.46875 L 77.78125 54.46875 L 77.78125 53.0625 L 75.75 53.0625 C 75.004192 53.0625 74.40625 52.454 74.40625 51.6875 L 74.40625 51.34375 L 74.40625 42 L 73.0625 42 z M 20.96875 43.3125 C 21.113089 43.294439 21.262709 43.312875 21.40625 43.3125 C 22.66939 43.3125 23.888711 43.94845 24.59375 45.15625 C 25.795926 47.21565 24.811393 49.9073 22.5625 50.6875 C 21.07835 51.2023 19.304266 50.5933 18.40625 49.25 C 17.669191 48.1474 17.527211 46.72515 18.0625 45.53125 C 18.366653 44.85295 19.099078 44.0586 19.6875 43.75 C 20.1039 43.531577 20.535734 43.366682 20.96875 43.3125 z M 78.78125 44.0625 C 77.480125 44.0625 76.4375 45.1625 76.4375 46.5 L 76.4375 50.65625 L 77.78125 50.65625 L 77.78125 46.5 C 77.78125 45.9267 78.223625 45.46875 78.78125 45.46875 C 79.338875 45.46875 79.78125 45.9267 79.78125 46.5 L 79.78125 50.65625 L 81.125 50.65625 L 81.125 46.5 C 81.125 45.9267 81.598625 45.46875 82.15625 45.46875 C 82.713875 45.46875 83.15625 45.9267 83.15625 46.5 L 83.15625 50.65625 L 84.5 50.65625 L 84.5 46.5 C 84.5 45.1625 83.457374 44.0625 82.15625 44.0625 C 81.495206 44.0625 80.896599 44.3619 80.46875 44.8125 C 80.040899 44.3619 79.442293 44.0625 78.78125 44.0625 z M 21.375 44.40625 C 20.783063 44.41925 20.165407 44.6513 19.65625 45.125 C 18.878853 45.8483 18.645119 47.1274 19.09375 48.125 C 19.462076 48.9441 20.154832 49.51945 20.96875 49.65625 C 22.122936 49.85015 23.208263 49.30445 23.6875 48.28125 C 24.015315 47.58125 24.070389 47.0973 23.90625 46.4375 C 23.580434 45.1278 22.50504 44.38165 21.375 44.40625 z M 21.96875 45.75 C 22.407554 45.75 22.933906 46.0414 23 46.3125 C 23.08979 46.681 22.972878 46.9422 22.625 47.125 C 22.087832 47.4072 21.404337 47.3287 21 46.9375 C 20.501517 46.4552 21.066967 45.75 21.96875 45.75 z M 45.625 68.0625 L 46.21875 71.5625 L 46.8125 73.53125 L 46.8125 76.21875 C 46.630165 76.30075 46.433494 76.4368 46.28125 76.5625 L 43.3125 68.71875 L 42.90625 73.375 L 46.0625 76.75 C 45.943027 76.88 45.867233 77.0317 45.78125 77.1875 L 42.6875 73.59375 L 38 73.53125 L 45.65625 77.40625 C 45.63408 77.45925 45.61182 77.5074 45.59375 77.5625 L 41.5625 76.1875 L 40.15625 76.0625 L 37.34375 79.96875 L 40.84375 79.375 L 42.8125 78.8125 L 45.5625 78.8125 C 45.59965 78.9601 45.653705 79.08455 45.71875 79.21875 L 38.09375 82.28125 L 42.75 82.625 L 45.90625 79.53125 C 46.00592 79.67135 46.121214 79.8241 46.25 79.9375 L 42.96875 82.84375 L 43 87.5 L 46.53125 80.15625 C 46.637886 80.22225 46.757345 80.2649 46.875 80.3125 L 45.71875 83.71875 L 45.625 85.125 L 49.53125 87.90625 L 48.90625 84.40625 L 48.34375 82.46875 L 48.34375 80.375 C 48.527609 80.32 48.714557 80.25415 48.875 80.15625 L 52.4375 87.46875 L 52.4375 82.8125 L 49.15625 79.9375 C 49.283763 79.8261 49.400734 79.7001 49.5 79.5625 L 52.65625 82.59375 L 57.3125 82.21875 L 49.6875 79.21875 C 49.77496 79.03885 49.870011 78.85935 49.90625 78.65625 L 53.78125 79.75 L 55.21875 79.84375 L 58 75.9375 L 54.5 76.5625 L 52.5625 77.125 L 49.59375 77.125 C 49.59115 77.125 49.59628 77.09475 49.59375 77.09375 L 57.15625 73.40625 L 52.46875 73.40625 L 49.4375 76.875 C 49.328017 76.7387 49.200757 76.6072 49.0625 76.5 L 52.28125 73.21875 L 51.90625 68.5625 L 48.8125 76.34375 C 48.628699 76.23705 48.431122 76.1756 48.21875 76.125 L 49.4375 72.28125 L 49.53125 70.875 L 45.625 68.0625 z M 15.5625 68.34375 C 15.334065 68.340669 15.085585 68.351737 14.84375 68.375 C 12.385945 68.6114 11.91408 68.8998 9.6875 70.4375 C 8.9412524 70.9528 7.5706682 72.1999 7.21875 73.6875 C 7.0847202 74.2541 7.2404683 74.75075 7.6875 75.09375 C 9.1189191 76.19225 11.503263 77.076 13.46875 77.9375 C 14.044444 78.1898 13.678364 78.6414 12.75 79.375 C 10.407401 81.2262 7.2523597 83.4705 7.03125 85.1875 C 6.9270577 85.9966 7.2053134 87.09365 8.28125 87.65625 C 9.5381134 88.31345 12.164078 87.9047 13.90625 87.3125 C 16.452103 86.4472 19.782507 84.53345 22.4375 82.65625 C 25.198357 80.70405 27.779272 78.2169 27.90625 77.8125 C 28.062176 77.3159 28.050917 76.87115 27.75 76.34375 C 27.277451 75.51565 26.647104 74.8763 25.96875 74.1875 C 24.148616 72.436 22.210363 70.89815 19.90625 69.71875 C 18.450348 68.973513 17.161542 68.365319 15.5625 68.34375 z M 77.5625 68.75 C 74.772962 68.75 70.625 70.1317 70.625 73.5625 C 70.625 76.8534 74.60457 78 77.15625 78 C 79.813482 78 82.28125 78.65935 82.28125 80.78125 C 82.28125 82.84865 79.955666 83.8125 77.21875 83.8125 C 74.11027 83.8125 72.59375 81.68295 72.59375 80.59375 C 72.59375 80.21205 72.007926 79.8125 71.34375 79.8125 C 70.679043 79.8125 70.28125 80.15865 70.28125 80.59375 L 70.28125 84.0625 C 70.30782 84.8512 70.678341 85.625 71.59375 85.625 C 72.579575 85.625 72.84375 85.5117 72.84375 84.5 C 74.36185 85.2977 75.935015 85.625 77.625 85.625 C 81.849982 85.625 84.766437 83.5047 84.75 80.8125 C 84.72343 76.4613 79.632358 75.96875 77.1875 75.96875 C 74.663635 75.94175 73.25 74.705 73.25 73.5625 C 73.25 72.3384 74.466559 70.5625 77.46875 70.5625 C 80.845673 70.5625 81.667408 72.4375 81.78125 73.0625 C 81.914086 73.5541 82.383672 73.8125 82.96875 73.8125 C 83.580368 73.8125 84 73.49345 84 73.03125 L 84 69.8125 C 84 69.4045 83.376694 68.875 82.71875 68.875 C 82.160843 68.875 81.589069 69.0812 81.5625 69.625 C 81.004592 69.19 79.160061 68.75 77.5625 68.75 z M 16.28125 71.8125 C 16.907397 71.758965 17.655715 71.92245 18.46875 72.28125 C 20.2444 73.06485 22.052428 75.1278 18.4375 76.3125 C 17.454516 76.6346 14.342067 75.5192 14.4375 74 C 14.524477 72.597312 15.237672 71.901726 16.28125 71.8125 z M 66.96875 82.59375 L 67 88 L 88.03125 88 L 88.03125 87.3125 L 67.65625 87.3125 L 67.65625 82.59375 L 66.96875 82.59375 z "
       transform="translate(0,956.36218)"
       id="path2536" />
    <path
       style="fill:#000000;fill-opacity:0.38356168;fill-rule:nonzero;stroke:none"
       d="m 1,1042.3622 0.045976,2.7457 c 0.03024,1.8058 1.461916,3.2543 3.2852054,3.2543 l 86.3836136,0 c 1.823288,0 3.285205,-1.4481 3.285205,-3.2543 l -0.04598,-2.7457 z"
       id="rect3781"
       inkscape:connector-curvature="0"
       sodipodi:nodetypes="csssscc" />
    <rect
       style="fill:#ffffff;fill-opacity:0.30000001;fill-rule:nonzero;stroke:none"
       id="rect3770"
       width="92.954033"
       height="2.000005"
       x="1.045976"
       y="1040.3622" />
  </g>
</svg>
