<?xml version="1.0" encoding="UTF-8" standalone="no"?>
<!-- Created with Inkscape (http://www.inkscape.org/) -->

<svg
   xmlns:dc="http://purl.org/dc/elements/1.1/"
   xmlns:cc="http://creativecommons.org/ns#"
   xmlns:rdf="http://www.w3.org/1999/02/22-rdf-syntax-ns#"
   xmlns:svg="http://www.w3.org/2000/svg"
   xmlns="http://www.w3.org/2000/svg"
   xmlns:xlink="http://www.w3.org/1999/xlink"
   xmlns:sodipodi="http://sodipodi.sourceforge.net/DTD/sodipodi-0.dtd"
   xmlns:inkscape="http://www.inkscape.org/namespaces/inkscape"
   width="96"
   height="96"
   id="svg2"
   version="1.1"
   inkscape:version="0.48.4 r9939"
   sodipodi:docname="muondiscover.svg">
  <defs
     id="defs4">
    <linearGradient
       id="linearGradient3784">
      <stop
         style="stop-color:#00a2ff;stop-opacity:1;"
         offset="0"
         id="stop3786" />
      <stop
         style="stop-color:#4f006f;stop-opacity:1;"
         offset="1"
         id="stop3788" />
    </linearGradient>
    <linearGradient
       id="linearGradient3772">
      <stop
         style="stop-color:#ffffff;stop-opacity:0.74485594;"
         offset="0"
         id="stop3774" />
      <stop
         style="stop-color:#ffffff;stop-opacity:0;"
         offset="1"
         id="stop3776" />
    </linearGradient>
    <linearGradient
       inkscape:collect="always"
       id="linearGradient5429">
      <stop
         style="stop-color:#000000;stop-opacity:1;"
         offset="0"
         id="stop5431" />
      <stop
         style="stop-color:#000000;stop-opacity:0;"
         offset="1"
         id="stop5433" />
    </linearGradient>
    <linearGradient
       inkscape:collect="always"
       xlink:href="#linearGradient5429"
       id="linearGradient5435"
       x1="45"
       y1="21"
       x2="45"
       y2="-4"
       gradientUnits="userSpaceOnUse" />
    <linearGradient
       inkscape:collect="always"
       xlink:href="#linearGradient3772"
       id="linearGradient3778"
       x1="15"
       y1="41"
       x2="15"
       y2="111"
       gradientUnits="userSpaceOnUse" />
    <linearGradient
       inkscape:collect="always"
       xlink:href="#linearGradient3784"
       id="linearGradient3790"
       x1="25"
       y1="-987.36218"
       x2="95"
       y2="-1047.3622"
       gradientUnits="userSpaceOnUse" />
  </defs>
  <sodipodi:namedview
     id="base"
     pagecolor="#ffffff"
     bordercolor="#666666"
     borderopacity="1.0"
     inkscape:pageopacity="0.0"
     inkscape:pageshadow="2"
     inkscape:zoom="4.7139443"
     inkscape:cx="78.708032"
     inkscape:cy="57.340295"
     inkscape:document-units="px"
     inkscape:current-layer="layer1"
     showgrid="true"
     inkscape:snap-page="true"
     inkscape:snap-global="true"
     inkscape:snap-center="true"
     inkscape:snap-object-midpoints="false"
     showguides="true"
     inkscape:guide-bbox="true"
     inkscape:snap-bbox="true"
     inkscape:object-paths="true"
     inkscape:object-nodes="true"
     inkscape:window-width="1305"
     inkscape:window-height="744"
     inkscape:window-x="61"
     inkscape:window-y="24"
     inkscape:window-maximized="1"
     inkscape:snap-midpoints="false"
     inkscape:snap-grids="true"
     inkscape:snap-to-guides="false">
    <inkscape:grid
       type="xygrid"
       id="grid3002"
       empspacing="5"
       visible="true"
       enabled="true"
       snapvisiblegridlinesonly="true" />
  </sodipodi:namedview>
  <metadata
     id="metadata7">
    <rdf:RDF>
      <cc:Work
         rdf:about="">
        <dc:format>image/svg+xml</dc:format>
        <dc:type
           rdf:resource="http://purl.org/dc/dcmitype/StillImage" />
        <dc:title />
      </cc:Work>
    </rdf:RDF>
  </metadata>
  <g
     inkscape:label="Layer 1"
     inkscape:groupmode="layer"
     id="layer1"
     transform="translate(0,-956.36218)">
    <path
       style="fill:#000000;fill-opacity:0.38356168;fill-rule:nonzero;stroke:none"
       d="m 1.0459761,1041.8066 0,5.3807 c 0,1.762 1.461916,3.1749 3.2852054,3.1749 l 86.3836135,0 c 1.823288,0 3.285205,-1.4129 3.285205,-3.1749 l 0,-5.3807 -92.9540239,0 z"
       id="rect3783"
       inkscape:connector-curvature="0" />
    <rect
       style="fill:#ffffff;fill-opacity:0;fill-rule:nonzero;stroke:none"
       id="rect3775"
       width="96"
       height="96"
       x="0"
       y="956.36218"
       ry="0" />
    <path
       style="fill:#000000;fill-opacity:0.09589041;fill-rule:nonzero;stroke:none"
       d="m 3.353015,956.30662 c -1.884176,0 -3.4111555,1.43156 -3.4111555,3.19799 l 0,83.65949 c 0,1.7665 1.5269795,3.1981 3.4111555,3.1981 l 89.23583,0 c 1.884174,0 3.411155,-1.4316 3.411155,-3.1981 l 0,-83.65949 c 0,-1.76643 -1.526981,-3.19799 -3.411155,-3.19799 z"
       id="rect3772"
       inkscape:connector-curvature="0"
       sodipodi:nodetypes="sssssssss" />
    <path
       style="fill:#000000;fill-opacity:0.18721463;fill-rule:nonzero;stroke:none"
       d="m 1.0459761,1041.8066 0,7.4219 c 0,1.7392 1.461916,3.1337 3.2852054,3.1337 l 86.3836135,0 c 1.823288,0 3.285205,-1.3945 3.285205,-3.1337 l 0,-7.4219 -92.9540239,0 z"
       id="rect3785"
       inkscape:connector-curvature="0" />
    <rect
       style="fill:url(#linearGradient3790);fill-opacity:1;fill-rule:nonzero;stroke:none"
       id="rect2985"
       width="92.954025"
       height="89"
       x="1.0459766"
       y="-1046.3622"
       ry="3.1511393"
       transform="scale(1,-1)" />
    <path
       style="fill:url(#linearGradient5435);fill-opacity:1;fill-rule:nonzero;stroke:none"
       d="M 94 4.15625 C 94 3.2833844 93.663318 2.4758184 93.09375 1.90625 C 92.524182 1.3366816 91.716616 1 90.84375 1 L 4.1875 1 C 3.3146344 1 2.5383184 1.3366816 1.96875 1.90625 C 1.3991816 2.4758184 1.03125 3.2833844 1.03125 4.15625 L 1.03125 7.90625 C 1.03125 9.6519811 2.4417689 11.03125 4.1875 11.03125 L 90.84375 11.03125 C 92.589481 11.03125 94 9.6519811 94 7.90625 L 94 4.15625 z "
       id="path5312"
       transform="translate(0,956.36218)" />
    <path
       style="fill:url(#linearGradient3778);fill-opacity:1;fill-rule:evenodd;stroke:none;opacity:0.48559671"
       d="M 1.03125 46 L 1.03125 86.84375 C 1.03125 87.716616 1.3991816 88.524182 1.96875 89.09375 C 2.5383184 89.663318 3.3146344 90 4.1875 90 L 90.84375 90 C 91.716616 90 92.524182 89.663318 93.09375 89.09375 C 93.663318 88.524182 94 87.716616 94 86.84375 L 94 46 L 1.03125 46 z "
       id="rect5319"
       transform="translate(0,956.36218)" />
    <path
       style="font-size:medium;font-style:normal;font-variant:normal;font-weight:normal;font-stretch:normal;text-indent:0;text-align:start;text-decoration:none;line-height:normal;letter-spacing:normal;word-spacing:normal;text-transform:none;direction:ltr;block-progression:tb;writing-mode:lr-tb;text-anchor:start;baseline-shift:baseline;color:#000000;fill:#000000;fill-opacity:0.26027396;stroke:none;stroke-width:4.50000000000000000;marker:none;visibility:visible;display:inline;overflow:visible;enable-background:accumulate;font-family:Sans;-inkscape-font-specification:Sans"
       d="M 29.71875,975.09375 A 2.250225,2.250225 0 0 0 27.9375,978.25 c 4.413607,10.16155 3.902887,19.04016 5.09375,25.5312 0.595431,3.2456 1.88892,6.354 4.9375,7.75 3.04858,1.3961 6.901685,1.034 12.5625,-0.5624 6.482894,-1.8283 10.662927,-4.0095 13.3125,-6.75 2.649573,-2.7406 3.526056,-6.05763 3.5625,-9.12505 0.07289,-6.13483 -2.212762,-11.71321 -0.28125,-16.96875 a 2.2587179,2.2587179 0 1 0 -4.25,-1.53125 c -2.627958,7.15054 0.08724,13.75651 0.03125,18.46875 -0.02799,2.35612 -0.497154,4.15359 -2.3125,6.0313 -1.815346,1.8776 -5.226658,3.8237 -11.28125,5.5312 -5.258884,1.4831 -8.180428,1.4025 -9.46875,0.8125 -1.288322,-0.59 -1.876287,-1.7504 -2.375,-4.4687 -0.997427,-5.43677 -0.562355,-15.34783 -5.40625,-26.50005 a 2.250225,2.250225 0 0 0 -2.34375,-1.375 z"
       id="path5414"
       inkscape:connector-curvature="0" />
    <path
       style="fill:#ffffff;fill-opacity:0.54794521;fill-rule:nonzero;stroke:none"
       d="m 1,964.36218 0,2 c 0,1.74573 1.4105189,3.125 3.15625,3.125 l 86.6875,0 c 1.745731,0 3.15625,-1.37927 3.15625,-3.125 l 0,-2 c 0,1.74573 -1.410519,3.125 -3.15625,3.125 l -86.6875,0 C 2.4105189,967.48718 1,966.10791 1,964.36218 z"
       id="path5314"
       inkscape:connector-curvature="0"
       sodipodi:nodetypes="csssscssc" />
    <path
       style="fill:#000000;fill-opacity:0.61643833;fill-rule:nonzero;stroke:none"
       d="M 91 1 L 91 11 C 92.669109 10.916667 94 9.5968869 94 7.90625 L 94 4.15625 C 94 3.2833844 93.663318 2.4758184 93.09375 1.90625 C 92.559428 1.3719272 91.81065 1.0387172 91 1 z M 4 1.03125 C 3.2070896 1.0777008 2.4953188 1.3796812 1.96875 1.90625 C 1.3991816 2.4758184 1.03125 3.2833844 1.03125 4.15625 L 1.03125 7.90625 C 1.03125 9.5860841 2.3459919 10.901191 4 11 L 4 1.03125 z "
       transform="translate(0,956.36218)"
       id="path5331" />
    <path
       style="fill:#fff0b6;fill-opacity:0.68949771;fill-rule:evenodd;stroke:none"
       d="M 30 16 C 27.238576 16 25 18.238576 25 21 C 25 23.761424 27.238576 26 30 26 C 32.761424 26 35 23.761424 35 21 C 35 18.238576 32.761424 16 30 16 z M 65 16 C 62.238576 16 60 18.238576 60 21 C 60 23.761424 62.238576 26 65 26 C 67.761424 26 70 23.761424 70 21 C 70 18.238576 67.761424 16 65 16 z "
       transform="translate(0,956.36218)"
       id="path5334" />
    <path
       style="fill:#000000;fill-opacity:1;fill-rule:evenodd;stroke:none"
       d="M 30 18 C 28.343146 18 27 19.343146 27 21 C 27 22.656854 28.343146 24 30 24 C 31.656854 24 33 22.656854 33 21 C 33 19.343146 31.656854 18 30 18 z M 65 18 C 63.343146 18 62 19.343146 62 21 C 62 22.656854 63.343146 24 65 24 C 66.656854 24 68 22.656854 68 21 C 68 19.343146 66.656854 18 65 18 z "
       transform="translate(0,956.36218)"
       id="path5338" />
    <path
       style="fill:none;stroke:#000000;stroke-width:6;stroke-linecap:round;stroke-linejoin:miter;stroke-miterlimit:4;stroke-opacity:1;stroke-dasharray:none"
       d="m 30,977.36218 c 9.257502,13.12345 -1.914369,23.14642 19.925028,19.35411 C 75,992.36218 60.44053,985.00093 65,977.36218"
       id="path5344"
       inkscape:connector-curvature="0"
       sodipodi:nodetypes="csc" />
    <path
       style="fill:#000000;fill-opacity:0.38356168;fill-rule:nonzero;stroke:none"
       d="m 1,1042.3622 0.04598,2.7457 c 0.03024,1.8058 1.461916,3.2543 3.285205,3.2543 l 86.383615,0 c 1.82328,0 3.2852,-1.4481 3.2852,-3.2543 l -0.046,-2.7457 z"
       id="rect3781"
       inkscape:connector-curvature="0"
       sodipodi:nodetypes="csssscc" />
    <rect
       style="fill:#ffffff;fill-opacity:0.30000001;fill-rule:nonzero;stroke:none"
       id="rect3770"
       width="92.954033"
       height="2.000005"
       x="1.045976"
       y="1040.3622" />
    <path
       inkscape:connector-curvature="0"
       id="path5692_1_"
       style="fill:#ffffff;fill-opacity:1"
       d="m 75.685293,1006.7917 -6.23356,0.5993 0,25.6803 6.166961,-0.9324 0,-10.9488 8.298093,12.1476 6.499952,-2.0646 -8.497886,-11.6813 8.564478,-11.0153 -6.633141,-1.5185 -8.231494,11.0153 0.0666,-11.2816 z m -14.132065,6.2602 c -0.07048,0.01 -0.146729,0.026 -0.199794,0.08 l -2.450802,2.4508 c -0.102932,0.1031 -0.115506,0.2613 -0.03996,0.3862 l 2.863707,4.7284 c -0.508485,0.8548 -0.921396,1.7718 -1.212081,2.7439 l -5.26123,1.0921 C 55.106662,1024.563 55,1024.7032 55,1024.8533 l 0,3.4632 c 0,0.1464 0.11135,0.2718 0.253071,0.3063 l 5.101396,1.2388 c 0.272783,1.1254 0.69422,2.2024 1.252039,3.1834 l -2.956944,4.502 c -0.08248,0.1257 -0.06638,0.2934 0.03996,0.3996 l 2.450801,2.4507 c 0.10325,0.103 0.261596,0.1159 0.386267,0.04 l 4.635211,-2.8104 c 0.909135,0.5249 1.893411,0.9454 2.930305,1.2253 l 1.078886,5.1948 c 0.03026,0.1468 0.156426,0.253 0.30635,0.253 l 3.463089,0 c 0.145343,0 0.271826,-0.098 0.306349,-0.2397 l 1.278679,-5.2214 c 1.069396,-0.2884 2.077645,-0.7164 3.010224,-1.2653 l 4.568612,2.9969 c 0.12595,0.082 0.292818,0.066 0.399587,-0.04 l 2.437482,-2.4508 c 0.103575,-0.1033 0.129147,-0.2616 0.05326,-0.3862 l -1.664949,-2.7438 -0.546101,0.1731 c -0.07885,0.024 -0.16623,-0.011 -0.213114,-0.08 0,0 -1.051719,-1.5471 -2.424161,-3.5563 -1.641389,3.2117 -4.988788,5.4076 -8.844195,5.4076 -5.478468,0 -9.923081,-4.4445 -9.923081,-9.923 0,-4.0299 2.409795,-7.4911 5.86061,-9.0441 l 0,-2.5574 c -0.628039,0.2199 -1.234779,0.4851 -1.811461,0.7992 -0.001,-6e-4 0.001,-0.012 0,-0.013 l -4.675169,-3.0635 c -0.06287,-0.041 -0.129308,-0.048 -0.199794,-0.04 z" />
    <path
       style="font-size:11px;font-style:normal;font-variant:normal;font-weight:normal;font-stretch:normal;text-align:end;line-height:100%;letter-spacing:0px;word-spacing:0px;text-anchor:end;fill:#000000;fill-opacity:1;stroke:none;font-family:Andale Mono;-inkscape-font-specification:Andale Mono"
       d="m 21.481183,1011.4247 c -0.547236,0 -0.972139,0.1164 -1.223327,0.3437 -0.24222,0.2274 -0.344062,0.584 -0.344061,1.0313 l 0,0.6875 -1.070411,0 0,0.7187 1.070411,0 0,5.1875 1.108641,0 0,-5.1875 1.261557,0 0,-0.7187 -1.261557,0 0,-0.6875 c -3e-6,-0.2053 0.07452,-0.3568 0.191145,-0.4375 0.125593,-0.088 0.292984,-0.125 0.535206,-0.125 l 0.535206,0 0,-0.8125 -0.80281,0 z m 1.91145,0.3437 0,1.7188 -1.032183,0 0,0.7187 1.032183,0 0,4.0625 c -1e-6,0.1907 0.04057,0.3846 0.07646,0.5313 0.04485,0.1466 0.12172,0.2723 0.229374,0.375 0.107648,0.095 0.232126,0.1674 0.420518,0.2187 0.188391,0.044 0.430304,0.062 0.726351,0.062 0.233245,0 0.420925,-0.017 0.573435,-0.031 0.152505,-0.015 0.272289,-0.017 0.344061,-0.031 l 0,-0.7812 c -0.0628,0.01 -0.11938,0.024 -0.191145,0.031 -0.07177,0.01 -0.18024,0 -0.305832,0 -0.296047,0 -0.474755,-0.054 -0.573435,-0.1562 -0.09868,-0.1027 -0.152918,-0.2654 -0.152916,-0.5 l 0,-3.7813 1.261557,0 0,-0.7187 -1.261557,0 0,-1.7188 -1.146868,0 z m -13.227228,1.5625 c -0.31399,0 -0.6011658,0.028 -0.8792667,0.094 -0.2781047,0.066 -0.5110464,0.1732 -0.7263507,0.3125 -0.2063355,0.132 -0.4096116,0.2947 -0.5352058,0.5 -0.1166244,0.2053 -0.1529164,0.4474 -0.1529159,0.7187 -5e-7,0.3007 0.054234,0.5594 0.1529159,0.75 0.1076526,0.1907 0.2208098,0.3202 0.3822899,0.4375 0.1704491,0.1174 0.3581277,0.2392 0.5734347,0.3125 0.2153038,0.066 0.434585,0.1289 0.6498927,0.1875 0.2153032,0.059 0.4435549,0.098 0.6498929,0.1563 0.215302,0.059 0.411952,0.1307 0.573434,0.2187 0.170447,0.081 0.283605,0.1805 0.382291,0.3125 0.107648,0.1247 0.152912,0.302 0.152916,0.5 -4e-6,0.2127 -0.02499,0.3754 -0.114688,0.5 -0.08972,0.1247 -0.209499,0.2392 -0.34406,0.3125 -0.125598,0.073 -0.247728,0.103 -0.382291,0.125 -0.134568,0.022 -0.254352,0.031 -0.34406,0.031 -0.2781058,0 -0.5087027,-0.02 -0.6881218,-0.094 -0.1704522,-0.073 -0.2836099,-0.1878 -0.3822899,-0.3125 -0.098683,-0.132 -0.1934911,-0.2761 -0.2293739,-0.4375 -0.035885,-0.1686 -0.038231,-0.324 -0.038229,-0.5 l -1.1468694,0 c -3e-7,0.154 0.011321,0.3279 0.038229,0.5625 0.026913,0.2347 0.1150942,0.4602 0.267603,0.6875 0.1614783,0.22 0.432649,0.4324 0.7645795,0.5938 0.340899,0.1613 0.8044376,0.25 1.4144725,0.25 0.331927,0 0.630418,-0.044 0.917495,-0.125 0.287071,-0.073 0.558242,-0.1898 0.76458,-0.3438 0.20633,-0.154 0.342119,-0.3664 0.458748,-0.5937 0.116619,-0.2347 0.19114,-0.5045 0.191145,-0.8125 -5e-6,-0.2934 -0.04527,-0.5042 -0.152916,-0.6875 -0.09868,-0.1907 -0.250073,-0.3514 -0.420518,-0.4688 -0.161485,-0.1246 -0.358134,-0.2152 -0.573435,-0.2812 -0.20634,-0.073 -0.396362,-0.1601 -0.611664,-0.2188 -0.22428,-0.059 -0.434591,-0.1049 -0.649893,-0.1562 -0.2063371,-0.051 -0.4029869,-0.1142 -0.5734348,-0.1875 -0.1614811,-0.081 -0.3128677,-0.1713 -0.4205187,-0.2813 -0.098683,-0.11 -0.1529176,-0.2615 -0.152916,-0.4375 -1.6e-6,-0.2053 0.063203,-0.3514 0.152916,-0.4687 0.089709,-0.1247 0.1892061,-0.2226 0.3058318,-0.2813 0.1255928,-0.059 0.2477214,-0.1103 0.3822899,-0.125 0.1345633,-0.022 0.2543478,-0.031 0.3440608,-0.031 0.412666,0 0.697497,0.1145 0.841037,0.3125 0.152505,0.198 0.229371,0.4697 0.229375,0.8437 l 1.10864,0 c -5e-6,-0.176 -0.0024,-0.3498 -0.03823,-0.5625 -0.02692,-0.22 -0.124071,-0.4343 -0.267603,-0.625 -0.143541,-0.1906 -0.353852,-0.368 -0.649892,-0.5 -0.296049,-0.132 -0.703009,-0.1875 -1.223328,-0.1875 z m 5.696118,0 c -0.520324,0 -0.958887,0.081 -1.299786,0.25 -0.331929,0.1687 -0.605446,0.4015 -0.802808,0.6875 -0.188394,0.2787 -0.30155,0.5948 -0.382289,0.9688 -0.07177,0.374 -0.114687,0.7695 -0.114687,1.1875 0,0.418 0.04292,0.8135 0.114687,1.1875 0.08074,0.374 0.193895,0.714 0.382289,1 0.197362,0.2786 0.470879,0.4876 0.802808,0.6562 0.340899,0.1687 0.779462,0.2813 1.299786,0.2813 0.520318,0 0.929623,-0.1126 1.261557,-0.2813 0.331926,-0.1686 0.605441,-0.3776 0.802808,-0.6562 0.197359,-0.286 0.348745,-0.626 0.420519,-1 0.08073,-0.374 0.114681,-0.7695 0.114687,-1.1875 -6e-6,-0.418 -0.03395,-0.8135 -0.114687,-1.1875 -0.07177,-0.374 -0.22316,-0.6901 -0.420519,-0.9688 -0.188397,-0.286 -0.461912,-0.5188 -0.802808,-0.6875 -0.331934,-0.1686 -0.741239,-0.25 -1.261557,-0.25 z m 21.675834,0 c -0.861225,0 -1.496437,0.1535 -1.873221,0.4688 -0.376785,0.308 -0.535205,0.8014 -0.535205,1.4687 l 1.10864,0 0,-0.062 c -1e-6,-0.051 -0.0089,-0.1253 0,-0.25 0.01794,-0.132 0.08115,-0.2742 0.152916,-0.4062 0.08074,-0.132 0.220808,-0.2484 0.38229,-0.3438 0.170448,-0.1026 0.412361,-0.1562 0.72635,-0.1562 0.771509,0 1.146867,0.2957 1.14687,0.875 -3e-6,0.1247 -0.02926,0.2245 -0.03823,0.3125 -0.0089,0.088 -0.02264,0.184 -0.07646,0.25 -0.04486,0.066 -0.112754,0.1288 -0.229373,0.1875 -0.10766,0.051 -0.290647,0.1049 -0.496978,0.1562 l -1.49093,0.375 c -0.466496,0.1174 -0.846136,0.3151 -1.070411,0.5938 -0.215307,0.2713 -0.305832,0.6132 -0.305832,1.0312 0,0.528 0.144759,0.942 0.458748,1.25 0.322956,0.308 0.818099,0.4688 1.490929,0.4688 0.340898,0 0.679964,-0.1034 0.993954,-0.25 0.322955,-0.154 0.585155,-0.361 0.76458,-0.625 0.0089,0.1906 0.05188,0.3661 0.114687,0.4687 0.07176,0.1027 0.168917,0.1674 0.267602,0.2188 0.107648,0.044 0.198175,0.055 0.305832,0.062 0.116619,0.01 0.236404,0.031 0.344061,0.031 0.143532,0 0.294919,-0.017 0.420519,-0.031 0.125589,-0.015 0.184513,-0.024 0.229374,-0.031 l 0,-0.6562 c -0.02692,0.015 -0.03161,0.017 -0.07646,0.031 -0.03589,0.01 -0.119382,0.031 -0.191145,0.031 -0.179426,0 -0.278924,-0.061 -0.305832,-0.1563 -0.02692,-0.095 -0.03823,-0.2191 -0.03823,-0.3437 l 0,-3.2813 c -5e-6,-0.154 -0.01132,-0.3093 -0.03823,-0.5 -0.01794,-0.198 -0.08585,-0.3865 -0.229374,-0.5625 -0.134571,-0.176 -0.353852,-0.3201 -0.649892,-0.4375 -0.29605,-0.1173 -0.714325,-0.1875 -1.261556,-0.1875 z m 6.422468,0 c -0.206336,0 -0.373729,0.035 -0.535205,0.094 -0.152512,0.051 -0.294925,0.1234 -0.420519,0.2187 -0.125598,0.095 -0.245381,0.1879 -0.34406,0.3125 -0.08972,0.1247 -0.186866,0.267 -0.267604,0.4063 l 0,-0.875 -1.146869,0 0,5.9062 1.146869,0 0,-3.75 c -2e-6,-0.242 0.05424,-0.449 0.152916,-0.625 0.107648,-0.176 0.200522,-0.3275 0.344061,-0.4375 0.152506,-0.1173 0.326524,-0.1986 0.496978,-0.25 0.170447,-0.059 0.315206,-0.062 0.458747,-0.062 0.179418,0 0.339775,-0.015 0.420518,0 0.08971,0.01 0.137315,0.024 0.191146,0.031 l 0,-0.9063 c -0.107659,-0.044 -0.272704,-0.062 -0.496978,-0.062 z m 3.631754,0 c -0.556209,0 -1.035344,0.1145 -1.376243,0.3125 -0.331931,0.1907 -0.576188,0.4108 -0.76458,0.7188 -0.179422,0.3007 -0.319492,0.6499 -0.38229,1.0312 -0.05383,0.374 -0.07646,0.7584 -0.07646,1.125 0,1.0194 0.225907,1.7826 0.611664,2.2813 0.394725,0.4986 1.023311,0.75 1.911449,0.75 0.493404,0 0.909336,-0.096 1.223327,-0.25 0.313983,-0.1614 0.546924,-0.3425 0.726351,-0.5625 0.179415,-0.2274 0.281258,-0.4529 0.344061,-0.6875 0.07176,-0.242 0.114682,-0.4398 0.114687,-0.5938 l -1.10864,0 c -6e-6,0.11 -0.01132,0.2449 -0.03823,0.4063 -0.02692,0.154 -0.101433,0.2908 -0.191146,0.4375 -0.08074,0.1393 -0.220814,0.2723 -0.382289,0.375 -0.161484,0.095 -0.342536,0.125 -0.611664,0.125 -0.349874,0 -0.652648,-0.072 -0.841038,-0.2188 -0.179422,-0.154 -0.29258,-0.3351 -0.38229,-0.5625 -0.08972,-0.2273 -0.134976,-0.486 -0.152916,-0.75 -0.0089,-0.264 -0.03823,-0.4914 -0.03823,-0.7187 l 3.822897,0 0,-0.375 c -5e-6,-0.3153 -0.03161,-0.6627 -0.07646,-1 -0.04486,-0.3373 -0.144357,-0.6349 -0.305832,-0.9063 -0.161484,-0.2786 -0.403396,-0.5115 -0.726351,-0.6875 -0.322962,-0.176 -0.752553,-0.25 -1.299784,-0.25 z m -21.637605,0.1563 1.682076,5.9062 1.338014,0 1.185099,-4.8437 0.03823,0 1.261556,4.8437 1.223328,0 1.720304,-5.9062 -1.185098,0 -1.108641,4.8125 -0.03823,0 -1.185099,-4.8125 -1.338013,0 -1.223328,4.8125 -0.03823,0 -1.14687,-4.8125 -1.185099,0 z m -10.130679,0.5625 c 0.305013,0 0.537954,0.087 0.72635,0.2187 0.188389,0.1247 0.360062,0.28 0.458747,0.5 0.107649,0.2127 0.155258,0.4567 0.191146,0.75 0.03588,0.286 0.07645,0.591 0.07646,0.9063 -5e-6,0.3226 -0.04057,0.6202 -0.07646,0.9062 -0.03589,0.286 -0.0835,0.5613 -0.191146,0.7813 -0.107659,0.2126 -0.270358,0.368 -0.458747,0.5 -0.188396,0.1246 -0.43031,0.1875 -0.72635,0.1875 -0.287077,0 -0.537961,-0.063 -0.726351,-0.1875 -0.179423,-0.132 -0.321839,-0.2874 -0.420519,-0.5 -0.09868,-0.22 -0.155262,-0.4953 -0.191145,-0.7813 -0.03589,-0.286 -0.03823,-0.5836 -0.03823,-0.9062 -1e-6,-0.3153 0.0024,-0.6203 0.03823,-0.9063 0.03589,-0.2933 0.09247,-0.5373 0.191145,-0.75 0.107648,-0.22 0.279324,-0.3753 0.458747,-0.5 0.17942,-0.132 0.401046,-0.2187 0.688123,-0.2187 z m 31.730056,0 c 0.251187,0 0.45018,0.037 0.611663,0.125 0.161476,0.088 0.292575,0.2044 0.38229,0.3437 0.09868,0.1394 0.155256,0.324 0.191144,0.5 0.03588,0.1687 0.07645,0.3075 0.07646,0.4688 l 0,0.3437 -2.599571,0 0,-0.2187 c -10e-7,-0.088 0.01132,-0.2376 0.03823,-0.4063 0.02691,-0.176 0.101433,-0.3313 0.191144,-0.5 0.08971,-0.1686 0.211838,-0.3128 0.382291,-0.4375 0.179419,-0.132 0.430302,-0.2187 0.726351,-0.2187 z m -8.945582,2.125 0,1.5 c -5e-6,0.154 -0.03395,0.2981 -0.114688,0.4375 -0.08074,0.132 -0.209498,0.2723 -0.34406,0.375 -0.13457,0.1026 -0.27933,0.1601 -0.458748,0.2187 -0.170454,0.059 -0.346816,0.094 -0.535206,0.094 -0.385758,0 -0.650303,-0.067 -0.802809,-0.25 -0.143539,-0.1834 -0.229375,-0.442 -0.229374,-0.75 -10e-7,-0.2567 0.02497,-0.4618 0.114687,-0.5938 0.09868,-0.1393 0.241096,-0.2484 0.420519,-0.3437 0.125593,-0.066 0.288295,-0.1123 0.458748,-0.1563 0.179418,-0.051 0.355781,-0.1122 0.535205,-0.1562 0.188389,-0.051 0.373723,-0.098 0.535207,-0.1563 0.170446,-0.059 0.312862,-0.1307 0.420519,-0.2187 z m -12.195047,6.5937 0,1.7188 -1.070411,0 0,0.7187 1.070411,0 0,4.0625 c -10e-7,0.1907 0.0024,0.3846 0.03823,0.5313 0.04485,0.1466 0.12172,0.2723 0.229373,0.375 0.107648,0.095 0.270354,0.1674 0.458748,0.2187 0.188391,0.044 0.430304,0.062 0.726351,0.062 0.233244,0 0.420923,-0.017 0.573435,-0.031 0.152504,-0.015 0.272289,-0.017 0.344061,-0.031 l 0,-0.7812 c -0.06281,0.01 -0.157609,0.024 -0.229375,0.031 -0.07177,0.01 -0.14201,0 -0.267602,0 -0.296048,0 -0.512985,-0.054 -0.611663,-0.1562 -0.09868,-0.1027 -0.15292,-0.2654 -0.152916,-0.5 l 0,-3.7813 1.261556,0 0,-0.7187 -1.261556,0 0,-1.7188 -1.108642,0 z m -16.017944,1.5625 c -0.556208,0 -0.9971151,0.1145 -1.3380136,0.3125 -0.3319309,0.1907 -0.6144173,0.4108 -0.8028086,0.7188 -0.179422,0.3007 -0.281264,0.6499 -0.344061,1.0312 -0.053827,0.374 -0.076459,0.7584 -0.076459,1.125 -5e-7,1.0194 0.1876783,1.7826 0.5734348,2.2813 0.3947256,0.4986 1.0233114,0.75 1.9114489,0.75 0.448551,0 0.84185,-0.079 1.146869,-0.2188 0.305013,-0.1466 0.546926,-0.3186 0.726351,-0.5312 0.188388,-0.22 0.310517,-0.4621 0.382291,-0.7188 0.08074,-0.2566 0.114681,-0.5153 0.114686,-0.75 l -1.10864,0 c -4e-6,0.1614 -0.04057,0.324 -0.07646,0.5 -0.02692,0.1687 -0.06322,0.3221 -0.152916,0.4688 -0.08972,0.1393 -0.229785,0.2796 -0.38229,0.375 -0.152511,0.095 -0.33122,0.125 -0.573435,0.125 -0.340903,0 -0.6144186,-0.081 -0.8028087,-0.25 -0.1794233,-0.1687 -0.3308101,-0.383 -0.4205189,-0.625 -0.089713,-0.242 -0.1349754,-0.486 -0.1529159,-0.75 -0.00898,-0.264 -1.6e-6,-0.4969 0,-0.6875 -1.6e-6,-0.5353 0.033946,-0.9586 0.114687,-1.2813 0.080738,-0.3226 0.1712639,-0.55 0.3058319,-0.7187 0.1345638,-0.176 0.2972662,-0.2924 0.4587477,-0.3438 0.1704479,-0.051 0.3557819,-0.094 0.5352059,-0.094 0.215302,0 0.391665,0.052 0.535206,0.125 0.152505,0.073 0.263317,0.1639 0.34406,0.2812 0.0897,0.1174 0.155257,0.2596 0.191146,0.4063 0.04485,0.1467 0.07645,0.2669 0.07646,0.4062 l 1.10864,0 c -5e-6,-0.1686 -0.02264,-0.3425 -0.07646,-0.5625 -0.05383,-0.2273 -0.173616,-0.4582 -0.34406,-0.6562 -0.161485,-0.2053 -0.38311,-0.3607 -0.688123,-0.5 -0.296048,-0.1393 -0.691694,-0.2188 -1.185098,-0.2188 z m 5.810806,0 c -0.556208,0 -0.997116,0.1145 -1.338015,0.3125 -0.331929,0.1907 -0.614417,0.4108 -0.802808,0.7188 -0.179421,0.3007 -0.281264,0.6499 -0.344061,1.0312 -0.05383,0.374 -0.114687,0.7584 -0.114687,1.125 0,1.0194 0.225907,1.7826 0.611664,2.2813 0.394725,0.4986 1.023311,0.75 1.91145,0.75 0.493403,0 0.909335,-0.096 1.223327,-0.25 0.313983,-0.1614 0.546923,-0.3425 0.72635,-0.5625 0.179416,-0.2274 0.319487,-0.4529 0.38229,-0.6875 0.07176,-0.242 0.07645,-0.4398 0.07646,-0.5938 l -1.10864,0 c -5e-6,0.11 -0.01132,0.2449 -0.03823,0.4063 -0.02692,0.154 -0.101444,0.2908 -0.191145,0.4375 -0.08074,0.1393 -0.182586,0.2723 -0.344061,0.375 -0.161483,0.095 -0.380765,0.125 -0.649893,0.125 -0.349874,0 -0.614418,-0.072 -0.802808,-0.2188 -0.179423,-0.154 -0.33081,-0.3351 -0.420519,-0.5625 -0.08972,-0.2273 -0.134976,-0.486 -0.152916,-0.75 -0.0089,-0.264 -0.03823,-0.4914 -0.03823,-0.7187 l 3.822898,0 0,-0.375 c -5e-6,-0.3153 -0.03161,-0.6627 -0.07646,-1 -0.04486,-0.3373 -0.144358,-0.6349 -0.305832,-0.9063 -0.161484,-0.2786 -0.403397,-0.5115 -0.72635,-0.6875 -0.322962,-0.176 -0.752555,-0.25 -1.299786,-0.25 z m 6.498927,0 c -0.349875,0 -0.700256,0.072 -1.032182,0.2188 -0.331931,0.1467 -0.573845,0.3537 -0.726351,0.625 l -0.03823,0 0,-0.6875 -1.070411,0 0,5.9062 1.10864,0 0,-4.0937 c -2e-6,-0.2127 0.0632,-0.3846 0.152916,-0.5313 0.0897,-0.154 0.200522,-0.2796 0.344061,-0.375 0.143534,-0.095 0.297266,-0.1747 0.458747,-0.2187 0.170448,-0.044 0.344466,-0.062 0.496977,-0.062 0.251186,0 0.429895,0.044 0.573435,0.125 0.143533,0.081 0.272289,0.1878 0.344061,0.3125 0.07176,0.1173 0.105712,0.2357 0.114687,0.375 0.01793,0.1393 0.03822,0.265 0.03823,0.375 l 0,4.0937 1.10864,0 0,-4.1875 c -5e-6,-0.176 -0.02029,-0.381 -0.03823,-0.5937 -0.01794,-0.22 -0.06556,-0.4343 -0.191145,-0.625 -0.116629,-0.1907 -0.313278,-0.3441 -0.573435,-0.4688 -0.251194,-0.132 -0.594948,-0.1875 -1.070411,-0.1875 z m 9.174956,0 c -0.556209,0 -0.997116,0.1145 -1.338014,0.3125 -0.331931,0.1907 -0.576189,0.4108 -0.76458,0.7188 -0.179421,0.3007 -0.319493,0.6499 -0.382289,1.0312 -0.05383,0.374 -0.07646,0.7584 -0.07646,1.125 0,1.0194 0.187678,1.7826 0.573435,2.2813 0.394725,0.4986 1.023311,0.75 1.911449,0.75 0.493405,0 0.909337,-0.096 1.223327,-0.25 0.313983,-0.1614 0.546925,-0.3425 0.726351,-0.5625 0.179416,-0.2274 0.319487,-0.4529 0.382289,-0.6875 0.07176,-0.242 0.114683,-0.4398 0.114688,-0.5938 l -1.146869,0 c -6e-6,0.11 -0.01132,0.2449 -0.03823,0.4063 -0.02692,0.154 -0.06321,0.2908 -0.152916,0.4375 -0.08074,0.1393 -0.220815,0.2723 -0.38229,0.375 -0.161483,0.095 -0.380765,0.125 -0.649893,0.125 -0.349874,0 -0.614419,-0.072 -0.802808,-0.2188 -0.179424,-0.154 -0.33081,-0.3351 -0.420519,-0.5625 -0.08972,-0.2273 -0.134977,-0.486 -0.152916,-0.75 -0.0089,-0.264 -2e-6,-0.4914 0,-0.7187 l 3.784668,0 0,-0.375 c -4e-6,-0.3153 -0.03161,-0.6627 -0.07646,-1 -0.04486,-0.3373 -0.144358,-0.6349 -0.305832,-0.9063 -0.161485,-0.2786 -0.403397,-0.5115 -0.726351,-0.6875 -0.322963,-0.176 -0.752554,-0.25 -1.299785,-0.25 z m 6.346011,0 c -0.206337,0 -0.373729,0.035 -0.535205,0.094 -0.152512,0.051 -0.294927,0.1234 -0.420519,0.2187 -0.125598,0.095 -0.245381,0.1879 -0.344061,0.3125 -0.08972,0.1247 -0.148636,0.267 -0.229374,0.4063 l -0.03823,0 0,-0.875 -1.14687,0 0,5.9062 1.14687,0 0,-3.75 c -2e-6,-0.242 0.05424,-0.449 0.152916,-0.625 0.107648,-0.176 0.23875,-0.3275 0.382289,-0.4375 0.152506,-0.1173 0.288295,-0.1986 0.458748,-0.25 0.170448,-0.059 0.353436,-0.062 0.496978,-0.062 0.179417,0 0.301546,-0.015 0.382289,0 0.08971,0.01 0.137315,0.024 0.191145,0.031 l 0,-0.9063 c -0.10766,-0.044 -0.272705,-0.062 -0.496977,-0.062 z m -22.058123,0.7188 c 0.251187,0 0.450181,0.037 0.611664,0.125 0.161476,0.088 0.292574,0.2044 0.382289,0.3437 0.09868,0.1394 0.155257,0.324 0.191146,0.5 0.03587,0.1687 0.07645,0.3075 0.07646,0.4688 l 0,0.3437 -2.561342,0 0,-0.2187 c -2e-6,-0.088 0.01132,-0.2376 0.03823,-0.4063 0.02691,-0.176 0.0632,-0.3313 0.152916,-0.5 0.08971,-0.1686 0.211838,-0.3128 0.38229,-0.4375 0.179419,-0.132 0.430303,-0.2187 0.726351,-0.2187 z m 15.673884,0 c 0.251187,0 0.488409,0.037 0.649892,0.125 0.161476,0.088 0.292574,0.2044 0.382289,0.3437 0.09868,0.1394 0.155257,0.324 0.191146,0.5 0.03587,0.1687 0.03822,0.3075 0.03823,0.4688 l 0,0.3437 -2.561342,0 0,-0.2187 c -1e-6,-0.088 0.01132,-0.2376 0.03823,-0.4063 0.02691,-0.176 0.101433,-0.3313 0.191145,-0.5 0.08971,-0.1686 0.211838,-0.3128 0.38229,-0.4375 0.179419,-0.132 0.392073,-0.2187 0.688122,-0.2187 z"
       id="text3797"
       inkscape:connector-curvature="0" />
  </g>
</svg>
