<?xml version="1.0" encoding="UTF-8" standalone="no"?>
<!-- Created with Inkscape (http://www.inkscape.org/) -->

<svg
   xmlns:dc="http://purl.org/dc/elements/1.1/"
   xmlns:cc="http://creativecommons.org/ns#"
   xmlns:rdf="http://www.w3.org/1999/02/22-rdf-syntax-ns#"
   xmlns:svg="http://www.w3.org/2000/svg"
   xmlns="http://www.w3.org/2000/svg"
   xmlns:xlink="http://www.w3.org/1999/xlink"
   xmlns:sodipodi="http://sodipodi.sourceforge.net/DTD/sodipodi-0.dtd"
   xmlns:inkscape="http://www.inkscape.org/namespaces/inkscape"
   width="96"
   height="96"
   id="svg2"
   version="1.1"
   inkscape:version="0.48.4 r9939"
   sodipodi:docname="nero.svg">
  <defs
     id="defs4">
    <linearGradient
       id="linearGradient3809">
      <stop
         style="stop-color:#ff0029;stop-opacity:1;"
         offset="0"
         id="stop3811" />
      <stop
         style="stop-color:#030001;stop-opacity:1;"
         offset="1"
         id="stop3813" />
    </linearGradient>
    <radialGradient
       inkscape:collect="always"
       xlink:href="#linearGradient3809"
       id="radialGradient3815"
       cx="9.9999962"
       cy="74.921875"
       fx="9.9999962"
       fy="74.921875"
       r="21.984375"
       gradientTransform="matrix(0.90973698,0.90973695,-2.9653801,2.9653801,223.07447,-155.2692)"
       gradientUnits="userSpaceOnUse" />
  </defs>
  <sodipodi:namedview
     id="base"
     pagecolor="#ffffff"
     bordercolor="#666666"
     borderopacity="1.0"
     inkscape:pageopacity="0.0"
     inkscape:pageshadow="2"
     inkscape:zoom="7.017074"
     inkscape:cx="54.779122"
     inkscape:cy="46.792321"
     inkscape:document-units="px"
     inkscape:current-layer="layer1"
     showgrid="true"
     inkscape:snap-page="true"
     inkscape:snap-global="false"
     inkscape:snap-center="true"
     inkscape:snap-object-midpoints="false"
     showguides="true"
     inkscape:guide-bbox="true"
     inkscape:snap-bbox="true"
     inkscape:object-paths="true"
     inkscape:object-nodes="true"
     inkscape:window-width="1305"
     inkscape:window-height="744"
     inkscape:window-x="61"
     inkscape:window-y="24"
     inkscape:window-maximized="1"
     inkscape:snap-midpoints="false"
     inkscape:snap-grids="false"
     inkscape:snap-to-guides="false">
    <inkscape:grid
       type="xygrid"
       id="grid3002"
       empspacing="5"
       visible="true"
       enabled="true"
       snapvisiblegridlinesonly="true" />
  </sodipodi:namedview>
  <metadata
     id="metadata7">
    <rdf:RDF>
      <cc:Work
         rdf:about="">
        <dc:format>image/svg+xml</dc:format>
        <dc:type
           rdf:resource="http://purl.org/dc/dcmitype/StillImage" />
        <dc:title />
      </cc:Work>
    </rdf:RDF>
  </metadata>
  <g
     inkscape:label="Layer 1"
     inkscape:groupmode="layer"
     id="layer1"
     transform="translate(0,-956.36218)">
    <rect
       style="fill:#ffffff;fill-opacity:0;fill-rule:nonzero;stroke:none"
       id="rect3775"
       width="96"
       height="96"
       x="0"
       y="956.36218"
       ry="0" />
    <path
       style="fill:#000000;fill-opacity:0.09589041;fill-rule:nonzero;stroke:none"
       d="m 3.353015,956.30662 c -1.884176,0 -3.4111555,1.43156 -3.4111555,3.19799 l 0,83.65949 c 0,1.7665 1.5269795,3.1981 3.4111555,3.1981 l 89.23583,0 c 1.884174,0 3.411155,-1.4316 3.411155,-3.1981 l 0,-83.65949 c 0,-1.76643 -1.526981,-3.19799 -3.411155,-3.19799 z"
       id="rect3772"
       inkscape:connector-curvature="0"
       sodipodi:nodetypes="sssssssss" />
    <path
       style="fill:#000000;fill-opacity:0.18721463;fill-rule:nonzero;stroke:none"
       d="m 1.0459761,1041.8066 0,7.4219 c 0,1.7392 1.461916,3.1337 3.2852054,3.1337 l 86.3836135,0 c 1.823288,0 3.285205,-1.3945 3.285205,-3.1337 l 0,-7.4219 -92.9540239,0 z"
       id="rect3785"
       inkscape:connector-curvature="0" />
    <path
       style="fill:#000000;fill-opacity:0.38356168;fill-rule:nonzero;stroke:none"
       d="m 1.0459761,1041.8066 0,5.3807 c 0,1.762 1.461916,3.1749 3.2852054,3.1749 l 86.3836135,0 c 1.823288,0 3.285205,-1.4129 3.285205,-3.1749 l 0,-5.3807 -92.9540239,0 z"
       id="rect3783"
       inkscape:connector-curvature="0" />
    <rect
       style="fill:#1a1a1a;fill-opacity:1;fill-rule:nonzero;stroke:none"
       id="rect2985"
       width="92.954025"
       height="89"
       x="1.045977"
       y="957.36218"
       ry="3.1511393" />
    <path
       style="fill:url(#radialGradient3815);fill-opacity:1;fill-rule:evenodd;stroke:none;opacity:0.28395062"
       d="M 1.03125 42.3125 L 1.03125 68.8125 C 3.1694078 66.147204 6.3172056 64.34375 10 64.34375 C 16.443323 64.34375 21.65625 69.5566 21.65625 76 C 21.65625 82.4433 16.443323 87.65625 10 87.65625 C 6.3172056 87.65625 3.1694078 85.852805 1.03125 83.1875 L 1.03125 86.84375 C 1.03125 87.716616 1.3991816 88.524182 1.96875 89.09375 C 2.5383184 89.663318 3.3146344 90 4.1875 90 L 42.03125 90 C 43.911544 85.705957 45 80.987716 45 76 C 45 56.67 29.329971 41 10 41 C 6.8815046 41 3.9087997 41.547236 1.03125 42.3125 z "
       id="path3799"
       transform="translate(0,956.36218)" />
    <path
       style="fill:#000000;fill-opacity:0.38356168;fill-rule:nonzero;stroke:none"
       d="m 1,1042.3622 0.045976,2.7457 c 0.03024,1.8058 1.461916,3.2543 3.2852054,3.2543 l 86.3836136,0 c 1.823288,0 3.285205,-1.4481 3.285205,-3.2543 l -0.04598,-2.7457 z"
       id="rect3781"
       inkscape:connector-curvature="0"
       sodipodi:nodetypes="csssscc" />
    <rect
       style="fill:#ffffff;fill-opacity:0.30000001;fill-rule:nonzero;stroke:none"
       id="rect3770"
       width="92.954033"
       height="2.000005"
       x="1.045976"
       y="1040.3622" />
    <rect
       style="fill:#ffffff;fill-opacity:0.09132421;fill-rule:evenodd;stroke:none"
       id="rect3771"
       width="95.330246"
       height="30"
       x="1.0250565"
       y="987.58746"
       transform="matrix(0.97555603,-0.21975084,0,1,0,0)"
       inkscape:transform-center-x="-46.499998"
       inkscape:transform-center-y="4.5255755" />
    <rect
       y="994.58746"
       x="1.0250565"
       height="17.999994"
       width="95.330246"
       id="rect3773"
       style="fill:#ffffff;fill-opacity:0.09132421;fill-rule:evenodd;stroke:none"
       inkscape:transform-center-x="-46.499998"
       inkscape:transform-center-y="5.5255729"
       transform="matrix(0.97555603,-0.21975084,0,1,0,0)" />
    <path
       style="font-size:14.15454865px;font-style:normal;font-variant:normal;font-weight:bold;font-stretch:normal;text-align:end;line-height:125%;letter-spacing:0px;word-spacing:0px;text-anchor:end;fill:#ff0010;fill-opacity:0.13698629;stroke:none;font-family:Helvetica Neue LT Com;-inkscape-font-specification:Helvetica Neue LT Com Bold"
       d="m 94,990.56953 0,-2.875 a 0.69743699,0.8732271 41.786971 0 0 -0.375,0.17822 c -1.005051,0.79593 -2.1143,1.54746 -3.5,2.19465 -1.501595,0.68857 -3.166517,1.24453 -5.0625,1.67161 -1.896102,0.42711 -3.594618,0.62851 -5.09375,0.61615 -1.502134,-0.0322 -2.739672,-0.25415 -3.78125,-0.64824 -1.061355,-0.42065 -1.890173,-0.94156 -2.40625,-1.64548 C 73.257806,989.34758 73,988.42847 73,987.36242 c 0,-1.06615 0.249563,-2.02346 0.78125,-2.98848 0.119537,-0.22069 0.342212,-0.50066 0.59375,-0.85249 a 0.69743699,0.8732271 41.786971 0 0 -0.59375,-1.14751 c -1.190378,0.28219 -2.238998,0.57116 -3.1875,1.06176 -0.947262,0.48895 -1.76544,1.09298 -2.40625,1.76077 -0.635295,0.67059 -1.024012,1.41759 -1.28125,2.16361 C 66.653548,988.0711 66.5,988.79419 66.5,989.54535 l 0,5.96875 -5.28125,1.18963 0,-2.59375 a 0.69743699,0.8732271 41.786971 0 0 -0.28125,-0.56164 0.69743699,0.8732271 41.786971 0 0 0.28125,-0.65711 l 0,-1.90625 a 0.69743699,0.8732271 41.786971 0 0 -0.78125,-0.60526 l -16.5625,3.73082 a 0.69743699,0.8732271 41.786971 0 0 -0.78125,1.01973 c 0.109065,1.46843 0.770962,2.65905 2.03125,3.13619 a 0.69743699,0.8732271 41.786971 0 0 0,0.0312 c 1.208307,0.43478 2.843372,0.35951 4.84375,-0.0911 1.480399,-0.33347 2.714587,-0.92462 3.78125,-1.60176 a 0.69743699,0.8732271 41.786971 0 0 0.03125,-0.007 c 0.821568,-0.53699 1.386379,-1.05597 1.8125,-1.65828 L 59.75,994.00333 c -0.820981,1.19645 -1.818624,2.21906 -3.15625,3.05472 -1.856331,1.15922 -4.162708,2.03143 -6.90625,2.64943 -1.901785,0.42842 -3.574191,0.64162 -5.0625,0.60912 -1.500717,-0.032 -2.786164,-0.2671 -3.78125,-0.6795 -0.820256,-0.33995 -1.456651,-0.80589 -1.96875,-1.36903 a 0.69743699,0.8732271 41.786971 0 0 -1.40625,0.78552 l 0,3.00001 -5.25,1.1826 0,-7.68751 c -2.3e-5,-1.36281 -0.401848,-2.4221 -1.25,-2.99968 -0.0065,-0.005 -0.02467,0.0118 -0.03125,0.007 -0.875478,-0.6337 -2.164934,-0.63734 -3.84375,-0.25917 -1.925154,0.43365 -3.445112,1.09239 -4.5,2.16991 -0.01148,0.0117 -0.01991,0.0265 -0.03125,0.0383 -1.049023,1.08662 -1.531255,2.60184 -1.53125,4.25117 l 0,7.00008 -5.25,1.1825 0,-13.37498 4.90625,-1.10517 0,1.3125 a 0.69743699,0.8732271 41.786971 0 0 0.78125,0.60527 l 0.1875,-0.0422 a 0.69743699,0.8732271 41.786971 0 0 0.5625,-0.34545 c 0.753242,-0.91102 1.71417,-1.66305 3,-2.33202 1.326203,-0.68987 2.695872,-1.26352 4.03125,-1.56432 1.766458,-0.39791 3.148451,-0.52852 4.21875,-0.48155 1.116767,0.022 1.929234,0.1935 2.46875,0.50639 a 0.69743699,0.8732271 41.786971 0 0 0.03125,0.0242 c 0.552248,0.3045 0.953529,0.79815 1.15625,1.36455 a 0.69743699,0.8732271 41.786971 0 0 0.03125,0.0242 c 0.07226,0.17285 0.111184,0.39835 0.1875,0.73902 a 0.69743699,0.8732271 41.786971 0 0 1.40625,-0.0355 c 0.551877,-0.93789 1.183328,-1.7754 2.125,-2.57242 1.008006,-0.87071 2.351106,-1.66639 3.84375,-2.39709 1.517321,-0.73448 3.16189,-1.36848 4.96875,-1.77549 2.054827,-0.46287 3.790321,-0.63409 5.25,-0.4951 a 0.69743699,0.8732271 41.786971 0 0 0.03125,-0.007 c 1.475255,0.12226 2.589771,0.49793 3.5,1.05535 0.519665,0.30479 0.964,0.71705 1.34375,1.16606 a 0.69743699,0.8732271 41.786971 0 0 1.40625,-0.75427 l 0,-3.125 4.96875,-1.11924 0,2 a 0.69743699,0.8732271 41.786971 0 0 0.78125,0.60527 l 0.09375,-0.0211 a 0.69743699,0.8732271 41.786971 0 0 0.65625,-0.49158 c 0.258051,-0.43224 0.573229,-0.84407 1.0625,-1.30183 a 0.69743699,0.8732271 41.786971 0 0 0.03125,-0.007 c 0.525437,-0.51046 1.024087,-0.96844 1.625,-1.33479 a 0.69743699,0.8732271 41.786971 0 0 0.03125,-0.007 c 0.639054,-0.40721 1.364289,-0.75399 2.125,-1.07242 0.790183,-0.3257 1.603747,-0.61126 2.375,-0.78499 0.230667,-0.052 0.442709,-0.0623 0.65625,-0.0853 l 0,1.0625 a 0.69743699,0.8732271 41.786971 0 0 1.15625,0.42704 c 0.946205,-0.71402 1.99397,-1.41971 3.1875,-1.96801 1.495913,-0.7059 3.200502,-1.28343 5.09375,-1.7099 1.893391,-0.4265 3.564621,-0.61052 5.0625,-0.57786 1.366741,0.006 2.4627,0.29339 3.46875,0.65614 A 0.69743699,0.8732271 41.786971 0 0 94,977.63203 l 0,-2.96875 c -0.927995,-0.27967 -1.901529,-0.58514 -3.1875,-0.5945 -0.01286,-10e-5 -0.01806,0.006 -0.03125,0.007 -0.128748,-8.7e-4 -0.316891,0.0409 -0.3125,0.0391 -1.672156,-0.004 -3.466424,0.18708 -5.40625,0.62404 -1.94031,0.43707 -3.734922,1.0556 -5.40625,1.81155 -0.004,2.4e-4 -0.180123,0.0504 -0.3125,0.10164 -0.01312,0.005 -0.01849,10e-4 -0.03125,0.007 -0.532098,0.24665 -0.844858,0.50711 -1.21875,0.77453 -0.02632,-0.0344 -0.0575,-0.0739 -0.0625,-0.0797 -0.0069,-0.008 -0.08599,-0.12791 -0.09375,-0.13513 -0.0078,-0.007 -0.116488,-0.0905 -0.125,-0.0968 -0.0085,-0.006 -0.115799,-0.0602 -0.125,-0.0656 -0.0092,-0.005 -0.146431,-0.0854 -0.15625,-0.0898 -0.0098,-0.004 -0.114637,-0.0309 -0.125,-0.0343 -0.01036,-0.003 -0.145423,-0.0562 -0.15625,-0.0586 -0.01083,-0.002 -0.145042,-0.0259 -0.15625,-0.0273 -0.01121,-10e-4 -0.175996,-0.02 -0.1875,-0.0203 -0.0115,-3.1e-4 -0.144538,0.003 -0.15625,0.004 l 0,0.0312 c -0.492073,0.0115 -1.06792,-0.009 -1.78125,0.15124 -1.012417,0.22805 -2.011542,0.59841 -2.90625,0.96715 -0.757943,0.3173 -1.524889,0.75059 -2.28125,1.20137 -0.02855,0.017 -0.06523,0.004 -0.09375,0.0211 a 0.69743699,0.8732271 41.786971 0 0 -0.25,0.11881 c -0.01705,0.0104 -0.01447,0.0278 -0.03125,0.0383 -0.295102,0.18381 -0.432583,0.3342 -0.65625,0.52283 -0.0077,-0.0132 -0.03,-0.0222 -0.03125,-0.0242 -0.0032,-0.005 -0.02772,-0.0817 -0.03125,-0.0867 -0.0035,-0.005 -0.05868,-0.0749 -0.0625,-0.0797 -0.0038,-0.005 -0.05841,-0.0439 -0.0625,-0.0484 -0.0041,-0.004 -0.05814,-0.0755 -0.0625,-0.0797 -0.0044,-0.004 -0.05789,-0.0445 -0.0625,-0.0484 -0.0046,-0.004 -0.05765,-0.0448 -0.0625,-0.0484 -0.0049,-0.004 -0.05742,-0.0451 -0.0625,-0.0484 -0.0051,-0.003 -0.08845,-0.0384 -0.09375,-0.0414 -0.0053,-0.003 -0.057,-0.0457 -0.0625,-0.0484 -0.0055,-0.003 -0.08806,-0.039 -0.09375,-0.0414 -0.0057,-0.002 -0.08788,-0.0393 -0.09375,-0.0414 -0.0059,-0.002 -0.05647,-0.0154 -0.0625,-0.0172 -0.006,-0.002 -0.08757,-0.009 -0.09375,-0.0101 -0.0062,-10e-4 -0.08744,-0.0403 -0.09375,-0.0414 -0.0063,-10e-4 -0.08733,-0.009 -0.09375,-0.0101 -0.0064,-7.6e-4 -0.08723,-0.01 -0.09375,-0.0101 -0.0065,-3.4e-4 -0.08714,0.0211 -0.09375,0.0211 -0.0066,-2e-5 -0.08708,-0.0105 -0.09375,-0.0101 -0.0067,3.1e-4 -0.08703,-0.0108 -0.09375,-0.0101 -0.0067,6.8e-4 -0.08699,0.0201 -0.09375,0.0211 -0.0068,10e-4 -0.118228,0.0268 -0.125,0.0282 -0.0045,9.1e-4 -0.0349,0.008 -0.0625,0.0141 l -0.03125,0.007 -6.5,1.46417 c -0.0067,10e-4 -0.0871,0.0193 -0.09375,0.0211 -0.0067,0.002 -0.08712,0.019 -0.09375,0.0211 -0.0066,0.002 -0.08716,0.0499 -0.09375,0.0524 -0.0066,0.002 -0.08722,0.0183 -0.09375,0.0211 -0.0065,0.003 -0.08729,0.0493 -0.09375,0.0524 -0.0065,0.003 -0.08738,0.049 -0.09375,0.0524 -0.0064,0.003 -0.08748,0.0487 -0.09375,0.0524 -0.0063,0.004 -0.0876,0.0484 -0.09375,0.0524 -0.0062,0.004 -0.08773,0.0482 -0.09375,0.0524 -0.006,0.004 -0.08788,0.0479 -0.09375,0.0524 -0.0059,0.004 -0.05679,0.0719 -0.0625,0.0766 -0.0057,0.005 -0.08821,0.0787 -0.09375,0.0836 -0.0055,0.005 -0.0884,0.0472 -0.09375,0.0524 -0.0053,0.005 -0.05735,0.0712 -0.0625,0.0766 -0.0051,0.005 -0.05756,0.071 -0.0625,0.0766 -0.0049,0.006 -0.08904,0.0778 -0.09375,0.0836 -0.0047,0.006 -0.05803,0.10189 -0.0625,0.10783 -0.0045,0.006 -0.05828,0.0705 -0.0625,0.0766 -0.0042,0.006 -0.05853,0.0703 -0.0625,0.0766 -0.004,0.006 -0.02755,0.0944 -0.03125,0.10079 -0.0037,0.006 -0.05908,0.10135 -0.0625,0.10783 -0.0034,0.006 -0.05936,0.07 -0.0625,0.0766 -0.0031,0.007 -0.0284,0.0941 -0.03125,0.10079 -0.0028,0.007 -0.0287,0.0941 -0.03125,0.10078 -0.0025,0.007 -0.02901,0.094 -0.03125,0.10079 -0.0022,0.007 -0.02932,0.094 -0.03125,0.10079 -0.0019,0.007 -0.02963,0.094 -0.03125,0.10079 -0.0016,0.007 -0.02995,0.094 -0.03125,0.10079 -0.0013,0.007 9.77e-4,0.0869 0,0.0937 -2.93e-4,0.002 0.0014,0.0194 0,0.0312 -0.799535,-0.31466 -1.684181,-0.57999 -2.71875,-0.66883 -0.0094,-8.8e-4 -0.02184,0.008 -0.03125,0.007 -1.803007,-0.16777 -3.816547,0.0159 -6.0625,0.52187 -2.054095,0.4627 -3.935923,1.16008 -5.65625,1.99286 -1.652922,0.80914 -3.249497,1.7599 -4.625,2.94806 -0.423039,0.35805 -0.59761,0.63834 -0.84375,0.97131 -0.211328,-0.30012 -0.411275,-0.59277 -0.75,-0.83105 -0.0068,-0.005 0.0069,-0.0265 0,-0.0312 -0.02792,-0.0342 -0.125616,-0.0973 -0.125,-0.0969 a 0.69743699,0.8732271 41.786971 0 0 0,-0.0312 c -0.0057,-0.003 -0.02347,0.0106 -0.03125,0.007 -0.0065,-0.003 0.0074,-0.0279 0,-0.0312 -0.03948,-0.0225 -0.08477,-0.044 -0.125,-0.0656 -1.47e-4,-4e-5 -0.0416,0.0154 -0.0625,0.0141 -0.931426,-0.48909 -2.047091,-0.75252 -3.34375,-0.77805 -1.366817,-0.0599 -2.931417,0.0978 -4.875,0.53563 -1.676418,0.37762 -3.304907,1.08108 -4.8125,1.8653 -0.574368,0.29885 -0.845673,0.62299 -1.21875,0.96203 -0.0036,-0.006 7.48e-4,-0.0301 0,-0.0312 -0.0032,-0.005 -0.02772,-0.0817 -0.03125,-0.0867 -0.0035,-0.005 -0.05868,-0.0749 -0.0625,-0.0797 -0.0038,-0.005 -0.05841,-0.0439 -0.0625,-0.0484 -0.0041,-0.004 -0.05814,-0.0755 -0.0625,-0.0797 -0.0044,-0.004 -0.05789,-0.0445 -0.0625,-0.0484 -0.0046,-0.004 -0.05765,-0.0448 -0.0625,-0.0484 -0.0049,-0.004 -0.05742,-0.0451 -0.0625,-0.0484 -0.0051,-0.003 -0.08845,-0.0384 -0.09375,-0.0414 -0.0053,-0.003 -0.057,-0.0457 -0.0625,-0.0484 -0.0055,-0.003 -0.08806,-0.039 -0.09375,-0.0414 -0.0057,-0.002 -0.08788,-0.0393 -0.09375,-0.0414 -0.0059,-0.002 -0.05647,-0.0154 -0.0625,-0.0172 -0.006,-0.002 -0.08757,-0.009 -0.09375,-0.0101 -0.0062,-10e-4 -0.08744,-0.0403 -0.09375,-0.0414 -0.0063,-10e-4 -0.08733,-0.009 -0.09375,-0.0101 -0.0064,-7.6e-4 -0.08723,-0.01 -0.09375,-0.0101 -0.0065,-3.3e-4 -0.08714,0.0211 -0.09375,0.0211 -0.0066,-10e-6 -0.08708,-0.0105 -0.09375,-0.0101 -0.0067,3.1e-4 -0.08703,-0.0108 -0.09375,-0.0101 -0.0067,6.7e-4 -0.08699,0.0201 -0.09375,0.0211 -0.0068,0.001 -0.118228,0.0268 -0.125,0.0282 -0.0045,9.1e-4 -0.0349,0.008 -0.0625,0.0141 l -0.03125,0.007 -6.40625,1.44305 c -0.0023,4.6e-4 -0.01745,0.004 -0.03125,0.007 -0.0276,0.006 -0.05799,0.013 -0.0625,0.0141 -0.0068,0.002 -0.118244,0.0261 -0.125,0.0282 -0.0068,0.002 -0.08703,0.0188 -0.09375,0.0211 -0.0067,0.002 -0.08708,0.0497 -0.09375,0.0524 -0.0067,0.003 -0.08714,0.0494 -0.09375,0.0524 -0.0066,0.003 -0.08723,0.0179 -0.09375,0.0211 -0.0065,0.003 -0.08733,0.0488 -0.09375,0.0524 -0.0064,0.004 -0.08744,0.0485 -0.09375,0.0524 -0.0063,0.004 -0.08757,0.0794 -0.09375,0.0836 -0.0062,0.004 -0.08772,0.0479 -0.09375,0.0524 -0.006,0.004 -0.05663,0.0406 -0.0625,0.0453 -0.0059,0.005 -0.08806,0.0787 -0.09375,0.0836 -0.0057,0.005 -0.08825,0.0784 -0.09375,0.0836 -0.0055,0.005 -0.0572,0.0712 -0.0625,0.0766 -0.0053,0.005 -0.08867,0.078 -0.09375,0.0836 -0.0051,0.006 -0.05765,0.0708 -0.0625,0.0766 -0.0049,0.006 -0.05789,0.0706 -0.0625,0.0766 -0.0046,0.006 -0.05814,0.0704 -0.0625,0.0766 -0.0044,0.006 -0.05841,0.1015 -0.0625,0.10783 -0.0041,0.006 -0.05868,0.0701 -0.0625,0.0766 -0.0038,0.006 -0.05897,0.10126 -0.0625,0.10783 -0.0035,0.007 -0.02801,0.0941 -0.03125,0.10079 -0.0032,0.007 -0.05956,0.10107 -0.0625,0.10783 -0.0029,0.007 -0.02862,0.094 -0.03125,0.10079 -0.0026,0.007 -0.02893,0.0626 -0.03125,0.0695 -0.0023,0.007 -0.02925,0.0939 -0.03125,0.10079 -0.002,0.007 -0.02958,0.0938 -0.03125,0.10079 -0.0017,0.007 -0.02991,0.12509 -0.03125,0.13204 -0.0013,0.007 10e-4,0.0868 0,0.0937 -10e-4,0.007 -0.03058,0.0939 -0.03125,0.10079 -6.72e-4,0.007 3.35e-4,0.0869 0,0.0937 -3.35e-4,0.007 -3e-6,0.087 0,0.0937 l 0,14.99998 c -3e-6,0.01 -3.35e-4,0.087 0,0.094 3.35e-4,0.01 -6.72e-4,0.087 0,0.094 6.72e-4,0.01 0.03024,0.08 0.03125,0.087 10e-4,0.01 -0.0013,0.087 0,0.094 0.0013,0.01 0.02958,0.1117 0.03125,0.1179 0.0017,0.01 0.02925,0.081 0.03125,0.087 0.002,0.01 0.02893,0.081 0.03125,0.087 0.0023,0.01 0.02862,0.05 0.03125,0.056 0.0026,0.01 0.02831,0.081 0.03125,0.087 0.0029,0.01 0.05926,0.075 0.0625,0.08 0.0032,0.01 0.02772,0.082 0.03125,0.087 0.0035,0 0.05868,0.075 0.0625,0.08 0.0038,0 0.05841,0.044 0.0625,0.048 0.0041,0 0.05814,0.075 0.0625,0.08 0.0044,0 0.05789,0.044 0.0625,0.048 0.0046,0 0.05765,0.045 0.0625,0.048 0.0049,0 0.05742,0.045 0.0625,0.048 0.0051,0 0.08845,0.038 0.09375,0.041 0.0053,0 0.057,0.046 0.0625,0.048 0.0055,0 0.08806,0.039 0.09375,0.041 0.0057,0 0.08788,0.039 0.09375,0.041 0.0059,0 0.05647,0.015 0.0625,0.017 0.006,0 0.08757,0.01 0.09375,0.01 0.0062,0 0.08744,0.04 0.09375,0.041 0.0063,0 0.08733,0.01 0.09375,0.01 0.0064,8e-4 0.08723,0.01 0.09375,0.01 0.0065,4e-4 0.08714,-0.021 0.09375,-0.021 0.0066,0 0.08708,0.01 0.09375,0.01 0.0067,-4e-4 0.08703,0.011 0.09375,0.01 0.0067,-7e-4 0.08699,-0.02 0.09375,-0.021 0.0068,0 0.118228,-0.027 0.125,-0.028 0.0045,-9e-4 0.0349,-0.01 0.0625,-0.014 0.0138,0 0.02899,-0.01 0.03125,-0.01 l 6.75,-1.5205 0.03125,-0.01 c 0.0276,-0.01 0.05798,-0.013 0.0625,-0.014 0.0068,0 0.118244,-0.026 0.125,-0.028 0.0068,0 0.08703,-0.019 0.09375,-0.021 0.0067,0 0.08708,-0.05 0.09375,-0.052 0.0067,0 0.08714,-0.049 0.09375,-0.052 0.0066,0 0.08723,-0.018 0.09375,-0.021 0.0065,0 0.08733,-0.049 0.09375,-0.052 0.0064,0 0.08744,-0.048 0.09375,-0.052 0.0063,0 0.08757,-0.079 0.09375,-0.084 0.0062,0 0.08772,-0.048 0.09375,-0.052 0.006,0 0.05663,-0.041 0.0625,-0.045 0.0059,0 0.08806,-0.079 0.09375,-0.084 0.0057,0 0.08825,-0.078 0.09375,-0.084 0.0055,-0.01 0.0572,-0.071 0.0625,-0.077 0.0053,-0.01 0.08867,-0.078 0.09375,-0.084 0.0051,-0.01 0.05765,-0.071 0.0625,-0.077 0.0049,-0.01 0.05789,-0.071 0.0625,-0.077 0.0046,-0.01 0.05814,-0.07 0.0625,-0.077 0.0044,-0.01 0.05841,-0.1015 0.0625,-0.1078 0.0041,-0.01 0.05868,-0.07 0.0625,-0.077 0.0038,-0.01 0.05897,-0.1012 0.0625,-0.1078 0.0035,-0.01 0.02801,-0.094 0.03125,-0.1008 0.0032,-0.01 0.05956,-0.101 0.0625,-0.1078 0.0029,-0.01 0.02862,-0.094 0.03125,-0.1008 0.0026,-0.01 0.02893,-0.063 0.03125,-0.069 0.0023,-0.01 0.02925,-0.094 0.03125,-0.1008 0.002,-0.01 0.02958,-0.094 0.03125,-0.1008 0.0017,-0.01 0.02991,-0.1251 0.03125,-0.1321 0.0013,-0.01 -0.001,-0.087 0,-0.094 0.001,-0.01 0.03058,-0.094 0.03125,-0.1008 6.72e-4,-0.01 -3.35e-4,-0.087 0,-0.094 3.35e-4,-0.01 3e-6,-0.087 0,-0.094 l 0,-7.81248 c -4e-6,-1.184 0.2141,-1.56588 0.46875,-1.82433 a 0.69743699,0.8732271 41.786971 0 0 0.03125,-0.0695 c 0.0081,-0.008 0.05238,-0.036 0.0625,-0.0453 0.260927,-0.24108 1.15893,-0.76106 2.71875,-1.11242 0.672793,-0.15155 1.162617,-0.19307 1.5,-0.18164 0.311964,0.0106 0.474113,0.0605 0.46875,0.0507 -4.37e-4,-7.9e-4 0.03408,0.0263 0.03125,0.0242 0.02904,0.0226 0.05756,0.0449 0.0625,0.0484 a 0.69743699,0.8732271 41.786971 0 0 0,0.0312 c 0.107274,0.0714 0.164732,0.11216 0.21875,0.26322 0.05402,0.15107 0.09374,0.41782 0.09375,0.88513 l 0,8.46872 c -1e-6,0.01 -3.26e-4,0.087 0,0.094 3.26e-4,0.01 -6.52e-4,0.087 0,0.094 6.52e-4,0.01 0.03027,0.08 0.03125,0.087 9.77e-4,0.01 -0.0013,0.087 0,0.094 0.0013,0.01 0.02963,0.081 0.03125,0.087 0.0016,0.01 0.02932,0.081 0.03125,0.087 0.0019,0.01 0.02901,0.081 0.03125,0.087 0.0022,0.01 0.0287,0.081 0.03125,0.087 0.0025,0.01 0.0284,0.081 0.03125,0.087 0.0028,0.01 0.02811,0.082 0.03125,0.087 0.0031,0.01 0.05908,0.043 0.0625,0.048 0.0034,0 0.0588,0.075 0.0625,0.08 0.0037,0 0.02728,0.082 0.03125,0.087 0.004,0 0.05827,0.044 0.0625,0.048 0.0042,0 0.05803,0.044 0.0625,0.048 0.0045,0 0.05779,0.076 0.0625,0.08 0.0047,0 0.08882,0.038 0.09375,0.041 0.0049,0 0.05735,0.045 0.0625,0.048 0.0051,0 0.05715,0.046 0.0625,0.048 0.0053,0 0.08821,0.01 0.09375,0.01 0.0055,0 0.08804,0.039 0.09375,0.041 0.0057,0 0.05663,0.047 0.0625,0.048 0.0059,0 0.08773,0.01 0.09375,0.01 0.006,0 0.0876,0.01 0.09375,0.01 0.0062,0 0.08748,0.01 0.09375,0.01 0.0063,8e-4 0.08738,0.01 0.09375,0.01 0.0064,5e-4 0.08729,0.01 0.09375,0.01 0.0065,10e-5 0.08722,0.01 0.09375,0.01 0.0065,-2e-4 0.08716,-0.021 0.09375,-0.021 0.0066,-5e-4 0.08712,0.011 0.09375,0.01 0.0066,-8e-4 0.0871,-0.02 0.09375,-0.021 0.0067,0 0.08709,-0.02 0.09375,-0.021 l 6.78125,-1.5276 0.03125,-0.01 c 0.0276,-0.01 0.05799,-0.013 0.0625,-0.014 0.0068,0 0.118244,-0.026 0.125,-0.028 0.0068,0 0.08703,-0.019 0.09375,-0.021 0.0067,0 0.08708,-0.05 0.09375,-0.052 0.0067,0 0.08714,-0.049 0.09375,-0.052 0.0066,0 0.08723,-0.018 0.09375,-0.021 0.0065,0 0.08733,-0.049 0.09375,-0.052 0.0064,0 0.08744,-0.048 0.09375,-0.052 0.0063,0 0.08757,-0.08 0.09375,-0.084 0.0062,0 0.08772,-0.048 0.09375,-0.052 0.006,0 0.05663,-0.041 0.0625,-0.045 0.0059,0 0.08806,-0.079 0.09375,-0.084 0.0057,0 0.08825,-0.078 0.09375,-0.084 0.0055,-0.01 0.0572,-0.071 0.0625,-0.077 0.0053,-0.01 0.08867,-0.078 0.09375,-0.084 0.0051,-0.01 0.05765,-0.071 0.0625,-0.077 0.0049,-0.01 0.05789,-0.07 0.0625,-0.077 0.0046,-0.01 0.05814,-0.07 0.0625,-0.077 0.0044,-0.01 0.05841,-0.1015 0.0625,-0.1078 0.0041,-0.01 0.05868,-0.07 0.0625,-0.077 0.0038,-0.01 0.05897,-0.1013 0.0625,-0.1079 0.0035,-0.01 0.02801,-0.094 0.03125,-0.1007 0.0032,-0.01 0.05956,-0.1011 0.0625,-0.1079 0.0029,-0.01 0.02862,-0.094 0.03125,-0.1008 0.0026,-0.01 0.02893,-0.063 0.03125,-0.07 0.0023,-0.01 0.02925,-0.094 0.03125,-0.1008 0.002,-0.01 0.02958,-0.094 0.03125,-0.1008 0.0017,-0.01 0.02991,-0.1251 0.03125,-0.132 0.0013,-0.01 -10e-4,-0.087 0,-0.094 3.02e-4,0 -0.0015,-0.019 0,-0.031 1.113176,0.3546 2.325926,0.6016 3.71875,0.6311 1.725955,0.037 3.65027,-0.1348 5.75,-0.6078 2.985496,-0.6725 5.620946,-1.6662 7.90625,-3.09337 0.366921,-0.2292 0.64552,-0.49184 0.96875,-0.74947 0.0019,0.006 0.02901,0.081 0.03125,0.0867 0.0022,0.006 0.0287,0.0811 0.03125,0.0867 0.0025,0.006 0.0284,0.0813 0.03125,0.0867 0.0028,0.005 0.02811,0.0815 0.03125,0.0867 0.0031,0.005 0.05908,0.0435 0.0625,0.0484 0.0034,0.005 0.0588,0.075 0.0625,0.0797 0.0037,0.005 0.02728,0.0822 0.03125,0.0867 0.004,0.004 0.05828,0.0442 0.0625,0.0484 0.0042,0.004 0.05803,0.0445 0.0625,0.0484 0.0045,0.004 0.05779,0.076 0.0625,0.0797 0.0047,0.004 0.08881,0.038 0.09375,0.0414 0.0049,0.003 0.05735,0.0454 0.0625,0.0484 0.0051,0.003 0.05715,0.0457 0.0625,0.0484 0.0053,0.003 0.08821,0.008 0.09375,0.0101 0.0055,0.002 0.08804,0.0393 0.09375,0.0414 0.0057,0.002 0.05663,0.0466 0.0625,0.0484 0.0059,0.002 0.08773,0.009 0.09375,0.0101 0.006,10e-4 0.0876,0.009 0.09375,0.0101 0.0062,10e-4 0.08748,0.009 0.09375,0.0101 0.0063,7.8e-4 0.08738,0.01 0.09375,0.0101 0.0064,4.6e-4 0.08729,0.01 0.09375,0.0101 0.0065,1.3e-4 0.08722,0.0103 0.09375,0.0101 0.0065,-1.7e-4 0.08716,-0.0206 0.09375,-0.0211 0.0066,-5.1e-4 0.08712,0.011 0.09375,0.0101 0.0066,-8.3e-4 0.0871,-0.0199 0.09375,-0.0211 0.0067,-10e-4 0.08709,-0.0196 0.09375,-0.0211 l 6.84375,-1.54161 c 0.0067,-0.002 0.0871,-0.0193 0.09375,-0.0211 0.0067,-0.002 0.08712,-0.019 0.09375,-0.0211 0.0066,-0.002 0.08716,-0.0499 0.09375,-0.0524 0.0066,-0.002 0.08722,-0.0184 0.09375,-0.0211 0.0065,-0.003 0.08729,-0.0493 0.09375,-0.0524 0.0065,-0.003 0.08738,-0.049 0.09375,-0.0524 0.0064,-0.003 0.08748,-0.0487 0.09375,-0.0524 0.0063,-0.004 0.0876,-0.0484 0.09375,-0.0524 0.0062,-0.004 0.08773,-0.0482 0.09375,-0.0524 0.006,-0.004 0.08788,-0.0479 0.09375,-0.0524 0.0059,-0.004 0.05679,-0.0719 0.0625,-0.0766 0.0057,-0.005 0.08821,-0.0787 0.09375,-0.0836 0.0055,-0.005 0.0884,-0.0472 0.09375,-0.0524 0.0054,-0.005 0.05735,-0.0712 0.0625,-0.0766 0.0051,-0.005 0.05756,-0.071 0.0625,-0.0766 0.0049,-0.006 0.08904,-0.0778 0.09375,-0.0836 0.0047,-0.006 0.05803,-0.10189 0.0625,-0.10783 0.0045,-0.006 0.05827,-0.0705 0.0625,-0.0766 0.0042,-0.006 0.05853,-0.0703 0.0625,-0.0766 0.004,-0.006 0.02755,-0.0944 0.03125,-0.10079 0.0037,-0.006 0.05908,-0.10135 0.0625,-0.10783 0.0034,-0.006 0.05936,-0.07 0.0625,-0.0766 0.0031,-0.007 0.0284,-0.0941 0.03125,-0.10079 0.0028,-0.007 0.0287,-0.0941 0.03125,-0.10079 0.0025,-0.007 0.02901,-0.094 0.03125,-0.10078 0.0022,-0.007 0.02932,-0.094 0.03125,-0.10079 0.0019,-0.007 0.02963,-0.094 0.03125,-0.10079 0.0016,-0.007 0.02995,-0.094 0.03125,-0.10079 0.0013,-0.007 -9.77e-4,-0.0869 0,-0.0937 9.77e-4,-0.007 0.0306,-0.094 0.03125,-0.10079 6.52e-4,-0.007 -3.26e-4,-0.087 0,-0.0937 3.26e-4,-0.007 10e-7,-0.0871 0,-0.0937 l 0,-6.75 c 0,-0.40579 0.05739,-0.68908 0.21875,-1.14303 0.136476,-0.39573 0.2976,-0.68016 0.5,-0.89387 0.127737,-0.13128 0.382703,-0.26703 0.5625,-0.40796 -0.141164,0.47302 -0.28125,0.97328 -0.28125,1.50085 0,1.54039 0.438819,2.9243 1.25,4.03093 0.774673,1.05646 1.847173,1.74183 3.0625,2.24765 0.01248,0.005 0.01874,0.0191 0.03125,0.0242 0.01205,0.009 0.02943,0.0229 0.03125,0.0242 a 0.69743699,0.8732271 41.786971 0 0 0.0625,0.0484 c 0.0072,0.003 0.02405,-0.01 0.03125,-0.007 a 0.69743699,0.8732271 41.786971 0 0 0.03125,0.0242 c 1.346633,0.50935 2.872653,0.717 4.5625,0.75352 a 0.69743699,0.8732271 41.786971 0 0 0.03125,-0.007 0.69743699,0.8732271 41.786971 0 0 0.125,0.003 c 0.01831,8e-5 0.04414,-0.0141 0.0625,-0.0141 1.648272,0.003 3.485929,-0.12898 5.53125,-0.5897 2.115014,-0.47642 4.028278,-1.2005 5.71875,-1.97569 1.262782,-0.5898 2.251871,-1.28688 3.21875,-1.97504 z m -44.5625,-3.43074 c -1.110511,0.25015 -2.060847,0.5018 -2.9375,0.9742 -0.788404,0.41573 -1.452377,0.91735 -1.96875,1.41222 -0.494926,0.50242 -0.878141,1.03825 -1.125,1.56591 a 0.69743699,0.8732271 41.786971 0 0 -0.03125,0.0695 c -0.21834,0.55018 -0.251434,1.0056 -0.28125,1.28211 a 0.69743699,0.8732271 41.786971 0 0 0.78125,0.69902 l 11,-2.47783 a 0.69743699,0.8732271 41.786971 0 0 0.75,-1.16894 c -0.363045,-1.10221 -1.044765,-1.93534 -2.03125,-2.35495 -1.013067,-0.45702 -2.409822,-0.39467 -4.15625,-10e-4 z m 35.625,-8.02478 c -1.177495,0.26524 -2.236223,0.60057 -3.15625,1.14847 -0.0089,0.005 -0.02234,0.002 -0.03125,0.007 -0.832922,0.48623 -1.587611,1.08115 -2.15625,1.73571 a 0.69743699,0.8732271 41.786971 0 0 -0.03125,0.007 c -0.535489,0.65211 -0.90019,1.36761 -1.125,2.09716 -0.225131,0.73062 -0.28125,1.41444 -0.28125,2.06336 0,0.64881 0.05084,1.3552 0.28125,1.99914 0.225193,0.60646 0.599832,1.13372 1.125,1.55909 a 0.69743699,0.8732271 41.786971 0 0 0.03125,0.0242 c 0.578528,0.40562 1.336817,0.68066 2.1875,0.7885 0.871488,0.11231 1.931109,0.0338 3.15625,-0.24222 1.225243,-0.27599 2.260127,-0.67194 3.125,-1.17268 0.898976,-0.50631 1.554545,-1.13142 2.0625,-1.74584 l 0,-0.0312 c 0.524461,-0.62798 1.033806,-1.32325 1.28125,-2.10111 0.222374,-0.72186 0.312462,-1.4569 0.3125,-2.13289 -2.9e-5,-0.67604 -0.09531,-1.32262 -0.3125,-1.92961 -0.245688,-0.68652 -0.747175,-1.1458 -1.28125,-1.52389 -0.0062,-0.004 0.0062,-0.0269 0,-0.0312 -0.498837,-0.37838 -1.156537,-0.68555 -2.03125,-0.79245 -0.0089,-10e-4 -0.02229,0.008 -0.03125,0.007 -0.913351,-0.13277 -1.947733,0.001 -3.125,0.26643 z"
       id="path3782"
       inkscape:connector-curvature="0"
       inkscape:transform-center-x="-52.499882"
       inkscape:transform-center-y="4.6366221" />
    <path
       style="font-size:14.15454865px;font-style:normal;font-variant:normal;font-weight:bold;font-stretch:normal;text-align:end;line-height:125%;letter-spacing:0px;word-spacing:0px;text-anchor:end;fill:#ff0010;fill-opacity:0.13698629;stroke:none;font-family:Helvetica Neue LT Com;-inkscape-font-specification:Helvetica Neue LT Com Bold"
       d="m 94,992.16328 0,-5.9375 a 2.0381685,2.5518921 41.786971 0 0 -1.125,0.53466 c -0.331744,0.26272 -0.772142,0.45049 -1.125,0.69092 0.448329,-0.61359 0.923108,-1.18636 1.1875,-2.0175 a 2.0381685,2.5518921 41.786971 0 0 0,-0.0312 c 0.281471,-0.91369 0.406203,-1.79704 0.40625,-2.62276 -3.6e-5,-0.82567 -0.140041,-1.63326 -0.40625,-2.37724 -0.263698,-0.73684 -0.747628,-1.14808 -1.21875,-1.56922 0.358474,0.0875 0.782955,0.092 1.125,0.21534 A 2.0381685,2.5518921 41.786971 0 0 94,979.10078 l 0,-6.03125 c -0.835372,-0.24201 -1.634198,-0.53813 -2.84375,-0.54693 -0.01393,-1.6e-4 -0.01713,0.007 -0.03125,0.007 -0.01412,2.8e-4 -0.01699,0.006 -0.03125,0.007 -1.889864,-0.0334 -3.898392,0.22189 -6.03125,0.70233 -2.133766,0.48065 -4.143091,1.13155 -6.03125,2.01483 -0.0097,0.004 -0.02159,0.002 -0.03125,0.007 -0.01402,0.006 -0.01743,7.3e-4 -0.03125,0.007 -0.262706,0.12178 -0.282509,0.20591 -0.5,0.33138 -0.04786,-0.0249 -0.103825,-0.0459 -0.09375,-0.0414 0.02637,0.0119 -0.277831,-0.10916 -0.25,-0.0999 0.02783,0.009 -0.310328,-0.0994 -0.28125,-0.0929 0.02908,0.006 -0.311352,-0.034 -0.28125,-0.0304 0.0301,0.004 -0.312147,-0.0312 -0.28125,-0.0304 0.02435,6.2e-4 -0.140711,-0.0142 -0.21875,-0.0132 -0.01396,3.4e-4 -0.04811,0.0137 -0.0625,0.0141 -0.474417,0.0104 -1.147478,0.008 -2.03125,0.20755 -1.171881,0.26397 -2.231594,0.67363 -3.15625,1.05472 a 2.0381685,2.5518921 41.786971 0 0 -0.03125,0.007 c -0.7353,0.30781 -1.509349,0.75874 -2.28125,1.20136 -0.01941,0.0112 -0.04308,0.003 -0.0625,0.0141 a 2.0381685,2.5518921 41.786971 0 0 -0.375,0.14697 c -0.09011,-0.0439 -0.207886,-0.0913 -0.1875,-0.0828 0.03058,0.0128 -0.313643,-0.13342 -0.28125,-0.12415 0.03239,0.009 -0.377633,-0.0532 -0.34375,-0.0476 0.03388,0.006 -0.347536,-0.0565 -0.3125,-0.0546 0.03504,0.002 -0.37959,0.0167 -0.34375,0.0149 0.03584,-0.002 -0.380037,0.0204 -0.34375,0.0149 0.02969,-0.004 -0.200228,0.0479 -0.28125,0.0634 l -0.0625,0.0141 -6.46875,1.45714 c 0.03578,-0.008 -0.379356,0.1202 -0.34375,0.10868 0.03561,-0.0115 -0.378841,0.12356 -0.34375,0.10868 0.03509,-0.0149 -0.346738,0.18224 -0.3125,0.16414 0.03424,-0.0181 -0.345555,0.18528 -0.3125,0.16415 0.03305,-0.0211 -0.344054,0.25061 -0.3125,0.22664 0.03155,-0.024 -0.342249,0.28447 -0.3125,0.25789 0.02975,-0.0266 -0.277657,0.27274 -0.25,0.24382 0.02766,-0.0289 -0.275299,0.33731 -0.25,0.30631 0.01897,-0.0232 -0.120475,0.14167 -0.1875,0.22974 -0.508753,-0.12421 -1.011502,-0.27802 -1.59375,-0.3285 -0.0094,-8.8e-4 -0.02179,0.008 -0.03125,0.007 -1.981949,-0.18478 -4.134153,-0.006 -6.5,0.52667 -2.18396,0.49195 -4.19403,1.21921 -6.03125,2.10858 a 2.0381685,2.5518921 41.786971 0 0 -0.03125,0.007 c -1.66305,0.8141 -3.27841,1.82247 -4.78125,3.07701 -0.02865,-0.0248 -0.08803,-0.0678 -0.09375,-0.0726 -10e-4,-8.8e-4 2.7e-5,-0.0312 0,-0.0312 -1.57e-4,-1.1e-4 -0.0992,-0.0328 -0.15625,-0.0586 -0.0083,-0.004 -0.02226,0.0111 -0.03125,0.007 -0.167989,-0.0759 -0.405811,-0.18963 -0.40625,-0.18974 -0.0072,-0.003 -0.02404,0.0105 -0.03125,0.007 -0.01177,-0.006 -0.01944,-0.0186 -0.03125,-0.0242 -1.043959,-0.49204 -2.241463,-0.75789 -3.5625,-0.79127 -0.02274,-5.8e-4 -0.03969,-0.0167 -0.0625,-0.0172 l 0,0.0312 c -1.508208,-0.0601 -3.201213,0.0961 -5.21875,0.55056 -1.87915,0.42329 -3.65708,1.19775 -5.25,2.02635 -0.252631,0.13145 -0.227455,0.21122 -0.4375,0.34855 -0.09011,-0.0439 -0.207886,-0.0913 -0.1875,-0.0828 0.03058,0.0128 -0.313643,-0.13342 -0.28125,-0.12414 0.03239,0.009 -0.377633,-0.0532 -0.34375,-0.0476 0.03388,0.006 -0.347536,-0.0565 -0.3125,-0.0546 0.03504,0.002 -0.37959,0.0167 -0.34375,0.0149 0.03584,-0.002 -0.380037,0.0204 -0.34375,0.0149 0.02969,-0.004 -0.200228,0.0479 -0.28125,0.0634 l -0.0625,0.0141 -6.34375,1.42897 c 0.0066,-10e-4 -0.04449,0.009 -0.0625,0.0141 -0.08102,0.0211 -0.310939,0.0722 -0.28125,0.0634 0.03629,-0.0109 -0.37959,0.15427 -0.34375,0.13993 0.03584,-0.0144 -0.378786,0.15763 -0.34375,0.13993 0.03504,-0.0177 -0.346383,0.21628 -0.3125,0.19539 0.03388,-0.0209 -0.376143,0.2263 -0.34375,0.20243 0.03239,-0.0239 -0.31183,0.27746 -0.28125,0.25086 0.03058,-0.0266 -0.309712,0.27993 -0.28125,0.25085 0.02846,-0.0291 -0.27606,0.33758 -0.25,0.30632 0.02606,-0.0313 -0.273399,0.33944 -0.25,0.30631 0.0234,-0.0331 -0.239254,0.33395 -0.21875,0.29927 0.0205,-0.0347 -0.173656,0.38357 -0.15625,0.3477 0.01741,-0.0359 -0.170383,0.38441 -0.15625,0.3477 0.01413,-0.0367 -0.13572,0.37784 -0.125,0.34065 0.01072,-0.0372 -0.100951,0.40216 -0.09375,0.36487 0.0072,-0.0373 -0.03486,0.38781 -0.03125,0.35079 0.0036,-0.037 -0.03123,0.38717 -0.03125,0.35079 l 0,14.99999 c 1.8e-5,-0.036 0.03486,0.3721 0.03125,0.3367 -0.0036,-0.035 0.03845,0.3707 0.03125,0.3367 -0.0072,-0.034 0.10447,0.355 0.09375,0.3226 -0.01072,-0.032 0.139133,0.3147 0.125,0.2844 -0.01413,-0.03 0.173656,0.3053 0.15625,0.2773 -0.01741,-0.028 0.176754,0.3027 0.15625,0.2773 -0.0205,-0.025 0.242149,0.2233 0.21875,0.2007 -0.0234,-0.023 0.27606,0.2132 0.25,0.1937 -0.02606,-0.019 0.278462,0.2099 0.25,0.1937 -0.02846,-0.016 0.31183,0.137 0.28125,0.1241 -0.03058,-0.013 0.313643,0.1334 0.28125,0.1242 -0.03239,-0.01 0.377633,0.053 0.34375,0.048 -0.03388,-0.01 0.347536,0.057 0.3125,0.055 -0.03504,0 0.37959,-0.017 0.34375,-0.015 -0.03584,0 0.380037,-0.02 0.34375,-0.015 -0.02969,0 0.200228,-0.048 0.28125,-0.063 0.01801,0 0.06911,-0.016 0.0625,-0.014 l 6.6875,-1.5065 0.0625,-0.014 c 0.08102,-0.021 0.310939,-0.072 0.28125,-0.063 -0.03629,0.011 0.37959,-0.1543 0.34375,-0.1399 -0.03584,0.014 0.378786,-0.1577 0.34375,-0.1399 -0.03504,0.018 0.346383,-0.2163 0.3125,-0.1954 -0.03388,0.021 0.376143,-0.2263 0.34375,-0.2025 -0.03239,0.024 0.31183,-0.2774 0.28125,-0.2508 -0.03058,0.027 0.309712,-0.28 0.28125,-0.2509 -0.02846,0.029 0.27606,-0.3376 0.25,-0.3063 -0.02606,0.031 0.273399,-0.3394 0.25,-0.3063 -0.0234,0.033 0.239254,-0.334 0.21875,-0.2993 -0.0205,0.035 0.173656,-0.3836 0.15625,-0.3477 -0.01741,0.036 0.170383,-0.3844 0.15625,-0.3477 -0.01413,0.037 0.13572,-0.3778 0.125,-0.3406 -0.01072,0.037 0.100951,-0.4022 0.09375,-0.3649 -0.0072,0.037 0.03486,-0.3878 0.03125,-0.3508 -0.0036,0.037 0.03123,-0.3872 0.03125,-0.3508 l 0,-7.81245 c -3e-6,-0.95082 0.07884,-0.71655 -0.09375,-0.54138 a 2.0381685,2.5518921 41.786971 0 0 0.03125,-0.0383 c -0.310737,0.3227 0.409824,-0.31107 1.84375,-0.63407 0.442071,-0.0996 0.663071,-0.095 0.875,-0.10335 0.0015,0.0437 -1e-6,0.009 0,0.0625 l 0,8.46875 c 6e-6,-0.036 0.03475,0.3715 0.03125,0.3367 -0.0035,-0.035 0.03823,0.3702 0.03125,0.3367 -0.007,-0.034 0.104132,0.3233 0.09375,0.2914 -0.01038,-0.032 0.107439,0.3213 0.09375,0.2914 -0.01369,-0.03 0.173114,0.305 0.15625,0.2773 -0.01686,-0.028 0.207376,0.2955 0.1875,0.2702 -0.01988,-0.025 0.210196,0.2303 0.1875,0.2078 -0.0227,-0.023 0.275299,0.2133 0.25,0.1937 -0.0253,-0.02 0.277657,0.2101 0.25,0.1937 -0.02766,-0.016 0.279749,0.1443 0.25,0.1312 -0.02975,-0.013 0.344054,0.1268 0.3125,0.1171 -0.03155,-0.01 0.345555,0.092 0.3125,0.086 -0.03306,-0.01 0.346738,0.026 0.3125,0.023 -0.03424,0 0.347591,0.022 0.3125,0.023 -0.03509,9e-4 0.379356,-0.051 0.34375,-0.046 -0.03561,0 0.379528,-0.054 0.34375,-0.046 l 6.75,-1.5205 0.0625,-0.014 c 0.08102,-0.021 0.310939,-0.072 0.28125,-0.063 -0.03629,0.011 0.37959,-0.1543 0.34375,-0.14 -0.03584,0.014 0.378786,-0.1576 0.34375,-0.1399 -0.03504,0.018 0.346383,-0.2163 0.3125,-0.1954 -0.03388,0.021 0.376143,-0.2263 0.34375,-0.2024 -0.03239,0.024 0.31183,-0.2775 0.28125,-0.2509 -0.03058,0.027 0.309712,-0.2799 0.28125,-0.2508 -0.02846,0.029 0.27606,-0.3376 0.25,-0.3064 -0.02606,0.031 0.273399,-0.3394 0.25,-0.3063 -0.01098,0.016 0.03986,-0.063 0.09375,-0.1461 0.854124,0.1693 1.599895,0.4962 2.5625,0.5165 1.843662,0.04 3.873623,-0.1538 6.09375,-0.6539 3.09207,-0.6965 5.90344,-1.7174 8.40625,-3.2685 0.08079,0.055 0.173536,0.1313 0.15625,0.121 -0.02766,-0.016 0.279749,0.1444 0.25,0.1312 -0.02975,-0.013 0.344054,0.1269 0.3125,0.1171 -0.03155,-0.01 0.345555,0.092 0.3125,0.086 -0.03305,-0.01 0.346738,0.026 0.3125,0.023 -0.03424,0 0.347591,0.022 0.3125,0.023 -0.03509,9e-4 0.379356,-0.051 0.34375,-0.046 -0.03561,0 0.379528,-0.054 0.34375,-0.046 l 6.84375,-1.54157 c -0.03578,0.008 0.379356,-0.1202 0.34375,-0.10868 -0.03561,0.0115 0.378841,-0.12357 0.34375,-0.10868 -0.03509,0.0149 0.346738,-0.18224 0.3125,-0.16414 -0.03424,0.0181 0.345555,-0.18528 0.3125,-0.16415 -0.03306,0.0211 0.344054,-0.25061 0.3125,-0.22664 -0.03155,0.024 0.342249,-0.28447 0.3125,-0.25789 -0.02975,0.0266 0.277657,-0.27274 0.25,-0.24382 -0.02766,0.0289 0.275299,-0.33731 0.25,-0.30631 -0.0253,0.031 0.272696,-0.33908 0.25,-0.30631 -0.0227,0.0328 0.207376,-0.32647 0.1875,-0.29224 -0.01988,0.0342 0.204364,-0.39009 0.1875,-0.35474 -0.01686,0.0353 0.169939,-0.38383 0.15625,-0.34769 -0.01369,0.0361 0.104132,-0.3702 0.09375,-0.33362 -0.01038,0.0366 0.100726,-0.37028 0.09375,-0.33362 -0.007,0.0367 0.03475,-0.38718 0.03125,-0.35079 -0.0035,0.0364 0.03124,-0.38656 0.03125,-0.35079 l 0,-1.71875 c 0.781122,0.8535 1.698748,1.49296 2.71875,1.95009 0.0121,0.005 0.01913,0.0188 0.03125,0.0242 0.02921,0.0225 0.06901,0.0532 0.0625,0.0484 a 2.0381685,2.5518921 41.786971 0 0 0.1875,0.0828 c 0.05594,0.0232 0.09998,0.0675 0.15625,0.0898 a 2.0381685,2.5518921 41.786971 0 0 0.0625,0.0172 c 1.520814,0.57522 3.216914,0.80392 5,0.84246 a 2.0381685,2.5518921 41.786971 0 0 0.03125,-0.007 2.0381685,2.5518921 41.786971 0 0 0.40625,-0.029 c 0.04604,-2.4e-4 0.1099,-0.0347 0.15625,-0.0352 1.6546,-0.0169 3.460139,-0.12318 5.5,-0.58267 2.24825,-0.50643 4.283886,-1.26876 6.0625,-2.08437 1.154163,-0.53907 2.002769,-1.17069 2.875,-1.77261 z m -61.96875,-0.91611 c 0.297237,-0.0127 0.782835,-0.1182 1.03125,-0.10729 a 2.0381685,2.5518921 41.786971 0 0 0.0625,0.0172 c 0.99144,0.0195 1.588009,0.19245 1.875,0.35889 a 2.0381685,2.5518921 41.786971 0 0 0.03125,0.0242 c 0.324286,0.17881 0.586415,0.46896 0.6875,0.75139 a 2.0381685,2.5518921 41.786971 0 0 0.03125,0.0867 c -0.0052,-0.0125 0.03362,0.12644 0.125,0.53434 a 2.0381685,2.5518921 41.786971 0 0 4.09375,-0.10964 c 0.463133,-0.78708 0.96957,-1.40932 1.71875,-2.04341 0.138964,-0.12004 0.430851,-0.26148 0.59375,-0.38375 -0.06072,0.11278 -0.165273,0.21622 -0.21875,0.33052 A 2.0381685,2.5518921 41.786971 0 0 42,990.87664 c -0.331016,0.8341 -0.380558,1.5095 -0.40625,1.74776 a 2.0381685,2.5518921 41.786971 0 0 0.375,1.44678 2.0381685,2.5518921 41.786971 0 0 0,0.0312 2.0381685,2.5518921 41.786971 0 0 -0.375,1.45947 c 0.07869,1.05953 0.511597,2.01198 1.125,2.80909 -0.321515,-0.0812 -0.800718,-0.0584 -1.0625,-0.16692 -0.679357,-0.28155 -1.191497,-0.6674 -1.59375,-1.10974 a 2.0381685,2.5518921 41.786971 0 0 -4.09375,2.29714 l 0,1.49998 -2.25,0.5068 0,-6.18745 c -2.7e-5,-1.61036 -0.505446,-3.13311 -1.6875,-3.96363 z m -14.75,3.47879 1.90625,-0.42939 a 2.0381685,2.5518921 41.786971 0 0 1.0625,1.47941 c -0.455653,1.08229 -0.718754,2.20053 -0.71875,3.31816 l 0,5.49996 -2.25,0.5069 0,-10.37504 z"
       id="path3786"
       inkscape:connector-curvature="0"
       inkscape:transform-center-x="-51.75"
       inkscape:transform-center-y="4.6284056" />
    <path
       style="font-size:14.15454865px;font-style:normal;font-variant:normal;font-weight:bold;font-stretch:normal;text-align:end;line-height:125%;letter-spacing:0px;word-spacing:0px;text-anchor:end;fill:#ff0010;fill-opacity:0.13698629;stroke:none;font-family:Helvetica Neue LT Com;-inkscape-font-specification:Helvetica Neue LT Com Bold"
       d="m 94,993.22578 0,-8 a 2.9009023,3.6320794 41.786971 0 0 -0.09375,0.0211 c 0.05979,-0.21437 0.04648,-0.40396 0.09375,-0.61487 l 0,-3.96875 c -0.04722,-0.18656 -0.0352,-0.39228 -0.09375,-0.57263 A 2.9009023,3.6320794 41.786971 0 0 94,980.06953 l 0,-8.0625 c -0.803741,-0.20517 -1.486098,-0.46292 -2.625,-0.4712 -0.02788,-2.2e-4 -0.03411,0.0132 -0.0625,0.0141 -1.975592,-0.032 -4.068611,0.22898 -6.25,0.72035 -2.182548,0.49164 -4.276545,1.17507 -6.25,2.09536 -0.02825,0.0118 -0.0348,10e-4 -0.0625,0.0141 -0.103225,0.0479 -0.09094,0.0563 -0.1875,0.10473 0.0026,0.0103 -0.794939,-0.17061 -0.6875,-0.15763 0.09447,0.0114 -0.468705,-0.005 -0.625,-0.0155 -0.02557,6.6e-4 -0.09731,-0.004 -0.125,-0.003 -0.470003,0.009 -1.183941,0.0167 -2.15625,0.23571 -1.274493,0.28709 -2.399823,0.73918 -3.34375,1.1282 a 2.9009023,3.6320794 41.786971 0 0 -0.03125,0.007 c -0.711546,0.29787 -1.485599,0.73605 -2.25,1.16308 -0.0098,0.006 -0.02146,0.002 -0.03125,0.007 a 2.9009023,3.6320794 41.786971 0 0 -0.0625,0.0141 c -0.124406,-0.0433 -0.254148,-0.0859 -0.21875,-0.0757 0.061,0.0175 -0.470055,-0.10658 -0.40625,-0.096 0.06381,0.0106 -0.503476,-0.0613 -0.4375,-0.0577 0.06598,0.004 -0.50499,0.008 -0.4375,0.005 0.06749,-0.003 -0.505831,0.0777 -0.4375,0.0673 0.05376,-0.008 -0.226667,0.0241 -0.34375,0.0462 l -0.09375,0.0211 -6.4375,1.4501 c 0.06737,-0.0152 -0.504548,0.15149 -0.4375,0.1298 0.06705,-0.0217 -0.503579,0.18907 -0.4375,0.16105 0.06608,-0.028 -0.470723,0.21933 -0.40625,0.18526 0.06447,-0.0341 -0.468495,0.28756 -0.40625,0.24776 0.06224,-0.0398 -0.465668,0.32415 -0.40625,0.27901 0.05942,-0.0451 -0.431019,0.35327 -0.375,0.30322 0.05602,-0.0501 -0.39583,0.3819 -0.34375,0.32743 0.0052,-0.005 -0.02792,0.0342 -0.03125,0.0383 -0.362328,-0.0672 -0.667958,-0.19571 -1.0625,-0.22941 -0.0096,-9.4e-4 -0.02168,0.008 -0.03125,0.007 -2.097058,-0.1957 -4.369641,0.0155 -6.8125,0.56581 -2.267525,0.51077 -4.368813,1.27036 -6.28125,2.19614 a 2.9009023,3.6320794 41.786971 0 0 -0.03125,0.0383 c -1.517192,0.74271 -3.021404,1.6366 -4.46875,2.75662 -0.0143,-0.007 -0.04814,0.0214 -0.0625,0.0141 -0.102553,-0.0519 -0.207189,-0.10101 -0.3125,-0.14836 -0.01188,-0.005 -0.01933,-0.0189 -0.03125,-0.0242 -1.117097,-0.49544 -2.365228,-0.78488 -3.71875,-0.81857 -0.0227,-5.9e-4 -0.03975,-0.0167 -0.0625,-0.0172 l 0,0.0312 c -1.606944,-0.0643 -3.387917,0.10691 -5.46875,0.57563 -2.009604,0.45268 -3.852173,1.25675 -5.5,2.11391 -0.06702,0.0349 -0.092,0.0624 -0.15625,0.0977 -0.0146,-0.006 -0.0723,-0.02 -0.0625,-0.0172 0.061,0.0175 -0.470055,-0.10658 -0.40625,-0.096 0.0638,0.0106 -0.503476,-0.0613 -0.4375,-0.0577 0.06598,0.004 -0.50499,0.008 -0.4375,0.005 0.06749,-0.003 -0.505831,0.0777 -0.4375,0.0673 0.05376,-0.008 -0.226667,0.0241 -0.34375,0.0462 l -0.09375,0.0211 -6.28125,1.41489 L 15,988.45858 c -0.117083,0.0307 -0.397513,0.12474 -0.34375,0.10868 0.06833,-0.0204 -0.50499,0.15682 -0.4375,0.1298 0.06749,-0.027 -0.503476,0.22565 -0.4375,0.1923 0.06598,-0.0333 -0.501305,0.29414 -0.4375,0.2548 0.06381,-0.0393 -0.467248,0.32396 -0.40625,0.27901 0.061,-0.0449 -0.432584,0.35332 -0.375,0.30323 0.05758,-0.0501 -0.397345,0.38218 -0.34375,0.32743 0.05359,-0.0547 -0.392823,0.41755 -0.34375,0.35868 0.04907,-0.0589 -0.356562,0.47654 -0.3125,0.41414 0.04406,-0.0624 -0.288611,0.46536 -0.25,0.40007 0.03861,-0.0653 -0.282776,0.49886 -0.25,0.43131 0.03278,-0.0676 -0.214114,0.51762 -0.1875,0.44849 0.02661,-0.0691 -0.176437,0.51146 -0.15625,0.44144 0.02019,-0.07 -0.107309,0.52884 -0.09375,0.45862 0.01356,-0.0702 -0.0693,0.52129 -0.0625,0.45158 0.0068,-0.0697 -0.03121,0.51305 -0.03125,0.44454 l 0,15 c 3.5e-5,-0.068 0.03805,0.4971 0.03125,0.4305 -0.0068,-0.067 0.07606,0.4875 0.0625,0.4234 -0.01356,-0.064 0.113937,0.4773 0.09375,0.4164 -0.02019,-0.061 0.182864,0.4282 0.15625,0.371 -0.02661,-0.057 0.220276,0.4168 0.1875,0.364 -0.03278,-0.053 0.288611,0.3666 0.25,0.3187 -0.03861,-0.048 0.294062,0.33 0.25,0.2875 -0.04406,-0.043 0.361573,0.3101 0.3125,0.2733 -0.04907,-0.037 0.397345,0.2344 0.34375,0.2038 -0.05359,-0.031 0.401334,0.1968 0.34375,0.1726 -0.05758,-0.024 0.435998,0.1517 0.375,0.1343 -0.061,-0.017 0.470055,0.1066 0.40625,0.096 -0.06381,-0.011 0.503476,0.061 0.4375,0.058 -0.06598,0 0.50499,-0.01 0.4375,0 -0.06749,0 0.505831,-0.078 0.4375,-0.067 -0.05376,0.01 0.226667,-0.024 0.34375,-0.046 0.03173,-0.01 0.108352,-0.025 0.09375,-0.021 l 6.625,-1.4924 c -0.0146,0 0.06202,-0.013 0.09375,-0.021 0.117083,-0.031 0.397513,-0.1247 0.34375,-0.1087 -0.06833,0.02 0.50499,-0.1568 0.4375,-0.1298 -0.06749,0.027 0.503476,-0.2256 0.4375,-0.1923 -0.06598,0.033 0.501305,-0.2941 0.4375,-0.2548 -0.0638,0.039 0.467248,-0.3239 0.40625,-0.279 -0.061,0.045 0.432584,-0.3533 0.375,-0.3032 -0.05758,0.05 0.397345,-0.3822 0.34375,-0.3274 -0.0536,0.055 0.392823,-0.4176 0.34375,-0.3587 -0.04907,0.059 0.356562,-0.4765 0.3125,-0.4142 -0.04406,0.062 0.288611,-0.4653 0.25,-0.4 -0.03861,0.065 0.282776,-0.4989 0.25,-0.4313 -0.03278,0.067 0.214114,-0.5176 0.1875,-0.4485 -0.02661,0.069 0.176437,-0.5115 0.15625,-0.4415 -0.02019,0.07 0.107309,-0.5288 0.09375,-0.4586 -0.01356,0.07 0.0693,-0.5213 0.0625,-0.4516 -0.0068,0.07 0.03121,-0.513 0.03125,-0.4445 l 0,-7.53125 c 0.220141,-0.0955 0.379523,-0.20143 0.71875,-0.2869 l 0,7.65625 c 10e-6,-0.067 0.03785,0.496 0.03125,0.4305 -0.0066,-0.066 0.07564,0.4865 0.0625,0.4234 -0.01314,-0.063 0.113301,0.4452 0.09375,0.3851 -0.01955,-0.06 0.182027,0.4275 0.15625,0.3711 -0.02578,-0.057 0.219255,0.4162 0.1875,0.364 -0.03176,-0.052 0.256178,0.3733 0.21875,0.3257 -0.03743,-0.048 0.292739,0.3299 0.25,0.2874 -0.04274,-0.042 0.360139,0.2791 0.3125,0.2421 -0.04764,-0.037 0.36458,0.2732 0.3125,0.2422 -0.05208,-0.031 0.399769,0.1973 0.34375,0.1725 -0.05602,-0.025 0.434418,0.1527 0.375,0.1343 -0.05942,-0.018 0.468495,0.1077 0.40625,0.096 -0.06225,-0.012 0.470723,0.07 0.40625,0.065 -0.06447,0 0.472329,5e-4 0.40625,0 -0.06608,0 0.504548,-0.045 0.4375,-0.036 -0.06705,0.01 0.504872,-0.083 0.4375,-0.067 l 6.71875,-1.5134 c -0.0146,0 0.06202,-0.013 0.09375,-0.021 0.117083,-0.031 0.397513,-0.1248 0.34375,-0.1087 -0.06833,0.02 0.50499,-0.1568 0.4375,-0.1298 -0.06749,0.027 0.503476,-0.2257 0.4375,-0.1923 -0.06598,0.033 0.501305,-0.2942 0.4375,-0.2548 -0.06381,0.039 0.467248,-0.324 0.40625,-0.279 -0.061,0.045 0.432584,-0.3534 0.375,-0.3033 -0.05758,0.05 0.397345,-0.3821 0.34375,-0.3274 -0.04006,0.041 0.15042,-0.1665 0.25,-0.2751 0.708035,0.1079 1.293895,0.3942 2.0625,0.4105 1.919405,0.042 4.04615,-0.1615 6.34375,-0.679 2.931079,-0.6603 5.638522,-1.7071 8.125,-3.1427 0.09441,0.049 0.182594,0.1014 0.15625,0.09 -0.05602,-0.025 0.434418,0.1526 0.375,0.1342 -0.05942,-0.018 0.468495,0.1078 0.40625,0.096 -0.06224,-0.012 0.470723,0.07 0.40625,0.065 -0.06447,-0.01 0.472329,5e-4 0.40625,0 -0.06608,0 0.504548,-0.045 0.4375,-0.036 -0.06705,0.01 0.504872,-0.082 0.4375,-0.067 l 6.84375,-1.5416 c -0.06737,0.015 0.504548,-0.1515 0.4375,-0.1298 -0.06705,0.022 0.503579,-0.1891 0.4375,-0.1611 -0.06608,0.028 0.470723,-0.2193 0.40625,-0.1852 -0.06447,0.034 0.468495,-0.28761 0.40625,-0.24781 -0.06225,0.0398 0.465668,-0.32415 0.40625,-0.27901 -0.05942,0.0451 0.431019,-0.35327 0.375,-0.30322 -0.05602,0.05 0.39583,-0.3819 0.34375,-0.32743 -0.05208,0.0545 0.360139,-0.44126 0.3125,-0.38289 -0.04764,0.0584 0.355239,-0.4446 0.3125,-0.3829 -0.04274,0.0617 0.287428,-0.46451 0.25,-0.40006 -0.03743,0.0644 0.250505,-0.49085 0.21875,-0.42428 -0.03176,0.0666 0.213277,-0.51653 0.1875,-0.44848 -0.02578,0.068 0.175801,-0.51033 0.15625,-0.44145 -0.01955,0.0689 0.106886,-0.4964 0.09375,-0.42737 -0.0056,0.0297 0.016,-0.0869 0.03125,-0.19454 0.405392,0.25531 0.820894,0.46228 1.25,0.65593 a 2.9009023,3.6320794 41.786971 0 0 0.5625,0.3108 c 1.632896,0.61761 3.406917,0.84006 5.25,0.8799 a 2.9009023,3.6320794 41.786971 0 0 0.0625,-0.0141 2.9009023,3.6320794 41.786971 0 0 0.6875,-0.0611 c 0.02786,-3.7e-4 0.06578,-0.0206 0.09375,-0.0211 1.664142,-0.0277 3.456305,-0.12231 5.5,-0.58267 2.333985,-0.52574 4.445919,-1.32328 6.28125,-2.16489 1.07158,-0.5005 1.828523,-1.04915 2.65625,-1.59834 z m -75.75,2.25072 0.1875,-0.0422 a 2.9009023,3.6320794 41.786971 0 0 0.625,0.89047 c -0.312369,1.00219 -0.500003,2.0322 -0.5,2.98762 l 0,4.53121 -0.3125,0.07 0,-8.43746 z"
       id="path3788"
       inkscape:connector-curvature="0"
       inkscape:transform-center-x="-51.265625"
       inkscape:transform-center-y="4.6318793" />
    <rect
       style="fill:#ffffff;fill-opacity:0.15068497;fill-rule:evenodd;stroke:none"
       id="rect3776"
       width="9.2255077"
       height="9.5656815"
       x="87.129799"
       y="999.05426"
       inkscape:transform-center-x="-88.500001"
       inkscape:transform-center-y="-3.6855823"
       transform="matrix(0.97555603,-0.21975084,0,1,0,0)" />
    <path
       inkscape:transform-center-y="4.6287827"
       inkscape:transform-center-x="-52.890625"
       inkscape:connector-curvature="0"
       id="path3774"
       d="m 94,990.61209 0,-1.28125 c -1.052483,0.8335 -2.224972,1.61631 -3.6875,2.29938 -1.565349,0.71781 -3.301346,1.30615 -5.25,1.7451 -1.948692,0.43896 -3.715935,0.64004 -5.28125,0.62714 -1.565343,-0.0336 -2.881913,-0.26968 -4,-0.69272 -1.118097,-0.44314 -2.049289,-1.01128 -2.65625,-1.83916 -0.606968,-0.82778 -0.90625,-1.88091 -0.90625,-3.07711 0,-1.1963 0.299297,-2.32127 0.90625,-3.42289 0.181558,-0.3352 0.428967,-0.64242 0.65625,-0.96033 -1.169344,0.27721 -2.147212,0.55631 -2.96875,0.98123 -0.862538,0.44523 -1.581938,0.97525 -2.125,1.54118 -0.511142,0.53953 -0.8389,1.15336 -1.0625,1.80183 -0.223652,0.62928 -0.34375,1.23403 -0.34375,1.88993 l 0,6.75 -6.84375,1.54161 0,-3.375 c -0.910458,1.35198 -2.077052,2.49947 -3.5625,3.42747 -1.980642,1.23686 -4.376313,2.142 -7.1875,2.7752 -1.948689,0.439 -3.684679,0.6543 -5.25,0.6201 -1.565338,-0.033 -2.913857,-0.2738 -4,-0.7239 -0.89355,-0.3704 -1.61826,-0.8813 -2.1875,-1.50724 l 0,3.78124 -6.8125,1.5345 0,-8.46867 c -2.1e-5,-1.2346 -0.329169,-2.04627 -1,-2.49349 -0.638927,-0.4732 -1.746493,-0.51284 -3.34375,-0.15305 -1.852854,0.41737 -3.200679,1.04574 -4.03125,1.90807 -0.830596,0.84303 -1.250005,2.07007 -1.25,3.5941 l 0,7.78114 -6.8125,1.5346 0,-14.93746 6.46875,-1.45713 0,2.09375 0.1875,-0.0422 c 0.862519,-1.04318 1.970082,-1.88228 3.34375,-2.59695 1.373641,-0.71454 2.812437,-1.32102 4.25,-1.64484 1.820874,-0.41017 3.25619,-0.54301 4.40625,-0.49254 1.181961,0.0233 2.110372,0.20317 2.78125,0.59225 0.670831,0.36989 1.181909,0.96208 1.4375,1.6762 0.112556,0.26925 0.150269,0.55128 0.21875,0.85697 0.598041,-1.01634 1.333196,-1.96571 2.375,-2.84748 1.118086,-0.9658 2.529105,-1.78946 4.0625,-2.54011 1.565321,-0.75772 3.271452,-1.42442 5.15625,-1.84898 2.108391,-0.47493 3.934652,-0.66922 5.5,-0.52016 1.565312,0.12972 2.790915,0.54176 3.78125,1.14824 0.598408,0.35098 1.067375,0.81958 1.46875,1.29416 l 0,-3.90625 6.53125,-1.47121 0,2.78125 0.09375,-0.0211 c 0.319443,-0.53508 0.738168,-1.03051 1.28125,-1.53861 0.543063,-0.52758 1.109688,-1.04231 1.8125,-1.47078 0.702786,-0.44782 1.4826,-0.8358 2.28125,-1.17012 0.830568,-0.34234 1.700654,-0.63308 2.53125,-0.82018 0.511113,-0.11513 0.9583,-0.15626 1.4375,-0.16756 l 0,1.75 c 0.981332,-0.74053 2.094265,-1.48438 3.375,-2.07274 1.565315,-0.73866 3.332558,-1.34443 5.28125,-1.78339 1.948654,-0.43895 3.684651,-0.62298 5.25,-0.58885 1.458959,0.006 2.636806,0.29052 3.6875,0.66937 l 0,-1.3125 c -1.018682,-0.30994 -2.053489,-0.6364 -3.375,-0.64601 -0.01284,-1.1e-4 -0.01832,0.007 -0.03125,0.007 -1.674455,-0.0323 -3.527243,0.20079 -5.53125,0.6522 -2.004311,0.45149 -3.857424,1.05399 -5.53125,1.8397 -0.01298,0.006 -0.01835,10e-4 -0.03125,0.007 -0.725245,0.33618 -1.260978,0.80673 -1.875,1.20361 a 1.0610979,1.3285493 41.786971 0 0 -1,-0.93099 c -0.509541,0.0124 -1.02686,0.0126 -1.65625,0.15433 -0.929465,0.20937 -1.870871,0.56964 -2.75,0.93196 -0.846936,0.35455 -1.690069,0.76577 -2.5,1.28189 l 0,-0.0312 c -0.656808,0.40044 -1.066727,0.84948 -1.53125,1.28242 l 0,-0.34375 a 1.0610979,1.3285493 41.786971 0 0 -1.21875,-0.91296 l -6.53125,1.47121 a 1.0610979,1.3285493 41.786971 0 0 -1.1875,1.45499 l 0,1.1875 c -1.044773,-0.54946 -2.230837,-1.00768 -3.71875,-1.13108 -1.716993,-0.16345 -3.648226,0.009 -5.84375,0.50385 -1.986541,0.44748 -3.809229,1.11602 -5.46875,1.91937 -1.603114,0.78477 -3.12851,1.70133 -4.40625,2.80504 -0.587056,0.49687 -0.902159,1.07539 -1.34375,1.61519 -0.352067,-0.57152 -0.689156,-1.15998 -1.28125,-1.49264 -0.0093,-0.0117 -0.02174,0.0187 -0.03125,0.007 -0.859076,-0.48895 -1.935224,-0.74969 -3.21875,-0.77495 -1.286389,-0.0564 -2.794781,0.0983 -4.6875,0.52464 -1.570959,0.35387 -3.130544,1.02365 -4.59375,1.78477 -0.793006,0.41261 -1.303508,1.03451 -1.96875,1.56848 l 0,-0.28125 A 1.0610979,1.3285493 41.786971 0 0 21.46875,991.1065 L 15,992.56364 a 1.0610979,1.3285493 41.786971 0 0 -1.21875,1.46203 l 0,14.99993 A 1.0610979,1.3285493 41.786971 0 0 15,1009.9386 l 6.8125,-1.5346 a 1.0610979,1.3285493 41.786971 0 0 1.21875,-1.462 l 0,-7.81244 c -4e-6,-1.30531 0.304354,-2.03572 0.78125,-2.51975 a 1.0610979,1.3285493 41.786971 0 0 0,-0.0312 c 0.490263,-0.50913 1.56399,-1.07105 3.28125,-1.45787 1.453961,-0.32752 2.262358,-0.20671 2.53125,-0.008 a 1.0610979,1.3285493 41.786971 0 0 0.0625,0.0484 c 0.376894,0.251 0.562483,0.6573 0.5625,1.68579 l 0,8.46867 a 1.0610979,1.3285493 41.786971 0 0 1.1875,0.92 l 6.8125,-1.5345 a 1.0610979,1.3285493 41.786971 0 0 1.21875,-1.4621 l 0,-1.0937 c 0.114751,0.054 0.192178,0.1297 0.3125,0.1796 1.222145,0.5067 2.674752,0.7988 4.34375,0.834 1.664724,0.036 3.525399,-0.1378 5.5625,-0.5967 2.916649,-0.657 5.460978,-1.6161 7.625,-2.96754 0.703284,-0.4393 1.341936,-0.99193 1.9375,-1.53018 l 0,0.71875 a 1.0610979,1.3285493 41.786971 0 0 1.1875,0.92003 l 6.84375,-1.54163 a 1.0610979,1.3285493 41.786971 0 0 1.1875,-1.45499 l 0,-6.75 c 0,-0.5092 0.101223,-0.9319 0.28125,-1.43835 0.164375,-0.47663 0.380702,-0.89871 0.71875,-1.25566 0.408862,-0.4202 0.983912,-0.86058 1.6875,-1.22387 0.160919,-0.0833 0.467538,-0.13881 0.65625,-0.21032 -0.334517,0.92505 -0.78125,1.88573 -0.78125,2.83223 0,1.3944 0.391302,2.65191 1.125,3.65284 0.733412,1.00019 1.748099,1.65982 2.96875,2.14376 a 1.0610979,1.3285493 41.786971 0 0 0.03125,0.0242 c 1.256025,0.47508 2.702405,0.67357 4.34375,0.70904 a 1.0610979,1.3285493 41.786971 0 0 0.03125,-0.007 c 1.644594,0.0132 3.485508,-0.12888 5.53125,-0.5897 2.045706,-0.46081 3.886628,-1.14804 5.53125,-1.9022 1.314912,-0.61415 2.363787,-1.32868 3.40625,-2.07978 z M 49.4375,988.7751 c -1.086161,0.24467 -1.984014,0.49776 -2.71875,0.89367 -0.702812,0.3706 -1.271522,0.80231 -1.71875,1.23091 -0.415298,0.42159 -0.714591,0.85697 -0.90625,1.26664 -0.159727,0.40248 -0.186789,0.75288 -0.21875,1.04928 l 11,-2.47783 c -0.319477,-0.96994 -0.888185,-1.63455 -1.71875,-1.98784 -0.798652,-0.36029 -2.0576,-0.34901 -3.71875,0.0252 z m 35.625,-8.02478 c -1.150053,0.25906 -2.139569,0.56791 -2.90625,1.02966 -0.766702,0.44272 -1.427078,0.97156 -1.90625,1.52314 -0.447245,0.54465 -0.74584,1.12046 -0.9375,1.74243 -0.191686,0.62208 -0.25,1.20811 -0.25,1.80631 0,0.5981 0.05831,1.22047 0.25,1.75619 0.191686,0.51622 0.490255,0.95782 0.9375,1.32007 0.479172,0.33596 1.139548,0.56716 1.90625,0.66436 0.766681,0.0988 1.756197,0.0419 2.90625,-0.21716 1.150017,-0.25905 2.108289,-0.6412 2.875,-1.08511 0.798621,-0.4498 1.333991,-0.95034 1.78125,-1.49499 0.479162,-0.57094 0.870814,-1.16801 1.0625,-1.77059 0.191633,-0.62206 0.281216,-1.27774 0.28125,-1.87585 -2.6e-5,-0.59819 -0.08956,-1.15093 -0.28125,-1.68665 -0.191686,-0.53562 -0.583338,-0.95595 -1.0625,-1.29191 -0.447259,-0.34289 -0.982629,-0.60239 -1.78125,-0.69251 -0.766711,-0.11652 -1.724983,0.0136 -2.875,0.27261 z M 43.875,995.74685 c 0.09585,1.2905 0.633986,2.23989 1.65625,2.62691 1.02225,0.36783 2.520755,0.33844 4.4375,-0.0933 1.37364,-0.30943 2.509671,-0.84723 3.5,-1.4759 0.99029,-0.64727 1.588874,-1.20711 1.8125,-1.72078 l 5.15625,-1.16148 0,-1.90625 -16.5625,3.73082 z"
       style="font-size:14.15454865px;font-style:normal;font-variant:normal;font-weight:bold;font-stretch:normal;text-align:end;line-height:125%;letter-spacing:0px;word-spacing:0px;text-anchor:end;fill:#000000;fill-opacity:0.79908675;stroke:none;font-family:Helvetica Neue LT Com;-inkscape-font-specification:Helvetica Neue LT Com Bold" />
    <path
       style="font-size:14.15454865px;font-style:normal;font-variant:normal;font-weight:bold;font-stretch:normal;text-align:end;line-height:125%;letter-spacing:0px;word-spacing:0px;text-anchor:end;fill:#ff0010;fill-opacity:1;stroke:none;font-family:Helvetica Neue LT Com;-inkscape-font-specification:Helvetica Neue LT Com Bold"
       d="m 94,989.75703 0,-1.28125 c -1.052483,0.8335 -2.224972,1.61631 -3.6875,2.29938 -1.565349,0.71781 -3.301346,1.30615 -5.25,1.7451 -1.948692,0.43896 -3.715935,0.64004 -5.28125,0.62714 -1.565343,-0.0336 -2.881913,-0.26968 -4,-0.69272 -1.118097,-0.44314 -2.049289,-1.01128 -2.65625,-1.83916 -0.606968,-0.82778 -0.90625,-1.88091 -0.90625,-3.07711 0,-1.1963 0.299297,-2.32127 0.90625,-3.42289 0.181558,-0.3352 0.428967,-0.64242 0.65625,-0.96033 -1.169344,0.27721 -2.147212,0.55631 -2.96875,0.98123 -0.862538,0.44523 -1.581938,0.97525 -2.125,1.54118 -0.511142,0.53953 -0.8389,1.15336 -1.0625,1.80183 -0.223652,0.62928 -0.34375,1.23403 -0.34375,1.88993 l 0,6.75 -6.84375,1.54161 0,-3.375 c -0.910458,1.35198 -2.077052,2.49947 -3.5625,3.42747 -1.980642,1.23686 -4.376313,2.14205 -7.1875,2.77526 -1.948689,0.439 -3.684679,0.6543 -5.25,0.6201 -1.565338,-0.033 -2.913857,-0.2738 -4,-0.7239 -0.89355,-0.3704 -1.61826,-0.88132 -2.1875,-1.50729 l 0,3.78129 -6.8125,1.5345 0,-8.46873 c -2.1e-5,-1.2346 -0.329169,-2.04627 -1,-2.49349 -0.638927,-0.4732 -1.746493,-0.51284 -3.34375,-0.15305 -1.852854,0.41737 -3.200679,1.04574 -4.03125,1.90807 -0.830596,0.84303 -1.250005,2.07007 -1.25,3.59407 l 0,7.78123 -6.8125,1.5346 0,-14.93752 6.46875,-1.45713 0,2.09375 0.1875,-0.0422 c 0.862519,-1.04318 1.970082,-1.88228 3.34375,-2.59695 1.373641,-0.71454 2.812437,-1.32102 4.25,-1.64484 1.820874,-0.41017 3.25619,-0.54301 4.40625,-0.49254 1.181961,0.0233 2.110372,0.20317 2.78125,0.59225 0.670831,0.36989 1.181909,0.96208 1.4375,1.6762 0.112556,0.26925 0.150269,0.55128 0.21875,0.85697 0.598041,-1.01634 1.333196,-1.96571 2.375,-2.84748 1.118086,-0.9658 2.529105,-1.78946 4.0625,-2.54011 1.565321,-0.75772 3.271452,-1.42442 5.15625,-1.84898 2.108391,-0.47493 3.934652,-0.66922 5.5,-0.52016 1.565312,0.12972 2.790915,0.54176 3.78125,1.14824 0.598408,0.35098 1.067375,0.81958 1.46875,1.29416 l 0,-3.90625 6.53125,-1.47121 0,2.78125 0.09375,-0.0211 c 0.319443,-0.53508 0.738168,-1.03051 1.28125,-1.53861 0.543063,-0.52758 1.109688,-1.04231 1.8125,-1.47078 0.702786,-0.44782 1.4826,-0.8358 2.28125,-1.17012 0.830568,-0.34234 1.700654,-0.63308 2.53125,-0.82018 0.511113,-0.11513 0.9583,-0.15626 1.4375,-0.16756 l 0,1.75 c 0.981332,-0.74053 2.094265,-1.48438 3.375,-2.07274 1.565315,-0.73866 3.332558,-1.34443 5.28125,-1.78339 1.948654,-0.43895 3.684651,-0.62298 5.25,-0.58885 1.458959,0.006 2.636806,0.29052 3.6875,0.66937 l 0,-1.3125 c -1.018682,-0.30994 -2.053489,-0.6364 -3.375,-0.64601 -0.01284,-1.1e-4 -0.01832,0.007 -0.03125,0.007 -1.674455,-0.0323 -3.527243,0.20079 -5.53125,0.6522 -2.004311,0.45149 -3.857424,1.05399 -5.53125,1.8397 -0.01298,0.006 -0.01835,0.001 -0.03125,0.007 -0.725245,0.33618 -1.260978,0.80673 -1.875,1.20361 a 1.0610979,1.3285493 41.786971 0 0 -1,-0.93099 c -0.509541,0.0124 -1.02686,0.0126 -1.65625,0.15433 -0.929465,0.20937 -1.870871,0.56964 -2.75,0.93196 -0.846936,0.35455 -1.690069,0.76577 -2.5,1.28189 l 0,-0.0312 c -0.656808,0.40044 -1.066727,0.84948 -1.53125,1.28242 l 0,-0.34375 a 1.0610979,1.3285493 41.786971 0 0 -1.21875,-0.91296 l -6.53125,1.47121 a 1.0610979,1.3285493 41.786971 0 0 -1.1875,1.45499 l 0,1.1875 c -1.044773,-0.54946 -2.230837,-1.00768 -3.71875,-1.13108 -1.716993,-0.16345 -3.648226,0.009 -5.84375,0.50385 -1.986541,0.44748 -3.809229,1.11602 -5.46875,1.91937 -1.603114,0.78477 -3.12851,1.70133 -4.40625,2.80504 -0.587056,0.49687 -0.902159,1.07539 -1.34375,1.61519 -0.352067,-0.57152 -0.689156,-1.15998 -1.28125,-1.49264 -0.0093,-0.0117 -0.02174,0.0187 -0.03125,0.007 -0.859076,-0.48895 -1.935224,-0.74969 -3.21875,-0.77495 -1.286389,-0.0564 -2.794781,0.0983 -4.6875,0.52464 -1.570959,0.35387 -3.130544,1.02365 -4.59375,1.78477 -0.793006,0.41261 -1.303508,1.03451 -1.96875,1.56848 l 0,-0.28125 a 1.0610979,1.3285493 41.786971 0 0 -1.21875,-0.91297 L 15,991.70858 a 1.0610979,1.3285493 41.786971 0 0 -1.21875,1.46203 l 0,14.99999 A 1.0610979,1.3285493 41.786971 0 0 15,1009.0836 l 6.8125,-1.5346 a 1.0610979,1.3285493 41.786971 0 0 1.21875,-1.462 l 0,-7.81251 c -4e-6,-1.3053 0.304354,-2.03571 0.78125,-2.51974 a 1.0610979,1.3285493 41.786971 0 0 0,-0.0312 c 0.490263,-0.50913 1.56399,-1.07105 3.28125,-1.45787 1.453961,-0.32752 2.262358,-0.20671 2.53125,-0.008 a 1.0610979,1.3285493 41.786971 0 0 0.0625,0.0484 c 0.376894,0.251 0.562483,0.6573 0.5625,1.68579 l 0,8.46873 a 1.0610979,1.3285493 41.786971 0 0 1.1875,0.92 l 6.8125,-1.5345 a 1.0610979,1.3285493 41.786971 0 0 1.21875,-1.4621 l 0,-1.0937 c 0.114751,0.054 0.192178,0.1297 0.3125,0.1796 1.222145,0.5067 2.674752,0.7988 4.34375,0.834 1.664724,0.036 3.525399,-0.1378 5.5625,-0.5967 2.916649,-0.657 5.460978,-1.6161 7.625,-2.9676 0.703284,-0.43932 1.341936,-0.99193 1.9375,-1.53018 l 0,0.71875 a 1.0610979,1.3285493 41.786971 0 0 1.1875,0.92001 l 6.84375,-1.54161 a 1.0610979,1.3285493 41.786971 0 0 1.1875,-1.45499 l 0,-6.75 c 0,-0.5092 0.101223,-0.9319 0.28125,-1.43835 0.164375,-0.47663 0.380702,-0.89871 0.71875,-1.25566 0.408862,-0.4202 0.983912,-0.86058 1.6875,-1.22387 0.160919,-0.0833 0.467538,-0.13881 0.65625,-0.21032 -0.334517,0.92505 -0.78125,1.88573 -0.78125,2.83223 0,1.3944 0.391302,2.65191 1.125,3.65284 0.733412,1.00019 1.748099,1.65982 2.96875,2.14376 a 1.0610979,1.3285493 41.786971 0 0 0.03125,0.0242 c 1.256025,0.47508 2.702405,0.67357 4.34375,0.70904 a 1.0610979,1.3285493 41.786971 0 0 0.03125,-0.007 c 1.644594,0.0132 3.485508,-0.12888 5.53125,-0.5897 2.045706,-0.46081 3.886628,-1.14804 5.53125,-1.9022 1.314912,-0.61415 2.363787,-1.32868 3.40625,-2.07978 z m -44.5625,-1.83699 c -1.086161,0.24467 -1.984014,0.49776 -2.71875,0.89367 -0.702812,0.3706 -1.271522,0.80231 -1.71875,1.23091 -0.415298,0.42159 -0.714591,0.85697 -0.90625,1.26664 -0.159727,0.40248 -0.186789,0.75288 -0.21875,1.04928 l 11,-2.47783 c -0.319477,-0.96994 -0.888185,-1.63455 -1.71875,-1.98784 -0.798652,-0.36029 -2.0576,-0.34901 -3.71875,0.0252 z m 35.625,-8.02478 c -1.150053,0.25906 -2.139569,0.56791 -2.90625,1.02966 -0.766702,0.44272 -1.427078,0.97156 -1.90625,1.52314 -0.447245,0.54465 -0.74584,1.12046 -0.9375,1.74243 -0.191686,0.62208 -0.25,1.20811 -0.25,1.80631 0,0.5981 0.05831,1.22047 0.25,1.75619 0.191686,0.51622 0.490255,0.95782 0.9375,1.32007 0.479172,0.33596 1.139548,0.56716 1.90625,0.66436 0.766681,0.0988 1.756197,0.0419 2.90625,-0.21716 1.150017,-0.25905 2.108289,-0.6412 2.875,-1.08511 0.798621,-0.4498 1.333991,-0.95034 1.78125,-1.49499 0.479162,-0.57094 0.870814,-1.16801 1.0625,-1.77059 0.191633,-0.62206 0.281216,-1.27774 0.28125,-1.87585 -2.6e-5,-0.59819 -0.08956,-1.15093 -0.28125,-1.68665 -0.191686,-0.53562 -0.583338,-0.95595 -1.0625,-1.29191 -0.447259,-0.34289 -0.982629,-0.60239 -1.78125,-0.69251 -0.766711,-0.11652 -1.724983,0.0136 -2.875,0.27261 z M 43.875,994.89179 c 0.09585,1.2905 0.633986,2.23989 1.65625,2.62691 1.02225,0.36783 2.520755,0.33844 4.4375,-0.0933 1.37364,-0.30943 2.509671,-0.84723 3.5,-1.4759 0.99029,-0.64727 1.588874,-1.20711 1.8125,-1.72078 l 5.15625,-1.16148 0,-1.90625 -16.5625,3.73082 z"
       id="path3794"
       inkscape:connector-curvature="0"
       inkscape:transform-center-x="-52.890625"
       inkscape:transform-center-y="4.6287827" />
  </g>
</svg>
