<?xml version="1.0" encoding="UTF-8" standalone="no"?>
<!-- Created with Inkscape (http://www.inkscape.org/) -->

<svg
   xmlns:dc="http://purl.org/dc/elements/1.1/"
   xmlns:cc="http://creativecommons.org/ns#"
   xmlns:rdf="http://www.w3.org/1999/02/22-rdf-syntax-ns#"
   xmlns:svg="http://www.w3.org/2000/svg"
   xmlns="http://www.w3.org/2000/svg"
   xmlns:sodipodi="http://sodipodi.sourceforge.net/DTD/sodipodi-0.dtd"
   xmlns:inkscape="http://www.inkscape.org/namespaces/inkscape"
   width="96"
   height="96"
   id="svg2"
   version="1.1"
   inkscape:version="0.48.4 r9939"
   sodipodi:docname="netflix-desktop.svg">
  <defs
     id="defs4" />
  <sodipodi:namedview
     id="base"
     pagecolor="#ffffff"
     bordercolor="#666666"
     borderopacity="1.0"
     inkscape:pageopacity="0.0"
     inkscape:pageshadow="2"
     inkscape:zoom="4.6264763"
     inkscape:cx="9.8853999"
     inkscape:cy="51.803805"
     inkscape:document-units="px"
     inkscape:current-layer="layer1"
     showgrid="true"
     inkscape:snap-page="true"
     inkscape:snap-global="true"
     inkscape:snap-center="true"
     inkscape:snap-object-midpoints="false"
     showguides="true"
     inkscape:guide-bbox="true"
     inkscape:snap-bbox="true"
     inkscape:object-paths="true"
     inkscape:object-nodes="true"
     inkscape:window-width="1305"
     inkscape:window-height="744"
     inkscape:window-x="61"
     inkscape:window-y="24"
     inkscape:window-maximized="1"
     inkscape:snap-midpoints="true"
     inkscape:snap-grids="true"
     inkscape:snap-to-guides="false">
    <inkscape:grid
       type="xygrid"
       id="grid3002"
       empspacing="5"
       visible="true"
       enabled="true"
       snapvisiblegridlinesonly="true" />
  </sodipodi:namedview>
  <metadata
     id="metadata7">
    <rdf:RDF>
      <cc:Work
         rdf:about="">
        <dc:format>image/svg+xml</dc:format>
        <dc:type
           rdf:resource="http://purl.org/dc/dcmitype/StillImage" />
        <dc:title />
      </cc:Work>
    </rdf:RDF>
  </metadata>
  <g
     inkscape:label="Layer 1"
     inkscape:groupmode="layer"
     id="layer1"
     transform="translate(0,-956.36218)">
    <rect
       style="fill:#ffffff;fill-opacity:0;fill-rule:nonzero;stroke:none"
       id="rect3775"
       width="96"
       height="96"
       x="0"
       y="956.36218"
       ry="0" />
    <path
       style="fill:#000000;fill-opacity:0.09589041;fill-rule:nonzero;stroke:none"
       d="m 3.353015,956.30662 c -1.884176,0 -3.4111555,1.43156 -3.4111555,3.19799 l 0,83.65949 c 0,1.7665 1.5269795,3.1981 3.4111555,3.1981 l 89.23583,0 c 1.884174,0 3.411155,-1.4316 3.411155,-3.1981 l 0,-83.65949 c 0,-1.76643 -1.526981,-3.19799 -3.411155,-3.19799 z"
       id="rect3772"
       inkscape:connector-curvature="0"
       sodipodi:nodetypes="sssssssss" />
    <path
       style="fill:#000000;fill-opacity:0.18721463;fill-rule:nonzero;stroke:none"
       d="m 1.0459761,1041.8066 0,7.4219 c 0,1.7392 1.461916,3.1337 3.2852054,3.1337 l 86.3836135,0 c 1.823288,0 3.285205,-1.3945 3.285205,-3.1337 l 0,-7.4219 -92.9540239,0 z"
       id="rect3785"
       inkscape:connector-curvature="0" />
    <path
       style="fill:#000000;fill-opacity:0.38356168;fill-rule:nonzero;stroke:none"
       d="m 1.0459761,1041.8066 0,5.3807 c 0,1.762 1.461916,3.1749 3.2852054,3.1749 l 86.3836135,0 c 1.823288,0 3.285205,-1.4129 3.285205,-3.1749 l 0,-5.3807 -92.9540239,0 z"
       id="rect3783"
       inkscape:connector-curvature="0" />
    <rect
       style="fill:#ce1126;fill-opacity:1;fill-rule:nonzero;stroke:none"
       id="rect2985"
       width="92.954025"
       height="89"
       x="1.045977"
       y="957.36218"
       ry="3.1511393" />
    <path
       style="fill:#000000;fill-opacity:0.38356168;fill-rule:nonzero;stroke:none"
       d="m 1,1042.3622 0.045976,2.7457 c 0.03024,1.8058 1.461916,3.2543 3.2852054,3.2543 l 86.3836136,0 c 1.823288,0 3.285205,-1.4481 3.285205,-3.2543 l -0.04598,-2.7457 z"
       id="rect3781"
       inkscape:connector-curvature="0"
       sodipodi:nodetypes="csssscc" />
    <rect
       style="fill:#ffffff;fill-opacity:0.15686275;fill-rule:nonzero;stroke:none"
       id="rect3770"
       width="92.954033"
       height="2.000005"
       x="1.045976"
       y="1040.3622" />
    <path
       id="path4160"
       d="m 44.572838,972.69233 0,0.94573 c 0,0 -0.0043,1.66846 -0.0043,3.11874 -1.750818,-1.60691 -4.41306,-4.06447 -4.41306,-4.06447 l -12.1555,0 0.0064,50.08117 7.002523,4.5887 7.300804,-0.7591 c 0,0 0.03102,-2.6448 0.05177,-4.4395 2.397804,1.6369 5.681104,3.8719 5.681104,3.8719 L 60,1025.0248 l 0,-47.1776 -6.488793,-5.14412 -8.93777,-0.0113 z"
       inkscape:connector-curvature="0"
       style="fill:#000000;fill-opacity:0.05882353" />
    <path
       style="fill:#000000;fill-opacity:0.11764706"
       inkscape:connector-curvature="0"
       d="m 44.572838,971.98232 0,0.94575 c 0,0 -0.0043,1.66845 -0.0043,3.11873 -1.750818,-1.6069 -4.41306,-4.06448 -4.41306,-4.06448 l -12.1555,0 0.0064,50.08128 7.002523,4.5887 7.300804,-0.7593 c 0,0 0.03102,-2.6447 0.05177,-4.4394 2.397804,1.6369 5.681104,3.872 5.681104,3.872 L 60,1024.3147 l 0,-47.1775 -6.488793,-5.14411 -8.93777,-0.0113 z"
       id="path4158" />
    <path
       id="path4156"
       d="m 44.572838,971.27233 0,0.94573 c 0,0 -0.0043,1.66847 -0.0043,3.11875 -1.750818,-1.60691 -4.41306,-4.06448 -4.41306,-4.06448 l -12.1555,0 0.0064,50.08117 7.002523,4.5887 7.300804,-0.7591 c 0,0 0.03102,-2.6447 0.05177,-4.4395 2.397804,1.637 5.681104,3.872 5.681104,3.872 L 60,1023.6048 l 0,-47.17761 -6.488793,-5.1441 -8.93777,-0.0113 z"
       inkscape:connector-curvature="0"
       style="fill:#000000;fill-opacity:0.23529412" />
    <path
       inkscape:connector-curvature="0"
       d="m 44.572838,970.56233 0,0.94574 c 0,0 -0.0043,1.66845 -0.0043,3.11873 -1.750818,-1.60691 -4.41306,-4.06447 -4.41306,-4.06447 l -12.1555,0 0.0064,50.08127 7.002523,4.5887 7.300804,-0.7592 c 0,0 0.03102,-2.6448 0.05177,-4.4394 2.397804,1.6368 5.681104,3.8719 5.681104,3.8719 L 60,1022.8947 l 0,-47.1775 -6.488793,-5.14412 -8.93777,-0.0113 z"
       id="path8"
       style="fill:#210600;fill-opacity:1" />
    <path
       inkscape:connector-curvature="0"
       style="fill:#ffffff"
       d="m 46.564284,1009.8459 -0.404904,0.04 -6.985238,-37.9767 -9.300165,-0.009 0.0043,47.6689 c 0,0 1.845909,-0.2204 5.77551,-0.5905 l -0.404925,-36.23362 0.402765,-0.0316 6.645133,35.69791 c 0,0 2.271008,-0.2217 9.994023,-0.8561 l 0,-45.65132 -5.932578,0 0.206014,37.94222 z"
       id="path26" />
  </g>
</svg>
