<?xml version="1.0" encoding="UTF-8" standalone="no"?>
<!-- Created with Inkscape (http://www.inkscape.org/) -->

<svg
   xmlns:dc="http://purl.org/dc/elements/1.1/"
   xmlns:cc="http://creativecommons.org/ns#"
   xmlns:rdf="http://www.w3.org/1999/02/22-rdf-syntax-ns#"
   xmlns:svg="http://www.w3.org/2000/svg"
   xmlns="http://www.w3.org/2000/svg"
   xmlns:sodipodi="http://sodipodi.sourceforge.net/DTD/sodipodi-0.dtd"
   xmlns:inkscape="http://www.inkscape.org/namespaces/inkscape"
   width="96"
   height="96"
   id="svg2"
   version="1.1"
   inkscape:version="0.48.4 r9939"
   sodipodi:docname="nvidia-304-settings.svg">
  <defs
     id="defs4" />
  <sodipodi:namedview
     id="base"
     pagecolor="#ffffff"
     bordercolor="#666666"
     borderopacity="1.0"
     inkscape:pageopacity="0.0"
     inkscape:pageshadow="2"
     inkscape:zoom="5.90625"
     inkscape:cx="48"
     inkscape:cy="48"
     inkscape:document-units="px"
     inkscape:current-layer="layer1"
     showgrid="true"
     inkscape:snap-page="true"
     inkscape:snap-global="true"
     inkscape:snap-center="true"
     inkscape:snap-object-midpoints="false"
     showguides="true"
     inkscape:guide-bbox="true"
     inkscape:snap-bbox="true"
     inkscape:object-paths="true"
     inkscape:object-nodes="true"
     inkscape:window-width="1305"
     inkscape:window-height="744"
     inkscape:window-x="61"
     inkscape:window-y="24"
     inkscape:window-maximized="1"
     inkscape:snap-midpoints="false"
     inkscape:snap-grids="true"
     inkscape:snap-to-guides="false">
    <inkscape:grid
       type="xygrid"
       id="grid3002"
       empspacing="5"
       visible="true"
       enabled="true"
       snapvisiblegridlinesonly="true" />
  </sodipodi:namedview>
  <metadata
     id="metadata7">
    <rdf:RDF>
      <cc:Work
         rdf:about="">
        <dc:format>image/svg+xml</dc:format>
        <dc:type
           rdf:resource="http://purl.org/dc/dcmitype/StillImage" />
        <dc:title />
      </cc:Work>
    </rdf:RDF>
  </metadata>
  <g
     inkscape:label="Layer 1"
     inkscape:groupmode="layer"
     id="layer1"
     transform="translate(0,-956.36218)">
    <rect
       style="fill:#ffffff;fill-opacity:0;fill-rule:nonzero;stroke:none"
       id="rect3775"
       width="96"
       height="96"
       x="0"
       y="956.36218"
       ry="0" />
    <path
       style="fill:#000000;fill-opacity:0.09589041;fill-rule:nonzero;stroke:none"
       d="m 3.353015,956.30662 c -1.884176,0 -3.4111555,1.43156 -3.4111555,3.19799 l 0,83.65949 c 0,1.7665 1.5269795,3.1981 3.4111555,3.1981 l 89.23583,0 c 1.884174,0 3.411155,-1.4316 3.411155,-3.1981 l 0,-83.65949 c 0,-1.76643 -1.526981,-3.19799 -3.411155,-3.19799 z"
       id="rect3772"
       inkscape:connector-curvature="0"
       sodipodi:nodetypes="sssssssss" />
    <path
       style="fill:#000000;fill-opacity:0.18721463;fill-rule:nonzero;stroke:none"
       d="m 1.0459761,1041.8066 0,7.4219 c 0,1.7392 1.461916,3.1337 3.2852054,3.1337 l 86.3836135,0 c 1.823288,0 3.285205,-1.3945 3.285205,-3.1337 l 0,-7.4219 -92.9540239,0 z"
       id="rect3785"
       inkscape:connector-curvature="0" />
    <path
       style="fill:#000000;fill-opacity:0.38356168;fill-rule:nonzero;stroke:none"
       d="m 1.0459761,1041.8066 0,5.3807 c 0,1.762 1.461916,3.1749 3.2852054,3.1749 l 86.3836135,0 c 1.823288,0 3.285205,-1.4129 3.285205,-3.1749 l 0,-5.3807 -92.9540239,0 z"
       id="rect3783"
       inkscape:connector-curvature="0" />
    <g
       id="g3014"
       transform="matrix(1.1071429,0,0,1.0595235,99.53571,-51.68788)">
      <rect
         ry="2.9741092"
         y="952.36218"
         x="-89"
         height="84"
         width="84"
         id="rect2985-7"
         style="fill:#74b107;fill-opacity:1;fill-rule:nonzero;stroke:none" />
      <g
         id="g3789"
         transform="translate(-95,-10)">
        <path
           style="fill:#1a1a1a;fill-opacity:1;stroke:none"
           d="m 42,989.73718 0,4.09375 c 0.16138,-0.007 0.30431,-0.0312 0.46875,-0.0312 7.08836,0 11.28125,5.59375 11.28125,5.59375 L 48,1004.4247 c -2.18822,-3.7352 -3.15386,-5.68357 -6,-6.53127 l 0,12.12497 c -5.82179,-2.0029 -7.75,-8.9062 -7.75,-8.9062 0,0 3.42813,-4.15622 7.75,-3.62502 l 0,-3.5625 c -8.23444,0.91175 -13.1875,6.46872 -13.1875,6.46872 0,0 2.86133,11.0524 13.1875,12.9375 l 0,-2.875 c 0.48779,0.084 0.96522,0.1563 1.5,0.1563 8.4077,0 16.21875,-11.15627 16.21875,-11.15627 0,0 -6.97763,-9.71777 -17.71875,-9.71875 z"
           id="path3773"
           inkscape:connector-curvature="0" />
        <path
           style="fill:#1a1a1a;fill-opacity:1;stroke:none"
           d="m 42,1046.3622 45.03125,0 c 0.823828,0 1.55618,-0.3374 2.09375,-0.875 0.53757,-0.5376 0.875,-1.2699 0.875,-2.0938 l 0,-78.06247 c 0,-0.82383 -0.33743,-1.55618 -0.875,-2.09375 -0.53757,-0.53757 -1.269922,-0.875 -2.09375,-0.875 l -45.03125,0 0,23.75 c -13.53568,1.11305 -25.25,12.875 -25.25,12.875 0,0 6.63174,19.66942 25.25,21.46872 l 0,-3.1562 c 0.8268,0.1076 1.69926,0.125 2.59375,0.125 11.16467,0 19.213187,-5.8087 27.03125,-12.7188 1.296201,1.063 6.659126,3.6176 7.75,4.75 -7.433493,6.3726 -24.77208,11.5313 -34.59375,11.5313 -0.94674,0 -1.88755,-0.036 -2.78125,-0.125 l 0,25.5 z m 2.59375,-59.90627 c 14.57893,0.30503 24,12.9375 24,12.9375 0,0 -11.5023,14.34377 -23.5,14.34377 -1.09957,0 -2.1269,-0.1065 -3.09375,-0.2813 l 0,3.4063 c -13.66322,-1.7603 -18.34375,-17.15627 -18.34375,-17.15627 0,0 6.12331,-9.29376 18.34375,-10.25 l 0,-2.875 c 0.39735,-0.0313 0.78797,-0.0799 1.1875,-0.0937 0.4809,-0.0166 0.93597,-0.0412 1.40625,-0.0312 z"
           id="path3771"
           inkscape:connector-curvature="0" />
      </g>
    </g>
    <path
       style="fill:#000000;fill-opacity:0.38356168;fill-rule:nonzero;stroke:none"
       d="m 1,1042.3622 0.045976,2.7457 c 0.03024,1.8058 1.461916,3.2543 3.2852054,3.2543 l 86.3836136,0 c 1.823288,0 3.285205,-1.4481 3.285205,-3.2543 l -0.04598,-2.7457 z"
       id="rect3781"
       inkscape:connector-curvature="0"
       sodipodi:nodetypes="csssscc" />
    <rect
       style="fill:#ffffff;fill-opacity:0.30000001;fill-rule:nonzero;stroke:none"
       id="rect3770"
       width="92.954033"
       height="2.000005"
       x="1.045976"
       y="1040.3622" />
  </g>
</svg>
