<?xml version="1.0" encoding="UTF-8" standalone="no"?>
<!-- Created with Inkscape (http://www.inkscape.org/) -->

<svg
   xmlns:dc="http://purl.org/dc/elements/1.1/"
   xmlns:cc="http://creativecommons.org/ns#"
   xmlns:rdf="http://www.w3.org/1999/02/22-rdf-syntax-ns#"
   xmlns:svg="http://www.w3.org/2000/svg"
   xmlns="http://www.w3.org/2000/svg"
   xmlns:xlink="http://www.w3.org/1999/xlink"
   xmlns:sodipodi="http://sodipodi.sourceforge.net/DTD/sodipodi-0.dtd"
   xmlns:inkscape="http://www.inkscape.org/namespaces/inkscape"
   width="96"
   height="96"
   id="svg2"
   version="1.1"
   inkscape:version="0.48.4 r9939"
   sodipodi:docname="okteta.svg">
  <defs
     id="defs4">
    <linearGradient
       inkscape:collect="always"
       xlink:href="#linearGradient3849"
       id="linearGradient3868"
       gradientUnits="userSpaceOnUse"
       x1="33.7864"
       y1="1027.2502"
       x2="33.741676"
       y2="1011.9337" />
    <linearGradient
       id="linearGradient3849">
      <stop
         style="stop-color:#f76300;stop-opacity:1;"
         offset="0"
         id="stop3851" />
      <stop
         style="stop-color:#ffe0cc;stop-opacity:1;"
         offset="1"
         id="stop3853" />
    </linearGradient>
    <linearGradient
       inkscape:collect="always"
       xlink:href="#linearGradient3825"
       id="linearGradient3870"
       gradientUnits="userSpaceOnUse"
       gradientTransform="translate(2039.1839,0)"
       x1="-1027.2545"
       y1="70.798042"
       x2="-1011.9294"
       y2="70.798042" />
    <linearGradient
       id="linearGradient3825">
      <stop
         style="stop-color:#ffdcdc;stop-opacity:1;"
         offset="0"
         id="stop3827" />
      <stop
         style="stop-color:#d96d6d;stop-opacity:1;"
         offset="1"
         id="stop3829" />
    </linearGradient>
    <linearGradient
       inkscape:collect="always"
       xlink:href="#linearGradient3841"
       id="linearGradient3872"
       gradientUnits="userSpaceOnUse"
       gradientTransform="translate(2039.1839,0)"
       x1="-1027.2545"
       y1="66.705544"
       x2="-1011.9294"
       y2="66.705544" />
    <linearGradient
       id="linearGradient3841">
      <stop
         style="stop-color:#ffffff;stop-opacity:1;"
         offset="0"
         id="stop3843" />
      <stop
         style="stop-color:#dadada;stop-opacity:1;"
         offset="1"
         id="stop3845" />
    </linearGradient>
    <linearGradient
       y2="66.705536"
       x2="-1011.9294"
       y1="66.705536"
       x1="-1027.2545"
       gradientUnits="userSpaceOnUse"
       id="linearGradient3051"
       xlink:href="#linearGradient3833"
       inkscape:collect="always" />
    <linearGradient
       inkscape:collect="always"
       id="linearGradient3833">
      <stop
         style="stop-color:#999999;stop-opacity:1;"
         offset="0"
         id="stop3835" />
      <stop
         style="stop-color:#999999;stop-opacity:0;"
         offset="1"
         id="stop3837" />
    </linearGradient>
    <linearGradient
       id="linearGradient3800">
      <stop
         style="stop-color:#002ca2;stop-opacity:1;"
         offset="0"
         id="stop3802" />
      <stop
         style="stop-color:#007d03;stop-opacity:1;"
         offset="1"
         id="stop3804" />
    </linearGradient>
    <linearGradient
       gradientTransform="matrix(1.0924822,0,0,1,-3.4585965,-4.5827575)"
       y2="1031.0353"
       x2="73.493744"
       y1="973.60571"
       x1="15.516198"
       gradientUnits="userSpaceOnUse"
       id="linearGradient3072"
       xlink:href="#linearGradient3800"
       inkscape:collect="always" />
  </defs>
  <sodipodi:namedview
     id="base"
     pagecolor="#ffffff"
     bordercolor="#666666"
     borderopacity="1.0"
     inkscape:pageopacity="0.0"
     inkscape:pageshadow="2"
     inkscape:zoom="5.90625"
     inkscape:cx="57.276376"
     inkscape:cy="48.048479"
     inkscape:document-units="px"
     inkscape:current-layer="layer1"
     showgrid="true"
     inkscape:snap-page="true"
     inkscape:snap-global="true"
     inkscape:snap-center="true"
     inkscape:snap-object-midpoints="false"
     showguides="true"
     inkscape:guide-bbox="true"
     inkscape:snap-bbox="true"
     inkscape:object-paths="true"
     inkscape:object-nodes="true"
     inkscape:window-width="1305"
     inkscape:window-height="744"
     inkscape:window-x="61"
     inkscape:window-y="24"
     inkscape:window-maximized="1"
     inkscape:snap-midpoints="false"
     inkscape:snap-grids="true"
     inkscape:snap-to-guides="false">
    <inkscape:grid
       type="xygrid"
       id="grid3002"
       empspacing="5"
       visible="true"
       enabled="true"
       snapvisiblegridlinesonly="true" />
  </sodipodi:namedview>
  <metadata
     id="metadata7">
    <rdf:RDF>
      <cc:Work
         rdf:about="">
        <dc:format>image/svg+xml</dc:format>
        <dc:type
           rdf:resource="http://purl.org/dc/dcmitype/StillImage" />
        <dc:title />
      </cc:Work>
    </rdf:RDF>
  </metadata>
  <g
     inkscape:label="Layer 1"
     inkscape:groupmode="layer"
     id="layer1"
     transform="translate(0,-956.36218)">
    <rect
       style="fill:#ffffff;fill-opacity:0;fill-rule:nonzero;stroke:none"
       id="rect3775"
       width="96"
       height="96"
       x="0"
       y="956.36218"
       ry="0" />
    <path
       style="fill:#000000;fill-opacity:0.09589041;fill-rule:nonzero;stroke:none"
       d="m 3.353015,956.30662 c -1.884176,0 -3.4111555,1.43156 -3.4111555,3.19799 l 0,83.65949 c 0,1.7665 1.5269795,3.1981 3.4111555,3.1981 l 89.23583,0 c 1.884174,0 3.411155,-1.4316 3.411155,-3.1981 l 0,-83.65949 c 0,-1.76643 -1.526981,-3.19799 -3.411155,-3.19799 z"
       id="rect3772"
       inkscape:connector-curvature="0"
       sodipodi:nodetypes="sssssssss" />
    <path
       style="fill:#000000;fill-opacity:0.18721463;fill-rule:nonzero;stroke:none"
       d="m 1.0459761,1041.8066 0,7.4219 c 0,1.7392 1.461916,3.1337 3.2852054,3.1337 l 86.3836135,0 c 1.823288,0 3.285205,-1.3945 3.285205,-3.1337 l 0,-7.4219 -92.9540239,0 z"
       id="rect3785"
       inkscape:connector-curvature="0" />
    <path
       style="fill:#000000;fill-opacity:0.38356168;fill-rule:nonzero;stroke:none"
       d="m 1.0459761,1041.8066 0,5.3807 c 0,1.762 1.461916,3.1749 3.2852054,3.1749 l 86.3836135,0 c 1.823288,0 3.285205,-1.4129 3.285205,-3.1749 l 0,-5.3807 -92.9540239,0 z"
       id="rect3783"
       inkscape:connector-curvature="0" />
    <rect
       style="fill:#54d8a8;fill-opacity:1;fill-rule:nonzero;stroke:none"
       id="rect2985-2"
       width="93"
       height="88.999962"
       x="0.9999969"
       y="957.36224"
       ry="3.1511383" />
    <path
       style="fill:#000000;fill-opacity:0.38356168;fill-rule:nonzero;stroke:none"
       d="m 1,1042.3622 0.045976,2.7457 c 0.03024,1.8058 1.461916,3.2543 3.2852054,3.2543 l 86.3836136,0 c 1.823288,0 3.285205,-1.4481 3.285205,-3.2543 l -0.04598,-2.7457 z"
       id="rect3781"
       inkscape:connector-curvature="0"
       sodipodi:nodetypes="csssscc" />
    <rect
       style="fill:#ffffff;fill-opacity:0.30000001;fill-rule:nonzero;stroke:none"
       id="rect3770"
       width="92.954033"
       height="2.000005"
       x="1.045976"
       y="1040.3622" />
    <path
       style="font-size:10.55780315px;font-style:normal;font-variant:normal;font-weight:normal;font-stretch:normal;text-align:end;line-height:125%;letter-spacing:0px;word-spacing:0px;text-anchor:end;fill:url(#linearGradient3072);fill-opacity:1;stroke:none;font-family:mry_KacstQurn;-inkscape-font-specification:mry_KacstQurn"
       d="m 15.25161,968.05474 c -0.726615,0 -1.263226,0.31114 -1.667729,0.99557 -0.397015,0.6763 -0.616335,1.64926 -0.616335,2.92036 0,1.2711 0.21932,2.26911 0.616335,2.95355 0.404503,0.67629 0.941114,0.99557 1.667729,0.99557 0.734098,0 1.306965,-0.31928 1.703984,-0.99557 0.397008,-0.68444 0.616329,-1.68245 0.616334,-2.95355 -5e-6,-1.2711 -0.219326,-2.24406 -0.616334,-2.92036 -0.397019,-0.68443 -0.969886,-0.99557 -1.703984,-0.99557 z m 11.239044,0 c -0.726613,0 -1.263225,0.31114 -1.667728,0.99557 -0.397015,0.6763 -0.616335,1.64926 -0.616335,2.92036 0,1.2711 0.21932,2.26911 0.616335,2.95355 0.404503,0.67629 0.941115,0.99557 1.667728,0.99557 0.734099,0 1.306966,-0.31928 1.703985,-0.99557 0.397009,-0.68444 0.61633,-1.68245 0.616335,-2.95355 -5e-6,-1.2711 -0.219326,-2.24406 -0.616335,-2.92036 -0.397019,-0.68443 -0.969886,-0.99557 -1.703985,-0.99557 z m 5.619523,0 c -0.726614,0 -1.263226,0.31114 -1.667729,0.99557 -0.397015,0.6763 -0.616335,1.64926 -0.616335,2.92036 0,1.2711 0.21932,2.26911 0.616335,2.95355 0.404503,0.67629 0.941115,0.99557 1.667729,0.99557 0.734099,0 1.306966,-0.31928 1.703984,-0.99557 0.39701,-0.68444 0.616331,-1.68245 0.616335,-2.95355 -4e-6,-1.2711 -0.219325,-2.24406 -0.616335,-2.92036 -0.397018,-0.68443 -0.969885,-0.99557 -1.703984,-0.99557 z m 16.858567,0 c -0.726613,0 -1.29948,0.31114 -1.703984,0.99557 -0.397014,0.6763 -0.580079,1.64926 -0.580079,2.92036 0,1.2711 0.183065,2.26911 0.580079,2.95355 0.404504,0.67629 0.977371,0.99557 1.703984,0.99557 0.734099,0 1.306966,-0.31928 1.703984,-0.99557 0.39701,-0.68444 0.580075,-1.68245 0.58008,-2.95355 -5e-6,-1.2711 -0.18307,-2.24406 -0.58008,-2.92036 -0.397018,-0.68443 -0.969885,-0.99557 -1.703984,-0.99557 z m 11.239045,0 c -0.726614,0 -1.29948,0.31114 -1.703984,0.99557 -0.397016,0.6763 -0.580081,1.64926 -0.580081,2.92036 0,1.2711 0.183065,2.26911 0.580081,2.95355 0.404504,0.67629 0.97737,0.99557 1.703984,0.99557 0.734099,0 1.306966,-0.31928 1.703984,-0.99557 0.39701,-0.68444 0.580075,-1.68245 0.580079,-2.95355 -4e-6,-1.2711 -0.183069,-2.24406 -0.580079,-2.92036 -0.397018,-0.68443 -0.969885,-0.99557 -1.703984,-0.99557 z m 11.239045,0 c -0.726614,0 -1.299482,0.31114 -1.703985,0.99557 -0.397015,0.6763 -0.58008,1.64926 -0.58008,2.92036 0,1.2711 0.183065,2.26911 0.58008,2.95355 0.404503,0.67629 0.977371,0.99557 1.703985,0.99557 0.734099,0 1.306966,-0.31928 1.703984,-0.99557 0.39701,-0.68444 0.580075,-1.68245 0.580079,-2.95355 -4e-6,-1.2711 -0.183069,-2.24406 -0.580079,-2.92036 -0.397018,-0.68443 -0.969885,-0.99557 -1.703984,-0.99557 z m 5.111952,0.0664 c -0.119856,0 -0.24899,0.0251 -0.398805,0.0331 -0.142326,0.009 -0.314009,0.0169 -0.471314,0.0331 -0.149819,0.008 -0.285244,0.008 -0.43506,0.0331 -0.142327,0.0244 -0.286444,0.067 -0.398805,0.0995 l 0,7.33408 c 0.112361,0.0326 0.248988,0.0751 0.398805,0.0995 0.149816,0.0244 0.321496,0.0251 0.471315,0.0331 0.149814,0.0163 0.285242,0.0251 0.435059,0.0331 0.149815,0.009 0.28644,0 0.398805,0 0.966316,0 1.660826,-0.1812 2.102789,-0.56416 0.441955,-0.38296 0.652586,-0.94286 0.65259,-1.69248 -4e-6,-0.48889 -0.100377,-0.89321 -0.36255,-1.19469 -0.254694,-0.30962 -0.596856,-0.51646 -0.978885,-0.63053 0.142323,-0.057 0.278948,-0.12637 0.398805,-0.2323 0.12734,-0.11408 0.2364,-0.25157 0.326295,-0.39823 0.09737,-0.14667 0.16509,-0.30164 0.21753,-0.4646 0.05243,-0.17112 0.07251,-0.35172 0.07251,-0.53098 -4e-6,-0.3748 -0.05394,-0.67661 -0.181274,-0.9292 -0.119859,-0.25259 -0.282851,-0.47571 -0.507571,-0.63054 -0.217239,-0.15481 -0.49798,-0.26666 -0.797609,-0.33185 -0.299637,-0.0652 -0.598054,-0.0995 -0.94263,-0.0995 z m 7.867332,0.0664 c -0.614254,0.009 -1.144574,0.0949 -1.631475,0.29867 -0.486907,0.20371 -0.924347,0.51306 -1.268924,0.89602 -0.337089,0.38296 -0.574085,0.85663 -0.761355,1.427 -0.179781,0.56221 -0.290041,1.19145 -0.29004,1.92478 -10e-7,1.00221 0.198047,1.79398 0.58008,2.3562 0.382031,0.56221 0.968681,0.82964 1.740239,0.82964 0.374538,0 0.672956,-0.0525 0.94263,-0.19911 0.269665,-0.15481 0.51655,-0.36105 0.688845,-0.59735 0.172283,-0.24444 0.280145,-0.51127 0.36255,-0.79646 0.0824,-0.29333 0.145014,-0.5858 0.145019,-0.86283 -5e-6,-0.30148 -0.03387,-0.57765 -0.108768,-0.86284 -0.07491,-0.28518 -0.197756,-0.55142 -0.36255,-0.76327 -0.164803,-0.21999 -0.411688,-0.36741 -0.688845,-0.49779 -0.269673,-0.13036 -0.589364,-0.19911 -0.978884,-0.19911 -0.23971,0 -0.471613,0.01 -0.688844,0.0664 -0.209746,0.057 -0.400302,0.14267 -0.58008,0.2323 0.08989,-0.44 0.226514,-0.82685 0.398804,-1.12832 0.172288,-0.30148 0.3979,-0.54268 0.65259,-0.73009 0.254685,-0.19555 0.511756,-0.31675 0.833864,-0.39823 0.329594,-0.0896 0.726886,-0.15778 1.123906,-0.16593 l -0.108768,-0.82965 z m -42.853391,0.0331 0,7.56639 0.906375,0 0,-3.51771 2.682869,0 0,-0.82964 -2.682869,0 0,-2.38939 3.045418,0 0,-0.82965 -3.951793,0 z m 11.239045,0 0,7.56639 0.906375,0 0,-3.51771 2.682868,0 0,-0.82964 -2.682868,0 0,-2.38939 3.045418,0 0,-0.82965 -3.951793,0 z m 11.239045,0 0,7.56639 0.906374,0 0,-3.51771 2.682869,0 0,-0.82964 -2.682869,0 0,-2.38939 3.045419,0 0,-0.82965 -3.951793,0 z m -48.799209,0.69691 c 0.254685,0 0.480297,0.10248 0.65259,0.26549 0.172287,0.16296 0.330186,0.38668 0.435061,0.66371 0.104867,0.27704 0.17258,0.58759 0.217529,0.96239 0.04494,0.36667 0.07251,0.74596 0.07251,1.16151 -5e-6,0.41555 -0.02756,0.81988 -0.07251,1.19469 -0.04495,0.36666 -0.112663,0.68536 -0.217529,0.96239 -0.104879,0.27703 -0.262774,0.50075 -0.435061,0.66372 -0.172293,0.16296 -0.397905,0.26549 -0.65259,0.26549 -0.25469,0 -0.444047,-0.10248 -0.616334,-0.26549 -0.172291,-0.16297 -0.33019,-0.38669 -0.43506,-0.66372 -0.104878,-0.27703 -0.172587,-0.59573 -0.21753,-0.96239 -0.04495,-0.37481 -0.07251,-0.77914 -0.07251,-1.19469 0,-0.41555 0.02756,-0.79484 0.07251,-1.16151 0.04494,-0.3748 0.112652,-0.68535 0.21753,-0.96239 0.104868,-0.27703 0.262769,-0.50075 0.43506,-0.66371 0.172287,-0.16296 0.361644,-0.26549 0.616334,-0.26549 z m 11.239046,0 c 0.254685,0 0.480297,0.10248 0.65259,0.26549 0.172286,0.16296 0.330186,0.38668 0.435061,0.66371 0.104867,0.27704 0.17258,0.58759 0.217529,0.96239 0.04495,0.36667 0.07251,0.74596 0.07251,1.16151 -5e-6,0.41555 -0.02756,0.81988 -0.07251,1.19469 -0.04494,0.36666 -0.112663,0.68536 -0.217529,0.96239 -0.104879,0.27703 -0.262775,0.50075 -0.435061,0.66372 -0.172293,0.16296 -0.397905,0.26549 -0.65259,0.26549 -0.25469,0 -0.444047,-0.10248 -0.616334,-0.26549 -0.172292,-0.16297 -0.33019,-0.38669 -0.43506,-0.66372 -0.104878,-0.27703 -0.172587,-0.59573 -0.21753,-0.96239 -0.04495,-0.37481 -0.07251,-0.77914 -0.07251,-1.19469 -1e-6,-0.41555 0.02756,-0.79484 0.07251,-1.16151 0.04494,-0.3748 0.112652,-0.68535 0.21753,-0.96239 0.104868,-0.27703 0.262768,-0.50075 0.43506,-0.66371 0.172287,-0.16296 0.361644,-0.26549 0.616334,-0.26549 z m 5.619523,0 c 0.254685,0 0.480297,0.10248 0.652589,0.26549 0.172287,0.16296 0.330185,0.38668 0.43506,0.66371 0.104868,0.27704 0.172581,0.58759 0.21753,0.96239 0.04494,0.36667 0.07251,0.74596 0.07251,1.16151 -4e-6,0.41555 -0.02756,0.81988 -0.07251,1.19469 -0.04495,0.36666 -0.112662,0.68536 -0.21753,0.96239 -0.104878,0.27703 -0.262773,0.50075 -0.43506,0.66372 -0.172292,0.16296 -0.397904,0.26549 -0.652589,0.26549 -0.254691,0 -0.444048,-0.10248 -0.616334,-0.26549 -0.172292,-0.16297 -0.33019,-0.38669 -0.435061,-0.66372 -0.104878,-0.27703 -0.172586,-0.59573 -0.217529,-0.96239 -0.04494,-0.37481 -0.07251,-0.77914 -0.07251,-1.19469 -10e-7,-0.41555 0.02756,-0.79484 0.07251,-1.16151 0.04494,-0.3748 0.112651,-0.68535 0.217529,-0.96239 0.104868,-0.27703 0.262769,-0.50075 0.435061,-0.66371 0.172286,-0.16296 0.361643,-0.26549 0.616334,-0.26549 z m 16.858567,0 c 0.254685,0 0.480297,0.10248 0.65259,0.26549 0.172285,0.16296 0.29393,0.38668 0.398805,0.66371 0.104867,0.27704 0.208836,0.58759 0.253785,0.96239 0.04494,0.36667 0.03626,0.74596 0.03626,1.16151 -5e-6,0.41555 0.0087,0.81988 -0.03626,1.19469 -0.04494,0.36666 -0.148918,0.68536 -0.253785,0.96239 -0.104878,0.27703 -0.22652,0.50075 -0.398805,0.66372 -0.172293,0.16296 -0.397905,0.26549 -0.65259,0.26549 -0.254691,0 -0.444047,-0.10248 -0.616335,-0.26549 -0.172292,-0.16297 -0.330189,-0.38669 -0.43506,-0.66372 -0.104878,-0.27703 -0.172586,-0.59573 -0.21753,-0.96239 -0.04494,-0.37481 -0.07251,-0.77914 -0.07251,-1.19469 -10e-7,-0.41555 0.02756,-0.79484 0.07251,-1.16151 0.04495,-0.3748 0.112652,-0.68535 0.21753,-0.96239 0.104867,-0.27703 0.262768,-0.50075 0.43506,-0.66371 0.172288,-0.16296 0.361644,-0.26549 0.616335,-0.26549 z m 11.239045,0 c 0.254685,0 0.480297,0.10248 0.65259,0.26549 0.172285,0.16296 0.29393,0.38668 0.398804,0.66371 0.104867,0.27704 0.208835,0.58759 0.253786,0.96239 0.04494,0.36667 0.03625,0.74596 0.03625,1.16151 -4e-6,0.41555 0.0087,0.81988 -0.03625,1.19469 -0.04494,0.36666 -0.148918,0.68536 -0.253786,0.96239 -0.104878,0.27703 -0.226519,0.50075 -0.398804,0.66372 -0.172293,0.16296 -0.397905,0.26549 -0.65259,0.26549 -0.254692,0 -0.444048,-0.10248 -0.616335,-0.26549 -0.172292,-0.16297 -0.330189,-0.38669 -0.43506,-0.66372 -0.104878,-0.27703 -0.172586,-0.59573 -0.21753,-0.96239 -0.04494,-0.37481 -0.07251,-0.77914 -0.07251,-1.19469 -1e-6,-0.41555 0.02756,-0.79484 0.07251,-1.16151 0.04494,-0.3748 0.112652,-0.68535 0.21753,-0.96239 0.104867,-0.27703 0.262768,-0.50075 0.43506,-0.66371 0.172287,-0.16296 0.361643,-0.26549 0.616335,-0.26549 z m 11.239045,0 c 0.254685,0 0.480296,0.10248 0.65259,0.26549 0.172285,0.16296 0.293929,0.38668 0.398804,0.66371 0.104867,0.27704 0.172581,0.58759 0.21753,0.96239 0.04495,0.36667 0.07251,0.74596 0.07251,1.16151 -4e-6,0.41555 -0.02756,0.81988 -0.07251,1.19469 -0.04494,0.36666 -0.112663,0.68536 -0.21753,0.96239 -0.104879,0.27703 -0.226519,0.50075 -0.398804,0.66372 -0.172294,0.16296 -0.397905,0.26549 -0.65259,0.26549 -0.254692,0 -0.480303,-0.10248 -0.65259,-0.26549 -0.172292,-0.16297 -0.293935,-0.38669 -0.398805,-0.66372 -0.104879,-0.27703 -0.172586,-0.59573 -0.21753,-0.96239 -0.04494,-0.37481 -0.07251,-0.77914 -0.07251,-1.19469 -10e-7,-0.41555 0.02756,-0.79484 0.07251,-1.16151 0.04494,-0.3748 0.112651,-0.68535 0.21753,-0.96239 0.104867,-0.27703 0.226513,-0.50075 0.398805,-0.66371 0.172287,-0.16296 0.397898,-0.26549 0.65259,-0.26549 z m 5.148207,0.0664 c 0.194759,0 0.407788,0.0256 0.58008,0.0664 0.179777,0.0408 0.336477,0.10131 0.471314,0.19912 0.134832,0.0978 0.243893,0.24342 0.326295,0.39823 0.0824,0.15482 0.108768,0.34416 0.108768,0.56416 -3e-6,0.23629 -0.05513,0.40935 -0.145021,0.56416 -0.08989,0.15481 -0.212735,0.27541 -0.362549,0.36504 -0.149819,0.0896 -0.320301,0.15838 -0.50757,0.19912 -0.187273,0.0408 -0.356556,0.0664 -0.543825,0.0664 l -0.7251,0 0,-2.38938 c 0.05992,-0.0163 0.147714,0 0.290041,0 0.149814,-0.009 0.312805,-0.0331 0.50757,-0.0331 z m -58.116738,1.12832 1.885258,2.68806 c -0.34458,0.46444 -0.691835,0.93869 -1.051394,1.46017 -0.35207,0.51333 -0.659178,1.03767 -0.906375,1.52656 l 0.94263,0 c 0.0824,-0.15482 0.20644,-0.33543 0.326295,-0.53098 0.119851,-0.19556 0.227713,-0.39364 0.362549,-0.59734 0.142324,-0.21185 0.285241,-0.42683 0.43506,-0.63054 0.149815,-0.2037 0.300222,-0.40994 0.435061,-0.59734 0.134831,0.17925 0.263965,0.39364 0.398804,0.59734 0.142323,0.20371 0.271457,0.3855 0.398805,0.59735 0.127339,0.2037 0.257674,0.40179 0.36255,0.59735 0.11236,0.19554 0.215127,0.40119 0.29004,0.56416 l 1.015138,0 c -0.239711,-0.50518 -0.525545,-1.03826 -0.870119,-1.55974 -0.337091,-0.52148 -0.678055,-1.01263 -1.015139,-1.49337 l 1.740239,-2.62168 -1.01514,0 -1.268924,1.95797 -1.413944,-1.95797 -1.051394,0 z m -3.190439,0.9292 c -0.194765,0 -0.351464,0.0693 -0.471315,0.23231 -0.119856,0.16296 -0.181278,0.35231 -0.181275,0.56416 -3e-6,0.21184 0.06142,0.40934 0.181275,0.56416 0.119851,0.15481 0.27655,0.2323 0.471315,0.2323 0.187268,0 0.358949,-0.0775 0.471315,-0.2323 0.11985,-0.15482 0.145016,-0.35232 0.145019,-0.56416 -3e-6,-0.21185 -0.02517,-0.4012 -0.145019,-0.56416 -0.112362,-0.16296 -0.284047,-0.23231 -0.471315,-0.23231 z m 11.239045,0 c -0.194764,0 -0.351463,0.0693 -0.471314,0.23231 -0.119856,0.16296 -0.181278,0.35231 -0.181275,0.56416 -3e-6,0.21184 0.06142,0.40934 0.181275,0.56416 0.119851,0.15481 0.27655,0.2323 0.471314,0.2323 0.187268,0 0.322695,-0.0775 0.435061,-0.2323 0.119849,-0.15482 0.181271,-0.35232 0.181274,-0.56416 -3e-6,-0.21185 -0.06143,-0.4012 -0.181274,-0.56416 -0.112362,-0.16296 -0.247793,-0.23231 -0.435061,-0.23231 z m 5.619523,0 c -0.194764,0 -0.351463,0.0693 -0.471315,0.23231 -0.119856,0.16296 -0.181277,0.35231 -0.181274,0.56416 -3e-6,0.21184 0.06142,0.40934 0.181274,0.56416 0.119852,0.15481 0.276551,0.2323 0.471315,0.2323 0.187268,0 0.322693,-0.0775 0.43506,-0.2323 0.11985,-0.15482 0.181271,-0.35232 0.181274,-0.56416 -3e-6,-0.21185 -0.06143,-0.4012 -0.181274,-0.56416 -0.112362,-0.16296 -0.247792,-0.23231 -0.43506,-0.23231 z m 16.858567,0 c -0.194764,0 -0.351463,0.0693 -0.471315,0.23231 -0.119855,0.16296 -0.181277,0.35231 -0.181275,0.56416 -2e-6,0.21184 0.06142,0.40934 0.181275,0.56416 0.119852,0.15481 0.276551,0.2323 0.471315,0.2323 0.187268,0 0.322694,-0.0775 0.435059,-0.2323 0.119851,-0.15482 0.181273,-0.35232 0.181276,-0.56416 -3e-6,-0.21185 -0.06143,-0.4012 -0.181276,-0.56416 -0.11236,-0.16296 -0.247791,-0.23231 -0.435059,-0.23231 z m 11.239045,0 c -0.194764,0 -0.351463,0.0693 -0.471315,0.23231 -0.119857,0.16296 -0.181277,0.35231 -0.181275,0.56416 -2e-6,0.21184 0.06142,0.40934 0.181275,0.56416 0.119852,0.15481 0.276551,0.2323 0.471315,0.2323 0.187268,0 0.322693,-0.0775 0.435059,-0.2323 0.119851,-0.15482 0.181273,-0.35232 0.181276,-0.56416 -3e-6,-0.21185 -0.06143,-0.4012 -0.181276,-0.56416 -0.11236,-0.16296 -0.247791,-0.23231 -0.435059,-0.23231 z m 11.239045,0 c -0.194765,0 -0.351464,0.0693 -0.471315,0.23231 -0.119857,0.16296 -0.181277,0.35231 -0.181275,0.56416 -2e-6,0.21184 0.06142,0.40934 0.181275,0.56416 0.119851,0.15481 0.27655,0.2323 0.471315,0.2323 0.187268,0 0.322693,-0.0775 0.435059,-0.2323 0.119851,-0.15482 0.181271,-0.35232 0.181276,-0.56416 -5e-6,-0.21185 -0.06142,-0.4012 -0.181276,-0.56416 -0.112361,-0.16296 -0.247791,-0.23231 -0.435059,-0.23231 z m 11.20279,0.92921 c 0.441956,0 0.776628,0.13749 0.978884,0.39823 0.20974,0.26074 0.32629,0.63129 0.326294,1.12832 -4e-6,0.17111 -0.02756,0.33542 -0.07251,0.53097 -0.03746,0.18741 -0.120153,0.37617 -0.21753,0.53098 -0.09738,0.15481 -0.212737,0.2923 -0.362549,0.39823 -0.149821,0.0978 -0.319104,0.13274 -0.543826,0.13274 -0.269673,0 -0.516557,-0.0438 -0.688844,-0.16593 -0.172292,-0.13037 -0.293934,-0.31912 -0.398805,-0.53097 -0.09738,-0.22001 -0.172586,-0.45306 -0.21753,-0.73009 -0.03746,-0.28519 -0.07251,-0.61143 -0.07251,-0.92921 l 0,-0.2323 c -10e-7,-0.0815 0.02877,-0.15081 0.03626,-0.2323 0.20225,-0.0978 0.385315,-0.18341 0.580079,-0.2323 0.202251,-0.0488 0.41288,-0.0664 0.65259,-0.0664 z m -6.888448,0.26549 0.94263,0 c 0.217232,0 0.41408,0.0175 0.616335,0.0664 0.20225,0.0408 0.394004,0.12637 0.543825,0.2323 0.157303,0.0978 0.272655,0.22712 0.362549,0.39823 0.09737,0.17111 0.145016,0.37794 0.145021,0.63053 -5e-6,0.28519 -0.04015,0.51765 -0.145021,0.6969 -0.09738,0.17926 -0.23401,0.35053 -0.398804,0.46461 -0.164802,0.10587 -0.362849,0.15837 -0.58008,0.19911 -0.209746,0.0408 -0.420377,0.0664 -0.652589,0.0664 -0.23222,0 -0.422775,0.008 -0.58008,0 -0.149819,-0.0163 -0.238806,-0.0251 -0.253786,-0.0331 l 0,-2.72124 z m -60.545823,6.90266 c -0.726613,0 -1.263225,0.34433 -1.667728,1.02876 -0.397015,0.67629 -0.616335,1.64926 -0.616335,2.92036 0,1.2711 0.21932,2.26911 0.616335,2.95354 0.404503,0.67629 0.941115,0.99558 1.667728,0.99558 0.734099,0 1.306966,-0.31929 1.703985,-0.99558 0.397009,-0.68443 0.61633,-1.68244 0.616335,-2.95354 -5e-6,-1.2711 -0.219326,-2.24407 -0.616335,-2.92036 -0.397019,-0.68443 -0.969886,-1.02876 -1.703985,-1.02876 z m 11.239046,0 c -0.726613,0 -1.263225,0.34433 -1.667729,1.02876 -0.397015,0.67629 -0.616335,1.64926 -0.616335,2.92036 0,1.2711 0.21932,2.26911 0.616335,2.95354 0.404504,0.67629 0.941116,0.99558 1.667729,0.99558 0.734099,0 1.306966,-0.31929 1.703985,-0.99558 0.397009,-0.68443 0.61633,-1.68244 0.616335,-2.95354 -5e-6,-1.2711 -0.219326,-2.24407 -0.616335,-2.92036 -0.397019,-0.68443 -0.969886,-1.02876 -1.703985,-1.02876 z m 22.47809,0 c -0.726613,0 -1.29948,0.34433 -1.703984,1.02876 -0.397014,0.67629 -0.580079,1.64926 -0.580079,2.92036 0,1.2711 0.183065,2.26911 0.580079,2.95354 0.404504,0.67629 0.977371,0.99558 1.703984,0.99558 0.734099,0 1.306966,-0.31929 1.703984,-0.99558 0.39701,-0.68443 0.580075,-1.68244 0.58008,-2.95354 -5e-6,-1.2711 -0.18307,-2.24407 -0.58008,-2.92036 -0.397018,-0.68443 -0.969885,-1.02876 -1.703984,-1.02876 z m 11.239045,0 c -0.726614,0 -1.29948,0.34433 -1.703984,1.02876 -0.397016,0.67629 -0.580081,1.64926 -0.580081,2.92036 0,1.2711 0.183065,2.26911 0.580081,2.95354 0.404504,0.67629 0.97737,0.99558 1.703984,0.99558 0.734099,0 1.306966,-0.31929 1.703984,-0.99558 0.39701,-0.68443 0.580075,-1.68244 0.580079,-2.95354 -4e-6,-1.2711 -0.183069,-2.24407 -0.580079,-2.92036 -0.397018,-0.68443 -0.969885,-1.02876 -1.703984,-1.02876 z m 11.239045,0 c -0.726614,0 -1.299482,0.34433 -1.703985,1.02876 -0.397015,0.67629 -0.58008,1.64926 -0.58008,2.92036 0,1.2711 0.183065,2.26911 0.58008,2.95354 0.404503,0.67629 0.977371,0.99558 1.703985,0.99558 0.734099,0 1.306966,-0.31929 1.703984,-0.99558 0.39701,-0.68443 0.580075,-1.68244 0.580079,-2.95354 -4e-6,-1.2711 -0.183069,-2.24407 -0.580079,-2.92036 -0.397018,-0.68443 -0.969885,-1.02876 -1.703984,-1.02876 z m 5.111952,0.0995 c -0.119856,0 -0.24899,0.0251 -0.398805,0.0331 -0.142326,0.008 -0.314009,0.0169 -0.471314,0.0331 -0.149819,0.009 -0.285244,0.009 -0.43506,0.0331 -0.142327,0.0244 -0.286444,0.067 -0.398805,0.0995 l 0,7.33408 c 0.112361,0.0326 0.248988,0.0419 0.398805,0.0664 0.149816,0.0244 0.321496,0.0582 0.471315,0.0664 0.149814,0.0163 0.285242,0.0251 0.435059,0.0331 0.149815,0.008 0.28644,0 0.398805,0 0.966316,0 1.660826,-0.1812 2.102789,-0.56416 0.441955,-0.38296 0.652586,-0.94286 0.65259,-1.69248 -4e-6,-0.48889 -0.100377,-0.89321 -0.36255,-1.19469 -0.254694,-0.30962 -0.596856,-0.51646 -0.978885,-0.63053 0.142323,-0.057 0.278948,-0.12637 0.398805,-0.2323 0.12734,-0.11408 0.2364,-0.25157 0.326295,-0.39823 0.09737,-0.14667 0.16509,-0.30164 0.21753,-0.4646 0.05243,-0.17112 0.07251,-0.35172 0.07251,-0.53098 -4e-6,-0.3748 -0.05394,-0.67661 -0.181274,-0.9292 -0.119859,-0.25259 -0.282851,-0.47571 -0.507571,-0.63054 -0.217239,-0.15481 -0.49798,-0.26666 -0.797609,-0.33185 -0.299637,-0.0652 -0.598054,-0.0995 -0.94263,-0.0995 z m 7.867332,0.0331 c -0.614254,0.008 -1.144574,0.12816 -1.631475,0.33186 -0.486907,0.2037 -0.924347,0.47987 -1.268924,0.86283 -0.337089,0.38296 -0.574085,0.88982 -0.761355,1.46018 -0.179781,0.56221 -0.290041,1.19145 -0.29004,1.92478 -10e-7,1.00221 0.198047,1.79398 0.58008,2.3562 0.382031,0.56221 0.968681,0.82964 1.740239,0.82964 0.374538,0 0.672956,-0.0525 0.94263,-0.19911 0.269665,-0.15481 0.51655,-0.36105 0.688845,-0.59735 0.172283,-0.24444 0.280145,-0.51127 0.36255,-0.79646 0.0824,-0.29333 0.145014,-0.5858 0.145019,-0.86283 -5e-6,-0.30148 -0.03387,-0.57765 -0.108768,-0.86284 -0.07491,-0.28518 -0.197756,-0.55142 -0.36255,-0.76327 -0.164803,-0.21999 -0.411688,-0.4006 -0.688845,-0.53097 -0.269673,-0.13037 -0.589364,-0.16593 -0.978884,-0.16593 -0.23971,0 -0.471613,0.01 -0.688844,0.0664 -0.209746,0.057 -0.400302,0.14267 -0.58008,0.2323 0.08989,-0.44 0.226514,-0.82684 0.398804,-1.12832 0.172288,-0.30148 0.3979,-0.54268 0.65259,-0.73009 0.254685,-0.19555 0.511756,-0.31675 0.833864,-0.39823 0.329594,-0.0896 0.726886,-0.15777 1.123906,-0.16593 l -0.108768,-0.86283 z m -52.170921,0.0331 c -0.307127,0.38296 -0.619327,0.70981 -0.978885,0.96239 -0.359562,0.24445 -0.741873,0.46758 -1.123904,0.63053 l 0.29004,0.73009 c 0.142325,-0.0489 0.285241,-0.0926 0.43506,-0.16593 0.149814,-0.0733 0.300222,-0.15082 0.435059,-0.2323 0.142324,-0.0815 0.28644,-0.15082 0.398805,-0.2323 0.119852,-0.0896 0.207638,-0.184 0.29004,-0.26549 l 0,5.30974 -1.522709,0 0,0.82965 3.770518,0 0,-0.82965 -1.341434,0 0,-6.73673 -0.65259,0 z m 9.31753,0 0,7.56638 0.906375,0 0,-3.48452 2.682869,0 0,-0.86283 -2.682869,0 0,-2.3562 3.045418,0 0,-0.86283 -3.951793,0 z m 11.239045,0 0,7.56638 0.906375,0 0,-3.48452 2.682868,0 0,-0.86283 -2.682868,0 0,-2.3562 3.045418,0 0,-0.86283 -3.951793,0 z m 11.239045,0 0,7.56638 0.906374,0 0,-3.48452 2.682869,0 0,-0.86283 -2.682869,0 0,-2.3562 3.045419,0 0,-0.86283 -3.951793,0 z m -48.799209,0.73009 c 0.254685,0 0.480297,0.10248 0.65259,0.26549 0.172287,0.16296 0.330186,0.3535 0.435061,0.63053 0.104867,0.27704 0.17258,0.62077 0.217529,0.99557 0.04494,0.36667 0.07251,0.74596 0.07251,1.16151 -5e-6,0.41555 -0.02756,0.81988 -0.07251,1.19469 -0.04495,0.36666 -0.112663,0.68536 -0.217529,0.96239 -0.104879,0.27703 -0.262774,0.50075 -0.435061,0.66372 -0.172293,0.16296 -0.397905,0.2323 -0.65259,0.2323 -0.25469,0 -0.444047,-0.0693 -0.616334,-0.2323 -0.172291,-0.16297 -0.33019,-0.38669 -0.43506,-0.66372 -0.104878,-0.27703 -0.172587,-0.59573 -0.21753,-0.96239 -0.04495,-0.37481 -0.07251,-0.77914 -0.07251,-1.19469 -10e-7,-0.41555 0.02756,-0.79484 0.07251,-1.16151 0.04494,-0.3748 0.112652,-0.71853 0.21753,-0.99557 0.104868,-0.27703 0.262769,-0.46757 0.43506,-0.63053 0.172287,-0.16296 0.361644,-0.26549 0.616334,-0.26549 z m 11.239046,0 c 0.254685,0 0.480297,0.10248 0.65259,0.26549 0.172286,0.16296 0.330186,0.3535 0.435061,0.63053 0.104867,0.27704 0.17258,0.62077 0.217529,0.99557 0.04495,0.36667 0.07251,0.74596 0.07251,1.16151 -5e-6,0.41555 -0.02756,0.81988 -0.07251,1.19469 -0.04494,0.36666 -0.112663,0.68536 -0.217529,0.96239 -0.104879,0.27703 -0.262775,0.50075 -0.435061,0.66372 -0.172293,0.16296 -0.397905,0.2323 -0.65259,0.2323 -0.25469,0 -0.444047,-0.0693 -0.616334,-0.2323 -0.172292,-0.16297 -0.33019,-0.38669 -0.43506,-0.66372 -0.104878,-0.27703 -0.172587,-0.59573 -0.21753,-0.96239 -0.04495,-0.37481 -0.07251,-0.77914 -0.07251,-1.19469 -1e-6,-0.41555 0.02756,-0.79484 0.07251,-1.16151 0.04494,-0.3748 0.112652,-0.71853 0.21753,-0.99557 0.104868,-0.27703 0.262768,-0.46757 0.43506,-0.63053 0.172287,-0.16296 0.361644,-0.26549 0.616334,-0.26549 z m 22.47809,0 c 0.254685,0 0.480297,0.10248 0.65259,0.26549 0.172285,0.16296 0.29393,0.3535 0.398805,0.63053 0.104867,0.27704 0.208836,0.62077 0.253785,0.99557 0.04494,0.36667 0.03626,0.74596 0.03626,1.16151 -5e-6,0.41555 0.0087,0.81988 -0.03626,1.19469 -0.04494,0.36666 -0.148918,0.68536 -0.253785,0.96239 -0.104878,0.27703 -0.22652,0.50075 -0.398805,0.66372 -0.172293,0.16296 -0.397905,0.2323 -0.65259,0.2323 -0.254691,0 -0.444047,-0.0693 -0.616335,-0.2323 -0.172292,-0.16297 -0.330189,-0.38669 -0.43506,-0.66372 -0.104878,-0.27703 -0.172586,-0.59573 -0.21753,-0.96239 -0.04494,-0.37481 -0.07251,-0.77914 -0.07251,-1.19469 -10e-7,-0.41555 0.02756,-0.79484 0.07251,-1.16151 0.04495,-0.3748 0.112652,-0.71853 0.21753,-0.99557 0.104867,-0.27703 0.262768,-0.46757 0.43506,-0.63053 0.172288,-0.16296 0.361644,-0.26549 0.616335,-0.26549 z m 11.239045,0 c 0.254685,0 0.480297,0.10248 0.65259,0.26549 0.172285,0.16296 0.29393,0.3535 0.398804,0.63053 0.104867,0.27704 0.208835,0.62077 0.253786,0.99557 0.04494,0.36667 0.03625,0.74596 0.03625,1.16151 -4e-6,0.41555 0.0087,0.81988 -0.03625,1.19469 -0.04494,0.36666 -0.148918,0.68536 -0.253786,0.96239 -0.104878,0.27703 -0.226519,0.50075 -0.398804,0.66372 -0.172293,0.16296 -0.397905,0.2323 -0.65259,0.2323 -0.254692,0 -0.444048,-0.0693 -0.616335,-0.2323 -0.172292,-0.16297 -0.330189,-0.38669 -0.43506,-0.66372 -0.104878,-0.27703 -0.172586,-0.59573 -0.21753,-0.96239 -0.04494,-0.37481 -0.07251,-0.77914 -0.07251,-1.19469 -1e-6,-0.41555 0.02756,-0.79484 0.07251,-1.16151 0.04494,-0.3748 0.112652,-0.71853 0.21753,-0.99557 0.104867,-0.27703 0.262768,-0.46757 0.43506,-0.63053 0.172287,-0.16296 0.361643,-0.26549 0.616335,-0.26549 z m 11.239045,0 c 0.254685,0 0.480296,0.10248 0.65259,0.26549 0.172285,0.16296 0.293929,0.3535 0.398804,0.63053 0.104867,0.27704 0.172581,0.62077 0.21753,0.99557 0.04495,0.36667 0.07251,0.74596 0.07251,1.16151 -4e-6,0.41555 -0.02756,0.81988 -0.07251,1.19469 -0.04494,0.36666 -0.112663,0.68536 -0.21753,0.96239 -0.104879,0.27703 -0.226519,0.50075 -0.398804,0.66372 -0.172294,0.16296 -0.397905,0.2323 -0.65259,0.2323 -0.254692,0 -0.480303,-0.0693 -0.65259,-0.2323 -0.172292,-0.16297 -0.293935,-0.38669 -0.398805,-0.66372 -0.104879,-0.27703 -0.172586,-0.59573 -0.21753,-0.96239 -0.04494,-0.37481 -0.07251,-0.77914 -0.07251,-1.19469 -10e-7,-0.41555 0.02756,-0.79484 0.07251,-1.16151 0.04494,-0.3748 0.112651,-0.71853 0.21753,-0.99557 0.104867,-0.27703 0.226513,-0.46757 0.398805,-0.63053 0.172287,-0.16296 0.397898,-0.26549 0.65259,-0.26549 z m 4.640638,0.0664 c 0.149814,-0.008 0.312805,0 0.507569,0 0.194759,0 0.407788,0.0256 0.58008,0.0664 0.179777,0.0408 0.336477,0.10131 0.471314,0.19912 0.134832,0.0978 0.243893,0.24342 0.326295,0.39823 0.0824,0.15482 0.108768,0.34417 0.108768,0.56416 -3e-6,0.23629 -0.05513,0.40935 -0.145021,0.56416 -0.08989,0.15481 -0.212735,0.27541 -0.362549,0.36504 -0.149819,0.0896 -0.320301,0.15838 -0.50757,0.19912 -0.187273,0.0408 -0.356556,0.0664 -0.543825,0.0664 l -0.7251,0 0,-2.38938 c 0.05992,-0.0163 0.147714,-0.0331 0.290041,-0.0331 z m -57.609169,1.12832 1.885258,2.68806 c -0.34458,0.46444 -0.691835,0.9387 -1.051394,1.46018 -0.35207,0.51332 -0.659178,1.00447 -0.906375,1.49336 l 0.94263,0 c 0.0824,-0.15481 0.20644,-0.30224 0.326295,-0.49779 0.119851,-0.19556 0.227713,-0.39364 0.362549,-0.59734 0.142324,-0.21185 0.285241,-0.42683 0.43506,-0.63054 0.149815,-0.2037 0.300222,-0.40994 0.435061,-0.59734 0.134831,0.17926 0.263965,0.36046 0.398804,0.56416 0.142323,0.2037 0.271457,0.41868 0.398805,0.63053 0.127339,0.2037 0.257674,0.40179 0.36255,0.59735 0.11236,0.19554 0.215127,0.368 0.29004,0.53097 l 1.015138,0 c -0.239711,-0.50518 -0.525545,-1.00507 -0.870119,-1.52655 -0.337091,-0.52148 -0.678055,-1.01263 -1.015139,-1.49336 l 1.740239,-2.62169 -1.01514,0 -1.268924,1.95797 -1.413944,-1.95797 -1.051394,0 z m -3.190439,0.92921 c -0.194765,0 -0.351464,0.0693 -0.471315,0.2323 -0.119856,0.16296 -0.181278,0.35231 -0.181275,0.56416 -3e-6,0.21184 0.06142,0.40935 0.181275,0.56416 0.119851,0.15481 0.27655,0.2323 0.471315,0.2323 0.187268,0 0.358949,-0.0775 0.471315,-0.2323 0.11985,-0.15481 0.145016,-0.35232 0.145019,-0.56416 -3e-6,-0.21185 -0.02517,-0.4012 -0.145019,-0.56416 -0.112362,-0.16296 -0.284047,-0.2323 -0.471315,-0.2323 z m 11.239045,0 c -0.194764,0 -0.351463,0.0693 -0.471314,0.2323 -0.119856,0.16296 -0.181278,0.35231 -0.181275,0.56416 -3e-6,0.21184 0.06142,0.40935 0.181275,0.56416 0.119851,0.15481 0.27655,0.2323 0.471314,0.2323 0.187268,0 0.322695,-0.0775 0.435061,-0.2323 0.119849,-0.15481 0.181271,-0.35232 0.181274,-0.56416 -3e-6,-0.21185 -0.06143,-0.4012 -0.181274,-0.56416 -0.112362,-0.16296 -0.247793,-0.2323 -0.435061,-0.2323 z m 22.47809,0 c -0.194764,0 -0.351463,0.0693 -0.471315,0.2323 -0.119855,0.16296 -0.181277,0.35231 -0.181275,0.56416 -2e-6,0.21184 0.06142,0.40935 0.181275,0.56416 0.119852,0.15481 0.276551,0.2323 0.471315,0.2323 0.187268,0 0.322694,-0.0775 0.435059,-0.2323 0.119851,-0.15481 0.181273,-0.35232 0.181276,-0.56416 -3e-6,-0.21185 -0.06143,-0.4012 -0.181276,-0.56416 -0.11236,-0.16296 -0.247791,-0.2323 -0.435059,-0.2323 z m 11.239045,0 c -0.194764,0 -0.351463,0.0693 -0.471315,0.2323 -0.119857,0.16296 -0.181277,0.35231 -0.181275,0.56416 -2e-6,0.21184 0.06142,0.40935 0.181275,0.56416 0.119852,0.15481 0.276551,0.2323 0.471315,0.2323 0.187268,0 0.322693,-0.0775 0.435059,-0.2323 0.119851,-0.15481 0.181273,-0.35232 0.181276,-0.56416 -3e-6,-0.21185 -0.06143,-0.4012 -0.181276,-0.56416 -0.11236,-0.16296 -0.247791,-0.2323 -0.435059,-0.2323 z m 11.239045,0 c -0.194765,0 -0.351464,0.0693 -0.471315,0.2323 -0.119857,0.16296 -0.181277,0.35231 -0.181275,0.56416 -2e-6,0.21184 0.06142,0.40935 0.181275,0.56416 0.119851,0.15481 0.27655,0.2323 0.471315,0.2323 0.187268,0 0.322693,-0.0775 0.435059,-0.2323 0.119851,-0.15481 0.181271,-0.35232 0.181276,-0.56416 -5e-6,-0.21185 -0.06142,-0.4012 -0.181276,-0.56416 -0.112361,-0.16296 -0.247791,-0.2323 -0.435059,-0.2323 z m 11.20279,0.9292 c 0.441956,0 0.776628,0.10428 0.978884,0.36504 0.20974,0.26074 0.32629,0.66448 0.326294,1.16151 -4e-6,0.17111 -0.02756,0.33542 -0.07251,0.53097 -0.03746,0.18741 -0.120153,0.37617 -0.21753,0.53098 -0.09738,0.15481 -0.212737,0.25911 -0.362549,0.36504 -0.149821,0.0978 -0.319104,0.16593 -0.543826,0.16593 -0.269673,0 -0.516557,-0.0769 -0.688844,-0.19911 -0.172292,-0.13038 -0.293934,-0.28594 -0.398805,-0.49779 -0.09738,-0.22 -0.172586,-0.48625 -0.21753,-0.76328 -0.03746,-0.28518 -0.07251,-0.57824 -0.07251,-0.89601 l 0,-0.23231 c -10e-7,-0.0815 0.02877,-0.184 0.03626,-0.26548 0.20225,-0.0978 0.385315,-0.15023 0.580079,-0.19912 0.202251,-0.0489 0.41288,-0.0664 0.65259,-0.0664 z m -6.888448,0.26549 0.94263,0 c 0.217232,0 0.41408,0.0175 0.616335,0.0664 0.20225,0.0408 0.394004,0.12637 0.543825,0.2323 0.157303,0.0978 0.272655,0.22712 0.362549,0.39823 0.09737,0.17111 0.145016,0.37794 0.145021,0.63053 -5e-6,0.28519 -0.04015,0.51765 -0.145021,0.69691 -0.09738,0.17925 -0.23401,0.31734 -0.398804,0.43141 -0.164802,0.10588 -0.362849,0.19156 -0.58008,0.2323 -0.209746,0.0408 -0.420377,0.0664 -0.652589,0.0664 -0.23222,0 -0.422775,0.009 -0.58008,0 -0.149819,-0.0163 -0.238806,-0.0582 -0.253786,-0.0664 l 0,-2.68805 z M 15.25161,990.2559 c -0.726615,0 -1.263227,0.34433 -1.66773,1.02876 -0.397015,0.67629 -0.616335,1.64926 -0.616335,2.92034 0,1.2712 0.21932,2.2359 0.616335,2.9204 0.404503,0.6763 0.941115,1.0288 1.66773,1.0288 0.734098,0 1.306965,-0.3525 1.703984,-1.0288 0.397008,-0.6845 0.616329,-1.6492 0.616334,-2.9204 -5e-6,-1.27108 -0.219326,-2.24405 -0.616334,-2.92034 -0.397019,-0.68443 -0.969886,-1.02876 -1.703984,-1.02876 z m 11.239044,0 c -0.726613,0 -1.263225,0.34433 -1.667728,1.02876 -0.397015,0.67629 -0.616335,1.64926 -0.616335,2.92034 0,1.2712 0.21932,2.2359 0.616335,2.9204 0.404503,0.6763 0.941115,1.0288 1.667728,1.0288 0.734099,0 1.306966,-0.3525 1.703985,-1.0288 0.397009,-0.6845 0.61633,-1.6492 0.616335,-2.9204 -5e-6,-1.27108 -0.219326,-2.24405 -0.616335,-2.92034 -0.397019,-0.68443 -0.969886,-1.02876 -1.703985,-1.02876 z m 5.401993,0 c -0.239708,0 -0.442848,0.0344 -0.65259,0.0995 -0.209745,0.0652 -0.407791,0.13453 -0.58008,0.23231 -0.164799,0.0896 -0.315206,0.19275 -0.435059,0.29867 -0.119854,0.10587 -0.19386,0.19216 -0.253785,0.26549 l 0.435059,0.73009 c 0.04494,-0.0489 0.12764,-0.12578 0.217531,-0.19912 0.08989,-0.0815 0.20644,-0.15082 0.326294,-0.2323 0.127343,-0.0815 0.241495,-0.14208 0.398805,-0.19912 0.164797,-0.057 0.349061,-0.0995 0.543825,-0.0995 0.164796,0 0.328986,0.0175 0.471315,0.0664 0.142322,0.0489 0.257675,0.12638 0.36255,0.2323 0.112361,0.0978 0.193855,0.24342 0.253785,0.39823 0.06742,0.15482 0.108767,0.34417 0.108767,0.56416 -3e-6,0.19556 -0.03387,0.37676 -0.108767,0.56416 -0.06742,0.17926 -0.17019,0.35986 -0.29004,0.53098 -0.112362,0.17111 -0.2415,0.32667 -0.398805,0.49775 -0.14982,0.1712 -0.306519,0.3518 -0.471314,0.531 -0.202256,0.22 -0.406594,0.4606 -0.616335,0.6969 -0.202255,0.2282 -0.379028,0.4695 -0.543826,0.7302 -0.164799,0.2607 -0.293934,0.5363 -0.398804,0.8296 -0.104878,0.2934 -0.181277,0.6202 -0.181275,0.9625 l 0,0.1327 c -2e-6,0.04 0.02876,0.058 0.03626,0.1 l 4.205578,0 0,-0.8628 -3.226693,0 c -2e-6,-0.1221 0.05513,-0.2603 0.145019,-0.4314 0.08989,-0.171 0.191459,-0.3517 0.326295,-0.5309 0.134833,-0.1793 0.285241,-0.3267 0.43506,-0.4979 0.149814,-0.1711 0.286439,-0.3425 0.398806,-0.4647 0.202249,-0.2199 0.421569,-0.4355 0.616334,-0.6637 0.194758,-0.2281 0.357749,-0.4606 0.50757,-0.69688 0.157303,-0.23629 0.272655,-0.48565 0.36255,-0.73009 0.09737,-0.24443 0.145015,-0.50253 0.145019,-0.76327 -4e-6,-0.67629 -0.19176,-1.16803 -0.543824,-1.52655 -0.344582,-0.36666 -0.868612,-0.56416 -1.59522,-0.56416 z m 17.076097,0 c -0.726613,0 -1.29948,0.34433 -1.703984,1.02876 -0.397014,0.67629 -0.580079,1.64926 -0.580079,2.92034 0,1.2712 0.183065,2.2359 0.580079,2.9204 0.404504,0.6763 0.977371,1.0288 1.703984,1.0288 0.734099,0 1.306966,-0.3525 1.703984,-1.0288 0.39701,-0.6845 0.580075,-1.6492 0.58008,-2.9204 -5e-6,-1.27108 -0.18307,-2.24405 -0.58008,-2.92034 -0.397018,-0.68443 -0.969885,-1.02876 -1.703984,-1.02876 z m 11.239045,0 c -0.726614,0 -1.29948,0.34433 -1.703984,1.02876 -0.397016,0.67629 -0.580081,1.64926 -0.580081,2.92034 0,1.2712 0.183065,2.2359 0.580081,2.9204 0.404504,0.6763 0.97737,1.0288 1.703984,1.0288 0.734099,0 1.306966,-0.3525 1.703984,-1.0288 0.39701,-0.6845 0.580075,-1.6492 0.580079,-2.9204 -4e-6,-1.27108 -0.183069,-2.24405 -0.580079,-2.92034 -0.397018,-0.68443 -0.969885,-1.02876 -1.703984,-1.02876 z m 11.239045,0 c -0.726614,0 -1.299482,0.34433 -1.703985,1.02876 -0.397015,0.67629 -0.58008,1.64926 -0.58008,2.92034 0,1.2712 0.183065,2.2359 0.58008,2.9204 0.404503,0.6763 0.977371,1.0288 1.703985,1.0288 0.734099,0 1.306966,-0.3525 1.703984,-1.0288 0.39701,-0.6845 0.580075,-1.6492 0.580079,-2.9204 -4e-6,-1.27108 -0.183069,-2.24405 -0.580079,-2.92034 -0.397018,-0.68443 -0.969885,-1.02876 -1.703984,-1.02876 z m 4.713147,0.0995 c -0.142326,0.009 -0.314009,0.0501 -0.471314,0.0664 -0.149819,0.008 -0.285244,0.008 -0.43506,0.0331 -0.142327,0.0244 -0.286444,0.067 -0.398805,0.0995 l 0,7.3341 c 0.112361,0.033 0.248988,0.041 0.398805,0.066 0.149816,0.024 0.321496,0.058 0.471315,0.066 0.149814,0.016 0.285242,0.026 0.435059,0.033 0.149815,0.011 0.28644,0 0.398805,0 0.966316,0 1.660826,-0.1812 2.102789,-0.5641 0.441955,-0.383 0.652586,-0.9429 0.65259,-1.6925 -4e-6,-0.4889 -0.100377,-0.8932 -0.36255,-1.1947 -0.254694,-0.3096 -0.596856,-0.5164 -0.978885,-0.63052 0.142323,-0.057 0.278948,-0.15956 0.398805,-0.26549 0.12734,-0.11408 0.2364,-0.21838 0.326295,-0.36505 0.09737,-0.14666 0.16509,-0.30163 0.21753,-0.4646 0.05243,-0.17111 0.07251,-0.35172 0.07251,-0.53097 -4e-6,-0.37481 -0.05394,-0.7098 -0.181274,-0.96239 -0.119859,-0.25259 -0.282851,-0.44253 -0.507571,-0.59735 -0.217239,-0.15481 -0.49798,-0.26667 -0.797609,-0.33186 -0.299637,-0.0652 -0.598054,-0.0995 -0.94263,-0.0995 -0.119856,0 -0.24899,-0.009 -0.398805,0 z m 8.266137,0.0331 c -0.614254,0.008 -1.144574,0.12816 -1.631475,0.33186 -0.486907,0.2037 -0.924347,0.47987 -1.268924,0.86283 -0.337089,0.38296 -0.574085,0.85663 -0.761355,1.42699 -0.179781,0.56222 -0.290041,1.22462 -0.29004,1.95802 -10e-7,1.0022 0.198047,1.794 0.58008,2.3562 0.382031,0.5623 0.968681,0.8297 1.740239,0.8297 0.374538,0 0.672956,-0.086 0.94263,-0.2324 0.269665,-0.1547 0.51655,-0.3278 0.688845,-0.5641 0.172283,-0.2444 0.280145,-0.5113 0.36255,-0.7964 0.0824,-0.2933 0.145014,-0.5858 0.145019,-0.8629 -5e-6,-0.3015 -0.03387,-0.5778 -0.108768,-0.8629 -0.07491,-0.2852 -0.197756,-0.5514 -0.36255,-0.7633 -0.164803,-0.21996 -0.411688,-0.40057 -0.688845,-0.53094 -0.269673,-0.13037 -0.589364,-0.19912 -0.978884,-0.19912 -0.23971,0 -0.471613,0.0425 -0.688844,0.0995 -0.209746,0.057 -0.400302,0.14267 -0.58008,0.2323 0.08989,-0.44 0.226514,-0.82685 0.398804,-1.12832 0.172288,-0.30148 0.3979,-0.54268 0.65259,-0.73009 0.254685,-0.19555 0.511756,-0.34994 0.833864,-0.43142 0.329594,-0.0896 0.726886,-0.12459 1.123906,-0.13274 l -0.108768,-0.86284 z m -42.853391,0.0331 0,7.5664 0.906375,0 0,-3.4845 2.682869,0 0,-0.86287 -2.682869,0 0,-2.3562 3.045418,0 0,-0.86283 -3.951793,0 z m 11.239045,0 0,7.5664 0.906375,0 0,-3.4845 2.682868,0 0,-0.86287 -2.682868,0 0,-2.3562 3.045418,0 0,-0.86283 -3.951793,0 z m 11.239045,0 0,7.5664 0.906374,0 0,-3.4845 2.682869,0 0,-0.86287 -2.682869,0 0,-2.3562 3.045419,0 0,-0.86283 -3.951793,0 z m -48.799209,0.73009 c 0.254685,0 0.480297,0.0693 0.65259,0.2323 0.172287,0.16297 0.330186,0.38669 0.435061,0.66372 0.104867,0.27704 0.17258,0.62077 0.217529,0.99557 0.04494,0.36667 0.07251,0.74596 0.07251,1.16152 -5e-6,0.4155 -0.02756,0.8199 -0.07251,1.1946 -0.04495,0.3668 -0.112663,0.6855 -0.217529,0.9625 -0.104879,0.2771 -0.262774,0.5007 -0.435061,0.6638 -0.172293,0.163 -0.397905,0.2322 -0.65259,0.2322 -0.25469,0 -0.444047,-0.069 -0.616334,-0.2322 -0.172291,-0.1631 -0.33019,-0.3867 -0.43506,-0.6638 -0.104878,-0.277 -0.172587,-0.5957 -0.21753,-0.9625 -0.04495,-0.3747 -0.07251,-0.7791 -0.07251,-1.1946 -10e-7,-0.41556 0.02756,-0.79485 0.07251,-1.16152 0.04494,-0.3748 0.112652,-0.71853 0.21753,-0.99557 0.104868,-0.27703 0.262769,-0.50075 0.43506,-0.66372 0.172287,-0.16296 0.361644,-0.2323 0.616334,-0.2323 z m 11.239046,0 c 0.254685,0 0.480297,0.0693 0.65259,0.2323 0.172286,0.16297 0.330186,0.38669 0.435061,0.66372 0.104867,0.27704 0.17258,0.62077 0.217529,0.99557 0.04495,0.36667 0.07251,0.74596 0.07251,1.16152 -5e-6,0.4155 -0.02756,0.8199 -0.07251,1.1946 -0.04494,0.3668 -0.112663,0.6855 -0.217529,0.9625 -0.104879,0.2771 -0.262775,0.5007 -0.435061,0.6638 -0.172293,0.163 -0.397905,0.2322 -0.65259,0.2322 -0.25469,0 -0.444047,-0.069 -0.616334,-0.2322 -0.172292,-0.1631 -0.33019,-0.3867 -0.43506,-0.6638 -0.104878,-0.277 -0.172587,-0.5957 -0.21753,-0.9625 -0.04495,-0.3747 -0.07251,-0.7791 -0.07251,-1.1946 -1e-6,-0.41556 0.02756,-0.79485 0.07251,-1.16152 0.04494,-0.3748 0.112652,-0.71853 0.21753,-0.99557 0.104868,-0.27703 0.262768,-0.50075 0.43506,-0.66372 0.172287,-0.16296 0.361644,-0.2323 0.616334,-0.2323 z m 22.47809,0 c 0.254685,0 0.480297,0.0693 0.65259,0.2323 0.172285,0.16297 0.29393,0.38669 0.398805,0.66372 0.104867,0.27704 0.208836,0.62077 0.253785,0.99557 0.04494,0.36667 0.03626,0.74596 0.03626,1.16152 -5e-6,0.4155 0.0087,0.8199 -0.03626,1.1946 -0.04494,0.3668 -0.148918,0.6855 -0.253785,0.9625 -0.104878,0.2771 -0.22652,0.5007 -0.398805,0.6638 -0.172293,0.163 -0.397905,0.2322 -0.65259,0.2322 -0.254691,0 -0.444047,-0.069 -0.616335,-0.2322 -0.172292,-0.1631 -0.330189,-0.3867 -0.43506,-0.6638 -0.104878,-0.277 -0.172586,-0.5957 -0.21753,-0.9625 -0.04494,-0.3747 -0.07251,-0.7791 -0.07251,-1.1946 -10e-7,-0.41556 0.02756,-0.79485 0.07251,-1.16152 0.04495,-0.3748 0.112652,-0.71853 0.21753,-0.99557 0.104867,-0.27703 0.262768,-0.50075 0.43506,-0.66372 0.172288,-0.16296 0.361644,-0.2323 0.616335,-0.2323 z m 11.239045,0 c 0.254685,0 0.480297,0.0693 0.65259,0.2323 0.172285,0.16297 0.29393,0.38669 0.398804,0.66372 0.104867,0.27704 0.208835,0.62077 0.253786,0.99557 0.04494,0.36667 0.03625,0.74596 0.03625,1.16152 -4e-6,0.4155 0.0087,0.8199 -0.03625,1.1946 -0.04494,0.3668 -0.148918,0.6855 -0.253786,0.9625 -0.104878,0.2771 -0.226519,0.5007 -0.398804,0.6638 -0.172293,0.163 -0.397905,0.2322 -0.65259,0.2322 -0.254692,0 -0.444048,-0.069 -0.616335,-0.2322 -0.172292,-0.1631 -0.330189,-0.3867 -0.43506,-0.6638 -0.104878,-0.277 -0.172586,-0.5957 -0.21753,-0.9625 -0.04494,-0.3747 -0.07251,-0.7791 -0.07251,-1.1946 -1e-6,-0.41556 0.02756,-0.79485 0.07251,-1.16152 0.04494,-0.3748 0.112652,-0.71853 0.21753,-0.99557 0.104867,-0.27703 0.262768,-0.50075 0.43506,-0.66372 0.172287,-0.16296 0.361643,-0.2323 0.616335,-0.2323 z m 11.239045,0 c 0.254685,0 0.480296,0.0693 0.65259,0.2323 0.172285,0.16297 0.293929,0.38669 0.398804,0.66372 0.104867,0.27704 0.172581,0.62077 0.21753,0.99557 0.04495,0.36667 0.07251,0.74596 0.07251,1.16152 -4e-6,0.4155 -0.02756,0.8199 -0.07251,1.1946 -0.04494,0.3668 -0.112663,0.6855 -0.21753,0.9625 -0.104879,0.2771 -0.226519,0.5007 -0.398804,0.6638 -0.172294,0.163 -0.397905,0.2322 -0.65259,0.2322 -0.254692,0 -0.480303,-0.069 -0.65259,-0.2322 -0.172292,-0.1631 -0.293935,-0.3867 -0.398805,-0.6638 -0.104879,-0.277 -0.172586,-0.5957 -0.21753,-0.9625 -0.04494,-0.3747 -0.07251,-0.7791 -0.07251,-1.1946 -10e-7,-0.41556 0.02756,-0.79485 0.07251,-1.16152 0.04494,-0.3748 0.112651,-0.71853 0.21753,-0.99557 0.104867,-0.27703 0.226513,-0.50075 0.398805,-0.66372 0.172287,-0.16296 0.397898,-0.2323 0.65259,-0.2323 z m 4.640638,0.0664 c 0.149814,-0.008 0.312805,0 0.507569,0 0.194759,0 0.407788,0.0256 0.58008,0.0664 0.179777,0.0408 0.336477,0.10131 0.471314,0.19912 0.134832,0.0978 0.243893,0.21023 0.326295,0.36504 0.0824,0.15482 0.108768,0.34417 0.108768,0.56416 -3e-6,0.2363 -0.05513,0.44254 -0.145021,0.59735 -0.08989,0.15481 -0.212735,0.27542 -0.362549,0.36504 -0.149819,0.0896 -0.320301,0.15838 -0.50757,0.19912 -0.187273,0.0408 -0.356556,0.0664 -0.543825,0.0664 l -0.7251,0 0,-2.38938 c 0.05992,-0.0163 0.147714,-0.0331 0.290041,-0.0331 z m -57.609169,1.09514 1.885258,2.68807 c -0.34458,0.4645 -0.691835,0.9719 -1.051394,1.4934 -0.35207,0.5133 -0.659178,1.0045 -0.906375,1.4933 l 0.94263,0 c 0.0824,-0.1547 0.20644,-0.3354 0.326295,-0.531 0.119851,-0.1955 0.227713,-0.3935 0.362549,-0.5973 0.142324,-0.2118 0.285241,-0.3936 0.43506,-0.5974 0.149815,-0.2037 0.300222,-0.4099 0.435061,-0.5973 0.134831,0.1793 0.263965,0.3605 0.398804,0.5642 0.142323,0.2037 0.271457,0.4187 0.398805,0.6305 0.127339,0.2038 0.257674,0.4018 0.36255,0.5973 0.11236,0.1956 0.215127,0.3681 0.29004,0.531 l 1.015138,0 c -0.239711,-0.5052 -0.525545,-1.005 -0.870119,-1.5266 -0.337091,-0.5214 -0.678055,-1.0125 -1.015139,-1.4933 l 1.740239,-2.65487 -1.01514,0 -1.268924,1.99117 -1.413944,-1.99117 -1.051394,0 z m -3.190439,0.96239 c -0.194765,0 -0.351464,0.0693 -0.471315,0.2323 -0.119856,0.16296 -0.181278,0.35231 -0.181275,0.56418 -3e-6,0.2118 0.06142,0.4093 0.181275,0.5641 0.119851,0.1549 0.27655,0.2323 0.471315,0.2323 0.187268,0 0.358949,-0.077 0.471315,-0.2323 0.11985,-0.1548 0.145016,-0.3523 0.145019,-0.5641 -3e-6,-0.21187 -0.02517,-0.40122 -0.145019,-0.56418 -0.112362,-0.16296 -0.284047,-0.2323 -0.471315,-0.2323 z m 11.239045,0 c -0.194764,0 -0.351463,0.0693 -0.471314,0.2323 -0.119856,0.16296 -0.181278,0.35231 -0.181275,0.56418 -3e-6,0.2118 0.06142,0.4093 0.181275,0.5641 0.119851,0.1549 0.27655,0.2323 0.471314,0.2323 0.187268,0 0.322695,-0.077 0.435061,-0.2323 0.119849,-0.1548 0.181271,-0.3523 0.181274,-0.5641 -3e-6,-0.21187 -0.06143,-0.40122 -0.181274,-0.56418 -0.112362,-0.16296 -0.247793,-0.2323 -0.435061,-0.2323 z m 22.47809,0 c -0.194764,0 -0.351463,0.0693 -0.471315,0.2323 -0.119855,0.16296 -0.181277,0.35231 -0.181275,0.56418 -2e-6,0.2118 0.06142,0.4093 0.181275,0.5641 0.119852,0.1549 0.276551,0.2323 0.471315,0.2323 0.187268,0 0.322694,-0.077 0.435059,-0.2323 0.119851,-0.1548 0.181273,-0.3523 0.181276,-0.5641 -3e-6,-0.21187 -0.06143,-0.40122 -0.181276,-0.56418 -0.11236,-0.16296 -0.247791,-0.2323 -0.435059,-0.2323 z m 11.239045,0 c -0.194764,0 -0.351463,0.0693 -0.471315,0.2323 -0.119857,0.16296 -0.181277,0.35231 -0.181275,0.56418 -2e-6,0.2118 0.06142,0.4093 0.181275,0.5641 0.119852,0.1549 0.276551,0.2323 0.471315,0.2323 0.187268,0 0.322693,-0.077 0.435059,-0.2323 0.119851,-0.1548 0.181273,-0.3523 0.181276,-0.5641 -3e-6,-0.21187 -0.06143,-0.40122 -0.181276,-0.56418 -0.11236,-0.16296 -0.247791,-0.2323 -0.435059,-0.2323 z m 11.239045,0 c -0.194765,0 -0.351464,0.0693 -0.471315,0.2323 -0.119857,0.16296 -0.181277,0.35231 -0.181275,0.56418 -2e-6,0.2118 0.06142,0.4093 0.181275,0.5641 0.119851,0.1549 0.27655,0.2323 0.471315,0.2323 0.187268,0 0.322693,-0.077 0.435059,-0.2323 0.119851,-0.1548 0.181271,-0.3523 0.181276,-0.5641 -5e-6,-0.21187 -0.06142,-0.40122 -0.181276,-0.56418 -0.112361,-0.16296 -0.247791,-0.2323 -0.435059,-0.2323 z m 11.20279,0.89598 c 0.441956,0 0.776628,0.1375 0.978884,0.3983 0.20974,0.2607 0.32629,0.6313 0.326294,1.1283 -4e-6,0.1711 -0.02756,0.3686 -0.07251,0.5641 -0.03746,0.1875 -0.120153,0.343 -0.21753,0.4979 -0.09738,0.1548 -0.212737,0.2923 -0.362549,0.3982 -0.149821,0.098 -0.319104,0.1659 -0.543826,0.1659 -0.269673,0 -0.516557,-0.077 -0.688844,-0.1991 -0.172292,-0.1303 -0.293934,-0.2859 -0.398805,-0.4978 -0.09738,-0.22 -0.172586,-0.4862 -0.21753,-0.7633 -0.03746,-0.2851 -0.07251,-0.5783 -0.07251,-0.896 l 0,-0.2323 c -10e-7,-0.082 0.02877,-0.184 0.03626,-0.2655 0.20225,-0.098 0.385315,-0.1502 0.580079,-0.1991 0.202251,-0.049 0.41288,-0.1 0.65259,-0.1 z m -6.888448,0.2987 0.94263,0 c 0.217232,0 0.41408,0.018 0.616335,0.066 0.20225,0.041 0.394004,0.1264 0.543825,0.2323 0.157303,0.098 0.272655,0.2271 0.362549,0.3982 0.09737,0.1711 0.145016,0.378 0.145021,0.6305 -5e-6,0.2853 -0.04015,0.5177 -0.145021,0.697 -0.09738,0.1792 -0.23401,0.3173 -0.398804,0.4313 -0.164802,0.1062 -0.362849,0.1916 -0.58008,0.2324 -0.209746,0.04 -0.420377,0.066 -0.652589,0.066 -0.23222,0 -0.422775,-0.025 -0.58008,-0.033 -0.149819,-0.016 -0.238806,-0.025 -0.253786,-0.033 l 0,-2.6881 z m -60.545823,6.9027 c -0.726613,10e-5 -1.263225,0.3443 -1.667728,1.0288 -0.397015,0.6762 -0.616335,1.6493 -0.616335,2.9203 0,1.2712 0.21932,2.236 0.616335,2.9204 0.404503,0.6762 0.941115,1.0287 1.667728,1.0287 0.734099,0 1.306966,-0.3525 1.703985,-1.0287 0.397009,-0.6844 0.61633,-1.6492 0.616335,-2.9204 -5e-6,-1.271 -0.219326,-2.2441 -0.616335,-2.9203 -0.397019,-0.6845 -0.969886,-1.0287 -1.703985,-1.0288 z m 11.239046,0 c -0.726613,10e-5 -1.263225,0.3443 -1.667729,1.0288 -0.397015,0.6762 -0.616335,1.6493 -0.616335,2.9203 0,1.2712 0.21932,2.236 0.616335,2.9204 0.404504,0.6762 0.941116,1.0287 1.667729,1.0287 0.734099,0 1.306966,-0.3525 1.703985,-1.0287 0.397009,-0.6844 0.61633,-1.6492 0.616335,-2.9204 -5e-6,-1.271 -0.219326,-2.2441 -0.616335,-2.9203 -0.397019,-0.6845 -0.969886,-1.0287 -1.703985,-1.0288 z m 5.401993,0 c -0.389526,10e-5 -0.765545,0.061 -1.087649,0.1991 -0.314617,0.1304 -0.531538,0.2761 -0.688845,0.3982 l 0.36255,0.7633 c 0.149816,-0.1062 0.319098,-0.2009 0.543824,-0.2987 0.224724,-0.1062 0.511757,-0.1659 0.833865,-0.1659 0.314613,0 0.601646,0.086 0.833865,0.2655 0.239703,0.1711 0.326291,0.4473 0.326295,0.8628 -4e-6,0.2527 -0.01888,0.4676 -0.108768,0.6305 -0.08989,0.163 -0.212735,0.3006 -0.36255,0.3983 -0.142329,0.09 -0.291537,0.1584 -0.471314,0.1991 -0.172292,0.033 -0.342774,0.033 -0.50757,0.033 l -0.326295,0 0,0.8296 0.21753,0 c 0.247195,10e-5 0.500372,0.017 0.725099,0.066 0.224723,0.049 0.407788,0.1515 0.58008,0.2655 0.172287,0.1142 0.330185,0.244 0.43506,0.4315 0.104868,0.1874 0.145016,0.4199 0.145021,0.6968 -5e-6,0.4319 -0.144121,0.8013 -0.398805,1.062 -0.247202,0.2526 -0.640898,0.3651 -1.23267,0.3651 -0.382034,0 -0.716708,-0.044 -0.978885,-0.1328 -0.26218,-0.089 -0.460226,-0.1671 -0.580079,-0.2323 l -0.181275,0.8628 c 0.05244,0.024 0.133931,0.051 0.253785,0.1 0.127344,0.04 0.277751,0.092 0.435059,0.1328 0.157306,0.049 0.327788,0.075 0.50757,0.1 0.187269,0.033 0.371533,0.066 0.543825,0.066 0.449447,0 0.838051,-0.052 1.160159,-0.1658 0.329593,-0.1141 0.595354,-0.2941 0.79761,-0.4979 0.20974,-0.2037 0.373929,-0.4198 0.471315,-0.6968 0.104867,-0.2852 0.145015,-0.6033 0.145019,-0.9292 -4e-6,-0.546 -0.13663,-0.9683 -0.398804,-1.2943 -0.262184,-0.334 -0.583073,-0.5828 -0.942629,-0.6969 0.299629,-0.1466 0.537824,-0.3535 0.725099,-0.6306 0.194757,-0.2769 0.32629,-0.5962 0.326294,-0.9955 -4e-6,-0.2852 -0.06262,-0.5601 -0.145019,-0.7965 -0.08241,-0.2444 -0.190266,-0.4512 -0.36255,-0.6305 -0.164803,-0.1792 -0.390415,-0.3336 -0.65259,-0.4315 -0.262181,-0.098 -0.575582,-0.1326 -0.94263,-0.1327 z m 17.076097,0 c -0.726613,10e-5 -1.29948,0.3443 -1.703984,1.0288 -0.397014,0.6762 -0.580079,1.6493 -0.580079,2.9203 0,1.2712 0.183065,2.236 0.580079,2.9204 0.404504,0.6762 0.977371,1.0287 1.703984,1.0287 0.734099,0 1.306966,-0.3525 1.703984,-1.0287 0.39701,-0.6844 0.580075,-1.6492 0.58008,-2.9204 -5e-6,-1.271 -0.18307,-2.2441 -0.58008,-2.9203 -0.397018,-0.6845 -0.969885,-1.0287 -1.703984,-1.0288 z m 11.239045,0 c -0.726614,10e-5 -1.29948,0.3443 -1.703984,1.0288 -0.397016,0.6762 -0.580081,1.6493 -0.580081,2.9203 0,1.2712 0.183065,2.236 0.580081,2.9204 0.404504,0.6762 0.97737,1.0287 1.703984,1.0287 0.734099,0 1.306966,-0.3525 1.703984,-1.0287 0.39701,-0.6844 0.580075,-1.6492 0.580079,-2.9204 -4e-6,-1.271 -0.183069,-2.2441 -0.580079,-2.9203 -0.397018,-0.6845 -0.969885,-1.0287 -1.703984,-1.0288 z m 11.239045,0 c -0.726614,10e-5 -1.299482,0.3443 -1.703985,1.0288 -0.397015,0.6762 -0.58008,1.6493 -0.58008,2.9203 0,1.2712 0.183065,2.236 0.58008,2.9204 0.404503,0.6762 0.977371,1.0287 1.703985,1.0287 0.734099,0 1.306966,-0.3525 1.703984,-1.0287 0.39701,-0.6844 0.580075,-1.6492 0.580079,-2.9204 -4e-6,-1.271 -0.183069,-2.2441 -0.580079,-2.9203 -0.397018,-0.6845 -0.969885,-1.0287 -1.703984,-1.0288 z m 4.713147,0.1 c -0.142326,0.011 -0.314009,0.017 -0.471314,0.033 -0.149819,0.011 -0.285244,0.041 -0.43506,0.066 -0.142327,0.025 -0.286444,0.034 -0.398805,0.066 l 0,7.3341 c 0.112361,0.033 0.248988,0.075 0.398805,0.1 0.149816,0.024 0.321496,0.025 0.471315,0.033 0.149814,0.016 0.285242,0.058 0.435059,0.066 0.149815,0.011 0.28644,0 0.398805,0 0.966316,0 1.660826,-0.1812 2.102789,-0.5642 0.441955,-0.383 0.652586,-0.9761 0.65259,-1.7257 -4e-6,-0.4888 -0.100377,-0.8599 -0.36255,-1.1614 -0.254694,-0.3097 -0.596856,-0.5165 -0.978885,-0.6306 0.142323,-0.057 0.278948,-0.1595 0.398805,-0.2655 0.12734,-0.1141 0.2364,-0.2515 0.326295,-0.3982 0.09737,-0.1467 0.16509,-0.3016 0.21753,-0.4646 0.05243,-0.1711 0.07251,-0.3185 0.07251,-0.4978 -4e-6,-0.3747 -0.05394,-0.7098 -0.181274,-0.9624 -0.119859,-0.2525 -0.282851,-0.4425 -0.507571,-0.5974 -0.217239,-0.1547 -0.49798,-0.2666 -0.797609,-0.3318 -0.299637,-0.065 -0.598054,-0.1 -0.94263,-0.1 -0.119856,0 -0.24899,-0.011 -0.398805,0 z m 8.266137,0.033 c -0.614254,0.011 -1.144574,0.1282 -1.631475,0.3319 -0.486907,0.2037 -0.924347,0.4799 -1.268924,0.8628 -0.337089,0.383 -0.574085,0.8567 -0.761355,1.427 -0.179781,0.5622 -0.290041,1.2247 -0.29004,1.958 -10e-7,1.0022 0.198047,1.7608 0.58008,2.323 0.382031,0.5623 0.968681,0.8628 1.740239,0.8628 0.374538,0 0.672956,-0.086 0.94263,-0.2323 0.269665,-0.1548 0.51655,-0.3278 0.688845,-0.5642 0.172283,-0.2443 0.280145,-0.5112 0.36255,-0.7964 0.0824,-0.2933 0.145014,-0.5858 0.145019,-0.8629 -5e-6,-0.3013 -0.03387,-0.6108 -0.108768,-0.8959 -0.07491,-0.2852 -0.197756,-0.5183 -0.36255,-0.7301 -0.164803,-0.2201 -0.411688,-0.4006 -0.688845,-0.531 -0.269673,-0.1304 -0.589364,-0.1991 -0.978884,-0.1991 -0.23971,0 -0.471613,0.043 -0.688844,0.1 -0.209746,0.057 -0.400302,0.1096 -0.58008,0.1991 0.08989,-0.4399 0.226514,-0.7936 0.398804,-1.095 0.172288,-0.3015 0.3979,-0.5427 0.65259,-0.7301 0.254685,-0.1955 0.511756,-0.3499 0.833864,-0.4315 0.329594,-0.089 0.726886,-0.1246 1.123906,-0.1327 l -0.108768,-0.8629 z m -42.853391,0.033 0,7.5664 0.906375,0 0,-3.5177 2.682869,0 0,-0.8297 -2.682869,0 0,-2.3561 3.045418,0 0,-0.8629 -3.951793,0 z m 11.239045,0 0,7.5664 0.906375,0 0,-3.5177 2.682868,0 0,-0.8297 -2.682868,0 0,-2.3561 3.045418,0 0,-0.8629 -3.951793,0 z m 11.239045,0 0,7.5664 0.906374,0 0,-3.5177 2.682869,0 0,-0.8297 -2.682869,0 0,-2.3561 3.045419,0 0,-0.8629 -3.951793,0 z m -48.799209,0.7301 c 0.254685,0 0.480297,0.069 0.65259,0.2323 0.172287,0.163 0.330186,0.3867 0.435061,0.6637 0.104867,0.277 0.17258,0.6208 0.217529,0.9956 0.04494,0.3666 0.07251,0.746 0.07251,1.1615 -5e-6,0.4155 -0.02756,0.8199 -0.07251,1.1947 -0.04495,0.3667 -0.112663,0.6854 -0.217529,0.9623 -0.104879,0.2771 -0.262774,0.5009 -0.435061,0.6638 -0.172293,0.163 -0.397905,0.2323 -0.65259,0.2323 -0.25469,0 -0.444047,-0.069 -0.616334,-0.2323 -0.172291,-0.1629 -0.33019,-0.3867 -0.43506,-0.6638 -0.104878,-0.2769 -0.172587,-0.5956 -0.21753,-0.9623 -0.04495,-0.3748 -0.07251,-0.7792 -0.07251,-1.1947 -10e-7,-0.4155 0.02756,-0.7949 0.07251,-1.1615 0.04494,-0.3748 0.112652,-0.7186 0.21753,-0.9956 0.104868,-0.277 0.262769,-0.5007 0.43506,-0.6637 0.172287,-0.1629 0.361644,-0.2323 0.616334,-0.2323 z m 11.239046,0 c 0.254685,0 0.480297,0.069 0.65259,0.2323 0.172286,0.163 0.330186,0.3867 0.435061,0.6637 0.104867,0.277 0.17258,0.6208 0.217529,0.9956 0.04495,0.3666 0.07251,0.746 0.07251,1.1615 -5e-6,0.4155 -0.02756,0.8199 -0.07251,1.1947 -0.04494,0.3667 -0.112663,0.6854 -0.217529,0.9623 -0.104879,0.2771 -0.262775,0.5009 -0.435061,0.6638 -0.172293,0.163 -0.397905,0.2323 -0.65259,0.2323 -0.25469,0 -0.444047,-0.069 -0.616334,-0.2323 -0.172292,-0.1629 -0.33019,-0.3867 -0.43506,-0.6638 -0.104878,-0.2769 -0.172587,-0.5956 -0.21753,-0.9623 -0.04495,-0.3748 -0.07251,-0.7792 -0.07251,-1.1947 -1e-6,-0.4155 0.02756,-0.7949 0.07251,-1.1615 0.04494,-0.3748 0.112652,-0.7186 0.21753,-0.9956 0.104868,-0.277 0.262768,-0.5007 0.43506,-0.6637 0.172287,-0.1629 0.361644,-0.2323 0.616334,-0.2323 z m 22.47809,0 c 0.254685,0 0.480297,0.069 0.65259,0.2323 0.172285,0.163 0.29393,0.3867 0.398805,0.6637 0.104867,0.277 0.208836,0.6208 0.253785,0.9956 0.04494,0.3666 0.03626,0.746 0.03626,1.1615 -5e-6,0.4155 0.0087,0.8199 -0.03626,1.1947 -0.04494,0.3667 -0.148918,0.6854 -0.253785,0.9623 -0.104878,0.2771 -0.22652,0.5009 -0.398805,0.6638 -0.172293,0.163 -0.397905,0.2323 -0.65259,0.2323 -0.254691,0 -0.444047,-0.069 -0.616335,-0.2323 -0.172292,-0.1629 -0.330189,-0.3867 -0.43506,-0.6638 -0.104878,-0.2769 -0.172586,-0.5956 -0.21753,-0.9623 -0.04494,-0.3748 -0.07251,-0.7792 -0.07251,-1.1947 -10e-7,-0.4155 0.02756,-0.7949 0.07251,-1.1615 0.04495,-0.3748 0.112652,-0.7186 0.21753,-0.9956 0.104867,-0.277 0.262768,-0.5007 0.43506,-0.6637 0.172288,-0.1629 0.361644,-0.2323 0.616335,-0.2323 z m 11.239045,0 c 0.254685,0 0.480297,0.069 0.65259,0.2323 0.172285,0.163 0.29393,0.3867 0.398804,0.6637 0.104867,0.277 0.208835,0.6208 0.253786,0.9956 0.04494,0.3666 0.03625,0.746 0.03625,1.1615 -4e-6,0.4155 0.0087,0.8199 -0.03625,1.1947 -0.04494,0.3667 -0.148918,0.6854 -0.253786,0.9623 -0.104878,0.2771 -0.226519,0.5009 -0.398804,0.6638 -0.172293,0.163 -0.397905,0.2323 -0.65259,0.2323 -0.254692,0 -0.444048,-0.069 -0.616335,-0.2323 -0.172292,-0.1629 -0.330189,-0.3867 -0.43506,-0.6638 -0.104878,-0.2769 -0.172586,-0.5956 -0.21753,-0.9623 -0.04494,-0.3748 -0.07251,-0.7792 -0.07251,-1.1947 -1e-6,-0.4155 0.02756,-0.7949 0.07251,-1.1615 0.04494,-0.3748 0.112652,-0.7186 0.21753,-0.9956 0.104867,-0.277 0.262768,-0.5007 0.43506,-0.6637 0.172287,-0.1629 0.361643,-0.2323 0.616335,-0.2323 z m 11.239045,0 c 0.254685,0 0.480296,0.069 0.65259,0.2323 0.172285,0.163 0.293929,0.3867 0.398804,0.6637 0.104867,0.277 0.172581,0.6208 0.21753,0.9956 0.04495,0.3666 0.07251,0.746 0.07251,1.1615 -4e-6,0.4155 -0.02756,0.8199 -0.07251,1.1947 -0.04494,0.3667 -0.112663,0.6854 -0.21753,0.9623 -0.104879,0.2771 -0.226519,0.5009 -0.398804,0.6638 -0.172294,0.163 -0.397905,0.2323 -0.65259,0.2323 -0.254692,0 -0.480303,-0.069 -0.65259,-0.2323 -0.172292,-0.1629 -0.293935,-0.3867 -0.398805,-0.6638 -0.104879,-0.2769 -0.172586,-0.5956 -0.21753,-0.9623 -0.04494,-0.3748 -0.07251,-0.7792 -0.07251,-1.1947 -10e-7,-0.4155 0.02756,-0.7949 0.07251,-1.1615 0.04494,-0.3748 0.112651,-0.7186 0.21753,-0.9956 0.104867,-0.277 0.226513,-0.5007 0.398805,-0.6637 0.172287,-0.1629 0.397898,-0.2323 0.65259,-0.2323 z m 4.640638,0.066 c 0.149814,-0.011 0.312805,0 0.507569,0 0.194759,0 0.407788,0.025 0.58008,0.066 0.179777,0.04 0.336477,0.1009 0.471314,0.1991 0.134832,0.098 0.243893,0.2103 0.326295,0.365 0.0824,0.1548 0.108768,0.3442 0.108768,0.5642 -3e-6,0.2363 -0.05513,0.4425 -0.145021,0.5974 -0.08989,0.1548 -0.212735,0.2754 -0.362549,0.3649 -0.149819,0.09 -0.320301,0.1585 -0.50757,0.1992 -0.187273,0.04 -0.356556,0.067 -0.543825,0.066 l -0.7251,0 0,-2.3894 c 0.05992,-0.016 0.147714,-0.033 0.290041,-0.033 z m -57.609169,1.0951 1.885258,2.6881 c -0.34458,0.4644 -0.691835,0.9719 -1.051394,1.4934 -0.35207,0.5133 -0.659178,1.0044 -0.906375,1.4934 l 0.94263,0 c 0.0824,-0.1549 0.20644,-0.3355 0.326295,-0.531 0.119851,-0.1955 0.227713,-0.3937 0.362549,-0.5974 0.142324,-0.2118 0.285241,-0.4267 0.43506,-0.6305 0.149815,-0.2037 0.300222,-0.3767 0.435061,-0.5641 0.134831,0.1792 0.263965,0.3604 0.398804,0.5641 0.142323,0.2038 0.271457,0.4187 0.398805,0.6305 0.127339,0.2037 0.257674,0.4019 0.36255,0.5974 0.11236,0.1955 0.215127,0.368 0.29004,0.531 l 1.015138,0 c -0.239711,-0.5052 -0.525545,-1.0051 -0.870119,-1.5266 -0.337091,-0.5215 -0.678055,-1.0458 -1.015139,-1.5265 l 1.740239,-2.6218 -1.01514,0 -1.268924,1.9912 -1.413944,-1.9912 -1.051394,0 z m -3.190439,0.9625 c -0.194765,0 -0.351464,0.069 -0.471315,0.2322 -0.119856,0.163 -0.181278,0.3524 -0.181275,0.5642 -3e-6,0.2119 0.06142,0.3762 0.181275,0.531 0.119851,0.1548 0.27655,0.2324 0.471315,0.2323 0.187268,10e-5 0.358949,-0.078 0.471315,-0.2323 0.11985,-0.1548 0.145016,-0.3191 0.145019,-0.531 -3e-6,-0.2118 -0.02517,-0.4012 -0.145019,-0.5642 -0.112362,-0.1629 -0.284047,-0.2322 -0.471315,-0.2322 z m 11.239045,0 c -0.194764,0 -0.351463,0.069 -0.471314,0.2322 -0.119856,0.163 -0.181278,0.3524 -0.181275,0.5642 -3e-6,0.2119 0.06142,0.3762 0.181275,0.531 0.119851,0.1548 0.27655,0.2324 0.471314,0.2323 0.187268,10e-5 0.322695,-0.078 0.435061,-0.2323 0.119849,-0.1548 0.181271,-0.3191 0.181274,-0.531 -3e-6,-0.2118 -0.06143,-0.4012 -0.181274,-0.5642 -0.112362,-0.1629 -0.247793,-0.2322 -0.435061,-0.2322 z m 22.47809,0 c -0.194764,0 -0.351463,0.069 -0.471315,0.2322 -0.119855,0.163 -0.181277,0.3524 -0.181275,0.5642 -2e-6,0.2119 0.06142,0.3762 0.181275,0.531 0.119852,0.1548 0.276551,0.2324 0.471315,0.2323 0.187268,10e-5 0.322694,-0.078 0.435059,-0.2323 0.119851,-0.1548 0.181273,-0.3191 0.181276,-0.531 -3e-6,-0.2118 -0.06143,-0.4012 -0.181276,-0.5642 -0.11236,-0.1629 -0.247791,-0.2322 -0.435059,-0.2322 z m 11.239045,0 c -0.194764,0 -0.351463,0.069 -0.471315,0.2322 -0.119857,0.163 -0.181277,0.3524 -0.181275,0.5642 -2e-6,0.2119 0.06142,0.3762 0.181275,0.531 0.119852,0.1548 0.276551,0.2324 0.471315,0.2323 0.187268,10e-5 0.322693,-0.078 0.435059,-0.2323 0.119851,-0.1548 0.181273,-0.3191 0.181276,-0.531 -3e-6,-0.2118 -0.06143,-0.4012 -0.181276,-0.5642 -0.11236,-0.1629 -0.247791,-0.2322 -0.435059,-0.2322 z m 11.239045,0 c -0.194765,0 -0.351464,0.069 -0.471315,0.2322 -0.119857,0.163 -0.181277,0.3524 -0.181275,0.5642 -2e-6,0.2119 0.06142,0.3762 0.181275,0.531 0.119851,0.1548 0.27655,0.2324 0.471315,0.2323 0.187268,10e-5 0.322693,-0.078 0.435059,-0.2323 0.119851,-0.1548 0.181271,-0.3191 0.181276,-0.531 -5e-6,-0.2118 -0.06142,-0.4012 -0.181276,-0.5642 -0.112361,-0.1629 -0.247791,-0.2322 -0.435059,-0.2322 z m 11.20279,0.8959 c 0.441956,10e-5 0.776628,0.1376 0.978884,0.3983 0.20974,0.2608 0.32629,0.6313 0.326294,1.1283 -4e-6,0.1712 -0.02756,0.3687 -0.07251,0.5642 -0.03746,0.1874 -0.120153,0.343 -0.21753,0.4977 -0.09738,0.1549 -0.212737,0.2924 -0.362549,0.3983 -0.149821,0.098 -0.319104,0.1327 -0.543826,0.1327 -0.269673,0 -0.516557,-0.043 -0.688844,-0.1659 -0.172292,-0.1304 -0.293934,-0.3191 -0.398805,-0.5309 -0.09738,-0.2201 -0.172586,-0.4531 -0.21753,-0.7301 -0.03746,-0.2852 -0.07251,-0.5783 -0.07251,-0.8961 l 0,-0.2655 c -10e-7,-0.082 0.02877,-0.1508 0.03626,-0.2322 0.20225,-0.098 0.385315,-0.1834 0.580079,-0.2324 0.202251,-0.049 0.41288,-0.066 0.65259,-0.066 z m -6.888448,0.2988 0.94263,0 c 0.217232,0 0.41408,0.018 0.616335,0.066 0.20225,0.04 0.394004,0.093 0.543825,0.1991 0.157303,0.098 0.272655,0.2603 0.362549,0.4314 0.09737,0.1712 0.145016,0.3779 0.145021,0.6306 -5e-6,0.2851 -0.04015,0.5176 -0.145021,0.6968 -0.09738,0.1793 -0.23401,0.3174 -0.398804,0.4315 -0.164802,0.1062 -0.362849,0.1916 -0.58008,0.2322 -0.209746,0.04 -0.420377,0.066 -0.652589,0.066 -0.23222,0 -0.422775,-0.026 -0.58008,-0.033 -0.149819,-0.016 -0.238806,-0.025 -0.253786,-0.033 l 0,-2.688 z M 15.32412,1012.49 c -0.726613,0 -1.299482,0.3443 -1.703985,1.0287 -0.397015,0.6764 -0.616335,1.6493 -0.616335,2.9204 0,1.2711 0.21932,2.2359 0.616335,2.9204 0.404503,0.6763 0.977372,1.0288 1.703985,1.0288 0.734099,0 1.270711,-0.3525 1.66773,-1.0288 0.397009,-0.6845 0.616329,-1.6493 0.616333,-2.9204 -4e-6,-1.2711 -0.219324,-2.244 -0.616333,-2.9204 -0.397019,-0.6844 -0.933631,-1.0287 -1.66773,-1.0287 z m 11.202789,0 c -0.726613,0 -1.263225,0.3443 -1.667728,1.0287 -0.397016,0.6764 -0.616335,1.6493 -0.616335,2.9204 0,1.2711 0.219319,2.2359 0.616335,2.9204 0.404503,0.6763 0.941115,1.0288 1.667728,1.0288 0.734099,0 1.306966,-0.3525 1.703984,-1.0288 0.39701,-0.6845 0.616331,-1.6493 0.616335,-2.9204 -4e-6,-1.2711 -0.219325,-2.244 -0.616335,-2.9204 -0.397018,-0.6844 -0.969885,-1.0287 -1.703984,-1.0287 z m 22.47809,0 c -0.726614,0 -1.263226,0.3443 -1.66773,1.0287 -0.397014,0.6764 -0.616334,1.6493 -0.616334,2.9204 0,1.2711 0.21932,2.2359 0.616334,2.9204 0.404504,0.6763 0.941116,1.0288 1.66773,1.0288 0.734099,0 1.306966,-0.3525 1.703984,-1.0288 0.39701,-0.6845 0.61633,-1.6493 0.616335,-2.9204 -5e-6,-1.2711 -0.219325,-2.244 -0.616335,-2.9204 -0.397018,-0.6844 -0.969885,-1.0287 -1.703984,-1.0287 z m 11.239045,0 c -0.726614,0 -1.299481,0.3443 -1.703985,1.0287 -0.397014,0.6764 -0.580079,1.6493 -0.580079,2.9204 0,1.2711 0.183065,2.2359 0.580079,2.9204 0.404504,0.6763 0.977371,1.0288 1.703985,1.0288 0.734099,0 1.306966,-0.3525 1.703984,-1.0288 0.39701,-0.6845 0.580075,-1.6493 0.580079,-2.9204 -4e-6,-1.2711 -0.183069,-2.244 -0.580079,-2.9204 -0.397018,-0.6844 -0.969885,-1.0287 -1.703984,-1.0287 z m 11.239045,0 c -0.726614,0 -1.299481,0.3443 -1.703985,1.0287 -0.397015,0.6764 -0.58008,1.6493 -0.58008,2.9204 0,1.2711 0.183065,2.2359 0.58008,2.9204 0.404504,0.6763 0.977371,1.0288 1.703985,1.0288 0.734099,0 1.306966,-0.3525 1.703984,-1.0288 0.39701,-0.6845 0.580075,-1.6493 0.580079,-2.9204 -4e-6,-1.2711 -0.183069,-2.244 -0.580079,-2.9204 -0.397018,-0.6844 -0.969885,-1.0287 -1.703984,-1.0287 z m 4.713147,0.1 c -0.142327,0.011 -0.314009,0.017 -0.471314,0.033 -0.149819,0.011 -0.285244,0.041 -0.43506,0.066 -0.142328,0.024 -0.286444,0.034 -0.398805,0.066 l 0,7.334 c 0.112361,0.033 0.248987,0.075 0.398805,0.1 0.149816,0.024 0.321496,0.025 0.471315,0.033 0.149814,0.016 0.285241,0.025 0.435059,0.033 0.149816,0.011 0.28644,0.033 0.398805,0.033 0.966315,0 1.660826,-0.2143 2.102789,-0.5974 0.441955,-0.3829 0.652586,-0.9428 0.65259,-1.6924 -4e-6,-0.4889 -0.100377,-0.8601 -0.36255,-1.1616 -0.254693,-0.3095 -0.596856,-0.5495 -0.978885,-0.6637 0.142323,-0.057 0.278948,-0.1264 0.398806,-0.2322 0.127339,-0.1141 0.2364,-0.2516 0.326294,-0.3983 0.09737,-0.1466 0.16509,-0.3016 0.21753,-0.4646 0.05243,-0.171 0.07251,-0.3517 0.07251,-0.5309 -4e-6,-0.3748 -0.05394,-0.6766 -0.181275,-0.9292 -0.119859,-0.2527 -0.28285,-0.4426 -0.50757,-0.5974 -0.217239,-0.1548 -0.461724,-0.2666 -0.761354,-0.3318 -0.299637,-0.065 -0.634309,-0.1 -0.978885,-0.1 -0.119856,1e-4 -0.24899,-0.011 -0.398805,0 z m 8.266137,0.033 c -0.614254,0.011 -1.144574,0.095 -1.631475,0.2986 -0.486907,0.2038 -0.924347,0.5131 -1.268925,0.8961 -0.337088,0.3829 -0.574085,0.8566 -0.761354,1.4269 -0.179781,0.5623 -0.290041,1.2247 -0.29004,1.958 -1e-6,1.0022 0.198047,1.7608 0.58008,2.323 0.382031,0.5622 0.968681,0.8629 1.740239,0.8629 0.374538,0 0.70921,-0.086 0.978885,-0.2324 0.269665,-0.1547 0.480295,-0.3609 0.65259,-0.5973 0.172283,-0.2444 0.280145,-0.5113 0.36255,-0.7965 0.0824,-0.2933 0.145014,-0.5525 0.145019,-0.8296 -5e-6,-0.3015 -0.03387,-0.6108 -0.108767,-0.8961 -0.07491,-0.2851 -0.197757,-0.5182 -0.36255,-0.73 -0.164804,-0.22 -0.411689,-0.4006 -0.688845,-0.531 -0.269675,-0.1303 -0.589365,-0.199 -0.978885,-0.1991 -0.239709,10e-5 -0.471613,0.042 -0.688844,0.1 -0.209746,0.057 -0.400302,0.1095 -0.580081,0.1991 0.08989,-0.44 0.226514,-0.7937 0.398805,-1.0952 0.172288,-0.3014 0.397899,-0.5426 0.65259,-0.7301 0.254685,-0.1955 0.54801,-0.3499 0.87012,-0.4313 0.329593,-0.089 0.69063,-0.1246 1.08765,-0.1328 l -0.108768,-0.8628 z m -51.590842,0.033 c -0.322108,0.3504 -0.628017,0.7547 -0.942629,1.1947 -0.314618,0.4319 -0.629216,0.8712 -0.906375,1.3274 -0.277161,0.4483 -0.53663,0.8706 -0.761354,1.2943 -0.217236,0.4237 -0.380226,0.8024 -0.50757,1.1283 l 0,0.6969 3.117928,0 0,1.9248 0.906375,0 0,-1.9248 0.797609,0 0,-0.8296 -0.797609,0 0,-4.812 -0.906375,0 z m 8.737451,0 0,7.5664 0.906375,0 0,-3.5177 2.682868,0 0,-0.8296 -2.682868,0 0,-2.3563 3.045418,0 0,-0.8628 -3.951793,0 z m 11.239045,0 0,7.5664 0.906375,0 0,-3.5177 2.682868,0 0,-0.8296 -2.682868,0 0,-2.3563 3.045418,0 0,-0.8628 -3.951793,0 z m 11.239045,0 0,7.5664 0.906374,0 0,-3.5177 2.682869,0 0,-0.8296 -2.682869,0 0,-2.3563 3.045419,0 0,-0.8628 -3.951793,0 z m -48.762953,0.7301 c 0.254685,10e-5 0.444041,0.069 0.616334,0.2323 0.172286,0.163 0.330186,0.3867 0.435061,0.6638 0.104867,0.277 0.17258,0.5875 0.217529,0.9623 0.04494,0.3667 0.07251,0.7791 0.07251,1.1947 -5e-6,0.4156 -0.02756,0.7868 -0.07251,1.1615 -0.04494,0.3667 -0.112663,0.7186 -0.217529,0.9956 -0.104879,0.2771 -0.262775,0.4676 -0.435061,0.6305 -0.172293,0.163 -0.361649,0.2655 -0.616334,0.2655 -0.254692,0 -0.480302,-0.102 -0.65259,-0.2655 -0.172292,-0.1629 -0.33019,-0.3534 -0.435059,-0.6305 -0.104879,-0.277 -0.172587,-0.6289 -0.217531,-0.9956 -0.04495,-0.3747 -0.07251,-0.7459 -0.07251,-1.1615 -2e-6,-0.4156 0.02756,-0.828 0.07251,-1.1947 0.04495,-0.3748 0.112651,-0.6853 0.217531,-0.9623 0.104867,-0.2771 0.262767,-0.5008 0.435059,-0.6638 0.172288,-0.163 0.397898,-0.2322 0.65259,-0.2323 z m 11.20279,0 c 0.254685,10e-5 0.480297,0.069 0.65259,0.2323 0.172286,0.163 0.330186,0.3867 0.43506,0.6638 0.104867,0.277 0.172581,0.5875 0.21753,0.9623 0.04494,0.3667 0.07251,0.7791 0.07251,1.1947 -4e-6,0.4156 -0.02756,0.7868 -0.07251,1.1615 -0.04494,0.3667 -0.112663,0.7186 -0.21753,0.9956 -0.104879,0.2771 -0.262774,0.4676 -0.43506,0.6305 -0.172293,0.163 -0.397905,0.2655 -0.65259,0.2655 -0.254691,0 -0.444047,-0.102 -0.616334,-0.2655 -0.172292,-0.1629 -0.33019,-0.3534 -0.435059,-0.6305 -0.104879,-0.277 -0.172587,-0.6289 -0.217531,-0.9956 -0.04495,-0.3747 -0.07251,-0.7459 -0.07251,-1.1615 -10e-7,-0.4156 0.02756,-0.828 0.07251,-1.1947 0.04494,-0.3748 0.112651,-0.6853 0.217531,-0.9623 0.104867,-0.2771 0.262767,-0.5008 0.435059,-0.6638 0.172287,-0.163 0.361643,-0.2322 0.616334,-0.2323 z m 22.47809,0 c 0.254685,10e-5 0.480297,0.069 0.65259,0.2323 0.172286,0.163 0.293929,0.3867 0.398804,0.6638 0.104868,0.277 0.208836,0.5875 0.253786,0.9623 0.04495,0.3667 0.07251,0.7791 0.07251,1.1947 -4e-6,0.4156 -0.02756,0.7868 -0.07251,1.1615 -0.04494,0.3667 -0.148917,0.7186 -0.253786,0.9956 -0.104878,0.2771 -0.226518,0.4676 -0.398804,0.6305 -0.172293,0.163 -0.397905,0.2655 -0.65259,0.2655 -0.254691,0 -0.444048,-0.102 -0.616335,-0.2655 -0.172292,-0.1629 -0.330189,-0.3534 -0.43506,-0.6305 -0.104878,-0.277 -0.172586,-0.6289 -0.217529,-0.9956 -0.04494,-0.3747 -0.07251,-0.7459 -0.07251,-1.1615 -2e-6,-0.4156 0.02756,-0.828 0.07251,-1.1947 0.04494,-0.3748 0.112651,-0.6853 0.217529,-0.9623 0.104868,-0.2771 0.262768,-0.5008 0.43506,-0.6638 0.172287,-0.163 0.361644,-0.2322 0.616335,-0.2323 z m 11.239045,0 c 0.254685,10e-5 0.480297,0.069 0.65259,0.2323 0.172285,0.163 0.293929,0.3867 0.398804,0.6638 0.104867,0.277 0.208836,0.5875 0.253785,0.9623 0.04494,0.3667 0.03626,0.7791 0.03626,1.1947 -4e-6,0.4156 0.0087,0.7868 -0.03626,1.1615 -0.04494,0.3667 -0.148917,0.7186 -0.253785,0.9956 -0.104878,0.2771 -0.226519,0.4676 -0.398804,0.6305 -0.172293,0.163 -0.397905,0.2655 -0.65259,0.2655 -0.254691,0 -0.444048,-0.102 -0.616335,-0.2655 -0.172292,-0.1629 -0.330189,-0.3534 -0.43506,-0.6305 -0.104878,-0.277 -0.172586,-0.6289 -0.21753,-0.9956 -0.04494,-0.3747 -0.07251,-0.7459 -0.07251,-1.1615 -10e-7,-0.4156 0.02756,-0.828 0.07251,-1.1947 0.04494,-0.3748 0.112652,-0.6853 0.21753,-0.9623 0.104867,-0.2771 0.262768,-0.5008 0.43506,-0.6638 0.172287,-0.163 0.361644,-0.2322 0.616335,-0.2323 z m 11.239045,0 c 0.254685,10e-5 0.480297,0.069 0.65259,0.2323 0.172285,0.163 0.293929,0.3867 0.398804,0.6638 0.104867,0.277 0.208835,0.5875 0.253785,0.9623 0.04494,0.3667 0.03626,0.7791 0.03626,1.1947 -4e-6,0.4156 0.0087,0.7868 -0.03626,1.1615 -0.04494,0.3667 -0.148917,0.7186 -0.253785,0.9956 -0.104878,0.2771 -0.226519,0.4676 -0.398804,0.6305 -0.172293,0.163 -0.397905,0.2655 -0.65259,0.2655 -0.254692,0 -0.444048,-0.102 -0.616335,-0.2655 -0.172292,-0.1629 -0.330189,-0.3534 -0.43506,-0.6305 -0.104878,-0.277 -0.172586,-0.6289 -0.21753,-0.9956 -0.04494,-0.3747 -0.07251,-0.7459 -0.07251,-1.1615 -10e-7,-0.4156 0.02756,-0.828 0.07251,-1.1947 0.04494,-0.3748 0.112652,-0.6853 0.21753,-0.9623 0.104867,-0.2771 0.262768,-0.5008 0.43506,-0.6638 0.172287,-0.163 0.361643,-0.2322 0.616335,-0.2323 z m 4.640637,0.066 c 0.149815,-0.011 0.312806,10e-5 0.507571,0 0.194758,10e-5 0.407787,-0.011 0.580079,0.033 0.179777,0.04 0.336476,0.1346 0.471314,0.2323 0.134832,0.098 0.243893,0.2103 0.326295,0.3651 0.0824,0.1548 0.108768,0.3442 0.108768,0.5641 -3e-6,0.2364 -0.05513,0.4426 -0.145021,0.5973 -0.08989,0.1549 -0.212735,0.2755 -0.362549,0.3651 -0.149819,0.089 -0.320301,0.1584 -0.50757,0.1992 -0.187274,0.04 -0.356557,0.033 -0.543825,0.033 l -0.7251,0 0,-2.3562 c 0.05992,-0.016 0.147714,-0.033 0.29004,-0.033 z m -43.252195,0.3983 0,3.6173 -2.211554,0 c 0.134834,-0.3178 0.270261,-0.6365 0.43506,-0.9625 0.172287,-0.3259 0.349062,-0.6526 0.543825,-0.9623 0.19476,-0.3177 0.414079,-0.6108 0.616335,-0.8961 0.209741,-0.2851 0.414078,-0.5601 0.616334,-0.7964 z m -14.356974,0.6969 1.885259,2.688 c -0.34458,0.4645 -0.691835,0.9719 -1.051394,1.4934 -0.35207,0.5134 -0.659177,1.0045 -0.906374,1.4933 l 0.942629,0 c 0.0824,-0.1547 0.20644,-0.3353 0.326295,-0.5309 0.119851,-0.1955 0.227713,-0.3936 0.362549,-0.5974 0.142324,-0.2117 0.285241,-0.4268 0.43506,-0.6305 0.149814,-0.2036 0.300222,-0.3767 0.43506,-0.5642 0.134833,0.1794 0.263966,0.3606 0.398805,0.5642 0.142323,0.2037 0.271457,0.4188 0.398805,0.6305 0.12734,0.2038 0.257674,0.4019 0.36255,0.5974 0.112361,0.1956 0.215127,0.368 0.29004,0.5309 l 1.015139,0 c -0.239712,-0.5051 -0.525546,-1.0381 -0.87012,-1.5596 -0.337091,-0.5216 -0.678054,-1.0127 -1.015139,-1.4935 l 1.740239,-2.6216 -1.01514,0 -1.268924,1.9912 -1.413944,-1.9912 -1.051395,0 z m -3.190438,0.9292 c -0.194765,0 -0.351464,0.102 -0.471315,0.2655 -0.119856,0.163 -0.181277,0.3524 -0.181275,0.5641 -2e-6,0.2119 0.06142,0.3763 0.181275,0.531 0.119851,0.1548 0.27655,0.2323 0.471315,0.2323 0.187267,0 0.358949,-0.077 0.471314,-0.2323 0.119851,-0.1547 0.181272,-0.3191 0.181276,-0.531 -4e-6,-0.2117 -0.06143,-0.4011 -0.181276,-0.5641 -0.112361,-0.163 -0.284047,-0.2655 -0.471314,-0.2655 z m 11.239046,0 c -0.194765,0 -0.351464,0.102 -0.471316,0.2655 -0.119855,0.163 -0.181276,0.3524 -0.181274,0.5641 -2e-6,0.2119 0.06142,0.3763 0.181274,0.531 0.119852,0.1548 0.276551,0.2323 0.471316,0.2323 0.187267,0 0.322694,-0.077 0.435059,-0.2323 0.119851,-0.1547 0.181272,-0.3191 0.181275,-0.531 -3e-6,-0.2117 -0.06143,-0.4011 -0.181275,-0.5641 -0.112361,-0.163 -0.247792,-0.2655 -0.435059,-0.2655 z m 22.478089,0 c -0.194764,0 -0.351463,0.102 -0.471315,0.2655 -0.119856,0.163 -0.181277,0.3524 -0.181275,0.5641 -2e-6,0.2119 0.06142,0.3763 0.181275,0.531 0.119852,0.1548 0.276551,0.2323 0.471315,0.2323 0.187268,0 0.322693,-0.077 0.43506,-0.2323 0.11985,-0.1547 0.181272,-0.3191 0.181275,-0.531 -3e-6,-0.2117 -0.06143,-0.4011 -0.181275,-0.5641 -0.112361,-0.163 -0.247792,-0.2655 -0.43506,-0.2655 z m 11.239045,0 c -0.194764,0 -0.351463,0.102 -0.471315,0.2655 -0.119856,0.163 -0.181277,0.3524 -0.181275,0.5641 -2e-6,0.2119 0.06142,0.3763 0.181275,0.531 0.119852,0.1548 0.276551,0.2323 0.471315,0.2323 0.187268,0 0.322693,-0.077 0.435059,-0.2323 0.119851,-0.1547 0.181272,-0.3191 0.181276,-0.531 -4e-6,-0.2117 -0.06143,-0.4011 -0.181276,-0.5641 -0.11236,-0.163 -0.247791,-0.2655 -0.435059,-0.2655 z m 11.239045,0 c -0.194764,0 -0.351464,0.102 -0.471315,0.2655 -0.119857,0.163 -0.181277,0.3524 -0.181275,0.5641 -2e-6,0.2119 0.06142,0.3763 0.181275,0.531 0.119851,0.1548 0.276551,0.2323 0.471315,0.2323 0.187268,0 0.322693,-0.077 0.435059,-0.2323 0.119851,-0.1547 0.181271,-0.3191 0.181276,-0.531 -5e-6,-0.2117 -0.06142,-0.4011 -0.181276,-0.5641 -0.112362,-0.163 -0.247791,-0.2655 -0.435059,-0.2655 z m 11.20279,0.9292 c 0.441955,0 0.776628,0.1375 0.978883,0.3982 0.209741,0.2608 0.326291,0.6314 0.326295,1.1284 -4e-6,0.171 -0.02756,0.3686 -0.07251,0.5641 -0.03746,0.1874 -0.120153,0.343 -0.21753,0.4978 -0.09738,0.1548 -0.212737,0.2924 -0.36255,0.3982 -0.14982,0.098 -0.319102,0.1328 -0.543825,0.1328 -0.269673,0 -0.516557,-0.043 -0.688844,-0.166 -0.172292,-0.1303 -0.293934,-0.3191 -0.398805,-0.531 -0.09738,-0.2199 -0.172587,-0.453 -0.21753,-0.7301 -0.03746,-0.2851 -0.07251,-0.5782 -0.07251,-0.8959 l 0,-0.2655 c -10e-7,-0.082 0.02877,-0.1508 0.03626,-0.2324 0.20225,-0.098 0.385315,-0.1834 0.58008,-0.2322 0.20225,-0.049 0.412879,-0.066 0.652589,-0.066 z m -6.888448,0.2655 0.94263,0 c 0.217232,0 0.41408,0.051 0.616335,0.1 0.20225,0.04 0.394004,0.093 0.543824,0.1991 0.157304,0.098 0.272656,0.2272 0.36255,0.3983 0.09737,0.1712 0.145016,0.4112 0.145021,0.6637 -5e-6,0.2852 -0.04015,0.5177 -0.145021,0.6969 -0.09738,0.1793 -0.234009,0.3174 -0.398804,0.4314 -0.164802,0.1062 -0.362849,0.1585 -0.580081,0.1991 -0.209745,0.04 -0.420376,0.066 -0.652588,0.066 -0.232219,0 -0.422775,0.011 -0.58008,0 -0.149819,-0.016 -0.238806,-0.026 -0.253786,-0.033 l 0,-2.7212 z m -60.509567,6.9358 c -0.726614,10e-5 -1.299481,0.3444 -1.703984,1.0288 -0.397015,0.6763 -0.616335,1.6493 -0.616335,2.9204 0,1.2711 0.21932,2.2359 0.616335,2.9203 0.404503,0.6763 0.97737,1.0287 1.703984,1.0287 0.734099,0 1.27071,-0.3524 1.667729,-1.0287 0.39701,-0.6844 0.61633,-1.6492 0.616334,-2.9203 -4e-6,-1.2711 -0.219324,-2.2441 -0.616334,-2.9204 -0.397019,-0.6844 -0.93363,-1.0287 -1.667729,-1.0288 z m 11.20279,0 c -0.726613,10e-5 -1.263225,0.3444 -1.667729,1.0288 -0.397016,0.6763 -0.616335,1.6493 -0.616335,2.9204 0,1.2711 0.219319,2.2359 0.616335,2.9203 0.404504,0.6763 0.941116,1.0287 1.667729,1.0287 0.734099,0 1.306966,-0.3524 1.703984,-1.0287 0.39701,-0.6844 0.616331,-1.6492 0.616335,-2.9203 -4e-6,-1.2711 -0.219325,-2.2441 -0.616335,-2.9204 -0.397018,-0.6844 -0.969885,-1.0287 -1.703984,-1.0288 z m 22.47809,0 c -0.726614,10e-5 -1.263226,0.3444 -1.66773,1.0288 -0.397014,0.6763 -0.616334,1.6493 -0.616334,2.9204 0,1.2711 0.21932,2.2359 0.616334,2.9203 0.404504,0.6763 0.941116,1.0287 1.66773,1.0287 0.734099,0 1.306966,-0.3524 1.703984,-1.0287 0.39701,-0.6844 0.61633,-1.6492 0.616335,-2.9203 -5e-6,-1.2711 -0.219325,-2.2441 -0.616335,-2.9204 -0.397018,-0.6844 -0.969885,-1.0287 -1.703984,-1.0288 z m 11.239045,0 c -0.726614,10e-5 -1.299481,0.3444 -1.703985,1.0288 -0.397014,0.6763 -0.580079,1.6493 -0.580079,2.9204 0,1.2711 0.183065,2.2359 0.580079,2.9203 0.404504,0.6763 0.977371,1.0287 1.703985,1.0287 0.734099,0 1.306966,-0.3524 1.703984,-1.0287 0.39701,-0.6844 0.580075,-1.6492 0.580079,-2.9203 -4e-6,-1.2711 -0.183069,-2.2441 -0.580079,-2.9204 -0.397018,-0.6844 -0.969885,-1.0287 -1.703984,-1.0288 z m -29.475301,0.166 c -0.01498,0.3259 -0.02128,0.6359 -0.03626,0.9292 -0.0075,0.2933 -0.01379,0.5946 -0.03626,0.896 -0.01498,0.2934 -0.04254,0.5783 -0.07251,0.896 -0.02247,0.3097 -0.06382,0.6371 -0.108768,0.9956 0.56181,0 1.046891,0.051 1.413944,0.1327 0.374539,0.073 0.660374,0.1853 0.870119,0.3319 0.217232,0.1467 0.352658,0.3442 0.435061,0.5641 0.08989,0.2119 0.145016,0.4531 0.145019,0.7301 -3e-6,0.1794 -0.04885,0.3348 -0.108767,0.4978 -0.05244,0.1631 -0.126445,0.3011 -0.253785,0.4314 -0.119858,0.1222 -0.269065,0.2254 -0.471316,0.2987 -0.202254,0.073 -0.461723,0.1328 -0.761354,0.1328 -0.382035,0 -0.687943,-0.044 -0.942629,-0.1328 -0.2472,-0.089 -0.460228,-0.1671 -0.58008,-0.2323 l -0.181276,0.8628 c 0.05244,0.033 0.170187,0.051 0.29004,0.1 0.119853,0.04 0.241497,0.092 0.398805,0.1328 0.157307,0.04 0.33528,0.075 0.50757,0.1 0.179779,0.033 0.364042,0.066 0.543825,0.066 0.434465,0 0.809285,-0.085 1.123905,-0.1991 0.322102,-0.114 0.559098,-0.2608 0.761354,-0.4646 0.20974,-0.2037 0.373929,-0.4448 0.471315,-0.7301 0.09737,-0.2851 0.145015,-0.5951 0.145019,-0.9292 -4e-6,-0.7414 -0.231907,-1.3519 -0.688843,-1.792 -0.456946,-0.44 -1.171531,-0.6561 -2.1753,-0.6969 0.0075,-0.114 0.02128,-0.2771 0.03626,-0.4646 0.01498,-0.1874 0.02128,-0.3936 0.03626,-0.5973 0.01498,-0.2037 0.02875,-0.3849 0.03626,-0.5642 0.01498,-0.1873 0.02876,-0.3173 0.03626,-0.4314 l 2.53785,0 0,-0.8628 -3.371714,0 z m 10.840239,0 0,7.5664 0.906375,0 0,-3.5177 2.682868,0 0,-0.8297 -2.682868,0 0,-2.3562 3.045418,0 0,-0.8628 -3.951793,0 z m 11.239045,0 0,7.5664 0.906375,0 0,-3.5177 2.682868,0 0,-0.8297 -2.682868,0 0,-2.3562 3.045418,0 0,-0.8628 -3.951793,0 z m -37.523908,0.6968 c 0.254685,10e-5 0.444041,0.103 0.616334,0.2655 0.172286,0.163 0.330186,0.3868 0.435061,0.6637 0.104867,0.2771 0.17258,0.5877 0.217529,0.9625 0.04494,0.3667 0.07251,0.7791 0.07251,1.1947 -5e-6,0.4155 -0.02756,0.7867 -0.07251,1.1614 -0.04494,0.3667 -0.112663,0.6854 -0.217529,0.9625 -0.104879,0.277 -0.262775,0.5007 -0.435061,0.6637 -0.172293,0.163 -0.361649,0.2655 -0.616334,0.2655 -0.254692,0 -0.480302,-0.103 -0.65259,-0.2655 -0.172292,-0.163 -0.33019,-0.3867 -0.435059,-0.6637 -0.104879,-0.2771 -0.172587,-0.5958 -0.217531,-0.9625 -0.04495,-0.3747 -0.07251,-0.7459 -0.07251,-1.1614 -2e-6,-0.4156 0.02756,-0.828 0.07251,-1.1947 0.04495,-0.3748 0.112651,-0.6854 0.217531,-0.9625 0.104867,-0.2769 0.262767,-0.5007 0.435059,-0.6637 0.172288,-0.1629 0.397898,-0.2654 0.65259,-0.2655 z m 11.20279,0 c 0.254685,10e-5 0.480297,0.103 0.65259,0.2655 0.172286,0.163 0.330186,0.3868 0.43506,0.6637 0.104867,0.2771 0.172581,0.5877 0.21753,0.9625 0.04494,0.3667 0.07251,0.7791 0.07251,1.1947 -4e-6,0.4155 -0.02756,0.7867 -0.07251,1.1614 -0.04494,0.3667 -0.112663,0.6854 -0.21753,0.9625 -0.104879,0.277 -0.262774,0.5007 -0.43506,0.6637 -0.172293,0.163 -0.397905,0.2655 -0.65259,0.2655 -0.254691,0 -0.444047,-0.103 -0.616334,-0.2655 -0.172292,-0.163 -0.33019,-0.3867 -0.435059,-0.6637 -0.104879,-0.2771 -0.172587,-0.5958 -0.217531,-0.9625 -0.04495,-0.3747 -0.07251,-0.7459 -0.07251,-1.1614 -10e-7,-0.4156 0.02756,-0.828 0.07251,-1.1947 0.04494,-0.3748 0.112651,-0.6854 0.217531,-0.9625 0.104867,-0.2769 0.262767,-0.5007 0.435059,-0.6637 0.172287,-0.1629 0.361643,-0.2654 0.616334,-0.2655 z m 22.47809,0 c 0.254685,10e-5 0.480297,0.103 0.65259,0.2655 0.172286,0.163 0.293929,0.3868 0.398804,0.6637 0.104868,0.2771 0.208836,0.5877 0.253786,0.9625 0.04495,0.3667 0.07251,0.7791 0.07251,1.1947 -4e-6,0.4155 -0.02756,0.7867 -0.07251,1.1614 -0.04494,0.3667 -0.148917,0.6854 -0.253786,0.9625 -0.104878,0.277 -0.226518,0.5007 -0.398804,0.6637 -0.172293,0.163 -0.397905,0.2655 -0.65259,0.2655 -0.254691,0 -0.444048,-0.103 -0.616335,-0.2655 -0.172292,-0.163 -0.330189,-0.3867 -0.43506,-0.6637 -0.104878,-0.2771 -0.172586,-0.5958 -0.217529,-0.9625 -0.04494,-0.3747 -0.07251,-0.7459 -0.07251,-1.1614 -2e-6,-0.4156 0.02756,-0.828 0.07251,-1.1947 0.04494,-0.3748 0.112651,-0.6854 0.217529,-0.9625 0.104868,-0.2769 0.262768,-0.5007 0.43506,-0.6637 0.172287,-0.1629 0.361644,-0.2654 0.616335,-0.2655 z m 11.239045,0 c 0.254685,10e-5 0.480297,0.103 0.65259,0.2655 0.172285,0.163 0.293929,0.3868 0.398804,0.6637 0.104867,0.2771 0.208836,0.5877 0.253785,0.9625 0.04494,0.3667 0.03626,0.7791 0.03626,1.1947 -4e-6,0.4155 0.0087,0.7867 -0.03626,1.1614 -0.04494,0.3667 -0.148917,0.6854 -0.253785,0.9625 -0.104878,0.277 -0.226519,0.5007 -0.398804,0.6637 -0.172293,0.163 -0.397905,0.2655 -0.65259,0.2655 -0.254691,0 -0.444048,-0.103 -0.616335,-0.2655 -0.172292,-0.163 -0.330189,-0.3867 -0.43506,-0.6637 -0.104878,-0.2771 -0.172586,-0.5958 -0.21753,-0.9625 -0.04494,-0.3747 -0.07251,-0.7459 -0.07251,-1.1614 -10e-7,-0.4156 0.02756,-0.828 0.07251,-1.1947 0.04494,-0.3748 0.112652,-0.6854 0.21753,-0.9625 0.104867,-0.2769 0.262768,-0.5007 0.43506,-0.6637 0.172287,-0.1629 0.361644,-0.2654 0.616335,-0.2655 z m -41.729487,1.1947 1.885259,2.6881 c -0.34458,0.4644 -0.691835,0.9387 -1.051394,1.4602 -0.35207,0.5134 -0.659177,1.0376 -0.906374,1.5266 l 0.942629,0 c 0.0824,-0.1549 0.20644,-0.3355 0.326295,-0.531 0.119851,-0.1955 0.227713,-0.3937 0.362549,-0.5974 0.142324,-0.2118 0.285241,-0.4268 0.43506,-0.6305 0.149814,-0.2037 0.300222,-0.41 0.43506,-0.5974 0.134833,0.1794 0.263966,0.3937 0.398805,0.5974 0.142323,0.2037 0.271457,0.3856 0.398805,0.5973 0.12734,0.2038 0.257674,0.4351 0.36255,0.6306 0.112361,0.1955 0.215127,0.368 0.29004,0.531 l 1.015139,0 c -0.239712,-0.5052 -0.525546,-1.0383 -0.87012,-1.5598 -0.337091,-0.5214 -0.678054,-1.0126 -1.015139,-1.4933 l 1.740239,-2.6218 -1.01514,0 -1.268924,1.958 -1.413944,-1.958 -1.051395,0 z m -3.190438,0.9292 c -0.194765,1e-4 -0.351464,0.103 -0.471315,0.2655 -0.119856,0.163 -0.181277,0.3192 -0.181275,0.531 -2e-6,0.2119 0.06142,0.4094 0.181275,0.5642 0.119851,0.1548 0.27655,0.2324 0.471315,0.2323 0.187267,10e-5 0.358949,-0.078 0.471314,-0.2323 0.119851,-0.1548 0.181272,-0.3523 0.181276,-0.5642 -4e-6,-0.2118 -0.06143,-0.368 -0.181276,-0.531 -0.112361,-0.1629 -0.284047,-0.2654 -0.471314,-0.2655 z m 11.239046,0 c -0.194765,1e-4 -0.351464,0.103 -0.471316,0.2655 -0.119855,0.163 -0.181276,0.3192 -0.181274,0.531 -2e-6,0.2119 0.06142,0.4094 0.181274,0.5642 0.119852,0.1548 0.276551,0.2324 0.471316,0.2323 0.187267,10e-5 0.322694,-0.078 0.435059,-0.2323 0.119851,-0.1548 0.181272,-0.3523 0.181275,-0.5642 -3e-6,-0.2118 -0.06143,-0.368 -0.181275,-0.531 -0.112361,-0.1629 -0.247792,-0.2654 -0.435059,-0.2655 z m 22.478089,0 c -0.194764,1e-4 -0.351463,0.103 -0.471315,0.2655 -0.119856,0.163 -0.181277,0.3192 -0.181275,0.531 -2e-6,0.2119 0.06142,0.4094 0.181275,0.5642 0.119852,0.1548 0.276551,0.2324 0.471315,0.2323 0.187268,10e-5 0.322693,-0.078 0.43506,-0.2323 0.11985,-0.1548 0.181272,-0.3523 0.181275,-0.5642 -3e-6,-0.2118 -0.06143,-0.368 -0.181275,-0.531 -0.112361,-0.1629 -0.247792,-0.2654 -0.43506,-0.2655 z m 11.239045,0 c -0.194764,1e-4 -0.351463,0.103 -0.471315,0.2655 -0.119856,0.163 -0.181277,0.3192 -0.181275,0.531 -2e-6,0.2119 0.06142,0.4094 0.181275,0.5642 0.119852,0.1548 0.276551,0.2324 0.471315,0.2323 0.187268,10e-5 0.322693,-0.078 0.435059,-0.2323 0.119851,-0.1548 0.181272,-0.3523 0.181276,-0.5642 -4e-6,-0.2118 -0.06143,-0.368 -0.181276,-0.531 -0.11236,-0.1629 -0.247791,-0.2654 -0.435059,-0.2655 z"
       id="text3003"
       inkscape:connector-curvature="0" />
    <path
       style="fill:#000000;fill-opacity:0.49771693;fill-rule:evenodd;stroke:none"
       d="m 94,1032.3622 0,-20 -49,-12.45765 -10,17.45765 59,15 z"
       id="rect3069"
       inkscape:connector-curvature="0"
       inkscape:transform-center-x="-29.5"
       inkscape:transform-center-y="-1.228805" />
    <g
       id="g3857"
       transform="matrix(0.90873417,-0.90873417,0.90873417,0.90873417,-910.087,109.37846)">
      <path
         sodipodi:nodetypes="ccccc"
         inkscape:connector-curvature="0"
         id="rect3766"
         d="m 33.752949,1027.2546 3.392404,-3.8313 26.159377,0 0,3.8313 z"
         style="fill:#4d4d4d;fill-opacity:1;fill-rule:nonzero;stroke:none" />
      <path
         inkscape:connector-curvature="0"
         id="path3769"
         d="m 37.15625,1015.7684 -3.40625,3.8125 3.40625,3.8438 26.15625,0 0,-3.8438 0,-3.8125 -26.15625,0 z"
         style="fill:#b3b3b3;fill-opacity:1;fill-rule:nonzero;stroke:none" />
      <path
         style="fill:#ffcc00;fill-opacity:1;fill-rule:nonzero;stroke:none"
         d="m 33.75295,1011.9295 3.392403,3.8313 26.159389,0 0,-3.8313 z"
         id="path3773"
         inkscape:connector-curvature="0"
         sodipodi:nodetypes="ccccc" />
      <path
         sodipodi:nodetypes="ccccccc"
         inkscape:connector-curvature="0"
         id="rect3777"
         d="m 33.75295,1027.2546 3.392403,-3.8313 -3.392403,-3.8313 3.392403,-3.8312 -3.392403,-3.8313 -13.338135,7.6595 z"
         style="fill:url(#linearGradient3868);fill-opacity:1;fill-rule:nonzero;stroke:none" />
      <path
         sodipodi:nodetypes="ccccc"
         inkscape:connector-curvature="0"
         id="path3782"
         d="m 33.75295,1011.9295 3.392403,3.8313 26.159389,0 0,-3.8313 z"
         style="fill:#e6e6e6;fill-opacity:1;fill-rule:nonzero;stroke:none" />
      <rect
         transform="matrix(0,1,1,0,0,0)"
         y="63.304752"
         x="1011.9294"
         height="14.986588"
         width="15.325094"
         id="rect3784"
         style="fill:url(#linearGradient3870);fill-opacity:1;fill-rule:nonzero;stroke:none" />
      <rect
         transform="matrix(0,1,1,0,0,0)"
         style="fill:url(#linearGradient3872);fill-opacity:1;fill-rule:nonzero;stroke:none"
         id="rect3786"
         width="15.325094"
         height="6.8015881"
         x="1011.9294"
         y="63.304752" />
      <path
         sodipodi:nodetypes="cccc"
         id="path3795"
         d="m 25.754336,1016.524 -5.343036,3.0638 5.343036,3.0744 z"
         style="fill:#4d4d4d;fill-opacity:1;fill-rule:nonzero;stroke:none"
         inkscape:connector-curvature="0" />
      <rect
         transform="matrix(0,-1,1,0,0,0)"
         y="65.149246"
         x="-1027.2545"
         height="3.1125743"
         width="15.325094"
         id="rect3797"
         style="fill:url(#linearGradient3051);fill-opacity:1;fill-rule:nonzero;stroke:none" />
    </g>
  </g>
</svg>
