<?xml version="1.0" encoding="UTF-8" standalone="no"?>
<!-- Created with Inkscape (http://www.inkscape.org/) -->

<svg
   xmlns:dc="http://purl.org/dc/elements/1.1/"
   xmlns:cc="http://creativecommons.org/ns#"
   xmlns:rdf="http://www.w3.org/1999/02/22-rdf-syntax-ns#"
   xmlns:svg="http://www.w3.org/2000/svg"
   xmlns="http://www.w3.org/2000/svg"
   xmlns:xlink="http://www.w3.org/1999/xlink"
   xmlns:sodipodi="http://sodipodi.sourceforge.net/DTD/sodipodi-0.dtd"
   xmlns:inkscape="http://www.inkscape.org/namespaces/inkscape"
   width="96"
   height="96"
   id="svg2"
   version="1.1"
   inkscape:version="0.48.4 r9939"
   sodipodi:docname="omgubuntu.svg">
  <defs
     id="defs4">
    <linearGradient
       id="linearGradient3784">
      <stop
         style="stop-color:#ff6600;stop-opacity:1;"
         offset="0"
         id="stop3786" />
      <stop
         style="stop-color:#ff8c00;stop-opacity:1;"
         offset="1"
         id="stop3788" />
    </linearGradient>
    <linearGradient
       inkscape:collect="always"
       xlink:href="#linearGradient3784"
       id="linearGradient3790"
       x1="40"
       y1="1047.3622"
       x2="40"
       y2="957.36218"
       gradientUnits="userSpaceOnUse" />
  </defs>
  <sodipodi:namedview
     id="base"
     pagecolor="#ffffff"
     bordercolor="#666666"
     borderopacity="1.0"
     inkscape:pageopacity="0.0"
     inkscape:pageshadow="2"
     inkscape:zoom="5.90625"
     inkscape:cx="46.925708"
     inkscape:cy="48"
     inkscape:document-units="px"
     inkscape:current-layer="layer1"
     showgrid="true"
     inkscape:snap-page="true"
     inkscape:snap-global="true"
     inkscape:snap-center="true"
     inkscape:snap-object-midpoints="false"
     showguides="true"
     inkscape:guide-bbox="true"
     inkscape:snap-bbox="true"
     inkscape:object-paths="true"
     inkscape:object-nodes="true"
     inkscape:window-width="1305"
     inkscape:window-height="744"
     inkscape:window-x="61"
     inkscape:window-y="24"
     inkscape:window-maximized="1"
     inkscape:snap-midpoints="false"
     inkscape:snap-grids="true"
     inkscape:snap-to-guides="false">
    <inkscape:grid
       type="xygrid"
       id="grid3002"
       empspacing="5"
       visible="true"
       enabled="true"
       snapvisiblegridlinesonly="true" />
  </sodipodi:namedview>
  <metadata
     id="metadata7">
    <rdf:RDF>
      <cc:Work
         rdf:about="">
        <dc:format>image/svg+xml</dc:format>
        <dc:type
           rdf:resource="http://purl.org/dc/dcmitype/StillImage" />
        <dc:title />
      </cc:Work>
    </rdf:RDF>
  </metadata>
  <g
     inkscape:label="Layer 1"
     inkscape:groupmode="layer"
     id="layer1"
     transform="translate(0,-956.36218)">
    <rect
       style="fill:#ffffff;fill-opacity:0;fill-rule:nonzero;stroke:none"
       id="rect3775"
       width="96"
       height="96"
       x="0"
       y="956.36218"
       ry="0" />
    <path
       style="fill:#000000;fill-opacity:0.09589041;fill-rule:nonzero;stroke:none"
       d="m 3.353015,956.30662 c -1.884176,0 -3.4111555,1.43156 -3.4111555,3.19799 l 0,83.65949 c 0,1.7665 1.5269795,3.1981 3.4111555,3.1981 l 89.23583,0 c 1.884174,0 3.411155,-1.4316 3.411155,-3.1981 l 0,-83.65949 c 0,-1.76643 -1.526981,-3.19799 -3.411155,-3.19799 z"
       id="rect3772"
       inkscape:connector-curvature="0"
       sodipodi:nodetypes="sssssssss" />
    <path
       style="fill:#000000;fill-opacity:0.18721463;fill-rule:nonzero;stroke:none"
       d="m 1.0459761,1041.8066 0,7.4219 c 0,1.7392 1.461916,3.1337 3.2852054,3.1337 l 86.3836135,0 c 1.823288,0 3.285205,-1.3945 3.285205,-3.1337 l 0,-7.4219 -92.9540239,0 z"
       id="rect3785"
       inkscape:connector-curvature="0" />
    <path
       style="fill:#000000;fill-opacity:0.38356168;fill-rule:nonzero;stroke:none"
       d="m 1.0459761,1041.8066 0,5.3807 c 0,1.762 1.461916,3.1749 3.2852054,3.1749 l 86.3836135,0 c 1.823288,0 3.285205,-1.4129 3.285205,-3.1749 l 0,-5.3807 -92.9540239,0 z"
       id="rect3783"
       inkscape:connector-curvature="0" />
    <rect
       style="fill:url(#linearGradient3790);fill-opacity:1;fill-rule:nonzero;stroke:none"
       id="rect2985"
       width="92.954025"
       height="89"
       x="1.045977"
       y="957.36218"
       ry="3.1511393" />
    <path
       style="fill:#000000;fill-opacity:0.38356168;fill-rule:nonzero;stroke:none"
       d="m 1,1042.3622 0.045976,2.7457 c 0.03024,1.8058 1.461916,3.2543 3.2852054,3.2543 l 86.3836136,0 c 1.823288,0 3.285205,-1.4481 3.285205,-3.2543 l -0.04598,-2.7457 z"
       id="rect3781"
       inkscape:connector-curvature="0"
       sodipodi:nodetypes="csssscc" />
    <rect
       style="fill:#ffffff;fill-opacity:0.30000001;fill-rule:nonzero;stroke:none"
       id="rect3770"
       width="92.954033"
       height="2.000005"
       x="1.045976"
       y="1040.3622" />
    <path
       inkscape:connector-curvature="0"
       style="fill:#ffffff;fill-opacity:1;stroke:none"
       d="m 47.673803,967.36224 c -16.130302,0 -29.198416,12.96396 -29.198416,28.9758 0,16.01186 13.068114,28.97596 29.198416,28.97596 4.617674,0 8.994057,-1.0577 12.876023,-2.9518 l 12.732424,4.8211 -4.403696,-10.9212 c 4.958088,-5.1959 7.993665,-12.2023 7.993665,-19.92406 0,-16.01184 -13.068114,-28.9758 -29.198416,-28.9758 z"
       id="path3194" />
    <g
       transform="matrix(2.9641215,-0.16356551,0.16477514,2.9423583,15.582897,844.52178)"
       style="font-size:1.00904107px;font-style:normal;font-weight:normal;fill:#ff6600;fill-opacity:1;stroke:none;font-family:monospace;-inkscape-font-specification:monospace"
       id="text3198">
      <path
         inkscape:connector-curvature="0"
         d="m -0.71990286,52.193645 c -3.1e-7,-0.795947 0.2217126,-1.415634 0.66513941,-1.859064 0.44342485,-0.443422 1.06089535,-0.665135 1.85241325,-0.66514 0.8114664,5e-6 1.4366968,0.218392 1.8756931,0.655163 0.4389869,0.434561 0.6584827,1.044272 0.658488,1.829133 -5.3e-6,0.569805 -0.09645,1.037619 -0.2893356,1.403444 -0.1906782,0.36361 -0.4678193,0.647403 -0.8314243,0.851379 -0.3613963,0.201759 -0.812582,0.302638 -1.3535587,0.302638 -0.5498509,0 -1.00547091,-0.08758 -1.36686144,-0.26273 -0.35917644,-0.175153 -0.65072892,-0.452294 -0.87465832,-0.831424 -0.22393069,-0.379128 -0.33589571,-0.853594 -0.3358954,-1.423399 m 1.50654075,0.0067 c -1.81e-6,0.492205 0.0909005,0.845837 0.27270721,1.060897 0.1840196,0.215063 0.4334466,0.322594 0.7482818,0.322593 0.323698,10e-7 0.5742336,-0.105313 0.7516075,-0.315942 0.1773668,-0.210625 0.2660519,-0.588646 0.2660558,-1.134062 -3.9e-6,-0.458943 -0.093123,-0.79373 -0.2793586,-1.004361 -0.1840253,-0.212841 -0.4345609,-0.319263 -0.7516075,-0.319267 -0.3037495,4e-6 -0.5476337,0.107535 -0.7316534,0.322593 -0.18402376,0.215065 -0.27603462,0.570914 -0.27603281,1.067549"
         style="font-variant:normal;font-weight:bold;font-stretch:normal;fill:#ff6600;fill-opacity:1;font-family:Arial Black;-inkscape-font-specification:'Arial Black, Bold'"
         id="path2848" />
      <path
         inkscape:connector-curvature="0"
         d="m 4.3765435,49.752584 1.9821154,0 0.7649103,2.966521 0.7615846,-2.966521 1.9754641,0 0,4.875472 -1.2305079,0 0,-3.71813 -0.9544751,3.71813 -1.1141085,0 -0.9511493,-3.71813 0,3.71813 -1.2338336,0 0,-4.875472"
         style="font-variant:normal;font-weight:bold;font-stretch:normal;fill:#ff6600;fill-opacity:1;font-family:Arial Black;-inkscape-font-specification:'Arial Black, Bold'"
         id="path2850" />
      <path
         inkscape:connector-curvature="0"
         d="m 12.638807,52.86211 0,-1.014337 2.327988,0 0,2.07856 c -0.445648,0.303748 -0.840297,0.511049 -1.183948,0.621906 -0.341442,0.108639 -0.747177,0.162959 -1.217205,0.162959 -0.578674,0 -1.050923,-0.09866 -1.416747,-0.295987 -0.363611,-0.197324 -0.646295,-0.491094 -0.848053,-0.88131 -0.199542,-0.390213 -0.299313,-0.838073 -0.299313,-1.343581 0,-0.532109 0.109748,-0.99438 0.329244,-1.386816 0.219495,-0.394645 0.540979,-0.693958 0.964452,-0.897938 0.330351,-0.157412 0.774885,-0.23612 1.333605,-0.236125 0.538759,5e-6 0.941168,0.04878 1.207228,0.146331 0.268268,0.09756 0.489981,0.249432 0.665139,0.45562 0.177366,0.203981 0.310393,0.463385 0.399084,0.778214 l -1.45333,0.259404 c -0.05987,-0.184018 -0.161854,-0.324806 -0.305964,-0.422364 -0.1419,-0.09755 -0.323704,-0.146326 -0.545414,-0.14633 -0.330355,4e-6 -0.594194,0.115294 -0.791516,0.345872 -0.19511,0.228368 -0.292663,0.590869 -0.292661,1.087503 -2e-6,0.527679 0.09866,0.904591 0.295987,1.130737 0.199539,0.226149 0.47668,0.339222 0.831424,0.339221 0.168499,10e-7 0.329241,-0.02439 0.482226,-0.07317 0.152978,-0.04878 0.328132,-0.131918 0.52546,-0.249427 l 0,-0.458947 -1.007686,0"
         style="font-variant:normal;font-weight:bold;font-stretch:normal;fill:#ff6600;fill-opacity:1;font-family:Arial Black;-inkscape-font-specification:'Arial Black, Bold'"
         id="path2852" />
      <path
         inkscape:connector-curvature="0"
         d="m 15.02481,49.752584 1.446678,0 0,1.110783 -0.279359,2.231542 -0.894612,0 -0.272707,-2.231542 0,-1.110783 m 0.04988,3.681546 1.350233,0 0,1.193926 -1.350233,0 0,-1.193926"
         style="font-variant:normal;font-weight:bold;font-stretch:normal;fill:#ff6600;fill-opacity:1;font-family:Arial Black;-inkscape-font-specification:'Arial Black, Bold'"
         id="path2854" />
    </g>
  </g>
</svg>
