<?xml version="1.0" encoding="UTF-8" standalone="no"?>
<!-- Created with Inkscape (http://www.inkscape.org/) -->

<svg
   xmlns:dc="http://purl.org/dc/elements/1.1/"
   xmlns:cc="http://creativecommons.org/ns#"
   xmlns:rdf="http://www.w3.org/1999/02/22-rdf-syntax-ns#"
   xmlns:svg="http://www.w3.org/2000/svg"
   xmlns="http://www.w3.org/2000/svg"
   xmlns:sodipodi="http://sodipodi.sourceforge.net/DTD/sodipodi-0.dtd"
   xmlns:inkscape="http://www.inkscape.org/namespaces/inkscape"
   width="96"
   height="96"
   id="svg2"
   version="1.1"
   inkscape:version="0.48.4 r9939"
   sodipodi:docname="omgword.svg">
  <defs
     id="defs4" />
  <sodipodi:namedview
     id="base"
     pagecolor="#ffffff"
     bordercolor="#666666"
     borderopacity="1.0"
     inkscape:pageopacity="0.0"
     inkscape:pageshadow="2"
     inkscape:zoom="5.90625"
     inkscape:cx="30.396926"
     inkscape:cy="48"
     inkscape:document-units="px"
     inkscape:current-layer="layer1"
     showgrid="true"
     inkscape:snap-page="true"
     inkscape:snap-global="true"
     inkscape:snap-center="true"
     inkscape:snap-object-midpoints="false"
     showguides="true"
     inkscape:guide-bbox="true"
     inkscape:snap-bbox="true"
     inkscape:object-paths="true"
     inkscape:object-nodes="true"
     inkscape:window-width="1305"
     inkscape:window-height="744"
     inkscape:window-x="61"
     inkscape:window-y="24"
     inkscape:window-maximized="1"
     inkscape:snap-midpoints="false"
     inkscape:snap-grids="true"
     inkscape:snap-to-guides="false">
    <inkscape:grid
       type="xygrid"
       id="grid3002"
       empspacing="5"
       visible="true"
       enabled="true"
       snapvisiblegridlinesonly="true" />
  </sodipodi:namedview>
  <metadata
     id="metadata7">
    <rdf:RDF>
      <cc:Work
         rdf:about="">
        <dc:format>image/svg+xml</dc:format>
        <dc:type
           rdf:resource="http://purl.org/dc/dcmitype/StillImage" />
        <dc:title />
      </cc:Work>
    </rdf:RDF>
  </metadata>
  <g
     inkscape:label="Layer 1"
     inkscape:groupmode="layer"
     id="layer1"
     transform="translate(0,-956.36218)">
    <rect
       style="fill:#ffffff;fill-opacity:0;fill-rule:nonzero;stroke:none"
       id="rect3775"
       width="96"
       height="96"
       x="0"
       y="956.36218"
       ry="0" />
    <path
       style="fill:#000000;fill-opacity:0.09589041;fill-rule:nonzero;stroke:none"
       d="m 3.353015,956.30662 c -1.884176,0 -3.4111555,1.43156 -3.4111555,3.19799 l 0,83.65949 c 0,1.7665 1.5269795,3.1981 3.4111555,3.1981 l 89.23583,0 c 1.884174,0 3.411155,-1.4316 3.411155,-3.1981 l 0,-83.65949 c 0,-1.76643 -1.526981,-3.19799 -3.411155,-3.19799 z"
       id="rect3772"
       inkscape:connector-curvature="0"
       sodipodi:nodetypes="sssssssss" />
    <path
       style="fill:#000000;fill-opacity:0.18721463;fill-rule:nonzero;stroke:none"
       d="m 1.0459761,1041.8066 0,7.4219 c 0,1.7392 1.461916,3.1337 3.2852054,3.1337 l 86.3836135,0 c 1.823288,0 3.285205,-1.3945 3.285205,-3.1337 l 0,-7.4219 -92.9540239,0 z"
       id="rect3785"
       inkscape:connector-curvature="0" />
    <path
       style="fill:#000000;fill-opacity:0.38356168;fill-rule:nonzero;stroke:none"
       d="m 1.0459761,1041.8066 0,5.3807 c 0,1.762 1.461916,3.1749 3.2852054,3.1749 l 86.3836135,0 c 1.823288,0 3.285205,-1.4129 3.285205,-3.1749 l 0,-5.3807 -92.9540239,0 z"
       id="rect3783"
       inkscape:connector-curvature="0" />
    <rect
       style="fill:#ef6b00;fill-opacity:1;fill-rule:nonzero;stroke:none"
       id="rect2985-2"
       width="93"
       height="88.999962"
       x="0.9999969"
       y="957.36224"
       ry="3.1511383" />
    <path
       style="fill:#000000;fill-opacity:0.38356168;fill-rule:nonzero;stroke:none"
       d="m 1,1042.3622 0.045976,2.7457 c 0.03024,1.8058 1.461916,3.2543 3.2852054,3.2543 l 86.3836136,0 c 1.823288,0 3.285205,-1.4481 3.285205,-3.2543 l -0.04598,-2.7457 z"
       id="rect3781"
       inkscape:connector-curvature="0"
       sodipodi:nodetypes="csssscc" />
    <rect
       style="fill:#ffffff;fill-opacity:0.30000001;fill-rule:nonzero;stroke:none"
       id="rect3770"
       width="92.954033"
       height="2.000005"
       x="1.045976"
       y="1040.3622" />
    <path
       style="fill:#ffffff;fill-opacity:0.15525118;fill-rule:nonzero;stroke:none"
       d="m 20,957.36218 0,42.00002 54,0 0,-42.00002 -54,0 z"
       id="rect3799"
       inkscape:connector-curvature="0" />
    <path
       inkscape:connector-curvature="0"
       id="path3802"
       d="m 58,957.36218 0,60.00002 11,9 0,-69.00002 z"
       style="fill:#ffffff;fill-opacity:0.15525118;fill-rule:nonzero;stroke:none"
       sodipodi:nodetypes="ccccc" />
    <g
       id="g3786"
       transform="matrix(0.76459638,0,0,0.76479857,10.872631,229.88206)">
      <path
         inkscape:connector-curvature="0"
         id="path3196"
         d="m 47.1875,970.79968 c -19.475781,0 -35.25,15.22063 -35.25,34.03122 0,18.8107 15.774219,34.0625 35.25,34.0625 5.063524,0 9.866406,-1.0188 14.21875,-2.875 l 14.71875,5.4063 -4.875,-11.7188 c 6.885184,-6.216 11.1875,-15.054 11.1875,-24.875 0,-18.81059 -15.774219,-34.03122 -35.25,-34.03122 z"
         style="fill:#ffffff;fill-opacity:1;stroke:none" />
      <path
         inkscape:connector-curvature="0"
         d="m 16.246021,1000.8331 c -0.15835,-2.75113 0.51185,-4.93583 2.0106,-6.55389 1.49875,-1.61786 3.6645,-2.50298 6.497259,-2.655 2.90415,-0.15535 5.18522,0.47881 6.84324,1.90415 1.65754,1.41771 2.5644,3.48311 2.72056,6.19621 0.11335,1.96953 -0.13874,3.60513 -0.75628,4.90673 -0.61008,1.2935 -1.54548,2.3277 -2.8062,3.1026 -1.25325,0.7669 -2.84793,1.2023 -4.78403,1.3062 -1.96785,0.1054 -3.61589,-0.1091 -4.944109,-0.6454 -1.3203,-0.5365 -2.41887,-1.4385 -3.29572,-2.7059 -0.87685,-1.2676 -1.37196,-2.8862 -1.48532,-4.8557 m 5.39308,-0.2664 c 0.0979,1.7015 0.493599,2.9064 1.187049,3.6149 0.70138,0.7079 1.61544,1.0317 2.7422,0.9713 1.15848,-0.063 2.03417,-0.4744 2.62707,-1.2365 0.59287,-0.7622 0.83506,-2.086 0.72656,-3.97113 -0.0913,-1.5865 -0.49119,-2.7259 -1.19961,-3.4181 -0.70095,-0.7004 -1.61877,-1.0201 -2.75344,-0.9591 -1.08709,0.059 -1.93853,0.4769 -2.55433,1.2555 -0.615809,0.7788 -0.874309,2.0266 -0.775499,3.74313"
         style="font-size:1.00904107px;font-style:normal;font-variant:normal;font-weight:bold;font-stretch:normal;fill:#ff6600;fill-opacity:1;stroke:none;font-family:Arial Black;-inkscape-font-specification:'Arial Black, Bold'"
         id="path2848" />
      <path
         inkscape:connector-curvature="0"
         d="m 34,991.41597 7.09377,-0.3808 3.32772,10.10713 2.13544,-10.40044 7.069967,-0.37968 0.969975,16.85282 -4.403852,0.2363 -0.73972,-12.85213 -2.67624,13.03563 -3.98728,0.2141 -4.14378,-12.66943 0.73973,12.85223 -4.41576,0.237 L 34,991.41597"
         style="font-size:1.00904107px;font-style:normal;font-variant:normal;font-weight:bold;font-stretch:normal;fill:#ff6600;fill-opacity:1;stroke:none;font-family:Arial Black;-inkscape-font-specification:'Arial Black, Bold'"
         id="path2850" />
      <path
         inkscape:connector-curvature="0"
         d="m 64.188371,1000.5769 -0.201802,-3.50623 8.331614,-0.4473 0.413529,7.18483 c -1.534495,1.1355 -2.905658,1.928 -4.113491,2.3772 -1.200371,0.4411 -2.641645,0.7068 -4.323824,0.7971 -2.071011,0.111 -3.780767,-0.1387 -5.129269,-0.7509 -1.340581,-0.6121 -2.410722,-1.5733 -3.210425,-2.8834 -0.791773,-1.3105 -1.237943,-2.8393 -1.338514,-4.58663 -0.10586,-1.8394 0.194944,-3.4583 0.902421,-4.85705 0.707034,-1.40628 1.798042,-2.50279 3.273023,-3.28916 1.150973,-0.60772 2.726253,-0.9652 4.72585,-1.07247 1.928161,-0.10357 3.378042,-0.0185 4.349648,0.2739 0.979511,0.28554 1.803214,0.76787 2.471106,1.44697 0.675356,0.67115 1.203054,1.54222 1.583105,2.61339 l -5.149701,1.17582 c -0.25088,-0.6245 -0.643878,-1.09148 -1.179042,-1.40107 -0.527252,-0.30996 -1.187611,-0.44368 -1.981089,-0.40095 -1.182304,0.0629 -2.103618,0.51265 -2.763938,1.34762 -0.652844,0.8269 -0.929855,2.0987 -0.831043,3.8154 0.104972,1.82403 0.533063,3.10783 1.284265,3.85163 0.759121,0.7433 1.773475,1.081 3.043063,1.0127 0.603041,-0.033 1.173466,-0.1479 1.711278,-0.3456 0.537786,-0.1979 1.148103,-0.519 1.83094,-0.963 l -0.09131,-1.5865 -3.606398,0.1935"
         style="font-size:1.00904107px;font-style:normal;font-variant:normal;font-weight:bold;font-stretch:normal;fill:#ff6600;fill-opacity:1;stroke:none;font-family:Arial Black;-inkscape-font-specification:'Arial Black, Bold'"
         id="path2852" />
      <path
         inkscape:connector-curvature="0"
         d="m 72.108973,989.36979 5.177503,-0.27797 0.220991,3.83973 -0.555831,7.76725 -3.201718,0.172 -1.419954,-7.6611 -0.220991,-3.83973 m 0.910959,12.71623 4.832336,-0.2595 0.237532,4.127 -4.832336,0.2594 -0.237532,-4.1269"
         style="font-size:1.00904107px;font-style:normal;font-variant:normal;font-weight:bold;font-stretch:normal;fill:#ff6600;fill-opacity:1;stroke:none;font-family:Arial Black;-inkscape-font-specification:'Arial Black, Bold'"
         id="path2854" />
      <path
         inkscape:connector-curvature="0"
         d="m 16.814631,1009.9861 3.22234,-0.1738 1.50617,5.8646 1.348969,-6.0196 3.21484,-0.1739 2.04573,5.8356 0.81691,-5.9907 3.20735,-0.1739 -1.80361,10.7421 -3.32725,0.1812 -2.31431,-6.5761 -1.53002,6.7846 -3.327249,0.1812 -3.05987,-10.4782"
         style="font-size:2.16666675px;font-style:normal;font-weight:normal;fill:#ff6600;fill-opacity:1;stroke:none;font-family:ARIAL BLACK;-inkscape-font-specification:ARIAL BLACK"
         id="path2835" />
      <path
         inkscape:connector-curvature="0"
         d="m 31.82106,1014.5014 c -0.10072,-1.7321 0.32047,-3.1079 1.26353,-4.1271 0.94307,-1.0192 2.30636,-1.5774 4.08989,-1.6741 1.82849,-0.1 3.26495,0.2998 4.30941,1.1968 1.04416,0.8921 1.61589,2.1921 1.71521,3.9004 0.0721,1.24 -0.086,2.2699 -0.47438,3.0896 -0.38365,0.8146 -0.97223,1.4662 -1.76573,1.9546 -0.78881,0.4833 -1.7927,0.7579 -3.01169,0.8239 -1.23898,0.067 -2.27671,-0.068 -3.1132,-0.4046 -0.83149,-0.3374 -1.52351,-0.9049 -2.07607,-1.7026 -0.55255,-0.7978 -0.86488,-1.8167 -0.93697,-3.0569 m 3.39554,-0.1701 c 0.0623,1.0713 0.31185,1.8298 0.74872,2.2757 0.44187,0.4455 1.01751,0.6489 1.72693,0.6105 0.72939,-0.039 1.2806,-0.2993 1.65362,-0.7794 0.37301,-0.4801 0.52502,-1.3136 0.45601,-2.5007 -0.0581,-0.9987 -0.31026,-1.7159 -0.75655,-2.1516 -0.4416,-0.4408 -1.0196,-0.6418 -1.734,-0.6029 -0.68444,0.037 -1.22038,0.3009 -1.60782,0.7913 -0.38745,0.4907 -0.54976,1.2763 -0.48691,2.3571"
         style="font-size:2.16666675px;font-style:normal;font-weight:normal;fill:#ff6600;fill-opacity:1;stroke:none;font-family:ARIAL BLACK;-inkscape-font-specification:ARIAL BLACK"
         id="path2837" />
      <path
         inkscape:connector-curvature="0"
         d="m 44.04644,1019.1532 -0.61689,-10.6106 5.65783,-0.307 c 1.04912,-0.057 1.856009,-0.019 2.420656,0.1295 0.564632,0.1443 1.030558,0.4426 1.39778,0.8971 0.36692,0.4496 0.570023,1.0122 0.609308,1.6876 0.03421,0.5889 -0.06608,1.1049 -0.300891,1.5485 -0.235107,0.4387 -0.572253,0.803 -1.011441,1.093 -0.279949,0.185 -0.668986,0.3461 -1.167109,0.4846 0.412233,0.1072 0.714562,0.2225 0.906994,0.3429 0.12994,0.08 0.320585,0.2559 0.571955,0.528 0.256344,0.2716 0.428974,0.4825 0.517896,0.6326 l 1.819984,2.987 -3.83683,0.2081 -2.002022,-3.1442 c -0.25422,-0.4072 -0.4749,-0.6687 -0.66204,-0.7845 -0.25434,-0.1517 -0.53638,-0.2177 -0.84612,-0.201 l -0.29975,0.018 0.25038,4.3066 -3.40969,0.1849 m 3.04275,-6.4962 1.43132,-0.078 c 0.15487,0 0.45181,-0.072 0.89084,-0.1936 0.22228,-0.055 0.39818,-0.1757 0.52769,-0.3625 0.13449,-0.1864 0.19501,-0.3954 0.18156,-0.6271 -0.0199,-0.3425 -0.14762,-0.5994 -0.38309,-0.7707 -0.23549,-0.172 -0.66297,-0.2398 -1.28245,-0.2062 l -1.49126,0.081 0.12538,2.1569"
         style="font-size:2.16666675px;font-style:normal;font-weight:normal;fill:#ff6600;fill-opacity:1;stroke:none;font-family:ARIAL BLACK;-inkscape-font-specification:ARIAL BLACK"
         id="path2839" />
      <path
         inkscape:connector-curvature="0"
         d="m 54.456911,1007.9445 5.043335,-0.2735 c 0.994171,-0.054 1.803579,0.033 2.428234,0.2604 0.629631,0.2271 1.158454,0.5737 1.586465,1.0394 0.427995,0.4657 0.750716,1.0168 0.968169,1.6537 0.217425,0.6368 0.347196,1.3172 0.389275,2.0408 0.06591,1.1341 -0.01775,2.022 -0.251075,2.6639 -0.228605,0.6368 -0.567859,1.1803 -1.017771,1.6306 -0.450212,0.4457 -0.94352,0.7531 -1.479925,0.9227 -0.73317,0.2334 -1.402002,0.3664 -2.006494,0.3991 l -5.043335,0.2735 -0.616889,-10.6106 m 3.5344,2.2188 0.337059,5.7977 0.831813,-0.044 c 0.709407,-0.039 1.209639,-0.1406 1.500706,-0.3065 0.290782,-0.1701 0.510142,-0.4488 0.658131,-0.8344 0.147693,-0.3904 0.196843,-1.0102 0.147471,-1.8594 -0.06538,-1.1244 -0.299962,-1.8836 -0.703765,-2.2781 -0.403815,-0.3943 -1.04536,-0.5678 -1.924626,-0.52 l -0.8468,0.046"
         style="font-size:2.16666675px;font-style:normal;font-weight:normal;fill:#ff6600;fill-opacity:1;stroke:none;font-family:ARIAL BLACK;-inkscape-font-specification:ARIAL BLACK"
         id="path2841" />
      <path
         inkscape:connector-curvature="0"
         d="m 65.2601,1014.4813 3.218467,-0.3707 c 0.09939,0.5029 0.264228,0.8813 0.494477,1.135 0.374685,0.4104 0.886745,0.5981 1.536211,0.563 0.484594,-0.026 0.850476,-0.1554 1.097642,-0.3864 0.251855,-0.2363 0.369392,-0.4993 0.352568,-0.7887 -0.01591,-0.275 -0.155202,-0.5143 -0.417612,-0.718 -0.262423,-0.2036 -0.853868,-0.3772 -1.774331,-0.5209 -1.507572,-0.2425 -2.594158,-0.6144 -3.259771,-1.1156 -0.670613,-0.501 -1.030042,-1.1664 -1.078295,-1.9963 -0.0317,-0.5453 0.100792,-1.068 0.39747,-1.5681 0.301381,-0.5052 0.771322,-0.913 1.409792,-1.2237 0.643182,-0.3155 1.536801,-0.5043 2.680861,-0.5665 1.403833,-0.076 2.487674,0.1184 3.25153,0.5861 0.768559,0.4618 1.254761,1.2389 1.458617,2.3314 l -3.189336,0.3545 c -0.112703,-0.4731 -0.312764,-0.8108 -0.60015,-1.0129 -0.282393,-0.2025 -0.663407,-0.2908 -1.143006,-0.2649 -0.394677,0.022 -0.687166,0.1202 -0.877455,0.2945 -0.190579,0.1701 -0.279138,0.3709 -0.265673,0.6025 0.0098,0.1683 0.10107,0.3164 0.273803,0.4426 0.168,0.1313 0.555263,0.2409 1.161784,0.3291 1.50172,0.2284 2.581576,0.4844 3.239568,0.7683 0.662696,0.2785 1.152531,0.6441 1.469513,1.0965 0.321959,0.452 0.499776,0.9676 0.53345,1.5467 0.03954,0.6802 -0.118843,1.318 -0.475111,1.9133 -0.356304,0.5954 -0.875465,1.0616 -1.557485,1.3988 -0.682321,0.3323 -1.555532,0.5272 -2.619645,0.5849 -1.868463,0.1017 -3.182588,-0.1757 -3.942388,-0.8317 -0.759802,-0.6558 -1.218305,-1.5167 -1.375502,-2.5828"
         style="font-size:2.16666675px;font-style:normal;font-weight:normal;fill:#ff6600;fill-opacity:1;stroke:none;font-family:ARIAL BLACK;-inkscape-font-specification:ARIAL BLACK"
         id="path2843" />
      <path
         inkscape:connector-curvature="0"
         d="m 74.755433,1006.8436 3.259806,-0.1775 0.140537,2.4175 -0.347122,4.8907 -2.015836,0.1092 -0.896847,-4.8233 -0.140554,-2.4175 m 0.578233,8.0062 3.042488,-0.1646 0.151059,2.5984 -3.042488,0.1646 -0.151059,-2.5984"
         style="font-size:2.16666675px;font-style:normal;font-weight:normal;fill:#ff6600;fill-opacity:1;stroke:none;font-family:ARIAL BLACK;-inkscape-font-specification:ARIAL BLACK"
         id="path2845" />
    </g>
  </g>
</svg>
