<?xml version="1.0" encoding="UTF-8" standalone="no"?>
<!-- Created with Inkscape (http://www.inkscape.org/) -->

<svg
   xmlns:dc="http://purl.org/dc/elements/1.1/"
   xmlns:cc="http://creativecommons.org/ns#"
   xmlns:rdf="http://www.w3.org/1999/02/22-rdf-syntax-ns#"
   xmlns:svg="http://www.w3.org/2000/svg"
   xmlns="http://www.w3.org/2000/svg"
   xmlns:xlink="http://www.w3.org/1999/xlink"
   xmlns:sodipodi="http://sodipodi.sourceforge.net/DTD/sodipodi-0.dtd"
   xmlns:inkscape="http://www.inkscape.org/namespaces/inkscape"
   width="96"
   height="96"
   id="svg2"
   version="1.1"
   inkscape:version="0.48.4 r9939"
   sodipodi:docname="onboard.svg">
  <defs
     id="defs4">
    <linearGradient
       id="linearGradient3770">
      <stop
         style="stop-color:#004ae2;stop-opacity:1;"
         offset="0"
         id="stop3772" />
      <stop
         style="stop-color:#00bce2;stop-opacity:1;"
         offset="1"
         id="stop3774" />
    </linearGradient>
    <linearGradient
       inkscape:collect="always"
       xlink:href="#linearGradient3770"
       id="linearGradient3776"
       x1="45"
       y1="-1047.3622"
       x2="45"
       y2="-957.36218"
       gradientUnits="userSpaceOnUse" />
  </defs>
  <sodipodi:namedview
     id="base"
     pagecolor="#ffffff"
     bordercolor="#666666"
     borderopacity="1.0"
     inkscape:pageopacity="0.0"
     inkscape:pageshadow="2"
     inkscape:zoom="5.90625"
     inkscape:cx="48"
     inkscape:cy="48"
     inkscape:document-units="px"
     inkscape:current-layer="layer1"
     showgrid="true"
     inkscape:snap-page="true"
     inkscape:snap-global="true"
     inkscape:snap-center="true"
     inkscape:snap-object-midpoints="false"
     showguides="true"
     inkscape:guide-bbox="true"
     inkscape:snap-bbox="true"
     inkscape:object-paths="true"
     inkscape:object-nodes="true"
     inkscape:window-width="1305"
     inkscape:window-height="744"
     inkscape:window-x="61"
     inkscape:window-y="24"
     inkscape:window-maximized="1"
     inkscape:snap-midpoints="false"
     inkscape:snap-grids="true"
     inkscape:snap-to-guides="false">
    <inkscape:grid
       type="xygrid"
       id="grid3002"
       empspacing="5"
       visible="true"
       enabled="true"
       snapvisiblegridlinesonly="true" />
  </sodipodi:namedview>
  <metadata
     id="metadata7">
    <rdf:RDF>
      <cc:Work
         rdf:about="">
        <dc:format>image/svg+xml</dc:format>
        <dc:type
           rdf:resource="http://purl.org/dc/dcmitype/StillImage" />
        <dc:title />
      </cc:Work>
    </rdf:RDF>
  </metadata>
  <g
     inkscape:label="Layer 1"
     inkscape:groupmode="layer"
     id="layer1"
     transform="translate(0,-956.36218)">
    <rect
       style="fill:#ffffff;fill-opacity:0;fill-rule:nonzero;stroke:none"
       id="rect3775"
       width="96"
       height="96"
       x="0"
       y="956.36218"
       ry="0" />
    <path
       style="fill:#000000;fill-opacity:0.09589041;fill-rule:nonzero;stroke:none"
       d="m 3.353015,956.30662 c -1.884176,0 -3.4111555,1.43156 -3.4111555,3.19799 l 0,83.65949 c 0,1.7665 1.5269795,3.1981 3.4111555,3.1981 l 89.23583,0 c 1.884174,0 3.411155,-1.4316 3.411155,-3.1981 l 0,-83.65949 c 0,-1.76643 -1.526981,-3.19799 -3.411155,-3.19799 z"
       id="rect3772"
       inkscape:connector-curvature="0"
       sodipodi:nodetypes="sssssssss" />
    <path
       style="fill:#000000;fill-opacity:0.18721463;fill-rule:nonzero;stroke:none"
       d="m 1.0459761,1041.8066 0,7.4219 c 0,1.7392 1.461916,3.1337 3.2852054,3.1337 l 86.3836135,0 c 1.823288,0 3.285205,-1.3945 3.285205,-3.1337 l 0,-7.4219 -92.9540239,0 z"
       id="rect3785"
       inkscape:connector-curvature="0" />
    <path
       style="fill:#000000;fill-opacity:0.38356168;fill-rule:nonzero;stroke:none"
       d="m 1.0459761,1041.8066 0,5.3807 c 0,1.762 1.461916,3.1749 3.2852054,3.1749 l 86.3836135,0 c 1.823288,0 3.285205,-1.4129 3.285205,-3.1749 l 0,-5.3807 -92.9540239,0 z"
       id="rect3783"
       inkscape:connector-curvature="0" />
    <rect
       style="fill:url(#linearGradient3776);fill-opacity:1;fill-rule:nonzero;stroke:none"
       id="rect2985"
       width="92.954025"
       height="89"
       x="1.045977"
       y="-1046.3622"
       ry="3.1511393"
       transform="scale(1,-1)" />
    <path
       style="fill:#000000;fill-opacity:0.38356168;fill-rule:nonzero;stroke:none"
       d="m 1,1042.3622 0.045976,2.7457 c 0.03024,1.8058 1.461916,3.2543 3.2852054,3.2543 l 86.3836136,0 c 1.823288,0 3.285205,-1.4481 3.285205,-3.2543 l -0.04598,-2.7457 z"
       id="rect3781"
       inkscape:connector-curvature="0"
       sodipodi:nodetypes="csssscc" />
    <rect
       style="fill:#ffffff;fill-opacity:0.30000001;fill-rule:nonzero;stroke:none"
       id="rect3770"
       width="92.954033"
       height="2.000005"
       x="1.045976"
       y="1040.3622" />
    <path
       inkscape:connector-curvature="0"
       style="fill:#fcb514;fill-opacity:1;fill-rule:nonzero;stroke:none"
       d="m 48,1033.6747 0,-34.31252 -34.3125,0 0,34.31252 34.3125,0 z"
       id="path2994" />
    <path
       id="path2996"
       d="m 82.3125,999.3622 0,-34.31252 -34.3125,0 0,34.31252 34.3125,0 z"
       style="fill:#fcb514;fill-opacity:1;fill-rule:nonzero;stroke:none"
       inkscape:connector-curvature="0" />
    <path
       inkscape:connector-curvature="0"
       id="path3003"
       style="font-size:36.73825455px;font-style:normal;font-variant:normal;font-weight:normal;font-stretch:normal;text-align:end;line-height:125%;letter-spacing:0px;word-spacing:0px;text-anchor:end;fill:#ffffff;fill-opacity:1;stroke:none;font-family:AvantGarde LT Medium;-inkscape-font-specification:AvantGarde LT Medium"
       d="m 39.301594,981.42819 c -2.6e-5,-1.2001 -0.220455,-2.42471 -0.661288,-3.67382 -0.416392,-1.24908 -1.053188,-2.38797 -1.91039,-3.41666 -0.832756,-1.02865 -1.885918,-1.86138 -3.15949,-2.4982 -1.273611,-0.66127 -2.755386,-0.99191 -4.445328,-0.99193 -1.76345,2e-5 -3.281963,0.34291 -4.555544,1.02867 -1.273603,0.6858 -2.326765,1.55527 -3.15949,2.60841 -0.832741,1.02869 -1.45729,2.15533 -1.873651,3.37992 -0.39188,1.22463 -0.587817,2.37576 -0.587812,3.4534 -5e-6,1.10216 0.195932,2.27778 0.587812,3.52687 0.416361,1.22462 1.04091,2.35126 1.873651,3.37992 0.832725,1.02868 1.885887,1.8859 3.15949,2.57168 1.298073,0.66129 2.816586,0.99193 4.555544,0.99193 1.763418,0 3.281931,-0.33064 4.555543,-0.99193 1.273572,-0.68578 2.326734,-1.543 3.15949,-2.57168 0.83271,-1.02866 1.445013,-2.14306 1.836913,-3.34318 0.416341,-1.2246 0.624524,-2.37573 0.62455,-3.4534 m 3.967732,-0.0367 c -3e-5,1.86141 -0.355166,3.63709 -1.06541,5.32704 -0.710301,1.68997 -1.702233,3.18399 -2.975798,4.48207 -1.273618,1.27359 -2.779885,2.30226 -4.518806,3.08601 -1.714471,0.75919 -3.575874,1.13889 -5.584214,1.13889 -2.032864,0 -3.918759,-0.3797 -5.657692,-1.13889 -1.71446,-0.78375 -3.208481,-1.82466 -4.482067,-3.12275 -1.249104,-1.29808 -2.22879,-2.7921 -2.93906,-4.48207 -0.710275,-1.71444 -1.065411,-3.50236 -1.065409,-5.36378 -2e-6,-1.8369 0.342888,-3.60033 1.028671,-5.29031 0.710269,-1.71443 1.689955,-3.2207 2.93906,-4.51881 1.249094,-1.32255 2.730869,-2.36346 4.445329,-3.12275 1.738932,-0.78372 3.64932,-1.17559 5.731168,-1.17562 2.00834,3e-5 3.869743,0.37965 5.584214,1.13888 1.738921,0.7348 3.245188,1.75122 4.518806,3.04928 1.273565,1.27361 2.265497,2.77988 2.975798,4.51881 0.710244,1.71446 1.06538,3.53913 1.06541,5.474" />
    <path
       inkscape:connector-curvature="0"
       id="path3005"
       style="font-size:36.73825455px;font-style:normal;font-variant:normal;font-weight:normal;font-stretch:normal;text-align:end;line-height:125%;letter-spacing:0px;word-spacing:0px;text-anchor:end;fill:#ffffff;fill-opacity:0.61187212;stroke:none;font-family:AvantGarde LT Medium;-inkscape-font-specification:AvantGarde LT Medium"
       d="m 62.707512,1015.0532 3.232966,0 c 0.930692,0 1.677702,-0.1224 2.241034,-0.3674 0.587799,-0.2449 1.028658,-0.551 1.322577,-0.9184 0.318384,-0.3919 0.526568,-0.8082 0.62455,-1.2491 0.122447,-0.4653 0.183677,-0.894 0.183692,-1.2858 -1.5e-5,-0.9552 -0.195952,-1.69 -0.587813,-2.2043 -0.391888,-0.5388 -0.857238,-0.9307 -1.396053,-1.1757 -0.514348,-0.2449 -1.028683,-0.3796 -1.543007,-0.4041 -0.489854,-0.049 -0.84499,-0.073 -1.065409,-0.073 l -3.012537,0 0,7.6783 m 0,12.2339 4.298376,0 c 1.004167,0 1.824653,-0.1592 2.461463,-0.4776 0.636782,-0.3184 1.138871,-0.6981 1.506268,-1.1389 0.367367,-0.4409 0.612289,-0.9062 0.734765,-1.3961 0.146937,-0.4898 0.220414,-0.9062 0.22043,-1.2491 -1.6e-5,-0.4898 -0.09799,-0.9674 -0.293906,-1.4328 -0.171461,-0.4653 -0.39189,-0.8817 -0.661289,-1.2491 -0.293921,-0.3918 -0.636811,-0.698 -1.028671,-0.9184 -0.367396,-0.2449 -0.747024,-0.4164 -1.138886,-0.5144 -0.391887,-0.098 -0.783761,-0.1592 -1.175624,-0.1837 -0.391886,-0.024 -0.759268,-0.037 -1.102148,-0.037 l -3.820778,0 0,8.5968 m -3.967732,-23.5492 7.053745,0 c 1.273582,0 2.363482,0.1469 3.269705,0.4408 0.930688,0.2695 1.702191,0.6369 2.31451,1.1022 0.63678,0.4409 1.138869,0.9429 1.506268,1.5062 0.391858,0.5634 0.685764,1.1267 0.881718,1.69 0.220412,0.5633 0.355119,1.0899 0.404121,1.5797 0.07346,0.4899 0.110197,0.894 0.110215,1.2124 -1.8e-5,0.7593 -0.08574,1.4206 -0.257168,1.9839 -0.171463,0.5388 -0.379646,1.0164 -0.62455,1.4328 -0.244939,0.3919 -0.514353,0.7347 -0.808242,1.0286 -0.26943,0.2695 -0.514351,0.5021 -0.734765,0.6981 0.29389,0.1714 0.661272,0.4163 1.102148,0.7347 0.465334,0.294 0.906192,0.7103 1.322577,1.2491 0.44084,0.5144 0.820469,1.1512 1.138886,1.9104 0.318378,0.7593 0.477577,1.6655 0.477597,2.7187 -2e-5,0.7102 -0.12248,1.5185 -0.367382,2.4247 -0.244941,0.9062 -0.698046,1.7634 -1.359316,2.5717 -0.661306,0.8082 -1.579761,1.494 -2.755369,2.0573 -1.175638,0.5633 -2.694151,0.845 -4.555543,0.845 l -8.119155,0 0,-27.1863" />
  </g>
</svg>
