<?xml version="1.0" encoding="UTF-8" standalone="no"?>
<!-- Created with Inkscape (http://www.inkscape.org/) -->

<svg
   xmlns:dc="http://purl.org/dc/elements/1.1/"
   xmlns:cc="http://creativecommons.org/ns#"
   xmlns:rdf="http://www.w3.org/1999/02/22-rdf-syntax-ns#"
   xmlns:svg="http://www.w3.org/2000/svg"
   xmlns="http://www.w3.org/2000/svg"
   xmlns:xlink="http://www.w3.org/1999/xlink"
   xmlns:sodipodi="http://sodipodi.sourceforge.net/DTD/sodipodi-0.dtd"
   xmlns:inkscape="http://www.inkscape.org/namespaces/inkscape"
   width="96"
   height="96"
   id="svg2"
   version="1.1"
   inkscape:version="0.48.4 r9939"
   sodipodi:docname="openjdk-6.svg">
  <defs
     id="defs4">
    <linearGradient
       id="linearGradient3774">
      <stop
         style="stop-color:#f96b07;stop-opacity:1;"
         offset="0"
         id="stop3776" />
      <stop
         style="stop-color:#ff9f05;stop-opacity:1;"
         offset="1"
         id="stop3778" />
    </linearGradient>
    <linearGradient
       inkscape:collect="always"
       xlink:href="#linearGradient3774"
       id="linearGradient3780"
       x1="40"
       y1="1047.3622"
       x2="40"
       y2="957.36218"
       gradientUnits="userSpaceOnUse" />
  </defs>
  <sodipodi:namedview
     id="base"
     pagecolor="#ffffff"
     bordercolor="#666666"
     borderopacity="1.0"
     inkscape:pageopacity="0.0"
     inkscape:pageshadow="2"
     inkscape:zoom="4.1763494"
     inkscape:cx="48"
     inkscape:cy="48"
     inkscape:document-units="px"
     inkscape:current-layer="layer1"
     showgrid="true"
     inkscape:snap-page="true"
     inkscape:snap-global="false"
     inkscape:snap-center="true"
     inkscape:snap-object-midpoints="false"
     showguides="true"
     inkscape:guide-bbox="true"
     inkscape:snap-bbox="true"
     inkscape:object-paths="true"
     inkscape:object-nodes="true"
     inkscape:window-width="1305"
     inkscape:window-height="744"
     inkscape:window-x="61"
     inkscape:window-y="24"
     inkscape:window-maximized="1"
     inkscape:snap-midpoints="true"
     inkscape:snap-grids="true"
     inkscape:snap-to-guides="false">
    <inkscape:grid
       type="xygrid"
       id="grid3002"
       empspacing="5"
       visible="true"
       enabled="true"
       snapvisiblegridlinesonly="true" />
  </sodipodi:namedview>
  <metadata
     id="metadata7">
    <rdf:RDF>
      <cc:Work
         rdf:about="">
        <dc:format>image/svg+xml</dc:format>
        <dc:type
           rdf:resource="http://purl.org/dc/dcmitype/StillImage" />
        <dc:title />
      </cc:Work>
    </rdf:RDF>
  </metadata>
  <g
     inkscape:label="Layer 1"
     inkscape:groupmode="layer"
     id="layer1"
     transform="translate(0,-956.36218)">
    <rect
       style="fill:#ffffff;fill-opacity:0;fill-rule:nonzero;stroke:none"
       id="rect3775"
       width="96"
       height="96"
       x="0"
       y="956.36218"
       ry="0" />
    <path
       style="fill:#000000;fill-opacity:0.09589041;fill-rule:nonzero;stroke:none"
       d="m 3.353015,956.30662 c -1.884176,0 -3.4111555,1.43156 -3.4111555,3.19799 l 0,83.65949 c 0,1.7665 1.5269795,3.1981 3.4111555,3.1981 l 89.23583,0 c 1.884174,0 3.411155,-1.4316 3.411155,-3.1981 l 0,-83.65949 c 0,-1.76643 -1.526981,-3.19799 -3.411155,-3.19799 z"
       id="rect3772"
       inkscape:connector-curvature="0"
       sodipodi:nodetypes="sssssssss" />
    <path
       style="fill:#000000;fill-opacity:0.18721463;fill-rule:nonzero;stroke:none"
       d="m 1.0459761,1041.8066 0,7.4219 c 0,1.7392 1.461916,3.1337 3.2852054,3.1337 l 86.3836135,0 c 1.823288,0 3.285205,-1.3945 3.285205,-3.1337 l 0,-7.4219 -92.9540239,0 z"
       id="rect3785"
       inkscape:connector-curvature="0" />
    <path
       style="fill:#000000;fill-opacity:0.38356168;fill-rule:nonzero;stroke:none"
       d="m 1.0459761,1041.8066 0,5.3807 c 0,1.762 1.461916,3.1749 3.2852054,3.1749 l 86.3836135,0 c 1.823288,0 3.285205,-1.4129 3.285205,-3.1749 l 0,-5.3807 -92.9540239,0 z"
       id="rect3783"
       inkscape:connector-curvature="0" />
    <rect
       style="fill:url(#linearGradient3780);fill-opacity:1;fill-rule:nonzero;stroke:none"
       id="rect2985"
       width="92.954025"
       height="89"
       x="1.045977"
       y="957.36218"
       ry="3.1511393" />
    <path
       style="fill:#000000;fill-opacity:0.38356168;fill-rule:nonzero;stroke:none"
       d="m 1,1042.3622 0.045976,2.7457 c 0.03024,1.8058 1.461916,3.2543 3.2852054,3.2543 l 86.3836136,0 c 1.823288,0 3.285205,-1.4481 3.285205,-3.2543 l -0.04598,-2.7457 z"
       id="rect3781"
       inkscape:connector-curvature="0"
       sodipodi:nodetypes="csssscc" />
    <rect
       style="fill:#ffffff;fill-opacity:0.30000001;fill-rule:nonzero;stroke:none"
       id="rect3770"
       width="92.954033"
       height="2.000005"
       x="1.045976"
       y="1040.3622" />
    <g
       transform="matrix(0.95840843,0,0,0.91970534,-10.805404,957.13871)"
       id="g898"
       style="fill:#ffffff">
      <path
         inkscape:connector-curvature="0"
         d="m 39.337621,64.040398 c 0,0 -2.520688,1.467153 1.795945,1.962239 5.230301,0.59714 7.902975,0.511146 13.665007,-0.578014 0,0 1.517961,0.949583 3.63423,1.772001 -12.921138,5.535878 -29.243197,-0.320762 -19.095182,-3.156226 l 0,0 z"
         id="path3616"
         style="fill:#ffffff;fill-rule:evenodd" />
      <path
         inkscape:connector-curvature="0"
         d="m 37.757902,56.815155 c 0,0 -2.827579,2.093493 1.492265,2.53996 5.587563,0.576846 9.998512,0.62415 17.635621,-0.845631 0,0 1.053827,1.070471 2.713408,1.655492 -15.619945,4.568921 -33.01744,0.359453 -21.841294,-3.349821 l 0,0 z"
         id="path3618"
         style="fill:#ffffff;fill-rule:evenodd" />
      <path
         inkscape:connector-curvature="0"
         d="m 51.067692,44.557149 c 3.185425,3.666787 -0.835266,6.963758 -0.835266,6.963758 0,0 8.083577,-4.17224 4.371967,-9.399474 -3.467789,-4.872455 -6.126448,-7.292841 8.266953,-15.640094 1.46e-4,0 -22.594069,5.641582 -11.803654,18.07581 l 0,0 z"
         id="path3620"
         style="fill:#ffffff;fill-rule:evenodd" />
      <path
         inkscape:connector-curvature="0"
         d="m 68.156689,69.385454 c 0,0 1.866024,1.538255 -2.055241,2.727863 -7.456361,2.258472 -31.040164,2.939707 -37.590595,0.09037 -2.353081,-1.024919 2.061665,-2.445499 3.450708,-2.745529 1.448318,-0.313315 2.275262,-0.256082 2.275262,-0.256082 -2.618801,-1.844126 -16.926503,3.621819 -7.266707,5.18942 26.342616,4.269913 48.018638,-1.923257 41.186573,-5.006045 l 0,-10e-7 z"
         id="path3622"
         style="fill:#ffffff;fill-rule:evenodd" />
      <path
         inkscape:connector-curvature="0"
         d="m 40.550735,49.327988 c 0,0 -11.994623,2.849772 -4.247429,3.885495 3.272149,0.437854 9.791191,0.337114 15.867999,-0.172717 4.964873,-0.416684 9.947412,-1.307868 9.947412,-1.307868 0,0 -1.749372,0.750439 -3.01592,1.614759 -12.182816,3.20426 -35.71333,1.711995 -28.938204,-1.563951 5.727139,-2.77064 10.386142,-2.455718 10.386142,-2.455718 l 0,0 z"
         id="path3624"
         style="fill:#ffffff;fill-rule:evenodd" />
      <path
         inkscape:connector-curvature="0"
         d="m 62.069077,61.354876 c 12.38342,-6.433194 6.657157,-12.616144 2.660556,-11.78336 -0.977324,0.203961 -1.415761,0.380621 -1.415761,0.380621 0,0 0.364123,-0.570421 1.057477,-0.815848 7.906625,-2.778377 13.985914,8.197311 -2.549742,12.544167 -1.47e-4,0 0.190092,-0.17228 0.24747,-0.32558 l 0,0 z"
         id="path3626"
         style="fill:#ffffff;fill-rule:evenodd" />
      <path
         inkscape:connector-curvature="0"
         d="m 54.604539,13 c 0,0 6.856594,6.860535 -6.505317,17.407131 -10.715372,8.463467 -2.443163,13.287304 -0.0038,18.801575 C 41.840014,43.565371 37.25182,38.596849 40.329352,33.973324 44.848634,27.187394 57.370315,23.896264 54.604493,13 l 0,0 z"
         id="path3628"
         style="fill:#ffffff;fill-rule:evenodd" />
      <path
         inkscape:connector-curvature="0"
         d="m 41.768228,78.792959 c 11.883954,0.759783 30.138176,-0.422816 30.570189,-6.046586 0,0 -0.830447,2.131889 -9.822288,3.823444 -10.144221,1.909826 -22.658748,1.687467 -30.078317,0.462383 0,0 1.520004,1.258081 9.330416,1.760759 l 0,0 z"
         id="path3630"
         style="fill:#ffffff;fill-rule:evenodd" />
    </g>
  </g>
</svg>
