<?xml version="1.0" encoding="UTF-8" standalone="no"?>
<!-- Created with Inkscape (http://www.inkscape.org/) -->

<svg
   xmlns:dc="http://purl.org/dc/elements/1.1/"
   xmlns:cc="http://creativecommons.org/ns#"
   xmlns:rdf="http://www.w3.org/1999/02/22-rdf-syntax-ns#"
   xmlns:svg="http://www.w3.org/2000/svg"
   xmlns="http://www.w3.org/2000/svg"
   xmlns:xlink="http://www.w3.org/1999/xlink"
   xmlns:sodipodi="http://sodipodi.sourceforge.net/DTD/sodipodi-0.dtd"
   xmlns:inkscape="http://www.inkscape.org/namespaces/inkscape"
   width="96"
   height="96"
   id="svg2"
   version="1.1"
   inkscape:version="0.48.4 r9939"
   sodipodi:docname="openerp-client.svg">
  <defs
     id="defs4">
    <linearGradient
       id="linearGradient3779">
      <stop
         style="stop-color:#b91500;stop-opacity:1;"
         offset="0"
         id="stop3781" />
      <stop
         style="stop-color:#f01b00;stop-opacity:1;"
         offset="1"
         id="stop3783" />
    </linearGradient>
    <linearGradient
       inkscape:collect="always"
       xlink:href="#linearGradient3779"
       id="linearGradient3786"
       x1="35"
       y1="1047.3622"
       x2="35"
       y2="957.36218"
       gradientUnits="userSpaceOnUse" />
  </defs>
  <sodipodi:namedview
     id="base"
     pagecolor="#ffffff"
     bordercolor="#666666"
     borderopacity="1.0"
     inkscape:pageopacity="0.0"
     inkscape:pageshadow="2"
     inkscape:zoom="5.90625"
     inkscape:cx="48"
     inkscape:cy="48"
     inkscape:document-units="px"
     inkscape:current-layer="layer1"
     showgrid="true"
     inkscape:snap-page="true"
     inkscape:snap-global="true"
     inkscape:snap-center="true"
     inkscape:snap-object-midpoints="false"
     showguides="true"
     inkscape:guide-bbox="true"
     inkscape:snap-bbox="true"
     inkscape:object-paths="true"
     inkscape:object-nodes="true"
     inkscape:window-width="1305"
     inkscape:window-height="744"
     inkscape:window-x="61"
     inkscape:window-y="24"
     inkscape:window-maximized="1"
     inkscape:snap-midpoints="false"
     inkscape:snap-grids="true"
     inkscape:snap-to-guides="false">
    <inkscape:grid
       type="xygrid"
       id="grid3002"
       empspacing="5"
       visible="true"
       enabled="true"
       snapvisiblegridlinesonly="true" />
  </sodipodi:namedview>
  <metadata
     id="metadata7">
    <rdf:RDF>
      <cc:Work
         rdf:about="">
        <dc:format>image/svg+xml</dc:format>
        <dc:type
           rdf:resource="http://purl.org/dc/dcmitype/StillImage" />
        <dc:title />
      </cc:Work>
    </rdf:RDF>
  </metadata>
  <g
     inkscape:label="Layer 1"
     inkscape:groupmode="layer"
     id="layer1"
     transform="translate(0,-956.36218)">
    <rect
       style="fill:#ffffff;fill-opacity:0;fill-rule:nonzero;stroke:none"
       id="rect3775"
       width="96"
       height="96"
       x="0"
       y="956.36218"
       ry="0" />
    <path
       style="fill:#000000;fill-opacity:0.09589041;fill-rule:nonzero;stroke:none"
       d="m 3.353015,956.30662 c -1.884176,0 -3.4111555,1.43156 -3.4111555,3.19799 l 0,83.65949 c 0,1.7665 1.5269795,3.1981 3.4111555,3.1981 l 89.23583,0 c 1.884174,0 3.411155,-1.4316 3.411155,-3.1981 l 0,-83.65949 c 0,-1.76643 -1.526981,-3.19799 -3.411155,-3.19799 z"
       id="rect3772"
       inkscape:connector-curvature="0"
       sodipodi:nodetypes="sssssssss" />
    <path
       style="fill:#000000;fill-opacity:0.18721463;fill-rule:nonzero;stroke:none"
       d="m 1.0459761,1041.8066 0,7.4219 c 0,1.7392 1.461916,3.1337 3.2852054,3.1337 l 86.3836135,0 c 1.823288,0 3.285205,-1.3945 3.285205,-3.1337 l 0,-7.4219 -92.9540239,0 z"
       id="rect3785"
       inkscape:connector-curvature="0" />
    <path
       style="fill:#000000;fill-opacity:0.38356168;fill-rule:nonzero;stroke:none"
       d="m 1.0459761,1041.8066 0,5.3807 c 0,1.762 1.461916,3.1749 3.2852054,3.1749 l 86.3836135,0 c 1.823288,0 3.285205,-1.4129 3.285205,-3.1749 l 0,-5.3807 -92.9540239,0 z"
       id="rect3783"
       inkscape:connector-curvature="0" />
    <rect
       style="fill:url(#linearGradient3786);fill-opacity:1;fill-rule:nonzero;stroke:none"
       id="rect2985"
       width="92.954025"
       height="89"
       x="1.045977"
       y="957.36218"
       ry="3.1511393" />
    <path
       style="fill:#000000;fill-opacity:0.38356168;fill-rule:nonzero;stroke:none"
       d="m 1,1042.3622 0.045976,2.7457 c 0.03024,1.8058 1.461916,3.2543 3.2852054,3.2543 l 86.3836136,0 c 1.823288,0 3.285205,-1.4481 3.285205,-3.2543 l -0.04598,-2.7457 z"
       id="rect3781"
       inkscape:connector-curvature="0"
       sodipodi:nodetypes="csssscc" />
    <rect
       style="fill:#ffffff;fill-opacity:0.30000001;fill-rule:nonzero;stroke:none"
       id="rect3770"
       width="92.954033"
       height="2.000005"
       x="1.045976"
       y="1040.3622" />
    <g
       id="g3144"
       transform="matrix(0.92082215,0,0,0.94594615,-109.90107,84.407882)"
       style="fill:#ffffff">
      <path
         d="m 195.75765,956.54152 c -6e-5,-3.52321 -0.47098,-6.71507 -1.41279,-9.57559 -0.94192,-2.8604 -2.2675,-5.30226 -3.97675,-7.32557 -1.70935,-2.0232 -3.76749,-3.57553 -6.17441,-4.65699 -2.37215,-1.1162 -5.02331,-1.67434 -7.95349,-1.67441 -3.20935,7e-5 -6.15702,0.62797 -8.84302,1.88372 -2.68608,1.25588 -5.11051,2.93029 -7.27327,5.02326 -2.12793,2.09307 -4.01164,4.51749 -5.65116,7.27325 -1.60467,2.72098 -2.94769,5.58144 -4.02907,8.58139 -1.08141,3.00004 -1.90117,6.03493 -2.4593,9.10466 -0.52322,3.03491 -0.78488,5.89537 -0.78488,8.58139 -2e-5,3.4884 0.45348,6.64537 1.36047,9.47093 0.94183,2.8256 2.24998,5.23257 3.92441,7.22094 1.6744,1.98837 3.68021,3.52326 6.01745,4.60465 2.37206,1.08139 5.00578,1.62209 7.90115,1.62208 3.20927,10e-6 6.15694,-0.61047 8.84303,-1.83139 2.72088,-1.25581 5.16274,-2.91278 7.32558,-4.97093 2.19762,-2.05813 4.11623,-4.44766 5.75582,-7.16861 1.63948,-2.7209 2.99993,-5.56392 4.08139,-8.52906 1.11622,-2.99997 1.95343,-5.99997 2.51163,-9 0.55805,-3.03485 0.83712,-5.91275 0.83721,-8.63372 m -29.72093,44.58138 c -4.29073,0 -8.23259,-0.6802 -11.82558,-2.04068 -3.59305,-1.36047 -6.68026,-3.26163 -9.26163,-5.70349 -2.58141,-2.47674 -4.60466,-5.42441 -6.06977,-8.84303 -1.43024,-3.41858 -2.14536,-7.20347 -2.14535,-11.35465 -1e-5,-3.94183 0.40115,-7.76159 1.20349,-11.4593 0.80229,-3.69763 1.98837,-7.16856 3.55814,-10.41279 1.56976,-3.27902 3.48835,-6.27902 5.75581,-9 2.30231,-2.72087 4.93603,-5.05807 7.90117,-7.01163 2.99997,-1.95342 6.31392,-3.47086 9.94186,-4.55233 3.62787,-1.08132 7.56973,-1.62202 11.82558,-1.62209 4.29065,7e-5 8.2325,0.6803 11.82558,2.0407 3.59296,1.36053 6.68017,3.27914 9.26163,5.75581 2.58133,2.44192 4.58714,5.38959 6.01744,8.84303 1.46504,3.41865 2.1976,7.18609 2.19768,11.30233 -8e-5,3.38375 -0.34891,6.83724 -1.04652,10.36046 -0.66289,3.4884 -1.70937,6.87212 -3.13953,10.15116 -1.39542,3.2442 -3.17448,6.29652 -5.33721,9.15698 -2.16286,2.86047 -4.74425,5.35465 -7.74419,7.48256 -2.96517,2.1279 -6.34888,3.81976 -10.15116,5.07557 -3.80237,1.22089 -8.05818,1.83139 -12.76744,1.83139"
         inkscape:connector-curvature="0"
         id="path3816"
         style="font-size:12px;font-style:italic;font-variant:normal;font-weight:normal;font-stretch:normal;text-align:start;line-height:125%;letter-spacing:0px;word-spacing:0px;writing-mode:lr-tb;text-anchor:start;fill:#ffffff;fill-opacity:1;stroke:none;font-family:Liberation Serif;-inkscape-font-specification:Liberation Serif Italic" />
      <path
         d="m 176.91608,928.12291 c -4.25585,7e-5 -8.18463,0.54367 -11.8125,1.625 -3.62793,1.08146 -6.93753,2.60907 -9.9375,4.5625 -2.96514,1.95355 -5.60394,4.27913 -7.90625,7 -2.26746,2.72098 -4.18024,5.72099 -5.75,9 -1.56977,3.24424 -2.76021,6.70862 -3.5625,10.40625 -0.80234,3.69771 -1.21876,7.52692 -1.21875,11.46875 0,0.21171 -0.004,0.4152 0,0.625 0.0248,-3.80862 0.44199,-7.51394 1.21875,-11.09375 0.80229,-3.69763 1.99273,-7.16201 3.5625,-10.40625 1.56976,-3.27901 3.48254,-6.27902 5.75,-9 2.30231,-2.72087 4.94111,-5.04645 7.90625,-7 2.99997,-1.95343 6.30957,-3.48104 9.9375,-4.5625 3.62787,-1.08133 7.55665,-1.62493 11.8125,-1.625 4.29065,7e-5 8.25067,0.67085 11.84375,2.03125 3.59295,1.36053 6.66854,3.27333 9.25,5.75 2.58133,2.44192 4.5697,5.39031 6,8.84375 1.40153,3.27046 2.15792,6.87238 2.21875,10.78125 0.001,-0.15494 0,-0.3141 0,-0.46875 -8e-5,-4.11624 -0.75371,-7.89385 -2.21875,-11.3125 -1.4303,-3.45344 -3.41867,-6.40183 -6,-8.84375 -2.58146,-2.47667 -5.65705,-4.38947 -9.25,-5.75 -3.59308,-1.3604 -7.5531,-2.03118 -11.84375,-2.03125 z m 18.8125,27.96875 c -0.0351,2.55776 -0.29196,5.26289 -0.8125,8.09375 -0.5582,3.00003 -1.38378,6.00003 -2.5,9 -1.08146,2.96514 -2.45428,5.81034 -4.09375,8.53125 -1.63959,2.72094 -3.55238,5.09812 -5.75,7.15625 -2.16284,2.05814 -4.59162,3.71295 -7.3125,4.96875 -2.68609,1.22092 -5.63448,1.84376 -8.84375,1.84375 -2.89538,10e-6 -5.53418,-0.5436 -7.90625,-1.625 -2.33724,-1.08139 -4.35686,-2.63662 -6.03125,-4.625 -1.67444,-1.98836 -2.96441,-4.39315 -3.90625,-7.21875 -0.86547,-2.6962 -1.30414,-5.70026 -1.34375,-9 -0.002,0.17727 -0.0312,0.35547 -0.0312,0.53125 -2e-5,3.4884 0.46801,6.64319 1.375,9.46875 0.94184,2.8256 2.23181,5.23039 3.90625,7.21875 1.67439,1.98838 3.69401,3.54361 6.03125,4.625 2.37207,1.0814 5.01087,1.62501 7.90625,1.625 3.20927,10e-6 6.15766,-0.62283 8.84375,-1.84375 2.72088,-1.2558 5.14966,-2.91061 7.3125,-4.96875 2.19762,-2.05813 4.11041,-4.43531 5.75,-7.15625 1.63947,-2.72091 3.01229,-5.56611 4.09375,-8.53125 1.11622,-2.99997 1.9418,-5.99997 2.5,-9 0.55805,-3.03485 0.84366,-5.93528 0.84375,-8.65625 0,-0.15057 -0.0295,-0.28814 -0.0312,-0.4375 z"
         inkscape:connector-curvature="0"
         id="path3847"
         style="font-size:12px;font-style:italic;font-variant:normal;font-weight:normal;font-stretch:normal;text-align:start;line-height:125%;letter-spacing:0px;word-spacing:0px;writing-mode:lr-tb;text-anchor:start;opacity:0.2;fill:#ffffff;fill-opacity:1;stroke:none;font-family:Liberation Serif;-inkscape-font-specification:Liberation Serif Italic" />
      <path
         d="m 176.22858,933.31041 c -3.20935,7e-5 -6.15775,0.61925 -8.84375,1.875 -2.68608,1.25588 -5.08724,2.93829 -7.25,5.03125 -2.12793,2.09308 -4.01674,4.52549 -5.65625,7.28125 -1.60467,2.72098 -2.94987,5.56255 -4.03125,8.5625 -1.08142,3.00004 -1.91062,6.05527 -2.46875,9.125 -0.52322,3.03491 -0.78125,5.87648 -0.78125,8.5625 0,0.15971 0.0293,0.31043 0.0312,0.46875 0.032,-2.53158 0.26102,-5.19495 0.75,-8.03125 0.55813,-3.06973 1.38733,-6.12496 2.46875,-9.125 1.08138,-2.99995 2.42658,-5.84152 4.03125,-8.5625 1.63951,-2.75576 3.52832,-5.18817 5.65625,-7.28125 2.16276,-2.09296 4.56392,-3.77537 7.25,-5.03125 2.686,-1.25575 5.6344,-1.87493 8.84375,-1.875 2.93019,7e-5 5.5966,0.57129 7.96875,1.6875 2.40692,1.08146 4.4469,2.63305 6.15625,4.65625 1.70925,2.02331 3.05807,4.45209 4,7.3125 0.90156,2.73826 1.33641,5.77948 1.375,9.125 0.002,-0.18431 0.0312,-0.37961 0.0312,-0.5625 -6e-5,-3.52321 -0.46444,-6.70199 -1.40625,-9.5625 -0.94193,-2.86041 -2.29075,-5.28919 -4,-7.3125 -1.70935,-2.0232 -3.74933,-3.57479 -6.15625,-4.65625 -2.37215,-1.11621 -5.03856,-1.68743 -7.96875,-1.6875 z m 30,24.21875 c -0.0305,3.23518 -0.39677,6.54406 -1.0625,9.90625 -0.66289,3.4884 -1.69484,6.8772 -3.125,10.15625 -1.39542,3.2442 -3.18103,6.2958 -5.34375,9.15625 -2.16286,2.86048 -4.75006,5.34085 -7.75,7.46875 -2.96517,2.12791 -6.35397,3.80669 -10.15625,5.0625 -3.80237,1.22094 -8.04074,1.84374 -12.75,1.84374 -4.29073,0 -8.25075,-0.6708 -11.84375,-2.03124 -3.59304,-1.36047 -6.66863,-3.27688 -9.25,-5.71875 -2.58141,-2.47674 -4.59739,-5.42513 -6.0625,-8.84375 -1.3573,-3.24424 -2.08704,-6.81473 -2.15625,-10.71875 -8.2e-4,0.12543 0,0.24933 0,0.375 -1e-5,4.15118 0.72601,7.92517 2.15625,11.34375 1.46511,3.41862 3.48109,6.36701 6.0625,8.84375 2.58137,2.44187 5.65696,4.35828 9.25,5.71879 3.593,1.3604 7.55302,2.0312 11.84375,2.0312 4.70926,0 8.94763,-0.6228 12.75,-1.8437 3.80228,-1.25585 7.19108,-2.93463 10.15625,-5.06254 2.99994,-2.1279 5.58714,-4.60827 7.75,-7.46875 2.16272,-2.86045 3.94833,-5.91205 5.34375,-9.15625 1.43016,-3.27905 2.46211,-6.66785 3.125,-10.15625 0.69761,-3.52322 1.06242,-6.99125 1.0625,-10.375 0,-0.17844 0.003,-0.35412 0,-0.53125 z"
         inkscape:connector-curvature="0"
         id="path3856"
         style="font-size:12px;font-style:italic;font-variant:normal;font-weight:normal;font-stretch:normal;text-align:start;line-height:125%;letter-spacing:0px;word-spacing:0px;writing-mode:lr-tb;text-anchor:start;opacity:0.7;fill:#ffffff;fill-opacity:1;stroke:none;font-family:Liberation Serif;-inkscape-font-specification:Liberation Serif Italic" />
      <path
         d="m 176.91608,929.12291 c -4.25585,7e-5 -8.18463,0.54367 -11.8125,1.625 -3.62793,1.08146 -6.93753,2.60907 -9.9375,4.5625 -2.96514,1.95355 -5.60394,4.27913 -7.90625,7 -2.26746,2.72098 -4.18024,5.72099 -5.75,9 -1.56977,3.24424 -2.76021,6.70862 -3.5625,10.40625 -0.80234,3.69771 -1.21876,7.52692 -1.21875,11.46875 0,0.21171 -0.004,0.4152 0,0.625 0.0248,-3.80862 0.44199,-7.51394 1.21875,-11.09375 0.80229,-3.69763 1.99273,-7.16201 3.5625,-10.40625 1.56976,-3.27901 3.48254,-6.27902 5.75,-9 2.30231,-2.72087 4.94111,-5.04645 7.90625,-7 2.99997,-1.95343 6.30957,-3.48104 9.9375,-4.5625 3.62787,-1.08133 7.55665,-1.62493 11.8125,-1.625 4.29065,7e-5 8.25067,0.67085 11.84375,2.03125 3.59295,1.36053 6.66854,3.27333 9.25,5.75 2.58133,2.44192 4.5697,5.39031 6,8.84375 1.40153,3.27046 2.15792,6.87238 2.21875,10.78125 0.001,-0.15494 0,-0.3141 0,-0.46875 -8e-5,-4.11624 -0.75371,-7.89385 -2.21875,-11.3125 -1.4303,-3.45344 -3.41867,-6.40183 -6,-8.84375 -2.58146,-2.47667 -5.65705,-4.38947 -9.25,-5.75 -3.59308,-1.3604 -7.5531,-2.03118 -11.84375,-2.03125 z m 18.8125,27.96875 c -0.0351,2.55776 -0.29196,5.26289 -0.8125,8.09375 -0.5582,3.00003 -1.38378,6.00003 -2.5,9 -1.08146,2.96514 -2.45428,5.81034 -4.09375,8.53125 -1.63959,2.72094 -3.55238,5.09812 -5.75,7.15625 -2.16284,2.05814 -4.59162,3.71295 -7.3125,4.96875 -2.68609,1.22092 -5.63448,1.84376 -8.84375,1.84375 -2.89538,10e-6 -5.53418,-0.5436 -7.90625,-1.625 -2.33724,-1.08139 -4.35686,-2.63662 -6.03125,-4.625 -1.67444,-1.98836 -2.96441,-4.39315 -3.90625,-7.21875 -0.86547,-2.6962 -1.30414,-5.70026 -1.34375,-9 -0.002,0.17727 -0.0312,0.35547 -0.0312,0.53125 -2e-5,3.4884 0.46801,6.64319 1.375,9.46875 0.94184,2.8256 2.23181,5.23039 3.90625,7.21875 1.67439,1.98838 3.69401,3.54361 6.03125,4.625 2.37207,1.0814 5.01087,1.62501 7.90625,1.625 3.20927,10e-6 6.15766,-0.62283 8.84375,-1.84375 2.72088,-1.2558 5.14966,-2.91061 7.3125,-4.96875 2.19762,-2.05813 4.11041,-4.43531 5.75,-7.15625 1.63947,-2.72091 3.01229,-5.56611 4.09375,-8.53125 1.11622,-2.99997 1.9418,-5.99997 2.5,-9 0.55805,-3.03485 0.84366,-5.93528 0.84375,-8.65625 0,-0.15057 -0.0295,-0.28814 -0.0312,-0.4375 z"
         inkscape:connector-curvature="0"
         id="path3865"
         style="font-size:12px;font-style:italic;font-variant:normal;font-weight:normal;font-stretch:normal;text-align:start;line-height:125%;letter-spacing:0px;word-spacing:0px;writing-mode:lr-tb;text-anchor:start;fill:#ffffff;fill-opacity:1;stroke:none;font-family:Liberation Serif;-inkscape-font-specification:Liberation Serif Italic" />
    </g>
  </g>
</svg>
