<?xml version="1.0" encoding="UTF-8" standalone="no"?>
<!-- Created with Inkscape (http://www.inkscape.org/) -->

<svg
   xmlns:dc="http://purl.org/dc/elements/1.1/"
   xmlns:cc="http://creativecommons.org/ns#"
   xmlns:rdf="http://www.w3.org/1999/02/22-rdf-syntax-ns#"
   xmlns:svg="http://www.w3.org/2000/svg"
   xmlns="http://www.w3.org/2000/svg"
   xmlns:xlink="http://www.w3.org/1999/xlink"
   xmlns:sodipodi="http://sodipodi.sourceforge.net/DTD/sodipodi-0.dtd"
   xmlns:inkscape="http://www.inkscape.org/namespaces/inkscape"
   width="96"
   height="96"
   id="svg2"
   version="1.1"
   inkscape:version="0.48.4 r9939"
   sodipodi:docname="oxygen.svg">
  <defs
     id="defs4">
    <linearGradient
       id="linearGradient3760">
      <stop
         style="stop-color:#0044aa;stop-opacity:1;"
         offset="0"
         id="stop3762" />
      <stop
         style="stop-color:#660073;stop-opacity:1;"
         offset="1"
         id="stop3764" />
    </linearGradient>
    <linearGradient
       inkscape:collect="always"
       xlink:href="#linearGradient3760"
       id="linearGradient3098"
       gradientUnits="userSpaceOnUse"
       gradientTransform="translate(0.973769,-5.06879)"
       x1="145.19373"
       y1="1049.4938"
       x2="3.9974713"
       y2="985.31995" />
    <linearGradient
       inkscape:collect="always"
       xlink:href="#linearGradient3760"
       id="linearGradient3100"
       gradientUnits="userSpaceOnUse"
       gradientTransform="translate(0.973769,-5.06879)"
       x1="30.348948"
       y1="1016.0293"
       x2="82.963409"
       y2="1046.3806" />
    <linearGradient
       inkscape:collect="always"
       xlink:href="#linearGradient3760"
       id="linearGradient3909"
       gradientUnits="userSpaceOnUse"
       gradientTransform="matrix(1.1575745,0,0,1.0723468,-22.523237,-1046.5302)"
       x1="30.348948"
       y1="1016.0293"
       x2="82.963409"
       y2="1046.3806" />
    <linearGradient
       inkscape:collect="always"
       xlink:href="#linearGradient3760"
       id="linearGradient3912"
       gradientUnits="userSpaceOnUse"
       gradientTransform="matrix(1.1575745,0,0,1.0723468,-22.523237,-1046.5302)"
       x1="145.19373"
       y1="1049.4938"
       x2="3.9974713"
       y2="985.31995" />
    <linearGradient
       inkscape:collect="always"
       xlink:href="#linearGradient3760"
       id="linearGradient3919"
       gradientUnits="userSpaceOnUse"
       gradientTransform="matrix(1.1575745,0,0,1.0723468,-40.960392,-91.125794)"
       x1="30.348948"
       y1="1016.0293"
       x2="82.963409"
       y2="1046.3806" />
    <linearGradient
       inkscape:collect="always"
       xlink:href="#linearGradient3760"
       id="linearGradient3926"
       gradientUnits="userSpaceOnUse"
       gradientTransform="matrix(1.1575745,0,0,1.0723468,-63.70753,-106.68963)"
       x1="145.19373"
       y1="1049.4938"
       x2="3.9974713"
       y2="985.31995" />
  </defs>
  <sodipodi:namedview
     id="base"
     pagecolor="#ffffff"
     bordercolor="#666666"
     borderopacity="1.0"
     inkscape:pageopacity="0.0"
     inkscape:pageshadow="2"
     inkscape:zoom="4.1763494"
     inkscape:cx="7.7734809"
     inkscape:cy="68.175365"
     inkscape:document-units="px"
     inkscape:current-layer="layer1"
     showgrid="true"
     inkscape:snap-page="true"
     inkscape:snap-global="false"
     inkscape:snap-center="true"
     inkscape:snap-object-midpoints="false"
     showguides="true"
     inkscape:guide-bbox="true"
     inkscape:snap-bbox="true"
     inkscape:object-paths="true"
     inkscape:object-nodes="true"
     inkscape:window-width="1305"
     inkscape:window-height="744"
     inkscape:window-x="61"
     inkscape:window-y="24"
     inkscape:window-maximized="1"
     inkscape:snap-midpoints="false"
     inkscape:snap-grids="true"
     inkscape:snap-to-guides="false">
    <inkscape:grid
       type="xygrid"
       id="grid3002"
       empspacing="5"
       visible="true"
       enabled="true"
       snapvisiblegridlinesonly="true" />
  </sodipodi:namedview>
  <metadata
     id="metadata7">
    <rdf:RDF>
      <cc:Work
         rdf:about="">
        <dc:format>image/svg+xml</dc:format>
        <dc:type
           rdf:resource="http://purl.org/dc/dcmitype/StillImage" />
        <dc:title />
      </cc:Work>
    </rdf:RDF>
  </metadata>
  <g
     inkscape:label="Layer 1"
     inkscape:groupmode="layer"
     id="layer1"
     transform="translate(0,-956.36218)">
    <rect
       style="fill:#ffffff;fill-opacity:0;fill-rule:nonzero;stroke:none"
       id="rect3775"
       width="96"
       height="96"
       x="0"
       y="956.36218"
       ry="0" />
    <path
       style="fill:#000000;fill-opacity:0.09589041;fill-rule:nonzero;stroke:none"
       d="m 3.353015,956.30662 c -1.884176,0 -3.4111555,1.43156 -3.4111555,3.19799 l 0,83.65949 c 0,1.7665 1.5269795,3.1981 3.4111555,3.1981 l 89.23583,0 c 1.884174,0 3.411155,-1.4316 3.411155,-3.1981 l 0,-83.65949 c 0,-1.76643 -1.526981,-3.19799 -3.411155,-3.19799 z"
       id="rect3772"
       inkscape:connector-curvature="0"
       sodipodi:nodetypes="sssssssss" />
    <path
       style="fill:#000000;fill-opacity:0.18721463;fill-rule:nonzero;stroke:none"
       d="m 1.0459761,1041.8066 0,7.4219 c 0,1.7392 1.461916,3.1337 3.2852054,3.1337 l 86.3836135,0 c 1.823288,0 3.285205,-1.3945 3.285205,-3.1337 l 0,-7.4219 -92.9540239,0 z"
       id="rect3785"
       inkscape:connector-curvature="0" />
    <path
       style="fill:#000000;fill-opacity:0.38356168;fill-rule:nonzero;stroke:none"
       d="m 1.0459761,1041.8066 0,5.3807 c 0,1.762 1.461916,3.1749 3.2852054,3.1749 l 86.3836135,0 c 1.823288,0 3.285205,-1.4129 3.285205,-3.1749 l 0,-5.3807 -92.9540239,0 z"
       id="rect3783"
       inkscape:connector-curvature="0" />
    <rect
       style="fill:#0091c9;fill-opacity:1;fill-rule:nonzero;stroke:none"
       id="rect2985-2"
       width="93"
       height="88.999962"
       x="0.9999969"
       y="957.36224"
       ry="3.1511383" />
    <path
       style="fill:#000000;fill-opacity:0.38356168;fill-rule:nonzero;stroke:none"
       d="m 1,1042.3622 0.045976,2.7457 c 0.03024,1.8058 1.461916,3.2543 3.2852054,3.2543 l 86.3836136,0 c 1.823288,0 3.285205,-1.4481 3.285205,-3.2543 l -0.04598,-2.7457 z"
       id="rect3781"
       inkscape:connector-curvature="0"
       sodipodi:nodetypes="csssscc" />
    <rect
       style="fill:#ffffff;fill-opacity:0.30000001;fill-rule:nonzero;stroke:none"
       id="rect3770"
       width="92.954033"
       height="2.000005"
       x="1.045976"
       y="1040.3622" />
    <path
       style="fill:#c7feff;fill-opacity:0.23744291;fill-rule:nonzero;stroke:none"
       d="M 75.40625 1 L 4.15625 1 C 3.2833847 1 2.4758182 1.3366818 1.90625 1.90625 C 1.3366818 2.4758182 1 3.2833847 1 4.15625 L 1 70.75 C 1.3637256 70.977377 1.6915753 71.25122 2.0625 71.46875 C 4.8357889 73.094994 7.8413513 74.418911 11 75.46875 C 14.121142 76.505973 17.433249 77.354898 21.03125 77.875 C 24.611521 78.392538 28.383089 78.59375 32.28125 78.59375 C 36.179386 78.59375 39.919731 78.39254 43.5 77.875 C 47.097987 77.354899 50.441354 76.505974 53.5625 75.46875 C 56.721153 74.418908 59.726714 73.094982 62.5 71.46875 C 65.236867 69.863715 67.763239 67.997312 70.03125 65.84375 C 72.31839 63.672136 74.288811 61.243034 75.96875 58.65625 C 77.630725 56.097125 79.0452 53.335003 80.15625 50.3125 C 81.256437 47.319698 82.089942 44.162891 82.625 40.8125 C 83.166936 37.418736 83.343725 33.871492 83.34375 30.21875 C 83.343725 26.55373 83.161714 23.01107 82.625 19.625 C 82.090514 16.253004 81.238726 13.115412 80.15625 10.15625 C 79.789446 9.1531475 79.733072 9.0435931 80 9.75 C 78.938908 6.9426884 77.575116 4.2609687 75.96875 1.78125 C 75.793937 1.5113941 75.586884 1.2654289 75.40625 1 z M 32.375 7.15625 C 34.117955 7.1562623 35.679025 7.2424308 37.03125 7.46875 C 38.341986 7.6881254 39.592833 8.1105973 40.75 8.5625 C 41.784261 8.9664154 42.712088 9.4300451 43.65625 10.09375 C 43.934854 10.289596 44.109957 10.440037 44.34375 10.625 A 5.6359106 5.2209616 0 0 0 44.9375 11.3125 C 45.898559 12.212448 46.256324 12.477082 46.0625 12.25 C 46.735695 13.038726 47.354119 14.049829 47.96875 15.25 C 48.575802 16.4354 49.144564 17.68726 49.5625 19.15625 C 49.994266 20.673851 50.27867 22.403551 50.5 24.21875 C 50.723447 26.051331 50.874991 28.02026 50.875 30.21875 C 50.874991 32.413108 50.722463 34.465341 50.5 36.28125 C 50.278278 38.091069 49.998109 39.757437 49.5625 41.28125 C 49.133918 42.780591 48.613746 44.055497 48.03125 45.1875 C 47.42295 46.369648 46.764412 47.369108 46.0625 48.1875 C 45.407597 48.95117 44.555075 49.639989 43.59375 50.3125 C 42.674499 50.955575 41.782679 51.461445 40.71875 51.875 C 39.623281 52.300716 38.343654 52.672038 36.9375 52.90625 C 35.470139 53.150544 33.950728 53.28125 32.28125 53.28125 C 30.614572 53.28125 29.074881 53.149639 27.625 52.90625 C 26.205697 52.667994 24.97585 52.293546 23.90625 51.875 C 24.194629 51.987871 23.815581 51.808248 22.65625 51.21875 A 5.6359106 5.2209616 0 0 0 21.6875 50.78125 C 21.665188 50.767594 21.616052 50.795063 21.59375 50.78125 C 21.355535 50.633699 21.128103 50.49979 20.90625 50.34375 C 20.09569 49.773732 19.357855 49.054518 18.5625 48.125 C 17.747637 47.1727 17.036919 46.197599 16.5 45.15625 C 15.95838 44.105787 15.455021 42.802429 15 41.21875 C 14.545319 39.636375 14.214584 37.957196 14 36.21875 C 13.785856 34.483977 13.687493 32.462581 13.6875 30.21875 C 13.687493 27.975003 13.785119 25.988202 14 24.25 C 14.215037 22.510548 14.547301 20.878712 15 19.3125 C 15.434379 17.80967 15.944403 16.502684 16.53125 15.375 C 17.14938 14.187206 17.8641 13.182502 18.5625 12.375 A 5.6359106 5.2209616 0 0 0 18.5625 12.34375 C 19.275951 11.512201 20.063438 10.785038 21 10.125 C 21.849689 9.5261937 22.840909 9.0500508 24 8.59375 C 25.23692 8.1068209 26.459054 7.6821629 27.71875 7.46875 C 29.067302 7.2402822 30.61572 7.1562732 32.375 7.15625 z "
       id="path3946"
       transform="translate(0,956.36218)" />
    <path
       style="fill:#c7feff;fill-opacity:0.23744291;fill-rule:nonzero;stroke:none"
       d="M 77.78125 1 L 4.15625 1 C 3.2833847 1 2.4758182 1.3366818 1.90625 1.90625 C 1.3366818 2.4758182 1 3.2833847 1 4.15625 L 1 73.0625 C 3.9097271 74.76875 7.0311639 76.128132 10.3125 77.21875 C 13.543164 78.292368 17.055559 79.11769 20.78125 79.65625 C 24.482986 80.191347 28.299465 80.4375 32.28125 80.4375 C 36.263012 80.4375 40.079513 80.191349 43.78125 79.65625 C 47.506925 79.117692 51.019329 78.292371 54.25 77.21875 C 57.531343 76.128129 60.621533 74.768735 63.53125 73.0625 C 66.391765 71.384953 69.030361 69.380997 71.40625 67.125 C 73.807998 64.844566 75.933795 62.325372 77.6875 59.625 C 79.416935 56.961997 80.905239 54.054465 82.0625 50.90625 C 83.205086 47.798115 84.042694 44.513066 84.59375 41.0625 C 85.154098 37.553432 85.312475 33.93719 85.3125 30.21875 C 85.312475 26.487113 85.14823 22.87315 84.59375 19.375 C 84.04228 15.895859 83.183374 12.626632 82.0625 9.5625 C 81.583985 8.2538988 81.434393 8.0931168 81.8125 9.09375 C 80.733406 6.2388145 79.418563 3.5532302 77.78125 1 z M 32.375 8.96875 C 34.024325 8.9687609 35.477996 9.1100673 36.6875 9.3125 C 37.840952 9.5055509 38.997175 9.8149179 40.03125 10.21875 C 40.899276 10.557744 41.634317 11.007181 42.46875 11.59375 C 42.618744 11.69919 42.682228 11.745995 42.8125 11.84375 C 42.849207 11.871295 42.871004 11.879249 42.90625 11.90625 A 7.6143014 7.0536917 0 0 0 43.5 12.59375 C 44.623342 13.645662 44.888133 13.897598 44.46875 13.40625 C 45.025264 14.058272 45.653161 14.95809 46.21875 16.0625 C 46.774103 17.146944 47.236919 18.260945 47.625 19.625 C 48.031767 21.05473 48.383026 22.678033 48.59375 24.40625 C 48.807335 26.157943 48.906243 28.076323 48.90625 30.21875 C 48.906243 32.357291 48.805742 34.332068 48.59375 36.0625 C 48.382763 37.784707 48.036369 39.373485 47.625 40.8125 C 47.223127 42.218404 46.739948 43.424621 46.21875 44.4375 C 45.66269 45.518128 45.125138 46.338809 44.53125 47.03125 C 44.000875 47.649711 43.261938 48.27639 42.40625 48.875 C 41.607407 49.433843 40.843105 49.866735 39.9375 50.21875 C 38.989283 50.587242 37.872984 50.880678 36.59375 51.09375 C 35.231826 51.32049 33.827482 51.46875 32.28125 51.46875 C 30.736896 51.46875 29.277212 51.318645 27.9375 51.09375 C 26.6391 50.87579 25.53899 50.576403 24.625 50.21875 C 25.237179 50.458355 24.984167 50.28486 23.625 49.59375 A 7.6143014 7.0536917 0 0 0 22.625 49.15625 C 22.45399 49.04821 22.253098 48.987078 22.09375 48.875 C 21.441888 48.416586 20.843952 47.808978 20.125 46.96875 C 19.379699 46.097742 18.73997 45.264683 18.28125 44.375 C 17.816179 43.473002 17.374484 42.239652 16.9375 40.71875 C 16.500974 39.199561 16.138538 37.65995 15.9375 36.03125 C 15.737057 34.407463 15.656243 32.429113 15.65625 30.21875 C 15.656243 28.008476 15.736059 26.098243 15.9375 24.46875 C 16.139153 22.837553 16.504285 21.280053 16.9375 19.78125 C 17.345964 18.368077 17.788232 17.194931 18.3125 16.1875 C 18.879032 15.098857 19.478367 14.175384 20.0625 13.5 C 20.666975 12.795466 21.368505 12.202183 22.1875 11.625 C 22.889128 11.130539 23.748574 10.656535 24.78125 10.25 C 25.919075 9.8020804 27.012171 9.4957378 28.09375 9.3125 C 29.295377 9.1089248 30.705538 8.9687732 32.375 8.96875 z "
       id="path3941"
       transform="translate(0,956.36218)" />
    <path
       style="fill:#c7feff;fill-opacity:0.23744291;fill-rule:nonzero;stroke:none"
       d="M 72.375 1 L 4.15625 1 C 3.2833847 1 2.4758182 1.3366818 1.90625 1.90625 C 1.3366818 2.4758182 1 3.2833847 1 4.15625 L 1 67.96875 C 1.790592 68.509007 2.571836 69.073155 3.40625 69.5625 C 6.0074904 71.087856 8.839814 72.314081 11.84375 73.3125 C 14.826784 74.303825 17.969267 75.065674 21.40625 75.5625 C 24.833352 76.057898 28.488543 76.28125 32.28125 76.28125 C 36.073932 76.28125 39.729156 76.057898 43.15625 75.5625 C 46.59322 75.065674 49.735714 74.303826 52.71875 73.3125 C 55.722689 72.314081 58.555007 71.087849 61.15625 69.5625 C 63.737196 68.048905 66.118025 66.27439 68.25 64.25 C 70.392616 62.215609 72.225583 59.9123 73.8125 57.46875 C 75.389405 55.040615 76.759723 52.45773 77.8125 49.59375 C 78.859224 46.746385 79.610116 43.692819 80.125 40.46875 C 80.643718 37.220386 80.874976 33.788646 80.875 30.21875 C 80.874976 26.637733 80.639312 23.213483 80.125 19.96875 C 79.61193 16.731866 78.846553 13.733042 77.8125 10.90625 C 77.586567 10.288387 77.467019 10.133367 77.59375 10.46875 C 76.582816 7.7941431 75.322104 5.2990971 73.8125 2.96875 C 73.368577 2.2834751 72.858245 1.6539257 72.375 1 z M 32.375 4.84375 C 34.236024 4.8437623 35.936551 4.9623089 37.46875 5.21875 C 38.977825 5.4713213 40.437612 5.8937294 41.75 6.40625 C 42.993886 6.8920312 44.104967 7.4890264 45.1875 8.25 C 45.583994 8.5287183 45.875179 8.8107715 46.21875 9.09375 A 3.1411279 2.9098595 0 0 0 46.21875 9.15625 A 3.1411279 2.9098595 0 0 0 46.75 9.6875 C 47.506416 10.395818 47.878139 10.706341 47.96875 10.8125 C 48.789081 11.773614 49.573529 12.960323 50.25 14.28125 C 50.922248 15.593956 51.481917 16.961186 51.9375 18.5625 C 52.400792 20.190908 52.765296 22.012618 53 23.9375 C 53.235885 25.872084 53.374991 27.949564 53.375 30.21875 C 53.374991 32.483494 53.235669 34.607554 53 36.53125 C 52.764744 38.451553 52.403679 40.244254 51.9375 41.875 C 51.475238 43.492167 50.909794 44.936529 50.25 46.21875 C 49.575823 47.52892 48.869384 48.647781 48.03125 49.625 C 47.219316 50.57178 46.219537 51.421801 45.125 52.1875 C 44.053914 52.936794 42.951078 53.540091 41.6875 54.03125 C 40.406343 54.529128 38.972456 54.926629 37.40625 55.1875 C 35.805933 55.453929 34.106144 55.59375 32.28125 55.59375 C 30.460319 55.59375 28.745056 55.45421 27.15625 55.1875 C 25.584486 54.923651 24.203328 54.526581 22.9375 54.03125 C 22.817565 53.984307 22.376087 53.680114 21.46875 53.21875 A 3.1411279 2.9098595 0 0 0 20.59375 52.90625 A 3.1411279 2.9098595 0 0 0 20.53125 52.90625 C 20.136203 52.674258 19.740628 52.444663 19.375 52.1875 C 18.364316 51.476748 17.454201 50.635865 16.5625 49.59375 C 15.659921 48.538938 14.916779 47.420102 14.28125 46.1875 C 13.643101 44.949819 13.102766 43.444092 12.625 41.78125 C 12.147424 40.119194 11.731667 38.376836 11.5 36.5 C 11.268579 34.625271 11.187493 32.504783 11.1875 30.21875 C 11.187493 27.932793 11.268174 25.875287 11.5 24 C 11.731913 22.124034 12.147732 20.338716 12.625 18.6875 C 13.092058 17.071609 13.615489 15.685574 14.28125 14.40625 C 14.964447 13.093424 15.720007 11.911604 16.5625 10.9375 A 3.1411279 2.9098595 0 0 0 16.5625 10.90625 C 17.413374 9.9145318 18.383936 9.0457686 19.46875 8.28125 C 20.505148 7.5508638 21.712747 6.9878063 23.03125 6.46875 C 24.393128 5.9326296 25.765695 5.4702156 27.25 5.21875 C 28.783827 4.9588936 30.502457 4.8437759 32.375 4.84375 z "
       id="path3936"
       transform="translate(0,956.36218)" />
    <path
       style="fill:#c7feff;fill-opacity:0.23744291;fill-rule:nonzero;stroke:none"
       d="M 70.34375 1 L 4.15625 1 C 3.2833847 1 2.4758182 1.3366818 1.90625 1.90625 C 1.3366818 2.4758182 1 3.2833847 1 4.15625 L 1 65.71875 C 2.0948476 66.533216 3.0710021 67.477747 4.28125 68.1875 C 6.7644181 69.643618 9.5397378 70.849371 12.4375 71.8125 C 15.325754 72.772329 18.361019 73.550398 21.6875 74.03125 C 25.009487 74.511452 28.560913 74.71875 32.28125 74.71875 C 36.001562 74.71875 39.553025 74.511452 42.875 74.03125 C 46.201468 73.550398 49.236745 72.772329 52.125 71.8125 C 55.022764 70.849369 57.798073 69.643615 60.28125 68.1875 C 62.755191 66.736658 64.961384 65.091994 67 63.15625 C 69.043434 61.216032 70.85192 59.001502 72.375 56.65625 C 73.893524 54.318012 75.143462 51.81769 76.15625 49.0625 C 77.166284 46.314944 77.967711 43.387378 78.46875 40.25 C 78.971534 37.101421 79.156226 33.73179 79.15625 30.21875 C 79.156226 26.695382 78.967688 23.335238 78.46875 20.1875 C 77.970378 17.043339 77.157073 14.1422 76.15625 11.40625 C 76.026992 11.052765 75.938234 10.95049 75.96875 11.03125 C 74.992239 8.4477146 73.818197 6.0090881 72.375 3.78125 C 71.7463 2.8107374 71.058833 1.9018179 70.34375 1 z M 32.375 3.25 C 34.317051 3.2500137 36.09429 3.410387 37.75 3.6875 C 39.395187 3.9628522 40.987339 4.414629 42.40625 4.96875 C 43.793996 5.5107127 45.010008 6.1722741 46.1875 7 C 46.710802 7.3678597 47.193924 7.7573293 47.65625 8.15625 A 1.4290328 1.323819 0 0 0 47.65625 8.21875 A 1.4290328 1.323819 0 0 0 47.9375 8.59375 C 48.553477 9.170559 49.089189 9.5088966 49.375 9.84375 C 50.296306 10.923168 51.093589 12.189952 51.8125 13.59375 C 52.529488 14.993823 53.112331 16.495376 53.59375 18.1875 C 54.078676 19.891951 54.474868 21.749843 54.71875 23.75 C 54.96317 25.754585 55.062491 27.901047 55.0625 30.21875 C 55.062491 32.531798 54.963481 34.752333 54.71875 36.75 C 54.474205 38.746123 54.080907 40.545869 53.59375 42.25 C 53.108374 43.948027 52.525341 45.520939 51.8125 46.90625 C 51.093115 48.304275 50.306619 49.507533 49.375 50.59375 C 48.455301 51.666194 47.310955 52.607847 46.125 53.4375 C 44.949714 54.259689 43.713091 54.924333 42.3125 55.46875 C 40.903913 56.01615 39.394794 56.439585 37.71875 56.71875 C 36.027187 57.000369 34.212801 57.1875 32.28125 57.1875 C 30.354459 57.1875 28.590397 57.001465 26.90625 56.71875 C 25.229857 56.437337 23.650492 56.016776 22.25 55.46875 C 21.849849 55.312132 21.3594 54.998429 20.625 54.625 A 1.4290328 1.323819 0 0 0 20.03125 54.4375 C 19.462463 54.123348 18.896804 53.804509 18.375 53.4375 C 17.226978 52.630168 16.207818 51.681887 15.25 50.5625 C 14.287223 49.437336 13.421953 48.207603 12.71875 46.84375 C 12.014356 45.477586 11.462125 43.93592 10.96875 42.21875 C 10.47546 40.502011 10.05589 38.628061 9.8125 36.65625 C 9.5692235 34.685473 9.4999926 32.533745 9.5 30.21875 C 9.4999926 27.903826 9.5690437 25.781864 9.8125 23.8125 C 10.055995 21.842849 10.47462 19.990802 10.96875 18.28125 C 11.458234 16.587769 12.030083 15.039641 12.75 13.65625 C 13.477851 12.257619 14.308622 10.994688 15.25 9.90625 C 16.195182 8.804612 17.282194 7.8987204 18.46875 7.0625 C 19.63328 6.2418149 20.915848 5.5621241 22.34375 5 C 23.791385 4.4301199 25.330304 3.9650799 26.96875 3.6875 C 28.629726 3.4061035 30.424728 3.2500259 32.375 3.25 z "
       id="path3931"
       transform="translate(0,956.36218)" />
    <path
       style="fill:url(#linearGradient3912);fill-opacity:1;fill-rule:nonzero;stroke:none"
       d="M 68.28125 1 L 4.15625 1 C 3.2833847 1 2.4758182 1.3366818 1.90625 1.90625 C 1.3366818 2.4758182 1 3.2833847 1 4.15625 L 1 64.03125 C 2.32232 65.086344 3.572804 66.220154 5.0625 67.09375 C 7.4471162 68.49215 10.065856 69.66005 12.875 70.59375 C 15.684144 71.52735 18.70325 72.2201 21.9375 72.6875 C 25.17175 73.155 28.621315 73.40625 32.28125 73.40625 C 35.941158 73.40625 39.390764 73.155 42.625 72.6875 C 45.859237 72.2201 48.847106 71.52735 51.65625 70.59375 C 54.465394 69.66005 57.08412 68.49215 59.46875 67.09375 C 61.85338 65.69535 64.039306 64.0492 66 62.1875 C 67.960651 60.3258 69.655204 58.2632 71.125 56 C 72.594797 53.7368 73.833092 51.2894 74.8125 48.625 C 75.791909 45.9608 76.541766 43.09634 77.03125 40.03125 C 77.520734 36.96606 77.749976 33.68436 77.75 30.21875 C 77.749976 26.74349 77.517355 23.47302 77.03125 20.40625 C 76.545145 17.33948 75.785588 14.50388 74.8125 11.84375 C 73.839412 9.18361 72.617223 6.72403 71.15625 4.46875 C 70.33249 3.1971293 69.256098 2.1448046 68.28125 1 z M 32.375 1.9375 C 34.384682 1.93751 36.272451 2.08063 38.03125 2.375 C 39.790049 2.66937 41.429678 3.12991 42.9375 3.71875 C 44.445322 4.3076 45.805748 5.05406 47.0625 5.9375 C 48.319252 6.82094 49.463162 7.85309 50.46875 9.03125 C 51.474339 10.2094 52.370667 11.52703 53.125 13 C 53.879333 14.47299 54.497015 16.10707 55 17.875 C 55.502984 19.64292 55.904707 21.53076 56.15625 23.59375 C 56.407793 25.65675 56.499991 27.86055 56.5 30.21875 C 56.499991 32.57212 56.408543 34.81556 56.15625 36.875 C 55.903951 38.93444 55.504667 40.82835 55 42.59375 C 54.495332 44.35928 53.882119 45.99735 53.125 47.46875 C 52.367881 48.94015 51.478398 50.22905 50.46875 51.40625 C 49.459102 52.58345 48.29351 53.6169 47.03125 54.5 C 45.76899 55.3829 44.389951 56.12995 42.875 56.71875 C 41.360048 57.30745 39.736473 57.7681 37.96875 58.0625 C 36.201027 58.3569 34.301825 58.46875 32.28125 58.46875 C 30.266102 58.46875 28.357475 58.3586 26.59375 58.0625 C 24.830026 57.7664 23.200393 57.31075 21.6875 56.71875 C 20.174606 56.12665 18.793903 55.388 17.53125 54.5 C 16.268597 53.612 15.138005 52.5589 14.125 51.375 C 13.111978 50.1911 12.197187 48.8484 11.4375 47.375 C 10.677813 45.9016 10.068904 44.2938 9.5625 42.53125 C 9.0560959 40.76885 8.6594231 38.89483 8.40625 36.84375 C 8.1530768 34.79278 8.0312431 32.55786 8.03125 30.21875 C 8.0312431 27.87964 8.1530884 25.70413 8.40625 23.65625 C 8.6594104 21.6084 9.054297 19.69574 9.5625 17.9375 C 10.070702 16.17926 10.703629 14.564 11.46875 13.09375 C 12.233872 11.6235 13.132335 10.30887 14.15625 9.125 C 15.180148 7.9316 16.322272 6.86481 17.59375 5.96875 C 18.865227 5.07269 20.262037 4.34806 21.78125 3.75 C 23.300464 3.15195 24.951646 2.67438 26.71875 2.375 C 28.485853 2.07562 30.359851 1.93752 32.375 1.9375 z "
       id="path3924"
       transform="translate(0,956.36218)" />
    <path
       style="fill:url(#linearGradient3909);fill-opacity:1;fill-rule:nonzero;stroke:none"
       d="M 1 54.96875 L 1 64.03125 C 2.32232 65.086344 3.572804 66.220154 5.0625 67.09375 C 7.4471162 68.49215 10.065856 69.66005 12.875 70.59375 C 15.684144 71.52735 18.70325 72.2201 21.9375 72.6875 C 25.17175 73.155 28.621315 73.40625 32.28125 73.40625 C 35.941158 73.40625 39.390764 73.155 42.625 72.6875 C 45.859237 72.2201 48.847106 71.52735 51.65625 70.59375 C 54.465394 69.66005 57.08412 68.49215 59.46875 67.09375 C 61.85338 65.69535 64.039306 64.0492 66 62.1875 C 67.960651 60.3258 69.655204 58.2632 71.125 56 C 72.594797 53.7368 73.833092 51.2894 74.8125 48.625 C 75.791909 45.9608 76.541766 43.09634 77.03125 40.03125 C 77.520734 36.96606 77.749976 33.68436 77.75 30.21875 C 77.749976 26.74349 77.517355 23.47302 77.03125 20.40625 C 76.545145 17.33948 75.785588 14.50388 74.8125 11.84375 C 74.76393 11.71097 74.674785 11.60052 74.625 11.46875 C 65.909995 8.99522 56.879734 7.59381 48.9375 7.65625 C 49.436257 8.1233 50.020013 8.50551 50.46875 9.03125 C 51.474339 10.2094 52.370667 11.52703 53.125 13 C 53.879333 14.47299 54.497015 16.10707 55 17.875 C 55.502984 19.64292 55.904707 21.53076 56.15625 23.59375 C 56.407793 25.65675 56.499991 27.86055 56.5 30.21875 C 56.499991 32.57212 56.408543 34.81556 56.15625 36.875 C 55.903951 38.93444 55.504667 40.82835 55 42.59375 C 54.495332 44.35928 53.882119 45.99735 53.125 47.46875 C 52.367881 48.94015 51.478398 50.22905 50.46875 51.40625 C 49.459102 52.58345 48.29351 53.6169 47.03125 54.5 C 45.76899 55.3829 44.389951 56.12995 42.875 56.71875 C 41.360048 57.30745 39.736473 57.7681 37.96875 58.0625 C 36.201027 58.3569 34.301825 58.46875 32.28125 58.46875 C 30.266102 58.46875 28.357475 58.3586 26.59375 58.0625 C 24.830026 57.7664 23.200393 57.31075 21.6875 56.71875 C 21.053464 56.47055 20.527555 56.08125 19.9375 55.78125 C 14.276508 56.420401 7.7513755 56.125734 1 54.96875 z "
       id="rect3864"
       transform="translate(0,956.36218)" />
  </g>
</svg>
