<?xml version="1.0" encoding="UTF-8" standalone="no"?>
<!-- Created with Inkscape (http://www.inkscape.org/) -->

<svg
   xmlns:dc="http://purl.org/dc/elements/1.1/"
   xmlns:cc="http://creativecommons.org/ns#"
   xmlns:rdf="http://www.w3.org/1999/02/22-rdf-syntax-ns#"
   xmlns:svg="http://www.w3.org/2000/svg"
   xmlns="http://www.w3.org/2000/svg"
   xmlns:xlink="http://www.w3.org/1999/xlink"
   xmlns:sodipodi="http://sodipodi.sourceforge.net/DTD/sodipodi-0.dtd"
   xmlns:inkscape="http://www.inkscape.org/namespaces/inkscape"
   width="96"
   height="96"
   id="svg2"
   version="1.1"
   inkscape:version="0.48.4 r9939"
   sodipodi:docname="pandora.svg">
  <defs
     id="defs4">
    <linearGradient
       id="linearGradient3786">
      <stop
         style="stop-color:#006fa3;stop-opacity:1;"
         offset="0"
         id="stop3788" />
      <stop
         style="stop-color:#28b6e8;stop-opacity:1;"
         offset="1"
         id="stop3790" />
    </linearGradient>
    <linearGradient
       inkscape:collect="always"
       xlink:href="#linearGradient3786"
       id="linearGradient3792"
       x1="30"
       y1="1047.3622"
       x2="30"
       y2="957.36218"
       gradientUnits="userSpaceOnUse" />
  </defs>
  <sodipodi:namedview
     id="base"
     pagecolor="#ffffff"
     bordercolor="#666666"
     borderopacity="1.0"
     inkscape:pageopacity="0.0"
     inkscape:pageshadow="2"
     inkscape:zoom="5.7113653"
     inkscape:cx="46.893694"
     inkscape:cy="48.42328"
     inkscape:document-units="px"
     inkscape:current-layer="layer1"
     showgrid="true"
     inkscape:snap-page="true"
     inkscape:snap-global="false"
     inkscape:snap-center="true"
     inkscape:snap-object-midpoints="false"
     showguides="true"
     inkscape:guide-bbox="true"
     inkscape:snap-bbox="true"
     inkscape:object-paths="true"
     inkscape:object-nodes="true"
     inkscape:window-width="1305"
     inkscape:window-height="744"
     inkscape:window-x="61"
     inkscape:window-y="24"
     inkscape:window-maximized="1"
     inkscape:snap-midpoints="true"
     inkscape:snap-grids="true"
     inkscape:snap-to-guides="false">
    <inkscape:grid
       type="xygrid"
       id="grid3002"
       empspacing="5"
       visible="true"
       enabled="true"
       snapvisiblegridlinesonly="true" />
  </sodipodi:namedview>
  <metadata
     id="metadata7">
    <rdf:RDF>
      <cc:Work
         rdf:about="">
        <dc:format>image/svg+xml</dc:format>
        <dc:type
           rdf:resource="http://purl.org/dc/dcmitype/StillImage" />
        <dc:title />
      </cc:Work>
    </rdf:RDF>
  </metadata>
  <g
     inkscape:label="Layer 1"
     inkscape:groupmode="layer"
     id="layer1"
     transform="translate(0,-956.36218)">
    <rect
       style="fill:#ffffff;fill-opacity:0;fill-rule:nonzero;stroke:none"
       id="rect3775"
       width="96"
       height="96"
       x="0"
       y="956.36218"
       ry="0" />
    <path
       style="fill:#000000;fill-opacity:0.09589041;fill-rule:nonzero;stroke:none"
       d="m 3.353015,956.30662 c -1.884176,0 -3.4111555,1.43156 -3.4111555,3.19799 l 0,83.65949 c 0,1.7665 1.5269795,3.1981 3.4111555,3.1981 l 89.23583,0 c 1.884174,0 3.411155,-1.4316 3.411155,-3.1981 l 0,-83.65949 c 0,-1.76643 -1.526981,-3.19799 -3.411155,-3.19799 z"
       id="rect3772"
       inkscape:connector-curvature="0"
       sodipodi:nodetypes="sssssssss" />
    <path
       style="fill:#000000;fill-opacity:0.18721463;fill-rule:nonzero;stroke:none"
       d="m 1.0459761,1041.8066 0,7.4219 c 0,1.7392 1.461916,3.1337 3.2852054,3.1337 l 86.3836135,0 c 1.823288,0 3.285205,-1.3945 3.285205,-3.1337 l 0,-7.4219 -92.9540239,0 z"
       id="rect3785"
       inkscape:connector-curvature="0" />
    <path
       style="fill:#000000;fill-opacity:0.38356168;fill-rule:nonzero;stroke:none"
       d="m 1.0459761,1041.8066 0,5.3807 c 0,1.762 1.461916,3.1749 3.2852054,3.1749 l 86.3836135,0 c 1.823288,0 3.285205,-1.4129 3.285205,-3.1749 l 0,-5.3807 -92.9540239,0 z"
       id="rect3783"
       inkscape:connector-curvature="0" />
    <rect
       style="fill:url(#linearGradient3792);fill-opacity:1;fill-rule:nonzero;stroke:none"
       id="rect2985"
       width="92.954025"
       height="89"
       x="1.045977"
       y="957.36218"
       ry="3.1511393" />
    <path
       style="fill:#000000;fill-opacity:0.38356168;fill-rule:nonzero;stroke:none"
       d="m 1,1042.3622 0.045976,2.7457 c 0.03024,1.8058 1.461916,3.2543 3.2852054,3.2543 l 86.3836136,0 c 1.823288,0 3.285205,-1.4481 3.285205,-3.2543 l -0.04598,-2.7457 z"
       id="rect3781"
       inkscape:connector-curvature="0"
       sodipodi:nodetypes="csssscc" />
    <rect
       style="fill:#ffffff;fill-opacity:0.30000001;fill-rule:nonzero;stroke:none"
       id="rect3770"
       width="92.954033"
       height="2.000005"
       x="1.045976"
       y="1040.3622" />
    <rect
       style="fill:#ffffff;fill-opacity:0.19178084;fill-rule:evenodd;stroke:none"
       id="rect3771"
       width="93"
       height="49.999996"
       x="1"
       y="977.36218" />
    <rect
       y="977.36218"
       x="1"
       height="28.113811"
       width="93"
       id="rect3773"
       style="fill:#ffffff;fill-opacity:0.19178084;fill-rule:evenodd;stroke:none" />
    <rect
       style="fill:#ffffff;fill-opacity:0.19178084;fill-rule:evenodd;stroke:none"
       id="rect3776"
       width="93"
       height="2.7238352"
       x="1"
       y="1024.6383" />
    <rect
       y="977.36414"
       x="1"
       height="2.5487471"
       width="27.691622"
       id="rect3778"
       style="fill:#ffffff;fill-opacity:0.19178084;fill-rule:evenodd;stroke:none" />
    <path
       style="font-size:69.14720916999999645px;font-style:normal;font-variant:normal;font-weight:normal;font-stretch:normal;text-align:end;line-height:125%;letter-spacing:0px;word-spacing:0px;text-anchor:end;fill:#ffffff;fill-opacity:1;stroke:none;font-family:Andale Mono;-inkscape-font-specification:Andale Mono"
       d="M 22.5625 21 L 22.5625 23.5 C 23.144833 23.547029 23.826979 23.640353 24.625 23.78125 C 25.444579 23.898751 26.274159 24.100917 27.09375 24.40625 C 27.891758 24.735167 28.409311 25.248555 28.625 25.90625 C 28.840671 26.564035 28.937491 27.302868 28.9375 28.125 L 28.9375 64.1875 C 28.937491 65.103645 28.801943 65.881487 28.5 66.46875 C 28.219607 67.056023 27.740782 67.475874 27.09375 67.78125 C 26.705519 67.969179 26.023372 68.132549 25.03125 68.25 C 24.060685 68.367456 23.298879 68.453021 22.78125 68.5 L 22.78125 71 L 42.5 71 L 42.5 68.5 C 41.680393 68.476512 40.773357 68.390947 39.78125 68.25 C 38.81067 68.109058 38.138206 67.945688 37.75 67.78125 C 36.973534 67.452383 36.446299 66.985763 36.1875 66.375 C 35.950236 65.740755 35.843734 65.009682 35.84375 64.1875 L 35.84375 49.0625 L 40.96875 49.0625 C 43.168664 49.062522 45.256035 48.735782 47.21875 48.125 C 49.18141 47.514264 50.9858 46.565506 52.625 45.25 C 54.285702 43.934545 55.572539 42.277992 56.5 40.28125 C 57.448955 38.261079 57.937462 35.951258 57.9375 33.34375 C 57.937462 29.608763 56.580647 26.606665 53.90625 24.375 C 51.253353 22.119938 47.801688 21.00005 43.53125 21 L 22.5625 21 z M 35.84375 23.875 L 40.40625 23.875 C 42.239509 23.875047 43.770599 24.201787 45 24.8125 C 46.22935 25.423305 47.213842 26.27098 47.96875 27.375 C 48.680465 28.408635 49.188336 29.614088 49.46875 31 C 49.770672 32.385992 49.90622 33.754815 49.90625 35.09375 C 49.90622 36.056905 49.799718 37.153515 49.5625 38.375 C 49.325222 39.573059 48.827033 40.747475 48.09375 41.875 C 47.36041 43.049565 46.247848 44.013842 44.78125 44.8125 C 43.336169 45.58772 41.454324 45.968775 39.125 45.96875 L 35.84375 45.96875 L 35.84375 23.875 z "
       transform="translate(0,956.36218)"
       id="text2997" />
  </g>
</svg>
