<?xml version="1.0" encoding="UTF-8" standalone="no"?>
<!-- Created with Inkscape (http://www.inkscape.org/) -->

<svg
   xmlns:dc="http://purl.org/dc/elements/1.1/"
   xmlns:cc="http://creativecommons.org/ns#"
   xmlns:rdf="http://www.w3.org/1999/02/22-rdf-syntax-ns#"
   xmlns:svg="http://www.w3.org/2000/svg"
   xmlns="http://www.w3.org/2000/svg"
   xmlns:xlink="http://www.w3.org/1999/xlink"
   xmlns:sodipodi="http://sodipodi.sourceforge.net/DTD/sodipodi-0.dtd"
   xmlns:inkscape="http://www.inkscape.org/namespaces/inkscape"
   width="96"
   height="96"
   id="svg2"
   version="1.1"
   inkscape:version="0.48.4 r9939"
   sodipodi:docname="pet.svg">
  <defs
     id="defs4">
    <linearGradient
       id="linearGradient3778">
      <stop
         style="stop-color:#009933;stop-opacity:1;"
         offset="0"
         id="stop3780" />
      <stop
         style="stop-color:#00bd3f;stop-opacity:1;"
         offset="1"
         id="stop3782" />
    </linearGradient>
    <linearGradient
       inkscape:collect="always"
       xlink:href="#linearGradient3778"
       id="linearGradient3784"
       x1="45"
       y1="1047.3622"
       x2="45"
       y2="957.36218"
       gradientUnits="userSpaceOnUse" />
  </defs>
  <sodipodi:namedview
     id="base"
     pagecolor="#ffffff"
     bordercolor="#666666"
     borderopacity="1.0"
     inkscape:pageopacity="0.0"
     inkscape:pageshadow="2"
     inkscape:zoom="4.6264763"
     inkscape:cx="31.747511"
     inkscape:cy="51.803805"
     inkscape:document-units="px"
     inkscape:current-layer="layer1"
     showgrid="true"
     inkscape:snap-page="true"
     inkscape:snap-global="true"
     inkscape:snap-center="true"
     inkscape:snap-object-midpoints="false"
     showguides="true"
     inkscape:guide-bbox="true"
     inkscape:snap-bbox="true"
     inkscape:object-paths="true"
     inkscape:object-nodes="true"
     inkscape:window-width="1305"
     inkscape:window-height="744"
     inkscape:window-x="61"
     inkscape:window-y="24"
     inkscape:window-maximized="1"
     inkscape:snap-midpoints="true"
     inkscape:snap-grids="true"
     inkscape:snap-to-guides="false">
    <inkscape:grid
       type="xygrid"
       id="grid3002"
       empspacing="5"
       visible="true"
       enabled="true"
       snapvisiblegridlinesonly="true" />
  </sodipodi:namedview>
  <metadata
     id="metadata7">
    <rdf:RDF>
      <cc:Work
         rdf:about="">
        <dc:format>image/svg+xml</dc:format>
        <dc:type
           rdf:resource="http://purl.org/dc/dcmitype/StillImage" />
        <dc:title />
      </cc:Work>
    </rdf:RDF>
  </metadata>
  <g
     inkscape:label="Layer 1"
     inkscape:groupmode="layer"
     id="layer1"
     transform="translate(0,-956.36218)">
    <rect
       style="fill:#ffffff;fill-opacity:0;fill-rule:nonzero;stroke:none"
       id="rect3775"
       width="96"
       height="96"
       x="0"
       y="956.36218"
       ry="0" />
    <path
       style="fill:#000000;fill-opacity:0.09589041;fill-rule:nonzero;stroke:none"
       d="m 3.353015,956.30662 c -1.884176,0 -3.4111555,1.43156 -3.4111555,3.19799 l 0,83.65949 c 0,1.7665 1.5269795,3.1981 3.4111555,3.1981 l 89.23583,0 c 1.884174,0 3.411155,-1.4316 3.411155,-3.1981 l 0,-83.65949 c 0,-1.76643 -1.526981,-3.19799 -3.411155,-3.19799 z"
       id="rect3772"
       inkscape:connector-curvature="0"
       sodipodi:nodetypes="sssssssss" />
    <path
       style="fill:#000000;fill-opacity:0.18721463;fill-rule:nonzero;stroke:none"
       d="m 1.0459761,1041.8066 0,7.4219 c 0,1.7392 1.461916,3.1337 3.2852054,3.1337 l 86.3836135,0 c 1.823288,0 3.285205,-1.3945 3.285205,-3.1337 l 0,-7.4219 -92.9540239,0 z"
       id="rect3785"
       inkscape:connector-curvature="0" />
    <path
       style="fill:#000000;fill-opacity:0.38356168;fill-rule:nonzero;stroke:none"
       d="m 1.0459761,1041.8066 0,5.3807 c 0,1.762 1.461916,3.1749 3.2852054,3.1749 l 86.3836135,0 c 1.823288,0 3.285205,-1.4129 3.285205,-3.1749 l 0,-5.3807 -92.9540239,0 z"
       id="rect3783"
       inkscape:connector-curvature="0" />
    <rect
       style="fill:url(#linearGradient3784);fill-opacity:1;fill-rule:nonzero;stroke:none"
       id="rect2985"
       width="92.954025"
       height="89"
       x="1.045977"
       y="957.36218"
       ry="3.1511393" />
    <path
       style="fill:#000000;fill-opacity:0.38356168;fill-rule:nonzero;stroke:none"
       d="m 1,1042.3622 0.045976,2.7457 c 0.03024,1.8058 1.461916,3.2543 3.2852054,3.2543 l 86.3836136,0 c 1.823288,0 3.285205,-1.4481 3.285205,-3.2543 l -0.04598,-2.7457 z"
       id="rect3781"
       inkscape:connector-curvature="0"
       sodipodi:nodetypes="csssscc" />
    <rect
       style="fill:#ffffff;fill-opacity:0.15686275;fill-rule:nonzero;stroke:none"
       id="rect3770"
       width="92.954033"
       height="2.000005"
       x="1.045976"
       y="1040.3622" />
    <g
       id="g3000"
       style="fill:#ffffff"
       transform="translate(75.460194,-0.01496253)">
      <path
         style="fill:#ffffff;fill-opacity:1;stroke:none"
         id="path4884"
         d="m -30.262798,989.60829 17.078388,0.3214 -6.731638,8.03496 -10.34675,0 z"
         inkscape:connector-curvature="0" />
      <path
         style="fill:#ffffff;fill-opacity:1;stroke:none"
         id="path4886"
         d="m -30.371695,1009.4205 17.078385,-0.3214 -6.731635,-8.0351 -10.34675,0 z"
         inkscape:connector-curvature="0" />
      <path
         style="fill:#ffffff;fill-opacity:1;stroke:none"
         id="path4888"
         d="m -33.188511,989.16991 0.177083,-12.76219 c 0,0 -27.204878,-2.58884 -27.447144,22.38293 -0.245453,25.30115 27.447144,23.56105 27.447144,23.56105 l 0,-13.155 c 0,0 -16.583461,3.6781 -15.759973,-9.22795 1.032298,-16.1789 15.58289,-10.79884 15.58289,-10.79884 z"
         inkscape:connector-curvature="0" />
      <path
         inkscape:connector-curvature="0"
         id="text3040"
         d="m -30.588694,1012.171 0,9.4034 1.302167,0 0,-3.7184 1.24791,0 c 0.520906,0 0.969684,-0.049 1.356423,-0.1844 0.394623,-0.1441 0.724057,-0.338 0.976624,-0.5838 0.252556,-0.2544 0.443411,-0.5744 0.569697,-0.9219 0.126275,-0.3476 0.189894,-0.7132 0.1899,-1.1371 -6e-6,-0.4153 -0.06362,-0.8201 -0.1899,-1.1677 -0.126286,-0.3561 -0.317141,-0.6453 -0.569697,-0.8911 -0.252567,-0.2544 -0.582001,-0.4483 -0.976624,-0.5839 -0.386739,-0.1441 -0.835517,-0.2151 -1.356423,-0.2151 l -2.550077,0 z m 6.619345,0 0,9.4034 4.720348,0 0,-1.2599 -3.445312,0 0,-2.858 3.445312,0 0,-1.2599 -3.445312,0 0,-2.7657 3.445312,0 0,-1.2599 -4.720348,0 z m 5.479944,0 0,1.2599 1.681964,0 0,8.1435 1.275037,0 0,-8.1435 1.681964,0 0,-1.2599 -4.638965,0 z m -10.797122,1.2599 1.24791,0 c 0.363054,0 0.666353,0.052 0.89524,0.1537 0.236772,0.1016 0.408391,0.2161 0.542569,0.3687 0.142061,0.1526 0.251052,0.336 0.298413,0.5224 0.05524,0.1866 0.08138,0.3752 0.08139,0.5531 -6e-6,0.178 -0.02614,0.336 -0.08139,0.5225 -0.04737,0.1864 -0.156352,0.3697 -0.298413,0.5224 -0.134178,0.1526 -0.305797,0.267 -0.542569,0.3687 -0.228887,0.1018 -0.532186,0.1537 -0.89524,0.1537 l -1.24791,0 0,-3.1652 z"
         style="font-size:13.27956676px;font-style:normal;font-variant:normal;font-weight:normal;font-stretch:normal;text-align:end;line-height:125%;letter-spacing:0px;word-spacing:0px;text-anchor:end;fill:#ffffff;fill-opacity:1;stroke:none;font-family:mry_KacstQurn;-inkscape-font-specification:mry_KacstQurn" />
    </g>
  </g>
</svg>
