<?xml version="1.0" encoding="UTF-8" standalone="no"?>
<!-- Created with Inkscape (http://www.inkscape.org/) -->

<svg
   xmlns:dc="http://purl.org/dc/elements/1.1/"
   xmlns:cc="http://creativecommons.org/ns#"
   xmlns:rdf="http://www.w3.org/1999/02/22-rdf-syntax-ns#"
   xmlns:svg="http://www.w3.org/2000/svg"
   xmlns="http://www.w3.org/2000/svg"
   xmlns:sodipodi="http://sodipodi.sourceforge.net/DTD/sodipodi-0.dtd"
   xmlns:inkscape="http://www.inkscape.org/namespaces/inkscape"
   width="96"
   height="96"
   id="svg2"
   version="1.1"
   inkscape:version="0.48.4 r9939"
   sodipodi:docname="photofilmstrip.svg">
  <defs
     id="defs4" />
  <sodipodi:namedview
     id="base"
     pagecolor="#ffffff"
     bordercolor="#666666"
     borderopacity="1.0"
     inkscape:pageopacity="0.0"
     inkscape:pageshadow="2"
     inkscape:zoom="5.90625"
     inkscape:cx="48"
     inkscape:cy="48"
     inkscape:document-units="px"
     inkscape:current-layer="layer1"
     showgrid="true"
     inkscape:snap-page="true"
     inkscape:snap-global="true"
     inkscape:snap-center="true"
     inkscape:snap-object-midpoints="false"
     showguides="true"
     inkscape:guide-bbox="true"
     inkscape:snap-bbox="true"
     inkscape:object-paths="true"
     inkscape:object-nodes="true"
     inkscape:window-width="1305"
     inkscape:window-height="744"
     inkscape:window-x="61"
     inkscape:window-y="24"
     inkscape:window-maximized="1"
     inkscape:snap-midpoints="false"
     inkscape:snap-grids="true"
     inkscape:snap-to-guides="false">
    <inkscape:grid
       type="xygrid"
       id="grid3002"
       empspacing="5"
       visible="true"
       enabled="true"
       snapvisiblegridlinesonly="true" />
  </sodipodi:namedview>
  <metadata
     id="metadata7">
    <rdf:RDF>
      <cc:Work
         rdf:about="">
        <dc:format>image/svg+xml</dc:format>
        <dc:type
           rdf:resource="http://purl.org/dc/dcmitype/StillImage" />
        <dc:title />
      </cc:Work>
    </rdf:RDF>
  </metadata>
  <g
     inkscape:label="Layer 1"
     inkscape:groupmode="layer"
     id="layer1"
     transform="translate(0,-956.36218)">
    <rect
       style="fill:#ffffff;fill-opacity:0;fill-rule:nonzero;stroke:none"
       id="rect3775"
       width="96"
       height="96"
       x="0"
       y="956.36218"
       ry="0" />
    <path
       style="fill:#000000;fill-opacity:0.09589041;fill-rule:nonzero;stroke:none"
       d="m 3.353015,956.30662 c -1.884176,0 -3.4111555,1.43156 -3.4111555,3.19799 l 0,83.65949 c 0,1.7665 1.5269795,3.1981 3.4111555,3.1981 l 89.23583,0 c 1.884174,0 3.411155,-1.4316 3.411155,-3.1981 l 0,-83.65949 c 0,-1.76643 -1.526981,-3.19799 -3.411155,-3.19799 z"
       id="rect3772"
       inkscape:connector-curvature="0"
       sodipodi:nodetypes="sssssssss" />
    <path
       style="fill:#000000;fill-opacity:0.18721463;fill-rule:nonzero;stroke:none"
       d="m 1.0459761,1041.8066 0,7.4219 c 0,1.7392 1.461916,3.1337 3.2852054,3.1337 l 86.3836135,0 c 1.823288,0 3.285205,-1.3945 3.285205,-3.1337 l 0,-7.4219 -92.9540239,0 z"
       id="rect3785"
       inkscape:connector-curvature="0" />
    <path
       style="fill:#000000;fill-opacity:0.38356168;fill-rule:nonzero;stroke:none"
       d="m 1.0459761,1041.8066 0,5.3807 c 0,1.762 1.461916,3.1749 3.2852054,3.1749 l 86.3836135,0 c 1.823288,0 3.285205,-1.4129 3.285205,-3.1749 l 0,-5.3807 -92.9540239,0 z"
       id="rect3783"
       inkscape:connector-curvature="0" />
    <path
       style="fill:#fbf8de"
       d="m 4.2868276,957.3622 c -0.912097,0 -1.7229125,0.35751 -2.318079,0.92708 -0.5951664,0.56957 -0.9687494,1.34551 -0.9687494,2.21838 l 0,82.70904 c 0,0.873 0.373583,1.6489 0.9687494,2.2185 0.5951665,0.5696 1.405982,0.927 2.318079,0.927 l 86.4262884,0 c 0.912094,0 1.722912,-0.3574 2.318079,-0.927 0.595166,-0.5696 0.968749,-1.3455 0.968749,-2.2185 l 0,-82.70904 c 0,-0.87287 -0.373583,-1.64881 -0.968749,-2.21838 -0.595167,-0.56957 -1.405985,-0.92708 -2.318079,-0.92708 l -86.4262884,0 z"
       id="path5769"
       inkscape:connector-curvature="0" />
    <path
       style="fill:#ffc973;fill-opacity:1"
       d="m 4.2868276,957.3622 86.4262884,0 c 0.912094,0 1.722912,0.35751 2.318079,0.92708 0.595166,0.56957 0.968749,1.34551 0.968749,2.21838 l 0,76.35194 c 0,0.8729 -0.373583,1.6488 -0.968749,2.2184 -0.595167,0.5696 -1.405985,0.9271 -2.318079,0.9271 l -86.4262884,0 c -0.912097,0 -1.7229125,-0.3575 -2.318079,-0.9271 -0.5951664,-0.5696 -0.9687494,-1.3455 -0.9687494,-2.2184 l 0,-76.35194 c 0,-0.87287 0.373583,-1.64881 0.9687494,-2.21838 0.5951665,-0.56957 1.405982,-0.92708 2.318079,-0.92708 z"
       id="path5767"
       inkscape:connector-curvature="0"
       sodipodi:nodetypes="sssssssssssss" />
    <path
       style="fill:#ffb542;fill-opacity:1"
       d="m 93.999944,998.55122 c -0.07341,-0.11581 -0.146383,-0.21413 -0.207589,-0.3311 -0.235337,-0.44977 -0.41943,-0.54831 -0.96875,-0.59599 -0.361328,-0.0318 -0.463371,-0.0413 -0.588169,0.0657 -0.223296,0.19316 -0.44547,0.63138 -0.553571,1.12575 -0.05282,0.24168 -0.12751,0.47678 -0.172991,0.52976 -0.06341,0.072 -0.323908,0.0996 -1.107142,0.0996 l -1.037946,0 -0.0692,-0.1655 c -0.04585,-0.0964 -0.0692,-0.23236 -0.0692,-0.29805 0,-0.0667 -0.09892,-0.20046 -0.207589,-0.29793 -0.62954,-0.56208 -1.327669,-0.40866 -1.52232,0.3311 -0.04286,0.16285 -0.127986,0.32919 -0.172991,0.36416 -0.0815,0.0636 -0.783194,0.0954 -2.49107,0.1656 -0.768369,0.0318 -2.297872,0 -4.186382,-0.13244 -0.599988,-0.0413 -0.585733,-0.0562 -0.553571,-1.22513 0.02344,-0.85207 0.01019,-0.89381 -0.172991,-1.15882 -0.177353,-0.25619 -0.223603,-0.26488 -0.553571,-0.26488 -0.298652,0 -0.392559,0.0531 -0.657366,0.26488 -0.171368,0.137 -0.332452,0.29849 -0.38058,0.36418 -0.04813,0.0657 -0.192505,0.15098 -0.311384,0.19866 -0.166008,0.0657 -0.268174,0.17599 -0.38058,0.46354 -0.08602,0.21996 -0.129735,0.43017 -0.103794,0.52976 0.117801,0.44924 -0.257048,0.82622 -0.691964,0.66221 -0.12513,-0.0477 -0.618136,-0.13795 -1.072544,-0.1655 -0.454408,-0.0286 -1.067819,-0.0763 -1.383928,-0.13244 -0.316109,-0.0562 -0.786588,-0.15628 -1.037946,-0.19866 -0.621312,-0.10627 -0.738917,-0.23501 -0.830356,-0.89403 -0.0835,-0.60181 -0.204951,-0.72839 -0.58817,-0.72839 -0.123577,0 -0.241877,-0.0516 -0.276785,-0.0993 -0.03565,-0.0483 -0.05648,-1.20568 -0.0346,-2.6157 0.02563,-1.65209 0.01417,-2.53693 -0.0346,-2.64881 -0.141034,-0.32357 -1.236608,-0.5714 -1.487722,-0.3311 -0.352577,0.33742 -0.460408,1.22334 -0.622767,4.9003 -0.06655,1.50709 -0.117304,1.76784 -0.380581,1.92041 -0.100882,0.0583 -0.157003,0.0519 -0.207589,-0.0328 -0.05388,-0.0869 -0.202454,-0.10998 -0.864955,-0.0996 -0.678076,0.0106 -0.826377,-0.0254 -0.968749,-0.13244 -0.199652,-0.15035 -0.246451,-0.1512 -0.484375,-0.0329 -0.128117,0.0636 -0.292562,0.0678 -0.588169,0.0329 -0.230572,-0.0286 -1.288747,-0.0329 -2.318079,-0.0329 -1.27127,0 -1.883171,-0.0477 -1.937499,-0.0996 -0.04654,-0.0424 -0.199278,-0.053 -0.38058,-0.0328 -0.17136,0.0201 -0.934625,0.0106 -1.660713,-0.0328 -1.169326,-0.0646 -1.334849,-0.1103 -1.453124,-0.23172 -0.115252,-0.11814 -0.232051,-0.11867 -0.899553,-0.13244 -0.736234,-0.0148 -1.744458,-0.20658 -1.799106,-0.33118 -0.01317,-0.0307 -0.154026,-0.0662 -0.311384,-0.0662 -0.341277,0 -0.570898,-0.10224 -0.518973,-0.23177 0.04902,-0.12227 -0.234988,-0.18118 -0.588169,-0.13244 -0.33586,0.0468 -0.445703,-0.0341 -0.518973,-0.3311 l -0.0692,-0.23177 0,0.29799 c -0.0061,0.24454 -0.053,0.29799 -0.172991,0.29799 -0.113605,0 -0.138392,-0.0586 -0.138392,-0.23177 0,-0.24729 -0.211028,-0.52976 -0.415179,-0.52976 -0.08326,0 -0.138393,-0.0456 -0.138393,-0.13244 0,-0.10045 0.04129,-0.13244 0.172991,-0.13244 0.09878,0 0.172991,-0.0281 0.172991,-0.0662 0,-0.0382 -0.07421,-0.0662 -0.172991,-0.0662 -0.09879,0 -0.172991,-0.0281 -0.172991,-0.0662 0,-0.0382 -0.210302,-0.0662 -0.449776,-0.0662 -0.237083,0 -0.415178,0.008 -0.415178,0.0331 0,0.086 0.256053,0.23177 0.415178,0.23177 0.112988,0.002 0.138393,0.036 0.138393,0.13244 0,0.0919 -0.0426,0.13244 -0.138393,0.13244 -0.07903,0 -0.138393,-0.0281 -0.138393,-0.0662 0,-0.0381 -0.116137,-0.0662 -0.276785,-0.0662 -0.160657,0 -0.375167,-0.0281 -0.449777,-0.0662 -0.07461,-0.0376 -0.314671,-0.10807 -0.553571,-0.13244 -0.386409,-0.0387 -0.449777,-0.0305 -0.449777,-0.16555 0,-0.15172 0.02203,-0.15495 -1.556918,-0.16555 -1.016314,-0.007 -1.591517,-0.0113 -1.591517,0.0331 0,0.0381 -0.209426,0.0993 -0.449777,0.0993 -0.239475,0 -0.415178,-0.0611 -0.415178,-0.0993 0,-0.0381 -0.175703,-0.0662 -0.415178,-0.0662 -0.239475,0 -0.449777,0.0281 -0.449777,0.0662 0,0.0424 -0.391357,0.0993 -1.037946,0.0993 -0.646586,0 -1.037945,-0.0569 -1.037945,-0.0993 0,-0.0381 0.133571,-0.0662 0.311383,-0.0662 0.177812,0 0.345982,-0.0281 0.345982,-0.0662 0,-0.038 -0.217327,-0.0662 -0.449776,-0.0662 -0.734718,0 -1.280133,-0.0632 -1.280133,-0.16555 0,-0.0734 -0.186734,-0.0993 -0.864955,-0.0993 -0.81421,0 -0.864955,-0.002 -0.864955,-0.13244 0,-0.12616 0.05708,-0.13244 0.588169,-0.13244 0.367701,0 0.547172,-0.0226 0.518973,-0.0662 -0.02442,-0.0378 -0.235934,-0.0993 -0.484375,-0.0993 -0.248432,0 -0.745448,-0.008 -1.107142,-0.0331 l -0.657366,-0.0331 0,-0.29799 0,-0.298 -0.588169,0 -0.588169,0 0,-0.29799 0,-0.26488 -0.311384,0 c -0.175482,0 -0.321625,0.0284 -0.345982,0.0662 -0.08353,0.12932 -0.539953,0.0818 -0.622767,-0.0662 -0.04986,-0.0891 -0.141238,-0.13244 -0.276786,-0.13244 -0.157314,0 -0.240416,-0.0564 -0.311384,-0.19866 -0.05327,-0.10668 -0.151291,-0.18626 -0.242187,-0.19866 -0.08856,-0.0121 -0.172991,-0.0641 -0.172991,-0.0993 0,-0.0353 -0.178095,-0.0662 -0.415178,-0.0662 -0.239475,0 -0.449777,0.0281 -0.449777,0.0662 0,0.0382 -0.175703,0.0662 -0.415178,0.0662 -0.427733,0 -0.449777,-0.002 -0.449777,-0.19866 0,-0.21416 0.01592,-0.18939 -0.795758,-0.29799 -0.187694,-0.0251 -0.345982,-0.0658 -0.345982,-0.0993 0,-0.0336 -0.212693,-0.0662 -0.449777,-0.0662 -0.239474,0 -0.415178,0.028 -0.415178,0.0662 0,0.0378 -0.05945,0.0662 -0.138393,0.0662 -0.08689,0 -0.138392,-0.0623 -0.138392,-0.13244 0,-0.0638 -0.08708,-0.17736 -0.172991,-0.26488 -0.128606,-0.13105 -0.208973,-0.16555 -0.553571,-0.16555 -0.376573,0 -0.449777,-0.003 -0.449777,-0.13244 0,-0.24955 -0.267153,-0.3952 -0.726562,-0.39732 -0.368822,-0.002 -0.415178,-0.0388 -0.415178,-0.16555 0,-0.25538 -0.119561,-0.39732 -0.345982,-0.39732 -0.167832,0 -0.207589,-0.0198 -0.207589,-0.13244 0,-0.12312 0.02203,-0.13832 0.207589,-0.0993 0.119649,0.0251 0.207589,0.003 0.207589,-0.0331 0,-0.0354 -0.233353,-0.0738 -0.518973,-0.0993 -0.28561,-0.0254 -0.549752,-0.0957 -0.588169,-0.13245 -0.0384,-0.0367 -0.166182,-0.0662 -0.276786,-0.0662 -0.153339,0 -0.207589,-0.0276 -0.207589,-0.13244 0,-0.0756 0.02967,-0.13244 0.0692,-0.13244 0.03953,0 0.103795,-0.11495 0.103795,-0.26488 0,-0.30722 -0.15014,-0.43043 -0.518973,-0.43043 -0.215815,0 -0.207589,0.006 -0.207589,-0.3311 l 0,-0.3311 -0.449777,0 c -0.335187,0 -0.415178,0.0192 -0.415178,0.0993 0,0.0573 -0.05857,0.0993 -0.138393,0.0993 -0.0798,0 -0.138393,-0.0421 -0.138393,-0.0993 0,-0.0746 -0.103827,-0.0993 -0.311383,-0.0993 -0.278513,0 -0.276786,-0.006 -0.276786,-0.23177 l 0,-0.26488 -1.14174,-0.0331 c -0.632223,-0.0274 -1.141741,-0.0658 -1.141741,-0.0993 0,-0.0335 -0.141127,-0.0662 -0.311383,-0.0662 -0.170257,0 -0.373052,-0.0438 -0.449777,-0.0993 -0.08111,-0.0586 -0.329762,-0.0983 -0.553571,-0.0993 -0.323385,-0.002 -0.400254,-0.0543 -0.518973,-0.19866 -0.126236,-0.15356 -0.181283,-0.16555 -0.622767,-0.16555 -0.385219,0 -0.501647,-0.0106 -0.553571,-0.0993 -0.05562,-0.0951 -0.160691,-0.1014 -0.553572,-0.0662 -0.399778,0.0357 -0.505554,0.0149 -0.657365,-0.0993 -0.128849,-0.097 -0.263655,-0.13244 -0.553571,-0.13244 -0.220964,0 -0.415179,-0.0321 -0.415179,-0.0662 0,-0.0923 -0.608496,-0.14643 -2.145088,-0.19866 -0.757473,-0.0258 -1.366324,-0.0803 -1.383927,-0.0993 -0.01749,-0.0189 -0.09211,-0.0804 -0.138393,-0.16555 -0.07407,-0.13616 -0.144737,-0.16555 -0.553571,-0.16555 -0.255451,0 -0.449777,0.0314 -0.449777,0.0662 0,0.12651 -0.442502,0.14614 -0.622767,0.0331 -0.09577,-0.0601 -0.228459,-0.0993 -0.311384,-0.0993 -0.08304,0 -0.203161,-0.0285 -0.276786,-0.0662 -0.07362,-0.0377 -0.3532,-0.0993 -0.622767,-0.13244 -0.307409,-0.0378 -0.403664,-0.0609 -0.242187,-0.0662 0.303866,-0.0106 0.386392,-0.0723 0.276785,-0.19866 -0.06455,-0.0745 -0.688399,-0.10034 -3.1484356,-0.0993 -1.9577042,7.4e-4 -3.0941303,-0.0207 -3.1830338,-0.0662 -0.076171,-0.039 -0.3178937,-0.0759 -0.5535711,-0.0993 -0.3442769,-0.0344 -0.4201051,-0.0901 -0.4497765,-0.19866 -0.020261,-0.0744 -0.096211,-0.0911 -0.1383928,-0.0662 -0.042293,0.025 -0.069196,0.007 -0.069196,-0.0331 0,-0.0466 -0.2732869,-0.0662 -0.7611602,-0.0662 -0.5901843,0 -0.8069849,-0.041 -0.9687495,-0.13244 -0.1971266,-0.11144 -0.2180627,-0.11144 -0.4151783,0 -0.2265877,0.1281 -0.5007936,0.16116 -0.6573657,0.0662 -0.054582,-0.033 -0.058678,-0.0952 -0.034543,-0.13244 0.020593,-0.0318 -0.2024742,-0.0113 -0.3113837,-0.0331 l 0,50.16185 c 0,0.873 0.3735829,1.6488 0.9687494,2.2184 0.5951664,0.5696 1.405982,0.9271 2.318079,0.9271 l 86.426288,0 c 0.912095,0 1.722912,-0.3575 2.318079,-0.9271 0.595166,-0.5696 0.968749,-1.3454 0.968749,-2.2184 l 0,-36.18941 z M 9.6149494,985.63825 c 0.069861,-0.0178 0.1935839,-0.0189 0.2421874,0 0.048604,0.019 -0.019818,0.0341 -0.1383928,0.0331 -0.1185749,-0.001 -0.1736552,-0.0156 -0.1037392,-0.0331 z m 32.6606946,8.87351 c -0.08938,0.0165 -0.01966,0.0323 0.138393,0.0331 0.158059,8.5e-4 0.241678,-0.0159 0.172991,-0.0331 -0.06869,-0.0168 -0.222015,-0.0164 -0.311384,0 z m 6.988835,0.69531 c -0.04939,0.0191 -0.02958,0.0331 0.0692,0.0331 0.09878,0 0.153184,-0.014 0.103794,-0.0331 -0.04939,-0.0191 -0.123601,-0.0191 -0.172991,0 z m 2.145088,0.19866 c -0.04187,0 -0.05901,0.0281 -0.0346,0.0662 0.02442,0.0381 0.08637,0.0662 0.103795,0.0662 0.01744,0 0,-0.0281 0,-0.0662 0,-0.0381 -0.02736,-0.0662 -0.0692,-0.0662 z m -1.245534,1.15886 c 0.06398,0 0.09361,0.0281 0.0692,0.0662 -0.02441,0.0381 -0.05411,0.0662 -0.0692,0.0662 -0.01509,0 -0.04478,-0.0281 -0.0692,-0.0662 -0.02442,-0.0381 0.0053,-0.0662 0.0692,-0.0662 z"
       id="path5785"
       inkscape:connector-curvature="0"
       sodipodi:nodetypes="ccccccsccscccccscscscccccscsscsccsccccccsccccccscccccsssssssssscssssccscsssssssssssssscsccccccccscsscsssssscssssscsscssscsscsssssscssssssccssccsscccsssccsscssccccccccsscccccssssssccccsccccccssssscsssssscs" />
    <path
       style="fill:#ffb542;fill-opacity:1"
       d="m 93.999944,964.01733 0,-3.50967 c 0,-0.87287 -0.373583,-1.64881 -0.968749,-2.21838 -0.595167,-0.56957 -1.405985,-0.92708 -2.318079,-0.92708 l -86.4262884,0 c -0.912097,0 -1.7229125,0.35751 -2.318079,0.92708 -0.5951664,0.56957 -0.9687494,1.34551 -0.9687494,2.21838 l 0,14.66779 c 0.6749028,0.002 1.3958295,0.0776 1.4531241,0.16555 0.025575,0.0393 0.1739985,0.1015 0.345982,0.13244 0.8640137,0.15515 1.3210974,0.25454 1.4185259,0.36421 0.059232,0.0666 0.2891081,0.1959 0.5189729,0.26488 0.4535519,0.13612 0.7035889,0.3238 0.7611603,0.59598 0.034211,0.16173 0.1238671,0.23825 0.6919639,0.56287 0.1198702,0.0686 0.2808819,0.1921 0.3459819,0.26489 0.1117881,0.12438 0.2395966,0.1078 2.0412934,0.0993 1.3639882,-0.006 1.9342884,0.042 2.0066954,0.0993 0.05569,0.0443 0.198068,0.0654 0.311384,0.0662 0.113305,9.5e-4 0.532413,0.0129 0.968749,0.0331 0.507226,0.0234 0.96028,0.0211 1.210937,-0.0331 0.215649,-0.0466 0.700179,-0.0888 1.107142,-0.0993 0.406974,-0.0106 0.846266,-0.0586 0.968749,-0.0993 0.122506,-0.041 0.304631,-0.0662 0.380581,-0.0662 0.07595,0 0.187273,-0.0467 0.242187,-0.0993 0.07551,-0.0724 0.47492,-0.12868 1.660713,-0.16555 1.186746,-0.037 1.603386,-0.0556 1.72991,-0.13244 0.136809,-0.0831 0.658318,-0.10437 2.906248,-0.13244 1.945127,-0.0244 2.866768,-0.064 3.217632,-0.13244 0.272125,-0.0531 0.523678,-0.0839 0.553571,-0.0662 0.02993,0.0177 0.193606,-0.0381 0.345982,-0.0993 0.618096,-0.248 1.378669,-0.27749 4.255578,-0.19866 1.290518,0.0354 2.382404,0.17265 2.456472,0.29799 0.0316,0.0534 0.179888,0.0993 0.311384,0.0993 0.131495,0 0.262226,0.0426 0.311383,0.0993 0.06942,0.08 0.261729,0.0993 0.864955,0.0993 0.42749,0 0.808878,-0.0328 0.830357,-0.0662 0.05929,-0.0919 0.899187,-0.15188 1.9029,-0.16555 1.33197,-0.0181 1.722591,-0.0669 2.214285,-0.26488 0.513291,-0.20675 0.891769,-0.30202 1.695311,-0.36421 0.316111,-0.0245 0.714493,-0.0622 0.864955,-0.0993 0.150462,-0.037 0.496727,-0.0822 0.76116,-0.0993 0.544909,-0.0351 1.388427,-0.13789 1.868303,-0.23177 0.177813,-0.0347 0.944551,-0.13721 1.695311,-0.19866 0.75076,-0.0614 1.559502,-0.14505 1.799107,-0.19866 0.239603,-0.0535 0.483898,-0.0993 0.553571,-0.0993 0.122219,0 1.496468,-0.35403 1.937498,-0.49665 0.329042,-0.10641 1.374323,-0.24629 2.214285,-0.29799 0.414894,-0.0256 0.835372,-0.053 0.934151,-0.0662 0.752176,-0.10097 2.193714,-0.24417 2.940847,-0.29799 0.493921,-0.0357 0.958918,-0.0806 1.037945,-0.0993 1.147371,-0.27217 1.632414,-0.2805 3.909596,-0.13244 0.489187,0.0318 0.885885,0.0127 1.34933,-0.0662 0.355624,-0.0606 0.954193,-0.13316 1.349329,-0.13244 0.877126,0.001 1.188578,0.1257 1.591517,0.59598 0.28152,0.32858 0.290326,0.33243 0.311384,1.02642 0.02345,0.77276 0.05125,0.70792 -0.622767,1.55617 -0.20994,0.26422 -0.445537,0.47822 -0.518973,0.49665 -0.07343,0.0183 -0.198898,0.15188 -0.276786,0.29799 -0.138623,0.26005 -0.172991,0.3145 -0.172991,0.43044 0,0.0314 -0.117955,0.19709 -0.276785,0.36421 -0.158831,0.16713 -0.396546,0.49358 -0.518973,0.72842 -0.122421,0.23485 -0.217211,0.43361 -0.242188,0.43043 -0.232434,-0.0279 -0.454526,0.15555 -0.76116,0.72843 -0.112887,0.21088 -0.08784,0.22302 0.0692,0.36421 0.152567,0.1371 0.210535,0.14309 0.899553,0.0993 0.405146,-0.0256 0.808865,-0.0823 0.934152,-0.13244 0.125286,-0.05 0.468157,-0.11273 0.726562,-0.13244 1.57593,-0.12037 2.412631,-0.2619 2.664061,-0.43043 0.08258,-0.0554 0.183985,-0.0993 0.242187,-0.0993 0.05819,0 0.210435,-0.0756 0.311384,-0.16555 0.158565,-0.14116 0.649408,-0.30857 1.280133,-0.46354 0.09878,-0.0243 0.66767,-0.17987 1.280133,-0.3311 1.773806,-0.43798 3.339939,-0.50659 4.739953,-0.19866 0.329105,0.0724 0.712771,0.13244 0.830356,0.13244 0.117593,0 0.343863,0.0562 0.518973,0.13244 0.17511,0.0764 0.469145,0.178 0.657366,0.19866 0.188222,0.0207 0.473535,0.0677 0.622767,0.0993 0.149241,0.0317 0.495505,0.0327 0.761161,0 0.665877,-0.0826 1.848706,-0.0839 1.9029,0 0.02616,0.0406 0.448983,0.0662 1.037946,0.0662 0.960542,0 1.52844,-0.0986 2.421874,-0.36421 0.118541,-0.0352 0.524173,-0.0788 0.899553,-0.0993 0.375381,-0.0205 0.775609,-0.0605 0.899553,-0.0993 0.458373,-0.14381 1.523683,-0.0795 2.075891,0.13244 0.134002,0.0514 0.761161,0.97952 0.761161,1.12575 0,0.20867 1.368441,0.22631 2.352677,0.0331 0.63698,-0.12504 1.523561,-0.52088 2.352677,-0.86086 l 0,-9.40328 c -0.02797,-0.0141 -0.04477,-0.0604 -0.0692,-0.0662 -0.101747,-0.0245 -0.204268,-0.0984 -0.20759,-0.16555 -0.0033,-0.0655 -0.0174,-0.15612 -0.0346,-0.23177 -0.0172,-0.0756 -0.04563,-0.30759 -0.0692,-0.49665 -0.02357,-0.18907 -0.06773,-0.34238 -0.103795,-0.36421 -0.03606,-0.0218 -0.09798,-0.2565 -0.138392,-0.49665 -0.09023,-0.53615 -0.09809,-0.52976 -0.345982,-0.52976 -0.110084,0 -0.389429,-0.0908 -0.622768,-0.16555 -0.233332,-0.0747 -0.509141,-0.13142 -0.588169,-0.13245 -0.237902,-0.004 -0.928627,-0.22122 -1.037946,-0.3311 -0.258372,-0.25968 -0.31994,-0.89765 -0.138393,-1.3244 0.04528,-0.10646 0.0692,-0.23696 0.0692,-0.29799 0,-0.061 0.05479,-0.23454 0.103794,-0.36421 0.130575,-0.34558 0.887243,-0.69532 1.487723,-0.69532 0.243037,0 0.45571,-0.0218 0.484374,-0.0662 0.0349,-0.054 0.250395,-0.0937 0.691964,-0.0662 0.264254,0.0164 0.350783,-0.13603 0.518973,-0.16555 z"
       id="path5781"
       inkscape:connector-curvature="0" />
    <path
       style="fill:#932500;fill-opacity:1"
       d="m 0.9999992,997.09435 0,37.64615 c 0,0.873 0.373583,1.6489 0.9687494,2.2185 0.5951665,0.5696 1.405982,0.927 2.318079,0.927 l 86.4262884,0 c 0.912094,0 1.722912,-0.3574 2.318079,-0.927 0.595166,-0.5696 0.968749,-1.3455 0.968749,-2.2185 l 0,-34.4013 c -0.0241,-0.087 -0.04961,-0.1921 -0.0692,-0.2649 -0.103109,-0.38335 -0.269556,-0.80886 -0.345982,-0.96026 -0.07641,-0.1513 -0.169814,-0.40199 -0.207589,-0.56282 -0.07628,-0.32538 -0.166427,-0.43049 -0.449777,-0.43049 -0.105433,0 -0.223034,-0.0127 -0.276786,-0.0328 -0.05376,-0.0191 -0.164299,0.0106 -0.242187,0.0657 -0.124355,0.0869 -0.135669,0.22663 -0.172991,1.02636 -0.04143,0.88746 -0.0484,0.90006 -0.242187,1.05956 -0.191743,0.1583 -0.224268,0.178 -0.96875,0.1324 -0.619452,-0.037 -0.780712,-0.043 -0.830356,0.033 -0.03402,0.052 -0.0977,0.3775 -0.138393,0.7285 -0.0407,0.351 -0.134208,0.6622 -0.172991,0.6622 -0.09032,0.011 -0.265241,-0.3051 -0.415178,-0.7284 -0.06468,-0.1827 -0.196379,-0.4375 -0.311384,-0.563 -0.231558,-0.2524 -0.392416,-0.63781 -0.484375,-1.15877 -0.04947,-0.28035 -0.112452,-0.35526 -0.276785,-0.43049 -0.315326,-0.14378 -0.415179,-0.0318 -0.415179,0.52976 0,0.4574 0.0078,0.47986 -0.242187,0.6622 l -0.242187,0.1987 -0.345982,-0.1325 c -0.581498,-0.20012 -0.638844,-0.1401 -0.726562,0.9271 -0.06281,0.7642 -0.139287,0.8038 -0.58817,0.4636 -0.310987,-0.2358 -0.717493,-0.3974 -0.934151,-0.3974 -0.07789,0 -0.29501,0.108 -0.484375,0.2649 -0.614301,0.5087 -0.937023,0.5796 -1.487722,0.2981 -0.251235,-0.133 -0.431243,-0.1643 -0.588169,-0.1325 -0.118541,0.023 -0.275878,0.051 -0.345982,0.066 -0.171676,0.035 -0.553571,0.4307 -0.553571,0.5628 0,0.1668 -0.250123,0.2552 -0.657366,0.2318 -0.346032,-0.019 -0.357441,-0.04 -0.415178,-0.2318 -0.0343,-0.1133 -0.119483,-0.2698 -0.172991,-0.3641 -0.05351,-0.094 -0.176136,-0.3184 -0.276786,-0.4967 -0.125434,-0.2223 -0.172991,-0.4302 -0.172991,-0.6622 0,-0.1862 -0.07785,-0.5885 -0.138393,-0.89396 -0.09327,-0.47043 -0.07578,-0.64737 0,-1.15891 0.171626,-1.15848 0.107271,-1.48992 -0.311383,-1.48992 -0.159794,0 -0.332488,0.10968 -0.726562,0.46356 l -0.518973,0.46354 0,0.92708 c -0.01041,0.96152 -0.315193,2.71851 -0.484375,2.91371 -0.04467,0.051 -0.226863,0.1422 -0.415178,0.1655 -0.32966,0.042 -0.795759,0.3283 -0.795759,0.4967 0,0.037 -0.143451,0.079 -0.311384,0.1 -0.167934,0.021 -0.4554,0.074 -0.657365,0.1 -0.44022,0.056 -0.712733,-0.082 -0.864955,-0.4305 -0.113002,-0.2588 -0.24166,-0.3316 -0.657366,-0.3973 -0.26564,-0.042 -0.324628,-0.027 -0.553571,0.1656 -0.140877,0.1183 -0.287082,0.258 -0.311384,0.3311 -0.06003,0.1805 -0.176092,0.1752 -0.38058,-0.033 -0.154418,-0.1572 -0.198907,-0.2904 -0.311383,-1.3906 -0.06849,-0.67 -0.101359,-1.67224 -0.103795,-2.25148 -0.0024,-0.58539 -0.06244,-1.1178 -0.103795,-1.19197 -0.08529,-0.15363 -0.412076,-0.19972 -0.553571,-0.0657 -0.07298,0.0689 -0.123756,0.0752 -0.207589,-0.0328 -0.08896,-0.11528 -0.08184,-0.45096 -0.0346,-2.11907 0.03055,-1.07878 0.0692,-2.31386 0.0692,-2.74814 l 0,-0.76154 -0.207589,-0.0993 c -0.116258,-0.0535 -0.404062,-0.12821 -0.622767,-0.13244 l -0.415179,0 -0.0692,0.26488 c -0.117614,0.33871 -0.232555,2.38968 -0.276786,5.03274 -0.01835,1.09663 -0.06686,2.20436 -0.103794,2.45017 -0.03695,0.24581 -0.151446,0.90385 -0.242188,1.49005 l -0.172991,1.0925 -0.0346,-0.629 c -0.02546,-0.3403 -0.03039,-0.9447 -0.0346,-1.35757 -0.0084,-0.82781 -0.101226,-1.02636 -0.449776,-1.02636 -0.102533,-4.2e-4 -0.504417,-0.0985 -0.899553,-0.23182 -0.960341,-0.32401 -1.333958,-0.39224 -1.453125,-0.29794 -0.05176,0.0413 -0.110813,0.28119 -0.138392,0.56282 l -0.0346,0.52976 -0.38058,0 c -0.463229,-0.0106 -0.898451,0.11411 -1.14174,0.3311 -0.175857,0.15791 -0.167774,0.13488 -0.38058,0.0328 -0.461183,-0.22027 -0.724875,0.0106 -0.899553,0.76147 -0.08454,0.3646 -0.09379,0.3973 -0.276786,0.3973 -0.160988,0 -0.204666,-0.035 -0.242187,-0.1986 -0.02544,-0.1109 -0.118741,-0.2545 -0.172991,-0.298 -0.121565,-0.096 -1.682989,-0.2848 -1.902901,-0.2318 -0.190211,0.046 -0.31042,0.2476 -0.38058,0.6954 -0.04461,0.2845 -0.06158,0.2993 -0.138393,0.1986 -0.05106,-0.067 -0.193088,-0.1 -0.311383,-0.1 -0.209172,0.011 -1.458651,-0.063 -2.767856,-0.1324 -0.395137,-0.022 -1.250924,-0.021 -1.902901,-0.033 -0.651976,-0.012 -1.210936,-0.056 -1.210936,-0.066 0,-0.011 -0.337215,-0.022 -0.761161,-0.033 -0.510115,-0.012 -0.823603,-0.039 -0.899553,-0.1 -0.09579,-0.073 -0.118508,-0.083 -0.172991,0 -0.0359,0.054 -0.06355,0.2037 -0.0692,0.298 -0.0056,0.094 -0.03636,-0.022 -0.0692,-0.2649 -0.08124,-0.6007 -0.07635,-0.6434 -0.415179,-0.6953 l -0.311384,-0.033 0.0346,-1.02638 c 0.01896,-0.74379 -0.0084,-0.9825 -0.0692,-0.96025 -0.05212,0.0191 -0.106772,-0.11093 -0.138392,-0.3311 -0.06506,-0.45273 -0.283976,-0.89346 -0.484375,-0.96021 -0.197266,-0.0657 -0.816072,-0.0389 -1.037946,0.0331 -0.197441,0.0644 -0.325378,0.30117 -0.276786,0.5629 0.06311,0.33979 0.09595,3.37719 0.0346,3.37719 -0.03286,0 -0.100828,-0.071 -0.138393,-0.1656 -0.03755,-0.094 -0.111356,-0.1655 -0.172991,-0.1655 -0.06165,0 -0.210612,-0.07 -0.311384,-0.1324 -0.15614,-0.099 -0.187129,-0.084 -0.242187,0 -0.03555,0.054 -0.06848,0.1801 -0.0692,0.2649 -5.97e-4,0.086 -0.001,0.1324 -0.0346,0.1324 -0.03357,0 -0.112364,-0.3152 -0.138393,-0.69535 -0.06096,-0.8901 -0.147509,-1.13157 -0.484374,-1.19196 -0.378168,-0.0689 -2.196637,-0.018 -2.283481,0.0657 -0.0413,0.0392 -0.07402,0.37094 -0.103795,0.72842 l -0.0692,0.6622 -0.0346,-0.96014 c -0.02838,-0.52933 -0.08488,-1.28806 -0.103795,-1.6555 -0.01891,-0.36734 -0.05857,-0.71414 -0.103794,-0.79467 -0.07512,-0.13456 -0.112917,-0.14806 -0.484375,-0.0993 -0.223618,0.0286 -0.768383,0.0662 -1.210937,0.0662 -0.537271,0.004 -0.840044,0.01 -0.899553,0.0662 -0.102621,0.0981 -0.289817,1.34392 -0.311384,2.05285 -0.0081,0.26467 -0.0264,0.65277 -0.0346,0.86086 l -0.0346,0.39733 -0.103795,-0.33111 c -0.08466,-0.26647 -0.131395,-0.32527 -0.207589,-0.26488 -0.06478,0.0519 -0.127584,0.0445 -0.242187,0 -0.09332,-0.036 -0.504417,-0.089 -0.899553,-0.13244 -0.395138,-0.0445 -0.800774,-0.0848 -0.899553,-0.0996 -0.954761,-0.14335 -1.338225,-0.1799 -2.283481,-0.23182 -0.599684,-0.0328 -1.183402,-0.0932 -1.314731,-0.13244 -0.291123,-0.089 -1.746739,-0.17133 -1.868303,-0.0996 -0.0481,0.0276 -0.159816,0.0191 -0.242187,-0.0328 -0.0823,-0.0509 -0.264275,-0.089 -0.415179,-0.0996 -0.150903,-0.0106 -0.292008,-0.036 -0.311383,-0.0657 -0.01932,-0.0297 -0.16554,-0.0657 -0.311384,-0.0657 l -0.242187,0 0.207589,0.0657 c 0.361504,0.0996 0.327326,0.19199 -0.0692,0.1655 -0.23354,-0.0169 -0.305183,-0.0625 -0.242187,-0.0996 0.141227,-0.0837 -0.117313,-0.15458 -0.345982,-0.0996 -0.114633,0.0276 -0.169946,0 -0.207589,-0.0657 -0.03982,-0.0678 -0.270364,-0.10807 -0.691964,-0.13244 -0.335863,-0.0201 -0.786016,-0.0456 -1.003348,-0.0657 -0.217309,-0.0222 -0.525549,-0.0562 -0.691963,-0.0657 -0.166415,-0.0106 -0.318082,-0.0403 -0.345982,-0.0657 -0.02787,-0.0276 -0.206759,-0.0328 -0.38058,-0.0328 -0.173822,0 -0.371723,-0.0593 -0.449777,-0.0996 -0.07808,-0.0403 -0.570411,-0.0848 -1.072544,-0.0996 -1.265154,-0.036 -3.047464,-0.14918 -3.563614,-0.23182 -0.237094,-0.0371 -0.625901,-0.0657 -0.864955,-0.0657 -0.239065,0 -0.443742,-0.0276 -0.484375,-0.0657 -0.04417,-0.0424 -0.745793,-0.0795 -1.729909,-0.0996 -3.724338,-0.0763 -4.573439,-0.0996 -5.224327,-0.1656 -0.375388,-0.0382 -1.122366,-0.0848 -1.695312,-0.0996 -0.572946,-0.0138 -1.849204,-0.0413 -2.837052,-0.0662 -0.987836,-0.0244 -2.6548936,-0.0844 -3.7020066,-0.0993 -1.0471129,-0.0148 -2.550911,-0.0397 -3.3214266,-0.0662 -0.9534819,-0.0328 -1.6064744,-0.023 -2.0412934,0.0331 -0.1120317,0.0143 -0.9368748,-0.01 -1.1071422,0 z m 88.9865548,5.23145 c 0.02067,0.049 0.02388,0.1102 0,0.1324 -0.02387,0.023 -0.0377,-0.028 -0.0346,-0.1 0.0034,-0.079 0.01166,-0.088 0.0346,-0.033 z"
       id="path5760"
       inkscape:connector-curvature="0"
       sodipodi:nodetypes="cssssssccccsccccccscccccscccscsccccsccscscsscccccsccccccccccccsscccccsccccccccccccccscccccccsscccscccccccccscscccscccccccccccccccccccccccscsccccccccccscccscccccscccccccc" />
    <path
       style="fill:#f99700;fill-opacity:1"
       d="m 93.999944,961.93139 0,-1.42373 c 0,-0.87287 -0.373583,-1.64881 -0.968749,-2.21838 -0.595167,-0.56957 -1.405985,-0.92708 -2.318079,-0.92708 l -86.4262884,0 c -0.912097,0 -1.7229125,0.35751 -2.318079,0.92708 -0.5951664,0.56957 -0.9687494,1.34551 -0.9687494,2.21838 l 0,11.125 c 0.842192,-0.0138 1.4627231,-0.01 1.8683025,0.0662 1.0635208,0.19886 1.553099,0.42746 2.145088,0.99331 0.423194,0.40451 1.1909971,0.72003 2.0758916,0.86086 0.356223,0.0568 2.2926811,0.0616 3.3906227,0 0.443123,-0.0248 0.726562,-0.01 0.726562,0.0331 0,0.0776 0.413341,0.12698 2.698659,0.23177 0.889047,0.0408 1.685458,0.0988 1.764508,0.13244 0.07905,0.0338 0.38078,0.0797 0.657366,0.0993 0.276608,0.0196 0.786115,0.0712 1.14174,0.13244 0.433867,0.0747 1.219805,0.11559 2.352678,0.13244 2.101832,0.0314 1.894397,0.0106 2.387275,0.13244 0.598388,0.14801 2.362719,0.22801 3.494418,0.13244 1.066886,-0.0898 3.089137,-0.13917 4.878345,-0.0993 0.651974,0.0146 1.883714,-0.0169 2.733257,-0.0662 0.849544,-0.0494 1.962554,-0.0786 2.456472,-0.0662 1.84616,0.0464 3.518242,0.0148 4.98214,-0.0662 0.829786,-0.0459 1.858865,-0.0789 2.283481,-0.0993 0.424621,-0.0203 0.81541,-0.05 0.864954,-0.0662 0.04955,-0.0162 0.598475,-0.0592 1.210937,-0.0993 1.089573,-0.0712 1.33183,-0.11021 2.87165,-0.3311 0.414895,-0.0595 0.912879,-0.11485 1.107143,-0.13244 0.19427,-0.0177 0.476256,-0.0624 0.657365,-0.0993 0.746802,-0.15217 2.207328,-0.32893 3.45982,-0.43044 0.733073,-0.0594 1.453219,-0.16221 1.591516,-0.19866 0.138299,-0.0366 0.366184,-0.0794 0.518973,-0.0993 0.152789,-0.0199 0.313521,-0.0471 0.345982,-0.0662 0.03245,-0.0193 0.210197,-0.0446 0.38058,-0.0662 0.170375,-0.0216 0.357674,-0.0763 0.449777,-0.13245 0.09209,-0.0562 0.229322,-0.11681 0.276786,-0.0993 0.101159,0.0372 0.675244,-0.0193 1.383927,-0.16555 0.88199,-0.18193 1.537221,-0.25302 2.041294,-0.19866 0.975011,0.10521 2.853545,0.01 3.771203,-0.19867 0.303035,-0.0686 1.657704,-0.22022 2.145088,-0.23177 0.158055,-0.004 1.449157,0.0355 2.87165,0.0662 1.422495,0.0306 2.673162,0.0374 2.767855,0.0331 0.09469,-0.004 0.222425,0.023 0.276786,0.0662 0.07129,0.0567 0.317752,0.0765 0.899553,0.0331 0.443645,-0.0331 1.01695,-0.0655 1.280133,-0.0662 0.263183,-7.4e-4 0.489102,-0.005 0.518973,-0.0331 0.02988,-0.0284 0.138437,-0.0662 0.207589,-0.0662 0.06914,0 0.12286,-0.0216 0.138393,-0.0662 0.01844,-0.053 0.08205,-0.0707 0.172991,-0.0331 0.07666,0.0318 0.168075,0.0427 0.207589,0.0331 0.03951,-0.01 0.415916,-0.0622 0.830357,-0.0993 0.42539,-0.0381 0.766341,-0.087 0.795758,-0.13244 0.02951,-0.0457 0.277391,-0.0888 0.553571,-0.0993 0.77107,-0.0281 0.849775,-0.0325 1.003348,-0.16556 0.07965,-0.069 0.333357,-0.17005 0.553571,-0.19866 0.220222,-0.0286 0.44919,-0.075 0.518973,-0.13244 0.06978,-0.0573 0.173035,-0.14203 0.242187,-0.16555 0.06915,-0.0235 0.138393,-0.0888 0.138393,-0.16555 0,-0.11593 0.05027,-0.16555 0.276786,-0.16555 0.288578,0 0.448843,-0.0886 0.449776,-0.26488 3.09e-4,-0.0586 0.07403,-0.12158 0.172991,-0.16555 0.154031,-0.0683 0.179258,-0.0794 0.242188,0.0331 0.08805,0.15746 0.424666,0.18201 0.484374,0.0331 0.02293,-0.0572 0.01497,-0.14144 -0.0346,-0.19866 -0.117039,-0.13487 -0.03722,-0.21132 0.103795,-0.0993 0.180527,0.14337 0.334246,0.0223 0.311383,-0.23177 -0.02613,-0.29016 0.03575,-0.42328 0.242188,-0.39733 0.09115,0.0115 0.234592,-0.0328 0.311383,-0.0993 0.07679,-0.0665 0.216513,-0.10993 0.311384,-0.0993 0.133153,0.0141 0.189,-0.008 0.207589,-0.13244 0.01756,-0.11756 0.04258,-0.15639 0.138393,-0.13244 0.1024,0.0256 0.138061,-0.0205 0.172991,-0.19866 0.04017,-0.20497 0.07213,-0.2127 0.311384,-0.23177 0.157574,-0.0125 0.286418,-0.0512 0.276785,-0.0993 -0.0161,-0.08 0.477136,-0.52976 0.58817,-0.52976 0.03125,0 0.318704,-0.25091 0.657365,-0.56288 0.338662,-0.31196 0.730127,-0.61966 0.864955,-0.69531 0.570126,-0.3198 0.770062,-0.45978 0.830357,-0.56287 0.03513,-0.0601 0.09632,-0.0993 0.138393,-0.0993 0.04206,0 0.261683,-0.14718 0.484374,-0.3311 0.553646,-0.45724 1.309611,-0.93986 1.937499,-1.22507 0.288435,-0.13102 0.523922,-0.23177 0.553571,-0.23177 0.02965,0 0.190975,-0.0568 0.345982,-0.13245 0.15501,-0.0756 0.332652,-0.13244 0.415179,-0.13244 0.08253,0 0.204644,-0.0361 0.242187,-0.0662 0.03754,-0.0301 0.187927,-0.082 0.345982,-0.13244 0.397163,-0.12674 1.709866,-0.7547 1.868302,-0.89397 0.07149,-0.0628 0.351726,-0.23187 0.622768,-0.36421 0.02325,-0.0113 0.01166,-0.0219 0.0346,-0.0331 z"
       id="path5758"
       inkscape:connector-curvature="0" />
    <path
       style="fill:#13151d"
       d="m 38.366048,1004.8421 c 0.03133,-0.035 0.06698,0.011 0.0692,0.1 0.0021,0.092 -0.01107,0.3033 0,0.4636 0.0103,0.1603 -0.006,0.3197 -0.0346,0.3642 -0.02845,0.044 -0.05392,-0.136 -0.0692,-0.3973 -0.01528,-0.2613 0.0032,-0.4937 0.0346,-0.5297 z"
       id="path5778"
       inkscape:connector-curvature="0" />
    <path
       style="fill:#150900;fill-opacity:1"
       d="m 0.9999992,1006.9612 0,36.2555 c 0,0.873 0.373583,1.6489 0.9687494,2.2185 0.5951665,0.5696 1.405982,0.927 2.318079,0.927 l 86.4262884,0 c 0.912094,0 1.722912,-0.3574 2.318079,-0.927 0.595166,-0.5696 0.968749,-1.3455 0.968749,-2.2185 l 0,-40.9571 c -0.104536,-0.6417 -0.225845,-1.3349 -0.311384,-1.9867 -0.07826,-0.59604 -0.139788,-0.93403 -0.242187,-1.09264 -0.08083,-0.12513 -0.180752,-0.38334 -0.207589,-0.56282 l -0.0346,-0.3311 -0.415179,0 -0.38058,0 -0.0346,1.35746 c -0.02941,0.7373 -0.08202,1.4332 -0.103795,1.5562 -0.04197,0.2368 -0.138935,0.3037 -0.207589,0.1325 -0.02274,-0.057 -0.09756,-0.1 -0.172991,-0.1 -0.174952,0 -0.264817,-0.1288 -0.345982,-0.4304 l -0.0692,-0.2318 -0.553571,-0.066 c -0.293119,-0.029 -0.552464,-0.02 -0.58817,0 -0.03862,0.023 -0.03769,0.501 0,1.1589 0.03489,0.6092 0.0692,1.4731 0.0692,1.9204 l 0,0.7946 -0.276786,0.2649 -0.276785,0.2317 -0.172991,-0.2649 c -0.249498,-0.3518 -0.280929,-0.6011 -0.484375,-2.8143 -0.09322,-1.0139 -0.12385,-1.0789 -0.345982,-1.2582 -0.191734,-0.1546 -0.216712,-0.2359 -0.276785,-0.76154 -0.08204,-0.71794 -0.09478,-0.76148 -0.276786,-0.76148 -0.135646,0 -0.172991,0.0328 -0.172991,0.59598 0,0.37645 -0.01328,0.65534 -0.0692,0.72844 -0.127305,0.1675 -0.522403,0.1786 -0.934152,0 -0.190972,-0.084 -0.388828,-0.1568 -0.415178,-0.1325 -0.02635,0.025 -0.0346,0.879 -0.0346,1.8873 0,1.8007 -0.0084,1.8327 -0.172991,2.086 -0.09212,0.1418 -0.207689,0.2648 -0.242187,0.2648 -0.03451,0 -0.0796,-0.123 -0.103795,-0.2648 -0.0242,-0.1418 -0.07684,-0.3573 -0.138393,-0.4967 -0.06688,-0.1517 -0.128096,-0.4917 -0.138393,-0.8609 -0.01295,-0.465 -0.0335,-0.689 -0.138392,-0.8609 -0.176231,-0.2888 -0.563763,-0.5297 -0.830357,-0.5297 -0.17292,0 -0.24852,0.032 -0.345982,0.2648 -0.135985,0.3252 -0.224341,0.413 -0.76116,0.4967 -0.219315,0.035 -0.481607,0.079 -0.553571,0.1 -0.08484,0.026 -0.21922,-0.03 -0.38058,-0.1655 -0.268284,-0.2259 -0.414813,-0.2812 -0.761161,-0.1656 -0.164241,0.055 -0.214542,0.1449 -0.276785,0.3311 -0.0464,0.1387 -0.16254,0.3468 -0.242188,0.4305 -0.132831,0.1441 -0.205336,0.1505 -0.830356,0.1325 -0.780328,-0.021 -0.864955,-0.094 -0.864955,-0.563 0,-0.2013 -0.07388,-0.33 -0.207589,-0.4635 -0.190805,-0.1907 -0.17753,-0.3633 -0.242188,-2.64881 -0.0053,-0.18912 0.01231,-0.60785 0.0692,-0.96014 0.114474,-0.70914 0.09665,-0.85906 -0.207589,-0.89402 -0.140052,-0.0159 -0.291942,0.0572 -0.691964,0.43048 -0.477036,0.44489 -0.516914,0.49321 -0.449777,0.6622 0.09209,0.23119 0.09156,0.75799 0,1.45685 -0.03949,0.30144 -0.10561,0.92514 -0.138393,1.39064 -0.05392,0.7654 -0.0835,0.8745 -0.242187,1.0263 -0.128909,0.1226 -0.247897,0.1551 -0.484375,0.1656 -0.444763,0.014 -0.518972,0.083 -0.518972,0.5629 0,0.3516 -0.0039,0.4013 -0.103795,0.3642 -0.06428,-0.024 -0.149044,-0.014 -0.207589,0.033 -0.08647,0.068 -0.157347,0.076 -0.242188,-0.033 -0.103307,-0.132 -0.105377,-0.132 -0.207589,0 -0.05683,0.073 -0.103075,0.2005 -0.103794,0.298 -5.76e-4,0.096 -0.0438,0.3317 -0.103795,0.4967 -0.111115,0.3052 -0.09578,0.5108 0.0692,0.6952 0.0507,0.057 0.159385,0.2082 0.20759,0.3643 0.07941,0.2571 0.07115,0.315 -0.0692,0.4966 -0.145988,0.189 -0.172183,0.2188 -0.103794,0.7946 0.08389,0.7066 0.08134,0.7501 -0.449777,0.9933 -0.339904,0.1558 -0.358382,0.1339 -0.518973,0.033 -0.168836,-0.106 -0.188701,-0.1126 -0.138393,-0.7616 0.0781,-1.0073 0.04627,-2.2033 -0.0692,-2.417 -0.05424,-0.1006 -0.128052,-0.4175 -0.172991,-0.6953 -0.04494,-0.2779 -0.133045,-0.5947 -0.207589,-0.6953 -0.07454,-0.1007 -0.138393,-0.2368 -0.138393,-0.3311 0,-0.1942 -0.109684,-0.3028 -0.38058,-0.3643 -0.270388,-0.061 -0.338409,0.051 -0.415178,0.6954 -0.06353,0.533 -0.358039,1.5231 -0.449777,1.5231 -0.05602,0 -0.207589,-0.866 -0.207589,-1.192 0,-0.2152 -0.02233,-0.2644 -0.207589,-0.3311 -0.383753,-0.1386 -0.421567,-0.3706 -0.484375,-3.01308 l -0.0692,-2.35077 -0.138393,-0.0328 c -0.161646,-0.0222 -0.172991,-0.0328 -0.172991,0.9933 0,0.80079 -0.0248,1.06323 -0.103795,1.12574 -0.07049,0.0593 -0.10551,0.0509 -0.138392,0 -0.026,-0.036 -0.069,-0.053 -0.103795,-0.0328 -0.200109,0.11845 -0.252572,-0.29879 -0.207589,-3.01304 0.02518,-1.51925 0.07147,-3.19851 0.103795,-3.70834 0.03225,-0.50983 0.05326,-0.94679 0.0346,-0.9933 -0.04225,-0.10532 -0.487522,-0.23128 -0.830357,-0.23177 -0.253353,-3.7e-4 -0.226765,0.002 -0.311384,0.36421 -0.107824,0.46106 -0.158166,1.19046 -0.242187,4.63542 -0.03688,1.51244 -0.09847,3.01791 -0.138393,3.37721 -0.03991,0.3593 -0.102565,1.1215 -0.138393,1.6887 -0.03583,0.5671 -0.078,1.0973 -0.103794,1.1588 -0.02581,0.061 -0.146929,0.1242 -0.242188,0.1656 -0.220631,0.096 -0.41189,-0.044 -0.345981,-0.2649 0.02375,-0.08 0.04441,-0.9419 0.0692,-1.8873 0.04981,-1.8984 0.08869,-1.82264 -0.38058,-1.88727 -0.138299,-0.0191 -0.636103,-0.17398 -1.107142,-0.3311 -0.471033,-0.15692 -0.920523,-0.2829 -0.96875,-0.26488 -0.05116,0.0191 -0.109862,0.26901 -0.138393,0.56281 -0.07793,0.80259 -0.09284,0.82347 -0.484374,0.62915 -0.322626,-0.1602 -1.066001,0.0879 -1.107143,0.36419 -0.03215,0.2155 -0.2708,0.2706 -0.449776,0.1 -0.183114,-0.17475 -0.547737,-0.19976 -0.622768,-0.033 -0.0298,0.066 -0.06009,0.3455 -0.103794,0.6292 -0.07906,0.5138 -0.07945,0.5075 -0.311384,0.5297 -0.2556,0.023 -0.312779,0.087 -0.345982,0.6291 -0.01354,0.2214 -0.02678,0.3311 -0.103794,0.3311 -0.08681,0 -0.144051,-0.1377 -0.172991,-0.7285 -0.01975,-0.4033 -0.04119,-0.7681 -0.0692,-0.7946 -0.02802,-0.027 -0.245015,-0.051 -0.484374,-0.066 -0.239368,-0.015 -0.522073,-0.064 -0.622768,-0.1 -0.100695,-0.036 -0.296959,-0.066 -0.449776,-0.066 -0.352943,0 -0.388563,0.04 -0.449777,1.2582 -0.05488,1.092 -0.07075,1.1662 -0.449776,0.9933 -0.287574,-0.1311 -1.483476,-0.2975 -1.660714,-0.2318 -0.07273,0.027 -0.103794,0.1059 -0.103794,0.2318 0,0.1123 -0.02811,0.2405 -0.0692,0.2649 -0.04109,0.025 -0.314223,0.012 -0.588169,-0.033 -0.490315,-0.079 -0.500425,-0.096 -0.657366,-0.3973 -0.172747,-0.3311 -0.189063,-0.3265 -1.003347,-0.4304 -0.50092,-0.063 -0.928195,-0.1599 -1.453124,-0.2648 -0.139505,-0.028 -0.287581,5e-4 -0.380581,0.066 -0.13774,0.097 -0.132015,0.2212 -0.172991,2.6488 -0.02351,1.3927 -0.0733,2.5971 -0.103794,2.6818 -0.03985,0.1113 -0.09685,0.1656 -0.242188,0.1656 -0.288478,0 -0.704441,0.2432 -0.795758,0.4966 -0.04266,0.1183 -0.130056,0.2976 -0.207589,0.3643 -0.10457,0.09 -0.137602,0.2039 -0.138393,0.4635 -6.09e-4,0.1927 -0.04017,0.388 -0.0692,0.4304 -0.08452,0.1237 -0.524232,0.032 -0.622768,-0.1324 -0.112442,-0.1879 -0.09435,-1.6438 0.0346,-2.8805 0.09453,-0.9068 0.09616,-4.6123 0,-5.4633 -0.04267,-0.3774 -0.03474,-0.401 -0.276785,-0.4635 -0.138298,-0.036 -0.291621,-0.084 -0.311384,-0.1 -0.03856,-0.031 -0.120568,-0.76572 -0.207589,-1.95356 -0.03083,-0.42084 -0.08843,-0.78002 -0.138393,-0.8277 -0.04818,-0.0456 -0.06848,-0.13935 -0.0692,-0.19868 -0.0024,-0.23702 -0.121403,-0.27574 -0.622768,-0.29799 -0.777887,-0.0342 -0.757185,-0.28761 -0.657365,3.01304 0.04684,1.55039 0.08465,2.85189 0.0692,2.88049 -0.07729,0.1449 -0.16967,-0.083 -0.172991,-0.4303 -0.0056,-0.6032 -0.08434,-1.3059 -0.172991,-1.3907 -0.04394,-0.041 -0.273537,-0.067 -0.484375,-0.066 -0.626437,7e-4 -0.616357,6e-4 -0.657365,-0.5959 -0.08262,-1.20196 -0.08229,-1.26013 -0.345982,-1.3576 -0.32795,-0.12111 -2.121927,-0.0403 -2.214285,0.0996 -0.03665,0.0551 -0.06848,0.39626 -0.0692,0.72842 -8.84e-4,0.48399 -0.01352,0.59619 -0.103795,0.62909 -0.06193,0.022 -0.137507,8e-4 -0.172991,-0.033 -0.03549,-0.034 -0.08229,-0.72492 -0.103794,-1.55622 -0.02148,-0.8313 -0.0714,-1.60833 -0.103795,-1.7217 -0.05612,-0.19166 -0.0784,-0.21243 -0.415178,-0.19866 -0.194436,0.007 -0.699195,0.0226 -1.14174,0.0331 -0.517767,0.0127 -0.842381,0.0774 -0.899554,0.13244 -0.12579,0.12036 -0.213457,1.14457 -0.242187,2.97998 -0.04403,2.8135 -0.191082,7.6411 -0.242187,7.8802 -0.02735,0.128 -0.08639,0.2479 -0.138393,0.2649 -0.07527,0.024 -0.110116,-0.055 -0.0692,-0.4305 0.02828,-0.2595 0.09991,-0.526 0.138392,-0.596 0.118181,-0.2166 -0.08594,-0.3539 -0.691964,-0.3973 l -0.553571,-0.033 0,-0.2319 c -0.0017,-0.1363 -0.01805,-0.4494 -0.0346,-0.6952 -0.01655,-0.2458 -0.04603,-0.8801 -0.0692,-1.3906 -0.08409,-1.8532 -0.167018,-2.2499 -0.415179,-2.0529 -0.0547,0.047 -0.113736,0.056 -0.138392,0.033 -0.06971,-0.067 -1.319005,-0.041 -1.522321,0.033 -0.262946,0.095 -0.319078,0.4056 -0.276785,1.4237 0.03178,0.7671 0.01827,0.8705 -0.0692,0.7616 -0.09065,-0.1138 -0.243161,-0.1208 -1.487722,-0.1325 -1.134577,-0.01 -1.393781,-0.049 -1.453124,-0.1324 -0.0434,-0.061 -0.04567,-0.5697 -0.0346,-1.2913 0.01,-0.6618 0.0078,-1.6133 0,-2.0859 -0.0074,-0.4728 -0.01,-0.8903 0,-0.96027 0.0262,-0.18267 -0.275092,-0.3968 -0.691964,-0.46355 -0.196762,-0.0318 -0.469617,-0.10383 -0.58817,-0.16549 -0.118541,-0.0615 -0.320927,-0.1423 -0.449776,-0.16561 -0.12886,-0.0244 -0.255196,-0.0657 -0.276786,-0.0996 -0.05625,-0.0869 -0.562705,-0.0583 -0.657365,0.0328 -0.05757,0.0519 -0.257821,0.053 -0.691964,0 -0.893553,-0.10902 -2.450327,-0.17132 -2.560267,-0.0996 -0.05619,0.0371 -0.08508,0.23871 -0.103794,0.4966 -0.05413,0.74576 -0.194702,1.39996 -0.311384,1.48996 -0.06098,0.048 -0.294289,0.066 -0.518973,0.066 -0.252749,0 -0.435217,0.042 -0.484374,0.1 -0.05281,0.06 -0.09106,0.744 -0.103795,2.0198 -0.01869,1.8747 -0.03265,1.9064 -0.172991,1.8872 -0.07904,-0.011 -0.395615,-0.017 -0.691964,-0.033 -0.29636,-0.015 -0.70515,-0.084 -0.934151,-0.1325 -0.642541,-0.1364 -0.677405,-0.092 -0.657366,0.894 0.0091,0.4488 0.06261,1.0691 0.103795,1.3906 0.04118,0.3213 0.08641,0.9701 0.103794,1.4238 0.01738,0.4538 0.04285,1.1113 0.0692,1.4568 0.04912,0.6443 0.01208,0.8421 -0.138393,0.7284 -0.133986,-0.1017 -1.860132,-0.2484 -2.387275,-0.1986 -0.276731,0.027 -0.632965,0.011 -0.830357,-0.033 -0.25689,-0.053 -0.400498,-0.061 -0.518973,0 -0.188004,0.093 -0.983596,0.1 -1.176339,0 -0.192598,-0.099 -0.224528,-0.3928 -0.207589,-1.6555 0.0083,-0.613 0.01107,-2.0157 0,-3.1123 -0.02244,-2.2979 -0.04608,-2.4218 -0.484374,-2.4832 -0.15117,-0.021 -0.474632,-0.058 -0.691964,-0.1 -1.091964,-0.2074 -1.138419,-0.2418 -1.314732,-0.1655 -0.0968,0.042 -0.299127,0.1 -0.415178,0.1 -0.130676,0 -0.283296,0.049 -0.415178,0.1656 l -0.207589,0.1986 -0.0346,2.8806 c -0.0416,2.6249 -0.132303,4.1992 -0.207589,4.2712 -0.01569,0.016 -0.168042,0 -0.345982,-0.033 -0.441893,-0.078 -1.796172,-0.1245 -1.833704,-0.066 -0.04074,0.062 -2.758722,0.032 -2.906248,-0.033 -0.07982,-0.035 -0.141106,-0.172 -0.172991,-0.4635 -0.02546,-0.2326 -0.0651,-0.4596 -0.10374,-0.4967 -0.03875,-0.037 -0.241855,-0.115 -0.449776,-0.1987 -0.23116,-0.092 -0.429682,-0.2272 -0.484375,-0.3311 -0.04916,-0.094 -0.143707,-0.214 -0.207589,-0.2648 -0.09887,-0.08 -0.12245,-0.078 -0.2075891,0.033 -0.055025,0.072 -0.1037392,0.1531 -0.1037392,0.1987 0,0.045 -0.062,0.1133 -0.1383928,0.1324 -0.1392452,0.035 -1.0231654,-0.1108 -1.6953115,-0.2649 l -0.3459819,-0.066 0,-0.5629 c -0.00886,-1.0739 0.00443,-1.0331 -1.3493296,-1.2912 -1.6760582,-0.3196 -1.8381881,-0.229 -1.9374988,1.1257 -0.084696,1.155 -0.2033377,1.3478 -0.6227675,0.8609 -0.2004592,-0.2327 -0.3791962,-0.5986 -0.4843747,-1.0596 -0.092668,-0.406 -0.7665188,-0.7405 -1.8683025,-0.927 -0.1988095,-0.034 -0.2782802,0.015 -0.4497765,0 z m 31.3459638,-6.2247 c 0.02093,0.05 0.02391,0.1091 0,0.1324 -0.02391,0.023 -0.03792,-0.028 -0.0346,-0.1 0.0034,-0.079 0.01168,-0.088 0.0346,-0.033 z m 0.0692,0.3641 c 0.02148,0.02 0.04783,0.7331 0.0692,1.5893 0.02535,1.0163 0.01223,1.5563 -0.0346,1.5563 -0.127376,0 -0.129701,-0.1993 -0.103794,-1.3907 0.01616,-0.7426 -0.01838,-1.2487 -0.0692,-1.3906 -0.05967,-0.168 -0.02939,-0.2366 0.0346,-0.298 0.0467,-0.046 0.08232,-0.087 0.103794,-0.066 z m 17.195302,1.8542 c 0.0353,0 0.08154,0.043 0.103795,0.1 0.0432,0.1073 -0.02716,0.2056 -0.103795,0.1324 -0.06848,-0.066 -0.07372,-0.2318 0,-0.2318 z m 0,0.4636 c 0.06303,0 0.127554,0.6607 0.172991,1.6224 0.0076,0.1617 -0.01496,0.2789 -0.0692,0.2979 -0.06875,0.023 -0.0692,-0.1697 -0.0692,-0.8277 0,-0.4728 -0.04522,-0.8998 -0.0692,-0.9602 -0.02398,-0.06 -0.0054,-0.1324 0.0346,-0.1324 z m 27.159583,0.1986 c 0.02067,0.049 0.02387,0.1102 0,0.1325 -0.02386,0.023 -0.0377,0.011 -0.0346,-0.066 0.0034,-0.08 0.01166,-0.1214 0.0346,-0.066 z m -44.320287,0.7947 c 0.04119,0 0.06698,0.018 0.0692,0.066 0.0024,0.048 0.04949,0.6816 0.0692,1.3907 0.02436,0.8829 -0.01716,1.2913 -0.0692,1.2913 -0.04506,0 -0.0692,-0.1854 -0.0692,-0.4305 0,-0.2274 -0.02015,-0.4876 -0.0692,-0.5628 -0.07097,-0.1088 -0.07097,-0.1563 0,-0.2649 0.120889,-0.1854 0.09628,-0.3817 -0.0346,-0.4304 -0.128872,-0.048 -0.15541,-0.3148 -0.0346,-0.4304 0.04727,-0.046 0.07916,-0.2129 0.0692,-0.3643 -0.0095,-0.1553 0.02712,-0.2649 0.0692,-0.2649 z m 40.583682,0.5959 c 0.03707,-0.024 0.0939,0.078 0.103794,0.2981 0.0302,0.6697 0.01582,0.8632 -0.0692,1.0263 -0.0753,0.1446 -0.0619,0.1641 0.0346,0.2319 0.103673,0.073 0.09496,0.099 -0.0346,0.2317 -0.07883,0.079 -0.152609,0.1301 -0.172991,0.1 -0.02039,-0.032 -0.03423,-0.2797 0,-0.5629 0.03424,-0.2833 0.06743,-0.7097 0.0692,-0.9271 0.0018,-0.2276 0.03213,-0.3733 0.0692,-0.3973 z m 13.21651,0.4636 c 0.09455,-0.09 0.35847,0.5584 0.449776,1.0927 0.03876,0.2269 0.0692,0.6051 0.0692,0.8608 4.01e-4,0.4513 -0.01572,0.4968 -0.242188,0.6291 -0.281689,0.1638 -0.296953,0.1364 -0.415178,0 -0.179881,-0.2074 -0.06136,-2.3915 0.138393,-2.5826 z m -36.466497,0.298 c 0.03294,-0.051 0.06841,0.5954 0.0692,1.4569 7.64e-4,0.8602 -0.01974,1.5561 -0.0346,1.5561 -0.124609,0 -0.156998,-2.8244 -0.0346,-3.013 z m -17.541284,0.8939 c 0.03952,0 0.0692,0.128 0.0692,0.2981 0,0.3155 -0.01888,0.3465 -0.103795,0.2649 -0.07628,-0.073 -0.04467,-0.563 0.0346,-0.563 z m -0.172991,0.6954 c 0.05934,0.047 0.103795,0.1 0.103795,0.1325 0,0.034 -0.04445,0.066 -0.103795,0.066 -0.062,0 -0.103794,-0.049 -0.103794,-0.1324 0,-0.1218 0.01378,-0.1372 0.103794,-0.066 z m 0.484375,0.2317 c 0.02314,0.021 0.0481,0.1384 0.0346,0.2649 l -0.0346,0.2318 -0.0346,-0.2318 c -0.05628,-0.2159 -0.05431,-0.3496 0.0346,-0.2649 z m 9.445307,1.0596 c 0.152971,-0.2736 0.21246,-0.1228 0.172991,0.5297 -0.04917,0.8132 -0.104769,1.0576 -0.172991,0.6622 -0.0711,-0.4118 -0.08327,-1.0431 0,-1.1919 z m 6.089282,2.0528 c 0.02067,0.049 0.02387,0.1091 0,0.1324 -0.02387,0.023 -0.0377,-0.028 -0.0346,-0.1 0.0034,-0.079 0.01166,-0.088 0.0346,-0.033 z m -13.770081,6.8869 c 0.03831,0.057 0.06848,0.1661 0.0692,0.2318 5.54e-4,0.067 -0.02967,0.1325 -0.0692,0.1325 -0.03953,0 -0.06992,-0.109 -0.0692,-0.2319 8.86e-4,-0.1701 0.01639,-0.2108 0.0692,-0.1324 z m 0,0.8609 c 0.03952,-0.024 0.0692,0 0.0692,0.033 0,0.038 -0.02967,0.075 -0.0692,0.1 -0.03953,0.024 -0.0692,0.038 -0.0692,0 0,-0.038 0.02967,-0.1091 0.0692,-0.1324 z"
       id="path5776"
       inkscape:connector-curvature="0" />
    <path
       style="fill:#150900;fill-opacity:1"
       d="m 0.9999992,1000.3722 0,2.1522 c 0.8951688,0 2.9821207,-0.023 3.0446411,0 0.099753,0.037 0.2167341,0.015 0.3805801,-0.066 0.170821,-0.085 0.3054605,-0.1064 0.4151783,-0.066 0.1888342,0.067 0.3800819,0.076 2.0412934,0.066 0.9992623,0 1.2829011,-0.023 1.3493296,-0.1 0.065875,-0.075 0.1406071,-0.093 0.2767855,-0.033 0.1287828,0.062 0.2090838,0.06 0.345982,0 0.1467074,-0.065 0.2715266,-0.048 0.5189729,0.033 0.3081287,0.1007 0.9798979,0.079 1.1417399,-0.033 0.138703,-0.096 1.014497,-0.1372 1.418526,-0.066 0.351839,0.062 0.415865,0.038 0.58817,-0.066 0.270364,-0.1647 0.343269,-0.2112 0.242187,-0.3311 -0.06687,-0.079 -0.07041,-0.1065 0,-0.066 0.05846,0.034 0.06853,0.015 0.0692,-0.066 6.65e-4,-0.071 0.03953,-0.1059 0.0692,-0.066 0.02901,0.038 0.14343,0.066 0.242187,0.066 -0.06853,-0.024 -0.149885,-0.1228 -0.207589,-0.1986 -0.101746,-0.1335 -0.104625,-0.1317 -0.172991,-0.033 -0.06709,0.096 -0.126889,0.087 -0.311384,-0.1 -0.116039,-0.1164 -0.163857,-0.1801 -0.138392,-0.1324 0.02779,0.052 5.53e-4,0.1 -0.0692,0.1 -0.06399,0 -0.125716,-0.033 -0.103739,-0.066 0.02203,-0.035 -0.05956,-0.066 -0.207589,-0.066 -0.148058,0 -0.451648,-0.03 -0.657366,-0.066 -0.229378,-0.037 -0.374325,-0.039 -0.415178,0 -0.04074,0.041 -0.125218,0.04 -0.207589,0 -0.322522,-0.1588 -0.9216409,-0.2998 -1.1071426,-0.2649 -0.1110463,0.021 -0.2373713,0 -0.2767855,-0.033 -0.084143,-0.081 -1.8920839,-0.152 -4.2901761,-0.1987 -0.4757943,-0.011 -0.7555138,-0.039 -0.8303566,-0.1 -0.084696,-0.068 -0.1707213,-0.088 -0.2767856,-0.033 -0.078718,0.042 -0.1899302,0.05 -0.2421873,0.033 -0.090011,-0.029 -0.9210759,-0.094 -1.6261151,-0.1324 -0.1778071,-0.011 -0.5834529,-0.04 -0.8995531,-0.066 -0.013286,0 -0.087796,0 -0.1037392,0 z"
       id="path4968"
       inkscape:connector-curvature="0" />
    <path
       style="fill:#000000;fill-opacity:0.35294119;fill-rule:nonzero;stroke:none"
       d="m 1,1042.3622 0.045976,2.7457 c 0.03024,1.8058 1.461916,3.2543 3.2852054,3.2543 l 86.3836136,0 c 1.823288,0 3.285205,-1.4481 3.285205,-3.2543 l -0.04598,-2.7457 z"
       id="rect3781"
       inkscape:connector-curvature="0"
       sodipodi:nodetypes="csssscc" />
    <rect
       style="fill:#ffffff;fill-opacity:0.15068494;fill-rule:nonzero;stroke:none"
       id="rect3770"
       width="92.954033"
       height="2.000005"
       x="1.045976"
       y="1040.3622" />
    <path
       style="fill:#000000;fill-opacity:0.35294119;fill-rule:nonzero;stroke:none"
       d="M 93.96875 86.9375 C 93.955289 87.335971 93.904559 87.717719 93.75 88.0625 C 93.582209 88.4368 93.328833 88.7777 93.03125 89.0625 C 92.733666 89.3473 92.391112 89.58945 92 89.75 C 91.608888 89.91055 91.174797 90 90.71875 90 L 4.28125 90 C 3.8252015 90 3.3911118 89.91055 3 89.75 C 2.6088882 89.58945 2.2663332 89.3473 1.96875 89.0625 C 1.6711668 88.7777 1.4177916 88.4368 1.25 88.0625 C 1.0904657 87.70662 1.0086962 87.318966 1 86.90625 L 1.03125 88.75 C 1.06149 90.5558 2.5204606 92 4.34375 92 L 90.71875 92 C 92.542038 92 94 90.5562 94 88.75 L 93.96875 86.9375 z "
       id="path3781"
       transform="translate(0,956.36218)" />
    <path
       style="fill:#000000;fill-opacity:1;fill-rule:nonzero;stroke:none"
       d="M 1 86 L 1 86.90625 C 1.0086962 87.318966 1.0904657 87.70662 1.25 88.0625 C 1.4177916 88.4368 1.6711668 88.7777 1.96875 89.0625 C 2.2663332 89.3473 2.6088882 89.58945 3 89.75 C 3.3911118 89.91055 3.8252015 90 4.28125 90 L 90.71875 90 C 91.174797 90 91.608888 89.91055 92 89.75 C 92.391112 89.58945 92.733666 89.3473 93.03125 89.0625 C 93.328833 88.7777 93.582209 88.4368 93.75 88.0625 C 93.904559 87.717719 93.955289 87.335971 93.96875 86.9375 L 93.96875 86 L 1 86 z "
       id="path3776"
       transform="translate(0,956.36218)" />
    <rect
       style="opacity:0.67489714;fill:#ffffff;fill-opacity:1;fill-rule:nonzero;stroke:none"
       id="rect3000"
       width="10.714286"
       height="15"
       x="10"
       y="962.36218"
       ry="0" />
    <rect
       ry="0"
       y="962.36218"
       x="26.071428"
       height="15"
       width="10.714286"
       id="rect3771"
       style="opacity:0.67489714;fill:#ffffff;fill-opacity:1;fill-rule:nonzero;stroke:none" />
    <rect
       style="opacity:0.67489714;fill:#ffffff;fill-opacity:1;fill-rule:nonzero;stroke:none"
       id="rect3773"
       width="10.714286"
       height="15"
       x="42.142857"
       y="962.36218"
       ry="0" />
    <rect
       ry="0"
       y="962.36218"
       x="58.214287"
       height="15"
       width="10.714286"
       id="rect3776"
       style="opacity:0.67489714;fill:#ffffff;fill-opacity:1;fill-rule:nonzero;stroke:none" />
    <rect
       style="opacity:0.67489714;fill:#ffffff;fill-opacity:1;fill-rule:nonzero;stroke:none"
       id="rect3778"
       width="10.714286"
       height="15"
       x="74.285713"
       y="962.36218"
       ry="0" />
    <rect
       ry="0"
       y="1017.3622"
       x="10"
       height="15"
       width="10.714286"
       id="rect3780"
       style="opacity:0.67489714;fill:#ffffff;fill-opacity:1;fill-rule:nonzero;stroke:none" />
    <rect
       style="opacity:0.67489714;fill:#ffffff;fill-opacity:1;fill-rule:nonzero;stroke:none"
       id="rect3782"
       width="10.714286"
       height="15"
       x="26.071428"
       y="1017.3622"
       ry="0" />
    <rect
       ry="0"
       y="1017.3622"
       x="42.142857"
       height="15"
       width="10.714286"
       id="rect3784"
       style="opacity:0.67489714;fill:#ffffff;fill-opacity:1;fill-rule:nonzero;stroke:none" />
    <rect
       style="opacity:0.67489714;fill:#ffffff;fill-opacity:1;fill-rule:nonzero;stroke:none"
       id="rect3786"
       width="10.714286"
       height="15"
       x="58.214287"
       y="1017.3622"
       ry="0" />
    <rect
       ry="0"
       y="1017.3622"
       x="74.285713"
       height="15"
       width="10.714286"
       id="rect3788"
       style="opacity:0.67489714;fill:#ffffff;fill-opacity:1;fill-rule:nonzero;stroke:none" />
  </g>
</svg>
