<?xml version="1.0" encoding="UTF-8" standalone="no"?>
<!-- Created with Inkscape (http://www.inkscape.org/) -->

<svg
   xmlns:dc="http://purl.org/dc/elements/1.1/"
   xmlns:cc="http://creativecommons.org/ns#"
   xmlns:rdf="http://www.w3.org/1999/02/22-rdf-syntax-ns#"
   xmlns:svg="http://www.w3.org/2000/svg"
   xmlns="http://www.w3.org/2000/svg"
   xmlns:sodipodi="http://sodipodi.sourceforge.net/DTD/sodipodi-0.dtd"
   xmlns:inkscape="http://www.inkscape.org/namespaces/inkscape"
   width="96"
   height="96"
   id="svg2"
   version="1.1"
   inkscape:version="0.48.4 r9939"
   sodipodi:docname="phpmyadmin.svg">
  <defs
     id="defs4" />
  <sodipodi:namedview
     id="base"
     pagecolor="#ffffff"
     bordercolor="#666666"
     borderopacity="1.0"
     inkscape:pageopacity="0.0"
     inkscape:pageshadow="2"
     inkscape:zoom="5.90625"
     inkscape:cx="48"
     inkscape:cy="48"
     inkscape:document-units="px"
     inkscape:current-layer="layer1"
     showgrid="true"
     inkscape:snap-page="true"
     inkscape:snap-global="true"
     inkscape:snap-center="true"
     inkscape:snap-object-midpoints="false"
     showguides="true"
     inkscape:guide-bbox="true"
     inkscape:snap-bbox="true"
     inkscape:object-paths="true"
     inkscape:object-nodes="true"
     inkscape:window-width="1305"
     inkscape:window-height="744"
     inkscape:window-x="61"
     inkscape:window-y="24"
     inkscape:window-maximized="1"
     inkscape:snap-midpoints="false"
     inkscape:snap-grids="true"
     inkscape:snap-to-guides="false">
    <inkscape:grid
       type="xygrid"
       id="grid3002"
       empspacing="5"
       visible="true"
       enabled="true"
       snapvisiblegridlinesonly="true" />
  </sodipodi:namedview>
  <metadata
     id="metadata7">
    <rdf:RDF>
      <cc:Work
         rdf:about="">
        <dc:format>image/svg+xml</dc:format>
        <dc:type
           rdf:resource="http://purl.org/dc/dcmitype/StillImage" />
        <dc:title />
      </cc:Work>
    </rdf:RDF>
  </metadata>
  <g
     inkscape:label="Layer 1"
     inkscape:groupmode="layer"
     id="layer1"
     transform="translate(0,-956.36218)">
    <rect
       style="fill:#ffffff;fill-opacity:0;fill-rule:nonzero;stroke:none"
       id="rect3775"
       width="96"
       height="96"
       x="0"
       y="956.36218"
       ry="0" />
    <path
       style="fill:#000000;fill-opacity:0.09589041;fill-rule:nonzero;stroke:none"
       d="m 3.353015,956.30662 c -1.884176,0 -3.4111555,1.43156 -3.4111555,3.19799 l 0,83.65949 c 0,1.7665 1.5269795,3.1981 3.4111555,3.1981 l 89.23583,0 c 1.884174,0 3.411155,-1.4316 3.411155,-3.1981 l 0,-83.65949 c 0,-1.76643 -1.526981,-3.19799 -3.411155,-3.19799 z"
       id="rect3772"
       inkscape:connector-curvature="0"
       sodipodi:nodetypes="sssssssss" />
    <path
       style="fill:#000000;fill-opacity:0.18721463;fill-rule:nonzero;stroke:none"
       d="m 1.0459761,1041.8066 0,7.4219 c 0,1.7392 1.461916,3.1337 3.2852054,3.1337 l 86.3836135,0 c 1.823288,0 3.285205,-1.3945 3.285205,-3.1337 l 0,-7.4219 -92.9540239,0 z"
       id="rect3785"
       inkscape:connector-curvature="0" />
    <path
       style="fill:#000000;fill-opacity:0.38356168;fill-rule:nonzero;stroke:none"
       d="m 1.0459761,1041.8066 0,5.3807 c 0,1.762 1.461916,3.1749 3.2852054,3.1749 l 86.3836135,0 c 1.823288,0 3.285205,-1.4129 3.285205,-3.1749 l 0,-5.3807 -92.9540239,0 z"
       id="rect3783"
       inkscape:connector-curvature="0" />
    <rect
       style="fill:#2a7fff;fill-opacity:1;fill-rule:nonzero;stroke:none"
       id="rect2985-1"
       width="93"
       height="89.000008"
       x="0.99999738"
       y="957.36218"
       ry="3.1511397" />
    <path
       style="fill:#000000;fill-opacity:0.38356168;fill-rule:nonzero;stroke:none"
       d="m 1,1042.3622 0.045976,2.7457 c 0.03024,1.8058 1.461916,3.2543 3.2852054,3.2543 l 86.3836136,0 c 1.823288,0 3.285205,-1.4481 3.285205,-3.2543 l -0.04598,-2.7457 z"
       id="rect3781"
       inkscape:connector-curvature="0"
       sodipodi:nodetypes="csssscc" />
    <rect
       style="fill:#ffffff;fill-opacity:0.30000001;fill-rule:nonzero;stroke:none"
       id="rect3770"
       width="92.954033"
       height="2.000005"
       x="1.045976"
       y="1040.3622" />
    <path
       style="fill:#e6e6e6;fill-opacity:1;fill-rule:nonzero;stroke:none"
       d="m 43,971.02778 c -3.044152,14.0111 -6.026983,28.09472 -10.763835,40.28752 3.736718,-0.4483 7.322727,-1.1713 10.763835,-1.9991 l 0,-29.90802 c 2.398816,9.6571 4.738151,19.31852 5.42036,28.48582 3.151435,-0.9299 6.154083,-1.9419 8.995492,-2.9985 L 43,978.44718 l 0,-4.0365 c 4.636445,6.1356 7.634727,10.7284 7.919107,16.37652 l 19.605558,8.8032 c 0.205032,-0.087 0.413023,-0.185 0.615077,-0.2692 L 43,974.21848 l 0,-3.1907 z m -2.03744,1.7684 -15.146254,2.614 c 3.146717,-0.097 8.481276,0.5654 10.417855,1.4224 l 4.728399,-4.0364 z m -0.307538,5.0359 -10.379413,2.9601 c 2.162818,-0.1111 5.780759,0.6699 7.111819,1.653 l 3.267594,-4.6131 z m -7.188706,5.4588 c -3.079096,10.02112 -6.162779,20.05042 -10.340971,28.60112 2.657553,-0.024 5.230452,-0.1974 7.76534,-0.4614 l 2.575631,-28.13972 z m 42.940016,15.53062 c -11.977048,4.5045 -31.97307,15.35 -56.740791,14.4928 l 2.075883,3.1139 32.522161,0.1156 c 3.008151,-7.7794 13.309488,-13.5368 22.142747,-17.7218 z"
       id="rect3763"
       inkscape:connector-curvature="0" />
    <path
       transform="translate(0.35611678,951.77888)"
       d="m 20.0625,58.625 a 2.1906165,2.1906165 0 0 0 -1.875,1.5625 l -4.03125,13.59375 a 2.1906165,2.1906165 0 0 0 2.09375,2.8125 l 4.34375,0 a 2.1906165,2.1906165 0 0 0 2.09375,-1.5625 l 0.9375,-3.15625 1.25,0 c 2.409644,0 4.533563,-0.445831 6.3125,-1.4375 0.439805,-0.245462 0.771232,-0.621154 1.15625,-0.9375 l -1.28125,4.28125 a 2.1906165,2.1906165 0 0 0 2.09375,2.8125 l 4.125,0 a 2.1906165,2.1906165 0 0 0 2.09375,-1.5625 l 0.65625,-2.21875 a 2.1906165,2.1906165 0 0 0 1.90625,1.15625 l 2.75,0 a 2.1906165,2.1906165 0 0 0 1,-0.21875 l 0,0.03125 a 2.1906165,2.1906165 0 0 0 2.09375,2.8125 l 4.125,0 a 2.1906165,2.1906165 0 0 0 1.125,-0.28125 2.1906165,2.1906165 0 0 0 1.125,0.28125 l 4.375,0 A 2.1906165,2.1906165 0 0 0 60.3125,75.6875 l 1.125,-1.59375 3.75,0 0.0625,0.59375 a 2.1906165,2.1906165 0 0 0 2.1875,1.90625 l 4.375,0 A 2.1906165,2.1906165 0 0 0 73.96875,74.0625 L 71.75,60.46875 A 2.1906165,2.1906165 0 0 0 69.59375,58.625 l -5.15625,0 a 2.1906165,2.1906165 0 0 0 -1.75,0.875 l -6.71875,8.875 2.0625,-6.9375 A 2.1906165,2.1906165 0 0 0 55.9375,58.625 l -5.53125,0 a 2.1906165,2.1906165 0 0 0 -1.6875,0.78125 l -3.1875,3.875 -0.6875,-2.96875 a 2.1906165,2.1906165 0 0 0 -2.125,-1.6875 l -5.53125,0 a 2.1906165,2.1906165 0 0 0 -2.09375,1.5625 L 34.625,61.8125 C 34.347945,61.235251 33.998243,60.693208 33.5,60.28125 31.936332,58.964189 29.905485,58.625 27.5,58.625 l -7.21875,0 a 2.1906165,2.1906165 0 0 0 -0.21875,0 z"
       id="path3816"
       style="font-size:11px;font-style:normal;font-variant:normal;font-weight:bold;font-stretch:normal;text-align:end;line-height:125%;letter-spacing:0px;word-spacing:0px;text-anchor:end;opacity:0.42798354;fill:#000000;fill-opacity:1;stroke:none;font-family:mry_KacstQurn;-inkscape-font-specification:mry_KacstQurn Bold"
       inkscape:original="M 20.28125 60.8125 L 16.25 74.40625 L 20.59375 74.40625 L 22 69.6875 L 24.875 69.6875 C 27.016724 69.6875 28.75573 69.29455 30.125 68.53125 C 31.503567 67.76185 32.42038 66.6736 32.84375 65.25 C 33.265232 63.8329 33.016561 62.73175 32.09375 61.96875 C 31.180287 61.19935 29.641724 60.8125 27.5 60.8125 L 20.28125 60.8125 z M 37.1875 60.8125 L 33.15625 74.40625 L 37.28125 74.40625 L 40.21875 64.46875 L 41.9375 71.78125 L 44.6875 71.78125 L 50.75 64.46875 L 47.78125 74.40625 L 51.90625 74.40625 L 55.9375 60.8125 L 50.40625 60.8125 L 44.40625 68.09375 L 42.71875 60.8125 L 37.1875 60.8125 z M 64.4375 60.8125 L 54.15625 74.40625 L 58.53125 74.40625 L 60.3125 71.90625 L 67.125 71.90625 L 67.4375 74.40625 L 71.8125 74.40625 L 69.59375 60.8125 L 64.4375 60.8125 z M 23.875 63.375 L 26.28125 63.375 C 27.122904 63.375 27.732633 63.51655 28.09375 63.84375 C 28.454849 64.17095 28.52384 64.6444 28.34375 65.25 C 28.163581 65.8558 27.807508 66.32295 27.25 66.65625 C 26.694486 66.98275 25.997906 67.15625 25.15625 67.15625 L 22.75 67.15625 L 23.875 63.375 z M 66.0625 64 L 66.78125 69.40625 L 62.15625 69.40625 L 66.0625 64 z "
       inkscape:radius="2.1903975"
       sodipodi:type="inkscape:offset" />
    <path
       sodipodi:type="inkscape:offset"
       inkscape:radius="1.0746146"
       inkscape:original="M 20.28125 60.8125 L 16.25 74.40625 L 20.59375 74.40625 L 22 69.6875 L 24.875 69.6875 C 27.016724 69.6875 28.75573 69.29455 30.125 68.53125 C 31.503567 67.76185 32.42038 66.6736 32.84375 65.25 C 33.265232 63.8329 33.016561 62.73175 32.09375 61.96875 C 31.180287 61.19935 29.641724 60.8125 27.5 60.8125 L 20.28125 60.8125 z M 37.1875 60.8125 L 33.15625 74.40625 L 37.28125 74.40625 L 40.21875 64.46875 L 41.9375 71.78125 L 44.6875 71.78125 L 50.75 64.46875 L 47.78125 74.40625 L 51.90625 74.40625 L 55.9375 60.8125 L 50.40625 60.8125 L 44.40625 68.09375 L 42.71875 60.8125 L 37.1875 60.8125 z M 64.4375 60.8125 L 54.15625 74.40625 L 58.53125 74.40625 L 60.3125 71.90625 L 67.125 71.90625 L 67.4375 74.40625 L 71.8125 74.40625 L 69.59375 60.8125 L 64.4375 60.8125 z M 23.875 63.375 L 26.28125 63.375 C 27.122904 63.375 27.732633 63.51655 28.09375 63.84375 C 28.454849 64.17095 28.52384 64.6444 28.34375 65.25 C 28.163581 65.8558 27.807508 66.32295 27.25 66.65625 C 26.694486 66.98275 25.997906 67.15625 25.15625 67.15625 L 22.75 67.15625 L 23.875 63.375 z M 66.0625 64 L 66.78125 69.40625 L 62.15625 69.40625 L 66.0625 64 z "
       style="font-size:11px;font-style:normal;font-variant:normal;font-weight:bold;font-stretch:normal;text-align:end;line-height:125%;letter-spacing:0px;word-spacing:0px;text-anchor:end;fill:#000000;fill-opacity:1;stroke:none;font-family:mry_KacstQurn;-inkscape-font-specification:mry_KacstQurn Bold"
       id="path3814"
       d="M 20.0625,59.75 A 1.0747221,1.0747221 0 0 0 19.25,60.5 l -4.03125,13.59375 a 1.0747221,1.0747221 0 0 0 1.03125,1.375 l 4.34375,0 a 1.0747221,1.0747221 0 0 0 1.03125,-0.75 l 1.1875,-3.96875 2.0625,0 c 2.273166,0 4.210996,-0.405912 5.78125,-1.28125 1.578061,-0.880741 2.717203,-2.219776 3.21875,-3.90625 0.494877,-1.663868 0.129799,-3.37813 -1.09375,-4.40625 -0.0069,-0.0058 -0.02429,0.0058 -0.03125,0 C 31.518325,60.131441 29.758369,59.75 27.5,59.75 l -7.21875,0 a 1.0747221,1.0747221 0 0 0 -0.21875,0 z m 16.90625,0 a 1.0747221,1.0747221 0 0 0 -0.8125,0.75 L 32.125,74.09375 a 1.0747221,1.0747221 0 0 0 1.03125,1.375 l 4.125,0 a 1.0747221,1.0747221 0 0 0 1.03125,-0.75 l 1.78125,-6.09375 0.8125,3.40625 a 1.0747221,1.0747221 0 0 0 1.03125,0.8125 l 2.75,0 A 1.0747221,1.0747221 0 0 0 45.5,72.46875 L 48.21875,69.1875 46.75,74.09375 a 1.0747221,1.0747221 0 0 0 1.03125,1.375 l 4.125,0 a 1.0747221,1.0747221 0 0 0 1.03125,-0.75 l 0.15625,-0.46875 0.0625,-0.21875 a 1.0747221,1.0747221 0 0 0 -0.0625,0.21875 1.0747221,1.0747221 0 0 0 1.0625,1.21875 l 4.375,0 a 1.0747221,1.0747221 0 0 0 0.875,-0.4375 l 1.46875,-2.0625 5.3125,0 0.1875,1.5625 a 1.0747221,1.0747221 0 0 0 1.0625,0.9375 l 4.375,0 a 1.0747221,1.0747221 0 0 0 1.0625,-1.25 L 70.65625,60.625 a 1.0747221,1.0747221 0 0 0 -1.0625,-0.875 l -5.15625,0 a 1.0747221,1.0747221 0 0 0 -0.84375,0.40625 L 53.3125,73.75 a 1.0747221,1.0747221 0 0 0 -0.125,0.1875 L 56.96875,61.125 A 1.0747221,1.0747221 0 0 0 55.9375,59.75 l -5.53125,0 A 1.0747221,1.0747221 0 0 0 49.5625,60.125 L 44.9375,65.71875 43.75,60.5625 A 1.0747221,1.0747221 0 0 0 42.71875,59.75 l -5.53125,0 a 1.0747221,1.0747221 0 0 0 -0.21875,0 z m -12.28125,4.6875 1.59375,0 c 0.721168,0 1.064379,0.160888 1.09375,0.1875 0.02934,0.02658 0.0526,-0.07455 -0.0625,0.3125 -0.112916,0.37967 -0.2741,0.571469 -0.625,0.78125 -0.358748,0.205218 -0.850399,0.375 -1.53125,0.375 l -0.96875,0 0.5,-1.65625 z m 40.65625,2.375 0.21875,1.53125 -1.3125,0 1.09375,-1.53125 z"
       transform="translate(0.35611678,951.77888)" />
    <path
       inkscape:connector-curvature="0"
       id="path3798"
       style="font-size:11px;font-style:normal;font-variant:normal;font-weight:bold;font-stretch:normal;text-align:end;line-height:125%;letter-spacing:0px;word-spacing:0px;text-anchor:end;fill:#4d4d4d;fill-opacity:1;stroke:none;font-family:mry_KacstQurn;-inkscape-font-specification:mry_KacstQurn Bold"
       d="m 20.410321,1012.1263 7.202999,0 c 2.141724,0 3.669317,0.3846 4.58278,1.154 0.922811,0.763 1.173404,1.8535 0.751922,3.2706 -0.42337,1.4236 -1.324315,2.5198 -2.702882,3.2892 -1.36927,0.7633 -3.124716,1.1447 -5.26644,1.1447 l -2.863165,0 -1.399768,4.7064 -4.339834,0 4.034388,-13.5649 m 3.585891,2.535 -1.126785,3.7886 2.401,0 c 0.841656,0 1.54049,-0.164 2.096004,-0.4905 0.557508,-0.3333 0.926321,-0.8027 1.10649,-1.4085 0.18009,-0.6056 0.0896,-1.0718 -0.271499,-1.399 -0.361117,-0.3272 -0.962554,-0.4906 -1.804208,-0.4906 l -2.401002,0" />
    <path
       inkscape:connector-curvature="0"
       id="path3800"
       style="font-size:11px;font-style:normal;font-variant:normal;font-weight:bold;font-stretch:normal;text-align:end;line-height:125%;letter-spacing:0px;word-spacing:0px;text-anchor:end;fill:#ffffff;fill-opacity:1;stroke:none;font-family:mry_KacstQurn;-inkscape-font-specification:mry_KacstQurn Bold"
       d="m 37.318768,1012.1263 5.523427,0 1.673538,7.2595 6.014168,-7.2595 5.512151,0 -4.034387,13.5649 -4.103117,0 2.950817,-9.9215 -6.052961,7.3139 -2.750441,0 -1.702378,-7.3139 -2.950816,9.9215 -4.114389,0 4.034388,-13.5649" />
    <path
       inkscape:connector-curvature="0"
       id="path3802"
       style="font-size:11px;font-style:normal;font-variant:normal;font-weight:bold;font-stretch:normal;text-align:end;line-height:125%;letter-spacing:0px;word-spacing:0px;text-anchor:end;fill:#ffffff;fill-opacity:1;stroke:none;font-family:mry_KacstQurn;-inkscape-font-specification:mry_KacstQurn Bold"
       d="m 67.227595,1023.2199 -6.785922,0 -1.805896,2.4713 -4.362381,0 10.267969,-13.5649 5.173984,0 2.199194,13.5649 -4.36238,0 -0.324568,-2.4713 m -4.955275,-2.5167 4.610368,0 -0.694468,-5.3968 -3.9159,5.3968" />
  </g>
</svg>
