<?xml version="1.0" encoding="UTF-8" standalone="no"?>
<!-- Created with Inkscape (http://www.inkscape.org/) -->

<svg
   xmlns:dc="http://purl.org/dc/elements/1.1/"
   xmlns:cc="http://creativecommons.org/ns#"
   xmlns:rdf="http://www.w3.org/1999/02/22-rdf-syntax-ns#"
   xmlns:svg="http://www.w3.org/2000/svg"
   xmlns="http://www.w3.org/2000/svg"
   xmlns:sodipodi="http://sodipodi.sourceforge.net/DTD/sodipodi-0.dtd"
   xmlns:inkscape="http://www.inkscape.org/namespaces/inkscape"
   width="96"
   height="96"
   id="svg2"
   version="1.1"
   inkscape:version="0.48.4 r9939"
   sodipodi:docname="planner.svg">
  <defs
     id="defs4" />
  <sodipodi:namedview
     id="base"
     pagecolor="#ffffff"
     bordercolor="#666666"
     borderopacity="1.0"
     inkscape:pageopacity="0.0"
     inkscape:pageshadow="2"
     inkscape:zoom="5.90625"
     inkscape:cx="47.830688"
     inkscape:cy="48"
     inkscape:document-units="px"
     inkscape:current-layer="layer1"
     showgrid="true"
     inkscape:snap-page="true"
     inkscape:snap-global="true"
     inkscape:snap-center="true"
     inkscape:snap-object-midpoints="false"
     showguides="true"
     inkscape:guide-bbox="true"
     inkscape:snap-bbox="true"
     inkscape:object-paths="true"
     inkscape:object-nodes="true"
     inkscape:window-width="1305"
     inkscape:window-height="744"
     inkscape:window-x="61"
     inkscape:window-y="24"
     inkscape:window-maximized="1"
     inkscape:snap-midpoints="false"
     inkscape:snap-grids="false"
     inkscape:snap-to-guides="false">
    <inkscape:grid
       type="xygrid"
       id="grid3002"
       empspacing="5"
       visible="true"
       enabled="true"
       snapvisiblegridlinesonly="true" />
  </sodipodi:namedview>
  <metadata
     id="metadata7">
    <rdf:RDF>
      <cc:Work
         rdf:about="">
        <dc:format>image/svg+xml</dc:format>
        <dc:type
           rdf:resource="http://purl.org/dc/dcmitype/StillImage" />
        <dc:title />
      </cc:Work>
    </rdf:RDF>
  </metadata>
  <g
     inkscape:label="Layer 1"
     inkscape:groupmode="layer"
     id="layer1"
     transform="translate(0,-956.36218)">
    <rect
       style="fill:#ffffff;fill-opacity:0;fill-rule:nonzero;stroke:none"
       id="rect3775"
       width="96"
       height="96"
       x="0"
       y="956.36218"
       ry="0" />
    <path
       style="fill:#000000;fill-opacity:0.09589041;fill-rule:nonzero;stroke:none"
       d="m 3.353015,956.30662 c -1.884176,0 -3.4111555,1.43156 -3.4111555,3.19799 l 0,83.65949 c 0,1.7665 1.5269795,3.1981 3.4111555,3.1981 l 89.23583,0 c 1.884174,0 3.411155,-1.4316 3.411155,-3.1981 l 0,-83.65949 c 0,-1.76643 -1.526981,-3.19799 -3.411155,-3.19799 z"
       id="rect3772"
       inkscape:connector-curvature="0"
       sodipodi:nodetypes="sssssssss" />
    <path
       style="fill:#000000;fill-opacity:0.18721463;fill-rule:nonzero;stroke:none"
       d="m 1.0459761,1041.8066 0,7.4219 c 0,1.7392 1.461916,3.1337 3.2852054,3.1337 l 86.3836135,0 c 1.823288,0 3.285205,-1.3945 3.285205,-3.1337 l 0,-7.4219 -92.9540239,0 z"
       id="rect3785"
       inkscape:connector-curvature="0" />
    <path
       style="fill:#000000;fill-opacity:0.38356168;fill-rule:nonzero;stroke:none"
       d="m 1.0459761,1041.8066 0,5.3807 c 0,1.762 1.461916,3.1749 3.2852054,3.1749 l 86.3836135,0 c 1.823288,0 3.285205,-1.4129 3.285205,-3.1749 l 0,-5.3807 -92.9540239,0 z"
       id="rect3783"
       inkscape:connector-curvature="0" />
    <rect
       style="fill:#aadd6d;fill-opacity:1;fill-rule:nonzero;stroke:none"
       id="rect2985-2"
       width="93"
       height="88.999962"
       x="0.9999969"
       y="957.36224"
       ry="3.1511383" />
    <path
       style="fill:#000000;fill-opacity:0.38356168;fill-rule:nonzero;stroke:none"
       d="m 1,1042.3622 0.045976,2.7457 c 0.03024,1.8058 1.461916,3.2543 3.2852054,3.2543 l 86.3836136,0 c 1.823288,0 3.285205,-1.4481 3.285205,-3.2543 l -0.04598,-2.7457 z"
       id="rect3781"
       inkscape:connector-curvature="0"
       sodipodi:nodetypes="csssscc" />
    <rect
       style="fill:#ffffff;fill-opacity:0.30000001;fill-rule:nonzero;stroke:none"
       id="rect3770"
       width="92.954033"
       height="2.000005"
       x="1.045976"
       y="1040.3622" />
    <path
       style="fill:#000000;fill-opacity:0.56621003;fill-rule:evenodd;stroke:none"
       d="M 15 11 L 15 35.84375 C 16.513674 34.979634 18.195667 34.407432 20 34.15625 L 20 16 L 55 16 L 55 36 L 75 36 L 75 71 L 56.90625 71 C 56.650157 72.801771 56.059385 74.490065 55.1875 76 L 80 76 L 80 31 L 60 11 L 15 11 z M 60 21 L 70 31 L 60 31 L 60 21 z M 25 41 C 23.177358 41 21.468484 41.498622 20 42.34375 C 19.915877 42.392032 19.83259 42.449394 19.75 42.5 C 19.556762 42.619046 19.37165 42.743451 19.1875 42.875 C 19.096107 42.939606 18.995372 42.994975 18.90625 43.0625 C 18.658774 43.252217 18.447071 43.475862 18.21875 43.6875 C 18.158129 43.743026 18.090493 43.786778 18.03125 43.84375 C 17.999322 43.874836 17.969009 43.905991 17.9375 43.9375 C 17.722252 44.149989 17.507939 44.36275 17.3125 44.59375 C 17.260529 44.656207 17.206709 44.717511 17.15625 44.78125 C 16.799961 45.223468 16.496566 45.719582 16.21875 46.21875 C 16.058618 46.50647 15.91279 46.789475 15.78125 47.09375 C 15.387335 48.004945 15.104483 48.971316 15 50 L 15 51 L 15 66 L 15 67 C 15.13864 68.364979 15.587163 69.63421 16.21875 70.78125 C 16.46461 71.227761 16.722446 71.660728 17.03125 72.0625 C 17.099903 72.151822 17.178435 72.225588 17.25 72.3125 C 17.273841 72.34182 17.288334 72.377208 17.3125 72.40625 C 17.506561 72.636562 17.723721 72.85056 17.9375 73.0625 C 18.151279 73.27444 18.361638 73.495313 18.59375 73.6875 C 18.605177 73.697009 18.613529 73.709291 18.625 73.71875 C 18.729958 73.804873 18.82904 73.886854 18.9375 73.96875 C 19.086578 74.082007 19.250734 74.176358 19.40625 74.28125 C 19.671787 74.459681 19.936002 74.628263 20.21875 74.78125 C 20.4847 74.925148 20.751485 75.067518 21.03125 75.1875 C 21.123528 75.227164 21.218795 75.275553 21.3125 75.3125 C 21.413778 75.352311 21.522142 75.369654 21.625 75.40625 C 21.759031 75.454183 21.894607 75.520177 22.03125 75.5625 C 22.082146 75.578136 22.136262 75.578902 22.1875 75.59375 C 22.490296 75.68217 22.779614 75.752559 23.09375 75.8125 C 23.217195 75.836055 23.343711 75.856 23.46875 75.875 C 23.968045 75.951033 24.479323 76 25 76 L 40 76 C 40.390732 76 40.777295 75.949662 41.15625 75.90625 C 41.228553 75.898018 41.303183 75.916004 41.375 75.90625 C 41.417912 75.900402 41.457264 75.881389 41.5 75.875 C 41.909806 75.814021 42.295788 75.733801 42.6875 75.625 C 43.014209 75.534254 43.344107 75.434535 43.65625 75.3125 C 43.737337 75.280798 43.826223 75.252486 43.90625 75.21875 C 43.915342 75.214919 43.928422 75.222607 43.9375 75.21875 C 44.227827 75.0954 44.505915 74.930451 44.78125 74.78125 C 45.063685 74.628012 45.328528 74.45991 45.59375 74.28125 C 45.842623 74.113603 46.08017 73.938605 46.3125 73.75 C 46.397427 73.681056 46.479906 73.602868 46.5625 73.53125 C 46.736362 73.379892 46.899581 73.225419 47.0625 73.0625 C 47.204506 72.921687 47.335327 72.773988 47.46875 72.625 C 47.587399 72.49251 47.700939 72.357396 47.8125 72.21875 C 47.974005 72.015504 48.135724 71.809511 48.28125 71.59375 C 48.417455 71.394451 48.565665 71.209169 48.6875 71 L 48.65625 71 C 49.501378 69.531516 50 67.822642 50 66 L 50 51 C 50 45.460002 45.539998 41 40 41 L 25 41 z M 27.15625 46 L 37.84375 46 C 41.800893 46 45 49.199107 45 53.15625 L 45 63.84375 C 45 67.800893 41.800893 71 37.84375 71 L 27.15625 71 C 23.199107 71 20 67.800893 20 63.84375 L 20 53.15625 C 20 49.199107 23.199107 46 27.15625 46 z M 27.75 49.375 C 27.46147 49.365835 27.170005 49.459037 26.90625 49.625 C 26.202904 50.067567 25.994933 50.984154 26.4375 51.6875 L 29.53125 56.625 C 29.191573 57.164389 29 57.815484 29 58.5 C 29 60.432997 30.567003 62 32.5 62 C 33.899431 62 35.096207 61.186903 35.65625 60 L 41.5 60 C 42.331 60 43 59.331 43 58.5 C 43 57.669 42.331 57 41.5 57 L 35.65625 57 C 35.096207 55.813097 33.899431 55 32.5 55 C 32.373974 55 32.247581 55.018261 32.125 55.03125 L 28.96875 50.09375 C 28.692146 49.654159 28.230883 49.390275 27.75 49.375 z "
       transform="translate(0,956.36218)"
       id="rect3008" />
    <path
       style="fill:#000000;fill-opacity:0.81735158;fill-rule:evenodd;stroke:none"
       d="M 15 11 L 15 13 L 60 13 L 80 33 L 80 31 L 60 11 L 15 11 z M 60 31 L 60 33 L 70 33 L 68 31 L 60 31 z M 25 41 C 23.177358 41 21.468484 41.49865 20 42.34375 C 19.91588 42.39175 19.83259 42.4494 19.75 42.5 C 19.556762 42.619 19.37165 42.7434 19.1875 42.875 C 19.09611 42.94 18.995372 42.995 18.90625 43.0625 C 18.658774 43.2522 18.447071 43.4758 18.21875 43.6875 C 18.15813 43.7425 18.090493 43.78655 18.03125 43.84375 C 17.99932 43.87475 17.96901 43.9055 17.9375 43.9375 C 17.722252 44.15 17.507939 44.36275 17.3125 44.59375 C 17.26053 44.65575 17.206709 44.71755 17.15625 44.78125 C 16.799961 45.22345 16.496566 45.71965 16.21875 46.21875 C 16.058618 46.50655 15.91279 46.78955 15.78125 47.09375 C 15.387335 48.00495 15.104483 48.9713 15 50 L 15 51 L 15 52 C 15.104483 50.9713 15.387335 50.00495 15.78125 49.09375 C 15.91279 48.78955 16.058618 48.50655 16.21875 48.21875 C 16.496566 47.71965 16.799961 47.22345 17.15625 46.78125 C 17.206709 46.71755 17.26053 46.65575 17.3125 46.59375 C 17.507939 46.36275 17.722252 46.15 17.9375 45.9375 C 17.96901 45.9055 17.99932 45.87475 18.03125 45.84375 C 18.090493 45.78655 18.15813 45.7425 18.21875 45.6875 C 18.447071 45.4758 18.658774 45.2522 18.90625 45.0625 C 18.995372 44.995 19.09611 44.94 19.1875 44.875 C 19.37165 44.7434 19.556762 44.619 19.75 44.5 C 19.83259 44.4494 19.91588 44.39175 20 44.34375 C 21.468484 43.49865 23.177358 43 25 43 L 40 43 C 45.539998 43 50 47.46 50 53 L 50 51 C 50 45.46 45.539998 41 40 41 L 25 41 z M 27.75 49.375 C 27.46147 49.365 27.170005 49.459 26.90625 49.625 C 26.202904 50.0675 25.994933 50.9841 26.4375 51.6875 L 26.5625 51.90625 C 26.656871 51.798196 26.777993 51.705691 26.90625 51.625 C 27.170005 51.459 27.46147 51.365 27.75 51.375 C 28.230883 51.3903 28.692146 51.65415 28.96875 52.09375 L 32.125 57.03125 C 32.247581 57.01825 32.373974 57 32.5 57 C 33.899431 57 35.096207 57.8131 35.65625 59 L 41.5 59 C 41.947274 59 42.350642 59.191439 42.625 59.5 C 42.860378 59.235278 43 58.883726 43 58.5 C 43 57.669 42.331 57 41.5 57 L 35.65625 57 C 35.096207 55.8131 33.899431 55 32.5 55 C 32.373974 55 32.247581 55.01825 32.125 55.03125 L 28.96875 50.09375 C 28.692146 49.65415 28.230883 49.3903 27.75 49.375 z M 29.0625 57.875 C 29.026249 58.080432 29 58.285609 29 58.5 C 29 58.834823 29.068461 59.162131 29.15625 59.46875 C 29.246201 59.168112 29.368732 58.883075 29.53125 58.625 L 29.0625 57.875 z M 20 63.84375 L 20 65.84375 C 20 69.80095 23.199107 73 27.15625 73 L 37.84375 73 C 41.800893 73 45 69.80095 45 65.84375 L 45 63.84375 C 45 67.80095 41.800893 71 37.84375 71 L 27.15625 71 C 23.199107 71 20 67.80095 20 63.84375 z M 56.90625 71 C 56.650157 72.8018 56.059385 74.49 55.1875 76 L 56.125 76 C 56.485418 75.048271 56.75846 74.039812 56.90625 73 L 75 73 L 75 71 L 56.90625 71 z "
       transform="translate(0,956.36218)"
       id="path3802" />
  </g>
</svg>
