<?xml version="1.0" encoding="UTF-8" standalone="no"?>
<!-- Created with Inkscape (http://www.inkscape.org/) -->

<svg
   xmlns:dc="http://purl.org/dc/elements/1.1/"
   xmlns:cc="http://creativecommons.org/ns#"
   xmlns:rdf="http://www.w3.org/1999/02/22-rdf-syntax-ns#"
   xmlns:svg="http://www.w3.org/2000/svg"
   xmlns="http://www.w3.org/2000/svg"
   xmlns:xlink="http://www.w3.org/1999/xlink"
   xmlns:sodipodi="http://sodipodi.sourceforge.net/DTD/sodipodi-0.dtd"
   xmlns:inkscape="http://www.inkscape.org/namespaces/inkscape"
   width="96"
   height="96"
   id="svg2"
   version="1.1"
   inkscape:version="0.48.4 r9939"
   sodipodi:docname="plasma.svg">
  <defs
     id="defs4">
    <linearGradient
       id="linearGradient3910">
      <stop
         style="stop-color:#000000;stop-opacity:0;"
         offset="0"
         id="stop3912" />
      <stop
         style="stop-color:#000000;stop-opacity:0.23846154;"
         offset="1"
         id="stop3914" />
    </linearGradient>
    <radialGradient
       inkscape:collect="always"
       xlink:href="#linearGradient3910"
       id="radialGradient3916"
       cx="40"
       cy="45.753967"
       fx="40"
       fy="45.753967"
       r="34.066097"
       gradientTransform="matrix(1,0,0,1.0600483,0,-2.5014167)"
       gradientUnits="userSpaceOnUse" />
  </defs>
  <sodipodi:namedview
     id="base"
     pagecolor="#ffffff"
     bordercolor="#666666"
     borderopacity="1.0"
     inkscape:pageopacity="0.0"
     inkscape:pageshadow="2"
     inkscape:zoom="4.4764711"
     inkscape:cx="34.706496"
     inkscape:cy="54.842688"
     inkscape:document-units="px"
     inkscape:current-layer="layer1"
     showgrid="true"
     inkscape:snap-page="true"
     inkscape:snap-global="true"
     inkscape:snap-center="true"
     inkscape:snap-object-midpoints="false"
     showguides="true"
     inkscape:guide-bbox="true"
     inkscape:snap-bbox="true"
     inkscape:object-paths="true"
     inkscape:object-nodes="true"
     inkscape:window-width="1305"
     inkscape:window-height="744"
     inkscape:window-x="61"
     inkscape:window-y="24"
     inkscape:window-maximized="1"
     inkscape:snap-midpoints="true"
     inkscape:snap-grids="true"
     inkscape:snap-to-guides="false">
    <inkscape:grid
       type="xygrid"
       id="grid3002"
       empspacing="5"
       visible="true"
       enabled="true"
       snapvisiblegridlinesonly="true" />
  </sodipodi:namedview>
  <metadata
     id="metadata7">
    <rdf:RDF>
      <cc:Work
         rdf:about="">
        <dc:format>image/svg+xml</dc:format>
        <dc:type
           rdf:resource="http://purl.org/dc/dcmitype/StillImage" />
        <dc:title />
      </cc:Work>
    </rdf:RDF>
  </metadata>
  <g
     inkscape:label="Layer 1"
     inkscape:groupmode="layer"
     id="layer1"
     transform="translate(0,-956.36218)">
    <rect
       style="fill:#ffffff;fill-opacity:0;fill-rule:nonzero;stroke:none"
       id="rect3775"
       width="96"
       height="96"
       x="0"
       y="956.36218"
       ry="0" />
    <path
       style="fill:#000000;fill-opacity:0.09589041;fill-rule:nonzero;stroke:none"
       d="m 3.353015,956.30662 c -1.884176,0 -3.4111555,1.43156 -3.4111555,3.19799 l 0,83.65949 c 0,1.7665 1.5269795,3.1981 3.4111555,3.1981 l 89.23583,0 c 1.884174,0 3.411155,-1.4316 3.411155,-3.1981 l 0,-83.65949 c 0,-1.76643 -1.526981,-3.19799 -3.411155,-3.19799 z"
       id="rect3772"
       inkscape:connector-curvature="0"
       sodipodi:nodetypes="sssssssss" />
    <path
       style="fill:#000000;fill-opacity:0.18721463;fill-rule:nonzero;stroke:none"
       d="m 1.0459761,1041.8066 0,7.4219 c 0,1.7392 1.461916,3.1337 3.2852054,3.1337 l 86.3836135,0 c 1.823288,0 3.285205,-1.3945 3.285205,-3.1337 l 0,-7.4219 -92.9540239,0 z"
       id="rect3785"
       inkscape:connector-curvature="0" />
    <path
       style="fill:#000000;fill-opacity:0.38356168;fill-rule:nonzero;stroke:none"
       d="m 1.0459761,1041.8066 0,5.3807 c 0,1.762 1.461916,3.1749 3.2852054,3.1749 l 86.3836135,0 c 1.823288,0 3.285205,-1.4129 3.285205,-3.1749 l 0,-5.3807 -92.9540239,0 z"
       id="rect3783"
       inkscape:connector-curvature="0" />
    <rect
       style="fill:#00a3dd;fill-opacity:1;fill-rule:nonzero;stroke:none"
       id="rect2985"
       width="92.954025"
       height="89"
       x="1.045977"
       y="957.36218"
       ry="3.1511393" />
    <path
       style="fill:#000000;fill-opacity:0.38356168;fill-rule:nonzero;stroke:none"
       d="m 1,1042.3622 0.045976,2.7457 c 0.03024,1.8058 1.461916,3.2543 3.2852054,3.2543 l 86.3836136,0 c 1.823288,0 3.285205,-1.4481 3.285205,-3.2543 l -0.04598,-2.7457 z"
       id="rect3781"
       inkscape:connector-curvature="0"
       sodipodi:nodetypes="csssscc" />
    <rect
       style="fill:#ffffff;fill-opacity:0.15686275;fill-rule:nonzero;stroke:none"
       id="rect3770"
       width="92.954033"
       height="2.000005"
       x="1.045976"
       y="1040.3622" />
    <path
       style="fill:url(#radialGradient3916);fill-opacity:1;fill-rule:nonzero;stroke:none"
       d="M 59.3125 5.5625 C 57.724091 5.7266966 56.409843 6.9865559 56.25 8.625 C 56.067323 10.497508 57.455991 12.159585 59.34375 12.34375 C 61.231509 12.527915 62.911073 11.153758 63.09375 9.28125 C 63.276427 7.4087425 61.887759 5.7466654 60 5.5625 C 59.76403 5.5394793 59.539416 5.5390433 59.3125 5.5625 z M 70 6.53125 C 68.112241 6.3470846 66.432677 7.7212425 66.25 9.59375 C 66.067323 11.466258 67.424741 13.128335 69.3125 13.3125 C 71.200259 13.496665 72.879823 12.153758 73.0625 10.28125 C 73.245177 8.4087425 71.887759 6.7154154 70 6.53125 z M 48.21875 7.1875 C 46.440187 7.2202 44.604283 7.31817 42.78125 7.6875 C 26.829609 10.91914 10.557761 23.23553 13.71875 47.375 C 16.879738 71.5146 42.645165 78.6301 54.21875 77.6875 C 65.792336 76.7449 72.851334 71.93875 77.59375 64.78125 C 85.780872 52.42475 76.91835 36.08234 64.9375 37.0625 C 54.967864 38.7487 46.611568 35.42525 45.25 27.375 C 44.398089 22.33808 46.475551 17.35569 50.6875 13.78125 C 51.857252 12.79571 52.319711 11.02542 51.78125 9.59375 C 51.242792 8.16209 49.748043 7.15792 48.21875 7.1875 z M 77.65625 12.25 C 76.067841 12.414197 74.784843 13.674056 74.625 15.3125 C 74.442323 17.185008 75.799741 18.847085 77.6875 19.03125 C 79.575259 19.215415 81.254823 17.872508 81.4375 16 C 81.620177 14.127492 80.262759 12.434165 78.375 12.25 C 78.13903 12.226979 77.883166 12.226543 77.65625 12.25 z "
       transform="translate(0,956.36218)"
       id="path3786" />
    <path
       style="fill:#000000;fill-opacity:0.39726028;fill-rule:nonzero;stroke:none"
       d="M 59.3125 5.5625 C 57.724091 5.7266966 56.409843 6.9865559 56.25 8.625 C 56.20536 9.0825791 56.278871 9.5235484 56.40625 9.9375 C 56.814391 8.6453419 57.955734 7.7027542 59.3125 7.5625 C 59.539416 7.539 59.76403 7.5395 60 7.5625 C 61.437087 7.7027024 62.551936 8.7060043 62.9375 10 C 63.011647 9.7712072 63.069469 9.5301411 63.09375 9.28125 C 63.276427 7.4087425 61.887759 5.7466654 60 5.5625 C 59.76403 5.5394793 59.539416 5.5390433 59.3125 5.5625 z M 69.3125 6.53125 C 67.723872 6.6964967 66.409842 7.9553059 66.25 9.59375 C 66.20538 10.051121 66.250567 10.492458 66.375 10.90625 C 66.844668 9.3913097 68.348211 8.3701013 70 8.53125 C 71.415819 8.6693775 72.544304 9.6626556 72.9375 10.9375 C 72.999883 10.730563 73.04067 10.505015 73.0625 10.28125 C 73.245177 8.4087425 71.887759 6.7154154 70 6.53125 C 69.76403 6.5082293 69.539447 6.5076433 69.3125 6.53125 z M 48.21875 7.1875 C 46.440187 7.2202 44.604283 7.31817 42.78125 7.6875 C 27.967918 10.68853 12.890459 21.5434 13.34375 42.40625 C 13.863622 22.845844 28.447873 12.591296 42.78125 9.6875 C 44.604283 9.31817 46.440187 9.2202 48.21875 9.1875 C 49.748043 9.15792 51.242792 10.16209 51.78125 11.59375 C 51.815386 11.684511 51.848835 11.781803 51.875 11.875 C 52.077357 11.122401 52.053846 10.318533 51.78125 9.59375 C 51.242792 8.16209 49.748043 7.15792 48.21875 7.1875 z M 77.65625 12.25 C 76.067841 12.414197 74.784843 13.674056 74.625 15.3125 C 74.579331 15.780627 74.618935 16.234231 74.75 16.65625 C 75.140928 15.344583 76.286247 14.391623 77.65625 14.25 C 77.883166 14.2265 78.13903 14.227 78.375 14.25 C 79.790819 14.388127 80.919304 15.381406 81.3125 16.65625 C 81.374883 16.449313 81.41567 16.223765 81.4375 16 C 81.620177 14.127492 80.262759 12.434165 78.375 12.25 C 78.13903 12.226979 77.883166 12.226543 77.65625 12.25 z M 45.09375 26.125 C 45.01151 27.197051 45.06549 28.284083 45.25 29.375 C 46.611568 37.42525 54.967864 40.7487 64.9375 39.0625 C 73.400837 38.37011 80.278379 46.321716 80.71875 55.40625 C 81.288563 45.523221 74.019307 36.319512 64.9375 37.0625 C 54.967864 38.7487 46.611568 35.42525 45.25 27.375 C 45.178968 26.955025 45.124512 26.543433 45.09375 26.125 z "
       transform="translate(0,956.36218)"
       id="path3899" />
    <path
       style="fill:#84dfff;fill-opacity:0.84931505;fill-rule:nonzero;stroke:none"
       d="m 63.0625,964.86682 c -0.232763,1.81991 -1.865586,3.14955 -3.71875,2.96875 -1.617356,-0.15778 -2.85218,-1.40714 -3.0625,-2.9375 -0.0042,0.0328 -0.02802,0.0606 -0.03125,0.0937 -0.182677,1.87251 1.205991,3.53458 3.09375,3.71875 1.887759,0.18416 3.567323,-1.18999 3.75,-3.0625 0.02617,-0.26822 0.0039,-0.52539 -0.03125,-0.78125 z m 3.21875,1 c -0.0041,0.0325 -0.02805,0.061 -0.03125,0.0937 -0.182677,1.87251 1.174741,3.53458 3.0625,3.71875 1.887759,0.18416 3.567323,-1.15874 3.75,-3.03125 0.02618,-0.26838 0.0029,-0.52415 -0.03125,-0.78125 -0.232763,1.81881 -1.865586,3.1183 -3.71875,2.9375 -1.617194,-0.15776 -2.827317,-1.40735 -3.03125,-2.9375 z m -14.3125,0.90625 c -0.106836,0.95479 -0.550155,1.88404 -1.28125,2.5 -3.67668,3.12019 -5.729924,7.29062 -5.625,11.65625 0.17766,-4.03722 2.202791,-7.87702 5.625,-10.78125 0.954229,-0.80396 1.427756,-2.13643 1.28125,-3.375 z m 22.6875,4.8125 c -0.0041,0.0328 -0.02802,0.0606 -0.03125,0.0937 -0.182677,1.87251 1.174741,3.53458 3.0625,3.71875 1.887759,0.18416 3.567323,-1.15874 3.75,-3.03125 0.02618,-0.26838 0.0029,-0.52415 -0.03125,-0.78125 -0.232763,1.81881 -1.865586,3.1183 -3.71875,2.9375 -1.617194,-0.15776 -2.827317,-1.40735 -3.03125,-2.9375 z m -61.3125,26.875 c 0.02501,1.69413 0.135541,3.45253 0.375,5.28123 3.160988,24.1396 28.926415,31.2551 40.5,30.3125 11.573586,-0.9426 18.632584,-5.7487 23.375,-12.9062 2.230466,-3.3664 3.174979,-7.0354 3.15625,-10.5625 -0.133252,3.2544 -1.10947,6.5983 -3.15625,9.6875 -4.742416,7.1575 -11.801414,11.9636 -23.375,12.9062 -11.573585,0.9426 -37.339012,-6.1729 -40.5,-30.3125 -0.197562,-1.5087 -0.324435,-2.98921 -0.375,-4.40623 z"
       id="path3904"
       inkscape:connector-curvature="0" />
  </g>
</svg>
