<?xml version="1.0" encoding="UTF-8" standalone="no"?>
<!-- Created with Inkscape (http://www.inkscape.org/) -->

<svg
   xmlns:dc="http://purl.org/dc/elements/1.1/"
   xmlns:cc="http://creativecommons.org/ns#"
   xmlns:rdf="http://www.w3.org/1999/02/22-rdf-syntax-ns#"
   xmlns:svg="http://www.w3.org/2000/svg"
   xmlns="http://www.w3.org/2000/svg"
   xmlns:xlink="http://www.w3.org/1999/xlink"
   xmlns:sodipodi="http://sodipodi.sourceforge.net/DTD/sodipodi-0.dtd"
   xmlns:inkscape="http://www.inkscape.org/namespaces/inkscape"
   width="96"
   height="96"
   id="svg2"
   version="1.1"
   inkscape:version="0.48.4 r9939"
   sodipodi:docname="play-store.svg">
  <defs
     id="defs4">
    <linearGradient
       id="linearGradient3784">
      <stop
         style="stop-color:#00d7ff;stop-opacity:1;"
         offset="0"
         id="stop3786" />
      <stop
         style="stop-color:#60006f;stop-opacity:1;"
         offset="1"
         id="stop3788" />
    </linearGradient>
    <linearGradient
       id="linearGradient3772">
      <stop
         style="stop-color:#ffffff;stop-opacity:0.74485594;"
         offset="0"
         id="stop3774" />
      <stop
         style="stop-color:#ffffff;stop-opacity:0;"
         offset="1"
         id="stop3776" />
    </linearGradient>
    <linearGradient
       inkscape:collect="always"
       id="linearGradient5429">
      <stop
         style="stop-color:#000000;stop-opacity:1;"
         offset="0"
         id="stop5431" />
      <stop
         style="stop-color:#000000;stop-opacity:0;"
         offset="1"
         id="stop5433" />
    </linearGradient>
    <linearGradient
       inkscape:collect="always"
       xlink:href="#linearGradient5429"
       id="linearGradient5435"
       x1="45"
       y1="21"
       x2="45"
       y2="-4"
       gradientUnits="userSpaceOnUse" />
    <linearGradient
       inkscape:collect="always"
       xlink:href="#linearGradient3772"
       id="linearGradient3778"
       x1="15"
       y1="41"
       x2="15"
       y2="111"
       gradientUnits="userSpaceOnUse" />
    <linearGradient
       inkscape:collect="always"
       xlink:href="#linearGradient3784"
       id="linearGradient3790"
       x1="25"
       y1="-987.36218"
       x2="95"
       y2="-1047.3622"
       gradientUnits="userSpaceOnUse" />
    <linearGradient
       y2="252.47929"
       x2="210.5396"
       y1="284.50681"
       x1="226.8584"
       gradientTransform="matrix(0.22328079,0,0,0.22297846,276.38848,532.32026)"
       gradientUnits="userSpaceOnUse"
       id="linearGradient4080-4"
       xlink:href="#SVGID_1_-5"
       inkscape:collect="always" />
    <linearGradient
       id="SVGID_1_-5"
       gradientUnits="userSpaceOnUse"
       x1="226.8584"
       y1="284.50681"
       x2="210.5396"
       y2="252.47929"
       gradientTransform="translate(-124.695,-206.60064)">
      <stop
         offset="0"
         style="stop-color:#FCD08F"
         id="stop12-1" />
      <stop
         offset="1"
         style="stop-color:#F79673"
         id="stop14-8" />
    </linearGradient>
    <linearGradient
       id="SVGID_2_-2"
       gradientUnits="userSpaceOnUse"
       x1="203.1299"
       y1="279.73831"
       x2="140.9948"
       y2="346.37"
       gradientTransform="matrix(0.22328079,0,0,0.22297846,276.38848,532.32026)">
      <stop
         offset="0"
         style="stop-color:#E74047"
         id="stop19-4" />
      <stop
         offset="1"
         style="stop-color:#7F50A0"
         id="stop21-0" />
    </linearGradient>
    <linearGradient
       id="SVGID_3_-9"
       gradientUnits="userSpaceOnUse"
       x1="203.4604"
       y1="261.66989"
       x2="140.33949"
       y2="196.3062"
       gradientTransform="matrix(0.22328079,0,0,0.22297846,276.38848,532.32026)">
      <stop
         offset="0"
         style="stop-color:#E6FFAB"
         id="stop26-0" />
      <stop
         offset="1"
         style="stop-color:#47BEBC"
         id="stop28-2" />
    </linearGradient>
    <linearGradient
       id="SVGID_4_-9"
       gradientUnits="userSpaceOnUse"
       x1="159.23779"
       y1="335.7168"
       x2="159.23779"
       y2="206.7505"
       gradientTransform="matrix(0.22328079,0,0,0.22297846,276.38848,532.32026)">
      <stop
         offset="0"
         style="stop-color:#84E9DB"
         id="stop33-7" />
      <stop
         offset="1"
         style="stop-color:#197491"
         id="stop35-4" />
    </linearGradient>
    <linearGradient
       y2="206.7505"
       x2="159.23779"
       y1="335.7168"
       x1="159.23779"
       gradientTransform="matrix(0.22328079,0,0,0.22297846,276.38848,532.32026)"
       gradientUnits="userSpaceOnUse"
       id="linearGradient3098"
       xlink:href="#SVGID_4_-9"
       inkscape:collect="always" />
  </defs>
  <sodipodi:namedview
     id="base"
     pagecolor="#ffffff"
     bordercolor="#666666"
     borderopacity="1.0"
     inkscape:pageopacity="0.0"
     inkscape:pageshadow="2"
     inkscape:zoom="4.7139443"
     inkscape:cx="37.005125"
     inkscape:cy="57.340295"
     inkscape:document-units="px"
     inkscape:current-layer="layer1"
     showgrid="true"
     inkscape:snap-page="true"
     inkscape:snap-global="true"
     inkscape:snap-center="true"
     inkscape:snap-object-midpoints="false"
     showguides="true"
     inkscape:guide-bbox="true"
     inkscape:snap-bbox="true"
     inkscape:object-paths="true"
     inkscape:object-nodes="true"
     inkscape:window-width="1305"
     inkscape:window-height="744"
     inkscape:window-x="61"
     inkscape:window-y="24"
     inkscape:window-maximized="1"
     inkscape:snap-midpoints="false"
     inkscape:snap-grids="true"
     inkscape:snap-to-guides="false">
    <inkscape:grid
       type="xygrid"
       id="grid3002"
       empspacing="5"
       visible="true"
       enabled="true"
       snapvisiblegridlinesonly="true" />
  </sodipodi:namedview>
  <metadata
     id="metadata7">
    <rdf:RDF>
      <cc:Work
         rdf:about="">
        <dc:format>image/svg+xml</dc:format>
        <dc:type
           rdf:resource="http://purl.org/dc/dcmitype/StillImage" />
        <dc:title />
      </cc:Work>
    </rdf:RDF>
  </metadata>
  <g
     inkscape:label="Layer 1"
     inkscape:groupmode="layer"
     id="layer1"
     transform="translate(0,-956.36218)">
    <path
       style="fill:#000000;fill-opacity:0.38356168;fill-rule:nonzero;stroke:none"
       d="m 1.0459761,1041.8066 0,5.3807 c 0,1.762 1.461916,3.1749 3.2852054,3.1749 l 86.3836135,0 c 1.823288,0 3.285205,-1.4129 3.285205,-3.1749 l 0,-5.3807 -92.9540239,0 z"
       id="rect3783"
       inkscape:connector-curvature="0" />
    <rect
       style="fill:#ffffff;fill-opacity:0;fill-rule:nonzero;stroke:none"
       id="rect3775"
       width="96"
       height="96"
       x="0"
       y="956.36218"
       ry="0" />
    <path
       style="fill:#000000;fill-opacity:0.09589041;fill-rule:nonzero;stroke:none"
       d="m 3.353015,956.30662 c -1.884176,0 -3.4111555,1.43156 -3.4111555,3.19799 l 0,83.65949 c 0,1.7665 1.5269795,3.1981 3.4111555,3.1981 l 89.23583,0 c 1.884174,0 3.411155,-1.4316 3.411155,-3.1981 l 0,-83.65949 c 0,-1.76643 -1.526981,-3.19799 -3.411155,-3.19799 z"
       id="rect3772"
       inkscape:connector-curvature="0"
       sodipodi:nodetypes="sssssssss" />
    <path
       style="fill:#000000;fill-opacity:0.18721463;fill-rule:nonzero;stroke:none"
       d="m 1.0459761,1041.8066 0,7.4219 c 0,1.7392 1.461916,3.1337 3.2852054,3.1337 l 86.3836135,0 c 1.823288,0 3.285205,-1.3945 3.285205,-3.1337 l 0,-7.4219 -92.9540239,0 z"
       id="rect3785"
       inkscape:connector-curvature="0" />
    <rect
       style="fill:url(#linearGradient3790);fill-opacity:1;fill-rule:nonzero;stroke:none"
       id="rect2985"
       width="92.954025"
       height="89"
       x="1.0459766"
       y="-1046.3622"
       ry="3.1511393"
       transform="scale(1,-1)" />
    <path
       style="fill:url(#linearGradient5435);fill-opacity:1;fill-rule:nonzero;stroke:none"
       d="M 94 4.15625 C 94 3.2833844 93.663318 2.4758184 93.09375 1.90625 C 92.524182 1.3366816 91.716616 1 90.84375 1 L 4.1875 1 C 3.3146344 1 2.5383184 1.3366816 1.96875 1.90625 C 1.3991816 2.4758184 1.03125 3.2833844 1.03125 4.15625 L 1.03125 7.90625 C 1.03125 9.6519811 2.4417689 11.03125 4.1875 11.03125 L 90.84375 11.03125 C 92.589481 11.03125 94 9.6519811 94 7.90625 L 94 4.15625 z "
       id="path5312"
       transform="translate(0,956.36218)" />
    <path
       style="fill:url(#linearGradient3778);fill-opacity:1;fill-rule:evenodd;stroke:none;opacity:0.48559671"
       d="M 1.03125 46 L 1.03125 86.84375 C 1.03125 87.716616 1.3991816 88.524182 1.96875 89.09375 C 2.5383184 89.663318 3.3146344 90 4.1875 90 L 90.84375 90 C 91.716616 90 92.524182 89.663318 93.09375 89.09375 C 93.663318 88.524182 94 87.716616 94 86.84375 L 94 46 L 1.03125 46 z "
       id="rect5319"
       transform="translate(0,956.36218)" />
    <path
       style="font-size:medium;font-style:normal;font-variant:normal;font-weight:normal;font-stretch:normal;text-indent:0;text-align:start;text-decoration:none;line-height:normal;letter-spacing:normal;word-spacing:normal;text-transform:none;direction:ltr;block-progression:tb;writing-mode:lr-tb;text-anchor:start;baseline-shift:baseline;color:#000000;fill:#000000;fill-opacity:0.26027396;stroke:none;stroke-width:4.50000000000000000;marker:none;visibility:visible;display:inline;overflow:visible;enable-background:accumulate;font-family:Sans;-inkscape-font-specification:Sans"
       d="M 29.71875,975.09375 A 2.250225,2.250225 0 0 0 27.9375,978.25 c 4.413607,10.16155 3.902887,19.04016 5.09375,25.5312 0.595431,3.2456 1.88892,6.354 4.9375,7.75 3.04858,1.3961 6.901685,1.034 12.5625,-0.5624 6.482894,-1.8283 10.662927,-4.0095 13.3125,-6.75 2.649573,-2.7406 3.526056,-6.05763 3.5625,-9.12505 0.07289,-6.13483 -2.212762,-11.71321 -0.28125,-16.96875 a 2.2587179,2.2587179 0 1 0 -4.25,-1.53125 c -2.627958,7.15054 0.08724,13.75651 0.03125,18.46875 -0.02799,2.35612 -0.497154,4.15359 -2.3125,6.0313 -1.815346,1.8776 -5.226658,3.8237 -11.28125,5.5312 -5.258884,1.4831 -8.180428,1.4025 -9.46875,0.8125 -1.288322,-0.59 -1.876287,-1.7504 -2.375,-4.4687 -0.997427,-5.43677 -0.562355,-15.34783 -5.40625,-26.50005 a 2.250225,2.250225 0 0 0 -2.34375,-1.375 z"
       id="path5414"
       inkscape:connector-curvature="0" />
    <path
       style="fill:#ffffff;fill-opacity:0.54794521;fill-rule:nonzero;stroke:none"
       d="m 1,964.36218 0,2 c 0,1.74573 1.4105189,3.125 3.15625,3.125 l 86.6875,0 c 1.745731,0 3.15625,-1.37927 3.15625,-3.125 l 0,-2 c 0,1.74573 -1.410519,3.125 -3.15625,3.125 l -86.6875,0 C 2.4105189,967.48718 1,966.10791 1,964.36218 z"
       id="path5314"
       inkscape:connector-curvature="0"
       sodipodi:nodetypes="csssscssc" />
    <path
       style="fill:#000000;fill-opacity:0.61643833;fill-rule:nonzero;stroke:none"
       d="M 91 1 L 91 11 C 92.669109 10.916667 94 9.5968869 94 7.90625 L 94 4.15625 C 94 3.2833844 93.663318 2.4758184 93.09375 1.90625 C 92.559428 1.3719272 91.81065 1.0387172 91 1 z M 4 1.03125 C 3.2070896 1.0777008 2.4953188 1.3796812 1.96875 1.90625 C 1.3991816 2.4758184 1.03125 3.2833844 1.03125 4.15625 L 1.03125 7.90625 C 1.03125 9.5860841 2.3459919 10.901191 4 11 L 4 1.03125 z "
       transform="translate(0,956.36218)"
       id="path5331" />
    <path
       style="fill:#fff0b6;fill-opacity:0.68949771;fill-rule:evenodd;stroke:none"
       d="M 30 16 C 27.238576 16 25 18.238576 25 21 C 25 23.761424 27.238576 26 30 26 C 32.761424 26 35 23.761424 35 21 C 35 18.238576 32.761424 16 30 16 z M 65 16 C 62.238576 16 60 18.238576 60 21 C 60 23.761424 62.238576 26 65 26 C 67.761424 26 70 23.761424 70 21 C 70 18.238576 67.761424 16 65 16 z "
       transform="translate(0,956.36218)"
       id="path5334" />
    <path
       style="fill:#000000;fill-opacity:1;fill-rule:evenodd;stroke:none"
       d="M 30 18 C 28.343146 18 27 19.343146 27 21 C 27 22.656854 28.343146 24 30 24 C 31.656854 24 33 22.656854 33 21 C 33 19.343146 31.656854 18 30 18 z M 65 18 C 63.343146 18 62 19.343146 62 21 C 62 22.656854 63.343146 24 65 24 C 66.656854 24 68 22.656854 68 21 C 68 19.343146 66.656854 18 65 18 z "
       transform="translate(0,956.36218)"
       id="path5338" />
    <path
       style="fill:none;stroke:#000000;stroke-width:6;stroke-linecap:round;stroke-linejoin:miter;stroke-miterlimit:4;stroke-opacity:1;stroke-dasharray:none"
       d="m 30,977.36218 c 9.257502,13.12345 -1.914369,23.14642 19.925028,19.35411 C 75,992.36218 60.44053,985.00093 65,977.36218"
       id="path5344"
       inkscape:connector-curvature="0"
       sodipodi:nodetypes="csc" />
    <path
       style="fill:#000000;fill-opacity:0.38356168;fill-rule:nonzero;stroke:none"
       d="m 1,1042.3622 0.04598,2.7457 c 0.03024,1.8058 1.461916,3.2543 3.285205,3.2543 l 86.383615,0 c 1.82328,0 3.2852,-1.4481 3.2852,-3.2543 l -0.046,-2.7457 z"
       id="rect3781"
       inkscape:connector-curvature="0"
       sodipodi:nodetypes="csssscc" />
    <rect
       style="fill:#ffffff;fill-opacity:0.30000001;fill-rule:nonzero;stroke:none"
       id="rect3770"
       width="92.954033"
       height="2.000005"
       x="1.045976"
       y="1040.3622" />
    <g
       id="g4125"
       transform="matrix(0.97060218,0,0,1.0289696,-231.33329,412.18451)">
      <path
         style="fill:url(#linearGradient4080-4)"
         inkscape:connector-curvature="0"
         id="path16-94"
         d="m 324.14222,597.2344 c 3.41329,-1.86566 6.0201,-3.29071 6.25723,-3.42049 0.70735,-0.38664 1.44841,-1.37331 0,-2.16199 -0.46556,-0.25397 -3.00224,-1.63533 -6.26125,-3.4109 l -4.48236,4.51062 4.48638,4.48276 z" />
      <path
         style="fill:url(#SVGID_2_-2)"
         inkscape:connector-curvature="0"
         id="path23-57"
         d="m 319.65562,592.75164 -14.33641,14.42627 c 0.32375,0.041 0.71315,-0.0446 1.16106,-0.28944 0.92727,-0.50681 10.88559,-5.9504 17.66195,-9.65451 l -4.4866,-4.48232 z" />
      <path
         style="fill:url(#SVGID_3_-9)"
         inkscape:connector-curvature="0"
         id="path30-8"
         d="m 319.65562,592.75164 4.48236,-4.51062 c 0,0 -16.66033,-9.07724 -17.65771,-9.62063 -0.38339,-0.20894 -0.80137,-0.28184 -1.17133,-0.19957 l 14.34668,14.33082 z" />
      <path
         style="fill:url(#linearGradient3098)"
         inkscape:connector-curvature="0"
         id="path37-4"
         d="m 319.65562,592.75164 -14.34692,-14.3306 c -0.59259,0.13201 -1.07821,0.64419 -1.07821,1.67369 0,1.67233 0,23.95969 0,25.3638 0,0.9695 0.38203,1.65137 1.08848,1.71938 l 14.33665,-14.42627 z" />
    </g>
    <path
       style="font-size:11px;font-style:normal;font-variant:normal;font-weight:normal;font-stretch:normal;text-align:end;line-height:125%;letter-spacing:0px;word-spacing:0px;text-anchor:end;fill:#ffffff;fill-opacity:1;stroke:none;font-family:Andale Mono;-inkscape-font-specification:Andale Mono"
       d="M 11.71875 50.09375 L 11.71875 57.96875 L 13.4375 57.96875 L 13.4375 55.15625 L 15.25 55.15625 C 15.741329 55.156253 16.155328 55.076836 16.5 54.9375 C 16.844661 54.790837 17.131077 54.60967 17.34375 54.375 C 17.563743 54.140337 17.71716 53.863171 17.8125 53.5625 C 17.91516 53.261838 17.968743 52.947672 17.96875 52.625 C 17.968743 52.309672 17.91516 51.988173 17.8125 51.6875 C 17.71716 51.379507 17.563743 51.109674 17.34375 50.875 C 17.131077 50.640341 16.844661 50.451841 16.5 50.3125 C 16.155328 50.165841 15.741329 50.093758 15.25 50.09375 L 11.71875 50.09375 z M 18.9375 50.09375 L 18.9375 57.96875 L 20.5 57.96875 L 20.5 50.09375 L 18.9375 50.09375 z M 13.4375 51.4375 L 14.78125 51.4375 C 14.979246 51.437507 15.160412 51.470673 15.34375 51.5 C 15.527079 51.52934 15.704412 51.568256 15.84375 51.65625 C 15.983078 51.736923 16.075578 51.877256 16.15625 52.03125 C 16.244245 52.185256 16.312495 52.375672 16.3125 52.625 C 16.312495 52.874338 16.244245 53.064755 16.15625 53.21875 C 16.075578 53.372755 15.983078 53.505754 15.84375 53.59375 C 15.704412 53.674421 15.527079 53.720671 15.34375 53.75 C 15.160412 53.779338 14.979246 53.812504 14.78125 53.8125 L 13.4375 53.8125 L 13.4375 51.4375 z M 24.34375 52.125 C 24.02108 52.125006 23.714247 52.152756 23.40625 52.21875 C 23.098248 52.277422 22.811832 52.384589 22.5625 52.53125 C 22.313165 52.677922 22.098832 52.851755 21.9375 53.09375 C 21.776166 53.335755 21.678249 53.664588 21.65625 54.03125 L 23.21875 54.03125 C 23.248081 53.723254 23.355248 53.507004 23.53125 53.375 C 23.714581 53.243005 23.949331 53.156255 24.25 53.15625 C 24.38933 53.156255 24.538913 53.165505 24.65625 53.1875 C 24.780913 53.202171 24.880746 53.253838 24.96875 53.3125 C 25.064079 53.363838 25.136163 53.428588 25.1875 53.53125 C 25.246163 53.626588 25.281246 53.768838 25.28125 53.9375 C 25.281246 54.098837 25.227663 54.224504 25.125 54.3125 C 25.022329 54.39317 24.894746 54.456004 24.71875 54.5 C 24.55008 54.544003 24.344997 54.571753 24.125 54.59375 C 23.904997 54.615753 23.679497 54.650837 23.4375 54.6875 C 23.195498 54.72417 22.953415 54.777753 22.71875 54.84375 C 22.491415 54.90242 22.277082 55.000336 22.09375 55.125 C 21.910416 55.249669 21.766249 55.412336 21.65625 55.625 C 21.54625 55.830335 21.5 56.083585 21.5 56.40625 C 21.5 56.699585 21.529666 56.943584 21.625 57.15625 C 21.727666 57.368917 21.886499 57.548167 22.0625 57.6875 C 22.238499 57.826833 22.421582 57.934 22.65625 58 C 22.890915 58.073333 23.166165 58.125 23.4375 58.125 C 23.789497 58.125 24.131414 58.071417 24.46875 57.96875 C 24.80608 57.85875 25.094413 57.662917 25.34375 57.40625 C 25.351079 57.501584 25.360329 57.592167 25.375 57.6875 C 25.396996 57.7755 25.408162 57.88075 25.4375 57.96875 L 27.03125 57.96875 C 26.957911 57.851417 26.904328 57.672167 26.875 57.4375 C 26.845661 57.202834 26.843744 56.944168 26.84375 56.6875 L 26.84375 53.75 C 26.843744 53.412671 26.747744 53.118922 26.59375 52.90625 C 26.439745 52.693589 26.241995 52.523589 26 52.40625 C 25.757995 52.288922 25.512079 52.224172 25.21875 52.1875 C 24.925413 52.143506 24.629747 52.125006 24.34375 52.125 z M 27.375 52.28125 L 29.40625 57.59375 C 29.450248 57.70375 29.468748 57.844083 29.46875 57.96875 C 29.468748 58.086083 29.450248 58.178583 29.40625 58.28125 C 29.362248 58.383916 29.282832 58.465249 29.1875 58.53125 C 29.099498 58.604583 28.975748 58.672833 28.84375 58.6875 C 28.689749 58.694833 28.560249 58.670916 28.40625 58.65625 C 28.252249 58.641583 28.084166 58.639666 27.9375 58.625 L 27.9375 59.90625 C 28.098833 59.920915 28.252249 59.930165 28.40625 59.9375 C 28.567582 59.952165 28.744915 59.968748 28.90625 59.96875 C 29.441581 59.968748 29.855581 59.861581 30.15625 59.65625 C 30.456914 59.458249 30.67508 59.142165 30.84375 58.6875 L 33.21875 52.28125 L 31.625 52.28125 L 30.375 56.15625 L 30.34375 56.15625 L 29.0625 52.28125 L 27.375 52.28125 z M 25.28125 55.1875 L 25.28125 55.75 C 25.281246 55.838002 25.271996 55.978335 25.25 56.125 C 25.235329 56.271668 25.174413 56.415835 25.09375 56.5625 C 25.013079 56.701835 24.887413 56.803584 24.71875 56.90625 C 24.55008 57.008918 24.307997 57.062501 24 57.0625 C 23.875331 57.062501 23.773581 57.053251 23.65625 57.03125 C 23.538914 57.009251 23.431748 56.988834 23.34375 56.9375 C 23.255748 56.878834 23.176331 56.806751 23.125 56.71875 C 23.073665 56.623418 23.062498 56.490418 23.0625 56.34375 C 23.062498 56.204418 23.073665 56.095335 23.125 56 C 23.176331 55.897335 23.263081 55.808669 23.34375 55.75 C 23.431748 55.684002 23.514998 55.630419 23.625 55.59375 C 23.734997 55.557086 23.844081 55.522002 23.96875 55.5 C 24.08608 55.478002 24.21908 55.452169 24.34375 55.4375 C 24.475747 55.422836 24.608747 55.428253 24.71875 55.40625 C 24.83608 55.384253 24.935913 55.341836 25.03125 55.3125 C 25.133913 55.275836 25.215246 55.246169 25.28125 55.1875 z M 14.40625 63.65625 C 14.054247 63.656258 13.726997 63.717175 13.375 63.8125 C 13.022998 63.907841 12.684915 64.052008 12.40625 64.25 C 12.127582 64.448007 11.925999 64.69934 11.75 65 C 11.581333 65.29334 11.468749 65.627923 11.46875 66.03125 C 11.468749 66.397922 11.555499 66.719422 11.6875 66.96875 C 11.826832 67.218088 11.998749 67.425088 12.21875 67.59375 C 12.438749 67.762421 12.690082 67.890004 12.96875 68 C 13.247414 68.10267 13.519164 68.20792 13.8125 68.28125 C 14.098497 68.36192 14.40883 68.434003 14.6875 68.5 C 14.966163 68.55867 15.217496 68.62342 15.4375 68.71875 C 15.657495 68.806753 15.805495 68.930503 15.9375 69.0625 C 16.076828 69.194503 16.156245 69.349836 16.15625 69.5625 C 16.156245 69.760502 16.102662 69.930502 16 70.0625 C 15.897328 70.187168 15.778995 70.301668 15.625 70.375 C 15.470995 70.448335 15.300996 70.501918 15.125 70.53125 C 14.948996 70.553251 14.778996 70.562501 14.625 70.5625 C 14.39033 70.562501 14.181413 70.520085 13.96875 70.46875 C 13.763414 70.410085 13.567581 70.328751 13.40625 70.21875 C 13.252248 70.101418 13.126581 69.964585 13.03125 69.78125 C 12.935915 69.597919 12.906248 69.357752 12.90625 69.09375 L 11.21875 69.09375 C 11.211416 69.577752 11.285416 69.991752 11.46875 70.34375 C 11.659416 70.695751 11.910749 70.991417 12.21875 71.21875 C 12.526748 71.446084 12.909165 71.60875 13.3125 71.71875 C 13.723164 71.82875 14.12983 71.90625 14.5625 71.90625 C 15.097829 71.90625 15.565412 71.843417 15.96875 71.71875 C 16.379411 71.58675 16.728661 71.4075 17 71.1875 C 17.27866 70.960167 17.48566 70.683001 17.625 70.375 C 17.764327 70.067002 17.843743 69.734335 17.84375 69.375 C 17.843743 69.081669 17.775493 68.813753 17.6875 68.59375 C 17.599493 68.36642 17.49041 68.192587 17.34375 68.03125 C 17.20441 67.869921 17.050994 67.735004 16.875 67.625 C 16.706328 67.515004 16.519744 67.409754 16.34375 67.34375 C 16.175078 67.270421 16.028995 67.224171 15.875 67.1875 C 15.720995 67.143505 15.595329 67.115755 15.5 67.09375 C 15.008663 66.969088 14.620496 66.861922 14.3125 66.78125 C 14.01183 66.693255 13.769747 66.604588 13.59375 66.53125 C 13.425081 66.450589 13.308664 66.376589 13.25 66.28125 C 13.191331 66.185922 13.156248 66.060256 13.15625 65.90625 C 13.156248 65.744923 13.207914 65.610006 13.28125 65.5 C 13.354581 65.382673 13.421248 65.29209 13.53125 65.21875 C 13.648581 65.145423 13.798164 65.09184 13.9375 65.0625 C 14.07683 65.033173 14.204413 65.000007 14.34375 65 C 14.54908 65.000007 14.754163 65.02584 14.9375 65.0625 C 15.120829 65.099173 15.266912 65.162007 15.40625 65.25 C 15.545579 65.338006 15.669329 65.471006 15.75 65.625 C 15.837995 65.779006 15.891578 65.952839 15.90625 66.1875 L 17.5625 66.1875 C 17.562493 65.732839 17.488493 65.34659 17.3125 65.03125 C 17.143827 64.70859 16.918327 64.455341 16.625 64.25 C 16.331661 64.044674 15.975078 63.900508 15.59375 63.8125 C 15.219746 63.717175 14.816913 63.656258 14.40625 63.65625 z M 19.09375 64.3125 L 19.09375 66.03125 L 18.15625 66.03125 L 18.15625 67.0625 L 19.09375 67.0625 L 19.09375 70.40625 C 19.093749 70.692251 19.154666 70.949001 19.25 71.125 C 19.345332 71.301 19.463665 71.428584 19.625 71.53125 C 19.793665 71.626583 19.974831 71.689417 20.1875 71.71875 C 20.407498 71.755417 20.664247 71.78125 20.90625 71.78125 C 21.060247 71.78125 21.213664 71.757333 21.375 71.75 C 21.53633 71.742667 21.680496 71.74075 21.8125 71.71875 L 21.8125 70.5 C 21.66583 70.529335 21.488497 70.531251 21.3125 70.53125 C 21.048497 70.531251 20.869247 70.494251 20.78125 70.40625 C 20.693247 70.318251 20.656247 70.139002 20.65625 69.875 L 20.65625 67.0625 L 21.8125 67.0625 L 21.8125 66.03125 L 20.65625 66.03125 L 20.65625 64.3125 L 19.09375 64.3125 z M 25.3125 65.875 C 24.865164 65.875006 24.453081 65.947089 24.09375 66.09375 C 23.734415 66.233089 23.444165 66.423505 23.1875 66.6875 C 22.930832 66.944171 22.733083 67.251004 22.59375 67.625 C 22.454416 67.99167 22.375 68.420337 22.375 68.875 C 22.375 69.329669 22.454416 69.727085 22.59375 70.09375 C 22.733083 70.460418 22.930832 70.798501 23.1875 71.0625 C 23.444165 71.319167 23.734415 71.509584 24.09375 71.65625 C 24.453081 71.795583 24.865164 71.875 25.3125 71.875 C 25.75983 71.875 26.171912 71.795583 26.53125 71.65625 C 26.897912 71.509584 27.212078 71.319167 27.46875 71.0625 C 27.725411 70.798501 27.923161 70.460418 28.0625 70.09375 C 28.201827 69.727085 28.249994 69.329669 28.25 68.875 C 28.249994 68.420337 28.201827 67.99167 28.0625 67.625 C 27.923161 67.251004 27.725411 66.944171 27.46875 66.6875 C 27.212078 66.423505 26.897912 66.233089 26.53125 66.09375 C 26.171912 65.947089 25.75983 65.875006 25.3125 65.875 z M 32.59375 65.875 C 32.40308 65.875006 32.221913 65.910089 32.03125 65.96875 C 31.847914 66.027422 31.66133 66.108756 31.5 66.21875 C 31.338664 66.321422 31.218414 66.439755 31.09375 66.59375 C 30.969081 66.740422 30.854581 66.886505 30.78125 67.0625 L 30.75 67.0625 L 30.75 66.03125 L 29.28125 66.03125 L 29.28125 71.71875 L 30.84375 71.71875 L 30.84375 69.15625 C 30.843748 68.906919 30.854914 68.657503 30.90625 68.4375 C 30.957581 68.21017 31.038914 68.005087 31.15625 67.84375 C 31.280914 67.675087 31.458247 67.564087 31.65625 67.46875 C 31.854247 67.373421 32.088997 67.312504 32.375 67.3125 C 32.47033 67.312504 32.584829 67.329088 32.6875 67.34375 C 32.790163 67.351088 32.864162 67.360338 32.9375 67.375 L 32.9375 65.9375 C 32.827496 65.900839 32.711079 65.875006 32.59375 65.875 z M 36 65.875 C 35.567331 65.875006 35.171831 65.939756 34.8125 66.09375 C 34.460498 66.247755 34.131665 66.478672 33.875 66.75 C 33.618332 67.014005 33.420583 67.320838 33.28125 67.6875 C 33.141916 68.05417 33.09375 68.44967 33.09375 68.875 C 33.09375 69.315002 33.14925 69.727085 33.28125 70.09375 C 33.420583 70.460418 33.625666 70.767251 33.875 71.03125 C 34.124332 71.29525 34.421915 71.509584 34.78125 71.65625 C 35.140581 71.802917 35.552664 71.875 36 71.875 C 36.645329 71.875 37.170329 71.706917 37.625 71.40625 C 38.079661 71.105584 38.436244 70.612168 38.65625 69.9375 L 37.28125 69.9375 C 37.229912 70.113502 37.071079 70.307418 36.84375 70.46875 C 36.616413 70.622751 36.34658 70.687501 36.03125 70.6875 C 35.591247 70.687501 35.265914 70.571084 35.03125 70.34375 C 34.796581 70.109085 34.678248 69.748669 34.65625 69.25 L 38.75 69.25 C 38.779327 68.810003 38.727661 68.372087 38.625 67.96875 C 38.522328 67.565421 38.359661 67.221588 38.125 66.90625 C 37.897662 66.590922 37.609328 66.339589 37.25 66.15625 C 36.890663 65.965589 36.483996 65.875006 36 65.875 z M 25.3125 67.03125 C 25.576496 67.031255 25.792746 67.108755 25.96875 67.21875 C 26.152079 67.321421 26.303579 67.456338 26.40625 67.625 C 26.516245 67.793671 26.580995 67.967504 26.625 68.1875 C 26.668995 68.407503 26.687495 68.64767 26.6875 68.875 C 26.687495 69.102336 26.668995 69.311252 26.625 69.53125 C 26.580995 69.743919 26.516245 69.949002 26.40625 70.125 C 26.303579 70.293668 26.152079 70.428585 25.96875 70.53125 C 25.792746 70.633918 25.576496 70.687501 25.3125 70.6875 C 25.048497 70.687501 24.832247 70.633918 24.65625 70.53125 C 24.480247 70.428585 24.328748 70.293668 24.21875 70.125 C 24.116081 69.949002 24.043998 69.743919 24 69.53125 C 23.955998 69.311252 23.937498 69.102336 23.9375 68.875 C 23.937498 68.64767 23.955998 68.407503 24 68.1875 C 24.043998 67.967504 24.116081 67.793671 24.21875 67.625 C 24.328748 67.456338 24.480247 67.321421 24.65625 67.21875 C 24.832247 67.108755 25.048497 67.031255 25.3125 67.03125 z M 35.9375 67.03125 C 36.31883 67.031255 36.597913 67.138421 36.78125 67.34375 C 36.971912 67.549087 37.114162 67.854004 37.1875 68.25 L 34.65625 68.25 C 34.663581 68.140004 34.682081 68.014337 34.71875 67.875 C 34.762748 67.735671 34.810915 67.624671 34.90625 67.5 C 35.008914 67.375338 35.151164 67.268171 35.3125 67.1875 C 35.481164 67.099505 35.688164 67.031255 35.9375 67.03125 z "
       transform="translate(0,956.36218)"
       id="text3823" />
  </g>
</svg>
