<?xml version="1.0" encoding="UTF-8" standalone="no"?>
<!-- Created with Inkscape (http://www.inkscape.org/) -->

<svg
   xmlns:dc="http://purl.org/dc/elements/1.1/"
   xmlns:cc="http://creativecommons.org/ns#"
   xmlns:rdf="http://www.w3.org/1999/02/22-rdf-syntax-ns#"
   xmlns:svg="http://www.w3.org/2000/svg"
   xmlns="http://www.w3.org/2000/svg"
   xmlns:xlink="http://www.w3.org/1999/xlink"
   xmlns:sodipodi="http://sodipodi.sourceforge.net/DTD/sodipodi-0.dtd"
   xmlns:inkscape="http://www.inkscape.org/namespaces/inkscape"
   width="96"
   height="96"
   id="svg2"
   version="1.1"
   inkscape:version="0.48.4 r9939"
   sodipodi:docname="postscript-viewer.svg">
  <defs
     id="defs4">
    <linearGradient
       id="linearGradient3787">
      <stop
         style="stop-color:#700086;stop-opacity:1;"
         offset="0"
         id="stop3789" />
      <stop
         style="stop-color:#cc0c00;stop-opacity:1;"
         offset="1"
         id="stop3791" />
    </linearGradient>
    <radialGradient
       inkscape:collect="always"
       xlink:href="#linearGradient3787"
       id="radialGradient3793"
       cx="2.8863635"
       cy="1044.1824"
       fx="2.8863635"
       fy="1044.1824"
       r="46.5"
       gradientTransform="matrix(2.9032256,-2.2721378e-7,1.9450067e-7,2.2580645,-8.3799585,-1315.4689)"
       gradientUnits="userSpaceOnUse" />
  </defs>
  <sodipodi:namedview
     id="base"
     pagecolor="#ffffff"
     bordercolor="#666666"
     borderopacity="1.0"
     inkscape:pageopacity="0.0"
     inkscape:pageshadow="2"
     inkscape:zoom="5.90625"
     inkscape:cx="43.598171"
     inkscape:cy="49.830024"
     inkscape:document-units="px"
     inkscape:current-layer="layer1"
     showgrid="true"
     inkscape:snap-page="true"
     inkscape:snap-global="true"
     inkscape:snap-center="true"
     inkscape:snap-object-midpoints="false"
     showguides="true"
     inkscape:guide-bbox="true"
     inkscape:snap-bbox="true"
     inkscape:object-paths="true"
     inkscape:object-nodes="true"
     inkscape:window-width="1305"
     inkscape:window-height="744"
     inkscape:window-x="61"
     inkscape:window-y="24"
     inkscape:window-maximized="1"
     inkscape:snap-midpoints="false"
     inkscape:snap-grids="true"
     inkscape:snap-to-guides="false">
    <inkscape:grid
       type="xygrid"
       id="grid3002"
       empspacing="5"
       visible="true"
       enabled="true"
       snapvisiblegridlinesonly="true" />
  </sodipodi:namedview>
  <metadata
     id="metadata7">
    <rdf:RDF>
      <cc:Work
         rdf:about="">
        <dc:format>image/svg+xml</dc:format>
        <dc:type
           rdf:resource="http://purl.org/dc/dcmitype/StillImage" />
        <dc:title />
      </cc:Work>
    </rdf:RDF>
  </metadata>
  <g
     inkscape:label="Layer 1"
     inkscape:groupmode="layer"
     id="layer1"
     transform="translate(0,-956.36218)">
    <rect
       style="fill:#ffffff;fill-opacity:0;fill-rule:nonzero;stroke:none"
       id="rect3775"
       width="96"
       height="96"
       x="0"
       y="956.36218"
       ry="0" />
    <path
       style="fill:#000000;fill-opacity:0.09589041;fill-rule:nonzero;stroke:none"
       d="m 3.353015,956.30662 c -1.884176,0 -3.4111555,1.43156 -3.4111555,3.19799 l 0,83.65949 c 0,1.7665 1.5269795,3.1981 3.4111555,3.1981 l 89.23583,0 c 1.884174,0 3.411155,-1.4316 3.411155,-3.1981 l 0,-83.65949 c 0,-1.76643 -1.526981,-3.19799 -3.411155,-3.19799 z"
       id="rect3772"
       inkscape:connector-curvature="0"
       sodipodi:nodetypes="sssssssss" />
    <path
       style="fill:#000000;fill-opacity:0.18721463;fill-rule:nonzero;stroke:none"
       d="m 1.0459761,1041.8066 0,7.4219 c 0,1.7392 1.461916,3.1337 3.2852054,3.1337 l 86.3836135,0 c 1.823288,0 3.285205,-1.3945 3.285205,-3.1337 l 0,-7.4219 -92.9540239,0 z"
       id="rect3785"
       inkscape:connector-curvature="0" />
    <path
       style="fill:#000000;fill-opacity:0.38356168;fill-rule:nonzero;stroke:none"
       d="m 1.0459761,1041.8066 0,5.3807 c 0,1.762 1.461916,3.1749 3.2852054,3.1749 l 86.3836135,0 c 1.823288,0 3.285205,-1.4129 3.285205,-3.1749 l 0,-5.3807 -92.9540239,0 z"
       id="rect3783"
       inkscape:connector-curvature="0" />
    <rect
       style="fill:url(#radialGradient3793);fill-opacity:1;fill-rule:nonzero;stroke:none"
       id="rect2985-2"
       width="93"
       height="88.999962"
       x="0.9999969"
       y="957.36224"
       ry="3.1511383" />
    <path
       style="fill:#000000;fill-opacity:0.38356168;fill-rule:nonzero;stroke:none"
       d="m 1,1042.3622 0.045976,2.7457 c 0.03024,1.8058 1.461916,3.2543 3.2852054,3.2543 l 86.3836136,0 c 1.823288,0 3.285205,-1.4481 3.285205,-3.2543 l -0.04598,-2.7457 z"
       id="rect3781"
       inkscape:connector-curvature="0"
       sodipodi:nodetypes="csssscc" />
    <rect
       style="fill:#ffffff;fill-opacity:0.30000001;fill-rule:nonzero;stroke:none"
       id="rect3770"
       width="92.954033"
       height="2.000005"
       x="1.045976"
       y="1040.3622" />
    <path
       id="path3777"
       d="m 70,1012.3622 c 5.539998,0 10,4.46 10,10 0,5.54 -4.460002,10 -10,10 l -55,0 0,-2.0625 55,0 c 4.438772,0 7.9375,-3.4988 7.9375,-7.9375 0,-4.4388 -3.498728,-7.9375 -7.9375,-7.9375 l -55,0 0,-2.0625 z m 0,4 c 3.438774,0 6.03125,2.5925 6.03125,6.0312 0,3.4388 -2.592476,6.0313 -6.03125,6.0313 l -51,0 0,-12.0625 z"
       style="fill:#ffffff;fill-opacity:0.80365294;fill-rule:evenodd;stroke:none"
       inkscape:connector-curvature="0"
       sodipodi:nodetypes="sssccsssccssssccs" />
    <path
       sodipodi:nodetypes="sssccsssccssssccs"
       inkscape:connector-curvature="0"
       style="fill:#ffffff;fill-opacity:0.80365294;fill-rule:evenodd;stroke:none"
       d="m 25,1010.3622 c -5.54,0 -10,-4.46 -10,-10 0,-5.54002 4.46,-10.00002 10,-10.00002 l 55,0 0,2.0625 -55,0 c -4.4388,0 -7.9375,3.4988 -7.9375,7.93752 0,4.4388 3.4987,7.9375 7.9375,7.9375 l 55,0 0,2.0625 z m 0,-4 c -3.4388,0 -6.0313,-2.5925 -6.0313,-6.0312 0,-3.43882 2.5925,-6.03132 6.0313,-6.03132 l 51,0 0,12.06252 z"
       id="path3783" />
    <path
       id="path3785"
       d="m 70,988.36218 c 5.54,0 10,-4.46 10,-10 0,-5.54002 -4.46,-10.00002 -10,-10.00002 l -55,0 0,2.0625 55,0 c 4.4388,0 7.9375,3.4988 7.9375,7.93752 0,4.4388 -3.4987,7.9375 -7.9375,7.9375 l -55,0 0,2.0625 z m 0,-4 c 3.4388,0 6.0313,-2.5925 6.0313,-6.0312 0,-3.43882 -2.5925,-6.03132 -6.0313,-6.03132 l -51,0 0,12.06252 z"
       style="fill:#ffffff;fill-opacity:0.80365294;fill-rule:evenodd;stroke:none"
       inkscape:connector-curvature="0"
       sodipodi:nodetypes="sssccsssccssssccs" />
  </g>
</svg>
