<?xml version="1.0" encoding="UTF-8" standalone="no"?>
<!-- Created with Inkscape (http://www.inkscape.org/) -->

<svg
   xmlns:dc="http://purl.org/dc/elements/1.1/"
   xmlns:cc="http://creativecommons.org/ns#"
   xmlns:rdf="http://www.w3.org/1999/02/22-rdf-syntax-ns#"
   xmlns:svg="http://www.w3.org/2000/svg"
   xmlns="http://www.w3.org/2000/svg"
   xmlns:xlink="http://www.w3.org/1999/xlink"
   xmlns:sodipodi="http://sodipodi.sourceforge.net/DTD/sodipodi-0.dtd"
   xmlns:inkscape="http://www.inkscape.org/namespaces/inkscape"
   width="96"
   height="96"
   id="svg2"
   version="1.1"
   inkscape:version="0.48.4 r9939"
   sodipodi:docname="preferences-desktop-theme.svg">
  <defs
     id="defs4">
    <linearGradient
       id="linearGradient3786">
      <stop
         style="stop-color:#f4dbaa;stop-opacity:1;"
         offset="0"
         id="stop3788" />
      <stop
         style="stop-color:#fcf5a7;stop-opacity:1;"
         offset="1"
         id="stop3790" />
    </linearGradient>
    <linearGradient
       inkscape:collect="always"
       xlink:href="#linearGradient3786"
       id="linearGradient3792"
       x1="17.991763"
       y1="997.55202"
       x2="82.008237"
       y2="997.55202"
       gradientUnits="userSpaceOnUse" />
  </defs>
  <sodipodi:namedview
     id="base"
     pagecolor="#ffffff"
     bordercolor="#666666"
     borderopacity="1.0"
     inkscape:pageopacity="0.0"
     inkscape:pageshadow="2"
     inkscape:zoom="5.2062701"
     inkscape:cx="-15.348342"
     inkscape:cy="46.759045"
     inkscape:document-units="px"
     inkscape:current-layer="layer1"
     showgrid="true"
     inkscape:snap-page="false"
     inkscape:snap-global="false"
     inkscape:snap-center="true"
     inkscape:snap-object-midpoints="false"
     showguides="true"
     inkscape:guide-bbox="true"
     inkscape:snap-bbox="true"
     inkscape:object-paths="true"
     inkscape:object-nodes="true"
     inkscape:window-width="1305"
     inkscape:window-height="744"
     inkscape:window-x="61"
     inkscape:window-y="24"
     inkscape:window-maximized="1"
     inkscape:snap-midpoints="false"
     inkscape:snap-grids="true"
     inkscape:snap-to-guides="false">
    <inkscape:grid
       type="xygrid"
       id="grid3002"
       empspacing="5"
       visible="true"
       enabled="true"
       snapvisiblegridlinesonly="true" />
  </sodipodi:namedview>
  <metadata
     id="metadata7">
    <rdf:RDF>
      <cc:Work
         rdf:about="">
        <dc:format>image/svg+xml</dc:format>
        <dc:type
           rdf:resource="http://purl.org/dc/dcmitype/StillImage" />
        <dc:title />
      </cc:Work>
    </rdf:RDF>
  </metadata>
  <g
     inkscape:label="Layer 1"
     inkscape:groupmode="layer"
     id="layer1"
     transform="translate(0,-956.36218)">
    <rect
       style="fill:#ffffff;fill-opacity:0;fill-rule:nonzero;stroke:none"
       id="rect3775"
       width="96"
       height="96"
       x="0"
       y="956.36218"
       ry="0" />
    <path
       style="fill:#000000;fill-opacity:0.09589041;fill-rule:nonzero;stroke:none"
       d="m 3.353015,956.30662 c -1.884176,0 -3.4111555,1.43156 -3.4111555,3.19799 l 0,83.65949 c 0,1.7665 1.5269795,3.1981 3.4111555,3.1981 l 89.23583,0 c 1.884174,0 3.411155,-1.4316 3.411155,-3.1981 l 0,-83.65949 c 0,-1.76643 -1.526981,-3.19799 -3.411155,-3.19799 z"
       id="rect3772"
       inkscape:connector-curvature="0"
       sodipodi:nodetypes="sssssssss" />
    <path
       style="fill:#000000;fill-opacity:0.18721463;fill-rule:nonzero;stroke:none"
       d="m 1.0459761,1041.8066 0,7.4219 c 0,1.7392 1.461916,3.1337 3.2852054,3.1337 l 86.3836135,0 c 1.823288,0 3.285205,-1.3945 3.285205,-3.1337 l 0,-7.4219 -92.9540239,0 z"
       id="rect3785"
       inkscape:connector-curvature="0" />
    <path
       style="fill:#000000;fill-opacity:0.38356168;fill-rule:nonzero;stroke:none"
       d="m 1.0459761,1041.8066 0,5.3807 c 0,1.762 1.461916,3.1749 3.2852054,3.1749 l 86.3836135,0 c 1.823288,0 3.285205,-1.4129 3.285205,-3.1749 l 0,-5.3807 -92.9540239,0 z"
       id="rect3783"
       inkscape:connector-curvature="0" />
    <rect
       style="fill:#f99b0c;fill-opacity:1;fill-rule:nonzero;stroke:none"
       id="rect2985"
       width="92.954025"
       height="89"
       x="1.045977"
       y="957.36218"
       ry="3.1511393" />
    <path
       style="fill:#000000;fill-opacity:0.38356168;fill-rule:nonzero;stroke:none"
       d="m 1,1042.3622 0.045976,2.7457 c 0.03024,1.8058 1.461916,3.2543 3.2852054,3.2543 l 86.3836136,0 c 1.823288,0 3.285205,-1.4481 3.285205,-3.2543 l -0.04598,-2.7457 z"
       id="rect3781"
       inkscape:connector-curvature="0"
       sodipodi:nodetypes="csssscc" />
    <rect
       style="fill:#ffffff;fill-opacity:0.17351598;fill-rule:nonzero;stroke:none"
       id="rect3770"
       width="92.954033"
       height="2.000005"
       x="1.045976"
       y="1040.3622" />
    <path
       sodipodi:nodetypes="csssssssc"
       inkscape:connector-curvature="0"
       id="path3784"
       d="m 30.529951,984.45791 c -10.025932,-15.07801 -16.856016,0.9755 -13.804791,17.36049 1.549549,8.321 8.062683,17.3378 13.053635,21.1562 14.818492,11.3376 34.866143,10.4243 44.777573,-2.0401 9.911423,-12.4644 5.933388,-31.7596 -8.885132,-43.09716 -5.715469,-4.37286 -15.528765,-7.73638 -19.96956,-4.10959 -5.940443,4.85155 -1.012289,10.44371 -4.15497,13.57453 -2.814735,2.80412 -7.892143,1.85474 -11.016754,-2.84438 z"
       style="fill:#000000;fill-opacity:0.39726028;fill-rule:evenodd;stroke:none" />
    <path
       style="fill:#000000;fill-opacity:0.3972603;fill-rule:evenodd;stroke:none"
       d="m 28.529951,988.45791 c -10.025932,-15.07801 -16.856016,0.9755 -13.804791,17.36049 1.549549,8.321 8.062683,17.3378 13.053635,21.1562 14.818492,11.3376 34.866143,10.4243 44.777573,-2.0401 9.911423,-12.4644 5.933388,-31.7596 -8.885132,-43.09716 -5.715469,-4.37286 -15.528765,-7.73638 -19.96956,-4.10959 -5.940443,4.85155 -1.012289,10.44371 -4.15497,13.57453 -2.814735,2.80412 -7.892143,1.85474 -11.016754,-2.84438 z"
       id="path3794"
       inkscape:connector-curvature="0"
       sodipodi:nodetypes="csssssssc" />
    <path
       style="fill:url(#linearGradient3792);fill-opacity:1;fill-rule:evenodd;stroke:none"
       d="m 32.529951,980.45791 c -10.025932,-15.07801 -16.856016,0.9755 -13.804791,17.3605 1.549549,8.32099 8.062683,17.33779 13.053635,21.15619 14.818492,11.3376 34.866143,10.4243 44.777573,-2.0401 9.911423,-12.4644 5.933388,-31.7596 -8.885132,-43.09716 -5.715469,-4.37286 -15.528765,-7.73638 -19.96956,-4.10959 -5.940443,4.85155 -1.012289,10.44371 -4.15497,13.57453 -2.814735,2.80412 -7.892143,1.85474 -11.016754,-2.84438 z"
       id="path3769"
       inkscape:connector-curvature="0"
       sodipodi:nodetypes="csssssssc" />
    <path
       transform="matrix(0.88888889,0,0,0.88888889,-2.5629972,953.61032)"
       d="M 40,43.5 C 40,47.642136 36.642136,51 32.5,51 28.357864,51 25,47.642136 25,43.5 25,39.357864 28.357864,36 32.5,36 c 4.142136,0 7.5,3.357864 7.5,7.5 z"
       sodipodi:ry="7.5"
       sodipodi:rx="7.5"
       sodipodi:cy="43.5"
       sodipodi:cx="32.5"
       id="path3798"
       style="fill:#000000;fill-opacity:0.22374429;fill-rule:evenodd;stroke:none"
       sodipodi:type="arc" />
    <path
       sodipodi:type="arc"
       style="fill:#e8112d;fill-opacity:1;fill-rule:evenodd;stroke:none"
       id="path3772"
       sodipodi:cx="32.5"
       sodipodi:cy="43.5"
       sodipodi:rx="7.5"
       sodipodi:ry="7.5"
       d="M 40,43.5 C 40,47.642136 36.642136,51 32.5,51 28.357864,51 25,47.642136 25,43.5 25,39.357864 28.357864,36 32.5,36 c 4.142136,0 7.5,3.357864 7.5,7.5 z"
       transform="matrix(0.88888889,0,0,0.88888889,-0.5629972,951.61032)" />
    <path
       sodipodi:type="arc"
       style="fill:#000000;fill-opacity:0.22374429;fill-rule:evenodd;stroke:none"
       id="path3800"
       sodipodi:cx="32.5"
       sodipodi:cy="43.5"
       sodipodi:rx="7.5"
       sodipodi:ry="7.5"
       d="M 40,43.5 C 40,47.642136 36.642136,51 32.5,51 28.357864,51 25,47.642136 25,43.5 25,39.357864 28.357864,36 32.5,36 c 4.142136,0 7.5,3.357864 7.5,7.5 z"
       transform="matrix(0.88888889,0,0,0.88888889,5.4888376,969.24555)" />
    <path
       transform="matrix(0.88888889,0,0,0.88888889,7.4888376,967.24555)"
       d="M 40,43.5 C 40,47.642136 36.642136,51 32.5,51 28.357864,51 25,47.642136 25,43.5 25,39.357864 28.357864,36 32.5,36 c 4.142136,0 7.5,3.357864 7.5,7.5 z"
       sodipodi:ry="7.5"
       sodipodi:rx="7.5"
       sodipodi:cy="43.5"
       sodipodi:cx="32.5"
       id="path3774"
       style="fill:#f96b07;fill-opacity:1;fill-rule:evenodd;stroke:none"
       sodipodi:type="arc" />
    <path
       transform="matrix(0.88888889,0,0,0.88888889,20.496279,978.34371)"
       d="M 40,43.5 C 40,47.642136 36.642136,51 32.5,51 28.357864,51 25,47.642136 25,43.5 25,39.357864 28.357864,36 32.5,36 c 4.142136,0 7.5,3.357864 7.5,7.5 z"
       sodipodi:ry="7.5"
       sodipodi:rx="7.5"
       sodipodi:cy="43.5"
       sodipodi:cx="32.5"
       id="path3802"
       style="fill:#000000;fill-opacity:0.22374429;fill-rule:evenodd;stroke:none"
       sodipodi:type="arc" />
    <path
       sodipodi:type="arc"
       style="fill:#fcb514;fill-opacity:1;fill-rule:evenodd;stroke:none"
       id="path3776"
       sodipodi:cx="32.5"
       sodipodi:cy="43.5"
       sodipodi:rx="7.5"
       sodipodi:ry="7.5"
       d="M 40,43.5 C 40,47.642136 36.642136,51 32.5,51 28.357864,51 25,47.642136 25,43.5 25,39.357864 28.357864,36 32.5,36 c 4.142136,0 7.5,3.357864 7.5,7.5 z"
       transform="matrix(0.88888889,0,0,0.88888889,22.496279,976.34371)" />
    <path
       sodipodi:type="arc"
       style="fill:#000000;fill-opacity:0.22374429;fill-rule:evenodd;stroke:none"
       id="path3804"
       sodipodi:cx="32.5"
       sodipodi:cy="43.5"
       sodipodi:rx="7.5"
       sodipodi:ry="7.5"
       d="M 40,43.5 C 40,47.642136 36.642136,51 32.5,51 28.357864,51 25,47.642136 25,43.5 25,39.357864 28.357864,36 32.5,36 c 4.142136,0 7.5,3.357864 7.5,7.5 z"
       transform="matrix(0.88888889,0,0,0.88888889,36.809212,972.85294)" />
    <path
       transform="matrix(0.88888889,0,0,0.88888889,38.809212,970.85294)"
       d="M 40,43.5 C 40,47.642136 36.642136,51 32.5,51 28.357864,51 25,47.642136 25,43.5 25,39.357864 28.357864,36 32.5,36 c 4.142136,0 7.5,3.357864 7.5,7.5 z"
       sodipodi:ry="7.5"
       sodipodi:rx="7.5"
       sodipodi:cy="43.5"
       sodipodi:cx="32.5"
       id="path3778"
       style="fill:#56aa1c;fill-opacity:1;fill-rule:evenodd;stroke:none"
       sodipodi:type="arc" />
    <path
       transform="matrix(0.88888889,0,0,0.88888889,38.901848,955.91222)"
       d="M 40,43.5 C 40,47.642136 36.642136,51 32.5,51 28.357864,51 25,47.642136 25,43.5 25,39.357864 28.357864,36 32.5,36 c 4.142136,0 7.5,3.357864 7.5,7.5 z"
       sodipodi:ry="7.5"
       sodipodi:rx="7.5"
       sodipodi:cy="43.5"
       sodipodi:cx="32.5"
       id="path3806"
       style="fill:#000000;fill-opacity:0.22374429;fill-rule:evenodd;stroke:none"
       sodipodi:type="arc" />
    <path
       sodipodi:type="arc"
       style="fill:#0099b5;fill-opacity:1;fill-rule:evenodd;stroke:none"
       id="path3780"
       sodipodi:cx="32.5"
       sodipodi:cy="43.5"
       sodipodi:rx="7.5"
       sodipodi:ry="7.5"
       d="M 40,43.5 C 40,47.642136 36.642136,51 32.5,51 28.357864,51 25,47.642136 25,43.5 25,39.357864 28.357864,36 32.5,36 c 4.142136,0 7.5,3.357864 7.5,7.5 z"
       transform="matrix(0.88888889,0,0,0.88888889,40.901848,953.91222)" />
    <path
       sodipodi:type="arc"
       style="fill:#000000;fill-opacity:0.22374429;fill-rule:evenodd;stroke:none"
       id="path3808"
       sodipodi:cx="32.5"
       sodipodi:cy="43.5"
       sodipodi:rx="7.5"
       sodipodi:ry="7.5"
       d="M 40,43.5 C 40,47.642136 36.642136,51 32.5,51 28.357864,51 25,47.642136 25,43.5 25,39.357864 28.357864,36 32.5,36 c 4.142136,0 7.5,3.357864 7.5,7.5 z"
       transform="matrix(0.88888889,0,0,0.88888889,26.196305,943.67512)" />
    <path
       transform="matrix(0.88888889,0,0,0.88888889,28.196305,941.67512)"
       d="M 40,43.5 C 40,47.642136 36.642136,51 32.5,51 28.357864,51 25,47.642136 25,43.5 25,39.357864 28.357864,36 32.5,36 c 4.142136,0 7.5,3.357864 7.5,7.5 z"
       sodipodi:ry="7.5"
       sodipodi:rx="7.5"
       sodipodi:cy="43.5"
       sodipodi:cx="32.5"
       id="path3782"
       style="fill:#1e1c77;fill-opacity:1;fill-rule:evenodd;stroke:none"
       sodipodi:type="arc" />
  </g>
</svg>
