<?xml version="1.0" encoding="UTF-8" standalone="no"?>
<!-- Created with Inkscape (http://www.inkscape.org/) -->

<svg
   xmlns:dc="http://purl.org/dc/elements/1.1/"
   xmlns:cc="http://creativecommons.org/ns#"
   xmlns:rdf="http://www.w3.org/1999/02/22-rdf-syntax-ns#"
   xmlns:svg="http://www.w3.org/2000/svg"
   xmlns="http://www.w3.org/2000/svg"
   xmlns:sodipodi="http://sodipodi.sourceforge.net/DTD/sodipodi-0.dtd"
   xmlns:inkscape="http://www.inkscape.org/namespaces/inkscape"
   width="96"
   height="96"
   id="svg2"
   version="1.1"
   inkscape:version="0.48.4 r9939"
   sodipodi:docname="preferences-kcalc-constants.svg">
  <defs
     id="defs4" />
  <sodipodi:namedview
     id="base"
     pagecolor="#ffffff"
     bordercolor="#666666"
     borderopacity="1.0"
     inkscape:pageopacity="0.0"
     inkscape:pageshadow="2"
     inkscape:zoom="5.90625"
     inkscape:cx="34.455199"
     inkscape:cy="48"
     inkscape:document-units="px"
     inkscape:current-layer="layer1"
     showgrid="true"
     inkscape:snap-page="true"
     inkscape:snap-global="true"
     inkscape:snap-center="true"
     inkscape:snap-object-midpoints="false"
     showguides="true"
     inkscape:guide-bbox="true"
     inkscape:snap-bbox="true"
     inkscape:object-paths="true"
     inkscape:object-nodes="true"
     inkscape:window-width="1305"
     inkscape:window-height="744"
     inkscape:window-x="61"
     inkscape:window-y="24"
     inkscape:window-maximized="1"
     inkscape:snap-midpoints="false"
     inkscape:snap-grids="true"
     inkscape:snap-to-guides="false">
    <inkscape:grid
       type="xygrid"
       id="grid3002"
       empspacing="5"
       visible="true"
       enabled="true"
       snapvisiblegridlinesonly="true" />
  </sodipodi:namedview>
  <metadata
     id="metadata7">
    <rdf:RDF>
      <cc:Work
         rdf:about="">
        <dc:format>image/svg+xml</dc:format>
        <dc:type
           rdf:resource="http://purl.org/dc/dcmitype/StillImage" />
        <dc:title />
      </cc:Work>
    </rdf:RDF>
  </metadata>
  <g
     inkscape:label="Layer 1"
     inkscape:groupmode="layer"
     id="layer1"
     transform="translate(0,-956.36218)">
    <rect
       style="fill:#ffffff;fill-opacity:0;fill-rule:nonzero;stroke:none"
       id="rect3775"
       width="96"
       height="96"
       x="0"
       y="956.36218"
       ry="0" />
    <path
       style="fill:#000000;fill-opacity:0.09589041;fill-rule:nonzero;stroke:none"
       d="m 3.353015,956.30662 c -1.884176,0 -3.4111555,1.43156 -3.4111555,3.19799 l 0,83.65949 c 0,1.7665 1.5269795,3.1981 3.4111555,3.1981 l 89.23583,0 c 1.884174,0 3.411155,-1.4316 3.411155,-3.1981 l 0,-83.65949 c 0,-1.76643 -1.526981,-3.19799 -3.411155,-3.19799 z"
       id="rect3772"
       inkscape:connector-curvature="0"
       sodipodi:nodetypes="sssssssss" />
    <path
       style="fill:#000000;fill-opacity:0.18721463;fill-rule:nonzero;stroke:none"
       d="m 1.0459761,1041.8066 0,7.4219 c 0,1.7392 1.461916,3.1337 3.2852054,3.1337 l 86.3836135,0 c 1.823288,0 3.285205,-1.3945 3.285205,-3.1337 l 0,-7.4219 -92.9540239,0 z"
       id="rect3785"
       inkscape:connector-curvature="0" />
    <path
       style="fill:#000000;fill-opacity:0.38356168;fill-rule:nonzero;stroke:none"
       d="m 1.0459761,1041.8066 0,5.3807 c 0,1.762 1.461916,3.1749 3.2852054,3.1749 l 86.3836135,0 c 1.823288,0 3.285205,-1.4129 3.285205,-3.1749 l 0,-5.3807 -92.9540239,0 z"
       id="rect3783"
       inkscape:connector-curvature="0" />
    <rect
       style="fill:#363636;fill-opacity:1;fill-rule:nonzero;stroke:none"
       id="rect2985"
       width="92.954025"
       height="89"
       x="1.045977"
       y="-1046.3622"
       ry="3.1511393"
       transform="scale(1,-1)" />
    <path
       style="fill:#000000;fill-opacity:0.38356168;fill-rule:nonzero;stroke:none"
       d="m 1,1042.3622 0.045976,2.7457 c 0.03024,1.8058 1.461916,3.2543 3.2852054,3.2543 l 86.3836136,0 c 1.823288,0 3.285205,-1.4481 3.285205,-3.2543 l -0.04598,-2.7457 z"
       id="rect3781"
       inkscape:connector-curvature="0"
       sodipodi:nodetypes="csssscc" />
    <rect
       style="fill:#ffffff;fill-opacity:0.30000001;fill-rule:nonzero;stroke:none"
       id="rect3770"
       width="92.954033"
       height="2.000005"
       x="1.045976"
       y="1040.3622" />
    <rect
       style="fill:#7f7f7f;fill-opacity:1;fill-rule:nonzero;stroke:none"
       id="rect2998"
       width="75"
       height="39.999996"
       x="10"
       y="963.36218" />
    <rect
       y="963.36218"
       x="10"
       height="1.9999948"
       width="75"
       id="rect3798"
       style="fill:#000000;fill-opacity:1;fill-rule:nonzero;stroke:none" />
    <path
       style="fill:#000000;fill-opacity:0.23529412;fill-rule:nonzero;stroke:none"
       d="m 20,973.36218 0,7 -3.465049,2.07903 L 15,981.36218 l 0,-11 1,-1 z"
       id="rect3807"
       inkscape:connector-curvature="0"
       sodipodi:nodetypes="ccccccc" />
    <path
       sodipodi:nodetypes="ccccccc"
       inkscape:connector-curvature="0"
       id="path3810"
       d="m 20,987.36218 0,7 -3.918367,3.91842 L 15,997.3622 l 0,-11.00002 1.346162,-1.1923 z"
       style="fill:#000000;fill-opacity:0.23529412;fill-rule:nonzero;stroke:none" />
    <path
       sodipodi:nodetypes="ccccccc"
       inkscape:connector-curvature="0"
       id="path3812"
       d="m 26,972.36218 -5,0 -4,-4 1,-1 11,0 1,1 z"
       style="fill:#000000;fill-opacity:0.23529412;fill-rule:nonzero;stroke:none" />
    <path
       sodipodi:nodetypes="ccccccc"
       inkscape:connector-curvature="0"
       id="path3814"
       d="m 27,973.36218 0,7 3.919929,2.35196 L 32,981.36218 l 0,-11 -1,-1 z"
       style="fill:#000000;fill-opacity:0.23529412;fill-rule:nonzero;stroke:none" />
    <path
       style="fill:#000000;fill-opacity:0.23529412;fill-rule:nonzero;stroke:none"
       d="m 27,987.36218 0,7 3.95358,3.95362 1.04642,-0.9536 0,-11.00002 -0.960781,-1.42353 z"
       id="path3816"
       inkscape:connector-curvature="0"
       sodipodi:nodetypes="ccccccc" />
    <path
       style="fill:#000000;fill-opacity:0.23529412;fill-rule:nonzero;stroke:none"
       d="m 26,995.36218 -5,0 -3.871108,3.87112 0.871108,1.1289 11,0 1.00084,-0.9992 z"
       id="path3818"
       inkscape:connector-curvature="0"
       sodipodi:nodetypes="ccccccc" />
    <path
       style="fill:#000000;fill-opacity:0.23529412;fill-rule:nonzero;stroke:none"
       d="m 25.865773,986.36218 -4.810962,0 -4,-2.55643 4,-2.44357 4.810962,0 4.283557,2.53809 z"
       id="path3820"
       inkscape:connector-curvature="0"
       sodipodi:nodetypes="ccccccc" />
    <path
       style="fill:#000000;fill-opacity:0.62100459;fill-rule:nonzero;stroke:none"
       d="m 20,987.36218 0,7 -3.918367,3.91842 L 15,997.3622 l 0,-11.00002 1.346162,-1.1923 z"
       id="path3824"
       inkscape:connector-curvature="0"
       sodipodi:nodetypes="ccccccc" />
    <path
       style="fill:#000000;fill-opacity:0.62100459;fill-rule:nonzero;stroke:none"
       d="m 26,972.36218 -5,0 -4,-4 1,-1 11,0 1,1 z"
       id="path3826"
       inkscape:connector-curvature="0"
       sodipodi:nodetypes="ccccccc" />
    <path
       style="fill:#000000;fill-opacity:0.62100459;fill-rule:nonzero;stroke:none"
       d="m 27,973.36218 0,7 3.919929,2.35196 L 32,981.36218 l 0,-11 -1,-1 z"
       id="path3828"
       inkscape:connector-curvature="0"
       sodipodi:nodetypes="ccccccc" />
    <path
       sodipodi:nodetypes="ccccccc"
       inkscape:connector-curvature="0"
       id="path3832"
       d="m 26,995.36218 -5,0 -3.871108,3.87112 0.871108,1.1289 11,0 1.00084,-0.9992 z"
       style="fill:#000000;fill-opacity:0.62100459;fill-rule:nonzero;stroke:none" />
    <path
       sodipodi:nodetypes="ccccccc"
       inkscape:connector-curvature="0"
       id="path3834"
       d="m 25.865773,986.36218 -4.810962,0 -4,-2.55643 4,-2.44357 4.810962,0 4.283557,2.53809 z"
       style="fill:#000000;fill-opacity:0.62100459;fill-rule:nonzero;stroke:none" />
    <path
       sodipodi:nodetypes="ccccccc"
       inkscape:connector-curvature="0"
       id="path3836"
       d="m 42,973.36218 0,7 -3.465049,2.07903 L 37,981.36218 l 0,-11 1,-1 z"
       style="fill:#000000;fill-opacity:0.23529412;fill-rule:nonzero;stroke:none" />
    <path
       style="fill:#000000;fill-opacity:0.23529412;fill-rule:nonzero;stroke:none"
       d="m 42,987.36218 0,7 -3.918367,3.91842 L 37,997.3622 l 0,-11.00002 1.346162,-1.1923 z"
       id="path3838"
       inkscape:connector-curvature="0"
       sodipodi:nodetypes="ccccccc" />
    <path
       style="fill:#000000;fill-opacity:0.23529412;fill-rule:nonzero;stroke:none"
       d="m 48,972.36218 -5,0 -4,-4 1,-1 11,0 1,1 z"
       id="path3840"
       inkscape:connector-curvature="0"
       sodipodi:nodetypes="ccccccc" />
    <path
       style="fill:#000000;fill-opacity:0.23529412;fill-rule:nonzero;stroke:none"
       d="m 49,973.36218 0,7 3.919929,2.35196 L 54,981.36218 l 0,-11 -1,-1 z"
       id="path3842"
       inkscape:connector-curvature="0"
       sodipodi:nodetypes="ccccccc" />
    <path
       sodipodi:nodetypes="ccccccc"
       inkscape:connector-curvature="0"
       id="path3844"
       d="m 49,987.36218 0,7 3.95358,3.95362 1.04642,-0.9536 0,-11.00002 -0.960781,-1.42353 z"
       style="fill:#000000;fill-opacity:0.61960784;fill-rule:nonzero;stroke:none" />
    <path
       sodipodi:nodetypes="ccccccc"
       inkscape:connector-curvature="0"
       id="path3846"
       d="m 48,995.36218 -5,0 -3.871108,3.87112 0.871108,1.1289 11,0 1.00084,-0.9992 z"
       style="fill:#000000;fill-opacity:0.23529412;fill-rule:nonzero;stroke:none" />
    <path
       sodipodi:nodetypes="ccccccc"
       inkscape:connector-curvature="0"
       id="path3848"
       d="m 47.865773,986.36218 -4.810962,0 -4,-2.55643 4,-2.44357 4.810962,0 4.283557,2.53809 z"
       style="fill:#000000;fill-opacity:0.23529412;fill-rule:nonzero;stroke:none" />
    <path
       sodipodi:nodetypes="ccccccc"
       inkscape:connector-curvature="0"
       id="path3852"
       d="m 48,972.36218 -5,0 -4,-4 1,-1 11,0 1,1 z"
       style="fill:#000000;fill-opacity:0.62100459;fill-rule:nonzero;stroke:none" />
    <path
       sodipodi:nodetypes="ccccccc"
       inkscape:connector-curvature="0"
       id="path3854"
       d="m 49,973.36218 0,7 3.919929,2.35196 L 54,981.36218 l 0,-11 -1,-1 z"
       style="fill:#000000;fill-opacity:0.62100459;fill-rule:nonzero;stroke:none" />
    <path
       style="fill:#000000;fill-opacity:0.62100459;fill-rule:nonzero;stroke:none"
       d="m 48,995.36218 -5,0 -3.871108,3.87112 0.871108,1.1289 11,0 1.00084,-0.9992 z"
       id="path3856"
       inkscape:connector-curvature="0"
       sodipodi:nodetypes="ccccccc" />
    <path
       style="fill:#000000;fill-opacity:0.62100459;fill-rule:nonzero;stroke:none"
       d="m 47.865773,986.36218 -4.810962,0 -4,-2.55643 4,-2.44357 4.810962,0 4.283557,2.53809 z"
       id="path3858"
       inkscape:connector-curvature="0"
       sodipodi:nodetypes="ccccccc" />
    <path
       sodipodi:nodetypes="ccccccc"
       inkscape:connector-curvature="0"
       id="path3860"
       d="m 64,973.36218 0,7 -3.465049,2.07903 L 59,981.36218 l 0,-11 1,-1 z"
       style="fill:#000000;fill-opacity:0.23529412;fill-rule:nonzero;stroke:none" />
    <path
       style="fill:#000000;fill-opacity:0.23529412;fill-rule:nonzero;stroke:none"
       d="m 64,987.36218 0,7 -3.918367,3.91842 L 59,997.3622 l 0,-11.00002 1.346162,-1.1923 z"
       id="path3862"
       inkscape:connector-curvature="0"
       sodipodi:nodetypes="ccccccc" />
    <path
       style="fill:#000000;fill-opacity:0.23529412;fill-rule:nonzero;stroke:none"
       d="m 70,972.36218 -5,0 -4,-4 1,-1 11,0 1,1 z"
       id="path3864"
       inkscape:connector-curvature="0"
       sodipodi:nodetypes="ccccccc" />
    <path
       style="fill:#000000;fill-opacity:0.23529412;fill-rule:nonzero;stroke:none"
       d="m 71,973.36218 0,7 3.919929,2.35196 L 76,981.36218 l 0,-11 -1,-1 z"
       id="path3866"
       inkscape:connector-curvature="0"
       sodipodi:nodetypes="ccccccc" />
    <path
       sodipodi:nodetypes="ccccccc"
       inkscape:connector-curvature="0"
       id="path3868"
       d="m 71,987.36218 0,7 3.95358,3.95362 1.04642,-0.9536 0,-11.00002 -0.960781,-1.42353 z"
       style="fill:#000000;fill-opacity:0.23529412;fill-rule:nonzero;stroke:none" />
    <path
       sodipodi:nodetypes="ccccccc"
       inkscape:connector-curvature="0"
       id="path3870"
       d="m 70,995.36218 -5,0 -3.871108,3.87112 0.871108,1.1289 11,0 1.00084,-0.9992 z"
       style="fill:#000000;fill-opacity:0.23529412;fill-rule:nonzero;stroke:none" />
    <path
       sodipodi:nodetypes="ccccccc"
       inkscape:connector-curvature="0"
       id="path3872"
       d="m 69.865773,986.36218 -4.810962,0 -4,-2.55643 4,-2.44357 4.810962,0 4.283557,2.53809 z"
       style="fill:#000000;fill-opacity:0.23529412;fill-rule:nonzero;stroke:none" />
    <path
       sodipodi:nodetypes="ccccccc"
       inkscape:connector-curvature="0"
       id="path3878"
       d="m 71,973.36218 0,7 3.919929,2.35196 L 76,981.36218 l 0,-11 -1,-1 z"
       style="fill:#000000;fill-opacity:0.62100459;fill-rule:nonzero;stroke:none" />
    <path
       style="fill:#000000;fill-opacity:0.62100459;fill-rule:nonzero;stroke:none"
       d="m 69.865773,986.36218 -4.810962,0 -4,-2.55643 4,-2.44357 4.810962,0 4.283557,2.53809 z"
       id="path3882"
       inkscape:connector-curvature="0"
       sodipodi:nodetypes="ccccccc" />
    <path
       style="fill:#000000;fill-opacity:0.61960784;fill-rule:nonzero;stroke:none"
       d="m 71,987.36218 0,7 3.95358,3.95362 1.04642,-0.9536 0,-11.00002 -0.960781,-1.42353 z"
       id="path3884"
       inkscape:connector-curvature="0"
       sodipodi:nodetypes="ccccccc" />
    <path
       style="fill:#000000;fill-opacity:0.61960784;fill-rule:nonzero;stroke:none"
       d="m 64,973.36218 0,7 -3.465049,2.07903 L 59,981.36218 l 0,-11 1,-1 z"
       id="path3886"
       inkscape:connector-curvature="0"
       sodipodi:nodetypes="ccccccc" />
    <rect
       style="fill:#ffffff;fill-opacity:0.33789954;fill-rule:nonzero;stroke:none"
       id="rect3039"
       width="75"
       height="1.9999948"
       x="10"
       y="1003.3622" />
    <path
       sodipodi:type="inkscape:offset"
       inkscape:radius="2.0986779"
       inkscape:original="M 49.8125 975.9375 L 47.625 983.59375 C 46.38238 983.65475 45.1465 983.84135 43.90625 984.125 L 39.6875 977.3125 L 35.09375 979.21875 L 37.09375 986.96875 C 36.02304 987.65124 35.00522 988.41042 34.09375 989.25 L 27.03125 985.4375 L 24.03125 989.375 L 29.625 995.09375 C 29.05373 996.19732 28.61918 997.34643 28.25 998.53125 L 20.1875 998.75 L 19.5625 1003.625 L 27.3125 1005.7812 L 27.3125 1005.8125 C 27.3735 1007.0431 27.52641 1008.2717 27.8125 1009.5 L 20.96875 1013.6562 L 22.90625 1018.1875 L 30.6875 1016.25 C 31.37696 1017.3097 32.15172 1018.2862 33 1019.1875 C 33.004 1019.1975 33.02725 1019.1825 33.03125 1019.1875 L 29.1875 1026.1875 L 33.15625 1029.1562 L 38.9375 1023.5938 C 40.05261 1024.1581 41.17778 1024.6357 42.375 1025 L 42.625 1032.9688 L 47.5625 1033.5938 L 49.71875 1025.9062 C 50.96213 1025.8443 52.22803 1025.6901 53.46875 1025.4062 L 57.6875 1032.1875 L 62.28125 1030.2812 L 60.28125 1022.5625 C 61.35151 1021.8804 62.33925 1021.0892 63.25 1020.25 L 70.34375 1024.0625 L 73.34375 1020.125 L 67.71875 1014.4062 C 68.28954 1013.3024 68.75658 1012.1539 69.125 1010.9688 L 77.1875 1010.75 L 77.8125 1005.875 L 70.0625 1003.6875 C 70.0009 1002.4573 69.81771 1001.228 69.53125 1000 L 76.40625 995.84375 L 74.46875 991.3125 L 66.65625 993.28125 C 65.96716 992.22158 65.19136 991.24547 64.34375 990.34375 L 68.1875 983.3125 L 64.21875 980.34375 L 58.4375 985.90625 C 57.32264 985.34112 56.16581 984.86478 54.96875 984.5 L 54.75 976.53125 L 49.8125 975.9375 z M 48.6875 992.75 C 53.408045 992.75199 57.891103 995.51489 59.84375 1000.0938 C 62.44728 1006.199 59.57245 1013.2346 53.40625 1015.8125 C 47.24005 1018.3903 40.10353 1015.5427 37.5 1009.4375 C 34.89647 1003.3324 37.80255 996.26528 43.96875 993.6875 C 45.5103 993.04306 47.113985 992.74934 48.6875 992.75 z "
       style="fill:#1a1a1a;fill-opacity:0.29223747;stroke:none"
       id="path3064"
       d="m 49.65625,973.84375 a 2.0988877,2.0988877 0 0 0 -1.875,1.53125 l -1.8125,6.34375 c -0.334201,0.0412 -0.668387,0.10081 -1,0.15625 l -3.5,-5.65625 A 2.0988877,2.0988877 0 0 0 38.875,975.375 l -4.59375,1.90625 A 2.0988877,2.0988877 0 0 0 33.0625,979.75 l 1.65625,6.40625 c -0.276526,0.2005 -0.54438,0.41211 -0.8125,0.625 l -5.875,-3.1875 a 2.0988877,2.0988877 0 0 0 -2.65625,0.5625 l -3,3.9375 a 2.0988877,2.0988877 0 0 0 0.15625,2.75 l 4.625,4.75 c -0.121704,0.29104 -0.23542,0.58304 -0.34375,0.875 l -6.6875,0.1875 a 2.0988877,2.0988877 0 0 0 -2.03125,1.8125 l -0.625,4.87505 A 2.0988877,2.0988877 0 0 0 19,1005.6562 l 6.4375,1.7813 c 0.03562,0.3214 0.07507,0.6454 0.125,0.9687 l -5.6875,3.4688 a 2.0988877,2.0988877 0 0 0 -0.84375,2.5938 l 1.9375,4.5312 a 2.0988877,2.0988877 0 0 0 2.4375,1.2188 l 6.46875,-1.625 c 0.206968,0.2754 0.407387,0.5483 0.625,0.8124 l -3.15625,5.7813 a 2.0988877,2.0988877 0 0 0 0.59375,2.6875 l 3.96875,2.9688 a 2.0988877,2.0988877 0 0 0 2.71875,-0.1876 l 4.78125,-4.625 c 0.299573,0.1313 0.598576,0.2555 0.90625,0.375 l 0.21875,6.625 a 2.0988877,2.0988877 0 0 0 1.84375,2.0313 l 4.9375,0.625 a 2.0988877,2.0988877 0 0 0 2.28125,-1.5313 l 1.78125,-6.375 c 0.341768,-0.037 0.687223,-0.072 1.03125,-0.125 l 3.5,5.625 A 2.0988877,2.0988877 0 0 0 58.5,1034.125 l 4.59375,-1.9062 a 2.0988877,2.0988877 0 0 0 1.21875,-2.4688 l -1.65625,-6.375 c 0.273847,-0.2053 0.551596,-0.411 0.8125,-0.625 l 5.875,3.1562 A 2.0988877,2.0988877 0 0 0 72,1025.3438 l 3,-3.9376 a 2.0988877,2.0988877 0 0 0 -0.15625,-2.75 l -4.65625,-4.75 c 0.124469,-0.2883 0.231252,-0.5823 0.34375,-0.875 l 6.71875,-0.1874 a 2.0988877,2.0988877 0 0 0 2.03125,-1.8126 l 0.625,-4.875 a 2.0988877,2.0988877 0 0 0 -1.53125,-2.3124 l -6.4375,-1.8126 c -0.04018,-0.3242 -0.102179,-0.6462 -0.15625,-0.9687 L 77.5,997.625 a 2.0988877,2.0988877 0 0 0 0.84375,-2.59375 L 76.40625,990.5 a 2.0988877,2.0988877 0 0 0 -2.4375,-1.21875 l -6.5,1.625 c -0.202351,-0.26856 -0.412666,-0.5236 -0.625,-0.78125 l 3.1875,-5.8125 A 2.0988877,2.0988877 0 0 0 69.4375,981.625 l -3.96875,-2.96875 a 2.0988877,2.0988877 0 0 0 -2.71875,0.1875 l -4.78125,4.625 c -0.310493,-0.13443 -0.620215,-0.25351 -0.9375,-0.375 l -0.1875,-6.625 A 2.0988877,2.0988877 0 0 0 55,974.4375 l -4.9375,-0.59375 a 2.0988877,2.0988877 0 0 0 -0.40625,0 z m -0.96875,21 c 3.902212,0.002 7.601268,2.26954 9.21875,6.06245 2.156653,5.0573 -0.185853,10.8255 -5.3125,12.9688 -5.127106,2.1434 -11.003176,-0.2011 -13.15625,-5.25 -2.153239,-5.0492 0.220423,-10.85819 5.34375,-13 1.273039,-0.53219 2.594499,-0.7818 3.90625,-0.78125 z m -15.125,26.37505 c 0.06093,-0.017 0.07483,-0.01 -0.125,0.031 -0.04996,0.01 -0.12799,0.023 -0.21875,0.031 -0.06807,0.01 -0.198024,0 -0.28125,0 0.439355,0.012 0.564072,-0.046 0.625,-0.062 z"
       transform="matrix(0.77953502,0,0,0.77953502,10.733889,241.51627)" />
    <path
       transform="matrix(0.77953502,0,0,0.77953502,10.733889,241.51627)"
       d="m 49.875,972.34375 a 3.5890897,3.5890897 0 0 0 -3.5,2.59375 l -1.25,4.34375 -2.375,-3.84375 A 3.5890897,3.5890897 0 0 0 38.3125,974 l -4.59375,1.90625 A 3.5890897,3.5890897 0 0 0 31.625,980.125 l 1.125,4.3125 -4,-2.15625 A 3.5890897,3.5890897 0 0 0 24.1875,983.25 l -3,3.9375 a 3.5890897,3.5890897 0 0 0 0.28125,4.6875 l 3.09375,3.15625 -4.46875,0.125 a 3.5890897,3.5890897 0 0 0 -3.46875,3.125 L 16,1003.1562 a 3.5890897,3.5890897 0 0 0 2.59375,3.9376 l 4.28125,1.1874 -3.78125,2.3126 a 3.5890897,3.5890897 0 0 0 -1.4375,4.4687 l 1.9375,4.5313 a 3.5890897,3.5890897 0 0 0 4.1875,2.0624 l 4.40625,-1.0937 -2.15625,3.9063 a 3.5890897,3.5890897 0 0 0 1,4.5937 L 31,1032.0312 a 3.5890897,3.5890897 0 0 0 4.65625,-0.2812 l 3.25,-3.125 0.125,4.4688 a 3.5890897,3.5890897 0 0 0 3.15625,3.4374 l 4.9375,0.625 a 3.5890897,3.5890897 0 0 0 3.90625,-2.5937 l 1.21875,-4.3125 2.375,3.8438 a 3.5890897,3.5890897 0 0 0 4.4375,1.4062 l 4.59375,-1.9062 A 3.5890897,3.5890897 0 0 0 65.75,1029.375 l -1.125,-4.3125 4.03125,2.1563 a 3.5890897,3.5890897 0 0 0 4.53125,-0.9688 l 3,-3.9375 a 3.5890897,3.5890897 0 0 0 -0.28125,-4.7187 l -3.0625,-3.125 4.4375,-0.125 a 3.5890897,3.5890897 0 0 0 3.46875,-3.125 l 0.625,-4.875 a 3.5890897,3.5890897 0 0 0 -2.59375,-3.9376 l -4.3125,-1.2187 3.78125,-2.28125 a 3.5890897,3.5890897 0 0 0 1.46875,-4.46875 l -1.9375,-4.53125 a 3.5890897,3.5890897 0 0 0 -4.1875,-2.0625 l -4.40625,1.09375 2.15625,-3.90625 a 3.5890897,3.5890897 0 0 0 -1,-4.59375 L 66.375,977.46875 A 3.5890897,3.5890897 0 0 0 61.71875,977.75 l -3.25,3.125 -0.125,-4.4375 A 3.5890897,3.5890897 0 0 0 55.1875,972.96875 L 50.25,972.375 a 3.5890897,3.5890897 0 0 0 -0.375,-0.0312 z m -1.1875,24 c 3.321198,0.001 6.464233,1.92132 7.84375,5.15625 1.839372,4.3133 -0.111431,9.1653 -4.5,11 -4.389353,1.835 -9.385498,-0.1698 -11.21875,-4.4688 -1.833533,-4.2995 0.148359,-9.19893 4.53125,-11.0312 1.082398,-0.45249 2.217851,-0.65672 3.34375,-0.65625 z m -17.125,26.09375 c 0.119214,0.045 0.144672,0.074 0.28125,0.125 -0.07219,-0.018 -0.218829,-0.062 -0.21875,-0.062 1.9e-5,0 -0.056,-0.058 -0.0625,-0.062 z m 2.40625,0.2187 c 0.101768,-0.028 0.09369,-0 -0.25,0.063 -0.08592,0.017 -0.188113,0.017 -0.34375,0.031 -0.04447,0 -0.10863,-7e-4 -0.1875,0 0.363681,-0.028 0.7064,-0.073 0.78125,-0.094 z"
       id="path3057"
       style="fill:#1a1a1a;fill-opacity:0.29223747;stroke:none"
       inkscape:original="M 49.8125 975.9375 L 47.625 983.59375 C 46.38238 983.65475 45.1465 983.84135 43.90625 984.125 L 39.6875 977.3125 L 35.09375 979.21875 L 37.09375 986.96875 C 36.02304 987.65124 35.00522 988.41042 34.09375 989.25 L 27.03125 985.4375 L 24.03125 989.375 L 29.625 995.09375 C 29.05373 996.19732 28.61918 997.34643 28.25 998.53125 L 20.1875 998.75 L 19.5625 1003.625 L 27.3125 1005.7812 L 27.3125 1005.8125 C 27.3735 1007.0431 27.52641 1008.2717 27.8125 1009.5 L 20.96875 1013.6562 L 22.90625 1018.1875 L 30.6875 1016.25 C 31.37696 1017.3097 32.15172 1018.2862 33 1019.1875 C 33.004 1019.1975 33.02725 1019.1825 33.03125 1019.1875 L 29.1875 1026.1875 L 33.15625 1029.1562 L 38.9375 1023.5938 C 40.05261 1024.1581 41.17778 1024.6357 42.375 1025 L 42.625 1032.9688 L 47.5625 1033.5938 L 49.71875 1025.9062 C 50.96213 1025.8443 52.22803 1025.6901 53.46875 1025.4062 L 57.6875 1032.1875 L 62.28125 1030.2812 L 60.28125 1022.5625 C 61.35151 1021.8804 62.33925 1021.0892 63.25 1020.25 L 70.34375 1024.0625 L 73.34375 1020.125 L 67.71875 1014.4062 C 68.28954 1013.3024 68.75658 1012.1539 69.125 1010.9688 L 77.1875 1010.75 L 77.8125 1005.875 L 70.0625 1003.6875 C 70.0009 1002.4573 69.81771 1001.228 69.53125 1000 L 76.40625 995.84375 L 74.46875 991.3125 L 66.65625 993.28125 C 65.96716 992.22158 65.19136 991.24547 64.34375 990.34375 L 68.1875 983.3125 L 64.21875 980.34375 L 58.4375 985.90625 C 57.32264 985.34112 56.16581 984.86478 54.96875 984.5 L 54.75 976.53125 L 49.8125 975.9375 z M 48.6875 992.75 C 53.408045 992.75199 57.891103 995.51489 59.84375 1000.0938 C 62.44728 1006.199 59.57245 1013.2346 53.40625 1015.8125 C 47.24005 1018.3903 40.10353 1015.5427 37.5 1009.4375 C 34.89647 1003.3324 37.80255 996.26528 43.96875 993.6875 C 45.5103 993.04306 47.113985 992.74934 48.6875 992.75 z "
       inkscape:radius="3.5887308"
       sodipodi:type="inkscape:offset" />
    <path
       style="fill:#e87511;fill-opacity:1;stroke:none"
       d="m 38.098308,1004.8614 1.548016,6.0221 c -0.834656,0.532 -1.61833,1.1367 -2.328853,1.7912 l -5.509449,-2.9713 -2.337708,3.0615 4.363353,4.4604 c -0.445325,0.8603 -0.802126,1.7604 -1.089915,2.684 l -6.274734,0.1703 -0.480966,3.8083 6.027684,1.6805 0.0054,0.014 c 0.04755,0.9593 0.178568,1.9207 0.401586,2.8782 l -5.337492,3.2413 1.50861,3.5375 6.068595,-1.5269 c 0.537458,0.8261 1.142034,1.5895 1.803298,2.2921 0.0031,0.01 0.0024,0.01 0.0054,0.014 l -2.987249,5.4492 3.092026,2.3147 4.499211,-4.334 c 0.869267,0.44 1.769685,0.8147 2.702959,1.0986 l 0.185694,6.207 3.846319,0.4762 1.691505,-5.9817 c 0.969258,-0.048 1.953515,-0.1822 2.920699,-0.4035 l 3.279535,5.2984 3.572991,-1.4938 -1.548016,-6.0221 c 0.834306,-0.5318 1.605164,-1.1313 2.315126,-1.7855 l 5.523177,2.9657 2.337717,-3.0615 -4.37709,-4.4548 c 0.444951,-0.8605 0.816454,-1.7659 1.10365,-2.6897 l 6.274727,-0.1702 0.480965,-3.8084 -6.047219,-1.6884 c -0.04802,-0.959 -0.17828,-1.9208 -0.401585,-2.8781 l 5.351235,-3.2471 -1.508611,-3.5376 -6.082329,1.5327 c -0.537171,-0.8261 -1.142565,-1.5893 -1.803307,-2.2922 l 2.995192,-5.4685 -3.092025,-2.3146 -4.499211,4.3338 c -0.869073,-0.4406 -1.783553,-0.8084 -2.716704,-1.0928 l -0.171949,-6.2126 -3.84632,-0.4762 -1.705248,5.9874 c -0.968666,0.048 -1.940131,0.1765 -2.906948,0.3976 l -3.279544,-5.2983 -3.572998,1.4937 z m 6.915777,11.2811 c 4.80677,-2.0095 10.342201,0.217 12.371744,4.9762 2.029543,4.7594 -0.219206,10.2398 -5.025975,12.2494 -4.806768,2.0095 -10.355943,-0.2113 -12.385486,-4.9705 -2.029543,-4.7592 0.232949,-10.2456 5.039717,-12.2551 z"
       id="path3111"
       inkscape:connector-curvature="0" />
  </g>
</svg>
