<?xml version="1.0" encoding="UTF-8" standalone="no"?>
<!-- Created with Inkscape (http://www.inkscape.org/) -->

<svg
   xmlns:dc="http://purl.org/dc/elements/1.1/"
   xmlns:cc="http://creativecommons.org/ns#"
   xmlns:rdf="http://www.w3.org/1999/02/22-rdf-syntax-ns#"
   xmlns:svg="http://www.w3.org/2000/svg"
   xmlns="http://www.w3.org/2000/svg"
   xmlns:xlink="http://www.w3.org/1999/xlink"
   xmlns:sodipodi="http://sodipodi.sourceforge.net/DTD/sodipodi-0.dtd"
   xmlns:inkscape="http://www.inkscape.org/namespaces/inkscape"
   width="96"
   height="96"
   id="svg2"
   version="1.1"
   inkscape:version="0.48.4 r9939"
   sodipodi:docname="preferences-desktop-cryptography.svg">
  <defs
     id="defs4">
    <linearGradient
       id="linearGradient3769">
      <stop
         style="stop-color:#000000;stop-opacity:0.06153846;"
         offset="0"
         id="stop3771" />
      <stop
         style="stop-color:#000000;stop-opacity:0.37692308;"
         offset="1"
         id="stop3773" />
    </linearGradient>
    <radialGradient
       inkscape:collect="always"
       xlink:href="#linearGradient3769"
       id="radialGradient3775"
       cx="44.9375"
       cy="42.890625"
       fx="44.9375"
       fy="42.890625"
       r="33.78125"
       gradientTransform="matrix(1,0,0,1.0929695,0,-3.9875188)"
       gradientUnits="userSpaceOnUse" />
  </defs>
  <sodipodi:namedview
     id="base"
     pagecolor="#ffffff"
     bordercolor="#666666"
     borderopacity="1.0"
     inkscape:pageopacity="0.0"
     inkscape:pageshadow="2"
     inkscape:zoom="4.1763494"
     inkscape:cx="48"
     inkscape:cy="48"
     inkscape:document-units="px"
     inkscape:current-layer="layer1"
     showgrid="true"
     inkscape:snap-page="true"
     inkscape:snap-global="true"
     inkscape:snap-center="true"
     inkscape:snap-object-midpoints="false"
     showguides="true"
     inkscape:guide-bbox="true"
     inkscape:snap-bbox="true"
     inkscape:object-paths="true"
     inkscape:object-nodes="true"
     inkscape:window-width="1305"
     inkscape:window-height="744"
     inkscape:window-x="61"
     inkscape:window-y="24"
     inkscape:window-maximized="1"
     inkscape:snap-midpoints="false"
     inkscape:snap-grids="true"
     inkscape:snap-to-guides="false">
    <inkscape:grid
       type="xygrid"
       id="grid3002"
       empspacing="5"
       visible="true"
       enabled="true"
       snapvisiblegridlinesonly="true" />
  </sodipodi:namedview>
  <metadata
     id="metadata7">
    <rdf:RDF>
      <cc:Work
         rdf:about="">
        <dc:format>image/svg+xml</dc:format>
        <dc:type
           rdf:resource="http://purl.org/dc/dcmitype/StillImage" />
        <dc:title />
      </cc:Work>
    </rdf:RDF>
  </metadata>
  <g
     inkscape:label="Layer 1"
     inkscape:groupmode="layer"
     id="layer1"
     transform="translate(0,-956.36218)">
    <rect
       style="fill:#ffffff;fill-opacity:0;fill-rule:nonzero;stroke:none"
       id="rect3775"
       width="96"
       height="96"
       x="0"
       y="956.36218"
       ry="0" />
    <path
       style="fill:#000000;fill-opacity:0.09589041;fill-rule:nonzero;stroke:none"
       d="m 3.353015,956.30662 c -1.884176,0 -3.4111555,1.43156 -3.4111555,3.19799 l 0,83.65949 c 0,1.7665 1.5269795,3.1981 3.4111555,3.1981 l 89.23583,0 c 1.884174,0 3.411155,-1.4316 3.411155,-3.1981 l 0,-83.65949 c 0,-1.76643 -1.526981,-3.19799 -3.411155,-3.19799 z"
       id="rect3772"
       inkscape:connector-curvature="0"
       sodipodi:nodetypes="sssssssss" />
    <path
       style="fill:#000000;fill-opacity:0.18721463;fill-rule:nonzero;stroke:none"
       d="m 1.0459761,1041.8066 0,7.4219 c 0,1.7392 1.461916,3.1337 3.2852054,3.1337 l 86.3836135,0 c 1.823288,0 3.285205,-1.3945 3.285205,-3.1337 l 0,-7.4219 -92.9540239,0 z"
       id="rect3785"
       inkscape:connector-curvature="0" />
    <path
       style="fill:#000000;fill-opacity:0.38356168;fill-rule:nonzero;stroke:none"
       d="m 1.0459761,1041.8066 0,5.3807 c 0,1.762 1.461916,3.1749 3.2852054,3.1749 l 86.3836135,0 c 1.823288,0 3.285205,-1.4129 3.285205,-3.1749 l 0,-5.3807 -92.9540239,0 z"
       id="rect3783"
       inkscape:connector-curvature="0" />
    <rect
       style="fill:#f4476b;fill-opacity:1;fill-rule:nonzero;stroke:none"
       id="rect2985"
       width="92.954025"
       height="89"
       x="1.045977"
       y="-1046.3622"
       ry="3.1511393"
       transform="scale(1,-1)" />
    <path
       style="fill:#000000;fill-opacity:0.38356168;fill-rule:nonzero;stroke:none"
       d="m 1,1042.3622 0.045976,2.7457 c 0.03024,1.8058 1.461916,3.2543 3.2852054,3.2543 l 86.3836136,0 c 1.823288,0 3.285205,-1.4481 3.285205,-3.2543 l -0.04598,-2.7457 z"
       id="rect3781"
       inkscape:connector-curvature="0"
       sodipodi:nodetypes="csssscc" />
    <rect
       style="fill:#ffffff;fill-opacity:0.30000001;fill-rule:nonzero;stroke:none"
       id="rect3770"
       width="92.954033"
       height="2.000005"
       x="1.045976"
       y="1040.3622" />
    <path
       style="fill:url(#radialGradient3775);fill-opacity:1;fill-rule:nonzero;stroke:none"
       d="M 45.375 5.96875 L 37.25 7.46875 L 38.25 12.71875 C 35.555679 13.59517 33.042369 14.8432 30.75 16.34375 L 27.25 12.25 L 21 17.625 L 24.5 21.71875 C 22.641634 23.7951 21.039881 26.10705 19.78125 28.59375 L 14.71875 26.78125 L 11.96875 34.53125 L 17.03125 36.34375 C 16.460963 39.02746 16.280087 41.79223 16.4375 44.625 L 11.15625 45.59375 L 12.65625 53.71875 L 17.9375 52.71875 C 18.808827 55.40585 20.009556 57.93135 21.5 60.21875 L 17.4375 63.71875 L 22.78125 69.96875 L 26.875 66.46875 C 28.947 68.33065 31.266451 69.89495 33.75 71.15625 L 31.96875 76.25 L 39.71875 79 L 41.5 73.90625 C 44.175262 74.47445 46.955701 74.7186 49.78125 74.5625 L 50.78125 79.8125 L 58.875 78.3125 L 57.90625 73.03125 C 60.601545 72.15615 63.082332 70.9356 65.375 69.4375 L 68.90625 73.53125 L 75.15625 68.1875 L 71.625 64.09375 C 71.634787 64.082857 71.646478 64.073406 71.65625 64.0625 L 67.375 59.40625 C 63.72835 63.660994 58.651627 66.767297 52.71875 67.875 C 38.929145 70.4496 25.668323 61.352 23.09375 47.5625 C 20.519191 33.77288 29.616645 20.48081 43.40625 17.90625 C 44.699026 17.66488 46.005351 17.51031 47.28125 17.46875 C 56.195628 17.178437 64.459951 21.638164 69.25 28.84375 L 75.15625 25.125 L 78.71875 22.0625 L 73.375 15.8125 L 69.25 19.34375 C 67.185545 17.49344 64.878084 15.91164 62.40625 14.65625 L 64.1875 9.53125 L 56.4375 6.8125 L 54.65625 11.90625 C 51.975471 11.33693 49.175317 11.12338 46.34375 11.28125 L 45.375 5.96875 z M 48.0625 20.3125 C 35.596741 20.3125 25.5 30.440491 25.5 42.90625 C 25.5 55.372009 35.596741 65.46875 48.0625 65.46875 C 60.528259 65.46875 70.65625 55.372009 70.65625 42.90625 C 70.65625 30.440491 60.528259 20.3125 48.0625 20.3125 z M 48.0625 26.21875 C 52.479555 26.21875 56.062503 29.77045 56.0625 34.1875 C 56.062503 36.6337 54.980289 38.84543 53.25 40.3125 L 53.25 42.375 L 50.09375 42.375 L 50.09375 45.46875 L 53.25 45.46875 L 53.25 54.4375 C 53.250031 57.2977 50.922802 59.59375 48.0625 59.59375 C 45.200807 59.59515 42.906276 57.2977 42.90625 54.4375 L 42.90625 52.875 L 46.0625 52.875 L 46.0625 49.75 L 42.90625 49.75 L 42.90625 40.3125 C 41.175912 38.84543 40.062564 36.63363 40.0625 34.1875 C 40.062506 29.77044 43.645445 26.21875 48.0625 26.21875 z "
       transform="translate(0,956.36218)"
       id="path3755" />
    <path
       style="fill:#000000;fill-opacity:0.52511418;fill-rule:nonzero;stroke:none"
       d="M 45.375 5.96875 L 37.25 7.46875 L 37.625 9.40625 L 45.375 7.96875 L 46.34375 13.28125 C 49.175317 13.12338 51.975471 13.33693 54.65625 13.90625 L 56.4375 8.8125 L 63.5625 11.3125 L 64.1875 9.53125 L 56.4375 6.8125 L 54.65625 11.90625 C 51.975471 11.33693 49.175317 11.12338 46.34375 11.28125 L 45.375 5.96875 z M 27.25 12.25 L 21 17.625 L 22 18.78125 L 27.25 14.25 L 30.75 18.34375 C 33.042369 16.8432 35.555679 15.59517 38.25 14.71875 L 37.90625 12.84375 C 35.342835 13.712852 32.943735 14.907764 30.75 16.34375 L 27.25 12.25 z M 63 14.96875 L 62.40625 16.65625 C 64.878084 17.91164 67.185545 19.49344 69.25 21.34375 L 73.375 17.8125 L 77.71875 22.90625 L 78.71875 22.0625 L 73.375 15.8125 L 69.25 19.34375 C 67.3528 17.643345 65.246625 16.170688 63 14.96875 z M 48.0625 20.3125 C 35.596741 20.3125 25.5 30.440491 25.5 42.90625 C 25.5 43.190597 25.520835 43.46821 25.53125 43.75 C 26.135265 31.822737 35.986296 22.3125 48.0625 22.3125 C 60.138704 22.3125 70.019152 31.822737 70.625 43.75 C 70.635447 43.46821 70.65625 43.190597 70.65625 42.90625 C 70.65625 30.440491 60.528259 20.3125 48.0625 20.3125 z M 23.65625 22.71875 C 22.15917 24.530371 20.842389 26.497238 19.78125 28.59375 L 14.71875 26.78125 L 11.96875 34.53125 L 12.59375 34.75 L 14.71875 28.78125 L 19.78125 30.59375 C 21.039881 28.10705 22.641634 25.7951 24.5 23.71875 L 23.65625 22.71875 z M 40.125 35.125 C 40.078726 35.472642 40.0625 35.826859 40.0625 36.1875 C 40.062564 38.63363 41.175912 40.84543 42.90625 42.3125 L 42.90625 40.3125 C 41.399774 39.035232 40.368618 37.194436 40.125 35.125 z M 56 35.125 C 55.762534 37.194468 54.756433 39.035232 53.25 40.3125 L 53.25 42.3125 C 54.980289 40.84543 56.062503 38.6337 56.0625 36.1875 C 56.0625 35.826859 56.046274 35.472641 56 35.125 z M 16.71875 38.21875 C 16.458076 40.021552 16.350129 41.851198 16.40625 43.71875 C 16.459894 41.894091 16.657526 40.102456 17.03125 38.34375 L 16.71875 38.21875 z M 50.09375 42.375 L 50.09375 44.375 L 53.25 44.375 L 53.25 42.375 L 50.09375 42.375 z M 22.6875 44 C 22.623599 45.830619 22.743741 47.68781 23.09375 49.5625 C 25.668323 63.352 38.929145 72.4496 52.71875 69.875 C 58.651627 68.7673 63.72835 65.66105 67.375 61.40625 L 71.65625 66.0625 C 71.64648 66.0735 71.6348 66.08275 71.625 66.09375 L 74.15625 69.03125 L 75.15625 68.1875 L 71.625 64.09375 C 71.634787 64.082857 71.646478 64.073406 71.65625 64.0625 L 67.375 59.40625 C 63.72835 63.660994 58.651627 66.767297 52.71875 67.875 C 38.929145 70.4496 25.668323 61.352 23.09375 47.5625 C 22.870095 46.364578 22.739563 45.183713 22.6875 44 z M 16.375 44.625 L 11.15625 45.59375 L 11.5 47.53125 L 16.4375 46.625 C 16.40046 45.958423 16.373913 45.283873 16.375 44.625 z M 42.90625 49.75 L 42.90625 51.75 L 46.0625 51.75 L 46.0625 49.75 L 42.90625 49.75 z M 53.25 54.4375 C 53.250031 57.2977 50.922802 59.59375 48.0625 59.59375 C 45.348209 59.595078 43.157376 57.528519 42.9375 54.875 L 42.90625 54.875 L 42.90625 56.4375 C 42.906276 59.2977 45.200807 61.59375 48.0625 61.59375 C 50.922802 61.59375 53.250031 59.2977 53.25 56.4375 L 53.25 54.4375 z M 20.6875 60.90625 L 17.4375 63.71875 L 18.4375 64.875 L 21.5 62.21875 C 21.219066 61.787597 20.947582 61.353809 20.6875 60.90625 z M 33.15625 72.84375 L 31.96875 76.25 L 32.59375 76.46875 L 33.75 73.15625 C 33.551399 73.055388 33.35271 72.948484 33.15625 72.84375 z M 58.25 74.90625 C 58.133217 74.94574 58.023847 74.993069 57.90625 75.03125 L 58.53125 78.375 L 58.875 78.3125 L 58.25 74.90625 z "
       transform="translate(0,956.36218)"
       id="path3777" />
    <path
       style="fill:#faa5b6;fill-opacity:0.81278539;fill-rule:nonzero;stroke:none"
       d="M 37.40625 7.4375 L 37.25 7.46875 L 38.125 12 C 38.168733 11.985547 38.206171 11.951757 38.25 11.9375 L 37.40625 7.4375 z M 63.9375 9.4375 L 62.40625 13.875 C 62.481453 13.913194 62.550104 13.961204 62.625 14 L 64.1875 9.53125 L 63.9375 9.4375 z M 47.28125 16.6875 C 46.005351 16.72906 44.699026 16.88363 43.40625 17.125 C 31.077586 19.426798 22.495572 30.305603 22.65625 42.4375 C 22.861336 30.620148 31.340346 20.15899 43.40625 17.90625 C 44.699026 17.66488 46.005351 17.51031 47.28125 17.46875 C 56.195628 17.178437 64.459951 21.638164 69.25 28.84375 L 75.15625 25.125 L 78.71875 22.0625 L 78.34375 21.625 L 75.15625 24.34375 L 69.25 28.0625 C 64.459951 20.85692 56.195628 16.39719 47.28125 16.6875 z M 21.375 17.28125 L 21 17.625 L 24.15625 21.34375 C 24.27143 21.210892 24.382755 21.068497 24.5 20.9375 L 21.375 17.28125 z M 48.0625 25.4375 C 43.645445 25.4375 40.062506 28.98919 40.0625 33.40625 C 40.062502 33.501417 40.090407 33.593072 40.09375 33.6875 C 40.355083 29.508375 43.815489 26.21875 48.0625 26.21875 C 52.309511 26.21875 55.769924 29.508383 56.03125 33.6875 C 56.0345 33.59307 56.0625 33.50142 56.0625 33.40625 C 56.062503 28.9892 52.479555 25.4375 48.0625 25.4375 z M 12.21875 33.84375 L 11.96875 34.53125 L 16.90625 36.3125 C 16.952279 36.063507 16.97863 35.810123 17.03125 35.5625 L 12.21875 33.84375 z M 16.375 42.1875 C 16.366864 42.734449 16.387687 43.291393 16.40625 43.84375 L 16.4375 43.84375 C 16.406362 43.283396 16.379269 42.742428 16.375 42.1875 z M 25.5 42.53125 C 25.497937 42.657012 25.5 42.78 25.5 42.90625 C 25.5 55.372009 35.596741 65.46875 48.0625 65.46875 C 60.528259 65.46875 70.65625 55.372009 70.65625 42.90625 C 70.65625 42.78 70.65832 42.657012 70.65625 42.53125 C 70.443039 54.812921 60.395082 64.6875 48.0625 64.6875 C 35.729918 64.6875 25.712558 54.812921 25.5 42.53125 z M 50.09375 44.6875 L 50.09375 45.46875 L 53.25 45.46875 L 53.25 44.6875 L 50.09375 44.6875 z M 11.28125 45.5625 L 11.15625 45.59375 L 12.65625 53.71875 L 17.9375 52.71875 C 18.746096 55.212394 19.843263 57.564582 21.1875 59.71875 L 21.5 59.4375 C 20.009556 57.1501 18.808827 54.6246 17.9375 51.9375 L 12.65625 52.9375 L 11.28125 45.5625 z M 42.90625 52.09375 L 42.90625 52.875 L 46.0625 52.875 L 46.0625 52.09375 L 42.90625 52.09375 z M 17.8125 63.375 L 17.4375 63.71875 L 22.78125 69.96875 L 26.875 66.46875 C 28.884794 68.274752 31.131893 69.790174 33.53125 71.03125 L 33.75 70.375 C 31.266451 69.1137 28.947 67.5494 26.875 65.6875 L 22.78125 69.1875 L 17.8125 63.375 z M 74.78125 67.75 L 68.90625 72.75 L 65.375 68.65625 C 63.082332 70.15435 60.601545 71.3749 57.90625 72.25 L 58.03125 72.96875 C 60.674922 72.096909 63.120305 70.910787 65.375 69.4375 L 68.90625 73.53125 L 75.15625 68.1875 L 74.78125 67.75 z M 41.5 73.125 L 39.71875 78.21875 L 32.21875 75.5625 L 31.96875 76.25 L 39.71875 79 L 41.5 73.90625 C 44.175262 74.47445 46.955701 74.7186 49.78125 74.5625 L 50.78125 79.8125 L 58.875 78.3125 L 58.75 77.5625 L 50.78125 79.03125 L 49.78125 73.78125 C 46.955701 73.93735 44.175262 73.6932 41.5 73.125 z "
       transform="translate(0,956.36218)"
       id="path3795" />
  </g>
</svg>
