<?xml version="1.0" encoding="UTF-8" standalone="no"?>
<!-- Created with Inkscape (http://www.inkscape.org/) -->

<svg
   xmlns:dc="http://purl.org/dc/elements/1.1/"
   xmlns:cc="http://creativecommons.org/ns#"
   xmlns:rdf="http://www.w3.org/1999/02/22-rdf-syntax-ns#"
   xmlns:svg="http://www.w3.org/2000/svg"
   xmlns="http://www.w3.org/2000/svg"
   xmlns:xlink="http://www.w3.org/1999/xlink"
   xmlns:sodipodi="http://sodipodi.sourceforge.net/DTD/sodipodi-0.dtd"
   xmlns:inkscape="http://www.inkscape.org/namespaces/inkscape"
   width="96"
   height="96"
   id="svg2"
   version="1.1"
   inkscape:version="0.48.4 r9939"
   sodipodi:docname="preferences-desktop-keyboard-shortcuts.svg">
  <defs
     id="defs4">
    <linearGradient
       id="linearGradient3858">
      <stop
         style="stop-color:#d60270;stop-opacity:1;"
         offset="0"
         id="stop3860" />
      <stop
         style="stop-color:#d60228;stop-opacity:1;"
         offset="1"
         id="stop3862" />
    </linearGradient>
    <linearGradient
       inkscape:collect="always"
       xlink:href="#linearGradient3858"
       id="linearGradient3864"
       x1="40"
       y1="1047.3622"
       x2="40"
       y2="957.36218"
       gradientUnits="userSpaceOnUse" />
  </defs>
  <sodipodi:namedview
     id="base"
     pagecolor="#ffffff"
     bordercolor="#666666"
     borderopacity="1.0"
     inkscape:pageopacity="0.0"
     inkscape:pageshadow="2"
     inkscape:zoom="9.5804423"
     inkscape:cx="43.943529"
     inkscape:cy="85.874377"
     inkscape:document-units="px"
     inkscape:current-layer="layer1"
     showgrid="true"
     inkscape:snap-page="true"
     inkscape:snap-global="true"
     inkscape:snap-center="true"
     inkscape:snap-object-midpoints="false"
     showguides="true"
     inkscape:guide-bbox="true"
     inkscape:snap-bbox="true"
     inkscape:object-paths="true"
     inkscape:object-nodes="true"
     inkscape:window-width="1305"
     inkscape:window-height="744"
     inkscape:window-x="61"
     inkscape:window-y="24"
     inkscape:window-maximized="1"
     inkscape:snap-midpoints="false"
     inkscape:snap-grids="true"
     inkscape:snap-to-guides="false">
    <inkscape:grid
       type="xygrid"
       id="grid3002"
       empspacing="5"
       visible="true"
       enabled="true"
       snapvisiblegridlinesonly="true" />
  </sodipodi:namedview>
  <metadata
     id="metadata7">
    <rdf:RDF>
      <cc:Work
         rdf:about="">
        <dc:format>image/svg+xml</dc:format>
        <dc:type
           rdf:resource="http://purl.org/dc/dcmitype/StillImage" />
        <dc:title />
      </cc:Work>
    </rdf:RDF>
  </metadata>
  <g
     inkscape:label="Layer 1"
     inkscape:groupmode="layer"
     id="layer1"
     transform="translate(0,-956.36218)">
    <rect
       style="fill:#ffffff;fill-opacity:0;fill-rule:nonzero;stroke:none"
       id="rect3775"
       width="96"
       height="96"
       x="0"
       y="956.36218"
       ry="0" />
    <path
       style="fill:#000000;fill-opacity:0.09589041;fill-rule:nonzero;stroke:none"
       d="m 3.353015,956.30662 c -1.884176,0 -3.4111555,1.43156 -3.4111555,3.19799 l 0,83.65949 c 0,1.7665 1.5269795,3.1981 3.4111555,3.1981 l 89.23583,0 c 1.884174,0 3.411155,-1.4316 3.411155,-3.1981 l 0,-83.65949 c 0,-1.76643 -1.526981,-3.19799 -3.411155,-3.19799 z"
       id="rect3772"
       inkscape:connector-curvature="0"
       sodipodi:nodetypes="sssssssss" />
    <path
       style="fill:#000000;fill-opacity:0.18721463;fill-rule:nonzero;stroke:none"
       d="m 1.0459761,1041.8066 0,7.4219 c 0,1.7392 1.461916,3.1337 3.2852054,3.1337 l 86.3836135,0 c 1.823288,0 3.285205,-1.3945 3.285205,-3.1337 l 0,-7.4219 -92.9540239,0 z"
       id="rect3785"
       inkscape:connector-curvature="0" />
    <path
       style="fill:#000000;fill-opacity:0.38356168;fill-rule:nonzero;stroke:none"
       d="m 1.0459761,1041.8066 0,5.3807 c 0,1.762 1.461916,3.1749 3.2852054,3.1749 l 86.3836135,0 c 1.823288,0 3.285205,-1.4129 3.285205,-3.1749 l 0,-5.3807 -92.9540239,0 z"
       id="rect3783"
       inkscape:connector-curvature="0" />
    <rect
       style="fill:url(#linearGradient3864);fill-opacity:1;fill-rule:nonzero;stroke:none"
       id="rect2985"
       width="92.954025"
       height="89"
       x="1.045977"
       y="957.36218"
       ry="3.1511393" />
    <path
       style="fill:#000000;fill-opacity:0.38356168;fill-rule:nonzero;stroke:none"
       d="m 1,1042.3622 0.045976,2.7457 c 0.03024,1.8058 1.461916,3.2543 3.2852054,3.2543 l 86.3836136,0 c 1.823288,0 3.285205,-1.4481 3.285205,-3.2543 l -0.04598,-2.7457 z"
       id="rect3781"
       inkscape:connector-curvature="0"
       sodipodi:nodetypes="csssscc" />
    <rect
       style="fill:#ffffff;fill-opacity:0.30000001;fill-rule:nonzero;stroke:none"
       id="rect3770"
       width="92.954033"
       height="2.000005"
       x="1.045976"
       y="1040.3622" />
    <rect
       style="fill:#000000;fill-opacity:0.84931505;fill-rule:nonzero;stroke:none"
       id="rect2996"
       width="78"
       height="45.999996"
       x="8"
       y="975.36218" />
    <rect
       style="fill:#fff9fb;fill-opacity:1;fill-rule:nonzero;stroke:none"
       id="rect2998"
       width="6"
       height="6"
       x="12"
       y="23"
       transform="translate(0,956.36218)"
       ry="1" />
    <rect
       ry="1"
       y="979.36218"
       x="20"
       height="6"
       width="6"
       id="rect3768"
       style="fill:#fff9fb;fill-opacity:1;fill-rule:nonzero;stroke:none" />
    <rect
       style="fill:#fff9fb;fill-opacity:1;fill-rule:nonzero;stroke:none"
       id="rect3771"
       width="6"
       height="6"
       x="28"
       y="979.36218"
       ry="1" />
    <rect
       ry="1"
       y="979.36218"
       x="36"
       height="6"
       width="6"
       id="rect3773"
       style="fill:#fff9fb;fill-opacity:1;fill-rule:nonzero;stroke:none" />
    <rect
       style="fill:#fff9fb;fill-opacity:1;fill-rule:nonzero;stroke:none"
       id="rect3776"
       width="6"
       height="6"
       x="44"
       y="979.36218"
       ry="1" />
    <rect
       ry="1"
       y="979.36218"
       x="52"
       height="6"
       width="6"
       id="rect3778"
       style="fill:#fff9fb;fill-opacity:1;fill-rule:nonzero;stroke:none" />
    <rect
       style="fill:#fff9fb;fill-opacity:1;fill-rule:nonzero;stroke:none"
       id="rect3780"
       width="6"
       height="6"
       x="60"
       y="979.36218"
       ry="1" />
    <rect
       ry="1"
       y="979.36218"
       x="68"
       height="6"
       width="6"
       id="rect3782"
       style="fill:#fff9fb;fill-opacity:1;fill-rule:nonzero;stroke:none" />
    <rect
       style="fill:#fff9fb;fill-opacity:1;fill-rule:nonzero;stroke:none"
       id="rect3784"
       width="6"
       height="6"
       x="76"
       y="979.36218"
       ry="1" />
    <rect
       ry="1"
       y="987.36218"
       x="12"
       height="6"
       width="6"
       id="rect3786"
       style="fill:#fff9fb;fill-opacity:1;fill-rule:nonzero;stroke:none" />
    <rect
       style="fill:#fff9fb;fill-opacity:1;fill-rule:nonzero;stroke:none"
       id="rect3788"
       width="6"
       height="6"
       x="20"
       y="987.36218"
       ry="1" />
    <rect
       ry="1"
       y="987.36218"
       x="28"
       height="6"
       width="6"
       id="rect3790"
       style="fill:#fff9fb;fill-opacity:1;fill-rule:nonzero;stroke:none" />
    <rect
       style="fill:#fff9fb;fill-opacity:1;fill-rule:nonzero;stroke:none"
       id="rect3792"
       width="6"
       height="6"
       x="36"
       y="987.36218"
       ry="1" />
    <rect
       ry="1"
       y="987.36218"
       x="44"
       height="6"
       width="6"
       id="rect3794"
       style="fill:#fff9fb;fill-opacity:1;fill-rule:nonzero;stroke:none" />
    <rect
       style="fill:#fff9fb;fill-opacity:1;fill-rule:nonzero;stroke:none"
       id="rect3796"
       width="6"
       height="6"
       x="52"
       y="987.36218"
       ry="1" />
    <rect
       ry="1"
       y="987.36218"
       x="60"
       height="6"
       width="6"
       id="rect3798"
       style="fill:#fff9fb;fill-opacity:1;fill-rule:nonzero;stroke:none" />
    <rect
       style="fill:#fff9fb;fill-opacity:1;fill-rule:nonzero;stroke:none"
       id="rect3800"
       width="6"
       height="6"
       x="68"
       y="987.36218"
       ry="1" />
    <rect
       ry="1"
       y="987.36218"
       x="76"
       height="6"
       width="6"
       id="rect3802"
       style="fill:#fff9fb;fill-opacity:1;fill-rule:nonzero;stroke:none" />
    <rect
       style="fill:#fff9fb;fill-opacity:1;fill-rule:nonzero;stroke:none"
       id="rect3804"
       width="6"
       height="6"
       x="12"
       y="995.36218"
       ry="1" />
    <rect
       ry="1"
       y="995.36218"
       x="20"
       height="6"
       width="6"
       id="rect3806"
       style="fill:#fff9fb;fill-opacity:1;fill-rule:nonzero;stroke:none" />
    <rect
       style="fill:#fff9fb;fill-opacity:1;fill-rule:nonzero;stroke:none"
       id="rect3808"
       width="6"
       height="6"
       x="28"
       y="995.36218"
       ry="1" />
    <rect
       ry="1"
       y="995.36218"
       x="36"
       height="6"
       width="6"
       id="rect3810"
       style="fill:#fff9fb;fill-opacity:1;fill-rule:nonzero;stroke:none" />
    <rect
       style="fill:#fff9fb;fill-opacity:1;fill-rule:nonzero;stroke:none"
       id="rect3812"
       width="6"
       height="6"
       x="44"
       y="995.36218"
       ry="1" />
    <rect
       ry="1"
       y="995.36218"
       x="52"
       height="6"
       width="6"
       id="rect3814"
       style="fill:#fff9fb;fill-opacity:1;fill-rule:nonzero;stroke:none" />
    <rect
       style="fill:#fff9fb;fill-opacity:1;fill-rule:nonzero;stroke:none"
       id="rect3816"
       width="6"
       height="6"
       x="60"
       y="995.36218"
       ry="1" />
    <rect
       style="fill:#fff9fb;fill-opacity:1;fill-rule:nonzero;stroke:none"
       id="rect3820"
       width="14"
       height="6"
       x="68"
       y="995.36218"
       ry="1"
       rx="1" />
    <rect
       ry="1"
       y="1003.3622"
       x="12"
       height="6"
       width="14"
       id="rect3822"
       style="fill:#fff9fb;fill-opacity:1;fill-rule:nonzero;stroke:none"
       rx="1" />
    <rect
       ry="1"
       y="1003.3622"
       x="28"
       height="6"
       width="6"
       id="rect3826"
       style="fill:#fff9fb;fill-opacity:1;fill-rule:nonzero;stroke:none" />
    <rect
       style="fill:#fff9fb;fill-opacity:1;fill-rule:nonzero;stroke:none"
       id="rect3828"
       width="6"
       height="6"
       x="36"
       y="1003.3622"
       ry="1" />
    <rect
       ry="1"
       y="1003.3622"
       x="44"
       height="6"
       width="6"
       id="rect3830"
       style="fill:#fff9fb;fill-opacity:1;fill-rule:nonzero;stroke:none" />
    <rect
       style="fill:#fff9fb;fill-opacity:1;fill-rule:nonzero;stroke:none"
       id="rect3832"
       width="6"
       height="6"
       x="52"
       y="1003.3622"
       ry="1" />
    <rect
       ry="1"
       y="1003.3622"
       x="60"
       height="6"
       width="22"
       id="rect3838"
       style="fill:#fff9fb;fill-opacity:1;fill-rule:nonzero;stroke:none"
       rx="1" />
    <rect
       style="fill:#fff9fb;fill-opacity:1;fill-rule:nonzero;stroke:none"
       id="rect3840"
       width="6"
       height="6"
       x="12"
       y="1011.3622"
       ry="1" />
    <rect
       ry="1"
       y="1011.3622"
       x="20"
       height="6"
       width="6"
       id="rect3842"
       style="fill:#fff9fb;fill-opacity:1;fill-rule:nonzero;stroke:none" />
    <rect
       style="fill:#fff9fb;fill-opacity:1;fill-rule:nonzero;stroke:none"
       id="rect3844"
       width="38"
       height="6"
       x="28"
       y="1011.3622"
       ry="1"
       rx="1" />
    <rect
       ry="1"
       y="1011.3622"
       x="68"
       height="6"
       width="6"
       id="rect3854"
       style="fill:#fff9fb;fill-opacity:1;fill-rule:nonzero;stroke:none" />
    <rect
       style="fill:#fff9fb;fill-opacity:1;fill-rule:nonzero;stroke:none"
       id="rect3856"
       width="6"
       height="6"
       x="76"
       y="1011.3622"
       ry="1" />
    <rect
       style="fill:#ffffff;fill-opacity:0.15686275;fill-rule:nonzero;stroke:none"
       id="rect3866"
       width="7"
       height="46"
       x="1"
       y="19"
       transform="translate(0,956.36218)" />
    <rect
       y="975.36218"
       x="86"
       height="46"
       width="8"
       id="rect3868"
       style="fill:#ffffff;fill-opacity:0.15686275;fill-rule:nonzero;stroke:none" />
  </g>
</svg>
