<?xml version="1.0" encoding="UTF-8" standalone="no"?>
<!-- Created with Inkscape (http://www.inkscape.org/) -->

<svg
   xmlns:dc="http://purl.org/dc/elements/1.1/"
   xmlns:cc="http://creativecommons.org/ns#"
   xmlns:rdf="http://www.w3.org/1999/02/22-rdf-syntax-ns#"
   xmlns:svg="http://www.w3.org/2000/svg"
   xmlns="http://www.w3.org/2000/svg"
   xmlns:xlink="http://www.w3.org/1999/xlink"
   xmlns:sodipodi="http://sodipodi.sourceforge.net/DTD/sodipodi-0.dtd"
   xmlns:inkscape="http://www.inkscape.org/namespaces/inkscape"
   width="96"
   height="96"
   id="svg2"
   version="1.1"
   inkscape:version="0.48.4 r9939"
   sodipodi:docname="preferences-color.svg">
  <defs
     id="defs4">
    <linearGradient
       id="linearGradient3955">
      <stop
         id="stop3957"
         offset="0"
         style="stop-color:#ff0000;stop-opacity:1;" />
      <stop
         style="stop-color:#ff7900;stop-opacity:1;"
         offset="0.15665583"
         id="stop3959" />
      <stop
         style="stop-color:#fff400;stop-opacity:1;"
         offset="0.28385335"
         id="stop3961" />
      <stop
         style="stop-color:#22ff00;stop-opacity:1;"
         offset="0.46185067"
         id="stop3963" />
      <stop
         style="stop-color:#00f7ff;stop-opacity:1;"
         offset="0.65899205"
         id="stop3965" />
      <stop
         id="stop3967"
         offset="0.86177558"
         style="stop-color:#0008fc;stop-opacity:1;" />
      <stop
         id="stop3969"
         offset="1"
         style="stop-color:#ff00c6;stop-opacity:1;" />
    </linearGradient>
    <linearGradient
       id="linearGradient3769">
      <stop
         style="stop-color:#30383a;stop-opacity:1;"
         offset="0"
         id="stop3771" />
      <stop
         style="stop-color:#5c5c5c;stop-opacity:1;"
         offset="1"
         id="stop3774" />
    </linearGradient>
    <linearGradient
       inkscape:collect="always"
       xlink:href="#linearGradient3769"
       id="linearGradient3776"
       x1="30"
       y1="1047.3622"
       x2="30"
       y2="957.36218"
       gradientUnits="userSpaceOnUse" />
    <linearGradient
       inkscape:collect="always"
       xlink:href="#linearGradient3955"
       id="linearGradient3971"
       x1="21.870867"
       y1="58.407406"
       x2="68.711143"
       y2="26.407408"
       gradientUnits="userSpaceOnUse"
       gradientTransform="matrix(0.98406657,0,0,0.98260026,0.27028873,955.11038)" />
  </defs>
  <sodipodi:namedview
     id="base"
     pagecolor="#ffffff"
     bordercolor="#666666"
     borderopacity="1.0"
     inkscape:pageopacity="0.0"
     inkscape:pageshadow="2"
     inkscape:zoom="5.90625"
     inkscape:cx="34.470848"
     inkscape:cy="48"
     inkscape:document-units="px"
     inkscape:current-layer="layer1"
     showgrid="true"
     inkscape:snap-page="true"
     inkscape:snap-global="false"
     inkscape:snap-center="true"
     inkscape:snap-object-midpoints="false"
     showguides="true"
     inkscape:guide-bbox="true"
     inkscape:snap-bbox="true"
     inkscape:object-paths="true"
     inkscape:object-nodes="true"
     inkscape:window-width="1305"
     inkscape:window-height="744"
     inkscape:window-x="61"
     inkscape:window-y="24"
     inkscape:window-maximized="1"
     inkscape:snap-midpoints="false"
     inkscape:snap-grids="true"
     inkscape:snap-to-guides="false">
    <inkscape:grid
       type="xygrid"
       id="grid3002"
       empspacing="5"
       visible="true"
       enabled="true"
       snapvisiblegridlinesonly="true" />
  </sodipodi:namedview>
  <metadata
     id="metadata7">
    <rdf:RDF>
      <cc:Work
         rdf:about="">
        <dc:format>image/svg+xml</dc:format>
        <dc:type
           rdf:resource="http://purl.org/dc/dcmitype/StillImage" />
        <dc:title />
      </cc:Work>
    </rdf:RDF>
  </metadata>
  <g
     inkscape:label="Layer 1"
     inkscape:groupmode="layer"
     id="layer1"
     transform="translate(0,-956.36218)">
    <rect
       style="fill:#ffffff;fill-opacity:0;fill-rule:nonzero;stroke:none"
       id="rect3775"
       width="96"
       height="96"
       x="0"
       y="956.36218"
       ry="0" />
    <path
       style="fill:#000000;fill-opacity:0.09589041;fill-rule:nonzero;stroke:none"
       d="m 3.353015,956.30662 c -1.884176,0 -3.4111555,1.43156 -3.4111555,3.19799 l 0,83.65949 c 0,1.7665 1.5269795,3.1981 3.4111555,3.1981 l 89.23583,0 c 1.884174,0 3.411155,-1.4316 3.411155,-3.1981 l 0,-83.65949 c 0,-1.76643 -1.526981,-3.19799 -3.411155,-3.19799 z"
       id="rect3772"
       inkscape:connector-curvature="0"
       sodipodi:nodetypes="sssssssss" />
    <path
       style="fill:#000000;fill-opacity:0.18721463;fill-rule:nonzero;stroke:none"
       d="m 1.0459761,1041.8066 0,7.4219 c 0,1.7392 1.461916,3.1337 3.2852054,3.1337 l 86.3836135,0 c 1.823288,0 3.285205,-1.3945 3.285205,-3.1337 l 0,-7.4219 -92.9540239,0 z"
       id="rect3785"
       inkscape:connector-curvature="0" />
    <path
       style="fill:#000000;fill-opacity:0.38356168;fill-rule:nonzero;stroke:none"
       d="m 1.0459761,1041.8066 0,5.3807 c 0,1.762 1.461916,3.1749 3.2852054,3.1749 l 86.3836135,0 c 1.823288,0 3.285205,-1.4129 3.285205,-3.1749 l 0,-5.3807 -92.9540239,0 z"
       id="rect3783"
       inkscape:connector-curvature="0" />
    <rect
       style="fill:url(#linearGradient3776);fill-opacity:1;fill-rule:nonzero;stroke:none"
       id="rect2985"
       width="92.954025"
       height="89"
       x="1.045977"
       y="957.36218"
       ry="3.1511393" />
    <path
       style="fill:#000000;fill-opacity:0.38356168;fill-rule:nonzero;stroke:none"
       d="m 1,1042.3622 0.045976,2.7457 c 0.03024,1.8058 1.461916,3.2543 3.2852054,3.2543 l 86.3836136,0 c 1.823288,0 3.285205,-1.4481 3.285205,-3.2543 l -0.04598,-2.7457 z"
       id="rect3781"
       inkscape:connector-curvature="0"
       sodipodi:nodetypes="csssscc" />
    <rect
       style="fill:#ffffff;fill-opacity:0.17351598;fill-rule:nonzero;stroke:none"
       id="rect3770"
       width="92.954033"
       height="2.000005"
       x="1.045976"
       y="1040.3622" />
    <path
       style="fill:url(#linearGradient3971);fill-opacity:1;fill-rule:nonzero;stroke:none"
       d="m 47.505482,967.36218 c -2.212876,0 -3.997769,1.78224 -3.997769,3.99182 0,2.20958 1.784893,4.02251 3.997769,4.02251 2.212883,0 3.997771,-1.81293 3.997771,-4.02251 0,-2.20958 -1.784888,-3.99182 -3.997771,-3.99182 z m -12.731361,3.50052 c -0.769822,-0.0543 -1.556998,0.1077 -2.275654,0.52201 -1.916405,1.10477 -2.582539,3.55217 -1.4761,5.4657 1.106443,1.91357 3.557464,2.57868 5.473871,1.4739 1.916413,-1.10479 2.582541,-3.55216 1.476099,-5.46571 -0.691522,-1.19597 -1.915177,-1.90537 -3.198216,-1.9959 z m 25.462723,0 c -1.283041,0.0906 -2.506697,0.79994 -3.198216,1.9959 -1.106434,1.91354 -0.440313,4.36093 1.476099,5.46571 1.916406,1.10478 4.367437,0.43965 5.47387,-1.4739 1.106433,-1.91352 0.440306,-4.36092 -1.476098,-5.4657 -0.718656,-0.41431 -1.505829,-0.57634 -2.275655,-0.52201 z m -12.731362,6.97031 c -1.755635,0 -3.167463,1.37902 -3.167463,3.13204 0,1.75302 1.411828,3.16275 3.167463,3.16275 1.755647,0 3.167465,-1.40973 3.167465,-3.16275 0,-1.75302 -1.411818,-3.13204 -3.167465,-3.13204 z m -7.99554,2.18014 c -0.605107,-0.0415 -1.213458,0.10121 -1.78362,0.4299 -1.520425,0.87652 -2.046399,2.78072 -1.168579,4.29887 0.877817,1.51816 2.784865,2.04334 4.305291,1.16684 1.520434,-0.87651 2.046396,-2.81141 1.168579,-4.32958 -0.548639,-0.94884 -1.513161,-1.4967 -2.521671,-1.56603 z m 15.991082,0 c -1.008512,0.0693 -1.973038,0.6172 -2.521671,1.56603 -0.877821,1.51817 -0.351856,3.45308 1.168579,4.32958 1.520427,0.87651 3.427473,0.35132 4.305291,-1.16684 0.877813,-1.51814 0.351846,-3.42236 -1.168579,-4.29887 -0.570163,-0.32869 -1.178513,-0.47148 -1.78362,-0.4299 z m -30.813584,0.36848 c -1.283039,0.0905 -2.50669,0.79994 -3.198216,1.99591 -1.106439,1.91355 -0.440307,4.36092 1.4761,5.46572 1.916411,1.10479 4.36743,0.43964 5.47387,-1.4739 1.106441,-1.91356 0.440313,-4.36092 -1.4761,-5.46572 -0.718652,-0.41428 -1.505831,-0.57634 -2.275654,-0.52201 z m 44.867284,0 c -0.516519,0.0639 -1.027753,0.24581 -1.506852,0.52201 -1.916397,1.10478 -2.582541,3.55216 -1.4761,5.46572 1.106439,1.91354 3.557474,2.57869 5.473869,1.4739 1.916398,-1.10479 2.582538,-3.55217 1.476101,-5.46572 -0.829831,-1.43517 -2.417465,-2.1879 -3.967018,-1.99591 z m -36.502719,5.64996 c -1.008509,0.0693 -1.942279,0.61715 -2.490917,1.56601 -0.87782,1.51817 -0.382603,3.42236 1.137827,4.29888 1.520426,0.87651 3.458223,0.35132 4.336043,-1.16684 0.877822,-1.51818 0.351847,-3.42236 -1.16858,-4.29887 -0.57016,-0.3287 -1.209267,-0.44077 -1.814373,-0.39918 z m 28.291913,0 c -0.406776,0.0516 -0.819228,0.18006 -1.19933,0.39918 -1.520428,0.87651 -2.046403,2.78069 -1.16858,4.29887 0.877819,1.51816 2.815616,2.04335 4.336043,1.16684 1.520417,-0.87651 2.015646,-2.78071 1.137827,-4.29888 -0.658367,-1.13862 -1.885627,-1.72075 -3.10596,-1.56601 z m -13.838436,0.82907 c -1.202928,0 -2.121894,0.91768 -2.121894,2.11873 0,1.20118 0.918926,2.11873 2.121894,2.11873 1.202977,0 2.121895,-0.91755 2.121895,-2.11873 0,-1.20105 -0.918879,-2.11864 -2.121895,-2.11873 z m -4.45905,1.10542 c -0.274452,0.0365 -0.539085,0.12622 -0.799554,0.27635 -1.041767,0.60059 -1.40097,1.87697 -0.799556,2.91711 0.601495,1.04027 1.879648,1.36823 2.921449,0.76764 1.041807,-0.60058 1.370297,-1.84612 0.768803,-2.88639 -0.451063,-0.78008 -1.267789,-1.18414 -2.091142,-1.07471 z m 8.518326,0 c -0.67766,0.0439 -1.315481,0.42464 -1.691366,1.07471 -0.601495,1.04027 -0.273005,2.28581 0.768803,2.88639 1.041802,0.60059 2.319951,0.27263 2.921448,-0.76764 0.601415,-1.04013 0.242211,-2.31653 -0.799555,-2.91711 -0.390705,-0.22519 -0.792735,-0.30271 -1.19933,-0.27635 z m -11.501279,3.07062 c -0.677637,0.0439 -1.315378,0.42456 -1.691363,1.07473 -0.601466,1.04021 -0.242129,2.28586 0.799552,2.88638 1.041823,0.60062 2.289213,0.27259 2.890697,-0.76765 0.601488,-1.04026 0.27302,-2.31649 -0.768803,-2.91709 -0.390631,-0.2252 -0.823502,-0.3027 -1.230083,-0.27637 z m 14.453477,0 c -0.274428,0.0365 -0.539133,0.12624 -0.799552,0.27637 -1.041823,0.6006 -1.370292,1.87683 -0.768803,2.91709 0.601484,1.04024 1.848874,1.36827 2.890695,0.76765 1.041683,-0.60052 1.401017,-1.84617 0.799554,-2.88638 -0.451185,-0.78019 -1.298606,-1.18418 -2.121894,-1.07473 z m -33.058485,2.33368 c -2.212878,0 -3.99777,1.78223 -3.99777,3.99182 0,2.20959 1.784892,3.9918 3.99777,3.9918 2.212881,0 4.028522,-1.78221 4.028522,-3.9918 0,-2.20959 -1.815641,-3.99182 -4.028522,-3.99182 z m 52.094024,0 c -2.212865,0 -4.028523,1.78223 -4.028523,3.99182 0,2.20959 1.815658,3.9918 4.028523,3.9918 2.212863,0 3.99777,-1.78221 3.99777,-3.9918 0,-2.20959 -1.784907,-3.99182 -3.99777,-3.99182 z m -42.468623,0.82906 c -1.755638,0 -3.136712,1.40972 -3.136712,3.16276 0,1.75299 1.381074,3.1628 3.136712,3.1628 1.755637,0 3.167465,-1.40981 3.167465,-3.1628 0,-1.75304 -1.411828,-3.16276 -3.167465,-3.16276 z m 32.843221,0 c -1.755639,0 -3.167464,1.40972 -3.167464,3.16276 0,1.75299 1.411825,3.1628 3.167464,3.1628 1.755624,0 3.136713,-1.40981 3.136713,-3.1628 0,-1.75304 -1.381089,-3.16276 -3.136713,-3.16276 z m -16.421611,0.18425 c -0.294985,0 -0.530621,0.0999 -0.707297,0.27635 -0.248268,-0.0749 -0.53446,-0.03 -0.799554,0.12283 -0.265232,0.1529 -0.402156,0.36184 -0.461282,0.61413 -0.252655,0.0591 -0.461906,0.19576 -0.61504,0.46059 -0.15305,0.26469 -0.197976,0.55046 -0.123008,0.79835 -0.176678,0.17643 -0.27677,0.41172 -0.27677,0.70626 0,0.29454 0.100092,0.52982 0.27677,0.70625 -0.07496,0.24789 -0.03003,0.53366 0.123008,0.79835 0.153132,0.26483 0.362385,0.40156 0.61504,0.46059 0.05912,0.25227 0.196044,0.46122 0.461282,0.61416 0.265089,0.15275 0.551285,0.19765 0.799554,0.12285 0.176676,0.1764 0.412312,0.2763 0.707297,0.2763 0.29499,0 0.530623,-0.1 0.707298,-0.2763 0.248269,0.074 0.534466,0.029 0.799555,-0.12285 0.265237,-0.15294 0.402156,-0.36189 0.461281,-0.61416 0.252656,-0.0591 0.461909,-0.19576 0.615041,-0.46059 0.153053,-0.26469 0.197975,-0.55046 0.123008,-0.79835 0.176678,-0.17643 0.276768,-0.41171 0.276768,-0.70625 0,-0.29454 -0.10009,-0.52983 -0.276768,-0.70626 0.07496,-0.24789 0.03002,-0.53366 -0.123008,-0.79835 -0.153134,-0.26483 -0.362386,-0.40156 -0.615041,-0.46059 -0.05912,-0.25229 -0.196048,-0.46123 -0.461281,-0.61413 -0.265093,-0.15282 -0.551287,-0.19768 -0.799555,-0.12283 -0.176675,-0.17641 -0.412308,-0.27635 -0.707298,-0.27635 z m -8.395316,0.85977 c -1.202832,0 -2.121813,0.91752 -2.121894,2.11874 0,1.20116 0.919062,2.11873 2.121894,2.11873 1.202991,0 2.121891,-0.91757 2.121891,-2.11873 0,-1.20119 -0.9189,-2.11874 -2.121891,-2.11874 z m 16.790634,0 c -1.202992,0 -2.121893,0.91755 -2.121893,2.11874 0,1.20116 0.918901,2.11873 2.121893,2.11873 1.202832,0 2.121893,-0.91757 2.121893,-2.11873 -8.1e-5,-1.20122 -0.919061,-2.11874 -2.121893,-2.11874 z m -8.672085,1.07472 c 0.09008,0.0233 0.174836,0.0614 0.276767,0.0614 0.101935,0 0.186688,-0.0382 0.276769,-0.0614 0.06596,0.0645 0.127744,0.13378 0.215265,0.18424 0.08692,0.0502 0.188447,0.0673 0.276769,0.0921 0.02482,0.0882 0.04207,0.18957 0.09226,0.27635 0.05055,0.0874 0.119905,0.1491 0.184512,0.21495 -0.02336,0.0899 -0.06151,0.17458 -0.06151,0.27635 0,0.10178 0.03814,0.18641 0.06151,0.27636 -0.0646,0.0658 -0.133982,0.12755 -0.184512,0.21495 -0.05019,0.0867 -0.06744,0.18815 -0.09226,0.27635 -0.08832,0.0248 -0.189846,0.042 -0.276769,0.0921 -0.08752,0.0506 -0.149311,0.11973 -0.215265,0.18424 -0.09008,-0.0233 -0.174834,-0.0614 -0.276769,-0.0614 -0.101931,0 -0.186687,0.0382 -0.276767,0.0614 -0.06596,-0.0645 -0.127747,-0.13378 -0.215266,-0.18424 -0.08692,-0.0502 -0.188445,-0.0673 -0.276768,-0.0921 -0.02482,-0.0882 -0.04207,-0.18956 -0.09226,-0.27635 -0.05055,-0.0874 -0.119906,-0.1491 -0.184514,-0.21495 0.02336,-0.0899 0.06151,-0.17458 0.06151,-0.27636 0,-0.10177 -0.03814,-0.1864 -0.06151,-0.27635 0.06459,-0.0658 0.133984,-0.12755 0.184514,-0.21495 0.05019,-0.0868 0.06744,-0.18816 0.09226,-0.27635 0.08832,-0.0248 0.189847,-0.0419 0.276768,-0.0921 0.08753,-0.0505 0.149312,-0.11973 0.215266,-0.18424 z M 40.371,999.41952 c -0.406588,-0.0263 -0.808649,0.0818 -1.199332,0.30714 -1.041683,0.60034 -1.400991,1.84594 -0.799552,2.88624 0.601461,1.0402 1.879765,1.399 2.921446,0.7983 1.041822,-0.6004 1.370287,-1.8767 0.768803,-2.9169 -0.37593,-0.65018 -1.013717,-1.03087 -1.691365,-1.07478 z m 14.268966,0 c -0.677649,0.0439 -1.315435,0.4246 -1.691365,1.07478 -0.601484,1.0402 -0.273019,2.3165 0.768803,2.9169 1.041682,0.6007 2.319982,0.2419 2.921446,-0.7983 0.601437,-1.0403 0.242129,-2.2859 -0.799554,-2.88624 -0.390683,-0.22529 -0.792742,-0.33349 -1.19933,-0.30714 z m -21.126679,2.97848 c -0.605107,-0.041 -1.244213,0.1011 -1.814372,0.43 -1.520428,0.8764 -2.015651,2.7807 -1.137827,4.2988 0.877817,1.5182 2.784862,2.0434 4.30529,1.1668 1.520427,-0.8764 2.046397,-2.7807 1.16858,-4.2988 -0.548639,-0.9489 -1.51316,-1.5274 -2.521671,-1.5968 z m 27.984392,0 c -1.008511,0.068 -1.973032,0.648 -2.521671,1.5968 -0.877818,1.5181 -0.351849,3.4223 1.16858,4.2988 1.520416,0.8765 3.427473,0.3514 4.30529,-1.1668 0.877824,-1.5181 0.38259,-3.4224 -1.137827,-4.2988 -0.570159,-0.3289 -1.209266,-0.4715 -1.814372,-0.43 z m -18.358993,0.092 c -0.677645,0.044 -1.315427,0.4245 -1.691364,1.0748 -0.601413,1.0401 -0.242247,2.3163 0.799556,2.917 1.041765,0.6005 2.289279,0.2418 2.890696,-0.7983 0.601493,-1.0404 0.272998,-2.2857 -0.768803,-2.8864 -0.390677,-0.2252 -0.823495,-0.3334 -1.230085,-0.3071 z m 8.733593,0 c -0.40659,-0.027 -0.839407,0.081 -1.230084,0.3071 -1.041801,0.6006 -1.370298,1.846 -0.768803,2.8864 0.601417,1.04 1.848932,1.3988 2.890696,0.7983 1.041802,-0.6006 1.40097,-1.8768 0.799555,-2.917 -0.375936,-0.6503 -1.013718,-1.0309 -1.691364,-1.0748 z m -4.366797,1.1366 c -1.202968,0 -2.121894,0.9175 -2.121894,2.1187 0,1.201 0.918966,2.1187 2.121894,2.1187 1.203016,0 2.121895,-0.9177 2.121895,-2.1187 0,-1.2012 -0.918918,-2.1187 -2.121895,-2.1187 z m -22.264504,2.7327 c -0.769824,-0.053 -1.557,0.1079 -2.275654,0.5222 -1.916407,1.1048 -2.582542,3.5522 -1.4761,5.4657 1.106437,1.9135 3.557461,2.5787 5.47387,1.4739 1.916413,-1.1048 2.582537,-3.5522 1.4761,-5.4657 -0.691526,-1.1961 -1.915177,-1.9054 -3.198216,-1.9961 z m 44.529009,0 c -1.283042,0.09 -2.506689,0.8 -3.198215,1.9961 -1.106437,1.9135 -0.440297,4.3609 1.4761,5.4657 1.916397,1.1048 4.367432,0.4398 5.47387,-1.4739 1.106441,-1.9135 0.440297,-4.3609 -1.476101,-5.4657 -0.718648,-0.4143 -1.505827,-0.5765 -2.275654,-0.5222 z m -30.690574,2.0574 c -1.008511,0.068 -1.973034,0.6172 -2.52167,1.5661 -0.87782,1.518 -0.351855,3.4224 1.168579,4.2989 1.520426,0.8765 3.427471,0.382 4.305291,-1.1362 0.877817,-1.5181 0.351846,-3.4531 -1.168579,-4.3296 -0.570163,-0.3287 -1.178514,-0.4407 -1.783621,-0.3992 z m 16.237097,0 c -0.406776,0.052 -0.78847,0.1801 -1.168578,0.3992 -1.520425,0.8765 -2.0464,2.8114 -1.168579,4.3296 0.877813,1.5182 2.784865,2.0126 4.305291,1.1362 1.520432,-0.8765 2.046392,-2.7809 1.168579,-4.2989 -0.658365,-1.1387 -1.916378,-1.7208 -3.136713,-1.5661 z m -7.811028,2.1799 c -1.755635,0 -3.167463,1.4097 -3.167463,3.1627 0,1.753 1.411828,3.1321 3.167463,3.1321 1.755647,0 3.167465,-1.3791 3.167465,-3.1321 0,-1.753 -1.411818,-3.1627 -3.167465,-3.1627 z m -13.284898,5.2814 c -1.283038,0.09 -2.506692,0.8001 -3.198217,1.996 -1.106439,1.9136 -0.440313,4.3609 1.4761,5.4658 1.916408,1.1047 4.367432,0.4396 5.47387,-1.474 1.106441,-1.9135 0.440307,-4.3609 -1.476099,-5.4657 -0.718655,-0.4144 -1.505831,-0.5764 -2.275654,-0.5221 z m 26.569797,0 c -0.769825,-0.054 -1.556999,0.1077 -2.275654,0.5221 -1.916405,1.1048 -2.582533,3.5522 -1.476099,5.4657 1.106432,1.9137 3.557463,2.5787 5.473871,1.474 1.916412,-1.1049 2.582531,-3.5523 1.476098,-5.4658 -0.691519,-1.1959 -1.915172,-1.9053 -3.198216,-1.996 z m -13.284899,3.4699 c -2.212876,0 -3.997769,1.8129 -3.997769,4.0224 0,2.2096 1.784893,3.9919 3.997769,3.9919 2.212883,0 3.997771,-1.7823 3.997771,-3.9919 0,-2.2095 -1.784888,-4.0224 -3.997771,-4.0224 z"
       id="path3014"
       inkscape:connector-curvature="0" />
  </g>
</svg>
