<?xml version="1.0" encoding="UTF-8" standalone="no"?>
<!-- Created with Inkscape (http://www.inkscape.org/) -->

<svg
   xmlns:dc="http://purl.org/dc/elements/1.1/"
   xmlns:cc="http://creativecommons.org/ns#"
   xmlns:rdf="http://www.w3.org/1999/02/22-rdf-syntax-ns#"
   xmlns:svg="http://www.w3.org/2000/svg"
   xmlns="http://www.w3.org/2000/svg"
   xmlns:xlink="http://www.w3.org/1999/xlink"
   xmlns:sodipodi="http://sodipodi.sourceforge.net/DTD/sodipodi-0.dtd"
   xmlns:inkscape="http://www.inkscape.org/namespaces/inkscape"
   width="96"
   height="96"
   id="svg2"
   version="1.1"
   inkscape:version="0.48.4 r9939"
   sodipodi:docname="preferences-desktop-user-password.svg">
  <defs
     id="defs4">
    <linearGradient
       id="linearGradient3786">
      <stop
         style="stop-color:#000000;stop-opacity:0.13846155;"
         offset="0"
         id="stop3788" />
      <stop
         style="stop-color:#000000;stop-opacity:0.45384616;"
         offset="1"
         id="stop3790" />
    </linearGradient>
    <linearGradient
       id="linearGradient3772">
      <stop
         style="stop-color:#006ab0;stop-opacity:1;"
         offset="0"
         id="stop3774" />
      <stop
         style="stop-color:#3db0fd;stop-opacity:1;"
         offset="1"
         id="stop3776" />
    </linearGradient>
    <linearGradient
       inkscape:collect="always"
       xlink:href="#linearGradient3772"
       id="linearGradient3779"
       x1="45"
       y1="1047.3622"
       x2="45"
       y2="957.36218"
       gradientUnits="userSpaceOnUse" />
    <radialGradient
       inkscape:collect="always"
       xlink:href="#linearGradient3786"
       id="radialGradient3792"
       cx="47.633881"
       cy="54.792847"
       fx="47.633881"
       fy="54.792847"
       r="37.5"
       gradientTransform="matrix(0.84265137,0,0,0.78647461,7.4740599,965.11672)"
       gradientUnits="userSpaceOnUse" />
  </defs>
  <sodipodi:namedview
     id="base"
     pagecolor="#ffffff"
     bordercolor="#666666"
     borderopacity="1.0"
     inkscape:pageopacity="0.0"
     inkscape:pageshadow="2"
     inkscape:zoom="4.1763494"
     inkscape:cx="12.710954"
     inkscape:cy="48"
     inkscape:document-units="px"
     inkscape:current-layer="layer1"
     showgrid="true"
     inkscape:snap-page="true"
     inkscape:snap-global="false"
     inkscape:snap-center="true"
     inkscape:snap-object-midpoints="false"
     showguides="true"
     inkscape:guide-bbox="true"
     inkscape:snap-bbox="true"
     inkscape:object-paths="true"
     inkscape:object-nodes="true"
     inkscape:window-width="1305"
     inkscape:window-height="744"
     inkscape:window-x="61"
     inkscape:window-y="24"
     inkscape:window-maximized="1"
     inkscape:snap-midpoints="false"
     inkscape:snap-grids="true"
     inkscape:snap-to-guides="false">
    <inkscape:grid
       type="xygrid"
       id="grid3002"
       empspacing="5"
       visible="true"
       enabled="true"
       snapvisiblegridlinesonly="true" />
  </sodipodi:namedview>
  <metadata
     id="metadata7">
    <rdf:RDF>
      <cc:Work
         rdf:about="">
        <dc:format>image/svg+xml</dc:format>
        <dc:type
           rdf:resource="http://purl.org/dc/dcmitype/StillImage" />
        <dc:title />
      </cc:Work>
    </rdf:RDF>
  </metadata>
  <g
     inkscape:label="Layer 1"
     inkscape:groupmode="layer"
     id="layer1"
     transform="translate(0,-956.36218)">
    <rect
       style="fill:#ffffff;fill-opacity:0;fill-rule:nonzero;stroke:none"
       id="rect3775"
       width="96"
       height="96"
       x="0"
       y="956.36218"
       ry="0" />
    <path
       style="fill:#000000;fill-opacity:0.09589041;fill-rule:nonzero;stroke:none"
       d="m 3.353015,956.30662 c -1.884176,0 -3.4111555,1.43156 -3.4111555,3.19799 l 0,83.65949 c 0,1.7665 1.5269795,3.1981 3.4111555,3.1981 l 89.23583,0 c 1.884174,0 3.411155,-1.4316 3.411155,-3.1981 l 0,-83.65949 c 0,-1.76643 -1.526981,-3.19799 -3.411155,-3.19799 z"
       id="rect3772"
       inkscape:connector-curvature="0"
       sodipodi:nodetypes="sssssssss" />
    <path
       style="fill:#000000;fill-opacity:0.18721463;fill-rule:nonzero;stroke:none"
       d="m 1.0459761,1041.8066 0,7.4219 c 0,1.7392 1.461916,3.1337 3.2852054,3.1337 l 86.3836135,0 c 1.823288,0 3.285205,-1.3945 3.285205,-3.1337 l 0,-7.4219 -92.9540239,0 z"
       id="rect3785"
       inkscape:connector-curvature="0" />
    <path
       style="fill:#000000;fill-opacity:0.38356168;fill-rule:nonzero;stroke:none"
       d="m 1.0459761,1041.8066 0,5.3807 c 0,1.762 1.461916,3.1749 3.2852054,3.1749 l 86.3836135,0 c 1.823288,0 3.285205,-1.4129 3.285205,-3.1749 l 0,-5.3807 -92.9540239,0 z"
       id="rect3783"
       inkscape:connector-curvature="0" />
    <rect
       style="fill:url(#linearGradient3779);fill-opacity:1;fill-rule:nonzero;stroke:none"
       id="rect2985"
       width="92.954025"
       height="89"
       x="1.045977"
       y="957.36218"
       ry="3.1511393" />
    <path
       style="fill:#000000;fill-opacity:0.38356168;fill-rule:nonzero;stroke:none"
       d="m 1,1042.3622 0.045976,2.7457 c 0.03024,1.8058 1.461916,3.2543 3.2852054,3.2543 l 86.3836136,0 c 1.823288,0 3.285205,-1.4481 3.285205,-3.2543 l -0.04598,-2.7457 z"
       id="rect3781"
       inkscape:connector-curvature="0"
       sodipodi:nodetypes="csssscc" />
    <rect
       style="fill:#ffffff;fill-opacity:0.30000001;fill-rule:nonzero;stroke:none"
       id="rect3770"
       width="92.954033"
       height="2.000005"
       x="1.045976"
       y="1040.3622" />
    <path
       style="opacity:0.20164609;fill:url(#radialGradient3792);fill-opacity:1;fill-rule:evenodd;stroke:none"
       d="m 36.966858,967.86938 c -4.213257,0 -8.426514,4.21326 -8.426514,8.42652 l 0,8.42651 -12.63977,0 0,42.13259 63.198852,0 0,-42.13259 -12.63977,0 0,-8.42651 c 0,-4.21326 -4.213257,-8.42652 -8.426514,-8.42652 l -21.066284,0 z m 0,8.42652 21.066284,0 0,8.42651 -21.066284,0 0,-8.42651 z"
       id="rect2999"
       inkscape:connector-curvature="0" />
    <path
       style="fill:#000000;fill-opacity:0.23744291;fill-rule:evenodd;stroke:none"
       d="m 36.966858,967.86938 c -4.213257,0 -8.426514,4.21326 -8.426514,8.42652 l 0,1.6853 c 0,-4.21326 4.213257,-8.42652 8.426514,-8.42652 l 21.066284,0 c 4.213257,0 8.426514,4.21326 8.426514,8.42652 l 0,-1.6853 c 0,-4.21326 -4.213257,-8.42652 -8.426514,-8.42652 l -21.066284,0 z m -21.066284,16.85303 0,1.6853 12.63977,0 0,-1.6853 -12.63977,0 z m 21.066284,0 0,1.6853 21.066284,0 0,-1.6853 -21.066284,0 z m 29.492798,0 0,1.6853 12.63977,0 0,-1.6853 -12.63977,0 z"
       id="path3775"
       inkscape:connector-curvature="0" />
    <path
       style="fill:#ffffff;fill-opacity:0.46118721;fill-rule:evenodd;stroke:none"
       d="m 36.966858,974.61059 0,1.68531 21.066284,0 0,-1.68531 -21.066284,0 z m -21.066284,50.55911 0,1.6853 63.198852,0 0,-1.6853 -63.198852,0 z"
       id="path3780"
       inkscape:connector-curvature="0" />
    <path
       style="fill:#ffffff;fill-opacity:1;stroke:none"
       d="m 46.13012,988.67952 -3.763821,0.71692 0.46301,2.4644 c -1.268784,0.41175 -2.461369,0.98045 -3.539784,1.68774 l -1.613065,-1.91178 -2.927417,2.49428 1.628002,1.91179 c -0.872419,0.97326 -1.590103,2.05983 -2.180626,3.22613 l -2.389727,-0.85134 -1.284479,3.64404 2.374791,0.8365 c -0.264812,1.2536 -0.358162,2.5604 -0.283779,3.8832 l -2.494279,0.4631 0.716919,3.7787 2.479342,-0.478 c 0.410126,1.268 0.968373,2.462 1.672809,3.5398 l -1.911781,1.6131 2.494277,2.9423 1.926717,-1.6429 c 0.967214,0.8686 2.052401,1.6064 3.211197,2.1956 l -0.836404,2.3898 3.629398,1.2694 0.836404,-2.3747 c 1.252127,0.2649 2.561009,0.3727 3.883308,0.2987 l 0.463009,2.4793 3.778756,-0.702 -0.463009,-2.4943 c 1.267985,-0.4101 2.44699,-0.9683 3.524848,-1.6727 l 1.642937,1.9266 2.912481,-2.5091 -1.642938,-1.9267 c 0.871142,-0.9701 1.605533,-2.0486 2.195562,-3.2113 l 2.389727,0.8514 1.269543,-3.6444 -2.374791,-0.8363 c 0.265106,-1.254 0.373519,-2.5592 0.298716,-3.8834 l 2.479342,-0.463 -0.701983,-3.7787 -2.479342,0.4779 c -0.408404,-1.2602 -0.973369,-2.45203 -1.672809,-3.52457 l 1.911782,-1.628 -2.509214,-2.94235 -1.926717,1.64294 c -0.96667,-0.86608 -2.038835,-1.59324 -3.196261,-2.18063 l 0.836405,-2.40467 -3.629399,-1.26954 -0.85134,2.3748 c -1.253723,-0.26507 -2.559312,-0.37346 -3.883308,-0.29872 l -0.463009,-2.47934 z m 1.508516,5.37688 c 5.53153,0.0982 10.41653,4.077 11.470691,9.7229 0.758452,4.0624 -0.647114,8.0258 -3.405362,10.709 0.605466,-4.042 -0.648663,-5.4617 -2.733251,-6.6763 -0.410794,1.0285 -0.937857,1.9075 -1.52345,2.6137 -0.625928,0.7549 -1.309495,1.328 -1.95659,1.7326 -0.647095,0.4047 -1.2086,0.687 -1.986461,0.687 -0.77786,0 -1.339365,-0.2823 -1.986461,-0.687 -0.647095,-0.4046 -1.330662,-0.9777 -1.956589,-1.7326 -0.585595,-0.7062 -1.112659,-1.5852 -1.523451,-2.6137 -2.116621,1.2333 -3.37677,2.684 -2.70338,6.8705 -1.8038,-1.6729 -3.097943,-3.9205 -3.58459,-6.527 -1.204759,-6.4527 3.016482,-12.6852 9.469294,-13.89 0.8066,-0.1506 1.629379,-0.22312 2.4196,-0.2091 z m -0.134423,3.76383 c -4.807025,0 -4.809326,2.1102 -4.809326,5.91427 0,5.0725 3.607571,7.6173 4.809326,7.6173 1.201756,0 4.809327,-2.5448 4.809327,-7.6173 0,-3.80407 -0.0024,-5.91427 -4.809327,-5.91427 z m -2.404663,9.60347 4.809327,0 c -1.602342,2.6705 -3.206986,2.6705 -4.809327,0 z"
       id="path3782"
       inkscape:connector-curvature="0" />
  </g>
</svg>
