<?xml version="1.0" encoding="UTF-8" standalone="no"?>
<!-- Created with Inkscape (http://www.inkscape.org/) -->

<svg
   xmlns:dc="http://purl.org/dc/elements/1.1/"
   xmlns:cc="http://creativecommons.org/ns#"
   xmlns:rdf="http://www.w3.org/1999/02/22-rdf-syntax-ns#"
   xmlns:svg="http://www.w3.org/2000/svg"
   xmlns="http://www.w3.org/2000/svg"
   xmlns:sodipodi="http://sodipodi.sourceforge.net/DTD/sodipodi-0.dtd"
   xmlns:inkscape="http://www.inkscape.org/namespaces/inkscape"
   width="96"
   height="96"
   id="svg2"
   version="1.1"
   inkscape:version="0.48.4 r9939"
   sodipodi:docname="preferences-plugin.svg">
  <defs
     id="defs4" />
  <sodipodi:namedview
     id="base"
     pagecolor="#ffffff"
     bordercolor="#666666"
     borderopacity="1.0"
     inkscape:pageopacity="0.0"
     inkscape:pageshadow="2"
     inkscape:zoom="5.90625"
     inkscape:cx="48"
     inkscape:cy="48"
     inkscape:document-units="px"
     inkscape:current-layer="layer1"
     showgrid="true"
     inkscape:snap-page="true"
     inkscape:snap-global="true"
     inkscape:snap-center="true"
     inkscape:snap-object-midpoints="false"
     showguides="true"
     inkscape:guide-bbox="true"
     inkscape:snap-bbox="true"
     inkscape:object-paths="true"
     inkscape:object-nodes="true"
     inkscape:window-width="1305"
     inkscape:window-height="744"
     inkscape:window-x="61"
     inkscape:window-y="24"
     inkscape:window-maximized="1"
     inkscape:snap-midpoints="false"
     inkscape:snap-grids="true"
     inkscape:snap-to-guides="false">
    <inkscape:grid
       type="xygrid"
       id="grid3002"
       empspacing="5"
       visible="true"
       enabled="true"
       snapvisiblegridlinesonly="true" />
  </sodipodi:namedview>
  <metadata
     id="metadata7">
    <rdf:RDF>
      <cc:Work
         rdf:about="">
        <dc:format>image/svg+xml</dc:format>
        <dc:type
           rdf:resource="http://purl.org/dc/dcmitype/StillImage" />
        <dc:title />
      </cc:Work>
    </rdf:RDF>
  </metadata>
  <g
     inkscape:label="Layer 1"
     inkscape:groupmode="layer"
     id="layer1"
     transform="translate(0,-956.36218)">
    <rect
       style="fill:#ffffff;fill-opacity:0;fill-rule:nonzero;stroke:none"
       id="rect3775"
       width="96"
       height="96"
       x="0"
       y="956.36218"
       ry="0" />
    <path
       style="fill:#000000;fill-opacity:0.09589041;fill-rule:nonzero;stroke:none"
       d="m 3.353015,956.30662 c -1.884176,0 -3.4111555,1.43156 -3.4111555,3.19799 l 0,83.65949 c 0,1.7665 1.5269795,3.1981 3.4111555,3.1981 l 89.23583,0 c 1.884174,0 3.411155,-1.4316 3.411155,-3.1981 l 0,-83.65949 c 0,-1.76643 -1.526981,-3.19799 -3.411155,-3.19799 z"
       id="rect3772"
       inkscape:connector-curvature="0"
       sodipodi:nodetypes="sssssssss" />
    <path
       style="fill:#000000;fill-opacity:0.18721463;fill-rule:nonzero;stroke:none"
       d="m 1.0459761,1041.8066 0,7.4219 c 0,1.7392 1.461916,3.1337 3.2852054,3.1337 l 86.3836135,0 c 1.823288,0 3.285205,-1.3945 3.285205,-3.1337 l 0,-7.4219 -92.9540239,0 z"
       id="rect3785"
       inkscape:connector-curvature="0" />
    <path
       style="fill:#000000;fill-opacity:0.38356168;fill-rule:nonzero;stroke:none"
       d="m 1.0459761,1041.8066 0,5.3807 c 0,1.762 1.461916,3.1749 3.2852054,3.1749 l 86.3836135,0 c 1.823288,0 3.285205,-1.4129 3.285205,-3.1749 l 0,-5.3807 -92.9540239,0 z"
       id="rect3783"
       inkscape:connector-curvature="0" />
    <rect
       style="fill:#51b5e0;fill-opacity:1;fill-rule:nonzero;stroke:none"
       id="rect2985"
       width="92.954025"
       height="89"
       x="1.045977"
       y="-1046.3622"
       ry="3.1511393"
       transform="scale(1,-1)" />
    <path
       style="fill:#000000;fill-opacity:0.38356168;fill-rule:nonzero;stroke:none"
       d="m 1,1042.3622 0.045976,2.7457 c 0.03024,1.8058 1.461916,3.2543 3.2852054,3.2543 l 86.3836136,0 c 1.823288,0 3.285205,-1.4481 3.285205,-3.2543 l -0.04598,-2.7457 z"
       id="rect3781"
       inkscape:connector-curvature="0"
       sodipodi:nodetypes="csssscc" />
    <rect
       style="fill:#ffffff;fill-opacity:0.30000001;fill-rule:nonzero;stroke:none"
       id="rect3770"
       width="92.954033"
       height="2.000005"
       x="1.045976"
       y="1040.3622" />
    <path
       style="color:#000000;fill:#ffffff;fill-opacity:0.5479452;fill-rule:nonzero;stroke:none;stroke-width:2;marker:none;visibility:visible;display:inline;overflow:visible;enable-background:accumulate;opacity:1"
       id="path4111"
       inkscape:connector-curvature="0"
       d="m 48.746084,1000.1085 0,3.4072 0,2.5368 0,7.5856 c -0.0032,0.1578 -0.104099,0.3096 -0.248707,0.373 -0.878868,0.4395 -2.26048,0.3428 -4.203134,-1.0943 -0.285722,-0.1508 -0.678908,-0.3835 -1.094307,-0.572 -0.415399,-0.1886 -0.848403,-0.3192 -1.094308,-0.3234 -1.024056,0 -1.96918,0.5971 -2.686027,1.6415 -0.716846,1.0444 -1.168919,2.5161 -1.168919,4.1534 0,1.6373 0.45255,3.1154 1.168919,4.1534 0.704639,1.0209 1.6302,1.5975 2.636286,1.6166 0.01679,3e-4 0.03295,0 0.04974,0 0.75547,-0.1003 1.871481,-0.6398 2.138874,-0.8456 1.977449,-1.4831 3.371485,-1.5599 4.252875,-1.1192 0.144608,0.064 0.245873,0.2152 0.248707,0.3731 l 0,10.3213 27.432292,0 c 2.645438,0 4.775159,-2.1297 4.775159,-4.7752 l 0,-27.4322 -14.151382,0 c -0.18487,0.5848 -0.122554,1.536 1.094307,3.1585 0.374516,0.4865 0.954188,1.5633 1.069437,2.5865 7.96e-4,0.017 7.96e-4,0.033 0,0.049 0,1.3494 -0.807217,2.5537 -2.01452,3.3824 -1.207304,0.8286 -2.834821,1.3182 -4.625935,1.3182 -1.791115,0 -3.424609,-0.4891 -4.625936,-1.3182 -1.201326,-0.8291 -1.989649,-2.0344 -1.989649,-3.3824 0.0082,-0.4826 0.214715,-0.9842 0.4228,-1.4425 0.208086,-0.4584 0.431659,-0.8782 0.572025,-1.1441 0.01512,-0.017 0.03176,-0.034 0.04974,-0.049 1.216862,-1.6225 1.279177,-2.5737 1.094307,-3.1585 l -3.954428,0 -2.536803,0 z" />
    <path
       style="color:#000000;fill:#000000;fill-opacity:0.78538811;fill-rule:nonzero;stroke:none;stroke-width:2;marker:none;visibility:visible;display:inline;overflow:visible;enable-background:accumulate;opacity:1"
       id="path4113"
       inkscape:connector-curvature="0"
       d="m 48.646601,965.46363 0,12.60944 c 0.607679,0.22475 1.606316,0.18178 3.307792,-1.0943 0.466016,-0.35878 1.565998,-0.9076 2.561674,-1.01974 0.0083,-3.2e-4 0.01655,-3.2e-4 0.02483,0 1.316925,0 2.490325,0.77374 3.307792,1.96482 0.817468,1.191 1.293273,2.80039 1.293273,4.57619 0,1.77573 -0.475423,3.39116 -1.293273,4.5762 -0.817849,1.18495 -1.992029,1.93991 -3.307792,1.93991 -0.458893,-0.008 -0.938693,-0.19181 -1.392755,-0.39793 -0.454062,-0.20621 -0.876138,-0.43064 -1.144048,-0.57207 -0.01727,-0.008 -0.0339,-0.0151 -0.04974,-0.0247 -1.701477,-1.27616 -2.700114,-1.31914 -3.307793,-1.09431 l 0,5.59585 0,2.53679 0,4.30272 2.710898,0 2.536803,0 4.277746,0 c 0.121091,0 0.240804,0.068 0.298448,0.1741 0.423262,0.8465 0.341201,2.1931 -1.094307,4.1285 -0.0064,0.013 -0.01799,0.037 -0.02483,0.049 -0.14955,0.2814 -0.365053,0.6683 -0.547154,1.0695 -0.190529,0.4197 -0.34362,0.8496 -0.348188,1.1191 0,1.0566 0.630496,2.0327 1.691202,2.7607 1.060706,0.728 2.550444,1.1938 4.203134,1.1938 1.652691,0 3.148843,-0.4662 4.203135,-1.1938 1.046006,-0.7219 1.656781,-1.6878 1.666331,-2.7358 -7.72e-4,-0.01 7.96e-4,-0.018 0,-0.025 -0.09546,-0.7808 -0.670543,-1.8966 -0.895342,-2.1886 -1.472977,-1.964 -1.518493,-3.3299 -1.094307,-4.1783 0.05762,-0.1065 0.177357,-0.1764 0.298447,-0.1741 l 14.424959,0 0,-29.12354 c 0,-2.64544 -2.129721,-4.77516 -4.775159,-4.77516 z" />
    <path
       style="color:#000000;fill:#000000;fill-opacity:0.56164384;fill-rule:nonzero;stroke:none;stroke-width:2;marker:none;visibility:visible;display:inline;overflow:visible;enable-background:accumulate;opacity:1"
       id="path4109"
       inkscape:connector-curvature="0"
       d="m 14.101311,1000.1085 0,27.4322 c 0,2.6455 2.129721,4.7752 4.775159,4.7752 l 29.024013,0 0,-9.998 c -0.584934,-0.1849 -1.536081,-0.1226 -3.158569,1.0943 -0.495471,0.3814 -1.570956,0.9302 -2.586544,1.0446 -0.01655,0 -0.03319,0 -0.04974,0 -1.348019,0 -2.553277,-0.7883 -3.382404,-1.9897 -0.829127,-1.2013 -1.318143,-2.8348 -1.318143,-4.6259 0,-1.7911 0.489494,-3.4186 1.318143,-4.626 0.828649,-1.2073 2.032936,-2.0144 3.382404,-2.0144 0.482554,0.01 0.984137,0.2146 1.442496,0.4227 0.45836,0.2081 0.87812,0.4317 1.144049,0.5721 0.01791,0.015 0.03462,0.032 0.04974,0.049 1.624111,1.2181 2.577376,1.2979 3.158569,1.1192 l 0,-7.312 0,-2.5368 0,-3.4072 -3.407275,0 -2.536803,0 -11.763803,0 c -0.18487,0.5848 -0.122555,1.536 1.094307,3.1585 0.374516,0.4865 0.954196,1.5633 1.069437,2.5865 7.96e-4,0.017 7.96e-4,0.034 0,0.049 0,1.3494 -0.807217,2.5537 -2.01452,3.3824 -1.207304,0.8286 -2.834821,1.3182 -4.625936,1.3182 -1.791114,0 -3.424608,-0.4891 -4.625935,-1.3182 -1.201326,-0.8291 -1.989649,-2.0344 -1.989649,-3.3824 0.0082,-0.4825 0.214715,-0.9842 0.4228,-1.4425 0.208086,-0.4584 0.431659,-0.8782 0.572024,-1.1441 0.01512,-0.018 0.03183,-0.034 0.04974,-0.049 1.216861,-1.6225 1.279177,-2.5737 1.094307,-3.1585 z" />
    <path
       style="color:#000000;fill:#000000;fill-opacity:0.29680365;fill-rule:nonzero;stroke:none;stroke-width:2;marker:none;visibility:visible;display:inline;overflow:visible;enable-background:accumulate;opacity:1"
       id="path4115"
       inkscape:connector-curvature="0"
       d="m 18.87647,965.46363 c -2.645438,0 -4.775159,2.12972 -4.775159,4.77516 l 0,29.12351 7.461186,0 c 0.12109,0 0.240803,0.068 0.298447,0.1741 0.423263,0.8466 0.341201,2.1931 -1.094307,4.1285 -0.0064,0.013 -0.01791,0.037 -0.02483,0.049 -0.14955,0.2813 -0.365053,0.6682 -0.547153,1.0694 -0.190529,0.4197 -0.343621,0.8496 -0.348189,1.1192 0,1.0566 0.630496,2.0326 1.691202,2.7607 1.060706,0.7279 2.550444,1.1937 4.203135,1.1937 1.65269,0 3.148843,-0.4662 4.203134,-1.1937 1.046007,-0.722 1.656782,-1.6878 1.666332,-2.7358 -7.72e-4,-0.01 7.96e-4,-0.018 0,-0.025 -0.09546,-0.7808 -0.670544,-1.8966 -0.895342,-2.1886 -1.472978,-1.9639 -1.518493,-3.3299 -1.094308,-4.1783 0.05762,-0.1064 0.177358,-0.1763 0.298448,-0.174 l 11.24152,0 3.332663,0 3.506757,0 0,-4.30272 0,-2.53678 0,-5.81972 c -0.0024,-0.12113 0.06757,-0.24083 0.174094,-0.29845 0.841065,-0.42053 2.191671,-0.36665 4.128523,1.06948 0.01679,0.0127 0.03279,0.0119 0.04974,0.0247 0.284393,0.15169 0.667981,0.38408 1.069437,0.57206 0.419856,0.1965 0.853384,0.34366 1.119178,0.34819 1.056591,0 2.03261,-0.63056 2.760638,-1.6912 0.728029,-1.06072 1.19379,-2.55049 1.19379,-4.20317 0,-1.65269 -0.466143,-3.14882 -1.19379,-4.2031 -0.721924,-1.04608 -1.6877,-1.65682 -2.735768,-1.66637 -0.0083,-8e-5 -0.01655,0 -0.02483,0 -0.780834,0.0954 -1.896573,0.67051 -2.188614,0.89534 -1.963967,1.47298 -3.329893,1.5185 -4.178264,1.09431 -0.106518,-0.0573 -0.176347,-0.17732 -0.174094,-0.29845 l 0,-12.88298 z" />
  </g>
</svg>
