<?xml version="1.0" encoding="UTF-8" standalone="no"?>
<!-- Created with Inkscape (http://www.inkscape.org/) -->

<svg
   xmlns:dc="http://purl.org/dc/elements/1.1/"
   xmlns:cc="http://creativecommons.org/ns#"
   xmlns:rdf="http://www.w3.org/1999/02/22-rdf-syntax-ns#"
   xmlns:svg="http://www.w3.org/2000/svg"
   xmlns="http://www.w3.org/2000/svg"
   xmlns:xlink="http://www.w3.org/1999/xlink"
   xmlns:sodipodi="http://sodipodi.sourceforge.net/DTD/sodipodi-0.dtd"
   xmlns:inkscape="http://www.inkscape.org/namespaces/inkscape"
   width="96"
   height="96"
   id="svg2"
   version="1.1"
   inkscape:version="0.48.4 r9939"
   sodipodi:docname="preferences-desktop-screensaver.svg">
  <defs
     id="defs4">
    <linearGradient
       id="linearGradient3779">
      <stop
         style="stop-color:#4c0940;stop-opacity:1;"
         offset="0"
         id="stop3781" />
      <stop
         style="stop-color:#0e232e;stop-opacity:1;"
         offset="1"
         id="stop3783" />
    </linearGradient>
    <radialGradient
       inkscape:collect="always"
       xlink:href="#linearGradient3779"
       id="radialGradient3787"
       cx="25"
       cy="1023.2835"
       fx="25"
       fy="1023.2835"
       r="46.5"
       gradientTransform="matrix(1.1827957,3.8907468e-7,-3.8907452e-7,1.1827952,-4.5694943,-187.97266)"
       gradientUnits="userSpaceOnUse" />
  </defs>
  <sodipodi:namedview
     id="base"
     pagecolor="#ffffff"
     bordercolor="#666666"
     borderopacity="1.0"
     inkscape:pageopacity="0.0"
     inkscape:pageshadow="2"
     inkscape:zoom="3.6719778"
     inkscape:cx="7.2387823"
     inkscape:cy="41.989418"
     inkscape:document-units="px"
     inkscape:current-layer="layer1"
     showgrid="true"
     inkscape:snap-page="true"
     inkscape:snap-global="true"
     inkscape:snap-center="true"
     inkscape:snap-object-midpoints="false"
     showguides="true"
     inkscape:guide-bbox="true"
     inkscape:snap-bbox="true"
     inkscape:object-paths="true"
     inkscape:object-nodes="true"
     inkscape:window-width="1305"
     inkscape:window-height="744"
     inkscape:window-x="61"
     inkscape:window-y="24"
     inkscape:window-maximized="1"
     inkscape:snap-midpoints="false"
     inkscape:snap-grids="true"
     inkscape:snap-to-guides="false">
    <inkscape:grid
       type="xygrid"
       id="grid3002"
       empspacing="5"
       visible="true"
       enabled="true"
       snapvisiblegridlinesonly="true" />
  </sodipodi:namedview>
  <metadata
     id="metadata7">
    <rdf:RDF>
      <cc:Work
         rdf:about="">
        <dc:format>image/svg+xml</dc:format>
        <dc:type
           rdf:resource="http://purl.org/dc/dcmitype/StillImage" />
        <dc:title />
      </cc:Work>
    </rdf:RDF>
  </metadata>
  <g
     inkscape:label="Layer 1"
     inkscape:groupmode="layer"
     id="layer1"
     transform="translate(0,-956.36218)">
    <rect
       style="fill:#ffffff;fill-opacity:0;fill-rule:nonzero;stroke:none"
       id="rect3775"
       width="96"
       height="96"
       x="0"
       y="956.36218"
       ry="0" />
    <path
       style="fill:#000000;fill-opacity:0.09589041;fill-rule:nonzero;stroke:none"
       d="m 3.353015,956.30662 c -1.884176,0 -3.4111555,1.43156 -3.4111555,3.19799 l 0,83.65949 c 0,1.7665 1.5269795,3.1981 3.4111555,3.1981 l 89.23583,0 c 1.884174,0 3.411155,-1.4316 3.411155,-3.1981 l 0,-83.65949 c 0,-1.76643 -1.526981,-3.19799 -3.411155,-3.19799 z"
       id="rect3772"
       inkscape:connector-curvature="0"
       sodipodi:nodetypes="sssssssss" />
    <path
       style="fill:#000000;fill-opacity:0.18721463;fill-rule:nonzero;stroke:none"
       d="m 1.0459761,1041.8066 0,7.4219 c 0,1.7392 1.461916,3.1337 3.2852054,3.1337 l 86.3836135,0 c 1.823288,0 3.285205,-1.3945 3.285205,-3.1337 l 0,-7.4219 -92.9540239,0 z"
       id="rect3785"
       inkscape:connector-curvature="0" />
    <path
       style="fill:#000000;fill-opacity:0.38356168;fill-rule:nonzero;stroke:none"
       d="m 1.0459761,1041.8066 0,5.3807 c 0,1.762 1.461916,3.1749 3.2852054,3.1749 l 86.3836135,0 c 1.823288,0 3.285205,-1.4129 3.285205,-3.1749 l 0,-5.3807 -92.9540239,0 z"
       id="rect3783"
       inkscape:connector-curvature="0" />
    <rect
       style="fill:url(#radialGradient3787);fill-opacity:1;fill-rule:nonzero;stroke:none"
       id="rect2985-2"
       width="93"
       height="88.999962"
       x="0.9999969"
       y="957.36224"
       ry="3.1511383" />
    <path
       style="fill:#000000;fill-opacity:0.38356168;fill-rule:nonzero;stroke:none"
       d="m 1,1042.3622 0.045976,2.7457 c 0.03024,1.8058 1.461916,3.2543 3.2852054,3.2543 l 86.3836136,0 c 1.823288,0 3.285205,-1.4481 3.285205,-3.2543 l -0.04598,-2.7457 z"
       id="rect3781"
       inkscape:connector-curvature="0"
       sodipodi:nodetypes="csssscc" />
    <rect
       style="fill:#ffffff;fill-opacity:0.30000001;fill-rule:nonzero;stroke:none"
       id="rect3770"
       width="92.954033"
       height="2.000005"
       x="1.045976"
       y="1040.3622" />
    <path
       inkscape:connector-curvature="0"
       style="font-size:30.46715736px;font-style:normal;font-variant:normal;font-weight:bold;font-stretch:normal;text-align:end;line-height:125%;letter-spacing:0px;word-spacing:0px;text-anchor:end;fill:#ff005c;fill-opacity:0.17351601;stroke:none;font-family:mry_KacstQurn;-inkscape-font-specification:mry_KacstQurn Bold"
       d="m 30.859565,1004.8608 a 1.773976,1.773976 0 0 0 -0.3125,0.031 l -13.65625,2.6876 a 1.773976,1.773976 0 0 0 -1.40625,2.0624 l 0.6875,3.6876 a 1.773976,1.773976 0 0 0 2.09375,1.4374 l 3.875,-0.75 -4.40625,6.9688 a 1.773976,1.773976 0 0 0 -0.25,1.25 l 0.65625,3.5625 a 1.773976,1.773976 0 0 0 2.09375,1.4377 l 14,-2.75 a 1.773976,1.773976 0 0 0 1.40625,-2.0625 l -0.6875,-3.6563 a 1.773976,1.773976 0 0 0 -2.09375,-1.4374 l -4.1875,0.8124 4.40625,-6.9687 a 1.773976,1.773976 0 0 0 0.25,-1.2813 l -0.6875,-3.5937 a 1.773976,1.773976 0 0 0 -1.78125,-1.4375 z"
       id="path3775" />
    <path
       inkscape:connector-curvature="0"
       style="font-size:30.46715736px;font-style:normal;font-variant:normal;font-weight:bold;font-stretch:normal;text-align:end;line-height:125%;letter-spacing:0px;word-spacing:0px;text-anchor:end;fill:#ff005c;fill-opacity:0.17351601;stroke:none;font-family:mry_KacstQurn;-inkscape-font-specification:mry_KacstQurn Bold"
       d="m 30.734565,1005.8296 -13.65625,2.6874 a 0.8280998,0.8280998 0 0 0 -0.65625,0.9688 l 0.6875,3.6875 a 0.8280998,0.8280998 0 0 0 0.96875,0.6563 l 6.03125,-1.1876 -5.5625,8.8438 a 0.8280998,0.8280998 0 0 0 -0.125,0.5938 l 0.65625,3.5624 a 0.8280998,0.8280998 0 0 0 0.96875,0.6563 l 14,-2.75 a 0.8280998,0.8280998 0 0 0 0.65625,-0.9687 l -0.6875,-3.6563 a 0.8280998,0.8280998 0 0 0 -0.96875,-0.6563 l -6.375,1.25 5.59375,-8.8437 a 0.8280998,0.8280998 0 0 0 0.125,-0.5937 l -0.6875,-3.5938 a 0.8280998,0.8280998 0 0 0 -0.96875,-0.6562 z"
       id="path3005" />
    <path
       inkscape:connector-curvature="0"
       style="font-size:30.46715736px;font-style:normal;font-variant:normal;font-weight:bold;font-stretch:normal;text-align:end;line-height:125%;letter-spacing:0px;word-spacing:0px;text-anchor:end;fill:#ff005c;fill-opacity:0.17351601;stroke:none;font-family:mry_KacstQurn;-inkscape-font-specification:mry_KacstQurn Bold"
       d="m 30.484565,1003.6108 c -0.03362,0.01 -0.06036,0.014 -0.125,0.031 a 0.75384919,0.75384919 0 0 1 -0.03125,0.031 l -13.65625,2.688 c -0.0726,0.014 -0.08442,0.014 -0.15625,0.031 -0.07183,0.018 -0.08536,0.01 -0.15625,0.031 -0.07089,0.021 -0.05523,0.01 -0.125,0.031 -0.06977,0.024 -0.08775,0.035 -0.15625,0.062 -0.0685,0.028 -0.05795,0.031 -0.125,0.063 -0.06705,0.031 -0.05955,0.028 -0.125,0.062 -0.06545,0.034 -0.06131,0.025 -0.125,0.063 -0.06369,0.038 -0.06322,0.053 -0.125,0.094 -0.06178,0.041 -0.06528,0.05 -0.125,0.094 -0.05972,0.044 -0.06749,0.016 -0.125,0.063 -0.05751,0.046 -0.06983,0.076 -0.125,0.125 -0.05517,0.049 -0.04105,0.042 -0.09375,0.094 -0.0527,0.052 -0.04365,0.039 -0.09375,0.094 -0.0501,0.054 -0.04637,0.068 -0.09375,0.125 -0.04738,0.057 -0.0492,0.035 -0.09375,0.094 -0.04455,0.059 -0.05214,0.064 -0.09375,0.125 -0.04161,0.061 -0.05518,0.062 -0.09375,0.125 -0.03857,0.063 -0.02706,0.06 -0.0625,0.125 -0.03544,0.065 -0.03028,0.09 -0.0625,0.1562 -0.03222,0.067 -0.03357,0.057 -0.0625,0.125 -0.02893,0.068 -0.03694,0.056 -0.0625,0.125 -0.02556,0.069 -0.04036,0.086 -0.0625,0.1563 -0.02214,0.071 -0.01259,0.053 -0.03125,0.125 -0.01866,0.072 -0.01611,0.084 -0.03125,0.1563 -0.01514,0.072 -0.01967,0.083 -0.03125,0.1562 -0.01158,0.073 0.008,0.052 0,0.125 -0.008,0.073 -0.02686,0.082 -0.03125,0.1562 -0.0044,0.074 7.77e-4,0.082 0,0.1563 -7.77e-4,0.074 -0.0028,0.051 0,0.125 0.0028,0.074 -0.0065,0.083 0,0.1563 0.0065,0.074 0.0212,0.083 0.03125,0.1562 0.01005,0.073 0.01763,0.084 0.03125,0.1562 l 0.6875,3.6876 c 0.01208,0.066 0.01628,0.06 0.03125,0.125 0.01497,0.065 0.01342,0.061 0.03125,0.125 0.01783,0.064 0.0106,0.061 0.03125,0.125 0.02065,0.063 0.0078,0.062 0.03125,0.125 0.02344,0.062 0.03632,0.063 0.0625,0.125 0.02618,0.061 0.03363,0.065 0.0625,0.125 0.02887,0.06 0.031,0.066 0.0625,0.125 0.0315,0.059 0.02843,0.067 0.0625,0.125 0.03407,0.057 0.02592,0.038 0.0625,0.094 0.03658,0.056 0.02349,0.071 0.0625,0.125 0.03901,0.054 0.05238,0.041 0.09375,0.094 0.04137,0.053 0.05011,0.043 0.09375,0.094 0.04364,0.051 0.04792,0.076 0.09375,0.125 0.04583,0.049 0.04581,0.047 0.09375,0.094 0.04794,0.046 0.04381,0.049 0.09375,0.094 0.04994,0.044 0.0419,0.02 0.09375,0.062 0.05185,0.042 0.04009,0.054 0.09375,0.094 0.05366,0.04 0.06964,0.025 0.125,0.062 0.05536,0.037 0.03679,0.059 0.09375,0.094 0.05696,0.035 0.06656,0.03 0.125,0.062 0.05844,0.032 0.06518,0.033 0.125,0.062 0.05982,0.03 0.06393,0.035 0.125,0.062 0.06107,0.027 0.0628,0.01 0.125,0.031 0.0622,0.024 0.06179,0.041 0.125,0.062 0.06321,0.022 0.0609,0.013 0.125,0.031 0.0641,0.019 0.06013,0.015 0.125,0.031 0.06487,0.016 0.0595,0.018 0.125,0.031 0.0655,0.013 0.05899,0.021 0.125,0.031 0.06601,0.01 0.08986,-0.01 0.15625,0 0.06639,0.01 0.05836,0.027 0.125,0.031 0.06664,0 0.05824,0 0.125,0 0.06676,0 0.05825,0 0.125,0 a 0.75384919,0.75384919 0 0 1 0.65625,1.1563 l -1.96875,3.125 c -0.03758,0.059 -0.0277,0.064 -0.0625,0.125 -0.0348,0.061 -0.03056,0.063 -0.0625,0.125 -0.03194,0.062 -0.03349,0.061 -0.0625,0.125 -0.02901,0.064 -0.03647,0.06 -0.0625,0.125 -0.02603,0.065 -0.0083,0.059 -0.03125,0.125 -0.02298,0.066 -0.04261,0.058 -0.0625,0.125 -0.01989,0.067 -0.01449,0.088 -0.03125,0.1562 -0.01676,0.068 -0.01766,0.056 -0.03125,0.125 -0.01359,0.069 -0.02087,0.087 -0.03125,0.1562 -0.01038,0.069 0.0072,0.055 0,0.125 -0.0072,0.07 -0.02733,0.055 -0.03125,0.125 -0.0039,0.07 6.77e-4,0.086 0,0.1563 -6.77e-4,0.07 -0.0026,0.055 0,0.125 0.0026,0.07 0.02544,0.086 0.03125,0.1563 0.0058,0.07 -0.009,0.056 0,0.125 0.009,0.069 0.019,0.087 0.03125,0.1562 l 0.65625,3.5625 c 0.0134,0.073 0.01424,0.052 0.03125,0.125 0.01701,0.073 0.01066,0.084 0.03125,0.1563 0.02059,0.072 0.0071,0.085 0.03125,0.1562 0.02411,0.071 0.03492,0.056 0.0625,0.125 0.02758,0.069 0.03152,0.057 0.0625,0.125 0.03098,0.068 0.0282,0.09 0.0625,0.1562 0.0343,0.066 0.02496,0.061 0.0625,0.125 0.03754,0.065 0.05307,0.062 0.09375,0.125 0.04068,0.063 0.01877,0.065 0.0625,0.125 0.04373,0.061 0.04708,0.067 0.09375,0.125 0.04667,0.058 0.04425,0.038 0.09375,0.094 0.0495,0.056 0.0728,0.072 0.125,0.125 0.0522,0.053 0.03897,0.043 0.09375,0.094 0.05478,0.051 0.06778,0.046 0.125,0.094 0.05722,0.048 0.03423,0.049 0.09375,0.094 0.05952,0.045 0.06332,0.052 0.125,0.094 0.06168,0.042 0.06131,0.055 0.125,0.094 0.06369,0.039 0.09071,0.027 0.15625,0.062 0.06554,0.036 0.05777,0.03 0.125,0.063 0.06723,0.032 0.05624,0.033 0.125,0.062 0.06876,0.029 0.08613,0.037 0.15625,0.063 0.07012,0.026 0.0537,0.04 0.125,0.062 0.0713,0.022 0.08393,0.013 0.15625,0.031 0.07232,0.019 0.05185,0.016 0.125,0.031 0.07315,0.015 0.08244,0.02 0.15625,0.031 0.07381,0.012 0.08196,0.023 0.15625,0.031 0.07429,0.01 0.08167,0 0.15625,0 0.07458,0 0.0503,-4e-4 0.125,0 0.0747,5e-4 0.08162,0 0.15625,0 0.07463,0 0.08187,0.01 0.15625,0 0.07438,-0.01 0.08231,-0.021 0.15625,-0.031 0.07394,-0.011 0.05167,-0.017 0.125,-0.031 l 14,-2.75 c 0.0726,-0.014 0.08442,-0.014 0.15625,-0.031 0.07183,-0.017 0.08536,-0.01 0.15625,-0.031 0.07089,-0.021 0.05522,-0.01 0.125,-0.031 0.06978,-0.024 0.08775,-0.035 0.15625,-0.062 0.0685,-0.028 0.05794,-0.031 0.125,-0.062 0.06706,-0.031 0.05955,-0.028 0.125,-0.062 0.06545,-0.034 0.06131,-0.025 0.125,-0.062 0.06369,-0.037 0.06322,-0.053 0.125,-0.094 0.06178,-0.041 0.06528,-0.05 0.125,-0.094 0.05972,-0.044 0.06749,-0.016 0.125,-0.062 0.05751,-0.046 0.06983,-0.044 0.125,-0.094 0.05517,-0.049 0.04105,-0.073 0.09375,-0.125 0.0527,-0.052 0.04365,-0.039 0.09375,-0.094 0.0501,-0.054 0.04637,-0.068 0.09375,-0.125 0.04738,-0.057 0.0492,-0.035 0.09375,-0.094 0.04455,-0.059 0.05214,-0.064 0.09375,-0.125 0.04161,-0.061 0.05518,-0.062 0.09375,-0.125 0.03857,-0.063 0.02706,-0.06 0.0625,-0.125 0.03544,-0.065 0.03028,-0.09 0.0625,-0.1563 0.03222,-0.066 0.03357,-0.057 0.0625,-0.125 0.02893,-0.068 0.03694,-0.056 0.0625,-0.125 0.02556,-0.069 0.04036,-0.086 0.0625,-0.1563 0.02214,-0.07 0.01259,-0.053 0.03125,-0.125 0.01866,-0.071 0.01611,-0.084 0.03125,-0.1562 0.01514,-0.072 0.01967,-0.083 0.03125,-0.1562 0.01158,-0.073 -0.008,-0.052 0,-0.125 0.008,-0.073 0.02686,-0.082 0.03125,-0.1563 0.0044,-0.074 -7.76e-4,-0.082 0,-0.1563 7.76e-4,-0.074 0.0028,-0.051 0,-0.125 -0.0028,-0.074 0.0065,-0.083 0,-0.1562 -0.0065,-0.074 -0.0212,-0.083 -0.03125,-0.1562 -0.01005,-0.073 -0.01763,-0.084 -0.03125,-0.1563 l -0.6875,-3.6563 c -0.01294,-0.069 -0.01512,-0.057 -0.03125,-0.125 -0.01613,-0.068 -0.01197,-0.058 -0.03125,-0.125 -0.01928,-0.067 -0.0089,-0.09 -0.03125,-0.1562 -0.02239,-0.067 -0.03705,-0.06 -0.0625,-0.125 -0.02545,-0.065 -0.0028,-0.061 -0.03125,-0.125 -0.02846,-0.064 -0.03109,-0.062 -0.0625,-0.125 -0.03141,-0.063 -0.02822,-0.064 -0.0625,-0.125 -0.03428,-0.061 -0.05666,-0.065 -0.09375,-0.125 -0.03709,-0.06 -0.02269,-0.067 -0.0625,-0.125 -0.03981,-0.058 -0.0513,-0.038 -0.09375,-0.094 -0.04245,-0.056 -0.04875,-0.071 -0.09375,-0.125 -0.045,-0.054 -0.0463,-0.042 -0.09375,-0.094 -0.04745,-0.052 -0.04395,-0.044 -0.09375,-0.094 -0.0498,-0.049 -0.04171,-0.047 -0.09375,-0.094 -0.05204,-0.047 -0.03958,-0.049 -0.09375,-0.094 -0.05417,-0.044 -0.06882,-0.052 -0.125,-0.094 -0.05618,-0.042 -0.06693,-0.054 -0.125,-0.094 -0.05807,-0.039 -0.03392,-0.026 -0.09375,-0.063 -0.05983,-0.037 -0.06353,-0.06 -0.125,-0.094 -0.06147,-0.034 -0.06202,-0.032 -0.125,-0.062 -0.06298,-0.031 -0.06066,0 -0.125,-0.031 -0.06434,-0.028 -0.05943,-0.038 -0.125,-0.063 -0.06557,-0.025 -0.08959,-0.041 -0.15625,-0.062 -0.06666,-0.022 -0.0574,-0.012 -0.125,-0.031 -0.0676,-0.019 -0.0566,-0.016 -0.125,-0.031 -0.0684,-0.016 -0.0872,-0.019 -0.15625,-0.031 -0.06905,-0.012 -0.05544,-0.022 -0.125,-0.031 -0.06956,-0.01 -0.08634,0.01 -0.15625,0 -0.06991,-0.01 -0.05489,0 -0.125,0 -0.07011,0 -0.08609,-6e-4 -0.15625,0 -0.07016,5e-4 -0.05494,0 -0.125,0 -0.07006,0 -0.08645,-0.01 -0.15625,0 a 0.75384919,0.75384919 0 0 1 -0.6875,-1.1563 l 1.9375,-3.0625 c 0.03872,-0.06 0.02668,-0.063 0.0625,-0.125 0.03582,-0.062 0.02967,-0.061 0.0625,-0.125 0.03283,-0.064 0.03273,-0.06 0.0625,-0.125 0.02977,-0.065 0.03586,-0.058 0.0625,-0.125 0.02664,-0.067 0.03905,-0.088 0.0625,-0.1562 0.02345,-0.068 0.01104,-0.056 0.03125,-0.125 0.02021,-0.069 0.01432,-0.055 0.03125,-0.125 0.01693,-0.07 0.01765,-0.086 0.03125,-0.1563 0.0136,-0.07 0.02101,-0.054 0.03125,-0.125 0.01024,-0.071 0.02438,-0.085 0.03125,-0.1563 0.0069,-0.071 -0.0035,-0.085 0,-0.1562 0.0035,-0.072 -7e-5,-0.053 0,-0.125 7e-5,-0.072 0.0033,-0.085 0,-0.1562 -0.0033,-0.072 0.0067,-0.054 0,-0.125 -0.0067,-0.071 -0.02114,-0.085 -0.03125,-0.1563 -0.01011,-0.071 -0.01779,-0.055 -0.03125,-0.125 l -0.6875,-3.5937 c -0.0125,-0.065 -0.01592,-0.092 -0.03125,-0.1563 -0.01533,-0.064 -0.01313,-0.062 -0.03125,-0.125 -0.01812,-0.063 -0.01037,-0.062 -0.03125,-0.125 -0.02088,-0.063 -0.0077,-0.063 -0.03125,-0.125 -0.0236,-0.062 -0.03623,-0.064 -0.0625,-0.125 -0.02627,-0.061 -0.0336,-0.034 -0.0625,-0.094 -0.0289,-0.059 -0.03103,-0.067 -0.0625,-0.125 -0.03147,-0.058 -0.02852,-0.068 -0.0625,-0.125 -0.03398,-0.057 -0.02608,-0.039 -0.0625,-0.094 -0.03642,-0.055 -0.02371,-0.072 -0.0625,-0.125 -0.03879,-0.053 -0.05266,-0.042 -0.09375,-0.094 -0.04109,-0.052 -0.05044,-0.075 -0.09375,-0.125 -0.04331,-0.05 -0.01705,-0.046 -0.0625,-0.094 -0.04545,-0.048 -0.04624,-0.048 -0.09375,-0.094 -0.04751,-0.046 -0.07553,-0.05 -0.125,-0.094 -0.04947,-0.044 -0.04242,-0.021 -0.09375,-0.062 -0.05133,-0.042 -0.04065,-0.054 -0.09375,-0.094 -0.0531,-0.039 -0.07023,-0.026 -0.125,-0.063 -0.05477,-0.037 -0.03742,-0.059 -0.09375,-0.094 -0.05633,-0.034 -0.06722,-0.03 -0.125,-0.062 -0.05778,-0.032 -0.06587,-0.033 -0.125,-0.062 -0.05913,-0.029 -0.03339,-0.036 -0.09375,-0.062 -0.06036,-0.027 -0.06353,-0.01 -0.125,-0.031 -0.06147,-0.024 -0.06253,-0.041 -0.125,-0.063 -0.06247,-0.021 -0.06165,-0.013 -0.125,-0.031 -0.06335,-0.019 -0.06089,-0.015 -0.125,-0.031 -0.06411,-0.016 -0.09151,-0.018 -0.15625,-0.031 -0.06474,-0.013 -0.05975,-0.021 -0.125,-0.031 -0.06525,-0.01 -0.05936,0.01 -0.125,0 -0.06564,-0.01 -0.0591,-0.027 -0.125,-0.031 -0.0659,0 -0.05896,0 -0.125,0 -0.06604,0 -0.09021,0 -0.15625,0 a 0.75384919,0.75384919 0 0 1 -0.03125,0 c -0.07491,0 -0.08125,0 -0.15625,0 -0.03,0 -0.04687,-2e-4 -0.0625,0 -0.02344,4e-4 -0.04881,0 -0.09375,0 z"
       id="path3785" />
    <path
       style="font-size:30.46715736px;font-style:normal;font-variant:normal;font-weight:bold;font-stretch:normal;text-align:end;line-height:125%;letter-spacing:0px;word-spacing:0px;text-anchor:end;fill:#ff005c;fill-opacity:0.17351601;stroke:none;font-family:mry_KacstQurn;-inkscape-font-specification:mry_KacstQurn Bold"
       d="m 30.828315,1002.848 a 3.7783214,3.7783214 0 0 0 -0.65625,0.062 l -13.65625,2.6875 a 3.7783214,3.7783214 0 0 0 -3,4.4062 l 0.6875,3.6875 a 3.7783214,3.7783214 0 0 0 3.8125,3.0938 l -1.96875,3.125 a 3.7783214,3.7783214 0 0 0 -0.53125,2.6875 l 0.65625,3.5625 a 3.7783214,3.7783214 0 0 0 4.4375,3.0312 l 14,-2.75 a 3.7783214,3.7783214 0 0 0 3,-4.4062 l -0.6875,-3.6563 a 3.7783214,3.7783214 0 0 0 -4.09375,-3.0625 l 1.9375,-3.0625 a 3.7783214,3.7783214 0 0 0 0.53125,-2.75 l -0.6875,-3.5937 a 3.7783214,3.7783214 0 0 0 -3.78125,-3.0625 z"
       id="path3777"
       inkscape:connector-curvature="0" />
    <path
       inkscape:connector-curvature="0"
       id="path4031"
       style="font-size:30.46715736px;font-style:normal;font-variant:normal;font-weight:bold;font-stretch:normal;text-align:end;line-height:125%;letter-spacing:0px;word-spacing:0px;text-anchor:end;fill:#ff005c;fill-opacity:1;stroke:none;font-family:mry_KacstQurn;-inkscape-font-specification:mry_KacstQurn Bold"
       d="m 17.246058,1009.3423 13.654243,-2.6883 0.66921,3.5915 -6.602056,10.4442 8.245653,-1.6235 0.68528,3.6777 -14.003631,2.7571 -0.66921,-3.5914 6.602055,-10.4442 -7.896265,1.5546 -0.685279,-3.6777" />
    <path
       inkscape:connector-curvature="0"
       id="path4028"
       style="font-size:22.47781181px;font-style:normal;font-variant:normal;font-weight:bold;font-stretch:normal;text-align:end;line-height:125%;letter-spacing:0px;word-spacing:0px;text-anchor:end;fill:#ff7100;fill-opacity:1;stroke:none;font-family:mry_KacstQurn;-inkscape-font-specification:mry_KacstQurn Bold"
       d="m 27.539601,1004.0904 10.073719,-1.9834 0.49373,2.6497 -4.870816,7.7055 6.083419,-1.1977 0.505574,2.7133 -10.331492,2.0341 L 29,1013.3622 l 4.870816,-7.7055 -5.825636,1.147 -0.505579,-2.7133" />
    <path
       inkscape:connector-curvature="0"
       id="path4022"
       style="font-size:16.28399658px;font-style:normal;font-variant:normal;font-weight:bold;font-stretch:normal;text-align:end;line-height:125%;letter-spacing:0px;word-spacing:0px;text-anchor:end;fill:#08ff00;fill-opacity:1;stroke:none;font-family:mry_KacstQurn;-inkscape-font-specification:mry_KacstQurn Bold"
       d="m 56.030494,999.0048 7.070602,2.3485 -0.5846,1.8598 -5.705643,3.1495 4.269864,1.4181 -0.598631,1.9044 -7.25153,-2.4084 0.584603,-1.8599 5.70564,-3.1494 -4.088936,-1.3582 0.59863,-1.9044" />
    <path
       inkscape:connector-curvature="0"
       id="path4016"
       style="font-size:18.56268883px;font-style:normal;font-variant:normal;font-weight:bold;font-stretch:normal;text-align:end;line-height:125%;letter-spacing:0px;word-spacing:0px;text-anchor:end;fill:#0020ff;fill-opacity:1;stroke:none;font-family:mry_KacstQurn;-inkscape-font-specification:mry_KacstQurn Bold"
       d="m 60.628688,982.90463 7.615443,-3.8119 0.948906,2.00312 -2.268378,7.2216 4.598882,-2.30196 0.971674,2.05119 -7.810306,3.9095 -0.948902,-2.0032 2.268378,-7.22158 -4.40402,2.20442 -0.971678,-2.05119" />
    <path
       inkscape:connector-curvature="0"
       id="path4013"
       style="font-size:18.56268883px;font-style:normal;font-variant:normal;font-weight:bold;font-stretch:normal;text-align:end;line-height:125%;letter-spacing:0px;word-spacing:0px;text-anchor:end;fill:#ff00f1;fill-opacity:1;stroke:none;font-family:mry_KacstQurn;-inkscape-font-specification:mry_KacstQurn Bold"
       d="m 67.936744,973.21777 7.615442,-3.8119 0.948902,2.00311 -2.268379,7.22161 4.598883,-2.30198 0.971679,2.0512 -7.810306,3.90943 -0.948902,-2.0031 2.268379,-7.22161 -4.404021,2.20443 -0.971677,-2.05119" />
    <g
       id="g3797"
       transform="matrix(0.98707507,0.16025854,-0.16025854,0.98707507,165.8791,4.79093)"
       style="fill:#ffc61e">
      <path
         inkscape:connector-curvature="0"
         transform="translate(23.27956,0.42652)"
         style="font-size:30.46715736px;font-style:normal;font-variant:normal;font-weight:bold;font-stretch:normal;text-align:end;line-height:125%;letter-spacing:0px;word-spacing:0px;text-anchor:end;fill:#ffc61e;fill-opacity:0.17351601;stroke:none;font-family:mry_KacstQurn;-inkscape-font-specification:mry_KacstQurn Bold"
         d="m 28.625,1005.75 a 1.773976,1.773976 0 0 0 -0.3125,0.031 l -13.65625,2.6876 A 1.773976,1.773976 0 0 0 13.25,1010.531 l 0.6875,3.6876 a 1.773976,1.773976 0 0 0 2.09375,1.4374 l 3.875,-0.75 -4.40625,6.9688 a 1.773976,1.773976 0 0 0 -0.25,1.25 l 0.65625,3.5625 A 1.773976,1.773976 0 0 0 18,1028.125 l 14,-2.75 a 1.773976,1.773976 0 0 0 1.40625,-2.0625 l -0.6875,-3.6563 a 1.773976,1.773976 0 0 0 -2.09375,-1.4374 l -4.1875,0.8124 4.40625,-6.9687 a 1.773976,1.773976 0 0 0 0.25,-1.2813 l -0.6875,-3.5937 A 1.773976,1.773976 0 0 0 28.625,1005.75 z"
         id="path3787" />
      <path
         inkscape:connector-curvature="0"
         transform="translate(23.27956,0.42652)"
         style="font-size:30.46715736px;font-style:normal;font-variant:normal;font-weight:bold;font-stretch:normal;text-align:end;line-height:125%;letter-spacing:0px;word-spacing:0px;text-anchor:end;fill:#ffc61e;fill-opacity:0.17351601;stroke:none;font-family:mry_KacstQurn;-inkscape-font-specification:mry_KacstQurn Bold"
         d="m 28.5,1006.7188 -13.65625,2.6874 a 0.8280998,0.8280998 0 0 0 -0.65625,0.9688 l 0.6875,3.6875 a 0.8280998,0.8280998 0 0 0 0.96875,0.6563 l 6.03125,-1.1876 -5.5625,8.8438 a 0.8280998,0.8280998 0 0 0 -0.125,0.5938 l 0.65625,3.5624 a 0.8280998,0.8280998 0 0 0 0.96875,0.6563 l 14,-2.75 a 0.8280998,0.8280998 0 0 0 0.65625,-0.9687 l -0.6875,-3.6563 a 0.8280998,0.8280998 0 0 0 -0.96875,-0.6563 l -6.375,1.25 5.59375,-8.8437 a 0.8280998,0.8280998 0 0 0 0.125,-0.5937 l -0.6875,-3.5938 A 0.8280998,0.8280998 0 0 0 28.5,1006.7188 z"
         id="path3789" />
      <path
         inkscape:connector-curvature="0"
         transform="translate(23.27956,0.42652)"
         style="font-size:30.46715736px;font-style:normal;font-variant:normal;font-weight:bold;font-stretch:normal;text-align:end;line-height:125%;letter-spacing:0px;word-spacing:0px;text-anchor:end;fill:#ffc61e;fill-opacity:0.17351601;stroke:none;font-family:mry_KacstQurn;-inkscape-font-specification:mry_KacstQurn Bold"
         d="m 28.25,1004.5 c -0.03362,0.01 -0.06036,0.014 -0.125,0.031 a 0.75384919,0.75384919 0 0 1 -0.03125,0.031 l -13.65625,2.688 c -0.0726,0.014 -0.08442,0.014 -0.15625,0.031 -0.07183,0.018 -0.08536,0.01 -0.15625,0.031 -0.07089,0.021 -0.05523,0.01 -0.125,0.031 -0.06977,0.024 -0.08775,0.035 -0.15625,0.062 -0.0685,0.028 -0.05795,0.031 -0.125,0.063 -0.06705,0.031 -0.05955,0.028 -0.125,0.062 -0.06545,0.034 -0.06131,0.025 -0.125,0.063 -0.06369,0.038 -0.06322,0.053 -0.125,0.094 -0.06178,0.041 -0.06528,0.05 -0.125,0.094 -0.05972,0.044 -0.06749,0.016 -0.125,0.063 -0.05751,0.046 -0.06983,0.076 -0.125,0.125 -0.05517,0.049 -0.04105,0.042 -0.09375,0.094 -0.0527,0.052 -0.04365,0.039 -0.09375,0.094 -0.0501,0.054 -0.04637,0.068 -0.09375,0.125 -0.04738,0.057 -0.0492,0.035 -0.09375,0.094 -0.04455,0.059 -0.05214,0.064 -0.09375,0.125 -0.04161,0.061 -0.05518,0.062 -0.09375,0.125 -0.03857,0.063 -0.02706,0.06 -0.0625,0.125 -0.03544,0.065 -0.03028,0.09 -0.0625,0.1562 -0.03222,0.067 -0.03357,0.057 -0.0625,0.125 -0.02893,0.068 -0.03694,0.056 -0.0625,0.125 -0.02556,0.069 -0.04036,0.086 -0.0625,0.1563 -0.02214,0.071 -0.01259,0.053 -0.03125,0.125 -0.01866,0.072 -0.01611,0.084 -0.03125,0.1563 -0.01514,0.072 -0.01967,0.083 -0.03125,0.1562 -0.01158,0.073 0.008,0.052 0,0.125 -0.008,0.073 -0.02686,0.082 -0.03125,0.1562 -0.0044,0.074 7.77e-4,0.082 0,0.1563 -7.77e-4,0.074 -0.0028,0.051 0,0.125 0.0028,0.074 -0.0065,0.083 0,0.1563 0.0065,0.074 0.0212,0.083 0.03125,0.1562 0.01005,0.073 0.01763,0.084 0.03125,0.1562 l 0.6875,3.6876 c 0.01208,0.066 0.01628,0.06 0.03125,0.125 0.01497,0.065 0.01342,0.061 0.03125,0.125 0.01783,0.064 0.0106,0.061 0.03125,0.125 0.02065,0.063 0.0078,0.062 0.03125,0.125 0.02344,0.062 0.03632,0.063 0.0625,0.125 0.02618,0.061 0.03363,0.065 0.0625,0.125 0.02887,0.06 0.031,0.066 0.0625,0.125 0.0315,0.059 0.02843,0.067 0.0625,0.125 0.03407,0.057 0.02592,0.038 0.0625,0.094 0.03658,0.056 0.02349,0.071 0.0625,0.125 0.03901,0.054 0.05238,0.041 0.09375,0.094 0.04137,0.053 0.05011,0.043 0.09375,0.094 0.04364,0.051 0.04792,0.076 0.09375,0.125 0.04583,0.049 0.04581,0.047 0.09375,0.094 0.04794,0.046 0.04381,0.049 0.09375,0.094 0.04994,0.044 0.0419,0.02 0.09375,0.062 0.05185,0.042 0.04009,0.054 0.09375,0.094 0.05366,0.04 0.06964,0.025 0.125,0.062 0.05536,0.037 0.03679,0.059 0.09375,0.094 0.05696,0.035 0.06656,0.03 0.125,0.062 0.05844,0.032 0.06518,0.033 0.125,0.062 0.05982,0.03 0.06393,0.035 0.125,0.062 0.06107,0.027 0.0628,0.01 0.125,0.031 0.0622,0.024 0.06179,0.041 0.125,0.062 0.06321,0.022 0.0609,0.013 0.125,0.031 0.0641,0.019 0.06013,0.015 0.125,0.031 0.06487,0.016 0.0595,0.018 0.125,0.031 0.0655,0.013 0.05899,0.021 0.125,0.031 0.06601,0.01 0.08986,-0.01 0.15625,0 0.06639,0.01 0.05836,0.027 0.125,0.031 0.06664,0 0.05824,0 0.125,0 0.06676,0 0.05825,0 0.125,0 a 0.75384919,0.75384919 0 0 1 0.65625,1.1563 l -1.96875,3.125 c -0.03758,0.059 -0.0277,0.064 -0.0625,0.125 -0.0348,0.061 -0.03056,0.063 -0.0625,0.125 -0.03194,0.062 -0.03349,0.061 -0.0625,0.125 -0.02901,0.064 -0.03647,0.06 -0.0625,0.125 -0.02603,0.065 -0.0083,0.059 -0.03125,0.125 -0.02298,0.066 -0.04261,0.058 -0.0625,0.125 -0.01989,0.067 -0.01449,0.088 -0.03125,0.1562 -0.01676,0.068 -0.01766,0.056 -0.03125,0.125 -0.01359,0.069 -0.02087,0.087 -0.03125,0.1562 -0.01038,0.069 0.0072,0.055 0,0.125 -0.0072,0.07 -0.02733,0.055 -0.03125,0.125 -0.0039,0.07 6.77e-4,0.086 0,0.1563 -6.77e-4,0.07 -0.0026,0.055 0,0.125 0.0026,0.07 0.02544,0.086 0.03125,0.1563 0.0058,0.07 -0.009,0.056 0,0.125 0.009,0.069 0.019,0.087 0.03125,0.1562 l 0.65625,3.5625 c 0.0134,0.073 0.01424,0.052 0.03125,0.125 0.01701,0.073 0.01066,0.084 0.03125,0.1563 0.02059,0.072 0.0071,0.085 0.03125,0.1562 0.02411,0.071 0.03492,0.056 0.0625,0.125 0.02758,0.069 0.03152,0.057 0.0625,0.125 0.03098,0.068 0.0282,0.09 0.0625,0.1562 0.0343,0.066 0.02496,0.061 0.0625,0.125 0.03754,0.065 0.05307,0.062 0.09375,0.125 0.04068,0.063 0.01877,0.065 0.0625,0.125 0.04373,0.061 0.04708,0.067 0.09375,0.125 0.04667,0.058 0.04425,0.038 0.09375,0.094 0.0495,0.056 0.0728,0.072 0.125,0.125 0.0522,0.053 0.03897,0.043 0.09375,0.094 0.05478,0.051 0.06778,0.046 0.125,0.094 0.05722,0.048 0.03423,0.049 0.09375,0.094 0.05952,0.045 0.06332,0.052 0.125,0.094 0.06168,0.042 0.06131,0.055 0.125,0.094 0.06369,0.039 0.09071,0.027 0.15625,0.062 0.06554,0.036 0.05777,0.03 0.125,0.063 0.06723,0.032 0.05624,0.033 0.125,0.062 0.06876,0.029 0.08613,0.037 0.15625,0.063 0.07012,0.026 0.0537,0.04 0.125,0.062 0.0713,0.022 0.08393,0.013 0.15625,0.031 0.07232,0.019 0.05185,0.016 0.125,0.031 0.07315,0.015 0.08244,0.02 0.15625,0.031 0.07381,0.012 0.08196,0.023 0.15625,0.031 0.07429,0.01 0.08167,0 0.15625,0 0.07458,0 0.0503,-4e-4 0.125,0 0.0747,5e-4 0.08162,0 0.15625,0 0.07463,0 0.08187,0.01 0.15625,0 0.07438,-0.01 0.08231,-0.021 0.15625,-0.031 0.07394,-0.011 0.05167,-0.017 0.125,-0.031 l 14,-2.75 c 0.0726,-0.014 0.08442,-0.014 0.15625,-0.031 0.07183,-0.017 0.08536,-0.01 0.15625,-0.031 0.07089,-0.021 0.05522,-0.01 0.125,-0.031 0.06978,-0.024 0.08775,-0.035 0.15625,-0.062 0.0685,-0.028 0.05794,-0.031 0.125,-0.062 0.06706,-0.031 0.05955,-0.028 0.125,-0.062 0.06545,-0.034 0.06131,-0.025 0.125,-0.062 0.06369,-0.037 0.06322,-0.053 0.125,-0.094 0.06178,-0.041 0.06528,-0.05 0.125,-0.094 0.05972,-0.044 0.06749,-0.016 0.125,-0.062 0.05751,-0.046 0.06983,-0.044 0.125,-0.094 0.05517,-0.049 0.04105,-0.073 0.09375,-0.125 0.0527,-0.052 0.04365,-0.039 0.09375,-0.094 0.0501,-0.054 0.04637,-0.068 0.09375,-0.125 0.04738,-0.057 0.0492,-0.035 0.09375,-0.094 0.04455,-0.059 0.05214,-0.064 0.09375,-0.125 0.04161,-0.061 0.05518,-0.062 0.09375,-0.125 0.03857,-0.063 0.02706,-0.06 0.0625,-0.125 0.03544,-0.065 0.03028,-0.09 0.0625,-0.1563 0.03222,-0.066 0.03357,-0.057 0.0625,-0.125 0.02893,-0.068 0.03694,-0.056 0.0625,-0.125 0.02556,-0.069 0.04036,-0.086 0.0625,-0.1563 0.02214,-0.07 0.01259,-0.053 0.03125,-0.125 0.01866,-0.071 0.01611,-0.084 0.03125,-0.1562 0.01514,-0.072 0.01967,-0.083 0.03125,-0.1562 0.01158,-0.073 -0.008,-0.052 0,-0.125 0.008,-0.073 0.02686,-0.082 0.03125,-0.1563 0.0044,-0.074 -7.76e-4,-0.082 0,-0.1563 7.76e-4,-0.074 0.0028,-0.051 0,-0.125 -0.0028,-0.074 0.0065,-0.083 0,-0.1562 -0.0065,-0.074 -0.0212,-0.083 -0.03125,-0.1562 -0.01005,-0.073 -0.01763,-0.084 -0.03125,-0.1563 l -0.6875,-3.6563 c -0.01294,-0.069 -0.01512,-0.057 -0.03125,-0.125 -0.01613,-0.068 -0.01197,-0.058 -0.03125,-0.125 -0.01928,-0.067 -0.0089,-0.09 -0.03125,-0.1562 -0.02239,-0.067 -0.03705,-0.06 -0.0625,-0.125 -0.02545,-0.065 -0.0028,-0.061 -0.03125,-0.125 -0.02846,-0.064 -0.03109,-0.062 -0.0625,-0.125 -0.03141,-0.063 -0.02822,-0.064 -0.0625,-0.125 -0.03428,-0.061 -0.05666,-0.065 -0.09375,-0.125 -0.03709,-0.06 -0.02269,-0.067 -0.0625,-0.125 -0.03981,-0.058 -0.0513,-0.038 -0.09375,-0.094 -0.04245,-0.056 -0.04875,-0.071 -0.09375,-0.125 -0.045,-0.054 -0.0463,-0.042 -0.09375,-0.094 -0.04745,-0.052 -0.04395,-0.044 -0.09375,-0.094 -0.0498,-0.049 -0.04171,-0.047 -0.09375,-0.094 -0.05204,-0.047 -0.03958,-0.049 -0.09375,-0.094 -0.05417,-0.044 -0.06882,-0.052 -0.125,-0.094 -0.05618,-0.042 -0.06693,-0.054 -0.125,-0.094 -0.05807,-0.039 -0.03392,-0.026 -0.09375,-0.063 -0.05983,-0.037 -0.06353,-0.06 -0.125,-0.094 -0.06147,-0.034 -0.06202,-0.032 -0.125,-0.062 -0.06298,-0.031 -0.06066,0 -0.125,-0.031 -0.06434,-0.028 -0.05943,-0.038 -0.125,-0.063 -0.06557,-0.025 -0.08959,-0.041 -0.15625,-0.062 -0.06666,-0.022 -0.0574,-0.012 -0.125,-0.031 -0.0676,-0.019 -0.0566,-0.016 -0.125,-0.031 -0.0684,-0.016 -0.0872,-0.019 -0.15625,-0.031 -0.06905,-0.012 -0.05544,-0.022 -0.125,-0.031 -0.06956,-0.01 -0.08634,0.01 -0.15625,0 -0.06991,-0.01 -0.05489,0 -0.125,0 -0.07011,0 -0.08609,-6e-4 -0.15625,0 -0.07016,5e-4 -0.05494,0 -0.125,0 -0.07006,0 -0.08645,-0.01 -0.15625,0 a 0.75384919,0.75384919 0 0 1 -0.6875,-1.1563 l 1.9375,-3.0625 c 0.03872,-0.06 0.02668,-0.063 0.0625,-0.125 0.03582,-0.062 0.02967,-0.061 0.0625,-0.125 0.03283,-0.064 0.03273,-0.06 0.0625,-0.125 0.02977,-0.065 0.03586,-0.058 0.0625,-0.125 0.02664,-0.067 0.03905,-0.088 0.0625,-0.1562 0.02345,-0.068 0.01104,-0.056 0.03125,-0.125 0.02021,-0.069 0.01432,-0.055 0.03125,-0.125 0.01693,-0.07 0.01765,-0.086 0.03125,-0.1563 0.0136,-0.07 0.02101,-0.054 0.03125,-0.125 0.01024,-0.071 0.02438,-0.085 0.03125,-0.1563 0.0069,-0.071 -0.0035,-0.085 0,-0.1562 0.0035,-0.072 -7e-5,-0.053 0,-0.125 7e-5,-0.072 0.0033,-0.085 0,-0.1562 -0.0033,-0.072 0.0067,-0.054 0,-0.125 -0.0067,-0.071 -0.02114,-0.085 -0.03125,-0.1563 -0.01011,-0.071 -0.01779,-0.055 -0.03125,-0.125 l -0.6875,-3.5937 c -0.0125,-0.065 -0.01592,-0.092 -0.03125,-0.1563 -0.01533,-0.064 -0.01313,-0.062 -0.03125,-0.125 -0.01812,-0.063 -0.01037,-0.062 -0.03125,-0.125 -0.02088,-0.063 -0.0077,-0.063 -0.03125,-0.125 -0.0236,-0.062 -0.03623,-0.064 -0.0625,-0.125 -0.02627,-0.061 -0.0336,-0.034 -0.0625,-0.094 -0.0289,-0.059 -0.03103,-0.067 -0.0625,-0.125 -0.03147,-0.058 -0.02852,-0.068 -0.0625,-0.125 -0.03398,-0.057 -0.02608,-0.039 -0.0625,-0.094 -0.03642,-0.055 -0.02371,-0.072 -0.0625,-0.125 -0.03879,-0.053 -0.05266,-0.042 -0.09375,-0.094 -0.04109,-0.052 -0.05044,-0.075 -0.09375,-0.125 -0.04331,-0.05 -0.01705,-0.046 -0.0625,-0.094 -0.04545,-0.048 -0.04624,-0.048 -0.09375,-0.094 -0.04751,-0.046 -0.07553,-0.05 -0.125,-0.094 -0.04947,-0.044 -0.04242,-0.021 -0.09375,-0.062 -0.05133,-0.042 -0.04065,-0.054 -0.09375,-0.094 -0.0531,-0.039 -0.07023,-0.026 -0.125,-0.063 -0.05477,-0.037 -0.03742,-0.059 -0.09375,-0.094 -0.05633,-0.034 -0.06722,-0.03 -0.125,-0.062 -0.05778,-0.032 -0.06587,-0.033 -0.125,-0.062 -0.05913,-0.029 -0.03339,-0.036 -0.09375,-0.062 -0.06036,-0.027 -0.06353,-0.01 -0.125,-0.031 -0.06147,-0.024 -0.06253,-0.041 -0.125,-0.063 -0.06247,-0.021 -0.06165,-0.013 -0.125,-0.031 -0.06335,-0.019 -0.06089,-0.015 -0.125,-0.031 -0.06411,-0.016 -0.09151,-0.018 -0.15625,-0.031 -0.06474,-0.013 -0.05975,-0.021 -0.125,-0.031 -0.06525,-0.01 -0.05936,0.01 -0.125,0 -0.06564,-0.01 -0.0591,-0.027 -0.125,-0.031 -0.0659,0 -0.05896,0 -0.125,0 -0.06604,0 -0.09021,0 -0.15625,0 a 0.75384919,0.75384919 0 0 1 -0.03125,0 c -0.07491,0 -0.08125,0 -0.15625,0 -0.03,0 -0.04687,-2e-4 -0.0625,0 -0.02344,4e-4 -0.04881,0 -0.09375,0 z"
         id="path3791" />
      <path
         style="font-size:30.46715736px;font-style:normal;font-variant:normal;font-weight:bold;font-stretch:normal;text-align:end;line-height:125%;letter-spacing:0px;word-spacing:0px;text-anchor:end;fill:#ffc61e;fill-opacity:0.17351601;stroke:none;font-family:mry_KacstQurn;-inkscape-font-specification:mry_KacstQurn Bold"
         d="m 51.87331,1004.1637 a 3.7783214,3.7783214 0 0 0 -0.65625,0.062 l -13.65625,2.6875 a 3.7783214,3.7783214 0 0 0 -3,4.4062 l 0.6875,3.6875 a 3.7783214,3.7783214 0 0 0 3.8125,3.0938 l -1.96875,3.125 a 3.7783214,3.7783214 0 0 0 -0.53125,2.6875 l 0.65625,3.5625 a 3.7783214,3.7783214 0 0 0 4.4375,3.0312 l 14,-2.75 a 3.7783214,3.7783214 0 0 0 3,-4.4062 l -0.6875,-3.6563 a 3.7783214,3.7783214 0 0 0 -4.09375,-3.0625 l 1.9375,-3.0625 a 3.7783214,3.7783214 0 0 0 0.53125,-2.75 l -0.6875,-3.5937 a 3.7783214,3.7783214 0 0 0 -3.78125,-3.0625 z"
         id="path3793"
         inkscape:connector-curvature="0" />
      <path
         inkscape:connector-curvature="0"
         id="path3795"
         style="font-size:30.46715736px;font-style:normal;font-variant:normal;font-weight:bold;font-stretch:normal;text-align:end;line-height:125%;letter-spacing:0px;word-spacing:0px;text-anchor:end;fill:#ffc61e;fill-opacity:1;stroke:none;font-family:mry_KacstQurn;-inkscape-font-specification:mry_KacstQurn Bold"
         d="m 38.291053,1010.658 13.654243,-2.6883 0.66921,3.5915 -6.602056,10.4442 8.245653,-1.6235 0.68528,3.6777 -14.003631,2.7571 -0.66921,-3.5914 6.602055,-10.4442 -7.896265,1.5546 -0.685279,-3.6777" />
    </g>
    <g
       style="fill:#00a3dd"
       transform="matrix(0.52456265,-0.19185286,0.19185286,0.52456265,-152.02483,475.07958)"
       id="g3809">
      <path
         inkscape:connector-curvature="0"
         transform="translate(23.27956,0.42652)"
         style="font-size:30.46715736px;font-style:normal;font-variant:normal;font-weight:bold;font-stretch:normal;text-align:end;line-height:125%;letter-spacing:0px;word-spacing:0px;text-anchor:end;fill:#00a3dd;fill-opacity:0.17351601;stroke:none;font-family:mry_KacstQurn;-inkscape-font-specification:mry_KacstQurn Bold"
         d="m 28.625,1005.75 a 1.773976,1.773976 0 0 0 -0.3125,0.031 l -13.65625,2.6876 A 1.773976,1.773976 0 0 0 13.25,1010.531 l 0.6875,3.6876 a 1.773976,1.773976 0 0 0 2.09375,1.4374 l 3.875,-0.75 -4.40625,6.9688 a 1.773976,1.773976 0 0 0 -0.25,1.25 l 0.65625,3.5625 A 1.773976,1.773976 0 0 0 18,1028.125 l 14,-2.75 a 1.773976,1.773976 0 0 0 1.40625,-2.0625 l -0.6875,-3.6563 a 1.773976,1.773976 0 0 0 -2.09375,-1.4374 l -4.1875,0.8124 4.40625,-6.9687 a 1.773976,1.773976 0 0 0 0.25,-1.2813 l -0.6875,-3.5937 A 1.773976,1.773976 0 0 0 28.625,1005.75 z"
         id="path3811" />
      <path
         inkscape:connector-curvature="0"
         transform="translate(23.27956,0.42652)"
         style="font-size:30.46715736px;font-style:normal;font-variant:normal;font-weight:bold;font-stretch:normal;text-align:end;line-height:125%;letter-spacing:0px;word-spacing:0px;text-anchor:end;fill:#00a3dd;fill-opacity:0.17351601;stroke:none;font-family:mry_KacstQurn;-inkscape-font-specification:mry_KacstQurn Bold"
         d="m 28.5,1006.7188 -13.65625,2.6874 a 0.8280998,0.8280998 0 0 0 -0.65625,0.9688 l 0.6875,3.6875 a 0.8280998,0.8280998 0 0 0 0.96875,0.6563 l 6.03125,-1.1876 -5.5625,8.8438 a 0.8280998,0.8280998 0 0 0 -0.125,0.5938 l 0.65625,3.5624 a 0.8280998,0.8280998 0 0 0 0.96875,0.6563 l 14,-2.75 a 0.8280998,0.8280998 0 0 0 0.65625,-0.9687 l -0.6875,-3.6563 a 0.8280998,0.8280998 0 0 0 -0.96875,-0.6563 l -6.375,1.25 5.59375,-8.8437 a 0.8280998,0.8280998 0 0 0 0.125,-0.5937 l -0.6875,-3.5938 A 0.8280998,0.8280998 0 0 0 28.5,1006.7188 z"
         id="path3813" />
      <path
         inkscape:connector-curvature="0"
         transform="translate(23.27956,0.42652)"
         style="font-size:30.46715736px;font-style:normal;font-variant:normal;font-weight:bold;font-stretch:normal;text-align:end;line-height:125%;letter-spacing:0px;word-spacing:0px;text-anchor:end;fill:#00a3dd;fill-opacity:0.17351601;stroke:none;font-family:mry_KacstQurn;-inkscape-font-specification:mry_KacstQurn Bold"
         d="m 28.25,1004.5 c -0.03362,0.01 -0.06036,0.014 -0.125,0.031 a 0.75384919,0.75384919 0 0 1 -0.03125,0.031 l -13.65625,2.688 c -0.0726,0.014 -0.08442,0.014 -0.15625,0.031 -0.07183,0.018 -0.08536,0.01 -0.15625,0.031 -0.07089,0.021 -0.05523,0.01 -0.125,0.031 -0.06977,0.024 -0.08775,0.035 -0.15625,0.062 -0.0685,0.028 -0.05795,0.031 -0.125,0.063 -0.06705,0.031 -0.05955,0.028 -0.125,0.062 -0.06545,0.034 -0.06131,0.025 -0.125,0.063 -0.06369,0.038 -0.06322,0.053 -0.125,0.094 -0.06178,0.041 -0.06528,0.05 -0.125,0.094 -0.05972,0.044 -0.06749,0.016 -0.125,0.063 -0.05751,0.046 -0.06983,0.076 -0.125,0.125 -0.05517,0.049 -0.04105,0.042 -0.09375,0.094 -0.0527,0.052 -0.04365,0.039 -0.09375,0.094 -0.0501,0.054 -0.04637,0.068 -0.09375,0.125 -0.04738,0.057 -0.0492,0.035 -0.09375,0.094 -0.04455,0.059 -0.05214,0.064 -0.09375,0.125 -0.04161,0.061 -0.05518,0.062 -0.09375,0.125 -0.03857,0.063 -0.02706,0.06 -0.0625,0.125 -0.03544,0.065 -0.03028,0.09 -0.0625,0.1562 -0.03222,0.067 -0.03357,0.057 -0.0625,0.125 -0.02893,0.068 -0.03694,0.056 -0.0625,0.125 -0.02556,0.069 -0.04036,0.086 -0.0625,0.1563 -0.02214,0.071 -0.01259,0.053 -0.03125,0.125 -0.01866,0.072 -0.01611,0.084 -0.03125,0.1563 -0.01514,0.072 -0.01967,0.083 -0.03125,0.1562 -0.01158,0.073 0.008,0.052 0,0.125 -0.008,0.073 -0.02686,0.082 -0.03125,0.1562 -0.0044,0.074 7.77e-4,0.082 0,0.1563 -7.77e-4,0.074 -0.0028,0.051 0,0.125 0.0028,0.074 -0.0065,0.083 0,0.1563 0.0065,0.074 0.0212,0.083 0.03125,0.1562 0.01005,0.073 0.01763,0.084 0.03125,0.1562 l 0.6875,3.6876 c 0.01208,0.066 0.01628,0.06 0.03125,0.125 0.01497,0.065 0.01342,0.061 0.03125,0.125 0.01783,0.064 0.0106,0.061 0.03125,0.125 0.02065,0.063 0.0078,0.062 0.03125,0.125 0.02344,0.062 0.03632,0.063 0.0625,0.125 0.02618,0.061 0.03363,0.065 0.0625,0.125 0.02887,0.06 0.031,0.066 0.0625,0.125 0.0315,0.059 0.02843,0.067 0.0625,0.125 0.03407,0.057 0.02592,0.038 0.0625,0.094 0.03658,0.056 0.02349,0.071 0.0625,0.125 0.03901,0.054 0.05238,0.041 0.09375,0.094 0.04137,0.053 0.05011,0.043 0.09375,0.094 0.04364,0.051 0.04792,0.076 0.09375,0.125 0.04583,0.049 0.04581,0.047 0.09375,0.094 0.04794,0.046 0.04381,0.049 0.09375,0.094 0.04994,0.044 0.0419,0.02 0.09375,0.062 0.05185,0.042 0.04009,0.054 0.09375,0.094 0.05366,0.04 0.06964,0.025 0.125,0.062 0.05536,0.037 0.03679,0.059 0.09375,0.094 0.05696,0.035 0.06656,0.03 0.125,0.062 0.05844,0.032 0.06518,0.033 0.125,0.062 0.05982,0.03 0.06393,0.035 0.125,0.062 0.06107,0.027 0.0628,0.01 0.125,0.031 0.0622,0.024 0.06179,0.041 0.125,0.062 0.06321,0.022 0.0609,0.013 0.125,0.031 0.0641,0.019 0.06013,0.015 0.125,0.031 0.06487,0.016 0.0595,0.018 0.125,0.031 0.0655,0.013 0.05899,0.021 0.125,0.031 0.06601,0.01 0.08986,-0.01 0.15625,0 0.06639,0.01 0.05836,0.027 0.125,0.031 0.06664,0 0.05824,0 0.125,0 0.06676,0 0.05825,0 0.125,0 a 0.75384919,0.75384919 0 0 1 0.65625,1.1563 l -1.96875,3.125 c -0.03758,0.059 -0.0277,0.064 -0.0625,0.125 -0.0348,0.061 -0.03056,0.063 -0.0625,0.125 -0.03194,0.062 -0.03349,0.061 -0.0625,0.125 -0.02901,0.064 -0.03647,0.06 -0.0625,0.125 -0.02603,0.065 -0.0083,0.059 -0.03125,0.125 -0.02298,0.066 -0.04261,0.058 -0.0625,0.125 -0.01989,0.067 -0.01449,0.088 -0.03125,0.1562 -0.01676,0.068 -0.01766,0.056 -0.03125,0.125 -0.01359,0.069 -0.02087,0.087 -0.03125,0.1562 -0.01038,0.069 0.0072,0.055 0,0.125 -0.0072,0.07 -0.02733,0.055 -0.03125,0.125 -0.0039,0.07 6.77e-4,0.086 0,0.1563 -6.77e-4,0.07 -0.0026,0.055 0,0.125 0.0026,0.07 0.02544,0.086 0.03125,0.1563 0.0058,0.07 -0.009,0.056 0,0.125 0.009,0.069 0.019,0.087 0.03125,0.1562 l 0.65625,3.5625 c 0.0134,0.073 0.01424,0.052 0.03125,0.125 0.01701,0.073 0.01066,0.084 0.03125,0.1563 0.02059,0.072 0.0071,0.085 0.03125,0.1562 0.02411,0.071 0.03492,0.056 0.0625,0.125 0.02758,0.069 0.03152,0.057 0.0625,0.125 0.03098,0.068 0.0282,0.09 0.0625,0.1562 0.0343,0.066 0.02496,0.061 0.0625,0.125 0.03754,0.065 0.05307,0.062 0.09375,0.125 0.04068,0.063 0.01877,0.065 0.0625,0.125 0.04373,0.061 0.04708,0.067 0.09375,0.125 0.04667,0.058 0.04425,0.038 0.09375,0.094 0.0495,0.056 0.0728,0.072 0.125,0.125 0.0522,0.053 0.03897,0.043 0.09375,0.094 0.05478,0.051 0.06778,0.046 0.125,0.094 0.05722,0.048 0.03423,0.049 0.09375,0.094 0.05952,0.045 0.06332,0.052 0.125,0.094 0.06168,0.042 0.06131,0.055 0.125,0.094 0.06369,0.039 0.09071,0.027 0.15625,0.062 0.06554,0.036 0.05777,0.03 0.125,0.063 0.06723,0.032 0.05624,0.033 0.125,0.062 0.06876,0.029 0.08613,0.037 0.15625,0.063 0.07012,0.026 0.0537,0.04 0.125,0.062 0.0713,0.022 0.08393,0.013 0.15625,0.031 0.07232,0.019 0.05185,0.016 0.125,0.031 0.07315,0.015 0.08244,0.02 0.15625,0.031 0.07381,0.012 0.08196,0.023 0.15625,0.031 0.07429,0.01 0.08167,0 0.15625,0 0.07458,0 0.0503,-4e-4 0.125,0 0.0747,5e-4 0.08162,0 0.15625,0 0.07463,0 0.08187,0.01 0.15625,0 0.07438,-0.01 0.08231,-0.021 0.15625,-0.031 0.07394,-0.011 0.05167,-0.017 0.125,-0.031 l 14,-2.75 c 0.0726,-0.014 0.08442,-0.014 0.15625,-0.031 0.07183,-0.017 0.08536,-0.01 0.15625,-0.031 0.07089,-0.021 0.05522,-0.01 0.125,-0.031 0.06978,-0.024 0.08775,-0.035 0.15625,-0.062 0.0685,-0.028 0.05794,-0.031 0.125,-0.062 0.06706,-0.031 0.05955,-0.028 0.125,-0.062 0.06545,-0.034 0.06131,-0.025 0.125,-0.062 0.06369,-0.037 0.06322,-0.053 0.125,-0.094 0.06178,-0.041 0.06528,-0.05 0.125,-0.094 0.05972,-0.044 0.06749,-0.016 0.125,-0.062 0.05751,-0.046 0.06983,-0.044 0.125,-0.094 0.05517,-0.049 0.04105,-0.073 0.09375,-0.125 0.0527,-0.052 0.04365,-0.039 0.09375,-0.094 0.0501,-0.054 0.04637,-0.068 0.09375,-0.125 0.04738,-0.057 0.0492,-0.035 0.09375,-0.094 0.04455,-0.059 0.05214,-0.064 0.09375,-0.125 0.04161,-0.061 0.05518,-0.062 0.09375,-0.125 0.03857,-0.063 0.02706,-0.06 0.0625,-0.125 0.03544,-0.065 0.03028,-0.09 0.0625,-0.1563 0.03222,-0.066 0.03357,-0.057 0.0625,-0.125 0.02893,-0.068 0.03694,-0.056 0.0625,-0.125 0.02556,-0.069 0.04036,-0.086 0.0625,-0.1563 0.02214,-0.07 0.01259,-0.053 0.03125,-0.125 0.01866,-0.071 0.01611,-0.084 0.03125,-0.1562 0.01514,-0.072 0.01967,-0.083 0.03125,-0.1562 0.01158,-0.073 -0.008,-0.052 0,-0.125 0.008,-0.073 0.02686,-0.082 0.03125,-0.1563 0.0044,-0.074 -7.76e-4,-0.082 0,-0.1563 7.76e-4,-0.074 0.0028,-0.051 0,-0.125 -0.0028,-0.074 0.0065,-0.083 0,-0.1562 -0.0065,-0.074 -0.0212,-0.083 -0.03125,-0.1562 -0.01005,-0.073 -0.01763,-0.084 -0.03125,-0.1563 l -0.6875,-3.6563 c -0.01294,-0.069 -0.01512,-0.057 -0.03125,-0.125 -0.01613,-0.068 -0.01197,-0.058 -0.03125,-0.125 -0.01928,-0.067 -0.0089,-0.09 -0.03125,-0.1562 -0.02239,-0.067 -0.03705,-0.06 -0.0625,-0.125 -0.02545,-0.065 -0.0028,-0.061 -0.03125,-0.125 -0.02846,-0.064 -0.03109,-0.062 -0.0625,-0.125 -0.03141,-0.063 -0.02822,-0.064 -0.0625,-0.125 -0.03428,-0.061 -0.05666,-0.065 -0.09375,-0.125 -0.03709,-0.06 -0.02269,-0.067 -0.0625,-0.125 -0.03981,-0.058 -0.0513,-0.038 -0.09375,-0.094 -0.04245,-0.056 -0.04875,-0.071 -0.09375,-0.125 -0.045,-0.054 -0.0463,-0.042 -0.09375,-0.094 -0.04745,-0.052 -0.04395,-0.044 -0.09375,-0.094 -0.0498,-0.049 -0.04171,-0.047 -0.09375,-0.094 -0.05204,-0.047 -0.03958,-0.049 -0.09375,-0.094 -0.05417,-0.044 -0.06882,-0.052 -0.125,-0.094 -0.05618,-0.042 -0.06693,-0.054 -0.125,-0.094 -0.05807,-0.039 -0.03392,-0.026 -0.09375,-0.063 -0.05983,-0.037 -0.06353,-0.06 -0.125,-0.094 -0.06147,-0.034 -0.06202,-0.032 -0.125,-0.062 -0.06298,-0.031 -0.06066,0 -0.125,-0.031 -0.06434,-0.028 -0.05943,-0.038 -0.125,-0.063 -0.06557,-0.025 -0.08959,-0.041 -0.15625,-0.062 -0.06666,-0.022 -0.0574,-0.012 -0.125,-0.031 -0.0676,-0.019 -0.0566,-0.016 -0.125,-0.031 -0.0684,-0.016 -0.0872,-0.019 -0.15625,-0.031 -0.06905,-0.012 -0.05544,-0.022 -0.125,-0.031 -0.06956,-0.01 -0.08634,0.01 -0.15625,0 -0.06991,-0.01 -0.05489,0 -0.125,0 -0.07011,0 -0.08609,-6e-4 -0.15625,0 -0.07016,5e-4 -0.05494,0 -0.125,0 -0.07006,0 -0.08645,-0.01 -0.15625,0 a 0.75384919,0.75384919 0 0 1 -0.6875,-1.1563 l 1.9375,-3.0625 c 0.03872,-0.06 0.02668,-0.063 0.0625,-0.125 0.03582,-0.062 0.02967,-0.061 0.0625,-0.125 0.03283,-0.064 0.03273,-0.06 0.0625,-0.125 0.02977,-0.065 0.03586,-0.058 0.0625,-0.125 0.02664,-0.067 0.03905,-0.088 0.0625,-0.1562 0.02345,-0.068 0.01104,-0.056 0.03125,-0.125 0.02021,-0.069 0.01432,-0.055 0.03125,-0.125 0.01693,-0.07 0.01765,-0.086 0.03125,-0.1563 0.0136,-0.07 0.02101,-0.054 0.03125,-0.125 0.01024,-0.071 0.02438,-0.085 0.03125,-0.1563 0.0069,-0.071 -0.0035,-0.085 0,-0.1562 0.0035,-0.072 -7e-5,-0.053 0,-0.125 7e-5,-0.072 0.0033,-0.085 0,-0.1562 -0.0033,-0.072 0.0067,-0.054 0,-0.125 -0.0067,-0.071 -0.02114,-0.085 -0.03125,-0.1563 -0.01011,-0.071 -0.01779,-0.055 -0.03125,-0.125 l -0.6875,-3.5937 c -0.0125,-0.065 -0.01592,-0.092 -0.03125,-0.1563 -0.01533,-0.064 -0.01313,-0.062 -0.03125,-0.125 -0.01812,-0.063 -0.01037,-0.062 -0.03125,-0.125 -0.02088,-0.063 -0.0077,-0.063 -0.03125,-0.125 -0.0236,-0.062 -0.03623,-0.064 -0.0625,-0.125 -0.02627,-0.061 -0.0336,-0.034 -0.0625,-0.094 -0.0289,-0.059 -0.03103,-0.067 -0.0625,-0.125 -0.03147,-0.058 -0.02852,-0.068 -0.0625,-0.125 -0.03398,-0.057 -0.02608,-0.039 -0.0625,-0.094 -0.03642,-0.055 -0.02371,-0.072 -0.0625,-0.125 -0.03879,-0.053 -0.05266,-0.042 -0.09375,-0.094 -0.04109,-0.052 -0.05044,-0.075 -0.09375,-0.125 -0.04331,-0.05 -0.01705,-0.046 -0.0625,-0.094 -0.04545,-0.048 -0.04624,-0.048 -0.09375,-0.094 -0.04751,-0.046 -0.07553,-0.05 -0.125,-0.094 -0.04947,-0.044 -0.04242,-0.021 -0.09375,-0.062 -0.05133,-0.042 -0.04065,-0.054 -0.09375,-0.094 -0.0531,-0.039 -0.07023,-0.026 -0.125,-0.063 -0.05477,-0.037 -0.03742,-0.059 -0.09375,-0.094 -0.05633,-0.034 -0.06722,-0.03 -0.125,-0.062 -0.05778,-0.032 -0.06587,-0.033 -0.125,-0.062 -0.05913,-0.029 -0.03339,-0.036 -0.09375,-0.062 -0.06036,-0.027 -0.06353,-0.01 -0.125,-0.031 -0.06147,-0.024 -0.06253,-0.041 -0.125,-0.063 -0.06247,-0.021 -0.06165,-0.013 -0.125,-0.031 -0.06335,-0.019 -0.06089,-0.015 -0.125,-0.031 -0.06411,-0.016 -0.09151,-0.018 -0.15625,-0.031 -0.06474,-0.013 -0.05975,-0.021 -0.125,-0.031 -0.06525,-0.01 -0.05936,0.01 -0.125,0 -0.06564,-0.01 -0.0591,-0.027 -0.125,-0.031 -0.0659,0 -0.05896,0 -0.125,0 -0.06604,0 -0.09021,0 -0.15625,0 a 0.75384919,0.75384919 0 0 1 -0.03125,0 c -0.07491,0 -0.08125,0 -0.15625,0 -0.03,0 -0.04687,-2e-4 -0.0625,0 -0.02344,4e-4 -0.04881,0 -0.09375,0 z"
         id="path3815" />
      <path
         inkscape:connector-curvature="0"
         id="path3817"
         d="m 51.87331,1004.1637 a 3.7783214,3.7783214 0 0 0 -0.65625,0.062 l -13.65625,2.6875 a 3.7783214,3.7783214 0 0 0 -3,4.4062 l 0.6875,3.6875 a 3.7783214,3.7783214 0 0 0 3.8125,3.0938 l -1.96875,3.125 a 3.7783214,3.7783214 0 0 0 -0.53125,2.6875 l 0.65625,3.5625 a 3.7783214,3.7783214 0 0 0 4.4375,3.0312 l 14,-2.75 a 3.7783214,3.7783214 0 0 0 3,-4.4062 l -0.6875,-3.6563 a 3.7783214,3.7783214 0 0 0 -4.09375,-3.0625 l 1.9375,-3.0625 a 3.7783214,3.7783214 0 0 0 0.53125,-2.75 l -0.6875,-3.5937 a 3.7783214,3.7783214 0 0 0 -3.78125,-3.0625 z"
         style="font-size:30.46715736px;font-style:normal;font-variant:normal;font-weight:bold;font-stretch:normal;text-align:end;line-height:125%;letter-spacing:0px;word-spacing:0px;text-anchor:end;fill:#00a3dd;fill-opacity:0.17351601;stroke:none;font-family:mry_KacstQurn;-inkscape-font-specification:mry_KacstQurn Bold" />
      <path
         d="m 38.291053,1010.658 13.654243,-2.6883 0.66921,3.5915 -6.602056,10.4442 8.245653,-1.6235 0.68528,3.6777 -14.003631,2.7571 -0.66921,-3.5914 6.602055,-10.4442 -7.896265,1.5546 -0.685279,-3.6777"
         style="font-size:30.46715736px;font-style:normal;font-variant:normal;font-weight:bold;font-stretch:normal;text-align:end;line-height:125%;letter-spacing:0px;word-spacing:0px;text-anchor:end;fill:#00a3dd;fill-opacity:1;stroke:none;font-family:mry_KacstQurn;-inkscape-font-specification:mry_KacstQurn Bold"
         id="path3819"
         inkscape:connector-curvature="0" />
    </g>
  </g>
</svg>
