<?xml version="1.0" encoding="UTF-8" standalone="no"?>
<!-- Created with Inkscape (http://www.inkscape.org/) -->

<svg
   xmlns:dc="http://purl.org/dc/elements/1.1/"
   xmlns:cc="http://creativecommons.org/ns#"
   xmlns:rdf="http://www.w3.org/1999/02/22-rdf-syntax-ns#"
   xmlns:svg="http://www.w3.org/2000/svg"
   xmlns="http://www.w3.org/2000/svg"
   xmlns:sodipodi="http://sodipodi.sourceforge.net/DTD/sodipodi-0.dtd"
   xmlns:inkscape="http://www.inkscape.org/namespaces/inkscape"
   width="96"
   height="96"
   id="svg2"
   version="1.1"
   inkscape:version="0.48.4 r9939"
   sodipodi:docname="python.svg">
  <defs
     id="defs4" />
  <sodipodi:namedview
     id="base"
     pagecolor="#ffffff"
     bordercolor="#666666"
     borderopacity="1.0"
     inkscape:pageopacity="0.0"
     inkscape:pageshadow="2"
     inkscape:zoom="5.90625"
     inkscape:cx="29.184762"
     inkscape:cy="48"
     inkscape:document-units="px"
     inkscape:current-layer="layer1"
     showgrid="true"
     inkscape:snap-page="true"
     inkscape:snap-global="true"
     inkscape:snap-center="true"
     inkscape:snap-object-midpoints="false"
     showguides="true"
     inkscape:guide-bbox="true"
     inkscape:snap-bbox="true"
     inkscape:object-paths="true"
     inkscape:object-nodes="true"
     inkscape:window-width="1305"
     inkscape:window-height="744"
     inkscape:window-x="61"
     inkscape:window-y="24"
     inkscape:window-maximized="1"
     inkscape:snap-midpoints="false"
     inkscape:snap-grids="true"
     inkscape:snap-to-guides="false">
    <inkscape:grid
       type="xygrid"
       id="grid3002"
       empspacing="5"
       visible="true"
       enabled="true"
       snapvisiblegridlinesonly="true" />
  </sodipodi:namedview>
  <metadata
     id="metadata7">
    <rdf:RDF>
      <cc:Work
         rdf:about="">
        <dc:format>image/svg+xml</dc:format>
        <dc:type
           rdf:resource="http://purl.org/dc/dcmitype/StillImage" />
        <dc:title />
      </cc:Work>
    </rdf:RDF>
  </metadata>
  <g
     inkscape:label="Layer 1"
     inkscape:groupmode="layer"
     id="layer1"
     transform="translate(0,-956.36218)">
    <rect
       style="fill:#ffffff;fill-opacity:0;fill-rule:nonzero;stroke:none"
       id="rect3775"
       width="96"
       height="96"
       x="0"
       y="956.36218"
       ry="0" />
    <path
       style="fill:#000000;fill-opacity:0.09589041;fill-rule:nonzero;stroke:none"
       d="m 3.353015,956.30662 c -1.884176,0 -3.4111555,1.43156 -3.4111555,3.19799 l 0,83.65949 c 0,1.7665 1.5269795,3.1981 3.4111555,3.1981 l 89.23583,0 c 1.884174,0 3.411155,-1.4316 3.411155,-3.1981 l 0,-83.65949 c 0,-1.76643 -1.526981,-3.19799 -3.411155,-3.19799 z"
       id="rect3772"
       inkscape:connector-curvature="0"
       sodipodi:nodetypes="sssssssss" />
    <path
       style="fill:#000000;fill-opacity:0.18721463;fill-rule:nonzero;stroke:none"
       d="m 1.0459761,1041.8066 0,7.4219 c 0,1.7392 1.461916,3.1337 3.2852054,3.1337 l 86.3836135,0 c 1.823288,0 3.285205,-1.3945 3.285205,-3.1337 l 0,-7.4219 -92.9540239,0 z"
       id="rect3785"
       inkscape:connector-curvature="0" />
    <path
       style="fill:#000000;fill-opacity:0.38356168;fill-rule:nonzero;stroke:none"
       d="m 1.0459761,1041.8066 0,5.3807 c 0,1.762 1.461916,3.1749 3.2852054,3.1749 l 86.3836135,0 c 1.823288,0 3.285205,-1.4129 3.285205,-3.1749 l 0,-5.3807 -92.9540239,0 z"
       id="rect3783"
       inkscape:connector-curvature="0" />
    <rect
       style="fill:#313131;fill-opacity:1;fill-rule:nonzero;stroke:none"
       id="rect2985"
       width="92.954025"
       height="89"
       x="1.045977"
       y="-1046.3622"
       ry="3.1511393"
       transform="scale(1,-1)" />
    <path
       style="fill:#000000;fill-opacity:0.3561644;stroke:none"
       d="m 39.78125,972.11218 c -1.171826,-0.0148 -2.366172,0.083 -3.625,0.28125 -0.0233,0.004 -0.07041,-0.004 -0.09375,0 -1.036403,0.0874 -2.012604,0.21514 -2.9375,0.375 -3.746373,0.6465 -5.376166,1.76963 -6.03125,3.59375 -0.701864,0.84949 -1.125,1.87089 -1.125,3.09375 l 0,5.90625 0.71875,0 0,0.0312 -0.71875,0 -5.8125,0 c -2.950437,0 -4.395151,1.89478 -5.53125,4.5625 -0.0528,0.12398 -0.136118,0.24769 -0.1875,0.375 -0.04643,0.0992 -0.11291,0.17891 -0.15625,0.28125 -0.02847,0.0733 -0.03437,0.14449 -0.0625,0.21875 -0.156151,0.39684 -0.298124,0.80907 -0.40625,1.25 -0.018,0.0525 -0.04455,0.10341 -0.0625,0.15625 -1.344441,3.94012 -1.287231,7.72676 0,12.78122 0.924893,3.6392 2.658988,6.4063 6.40625,6.4063 l 5.65625,0 0,-5.0938 c 0,-4.3304 4.727998,-7.96872 8.09375,-7.96872 l 12,0 c 2.504771,0 4.689537,-1.77345 5.75,-4.03125 0.06639,-0.12227 0.129052,-0.24815 0.1875,-0.375 0.02448,-0.0606 0.03966,-0.12637 0.0625,-0.1875 0.05973,-0.14126 0.106647,-0.29136 0.15625,-0.4375 0.218601,-0.64412 0.34375,-1.34682 0.34375,-2.0625 l 0,-11.96875 c 0,-3.40882 -2.911679,-5.96232 -6.40625,-6.53125 -1.033485,-0.16804 -2.078702,-0.29004 -3.125,-0.375 -0.07284,-0.0117 -0.145826,-0.0204 -0.21875,-0.0312 -0.01214,-9.2e-4 -0.05036,9.1e-4 -0.0625,0 -0.932926,-0.13856 -1.851052,-0.23788 -2.8125,-0.25 z m -6.84375,2.625 c 1.290534,0 2.375,1.02446 2.375,2.28125 0,1.25231 -1.084466,2.28125 -2.375,2.28125 -1.295142,0 -2.3125,-1.02894 -2.3125,-2.28125 0,-1.25679 1.017358,-2.28125 2.3125,-2.28125 z m 21.21875,12.625 0,4.25 0,0.0312 -0.3125,1.46875 c 0,0.20926 -0.01832,0.42375 -0.03125,0.625 -0.91916,2.96916 -3.64798,5.56444 -6.625,6.31252 -0.0254,10e-4 -0.03698,0.03 -0.0625,0.031 -0.124617,0 -0.247729,0 -0.375,0 l -3.5625,0.25 -9.09375,0.031 c -3.431049,0 -6.4375,2.2289 -6.4375,6.3125 l 0,0.625 0,11.9687 c 0,3.4088 3.033486,5.4284 6.4375,6.4063 4.076229,1.1708 7.966593,1.3824 12.84375,0 0.416108,-0.1176 0.842116,-0.2565 1.25,-0.4063 2.906687,-1.0158 5.84375,-2.8239 5.84375,-6 l 0,-5.9062 5.8125,0 c 2.806864,0 4.290202,-1.7256 5.40625,-4.1875 0.0047,-0.01 -0.0047,-0.021 0,-0.031 0.372012,-0.778 0.674619,-1.6994 1,-2.6562 1.344441,-3.9401 1.28722,-7.69556 0,-12.75002 -0.924893,-3.63921 -2.658988,-6.375 -6.40625,-6.375 l -4.84375,0 -0.84375,0 z M 47.125,1017.1122 c 1.334908,0 2.375,1.0538 2.375,2.375 0,1.3259 -1.040092,2.4062 -2.375,2.4062 -1.330136,0 -2.4375,-1.0803 -2.4375,-2.4062 0,-1.3212 1.107364,-2.375 2.4375,-2.375 z"
       id="path3773"
       inkscape:connector-curvature="0" />
    <path
       style="fill:#000000;fill-opacity:0.38356168;fill-rule:nonzero;stroke:none"
       d="m 1,1042.3622 0.045976,2.7457 c 0.03024,1.8058 1.461916,3.2543 3.2852054,3.2543 l 86.3836136,0 c 1.823288,0 3.285205,-1.4481 3.285205,-3.2543 l -0.04598,-2.7457 z"
       id="rect3781"
       inkscape:connector-curvature="0"
       sodipodi:nodetypes="csssscc" />
    <rect
       style="fill:#ffffff;fill-opacity:0.30000001;fill-rule:nonzero;stroke:none"
       id="rect3770"
       width="92.954033"
       height="2.000005"
       x="1.045976"
       y="1040.3622" />
    <path
       inkscape:connector-curvature="0"
       id="path3780"
       d="m 39.78125,974.11218 c -1.171826,-0.0148 -2.366172,0.083 -3.625,0.28125 -0.0233,0.004 -0.07041,-0.004 -0.09375,0 -1.036403,0.0874 -2.012604,0.21514 -2.9375,0.375 -3.746373,0.6465 -5.376166,1.76963 -6.03125,3.59375 -0.701864,0.84949 -1.125,1.87089 -1.125,3.09375 l 0,5.90625 0.71875,0 0,0.0312 -0.71875,0 -5.8125,0 c -2.950437,0 -4.395151,1.89478 -5.53125,4.5625 -0.0528,0.12398 -0.136118,0.24769 -0.1875,0.375 -0.04643,0.0992 -0.11291,0.17891 -0.15625,0.28125 -0.02847,0.0733 -0.03437,0.14449 -0.0625,0.21875 -0.156151,0.39684 -0.298124,0.80907 -0.40625,1.25 -0.018,0.0525 -0.04455,0.10341 -0.0625,0.15625 -1.344441,3.94012 -1.287231,7.72677 0,12.78117 0.924893,3.6392 2.658988,6.4063 6.40625,6.4063 l 5.65625,0 0,-5.0938 c 0,-4.3304 4.727998,-7.9687 8.09375,-7.9687 l 12,0 c 2.504771,0 4.689537,-1.77342 5.75,-4.03122 0.06639,-0.12227 0.129052,-0.24815 0.1875,-0.375 0.02448,-0.0606 0.03966,-0.12637 0.0625,-0.1875 0.05973,-0.14126 0.106647,-0.29136 0.15625,-0.4375 0.218601,-0.64412 0.34375,-1.34682 0.34375,-2.0625 l 0,-11.96875 c 0,-3.40882 -2.911679,-5.96232 -6.40625,-6.53125 -1.033485,-0.16804 -2.078702,-0.29004 -3.125,-0.375 -0.07284,-0.0117 -0.145826,-0.0204 -0.21875,-0.0312 -0.01214,-9.2e-4 -0.05036,9.1e-4 -0.0625,0 -0.932926,-0.13856 -1.851052,-0.23788 -2.8125,-0.25 z m -6.84375,2.625 c 1.290534,0 2.375,1.02446 2.375,2.28125 0,1.25231 -1.084466,2.28125 -2.375,2.28125 -1.295142,0 -2.3125,-1.02894 -2.3125,-2.28125 0,-1.25679 1.017358,-2.28125 2.3125,-2.28125 z m 21.21875,12.625 0,4.25 0,0.0312 -0.3125,1.46875 c 0,0.20926 -0.01832,0.42375 -0.03125,0.625 -0.91916,2.96916 -3.64798,5.56447 -6.625,6.31247 -0.0254,10e-4 -0.03698,0.03 -0.0625,0.031 -0.124617,0 -0.247729,0 -0.375,0 l -3.5625,0.25 -9.09375,0.031 c -3.431049,0 -6.4375,2.2289 -6.4375,6.3125 l 0,0.625 0,11.9687 c 0,3.4088 3.033486,5.4284 6.4375,6.4063 4.076229,1.1709 7.966593,1.3824 12.84375,0 0.416108,-0.1176 0.842116,-0.2565 1.25,-0.4063 2.906687,-1.0158 5.84375,-2.8239 5.84375,-6 l 0,-5.9062 5.8125,0 c 2.806864,0 4.290202,-1.7256 5.40625,-4.1875 0.0047,-0.01 -0.0047,-0.021 0,-0.031 0.372012,-0.778 0.674619,-1.6994 1,-2.6562 1.344441,-3.9401 1.28722,-7.6955 0,-12.74997 -0.924893,-3.63921 -2.658988,-6.375 -6.40625,-6.375 l -4.84375,0 -0.84375,0 z M 47.125,1019.1122 c 1.334908,0 2.375,1.0538 2.375,2.375 0,1.3259 -1.040092,2.4062 -2.375,2.4062 -1.330136,0 -2.4375,-1.0803 -2.4375,-2.4062 0,-1.3212 1.107364,-2.375 2.4375,-2.375 z"
       style="fill:#000000;fill-opacity:0.35616443;stroke:none" />
    <g
       id="g4136"
       transform="matrix(1.1754678,0,0,1.1754678,-626.99926,356.14251)">
      <path
         id="path2732"
         transform="translate(481.71429,531.2193)"
         d="m 97.75,4.0625 0,3.625 0,0.03125 -0.25,1.25 c 0,0.1780269 -0.02025,0.3600366 -0.03125,0.53125 -0.781953,2.525937 -3.092374,4.738606 -5.625,5.375 -0.02161,9.7e-4 -0.04079,0.03044 -0.0625,0.03125 -0.106015,0.0039 -0.204228,0 -0.3125,0 l -3.03125,0.1875 -7.75,0.03125 c -2.91888,0 -5.46875,1.90096 -5.46875,5.375 l 0,0.53125 0,10.1875 c 0,2.89997 2.57287,4.60552 5.46875,5.4375 3.46775,0.99599 6.78838,1.176 10.9375,0 0.353993,-0.100114 0.715503,-0.21624 1.0625,-0.34375 2.472792,-0.864106 4.96875,-2.391776 4.96875,-5.09375 l 0,-5.03125 4.9375,0 c 2.38787,0 3.6443,-1.468172 4.59375,-3.5625 0.004,-0.0086 -0.004,-0.02263 0,-0.03125 0.31648,-0.661868 0.59819,-1.436007 0.875,-2.25 1.14375,-3.35197 1.09507,-6.5438 0,-10.84375 -0.78683,-3.09597 -2.28086,-5.4375 -5.46875,-5.4375 l -4.125,0 -0.71875,0 z M 91.78125,29.375 c 1.13564,0 2.03125,0.90726 2.03125,2.03125 0,1.12799 -0.89561,2.03125 -2.03125,2.03125 -1.13158,0 -2.0625,-0.90326 -2.0625,-2.03125 0,-1.12399 0.93092,-2.03125 2.0625,-2.03125 z"
         style="fill:#ffc000;fill-opacity:1;stroke:none"
         inkscape:connector-curvature="0" />
      <path
         id="path2730"
         transform="translate(481.71429,531.2193)"
         d="m 85.53125,-8.90625 c -0.996902,-0.012569 -2.022833,0.081355 -3.09375,0.25 -0.01982,0.00312 -0.04265,-0.00319 -0.0625,0 -0.881694,0.074313 -1.713167,0.1765025 -2.5,0.3125 -3.187133,0.5499931 -4.567704,1.5106741 -5.125,3.0625 -0.597093,0.7226782 -0.96875,1.5846755 -0.96875,2.625 l 0,5.03125 0.625,0 0,0.03125 -0.625,0 -4.9375,0 c -2.510011,0 -3.752242,1.6055086 -4.71875,3.875 -0.04492,0.1054712 -0.112538,0.2041971 -0.15625,0.3125 -0.0395,0.084431 -0.08813,0.162941 -0.125,0.25 -0.02422,0.062364 -0.03857,0.124326 -0.0625,0.1875 -0.132841,0.3376031 -0.251764,0.6873885 -0.34375,1.0625 -0.01531,0.044645 -0.04723,0.080087 -0.0625,0.125 -1.14375,3.35196 -1.09508,6.57504 0,10.875 0.78683,3.09597 2.28086,5.4375 5.46875,5.4375 l 4.8125,0 0,-4.3125 c 0,-3.68396 4.01167,-6.78125 6.875,-6.78125 l 10.21875,0 c 2.130872,0 3.972837,-1.516732 4.875,-3.4375 0.05648,-0.1040125 0.106527,-0.2045865 0.15625,-0.3125 0.02083,-0.051525 0.04307,-0.1042465 0.0625,-0.15625 0.05081,-0.1201734 0.0828,-0.2506712 0.125,-0.375 0.185969,-0.5479679 0.3125,-1.1411499 0.3125,-1.75 l 0,-10.1875 c 0,-2.89997 -2.49583,-5.0785 -5.46875,-5.5625 -0.879211,-0.1429573 -1.766138,-0.2402193 -2.65625,-0.3125 -0.06197,-0.00993 -0.125462,-0.021933 -0.1875,-0.03125 -0.01033,-7.832e-4 -0.02092,7.739e-4 -0.03125,0 -0.793663,-0.1178801 -1.588322,-0.2084375 -2.40625,-0.21875 z m -5.8125,2.25 c 1.09789,0 2,0.86832 2,1.9375 0,1.06537 -0.90211,1.9375 -2,1.9375 -1.10181,0 -1.96875,-0.87213 -1.96875,-1.9375 0,-1.06918 0.86694,-1.9375 1.96875,-1.9375 z"
         style="fill:#4182b8;fill-opacity:1;stroke:none"
         inkscape:connector-curvature="0" />
    </g>
  </g>
</svg>
