<?xml version="1.0" encoding="UTF-8" standalone="no"?>
<!-- Created with Inkscape (http://www.inkscape.org/) -->

<svg
   xmlns:dc="http://purl.org/dc/elements/1.1/"
   xmlns:cc="http://creativecommons.org/ns#"
   xmlns:rdf="http://www.w3.org/1999/02/22-rdf-syntax-ns#"
   xmlns:svg="http://www.w3.org/2000/svg"
   xmlns="http://www.w3.org/2000/svg"
   xmlns:sodipodi="http://sodipodi.sourceforge.net/DTD/sodipodi-0.dtd"
   xmlns:inkscape="http://www.inkscape.org/namespaces/inkscape"
   width="96"
   height="96"
   id="svg2"
   version="1.1"
   inkscape:version="0.48.4 r9939"
   sodipodi:docname="qbittorrent.svg">
  <defs
     id="defs4" />
  <sodipodi:namedview
     id="base"
     pagecolor="#ffffff"
     bordercolor="#666666"
     borderopacity="1.0"
     inkscape:pageopacity="0.0"
     inkscape:pageshadow="2"
     inkscape:zoom="5.90625"
     inkscape:cx="48"
     inkscape:cy="48"
     inkscape:document-units="px"
     inkscape:current-layer="layer1"
     showgrid="true"
     inkscape:snap-page="true"
     inkscape:snap-global="true"
     inkscape:snap-center="true"
     inkscape:snap-object-midpoints="false"
     showguides="true"
     inkscape:guide-bbox="true"
     inkscape:snap-bbox="true"
     inkscape:object-paths="true"
     inkscape:object-nodes="true"
     inkscape:window-width="1305"
     inkscape:window-height="744"
     inkscape:window-x="61"
     inkscape:window-y="24"
     inkscape:window-maximized="1"
     inkscape:snap-midpoints="false"
     inkscape:snap-grids="true"
     inkscape:snap-to-guides="false">
    <inkscape:grid
       type="xygrid"
       id="grid3002"
       empspacing="5"
       visible="true"
       enabled="true"
       snapvisiblegridlinesonly="true" />
  </sodipodi:namedview>
  <metadata
     id="metadata7">
    <rdf:RDF>
      <cc:Work
         rdf:about="">
        <dc:format>image/svg+xml</dc:format>
        <dc:type
           rdf:resource="http://purl.org/dc/dcmitype/StillImage" />
        <dc:title />
      </cc:Work>
    </rdf:RDF>
  </metadata>
  <g
     inkscape:label="Layer 1"
     inkscape:groupmode="layer"
     id="layer1"
     transform="translate(0,-956.36218)">
    <rect
       style="fill:#ffffff;fill-opacity:0;fill-rule:nonzero;stroke:none"
       id="rect3775"
       width="96"
       height="96"
       x="0"
       y="956.36218"
       ry="0" />
    <path
       style="fill:#000000;fill-opacity:0.09589041;fill-rule:nonzero;stroke:none"
       d="m 3.353015,956.30662 c -1.884176,0 -3.4111555,1.43156 -3.4111555,3.19799 l 0,83.65949 c 0,1.7665 1.5269795,3.1981 3.4111555,3.1981 l 89.23583,0 c 1.884174,0 3.411155,-1.4316 3.411155,-3.1981 l 0,-83.65949 c 0,-1.76643 -1.526981,-3.19799 -3.411155,-3.19799 z"
       id="rect3772"
       inkscape:connector-curvature="0"
       sodipodi:nodetypes="sssssssss" />
    <path
       style="fill:#000000;fill-opacity:0.18721463;fill-rule:nonzero;stroke:none"
       d="m 1.0459761,1041.8066 0,7.4219 c 0,1.7392 1.461916,3.1337 3.2852054,3.1337 l 86.3836135,0 c 1.823288,0 3.285205,-1.3945 3.285205,-3.1337 l 0,-7.4219 -92.9540239,0 z"
       id="rect3785"
       inkscape:connector-curvature="0" />
    <path
       style="fill:#000000;fill-opacity:0.38356168;fill-rule:nonzero;stroke:none"
       d="m 1.0459761,1041.8066 0,5.3807 c 0,1.762 1.461916,3.1749 3.2852054,3.1749 l 86.3836135,0 c 1.823288,0 3.285205,-1.4129 3.285205,-3.1749 l 0,-5.3807 -92.9540239,0 z"
       id="rect3783"
       inkscape:connector-curvature="0" />
    <rect
       style="fill:#0055d4;fill-opacity:1;fill-rule:nonzero;stroke:none"
       id="rect2985-2"
       width="93"
       height="88.999962"
       x="0.9999969"
       y="957.36224"
       ry="3.1511383" />
    <g
       transform="matrix(1.1071429,0,0,1.0595234,-5.6428605,-62.283009)"
       id="g3775"
       style="fill:#003c97;fill-opacity:1">
      <path
         transform="translate(0,956.36218)"
         id="path3773"
         d="m 6,73.59375 9.90625,-12.21875 -3.5625,-5.09375 2.34375,-16 4.0625,-2.09375 2.1875,-3.8125 -5.1875,-3 0.40625,-5.75 L 13,24.1875 6.09375,12.21875 6,11.625 6,73.59375 z"
         style="fill:#003c97;fill-opacity:1;stroke:none"
         inkscape:connector-curvature="0" />
      <path
         transform="translate(0,956.36218)"
         id="path3765"
         d="m 90,48.59375 0,-39.625 C 90,8.1449218 89.66257,7.4125702 89.125,6.875 88.58743,6.3374298 87.855078,6 87.03125,6 l -39.625,0 -1.4375,2.4375 -2,-1.5625 -3.3125,0.84375 -1.21875,3.25 -7.65625,1.40625 -1.375,5.75 -2.5,-1.40625 -0.25,-4.6875 -8.125,-4.78125 -6,3.875 1.25,4.75 1.375,0.84375 4.0625,-0.1875 1.21875,2.28125 -3.09375,3.625 2.75,2.09375 -1.84375,5.09375 5.09375,2.96875 6.40625,0.84375 2.75,3.53125 6.71875,4.25 -2.09375,4.8125 5.40625,3.25 -2.34375,5.6875 3.9375,2.25 5.78125,12.40625 -4.75,1.84375 L 41.625,77.6875 6.65625,88.625 c 0.103703,0.151342 0.08948,0.37073 0.21875,0.5 C 7.4125702,89.66257 8.1449218,90 8.96875,90 l 78.0625,0 c 0.823828,0 1.55618,-0.33743 2.09375,-0.875 0.232339,-0.232339 0.229751,-0.607111 0.375,-0.90625 L 88.625,83.6875 90,83.59375 90,80.125 l -1.5625,-3.09375 -9.875,-6.3125 -2.90625,-8.75 6.21875,-11.75 8.125,-1.625 z m -56.1875,-31.375 0.65625,5.90625 -2,-3.34375 1.34375,-2.5625 z m -7.125,1.15625 4.78125,4.90625 -2.125,1.9375 -4.875,-4.59375 2.21875,-2.25 z m 6.65625,7.5 7.6875,10.5 -2.125,-0.25 -7.28125,-8.75 1.71875,-1.5 z"
         style="fill:#003c97;fill-opacity:1;stroke:none"
         inkscape:connector-curvature="0" />
    </g>
    <path
       style="fill:#000000;fill-opacity:0.38356168;fill-rule:nonzero;stroke:none"
       d="m 1,1042.3622 0.045976,2.7457 c 0.03024,1.8058 1.461916,3.2543 3.2852054,3.2543 l 86.3836136,0 c 1.823288,0 3.285205,-1.4481 3.285205,-3.2543 l -0.04598,-2.7457 z"
       id="rect3781"
       inkscape:connector-curvature="0"
       sodipodi:nodetypes="csssscc" />
    <rect
       style="fill:#ffffff;fill-opacity:0.30000001;fill-rule:nonzero;stroke:none"
       id="rect3770"
       width="92.954033"
       height="2.000005"
       x="1.045976"
       y="1040.3622" />
    <path
       inkscape:connector-curvature="0"
       style="font-size:medium;font-style:normal;font-variant:normal;font-weight:normal;font-stretch:normal;text-indent:0;text-align:start;text-decoration:none;line-height:normal;letter-spacing:normal;word-spacing:normal;text-transform:none;direction:ltr;block-progression:tb;writing-mode:lr-tb;text-anchor:start;baseline-shift:baseline;color:#000000;fill:#ffffff;fill-opacity:0.26484022;stroke:none;stroke-width:4;marker:none;visibility:visible;display:inline;overflow:visible;enable-background:accumulate;font-family:Sans;-inkscape-font-specification:Sans"
       d="m 94,1018.7997 0,-2.9375 -45.8125,0 c -7.700716,10e-5 -13.9375,-6.2257 -13.9375,-13.9375 0,-7.71179 6.236787,-13.90629 13.9375,-13.90629 3.786759,0 7.178439,1.48821 9.6875,3.9375 l 2.09375,-2.09375 c -3.037196,-2.96484 -7.2095,-4.8125 -11.78125,-4.8125 -9.297065,0 -16.875,7.57039 -16.875,16.87504 0,9.3047 7.577938,16.875 16.875,16.875 l 45.8125,0 z"
       id="path3817" />
    <path
       inkscape:connector-curvature="0"
       style="font-size:medium;font-style:normal;font-variant:normal;font-weight:normal;font-stretch:normal;text-indent:0;text-align:start;text-decoration:none;line-height:normal;letter-spacing:normal;word-spacing:normal;text-transform:none;direction:ltr;block-progression:tb;writing-mode:lr-tb;text-anchor:start;baseline-shift:baseline;color:#000000;fill:#ffffff;fill-opacity:0.52968038;stroke:none;stroke-width:4;marker:none;visibility:visible;display:inline;overflow:visible;enable-background:accumulate;font-family:Sans;-inkscape-font-specification:Sans"
       d="m 94,1023.1435 0,-2.9375 -45.625,0 c -10.100073,0 -18.25,-8.1812 -18.25,-18.2813 0,-10.10009 8.149934,-18.25004 18.25,-18.25004 3.113604,0 6.001189,0.78654 8.5625,2.15625 l 1.40625,-2.625 c -2.976416,-1.59171 -6.36357,-2.46875 -9.96875,-2.46875 -11.694669,0 -21.21875,9.49285 -21.21875,21.18754 0,11.6947 9.524087,21.2188 21.21875,21.2188 l 45.625,0 z"
       id="path3813" />
    <path
       inkscape:connector-curvature="0"
       style="font-size:medium;font-style:normal;font-variant:normal;font-weight:normal;font-stretch:normal;text-indent:0;text-align:start;text-decoration:none;line-height:normal;letter-spacing:normal;word-spacing:normal;text-transform:none;direction:ltr;block-progression:tb;writing-mode:lr-tb;text-anchor:start;baseline-shift:baseline;color:#000000;fill:#ffffff;fill-opacity:1;stroke:none;stroke-width:4;marker:none;visibility:visible;display:inline;overflow:visible;enable-background:accumulate;font-family:Sans;-inkscape-font-specification:Sans"
       d="m 94,1027.3622 0,-2.9375 -45.625,0 c -12.431344,0 -22.5,-10.0686 -22.5,-22.5 0,-12.43136 10.068662,-22.46879 22.5,-22.46879 l 0,-2.9375 c -14.025939,0 -25.46875,11.38033 -25.46875,25.40629 0,14.026 11.442817,25.4375 25.46875,25.4375 l 45.625,0 z"
       id="path3762" />
  </g>
</svg>
