<?xml version="1.0" encoding="UTF-8" standalone="no"?>
<!-- Created with Inkscape (http://www.inkscape.org/) -->

<svg
   xmlns:dc="http://purl.org/dc/elements/1.1/"
   xmlns:cc="http://creativecommons.org/ns#"
   xmlns:rdf="http://www.w3.org/1999/02/22-rdf-syntax-ns#"
   xmlns:svg="http://www.w3.org/2000/svg"
   xmlns="http://www.w3.org/2000/svg"
   xmlns:xlink="http://www.w3.org/1999/xlink"
   xmlns:sodipodi="http://sodipodi.sourceforge.net/DTD/sodipodi-0.dtd"
   xmlns:inkscape="http://www.inkscape.org/namespaces/inkscape"
   width="96"
   height="96"
   id="svg2"
   version="1.1"
   inkscape:version="0.48.4 r9939"
   sodipodi:docname="qreator.svg">
  <defs
     id="defs4">
    <linearGradient
       id="linearGradient3774">
      <stop
         style="stop-color:#fcf611;stop-opacity:1;"
         offset="0"
         id="stop3776" />
      <stop
         style="stop-color:#fca311;stop-opacity:1;"
         offset="1"
         id="stop3778" />
    </linearGradient>
    <radialGradient
       inkscape:collect="always"
       xlink:href="#linearGradient3774"
       id="radialGradient3780"
       cx="47.499997"
       cy="1001.8622"
       fx="47.499997"
       fy="1001.8622"
       r="46.5"
       gradientTransform="matrix(1,0,0,0.95698884,0,43.091259)"
       gradientUnits="userSpaceOnUse" />
  </defs>
  <sodipodi:namedview
     id="base"
     pagecolor="#ffffff"
     bordercolor="#666666"
     borderopacity="1.0"
     inkscape:pageopacity="0.0"
     inkscape:pageshadow="2"
     inkscape:zoom="5.90625"
     inkscape:cx="49.669045"
     inkscape:cy="48"
     inkscape:document-units="px"
     inkscape:current-layer="layer1"
     showgrid="true"
     inkscape:snap-page="true"
     inkscape:snap-global="true"
     inkscape:snap-center="true"
     inkscape:snap-object-midpoints="false"
     showguides="true"
     inkscape:guide-bbox="true"
     inkscape:snap-bbox="true"
     inkscape:object-paths="true"
     inkscape:object-nodes="true"
     inkscape:window-width="1305"
     inkscape:window-height="744"
     inkscape:window-x="61"
     inkscape:window-y="24"
     inkscape:window-maximized="1"
     inkscape:snap-midpoints="false"
     inkscape:snap-grids="true"
     inkscape:snap-to-guides="false">
    <inkscape:grid
       type="xygrid"
       id="grid3002"
       empspacing="5"
       visible="true"
       enabled="true"
       snapvisiblegridlinesonly="true" />
  </sodipodi:namedview>
  <metadata
     id="metadata7">
    <rdf:RDF>
      <cc:Work
         rdf:about="">
        <dc:format>image/svg+xml</dc:format>
        <dc:type
           rdf:resource="http://purl.org/dc/dcmitype/StillImage" />
        <dc:title />
      </cc:Work>
    </rdf:RDF>
  </metadata>
  <g
     inkscape:label="Layer 1"
     inkscape:groupmode="layer"
     id="layer1"
     transform="translate(0,-956.36218)">
    <rect
       style="fill:#ffffff;fill-opacity:0;fill-rule:nonzero;stroke:none"
       id="rect3775"
       width="96"
       height="96"
       x="0"
       y="956.36218"
       ry="0" />
    <path
       style="fill:#000000;fill-opacity:0.09589041;fill-rule:nonzero;stroke:none"
       d="m 3.353015,956.30662 c -1.884176,0 -3.4111555,1.43156 -3.4111555,3.19799 l 0,83.65949 c 0,1.7665 1.5269795,3.1981 3.4111555,3.1981 l 89.23583,0 c 1.884174,0 3.411155,-1.4316 3.411155,-3.1981 l 0,-83.65949 c 0,-1.76643 -1.526981,-3.19799 -3.411155,-3.19799 z"
       id="rect3772"
       inkscape:connector-curvature="0"
       sodipodi:nodetypes="sssssssss" />
    <path
       style="fill:#000000;fill-opacity:0.18721463;fill-rule:nonzero;stroke:none"
       d="m 1.0459761,1041.8066 0,7.4219 c 0,1.7392 1.461916,3.1337 3.2852054,3.1337 l 86.3836135,0 c 1.823288,0 3.285205,-1.3945 3.285205,-3.1337 l 0,-7.4219 -92.9540239,0 z"
       id="rect3785"
       inkscape:connector-curvature="0" />
    <path
       style="fill:#000000;fill-opacity:0.38356168;fill-rule:nonzero;stroke:none"
       d="m 1.0459761,1041.8066 0,5.3807 c 0,1.762 1.461916,3.1749 3.2852054,3.1749 l 86.3836135,0 c 1.823288,0 3.285205,-1.4129 3.285205,-3.1749 l 0,-5.3807 -92.9540239,0 z"
       id="rect3783"
       inkscape:connector-curvature="0" />
    <rect
       style="fill:url(#radialGradient3780);fill-opacity:1;fill-rule:nonzero;stroke:none"
       id="rect2985-2"
       width="93"
       height="88.999962"
       x="0.9999969"
       y="957.36224"
       ry="3.1511383" />
    <path
       inkscape:connector-curvature="0"
       style="fill:#ffffff;fill-opacity:0.26484022;fill-rule:nonzero;stroke:none"
       d="m 75,957.36407 -55,0 0,88.99813 55,0 0,-88.99813 z"
       id="path3007" />
    <path
       sodipodi:nodetypes="ccccccc"
       inkscape:connector-curvature="0"
       id="path3794"
       d="m 40.000003,1046.3622 0,-70.61321 0,-18.41854 15,0 0,18.41854 0,70.61321 z"
       style="fill:#ffffff;fill-opacity:0.26484022;fill-rule:nonzero;stroke:none" />
    <path
       style="fill:#000000;fill-opacity:0.38356168;fill-rule:nonzero;stroke:none"
       d="m 1,1042.3622 0.045976,2.7457 c 0.03024,1.8058 1.461916,3.2543 3.2852054,3.2543 l 86.3836136,0 c 1.823288,0 3.285205,-1.4481 3.285205,-3.2543 l -0.04598,-2.7457 z"
       id="rect3781"
       inkscape:connector-curvature="0"
       sodipodi:nodetypes="csssscc" />
    <rect
       style="fill:#ffffff;fill-opacity:0.30000001;fill-rule:nonzero;stroke:none"
       id="rect3770"
       width="92.954033"
       height="2.000005"
       x="1.045976"
       y="1040.3622" />
    <path
       style="fill:#000000;fill-opacity:0.43378997;stroke:none"
       d="m 17.135005,1014.0671 c -8.1212747,-17.04628 -0.886151,-37.44861 16.160112,-45.56989 17.046263,-8.12128 37.448592,-0.88615 45.569873,16.16011 8.12128,17.04628 0.88615,37.44858 -16.160112,45.56988 -17.046263,8.1213 -37.448592,0.8862 -45.569873,-16.1601 z"
       id="path2993"
       inkscape:connector-curvature="0"
       inkscape:export-xdpi="68.435646"
       inkscape:export-ydpi="68.435646" />
    <path
       inkscape:connector-curvature="0"
       style="font-size:40px;font-style:normal;font-variant:normal;font-weight:normal;font-stretch:normal;line-height:125%;letter-spacing:0px;word-spacing:0px;fill:#ffffff;fill-opacity:0.29166667;stroke:none;font-family:Verdana;-inkscape-font-specification:Verdana"
       d="m 66.507024,970.65778 c -0.378926,-0.24368 -0.745458,-0.51004 -1.133069,-0.73821 -0.945818,-0.55676 -1.926377,-1.08259 -2.918512,-1.5451 -0.992135,-0.4625 -1.990702,-0.87052 -3.021518,-1.23607 -1.030816,-0.36555 -2.079832,-0.67834 -3.141692,-0.94423 -1.061861,-0.26589 -2.142257,-0.48886 -3.227531,-0.65237 -1.085269,-0.16351 -2.177987,-0.26775 -3.279034,-0.32619 -1.101047,-0.0584 -2.204181,-0.0665 -3.313369,-0.0171 -1.109189,0.0493 -2.220849,0.14917 -3.330537,0.30902 -1.109689,0.15985 -2.22798,0.37932 -3.330538,0.65237 -1.102557,0.27306 -2.191237,0.60677 -3.279033,0.99573 -1.087791,0.38896 -2.179306,0.8315 -3.244699,1.33908 -1.065393,0.50759 -2.085633,1.06557 -3.073021,1.66527 -0.210122,0.12762 -0.394358,0.28044 -0.60087,0.41203 -1.415488,1.95677 -2.635786,4.09597 -3.467879,6.60957 -1.087939,3.26383 -1.630939,6.96529 -1.630933,11.09034 -6e-6,4.1931 0.542994,7.9124 1.630933,11.17619 1.110595,3.26383 2.68124,6.01383 4.721122,8.25763 2.039865,2.2439 4.51528,3.9546 7.416454,5.1332 2.923802,1.1786 6.158453,1.7683 9.716927,1.7683 0.475944,0 0.960591,-0.023 1.459256,-0.069 0.521273,-0.023 1.052598,-0.064 1.596598,-0.1545 0.203958,4.0344 1.500019,7.1173 3.879904,9.2705 2.402486,2.1759 5.584282,3.2619 9.528083,3.2619 1.382537,0 2.719778,-0.082 4.034413,-0.2404 0.02846,0 0.05737,-0.014 0.08584,-0.017 0.01011,-0.01 0.02428,-0.01 0.03433,-0.017 0.906676,-0.6843 1.786234,-1.4193 2.609493,-2.1803 0.467023,-0.4318 0.882421,-0.9017 1.321915,-1.3563 l 0,-3.3305 -0.927057,0 c -0.544016,0.2266 -1.45496,0.4834 -2.746835,0.7553 -1.269301,0.2947 -2.366969,0.4464 -3.296201,0.4464 -2.991858,0 -5.064323,-0.7181 -6.197546,-2.1459 -1.1333,-1.428 -1.72916,-3.4421 -1.819778,-6.0259 4.261033,-1.6999 7.647396,-4.6545 10.163288,-8.8929 2.53846,-4.2384 3.794016,-9.45216 3.794066,-15.6398 -5e-5,-4.17038 -0.554724,-7.90685 -1.665269,-11.19335 -0.813777,-2.4582 -1.988736,-4.5332 -3.347705,-6.42078 z m -18.472463,-2.95285 c 5.099658,5e-5 9.122381,1.77526 12.068905,5.35633 2.946447,3.55848 4.412059,8.6377 4.412103,15.2106 -4.4e-5,6.64094 -1.488999,11.72633 -4.480774,15.26214 -2.969191,3.5131 -6.968571,5.2705 -12.000234,5.2704 -5.031718,10e-5 -9.042772,-1.7573 -12.03457,-5.2704 -2.99183,-3.53581 -4.480785,-8.6212 -4.480774,-15.26214 -1.1e-5,-6.5729 1.453933,-11.65212 4.377768,-15.2106 2.946469,-3.58107 6.992535,-5.35628 12.137576,-5.35633 z"
       id="path4381"
       inkscape:export-filename="/home/eep/Downloads/ICON_PROJECT circle/path2993.png"
       inkscape:export-xdpi="68.435646"
       inkscape:export-ydpi="68.435646" />
    <g
       style="font-size:40px;font-style:normal;font-weight:normal;line-height:125%;letter-spacing:0px;word-spacing:0px;fill:#ffffff;fill-opacity:1;stroke:none;font-family:Sans"
       id="text4347"
       transform="matrix(0.91159456,0,0,0.91159456,-8.0995608,1019.6943)"
       inkscape:export-filename="/home/eep/Downloads/ICON_PROJECT circle/path2993.png"
       inkscape:export-xdpi="68.435646"
       inkscape:export-ydpi="68.435646">
      <path
         d="m 75.33886,-15.016699 c -0.78128,0.195305 -1.556018,0.332024 -2.324219,0.410156 -0.755235,0.09114 -1.529974,0.136711 -2.324219,0.136719 -2.265648,-8e-6 -4.088563,-0.625007 -5.46875,-1.875 -1.367206,-1.236984 -2.109393,-3.014326 -2.226562,-5.332031 -0.312518,0.05208 -0.618507,0.08463 -0.917969,0.09766 -0.286475,0.02604 -0.566422,0.03906 -0.839844,0.03906 -2.044284,-1e-6 -3.906262,-0.338542 -5.585937,-1.015625 -1.666676,-0.677083 -3.085945,-1.660155 -4.257813,-2.949219 -1.17188,-1.289058 -2.076827,-2.871088 -2.714844,-4.746094 -0.625002,-1.87499 -0.937502,-4.016915 -0.9375,-6.425781 -2e-6,-2.369775 0.312498,-4.492169 0.9375,-6.367188 0.624996,-1.887998 1.536454,-3.502579 2.734375,-4.84375 1.145827,-1.276014 2.565096,-2.252576 4.257813,-2.929687 1.705717,-0.677054 3.561184,-1.015595 5.566406,-1.015625 2.083316,3e-5 3.951803,0.345081 5.605469,1.035156 1.666643,0.677111 3.079402,1.647163 4.238281,2.910156 1.184869,1.302108 2.089816,2.897159 2.714844,4.785157 0.637992,1.88804 0.957002,4.029965 0.957031,6.425781 -2.9e-5,3.554698 -0.729195,6.549487 -2.1875,8.984375 -1.445338,2.434899 -3.391951,4.140626 -5.839844,5.117187 0.05206,1.484374 0.403625,2.636717 1.054688,3.457032 0.651019,0.820308 1.835913,1.230464 3.554687,1.230468 0.533828,-4e-6 1.165338,-0.08464 1.894532,-0.253906 0.742159,-0.156254 1.269502,-0.299483 1.582031,-0.429687 l 0.527344,0 0,3.554687 m -4.609375,-21.660156 c -2.6e-5,-3.776023 -0.846379,-6.686177 -2.539063,-8.730469 -1.692729,-2.057266 -4.003925,-3.085911 -6.933594,-3.085937 -2.955742,2.6e-5 -5.279958,1.028671 -6.972656,3.085937 -1.679695,2.044292 -2.519537,4.954446 -2.519531,8.730469 -6e-6,3.815115 0.859368,6.738289 2.578125,8.769531 1.718739,2.018233 4.023424,3.027347 6.914062,3.027344 2.890607,3e-6 5.188781,-1.009111 6.894532,-3.027344 1.718725,-2.031242 2.578099,-4.954416 2.578125,-8.769531"
         style="font-variant:normal;font-stretch:normal;fill:#ffffff;font-family:Verdana;-inkscape-font-specification:Verdana"
         id="path4356"
         inkscape:connector-curvature="0" />
    </g>
    <g
       style="font-size:40px;font-style:normal;font-weight:normal;line-height:125%;letter-spacing:0px;word-spacing:0px;fill:#ffffff;fill-opacity:1;stroke:none;font-family:Sans"
       id="text4351"
       transform="matrix(0.31382728,0,0,0.31382728,67.141724,1023.5321)"
       inkscape:export-filename="/home/eep/Downloads/ICON_PROJECT circle/path2993.png"
       inkscape:export-xdpi="68.435646"
       inkscape:export-ydpi="68.435646">
      <path
         d="m -109.20474,-6.6866074 c -0.78128,0.1953052 -1.55602,0.3320238 -2.32422,0.4101563 -0.75524,0.091138 -1.52998,0.1367111 -2.32422,0.1367187 -2.26565,-7.6e-6 -4.08856,-0.625007 -5.46875,-1.875 -1.36721,-1.2369837 -2.10939,-3.0143256 -2.22656,-5.3320316 -0.31252,0.05208 -0.61851,0.08464 -0.91797,0.09766 -0.28648,0.02604 -0.56642,0.03906 -0.83984,0.03906 -2.04429,0 -3.90627,-0.338542 -5.58594,-1.015625 -1.66668,-0.677082 -3.08595,-1.660154 -4.25781,-2.949219 -1.17188,-1.289057 -2.07683,-2.871087 -2.71485,-4.746093 -0.625,-1.87499 -0.9375,-4.016915 -0.9375,-6.425782 0,-2.369774 0.3125,-4.492168 0.9375,-6.367187 0.625,-1.887998 1.53645,-3.50258 2.73438,-4.84375 1.14582,-1.276015 2.56509,-2.252576 4.25781,-2.929688 1.70572,-0.677054 3.56118,-1.015595 5.56641,-1.015625 2.08331,3e-5 3.9518,0.345082 5.60546,1.035157 1.66665,0.677111 3.07941,1.647162 4.23829,2.910156 1.18486,1.302108 2.08981,2.897158 2.71484,4.785156 0.63799,1.88804 0.957,4.029965 0.95703,6.425781 -3e-5,3.554699 -0.7292,6.549488 -2.1875,8.984375 -1.44534,2.434899 -3.39195,4.140627 -5.83984,5.117188 0.0521,1.484374 0.40362,2.636716 1.05468,3.457031 0.65102,0.8203088 1.83592,1.2304646 3.55469,1.2304689 0.53383,-4.3e-6 1.16534,-0.08464 1.89453,-0.2539063 0.74216,-0.1562538 1.2695,-0.2994826 1.58203,-0.4296876 l 0.52735,0 0,3.5546876 m -4.60938,-21.6601566 c -2e-5,-3.776023 -0.84638,-6.686176 -2.53906,-8.730468 -1.69273,-2.057267 -4.00392,-3.085912 -6.93359,-3.085938 -2.95575,2.6e-5 -5.27996,1.028671 -6.97266,3.085938 -1.67969,2.044292 -2.51954,4.954445 -2.51953,8.730468 -10e-6,3.815115 0.85937,6.738289 2.57812,8.769532 1.71874,2.018233 4.02343,3.027346 6.91407,3.027343 2.8906,3e-6 5.18878,-1.00911 6.89453,-3.027343 1.71872,-2.031243 2.5781,-4.954417 2.57812,-8.769532"
         style="font-variant:normal;font-stretch:normal;fill:#ffffff;font-family:Verdana;-inkscape-font-specification:Verdana"
         id="path4359"
         inkscape:connector-curvature="0" />
      <path
         d="m -90.337555,-31.628014 -0.195312,0 c -0.546892,-0.13019 -1.080746,-0.221336 -1.601563,-0.273437 -0.507827,-0.06509 -1.113295,-0.09764 -1.816406,-0.09766 -1.132825,1.8e-5 -2.226574,0.253924 -3.28125,0.761718 -1.054697,0.494809 -2.070321,1.13934 -3.046874,1.933594 l 0,15.488281 -3.67188,0 0,-21.816406 3.67188,0 0,3.222656 c 1.458323,-1.171855 2.740874,-1.998677 3.847655,-2.480468 1.119779,-0.49477 2.259101,-0.742166 3.417969,-0.742188 0.638005,2.2e-5 1.100245,0.01955 1.386719,0.05859 0.286442,0.02606 0.716129,0.08466 1.289062,0.175781 l 0,3.769531"
         style="font-variant:normal;font-stretch:normal;fill:#ffffff;font-family:Verdana;-inkscape-font-specification:Verdana"
         id="path4361"
         inkscape:connector-curvature="0" />
      <path
         d="m -68.579742,-24.342857 -16.074219,0 c -6e-6,1.341155 0.201817,2.513028 0.605469,3.515625 0.403639,0.989589 0.957023,1.80339 1.660156,2.441406 0.677074,0.625004 1.477855,1.093753 2.402344,1.40625 0.937488,0.312503 1.966133,0.468753 3.085937,0.46875 1.48436,3e-6 2.975244,-0.292966 4.472656,-0.878906 1.510397,-0.598955 2.584615,-1.184891 3.222657,-1.757813 l 0.195312,0 0,4.003906 c -1.236999,0.520835 -2.500019,0.957032 -3.789062,1.308594 -1.289079,0.351562 -2.643245,0.527343 -4.0625,0.527344 -3.619802,-1e-6 -6.44532,-0.976562 -8.476563,-2.929688 -2.031253,-1.966141 -3.046877,-4.752597 -3.046875,-8.359375 -2e-6,-3.567694 0.970049,-6.399722 2.910156,-8.496093 1.953118,-2.096333 4.51822,-3.144509 7.695313,-3.144532 2.942693,2.3e-5 5.208315,0.859397 6.796875,2.578125 1.601541,1.718769 2.402322,4.160172 2.402344,7.324219 l 0,1.992188 m -3.574219,-2.8125 c -0.01304,-1.927068 -0.50132,-3.417952 -1.464844,-4.472657 -0.950537,-1.054668 -2.402358,-1.582011 -4.355469,-1.582031 -1.966156,2e-5 -3.535165,0.579446 -4.707031,1.738281 -1.158861,1.158871 -1.816412,2.597672 -1.972656,4.316407 l 12.5,0"
         style="font-variant:normal;font-stretch:normal;fill:#ffffff;font-family:Verdana;-inkscape-font-specification:Verdana"
         id="path4363"
         inkscape:connector-curvature="0" />
      <path
         d="m -46.060211,-13.815514 -3.652344,0 0,-2.324218 c -0.325537,0.221356 -0.768245,0.533856 -1.328125,0.9375 -0.54689,0.390626 -1.080744,0.703125 -1.601562,0.9375 -0.611993,0.299479 -1.315117,0.546875 -2.109375,0.742187 -0.794282,0.208333 -1.725271,0.3125 -2.792969,0.3125 -1.966153,0 -3.632818,-0.651041 -5,-1.953125 -1.36719,-1.302081 -2.050783,-2.962235 -2.050781,-4.980469 -2e-6,-1.653637 0.35156,-2.988272 1.054687,-4.003906 0.716142,-1.028634 1.731766,-1.835925 3.046875,-2.421875 1.328118,-0.585924 2.923168,-0.983059 4.785156,-1.191406 1.861967,-0.208319 3.860663,-0.364569 5.996094,-0.46875 l 0,-0.566406 c -1.7e-5,-0.833318 -0.149756,-1.523421 -0.449219,-2.070313 -0.286474,-0.546857 -0.70314,-0.976544 -1.25,-1.289062 -0.520848,-0.299461 -1.145847,-0.501284 -1.875,-0.605469 -0.729179,-0.104148 -1.490897,-0.156231 -2.285156,-0.15625 -0.963552,1.9e-5 -2.037769,0.130227 -3.222656,0.390625 -1.184903,0.247414 -2.40886,0.611997 -3.671875,1.09375 l -0.195313,0 0,-3.730469 c 0.716141,-0.195291 1.751297,-0.410134 3.105469,-0.644531 1.354158,-0.234353 2.688792,-0.35154 4.003906,-0.351563 1.536446,2.3e-5 2.87108,0.130231 4.003907,0.390625 1.145817,0.247418 2.135399,0.677105 2.96875,1.289063 0.820293,0.598978 1.445293,1.373717 1.875,2.324219 0.429667,0.950538 0.64451,2.128922 0.644531,3.535156 l 0,14.804687 m -3.652344,-5.371093 0,-6.074219 c -1.119807,0.06512 -2.441421,0.162772 -3.964844,0.292969 -1.510428,0.130219 -2.708343,0.319021 -3.59375,0.566406 -1.054695,0.299489 -1.907559,0.768239 -2.558593,1.40625 -0.651048,0.625008 -0.976569,1.490893 -0.976563,2.597656 -6e-6,1.250005 0.377598,2.194015 1.132813,2.832031 0.7552,0.625004 1.907543,0.937503 3.457031,0.9375 1.289051,3e-6 2.467435,-0.247392 3.535156,-0.742187 1.067693,-0.507809 2.057276,-1.113277 2.96875,-1.816406"
         style="font-variant:normal;font-stretch:normal;fill:#ffffff;font-family:Verdana;-inkscape-font-specification:Verdana"
         id="path4365"
         inkscape:connector-curvature="0" />
      <path
         d="m -27.622711,-14.010826 c -0.690119,0.182292 -1.445326,0.332031 -2.265625,0.449219 -0.807304,0.117187 -1.529959,0.17578 -2.167969,0.175781 -2.226571,-1e-6 -3.919277,-0.598958 -5.078125,-1.796875 -1.158858,-1.197914 -1.738285,-3.118485 -1.738281,-5.761719 l 0,-11.601562 -2.480469,0 0,-3.085938 2.480469,0 0,-6.269531 3.671875,0 0,6.269531 7.578125,0 0,3.085938 -7.578125,0 0,9.941406 c -8e-6,1.145841 0.02603,2.044277 0.07813,2.695312 0.05208,0.638027 0.234367,1.236984 0.546875,1.796875 0.28645,0.520837 0.677074,0.904952 1.171875,1.152344 0.507803,0.234378 1.276031,0.351565 2.304687,0.351563 0.598947,2e-6 1.223946,-0.08463 1.875,-0.253907 0.651028,-0.182288 1.119778,-0.332027 1.40625,-0.449218 l 0.195313,0 0,3.300781"
         style="font-variant:normal;font-stretch:normal;fill:#ffffff;font-family:Verdana;-inkscape-font-specification:Verdana"
         id="path4367"
         inkscape:connector-curvature="0" />
      <path
         d="m -4.5758362,-24.713951 c -2.22e-5,3.554695 -0.9114796,6.360682 -2.734375,8.417969 -1.8229343,2.057292 -4.2643378,3.085937 -7.3242188,3.085937 -3.085946,0 -5.540371,-1.028645 -7.363281,-3.085937 -1.809899,-2.057287 -2.714846,-4.863274 -2.714844,-8.417969 -2e-6,-3.554673 0.904945,-6.36066 2.714844,-8.417969 1.82291,-2.070291 4.277335,-3.105446 7.363281,-3.105469 3.059881,2.3e-5 5.5012845,1.035178 7.3242188,3.105469 1.8228954,2.057309 2.7343528,4.863296 2.734375,8.417969 m -3.7890625,0 c -1.84e-5,-2.825507 -0.5534033,-4.921859 -1.6601563,-6.289063 -1.106786,-1.380189 -2.643243,-2.070293 -4.609375,-2.070312 -1.992198,1.9e-5 -3.541675,0.690123 -4.648437,2.070312 -1.093757,1.367204 -1.640631,3.463556 -1.640625,6.289063 -6e-6,2.734383 0.553379,4.811204 1.660156,6.230469 1.106762,1.406253 2.649729,2.109377 4.628906,2.109375 1.953111,2e-6 3.483057,-0.696612 4.589844,-2.089844 1.1197736,-1.406244 1.6796689,-3.489575 1.6796873,-6.25"
         style="font-variant:normal;font-stretch:normal;fill:#ffffff;font-family:Verdana;-inkscape-font-specification:Verdana"
         id="path4369"
         inkscape:connector-curvature="0" />
      <path
         d="m 14.74057,-31.628014 -0.195312,0 c -0.546892,-0.13019 -1.080746,-0.221336 -1.601563,-0.273437 -0.507827,-0.06509 -1.113295,-0.09764 -1.816406,-0.09766 -1.1328252,1.8e-5 -2.2265741,0.253924 -3.2812502,0.761718 -1.0546968,0.494809 -2.0703207,1.13934 -3.046875,1.933594 l 0,15.488281 -3.671875,0 0,-21.816406 3.671875,0 0,3.222656 c 1.4583246,-1.171855 2.7408754,-1.998677 3.8476563,-2.480468 1.1197794,-0.49477 2.2591009,-0.742166 3.4179689,-0.742188 0.638005,2.2e-5 1.100245,0.01955 1.386719,0.05859 0.286442,0.02606 0.716129,0.08466 1.289062,0.175781 l 0,3.769531"
         style="font-variant:normal;font-stretch:normal;fill:#ffffff;font-family:Verdana;-inkscape-font-specification:Verdana"
         id="path4371"
         inkscape:connector-curvature="0" />
    </g>
  </g>
</svg>
