<?xml version="1.0" encoding="UTF-8" standalone="no"?>
<!-- Created with Inkscape (http://www.inkscape.org/) -->

<svg
   xmlns:dc="http://purl.org/dc/elements/1.1/"
   xmlns:cc="http://creativecommons.org/ns#"
   xmlns:rdf="http://www.w3.org/1999/02/22-rdf-syntax-ns#"
   xmlns:svg="http://www.w3.org/2000/svg"
   xmlns="http://www.w3.org/2000/svg"
   xmlns:xlink="http://www.w3.org/1999/xlink"
   xmlns:sodipodi="http://sodipodi.sourceforge.net/DTD/sodipodi-0.dtd"
   xmlns:inkscape="http://www.inkscape.org/namespaces/inkscape"
   width="96"
   height="96"
   id="svg2"
   version="1.1"
   inkscape:version="0.48.4 r9939"
   sodipodi:docname="qt4wine.svg">
  <defs
     id="defs4">
    <linearGradient
       id="linearGradient3775">
      <stop
         style="stop-color:#007a19;stop-opacity:1;"
         offset="0"
         id="stop3777" />
      <stop
         style="stop-color:#2dc54c;stop-opacity:1;"
         offset="1"
         id="stop3779" />
    </linearGradient>
    <linearGradient
       inkscape:collect="always"
       xlink:href="#linearGradient3775"
       id="linearGradient3781"
       x1="45"
       y1="1047.3622"
       x2="45"
       y2="957.36218"
       gradientUnits="userSpaceOnUse" />
  </defs>
  <sodipodi:namedview
     id="base"
     pagecolor="#ffffff"
     bordercolor="#666666"
     borderopacity="1.0"
     inkscape:pageopacity="0.0"
     inkscape:pageshadow="2"
     inkscape:zoom="5.90625"
     inkscape:cx="33.250472"
     inkscape:cy="34.539052"
     inkscape:document-units="px"
     inkscape:current-layer="layer1"
     showgrid="true"
     inkscape:snap-page="true"
     inkscape:snap-global="true"
     inkscape:snap-center="true"
     inkscape:snap-object-midpoints="false"
     showguides="true"
     inkscape:guide-bbox="true"
     inkscape:snap-bbox="true"
     inkscape:object-paths="true"
     inkscape:object-nodes="true"
     inkscape:window-width="1305"
     inkscape:window-height="744"
     inkscape:window-x="61"
     inkscape:window-y="24"
     inkscape:window-maximized="1"
     inkscape:snap-midpoints="true"
     inkscape:snap-grids="true"
     inkscape:snap-to-guides="false">
    <inkscape:grid
       type="xygrid"
       id="grid3002"
       empspacing="5"
       visible="true"
       enabled="true"
       snapvisiblegridlinesonly="true" />
  </sodipodi:namedview>
  <metadata
     id="metadata7">
    <rdf:RDF>
      <cc:Work
         rdf:about="">
        <dc:format>image/svg+xml</dc:format>
        <dc:type
           rdf:resource="http://purl.org/dc/dcmitype/StillImage" />
        <dc:title />
      </cc:Work>
    </rdf:RDF>
  </metadata>
  <g
     inkscape:label="Layer 1"
     inkscape:groupmode="layer"
     id="layer1"
     transform="translate(0,-956.36218)">
    <rect
       style="fill:#ffffff;fill-opacity:0;fill-rule:nonzero;stroke:none"
       id="rect3775"
       width="96"
       height="96"
       x="0"
       y="956.36218"
       ry="0" />
    <path
       style="fill:#000000;fill-opacity:0.09589041;fill-rule:nonzero;stroke:none"
       d="m 3.353015,956.30662 c -1.884176,0 -3.4111555,1.43156 -3.4111555,3.19799 l 0,83.65949 c 0,1.7665 1.5269795,3.1981 3.4111555,3.1981 l 89.23583,0 c 1.884174,0 3.411155,-1.4316 3.411155,-3.1981 l 0,-83.65949 c 0,-1.76643 -1.526981,-3.19799 -3.411155,-3.19799 z"
       id="rect3772"
       inkscape:connector-curvature="0"
       sodipodi:nodetypes="sssssssss" />
    <path
       style="fill:#000000;fill-opacity:0.18721463;fill-rule:nonzero;stroke:none"
       d="m 1.0459761,1041.8066 0,7.4219 c 0,1.7392 1.461916,3.1337 3.2852054,3.1337 l 86.3836135,0 c 1.823288,0 3.285205,-1.3945 3.285205,-3.1337 l 0,-7.4219 -92.9540239,0 z"
       id="rect3785"
       inkscape:connector-curvature="0" />
    <path
       style="fill:#000000;fill-opacity:0.38356168;fill-rule:nonzero;stroke:none"
       d="m 1.0459761,1041.8066 0,5.3807 c 0,1.762 1.461916,3.1749 3.2852054,3.1749 l 86.3836135,0 c 1.823288,0 3.285205,-1.4129 3.285205,-3.1749 l 0,-5.3807 -92.9540239,0 z"
       id="rect3783"
       inkscape:connector-curvature="0" />
    <rect
       style="fill:url(#linearGradient3781);fill-opacity:1;fill-rule:nonzero;stroke:none"
       id="rect2985"
       width="92.954025"
       height="89"
       x="1.045977"
       y="957.36218"
       ry="3.1511393" />
    <path
       style="font-size:25.15564919px;font-style:normal;font-variant:normal;font-weight:bold;font-stretch:normal;text-align:end;line-height:125%;letter-spacing:0px;word-spacing:0px;writing-mode:lr-tb;text-anchor:end;fill:#ffffff;fill-opacity:1;stroke:none;font-family:Bitstream Charter;-inkscape-font-specification:Bitstream Charter Bold"
       d="m 48.348152,972.50917 c -4.075038,0 -7.669223,2.46225 -9.654496,6.36561 -1.323525,2.66138 -2.015774,5.74378 -2.015774,9.20362 0,8.1172 3.705374,13.9915 9.521879,15.1448 l 0,0.1592 c 0,5.1452 2.275287,7.4796 7.081733,7.4796 1.636987,0 3.526484,-0.3074 5.755564,-0.9283 l 0,-2.2546 c -1.149376,0.3548 -2.234112,0.5305 -3.209324,0.5305 -3.099813,0 -4.590139,-1.597 -4.694632,-5.1456 5.607535,-1.2419 9.256646,-7.1084 9.256646,-14.8265 0,-5.05661 -1.527042,-9.36146 -4.243734,-12.33334 -2.089766,-2.30652 -4.663213,-3.39499 -7.797862,-3.39499 z m 0.05304,2.86452 c 3.866069,0 6.683882,4.74706 6.683882,12.73121 0,7.9398 -2.718431,12.6516 -6.445171,12.6516 -3.831233,0 -6.710405,-4.7823 -6.710405,-12.8108 0,-7.89536 2.710132,-12.57201 6.471694,-12.57201 z m 18.141966,1.06093 -1.803587,4.61507 -2.572764,1.88315 0,1.67095 2.254483,0 0,12.91691 c 0,2.2622 0.02762,3.6744 1.246598,4.6946 0.801062,0.7097 1.741683,0.9814 2.891044,0.9814 1.428003,0 3.241425,-0.4565 5.331191,-1.4323 l 0,-2.1219 c -0.696583,0.2217 -1.418572,0.3184 -2.254484,0.3184 -2.298736,0 -2.891044,-1.1476 -2.891044,-4.2968 l 0,-11.06031 5.145528,0 0,-2.65231 -5.145528,0 0,-5.51686 -2.201437,0 z"
       id="path4566"
       inkscape:connector-curvature="0" />
    <path
       style="fill:#000000;fill-opacity:0.38356168;fill-rule:nonzero;stroke:none"
       d="m 1,1042.3622 0.045976,2.7457 c 0.03024,1.8058 1.461916,3.2543 3.2852054,3.2543 l 86.3836136,0 c 1.823288,0 3.285205,-1.4481 3.285205,-3.2543 l -0.04598,-2.7457 z"
       id="rect3781"
       inkscape:connector-curvature="0"
       sodipodi:nodetypes="csssscc" />
    <rect
       style="fill:#ffffff;fill-opacity:0.15686275;fill-rule:nonzero;stroke:none"
       id="rect3770"
       width="92.954033"
       height="2.000005"
       x="1.045976"
       y="1040.3622" />
    <path
       style="fill:#ffffff;fill-opacity:0.25570777;fill-rule:nonzero;stroke:none"
       d="m 14.96875,977.36214 -0.15625,14.90625 c 0,10.19641 6.588667,18.57411 15.1875,19.90631 l 0,15.1875 -10,0 0,5 25,0 0,-5 -10,0 0,-15.2188 c 8.483313,-1.417 14.959659,-9.6996 15,-19.78126 1.26e-4,-0.032 0,-0.0617 0,-0.0937 l 0,-14.90625 -35.03125,0 z M 20,982.45589 l 24.90625,0 0,9.8125 c 0,0.0454 2.5e-5,0.0562 0,0.0625 -0.03482,8.70231 -5.891083,14.93751 -12.5,14.93751 -6.611782,0 -12.471144,-6.2314 -12.5,-14.93751 l 0,-0.0625 L 20,982.45589 z"
       id="rect2996"
       inkscape:connector-curvature="0" />
  </g>
</svg>
