<?xml version="1.0" encoding="UTF-8" standalone="no"?>
<!-- Created with Inkscape (http://www.inkscape.org/) -->

<svg
   xmlns:dc="http://purl.org/dc/elements/1.1/"
   xmlns:cc="http://creativecommons.org/ns#"
   xmlns:rdf="http://www.w3.org/1999/02/22-rdf-syntax-ns#"
   xmlns:svg="http://www.w3.org/2000/svg"
   xmlns="http://www.w3.org/2000/svg"
   xmlns:sodipodi="http://sodipodi.sourceforge.net/DTD/sodipodi-0.dtd"
   xmlns:inkscape="http://www.inkscape.org/namespaces/inkscape"
   width="96"
   height="96"
   id="svg2"
   version="1.1"
   inkscape:version="0.48.4 r9939"
   sodipodi:docname="scanner.svg">
  <defs
     id="defs4" />
  <sodipodi:namedview
     id="base"
     pagecolor="#ffffff"
     bordercolor="#666666"
     borderopacity="1.0"
     inkscape:pageopacity="0.0"
     inkscape:pageshadow="2"
     inkscape:zoom="5.90625"
     inkscape:cx="19.613629"
     inkscape:cy="48"
     inkscape:document-units="px"
     inkscape:current-layer="layer1"
     showgrid="true"
     inkscape:snap-page="true"
     inkscape:snap-global="true"
     inkscape:snap-center="true"
     inkscape:snap-object-midpoints="false"
     showguides="true"
     inkscape:guide-bbox="true"
     inkscape:snap-bbox="true"
     inkscape:object-paths="true"
     inkscape:object-nodes="true"
     inkscape:window-width="1305"
     inkscape:window-height="744"
     inkscape:window-x="61"
     inkscape:window-y="24"
     inkscape:window-maximized="1"
     inkscape:snap-midpoints="false"
     inkscape:snap-grids="true"
     inkscape:snap-to-guides="false">
    <inkscape:grid
       type="xygrid"
       id="grid3002"
       empspacing="5"
       visible="true"
       enabled="true"
       snapvisiblegridlinesonly="true" />
  </sodipodi:namedview>
  <metadata
     id="metadata7">
    <rdf:RDF>
      <cc:Work
         rdf:about="">
        <dc:format>image/svg+xml</dc:format>
        <dc:type
           rdf:resource="http://purl.org/dc/dcmitype/StillImage" />
        <dc:title />
      </cc:Work>
    </rdf:RDF>
  </metadata>
  <g
     inkscape:label="Layer 1"
     inkscape:groupmode="layer"
     id="layer1"
     transform="translate(0,-956.36218)">
    <rect
       style="fill:#ffffff;fill-opacity:0;fill-rule:nonzero;stroke:none"
       id="rect3775"
       width="96"
       height="96"
       x="0"
       y="956.36218"
       ry="0" />
    <path
       style="fill:#000000;fill-opacity:0.09589041;fill-rule:nonzero;stroke:none"
       d="m 3.353015,956.30662 c -1.884176,0 -3.4111555,1.43156 -3.4111555,3.19799 l 0,83.65949 c 0,1.7665 1.5269795,3.1981 3.4111555,3.1981 l 89.23583,0 c 1.884174,0 3.411155,-1.4316 3.411155,-3.1981 l 0,-83.65949 c 0,-1.76643 -1.526981,-3.19799 -3.411155,-3.19799 z"
       id="rect3772"
       inkscape:connector-curvature="0"
       sodipodi:nodetypes="sssssssss" />
    <path
       style="fill:#000000;fill-opacity:0.18721463;fill-rule:nonzero;stroke:none"
       d="m 1.0459761,1041.8066 0,7.4219 c 0,1.7392 1.461916,3.1337 3.2852054,3.1337 l 86.3836135,0 c 1.823288,0 3.285205,-1.3945 3.285205,-3.1337 l 0,-7.4219 -92.9540239,0 z"
       id="rect3785"
       inkscape:connector-curvature="0" />
    <path
       style="fill:#000000;fill-opacity:0.38356168;fill-rule:nonzero;stroke:none"
       d="m 1.0459761,1041.8066 0,5.3807 c 0,1.762 1.461916,3.1749 3.2852054,3.1749 l 86.3836135,0 c 1.823288,0 3.285205,-1.4129 3.285205,-3.1749 l 0,-5.3807 -92.9540239,0 z"
       id="rect3783"
       inkscape:connector-curvature="0" />
    <rect
       style="fill:#333333;fill-opacity:1;fill-rule:nonzero;stroke:none"
       id="rect2985-4"
       width="92.999992"
       height="88.999992"
       x="1.0000027"
       y="957.36218"
       ry="3.1511393" />
    <path
       style="fill:#cccccc;fill-opacity:1;fill-rule:nonzero;stroke:none"
       d="m 6.8125025,962.92469 0,69.39881 81.3749955,0 0,-69.39881 z"
       id="path2989"
       inkscape:connector-curvature="0"
       sodipodi:nodetypes="ccccc" />
    <path
       id="path3767"
       d="m 24.893404,1020.1904 45.213192,0 c -4.83416,0.7667 -12.940064,1.2998 -22.606596,1.2998 -9.666531,0 -17.772435,-0.5331 -22.606596,-1.2998 z"
       style="fill:#333333;fill-opacity:1;fill-rule:nonzero;stroke:none"
       inkscape:connector-curvature="0" />
    <path
       inkscape:connector-curvature="0"
       style="fill:#333333;fill-opacity:1;fill-rule:nonzero;stroke:none"
       d="m 24.893404,1016.0713 45.213192,0 c -4.83416,0.7668 -12.940064,1.2998 -22.606596,1.2998 -9.666531,0 -17.772435,-0.533 -22.606596,-1.2998 z"
       id="path3769" />
    <path
       id="path3771"
       d="m 24.893404,1011.9523 45.213192,0 c -4.83416,0.7667 -12.940064,1.2998 -22.606596,1.2998 -9.666531,0 -17.772435,-0.5331 -22.606596,-1.2998 z"
       style="fill:#333333;fill-opacity:1;fill-rule:nonzero;stroke:none"
       inkscape:connector-curvature="0" />
    <path
       inkscape:connector-curvature="0"
       style="fill:#333333;fill-opacity:1;fill-rule:nonzero;stroke:none"
       d="m 24.893404,1007.8332 45.213192,0 c -4.83416,0.7668 -12.940064,1.2998 -22.606596,1.2998 -9.666531,0 -17.772435,-0.533 -22.606596,-1.2998 z"
       id="path3773" />
    <path
       inkscape:connector-curvature="0"
       style="font-size:11px;font-style:normal;font-variant:normal;font-weight:normal;font-stretch:normal;text-align:end;line-height:125%;letter-spacing:0px;word-spacing:0px;text-anchor:end;fill:#000000;fill-opacity:1;stroke:none;font-family:mry_KacstQurn;-inkscape-font-specification:mry_KacstQurn"
       d="m 27.779019,993.35288 c -0.828558,10e-6 -1.503222,0.18349 -2.006696,0.56287 -0.503478,0.3794 -0.761162,0.88191 -0.761161,1.52307 -10e-7,0.61082 0.174072,1.11057 0.518973,1.48996 0.348864,0.37938 0.921175,0.71635 1.729911,0.9933 0.578796,0.19728 0.99866,0.37421 1.280134,0.52976 0.28543,0.15555 0.503832,0.31075 0.622768,0.49665 0.12289,0.1821 0.172985,0.44009 0.172991,0.72842 -6e-6,0.43629 -0.143444,0.77979 -0.484375,1.02639 -0.340941,0.2428 -0.84838,0.3642 -1.522321,0.3642 -0.412298,0 -0.859913,-0.049 -1.280134,-0.1324 -0.420226,-0.084 -0.784948,-0.22 -1.141741,-0.3642 l 0,0.9602 c 0.555011,0.2542 1.356536,0.3642 2.387276,0.3642 0.951447,0 1.693867,-0.1863 2.248884,-0.596 0.555007,-0.4097 0.830351,-0.9895 0.830357,-1.72172 -6e-6,-0.56908 -0.174078,-1.034 -0.518973,-1.39062 -0.340941,-0.35663 -0.9565,-0.68221 -1.868303,-0.9933 -0.543124,-0.1859 -0.945328,-0.37801 -1.210938,-0.52977 -0.261651,-0.15554 -0.477168,-0.31454 -0.58817,-0.49665 -0.111004,-0.18589 -0.138395,-0.40697 -0.138392,-0.69531 -3e-6,-0.39076 0.148482,-0.70703 0.449776,-0.92708 0.301291,-0.22004 0.710342,-0.3311 1.245536,-0.3311 0.677905,0 1.358336,0.1421 2.075893,0.43043 l 0.345982,-0.82776 c -0.725486,-0.3035 -1.523047,-0.46353 -2.387277,-0.46354 z m 6.885045,2.08594 c -0.971276,0 -1.721624,0.29178 -2.248884,0.86086 -0.523299,0.56908 -0.761162,1.37373 -0.761161,2.41704 -1e-6,1.01675 0.24579,1.79308 0.761161,2.35078 0.519332,0.5539 1.236162,0.8278 2.179687,0.8278 0.662047,0 1.224627,-0.1149 1.660714,-0.3311 l 0,-0.8278 c -0.570875,0.2239 -1.117598,0.3311 -1.660714,0.3311 -0.634303,0 -1.128048,-0.1862 -1.453125,-0.5959 -0.321117,-0.4098 -0.484377,-1.02162 -0.484375,-1.78799 -2e-6,-1.61619 0.647993,-2.41704 1.972098,-2.41704 0.198215,0 0.434276,0.0424 0.691965,0.0993 0.257679,0.0531 0.508516,0.1152 0.726562,0.19866 l 0.311384,-0.79464 c -0.178403,-0.0873 -0.44798,-0.16727 -0.761161,-0.23177 -0.31319,-0.0645 -0.62097,-0.0993 -0.934151,-0.0993 z m 5.60491,0 c -0.384548,0 -0.791798,0.0707 -1.176339,0.16555 -0.380583,0.0948 -0.716833,0.19728 -1.037947,0.36421 l 0.311384,0.72842 c 0.685835,-0.31868 1.290582,-0.46354 1.833706,-0.46354 0.483649,0 0.819901,0.0959 1.037946,0.3311 0.222001,0.23144 0.345978,0.60323 0.345982,1.09264 l 0,0.39732 -1.107143,0.0331 c -2.105087,0.0607 -3.148438,0.72704 -3.148437,1.98662 -10e-7,0.588 0.154249,1.0388 0.518973,1.3575 0.368685,0.3187 0.876125,0.4635 1.522321,0.4635 0.483651,0 0.88982,-0.062 1.210938,-0.1986 0.325075,-0.1404 0.678264,-0.4039 1.003348,-0.7947 l 0.0346,0 0.20759,0.894 0.726562,0 0,-4.2712 c -6e-6,-0.72842 -0.211559,-1.25921 -0.58817,-1.58928 -0.372656,-0.33006 -0.918298,-0.49665 -1.695312,-0.49665 z m 7.404017,0 c -0.447978,0 -0.880816,0.0942 -1.245535,0.26488 -0.364725,0.16694 -0.628176,0.38801 -0.830357,0.69531 l -0.0346,0 -0.172991,-0.86086 -0.795758,0 0,6.25785 0.968749,0 0,-3.27794 c -2e-6,-0.81188 0.167223,-1.402 0.484375,-1.75484 0.317148,-0.35283 0.805848,-0.52976 1.487724,-0.52976 0.515365,0 0.899909,0.11382 1.141741,0.36421 0.241822,0.2504 0.380574,0.65048 0.38058,1.15886 l 0,4.03947 0.96875,0 0,-4.07258 c -7e-6,-0.79671 -0.191738,-1.39442 -0.58817,-1.75484 -0.396443,-0.36421 -0.979566,-0.52976 -1.764509,-0.52976 z m 7.473214,0 c -0.447978,0 -0.880816,0.0942 -1.245535,0.26488 -0.364725,0.16694 -0.628177,0.38801 -0.830357,0.69531 l -0.0692,0 -0.138393,-0.86086 -0.795759,0 0,6.25785 0.96875,0 0,-3.27794 c -2e-6,-0.81188 0.167223,-1.402 0.484375,-1.75484 0.317148,-0.35283 0.805848,-0.52976 1.487724,-0.52976 0.515365,0 0.899908,0.11382 1.141741,0.36421 0.241822,0.2504 0.345976,0.65048 0.345982,1.15886 l 0,4.03947 1.003348,0 0,-4.07258 c -7e-6,-0.79671 -0.191738,-1.39442 -0.58817,-1.75484 -0.396443,-0.36421 -0.979567,-0.52976 -1.764509,-0.52976 z m 6.885045,0 c -0.872166,0 -1.591159,0.30213 -2.110491,0.89397 -0.515371,0.59185 -0.761162,1.37856 -0.761161,2.38393 -1e-6,0.99779 0.275343,1.78928 0.830357,2.35078 0.558975,0.5615 1.320135,0.8278 2.283482,0.8278 0.440042,0 0.832515,-0.035 1.141741,-0.099 0.313181,-0.061 0.619879,-0.1538 0.96875,-0.298 l 0,-0.8277 c -0.685843,0.2807 -1.374202,0.3973 -2.075893,0.3973 -0.666018,0 -1.188235,-0.1835 -1.556919,-0.5629 -0.364725,-0.3794 -0.533752,-0.92327 -0.553572,-1.65548 l 4.46317,0 0,-0.59599 c -7e-6,-0.84223 -0.216245,-1.54065 -0.691964,-2.05282 -0.475731,-0.51597 -1.120843,-0.76154 -1.9375,-0.76154 z m 7.300222,0 c -0.408334,0 -0.800807,0.11106 -1.141741,0.3311 -0.340939,0.22005 -0.62313,0.52114 -0.864955,0.92708 l -0.0346,0 -0.138393,-1.15885 -0.795759,0 0,6.25785 0.96875,0 0,-3.34416 c -2e-6,-0.61081 0.180917,-1.14644 0.553572,-1.55617 0.376613,-0.40974 0.856662,-0.59599 1.383928,-0.59599 0.206143,0 0.422382,0.01 0.691964,0.0662 l 0.138393,-0.86086 c -0.229938,-0.0456 -0.471766,-0.0662 -0.761161,-0.0662 z m -7.334821,0.79464 c 0.515365,0 0.933427,0.14486 1.210938,0.46354 0.277502,0.31489 0.415173,0.76189 0.415178,1.35752 l -3.425223,0 c 0.0555,-0.57667 0.244348,-0.99814 0.553572,-1.32441 0.313183,-0.32627 0.722234,-0.49665 1.245535,-0.49665 z m -20.447543,2.48326 0,0.56287 c -5e-6,0.58046 -0.166148,1.03501 -0.518973,1.35751 -0.34887,0.3225 -0.83865,0.4967 -1.453125,0.4967 -0.388512,0 -0.681515,-0.087 -0.899554,-0.2649 -0.214078,-0.1783 -0.311385,-0.4532 -0.311384,-0.7947 -1e-6,-0.43625 0.174071,-0.75529 0.518973,-0.96016 0.348863,-0.20866 0.910363,-0.33765 1.695313,-0.36421 l 0.96875,-0.0331 z"
       id="text3775" />
    <rect
       style="fill:#0055d4;fill-opacity:1;fill-rule:nonzero;stroke:none"
       id="rect3780"
       width="7.6571469"
       height="4.6613717"
       x="65.647827"
       y="1035.0315"
       ry="1.2637101" />
    <rect
       ry="1.2637101"
       y="1035.0315"
       x="76.719254"
       height="4.6613717"
       width="7.6571469"
       id="rect3782"
       style="fill:#ffcc00;fill-opacity:1;fill-rule:nonzero;stroke:none" />
    <path
       sodipodi:nodetypes="ccccc"
       inkscape:connector-curvature="0"
       id="path3784"
       d="m 6.8125025,1033.4232 0,-1.0997 81.3749955,0 0,1.0997 z"
       style="fill:#666666;fill-opacity:1;fill-rule:nonzero;stroke:none" />
    <path
       style="fill:#000000;fill-opacity:1;fill-rule:nonzero;stroke:none"
       d="m 37.197014,1033.6471 20.605973,0 c -2.203175,-2.9967 -5.897452,-5.0799 -10.302987,-5.0799 -4.405534,0 -8.099811,2.0832 -10.302986,5.0799 z"
       id="path2992"
       inkscape:connector-curvature="0" />
    <path
       inkscape:connector-curvature="0"
       id="path3788"
       d="m 39.04529,1033.6471 16.909421,0 c -1.807943,-2.2514 -4.839495,-3.8165 -8.454711,-3.8165 -3.615215,0 -6.646767,1.5651 -8.45471,3.8165 z"
       style="fill:#1a1a1a;fill-opacity:1;fill-rule:nonzero;stroke:none" />
    <path
       style="fill:#000000;fill-opacity:0.38356168;fill-rule:nonzero;stroke:none"
       d="m 1,1042.3622 0.045976,2.7457 c 0.03024,1.8058 1.461916,3.2543 3.2852054,3.2543 l 86.3836136,0 c 1.823288,0 3.285205,-1.4481 3.285205,-3.2543 l -0.04598,-2.7457 z"
       id="rect3781"
       inkscape:connector-curvature="0"
       sodipodi:nodetypes="csssscc" />
    <rect
       style="fill:#ffffff;fill-opacity:0.30000001;fill-rule:nonzero;stroke:none"
       id="rect3770"
       width="92.954033"
       height="2.000005"
       x="1.045976"
       y="1040.3622" />
  </g>
</svg>
