<?xml version="1.0" encoding="UTF-8" standalone="no"?>
<!-- Created with Inkscape (http://www.inkscape.org/) -->

<svg
   xmlns:dc="http://purl.org/dc/elements/1.1/"
   xmlns:cc="http://creativecommons.org/ns#"
   xmlns:rdf="http://www.w3.org/1999/02/22-rdf-syntax-ns#"
   xmlns:svg="http://www.w3.org/2000/svg"
   xmlns="http://www.w3.org/2000/svg"
   xmlns:sodipodi="http://sodipodi.sourceforge.net/DTD/sodipodi-0.dtd"
   xmlns:inkscape="http://www.inkscape.org/namespaces/inkscape"
   width="96"
   height="96"
   id="svg2"
   version="1.1"
   inkscape:version="0.48.4 r9939"
   sodipodi:docname="scummv.svg">
  <sodipodi:namedview
     id="base"
     pagecolor="#ffffff"
     bordercolor="#666666"
     borderopacity="1.0"
     inkscape:pageopacity="0.0"
     inkscape:pageshadow="2"
     inkscape:zoom="9.5418278"
     inkscape:cx="55.792199"
     inkscape:cy="52.153577"
     inkscape:document-units="px"
     inkscape:current-layer="layer1"
     showgrid="true"
     inkscape:snap-page="true"
     inkscape:snap-global="true"
     inkscape:snap-center="true"
     inkscape:snap-object-midpoints="false"
     showguides="true"
     inkscape:guide-bbox="true"
     inkscape:snap-bbox="true"
     inkscape:object-paths="true"
     inkscape:object-nodes="true"
     inkscape:window-width="1305"
     inkscape:window-height="744"
     inkscape:window-x="61"
     inkscape:window-y="24"
     inkscape:window-maximized="1"
     inkscape:snap-midpoints="true"
     inkscape:snap-grids="true"
     inkscape:snap-to-guides="false">
    <inkscape:grid
       snapvisiblegridlinesonly="true"
       enabled="true"
       visible="true"
       empspacing="5"
       id="grid3002"
       type="xygrid" />
  </sodipodi:namedview>
  <defs
     id="defs4" />
  <metadata
     id="metadata7">
    <rdf:RDF>
      <cc:Work
         rdf:about="">
        <dc:format>image/svg+xml</dc:format>
        <dc:type
           rdf:resource="http://purl.org/dc/dcmitype/StillImage" />
        <dc:title />
      </cc:Work>
    </rdf:RDF>
  </metadata>
  <g
     transform="translate(0,-956.36218)"
     id="layer1"
     inkscape:groupmode="layer"
     inkscape:label="Layer 1">
    <rect
       ry="0"
       y="956.36218"
       x="0"
       height="96"
       width="96"
       id="rect3775"
       style="fill:#ffffff;fill-opacity:0;fill-rule:nonzero;stroke:none" />
    <path
       sodipodi:nodetypes="sssssssss"
       inkscape:connector-curvature="0"
       id="rect3772"
       d="m 3.353015,956.30662 c -1.884176,0 -3.4111555,1.43156 -3.4111555,3.19799 l 0,83.65949 c 0,1.7665 1.5269795,3.1981 3.4111555,3.1981 l 89.23583,0 c 1.884174,0 3.411155,-1.4316 3.411155,-3.1981 l 0,-83.65949 c 0,-1.76643 -1.526981,-3.19799 -3.411155,-3.19799 z"
       style="fill:#000000;fill-opacity:0.09589041;fill-rule:nonzero;stroke:none" />
    <path
       inkscape:connector-curvature="0"
       id="rect3785"
       d="m 1.0459761,1041.8066 0,7.4219 c 0,1.7392 1.461916,3.1337 3.2852054,3.1337 l 86.3836135,0 c 1.823288,0 3.285205,-1.3945 3.285205,-3.1337 l 0,-7.4219 -92.9540239,0 z"
       style="fill:#000000;fill-opacity:0.18721463;fill-rule:nonzero;stroke:none" />
    <path
       inkscape:connector-curvature="0"
       id="rect3783"
       d="m 1.0459761,1041.8066 0,5.3807 c 0,1.762 1.461916,3.1749 3.2852054,3.1749 l 86.3836135,0 c 1.823288,0 3.285205,-1.4129 3.285205,-3.1749 l 0,-5.3807 -92.9540239,0 z"
       style="fill:#000000;fill-opacity:0.38356168;fill-rule:nonzero;stroke:none" />
    <rect
       ry="3.1511393"
       y="957.36218"
       x="1.045977"
       height="89"
       width="92.954025"
       id="rect2985"
       style="fill:#494949;fill-opacity:1;fill-rule:nonzero;stroke:none" />
    <path
       sodipodi:nodetypes="csssscc"
       inkscape:connector-curvature="0"
       id="rect3781"
       d="m 1,1042.3622 0.045976,2.7457 c 0.03024,1.8058 1.461916,3.2543 3.2852054,3.2543 l 86.3836136,0 c 1.823288,0 3.285205,-1.4481 3.285205,-3.2543 l -0.04598,-2.7457 z"
       style="fill:#000000;fill-opacity:0.38356168;fill-rule:nonzero;stroke:none" />
    <rect
       y="1040.3622"
       x="1.045976"
       height="2.000005"
       width="92.954033"
       id="rect3770"
       style="fill:#ffffff;fill-opacity:0.23529412;fill-rule:nonzero;stroke:none" />
    <path
       inkscape:connector-curvature="0"
       id="path3828"
       d="m 35,974.36218 -13.85166,24.97102 3.93611,7.2302 33.96238,0 -3.44141,10.7114 -17.20703,0 -3.44141,-7.1409 -7.93674,0 7.78618,14.2819 27.53125,0.1339 13.87317,-24.971 -3.97913,-7.2972 -33.83332,0 3.44141,-10.71142 17.20703,0 3.4414,7.14092 7.78618,0 L 62.53125,974.49607 35,974.36218 z"
       style="fill:#020202;fill-opacity:0.40639271;fill-rule:evenodd;stroke:none" />
    <path
       style="fill:#020202;fill-opacity:0.40639271;fill-rule:evenodd;stroke:none"
       d="m 35,976.36218 -13.85166,24.97102 3.93611,7.2302 33.96238,0 -3.44141,10.7114 -17.20703,0 -3.44141,-7.1409 -7.93674,0 7.78618,14.2819 27.53125,0.1339 13.87317,-24.971 -3.97913,-7.2972 -33.83332,0 3.44141,-10.71142 17.20703,0 3.4414,7.14092 7.78618,0 L 62.53125,976.49607 35,976.36218 z"
       id="path3830"
       inkscape:connector-curvature="0" />
    <path
       style="fill:#3aff00;fill-opacity:1;fill-rule:evenodd;stroke:none"
       d="M 35 16 L 21.15625 40.96875 L 25.09375 48.1875 L 59.03125 48.1875 L 55.59375 58.90625 L 38.40625 58.90625 L 37 56 L 29.34375 56 L 34.8125 66.0625 L 62.34375 66.1875 L 76.21875 41.21875 L 72.21875 33.90625 L 38.40625 33.90625 L 41.84375 23.21875 L 59.03125 23.21875 L 60.375 26 L 67.90625 26 L 62.53125 16.125 L 35 16 z "
       transform="translate(0,956.36218)"
       id="path3042" />
  </g>
</svg>
