<?xml version="1.0" encoding="UTF-8" standalone="no"?>
<!-- Created with Inkscape (http://www.inkscape.org/) -->

<svg
   xmlns:dc="http://purl.org/dc/elements/1.1/"
   xmlns:cc="http://creativecommons.org/ns#"
   xmlns:rdf="http://www.w3.org/1999/02/22-rdf-syntax-ns#"
   xmlns:svg="http://www.w3.org/2000/svg"
   xmlns="http://www.w3.org/2000/svg"
   xmlns:xlink="http://www.w3.org/1999/xlink"
   xmlns:sodipodi="http://sodipodi.sourceforge.net/DTD/sodipodi-0.dtd"
   xmlns:inkscape="http://www.inkscape.org/namespaces/inkscape"
   width="96"
   height="96"
   id="svg2"
   version="1.1"
   inkscape:version="0.48.4 r9939"
   sodipodi:docname="seamongkey.svg">
  <defs
     id="defs4">
    <radialGradient
       inkscape:collect="always"
       xlink:href="#linearGradient3967"
       id="radialGradient3100"
       gradientUnits="userSpaceOnUse"
       gradientTransform="matrix(2.7806552,0.03277279,-0.00606633,0.51470626,-85.626186,21.65215)"
       cx="48.25"
       cy="47.875"
       fx="48.25"
       fy="47.875"
       r="50.875" />
    <linearGradient
       id="linearGradient3967">
      <stop
         style="stop-color:#a1002d;stop-opacity:1;"
         offset="0"
         id="stop3969" />
      <stop
         style="stop-color:#550000;stop-opacity:1;"
         offset="1"
         id="stop3971" />
    </linearGradient>
    <radialGradient
       inkscape:collect="always"
       xlink:href="#linearGradient3967"
       id="radialGradient3102"
       gradientUnits="userSpaceOnUse"
       gradientTransform="matrix(2.7806552,0.03277279,-0.00606633,0.51470626,-85.626186,21.65215)"
       cx="48.25"
       cy="47.875"
       fx="48.25"
       fy="47.875"
       r="50.875" />
    <radialGradient
       inkscape:collect="always"
       xlink:href="#linearGradient3967"
       id="radialGradient3104"
       gradientUnits="userSpaceOnUse"
       gradientTransform="matrix(2.7806552,0.03277279,-0.00606633,0.51470626,-85.626186,21.65215)"
       cx="48.25"
       cy="47.875"
       fx="48.25"
       fy="47.875"
       r="50.875" />
    <radialGradient
       inkscape:collect="always"
       xlink:href="#linearGradient3967"
       id="radialGradient3106"
       gradientUnits="userSpaceOnUse"
       gradientTransform="matrix(2.7806552,0.03277279,-0.00606633,0.51470626,-85.626186,21.65215)"
       cx="48.25"
       cy="47.875"
       fx="48.25"
       fy="47.875"
       r="50.875" />
    <linearGradient
       inkscape:collect="always"
       xlink:href="#linearGradient4010"
       id="linearGradient3108"
       gradientUnits="userSpaceOnUse"
       gradientTransform="matrix(0.85705202,0,0,0.75787908,-6.6013292,72.1271)"
       x1="57.063118"
       y1="1.7557522"
       x2="57.116581"
       y2="-68.02124" />
    <linearGradient
       id="linearGradient4010">
      <stop
         id="stop4012"
         offset="0"
         style="stop-color:#000000;stop-opacity:1;" />
      <stop
         id="stop4014"
         offset="1"
         style="stop-color:#262626;stop-opacity:1;" />
    </linearGradient>
    <linearGradient
       inkscape:collect="always"
       xlink:href="#linearGradient4010"
       id="linearGradient3110"
       gradientUnits="userSpaceOnUse"
       gradientTransform="matrix(0.85705202,0,0,0.75787908,-6.6013292,72.1271)"
       x1="57.063118"
       y1="1.7557522"
       x2="57.116581"
       y2="-68.02124" />
    <linearGradient
       inkscape:collect="always"
       xlink:href="#linearGradient4010"
       id="linearGradient3112"
       gradientUnits="userSpaceOnUse"
       gradientTransform="matrix(0.85705202,0,0,0.75787908,-6.6013292,72.1271)"
       x1="57.063118"
       y1="1.7557522"
       x2="57.116581"
       y2="-68.02124" />
  </defs>
  <sodipodi:namedview
     id="base"
     pagecolor="#ffffff"
     bordercolor="#666666"
     borderopacity="1.0"
     inkscape:pageopacity="0.0"
     inkscape:pageshadow="2"
     inkscape:zoom="5.90625"
     inkscape:cx="22.010582"
     inkscape:cy="48"
     inkscape:document-units="px"
     inkscape:current-layer="layer1"
     showgrid="true"
     inkscape:snap-page="true"
     inkscape:snap-global="true"
     inkscape:snap-center="true"
     inkscape:snap-object-midpoints="false"
     showguides="true"
     inkscape:guide-bbox="true"
     inkscape:snap-bbox="true"
     inkscape:object-paths="true"
     inkscape:object-nodes="true"
     inkscape:window-width="1305"
     inkscape:window-height="744"
     inkscape:window-x="61"
     inkscape:window-y="24"
     inkscape:window-maximized="1"
     inkscape:snap-midpoints="true"
     inkscape:snap-grids="true"
     inkscape:snap-to-guides="false">
    <inkscape:grid
       type="xygrid"
       id="grid3002"
       empspacing="5"
       visible="true"
       enabled="true"
       snapvisiblegridlinesonly="true" />
  </sodipodi:namedview>
  <metadata
     id="metadata7">
    <rdf:RDF>
      <cc:Work
         rdf:about="">
        <dc:format>image/svg+xml</dc:format>
        <dc:type
           rdf:resource="http://purl.org/dc/dcmitype/StillImage" />
        <dc:title />
      </cc:Work>
    </rdf:RDF>
  </metadata>
  <g
     inkscape:label="Layer 1"
     inkscape:groupmode="layer"
     id="layer1"
     transform="translate(0,-956.36218)">
    <rect
       style="fill:#ffffff;fill-opacity:0;fill-rule:nonzero;stroke:none"
       id="rect3775"
       width="96"
       height="96"
       x="0"
       y="956.36218"
       ry="0" />
    <path
       style="fill:#000000;fill-opacity:0.09589041;fill-rule:nonzero;stroke:none"
       d="m 3.353015,956.30662 c -1.884176,0 -3.4111555,1.43156 -3.4111555,3.19799 l 0,83.65949 c 0,1.7665 1.5269795,3.1981 3.4111555,3.1981 l 89.23583,0 c 1.884174,0 3.411155,-1.4316 3.411155,-3.1981 l 0,-83.65949 c 0,-1.76643 -1.526981,-3.19799 -3.411155,-3.19799 z"
       id="rect3772"
       inkscape:connector-curvature="0"
       sodipodi:nodetypes="sssssssss" />
    <path
       style="fill:#000000;fill-opacity:0.18721463;fill-rule:nonzero;stroke:none"
       d="m 1.0459761,1041.8066 0,7.4219 c 0,1.7392 1.461916,3.1337 3.2852054,3.1337 l 86.3836135,0 c 1.823288,0 3.285205,-1.3945 3.285205,-3.1337 l 0,-7.4219 -92.9540239,0 z"
       id="rect3785"
       inkscape:connector-curvature="0" />
    <path
       style="fill:#000000;fill-opacity:0.38356168;fill-rule:nonzero;stroke:none"
       d="m 1.0459761,1041.8066 0,5.3807 c 0,1.762 1.461916,3.1749 3.2852054,3.1749 l 86.3836135,0 c 1.823288,0 3.285205,-1.4129 3.285205,-3.1749 l 0,-5.3807 -92.9540239,0 z"
       id="rect3783"
       inkscape:connector-curvature="0" />
    <rect
       style="fill:#333333;fill-opacity:1;fill-rule:nonzero;stroke:none"
       id="rect2985-4"
       width="93"
       height="89"
       x="1.0000019"
       y="957.36218"
       ry="3.1511395" />
    <path
       style="fill:#000000;fill-opacity:0.38356168;fill-rule:nonzero;stroke:none"
       d="m 1,1042.3622 0.045976,2.7457 c 0.03024,1.8058 1.461916,3.2543 3.2852054,3.2543 l 86.3836136,0 c 1.823288,0 3.285205,-1.4481 3.285205,-3.2543 l -0.04598,-2.7457 z"
       id="rect3781"
       inkscape:connector-curvature="0"
       sodipodi:nodetypes="csssscc" />
    <rect
       style="fill:#ffffff;fill-opacity:0.37442923;fill-rule:nonzero;stroke:none"
       id="rect3770"
       width="92.954033"
       height="2.000005"
       x="1.045976"
       y="1040.3622" />
    <g
       id="g4604"
       transform="matrix(0.89026246,0,0,0.91502214,0.50952704,954.86449)">
      <g
         id="g4599">
        <path
           id="path4523"
           d="m 71.524134,18.474115 c -3.60189,0.05976 -7.0803,1.964383 -9.193407,4.87489 -2.764317,3.857893 -4.244865,8.44978 -5.484251,12.982045 -1.743647,6.458174 -4.704731,12.556788 -8.398588,18.121874 -7.642882,11.458247 -18.147233,21.459635 -31.130412,26.520462 l -0.503386,0.476891 c 8.791135,-1.032822 15.94896,-6.973323 22.625849,-12.319695 5.352447,-0.510335 10.628489,-1.582128 15.816899,-2.967324 7.175074,-2.017041 14.461531,-5.171361 19.261115,-11.100973 4.750979,-5.82633 5.577004,-14.027867 3.815131,-21.142186 -0.595391,-2.849374 -2.68937,-5.818528 -5.775685,-6.146601 -0.115433,-0.400977 -0.34104,-1.188661 -0.450398,-1.589638 1.50063,-1.71327 3.88841,-3.633569 3.232265,-6.173095 -0.686523,-0.990294 -1.921162,-1.510156 -3.099795,-1.510156 -0.240738,-0.01253 -0.475211,-0.03048 -0.715337,-0.02649 z"
           style="opacity:0.2;fill:#ffffff;stroke:#ffffff;stroke-width:9.67208576;stroke-linecap:round;stroke-linejoin:round;stroke-miterlimit:4;stroke-dasharray:none;display:inline"
           inkscape:connector-curvature="0" />
        <path
           inkscape:connector-curvature="0"
           style="opacity:0.2;fill:#ffffff;stroke:#ffffff;stroke-width:7.52273321;stroke-linecap:round;stroke-linejoin:round;stroke-miterlimit:4;stroke-dasharray:none;display:inline"
           d="m 71.524134,18.474115 c -3.60189,0.05976 -7.0803,1.964383 -9.193407,4.87489 -2.764317,3.857893 -4.244865,8.44978 -5.484251,12.982045 -1.743647,6.458174 -4.704731,12.556788 -8.398588,18.121874 -7.642882,11.458247 -18.147233,21.459635 -31.130412,26.520462 l -0.503386,0.476891 c 8.791135,-1.032822 15.94896,-6.973323 22.625849,-12.319695 5.352447,-0.510335 10.628489,-1.582128 15.816899,-2.967324 7.175074,-2.017041 14.461531,-5.171361 19.261115,-11.100973 4.750979,-5.82633 5.577004,-14.027867 3.815131,-21.142186 -0.595391,-2.849374 -2.68937,-5.818528 -5.775685,-6.146601 -0.115433,-0.400977 -0.34104,-1.188661 -0.450398,-1.589638 1.50063,-1.71327 3.88841,-3.633569 3.232265,-6.173095 -0.686523,-0.990294 -1.921162,-1.510156 -3.099795,-1.510156 -0.240738,-0.01253 -0.475211,-0.03048 -0.715337,-0.02649 z"
           id="path4521" />
        <path
           id="path3632-0"
           d="m 71.524134,18.474115 c -3.60189,0.05976 -7.0803,1.964383 -9.193407,4.87489 -2.764317,3.857893 -4.244865,8.44978 -5.484251,12.982045 -1.743647,6.458174 -4.704731,12.556788 -8.398588,18.121874 -7.642882,11.458247 -18.147233,21.459635 -31.130412,26.520462 l -0.503386,0.476891 c 8.791135,-1.032822 15.94896,-6.973323 22.625849,-12.319695 5.352447,-0.510335 10.628489,-1.582128 15.816899,-2.967324 7.175074,-2.017041 14.461531,-5.171361 19.261115,-11.100973 4.750979,-5.82633 5.577004,-14.027867 3.815131,-21.142186 -0.595391,-2.849374 -2.68937,-5.818528 -5.775685,-6.146601 -0.115433,-0.400977 -0.34104,-1.188661 -0.450398,-1.589638 1.50063,-1.71327 3.88841,-3.633569 3.232265,-6.173095 -0.686523,-0.990294 -1.921162,-1.510156 -3.099795,-1.510156 -0.240738,-0.01253 -0.475211,-0.03048 -0.715337,-0.02649 z"
           style="opacity:0.2;fill:#ffffff;stroke:#ffffff;stroke-width:5.37338114;stroke-linecap:round;stroke-linejoin:round;stroke-miterlimit:4;stroke-dasharray:none;display:inline"
           inkscape:connector-curvature="0" />
      </g>
      <g
         transform="matrix(0.84780698,0,0,0.84780698,10.058128,6.286891)"
         id="g3696">
        <path
           inkscape:connector-curvature="0"
           style="fill:#ffffff;stroke:#ffffff;stroke-width:3.80278611"
           d="m 72.5,14.375 c -4.248479,0.07049 -8.351311,2.317017 -10.84375,5.75 -3.26055,4.550438 -5.006877,9.966631 -6.46875,15.3125 -2.056655,7.617505 -5.549295,14.810904 -9.90625,21.375 C 36.266366,70.32766 23.876339,82.124435 8.5625,88.09375 l -0.59375,0.5625 c 10.369265,-1.218228 18.812018,-8.225131 26.6875,-14.53125 6.313285,-0.601948 12.536449,-1.866142 18.65625,-3.5 8.463099,-2.379127 17.057575,-6.099691 22.71875,-13.09375 5.603846,-6.872237 6.578153,-16.546062 4.5,-24.9375 -0.702272,-3.360875 -3.172149,-6.863033 -6.8125,-7.25 -0.136155,-0.472958 -0.402261,-1.402041 -0.53125,-1.875 C 74.957513,21.447925 77.773933,19.182906 77,16.1875 76.190237,15.019435 74.733963,14.40625 73.34375,14.40625 73.059796,14.39147 72.783232,14.370301 72.5,14.375 z"
           id="path3632" />
        <g
           id="g3586"
           transform="translate(113.41106,-1.6647399)">
          <path
             style="fill:#2388ff"
             inkscape:connector-curvature="0"
             d="m -51.761477,21.774487 c 2.658602,-3.661849 7.166044,-5.954983 11.709316,-5.718503 1.390213,0 2.823421,0.61628 3.633184,1.784345 0.773933,2.995406 -2.02799,5.267042 -3.798003,7.287867 0.128989,0.472959 0.394132,1.418877 0.530287,1.891835 -0.824095,-0.02866 -1.641024,-0.14332 -2.450787,-0.286641 -0.250811,-2.070987 1.254058,-3.432536 2.450787,-4.880076 0.92442,-1.067741 1.619526,-2.307467 1.891836,-3.704845 l -0.08599,-0.05016 c -2.049488,-1.569363 -4.887242,-0.738102 -7.108715,0.0072 -4.342623,1.490538 -6.900901,5.704172 -8.64225,9.702824 -2.450787,5.582349 -3.303546,11.66632 -5.510688,17.327495 -1.37588,1.719851 -1.977828,3.87683 -2.959576,5.818828 -2.479451,5.152386 -5.310039,10.197281 -8.971887,14.61873 -1.734183,2.278802 -3.833834,4.263797 -5.482024,6.614259 3.038403,-1.318552 5.725669,-3.289214 8.584921,-4.937404 5.474858,-3.210388 10.770564,-6.886569 14.89104,-11.773811 l 0.243645,0.695106 c -0.759601,1.526368 -1.820175,2.945244 -2.070987,4.672261 0.88859,0.444295 1.770013,0.881423 2.665769,1.318552 -0.852759,0.637778 -1.712685,1.26839 -2.57261,1.891836 0.164819,-1.684021 -0.043,-3.346543 -0.852759,-4.844246 -2.551112,2.909414 -5.954983,4.80125 -9.179703,6.850738 -0.99608,0.630612 -1.067741,1.984994 -1.555032,2.95241 -0.859925,0.06449 -1.712684,-0.0215 -2.565443,-0.07166 -0.723771,0.738103 -1.454707,1.469039 -2.207142,2.178477 -2.429289,-0.05016 -4.012985,2.092485 -6.033809,3.110064 -0.58045,0.444294 -1.060575,1.003246 -1.547866,1.547865 -7.875482,6.306119 -16.317082,13.31451 -26.686347,14.532738 l 0.60911,-0.566118 c 15.313839,-5.969315 27.703929,-17.764623 36.718813,-31.279783 4.356955,-6.564096 7.82532,-13.758804 9.881975,-21.376309 1.461873,-5.345869 3.210388,-10.763399 6.470938,-15.313837 z"
             id="path3588" />
          <path
             style="fill:#ffffff"
             inkscape:connector-curvature="0"
             d="m -44.989565,18.105472 c 2.221473,-0.745268 5.059227,-1.576529 7.108715,-0.0072 -2.57261,0.372635 -5.295706,0.128989 -7.674833,1.354383 -3.389539,1.633858 -5.589514,4.973234 -6.979727,8.362773 -1.404545,3.504196 -3.274882,6.929565 -3.790837,10.720402 -0.824095,2.694433 -2.142648,5.216881 -2.77326,7.968642 -0.01433,-0.336804 -0.02866,-1.024745 -0.043,-1.368715 2.207142,-5.661175 3.059901,-11.745146 5.510688,-17.327495 1.741349,-3.998652 4.299627,-8.212286 8.64225,-9.702824 z"
             id="path3590" />
          <path
             style="fill:#acd5ff"
             inkscape:connector-curvature="0"
             d="m -37.88085,18.098306 0.08599,0.05016 c -0.27231,1.397378 -0.967416,2.637104 -1.891836,3.704845 -4.765419,0.824095 -8.126294,4.937404 -12.848717,5.962148 1.390213,-3.389539 3.590188,-6.728915 6.979727,-8.362773 2.379127,-1.225394 5.102223,-0.981748 7.674833,-1.354383 z"
             id="path3592" />
          <path
             style="fill:#80beff"
             inkscape:connector-curvature="0"
             d="m -52.53541,27.815462 c 4.722423,-1.024744 8.083298,-5.138053 12.848717,-5.962148 -1.196729,1.44754 -2.701598,2.809089 -2.450787,4.880076 -1.182397,-0.143321 -2.364794,-0.08599 -3.547192,-0.02867 -0.193483,2.407791 -0.07883,4.844246 -0.487291,7.230539 -3.26055,1.770013 -6.306119,4.356955 -10.154284,4.6006 0.515955,-3.790837 2.386292,-7.216206 3.790837,-10.720402 z"
             id="path3594" />
          <path
             style="fill:#4da1ff"
             inkscape:connector-curvature="0"
             d="m -45.684672,26.704725 c 1.182398,-0.05733 2.364795,-0.114656 3.547192,0.02867 0.809763,0.143321 1.626692,0.257977 2.450787,0.286641 3.640351,0.386967 6.112636,3.883996 6.814908,7.244871 2.078153,8.391438 1.103571,18.051265 -4.500275,24.923502 -5.661175,6.994059 -14.253262,10.734734 -22.716361,13.113861 -6.119801,1.633858 -12.35426,2.873583 -18.667545,3.475531 0.487291,-0.544619 0.967416,-1.103571 1.547866,-1.547865 0.265143,0.14332 0.802597,0.41563 1.06774,0.551785 6.03381,-0.824095 11.981626,-2.19281 17.857783,-3.790837 0.279475,-0.08599 0.831261,-0.257978 1.110736,-0.34397 1.089239,-0.351137 2.171312,-0.730937 3.239052,-1.139402 0.702273,-0.293807 1.411711,-0.594781 2.099651,-0.917253 0.938752,-0.437129 1.863172,-0.881424 2.787592,-1.34005 0.659276,-0.336805 1.311386,-0.695107 1.963496,-1.053409 1.311386,-0.730936 2.622772,-1.483371 3.798003,-2.429289 0.494457,-0.401298 0.988914,-0.816929 1.476205,-1.239726 1.712685,-1.562197 3.49703,-3.124395 4.708091,-5.130887 l 0.200649,-0.315306 c 1.533534,-2.429289 2.995407,-5.001899 3.468366,-7.875483 0.0215,-0.157653 0.07166,-0.480125 0.09316,-0.637778 0.759601,-4.586268 1.017579,-9.409016 -0.257977,-13.93079 -0.043,-0.157653 -0.121823,-0.465792 -0.164819,-0.623445 -0.429963,-2.586942 -2.522448,-4.428616 -4.586269,-5.804496 -2.264469,-0.229314 -4.586268,0.0072 -6.86507,0.07883 1.949164,0.781099 4.048815,0.200649 6.055307,0.537454 0.05733,0.315306 0.171986,0.945917 0.222148,1.261223 -1.727017,-0.186317 -3.489864,-0.65211 -5.21688,-0.236479 -0.100325,0.408464 -0.300974,1.232559 -0.401299,1.64819 -0.508789,3.289214 -0.257977,6.671587 -1.132235,9.910639 -0.544619,2.386293 -1.68402,4.650763 -1.791511,7.130214 -0.043,2.099651 0.523121,4.134808 0.902922,6.184296 1.024744,-0.0215 2.042322,-0.05733 3.067067,-0.100324 -0.931586,1.146567 -1.81301,2.328964 -2.823422,3.403871 -0.910087,-1.877504 -1.619526,-4.18497 -3.654682,-5.14522 -0.365469,1.619526 -0.444295,3.282048 -0.30814,4.937404 0.802597,0.523122 1.598028,1.046243 2.407791,1.562198 -0.953084,0.802597 -1.899002,1.61236 -2.902248,2.357629 -0.487291,-1.9205 -1.146567,-3.798004 -2.049489,-5.568017 l -0.243645,-0.695106 c 1.676854,-2.321798 3.196055,-4.758253 4.392785,-7.359527 -4.887242,3.095731 -9.795983,6.241624 -15.027195,8.713909 1.168065,-3.611686 3.762173,-6.59276 4.614932,-10.326269 0.630612,-2.751761 1.949165,-5.274209 2.77326,-7.968642 3.848165,-0.243645 6.893734,-2.830587 10.154284,-4.6006 0.408465,-2.386293 0.293808,-4.822748 0.487291,-7.230539 z"
             id="path3596" />
          <path
             style="fill:#c8e0f9"
             inkscape:connector-curvature="0"
             d="m -45.211713,28.288421 c 2.278802,-0.07166 4.600601,-0.30814 6.86507,-0.07883 2.063821,1.37588 4.156306,3.217554 4.586269,5.804496 -1.461873,-0.03583 -3.332211,0.358302 -4.321125,-1.031911 -0.472959,-0.902921 -0.644944,-1.913334 -0.852759,-2.895082 -0.05016,-0.315306 -0.164819,-0.945917 -0.222148,-1.261223 -2.006492,-0.336805 -4.106143,0.243645 -6.055307,-0.537454 z"
             id="path3598" />
          <path
             style="fill:#88bef9"
             inkscape:connector-curvature="0"
             d="m -44.151138,29.850619 c 1.727016,-0.415631 3.489863,0.05016 5.21688,0.236479 0.207815,0.981748 0.3798,1.992161 0.852759,2.895082 0.988914,1.390213 2.859252,0.99608 4.321125,1.031911 0.043,0.157653 0.121823,0.465792 0.164819,0.623445 -1.519202,-0.05733 -3.038403,-0.08599 -4.557604,-0.100324 -0.88859,3.353708 2.228639,5.302872 4.679427,6.750413 -1.590862,-0.34397 -3.174558,-0.72377 -4.76542,-1.039076 -0.05016,1.168065 -0.07166,2.328964 -0.06449,3.489864 1.354382,1.899001 3.160225,3.389538 4.966068,4.829913 -0.0215,0.157653 -0.07166,0.480125 -0.09316,0.637778 -1.84884,-1.225393 -3.697679,-2.873583 -6.012311,-2.981074 -1.23256,3.862498 1.68402,7.252037 2.543945,10.856557 l -0.200649,0.315306 c -1.440375,-1.698353 -2.930912,-3.353709 -4.52894,-4.915907 -0.480125,0.523122 -0.945918,1.053409 -1.41171,1.590862 l -0.465793,0.551786 c -1.024745,0.043 -2.042323,0.07883 -3.067067,0.100324 -0.379801,-2.049488 -0.945918,-4.084645 -0.902922,-6.184296 2.257304,0.68794 4.070313,2.199976 5.847492,3.676181 0.186317,-0.781099 0.372635,-1.562198 0.54462,-2.343297 -3.009739,0.157653 -5.7615,-3.210387 -4.098978,-5.997979 2.235806,0.437129 4.349789,1.297054 6.542599,1.906168 -0.515956,-2.178477 -3.102897,-2.078153 -4.600601,-3.253384 -1.246891,-0.587616 -0.859925,-2.171311 -1.117903,-3.267716 2.22864,0.01433 4.414284,0.501623 6.628591,0.72377 -1.225393,-2.400624 -4.493109,-1.519201 -6.198628,-3.325044 -0.164819,-0.709439 -0.286642,-1.433209 -0.365468,-2.164145 1.99216,-0.164819 3.991486,-0.164819 5.983647,-0.23648 -0.265144,-1.633858 -2.035157,-1.003246 -3.18889,-1.26839 -1.189563,-0.02866 -2.121149,-0.859925 -3.052735,-1.490537 0.100325,-0.415631 0.300974,-1.239726 0.401299,-1.64819 z"
             id="path3600" />
          <path
             style="fill:#50a0f8"
             inkscape:connector-curvature="0"
             d="m -45.684672,41.409448 c 0.874258,-3.239052 0.623446,-6.621425 1.132235,-9.910639 0.931586,0.630612 1.863172,1.461873 3.052735,1.490537 1.153733,0.265144 2.923746,-0.365468 3.18889,1.26839 -1.992161,0.07166 -3.991487,0.07166 -5.983647,0.23648 0.07883,0.730936 0.200649,1.454706 0.365468,2.164145 1.705519,1.805843 4.973235,0.92442 6.198628,3.325044 -2.214307,-0.222147 -4.399951,-0.709438 -6.628591,-0.72377 0.257978,1.096405 -0.128988,2.6801 1.117903,3.267716 1.497704,1.175231 4.084645,1.074907 4.600601,3.253384 -2.19281,-0.609114 -4.306793,-1.469039 -6.542599,-1.906168 -1.662522,2.787592 1.089239,6.155632 4.098978,5.997979 -0.171985,0.781099 -0.358303,1.562198 -0.54462,2.343297 -1.777179,-1.476205 -3.590188,-2.988241 -5.847492,-3.676181 0.107491,-2.479451 1.246892,-4.743921 1.791511,-7.130214 z"
             id="path3602" />
          <path
             style="fill:#c5def9"
             inkscape:connector-curvature="0"
             d="m -33.473732,41.287625 c -2.450788,-1.447541 -5.568017,-3.396705 -4.679427,-6.750413 1.519201,0.01433 3.038402,0.043 4.557604,0.100324 1.275556,4.521774 1.017578,9.344522 0.257977,13.93079 -1.805843,-1.440375 -3.611686,-2.930912 -4.966068,-4.829913 -0.0072,-1.1609 0.01433,-2.321799 0.06449,-3.489864 1.590862,0.315306 3.174558,0.695106 4.76542,1.039076 z"
             id="path3604" />
          <path
             style="fill:#6eb4ff"
             inkscape:connector-curvature="0"
             d="m -62.102079,50.954619 c 0.981748,-1.941998 1.583696,-4.098977 2.959576,-5.818828 0.01433,0.34397 0.02866,1.031911 0.043,1.368715 -0.852759,3.733509 -3.446867,6.714583 -4.614932,10.326269 5.231212,-2.472285 10.139953,-5.618178 15.027195,-8.713909 -1.19673,2.601274 -2.715931,5.037729 -4.392785,7.359527 -4.120476,4.887242 -9.416182,8.563423 -14.89104,11.773811 -2.859252,1.64819 -5.546518,3.618852 -8.584921,4.937404 1.64819,-2.350462 3.747841,-4.335457 5.482024,-6.614259 3.661848,-4.421449 6.492436,-9.466344 8.971887,-14.61873 z"
             id="path3606" />
          <path
             style="fill:#c2ddf9"
             inkscape:connector-curvature="0"
             d="m -39.443047,46.22503 c 2.314632,0.107491 4.163471,1.755681 6.012311,2.981074 -0.472959,2.873584 -1.934832,5.446194 -3.468366,7.875483 -0.859925,-3.60452 -3.776505,-6.994059 -2.543945,-10.856557 z"
             id="path3608" />
          <path
             style="fill:#7cb9f9"
             inkscape:connector-curvature="0"
             d="m -49.984298,52.882285 c 2.035156,0.96025 2.744595,3.267716 3.654682,5.14522 -0.114656,0.100324 -0.336804,0.30814 -0.451461,0.41563 l -0.623445,0.537454 -0.480125,0.401298 c -0.809763,-0.515955 -1.605194,-1.039076 -2.407791,-1.562198 -0.136155,-1.655356 -0.05733,-3.317878 0.30814,-4.937404 z"
             id="path3610" />
          <path
             style="fill:#bfdbf9"
             inkscape:connector-curvature="0"
             d="m -43.040401,54.071848 c 0.465792,-0.537453 0.931585,-1.06774 1.41171,-1.590862 1.598028,1.562198 3.088565,3.217554 4.52894,4.915907 -1.211061,2.006492 -2.995406,3.56869 -4.708091,5.130887 -0.09316,-2.859251 -0.609114,-5.675507 -1.232559,-8.455932 z"
             id="path3612" />
          <path
             style="fill:#a4cbf6"
             inkscape:connector-curvature="0"
             d="m -43.506194,54.623634 0.465793,-0.551786 c 0.623445,2.780425 1.139401,5.596681 1.232559,8.455932 -0.487291,0.422797 -0.981748,0.838428 -1.476205,1.239726 -0.988914,-1.88467 -2.135481,-3.690513 -3.49703,-5.324371 0.114657,-0.10749 0.336805,-0.315306 0.451461,-0.41563 1.010412,-1.074907 1.891836,-2.257304 2.823422,-3.403871 z"
             id="path3614" />
          <path
             style="fill:#9bc7f6"
             inkscape:connector-curvature="0"
             d="m -52.836384,56.171499 c 0.902922,1.770013 1.562198,3.647517 2.049489,5.568017 1.003246,-0.745269 1.949164,-1.555032 2.902248,-2.357629 l 0.480125,-0.401298 c -0.143321,2.40779 -0.0072,4.829913 0.322472,7.216206 -0.65211,0.358302 -1.30422,0.716604 -1.963496,1.053409 -0.609114,-1.827342 -1.203896,-3.704845 -2.350463,-5.281375 -0.695106,2.142647 -0.781099,4.414283 -0.437129,6.621425 -0.68794,0.322472 -1.397378,0.623446 -2.099651,0.917253 -0.207815,-1.698352 -0.501623,-3.389538 -1.225393,-4.951736 -1.440375,1.705518 -1.88467,3.919826 -2.013659,6.091138 -0.279475,0.08599 -0.831261,0.257977 -1.110736,0.34397 -0.150487,-1.476205 -0.343971,-2.938078 -0.601948,-4.392785 -2.407791,1.082072 -4.901574,1.970662 -7.517181,2.414956 0.487291,-0.967416 0.558952,-2.321798 1.555032,-2.95241 3.22472,-2.049488 6.628591,-3.941324 9.179703,-6.850738 0.809763,1.497703 1.017578,3.160225 0.852759,4.844246 0.859925,-0.623446 1.719851,-1.254058 2.57261,-1.891836 -0.895756,-0.437129 -1.777179,-0.874257 -2.665769,-1.318552 0.250812,-1.727017 1.311386,-3.145893 2.070987,-4.672261 z"
             id="path3616" />
          <path
             style="fill:#bddaf9"
             inkscape:connector-curvature="0"
             d="m -46.781077,58.443135 c 1.361549,1.633858 2.508116,3.439701 3.49703,5.324371 -1.175231,0.945918 -2.486617,1.698353 -3.798003,2.429289 -0.329638,-2.386293 -0.465793,-4.808416 -0.322472,-7.216206 l 0.623445,-0.537454 z"
             id="path3618" />
          <path
             style="fill:#bfdbf9"
             inkscape:connector-curvature="0"
             d="m -51.396009,61.968829 c 1.146567,1.57653 1.741349,3.454033 2.350463,5.281375 -0.92442,0.458626 -1.84884,0.902921 -2.787592,1.34005 -0.34397,-2.207142 -0.257977,-4.478778 0.437129,-6.621425 z"
             id="path3620" />
          <path
             style="fill:#5ca5f6"
             inkscape:connector-curvature="0"
             d="m -58.920355,63.14406 c 1.454707,-0.358302 2.486617,0.01433 3.095731,1.125069 -1.139401,0.788265 -2.336131,2.178478 -3.898328,1.605194 0.257977,-0.917254 0.523121,-1.827341 0.802597,-2.730263 z"
             id="path3622" />
          <path
             style="fill:#c1dcf8"
             inkscape:connector-curvature="0"
             d="m -57.171841,70.646909 c 0.128989,-2.171312 0.573284,-4.38562 2.013659,-6.091138 0.72377,1.562198 1.017578,3.253384 1.225393,4.951736 -1.06774,0.408465 -2.149813,0.788265 -3.239052,1.139402 z"
             id="path3624" />
          <path
             style="fill:#56a2f6"
             inkscape:connector-curvature="0"
             d="m -62.711193,65.759666 c 1.103571,-1.074906 2.50095,0.759601 0.931586,1.311386 -1.125069,1.060575 -2.357629,-0.630611 -0.931586,-1.311386 z"
             id="path3626" />
          <path
             style="fill:#c6dff8"
             inkscape:connector-curvature="0"
             d="m -66.401706,69.01305 c 2.615607,-0.444294 5.10939,-1.332884 7.517181,-2.414956 0.257977,1.454707 0.451461,2.91658 0.601948,4.392785 -5.876157,1.598027 -11.823973,2.966742 -17.857783,3.790837 -0.265143,-0.136155 -0.802597,-0.408465 -1.06774,-0.551785 2.020824,-1.017579 3.60452,-3.160226 6.033809,-3.110064 0.752435,-0.709438 1.483371,-1.440374 2.207142,-2.178477 0.852759,0.05016 1.705518,0.136155 2.565443,0.07166 z"
             id="path3628" />
        </g>
      </g>
    </g>
  </g>
</svg>
