<?xml version="1.0" encoding="UTF-8" standalone="no"?>
<!-- Created with Inkscape (http://www.inkscape.org/) -->

<svg
   xmlns:dc="http://purl.org/dc/elements/1.1/"
   xmlns:cc="http://creativecommons.org/ns#"
   xmlns:rdf="http://www.w3.org/1999/02/22-rdf-syntax-ns#"
   xmlns:svg="http://www.w3.org/2000/svg"
   xmlns="http://www.w3.org/2000/svg"
   xmlns:sodipodi="http://sodipodi.sourceforge.net/DTD/sodipodi-0.dtd"
   xmlns:inkscape="http://www.inkscape.org/namespaces/inkscape"
   width="96"
   height="96"
   id="svg2"
   version="1.1"
   inkscape:version="0.48.4 r9939"
   sodipodi:docname="shares.svg">
  <defs
     id="defs4" />
  <sodipodi:namedview
     id="base"
     pagecolor="#ffffff"
     bordercolor="#666666"
     borderopacity="1.0"
     inkscape:pageopacity="0.0"
     inkscape:pageshadow="2"
     inkscape:zoom="3.5448954"
     inkscape:cx="-8.570093"
     inkscape:cy="53.079365"
     inkscape:document-units="px"
     inkscape:current-layer="layer1"
     showgrid="true"
     inkscape:snap-page="true"
     inkscape:snap-global="true"
     inkscape:snap-center="true"
     inkscape:snap-object-midpoints="false"
     showguides="true"
     inkscape:guide-bbox="true"
     inkscape:snap-bbox="true"
     inkscape:object-paths="true"
     inkscape:object-nodes="true"
     inkscape:window-width="1305"
     inkscape:window-height="744"
     inkscape:window-x="61"
     inkscape:window-y="24"
     inkscape:window-maximized="1"
     inkscape:snap-midpoints="false"
     inkscape:snap-grids="true"
     inkscape:snap-to-guides="false">
    <inkscape:grid
       type="xygrid"
       id="grid3002"
       empspacing="5"
       visible="true"
       enabled="true"
       snapvisiblegridlinesonly="true" />
  </sodipodi:namedview>
  <metadata
     id="metadata7">
    <rdf:RDF>
      <cc:Work
         rdf:about="">
        <dc:format>image/svg+xml</dc:format>
        <dc:type
           rdf:resource="http://purl.org/dc/dcmitype/StillImage" />
        <dc:title />
      </cc:Work>
    </rdf:RDF>
  </metadata>
  <g
     inkscape:label="Layer 1"
     inkscape:groupmode="layer"
     id="layer1"
     transform="translate(0,-956.36218)">
    <rect
       style="fill:#ffffff;fill-opacity:0;fill-rule:nonzero;stroke:none"
       id="rect3775"
       width="96"
       height="96"
       x="0"
       y="956.36218"
       ry="0" />
    <path
       style="fill:#000000;fill-opacity:0.09589041;fill-rule:nonzero;stroke:none"
       d="m 3.353015,956.30662 c -1.884176,0 -3.4111555,1.43156 -3.4111555,3.19799 l 0,83.65949 c 0,1.7665 1.5269795,3.1981 3.4111555,3.1981 l 89.23583,0 c 1.884174,0 3.411155,-1.4316 3.411155,-3.1981 l 0,-83.65949 c 0,-1.76643 -1.526981,-3.19799 -3.411155,-3.19799 z"
       id="rect3772"
       inkscape:connector-curvature="0"
       sodipodi:nodetypes="sssssssss" />
    <path
       style="fill:#000000;fill-opacity:0.18721463;fill-rule:nonzero;stroke:none"
       d="m 1.0459761,1041.8066 0,7.4219 c 0,1.7392 1.461916,3.1337 3.2852054,3.1337 l 86.3836135,0 c 1.823288,0 3.285205,-1.3945 3.285205,-3.1337 l 0,-7.4219 -92.9540239,0 z"
       id="rect3785"
       inkscape:connector-curvature="0" />
    <path
       style="fill:#000000;fill-opacity:0.38356168;fill-rule:nonzero;stroke:none"
       d="m 1.0459761,1041.8066 0,5.3807 c 0,1.762 1.461916,3.1749 3.2852054,3.1749 l 86.3836135,0 c 1.823288,0 3.285205,-1.4129 3.285205,-3.1749 l 0,-5.3807 -92.9540239,0 z"
       id="rect3783"
       inkscape:connector-curvature="0" />
    <rect
       style="fill:#434343;fill-opacity:1;fill-rule:nonzero;stroke:none"
       id="rect2985"
       width="92.954025"
       height="89"
       x="1.045977"
       y="957.36218"
       ry="3.1511393" />
    <path
       style="fill:#000000;fill-opacity:0.38356168;fill-rule:nonzero;stroke:none"
       d="m 1,1042.3622 0.045976,2.7457 c 0.03024,1.8058 1.461916,3.2543 3.2852054,3.2543 l 86.3836136,0 c 1.823288,0 3.285205,-1.4481 3.285205,-3.2543 l -0.04598,-2.7457 z"
       id="rect3781"
       inkscape:connector-curvature="0"
       sodipodi:nodetypes="csssscc" />
    <rect
       style="fill:#ffffff;fill-opacity:0.30000001;fill-rule:nonzero;stroke:none"
       id="rect3770"
       width="92.954033"
       height="2.000005"
       x="1.045976"
       y="1040.3622" />
    <path
       style="fill:#ff8a00;fill-opacity:1;fill-rule:nonzero;stroke:none"
       d="m 47.507936,962.36218 c -19.329966,0 -35,15.67003 -35,35 0,19.32992 15.670034,35.00002 35,35.00002 19.329966,0 35,-15.6701 35,-35.00002 0,-19.32997 -15.670034,-35 -35,-35 z m 0,5 c 16.568542,0 30,13.43146 30,30 0,16.56852 -13.431458,30.00002 -30,30.00002 -16.568542,0 -30,-13.4315 -30,-30.00002 0,-16.56854 13.431458,-30 30,-30 z"
       id="path3797"
       inkscape:connector-curvature="0" />
    <path
       style="fill:#ff8a00;fill-opacity:1;fill-rule:nonzero;stroke:none"
       d="m 47.5,980.64343 c -5.472638,0 -10.321842,2.65268 -13.375,6.71875 l -10.25,0 c -0.674692,1.5902 -1.187511,3.26467 -1.53125,5 l 9.1875,0 2.5625,0 2.3125,0 c 1.91098,-4.23997 6.141136,-7.1875 11.09375,-7.1875 4.953737,0 9.214653,2.94598 11.125,7.1875 l 4.84375,0 C 61.343776,985.57288 54.98985,980.64343 47.5,980.64343 z m 0,9.53125 c -3.971681,0 -7.1875,3.21582 -7.1875,7.1875 0,3.97172 3.215819,7.18752 7.1875,7.18752 3.971681,0 7.1875,-3.2158 7.1875,-7.18752 0,-3.97168 -3.215819,-7.1875 -7.1875,-7.1875 z m -15.96875,12.18752 c 2.124974,6.7893 8.4789,11.7187 15.96875,11.7187 5.472638,0 10.321842,-2.6526 13.375,-6.7187 l 10.25,0 c 0.674606,-1.59 1.18751,-3.2649 1.53125,-5 l -9.1875,0 -2.5625,0 -2.28125,0 c -1.910347,4.2415 -6.171263,7.1875 -11.125,7.1875 -4.952614,0 -9.18277,-2.9475 -11.09375,-7.1875 z"
       id="path3809"
       inkscape:connector-curvature="0"
       sodipodi:nodetypes="sccccccsccsssssscsccccccscc" />
  </g>
</svg>
