<?xml version="1.0" encoding="UTF-8" standalone="no"?>
<!-- Created with Inkscape (http://www.inkscape.org/) -->

<svg
   xmlns:dc="http://purl.org/dc/elements/1.1/"
   xmlns:cc="http://creativecommons.org/ns#"
   xmlns:rdf="http://www.w3.org/1999/02/22-rdf-syntax-ns#"
   xmlns:svg="http://www.w3.org/2000/svg"
   xmlns="http://www.w3.org/2000/svg"
   xmlns:xlink="http://www.w3.org/1999/xlink"
   xmlns:sodipodi="http://sodipodi.sourceforge.net/DTD/sodipodi-0.dtd"
   xmlns:inkscape="http://www.inkscape.org/namespaces/inkscape"
   width="96"
   height="96"
   id="svg2"
   version="1.1"
   inkscape:version="0.48.4 r9939"
   sodipodi:docname="smc.svg">
  <defs
     id="defs4">
    <linearGradient
       id="linearGradient3772">
      <stop
         style="stop-color:#006ab0;stop-opacity:1;"
         offset="0"
         id="stop3774" />
      <stop
         style="stop-color:#3db0fd;stop-opacity:1;"
         offset="1"
         id="stop3776" />
    </linearGradient>
    <linearGradient
       inkscape:collect="always"
       xlink:href="#linearGradient3772"
       id="linearGradient3779"
       x1="45"
       y1="1047.3622"
       x2="45"
       y2="957.36218"
       gradientUnits="userSpaceOnUse" />
  </defs>
  <sodipodi:namedview
     id="base"
     pagecolor="#ffffff"
     bordercolor="#666666"
     borderopacity="1.0"
     inkscape:pageopacity="0.0"
     inkscape:pageshadow="2"
     inkscape:zoom="2.953125"
     inkscape:cx="-27.533894"
     inkscape:cy="48"
     inkscape:document-units="px"
     inkscape:current-layer="layer1"
     showgrid="true"
     inkscape:snap-page="true"
     inkscape:snap-global="true"
     inkscape:snap-center="true"
     inkscape:snap-object-midpoints="false"
     showguides="true"
     inkscape:guide-bbox="true"
     inkscape:snap-bbox="true"
     inkscape:object-paths="true"
     inkscape:object-nodes="true"
     inkscape:window-width="1305"
     inkscape:window-height="744"
     inkscape:window-x="61"
     inkscape:window-y="24"
     inkscape:window-maximized="1"
     inkscape:snap-midpoints="true"
     inkscape:snap-grids="true"
     inkscape:snap-to-guides="false">
    <inkscape:grid
       type="xygrid"
       id="grid3002"
       empspacing="5"
       visible="true"
       enabled="true"
       snapvisiblegridlinesonly="true" />
  </sodipodi:namedview>
  <metadata
     id="metadata7">
    <rdf:RDF>
      <cc:Work
         rdf:about="">
        <dc:format>image/svg+xml</dc:format>
        <dc:type
           rdf:resource="http://purl.org/dc/dcmitype/StillImage" />
        <dc:title />
      </cc:Work>
    </rdf:RDF>
  </metadata>
  <g
     inkscape:label="Layer 1"
     inkscape:groupmode="layer"
     id="layer1"
     transform="translate(0,-956.36218)">
    <rect
       style="fill:#ffffff;fill-opacity:0;fill-rule:nonzero;stroke:none"
       id="rect3775"
       width="96"
       height="96"
       x="0"
       y="956.36218"
       ry="0" />
    <path
       style="fill:#000000;fill-opacity:0.09589041;fill-rule:nonzero;stroke:none"
       d="m 3.353015,956.30662 c -1.884176,0 -3.4111555,1.43156 -3.4111555,3.19799 l 0,83.65949 c 0,1.7665 1.5269795,3.1981 3.4111555,3.1981 l 89.23583,0 c 1.884174,0 3.411155,-1.4316 3.411155,-3.1981 l 0,-83.65949 c 0,-1.76643 -1.526981,-3.19799 -3.411155,-3.19799 z"
       id="rect3772"
       inkscape:connector-curvature="0"
       sodipodi:nodetypes="sssssssss" />
    <path
       style="fill:#000000;fill-opacity:0.18721463;fill-rule:nonzero;stroke:none"
       d="m 1.0459761,1041.8066 0,7.4219 c 0,1.7392 1.461916,3.1337 3.2852054,3.1337 l 86.3836135,0 c 1.823288,0 3.285205,-1.3945 3.285205,-3.1337 l 0,-7.4219 -92.9540239,0 z"
       id="rect3785"
       inkscape:connector-curvature="0" />
    <path
       style="fill:#000000;fill-opacity:0.38356168;fill-rule:nonzero;stroke:none"
       d="m 1.0459761,1041.8066 0,5.3807 c 0,1.762 1.461916,3.1749 3.2852054,3.1749 l 86.3836135,0 c 1.823288,0 3.285205,-1.4129 3.285205,-3.1749 l 0,-5.3807 -92.9540239,0 z"
       id="rect3783"
       inkscape:connector-curvature="0" />
    <rect
       style="fill:url(#linearGradient3779);fill-opacity:1;fill-rule:nonzero;stroke:none"
       id="rect2985"
       width="92.954025"
       height="89"
       x="1.045977"
       y="957.36218"
       ry="3.1511393" />
    <path
       style="fill:#000000;fill-opacity:0.38356168;fill-rule:nonzero;stroke:none"
       d="m 1,1042.3622 0.045976,2.7457 c 0.03024,1.8058 1.461916,3.2543 3.2852054,3.2543 l 86.3836136,0 c 1.823288,0 3.285205,-1.4481 3.285205,-3.2543 l -0.04598,-2.7457 z"
       id="rect3781"
       inkscape:connector-curvature="0"
       sodipodi:nodetypes="csssscc" />
    <rect
       style="fill:#ffffff;fill-opacity:0.30000001;fill-rule:nonzero;stroke:none"
       id="rect3770"
       width="92.954033"
       height="2.000005"
       x="1.045976"
       y="1040.3622" />
    <g
       id="g3020"
       transform="translate(84.506535,-5.6156623)">
      <rect
         ry="17.946209"
         rx="18.256355"
         y="973.35077"
         x="-68.183067"
         height="54.662544"
         width="62.366138"
         id="rect3964"
         style="fill:none;stroke:#ffffff;stroke-width:4.66015148;stroke-linecap:round;stroke-linejoin:round;stroke-miterlimit:4;stroke-opacity:1;stroke-dasharray:none" />
      <path
         transform="matrix(1.2196608,0,0,1.3943983,-434.64692,711.10331)"
         d="m 334.66428,205.42909 c 0,5.68202 -5.21526,10.28821 -11.64862,10.28821 -6.43336,0 -11.64863,-4.60619 -11.64863,-10.28821 0,-5.68202 5.21527,-10.2882 11.64863,-10.2882 6.43336,0 11.64862,4.60618 11.64862,10.2882 z"
         sodipodi:ry="10.288206"
         sodipodi:rx="11.648629"
         sodipodi:cy="205.42909"
         sodipodi:cx="323.01566"
         id="path3966"
         style="fill:#ffffff;fill-opacity:1;stroke:none"
         sodipodi:type="arc" />
      <rect
         style="fill:#0099ff;fill-opacity:1;stroke:#ffffff;stroke-width:4.66015148;stroke-linecap:round;stroke-linejoin:round;stroke-miterlimit:4;stroke-opacity:1;stroke-dasharray:none"
         id="rect3968"
         width="43.937943"
         height="20.583721"
         x="-58.968967"
         y="1014.7899"
         rx="7.0072322"
         ry="6.3867421" />
      <g
         style="fill:#ffffff;stroke:#ffffff;stroke-opacity:1"
         transform="matrix(1.1491673,0,0,1.1811276,-554.98254,984.20435)"
         id="g3970">
        <rect
           style="fill:#ffffff;fill-opacity:1;stroke:#ffffff;stroke-opacity:1"
           id="rect3972"
           width="4.4412408"
           height="11.843308"
           x="454.06683"
           y="24.644066"
           rx="2"
           ry="2" />
        <rect
           ry="2"
           rx="2"
           y="24.644066"
           x="442.98386"
           height="11.843308"
           width="4.4412408"
           id="rect3974"
           style="fill:#ffffff;fill-opacity:1;stroke:#ffffff;stroke-opacity:1" />
      </g>
      <path
         sodipodi:type="arc"
         style="fill:#ffffff;fill-opacity:1;stroke:none"
         id="path3976"
         sodipodi:cx="323.01566"
         sodipodi:cy="205.42909"
         sodipodi:rx="11.648629"
         sodipodi:ry="10.288206"
         d="m 334.66428,205.42909 c 0,5.68202 -5.21526,10.28821 -11.64862,10.28821 -6.43336,0 -11.64863,-4.60619 -11.64863,-10.28821 0,-5.68202 5.21527,-10.2882 11.64863,-10.2882 6.43336,0 11.64862,4.60618 11.64862,10.2882 z"
         transform="matrix(-0.04285616,-0.67253546,0.8900748,0.43936466,-186.34681,1111.8067)" />
      <path
         transform="matrix(0.66004007,-0.17752407,0.33066717,0.7118897,-297.98908,916.66753)"
         d="m 334.66428,205.42909 c 0,5.68202 -5.21526,10.28821 -11.64862,10.28821 -6.43336,0 -11.64863,-4.60619 -11.64863,-10.28821 0,-5.68202 5.21527,-10.2882 11.64863,-10.2882 6.43336,0 11.64862,4.60618 11.64862,10.2882 z"
         sodipodi:ry="10.288206"
         sodipodi:rx="11.648629"
         sodipodi:cy="205.42909"
         sodipodi:cx="323.01566"
         id="path3978"
         style="fill:#ffffff;fill-opacity:1;stroke:none"
         sodipodi:type="arc" />
      <path
         sodipodi:type="arc"
         style="fill:#ffffff;fill-opacity:1;stroke:none"
         id="path3980"
         sodipodi:cx="323.01566"
         sodipodi:cy="205.42909"
         sodipodi:rx="11.648629"
         sodipodi:ry="10.288206"
         d="m 334.66428,205.42909 c 0,5.68202 -5.21526,10.28821 -11.64862,10.28821 -6.43336,0 -11.64863,-4.60619 -11.64863,-10.28821 0,-5.68202 5.21527,-10.2882 11.64863,-10.2882 6.43336,0 11.64862,4.60618 11.64862,10.2882 z"
         transform="matrix(0.50377857,-0.60214354,0.38186428,0.15928648,-299.72518,1144.7304)" />
      <path
         transform="matrix(-0.09539509,-0.62466797,0.42901718,-0.1437243,-118.86515,1237.0934)"
         d="m 334.66428,205.42909 c 0,5.68202 -5.21526,10.28821 -11.64862,10.28821 -6.43336,0 -11.64863,-4.60619 -11.64863,-10.28821 0,-5.68202 5.21527,-10.2882 11.64863,-10.2882 6.43336,0 11.64862,4.60618 11.64862,10.2882 z"
         sodipodi:ry="10.288206"
         sodipodi:rx="11.648629"
         sodipodi:cy="205.42909"
         sodipodi:cx="323.01566"
         id="path3982"
         style="fill:#ffffff;fill-opacity:1;stroke:none"
         sodipodi:type="arc" />
    </g>
  </g>
</svg>
