<?xml version="1.0" encoding="UTF-8" standalone="no"?>
<!-- Created with Inkscape (http://www.inkscape.org/) -->

<svg
   xmlns:dc="http://purl.org/dc/elements/1.1/"
   xmlns:cc="http://creativecommons.org/ns#"
   xmlns:rdf="http://www.w3.org/1999/02/22-rdf-syntax-ns#"
   xmlns:svg="http://www.w3.org/2000/svg"
   xmlns="http://www.w3.org/2000/svg"
   xmlns:xlink="http://www.w3.org/1999/xlink"
   xmlns:sodipodi="http://sodipodi.sourceforge.net/DTD/sodipodi-0.dtd"
   xmlns:inkscape="http://www.inkscape.org/namespaces/inkscape"
   width="96"
   height="96"
   id="svg2"
   version="1.1"
   inkscape:version="0.48.4 r9939"
   sodipodi:docname="softwarecenter.svg">
  <defs
     id="defs4">
    <linearGradient
       id="linearGradient3784">
      <stop
         style="stop-color:#ff5500;stop-opacity:1;"
         offset="0"
         id="stop3786" />
      <stop
         style="stop-color:#ff0021;stop-opacity:1;"
         offset="1"
         id="stop3788" />
    </linearGradient>
    <linearGradient
       id="linearGradient3772">
      <stop
         style="stop-color:#ffffff;stop-opacity:0.74485594;"
         offset="0"
         id="stop3774" />
      <stop
         style="stop-color:#ffffff;stop-opacity:0;"
         offset="1"
         id="stop3776" />
    </linearGradient>
    <linearGradient
       inkscape:collect="always"
       id="linearGradient5429">
      <stop
         style="stop-color:#000000;stop-opacity:1;"
         offset="0"
         id="stop5431" />
      <stop
         style="stop-color:#000000;stop-opacity:0;"
         offset="1"
         id="stop5433" />
    </linearGradient>
    <linearGradient
       inkscape:collect="always"
       xlink:href="#linearGradient5429"
       id="linearGradient5435"
       x1="45"
       y1="21"
       x2="45"
       y2="-4"
       gradientUnits="userSpaceOnUse" />
    <linearGradient
       inkscape:collect="always"
       xlink:href="#linearGradient3772"
       id="linearGradient3778"
       x1="15"
       y1="41"
       x2="15"
       y2="111"
       gradientUnits="userSpaceOnUse" />
    <linearGradient
       inkscape:collect="always"
       xlink:href="#linearGradient3784"
       id="linearGradient3790"
       x1="25"
       y1="-987.36218"
       x2="95"
       y2="-1047.3622"
       gradientUnits="userSpaceOnUse" />
  </defs>
  <sodipodi:namedview
     id="base"
     pagecolor="#ffffff"
     bordercolor="#666666"
     borderopacity="1.0"
     inkscape:pageopacity="0.0"
     inkscape:pageshadow="2"
     inkscape:zoom="4.7139443"
     inkscape:cx="29.285419"
     inkscape:cy="57.340295"
     inkscape:document-units="px"
     inkscape:current-layer="layer1"
     showgrid="true"
     inkscape:snap-page="true"
     inkscape:snap-global="true"
     inkscape:snap-center="true"
     inkscape:snap-object-midpoints="false"
     showguides="true"
     inkscape:guide-bbox="true"
     inkscape:snap-bbox="true"
     inkscape:object-paths="true"
     inkscape:object-nodes="true"
     inkscape:window-width="1305"
     inkscape:window-height="744"
     inkscape:window-x="61"
     inkscape:window-y="24"
     inkscape:window-maximized="1"
     inkscape:snap-midpoints="false"
     inkscape:snap-grids="true"
     inkscape:snap-to-guides="false">
    <inkscape:grid
       type="xygrid"
       id="grid3002"
       empspacing="5"
       visible="true"
       enabled="true"
       snapvisiblegridlinesonly="true" />
  </sodipodi:namedview>
  <metadata
     id="metadata7">
    <rdf:RDF>
      <cc:Work
         rdf:about="">
        <dc:format>image/svg+xml</dc:format>
        <dc:type
           rdf:resource="http://purl.org/dc/dcmitype/StillImage" />
        <dc:title />
      </cc:Work>
    </rdf:RDF>
  </metadata>
  <g
     inkscape:label="Layer 1"
     inkscape:groupmode="layer"
     id="layer1"
     transform="translate(0,-956.36218)">
    <path
       style="fill:#000000;fill-opacity:0.38356168;fill-rule:nonzero;stroke:none"
       d="m 1.0459761,1041.8066 0,5.3807 c 0,1.762 1.461916,3.1749 3.2852054,3.1749 l 86.3836135,0 c 1.823288,0 3.285205,-1.4129 3.285205,-3.1749 l 0,-5.3807 -92.9540239,0 z"
       id="rect3783"
       inkscape:connector-curvature="0" />
    <rect
       style="fill:#ffffff;fill-opacity:0;fill-rule:nonzero;stroke:none"
       id="rect3775"
       width="96"
       height="96"
       x="0"
       y="956.36218"
       ry="0" />
    <path
       style="fill:#000000;fill-opacity:0.09589041;fill-rule:nonzero;stroke:none"
       d="m 3.353015,956.30662 c -1.884176,0 -3.4111555,1.43156 -3.4111555,3.19799 l 0,83.65949 c 0,1.7665 1.5269795,3.1981 3.4111555,3.1981 l 89.23583,0 c 1.884174,0 3.411155,-1.4316 3.411155,-3.1981 l 0,-83.65949 c 0,-1.76643 -1.526981,-3.19799 -3.411155,-3.19799 z"
       id="rect3772"
       inkscape:connector-curvature="0"
       sodipodi:nodetypes="sssssssss" />
    <path
       style="fill:#000000;fill-opacity:0.18721463;fill-rule:nonzero;stroke:none"
       d="m 1.0459761,1041.8066 0,7.4219 c 0,1.7392 1.461916,3.1337 3.2852054,3.1337 l 86.3836135,0 c 1.823288,0 3.285205,-1.3945 3.285205,-3.1337 l 0,-7.4219 -92.9540239,0 z"
       id="rect3785"
       inkscape:connector-curvature="0" />
    <rect
       style="fill:url(#linearGradient3790);fill-opacity:1;fill-rule:nonzero;stroke:none"
       id="rect2985"
       width="92.954025"
       height="89"
       x="1.0459766"
       y="-1046.3622"
       ry="3.1511393"
       transform="scale(1,-1)" />
    <path
       style="fill:url(#linearGradient5435);fill-opacity:1;fill-rule:nonzero;stroke:none"
       d="M 94 4.15625 C 94 3.2833844 93.663318 2.4758184 93.09375 1.90625 C 92.524182 1.3366816 91.716616 1 90.84375 1 L 4.1875 1 C 3.3146344 1 2.5383184 1.3366816 1.96875 1.90625 C 1.3991816 2.4758184 1.03125 3.2833844 1.03125 4.15625 L 1.03125 7.90625 C 1.03125 9.6519811 2.4417689 11.03125 4.1875 11.03125 L 90.84375 11.03125 C 92.589481 11.03125 94 9.6519811 94 7.90625 L 94 4.15625 z "
       id="path5312"
       transform="translate(0,956.36218)" />
    <path
       style="fill:url(#linearGradient3778);fill-opacity:1;fill-rule:evenodd;stroke:none;opacity:0.48559671"
       d="M 1.03125 46 L 1.03125 86.84375 C 1.03125 87.716616 1.3991816 88.524182 1.96875 89.09375 C 2.5383184 89.663318 3.3146344 90 4.1875 90 L 90.84375 90 C 91.716616 90 92.524182 89.663318 93.09375 89.09375 C 93.663318 88.524182 94 87.716616 94 86.84375 L 94 46 L 1.03125 46 z "
       id="rect5319"
       transform="translate(0,956.36218)" />
    <path
       style="fill:#ffffff;fill-opacity:1"
       d="m 79.729156,1012.3622 c -10.125376,0 -18.333347,8.208 -18.333347,18.3333 0,6.6733 3.606601,12.4604 8.937506,15.6667 l 18.812515,0 c 1.866185,-1.1245 3.4988,-2.5777 4.85417,-4.2709 l 0,-22.7917 c -3.359169,-4.1972 -8.476673,-6.9374 -14.270844,-6.9374 z m 6.187505,5.0833 c 0.432837,-0.01 0.868387,0.1011 1.270834,0.3333 1.170852,0.6764 1.572023,2.1835 0.895834,3.3542 -0.675436,1.1707 -2.162589,1.5719 -3.333336,0.8959 -1.169993,-0.6755 -1.57116,-2.1841 -0.895834,-3.3543 0.443891,-0.7683 1.23618,-1.2103 2.062502,-1.2291 z m -6.187505,2.625 c 0.984263,0 1.949564,0.1254 2.854169,0.375 0.159536,0.9836 0.735872,1.9003 1.666668,2.4375 0.929183,0.5356 2.006812,0.5807 2.937502,0.2292 1.809854,1.7799 2.99506,4.1995 3.166669,6.8958 l -3.500003,0.063 c -0.321657,-3.6522 -3.389958,-6.5208 -7.125005,-6.5208 -1.075998,0 -2.085051,0.2409 -3.000002,0.6666 l -1.708335,-3.0416 c 1.420397,-0.7031 3.016299,-1.1042 4.708337,-1.1042 z m -5.895838,1.7708 1.791668,3 c -1.838418,1.294 -3.041669,3.4352 -3.041669,5.8542 0,2.419 1.203251,4.5608 3.041669,5.8542 l -1.791668,3 c -2.142399,-1.4315 -3.734521,-3.6249 -4.395837,-6.1876 0.772666,-0.6304 1.270835,-1.5914 1.270835,-2.6666 0,-1.0758 -0.498169,-2.0362 -1.270835,-2.6667 0.662175,-2.5619 2.254302,-4.756 4.395837,-6.1875 z m -6.562505,6.4167 c 1.351733,0 2.458335,1.0851 2.458335,2.4375 0,1.3518 -1.106602,2.4583 -2.458335,2.4583 -1.352486,0 -2.458335,-1.1065 -2.458335,-2.4583 0,-1.3524 1.105849,-2.4375 2.458335,-2.4375 z m 19.583348,3.0625 3.500003,0.063 c -0.171609,2.6962 -1.356815,5.1158 -3.166669,6.8957 -0.93069,-0.3516 -2.007673,-0.3072 -2.937502,0.2292 -0.93058,0.5381 -1.507132,1.4539 -1.666668,2.4376 -0.904496,0.2503 -1.869906,0.3958 -2.854169,0.3958 -1.692144,0 -3.28794,-0.4004 -4.708337,-1.1042 l 1.708335,-3.0625 c 0.914845,0.4256 1.924004,0.6667 3.000002,0.6667 3.735157,0 6.804105,-2.8678 7.125005,-6.5209 z m -0.958334,7.7292 c 0.867742,-0.022 1.723139,0.4248 2.187502,1.2291 0.676189,1.1709 0.274803,2.658 -0.895834,3.3334 -1.170746,0.6762 -2.6579,0.2749 -3.333336,-0.8959 -0.676296,-1.17 -0.274913,-2.6571 0.895834,-3.3333 0.36559,-0.2111 0.751404,-0.3232 1.145834,-0.3333 z"
       id="path3"
       inkscape:connector-curvature="0" />
    <path
       style="font-size:medium;font-style:normal;font-variant:normal;font-weight:normal;font-stretch:normal;text-indent:0;text-align:start;text-decoration:none;line-height:normal;letter-spacing:normal;word-spacing:normal;text-transform:none;direction:ltr;block-progression:tb;writing-mode:lr-tb;text-anchor:start;baseline-shift:baseline;color:#000000;fill:#000000;fill-opacity:0.26027396;stroke:none;stroke-width:4.50000000000000000;marker:none;visibility:visible;display:inline;overflow:visible;enable-background:accumulate;font-family:Sans;-inkscape-font-specification:Sans"
       d="M 29.71875,975.09375 A 2.250225,2.250225 0 0 0 27.9375,978.25 c 4.413607,10.16155 3.902887,19.04016 5.09375,25.5312 0.595431,3.2456 1.88892,6.354 4.9375,7.75 3.04858,1.3961 6.901685,1.034 12.5625,-0.5624 6.482894,-1.8283 10.662927,-4.0095 13.3125,-6.75 2.649573,-2.7406 3.526056,-6.05763 3.5625,-9.12505 0.07289,-6.13483 -2.212762,-11.71321 -0.28125,-16.96875 a 2.2587179,2.2587179 0 1 0 -4.25,-1.53125 c -2.627958,7.15054 0.08724,13.75651 0.03125,18.46875 -0.02799,2.35612 -0.497154,4.15359 -2.3125,6.0313 -1.815346,1.8776 -5.226658,3.8237 -11.28125,5.5312 -5.258884,1.4831 -8.180428,1.4025 -9.46875,0.8125 -1.288322,-0.59 -1.876287,-1.7504 -2.375,-4.4687 -0.997427,-5.43677 -0.562355,-15.34783 -5.40625,-26.50005 a 2.250225,2.250225 0 0 0 -2.34375,-1.375 z"
       id="path5414"
       inkscape:connector-curvature="0" />
    <path
       style="fill:#ffffff;fill-opacity:0.54794521;fill-rule:nonzero;stroke:none"
       d="m 1,964.36218 0,2 c 0,1.74573 1.4105189,3.125 3.15625,3.125 l 86.6875,0 c 1.745731,0 3.15625,-1.37927 3.15625,-3.125 l 0,-2 c 0,1.74573 -1.410519,3.125 -3.15625,3.125 l -86.6875,0 C 2.4105189,967.48718 1,966.10791 1,964.36218 z"
       id="path5314"
       inkscape:connector-curvature="0"
       sodipodi:nodetypes="csssscssc" />
    <path
       style="fill:#000000;fill-opacity:0.61643833;fill-rule:nonzero;stroke:none"
       d="M 91 1 L 91 11 C 92.669109 10.916667 94 9.5968869 94 7.90625 L 94 4.15625 C 94 3.2833844 93.663318 2.4758184 93.09375 1.90625 C 92.559428 1.3719272 91.81065 1.0387172 91 1 z M 4 1.03125 C 3.2070896 1.0777008 2.4953188 1.3796812 1.96875 1.90625 C 1.3991816 2.4758184 1.03125 3.2833844 1.03125 4.15625 L 1.03125 7.90625 C 1.03125 9.5860841 2.3459919 10.901191 4 11 L 4 1.03125 z "
       transform="translate(0,956.36218)"
       id="path5331" />
    <path
       style="fill:#fff0b6;fill-opacity:0.68949771;fill-rule:evenodd;stroke:none"
       d="M 30 16 C 27.238576 16 25 18.238576 25 21 C 25 23.761424 27.238576 26 30 26 C 32.761424 26 35 23.761424 35 21 C 35 18.238576 32.761424 16 30 16 z M 65 16 C 62.238576 16 60 18.238576 60 21 C 60 23.761424 62.238576 26 65 26 C 67.761424 26 70 23.761424 70 21 C 70 18.238576 67.761424 16 65 16 z "
       transform="translate(0,956.36218)"
       id="path5334" />
    <path
       style="fill:#000000;fill-opacity:1;fill-rule:evenodd;stroke:none"
       d="M 30 18 C 28.343146 18 27 19.343146 27 21 C 27 22.656854 28.343146 24 30 24 C 31.656854 24 33 22.656854 33 21 C 33 19.343146 31.656854 18 30 18 z M 65 18 C 63.343146 18 62 19.343146 62 21 C 62 22.656854 63.343146 24 65 24 C 66.656854 24 68 22.656854 68 21 C 68 19.343146 66.656854 18 65 18 z "
       transform="translate(0,956.36218)"
       id="path5338" />
    <path
       style="fill:none;stroke:#000000;stroke-width:6;stroke-linecap:round;stroke-linejoin:miter;stroke-miterlimit:4;stroke-opacity:1;stroke-dasharray:none"
       d="m 30,977.36218 c 9.257502,13.12345 -1.914369,23.14642 19.925028,19.35411 C 75,992.36218 60.44053,985.00093 65,977.36218"
       id="path5344"
       inkscape:connector-curvature="0"
       sodipodi:nodetypes="csc" />
    <path
       style="fill:#000000;fill-opacity:0.38356168;fill-rule:nonzero;stroke:none"
       d="m 1,1042.3622 0.04598,2.7457 c 0.03024,1.8058 1.461916,3.2543 3.285205,3.2543 l 86.383615,0 c 1.82328,0 3.2852,-1.4481 3.2852,-3.2543 l -0.046,-2.7457 z"
       id="rect3781"
       inkscape:connector-curvature="0"
       sodipodi:nodetypes="csssscc" />
    <rect
       style="fill:#ffffff;fill-opacity:0.30000001;fill-rule:nonzero;stroke:none"
       id="rect3770"
       width="92.954033"
       height="2.000005"
       x="1.045976"
       y="1040.3622" />
    <path
       style="font-size:11px;font-style:normal;font-variant:normal;font-weight:normal;font-stretch:normal;text-align:start;line-height:98.00000191000000882%;letter-spacing:0px;word-spacing:0px;text-anchor:start;fill:#ffffff;fill-opacity:1;stroke:none;font-family:Andale Mono;-inkscape-font-specification:Andale Mono"
       d="M 10.4375 49.90625 L 10.4375 55.53125 C 10.437499 56.346066 10.735323 56.996158 11.28125 57.46875 C 11.827174 57.941343 12.550738 58.15625 13.5 58.15625 C 14.441106 58.15625 15.187772 57.914167 15.75 57.4375 C 16.312215 56.960834 16.593743 56.337918 16.59375 55.53125 L 16.59375 49.90625 L 15.59375 49.90625 L 15.59375 55.53125 C 15.593744 56.073104 15.401985 56.502872 15.03125 56.8125 C 14.664578 57.12213 14.143699 57.281251 13.5 57.28125 C 12.880737 57.281251 12.406062 57.13301 12.03125 56.84375 C 11.660507 56.554492 11.468748 56.113844 11.46875 55.53125 L 11.46875 49.90625 L 10.4375 49.90625 z M 18.0625 49.90625 L 18.0625 57.90625 L 18.875 57.90625 L 18.875 57.1875 C 19.30685 57.843426 19.909349 58.15625 20.6875 58.15625 C 21.449348 58.15625 22.074949 57.88287 22.53125 57.3125 C 22.987541 56.738057 23.218744 55.957409 23.21875 55 C 23.218744 54.067041 22.971244 53.354356 22.53125 52.8125 C 22.091245 52.270654 21.511848 52.000006 20.75 52 C 20.350738 52.000006 20.008007 52.063941 19.71875 52.21875 C 19.433563 52.369496 19.1806 52.615653 18.96875 52.9375 L 18.96875 49.90625 L 18.0625 49.90625 z M 36.6875 50.5625 L 36.6875 52.15625 L 35.90625 52.15625 L 35.90625 52.90625 L 36.6875 52.90625 L 36.6875 57.25 C 36.687499 57.543334 36.781342 57.782685 36.96875 57.9375 C 37.16023 58.096389 37.45398 58.15625 37.8125 58.15625 C 38.036572 58.15625 38.289535 58.142639 38.5625 58.09375 L 38.5625 57.3125 C 38.468794 57.341019 38.324627 57.375001 38.125 57.375 C 37.925368 57.375001 37.788007 57.31926 37.71875 57.25 C 37.649489 57.176667 37.593748 57.047455 37.59375 56.84375 L 37.59375 52.90625 L 38.5625 52.90625 L 38.5625 52.15625 L 37.59375 52.15625 L 37.59375 50.5625 L 36.6875 50.5625 z M 33.1875 52 C 32.755645 52.000006 32.391155 52.074821 32.09375 52.25 C 31.800415 52.425191 31.537915 52.721672 31.28125 53.125 L 31.28125 52.15625 L 30.4375 52.15625 L 30.4375 57.90625 L 31.34375 57.90625 L 31.34375 54.71875 C 31.343748 54.132087 31.496063 53.666949 31.78125 53.3125 C 32.066433 52.958061 32.433655 52.781255 32.90625 52.78125 C 33.268839 52.781255 33.569394 52.890051 33.78125 53.09375 C 33.997172 53.297458 34.093746 53.587134 34.09375 53.9375 L 34.09375 57.90625 L 35 57.90625 L 35 53.5625 C 34.999995 53.085838 34.861245 52.69144 34.53125 52.40625 C 34.201245 52.121071 33.74157 52.000006 33.1875 52 z M 24.28125 52.15625 L 24.28125 56.59375 C 24.281249 57.070418 24.451249 57.464815 24.78125 57.75 C 25.111248 58.035185 25.562776 58.15625 26.125 58.15625 C 26.548701 58.15625 26.894163 58.100463 27.1875 57.9375 C 27.480829 57.778611 27.762357 57.507963 28.03125 57.125 L 28.03125 57.90625 L 28.875 57.90625 L 28.875 52.15625 L 27.9375 52.15625 L 27.9375 55.4375 C 27.937496 56.024169 27.816431 56.489307 27.53125 56.84375 C 27.246061 57.198195 26.851663 57.375001 26.375 57.375 C 26.012405 57.375001 25.715924 57.266204 25.5 57.0625 C 25.284072 56.854723 25.187498 56.565048 25.1875 56.21875 L 25.1875 52.15625 L 24.28125 52.15625 z M 39.53125 52.15625 L 39.53125 56.59375 C 39.531249 57.070418 39.701249 57.464815 40.03125 57.75 C 40.361248 58.035185 40.812776 58.15625 41.375 58.15625 C 41.798701 58.15625 42.144163 58.100463 42.4375 57.9375 C 42.730829 57.778611 43.012357 57.507963 43.28125 57.125 L 43.28125 57.90625 L 44.125 57.90625 L 44.125 52.15625 L 43.1875 52.15625 L 43.1875 55.4375 C 43.187496 56.024169 43.066431 56.489307 42.78125 56.84375 C 42.496061 57.198195 42.101663 57.375001 41.625 57.375 C 41.262405 57.375001 40.965924 57.266204 40.75 57.0625 C 40.534072 56.854723 40.437498 56.565048 40.4375 56.21875 L 40.4375 52.15625 L 39.53125 52.15625 z M 20.5625 52.84375 C 21.07583 52.843755 21.47569 53.057273 21.78125 53.46875 C 22.086801 53.880236 22.249995 54.432411 22.25 55.125 C 22.249995 55.776854 22.094949 56.311344 21.78125 56.71875 C 21.471616 57.126158 21.063607 57.312501 20.5625 57.3125 C 20.077683 57.312501 19.699581 57.122084 19.40625 56.71875 C 19.116989 56.311344 18.968748 55.774123 18.96875 55.09375 C 18.968748 54.413383 19.116989 53.872087 19.40625 53.46875 C 19.699581 53.061347 20.077683 52.843755 20.5625 52.84375 z M 13.125 60.53125 C 12.244997 60.531258 11.544581 60.763804 11.03125 61.1875 C 10.52199 61.607137 10.281249 62.176997 10.28125 62.90625 C 10.281249 63.875884 10.792638 64.508291 11.84375 64.78125 L 13.84375 65.28125 C 14.34893 65.411624 14.701198 65.600651 14.9375 65.8125 C 15.177865 66.024355 15.312494 66.275975 15.3125 66.59375 C 15.312494 66.724122 15.309763 66.850604 15.28125 66.96875 C 15.252726 67.0869 15.183374 67.205233 15.09375 67.34375 C 15.004115 67.478196 14.896661 67.620973 14.75 67.71875 C 14.607402 67.816529 14.408838 67.872316 14.15625 67.9375 C 13.903653 68.002686 13.611246 68.062501 13.28125 68.0625 C 12.849395 68.062501 12.469951 67.989075 12.15625 67.875 C 11.846618 67.760927 11.596387 67.624908 11.4375 67.4375 C 11.278609 67.24602 11.163008 67.043381 11.09375 66.84375 C 11.024489 66.644122 10.999999 66.442826 11 66.21875 L 11 66.15625 L 10.03125 66.15625 C 10.035324 66.592178 10.115555 66.974354 10.25 67.3125 C 10.388518 67.650649 10.542221 67.921297 10.75 68.125 C 10.957776 68.32463 11.214813 68.49463 11.5 68.625 C 11.785183 68.75537 12.070784 68.830185 12.34375 68.875 C 12.620784 68.923889 12.917265 68.9375 13.21875 68.9375 C 13.699487 68.9375 14.125181 68.89125 14.5 68.78125 C 14.878884 68.675324 15.18217 68.542037 15.40625 68.375 C 15.634392 68.203889 15.822077 68.005325 15.96875 67.78125 C 16.11541 67.557177 16.19703 67.332779 16.25 67.125 C 16.30703 66.917224 16.343743 66.715928 16.34375 66.5 C 16.343743 66.002966 16.203651 65.565049 15.90625 65.21875 C 15.612911 64.868383 15.17092 64.646671 14.625 64.5 L 12.625 63.9375 C 12.136108 63.807135 11.789303 63.64394 11.59375 63.46875 C 11.398193 63.29357 11.312498 63.059635 11.3125 62.75 C 11.312498 62.342599 11.455322 62.025701 11.78125 61.78125 C 12.111247 61.532739 12.551895 61.406257 13.09375 61.40625 C 13.733375 61.406257 14.220273 61.531396 14.5625 61.8125 C 14.904717 62.093618 15.085596 62.505701 15.09375 63.03125 L 16.0625 63.03125 C 16.054345 62.240886 15.794577 61.623433 15.28125 61.1875 C 14.767911 60.751582 14.045736 60.531258 13.125 60.53125 z M 25.25 60.65625 C 24.826294 60.656258 24.490369 60.767786 24.25 61 C 24.013703 61.23223 23.906249 61.5301 23.90625 61.9375 L 23.90625 62.9375 L 23.125 62.9375 L 23.125 63.6875 L 23.90625 63.6875 L 23.90625 68.6875 L 24.8125 68.6875 L 24.8125 63.6875 L 25.78125 63.6875 L 25.78125 62.9375 L 24.8125 62.9375 L 24.8125 62.03125 C 24.812498 61.64422 25.036896 61.437507 25.46875 61.4375 C 25.538007 61.437507 25.642729 61.460609 25.78125 61.46875 L 25.78125 60.71875 C 25.581618 60.678017 25.396664 60.656258 25.25 60.65625 z M 26.71875 61.34375 L 26.71875 62.9375 L 25.9375 62.9375 L 25.9375 63.6875 L 26.71875 63.6875 L 26.71875 68.03125 C 26.718749 68.324584 26.812592 68.563935 27 68.71875 C 27.19148 68.877639 27.48523 68.9375 27.84375 68.9375 C 28.067822 68.9375 28.320785 68.923889 28.59375 68.875 L 28.59375 68.09375 C 28.500044 68.122269 28.355877 68.156251 28.15625 68.15625 C 27.956618 68.156251 27.819257 68.10051 27.75 68.03125 C 27.680739 67.957917 27.624998 67.828705 27.625 67.625 L 27.625 63.6875 L 28.59375 63.6875 L 28.59375 62.9375 L 27.625 62.9375 L 27.625 61.34375 L 26.71875 61.34375 z M 19.8125 62.78125 C 19.005831 62.781256 18.370693 63.043756 17.90625 63.59375 C 17.445879 64.13968 17.21875 64.909448 17.21875 65.875 C 17.21875 66.840557 17.445879 67.579075 17.90625 68.125 C 18.366619 68.670926 19.024859 68.9375 19.84375 68.9375 C 20.650413 68.9375 21.285551 68.666852 21.75 68.125 C 22.214439 67.583149 22.437494 66.851437 22.4375 65.90625 C 22.437494 64.91218 22.210365 64.13968 21.75 63.59375 C 21.293699 63.043756 20.639533 62.781256 19.8125 62.78125 z M 39.8125 62.78125 C 39.588423 62.781256 39.383053 62.783987 39.1875 62.8125 C 38.991942 62.841024 38.770276 62.8832 38.5625 62.96875 C 38.354721 63.050237 38.177915 63.178061 38.03125 63.3125 C 37.884582 63.442876 37.758101 63.615607 37.65625 63.84375 C 37.558471 64.071903 37.508147 64.327597 37.5 64.625 L 38.4375 64.625 C 38.474165 64.274634 38.596572 64.037968 38.8125 63.875 C 39.028424 63.707968 39.349396 63.625005 39.78125 63.625 C 40.192728 63.625005 40.525922 63.693014 40.75 63.84375 C 40.97407 63.994495 41.062496 64.195792 41.0625 64.46875 L 41.0625 64.71875 C 41.062496 64.914309 41.013514 65.06255 40.875 65.15625 C 40.736478 65.249957 40.487589 65.298939 40.125 65.34375 C 39.82759 65.384494 39.605923 65.425281 39.5 65.4375 C 38.754442 65.543429 38.247128 65.687596 37.9375 65.875 C 37.489351 66.143891 37.25 66.606298 37.25 67.25 C 37.25 67.775556 37.411851 68.194445 37.75 68.5 C 38.088147 68.805555 38.573656 68.9375 39.15625 68.9375 C 39.51884 68.9375 39.846617 68.884444 40.15625 68.75 C 40.46995 68.61963 40.771894 68.391158 41.09375 68.09375 C 41.126338 68.38301 41.228329 68.615556 41.375 68.75 C 41.525736 68.888518 41.733838 68.9375 42.03125 68.9375 C 42.20643 68.9375 42.415874 68.908935 42.65625 68.84375 L 42.65625 68.15625 C 42.595133 68.176621 42.533929 68.187501 42.46875 68.1875 C 42.309856 68.187501 42.21055 68.139908 42.125 68.0625 C 42.039439 67.981019 41.968745 67.861343 41.96875 67.71875 L 41.96875 64.34375 C 41.968745 63.830422 41.808236 63.45232 41.4375 63.1875 C 41.070829 62.918617 40.525459 62.781256 39.8125 62.78125 z M 46.0625 62.78125 C 45.761016 62.781256 45.494442 62.875098 45.25 63.0625 C 45.009628 63.249913 44.764813 63.540977 44.5 63.96875 L 44.5 62.9375 L 43.65625 62.9375 L 43.65625 68.6875 L 44.5625 68.6875 L 44.5625 65.6875 C 44.562498 65.296392 44.606017 64.979494 44.6875 64.71875 C 44.773054 64.453939 44.922637 64.263523 45.09375 64.125 C 45.268933 63.986486 45.44847 63.896718 45.65625 63.84375 C 45.864025 63.786718 46.136015 63.754079 46.4375 63.75 L 46.4375 62.8125 C 46.262311 62.792136 46.119534 62.781256 46.0625 62.78125 z M 49.375 62.78125 C 48.572405 62.781256 47.949489 63.054635 47.46875 63.625 C 46.992083 64.191301 46.75 64.956994 46.75 65.90625 C 46.75 66.851437 46.973055 67.579075 47.4375 68.125 C 47.906017 68.666852 48.533007 68.9375 49.34375 68.9375 C 50.003746 68.9375 50.568144 68.760694 51 68.40625 C 51.435921 68.051806 51.694346 67.560834 51.8125 66.9375 L 50.90625 66.9375 C 50.645505 67.707501 50.147728 68.093751 49.40625 68.09375 C 48.795136 68.093751 48.317776 67.844862 48 67.34375 C 47.889998 67.180789 47.826063 67.027085 47.78125 66.84375 C 47.740508 66.660419 47.695647 66.414262 47.6875 66.125 L 51.9375 66.125 C 51.937494 65.314263 51.873559 64.69681 51.71875 64.28125 C 51.527263 63.808662 51.228051 63.456394 50.8125 63.1875 C 50.401014 62.918617 49.912774 62.781256 49.375 62.78125 z M 28.90625 62.9375 L 30.5625 68.6875 L 31.625 68.6875 L 32.71875 64.1875 L 33.875 68.6875 L 34.9375 68.6875 L 36.625 62.9375 L 35.59375 62.9375 L 34.4375 67.40625 L 33.3125 62.9375 L 32.1875 62.9375 L 31.09375 67.40625 L 29.90625 62.9375 L 28.90625 62.9375 z M 19.84375 63.625 C 20.35708 63.625005 20.741987 63.815422 21.03125 64.21875 C 21.324579 64.618013 21.468745 65.185142 21.46875 65.90625 C 21.468745 66.582548 21.328653 67.100742 21.03125 67.5 C 20.737913 67.895186 20.348932 68.093751 19.84375 68.09375 C 19.330414 68.093751 18.922405 67.89926 18.625 67.5 C 18.331665 67.100742 18.187499 66.571669 18.1875 65.875 C 18.187499 65.182411 18.331665 64.622087 18.625 64.21875 C 18.922405 63.815422 19.330414 63.625005 19.84375 63.625 z M 49.375 63.625 C 49.827219 63.625005 50.194441 63.763755 50.5 64.09375 C 50.805551 64.41968 50.968745 64.835837 50.96875 65.3125 C 50.968745 65.341022 50.945643 65.362781 50.9375 65.375 L 47.71875 65.375 C 47.755415 64.8413 47.921341 64.411532 48.21875 64.09375 C 48.516155 63.771903 48.910553 63.625005 49.375 63.625 z M 41.0625 65.84375 L 41.0625 66.875 C 41.062496 67.184631 40.919672 67.481112 40.59375 67.75 C 40.271895 68.01889 39.848932 68.156251 39.34375 68.15625 C 38.985229 68.156251 38.699628 68.069214 38.5 67.90625 C 38.304443 67.743288 38.218749 67.50801 38.21875 67.21875 C 38.218749 66.978381 38.271804 66.775743 38.40625 66.625 C 38.540693 66.474261 38.744674 66.377688 38.96875 66.3125 C 39.196896 66.243243 39.419951 66.192919 39.65625 66.15625 C 39.896617 66.119586 40.133284 66.076067 40.40625 66.03125 C 40.683283 65.982364 40.903607 65.917086 41.0625 65.84375 z M 13.6875 71.3125 C 13.280089 71.312508 12.908793 71.366906 12.5625 71.46875 C 12.220275 71.566536 11.936016 71.707971 11.6875 71.875 C 11.443054 72.03797 11.226804 72.236535 11.03125 72.46875 C 10.839767 72.700979 10.684721 72.934914 10.5625 73.1875 C 10.440277 73.436025 10.331481 73.714821 10.25 74 C 10.172592 74.281116 10.126342 74.555838 10.09375 74.8125 C 10.061157 75.065097 10.031249 75.309912 10.03125 75.5625 C 10.031249 75.855837 10.048935 76.140096 10.09375 76.4375 C 10.142638 76.730836 10.210647 77.053151 10.3125 77.375 C 10.414351 77.696854 10.562592 78.004214 10.75 78.28125 C 10.937406 78.554214 11.180832 78.775927 11.4375 79 C 11.694164 79.22 11.992035 79.404954 12.375 79.53125 C 12.75796 79.66162 13.191802 79.71875 13.65625 79.71875 C 15.607725 79.71875 16.720224 78.681019 16.96875 76.5625 L 15.90625 76.5625 C 15.779947 77.336576 15.541938 77.906437 15.1875 78.28125 C 14.837124 78.651992 14.316245 78.843751 13.65625 78.84375 C 12.861802 78.843751 12.22259 78.528242 11.75 77.9375 C 11.28148 77.346761 11.062498 76.568799 11.0625 75.5625 C 11.062498 74.535838 11.297776 73.715747 11.75 73.125 C 12.20222 72.530192 12.788423 72.218757 13.5625 72.21875 C 14.198051 72.218757 14.716199 72.371072 15.0625 72.65625 C 15.40879 72.937368 15.63592 73.358988 15.75 73.9375 L 16.78125 73.9375 C 16.467539 72.18973 15.435272 71.312508 13.6875 71.3125 z M 30.59375 72.125 L 30.59375 73.71875 L 29.8125 73.71875 L 29.8125 74.46875 L 30.59375 74.46875 L 30.59375 78.8125 C 30.593749 79.105834 30.687592 79.345185 30.875 79.5 C 31.06648 79.658889 31.36023 79.71875 31.71875 79.71875 C 31.942822 79.71875 32.164535 79.705139 32.4375 79.65625 L 32.4375 78.875 C 32.343794 78.903519 32.199627 78.937501 32 78.9375 C 31.800368 78.937501 31.663007 78.88176 31.59375 78.8125 C 31.524489 78.739167 31.499998 78.609955 31.5 78.40625 L 31.5 74.46875 L 32.4375 74.46875 L 32.4375 73.71875 L 31.5 73.71875 L 31.5 72.125 L 30.59375 72.125 z M 20.53125 73.5625 C 19.728655 73.562506 19.105739 73.835885 18.625 74.40625 C 18.148333 74.972551 17.90625 75.738244 17.90625 76.6875 C 17.90625 77.632687 18.129305 78.360325 18.59375 78.90625 C 19.062267 79.448102 19.689257 79.71875 20.5 79.71875 C 21.159996 79.71875 21.724394 79.541944 22.15625 79.1875 C 22.592171 78.833056 22.850596 78.342084 22.96875 77.71875 L 22.0625 77.71875 C 21.801755 78.488751 21.303978 78.875001 20.5625 78.875 C 19.951386 78.875001 19.474026 78.626112 19.15625 78.125 C 19.046248 77.962039 18.982313 77.808335 18.9375 77.625 C 18.896758 77.441669 18.851897 77.195512 18.84375 76.90625 L 23.09375 76.90625 C 23.093744 76.095513 23.029809 75.47806 22.875 75.0625 C 22.683513 74.589912 22.384301 74.206394 21.96875 73.9375 C 21.557264 73.668617 21.069024 73.562506 20.53125 73.5625 z M 27.09375 73.5625 C 26.661895 73.562506 26.297405 73.637321 26 73.8125 C 25.706665 73.987691 25.412915 74.284172 25.15625 74.6875 L 25.15625 73.71875 L 24.3125 73.71875 L 24.3125 79.46875 L 25.25 79.46875 L 25.25 76.28125 C 25.249998 75.694587 25.402313 75.229449 25.6875 74.875 C 25.972683 74.520561 26.339905 74.343755 26.8125 74.34375 C 27.175089 74.343755 27.475644 74.452551 27.6875 74.65625 C 27.903422 74.859958 27.999996 75.149634 28 75.5 L 28 79.46875 L 28.90625 79.46875 L 28.90625 75.125 C 28.906245 74.648338 28.736245 74.25394 28.40625 73.96875 C 28.076245 73.683571 27.64782 73.562506 27.09375 73.5625 z M 35.78125 73.5625 C 34.978655 73.562506 34.355739 73.835885 33.875 74.40625 C 33.398333 74.972551 33.15625 75.738244 33.15625 76.6875 C 33.15625 77.632687 33.379305 78.360325 33.84375 78.90625 C 34.312267 79.448102 34.939257 79.71875 35.75 79.71875 C 36.409996 79.71875 36.974394 79.541944 37.40625 79.1875 C 37.842171 78.833056 38.131846 78.342084 38.25 77.71875 L 37.3125 77.71875 C 37.051755 78.488751 36.553978 78.875001 35.8125 78.875 C 35.201386 78.875001 34.724026 78.626112 34.40625 78.125 C 34.296248 77.962039 34.232313 77.808335 34.1875 77.625 C 34.146758 77.441669 34.101897 77.195512 34.09375 76.90625 L 38.34375 76.90625 C 38.343744 76.095513 38.279809 75.47806 38.125 75.0625 C 37.933513 74.589912 37.634301 74.206394 37.21875 73.9375 C 36.807264 73.668617 36.319024 73.562506 35.78125 73.5625 z M 42 73.5625 C 41.698516 73.562506 41.431942 73.656348 41.1875 73.84375 C 40.947128 74.031163 40.671063 74.322227 40.40625 74.75 L 40.40625 73.71875 L 39.5625 73.71875 L 39.5625 79.46875 L 40.5 79.46875 L 40.5 76.46875 C 40.499998 76.077642 40.543517 75.760744 40.625 75.5 C 40.710554 75.235189 40.828887 75.044773 41 74.90625 C 41.175183 74.767736 41.38597 74.677968 41.59375 74.625 C 41.801525 74.567968 42.042265 74.535329 42.34375 74.53125 L 42.34375 73.59375 C 42.168561 73.573386 42.057034 73.562506 42 73.5625 z M 20.53125 74.40625 C 20.983469 74.406255 21.350691 74.545005 21.65625 74.875 C 21.961801 75.20093 22.124995 75.617087 22.125 76.09375 C 22.124995 76.122272 22.101893 76.144031 22.09375 76.15625 L 18.875 76.15625 C 18.911665 75.62255 19.077591 75.192782 19.375 74.875 C 19.672405 74.553153 20.066803 74.406255 20.53125 74.40625 z M 35.78125 74.40625 C 36.233469 74.406255 36.600691 74.545005 36.90625 74.875 C 37.211801 75.20093 37.374995 75.617087 37.375 76.09375 C 37.374995 76.122272 37.383143 76.144031 37.375 76.15625 L 34.125 76.15625 C 34.161665 75.62255 34.327591 75.192782 34.625 74.875 C 34.922405 74.553153 35.316803 74.406255 35.78125 74.40625 z "
       transform="translate(0,956.36218)"
       id="text3008" />
  </g>
</svg>
