<?xml version="1.0" encoding="UTF-8" standalone="no"?>
<!-- Created with Inkscape (http://www.inkscape.org/) -->

<svg
   xmlns:dc="http://purl.org/dc/elements/1.1/"
   xmlns:cc="http://creativecommons.org/ns#"
   xmlns:rdf="http://www.w3.org/1999/02/22-rdf-syntax-ns#"
   xmlns:svg="http://www.w3.org/2000/svg"
   xmlns="http://www.w3.org/2000/svg"
   xmlns:sodipodi="http://sodipodi.sourceforge.net/DTD/sodipodi-0.dtd"
   xmlns:inkscape="http://www.inkscape.org/namespaces/inkscape"
   width="96"
   height="96"
   id="svg2"
   version="1.1"
   inkscape:version="0.48.4 r9939"
   sodipodi:docname="sparkleshare.svg">
  <defs
     id="defs4" />
  <sodipodi:namedview
     id="base"
     pagecolor="#ffffff"
     bordercolor="#666666"
     borderopacity="1.0"
     inkscape:pageopacity="0.0"
     inkscape:pageshadow="2"
     inkscape:zoom="2.953125"
     inkscape:cx="25.156039"
     inkscape:cy="48"
     inkscape:document-units="px"
     inkscape:current-layer="layer1"
     showgrid="true"
     inkscape:snap-page="true"
     inkscape:snap-global="false"
     inkscape:snap-center="true"
     inkscape:snap-object-midpoints="false"
     showguides="true"
     inkscape:guide-bbox="true"
     inkscape:snap-bbox="true"
     inkscape:object-paths="true"
     inkscape:object-nodes="true"
     inkscape:window-width="1305"
     inkscape:window-height="744"
     inkscape:window-x="61"
     inkscape:window-y="24"
     inkscape:window-maximized="1"
     inkscape:snap-midpoints="false"
     inkscape:snap-grids="true"
     inkscape:snap-to-guides="false">
    <inkscape:grid
       type="xygrid"
       id="grid3002"
       empspacing="5"
       visible="true"
       enabled="true"
       snapvisiblegridlinesonly="true" />
  </sodipodi:namedview>
  <metadata
     id="metadata7">
    <rdf:RDF>
      <cc:Work
         rdf:about="">
        <dc:format>image/svg+xml</dc:format>
        <dc:type
           rdf:resource="http://purl.org/dc/dcmitype/StillImage" />
        <dc:title />
      </cc:Work>
    </rdf:RDF>
  </metadata>
  <g
     inkscape:label="Layer 1"
     inkscape:groupmode="layer"
     id="layer1"
     transform="translate(0,-956.36218)">
    <rect
       style="fill:#ffffff;fill-opacity:0;fill-rule:nonzero;stroke:none"
       id="rect3775"
       width="96"
       height="96"
       x="0"
       y="956.36218"
       ry="0" />
    <path
       style="fill:#000000;fill-opacity:0.09589041;fill-rule:nonzero;stroke:none"
       d="m 3.353015,956.30662 c -1.884176,0 -3.4111555,1.43156 -3.4111555,3.19799 l 0,83.65949 c 0,1.7665 1.5269795,3.1981 3.4111555,3.1981 l 89.23583,0 c 1.884174,0 3.411155,-1.4316 3.411155,-3.1981 l 0,-83.65949 c 0,-1.76643 -1.526981,-3.19799 -3.411155,-3.19799 z"
       id="rect3772"
       inkscape:connector-curvature="0"
       sodipodi:nodetypes="sssssssss" />
    <path
       style="fill:#000000;fill-opacity:0.18721463;fill-rule:nonzero;stroke:none"
       d="m 1.0459761,1041.8066 0,7.4219 c 0,1.7392 1.461916,3.1337 3.2852054,3.1337 l 86.3836135,0 c 1.823288,0 3.285205,-1.3945 3.285205,-3.1337 l 0,-7.4219 -92.9540239,0 z"
       id="rect3785"
       inkscape:connector-curvature="0" />
    <path
       style="fill:#000000;fill-opacity:0.38356168;fill-rule:nonzero;stroke:none"
       d="m 1.0459761,1041.8066 0,5.3807 c 0,1.762 1.461916,3.1749 3.2852054,3.1749 l 86.3836135,0 c 1.823288,0 3.285205,-1.4129 3.285205,-3.1749 l 0,-5.3807 -92.9540239,0 z"
       id="rect3783"
       inkscape:connector-curvature="0" />
    <rect
       style="fill:#fca311;fill-opacity:1;fill-rule:nonzero;stroke:none"
       id="rect2985-2"
       width="93"
       height="88.999962"
       x="0.9999969"
       y="957.36224"
       ry="3.1511383" />
    <path
       style="font-size:medium;font-style:normal;font-variant:normal;font-weight:normal;font-stretch:normal;text-indent:0;text-align:start;text-decoration:none;line-height:normal;letter-spacing:normal;word-spacing:normal;text-transform:none;direction:ltr;block-progression:tb;writing-mode:lr-tb;text-anchor:start;baseline-shift:baseline;color:#000000;fill:#000000;fill-opacity:0.16438356;fill-rule:evenodd;stroke:none;stroke-width:5.03999996000000028;marker:none;visibility:visible;display:inline;overflow:visible;enable-background:accumulate;font-family:Sans;-inkscape-font-specification:Sans"
       d="M 68.9375 90 L 78.25 90 C 79.589508 89.258704 80.796016 88.289646 81.71875 86.9375 L 92.375 71.40625 L 94 71.78125 L 94 63.5 L 91.625 62.96875 L 89.03125 62.375 L 87.5 64.65625 L 75.3125 82.46875 C 74.974708 82.96395 73.851006 83.3356 73.28125 83.1875 C 72.711912 83.0405 71.954755 82.1572 71.90625 81.5625 L 70.28125 60.78125 L 70.09375 58 L 67.53125 57.28125 L 47.21875 51.25 L 47.1875 51.28125 L 47.15625 51.25 C 46.589437 51.0866 45.902602 50.161 45.875 49.5625 C 45.84741 48.964 46.482742 47.95225 47.03125 47.71875 L 47.0625 47.6875 L 66.15625 39.375 L 68.65625 38.3125 L 68.59375 35.59375 L 68.21875 14.09375 C 68.20975 13.54623 68.660246 12.72449 69.125 12.4375 C 69.663074 12.10622 71.09232 12.30707 71.5 12.78125 L 84.9375 28.46875 L 86.65625 30.53125 L 89.21875 29.59375 L 94 27.875 L 94 19.40625 L 89.1875 21.15625 L 77.46875 7.5 C 74.350316 3.87301 69.209663 3.05976 65.09375 5.59375 C 62.054964 7.47026 60.253878 10.76371 60.3125 14.34375 L 60.625 33.09375 L 44.03125 40.3125 C 44.01555 40.3185 44.01544 40.33655 44 40.34375 C 40.146373 42.00679 37.774246 45.8447 37.96875 50.0625 C 38.162952 54.274 40.900501 57.7618 44.875 58.9375 C 44.89862 58.9485 44.91603 58.96475 44.9375 58.96875 L 62.65625 64.1875 L 64.03125 82.3125 L 64.0625 82.34375 L 64 82.375 C 64.271949 85.708071 66.174813 88.465363 68.9375 90 z "
       id="path3767"
       transform="translate(0,956.36218)" />
    <path
       style="font-size:medium;font-style:normal;font-variant:normal;font-weight:normal;font-stretch:normal;text-indent:0;text-align:start;text-decoration:none;line-height:normal;letter-spacing:normal;word-spacing:normal;text-transform:none;direction:ltr;block-progression:tb;writing-mode:lr-tb;text-anchor:start;baseline-shift:baseline;color:#000000;fill:#ffffff;fill-opacity:1;fill-rule:evenodd;stroke:none;stroke-width:5.03999996;marker:none;visibility:visible;display:inline;overflow:visible;enable-background:accumulate;font-family:Sans;-inkscape-font-specification:Sans"
       d="m 38.707396,977.77229 c -1.932424,0.43783 -3.465898,1.84653 -4.079474,3.73581 l -3.207744,9.90414 -10.002781,0.79593 c -0.0094,6.8e-4 -0.01737,0.005 -0.02677,0.006 -2.321613,0.17914 -4.262738,1.75991 -4.919797,4.00834 -0.656068,2.24503 0.14883,4.57739 2.022955,5.90969 0.01043,0.01 0.02174,0.014 0.03224,0.02 l 8.35788,5.9379 -2.538428,9.7537 0.0055,0.026 -0.02677,0.01 c -0.575114,2.2619 0.30651,4.5423 2.226202,5.8083 1.919692,1.266 4.375663,1.17 6.253478,-0.2327 l 8.383672,-6.2381 8.467617,5.2432 c 1.955157,1.2187 4.404151,1.056 6.247448,-0.3987 1.843296,-1.4548 2.583795,-3.8308 1.872836,-6.0314 l -3.180161,-9.7808 7.782045,-6.57742 c 1.78168,-1.51805 2.426244,-3.89739 1.642254,-6.06326 -0.78399,-2.16588 -2.799757,-3.55224 -5.116351,-3.51196 l -10.353644,0.17693 -3.692618,-9.2749 c -0.983696,-2.46462 -3.53354,-3.81299 -6.14955,-3.22399 z m 0.885704,4.32294 c 0.341992,-0.077 1.05825,0.27644 1.186848,0.59865 l 4.228807,10.66174 0.536189,1.38684 1.505865,-0.0313 11.85951,-0.20824 c 0.328927,-0.006 0.866818,0.36593 0.978134,0.67346 0.111316,0.30752 -0.06925,0.94546 -0.322228,1.16101 l -8.930452,7.53331 -1.148406,0.9559 0.461338,1.4315 3.641501,11.2124 c 0.100767,0.312 -0.09321,0.9342 -0.354469,1.1404 -0.261259,0.2061 -0.939155,0.2505 -1.216268,0.078 l -9.719511,-6.0226 -1.251891,-0.7795 -1.212886,0.9145 -9.596556,7.1526 c -0.266386,0.1991 -0.928104,0.1981 -1.200431,0.018 -0.272328,-0.1796 -0.504089,-0.7845 -0.422503,-1.1054 l 2.8863,-11.1997 0.395951,-1.4846 -1.209281,-0.8448 -9.572628,-6.80935 -0.02678,0.006 -0.0055,-0.0267 c -0.268043,-0.18776 -0.462193,-0.79832 -0.368958,-1.11737 0.09324,-0.31905 0.604919,-0.74448 0.934788,-0.76829 l 0.02677,-0.006 11.519016,-0.91329 1.489464,-0.11135 0.460431,-1.44328 3.668175,-11.34743 c 0.09384,-0.28894 0.484075,-0.63855 0.779619,-0.70551 z"
       id="path3761"
       inkscape:connector-curvature="0" />
    <path
       style="fill:#000000;fill-opacity:0.38356168;fill-rule:nonzero;stroke:none"
       d="m 1,1042.3622 0.045976,2.7457 c 0.03024,1.8058 1.461916,3.2543 3.2852054,3.2543 l 86.3836136,0 c 1.823288,0 3.285205,-1.4481 3.285205,-3.2543 l -0.04598,-2.7457 z"
       id="rect3781"
       inkscape:connector-curvature="0"
       sodipodi:nodetypes="csssscc" />
    <rect
       style="fill:#ffffff;fill-opacity:0.30000001;fill-rule:nonzero;stroke:none"
       id="rect3770"
       width="92.954033"
       height="2.000005"
       x="1.045976"
       y="1040.3622" />
  </g>
</svg>
