<?xml version="1.0" encoding="UTF-8" standalone="no"?>
<!-- Created with Inkscape (http://www.inkscape.org/) -->

<svg
   xmlns:dc="http://purl.org/dc/elements/1.1/"
   xmlns:cc="http://creativecommons.org/ns#"
   xmlns:rdf="http://www.w3.org/1999/02/22-rdf-syntax-ns#"
   xmlns:svg="http://www.w3.org/2000/svg"
   xmlns="http://www.w3.org/2000/svg"
   xmlns:xlink="http://www.w3.org/1999/xlink"
   xmlns:sodipodi="http://sodipodi.sourceforge.net/DTD/sodipodi-0.dtd"
   xmlns:inkscape="http://www.inkscape.org/namespaces/inkscape"
   width="96"
   height="96"
   id="svg2"
   version="1.1"
   inkscape:version="0.48.4 r9939"
   sodipodi:docname="spideroak.svg">
  <defs
     id="defs4">
    <linearGradient
       id="linearGradient3768">
      <stop
         style="stop-color:#5af0ff;stop-opacity:1;"
         offset="0"
         id="stop3770" />
      <stop
         style="stop-color:#27e1ff;stop-opacity:1;"
         offset="1"
         id="stop3772" />
    </linearGradient>
    <linearGradient
       id="linearGradient3760">
      <stop
         style="stop-color:#009bff;stop-opacity:0;"
         offset="0"
         id="stop3762" />
      <stop
         style="stop-color:#009bff;stop-opacity:0.2;"
         offset="1"
         id="stop3764" />
    </linearGradient>
    <radialGradient
       inkscape:collect="always"
       xlink:href="#linearGradient3760"
       id="radialGradient3766"
       cx="47.500002"
       cy="1001.8622"
       fx="47.500002"
       fy="1001.8622"
       r="46.500002"
       gradientTransform="matrix(1,0,0,0.95698964,0,43.090455)"
       gradientUnits="userSpaceOnUse" />
    <radialGradient
       inkscape:collect="always"
       xlink:href="#linearGradient3768"
       id="radialGradient3774"
       cx="50"
       cy="991.30804"
       fx="50"
       fy="991.30804"
       r="33.101293"
       gradientTransform="matrix(1,0,0,1.5105149,0,-505.0234)"
       gradientUnits="userSpaceOnUse" />
  </defs>
  <sodipodi:namedview
     id="base"
     pagecolor="#ffffff"
     bordercolor="#666666"
     borderopacity="1.0"
     inkscape:pageopacity="0.0"
     inkscape:pageshadow="2"
     inkscape:zoom="4.6249807"
     inkscape:cx="27.38444"
     inkscape:cy="71.78836"
     inkscape:document-units="px"
     inkscape:current-layer="layer1"
     showgrid="true"
     inkscape:snap-page="true"
     inkscape:snap-global="true"
     inkscape:snap-center="true"
     inkscape:snap-object-midpoints="false"
     showguides="true"
     inkscape:guide-bbox="true"
     inkscape:snap-bbox="true"
     inkscape:object-paths="true"
     inkscape:object-nodes="true"
     inkscape:window-width="1305"
     inkscape:window-height="744"
     inkscape:window-x="61"
     inkscape:window-y="24"
     inkscape:window-maximized="1"
     inkscape:snap-midpoints="true"
     inkscape:snap-grids="true"
     inkscape:snap-to-guides="false">
    <inkscape:grid
       type="xygrid"
       id="grid3002"
       empspacing="5"
       visible="true"
       enabled="true"
       snapvisiblegridlinesonly="true" />
  </sodipodi:namedview>
  <metadata
     id="metadata7">
    <rdf:RDF>
      <cc:Work
         rdf:about="">
        <dc:format>image/svg+xml</dc:format>
        <dc:type
           rdf:resource="http://purl.org/dc/dcmitype/StillImage" />
        <dc:title />
      </cc:Work>
    </rdf:RDF>
  </metadata>
  <g
     inkscape:label="Layer 1"
     inkscape:groupmode="layer"
     id="layer1"
     transform="translate(0,-956.36218)">
    <rect
       style="fill:#ffffff;fill-opacity:0;fill-rule:nonzero;stroke:none"
       id="rect3775"
       width="96"
       height="96"
       x="0"
       y="956.36218"
       ry="0" />
    <path
       style="fill:#000000;fill-opacity:0.09589041;fill-rule:nonzero;stroke:none"
       d="m 3.353015,956.30662 c -1.884176,0 -3.4111555,1.43156 -3.4111555,3.19799 l 0,83.65949 c 0,1.7665 1.5269795,3.1981 3.4111555,3.1981 l 89.23583,0 c 1.884174,0 3.411155,-1.4316 3.411155,-3.1981 l 0,-83.65949 c 0,-1.76643 -1.526981,-3.19799 -3.411155,-3.19799 z"
       id="rect3772"
       inkscape:connector-curvature="0"
       sodipodi:nodetypes="sssssssss" />
    <path
       style="fill:#000000;fill-opacity:0.18721463;fill-rule:nonzero;stroke:none"
       d="m 1.0459761,1041.8066 0,7.4219 c 0,1.7392 1.461916,3.1337 3.2852054,3.1337 l 86.3836135,0 c 1.823288,0 3.285205,-1.3945 3.285205,-3.1337 l 0,-7.4219 -92.9540239,0 z"
       id="rect3785"
       inkscape:connector-curvature="0" />
    <path
       style="fill:#000000;fill-opacity:0.38356168;fill-rule:nonzero;stroke:none"
       d="m 1.0459761,1041.8066 0,5.3807 c 0,1.762 1.461916,3.1749 3.2852054,3.1749 l 86.3836135,0 c 1.823288,0 3.285205,-1.4129 3.285205,-3.1749 l 0,-5.3807 -92.9540239,0 z"
       id="rect3783"
       inkscape:connector-curvature="0" />
    <rect
       style="fill:#313131;fill-opacity:1;fill-rule:nonzero;stroke:none"
       id="rect2985-4"
       width="93"
       height="89"
       x="1.0000001"
       y="957.36218"
       ry="3.1511395" />
    <path
       style="fill:url(#radialGradient3766);fill-opacity:1;stroke:none"
       d="m 38.193082,957.36216 -19.997769,0 27.505582,42.74514 -44.7008948,-28.34223 0,20.39583 44.1473228,9.7013 -44.1473228,9.4695 0,20.1972 44.7008948,-27.9119 -27.955358,42.7452 20.136161,0 9.618304,-42.1823 9.30692,42.1823 20.066965,0 -27.574778,-42.7452 44.700895,28.276 0,-20.3296 -44.147323,-9.7012 44.147323,-9.50264 0,-20.19717 -44.700895,27.94491 27.955358,-42.74514 -20.136161,0 -9.618304,42.14915 -9.30692,-42.14915 z"
       id="path3806"
       inkscape:connector-curvature="0" />
    <path
       style="fill:#000000;fill-opacity:0.38356168;fill-rule:nonzero;stroke:none"
       d="m 1,1042.3622 0.045976,2.7457 c 0.03024,1.8058 1.461916,3.2543 3.2852054,3.2543 l 86.3836136,0 c 1.823288,0 3.285205,-1.4481 3.285205,-3.2543 l -0.04598,-2.7457 z"
       id="rect3781"
       inkscape:connector-curvature="0"
       sodipodi:nodetypes="csssscc" />
    <rect
       style="fill:#ffffff;fill-opacity:0.30000001;fill-rule:nonzero;stroke:none"
       id="rect3770"
       width="92.954033"
       height="2.000005"
       x="1.045976"
       y="1040.3622" />
    <path
       style="fill:url(#radialGradient3774);fill-opacity:1;fill-rule:evenodd;stroke:none"
       d="m 27.318529,1028.118 c -0.619305,-0.049 -1.155306,-0.6116 -1.172895,-1.2325 l -0.238555,-5.5465 c -0.0095,-0.2193 0.03894,-0.4409 0.139157,-0.6361 l 4.512666,-8.6277 c 0.101662,-0.193 0.253897,-0.3591 0.437351,-0.4771 l 4.73134,-3.0813 c 0.09901,-0.061 0.206364,-0.1074 0.318075,-0.1393 l 3.697602,-1.4313 c -0.03507,-0.1347 -0.05615,-0.2783 -0.07952,-0.4174 l -3.975918,1.6301 c -0.128262,0.04 -0.26302,0.061 -0.397591,0.06 l -6.361467,0 c -0.03973,0 -0.07955,0 -0.119273,0 -0.21119,-0.016 -0.418279,-0.084 -0.596387,-0.1988 l -9.542202,-6.3615 c -0.178783,-0.126 -0.324137,-0.2991 -0.417471,-0.497 l -3.180733,-6.36143 c -0.373102,-0.59923 -0.120237,-1.49515 0.51107,-1.81075 0.6313,-0.31561 1.499748,0.0195 1.755203,0.67758 l 3.021696,6.04331 8.965693,5.96399 5.804839,0 3.975918,-1.9083 -4.214473,-1.9682 c -0.315631,-0.105 -0.586204,-0.3389 -0.735544,-0.6362 l -3.180734,-6.36143 c -0.09073,-0.1777 -0.13883,-0.37699 -0.139157,-0.57653 l 0,-9.54218 c 0.0028,-0.27069 0.09488,-0.53979 0.258435,-0.75544 l 9.5422,-12.72298 c 0.383711,-0.57421 1.273386,-0.72469 1.824615,-0.30865 0.551229,0.41617 0.650262,1.31306 0.203104,1.83943 l -9.283767,12.38492 0,8.82652 2.803022,5.60603 4.930136,1.65001 c -3.216265,-2.32223 -2.643985,-3.79699 -2.643985,-10.15847 0,-7.02662 4.27219,-12.72286 9.542202,-12.72286 5.270013,0 9.542202,5.69624 9.542202,12.72286 0,6.36148 0.605008,7.79414 -2.584346,10.11877 l 4.870497,-1.63021 2.803022,-5.60603 0,-8.82651 -9.283766,-12.38492 c -0.488315,-0.521 -0.404468,-1.4639 0.16811,-1.89057 0.572576,-0.42666 1.500084,-0.23725 1.859608,0.37968 l 9.5422,12.72298 c 0.163559,0.21565 0.255593,0.48475 0.258435,0.75544 l 0,9.54218 c -3.27e-4,0.19954 -0.04843,0.39883 -0.139157,0.57653 l -3.180734,6.36143 c -0.14934,0.2973 -0.419913,0.5312 -0.735544,0.6362 l -4.214473,1.9682 4.035557,1.9083 5.7452,0 8.945813,-5.96399 3.041577,-6.0632 c 0.284846,-0.62133 1.124434,-0.91386 1.733665,-0.60387 0.60923,0.30999 0.867165,1.16075 0.532608,1.75693 l -3.180734,6.36143 c -0.09616,0.1907 -0.241226,0.3564 -0.417471,0.4771 l -9.542202,6.3617 c -0.209672,0.1418 -0.46248,0.219 -0.715664,0.2185 l -6.361468,0 c -0.03972,0 -0.07955,0 -0.119272,0 -0.09461,-0.012 -0.18816,-0.029 -0.278314,-0.06 l -3.975918,-1.6301 c -0.02337,0.1391 -0.04444,0.2827 -0.07952,0.4174 l 3.697602,1.4313 c 0.111706,0.032 0.21906,0.078 0.318075,0.1393 l 4.73134,3.0813 c 0.183454,0.1184 0.335693,0.2841 0.437351,0.4771 l 4.512666,8.6277 c 0.100222,0.1952 0.148683,0.4168 0.139157,0.6361 l -0.238554,5.5465 c -0.01382,0.7245 -0.755271,1.3457 -1.471089,1.2325 -0.617833,-0.096 -1.110265,-0.7078 -1.073499,-1.332 l 0.218676,-5.2084 -4.174713,-8.0116 -4.293991,-2.8029 -2.703623,-0.8548 1.630126,2.7235 c 0.101577,0.1683 0.163362,0.3605 0.178916,0.5565 l 0.536749,7.3158 c 0.0081,0.1544 -0.0122,0.3101 -0.05964,0.4571 l -1.312054,4.2344 c -0.163108,0.5677 -0.764257,0.9743 -1.351811,0.9145 -0.745693,-0.082 -1.300618,-0.935 -1.073497,-1.65 l 1.232534,-4.0157 -0.49699,-6.759 -1.391571,-2.3259 c -0.01836,0.034 -0.03826,0.067 -0.05964,0.099 l -1.153015,1.9879 c -0.156601,0.2714 -0.417065,0.4814 -0.715665,0.5766 l -1.570488,0.4969 c -0.120896,0.045 -0.248746,0.072 -0.377712,0.079 -0.629477,0.048 -1.252968,-0.4459 -1.351928,-1.0693 -0.09896,-0.6235 0.341169,-1.2855 0.954337,-1.4355 l 1.113256,-0.3578 0.636147,-1.0934 -0.238555,-0.8151 -0.03976,-0.079 c -0.57119,0.2408 -1.207884,0.3777 -1.86868,0.3777 l -3.180735,0 c -0.905488,0 -1.745356,-0.2612 -2.465069,-0.6958 l -0.278314,0.4373 -0.198796,0.7952 0.616269,1.0735 1.113256,0.3579 c 0.62153,0.1459 1.069139,0.8181 0.964179,1.4479 -0.104957,0.6297 -0.746373,1.1203 -1.38165,1.0569 -0.115575,-0.012 -0.229634,-0.038 -0.337953,-0.079 l -1.570488,-0.4969 c -0.2986,-0.095 -0.559065,-0.3051 -0.715665,-0.5766 l -0.815062,-1.3915 -0.99398,1.6301 -0.49699,6.759 1.232534,4.0157 c 0.255254,0.8037 -0.513715,1.7422 -1.351811,1.65 -0.494738,-0.058 -0.936818,-0.4353 -1.073497,-0.9144 l -1.312054,-4.2344 c -0.04743,-0.1471 -0.06775,-0.3028 -0.05964,-0.4572 l 0.536748,-7.3157 c 0.01556,-0.196 0.07734,-0.3883 0.178917,-0.5566 l 1.630126,-2.7235 -2.703624,0.8548 -4.293991,2.803 -4.174712,8.0115 0.218675,5.2084 c 0.03599,0.7202 -0.652888,1.3891 -1.371692,1.332 z"
       id="path2996"
       inkscape:connector-curvature="0"
       sodipodi:nodetypes="ccccccccccccccccccsccccccccccccscccccssscccccsccccccccccccsccccccccccccccccccccccccccccccccccccccscccccsscccccscccccccccccccccccccc" />
  </g>
</svg>
