<?xml version="1.0" encoding="UTF-8" standalone="no"?>
<!-- Created with Inkscape (http://www.inkscape.org/) -->

<svg
   xmlns:dc="http://purl.org/dc/elements/1.1/"
   xmlns:cc="http://creativecommons.org/ns#"
   xmlns:rdf="http://www.w3.org/1999/02/22-rdf-syntax-ns#"
   xmlns:svg="http://www.w3.org/2000/svg"
   xmlns="http://www.w3.org/2000/svg"
   xmlns:xlink="http://www.w3.org/1999/xlink"
   xmlns:sodipodi="http://sodipodi.sourceforge.net/DTD/sodipodi-0.dtd"
   xmlns:inkscape="http://www.inkscape.org/namespaces/inkscape"
   width="96"
   height="96"
   id="svg2"
   version="1.1"
   inkscape:version="0.48.4 r9939"
   sodipodi:docname="steam.svg">
  <defs
     id="defs4">
    <linearGradient
       id="linearGradient3760">
      <stop
         style="stop-color:#333333;stop-opacity:1;"
         offset="0"
         id="stop3762" />
      <stop
         style="stop-color:#421c38;stop-opacity:1;"
         offset="1"
         id="stop3764" />
    </linearGradient>
    <linearGradient
       inkscape:collect="always"
       xlink:href="#linearGradient3760"
       id="linearGradient3766"
       x1="45"
       y1="1047.3622"
       x2="45"
       y2="957.36218"
       gradientUnits="userSpaceOnUse"
       gradientTransform="translate(0,-2003.7244)" />
  </defs>
  <sodipodi:namedview
     id="base"
     pagecolor="#ffffff"
     bordercolor="#666666"
     borderopacity="1.0"
     inkscape:pageopacity="0.0"
     inkscape:pageshadow="2"
     inkscape:zoom="5.90625"
     inkscape:cx="55.304753"
     inkscape:cy="48"
     inkscape:document-units="px"
     inkscape:current-layer="layer1"
     showgrid="true"
     inkscape:snap-page="true"
     inkscape:snap-global="true"
     inkscape:snap-center="true"
     inkscape:snap-object-midpoints="false"
     showguides="true"
     inkscape:guide-bbox="true"
     inkscape:snap-bbox="true"
     inkscape:object-paths="true"
     inkscape:object-nodes="true"
     inkscape:window-width="1305"
     inkscape:window-height="744"
     inkscape:window-x="61"
     inkscape:window-y="24"
     inkscape:window-maximized="1"
     inkscape:snap-midpoints="false"
     inkscape:snap-grids="true"
     inkscape:snap-to-guides="false">
    <inkscape:grid
       type="xygrid"
       id="grid3002"
       empspacing="5"
       visible="true"
       enabled="true"
       snapvisiblegridlinesonly="true" />
  </sodipodi:namedview>
  <metadata
     id="metadata7">
    <rdf:RDF>
      <cc:Work
         rdf:about="">
        <dc:format>image/svg+xml</dc:format>
        <dc:type
           rdf:resource="http://purl.org/dc/dcmitype/StillImage" />
        <dc:title />
      </cc:Work>
    </rdf:RDF>
  </metadata>
  <g
     inkscape:label="Layer 1"
     inkscape:groupmode="layer"
     id="layer1"
     transform="translate(0,-956.36218)">
    <rect
       style="fill:#ffffff;fill-opacity:0;fill-rule:nonzero;stroke:none"
       id="rect3775"
       width="96"
       height="96"
       x="0"
       y="956.36218"
       ry="0" />
    <path
       style="fill:#000000;fill-opacity:0.09589041;fill-rule:nonzero;stroke:none"
       d="m 3.353015,956.30662 c -1.884176,0 -3.4111555,1.43156 -3.4111555,3.19799 l 0,83.65949 c 0,1.7665 1.5269795,3.1981 3.4111555,3.1981 l 89.23583,0 c 1.884174,0 3.411155,-1.4316 3.411155,-3.1981 l 0,-83.65949 c 0,-1.76643 -1.526981,-3.19799 -3.411155,-3.19799 z"
       id="rect3772"
       inkscape:connector-curvature="0"
       sodipodi:nodetypes="sssssssss" />
    <path
       style="fill:#000000;fill-opacity:0.18721463;fill-rule:nonzero;stroke:none"
       d="m 1.0459761,1041.8066 0,7.4219 c 0,1.7392 1.461916,3.1337 3.2852054,3.1337 l 86.3836135,0 c 1.823288,0 3.285205,-1.3945 3.285205,-3.1337 l 0,-7.4219 -92.9540239,0 z"
       id="rect3785"
       inkscape:connector-curvature="0" />
    <path
       style="fill:#000000;fill-opacity:0.38356168;fill-rule:nonzero;stroke:none"
       d="m 1.0459761,1041.8066 0,5.3807 c 0,1.762 1.461916,3.1749 3.2852054,3.1749 l 86.3836135,0 c 1.823288,0 3.285205,-1.4129 3.285205,-3.1749 l 0,-5.3807 -92.9540239,0 z"
       id="rect3783"
       inkscape:connector-curvature="0" />
    <rect
       style="fill:url(#linearGradient3766);fill-opacity:1;fill-rule:nonzero;stroke:none"
       id="rect2985"
       width="92.954025"
       height="89"
       x="1.045977"
       y="-1046.3622"
       ry="3.1511393"
       transform="scale(1,-1)" />
    <path
       style="color:#000000;fill:#ffffff;fill-opacity:1;fill-rule:nonzero;stroke:none;stroke-width:1.5;marker:none;visibility:visible;display:inline;overflow:visible;enable-background:accumulate"
       id="path3907"
       inkscape:connector-curvature="0"
       d="m 72.150856,977.1158 c -5.196177,0.2332 -9.240089,4.51418 -9.310466,9.67618 l -6.550578,9.0777 c -0.110278,10e-5 -0.221259,0 -0.332516,0 -1.338505,0.06 -2.567965,0.492 -3.62443,1.1638 L 25,985.36218 c -0.71741,-3.3625 -3.65419,-5.88548 -7.21561,-5.88548 -4.09837,0 -7.41512,3.32758 -7.41512,7.44828 0,4.1208 3.31675,7.4817 7.41512,7.4817 1.47045,0 2.83808,-0.452 3.9902,-1.1971 l 27.266356,11.67132 c 0.74342,3.502 3.9054,6.0506 7.581383,5.8856 3.927367,-0.1763 7.001449,-3.3869 7.082604,-7.2821 l 8.911446,-6.71692 c 0.144594,-10e-5 0.2864,0.01 0.432272,0 5.391844,-0.242 9.553814,-4.8534 9.310465,-10.2747 -0.243349,-5.4214 -4.816415,-9.61898 -10.20826,-9.37698 z m 0.166258,3.09238 c 3.691552,-0.1657 6.81624,2.7058 6.982849,6.4176 0.16661,3.7117 -2.692767,6.8504 -6.384319,7.0161 -3.691552,0.1657 -6.81624,-2.7059 -6.982849,-6.4176 -0.16661,-3.7117 2.692767,-6.8504 6.384319,-7.0161 z m -55.131254,0.8313 c 0.19766,-0.02 0.39557,0 0.59853,0 2.40956,0 4.47691,1.4463 5.38677,3.5247 l -3.72419,-1.5961 a 4.2566385,4.2566385 0 0 0 -2.09485,-0.3658 4.2566385,4.2566385 0 0 0 -1.26356,8.1799 l 3.85719,1.6626 c -0.66654,0.2639 -1.40235,0.399 -2.16136,0.399 -3.24734,0 -5.88554,-2.6537 -5.88554,-5.9188 0,-3.061 2.32207,-5.5828 5.28701,-5.8855 z m 55.197757,0.9643 c -2.707164,0.1215 -4.810669,2.432 -4.688484,5.154 0.122185,2.722 2.413592,4.8432 5.120756,4.7217 2.707164,-0.1215 4.81067,-2.432 4.688484,-5.154 -0.122185,-2.7219 -2.413592,-4.8432 -5.120756,-4.7217 z m -16.359818,15.3955 c 3.244107,-0.1456 6.005144,2.39102 6.151558,5.65282 0.146414,3.2618 -2.375425,6.0392 -5.619531,6.1848 -2.506867,0.1125 -4.71543,-1.3702 -5.65278,-3.5579 l 3.624428,1.5295 a 4.2566385,4.2566385 0 1 0 3.358418,-7.8141 l -3.724186,-1.59612 c 0.581718,-0.2295 1.201976,-0.3694 1.862093,-0.399 z" />
    <path
       inkscape:connector-curvature="0"
       style="fill:#ffcc00;fill-opacity:1;fill-rule:nonzero;stroke:none"
       d="m 5.9821546,1026.6948 -4.9821428,9.039 0,7.4829 c 0,0.8729 0.3735832,1.6488 0.96875,2.2184 0.5951668,0.5695 1.4059828,0.9271 2.3180803,0.9271 l 0.5535714,0 10.8292415,-19.6674 -9.6875004,0 z m 17.9564724,0 -10.82924,19.6674 9.652901,0 10.863839,-19.6674 -9.6875,0 z m 17.956474,0 -10.86384,19.6674 9.687501,0 10.829236,-19.6674 -9.652897,0 z m 17.921869,0 -10.82924,19.6674 9.687499,0 10.829242,-19.6674 -9.687501,0 z m 17.956474,0 -10.829241,19.6674 9.652902,0 10.863838,-19.6674 -9.687499,0 z m 16.226562,3.1454 -9.133929,16.522 5.847098,0 c 0.912096,0 1.722914,-0.3576 2.318081,-0.9271 0.595167,-0.5696 0.96875,-1.3455 0.96875,-2.2184 l 0,-13.3765 z"
       id="path3061" />
    <path
       style="fill:#000000;fill-opacity:0.38356168;fill-rule:nonzero;stroke:none"
       d="m 1,1042.3622 0.045976,2.7457 c 0.03024,1.8058 1.461916,3.2543 3.2852054,3.2543 l 86.3836136,0 c 1.823288,0 3.285205,-1.4481 3.285205,-3.2543 l -0.04598,-2.7457 z"
       id="rect3781"
       inkscape:connector-curvature="0"
       sodipodi:nodetypes="csssscc" />
    <rect
       style="fill:#ffffff;fill-opacity:0.30000001;fill-rule:nonzero;stroke:none"
       id="rect3770"
       width="92.954033"
       height="2.000005"
       x="1.045976"
       y="1040.3622" />
  </g>
</svg>
