<?xml version="1.0" encoding="UTF-8" standalone="no"?>
<!-- Created with Inkscape (http://www.inkscape.org/) -->

<svg
   xmlns:dc="http://purl.org/dc/elements/1.1/"
   xmlns:cc="http://creativecommons.org/ns#"
   xmlns:rdf="http://www.w3.org/1999/02/22-rdf-syntax-ns#"
   xmlns:svg="http://www.w3.org/2000/svg"
   xmlns="http://www.w3.org/2000/svg"
   xmlns:xlink="http://www.w3.org/1999/xlink"
   xmlns:sodipodi="http://sodipodi.sourceforge.net/DTD/sodipodi-0.dtd"
   xmlns:inkscape="http://www.inkscape.org/namespaces/inkscape"
   width="96"
   height="96"
   id="svg2"
   version="1.1"
   inkscape:version="0.48.4 r9939"
   sodipodi:docname="stock_help.svg">
  <defs
     id="defs4">
    <linearGradient
       id="linearGradient3770">
      <stop
         style="stop-color:#004ae2;stop-opacity:1;"
         offset="0"
         id="stop3772" />
      <stop
         style="stop-color:#00bce2;stop-opacity:1;"
         offset="1"
         id="stop3774" />
    </linearGradient>
    <linearGradient
       inkscape:collect="always"
       xlink:href="#linearGradient3770"
       id="linearGradient3776"
       x1="45"
       y1="-1047.3622"
       x2="45"
       y2="-957.36218"
       gradientUnits="userSpaceOnUse" />
  </defs>
  <sodipodi:namedview
     id="base"
     pagecolor="#ffffff"
     bordercolor="#666666"
     borderopacity="1.0"
     inkscape:pageopacity="0.0"
     inkscape:pageshadow="2"
     inkscape:zoom="5.90625"
     inkscape:cx="48"
     inkscape:cy="48"
     inkscape:document-units="px"
     inkscape:current-layer="layer1"
     showgrid="true"
     inkscape:snap-page="true"
     inkscape:snap-global="true"
     inkscape:snap-center="true"
     inkscape:snap-object-midpoints="false"
     showguides="true"
     inkscape:guide-bbox="true"
     inkscape:snap-bbox="true"
     inkscape:object-paths="true"
     inkscape:object-nodes="true"
     inkscape:window-width="1305"
     inkscape:window-height="744"
     inkscape:window-x="61"
     inkscape:window-y="24"
     inkscape:window-maximized="1"
     inkscape:snap-midpoints="false"
     inkscape:snap-grids="true"
     inkscape:snap-to-guides="false">
    <inkscape:grid
       type="xygrid"
       id="grid3002"
       empspacing="5"
       visible="true"
       enabled="true"
       snapvisiblegridlinesonly="true" />
  </sodipodi:namedview>
  <metadata
     id="metadata7">
    <rdf:RDF>
      <cc:Work
         rdf:about="">
        <dc:format>image/svg+xml</dc:format>
        <dc:type
           rdf:resource="http://purl.org/dc/dcmitype/StillImage" />
        <dc:title />
      </cc:Work>
    </rdf:RDF>
  </metadata>
  <g
     inkscape:label="Layer 1"
     inkscape:groupmode="layer"
     id="layer1"
     transform="translate(0,-956.36218)">
    <rect
       style="fill:#ffffff;fill-opacity:0;fill-rule:nonzero;stroke:none"
       id="rect3775"
       width="96"
       height="96"
       x="0"
       y="956.36218"
       ry="0" />
    <path
       style="fill:#000000;fill-opacity:0.09589041;fill-rule:nonzero;stroke:none"
       d="m 3.353015,956.30662 c -1.884176,0 -3.4111555,1.43156 -3.4111555,3.19799 l 0,83.65949 c 0,1.7665 1.5269795,3.1981 3.4111555,3.1981 l 89.23583,0 c 1.884174,0 3.411155,-1.4316 3.411155,-3.1981 l 0,-83.65949 c 0,-1.76643 -1.526981,-3.19799 -3.411155,-3.19799 z"
       id="rect3772"
       inkscape:connector-curvature="0"
       sodipodi:nodetypes="sssssssss" />
    <path
       style="fill:#000000;fill-opacity:0.18721463;fill-rule:nonzero;stroke:none"
       d="m 1.0459761,1041.8066 0,7.4219 c 0,1.7392 1.461916,3.1337 3.2852054,3.1337 l 86.3836135,0 c 1.823288,0 3.285205,-1.3945 3.285205,-3.1337 l 0,-7.4219 -92.9540239,0 z"
       id="rect3785"
       inkscape:connector-curvature="0" />
    <path
       style="fill:#000000;fill-opacity:0.38356168;fill-rule:nonzero;stroke:none"
       d="m 1.0459761,1041.8066 0,5.3807 c 0,1.762 1.461916,3.1749 3.2852054,3.1749 l 86.3836135,0 c 1.823288,0 3.285205,-1.4129 3.285205,-3.1749 l 0,-5.3807 -92.9540239,0 z"
       id="rect3783"
       inkscape:connector-curvature="0" />
    <rect
       style="fill:url(#linearGradient3776);fill-opacity:1;fill-rule:nonzero;stroke:none"
       id="rect2985"
       width="92.954025"
       height="89"
       x="1.045977"
       y="-1046.3622"
       ry="3.1511393"
       transform="scale(1,-1)" />
    <path
       style="fill:#000000;fill-opacity:0.38356168;fill-rule:nonzero;stroke:none"
       d="m 1,1042.3622 0.045976,2.7457 c 0.03024,1.8058 1.461916,3.2543 3.2852054,3.2543 l 86.3836136,0 c 1.823288,0 3.285205,-1.4481 3.285205,-3.2543 l -0.04598,-2.7457 z"
       id="rect3781"
       inkscape:connector-curvature="0"
       sodipodi:nodetypes="csssscc" />
    <rect
       style="fill:#ffffff;fill-opacity:0.30000001;fill-rule:nonzero;stroke:none"
       id="rect3770"
       width="92.954033"
       height="2.000005"
       x="1.045976"
       y="1040.3622" />
    <path
       inkscape:connector-curvature="0"
       style="fill:#ffffff;fill-opacity:1;fill-rule:nonzero;stroke:none"
       d="m 47.322752,968.83091 c -15.75503,0 -28.53125,12.77621 -28.53125,28.53129 0,15.755 12.77622,28.5313 28.53125,28.5313 15.75503,0 28.53125,-12.7763 28.53125,-28.5313 0,-15.75507 -12.77622,-28.53129 -28.53125,-28.53129 z m 0,12.15625 c 9.05072,0 16.40625,7.32428 16.40625,16.37504 0,9.0507 -7.35553,16.375 -16.40625,16.375 -9.05072,0 -16.375,-7.3243 -16.375,-16.375 0,-9.05076 7.32428,-16.37504 16.375,-16.37504 z"
       id="path3759" />
    <g
       transform="translate(-0.67724868,-7)"
       id="g3804"
       style="fill:#ffd42a;fill-opacity:1">
      <path
         id="path3784"
         d="m 48,1020.7372 0,12.1563 c 1.96938,0 3.89284,-0.2137 5.75,-0.5938 1.85716,-0.3801 3.63709,-0.9343 5.34375,-1.6562 1.70666,-0.722 3.32585,-1.5995 4.84375,-2.625 1.5179,-1.0256 2.95914,-2.1779 4.25,-3.4688 1.29086,-1.2909 2.4432,-2.7321 3.46875,-4.25 1.02555,-1.5179 1.90303,-3.1371 2.625,-4.8437 0.72197,-1.7067 1.27613,-3.4866 1.65625,-5.3438 0.38012,-1.8572 0.59375,-3.7806 0.59375,-5.75 l -12.125,0 c 0,1.1313 -0.12495,2.246 -0.34375,3.3125 -0.2188,1.0665 -0.522,2.0828 -0.9375,3.0625 -0.4155,0.9797 -0.94117,1.9102 -1.53125,2.7813 -0.59008,0.871 -1.25744,1.6968 -2,2.4375 -0.74256,0.7406 -1.56458,1.4117 -2.4375,2 -0.87292,0.5882 -1.80008,1.0859 -2.78125,1.5 -0.98117,0.414 -1.99519,0.7195 -3.0625,0.9375 -1.06731,0.2179 -2.18116,0.3437 -3.3125,0.3437 z"
         style="fill:#ffd42a;fill-opacity:1;fill-rule:nonzero;stroke:none"
         inkscape:connector-curvature="0" />
      <path
         id="path3778"
         d="m 48,975.83091 c -1.96938,0 -3.89284,0.21362 -5.75,0.59375 -1.85716,0.38012 -3.63709,0.93427 -5.34375,1.65625 -1.70666,0.72197 -3.32585,1.59945 -4.84375,2.625 -1.5179,1.02554 -2.95914,2.17789 -4.25,3.46875 -1.29086,1.29085 -2.4432,2.73211 -3.46875,4.25 -1.02555,1.51788 -1.90303,3.13708 -2.625,4.84375 -0.72197,1.70666 -1.27613,3.48658 -1.65625,5.34375 -0.38012,1.85714 -0.59375,3.78064 -0.59375,5.75004 l 12.15625,0 c 0,-1.1313 0.1258,-2.2461 0.34375,-3.3125 0.21795,-1.0665 0.52347,-2.08285 0.9375,-3.06254 0.41403,-0.9797 0.91175,-1.91017 1.5,-2.78125 0.58825,-0.87109 1.2594,-1.69691 2,-2.4375 0.7406,-0.7406 1.56641,-1.41175 2.4375,-2 0.87109,-0.58825 1.80155,-1.08597 2.78125,-1.5 0.9797,-0.41404 1.99604,-0.71956 3.0625,-0.9375 1.06646,-0.21795 2.18116,-0.34375 3.3125,-0.34375 l 0,-12.15625 z"
         style="fill:#ffd42a;fill-opacity:1;fill-rule:nonzero;stroke:none"
         inkscape:connector-curvature="0" />
    </g>
  </g>
</svg>
