<?xml version="1.0" encoding="UTF-8" standalone="no"?>
<!-- Created with Inkscape (http://www.inkscape.org/) -->

<svg
   xmlns:dc="http://purl.org/dc/elements/1.1/"
   xmlns:cc="http://creativecommons.org/ns#"
   xmlns:rdf="http://www.w3.org/1999/02/22-rdf-syntax-ns#"
   xmlns:svg="http://www.w3.org/2000/svg"
   xmlns="http://www.w3.org/2000/svg"
   xmlns:xlink="http://www.w3.org/1999/xlink"
   xmlns:sodipodi="http://sodipodi.sourceforge.net/DTD/sodipodi-0.dtd"
   xmlns:inkscape="http://www.inkscape.org/namespaces/inkscape"
   width="96"
   height="96"
   id="svg2"
   version="1.1"
   inkscape:version="0.48.4 r9939"
   sodipodi:docname="sublime_text.svg">
  <defs
     id="defs4">
    <linearGradient
       id="linearGradient3839">
      <stop
         style="stop-color:#1c1c1c;stop-opacity:1;"
         offset="0"
         id="stop3841" />
      <stop
         style="stop-color:#404040;stop-opacity:1;"
         offset="1"
         id="stop3843" />
    </linearGradient>
    <linearGradient
       inkscape:collect="always"
       xlink:href="#linearGradient3839"
       id="linearGradient3845"
       x1="40"
       y1="1047.3622"
       x2="40"
       y2="957.36218"
       gradientUnits="userSpaceOnUse" />
  </defs>
  <sodipodi:namedview
     id="base"
     pagecolor="#ffffff"
     bordercolor="#666666"
     borderopacity="1.0"
     inkscape:pageopacity="0.0"
     inkscape:pageshadow="2"
     inkscape:zoom="5.90625"
     inkscape:cx="48"
     inkscape:cy="48"
     inkscape:document-units="px"
     inkscape:current-layer="layer1"
     showgrid="true"
     inkscape:snap-page="true"
     inkscape:snap-global="true"
     inkscape:snap-center="true"
     inkscape:snap-object-midpoints="false"
     showguides="true"
     inkscape:guide-bbox="true"
     inkscape:snap-bbox="true"
     inkscape:object-paths="true"
     inkscape:object-nodes="true"
     inkscape:window-width="1305"
     inkscape:window-height="744"
     inkscape:window-x="61"
     inkscape:window-y="24"
     inkscape:window-maximized="1"
     inkscape:snap-midpoints="true"
     inkscape:snap-grids="true"
     inkscape:snap-to-guides="false">
    <inkscape:grid
       type="xygrid"
       id="grid3002"
       empspacing="5"
       visible="true"
       enabled="true"
       snapvisiblegridlinesonly="true" />
  </sodipodi:namedview>
  <metadata
     id="metadata7">
    <rdf:RDF>
      <cc:Work
         rdf:about="">
        <dc:format>image/svg+xml</dc:format>
        <dc:type
           rdf:resource="http://purl.org/dc/dcmitype/StillImage" />
        <dc:title />
      </cc:Work>
    </rdf:RDF>
  </metadata>
  <g
     inkscape:label="Layer 1"
     inkscape:groupmode="layer"
     id="layer1"
     transform="translate(0,-956.36218)">
    <rect
       style="fill:#ffffff;fill-opacity:0;fill-rule:nonzero;stroke:none"
       id="rect3775"
       width="96"
       height="96"
       x="0"
       y="956.36218"
       ry="0" />
    <path
       style="fill:#000000;fill-opacity:0.09589041;fill-rule:nonzero;stroke:none"
       d="m 3.353015,956.30662 c -1.884176,0 -3.4111555,1.43156 -3.4111555,3.19799 l 0,83.65949 c 0,1.7665 1.5269795,3.1981 3.4111555,3.1981 l 89.23583,0 c 1.884174,0 3.411155,-1.4316 3.411155,-3.1981 l 0,-83.65949 c 0,-1.76643 -1.526981,-3.19799 -3.411155,-3.19799 z"
       id="rect3772"
       inkscape:connector-curvature="0"
       sodipodi:nodetypes="sssssssss" />
    <path
       style="fill:#000000;fill-opacity:0.18721463;fill-rule:nonzero;stroke:none"
       d="m 1.0459761,1041.8066 0,7.4219 c 0,1.7392 1.461916,3.1337 3.2852054,3.1337 l 86.3836135,0 c 1.823288,0 3.285205,-1.3945 3.285205,-3.1337 l 0,-7.4219 -92.9540239,0 z"
       id="rect3785"
       inkscape:connector-curvature="0" />
    <path
       style="fill:#000000;fill-opacity:0.38356168;fill-rule:nonzero;stroke:none"
       d="m 1.0459761,1041.8066 0,5.3807 c 0,1.762 1.461916,3.1749 3.2852054,3.1749 l 86.3836135,0 c 1.823288,0 3.285205,-1.4129 3.285205,-3.1749 l 0,-5.3807 -92.9540239,0 z"
       id="rect3783"
       inkscape:connector-curvature="0" />
    <rect
       style="fill:url(#linearGradient3845);fill-opacity:1;fill-rule:nonzero;stroke:none"
       id="rect2985"
       width="92.954025"
       height="89"
       x="1.045977"
       y="957.36218"
       ry="3.1511393" />
    <path
       style="fill:#000000;fill-opacity:0.38356168;fill-rule:nonzero;stroke:none"
       d="m 1,1042.3622 0.045976,2.7457 c 0.03024,1.8058 1.461916,3.2543 3.2852054,3.2543 l 86.3836136,0 c 1.823288,0 3.285205,-1.4481 3.285205,-3.2543 l -0.04598,-2.7457 z"
       id="rect3781"
       inkscape:connector-curvature="0"
       sodipodi:nodetypes="csssscc" />
    <rect
       style="fill:#ffffff;fill-opacity:0.15686275;fill-rule:nonzero;stroke:none"
       id="rect3770"
       width="92.954033"
       height="2.000005"
       x="1.045976"
       y="1040.3622" />
    <g
       transform="matrix(-1,0,0,1,0,-5)"
       style="font-size:80.54761505px;font-style:normal;font-variant:normal;font-weight:normal;font-stretch:normal;text-align:end;line-height:125%;letter-spacing:0px;word-spacing:0px;text-anchor:end;fill:#ff7f2a;fill-opacity:0.28767126;stroke:none;font-family:mry_KacstQurn;-inkscape-font-specification:mry_KacstQurn"
       id="text3758">
      <path
         d="m -57.62544,1016.5249 c -1e-5,0.4833 0.08054,1.3424 0.241643,2.5775 0.214783,1.1814 0.64437,2.3896 1.288762,3.6246 0.644368,1.1814 1.610939,2.2554 2.899714,3.2219 1.288746,0.9129 3.033943,1.3694 5.235595,1.3693 2.738596,10e-5 5.020776,-0.886 6.846547,-2.658 1.825718,-1.7721 2.73859,-4.2422 2.738619,-7.4104 -2.9e-5,-1.6646 -0.322219,-3.0339 -0.966571,-4.1079 -0.590711,-1.074 -1.369337,-1.96 -2.335881,-2.6581 -0.912898,-0.6981 -1.933167,-1.2619 -3.060809,-1.6915 -1.127689,-0.4296 -2.201656,-0.8592 -3.221905,-1.2888 -1.986859,-0.7517 -3.651508,-1.3961 -4.993952,-1.9331 -1.288776,-0.537 -2.389592,-1.0471 -3.302452,-1.5304 -0.912884,-0.4833 -1.69151,-0.9666 -2.335881,-1.4499 -0.64439,-0.5369 -1.315619,-1.1276 -2.013691,-1.772 -1.396164,-1.34244 -2.416433,-3.00709 -3.060809,-4.99397 -0.644384,-2.0405 -0.966574,-4.10789 -0.966571,-6.20217 -3e-6,-1.7183 0.322187,-3.51719 0.966571,-5.39669 0.698075,-1.93309 1.745193,-3.67828 3.141357,-5.23559 1.39615,-1.6109 3.114497,-2.92651 5.155047,-3.94683 2.094224,-1.07391 4.564348,-1.6109 7.410381,-1.61096 2.470105,6e-5 4.752285,0.4028 6.846547,1.20822 2.094209,0.75183 3.893104,1.85265 5.39669,3.30245 1.503522,1.44991 2.684886,3.19511 3.544096,5.23559 0.859138,2.04059 1.288724,4.32277 1.288761,6.84655 l -8.699142,0 c -2.8e-5,-1.6646 -0.26852,-3.03391 -0.805476,-4.10793 -0.537011,-1.12761 -1.23509,-2.01364 -2.094238,-2.65807 -0.805501,-0.69803 -1.718373,-1.18131 -2.738619,-1.44985 -0.966593,-0.26844 -1.879465,-0.40269 -2.738619,-0.40274 -1.28878,5e-5 -2.443295,0.26854 -3.463547,0.80547 -0.966587,0.48334 -1.798912,1.12772 -2.496977,1.93315 -0.644394,0.80552 -1.154528,1.69154 -1.530404,2.65807 -0.322203,0.96662 -0.483298,1.87949 -0.483286,2.73862 -1.2e-5,1.4499 0.295329,2.65811 0.886024,3.62464 0.590669,0.91291 1.288748,1.66469 2.094238,2.25533 0.859159,0.59072 1.745182,1.07401 2.658071,1.44986 0.912855,0.37592 1.691481,0.67127 2.335881,0.88602 1.879423,0.69812 3.893111,1.44989 6.041071,2.25533 2.147909,0.7518 4.107899,1.8258 5.879976,3.2219 1.825712,1.3425 3.329266,3.1145 4.510666,5.3162 1.235026,2.2016 1.852558,5.1013 1.852596,8.6991 -3.8e-5,2.5775 -0.456475,4.9671 -1.36931,7.1687 -0.85921,2.2017 -2.094272,4.108 -3.70519,5.7189 -1.557286,1.611 -3.463577,2.8729 -5.718881,3.7858 -2.255358,0.9128 -4.752332,1.3693 -7.490928,1.3693 -2.040557,0 -4.161642,-0.3491 -6.363262,-1.0472 -2.147947,-0.698 -4.107937,-1.7989 -5.879976,-3.3024 -1.772053,-1.5573 -3.248758,-3.5172 -4.430118,-5.88 -1.127669,-2.3627 -1.691502,-5.2087 -1.6915,-8.538 l 8.699142,0"
         style="fill:#ff7f2a;font-family:AvantGarde LT Medium;-inkscape-font-specification:AvantGarde LT Medium"
         id="path3766"
         inkscape:connector-curvature="0" />
    </g>
    <g
       transform="translate(0,-5)"
       style="font-size:80.54761505px;font-style:normal;font-variant:normal;font-weight:normal;font-stretch:normal;text-align:end;line-height:125%;letter-spacing:0px;word-spacing:0px;text-anchor:end;fill:#ff7f2a;fill-opacity:1;stroke:none;font-family:mry_KacstQurn;-inkscape-font-specification:mry_KacstQurn"
       id="text3754">
      <path
         d="m 38.37456,1016.5249 c -1e-5,0.4833 0.08054,1.3424 0.241643,2.5775 0.214783,1.1814 0.64437,2.3896 1.288762,3.6246 0.644368,1.1814 1.610939,2.2554 2.899714,3.2219 1.288746,0.9129 3.033943,1.3694 5.235595,1.3693 2.738596,10e-5 5.020776,-0.886 6.846547,-2.658 1.825718,-1.7721 2.73859,-4.2422 2.738619,-7.4104 -2.9e-5,-1.6646 -0.322219,-3.0339 -0.966571,-4.1079 -0.590711,-1.074 -1.369337,-1.96 -2.335881,-2.6581 -0.912898,-0.6981 -1.933167,-1.2619 -3.060809,-1.6915 -1.127689,-0.4296 -2.201656,-0.8592 -3.221905,-1.2888 -1.986859,-0.7517 -3.651508,-1.3961 -4.993952,-1.9331 -1.288776,-0.537 -2.389592,-1.0471 -3.302452,-1.5304 -0.912884,-0.4833 -1.69151,-0.9666 -2.335881,-1.4499 -0.64439,-0.5369 -1.315619,-1.1276 -2.013691,-1.772 -1.396164,-1.34244 -2.416433,-3.00709 -3.060809,-4.99397 -0.644384,-2.0405 -0.966574,-4.10789 -0.966571,-6.20217 -3e-6,-1.7183 0.322187,-3.51719 0.966571,-5.39669 0.698075,-1.93309 1.745193,-3.67828 3.141357,-5.23559 1.39615,-1.6109 3.114497,-2.92651 5.155047,-3.94683 2.094224,-1.07391 4.564348,-1.6109 7.410381,-1.61096 2.470105,6e-5 4.752285,0.4028 6.846547,1.20822 2.094209,0.75183 3.893104,1.85265 5.39669,3.30245 1.503522,1.44991 2.684886,3.19511 3.544096,5.23559 0.859138,2.04059 1.288724,4.32277 1.288761,6.84655 l -8.699142,0 c -2.8e-5,-1.6646 -0.26852,-3.03391 -0.805476,-4.10793 -0.537011,-1.12761 -1.23509,-2.01364 -2.094238,-2.65807 -0.805501,-0.69803 -1.718373,-1.18131 -2.738619,-1.44985 -0.966593,-0.26844 -1.879465,-0.40269 -2.738619,-0.40274 -1.28878,5e-5 -2.443295,0.26854 -3.463547,0.80547 -0.966587,0.48334 -1.798912,1.12772 -2.496977,1.93315 -0.644394,0.80552 -1.154528,1.69154 -1.530404,2.65807 -0.322203,0.96662 -0.483298,1.87949 -0.483286,2.73862 -1.2e-5,1.4499 0.295329,2.65811 0.886024,3.62464 0.590669,0.91291 1.288748,1.66469 2.094238,2.25533 0.859159,0.59072 1.745182,1.07401 2.658071,1.44986 0.912855,0.37592 1.691481,0.67127 2.335881,0.88602 1.879423,0.69812 3.893111,1.44989 6.041071,2.25533 2.147909,0.7518 4.107899,1.8258 5.879976,3.2219 1.825712,1.3425 3.329266,3.1145 4.510666,5.3162 1.235026,2.2016 1.852558,5.1013 1.852596,8.6991 -3.8e-5,2.5775 -0.456475,4.9671 -1.36931,7.1687 -0.85921,2.2017 -2.094272,4.108 -3.70519,5.7189 -1.557286,1.611 -3.463577,2.8729 -5.718881,3.7858 -2.255358,0.9128 -4.752332,1.3693 -7.490928,1.3693 -2.040557,0 -4.161642,-0.3491 -6.363262,-1.0472 -2.147947,-0.698 -4.107937,-1.7989 -5.879976,-3.3024 -1.772053,-1.5573 -3.248758,-3.5172 -4.430118,-5.88 -1.127669,-2.3627 -1.691502,-5.2087 -1.6915,-8.538 l 8.699142,0"
         style="fill:#ff7f2a;font-family:AvantGarde LT Medium;-inkscape-font-specification:AvantGarde LT Medium"
         id="path3763"
         inkscape:connector-curvature="0" />
    </g>
  </g>
</svg>
