<?xml version="1.0" encoding="UTF-8" standalone="no"?>
<!-- Created with Inkscape (http://www.inkscape.org/) -->

<svg
   xmlns:dc="http://purl.org/dc/elements/1.1/"
   xmlns:cc="http://creativecommons.org/ns#"
   xmlns:rdf="http://www.w3.org/1999/02/22-rdf-syntax-ns#"
   xmlns:svg="http://www.w3.org/2000/svg"
   xmlns="http://www.w3.org/2000/svg"
   xmlns:sodipodi="http://sodipodi.sourceforge.net/DTD/sodipodi-0.dtd"
   xmlns:inkscape="http://www.inkscape.org/namespaces/inkscape"
   width="96"
   height="96"
   id="svg2"
   version="1.1"
   inkscape:version="0.48.4 r9939"
   sodipodi:docname="supercollinder.svg">
  <defs
     id="defs4" />
  <sodipodi:namedview
     id="base"
     pagecolor="#ffffff"
     bordercolor="#666666"
     borderopacity="1.0"
     inkscape:pageopacity="0.0"
     inkscape:pageshadow="2"
     inkscape:zoom="5.90625"
     inkscape:cx="40.842919"
     inkscape:cy="48"
     inkscape:document-units="px"
     inkscape:current-layer="layer1"
     showgrid="true"
     inkscape:snap-page="true"
     inkscape:snap-global="true"
     inkscape:snap-center="true"
     inkscape:snap-object-midpoints="false"
     showguides="true"
     inkscape:guide-bbox="true"
     inkscape:snap-bbox="true"
     inkscape:object-paths="true"
     inkscape:object-nodes="true"
     inkscape:window-width="1305"
     inkscape:window-height="744"
     inkscape:window-x="61"
     inkscape:window-y="24"
     inkscape:window-maximized="1"
     inkscape:snap-midpoints="false"
     inkscape:snap-grids="true"
     inkscape:snap-to-guides="false">
    <inkscape:grid
       type="xygrid"
       id="grid3002"
       empspacing="5"
       visible="true"
       enabled="true"
       snapvisiblegridlinesonly="true" />
  </sodipodi:namedview>
  <metadata
     id="metadata7">
    <rdf:RDF>
      <cc:Work
         rdf:about="">
        <dc:format>image/svg+xml</dc:format>
        <dc:type
           rdf:resource="http://purl.org/dc/dcmitype/StillImage" />
        <dc:title />
      </cc:Work>
    </rdf:RDF>
  </metadata>
  <g
     inkscape:label="Layer 1"
     inkscape:groupmode="layer"
     id="layer1"
     transform="translate(0,-956.36218)">
    <rect
       style="fill:#ffffff;fill-opacity:0;fill-rule:nonzero;stroke:none"
       id="rect3775"
       width="96"
       height="96"
       x="0"
       y="956.36218"
       ry="0" />
    <path
       style="fill:#000000;fill-opacity:0.09589041;fill-rule:nonzero;stroke:none"
       d="m 3.353015,956.30662 c -1.884176,0 -3.4111555,1.43156 -3.4111555,3.19799 l 0,83.65949 c 0,1.7665 1.5269795,3.1981 3.4111555,3.1981 l 89.23583,0 c 1.884174,0 3.411155,-1.4316 3.411155,-3.1981 l 0,-83.65949 c 0,-1.76643 -1.526981,-3.19799 -3.411155,-3.19799 z"
       id="rect3772"
       inkscape:connector-curvature="0"
       sodipodi:nodetypes="sssssssss" />
    <path
       style="fill:#000000;fill-opacity:0.18721463;fill-rule:nonzero;stroke:none"
       d="m 1.0459761,1041.8066 0,7.4219 c 0,1.7392 1.461916,3.1337 3.2852054,3.1337 l 86.3836135,0 c 1.823288,0 3.285205,-1.3945 3.285205,-3.1337 l 0,-7.4219 -92.9540239,0 z"
       id="rect3785"
       inkscape:connector-curvature="0" />
    <path
       style="fill:#000000;fill-opacity:0.38356168;fill-rule:nonzero;stroke:none"
       d="m 1.0459761,1041.8066 0,5.3807 c 0,1.762 1.461916,3.1749 3.2852054,3.1749 l 86.3836135,0 c 1.823288,0 3.285205,-1.4129 3.285205,-3.1749 l 0,-5.3807 -92.9540239,0 z"
       id="rect3783"
       inkscape:connector-curvature="0" />
    <rect
       style="fill:#ff9900;fill-opacity:1;fill-rule:nonzero;stroke:none"
       id="rect2985"
       width="92.954025"
       height="89"
       x="1.045977"
       y="957.36218"
       ry="3.1511393" />
    <path
       style="fill:#000000;fill-opacity:0.38356168;fill-rule:nonzero;stroke:none"
       d="m 1,1042.3622 0.045976,2.7457 c 0.03024,1.8058 1.461916,3.2543 3.2852054,3.2543 l 86.3836136,0 c 1.823288,0 3.285205,-1.4481 3.285205,-3.2543 l -0.04598,-2.7457 z"
       id="rect3781"
       inkscape:connector-curvature="0"
       sodipodi:nodetypes="csssscc" />
    <rect
       style="fill:#ffffff;fill-opacity:0.30000001;fill-rule:nonzero;stroke:none"
       id="rect3770"
       width="92.954033"
       height="2.000005"
       x="1.045976"
       y="1040.3622" />
    <path
       style="font-size:medium;font-style:normal;font-variant:normal;font-weight:normal;font-stretch:normal;text-indent:0;text-align:start;text-decoration:none;line-height:normal;letter-spacing:normal;word-spacing:normal;text-transform:none;direction:ltr;block-progression:tb;writing-mode:lr-tb;text-anchor:start;baseline-shift:baseline;color:#000000;fill:#000000;fill-opacity:1;stroke:none;stroke-width:4.40246915999999988;marker:none;visibility:visible;display:inline;overflow:visible;enable-background:accumulate;font-family:Sans;-inkscape-font-specification:Sans;opacity:0.58436214"
       d="m 1.03125,976.48718 0,8.21875 c 12.729384,-14.30412 38.419347,-19.54065 57.970151,-10.34375 18.216618,8.56928 25.065005,27.57392 13.753123,41.75002 -10.034117,12.5748 -32.122949,17.2743 -48.505637,9.3437 -14.3300766,-6.9369 -19.6731736,-22.0437 -10.462725,-33.18747 7.914867,-9.5762 24.99534,-13.14608 37.451379,-6.84375 10.458452,5.29161 14.304347,16.55002 7.209299,24.65622 -5.771263,6.5938 -17.877588,9.0008 -26.397123,4.3438 -6.617567,-3.6173 -8.971459,-11.0059 -4.029813,-16.06252 3.564765,-3.64775 10.712201,-4.9546 15.268924,-2 1.425369,0.92421 2.413566,2.39891 2.661895,3.81252 0.24833,1.4135 -0.134735,2.6384 -1.44186,3.625 -0.488895,0.369 -1.583712,0.6906 -2.403099,0.75 a 3.3581031,2.5951031 0 0 0 -0.850328,-4.1563 c -1.206367,-0.49589 -3.115666,-0.65831 -4.510432,-0.062 -1.394767,0.5958 -1.979291,1.4945 -2.292187,2.2188 -0.625794,1.4484 -0.761124,2.5924 0.406678,4.1875 1.609598,2.1984 4.78211,3.1515 7.431123,3.0625 2.649012,-0.089 5.059687,-0.9132 6.913532,-2.3125 2.927227,-2.2095 3.92081,-5.2533 3.43828,-8.00002 -0.482528,-2.7467 -2.315563,-5.31829 -5.101964,-7.125 -7.805158,-5.0609 -19.213534,-2.96255 -24.918292,2.875 -7.413169,7.58572 -3.948715,18.22742 5.582584,23.43752 11.802167,6.4513 28.043417,3.234 35.824666,-5.6563 9.318858,-10.647 4.341657,-25.08912 -9.131777,-31.90622 -15.746862,-7.96737 -36.942984,-3.58828 -46.8049819,8.34375 -11.313645,13.68847 -4.7981498,32.01187 12.6070289,40.43747 19.676926,9.5252 45.841586,3.9054 57.785297,-11.0625 6.671959,-8.3614 7.99541,-18.0901 4.991053,-26.96872 -2.987887,-8.82991 -10.280653,-16.82111 -20.851509,-21.84375 l -0.147883,-0.0937 C 42.35895,960.46111 16.840964,964.08541 1.03125,976.48718 z"
       id="path3003"
       inkscape:connector-curvature="0" />
  </g>
</svg>
