<?xml version="1.0" encoding="UTF-8" standalone="no"?>
<!-- Created with Inkscape (http://www.inkscape.org/) -->

<svg
   xmlns:dc="http://purl.org/dc/elements/1.1/"
   xmlns:cc="http://creativecommons.org/ns#"
   xmlns:rdf="http://www.w3.org/1999/02/22-rdf-syntax-ns#"
   xmlns:svg="http://www.w3.org/2000/svg"
   xmlns="http://www.w3.org/2000/svg"
   xmlns:xlink="http://www.w3.org/1999/xlink"
   xmlns:sodipodi="http://sodipodi.sourceforge.net/DTD/sodipodi-0.dtd"
   xmlns:inkscape="http://www.inkscape.org/namespaces/inkscape"
   width="96"
   height="96"
   id="svg2"
   version="1.1"
   inkscape:version="0.48.4 r9939"
   sodipodi:docname="supertux.svg">
  <defs
     id="defs4">
    <radialGradient
       inkscape:collect="always"
       xlink:href="#linearGradient3798"
       id="radialGradient3816"
       gradientUnits="userSpaceOnUse"
       gradientTransform="matrix(0.57778134,0.19791909,-0.28867221,0.64520378,-18.160265,5.0912854)"
       cx="-38.238544"
       cy="-6.9810567"
       fx="-38.238544"
       fy="-6.9810567"
       r="10.483341" />
    <linearGradient
       id="linearGradient3798">
      <stop
         style="stop-color:#000000;stop-opacity:1;"
         offset="0"
         id="stop3800" />
      <stop
         id="stop3808"
         offset="0.40072572"
         style="stop-color:#000000;stop-opacity:1;" />
      <stop
         id="stop3806"
         offset="0.67958343"
         style="stop-color:#000000;stop-opacity:0.76153845;" />
      <stop
         style="stop-color:#000000;stop-opacity:0;"
         offset="1"
         id="stop3802" />
    </linearGradient>
    <radialGradient
       inkscape:collect="always"
       xlink:href="#linearGradient3798"
       id="radialGradient3804"
       cx="-38.238544"
       cy="-6.9810567"
       fx="-38.238544"
       fy="-6.9810567"
       r="10.483341"
       gradientTransform="matrix(0.57778134,0.19791909,-0.28867221,0.64520378,-18.160265,5.0912854)"
       gradientUnits="userSpaceOnUse" />
  </defs>
  <sodipodi:namedview
     id="base"
     pagecolor="#ffffff"
     bordercolor="#666666"
     borderopacity="1.0"
     inkscape:pageopacity="0.0"
     inkscape:pageshadow="2"
     inkscape:zoom="5.90625"
     inkscape:cx="48"
     inkscape:cy="61.304354"
     inkscape:document-units="px"
     inkscape:current-layer="layer1"
     showgrid="true"
     inkscape:snap-page="true"
     inkscape:snap-global="false"
     inkscape:snap-center="true"
     inkscape:snap-object-midpoints="false"
     showguides="true"
     inkscape:guide-bbox="true"
     inkscape:snap-bbox="true"
     inkscape:object-paths="true"
     inkscape:object-nodes="true"
     inkscape:window-width="1305"
     inkscape:window-height="744"
     inkscape:window-x="61"
     inkscape:window-y="24"
     inkscape:window-maximized="1"
     inkscape:snap-midpoints="false"
     inkscape:snap-grids="true"
     inkscape:snap-to-guides="false">
    <inkscape:grid
       type="xygrid"
       id="grid3002"
       empspacing="5"
       visible="true"
       enabled="true"
       snapvisiblegridlinesonly="true" />
  </sodipodi:namedview>
  <metadata
     id="metadata7">
    <rdf:RDF>
      <cc:Work
         rdf:about="">
        <dc:format>image/svg+xml</dc:format>
        <dc:type
           rdf:resource="http://purl.org/dc/dcmitype/StillImage" />
        <dc:title />
      </cc:Work>
    </rdf:RDF>
  </metadata>
  <g
     inkscape:label="Layer 1"
     inkscape:groupmode="layer"
     id="layer1"
     transform="translate(0,-956.36218)">
    <rect
       style="fill:#ffffff;fill-opacity:0;fill-rule:nonzero;stroke:none"
       id="rect3775"
       width="96"
       height="96"
       x="0"
       y="956.36218"
       ry="0" />
    <path
       style="fill:#000000;fill-opacity:0.09589041;fill-rule:nonzero;stroke:none"
       d="m 3.353015,956.30662 c -1.884176,0 -3.4111555,1.43156 -3.4111555,3.19799 l 0,83.65949 c 0,1.7665 1.5269795,3.1981 3.4111555,3.1981 l 89.23583,0 c 1.884174,0 3.411155,-1.4316 3.411155,-3.1981 l 0,-83.65949 c 0,-1.76643 -1.526981,-3.19799 -3.411155,-3.19799 z"
       id="rect3772"
       inkscape:connector-curvature="0"
       sodipodi:nodetypes="sssssssss" />
    <path
       style="fill:#000000;fill-opacity:0.18721463;fill-rule:nonzero;stroke:none"
       d="m 1.0459761,1041.8066 0,7.4219 c 0,1.7392 1.461916,3.1337 3.2852054,3.1337 l 86.3836135,0 c 1.823288,0 3.285205,-1.3945 3.285205,-3.1337 l 0,-7.4219 -92.9540239,0 z"
       id="rect3785"
       inkscape:connector-curvature="0" />
    <path
       style="fill:#000000;fill-opacity:0.38356168;fill-rule:nonzero;stroke:none"
       d="m 1.0459761,1041.8066 0,5.3807 c 0,1.762 1.461916,3.1749 3.2852054,3.1749 l 86.3836135,0 c 1.823288,0 3.285205,-1.4129 3.285205,-3.1749 l 0,-5.3807 -92.9540239,0 z"
       id="rect3783"
       inkscape:connector-curvature="0" />
    <rect
       style="fill:#333333;fill-opacity:1;fill-rule:nonzero;stroke:none"
       id="rect2985"
       width="92.954025"
       height="89"
       x="1.045977"
       y="-1046.3622"
       ry="3.1511393"
       transform="scale(1,-1)" />
    <rect
       style="fill:#ffffff;fill-opacity:0.30000001;fill-rule:nonzero;stroke:none"
       id="rect3770"
       width="92.954033"
       height="2.000005"
       x="1.045976"
       y="1040.3622" />
    <path
       style="fill:#ffffff;fill-opacity:0.74885846;fill-rule:nonzero;stroke:none"
       d="m 30,1048.3622 35.53125,0 0,-18.5938 c 0,-9.8355 -7.945727,-17.75 -17.78125,-17.75 -9.835523,0 -17.75,7.9145 -17.75,17.75 z"
       id="rect4044"
       inkscape:connector-curvature="0"
       sodipodi:nodetypes="ccsssc" />
    <path
       sodipodi:type="arc"
       style="fill:#ffffff;fill-opacity:1;fill-rule:nonzero;stroke:none"
       id="path3214"
       sodipodi:cx="-38.238544"
       sodipodi:cy="-6.9810567"
       sodipodi:rx="7.8904934"
       sodipodi:ry="7.8904934"
       d="m -30.348051,-6.9810567 a 7.8904934,7.8904934 0 1 1 -15.780987,0 7.8904934,7.8904934 0 1 1 15.780987,0 z"
       transform="matrix(1.1932159,0,0,1.6554536,83.288333,990.85665)" />
    <path
       transform="matrix(1.3869446,0,0,1.8554023,88.978418,989.94905)"
       d="m -30.348051,-6.9810567 a 7.8904934,7.8904934 0 1 1 -15.780987,0 7.8904934,7.8904934 0 1 1 15.780987,0 z"
       sodipodi:ry="7.8904934"
       sodipodi:rx="7.8904934"
       sodipodi:cy="-6.9810567"
       sodipodi:cx="-38.238544"
       id="path3216"
       style="fill:url(#radialGradient3804);fill-opacity:1;fill-rule:nonzero;stroke:none"
       sodipodi:type="arc" />
    <path
       transform="matrix(1.2126802,0,0,1.6554537,111.80248,990.85665)"
       d="m -30.348051,-6.9810567 a 7.8904934,7.8904934 0 1 1 -15.780987,0 7.8904934,7.8904934 0 1 1 15.780987,0 z"
       sodipodi:ry="7.8904934"
       sodipodi:rx="7.8904934"
       sodipodi:cy="-6.9810567"
       sodipodi:cx="-38.238544"
       id="path3218"
       style="fill:#ffffff;fill-opacity:1;fill-rule:nonzero;stroke:none"
       sodipodi:type="arc" />
    <path
       sodipodi:type="arc"
       style="fill:url(#radialGradient3816);fill-opacity:1;fill-rule:nonzero;stroke:none"
       id="path3814"
       sodipodi:cx="-38.238544"
       sodipodi:cy="-6.9810567"
       sodipodi:rx="7.8904934"
       sodipodi:ry="7.8904934"
       d="m -30.348051,-6.9810567 a 7.8904934,7.8904934 0 1 1 -15.780987,0 7.8904934,7.8904934 0 1 1 15.780987,0 z"
       transform="matrix(1.3906593,0,0,1.8179171,116.77873,989.39158)" />
    <path
       sodipodi:type="arc"
       style="fill:#ffffff;fill-opacity:0.58796297;fill-rule:evenodd;stroke:none"
       id="path3818"
       sodipodi:cx="40.326031"
       sodipodi:cy="23.283953"
       sodipodi:rx="1.5072277"
       sodipodi:ry="1.6610265"
       d="m 41.833258,23.283953 a 1.5072277,1.6610265 0 1 1 -3.014455,0 1.5072277,1.6610265 0 1 1 3.014455,0 z"
       transform="matrix(1.5691485,0.50537803,-0.7033235,2.0605514,-12.05357,905.93534)" />
    <path
       transform="matrix(1.5725609,0.45666758,-0.70485306,1.8619468,15.149103,912.69296)"
       d="m 41.833258,23.283953 a 1.5072277,1.6610265 0 1 1 -3.014455,0 1.5072277,1.6610265 0 1 1 3.014455,0 z"
       sodipodi:ry="1.6610265"
       sodipodi:rx="1.5072277"
       sodipodi:cy="23.283953"
       sodipodi:cx="40.326031"
       id="path3820"
       style="fill:#ffffff;fill-opacity:0.58796297;fill-rule:evenodd;stroke:none"
       sodipodi:type="arc" />
    <path
       style="fill:#000000;fill-opacity:1;fill-rule:nonzero;stroke:none"
       d="m 37.301967,994.54385 c 7.210697,8.27535 6.693163,16.73595 9.452142,24.03585 2.542205,4.2739 5.495468,4.6757 9.606541,0 4.320969,-6.6526 7.352793,-14.55 9.127959,-22.20103 0.532168,-2.1621 0.04659,-3.06401 -1.221521,-4.54897 -3.40221,-3.85969 -6.100361,-5.38085 -9.577585,-6.83303 -1.148764,-0.49525 -3.107611,-2.32252 -3.895251,-1.36698 -3.776649,4.51641 -9.147371,6.63345 -13.658589,8.25446 -1.489019,0.46265 -0.732064,1.65948 0.166307,2.65962 z"
       id="path3822"
       inkscape:connector-curvature="0"
       sodipodi:nodetypes="cccccccccc" />
    <path
       sodipodi:nodetypes="ccccccccc"
       inkscape:connector-curvature="0"
       id="path4037"
       d="m 38.061819,993.43882 c 6.96622,7.49838 7.448797,15.00678 10.230654,21.62128 2.494214,3.8727 5.263202,4.2367 8.970308,0 3.847423,-6.028 5.652006,-12.8681 7.094108,-19.80078 0.436026,-1.9591 -0.0428,-2.77634 -1.268745,-4.12189 -3.285595,-3.49732 -5.847894,-4.87566 -9.135725,-6.19151 -1.086632,-0.44875 -1.544426,-0.84091 -2.252988,0.025 -3.399318,4.09239 -9.020506,5.53683 -13.187293,7.00566 -1.377372,0.4192 -1.317361,0.556 -0.450319,1.46224 z"
       style="fill:#fad933;fill-opacity:1;fill-rule:nonzero;stroke:none" />
    <path
       style="fill:#c3a821;fill-opacity:1;fill-rule:nonzero;stroke:none"
       d="m 53.91059,1017.7758 c 1.032882,-0.4407 2.142598,-1.3333 3.352191,-2.7157 3.847423,-6.028 5.652006,-12.8681 7.094108,-19.80078 0.436026,-1.9591 -0.0428,-2.77634 -1.268745,-4.12189 -3.285595,-3.49732 -5.847894,-4.87566 -9.135725,-6.19151 -1.086632,-0.44875 -1.544426,-0.84091 -2.252988,0.025 7.309152,12.5726 5.608361,22.84848 2.211159,32.80488 z"
       id="path4039"
       inkscape:connector-curvature="0"
       sodipodi:nodetypes="ccccccc" />
    <path
       style="fill:#000000;fill-opacity:0.65753424;fill-rule:nonzero;stroke:none"
       d="m 1,1042.3622 0.045976,2.7457 c 0.03024,1.8058 1.461916,3.2543 3.2852054,3.2543 l 86.3836136,0 c 1.823288,0 3.285205,-1.4481 3.285205,-3.2543 l -0.04598,-2.7457 z"
       id="rect3781"
       inkscape:connector-curvature="0"
       sodipodi:nodetypes="csssscc" />
    <path
       sodipodi:type="arc"
       style="fill:#000000;fill-opacity:0.65753425;fill-rule:evenodd;stroke:none"
       id="path3815"
       sodipodi:cx="48"
       sodipodi:cy="38.51852"
       sodipodi:rx="1.2698413"
       sodipodi:ry="3.9788361"
       d="m 49.269841,38.51852 a 1.2698413,3.9788361 0 1 1 -2.539682,0 1.2698413,3.9788361 0 1 1 2.539682,0 z"
       transform="matrix(1.2516635,-0.4458215,0.57402296,0.97211879,-33.597771,977.56571)" />
    <path
       transform="matrix(1.2643275,0.40852709,-0.13661283,1.120649,3.6643521,930.49719)"
       d="m 49.269841,38.51852 a 1.2698413,3.9788361 0 1 1 -2.539682,0 1.2698413,3.9788361 0 1 1 2.539682,0 z"
       sodipodi:ry="3.9788361"
       sodipodi:rx="1.2698413"
       sodipodi:cy="38.51852"
       sodipodi:cx="48"
       id="path3817"
       style="fill:#000000;fill-opacity:0.65753425;fill-rule:evenodd;stroke:none"
       sodipodi:type="arc" />
  </g>
</svg>
