<?xml version="1.0" encoding="UTF-8" standalone="no"?>
<!-- Created with Inkscape (http://www.inkscape.org/) -->

<svg
   xmlns:dc="http://purl.org/dc/elements/1.1/"
   xmlns:cc="http://creativecommons.org/ns#"
   xmlns:rdf="http://www.w3.org/1999/02/22-rdf-syntax-ns#"
   xmlns:svg="http://www.w3.org/2000/svg"
   xmlns="http://www.w3.org/2000/svg"
   xmlns:xlink="http://www.w3.org/1999/xlink"
   xmlns:sodipodi="http://sodipodi.sourceforge.net/DTD/sodipodi-0.dtd"
   xmlns:inkscape="http://www.inkscape.org/namespaces/inkscape"
   width="96"
   height="96"
   id="svg2"
   version="1.1"
   inkscape:version="0.48.4 r9939"
   sodipodi:docname="synapse.svg">
  <defs
     id="defs4">
    <linearGradient
       id="linearGradient3762">
      <stop
         style="stop-color:#0087ff;stop-opacity:1;"
         offset="0"
         id="stop3764" />
      <stop
         style="stop-color:#56006c;stop-opacity:1;"
         offset="1"
         id="stop3766" />
    </linearGradient>
    <linearGradient
       inkscape:collect="always"
       xlink:href="#linearGradient3762"
       id="linearGradient3768"
       x1="93.275131"
       y1="1046.0526"
       x2="0.37037036"
       y2="957.16376"
       gradientUnits="userSpaceOnUse" />
    <clipPath
       clipPathUnits="userSpaceOnUse"
       id="clipPath4063">
      <path
         style="fill:url(#linearGradient4067);fill-opacity:1;stroke:none"
         d="M 240,92.121216 240,129 c -52.45501,6.5377 -95.05053,44.80985 -107.96875,95 l 33.1875,0 c 13.61057,-36.22794 49.64746,-64.48252 89.03125,-64.21875 0.95497,-0.0253 1.92176,-0.0369 2.875,-0.0312 14.29865,0.0853 28.35374,3.63533 41.09375,10 22.94737,10.32987 39.98645,30.74431 48.3125,54.25 l 33.4375,0 C 367.05053,173.80985 324.45501,135.5377 272,129 l 0,-36.878784 z M 132.03125,288 C 144.94947,338.19015 187.54499,376.4623 240,383 l 0,36.87878 32,0 L 272,383 c 52.45501,-6.5377 95.05053,-44.80985 107.96875,-95 L 347,288 c -12.9362,38.16182 -52.91943,65.60507 -93.34375,64.1875 -39.35846,0.19888 -75.06281,-27.91764 -88.375,-64.1875 z"
         id="path4065"
         clip-path="url(#clipPath4127-2)"
         inkscape:connector-curvature="0"
         sodipodi:nodetypes="cccccccccccccccccccccc" />
    </clipPath>
    <clipPath
       clipPathUnits="userSpaceOnUse"
       id="clipPath4254">
      <path
         style="fill:url(#linearGradient4258);fill-opacity:1;stroke:none;display:inline"
         d="m 256,176 c -44.18278,0 -80,35.64044 -80,80 0,0 -0.53033,7.51472 1.76777,16 l 122.85723,0 c -3.3167,9.26456 -9.26562,17.57666 -17.34375,23.125 -18.58481,14.67263 -46.73117,9.33733 -62.5625,-7.125 l -38.03125,0 c 12.35038,28.24167 40.51668,48 73.3125,48 44.18278,0 80,-35.81722 80,-80 0,0 0,-8.22183 -1.59099,-16 L 211.5,240 c 6.91612,-17.48162 23.43148,-31.64803 42.625,-31.8125 0.96047,-0.0463 1.91732,-0.0507 2.875,-0.0312 12.86627,0.2609 25.35078,6.36236 34.03125,15.84375 l 38.28125,0 C 316.96212,195.75833 288.79582,176 256,176 z"
         id="path4256"
         inkscape:connector-curvature="0"
         sodipodi:nodetypes="sscccccsscccsccs"
         clip-path="url(#clipPath4174-8)"
         transform="translate(0,-1.7889608)" />
    </clipPath>
  </defs>
  <sodipodi:namedview
     id="base"
     pagecolor="#ffffff"
     bordercolor="#666666"
     borderopacity="1.0"
     inkscape:pageopacity="0.0"
     inkscape:pageshadow="2"
     inkscape:zoom="5.90625"
     inkscape:cx="48"
     inkscape:cy="48"
     inkscape:document-units="px"
     inkscape:current-layer="layer1"
     showgrid="true"
     inkscape:snap-page="true"
     inkscape:snap-global="false"
     inkscape:snap-center="true"
     inkscape:snap-object-midpoints="false"
     showguides="true"
     inkscape:guide-bbox="true"
     inkscape:snap-bbox="true"
     inkscape:object-paths="true"
     inkscape:object-nodes="true"
     inkscape:window-width="1305"
     inkscape:window-height="744"
     inkscape:window-x="61"
     inkscape:window-y="24"
     inkscape:window-maximized="1"
     inkscape:snap-midpoints="false"
     inkscape:snap-grids="true"
     inkscape:snap-to-guides="false">
    <inkscape:grid
       type="xygrid"
       id="grid3002"
       empspacing="5"
       visible="true"
       enabled="true"
       snapvisiblegridlinesonly="true" />
  </sodipodi:namedview>
  <metadata
     id="metadata7">
    <rdf:RDF>
      <cc:Work
         rdf:about="">
        <dc:format>image/svg+xml</dc:format>
        <dc:type
           rdf:resource="http://purl.org/dc/dcmitype/StillImage" />
        <dc:title />
      </cc:Work>
    </rdf:RDF>
  </metadata>
  <g
     inkscape:label="Layer 1"
     inkscape:groupmode="layer"
     id="layer1"
     transform="translate(0,-956.36218)">
    <rect
       style="fill:#ffffff;fill-opacity:0;fill-rule:nonzero;stroke:none"
       id="rect3775"
       width="96"
       height="96"
       x="0"
       y="956.36218"
       ry="0" />
    <path
       style="fill:#000000;fill-opacity:0.09589041;fill-rule:nonzero;stroke:none"
       d="m 3.353015,956.30662 c -1.884176,0 -3.4111555,1.43156 -3.4111555,3.19799 l 0,83.65949 c 0,1.7665 1.5269795,3.1981 3.4111555,3.1981 l 89.23583,0 c 1.884174,0 3.411155,-1.4316 3.411155,-3.1981 l 0,-83.65949 c 0,-1.76643 -1.526981,-3.19799 -3.411155,-3.19799 z"
       id="rect3772"
       inkscape:connector-curvature="0"
       sodipodi:nodetypes="sssssssss" />
    <path
       style="fill:#000000;fill-opacity:0.18721463;fill-rule:nonzero;stroke:none"
       d="m 1.0459761,1041.8066 0,7.4219 c 0,1.7392 1.461916,3.1337 3.2852054,3.1337 l 86.3836135,0 c 1.823288,0 3.285205,-1.3945 3.285205,-3.1337 l 0,-7.4219 -92.9540239,0 z"
       id="rect3785"
       inkscape:connector-curvature="0" />
    <path
       style="fill:#000000;fill-opacity:0.38356168;fill-rule:nonzero;stroke:none"
       d="m 1.0459761,1041.8066 0,5.3807 c 0,1.762 1.461916,3.1749 3.2852054,3.1749 l 86.3836135,0 c 1.823288,0 3.285205,-1.4129 3.285205,-3.1749 l 0,-5.3807 -92.9540239,0 z"
       id="rect3783"
       inkscape:connector-curvature="0" />
    <rect
       style="fill:url(#linearGradient3768);fill-opacity:1;fill-rule:nonzero;stroke:none"
       id="rect2985-2"
       width="93"
       height="88.999962"
       x="0.9999969"
       y="957.36224"
       ry="3.1511383" />
    <path
       style="fill:#000000;fill-opacity:0.38356168;fill-rule:nonzero;stroke:none"
       d="m 1,1042.3622 0.045976,2.7457 c 0.03024,1.8058 1.461916,3.2543 3.2852054,3.2543 l 86.3836136,0 c 1.823288,0 3.285205,-1.4481 3.285205,-3.2543 l -0.04598,-2.7457 z"
       id="rect3781"
       inkscape:connector-curvature="0"
       sodipodi:nodetypes="csssscc" />
    <rect
       style="fill:#ffffff;fill-opacity:0.30000001;fill-rule:nonzero;stroke:none"
       id="rect3770"
       width="92.954033"
       height="2.000005"
       x="1.045976"
       y="1040.3622" />
    <path
       style="fill:#ffffff;fill-opacity:0.30593607;stroke:none;display:inline"
       d="M 240,92.121216 240,129 c -52.45501,6.5377 -95.05053,44.80985 -107.96875,95 l 33.1875,0 c 13.61057,-36.22794 49.64746,-64.48252 89.03125,-64.21875 0.95497,-0.0253 1.92176,-0.0369 2.875,-0.0312 14.29865,0.0853 28.35374,3.63533 41.09375,10 22.94737,10.32987 39.98645,30.74431 48.3125,54.25 l 33.4375,0 C 367.05053,173.80985 324.45501,135.5377 272,129 l 0,-36.878784 z M 132.03125,288 C 144.94947,338.19015 187.54499,376.4623 240,383 l 0,36.87878 32,0 L 272,383 c 52.45501,-6.5377 95.05053,-44.80985 107.96875,-95 L 347,288 c -12.9362,38.16182 -52.91943,65.60507 -93.34375,64.1875 -39.35846,0.19888 -75.06281,-27.91764 -88.375,-64.1875 z"
       id="path3214"
       clip-path="url(#clipPath4063)"
       inkscape:connector-curvature="0"
       transform="matrix(0.22442953,0,0,0.23069852,-9.7079286,940.30865)"
       sodipodi:nodetypes="cccccccccccccccccccccc" />
    <path
       style="fill:#ffffff;stroke:none;display:inline;fill-opacity:0.30593607"
       d="m 256,176 c -44.18278,0 -80,35.64044 -80,80 0,0 -0.53033,7.51472 1.76777,16 l 122.85723,0 c -3.3167,9.26456 -9.26562,17.57666 -17.34375,23.125 -18.58481,14.67263 -46.73117,9.33733 -62.5625,-7.125 l -38.03125,0 c 12.35038,28.24167 40.51668,48 73.3125,48 44.18278,0 80,-35.81722 80,-80 0,0 0,-8.22183 -1.59099,-16 L 211.5,240 c 6.91612,-17.48162 23.43148,-31.64803 42.625,-31.8125 0.96047,-0.0463 1.91732,-0.0507 2.875,-0.0312 12.86627,0.2609 25.35078,6.36236 34.03125,15.84375 l 38.28125,0 C 316.96212,195.75833 288.79582,176 256,176 z"
       id="path4189-8"
       inkscape:connector-curvature="0"
       sodipodi:nodetypes="sscccccsscccsccs"
       clip-path="url(#clipPath4254)"
       transform="matrix(0.19768267,0,0,0.20320454,-2.8555054,947.5289)" />
  </g>
</svg>
