<?xml version="1.0" encoding="UTF-8" standalone="no"?>
<!-- Created with Inkscape (http://www.inkscape.org/) -->

<svg
   xmlns:dc="http://purl.org/dc/elements/1.1/"
   xmlns:cc="http://creativecommons.org/ns#"
   xmlns:rdf="http://www.w3.org/1999/02/22-rdf-syntax-ns#"
   xmlns:svg="http://www.w3.org/2000/svg"
   xmlns="http://www.w3.org/2000/svg"
   xmlns:sodipodi="http://sodipodi.sourceforge.net/DTD/sodipodi-0.dtd"
   xmlns:inkscape="http://www.inkscape.org/namespaces/inkscape"
   width="96"
   height="96"
   id="svg2"
   version="1.1"
   inkscape:version="0.48.4 r9939"
   sodipodi:docname="terminator.svg">
  <defs
     id="defs4" />
  <sodipodi:namedview
     id="base"
     pagecolor="#ffffff"
     bordercolor="#666666"
     borderopacity="1.0"
     inkscape:pageopacity="0.0"
     inkscape:pageshadow="2"
     inkscape:zoom="5.3333111"
     inkscape:cx="-16.474731"
     inkscape:cy="48.367601"
     inkscape:document-units="px"
     inkscape:current-layer="layer1"
     showgrid="true"
     inkscape:snap-page="true"
     inkscape:snap-global="false"
     inkscape:snap-center="true"
     inkscape:snap-object-midpoints="false"
     showguides="true"
     inkscape:guide-bbox="true"
     inkscape:snap-bbox="true"
     inkscape:object-paths="true"
     inkscape:object-nodes="true"
     inkscape:window-width="1305"
     inkscape:window-height="744"
     inkscape:window-x="61"
     inkscape:window-y="24"
     inkscape:window-maximized="1"
     inkscape:snap-midpoints="false"
     inkscape:snap-grids="true"
     inkscape:snap-to-guides="false">
    <inkscape:grid
       type="xygrid"
       id="grid3002"
       empspacing="5"
       visible="true"
       enabled="true"
       snapvisiblegridlinesonly="true" />
  </sodipodi:namedview>
  <metadata
     id="metadata7">
    <rdf:RDF>
      <cc:Work
         rdf:about="">
        <dc:format>image/svg+xml</dc:format>
        <dc:type
           rdf:resource="http://purl.org/dc/dcmitype/StillImage" />
        <dc:title />
      </cc:Work>
    </rdf:RDF>
  </metadata>
  <g
     inkscape:label="Layer 1"
     inkscape:groupmode="layer"
     id="layer1"
     transform="translate(0,-956.36218)">
    <rect
       style="fill:#ffffff;fill-opacity:0;fill-rule:nonzero;stroke:none"
       id="rect3775"
       width="96"
       height="96"
       x="0"
       y="956.36218"
       ry="0" />
    <path
       style="fill:#000000;fill-opacity:0.09589041;fill-rule:nonzero;stroke:none"
       d="m 3.353015,956.30662 c -1.884176,0 -3.4111555,1.43156 -3.4111555,3.19799 l 0,83.65949 c 0,1.7665 1.5269795,3.1981 3.4111555,3.1981 l 89.23583,0 c 1.884174,0 3.411155,-1.4316 3.411155,-3.1981 l 0,-83.65949 c 0,-1.76643 -1.526981,-3.19799 -3.411155,-3.19799 z"
       id="rect3772"
       inkscape:connector-curvature="0"
       sodipodi:nodetypes="sssssssss" />
    <path
       style="fill:#000000;fill-opacity:0.18721463;fill-rule:nonzero;stroke:none"
       d="m 1.0459761,1041.8066 0,7.4219 c 0,1.7392 1.461916,3.1337 3.2852054,3.1337 l 86.3836135,0 c 1.823288,0 3.285205,-1.3945 3.285205,-3.1337 l 0,-7.4219 -92.9540239,0 z"
       id="rect3785"
       inkscape:connector-curvature="0" />
    <path
       style="fill:#000000;fill-opacity:0.38356168;fill-rule:nonzero;stroke:none"
       d="m 1.0459761,1041.8066 0,5.3807 c 0,1.762 1.461916,3.1749 3.2852054,3.1749 l 86.3836135,0 c 1.823288,0 3.285205,-1.4129 3.285205,-3.1749 l 0,-5.3807 -92.9540239,0 z"
       id="rect3783"
       inkscape:connector-curvature="0" />
    <rect
       style="fill:#1c1c1c;fill-opacity:1;fill-rule:nonzero;stroke:none"
       id="rect2985"
       width="92.954025"
       height="89"
       x="1.045977"
       y="-1046.3622"
       ry="3.1511393"
       transform="scale(1,-1)" />
    <path
       style="fill:#000000;fill-opacity:1;fill-rule:nonzero;stroke:none"
       d="m 1,1042.3622 0.045976,2.7457 c 0.03024,1.8058 1.461916,3.2543 3.2852054,3.2543 l 86.3836136,0 c 1.823288,0 3.285205,-1.4481 3.285205,-3.2543 l -0.04598,-2.7457 z"
       id="rect3781"
       inkscape:connector-curvature="0"
       sodipodi:nodetypes="csssscc" />
    <rect
       style="fill:#ffffff;fill-opacity:0.30000001;fill-rule:nonzero;stroke:none"
       id="rect3770"
       width="92.954033"
       height="2.000005"
       x="1.045976"
       y="1040.3622" />
    <g
       id="g4069"
       transform="matrix(0,1,-1,0,1053.706,1051.1215)"
       style="opacity:0.61728396">
      <path
         inkscape:connector-curvature="0"
         id="path3900"
         d="m -70.37179,966.37743 0,78.94817 0.5,0 0,-78.94817 -0.5,0 z"
         style="font-size:medium;font-style:normal;font-variant:normal;font-weight:normal;font-stretch:normal;text-indent:0;text-align:start;text-decoration:none;line-height:normal;letter-spacing:normal;word-spacing:normal;text-transform:none;direction:ltr;block-progression:tb;writing-mode:lr-tb;text-anchor:start;baseline-shift:baseline;color:#000000;fill:#ff001e;fill-opacity:1;stroke:none;stroke-width:0.5;marker:none;visibility:visible;display:inline;overflow:visible;enable-background:accumulate;font-family:Sans;-inkscape-font-specification:Sans" />
      <path
         inkscape:connector-curvature="0"
         id="path3902"
         d="m -68.90304,966.37743 0,78.94817 0.5,0 0,-78.94817 -0.5,0 z"
         style="font-size:medium;font-style:normal;font-variant:normal;font-weight:normal;font-stretch:normal;text-indent:0;text-align:start;text-decoration:none;line-height:normal;letter-spacing:normal;word-spacing:normal;text-transform:none;direction:ltr;block-progression:tb;writing-mode:lr-tb;text-anchor:start;baseline-shift:baseline;color:#000000;fill:#08ff00;fill-opacity:1;stroke:none;stroke-width:0.5;marker:none;visibility:visible;display:inline;overflow:visible;enable-background:accumulate;font-family:Sans;-inkscape-font-specification:Sans" />
      <path
         inkscape:connector-curvature="0"
         id="path3904"
         d="m -67.43429,966.37743 0,78.94817 0.5,0 0,-78.94817 -0.5,0 z"
         style="font-size:medium;font-style:normal;font-variant:normal;font-weight:normal;font-stretch:normal;text-indent:0;text-align:start;text-decoration:none;line-height:normal;letter-spacing:normal;word-spacing:normal;text-transform:none;direction:ltr;block-progression:tb;writing-mode:lr-tb;text-anchor:start;baseline-shift:baseline;color:#000000;fill:#002aff;fill-opacity:1;stroke:none;stroke-width:0.5;marker:none;visibility:visible;display:inline;overflow:visible;enable-background:accumulate;font-family:Sans;-inkscape-font-specification:Sans" />
      <path
         inkscape:connector-curvature="0"
         id="path3996"
         d="m -65.90304,966.37743 0,78.94817 0.5,0 0,-78.94817 -0.5,0 z"
         style="font-size:medium;font-style:normal;font-variant:normal;font-weight:normal;font-stretch:normal;text-indent:0;text-align:start;text-decoration:none;line-height:normal;letter-spacing:normal;word-spacing:normal;text-transform:none;direction:ltr;block-progression:tb;writing-mode:lr-tb;text-anchor:start;baseline-shift:baseline;color:#000000;fill:#ff001e;fill-opacity:1;stroke:none;stroke-width:0.5;marker:none;visibility:visible;display:inline;overflow:visible;enable-background:accumulate;font-family:Sans;-inkscape-font-specification:Sans" />
      <path
         inkscape:connector-curvature="0"
         id="path3998"
         d="m -64.43429,966.37743 0,78.94817 0.5,0 0,-78.94817 -0.5,0 z"
         style="font-size:medium;font-style:normal;font-variant:normal;font-weight:normal;font-stretch:normal;text-indent:0;text-align:start;text-decoration:none;line-height:normal;letter-spacing:normal;word-spacing:normal;text-transform:none;direction:ltr;block-progression:tb;writing-mode:lr-tb;text-anchor:start;baseline-shift:baseline;color:#000000;fill:#08ff00;fill-opacity:1;stroke:none;stroke-width:0.5;marker:none;visibility:visible;display:inline;overflow:visible;enable-background:accumulate;font-family:Sans;-inkscape-font-specification:Sans" />
      <path
         inkscape:connector-curvature="0"
         id="path4000"
         d="m -62.96554,966.37743 0,78.94817 0.5,0 0,-78.94817 -0.5,0 z"
         style="font-size:medium;font-style:normal;font-variant:normal;font-weight:normal;font-stretch:normal;text-indent:0;text-align:start;text-decoration:none;line-height:normal;letter-spacing:normal;word-spacing:normal;text-transform:none;direction:ltr;block-progression:tb;writing-mode:lr-tb;text-anchor:start;baseline-shift:baseline;color:#000000;fill:#002aff;fill-opacity:1;stroke:none;stroke-width:0.5;marker:none;visibility:visible;display:inline;overflow:visible;enable-background:accumulate;font-family:Sans;-inkscape-font-specification:Sans" />
      <path
         inkscape:connector-curvature="0"
         id="path4002"
         d="m -61.43429,966.37743 0,78.94817 0.5,0 0,-78.94817 -0.5,0 z"
         style="font-size:medium;font-style:normal;font-variant:normal;font-weight:normal;font-stretch:normal;text-indent:0;text-align:start;text-decoration:none;line-height:normal;letter-spacing:normal;word-spacing:normal;text-transform:none;direction:ltr;block-progression:tb;writing-mode:lr-tb;text-anchor:start;baseline-shift:baseline;color:#000000;fill:#ff001e;fill-opacity:1;stroke:none;stroke-width:0.5;marker:none;visibility:visible;display:inline;overflow:visible;enable-background:accumulate;font-family:Sans;-inkscape-font-specification:Sans" />
      <path
         inkscape:connector-curvature="0"
         id="path4004"
         d="m -59.96554,966.37743 0,78.94817 0.5,0 0,-78.94817 -0.5,0 z"
         style="font-size:medium;font-style:normal;font-variant:normal;font-weight:normal;font-stretch:normal;text-indent:0;text-align:start;text-decoration:none;line-height:normal;letter-spacing:normal;word-spacing:normal;text-transform:none;direction:ltr;block-progression:tb;writing-mode:lr-tb;text-anchor:start;baseline-shift:baseline;color:#000000;fill:#08ff00;fill-opacity:1;stroke:none;stroke-width:0.5;marker:none;visibility:visible;display:inline;overflow:visible;enable-background:accumulate;font-family:Sans;-inkscape-font-specification:Sans" />
      <path
         inkscape:connector-curvature="0"
         id="path4006"
         d="m -58.49679,966.37743 0,78.94817 0.5,0 0,-78.94817 -0.5,0 z"
         style="font-size:medium;font-style:normal;font-variant:normal;font-weight:normal;font-stretch:normal;text-indent:0;text-align:start;text-decoration:none;line-height:normal;letter-spacing:normal;word-spacing:normal;text-transform:none;direction:ltr;block-progression:tb;writing-mode:lr-tb;text-anchor:start;baseline-shift:baseline;color:#000000;fill:#002aff;fill-opacity:1;stroke:none;stroke-width:0.5;marker:none;visibility:visible;display:inline;overflow:visible;enable-background:accumulate;font-family:Sans;-inkscape-font-specification:Sans" />
      <path
         inkscape:connector-curvature="0"
         id="path4008"
         d="m -56.96554,966.37743 0,78.94817 0.5,0 0,-78.94817 -0.5,0 z"
         style="font-size:medium;font-style:normal;font-variant:normal;font-weight:normal;font-stretch:normal;text-indent:0;text-align:start;text-decoration:none;line-height:normal;letter-spacing:normal;word-spacing:normal;text-transform:none;direction:ltr;block-progression:tb;writing-mode:lr-tb;text-anchor:start;baseline-shift:baseline;color:#000000;fill:#ff001e;fill-opacity:1;stroke:none;stroke-width:0.5;marker:none;visibility:visible;display:inline;overflow:visible;enable-background:accumulate;font-family:Sans;-inkscape-font-specification:Sans" />
      <path
         inkscape:connector-curvature="0"
         id="path4010"
         d="m -55.49679,966.37743 0,78.94817 0.5,0 0,-78.94817 -0.5,0 z"
         style="font-size:medium;font-style:normal;font-variant:normal;font-weight:normal;font-stretch:normal;text-indent:0;text-align:start;text-decoration:none;line-height:normal;letter-spacing:normal;word-spacing:normal;text-transform:none;direction:ltr;block-progression:tb;writing-mode:lr-tb;text-anchor:start;baseline-shift:baseline;color:#000000;fill:#08ff00;fill-opacity:1;stroke:none;stroke-width:0.5;marker:none;visibility:visible;display:inline;overflow:visible;enable-background:accumulate;font-family:Sans;-inkscape-font-specification:Sans" />
      <path
         inkscape:connector-curvature="0"
         id="path4012"
         d="m -54.05929,966.37743 0,78.94817 0.5,0 0,-78.94817 -0.5,0 z"
         style="font-size:medium;font-style:normal;font-variant:normal;font-weight:normal;font-stretch:normal;text-indent:0;text-align:start;text-decoration:none;line-height:normal;letter-spacing:normal;word-spacing:normal;text-transform:none;direction:ltr;block-progression:tb;writing-mode:lr-tb;text-anchor:start;baseline-shift:baseline;color:#000000;fill:#002aff;fill-opacity:1;stroke:none;stroke-width:0.5;marker:none;visibility:visible;display:inline;overflow:visible;enable-background:accumulate;font-family:Sans;-inkscape-font-specification:Sans" />
      <path
         inkscape:connector-curvature="0"
         id="path4014"
         d="m -52.52804,966.37743 0,78.94817 0.5,0 0,-78.94817 -0.5,0 z"
         style="font-size:medium;font-style:normal;font-variant:normal;font-weight:normal;font-stretch:normal;text-indent:0;text-align:start;text-decoration:none;line-height:normal;letter-spacing:normal;word-spacing:normal;text-transform:none;direction:ltr;block-progression:tb;writing-mode:lr-tb;text-anchor:start;baseline-shift:baseline;color:#000000;fill:#ff001e;fill-opacity:1;stroke:none;stroke-width:0.5;marker:none;visibility:visible;display:inline;overflow:visible;enable-background:accumulate;font-family:Sans;-inkscape-font-specification:Sans" />
      <path
         inkscape:connector-curvature="0"
         id="path4016"
         d="m -51.05929,966.37743 0,78.94817 0.5,0 0,-78.94817 -0.5,0 z"
         style="font-size:medium;font-style:normal;font-variant:normal;font-weight:normal;font-stretch:normal;text-indent:0;text-align:start;text-decoration:none;line-height:normal;letter-spacing:normal;word-spacing:normal;text-transform:none;direction:ltr;block-progression:tb;writing-mode:lr-tb;text-anchor:start;baseline-shift:baseline;color:#000000;fill:#08ff00;fill-opacity:1;stroke:none;stroke-width:0.5;marker:none;visibility:visible;display:inline;overflow:visible;enable-background:accumulate;font-family:Sans;-inkscape-font-specification:Sans" />
      <path
         inkscape:connector-curvature="0"
         id="path4018"
         d="m -49.59054,966.37743 0,78.94817 0.5,0 0,-78.94817 -0.5,0 z"
         style="font-size:medium;font-style:normal;font-variant:normal;font-weight:normal;font-stretch:normal;text-indent:0;text-align:start;text-decoration:none;line-height:normal;letter-spacing:normal;word-spacing:normal;text-transform:none;direction:ltr;block-progression:tb;writing-mode:lr-tb;text-anchor:start;baseline-shift:baseline;color:#000000;fill:#002aff;fill-opacity:1;stroke:none;stroke-width:0.5;marker:none;visibility:visible;display:inline;overflow:visible;enable-background:accumulate;font-family:Sans;-inkscape-font-specification:Sans" />
      <path
         inkscape:connector-curvature="0"
         id="path4020"
         d="m -48.05929,966.37743 0,78.94817 0.5,0 0,-78.94817 -0.5,0 z"
         style="font-size:medium;font-style:normal;font-variant:normal;font-weight:normal;font-stretch:normal;text-indent:0;text-align:start;text-decoration:none;line-height:normal;letter-spacing:normal;word-spacing:normal;text-transform:none;direction:ltr;block-progression:tb;writing-mode:lr-tb;text-anchor:start;baseline-shift:baseline;color:#000000;fill:#ff001e;fill-opacity:1;stroke:none;stroke-width:0.5;marker:none;visibility:visible;display:inline;overflow:visible;enable-background:accumulate;font-family:Sans;-inkscape-font-specification:Sans" />
      <path
         inkscape:connector-curvature="0"
         id="path4022"
         d="m -46.59054,966.37743 0,78.94817 0.5,0 0,-78.94817 -0.5,0 z"
         style="font-size:medium;font-style:normal;font-variant:normal;font-weight:normal;font-stretch:normal;text-indent:0;text-align:start;text-decoration:none;line-height:normal;letter-spacing:normal;word-spacing:normal;text-transform:none;direction:ltr;block-progression:tb;writing-mode:lr-tb;text-anchor:start;baseline-shift:baseline;color:#000000;fill:#08ff00;fill-opacity:1;stroke:none;stroke-width:0.5;marker:none;visibility:visible;display:inline;overflow:visible;enable-background:accumulate;font-family:Sans;-inkscape-font-specification:Sans" />
      <path
         inkscape:connector-curvature="0"
         id="path4024"
         d="m -45.12179,966.37743 0,78.94817 0.5,0 0,-78.94817 -0.5,0 z"
         style="font-size:medium;font-style:normal;font-variant:normal;font-weight:normal;font-stretch:normal;text-indent:0;text-align:start;text-decoration:none;line-height:normal;letter-spacing:normal;word-spacing:normal;text-transform:none;direction:ltr;block-progression:tb;writing-mode:lr-tb;text-anchor:start;baseline-shift:baseline;color:#000000;fill:#002aff;fill-opacity:1;stroke:none;stroke-width:0.5;marker:none;visibility:visible;display:inline;overflow:visible;enable-background:accumulate;font-family:Sans;-inkscape-font-specification:Sans" />
      <path
         inkscape:connector-curvature="0"
         id="path4026"
         d="m -43.59054,966.37743 0,78.94817 0.5,0 0,-78.94817 -0.5,0 z"
         style="font-size:medium;font-style:normal;font-variant:normal;font-weight:normal;font-stretch:normal;text-indent:0;text-align:start;text-decoration:none;line-height:normal;letter-spacing:normal;word-spacing:normal;text-transform:none;direction:ltr;block-progression:tb;writing-mode:lr-tb;text-anchor:start;baseline-shift:baseline;color:#000000;fill:#ff001e;fill-opacity:1;stroke:none;stroke-width:0.5;marker:none;visibility:visible;display:inline;overflow:visible;enable-background:accumulate;font-family:Sans;-inkscape-font-specification:Sans" />
      <path
         inkscape:connector-curvature="0"
         id="path4028"
         d="m -42.12179,966.37743 0,78.94817 0.5,0 0,-78.94817 -0.5,0 z"
         style="font-size:medium;font-style:normal;font-variant:normal;font-weight:normal;font-stretch:normal;text-indent:0;text-align:start;text-decoration:none;line-height:normal;letter-spacing:normal;word-spacing:normal;text-transform:none;direction:ltr;block-progression:tb;writing-mode:lr-tb;text-anchor:start;baseline-shift:baseline;color:#000000;fill:#08ff00;fill-opacity:1;stroke:none;stroke-width:0.5;marker:none;visibility:visible;display:inline;overflow:visible;enable-background:accumulate;font-family:Sans;-inkscape-font-specification:Sans" />
      <path
         inkscape:connector-curvature="0"
         id="path4030"
         d="m -40.65304,966.37743 0,78.94817 0.5,0 0,-78.94817 -0.5,0 z"
         style="font-size:medium;font-style:normal;font-variant:normal;font-weight:normal;font-stretch:normal;text-indent:0;text-align:start;text-decoration:none;line-height:normal;letter-spacing:normal;word-spacing:normal;text-transform:none;direction:ltr;block-progression:tb;writing-mode:lr-tb;text-anchor:start;baseline-shift:baseline;color:#000000;fill:#002aff;fill-opacity:1;stroke:none;stroke-width:0.5;marker:none;visibility:visible;display:inline;overflow:visible;enable-background:accumulate;font-family:Sans;-inkscape-font-specification:Sans" />
      <path
         inkscape:connector-curvature="0"
         id="path4032"
         d="m -39.15304,966.37743 0,78.94817 0.5,0 0,-78.94817 -0.5,0 z"
         style="font-size:medium;font-style:normal;font-variant:normal;font-weight:normal;font-stretch:normal;text-indent:0;text-align:start;text-decoration:none;line-height:normal;letter-spacing:normal;word-spacing:normal;text-transform:none;direction:ltr;block-progression:tb;writing-mode:lr-tb;text-anchor:start;baseline-shift:baseline;color:#000000;fill:#ff001e;fill-opacity:1;stroke:none;stroke-width:0.5;marker:none;visibility:visible;display:inline;overflow:visible;enable-background:accumulate;font-family:Sans;-inkscape-font-specification:Sans" />
      <path
         inkscape:connector-curvature="0"
         id="path4034"
         d="m -37.68429,966.37743 0,78.94817 0.5,0 0,-78.94817 -0.5,0 z"
         style="font-size:medium;font-style:normal;font-variant:normal;font-weight:normal;font-stretch:normal;text-indent:0;text-align:start;text-decoration:none;line-height:normal;letter-spacing:normal;word-spacing:normal;text-transform:none;direction:ltr;block-progression:tb;writing-mode:lr-tb;text-anchor:start;baseline-shift:baseline;color:#000000;fill:#08ff00;fill-opacity:1;stroke:none;stroke-width:0.5;marker:none;visibility:visible;display:inline;overflow:visible;enable-background:accumulate;font-family:Sans;-inkscape-font-specification:Sans" />
      <path
         inkscape:connector-curvature="0"
         id="path4036"
         d="m -36.21554,966.37743 0,78.94817 0.5,0 0,-78.94817 -0.5,0 z"
         style="font-size:medium;font-style:normal;font-variant:normal;font-weight:normal;font-stretch:normal;text-indent:0;text-align:start;text-decoration:none;line-height:normal;letter-spacing:normal;word-spacing:normal;text-transform:none;direction:ltr;block-progression:tb;writing-mode:lr-tb;text-anchor:start;baseline-shift:baseline;color:#000000;fill:#002aff;fill-opacity:1;stroke:none;stroke-width:0.5;marker:none;visibility:visible;display:inline;overflow:visible;enable-background:accumulate;font-family:Sans;-inkscape-font-specification:Sans" />
      <path
         inkscape:connector-curvature="0"
         id="path4038"
         d="m -34.68429,966.37743 0,78.94817 0.5,0 0,-78.94817 -0.5,0 z"
         style="font-size:medium;font-style:normal;font-variant:normal;font-weight:normal;font-stretch:normal;text-indent:0;text-align:start;text-decoration:none;line-height:normal;letter-spacing:normal;word-spacing:normal;text-transform:none;direction:ltr;block-progression:tb;writing-mode:lr-tb;text-anchor:start;baseline-shift:baseline;color:#000000;fill:#ff001e;fill-opacity:1;stroke:none;stroke-width:0.5;marker:none;visibility:visible;display:inline;overflow:visible;enable-background:accumulate;font-family:Sans;-inkscape-font-specification:Sans" />
      <path
         inkscape:connector-curvature="0"
         id="path4040"
         d="m -33.21554,966.37743 0,78.94817 0.5,0 0,-78.94817 -0.5,0 z"
         style="font-size:medium;font-style:normal;font-variant:normal;font-weight:normal;font-stretch:normal;text-indent:0;text-align:start;text-decoration:none;line-height:normal;letter-spacing:normal;word-spacing:normal;text-transform:none;direction:ltr;block-progression:tb;writing-mode:lr-tb;text-anchor:start;baseline-shift:baseline;color:#000000;fill:#08ff00;fill-opacity:1;stroke:none;stroke-width:0.5;marker:none;visibility:visible;display:inline;overflow:visible;enable-background:accumulate;font-family:Sans;-inkscape-font-specification:Sans" />
      <path
         inkscape:connector-curvature="0"
         id="path4042"
         d="m -31.74679,966.37743 0,78.94817 0.5,0 0,-78.94817 -0.5,0 z"
         style="font-size:medium;font-style:normal;font-variant:normal;font-weight:normal;font-stretch:normal;text-indent:0;text-align:start;text-decoration:none;line-height:normal;letter-spacing:normal;word-spacing:normal;text-transform:none;direction:ltr;block-progression:tb;writing-mode:lr-tb;text-anchor:start;baseline-shift:baseline;color:#000000;fill:#002aff;fill-opacity:1;stroke:none;stroke-width:0.5;marker:none;visibility:visible;display:inline;overflow:visible;enable-background:accumulate;font-family:Sans;-inkscape-font-specification:Sans" />
      <path
         inkscape:connector-curvature="0"
         id="path4044"
         d="m -30.21554,966.37743 0,78.94817 0.5,0 0,-78.94817 -0.5,0 z"
         style="font-size:medium;font-style:normal;font-variant:normal;font-weight:normal;font-stretch:normal;text-indent:0;text-align:start;text-decoration:none;line-height:normal;letter-spacing:normal;word-spacing:normal;text-transform:none;direction:ltr;block-progression:tb;writing-mode:lr-tb;text-anchor:start;baseline-shift:baseline;color:#000000;fill:#ff001e;fill-opacity:1;stroke:none;stroke-width:0.5;marker:none;visibility:visible;display:inline;overflow:visible;enable-background:accumulate;font-family:Sans;-inkscape-font-specification:Sans" />
      <path
         inkscape:connector-curvature="0"
         id="path4046"
         d="m -28.74679,966.37743 0,78.94817 0.5,0 0,-78.94817 -0.5,0 z"
         style="font-size:medium;font-style:normal;font-variant:normal;font-weight:normal;font-stretch:normal;text-indent:0;text-align:start;text-decoration:none;line-height:normal;letter-spacing:normal;word-spacing:normal;text-transform:none;direction:ltr;block-progression:tb;writing-mode:lr-tb;text-anchor:start;baseline-shift:baseline;color:#000000;fill:#08ff00;fill-opacity:1;stroke:none;stroke-width:0.5;marker:none;visibility:visible;display:inline;overflow:visible;enable-background:accumulate;font-family:Sans;-inkscape-font-specification:Sans" />
      <path
         inkscape:connector-curvature="0"
         id="path4048"
         d="m -27.27804,966.37743 0,78.94817 0.5,0 0,-78.94817 -0.5,0 z"
         style="font-size:medium;font-style:normal;font-variant:normal;font-weight:normal;font-stretch:normal;text-indent:0;text-align:start;text-decoration:none;line-height:normal;letter-spacing:normal;word-spacing:normal;text-transform:none;direction:ltr;block-progression:tb;writing-mode:lr-tb;text-anchor:start;baseline-shift:baseline;color:#000000;fill:#002aff;fill-opacity:1;stroke:none;stroke-width:0.5;marker:none;visibility:visible;display:inline;overflow:visible;enable-background:accumulate;font-family:Sans;-inkscape-font-specification:Sans" />
      <path
         inkscape:connector-curvature="0"
         id="path4050"
         d="m -25.77804,966.37743 0,78.94817 0.5,0 0,-78.94817 -0.5,0 z"
         style="font-size:medium;font-style:normal;font-variant:normal;font-weight:normal;font-stretch:normal;text-indent:0;text-align:start;text-decoration:none;line-height:normal;letter-spacing:normal;word-spacing:normal;text-transform:none;direction:ltr;block-progression:tb;writing-mode:lr-tb;text-anchor:start;baseline-shift:baseline;color:#000000;fill:#ff001e;fill-opacity:1;stroke:none;stroke-width:0.5;marker:none;visibility:visible;display:inline;overflow:visible;enable-background:accumulate;font-family:Sans;-inkscape-font-specification:Sans" />
      <path
         inkscape:connector-curvature="0"
         id="path4052"
         d="m -24.30929,966.37743 0,78.94817 0.5,0 0,-78.94817 -0.5,0 z"
         style="font-size:medium;font-style:normal;font-variant:normal;font-weight:normal;font-stretch:normal;text-indent:0;text-align:start;text-decoration:none;line-height:normal;letter-spacing:normal;word-spacing:normal;text-transform:none;direction:ltr;block-progression:tb;writing-mode:lr-tb;text-anchor:start;baseline-shift:baseline;color:#000000;fill:#08ff00;fill-opacity:1;stroke:none;stroke-width:0.5;marker:none;visibility:visible;display:inline;overflow:visible;enable-background:accumulate;font-family:Sans;-inkscape-font-specification:Sans" />
      <path
         inkscape:connector-curvature="0"
         id="path4054"
         d="m -22.84054,966.37743 0,78.94817 0.5,0 0,-78.94817 -0.5,0 z"
         style="font-size:medium;font-style:normal;font-variant:normal;font-weight:normal;font-stretch:normal;text-indent:0;text-align:start;text-decoration:none;line-height:normal;letter-spacing:normal;word-spacing:normal;text-transform:none;direction:ltr;block-progression:tb;writing-mode:lr-tb;text-anchor:start;baseline-shift:baseline;color:#000000;fill:#002aff;fill-opacity:1;stroke:none;stroke-width:0.5;marker:none;visibility:visible;display:inline;overflow:visible;enable-background:accumulate;font-family:Sans;-inkscape-font-specification:Sans" />
      <path
         inkscape:connector-curvature="0"
         id="path4056"
         d="m -21.30929,966.37743 0,78.94817 0.5,0 0,-78.94817 -0.5,0 z"
         style="font-size:medium;font-style:normal;font-variant:normal;font-weight:normal;font-stretch:normal;text-indent:0;text-align:start;text-decoration:none;line-height:normal;letter-spacing:normal;word-spacing:normal;text-transform:none;direction:ltr;block-progression:tb;writing-mode:lr-tb;text-anchor:start;baseline-shift:baseline;color:#000000;fill:#ff001e;fill-opacity:1;stroke:none;stroke-width:0.5;marker:none;visibility:visible;display:inline;overflow:visible;enable-background:accumulate;font-family:Sans;-inkscape-font-specification:Sans" />
      <path
         inkscape:connector-curvature="0"
         id="path4058"
         d="m -19.84054,966.37743 0,78.94817 0.5,0 0,-78.94817 -0.5,0 z"
         style="font-size:medium;font-style:normal;font-variant:normal;font-weight:normal;font-stretch:normal;text-indent:0;text-align:start;text-decoration:none;line-height:normal;letter-spacing:normal;word-spacing:normal;text-transform:none;direction:ltr;block-progression:tb;writing-mode:lr-tb;text-anchor:start;baseline-shift:baseline;color:#000000;fill:#08ff00;fill-opacity:1;stroke:none;stroke-width:0.5;marker:none;visibility:visible;display:inline;overflow:visible;enable-background:accumulate;font-family:Sans;-inkscape-font-specification:Sans" />
      <path
         inkscape:connector-curvature="0"
         id="path4060"
         d="m -18.37179,966.37743 0,78.94817 0.5,0 0,-78.94817 -0.5,0 z"
         style="font-size:medium;font-style:normal;font-variant:normal;font-weight:normal;font-stretch:normal;text-indent:0;text-align:start;text-decoration:none;line-height:normal;letter-spacing:normal;word-spacing:normal;text-transform:none;direction:ltr;block-progression:tb;writing-mode:lr-tb;text-anchor:start;baseline-shift:baseline;color:#000000;fill:#002aff;fill-opacity:1;stroke:none;stroke-width:0.5;marker:none;visibility:visible;display:inline;overflow:visible;enable-background:accumulate;font-family:Sans;-inkscape-font-specification:Sans" />
      <path
         inkscape:connector-curvature="0"
         id="path4062"
         d="m -16.84054,966.37743 0,78.94817 0.5,0 0,-78.94817 -0.5,0 z"
         style="font-size:medium;font-style:normal;font-variant:normal;font-weight:normal;font-stretch:normal;text-indent:0;text-align:start;text-decoration:none;line-height:normal;letter-spacing:normal;word-spacing:normal;text-transform:none;direction:ltr;block-progression:tb;writing-mode:lr-tb;text-anchor:start;baseline-shift:baseline;color:#000000;fill:#ff001e;fill-opacity:1;stroke:none;stroke-width:0.5;marker:none;visibility:visible;display:inline;overflow:visible;enable-background:accumulate;font-family:Sans;-inkscape-font-specification:Sans" />
      <path
         inkscape:connector-curvature="0"
         id="path4064"
         d="m -15.37179,966.37743 0,78.94817 0.5,0 0,-78.94817 -0.5,0 z"
         style="font-size:medium;font-style:normal;font-variant:normal;font-weight:normal;font-stretch:normal;text-indent:0;text-align:start;text-decoration:none;line-height:normal;letter-spacing:normal;word-spacing:normal;text-transform:none;direction:ltr;block-progression:tb;writing-mode:lr-tb;text-anchor:start;baseline-shift:baseline;color:#000000;fill:#08ff00;fill-opacity:1;stroke:none;stroke-width:0.5;marker:none;visibility:visible;display:inline;overflow:visible;enable-background:accumulate;font-family:Sans;-inkscape-font-specification:Sans" />
      <path
         style="font-size:medium;font-style:normal;font-variant:normal;font-weight:normal;font-stretch:normal;text-indent:0;text-align:start;text-decoration:none;line-height:normal;letter-spacing:normal;word-spacing:normal;text-transform:none;direction:ltr;block-progression:tb;writing-mode:lr-tb;text-anchor:start;baseline-shift:baseline;color:#000000;fill:#ff001e;fill-opacity:1;stroke:none;stroke-width:0.5;marker:none;visibility:visible;display:inline;overflow:visible;enable-background:accumulate;font-family:Sans;-inkscape-font-specification:Sans"
         d="m -88.37179,966.37743 0,78.94817 0.5,0 0,-78.94817 -0.5,0 z"
         id="path3905"
         inkscape:connector-curvature="0" />
      <path
         style="font-size:medium;font-style:normal;font-variant:normal;font-weight:normal;font-stretch:normal;text-indent:0;text-align:start;text-decoration:none;line-height:normal;letter-spacing:normal;word-spacing:normal;text-transform:none;direction:ltr;block-progression:tb;writing-mode:lr-tb;text-anchor:start;baseline-shift:baseline;color:#000000;fill:#08ff00;fill-opacity:1;stroke:none;stroke-width:0.5;marker:none;visibility:visible;display:inline;overflow:visible;enable-background:accumulate;font-family:Sans;-inkscape-font-specification:Sans"
         d="m -86.90304,966.37743 0,78.94817 0.5,0 0,-78.94817 -0.5,0 z"
         id="path3907"
         inkscape:connector-curvature="0" />
      <path
         style="font-size:medium;font-style:normal;font-variant:normal;font-weight:normal;font-stretch:normal;text-indent:0;text-align:start;text-decoration:none;line-height:normal;letter-spacing:normal;word-spacing:normal;text-transform:none;direction:ltr;block-progression:tb;writing-mode:lr-tb;text-anchor:start;baseline-shift:baseline;color:#000000;fill:#002aff;fill-opacity:1;stroke:none;stroke-width:0.5;marker:none;visibility:visible;display:inline;overflow:visible;enable-background:accumulate;font-family:Sans;-inkscape-font-specification:Sans"
         d="m -85.43429,966.37743 0,78.94817 0.5,0 0,-78.94817 -0.5,0 z"
         id="path3909"
         inkscape:connector-curvature="0" />
      <path
         style="font-size:medium;font-style:normal;font-variant:normal;font-weight:normal;font-stretch:normal;text-indent:0;text-align:start;text-decoration:none;line-height:normal;letter-spacing:normal;word-spacing:normal;text-transform:none;direction:ltr;block-progression:tb;writing-mode:lr-tb;text-anchor:start;baseline-shift:baseline;color:#000000;fill:#ff001e;fill-opacity:1;stroke:none;stroke-width:0.5;marker:none;visibility:visible;display:inline;overflow:visible;enable-background:accumulate;font-family:Sans;-inkscape-font-specification:Sans"
         d="m -83.90304,966.37743 0,78.94817 0.5,0 0,-78.94817 -0.5,0 z"
         id="path3911"
         inkscape:connector-curvature="0" />
      <path
         style="font-size:medium;font-style:normal;font-variant:normal;font-weight:normal;font-stretch:normal;text-indent:0;text-align:start;text-decoration:none;line-height:normal;letter-spacing:normal;word-spacing:normal;text-transform:none;direction:ltr;block-progression:tb;writing-mode:lr-tb;text-anchor:start;baseline-shift:baseline;color:#000000;fill:#08ff00;fill-opacity:1;stroke:none;stroke-width:0.5;marker:none;visibility:visible;display:inline;overflow:visible;enable-background:accumulate;font-family:Sans;-inkscape-font-specification:Sans"
         d="m -82.43429,966.37743 0,78.94817 0.5,0 0,-78.94817 -0.5,0 z"
         id="path3913"
         inkscape:connector-curvature="0" />
      <path
         style="font-size:medium;font-style:normal;font-variant:normal;font-weight:normal;font-stretch:normal;text-indent:0;text-align:start;text-decoration:none;line-height:normal;letter-spacing:normal;word-spacing:normal;text-transform:none;direction:ltr;block-progression:tb;writing-mode:lr-tb;text-anchor:start;baseline-shift:baseline;color:#000000;fill:#002aff;fill-opacity:1;stroke:none;stroke-width:0.5;marker:none;visibility:visible;display:inline;overflow:visible;enable-background:accumulate;font-family:Sans;-inkscape-font-specification:Sans"
         d="m -80.96554,966.37743 0,78.94817 0.5,0 0,-78.94817 -0.5,0 z"
         id="path3915"
         inkscape:connector-curvature="0" />
      <path
         style="font-size:medium;font-style:normal;font-variant:normal;font-weight:normal;font-stretch:normal;text-indent:0;text-align:start;text-decoration:none;line-height:normal;letter-spacing:normal;word-spacing:normal;text-transform:none;direction:ltr;block-progression:tb;writing-mode:lr-tb;text-anchor:start;baseline-shift:baseline;color:#000000;fill:#ff001e;fill-opacity:1;stroke:none;stroke-width:0.5;marker:none;visibility:visible;display:inline;overflow:visible;enable-background:accumulate;font-family:Sans;-inkscape-font-specification:Sans"
         d="m -79.43429,966.37743 0,78.94817 0.5,0 0,-78.94817 -0.5,0 z"
         id="path3917"
         inkscape:connector-curvature="0" />
      <path
         style="font-size:medium;font-style:normal;font-variant:normal;font-weight:normal;font-stretch:normal;text-indent:0;text-align:start;text-decoration:none;line-height:normal;letter-spacing:normal;word-spacing:normal;text-transform:none;direction:ltr;block-progression:tb;writing-mode:lr-tb;text-anchor:start;baseline-shift:baseline;color:#000000;fill:#08ff00;fill-opacity:1;stroke:none;stroke-width:0.5;marker:none;visibility:visible;display:inline;overflow:visible;enable-background:accumulate;font-family:Sans;-inkscape-font-specification:Sans"
         d="m -77.96554,966.37743 0,78.94817 0.5,0 0,-78.94817 -0.5,0 z"
         id="path3919"
         inkscape:connector-curvature="0" />
      <path
         style="font-size:medium;font-style:normal;font-variant:normal;font-weight:normal;font-stretch:normal;text-indent:0;text-align:start;text-decoration:none;line-height:normal;letter-spacing:normal;word-spacing:normal;text-transform:none;direction:ltr;block-progression:tb;writing-mode:lr-tb;text-anchor:start;baseline-shift:baseline;color:#000000;fill:#002aff;fill-opacity:1;stroke:none;stroke-width:0.5;marker:none;visibility:visible;display:inline;overflow:visible;enable-background:accumulate;font-family:Sans;-inkscape-font-specification:Sans"
         d="m -76.49679,966.37743 0,78.94817 0.5,0 0,-78.94817 -0.5,0 z"
         id="path3921"
         inkscape:connector-curvature="0" />
      <path
         style="font-size:medium;font-style:normal;font-variant:normal;font-weight:normal;font-stretch:normal;text-indent:0;text-align:start;text-decoration:none;line-height:normal;letter-spacing:normal;word-spacing:normal;text-transform:none;direction:ltr;block-progression:tb;writing-mode:lr-tb;text-anchor:start;baseline-shift:baseline;color:#000000;fill:#ff001e;fill-opacity:1;stroke:none;stroke-width:0.5;marker:none;visibility:visible;display:inline;overflow:visible;enable-background:accumulate;font-family:Sans;-inkscape-font-specification:Sans"
         d="m -74.96554,966.37743 0,78.94817 0.5,0 0,-78.94817 -0.5,0 z"
         id="path3923"
         inkscape:connector-curvature="0" />
      <path
         style="font-size:medium;font-style:normal;font-variant:normal;font-weight:normal;font-stretch:normal;text-indent:0;text-align:start;text-decoration:none;line-height:normal;letter-spacing:normal;word-spacing:normal;text-transform:none;direction:ltr;block-progression:tb;writing-mode:lr-tb;text-anchor:start;baseline-shift:baseline;color:#000000;fill:#08ff00;fill-opacity:1;stroke:none;stroke-width:0.5;marker:none;visibility:visible;display:inline;overflow:visible;enable-background:accumulate;font-family:Sans;-inkscape-font-specification:Sans"
         d="m -73.49679,966.37743 0,78.94817 0.5,0 0,-78.94817 -0.5,0 z"
         id="path3925"
         inkscape:connector-curvature="0" />
      <path
         style="font-size:medium;font-style:normal;font-variant:normal;font-weight:normal;font-stretch:normal;text-indent:0;text-align:start;text-decoration:none;line-height:normal;letter-spacing:normal;word-spacing:normal;text-transform:none;direction:ltr;block-progression:tb;writing-mode:lr-tb;text-anchor:start;baseline-shift:baseline;color:#000000;fill:#002aff;fill-opacity:1;stroke:none;stroke-width:0.5;marker:none;visibility:visible;display:inline;overflow:visible;enable-background:accumulate;font-family:Sans;-inkscape-font-specification:Sans"
         d="m -72.05929,966.37743 0,78.94817 0.5,0 0,-78.94817 -0.5,0 z"
         id="path3927"
         inkscape:connector-curvature="0" />
    </g>
    <path
       style="font-size:55.91333389px;font-style:normal;font-variant:normal;font-weight:500;font-stretch:normal;text-align:end;line-height:125%;letter-spacing:0px;word-spacing:0px;text-anchor:end;fill:#ff0000;fill-opacity:0.1415525;stroke:none;font-family:Ubuntu;-inkscape-font-specification:Ubuntu Medium"
       d="m 21.685333,967.1875 c -2.020705,4e-5 -3.998846,0.84819 -5.41094,2.26027 -1.423144,1.42316 -2.243151,3.41234 -2.243143,5.41094 -8e-6,1.99287 0.835202,3.97079 2.22602,5.37669 0.924609,0.93468 2.119113,1.58781 3.390399,1.95205 -1.26641,0.35726 -2.460236,1.01172 -3.390399,1.95205 -1.408365,1.42366 -2.226028,3.40661 -2.22602,5.39384 -8e-6,2.00438 0.82677,3.99462 2.243143,5.41096 1.42311,1.423 3.412254,2.2431 5.41094,2.2431 1.990174,0 3.984521,-0.798 5.410941,-2.2089 0.9326,-0.9226 1.575329,-2.10172 1.934924,-3.35618 0.354844,1.24728 0.99543,2.41668 1.917802,3.33908 a 2.6667197,2.6667197 0 0 0 0.01712,0.017 c 1.43527,1.4044 3.420748,2.2089 5.410941,2.2089 1.999959,0 3.993097,-0.8151 5.41094,-2.2431 l 0,-0.017 c 1.410439,-1.41574 2.243103,-3.39392 2.243143,-5.3938 -4e-5,-1.98279 -0.823455,-3.95374 -2.22602,-5.37675 -0.0031,-0.005 -0.01404,0.005 -0.01712,0 -0.928003,-0.94499 -2.103153,-1.61315 -3.373276,-1.96915 1.274497,-0.36308 2.451129,-1.03009 3.373276,-1.96917 l 0.01712,0.0171 c 0.0031,-0.003 -0.0031,-0.0139 0,-0.0171 1.385132,-1.40526 2.22598,-3.37122 2.22602,-5.35957 -4e-5,-1.99418 -0.825835,-3.97129 -2.243143,-5.39381 -0.0031,-0.003 0.0031,-0.014 0,-0.0171 -1.406874,-1.41708 -3.389107,-2.26023 -5.41094,-2.26027 -2.020712,4e-5 -4.007083,0.83745 -5.428064,2.24315 -0.921549,0.91153 -1.559551,2.09082 -1.917802,3.33903 -0.360194,-1.25074 -1.009955,-2.41078 -1.934924,-3.32191 -0.0031,-0.003 -0.01397,0.003 -0.01712,0 -1.41148,-1.40637 -3.377628,-2.26023 -5.393817,-2.26027 z"
       id="path3878"
       inkscape:connector-curvature="0" />
    <path
       style="font-size:55.91333389px;font-style:normal;font-variant:normal;font-weight:500;font-stretch:normal;text-align:end;line-height:125%;letter-spacing:0px;word-spacing:0px;text-anchor:end;fill:#ff0000;fill-opacity:0.1415525;stroke:none;font-family:Ubuntu;-inkscape-font-specification:Ubuntu Medium"
       d="m 21.685333,967.94092 c -1.840636,4e-5 -3.590458,0.74803 -4.88012,2.03767 -1.297632,1.29765 -2.020548,3.05543 -2.020541,4.88012 -7e-6,1.81762 0.729095,3.55773 2.003418,4.84587 1.278329,1.29226 3.019705,2.0548 4.845874,2.05479 l 0.787668,0 0,0.87328 -0.787668,0 c -1.80976,0 -3.559668,0.73737 -4.845874,2.03769 -1.286976,1.30099 -2.003425,3.05238 -2.003418,4.863 -7e-6,1.83178 0.727791,3.58739 2.020541,4.88006 1.297604,1.2976 3.055362,2.0206 4.88012,2.0206 1.818615,0 3.580124,-0.7005 4.88012,-1.9863 1.303207,-1.28928 2.03765,-3.04631 2.037665,-4.86302 l 0,-0.77057 0.856161,0 0,0.77057 c -2.2e-5,1.81052 0.728953,3.55429 2.020541,4.84582 a 1.9228635,1.9228635 0 0 0 0,0.017 c 1.30932,1.2812 3.078607,1.9863 4.897244,1.9863 1.827424,0 3.589646,-0.721 4.88012,-2.0205 l 0,-0.017 c 1.286246,-1.29179 2.020505,-3.03606 2.020541,-4.86301 -3.7e-5,-1.81057 -0.716488,-3.56207 -2.003418,-4.863 -1.279724,-1.30794 -3.029199,-2.03769 -4.845874,-2.03769 l -0.787668,0 0,-0.87329 0.787668,0 c 1.832957,2e-5 3.573982,-0.75495 4.845874,-2.05478 1.274277,-1.28814 2.003381,-3.02828 2.003418,-4.84588 -3.6e-5,-1.81986 -0.729394,-3.56631 -2.020541,-4.863 -0.0034,-0.003 0.0034,-0.0137 0,-0.0171 -1.282492,-1.29109 -3.037343,-2.03763 -4.88012,-2.03767 -1.840643,4e-5 -3.598228,0.7355 -4.897244,2.02055 -1.288074,1.27407 -2.020563,3.01819 -2.020541,4.82875 l 0,0.78766 -0.856161,0 0,-0.78766 c -1.5e-5,-1.81194 -0.744383,-3.54079 -2.037665,-4.81163 -0.0034,-0.003 -0.01371,0.003 -0.01712,0 -1.288726,-1.28334 -3.02723,-2.0376 -4.862997,-2.03764 z m 0,6.19861 c 0.286947,10e-6 0.315349,0.007 0.513697,0.20548 a 1.9228635,1.9228635 0 0 0 0,0.0171 c 0.189339,0.18548 0.222598,0.2397 0.222602,0.49657 l 0,0.71917 -0.719176,0 c -0.286951,10e-6 -0.31539,-0.007 -0.513696,-0.20547 -0.213282,-0.21327 -0.222605,-0.25679 -0.222602,-0.5137 -3e-6,-0.25684 0.03326,-0.31109 0.222602,-0.49657 a 1.9228635,1.9228635 0 0 0 0,-0.0171 c 0.204045,-0.20404 0.226688,-0.20547 0.496573,-0.20548 z m 14.691731,0 c 0.286919,10e-6 0.293623,0.0158 0.47945,0.20548 a 1.9228635,1.9228635 0 0 0 0.01712,0.0171 c 0.189335,0.18548 0.222592,0.23968 0.222602,0.49657 -10e-6,0.25696 -0.0093,0.30042 -0.222602,0.5137 -0.204087,0.20408 -0.226763,0.20548 -0.496573,0.20547 l -0.736299,0 0,-0.71917 c -8e-6,-0.25682 0.03325,-0.3111 0.222602,-0.49657 a 1.9228635,1.9228635 0 0 0 0,-0.0171 c 0.198291,-0.19829 0.226698,-0.20547 0.513697,-0.20548 z m -7.773946,7.61984 0.856161,0 0,0.87328 -0.856161,0 0,-0.87328 z m -6.900662,7.05474 0.719176,0 0,0.71923 c -4e-6,0.2394 -0.01844,0.30948 -0.222602,0.51364 -0.204107,0.20411 -0.226909,0.20554 -0.496574,0.20548 -0.286967,0 -0.315386,-0.007 -0.513696,-0.20548 -0.213365,-0.21337 -0.222605,-0.25682 -0.222602,-0.51364 -2e-6,-0.23934 0.01865,-0.30981 0.222602,-0.51375 0.198256,-0.19825 0.226551,-0.20542 0.513696,-0.20548 z m 13.938309,0 0.736299,0 c 0.269827,0 0.292487,0 0.496573,0.20548 0.20394,0.20394 0.222593,0.27435 0.222602,0.51375 -10e-6,0.25688 -0.0092,0.30027 -0.222602,0.51364 a 1.9228635,1.9228635 0 0 0 -0.01712,0 c -0.185817,0.1897 -0.192536,0.20548 -0.47945,0.20548 -0.286995,0 -0.315415,-0.007 -0.513697,-0.20548 -0.204123,-0.20411 -0.222609,-0.27441 -0.222602,-0.51364 l 0,-0.71923 z"
       id="path3874"
       inkscape:connector-curvature="0" />
    <path
       style="font-size:55.91333389px;font-style:normal;font-variant:normal;font-weight:500;font-stretch:normal;text-align:end;line-height:125%;letter-spacing:0px;word-spacing:0px;text-anchor:end;fill:#ff0000;fill-opacity:0.1415525;stroke:none;font-family:Ubuntu;-inkscape-font-specification:Ubuntu Medium"
       d="m 21.685333,969.36215 c -1.493618,3e-5 -2.816131,0.57301 -3.869849,1.62671 -1.055756,1.05577 -1.60959,2.38031 -1.609584,3.86985 -6e-6,1.47988 0.55976,2.77439 1.609584,3.8356 1.050834,1.06228 2.352203,1.64384 3.81848,1.64383 l 2.208896,0 0,3.71577 -2.208896,0 c -1.462101,0 -2.765641,0.5623 -3.81848,1.62668 -1.053043,1.06449 -1.60959,2.38251 -1.609584,3.85275 -6e-6,1.49923 0.555071,2.81533 1.609584,3.8698 1.055739,1.05576 2.380272,1.60956 3.869849,1.60966 1.487998,0 2.813489,-0.5477 3.86985,-1.59251 1.065046,-1.05364 1.626695,-2.36394 1.626707,-3.83561 l 0,-2.19177 3.698617,0 0,2.19177 c -1.8e-5,1.47014 0.555354,2.78136 1.609584,3.83561 1.066597,1.04371 2.398945,1.59251 3.886973,1.59251 1.499236,0 2.823583,-0.5519 3.869849,-1.60966 1.05446,-1.05447 1.609554,-2.37063 1.609584,-3.8698 -3e-5,-1.47024 -0.556577,-2.78826 -1.609584,-3.85275 -1.043326,-1.0663 -2.346756,-1.62668 -3.81848,-1.62668 l -2.208896,0 0,-3.71577 2.208896,0 c 1.475867,1e-5 2.777147,-0.57962 3.81848,-1.64383 1.049787,-1.06121 1.609554,-2.35573 1.609584,-3.8356 -3e-5,-1.48953 -0.553865,-2.81408 -1.609584,-3.86985 -1.044249,-1.05568 -2.36659,-1.62668 -3.869849,-1.62671 -1.493629,3e-5 -2.822998,0.57417 -3.886973,1.62671 -1.053335,1.04188 -1.609602,2.33118 -1.609584,3.80135 l 0,2.2089 -3.698617,0 0,-2.2089 c -1.2e-5,-1.47174 -0.562575,-2.76007 -1.626707,-3.80135 -1.053734,-1.0537 -2.376252,-1.62668 -3.86985,-1.62671 z m 0,3.35615 c 0.617154,2e-5 1.087069,0.17957 1.523968,0.61644 0.434593,0.42575 0.63355,0.91447 0.633559,1.52397 l 0,2.1404 -2.140404,0 c -0.617167,10e-6 -1.087091,-0.17954 -1.523967,-0.61644 -0.440699,-0.44067 -0.633564,-0.91443 -0.633559,-1.52396 -5e-6,-0.60949 0.198952,-1.09822 0.633559,-1.52397 0.438336,-0.43832 0.901904,-0.61642 1.506844,-0.61644 z m 14.691731,0 c 0.617134,2e-5 1.081004,0.18177 1.506844,0.61644 0.43458,0.42575 0.633536,0.91447 0.633559,1.52397 -2.3e-5,0.60954 -0.192887,1.08328 -0.633559,1.52396 -0.438372,0.43836 -0.901947,0.61645 -1.506844,0.61644 l -2.157527,0 0,-2.1404 c -1.8e-5,-0.60948 0.198939,-1.09822 0.633559,-1.52397 0.43686,-0.43686 0.906776,-0.61642 1.523968,-0.61644 z m -9.195174,7.61984 3.698617,0 0,3.71577 -3.698617,0 0,-3.71577 z m -5.479434,7.05477 2.140404,0 0,2.14043 c -9e-6,0.5972 -0.195193,1.08553 -0.633559,1.52394 -0.438364,0.43836 -0.901976,0.61649 -1.506845,0.61644 -0.617171,0 -1.08709,-0.17956 -1.523967,-0.61644 -0.44072,-0.44076 -0.633564,-0.91446 -0.633559,-1.52394 -5e-6,-0.59715 0.195235,-1.08569 0.633559,-1.52399 0.436863,-0.43688 0.90675,-0.61639 1.523967,-0.61644 z m 12.517081,0 2.157527,0 c 0.6049,0 1.068473,0.17808 1.506844,0.61644 0.438297,0.4383 0.633536,0.92684 0.633559,1.52399 -2.3e-5,0.60948 -0.192866,1.08318 -0.633559,1.52394 -0.425838,0.43468 -0.889711,0.61644 -1.506844,0.61644 -0.617191,0 -1.087111,-0.17956 -1.523968,-0.61644 -0.43838,-0.43841 -0.633577,-0.92685 -0.633559,-1.52394 l 0,-2.14043 z"
       id="path3872"
       inkscape:connector-curvature="0" />
    <path
       style="font-size:55.91333389px;font-style:normal;font-variant:normal;font-weight:500;font-stretch:normal;text-align:end;line-height:125%;letter-spacing:0px;word-spacing:0px;text-anchor:end;fill:#ff0000;fill-opacity:0.1415525;stroke:none;font-family:Ubuntu;-inkscape-font-specification:Ubuntu Medium"
       d="m 21.685333,968.6601 c -1.663296,3e-5 -3.197337,0.66312 -4.366423,1.83218 -1.174023,1.17405 -1.815069,2.71302 -1.815062,4.36643 -7e-6,1.64502 0.655467,3.16 1.815062,4.33217 1.16207,1.17473 2.672804,1.84932 4.315054,1.84931 l 1.506844,0 0,2.31164 -1.506844,0 c -1.632093,0 -3.148107,0.65243 -4.315054,1.83216 -1.167427,1.18016 -1.815069,2.7127 -1.815062,4.34935 -7e-6,1.6618 0.64406,3.19544 1.815062,4.3664 1.174002,1.17396 2.712956,1.81506 4.366423,1.81506 1.649657,0 3.190934,-0.6353 4.366424,-1.79791 1.181496,-1.16888 1.832172,-2.69183 1.832185,-4.33221 l 0,-1.48969 2.294513,0 0,1.48969 c -2e-5,1.63655 0.644774,3.16191 1.815062,4.33221 a 1.1902852,1.1902852 0 0 0 0,0.017 c 1.185279,1.15983 2.733863,1.78083 4.383547,1.78083 1.661861,0 3.200355,-0.6362 4.366423,-1.81507 1.17092,-1.17096 1.815029,-2.7046 1.815062,-4.3664 -3.3e-5,-1.63183 -0.654237,-3.15347 -1.815062,-4.3322 -0.0034,-0.005 0.0035,-0.0137 0,-0.017 -1.157665,-1.17775 -2.679493,-1.83216 -4.315054,-1.83216 l -1.506844,0 0,-2.31163 1.506844,0 c 1.64561,10e-6 3.162226,-0.67636 4.315054,-1.84931 l 0,-0.0171 c 1.153035,-1.1707 1.815029,-2.67493 1.815062,-4.31505 -3.3e-5,-1.65339 -0.641079,-3.19238 -1.815062,-4.36642 -1.161161,-1.17387 -2.694777,-1.83216 -4.366423,-1.83219 -1.663305,3e-5 -3.204646,0.66596 -4.383547,1.83219 -1.168113,1.15541 -1.815082,2.66132 -1.815062,4.29793 l 0,1.50684 -2.294513,0 0,-1.50684 c -1.3e-5,-1.63561 -0.659486,-3.14526 -1.832185,-4.29793 -0.0035,-0.003 -0.01369,0.003 -0.01712,0 -1.167816,-1.16269 -2.690903,-1.83224 -4.3493,-1.83227 z m 0,4.76026 c 0.455696,1e-5 0.707137,0.0907 1.027394,0.41095 a 1.1902852,1.1902852 0 0 0 0,0.0171 c 0.314673,0.30827 0.428074,0.5732 0.428081,1.01027 l 0,1.43835 -1.438352,0 c -0.455704,1e-5 -0.707169,-0.0907 -1.027393,-0.41096 -0.329501,-0.32949 -0.428084,-0.59028 -0.428081,-1.02739 -3e-6,-0.43706 0.113399,-0.702 0.428081,-1.01027 a 1.1902852,1.1902852 0 0 0 0,-0.0171 c 0.323777,-0.32377 0.569158,-0.41094 1.01027,-0.41095 z m 14.691731,0 c 0.455672,1e-5 0.684664,0.0961 0.993147,0.41095 a 1.1902852,1.1902852 0 0 0 0.01712,0.0171 c 0.314665,0.30827 0.428064,0.57318 0.428081,1.01027 -1.7e-5,0.43714 -0.0986,0.6979 -0.428081,1.02739 -0.323816,0.32381 -0.569218,0.41097 -1.01027,0.41096 l -1.455475,0 0,-1.43835 c -1.3e-5,-0.43704 0.11339,-0.70201 0.428081,-1.01027 a 1.1902852,1.1902852 0 0 0 0,-0.0171 c 0.320209,-0.3202 0.571653,-0.41094 1.027394,-0.41095 z m -8.493122,7.61983 2.294513,0 0,2.31164 -2.294513,0 0,-2.31164 z m -6.181486,7.0548 1.438352,0 0,1.43835 c -7e-6,0.42225 -0.104231,0.70351 -0.428081,1.02739 -0.323821,0.32378 -0.569304,0.41096 -1.010271,0.41096 -0.455714,0 -0.707166,-0.0908 -1.027393,-0.41096 -0.329552,-0.32958 -0.428084,-0.59035 -0.428081,-1.02739 -3e-6,-0.42219 0.104357,-0.70372 0.428081,-1.02739 0.320193,-0.32022 0.571569,-0.41096 1.027393,-0.41096 z m 13.219133,0 1.455475,0 c 0.441063,0 0.686455,0.0871 1.01027,0.41096 0.323706,0.32367 0.428065,0.60515 0.428081,1.02739 -1.7e-5,0.43704 -0.09855,0.69781 -0.428081,1.02739 a 1.1902852,1.1902852 0 0 0 -0.01712,0 c -0.308477,0.31485 -0.537478,0.41091 -0.993147,0.41096 -0.455738,0 -0.707191,-0.0908 -1.027394,-0.41096 -0.323837,-0.32388 -0.428093,-0.60525 -0.428081,-1.02739 l 0,-1.43835 z"
       id="path3876"
       inkscape:connector-curvature="0" />
    <path
       style="font-size:55.91333389px;font-style:normal;font-variant:normal;font-weight:500;font-stretch:normal;text-align:end;line-height:125%;letter-spacing:0px;word-spacing:0px;text-anchor:end;fill:#cc0c00;fill-opacity:1;stroke:none;font-family:Ubuntu;-inkscape-font-specification:Ubuntu Medium"
       d="m 21.685333,969.86454 c -1.375157,3e-5 -2.55421,0.49088 -3.527385,1.46404 -0.973186,0.9732 -1.45548,2.15011 -1.455474,3.52524 -6e-6,1.36459 0.482288,2.52224 1.455474,3.50598 0.973175,0.98378 2.132596,1.48331 3.476016,1.4833 l 2.70547,0 0,4.70029 -2.70547,0 c -1.34342,0 -2.502841,0.4995 -3.476016,1.48333 -0.973186,0.98378 -1.45548,2.152 -1.455474,3.50596 -6e-6,1.38575 0.482288,2.55205 1.455474,3.52525 0.973175,0.97317 2.152228,1.46407 3.527385,1.46407 1.375135,0 2.554194,-0.4822 3.527385,-1.44478 0.983745,-0.9732 1.472587,-2.13282 1.472598,-3.48673 l 0,-2.69692 4.691765,0 0,2.69692 c -1.7e-5,1.35391 0.482272,2.51353 1.455474,3.48673 0.983739,0.96258 2.169341,1.44478 3.544509,1.44478 1.385699,0 2.564758,-0.4909 3.527385,-1.46407 0.973153,-0.9732 1.455447,-2.1395 1.455474,-3.52525 -2.7e-5,-1.35396 -0.482321,-2.52218 -1.455474,-3.50596 -0.962627,-0.98383 -2.122048,-1.48333 -3.476016,-1.48333 l -2.70547,0 0,-4.70029 2.70547,0 c 1.353968,10e-6 2.513389,-0.49952 3.476016,-1.4833 0.973153,-0.98374 1.455447,-2.14139 1.455474,-3.50598 -2.7e-5,-1.37513 -0.482321,-2.55204 -1.455474,-3.52524 -0.962627,-0.97316 -2.141686,-1.46401 -3.527385,-1.46404 -1.375168,3e-5 -2.56077,0.49088 -3.544509,1.46404 -0.973202,0.96262 -1.455491,2.11348 -1.455474,3.46745 l 0,2.69691 -4.691765,0 0,-2.69691 c -1.1e-5,-1.35397 -0.488853,-2.50483 -1.472598,-3.46745 -0.973191,-0.97316 -2.15225,-1.46401 -3.527385,-1.46404 z m 0,2.35016 c 0.729877,2e-5 1.3481,0.25225 1.866432,0.77055 0.518316,0.50776 0.787658,1.1387 0.787669,1.86857 l 0,2.63912 -2.636978,0 c -0.729893,10e-6 -1.348115,-0.2522 -1.866431,-0.77054 -0.518333,-0.51831 -0.787674,-1.13868 -0.787669,-1.86858 -5e-6,-0.72987 0.269336,-1.36081 0.787669,-1.86857 0.518316,-0.5183 1.12999,-0.77053 1.849308,-0.77055 z m 14.691731,0 c 0.72986,2e-5 1.341535,0.25225 1.849308,0.77055 0.5183,0.50776 0.787641,1.1387 0.787669,1.86857 -2.8e-5,0.7299 -0.269369,1.35027 -0.787669,1.86858 -0.518349,0.51834 -1.130023,0.77055 -1.849308,0.77054 l -2.654101,0 0,-2.63912 c -2.2e-5,-0.72987 0.26932,-1.36081 0.787669,-1.86857 0.518299,-0.5183 1.136522,-0.77053 1.866432,-0.77055 z m -9.691748,7.6284 4.691765,0 0,4.70029 -4.691765,0 0,-4.70029 z m -4.98286,7.05047 2.636978,0 0,2.63911 c -1.1e-5,0.71934 -0.269353,1.35025 -0.787669,1.8686 -0.518332,0.5183 -1.130012,0.77052 -1.849309,0.77052 -0.729893,0 -1.348115,-0.25222 -1.866431,-0.77052 -0.518333,-0.51835 -0.787674,-1.13868 -0.787669,-1.8686 -5e-6,-0.71928 0.269336,-1.35024 0.787669,-1.86854 0.518316,-0.51835 1.136538,-0.77057 1.866431,-0.77057 z m 12.020507,0 2.654101,0 c 0.719285,0 1.330959,0.25222 1.849308,0.77057 0.5183,0.5183 0.787641,1.14926 0.787669,1.86854 -2.8e-5,0.72992 -0.269369,1.35025 -0.787669,1.8686 -0.507773,0.5183 -1.119448,0.77052 -1.849308,0.77052 -0.72991,0 -1.348133,-0.25222 -1.866432,-0.77052 -0.518349,-0.51835 -0.787691,-1.14926 -0.787669,-1.8686 l 0,-2.63911 z"
       id="text3775"
       inkscape:connector-curvature="0" />
    <path
       inkscape:connector-curvature="0"
       id="path3046"
       d="m 21.685333,999.1875 c -2.020705,0 -3.998846,0.8482 -5.41094,2.2603 -1.423144,1.4231 -2.243151,3.4123 -2.243143,5.4109 -8e-6,1.9929 0.835202,3.9708 2.22602,5.3767 0.924609,0.9347 2.119113,1.5878 3.390399,1.9521 -1.26641,0.3572 -2.460236,1.0117 -3.390399,1.952 -1.408365,1.4237 -2.226028,3.4066 -2.22602,5.3938 -8e-6,2.0044 0.82677,3.9947 2.243143,5.411 1.42311,1.423 3.412254,2.2431 5.41094,2.2431 1.990174,0 3.984521,-0.798 5.410941,-2.2089 0.9326,-0.9226 1.575329,-2.1017 1.934924,-3.3562 0.354844,1.2473 0.99543,2.4167 1.917802,3.3391 a 2.6667197,2.6667197 0 0 0 0.01712,0.017 c 1.43527,1.4044 3.420748,2.2089 5.410941,2.2089 1.999959,0 3.993097,-0.8151 5.41094,-2.2431 l 0,-0.017 c 1.410439,-1.4157 2.243103,-3.3939 2.243143,-5.3938 -4e-5,-1.9828 -0.823455,-3.9537 -2.22602,-5.3768 -0.0031,0 -0.01404,0 -0.01712,0 -0.928003,-0.9449 -2.103153,-1.6131 -3.373276,-1.9691 1.274497,-0.3631 2.451129,-1.0301 3.373276,-1.9692 l 0.01712,0.017 c 0.0031,0 -0.0031,-0.014 0,-0.017 1.385132,-1.4052 2.22598,-3.3712 2.22602,-5.3595 -4e-5,-1.9942 -0.825835,-3.9713 -2.243143,-5.3939 -0.0031,0 0.0031,-0.014 0,-0.017 -1.406874,-1.417 -3.389107,-2.2602 -5.41094,-2.2602 -2.020712,0 -4.007083,0.8374 -5.428064,2.2431 -0.921549,0.9116 -1.559551,2.0909 -1.917802,3.3391 -0.360194,-1.2508 -1.009955,-2.4108 -1.934924,-3.322 -0.0031,0 -0.01397,0 -0.01712,0 -1.41148,-1.4063 -3.377628,-2.2602 -5.393817,-2.2602 z"
       style="font-size:55.91333389px;font-style:normal;font-variant:normal;font-weight:500;font-stretch:normal;text-align:end;line-height:125%;letter-spacing:0px;word-spacing:0px;text-anchor:end;fill:#ff0000;fill-opacity:0.1415525;stroke:none;font-family:Ubuntu;-inkscape-font-specification:Ubuntu Medium" />
    <path
       inkscape:connector-curvature="0"
       id="path3048"
       d="m 21.685333,999.9409 c -1.840636,10e-5 -3.590458,0.748 -4.88012,2.0377 -1.297632,1.2976 -2.020548,3.0554 -2.020541,4.8801 -7e-6,1.8176 0.729095,3.5577 2.003418,4.8459 1.278329,1.2922 3.019705,2.0548 4.845874,2.0548 l 0.787668,0 0,0.8733 -0.787668,0 c -1.80976,0 -3.559668,0.7373 -4.845874,2.0376 -1.286976,1.301 -2.003425,3.0524 -2.003418,4.863 -7e-6,1.8318 0.727791,3.5874 2.020541,4.8801 1.297604,1.2976 3.055362,2.0206 4.88012,2.0206 1.818615,0 3.580124,-0.7005 4.88012,-1.9863 1.303207,-1.2893 2.03765,-3.0463 2.037665,-4.863 l 0,-0.7706 0.856161,0 0,0.7706 c -2.2e-5,1.8105 0.728953,3.5543 2.020541,4.8458 a 1.9228635,1.9228635 0 0 0 0,0.017 c 1.30932,1.2812 3.078607,1.9863 4.897244,1.9863 1.827424,0 3.589646,-0.721 4.88012,-2.0205 l 0,-0.017 c 1.286246,-1.2918 2.020505,-3.0361 2.020541,-4.863 -3.7e-5,-1.8106 -0.716488,-3.5621 -2.003418,-4.863 -1.279724,-1.308 -3.029199,-2.0377 -4.845874,-2.0377 l -0.787668,0 0,-0.8733 0.787668,0 c 1.832957,0 3.573982,-0.7549 4.845874,-2.0548 1.274277,-1.2881 2.003381,-3.0283 2.003418,-4.8459 -3.6e-5,-1.8198 -0.729394,-3.5663 -2.020541,-4.8629 -0.0034,0 0.0034,-0.014 0,-0.017 -1.282492,-1.2911 -3.037343,-2.0377 -4.88012,-2.0377 -1.840643,0 -3.598228,0.7355 -4.897244,2.0205 -1.288074,1.2741 -2.020563,3.0182 -2.020541,4.8288 l 0,0.7876 -0.856161,0 0,-0.7876 c -1.5e-5,-1.812 -0.744383,-3.5408 -2.037665,-4.8117 -0.0034,0 -0.01371,0 -0.01712,0 -1.288726,-1.2833 -3.02723,-2.0375 -4.862997,-2.0376 z m 0,6.1986 c 0.286947,0 0.315349,0.01 0.513697,0.2055 a 1.9228635,1.9228635 0 0 0 0,0.017 c 0.189339,0.1855 0.222598,0.2397 0.222602,0.4966 l 0,0.7191 -0.719176,0 c -0.286951,10e-5 -0.31539,-0.01 -0.513696,-0.2054 -0.213282,-0.2133 -0.222605,-0.2568 -0.222602,-0.5137 -3e-6,-0.2569 0.03326,-0.3111 0.222602,-0.4966 a 1.9228635,1.9228635 0 0 0 0,-0.017 c 0.204045,-0.204 0.226688,-0.2055 0.496573,-0.2055 z m 14.691731,0 c 0.286919,0 0.293623,0.016 0.47945,0.2055 a 1.9228635,1.9228635 0 0 0 0.01712,0.017 c 0.189335,0.1855 0.222592,0.2397 0.222602,0.4966 -10e-6,0.2569 -0.0093,0.3004 -0.222602,0.5137 -0.204087,0.2041 -0.226763,0.2055 -0.496573,0.2054 l -0.736299,0 0,-0.7191 c -8e-6,-0.2568 0.03325,-0.3111 0.222602,-0.4966 a 1.9228635,1.9228635 0 0 0 0,-0.017 c 0.198291,-0.1983 0.226698,-0.2055 0.513697,-0.2055 z m -7.773946,7.6199 0.856161,0 0,0.8732 -0.856161,0 0,-0.8732 z m -6.900662,7.0547 0.719176,0 0,0.7192 c -4e-6,0.2394 -0.01844,0.3095 -0.222602,0.5137 -0.204107,0.2041 -0.226909,0.2055 -0.496574,0.2055 -0.286967,0 -0.315386,-0.01 -0.513696,-0.2055 -0.213365,-0.2134 -0.222605,-0.2568 -0.222602,-0.5137 -2e-6,-0.2393 0.01865,-0.3098 0.222602,-0.5137 0.198256,-0.1983 0.226551,-0.2054 0.513696,-0.2055 z m 13.938309,0 0.736299,0 c 0.269827,0 0.292487,0 0.496573,0.2055 0.20394,0.2039 0.222593,0.2743 0.222602,0.5137 -10e-6,0.2569 -0.0092,0.3003 -0.222602,0.5137 a 1.9228635,1.9228635 0 0 0 -0.01712,0 c -0.185817,0.1897 -0.192536,0.2055 -0.47945,0.2055 -0.286995,0 -0.315415,-0.01 -0.513697,-0.2055 -0.204123,-0.2041 -0.222609,-0.2744 -0.222602,-0.5137 l 0,-0.7192 z"
       style="font-size:55.91333389px;font-style:normal;font-variant:normal;font-weight:500;font-stretch:normal;text-align:end;line-height:125%;letter-spacing:0px;word-spacing:0px;text-anchor:end;fill:#ff0000;fill-opacity:0.1415525;stroke:none;font-family:Ubuntu;-inkscape-font-specification:Ubuntu Medium" />
    <path
       inkscape:connector-curvature="0"
       id="path3050"
       d="m 21.685333,1001.3622 c -1.493618,0 -2.816131,0.573 -3.869849,1.6267 -1.055756,1.0557 -1.60959,2.3803 -1.609584,3.8698 -6e-6,1.4799 0.55976,2.7744 1.609584,3.8356 1.050834,1.0623 2.352203,1.6439 3.81848,1.6438 l 2.208896,0 0,3.7158 -2.208896,0 c -1.462101,0 -2.765641,0.5623 -3.81848,1.6267 -1.053043,1.0645 -1.60959,2.3825 -1.609584,3.8527 -6e-6,1.4993 0.555071,2.8154 1.609584,3.8698 1.055739,1.0558 2.380272,1.6096 3.869849,1.6097 1.487998,0 2.813489,-0.5477 3.86985,-1.5925 1.065046,-1.0536 1.626695,-2.3639 1.626707,-3.8356 l 0,-2.1918 3.698617,0 0,2.1918 c -1.8e-5,1.4701 0.555354,2.7813 1.609584,3.8356 1.066597,1.0437 2.398945,1.5925 3.886973,1.5925 1.499236,0 2.823583,-0.5519 3.869849,-1.6097 1.05446,-1.0544 1.609554,-2.3706 1.609584,-3.8698 -3e-5,-1.4702 -0.556577,-2.7882 -1.609584,-3.8527 -1.043326,-1.0663 -2.346756,-1.6267 -3.81848,-1.6267 l -2.208896,0 0,-3.7158 2.208896,0 c 1.475867,10e-5 2.777147,-0.5796 3.81848,-1.6438 1.049787,-1.0612 1.609554,-2.3557 1.609584,-3.8356 -3e-5,-1.4895 -0.553865,-2.8141 -1.609584,-3.8698 -1.044249,-1.0557 -2.36659,-1.6267 -3.869849,-1.6267 -1.493629,0 -2.822998,0.5741 -3.886973,1.6267 -1.053335,1.0418 -1.609602,2.3311 -1.609584,3.8013 l 0,2.2089 -3.698617,0 0,-2.2089 c -1.2e-5,-1.4717 -0.562575,-2.7601 -1.626707,-3.8013 -1.053734,-1.0537 -2.376252,-1.6267 -3.86985,-1.6267 z m 0,3.3561 c 0.617154,0 1.087069,0.1796 1.523968,0.6164 0.434593,0.4258 0.63355,0.9145 0.633559,1.524 l 0,2.1404 -2.140404,0 c -0.617167,0 -1.087091,-0.1795 -1.523967,-0.6164 -0.440699,-0.4407 -0.633564,-0.9145 -0.633559,-1.524 -5e-6,-0.6095 0.198952,-1.0982 0.633559,-1.524 0.438336,-0.4383 0.901904,-0.6164 1.506844,-0.6164 z m 14.691731,0 c 0.617134,0 1.081004,0.1818 1.506844,0.6164 0.43458,0.4258 0.633536,0.9145 0.633559,1.524 -2.3e-5,0.6095 -0.192887,1.0833 -0.633559,1.524 -0.438372,0.4383 -0.901947,0.6164 -1.506844,0.6164 l -2.157527,0 0,-2.1404 c -1.8e-5,-0.6095 0.198939,-1.0982 0.633559,-1.524 0.43686,-0.4368 0.906776,-0.6164 1.523968,-0.6164 z m -9.195174,7.6198 3.698617,0 0,3.7158 -3.698617,0 0,-3.7158 z m -5.479434,7.0548 2.140404,0 0,2.1404 c -9e-6,0.5972 -0.195193,1.0856 -0.633559,1.524 -0.438364,0.4383 -0.901976,0.6165 -1.506845,0.6164 -0.617171,0 -1.08709,-0.1795 -1.523967,-0.6164 -0.44072,-0.4408 -0.633564,-0.9145 -0.633559,-1.524 -5e-6,-0.5971 0.195235,-1.0857 0.633559,-1.524 0.436863,-0.4368 0.90675,-0.6163 1.523967,-0.6164 z m 12.517081,0 2.157527,0 c 0.6049,0 1.068473,0.1781 1.506844,0.6164 0.438297,0.4383 0.633536,0.9269 0.633559,1.524 -2.3e-5,0.6095 -0.192866,1.0832 -0.633559,1.524 -0.425838,0.4347 -0.889711,0.6164 -1.506844,0.6164 -0.617191,0 -1.087111,-0.1795 -1.523968,-0.6164 -0.43838,-0.4384 -0.633577,-0.9269 -0.633559,-1.524 l 0,-2.1404 z"
       style="font-size:55.91333389px;font-style:normal;font-variant:normal;font-weight:500;font-stretch:normal;text-align:end;line-height:125%;letter-spacing:0px;word-spacing:0px;text-anchor:end;fill:#ff0000;fill-opacity:0.1415525;stroke:none;font-family:Ubuntu;-inkscape-font-specification:Ubuntu Medium" />
    <path
       inkscape:connector-curvature="0"
       id="path3052"
       d="m 21.685333,1000.6601 c -1.663296,0 -3.197337,0.6631 -4.366423,1.8322 -1.174023,1.174 -1.815069,2.713 -1.815062,4.3664 -7e-6,1.645 0.655467,3.16 1.815062,4.3322 1.16207,1.1747 2.672804,1.8493 4.315054,1.8493 l 1.506844,0 0,2.3116 -1.506844,0 c -1.632093,0 -3.148107,0.6525 -4.315054,1.8322 -1.167427,1.1802 -1.815069,2.7127 -1.815062,4.3493 -7e-6,1.6618 0.64406,3.1955 1.815062,4.3664 1.174002,1.174 2.712956,1.8151 4.366423,1.8151 1.649657,0 3.190934,-0.6353 4.366424,-1.7979 1.181496,-1.1689 1.832172,-2.6918 1.832185,-4.3322 l 0,-1.4897 2.294513,0 0,1.4897 c -2e-5,1.6365 0.644774,3.1619 1.815062,4.3322 a 1.1902852,1.1902852 0 0 0 0,0.017 c 1.185279,1.1598 2.733863,1.7808 4.383547,1.7808 1.661861,0 3.200355,-0.6362 4.366423,-1.815 1.17092,-1.171 1.815029,-2.7046 1.815062,-4.3664 -3.3e-5,-1.6319 -0.654237,-3.1535 -1.815062,-4.3322 -0.0034,0 0.0035,-0.014 0,-0.017 -1.157665,-1.1778 -2.679493,-1.8322 -4.315054,-1.8322 l -1.506844,0 0,-2.3116 1.506844,0 c 1.64561,0 3.162226,-0.6764 4.315054,-1.8493 l 0,-0.017 c 1.153035,-1.1708 1.815029,-2.675 1.815062,-4.3151 -3.3e-5,-1.6534 -0.641079,-3.1924 -1.815062,-4.3664 -1.161161,-1.1739 -2.694777,-1.8322 -4.366423,-1.8322 -1.663305,0 -3.204646,0.6659 -4.383547,1.8322 -1.168113,1.1554 -1.815082,2.6613 -1.815062,4.2979 l 0,1.5068 -2.294513,0 0,-1.5068 c -1.3e-5,-1.6356 -0.659486,-3.1453 -1.832185,-4.2979 -0.0035,0 -0.01369,0 -0.01712,0 -1.167816,-1.1627 -2.690903,-1.8323 -4.3493,-1.8323 z m 0,4.7603 c 0.455696,0 0.707137,0.091 1.027394,0.4109 a 1.1902852,1.1902852 0 0 0 0,0.017 c 0.314673,0.3083 0.428074,0.5732 0.428081,1.0103 l 0,1.4383 -1.438352,0 c -0.455704,0 -0.707169,-0.091 -1.027393,-0.4109 -0.329501,-0.3295 -0.428084,-0.5903 -0.428081,-1.0274 -3e-6,-0.4371 0.113399,-0.702 0.428081,-1.0103 a 1.1902852,1.1902852 0 0 0 0,-0.017 c 0.323777,-0.3238 0.569158,-0.4109 1.01027,-0.4109 z m 14.691731,0 c 0.455672,0 0.684664,0.096 0.993147,0.4109 a 1.1902852,1.1902852 0 0 0 0.01712,0.017 c 0.314665,0.3083 0.428064,0.5732 0.428081,1.0103 -1.7e-5,0.4371 -0.0986,0.6979 -0.428081,1.0274 -0.323816,0.3238 -0.569218,0.4109 -1.01027,0.4109 l -1.455475,0 0,-1.4383 c -1.3e-5,-0.4371 0.11339,-0.702 0.428081,-1.0103 a 1.1902852,1.1902852 0 0 0 0,-0.017 c 0.320209,-0.3202 0.571653,-0.4109 1.027394,-0.4109 z m -8.493122,7.6198 2.294513,0 0,2.3116 -2.294513,0 0,-2.3116 z m -6.181486,7.0548 1.438352,0 0,1.4383 c -7e-6,0.4223 -0.104231,0.7036 -0.428081,1.0274 -0.323821,0.3238 -0.569304,0.411 -1.010271,0.411 -0.455714,0 -0.707166,-0.091 -1.027393,-0.411 -0.329552,-0.3295 -0.428084,-0.5903 -0.428081,-1.0274 -3e-6,-0.4221 0.104357,-0.7037 0.428081,-1.0273 0.320193,-0.3203 0.571569,-0.411 1.027393,-0.411 z m 13.219133,0 1.455475,0 c 0.441063,0 0.686455,0.087 1.01027,0.411 0.323706,0.3236 0.428065,0.6051 0.428081,1.0273 -1.7e-5,0.4371 -0.09855,0.6979 -0.428081,1.0274 a 1.1902852,1.1902852 0 0 0 -0.01712,0 c -0.308477,0.3149 -0.537478,0.4109 -0.993147,0.411 -0.455738,0 -0.707191,-0.091 -1.027394,-0.411 -0.323837,-0.3239 -0.428093,-0.6052 -0.428081,-1.0274 l 0,-1.4383 z"
       style="font-size:55.91333389px;font-style:normal;font-variant:normal;font-weight:500;font-stretch:normal;text-align:end;line-height:125%;letter-spacing:0px;word-spacing:0px;text-anchor:end;fill:#ff0000;fill-opacity:0.1415525;stroke:none;font-family:Ubuntu;-inkscape-font-specification:Ubuntu Medium" />
    <path
       inkscape:connector-curvature="0"
       id="path3054"
       d="m 21.685333,1001.8645 c -1.375157,10e-5 -2.55421,0.4909 -3.527385,1.4641 -0.973186,0.9732 -1.45548,2.1501 -1.455474,3.5252 -6e-6,1.3646 0.482288,2.5223 1.455474,3.506 0.973175,0.9838 2.132596,1.4833 3.476016,1.4833 l 2.70547,0 0,4.7003 -2.70547,0 c -1.34342,0 -2.502841,0.4995 -3.476016,1.4833 -0.973186,0.9838 -1.45548,2.152 -1.455474,3.506 -6e-6,1.3857 0.482288,2.552 1.455474,3.5252 0.973175,0.9732 2.152228,1.4641 3.527385,1.4641 1.375135,0 2.554194,-0.4822 3.527385,-1.4448 0.983745,-0.9732 1.472587,-2.1328 1.472598,-3.4867 l 0,-2.6969 4.691765,0 0,2.6969 c -1.7e-5,1.3539 0.482272,2.5135 1.455474,3.4867 0.983739,0.9626 2.169341,1.4448 3.544509,1.4448 1.385699,0 2.564758,-0.4909 3.527385,-1.4641 0.973153,-0.9732 1.455447,-2.1395 1.455474,-3.5252 -2.7e-5,-1.354 -0.482321,-2.5222 -1.455474,-3.506 -0.962627,-0.9838 -2.122048,-1.4833 -3.476016,-1.4833 l -2.70547,0 0,-4.7003 2.70547,0 c 1.353968,0 2.513389,-0.4995 3.476016,-1.4833 0.973153,-0.9837 1.455447,-2.1414 1.455474,-3.506 -2.7e-5,-1.3751 -0.482321,-2.552 -1.455474,-3.5252 -0.962627,-0.9732 -2.141686,-1.464 -3.527385,-1.4641 -1.375168,10e-5 -2.56077,0.4909 -3.544509,1.4641 -0.973202,0.9626 -1.455491,2.1135 -1.455474,3.4674 l 0,2.6969 -4.691765,0 0,-2.6969 c -1.1e-5,-1.3539 -0.488853,-2.5048 -1.472598,-3.4674 -0.973191,-0.9732 -2.15225,-1.464 -3.527385,-1.4641 z m 0,2.3502 c 0.729877,0 1.3481,0.2522 1.866432,0.7705 0.518316,0.5078 0.787658,1.1387 0.787669,1.8686 l 0,2.6391 -2.636978,0 c -0.729893,0 -1.348115,-0.2522 -1.866431,-0.7705 -0.518333,-0.5183 -0.787674,-1.1387 -0.787669,-1.8686 -5e-6,-0.7298 0.269336,-1.3608 0.787669,-1.8686 0.518316,-0.5183 1.12999,-0.7705 1.849308,-0.7705 z m 14.691731,0 c 0.72986,0 1.341535,0.2522 1.849308,0.7705 0.5183,0.5078 0.787641,1.1387 0.787669,1.8686 -2.8e-5,0.7299 -0.269369,1.3503 -0.787669,1.8686 -0.518349,0.5183 -1.130023,0.7705 -1.849308,0.7705 l -2.654101,0 0,-2.6391 c -2.2e-5,-0.7299 0.26932,-1.3608 0.787669,-1.8686 0.518299,-0.5183 1.136522,-0.7705 1.866432,-0.7705 z m -9.691748,7.6284 4.691765,0 0,4.7003 -4.691765,0 0,-4.7003 z m -4.98286,7.0505 2.636978,0 0,2.6391 c -1.1e-5,0.7193 -0.269353,1.3502 -0.787669,1.8686 -0.518332,0.5183 -1.130012,0.7705 -1.849309,0.7705 -0.729893,0 -1.348115,-0.2522 -1.866431,-0.7705 -0.518333,-0.5184 -0.787674,-1.1387 -0.787669,-1.8686 -5e-6,-0.7193 0.269336,-1.3503 0.787669,-1.8686 0.518316,-0.5183 1.136538,-0.7705 1.866431,-0.7705 z m 12.020507,0 2.654101,0 c 0.719285,0 1.330959,0.2522 1.849308,0.7705 0.5183,0.5183 0.787641,1.1493 0.787669,1.8686 -2.8e-5,0.7299 -0.269369,1.3502 -0.787669,1.8686 -0.507773,0.5183 -1.119448,0.7705 -1.849308,0.7705 -0.72991,0 -1.348133,-0.2522 -1.866432,-0.7705 -0.518349,-0.5184 -0.787691,-1.1493 -0.787669,-1.8686 l 0,-2.6391 z"
       style="font-size:55.91333389px;font-style:normal;font-variant:normal;font-weight:500;font-stretch:normal;text-align:end;line-height:125%;letter-spacing:0px;word-spacing:0px;text-anchor:end;fill:#cc0c00;fill-opacity:1;stroke:none;font-family:Ubuntu;-inkscape-font-specification:Ubuntu Medium" />
  </g>
</svg>
