<?xml version="1.0" encoding="UTF-8" standalone="no"?>
<!-- Created with Inkscape (http://www.inkscape.org/) -->

<svg
   xmlns:dc="http://purl.org/dc/elements/1.1/"
   xmlns:cc="http://creativecommons.org/ns#"
   xmlns:rdf="http://www.w3.org/1999/02/22-rdf-syntax-ns#"
   xmlns:svg="http://www.w3.org/2000/svg"
   xmlns="http://www.w3.org/2000/svg"
   xmlns:xlink="http://www.w3.org/1999/xlink"
   xmlns:sodipodi="http://sodipodi.sourceforge.net/DTD/sodipodi-0.dtd"
   xmlns:inkscape="http://www.inkscape.org/namespaces/inkscape"
   width="96"
   height="96"
   id="svg2"
   version="1.1"
   inkscape:version="0.48.4 r9939"
   sodipodi:docname="thawab.svg">
  <defs
     id="defs4">
    <linearGradient
       inkscape:collect="always"
       id="linearGradient3792">
      <stop
         style="stop-color:#fdc1a1;stop-opacity:1;"
         offset="0"
         id="stop3794" />
      <stop
         style="stop-color:#fdc1a1;stop-opacity:0;"
         offset="1"
         id="stop3796" />
    </linearGradient>
    <linearGradient
       inkscape:collect="always"
       id="linearGradient3793">
      <stop
         style="stop-color:#000000;stop-opacity:1;"
         offset="0"
         id="stop3795" />
      <stop
         style="stop-color:#000000;stop-opacity:0;"
         offset="1"
         id="stop3797" />
    </linearGradient>
    <linearGradient
       id="linearGradient3883">
      <stop
         style="stop-color:#360100;stop-opacity:1;"
         offset="0"
         id="stop3885" />
      <stop
         style="stop-color:#ff0d00;stop-opacity:1;"
         offset="1"
         id="stop3887" />
    </linearGradient>
    <linearGradient
       inkscape:collect="always"
       id="linearGradient3810">
      <stop
         style="stop-color:#000000;stop-opacity:1;"
         offset="0"
         id="stop3812" />
      <stop
         style="stop-color:#000000;stop-opacity:0;"
         offset="1"
         id="stop3814" />
    </linearGradient>
    <linearGradient
       inkscape:collect="always"
       xlink:href="#linearGradient3810"
       id="linearGradient3816"
       x1="-1"
       y1="36"
       x2="9"
       y2="36"
       gradientUnits="userSpaceOnUse" />
    <linearGradient
       inkscape:collect="always"
       xlink:href="#linearGradient3883"
       id="linearGradient3889"
       x1="17"
       y1="1034.3622"
       x2="17"
       y2="1039.3622"
       gradientUnits="userSpaceOnUse" />
    <linearGradient
       inkscape:collect="always"
       xlink:href="#linearGradient3793"
       id="linearGradient3799"
       x1="65"
       y1="1025.3622"
       x2="65"
       y2="1046.3622"
       gradientUnits="userSpaceOnUse" />
    <linearGradient
       inkscape:collect="always"
       xlink:href="#linearGradient3792"
       id="linearGradient3798"
       x1="95"
       y1="41"
       x2="90"
       y2="41"
       gradientUnits="userSpaceOnUse" />
    <linearGradient
       inkscape:collect="always"
       xlink:href="#linearGradient3792"
       id="linearGradient3800"
       x1="15"
       y1="990.36218"
       x2="20"
       y2="990.36218"
       gradientUnits="userSpaceOnUse" />
  </defs>
  <sodipodi:namedview
     id="base"
     pagecolor="#ffffff"
     bordercolor="#666666"
     borderopacity="1.0"
     inkscape:pageopacity="0.0"
     inkscape:pageshadow="2"
     inkscape:zoom="5.3767756"
     inkscape:cx="23.726148"
     inkscape:cy="50.214736"
     inkscape:document-units="px"
     inkscape:current-layer="layer1"
     showgrid="true"
     inkscape:snap-page="true"
     inkscape:snap-global="true"
     inkscape:snap-center="true"
     inkscape:snap-object-midpoints="false"
     showguides="true"
     inkscape:guide-bbox="true"
     inkscape:snap-bbox="true"
     inkscape:object-paths="true"
     inkscape:object-nodes="true"
     inkscape:window-width="1305"
     inkscape:window-height="744"
     inkscape:window-x="61"
     inkscape:window-y="24"
     inkscape:window-maximized="1"
     inkscape:snap-midpoints="false"
     inkscape:snap-grids="true"
     inkscape:snap-to-guides="false">
    <inkscape:grid
       type="xygrid"
       id="grid3002"
       empspacing="5"
       visible="true"
       enabled="true"
       snapvisiblegridlinesonly="true" />
  </sodipodi:namedview>
  <metadata
     id="metadata7">
    <rdf:RDF>
      <cc:Work
         rdf:about="">
        <dc:format>image/svg+xml</dc:format>
        <dc:type
           rdf:resource="http://purl.org/dc/dcmitype/StillImage" />
        <dc:title />
      </cc:Work>
    </rdf:RDF>
  </metadata>
  <g
     inkscape:label="Layer 1"
     inkscape:groupmode="layer"
     id="layer1"
     transform="translate(0,-956.36218)">
    <rect
       style="fill:#ffffff;fill-opacity:0;fill-rule:nonzero;stroke:none"
       id="rect3775"
       width="96"
       height="96"
       x="0"
       y="956.36218"
       ry="0" />
    <path
       style="fill:#000000;fill-opacity:0.09589041;fill-rule:nonzero;stroke:none"
       d="m 3.353015,956.30662 c -1.884176,0 -3.4111555,1.43156 -3.4111555,3.19799 l 0,83.65949 c 0,1.7665 1.5269795,3.1981 3.4111555,3.1981 l 89.23583,0 c 1.884174,0 3.411155,-1.4316 3.411155,-3.1981 l 0,-83.65949 c 0,-1.76643 -1.526981,-3.19799 -3.411155,-3.19799 z"
       id="rect3772"
       inkscape:connector-curvature="0"
       sodipodi:nodetypes="sssssssss" />
    <path
       style="fill:#000000;fill-opacity:0.18721463;fill-rule:nonzero;stroke:none"
       d="m 1.0459761,1041.8066 0,7.4219 c 0,1.7392 1.461916,3.1337 3.2852054,3.1337 l 86.3836135,0 c 1.823288,0 3.285205,-1.3945 3.285205,-3.1337 l 0,-7.4219 -92.9540239,0 z"
       id="rect3785"
       inkscape:connector-curvature="0" />
    <path
       style="fill:#000000;fill-opacity:0.38356168;fill-rule:nonzero;stroke:none"
       d="m 1.0459761,1041.8066 0,5.3807 c 0,1.762 1.461916,3.1749 3.2852054,3.1749 l 86.3836135,0 c 1.823288,0 3.285205,-1.4129 3.285205,-3.1749 l 0,-5.3807 -92.9540239,0 z"
       id="rect3783"
       inkscape:connector-curvature="0" />
    <path
       style="fill:#000000;fill-opacity:0.38356168;fill-rule:nonzero;stroke:none"
       d="m 1,1042.3622 0.045976,2.7457 c 0.03024,1.8058 1.461916,3.2543 3.2852054,3.2543 l 86.3836136,0 c 1.823288,0 3.285205,-1.4481 3.285205,-3.2543 l -0.04598,-2.7457 z"
       id="rect3781"
       inkscape:connector-curvature="0"
       sodipodi:nodetypes="csssscc" />
    <rect
       style="fill:#fca577;fill-opacity:1;fill-rule:nonzero;stroke:none"
       id="rect2985-2"
       width="93"
       height="88.999947"
       x="0.99999738"
       y="957.36218"
       ry="3.1511376" />
    <path
       style="fill:#000000;fill-opacity:0.59360731;fill-rule:evenodd;stroke:none"
       d="M 15,1 4.15625,1 C 3.2833849,1 2.4758181,1.3366819 1.90625,1.90625 1.3366819,2.4758181 1,3.2833849 1,4.15625 l 0,64.90625 14,0 z"
       id="path3801"
       transform="translate(0,956.36218)"
       inkscape:connector-curvature="0"
       sodipodi:nodetypes="csssccc" />
    <path
       style="fill:url(#linearGradient3816);fill-opacity:1;fill-rule:evenodd;stroke:none"
       d="M 4.15625,1 C 3.2833849,1 2.4758181,1.3366819 1.90625,1.90625 1.3366819,2.4758181 1,3.2833849 1,4.15625 L 1,71 9,71 9,1 z"
       id="path3808"
       transform="translate(0,956.36218)"
       inkscape:connector-curvature="0"
       sodipodi:nodetypes="ssscccs" />
    <rect
       style="fill:url(#linearGradient3800);fill-opacity:1;fill-rule:evenodd;stroke:none"
       id="rect3822"
       width="5"
       height="66"
       x="15"
       y="957.36218" />
    <path
       style="fill:url(#linearGradient3798);fill-opacity:1;fill-rule:evenodd;stroke:none"
       d="M 90 90 L 90.84375 90 C 91.716615 90 92.524182 89.663318 93.09375 89.09375 C 93.663318 88.524182 94 87.716615 94 86.84375 L 94 4.15625 C 94 3.2833849 93.663318 2.4758181 93.09375 1.90625 C 92.524182 1.3366819 91.716615 1 90.84375 1 L 90 1 L 90 90 z "
       id="rect3845"
       transform="translate(0,956.36218)" />
    <path
       style="fill:#ff8635;fill-opacity:1;fill-rule:nonzero;stroke:none"
       d="M 4.15625,65 C 2.4105198,65 1,66.41055 1,68.15625 l 0,18.6875 c 0,0.8729 0.3366819,1.6805 0.90625,2.25 C 2.4758181,89.66335 3.2833849,90 4.15625,90 l 86.6875,0 c 0.872865,0 1.680432,-0.33665 2.25,-0.90625 C 93.663318,88.52425 94,87.71665 94,86.84375 l 0,-18.6875 C 94,66.41055 92.58948,65 90.84375,65 L 20,65 c -2,0 -4,0 -5,2 -1,-2 -3,-2 -5,-2 z"
       transform="translate(0,956.36218)"
       id="rect3779"
       inkscape:connector-curvature="0"
       sodipodi:nodetypes="ssscsscssscccs" />
    <path
       sodipodi:nodetypes="ccccc"
       inkscape:connector-curvature="0"
       id="path3818"
       d="m 5.0625,1025.3622 0,17 88.937497,0 0,-17 z"
       style="fill:url(#linearGradient3799);fill-opacity:1;fill-rule:nonzero;stroke:none" />
    <path
       style="fill:#ffffff;fill-opacity:1;fill-rule:nonzero;stroke:none"
       d="m 5.0625,1025.4247 0,13.875 84.9375,0 0,-13.875 z"
       id="path3789"
       inkscape:connector-curvature="0"
       sodipodi:nodetypes="ccccc" />
    <path
       sodipodi:nodetypes="ccccc"
       inkscape:connector-curvature="0"
       id="path3832"
       d="m 5,1027.4247 0,0.9375 85,0 0,-0.9375 z"
       style="fill:#010101;fill-opacity:0.66210046;fill-rule:nonzero;stroke:none" />
    <path
       style="fill:#010101;fill-opacity:0.66210046;fill-rule:nonzero;stroke:none"
       d="m 5,1030.4247 0,0.9375 85,0 0,-0.9375 z"
       id="path3834"
       inkscape:connector-curvature="0"
       sodipodi:nodetypes="ccccc" />
    <path
       sodipodi:nodetypes="ccccc"
       inkscape:connector-curvature="0"
       id="path3836"
       d="m 5,1033.4247 0,0.9375 85,0 0,-0.9375 z"
       style="fill:#010101;fill-opacity:0.66210046;fill-rule:nonzero;stroke:none" />
    <path
       style="fill:#010101;fill-opacity:0.66210046;fill-rule:nonzero;stroke:none"
       d="m 5,1036.4247 0,0.9375 85,0 0,-0.9375 z"
       id="path3838"
       inkscape:connector-curvature="0"
       sodipodi:nodetypes="ccccc" />
    <path
       sodipodi:nodetypes="ccccccc"
       inkscape:connector-curvature="0"
       id="path3881"
       d="m 10,1034.3622 0,16 7.11111,-5.3333 1.77778,0 7.11111,5.3333 0,-16 z"
       style="fill:#000000;fill-opacity:0.50228307;fill-rule:evenodd;stroke:none" />
    <path
       style="fill:url(#linearGradient3889);fill-opacity:1.0;fill-rule:evenodd;stroke:none"
       d="m 10,1034.3622 0,15 6.666666,-5 1.666668,0 6.666666,5 0,-15 z"
       id="rect3840"
       inkscape:connector-curvature="0"
       sodipodi:nodetypes="ccccccc" />
    <rect
       style="fill:#000000;fill-opacity:0.72602737;fill-rule:evenodd;stroke:none"
       id="rect3843"
       width="3"
       height="13.999997"
       x="5"
       y="1025.3622" />
    <path
       style="fill:#ffffff;fill-opacity:0.38306451;fill-rule:nonzero;stroke:none"
       d="M 4.15625,1020.3464 C 2.41052,1020.3464 1,1021.7569 1,1023.5026 l 0,1.0313 c 0,-1.7457 1.41052,-3.1563 3.15625,-3.1563 l 5.84375,0 c 2,0 4,0 5,2 1,-2 3,-2 5,-2 l 70.84375,0 c 1.74573,0 3.15625,1.4106 3.15625,3.1563 l 0,-1.0313 c 0,-1.7457 -1.41052,-3.1562 -3.15625,-3.1562 l -70.84375,0 c -2,0 -4,0 -5,2 -1,-2 -3,-2 -5,-2 l -5.84375,0 z"
       id="path3802"
       inkscape:connector-curvature="0" />
    <rect
       y="1001.3622"
       x="30"
       height="2"
       width="50"
       id="rect3841"
       style="fill:#674331;fill-opacity:1;fill-rule:evenodd;stroke:none" />
    <rect
       style="fill:#674331;fill-opacity:1;fill-rule:evenodd;stroke:none"
       id="rect3844"
       width="30"
       height="2"
       x="40"
       y="1007.3622" />
    <path
       style="font-size:20.85480881px;font-style:normal;font-variant:normal;font-weight:normal;font-stretch:normal;text-align:end;line-height:125%;letter-spacing:0px;word-spacing:0px;text-anchor:end;fill:#000000;fill-opacity:0.52511417;stroke:none;font-family:Andale Mono;-inkscape-font-specification:Andale Mono"
       d="m 74.816581,967.36218 -2.113238,1.68338 2.870813,2.149 2.113238,-1.7192 -2.870813,-2.11318 z m -19.178626,3.11605 -3.508772,3.65329 0.598086,7.84384 c 0.07118,0.99241 0.119612,1.9487 0.119612,2.86534 -2e-6,0.94694 -0.04844,1.75373 -0.119612,2.43553 1.289977,-1.08331 2.191041,-2.16293 2.671451,-3.2235 0.418127,-0.96209 0.598081,-2.23945 0.598087,-3.8682 -6e-6,-0.75754 -0.0087,-1.63736 -0.07976,-2.61461 l -0.159489,-1.82665 0,-0.28653 0.67783,-0.6447 -0.797448,-4.33381 z m 18.381178,1.03868 -2.113237,1.64756 2.791068,2.18482 1.475279,-1.11032 1.594895,1.11032 2.232855,-1.68338 -2.910686,-2.149 -1.475279,1.14613 -1.594895,-1.14613 z m -10.366825,5.55158 c -0.676132,10e-6 -1.348473,0.32659 -2.033492,1.03868 -0.275792,0.29545 -0.517377,0.59998 -0.757577,0.89541 -1.325565,1.7348 -1.993621,3.32633 -1.99362,4.7278 -10e-7,0.4318 0.122938,0.82935 0.398725,1.25358 0.284683,0.41666 0.640628,0.71361 1.076554,0.89542 0.622747,0.2803 1.695191,0.4298 3.189792,0.4298 l 1.714514,0 c -0.453724,0.74239 -1.069046,1.3363 -1.83413,1.79083 -0.898543,0.5227 -1.878383,0.78796 -2.99043,0.78796 -0.542685,0 -1.232817,-0.084 -2.033493,-0.25071 l -0.31898,-0.0716 0.199363,0.28654 c 0.854053,1.10602 1.65855,1.91281 2.352472,2.43553 0.747294,0.57573 1.371189,0.8596 1.913874,0.8596 0.693916,0 1.427885,-0.33623 2.192982,-1.00287 1.565762,-1.3939 2.576576,-2.97579 3.030304,-4.76361 l 0.03988,-0.0716 3.349283,0 1.275916,0 5.741626,0 c 0.346953,-0.63635 0.68543,-1.33496 0.996811,-2.07737 0.560466,-1.31813 0.837312,-2.35642 0.83732,-3.15186 -8e-6,-1.4242 -0.584678,-2.73738 -1.714513,-3.90401 l -2.511961,3.00859 c 0.640537,0.54545 1.128313,1.32606 1.475278,2.3639 l -4.824561,0 c -0.565984,-0.008 -0.815216,0.006 -1.275916,0 -2.015897,-0.0233 -3.309418,-0.037 -3.30941,0 -0.160145,-1.09844 -0.559926,-2.23043 -1.236044,-3.36676 -0.871856,-1.42419 -1.874099,-2.11317 -2.950559,-2.11318 z m -15.909089,0.10739 -2.551833,3.0086 c 0.613835,0.53029 1.110508,1.31091 1.475278,2.36389 l -10.925038,0 c -0.729512,0 -1.31418,-0.0524 -1.714513,-0.14326 -1.361154,-0.28029 -2.033495,-1.17872 -2.033493,-2.68625 -2e-6,-0.7727 0.105466,-1.47131 0.31898,-2.07736 -0.613856,0.6515 -1.172159,1.52581 -1.634769,2.57879 -0.453719,1.04542 -0.677832,1.97554 -0.677831,2.7937 -1e-6,0.79543 0.246192,1.49405 0.717703,2.07736 0.640539,0.82574 1.602909,1.21777 2.910685,1.21777 l 13.995214,0 c 0.382527,-0.72724 0.681129,-1.42587 0.956938,-2.07736 0.560453,-1.31814 0.877172,-2.35643 0.877192,-3.15187 -2e-5,-1.42419 -0.584689,-2.73737 -1.714513,-3.90401 z m 15.550238,3.08023 c 0.862945,10e-6 1.429821,0.77717 1.714513,2.29226 l -1.993621,0 c -0.818473,0 -1.236049,-0.28385 -1.236043,-0.8596 -6e-6,-0.35604 0.153908,-0.67917 0.438595,-0.96704 0.293577,-0.29544 0.658419,-0.46561 1.076556,-0.46562 z m -23.405101,8.27364 -2.073365,1.68338 2.870812,2.149 2.113238,-1.68338 -2.910685,-2.149 z"
       id="text3802"
       inkscape:connector-curvature="0" />
  </g>
</svg>
