<?xml version="1.0" encoding="UTF-8" standalone="no"?>
<!-- Created with Inkscape (http://www.inkscape.org/) -->

<svg
   xmlns:dc="http://purl.org/dc/elements/1.1/"
   xmlns:cc="http://creativecommons.org/ns#"
   xmlns:rdf="http://www.w3.org/1999/02/22-rdf-syntax-ns#"
   xmlns:svg="http://www.w3.org/2000/svg"
   xmlns="http://www.w3.org/2000/svg"
   xmlns:xlink="http://www.w3.org/1999/xlink"
   xmlns:sodipodi="http://sodipodi.sourceforge.net/DTD/sodipodi-0.dtd"
   xmlns:inkscape="http://www.inkscape.org/namespaces/inkscape"
   width="96"
   height="96"
   id="svg2"
   version="1.1"
   inkscape:version="0.48.4 r9939"
   sodipodi:docname="tint2.svg">
  <defs
     id="defs4">
    <linearGradient
       id="linearGradient3766">
      <stop
         style="stop-color:#600065;stop-opacity:1;"
         offset="0"
         id="stop3768" />
      <stop
         style="stop-color:#004fcb;stop-opacity:1;"
         offset="1"
         id="stop3770" />
    </linearGradient>
    <radialGradient
       inkscape:collect="always"
       xlink:href="#linearGradient3766"
       id="radialGradient3772"
       cx="24.999998"
       cy="1027.5107"
       fx="24.999998"
       fy="1027.5107"
       r="46.5"
       gradientTransform="matrix(1.5053766,-7.8294986e-7,6.7109915e-7,1.2903214,-12.635107,-298.45692)"
       gradientUnits="userSpaceOnUse" />
  </defs>
  <sodipodi:namedview
     id="base"
     pagecolor="#ffffff"
     bordercolor="#666666"
     borderopacity="1.0"
     inkscape:pageopacity="0.0"
     inkscape:pageshadow="2"
     inkscape:zoom="5.90625"
     inkscape:cx="47.960954"
     inkscape:cy="39.001324"
     inkscape:document-units="px"
     inkscape:current-layer="layer1"
     showgrid="true"
     inkscape:snap-page="true"
     inkscape:snap-global="true"
     inkscape:snap-center="true"
     inkscape:snap-object-midpoints="false"
     showguides="true"
     inkscape:guide-bbox="true"
     inkscape:snap-bbox="true"
     inkscape:object-paths="true"
     inkscape:object-nodes="true"
     inkscape:window-width="1305"
     inkscape:window-height="744"
     inkscape:window-x="61"
     inkscape:window-y="24"
     inkscape:window-maximized="1"
     inkscape:snap-midpoints="false"
     inkscape:snap-grids="true"
     inkscape:snap-to-guides="false">
    <inkscape:grid
       type="xygrid"
       id="grid3002"
       empspacing="5"
       visible="true"
       enabled="true"
       snapvisiblegridlinesonly="true" />
  </sodipodi:namedview>
  <metadata
     id="metadata7">
    <rdf:RDF>
      <cc:Work
         rdf:about="">
        <dc:format>image/svg+xml</dc:format>
        <dc:type
           rdf:resource="http://purl.org/dc/dcmitype/StillImage" />
        <dc:title />
      </cc:Work>
    </rdf:RDF>
  </metadata>
  <g
     inkscape:label="Layer 1"
     inkscape:groupmode="layer"
     id="layer1"
     transform="translate(0,-956.36218)">
    <rect
       style="fill:#ffffff;fill-opacity:0;fill-rule:nonzero;stroke:none"
       id="rect3775"
       width="96"
       height="96"
       x="0"
       y="956.36218"
       ry="0" />
    <path
       style="fill:#000000;fill-opacity:0.09589041;fill-rule:nonzero;stroke:none"
       d="m 3.353015,956.30662 c -1.884176,0 -3.4111555,1.43156 -3.4111555,3.19799 l 0,83.65949 c 0,1.7665 1.5269795,3.1981 3.4111555,3.1981 l 89.23583,0 c 1.884174,0 3.411155,-1.4316 3.411155,-3.1981 l 0,-83.65949 c 0,-1.76643 -1.526981,-3.19799 -3.411155,-3.19799 z"
       id="rect3772"
       inkscape:connector-curvature="0"
       sodipodi:nodetypes="sssssssss" />
    <path
       style="fill:#000000;fill-opacity:0.18721463;fill-rule:nonzero;stroke:none"
       d="m 1.0459761,1041.8066 0,7.4219 c 0,1.7392 1.461916,3.1337 3.2852054,3.1337 l 86.3836135,0 c 1.823288,0 3.285205,-1.3945 3.285205,-3.1337 l 0,-7.4219 -92.9540239,0 z"
       id="rect3785"
       inkscape:connector-curvature="0" />
    <path
       style="fill:#000000;fill-opacity:0.38356168;fill-rule:nonzero;stroke:none"
       d="m 1.0459761,1041.8066 0,5.3807 c 0,1.762 1.461916,3.1749 3.2852054,3.1749 l 86.3836135,0 c 1.823288,0 3.285205,-1.4129 3.285205,-3.1749 l 0,-5.3807 -92.9540239,0 z"
       id="rect3783"
       inkscape:connector-curvature="0" />
    <rect
       style="fill:url(#radialGradient3772);fill-opacity:1;fill-rule:nonzero;stroke:none"
       id="rect2985-9"
       width="93"
       height="88.999977"
       x="0.99999893"
       y="957.36224"
       ry="3.1511385" />
    <path
       id="path3821"
       d="m 4.2868294,957.36223 c -1.8241907,0 -3.2868305,1.39973 -3.2868305,3.14546 l 0,82.70901 c 0,1.7458 1.4626398,3.1455 3.2868305,3.1455 l 5.0513395,0 72.1026811,-88.99997 z"
       style="fill:#ffffff;fill-opacity:0.17351601;fill-rule:nonzero;stroke:none"
       inkscape:connector-curvature="0"
       sodipodi:nodetypes="ssssccs" />
    <path
       style="fill:#ffffff;fill-opacity:0.17351601;fill-rule:nonzero;stroke:none"
       d="m 4.2868294,957.36223 c -1.8241907,0 -3.2868305,1.39973 -3.2868305,3.14546 l 0,82.70901 c 0,1.7458 1.4626398,3.1455 3.2868305,3.1455 l 2.8370537,0 41.1026799,-88.99997 z"
       id="rect3050"
       inkscape:connector-curvature="0"
       sodipodi:nodetypes="ssssccs" />
    <path
       sodipodi:type="arc"
       style="opacity:0.44485294;fill:#aaeeff;fill-opacity:1;stroke:none"
       id="path4342"
       sodipodi:cx="64"
       sodipodi:cy="64"
       sodipodi:rx="64"
       sodipodi:ry="64"
       d="M 128,64 A 64,64 0 1 1 0,64 64,64 0 1 1 128,64 z"
       transform="matrix(0,-0.16647159,-0.16922652,0,28.698724,1035.8259)" />
    <path
       transform="matrix(0,-0.128516,-0.13064282,0,26.229366,1033.3968)"
       d="M 128,64 A 64,64 0 1 1 0,64 64,64 0 1 1 128,64 z"
       sodipodi:ry="64"
       sodipodi:rx="64"
       sodipodi:cy="64"
       sodipodi:cx="64"
       id="path4338"
       style="fill:#aaeeff;fill-opacity:1;stroke:none"
       sodipodi:type="arc" />
    <path
       style="fill:#000000;fill-opacity:0.38356168;fill-rule:nonzero;stroke:none"
       d="m 1,1042.3622 0.045976,2.7457 c 0.03024,1.8058 1.461916,3.2543 3.2852054,3.2543 l 86.3836136,0 c 1.823288,0 3.285205,-1.4481 3.285205,-3.2543 l -0.04598,-2.7457 z"
       id="rect3781"
       inkscape:connector-curvature="0"
       sodipodi:nodetypes="csssscc" />
    <rect
       style="fill:#ffffff;fill-opacity:0.30000001;fill-rule:nonzero;stroke:none"
       id="rect3770"
       width="92.954033"
       height="2.000005"
       x="1.045976"
       y="1040.3622" />
    <path
       style="fill:#00ffd9;fill-opacity:0.24657533;fill-rule:evenodd;stroke:none"
       d="m 35,61 0,29 55.84375,0 c 0.872865,0 1.680432,-0.336682 2.25,-0.90625 C 93.663318,88.524182 94,87.716615 94,86.84375 L 94,61 z"
       id="rect3009"
       inkscape:connector-curvature="0"
       sodipodi:nodetypes="ccssscc"
       transform="translate(0,956.36218)" />
    <path
       sodipodi:type="arc"
       style="fill:#5599ff;fill-opacity:1;stroke:none"
       id="path4344"
       sodipodi:cx="64"
       sodipodi:cy="64"
       sodipodi:rx="64"
       sodipodi:ry="64"
       d="M 128,64 A 64,64 0 1 1 0,64 64,64 0 1 1 128,64 z"
       transform="matrix(0,-0.10541547,-0.10715998,0,54.604721,1033.5357)" />
    <path
       transform="matrix(0,-0.10541547,-0.10715998,0,70.451469,1033.5357)"
       d="M 128,64 A 64,64 0 1 1 0,64 64,64 0 1 1 128,64 z"
       sodipodi:ry="64"
       sodipodi:rx="64"
       sodipodi:cy="64"
       sodipodi:cx="64"
       id="path4346"
       style="fill:#8080ff;fill-opacity:1;stroke:none"
       sodipodi:type="arc" />
    <path
       sodipodi:type="arc"
       style="fill:#d42aff;fill-opacity:1;stroke:none"
       id="path4348"
       sodipodi:cx="64"
       sodipodi:cy="64"
       sodipodi:rx="64"
       sodipodi:ry="64"
       d="M 128,64 A 64,64 0 1 1 0,64 64,64 0 1 1 128,64 z"
       transform="matrix(0,-0.10541547,-0.10715998,0,85.962272,1033.5357)" />
  </g>
</svg>
