<?xml version="1.0" encoding="UTF-8" standalone="no"?>
<!-- Created with Inkscape (http://www.inkscape.org/) -->

<svg
   xmlns:dc="http://purl.org/dc/elements/1.1/"
   xmlns:cc="http://creativecommons.org/ns#"
   xmlns:rdf="http://www.w3.org/1999/02/22-rdf-syntax-ns#"
   xmlns:svg="http://www.w3.org/2000/svg"
   xmlns="http://www.w3.org/2000/svg"
   xmlns:xlink="http://www.w3.org/1999/xlink"
   xmlns:sodipodi="http://sodipodi.sourceforge.net/DTD/sodipodi-0.dtd"
   xmlns:inkscape="http://www.inkscape.org/namespaces/inkscape"
   width="96"
   height="96"
   id="svg2"
   version="1.1"
   inkscape:version="0.48.4 r9939"
   sodipodi:docname="truecrypt.svg">
  <defs
     id="defs4">
    <linearGradient
       id="linearGradient3765">
      <stop
         style="stop-color:#c4008c;stop-opacity:1;"
         offset="0"
         id="stop3768" />
      <stop
         style="stop-color:#98006c;stop-opacity:0.97692305;"
         offset="1"
         id="stop3770" />
    </linearGradient>
    <linearGradient
       inkscape:collect="always"
       xlink:href="#linearGradient3765"
       id="linearGradient3772"
       x1="45"
       y1="957.36218"
       x2="45"
       y2="1047.3622"
       gradientUnits="userSpaceOnUse" />
  </defs>
  <sodipodi:namedview
     id="base"
     pagecolor="#ffffff"
     bordercolor="#666666"
     borderopacity="1.0"
     inkscape:pageopacity="0.0"
     inkscape:pageshadow="2"
     inkscape:zoom="5.90625"
     inkscape:cx="48"
     inkscape:cy="48"
     inkscape:document-units="px"
     inkscape:current-layer="layer1"
     showgrid="true"
     inkscape:snap-page="true"
     inkscape:snap-global="true"
     inkscape:snap-center="true"
     inkscape:snap-object-midpoints="false"
     showguides="true"
     inkscape:guide-bbox="true"
     inkscape:snap-bbox="true"
     inkscape:object-paths="true"
     inkscape:object-nodes="true"
     inkscape:window-width="1305"
     inkscape:window-height="744"
     inkscape:window-x="61"
     inkscape:window-y="24"
     inkscape:window-maximized="1"
     inkscape:snap-midpoints="true"
     inkscape:snap-grids="true"
     inkscape:snap-to-guides="false">
    <inkscape:grid
       type="xygrid"
       id="grid3002"
       empspacing="5"
       visible="true"
       enabled="true"
       snapvisiblegridlinesonly="true" />
  </sodipodi:namedview>
  <metadata
     id="metadata7">
    <rdf:RDF>
      <cc:Work
         rdf:about="">
        <dc:format>image/svg+xml</dc:format>
        <dc:type
           rdf:resource="http://purl.org/dc/dcmitype/StillImage" />
        <dc:title />
      </cc:Work>
    </rdf:RDF>
  </metadata>
  <g
     inkscape:label="Layer 1"
     inkscape:groupmode="layer"
     id="layer1"
     transform="translate(0,-956.36218)">
    <rect
       style="fill:#ffffff;fill-opacity:0;fill-rule:nonzero;stroke:none"
       id="rect3775"
       width="96"
       height="96"
       x="0"
       y="956.36218"
       ry="0" />
    <path
       style="fill:#000000;fill-opacity:0.09589041;fill-rule:nonzero;stroke:none"
       d="m 3.353015,956.30662 c -1.884176,0 -3.4111555,1.43156 -3.4111555,3.19799 l 0,83.65949 c 0,1.7665 1.5269795,3.1981 3.4111555,3.1981 l 89.23583,0 c 1.884174,0 3.411155,-1.4316 3.411155,-3.1981 l 0,-83.65949 c 0,-1.76643 -1.526981,-3.19799 -3.411155,-3.19799 z"
       id="rect3772"
       inkscape:connector-curvature="0"
       sodipodi:nodetypes="sssssssss" />
    <path
       style="fill:#000000;fill-opacity:0.18721463;fill-rule:nonzero;stroke:none"
       d="m 1.0459761,1041.8066 0,7.4219 c 0,1.7392 1.461916,3.1337 3.2852054,3.1337 l 86.3836135,0 c 1.823288,0 3.285205,-1.3945 3.285205,-3.1337 l 0,-7.4219 -92.9540239,0 z"
       id="rect3785"
       inkscape:connector-curvature="0" />
    <path
       style="fill:#000000;fill-opacity:0.38356168;fill-rule:nonzero;stroke:none"
       d="m 1.0459761,1041.8066 0,5.3807 c 0,1.762 1.461916,3.1749 3.2852054,3.1749 l 86.3836135,0 c 1.823288,0 3.285205,-1.4129 3.285205,-3.1749 l 0,-5.3807 -92.9540239,0 z"
       id="rect3783"
       inkscape:connector-curvature="0" />
    <rect
       style="fill:url(#linearGradient3772);fill-opacity:1;fill-rule:nonzero;stroke:none"
       id="rect2985"
       width="92.954025"
       height="89"
       x="1.045977"
       y="957.36218"
       ry="3.1511393" />
    <path
       style="fill:#000000;fill-opacity:0.38356168;fill-rule:nonzero;stroke:none"
       d="m 1,1042.3622 0.045976,2.7457 c 0.03024,1.8058 1.461916,3.2543 3.2852054,3.2543 l 86.3836136,0 c 1.823288,0 3.285205,-1.4481 3.285205,-3.2543 l -0.04598,-2.7457 z"
       id="rect3781"
       inkscape:connector-curvature="0"
       sodipodi:nodetypes="csssscc" />
    <rect
       style="fill:#ffffff;fill-opacity:0.30000001;fill-rule:nonzero;stroke:none"
       id="rect3770"
       width="92.954033"
       height="2.000005"
       x="1.045976"
       y="1040.3622" />
    <g
       transform="translate(0,951.36218)"
       style="font-size:11px;font-style:normal;font-variant:normal;font-weight:normal;font-stretch:normal;text-align:end;line-height:125%;letter-spacing:0px;word-spacing:0px;text-anchor:end;fill:#ffffff;fill-opacity:0.31451613;stroke:none;font-family:mry_KacstQurn;-inkscape-font-specification:mry_KacstQurn"
       id="flowRoot3755">
      <path
         inkscape:connector-curvature="0"
         d="m 16.668,17.120652 c -5e-6,-0.359328 -0.05867,-0.645328 -0.176,-0.858 -0.110004,-0.21266 -0.245671,-0.37766 -0.407,-0.495 -0.154004,-0.117327 -0.315337,-0.194327 -0.484,-0.231 -0.161337,-0.03666 -0.297003,-0.05499 -0.407,-0.055 -0.14667,7e-6 -0.308003,0.02567 -0.484,0.077 -0.168669,0.04401 -0.330002,0.12834 -0.484,0.253 -0.154002,0.124673 -0.282335,0.29334 -0.385,0.506 -0.102668,0.205339 -0.154002,0.473005 -0.154,0.803 l 0,3.003 c -2e-6,0.418002 0.06967,0.744335 0.209,0.979 0.139331,0.234668 0.296998,0.407001 0.473,0.517 0.175998,0.110001 0.344664,0.176 0.506,0.198 0.168664,0.022 0.278664,0.033 0.33,0.033 0.22733,0 0.432663,-0.04767 0.616,-0.143 0.183329,-0.09533 0.344663,-0.219999 0.484,-0.374 0.183329,-0.212666 0.289662,-0.414332 0.319,-0.605 0.02933,-0.190665 0.044,-0.392331 0.044,-0.605 l 0,-3.003 m 1.144,3.003 c -6e-6,0.315335 -0.03301,0.623335 -0.099,0.924 -0.06601,0.300668 -0.231005,0.605001 -0.495,0.913 -0.09534,0.102667 -0.209005,0.209 -0.341,0.319 -0.132005,0.11 -0.282338,0.212666 -0.451,0.308 -0.168671,0.088 -0.359337,0.161333 -0.572,0.22 -0.21267,0.05867 -0.44367,0.088 -0.693,0.088 -0.256669,-10e-7 -0.495003,-0.033 -0.715,-0.099 -0.212669,-0.05867 -0.403335,-0.135667 -0.572,-0.231 -0.168668,-0.102667 -0.319001,-0.209 -0.451,-0.319 -0.124668,-0.117333 -0.231001,-0.231 -0.319,-0.341 -0.139334,-0.168666 -0.249334,-0.340999 -0.33,-0.517 -0.07333,-0.175999 -0.128334,-0.344665 -0.165,-0.506 -0.02933,-0.168665 -0.04767,-0.322665 -0.055,-0.462 -0.0073,-0.146665 -0.011,-0.274998 -0.011,-0.385 l 0,-2.838 c 0,-0.513328 0.088,-0.945994 0.264,-1.298 0.183332,-0.359327 0.406999,-0.645326 0.671,-0.858 0.271332,-0.212659 0.560998,-0.366659 0.869,-0.462 0.315331,-0.09533 0.601331,-0.142992 0.858,-0.143 0.300663,8e-6 0.604996,0.05867 0.913,0.176 0.315329,0.110008 0.597662,0.278674 0.847,0.506 0.249328,0.220007 0.450995,0.498673 0.605,0.836 0.161328,0.337339 0.241994,0.726006 0.242,1.166 l 0,3.003"
         style="text-align:justify;text-anchor:start;fill:#ffffff;fill-opacity:0.31451613;font-family:AvantGarde LT Medium;-inkscape-font-specification:AvantGarde LT Medium"
         id="path3772" />
      <path
         inkscape:connector-curvature="0"
         d="m 25.248344,22.741652 -1.144,0 0,-7.095 -1.199,0 0,-1.045 2.343,0 0,8.14"
         style="text-align:justify;text-anchor:start;fill:#ffffff;fill-opacity:0.31451613;font-family:AvantGarde LT Medium;-inkscape-font-specification:AvantGarde LT Medium"
         id="path3774" />
      <path
         inkscape:connector-curvature="0"
         d="m 34.972687,17.120652 c -4e-6,-0.359328 -0.05867,-0.645328 -0.176,-0.858 -0.110004,-0.21266 -0.24567,-0.37766 -0.407,-0.495 -0.154003,-0.117327 -0.315336,-0.194327 -0.484,-0.231 -0.161336,-0.03666 -0.297003,-0.05499 -0.406999,-0.055 -0.14667,7e-6 -0.308003,0.02567 -0.484001,0.077 -0.168669,0.04401 -0.330002,0.12834 -0.484,0.253 -0.154001,0.124673 -0.282335,0.29334 -0.385,0.506 -0.102668,0.205339 -0.154001,0.473005 -0.154,0.803 l 0,3.003 c -10e-7,0.418002 0.06967,0.744335 0.209,0.979 0.139332,0.234668 0.296998,0.407001 0.473,0.517 0.175998,0.110001 0.344665,0.176 0.506,0.198 0.168664,0.022 0.278664,0.033 0.33,0.033 0.227331,0 0.432664,-0.04767 0.616,-0.143 0.18333,-0.09533 0.344663,-0.219999 0.484,-0.374 0.183329,-0.212666 0.289663,-0.414332 0.319001,-0.605 0.02933,-0.190665 0.044,-0.392331 0.044,-0.605 l 0,-3.003 m 1.144,3.003 c -5e-6,0.315335 -0.033,0.623335 -0.099,0.924 -0.06601,0.300668 -0.231005,0.605001 -0.494999,0.913 -0.09534,0.102667 -0.209005,0.209 -0.341,0.319 -0.132005,0.11 -0.282338,0.212666 -0.451,0.308 -0.168671,0.088 -0.359338,0.161333 -0.572001,0.22 -0.21267,0.05867 -0.443669,0.088 -0.692999,0.088 -0.25667,-10e-7 -0.495003,-0.033 -0.715001,-0.099 -0.212668,-0.05867 -0.403335,-0.135667 -0.571999,-0.231 -0.168669,-0.102667 -0.319002,-0.209 -0.451,-0.319 -0.124668,-0.117333 -0.231002,-0.231 -0.319001,-0.341 -0.139334,-0.168666 -0.249334,-0.340999 -0.33,-0.517 -0.07333,-0.175999 -0.128333,-0.344665 -0.164999,-0.506 -0.02933,-0.168665 -0.04767,-0.322665 -0.055,-0.462 -0.0073,-0.146665 -0.011,-0.274998 -0.011,-0.385 l 0,-2.838 c 0,-0.513328 0.088,-0.945994 0.264,-1.298 0.183333,-0.359327 0.406999,-0.645326 0.671001,-0.858 0.271331,-0.212659 0.560998,-0.366659 0.869,-0.462 0.31533,-0.09533 0.60133,-0.142992 0.857999,-0.143 0.300664,8e-6 0.604997,0.05867 0.913001,0.176 0.315329,0.110008 0.597662,0.278674 0.847,0.506 0.249328,0.220007 0.450994,0.498673 0.604999,0.836 0.161328,0.337339 0.241995,0.726006 0.242,1.166 l 0,3.003"
         style="text-align:justify;text-anchor:start;fill:#ffffff;fill-opacity:0.31451613;font-family:AvantGarde LT Medium;-inkscape-font-specification:AvantGarde LT Medium"
         id="path3776" />
      <path
         inkscape:connector-curvature="0"
         d="m 44.125031,17.120652 c -4e-6,-0.359328 -0.05867,-0.645328 -0.176,-0.858 -0.110004,-0.21266 -0.245671,-0.37766 -0.407,-0.495 -0.154004,-0.117327 -0.315337,-0.194327 -0.484,-0.231 -0.161336,-0.03666 -0.297003,-0.05499 -0.407,-0.055 -0.146669,7e-6 -0.308003,0.02567 -0.484,0.077 -0.168669,0.04401 -0.330002,0.12834 -0.484,0.253 -0.154002,0.124673 -0.282335,0.29334 -0.385,0.506 -0.102668,0.205339 -0.154001,0.473005 -0.154,0.803 l 0,3.003 c -10e-7,0.418002 0.06967,0.744335 0.209,0.979 0.139332,0.234668 0.296998,0.407001 0.473,0.517 0.175998,0.110001 0.344664,0.176 0.506,0.198 0.168664,0.022 0.278664,0.033 0.33,0.033 0.22733,0 0.432663,-0.04767 0.616,-0.143 0.18333,-0.09533 0.344663,-0.219999 0.484,-0.374 0.183329,-0.212666 0.289662,-0.414332 0.319,-0.605 0.02933,-0.190665 0.044,-0.392331 0.044,-0.605 l 0,-3.003 m 1.144,3.003 c -5e-6,0.315335 -0.033,0.623335 -0.099,0.924 -0.06601,0.300668 -0.231005,0.605001 -0.495,0.913 -0.09534,0.102667 -0.209005,0.209 -0.341,0.319 -0.132004,0.11 -0.282338,0.212666 -0.451,0.308 -0.168671,0.088 -0.359337,0.161333 -0.572,0.22 -0.21267,0.05867 -0.44367,0.088 -0.693,0.088 -0.256669,-10e-7 -0.495002,-0.033 -0.715,-0.099 -0.212669,-0.05867 -0.403335,-0.135667 -0.572,-0.231 -0.168668,-0.102667 -0.319001,-0.209 -0.451,-0.319 -0.124668,-0.117333 -0.231001,-0.231 -0.319,-0.341 -0.139334,-0.168666 -0.249334,-0.340999 -0.33,-0.517 -0.07333,-0.175999 -0.128334,-0.344665 -0.165,-0.506 -0.02933,-0.168665 -0.04767,-0.322665 -0.055,-0.462 -0.0073,-0.146665 -0.011,-0.274998 -0.011,-0.385 l 0,-2.838 c 0,-0.513328 0.088,-0.945994 0.264,-1.298 0.183333,-0.359327 0.406999,-0.645326 0.671,-0.858 0.271332,-0.212659 0.560998,-0.366659 0.869,-0.462 0.315331,-0.09533 0.601331,-0.142992 0.858,-0.143 0.300664,8e-6 0.604997,0.05867 0.913,0.176 0.315329,0.110008 0.597662,0.278674 0.847,0.506 0.249328,0.220007 0.450995,0.498673 0.605,0.836 0.161328,0.337339 0.241995,0.726006 0.242,1.166 l 0,3.003"
         style="text-align:justify;text-anchor:start;fill:#ffffff;fill-opacity:0.31451613;font-family:AvantGarde LT Medium;-inkscape-font-specification:AvantGarde LT Medium"
         id="path3778" />
      <path
         inkscape:connector-curvature="0"
         d="m 52.705375,22.741652 -1.144,0 0,-7.095 -1.199,0 0,-1.045 2.343,0 0,8.14"
         style="text-align:justify;text-anchor:start;fill:#ffffff;fill-opacity:0.31451613;font-family:AvantGarde LT Medium;-inkscape-font-specification:AvantGarde LT Medium"
         id="path3780" />
      <path
         inkscape:connector-curvature="0"
         d="m 62.429719,17.120652 c -5e-6,-0.359328 -0.05867,-0.645328 -0.176,-0.858 -0.110005,-0.21266 -0.245671,-0.37766 -0.407,-0.495 -0.154004,-0.117327 -0.315337,-0.194327 -0.484,-0.231 -0.161337,-0.03666 -0.297003,-0.05499 -0.407,-0.055 -0.14667,7e-6 -0.308003,0.02567 -0.484,0.077 -0.168669,0.04401 -0.330003,0.12834 -0.484,0.253 -0.154002,0.124673 -0.282335,0.29334 -0.385,0.506 -0.102669,0.205339 -0.154002,0.473005 -0.154,0.803 l 0,3.003 c -2e-6,0.418002 0.06967,0.744335 0.209,0.979 0.139331,0.234668 0.296998,0.407001 0.473,0.517 0.175997,0.110001 0.344664,0.176 0.506,0.198 0.168663,0.022 0.278663,0.033 0.33,0.033 0.22733,0 0.432663,-0.04767 0.616,-0.143 0.183329,-0.09533 0.344662,-0.219999 0.484,-0.374 0.183329,-0.212666 0.289662,-0.414332 0.319,-0.605 0.02933,-0.190665 0.04399,-0.392331 0.044,-0.605 l 0,-3.003 m 1.144,3.003 c -6e-6,0.315335 -0.03301,0.623335 -0.099,0.924 -0.06601,0.300668 -0.231006,0.605001 -0.495,0.913 -0.09534,0.102667 -0.209005,0.209 -0.341,0.319 -0.132005,0.11 -0.282338,0.212666 -0.451,0.308 -0.168671,0.088 -0.359338,0.161333 -0.572,0.22 -0.21267,0.05867 -0.44367,0.088 -0.693,0.088 -0.25667,-10e-7 -0.495003,-0.033 -0.715,-0.099 -0.212669,-0.05867 -0.403336,-0.135667 -0.572,-0.231 -0.168668,-0.102667 -0.319002,-0.209 -0.451,-0.319 -0.124668,-0.117333 -0.231001,-0.231 -0.319,-0.341 -0.139334,-0.168666 -0.249334,-0.340999 -0.33,-0.517 -0.07333,-0.175999 -0.128334,-0.344665 -0.165,-0.506 -0.02933,-0.168665 -0.04767,-0.322665 -0.055,-0.462 -0.0073,-0.146665 -0.011,-0.274998 -0.011,-0.385 l 0,-2.838 c -10e-7,-0.513328 0.088,-0.945994 0.264,-1.298 0.183332,-0.359327 0.406999,-0.645326 0.671,-0.858 0.271331,-0.212659 0.560998,-0.366659 0.869,-0.462 0.315331,-0.09533 0.60133,-0.142992 0.858,-0.143 0.300663,8e-6 0.604996,0.05867 0.913,0.176 0.315329,0.110008 0.597662,0.278674 0.847,0.506 0.249328,0.220007 0.450994,0.498673 0.605,0.836 0.161327,0.337339 0.241994,0.726006 0.242,1.166 l 0,3.003"
         style="text-align:justify;text-anchor:start;fill:#ffffff;fill-opacity:0.31451613;font-family:AvantGarde LT Medium;-inkscape-font-specification:AvantGarde LT Medium"
         id="path3782" />
      <path
         inkscape:connector-curvature="0"
         d="m 71.010063,22.741652 -1.144001,0 0,-7.095 -1.199,0 0,-1.045 2.343001,0 0,8.14"
         style="text-align:justify;text-anchor:start;fill:#ffffff;fill-opacity:0.31451613;font-family:AvantGarde LT Medium;-inkscape-font-specification:AvantGarde LT Medium"
         id="path3784" />
      <path
         inkscape:connector-curvature="0"
         d="m 80.734406,17.120652 c -4e-6,-0.359328 -0.05867,-0.645328 -0.176,-0.858 -0.110004,-0.21266 -0.245671,-0.37766 -0.407,-0.495 -0.154004,-0.117327 -0.315337,-0.194327 -0.484,-0.231 -0.161336,-0.03666 -0.297003,-0.05499 -0.407,-0.055 -0.146669,7e-6 -0.308003,0.02567 -0.484,0.077 -0.168669,0.04401 -0.330002,0.12834 -0.484,0.253 -0.154002,0.124673 -0.282335,0.29334 -0.385,0.506 -0.102668,0.205339 -0.154001,0.473005 -0.154,0.803 l 0,3.003 c -10e-7,0.418002 0.06967,0.744335 0.209,0.979 0.139332,0.234668 0.296998,0.407001 0.473,0.517 0.175998,0.110001 0.344664,0.176 0.506,0.198 0.168664,0.022 0.278664,0.033 0.33,0.033 0.22733,0 0.432663,-0.04767 0.616,-0.143 0.18333,-0.09533 0.344663,-0.219999 0.484,-0.374 0.183329,-0.212666 0.289662,-0.414332 0.319,-0.605 0.02933,-0.190665 0.044,-0.392331 0.044,-0.605 l 0,-3.003 m 1.144,3.003 c -5e-6,0.315335 -0.03301,0.623335 -0.099,0.924 -0.066,0.300668 -0.231005,0.605001 -0.495,0.913 -0.09534,0.102667 -0.209005,0.209 -0.341,0.319 -0.132004,0.11 -0.282338,0.212666 -0.451,0.308 -0.168671,0.088 -0.359337,0.161333 -0.572,0.22 -0.21267,0.05867 -0.44367,0.088 -0.693,0.088 -0.256669,-10e-7 -0.495002,-0.033 -0.715,-0.099 -0.212669,-0.05867 -0.403335,-0.135667 -0.572,-0.231 -0.168668,-0.102667 -0.319001,-0.209 -0.451,-0.319 -0.124668,-0.117333 -0.231001,-0.231 -0.319,-0.341 -0.139334,-0.168666 -0.249334,-0.340999 -0.33,-0.517 -0.07333,-0.175999 -0.128334,-0.344665 -0.165,-0.506 -0.02933,-0.168665 -0.04767,-0.322665 -0.055,-0.462 -0.0073,-0.146665 -0.011,-0.274998 -0.011,-0.385 l 0,-2.838 c 0,-0.513328 0.088,-0.945994 0.264,-1.298 0.183333,-0.359327 0.406999,-0.645326 0.671,-0.858 0.271332,-0.212659 0.560998,-0.366659 0.869,-0.462 0.315331,-0.09533 0.601331,-0.142992 0.858,-0.143 0.300664,8e-6 0.604997,0.05867 0.913,0.176 0.315329,0.110008 0.597662,0.278674 0.847,0.506 0.249328,0.220007 0.450995,0.498673 0.605,0.836 0.161328,0.337339 0.241995,0.726006 0.242,1.166 l 0,3.003"
         style="text-align:justify;text-anchor:start;fill:#ffffff;fill-opacity:0.31451613;font-family:AvantGarde LT Medium;-inkscape-font-specification:AvantGarde LT Medium"
         id="path3786" />
      <path
         inkscape:connector-curvature="0"
         d="m 16.096,36.491652 -1.144,0 0,-7.095 -1.199,0 0,-1.045 2.343,0 0,8.14"
         style="text-align:justify;text-anchor:start;fill:#ffffff;fill-opacity:0.31451613;font-family:AvantGarde LT Medium;-inkscape-font-specification:AvantGarde LT Medium"
         id="path3788" />
      <path
         inkscape:connector-curvature="0"
         d="m 25.248344,36.491652 -1.144,0 0,-7.095 -1.199,0 0,-1.045 2.343,0 0,8.14"
         style="text-align:justify;text-anchor:start;fill:#ffffff;fill-opacity:0.31451613;font-family:AvantGarde LT Medium;-inkscape-font-specification:AvantGarde LT Medium"
         id="path3790" />
      <path
         inkscape:connector-curvature="0"
         d="m 34.972687,30.870652 c -4e-6,-0.359328 -0.05867,-0.645328 -0.176,-0.858 -0.110004,-0.21266 -0.24567,-0.37766 -0.407,-0.495 -0.154003,-0.117327 -0.315336,-0.194327 -0.484,-0.231 -0.161336,-0.03666 -0.297003,-0.05499 -0.406999,-0.055 -0.14667,7e-6 -0.308003,0.02567 -0.484001,0.077 -0.168669,0.04401 -0.330002,0.12834 -0.484,0.253 -0.154001,0.124673 -0.282335,0.29334 -0.385,0.506 -0.102668,0.205339 -0.154001,0.473005 -0.154,0.803 l 0,3.003 c -10e-7,0.418002 0.06967,0.744335 0.209,0.979 0.139332,0.234668 0.296998,0.407001 0.473,0.517 0.175998,0.110001 0.344665,0.176 0.506,0.198 0.168664,0.022 0.278664,0.033 0.33,0.033 0.227331,0 0.432664,-0.04767 0.616,-0.143 0.18333,-0.09533 0.344663,-0.219999 0.484,-0.374 0.183329,-0.212666 0.289663,-0.414332 0.319001,-0.605 0.02933,-0.190665 0.044,-0.392331 0.044,-0.605 l 0,-3.003 m 1.144,3.003 c -5e-6,0.315335 -0.033,0.623335 -0.099,0.924 -0.06601,0.300668 -0.231005,0.605001 -0.494999,0.913 -0.09534,0.102667 -0.209005,0.209 -0.341,0.319 -0.132005,0.11 -0.282338,0.212666 -0.451,0.308 -0.168671,0.088 -0.359338,0.161333 -0.572001,0.22 -0.21267,0.05867 -0.443669,0.088 -0.692999,0.088 -0.25667,-10e-7 -0.495003,-0.033 -0.715001,-0.099 -0.212668,-0.05867 -0.403335,-0.135667 -0.571999,-0.231 -0.168669,-0.102667 -0.319002,-0.209 -0.451,-0.319 -0.124668,-0.117333 -0.231002,-0.231 -0.319001,-0.341 -0.139334,-0.168666 -0.249334,-0.340999 -0.33,-0.517 -0.07333,-0.175999 -0.128333,-0.344665 -0.164999,-0.506 -0.02933,-0.168665 -0.04767,-0.322665 -0.055,-0.462 -0.0073,-0.146665 -0.011,-0.274998 -0.011,-0.385 l 0,-2.838 c 0,-0.513328 0.088,-0.945994 0.264,-1.298 0.183333,-0.359327 0.406999,-0.645326 0.671001,-0.858 0.271331,-0.212659 0.560998,-0.366659 0.869,-0.462 0.31533,-0.09533 0.60133,-0.142992 0.857999,-0.143 0.300664,8e-6 0.604997,0.05867 0.913001,0.176 0.315329,0.110008 0.597662,0.278674 0.847,0.506 0.249328,0.220007 0.450994,0.498673 0.604999,0.836 0.161328,0.337339 0.241995,0.726006 0.242,1.166 l 0,3.003"
         style="text-align:justify;text-anchor:start;fill:#ffffff;fill-opacity:0.31451613;font-family:AvantGarde LT Medium;-inkscape-font-specification:AvantGarde LT Medium"
         id="path3792" />
      <path
         inkscape:connector-curvature="0"
         d="m 43.553031,36.491652 -1.144,0 0,-7.095 -1.199,0 0,-1.045 2.343,0 0,8.14"
         style="text-align:justify;text-anchor:start;fill:#ffffff;fill-opacity:0.31451613;font-family:AvantGarde LT Medium;-inkscape-font-specification:AvantGarde LT Medium"
         id="path3794" />
      <path
         inkscape:connector-curvature="0"
         d="m 53.277375,30.870652 c -5e-6,-0.359328 -0.05867,-0.645328 -0.176,-0.858 -0.110004,-0.21266 -0.245671,-0.37766 -0.407,-0.495 -0.154004,-0.117327 -0.315337,-0.194327 -0.484,-0.231 -0.161337,-0.03666 -0.297003,-0.05499 -0.407,-0.055 -0.14667,7e-6 -0.308003,0.02567 -0.484,0.077 -0.168669,0.04401 -0.330002,0.12834 -0.484,0.253 -0.154002,0.124673 -0.282335,0.29334 -0.385,0.506 -0.102668,0.205339 -0.154002,0.473005 -0.154,0.803 l 0,3.003 c -2e-6,0.418002 0.06967,0.744335 0.209,0.979 0.139331,0.234668 0.296998,0.407001 0.473,0.517 0.175998,0.110001 0.344664,0.176 0.506,0.198 0.168664,0.022 0.278664,0.033 0.33,0.033 0.22733,0 0.432663,-0.04767 0.616,-0.143 0.183329,-0.09533 0.344663,-0.219999 0.484,-0.374 0.183329,-0.212666 0.289662,-0.414332 0.319,-0.605 0.02933,-0.190665 0.04399,-0.392331 0.044,-0.605 l 0,-3.003 m 1.144,3.003 c -6e-6,0.315335 -0.03301,0.623335 -0.099,0.924 -0.06601,0.300668 -0.231005,0.605001 -0.495,0.913 -0.09534,0.102667 -0.209005,0.209 -0.341,0.319 -0.132005,0.11 -0.282338,0.212666 -0.451,0.308 -0.168671,0.088 -0.359337,0.161333 -0.572,0.22 -0.21267,0.05867 -0.44367,0.088 -0.693,0.088 -0.256669,-10e-7 -0.495003,-0.033 -0.715,-0.099 -0.212669,-0.05867 -0.403335,-0.135667 -0.572,-0.231 -0.168668,-0.102667 -0.319001,-0.209 -0.451,-0.319 -0.124668,-0.117333 -0.231001,-0.231 -0.319,-0.341 -0.139334,-0.168666 -0.249334,-0.340999 -0.33,-0.517 -0.07333,-0.175999 -0.128334,-0.344665 -0.165,-0.506 -0.02933,-0.168665 -0.04767,-0.322665 -0.055,-0.462 -0.0073,-0.146665 -0.011,-0.274998 -0.011,-0.385 l 0,-2.838 c 0,-0.513328 0.088,-0.945994 0.264,-1.298 0.183332,-0.359327 0.406999,-0.645326 0.671,-0.858 0.271332,-0.212659 0.560998,-0.366659 0.869,-0.462 0.315331,-0.09533 0.601331,-0.142992 0.858,-0.143 0.300663,8e-6 0.604996,0.05867 0.913,0.176 0.315329,0.110008 0.597662,0.278674 0.847,0.506 0.249328,0.220007 0.450995,0.498673 0.605,0.836 0.161328,0.337339 0.241994,0.726006 0.242,1.166 l 0,3.003"
         style="text-align:justify;text-anchor:start;fill:#ffffff;fill-opacity:0.31451613;font-family:AvantGarde LT Medium;-inkscape-font-specification:AvantGarde LT Medium"
         id="path3796" />
      <path
         inkscape:connector-curvature="0"
         d="m 61.857719,36.491652 -1.144,0 0,-7.095 -1.199,0 0,-1.045 2.343,0 0,8.14"
         style="text-align:justify;text-anchor:start;fill:#ffffff;fill-opacity:0.31451613;font-family:AvantGarde LT Medium;-inkscape-font-specification:AvantGarde LT Medium"
         id="path3798" />
      <path
         inkscape:connector-curvature="0"
         d="m 71.010063,36.491652 -1.144001,0 0,-7.095 -1.199,0 0,-1.045 2.343001,0 0,8.14"
         style="text-align:justify;text-anchor:start;fill:#ffffff;fill-opacity:0.31451613;font-family:AvantGarde LT Medium;-inkscape-font-specification:AvantGarde LT Medium"
         id="path3800" />
      <path
         inkscape:connector-curvature="0"
         d="m 80.734406,30.870652 c -4e-6,-0.359328 -0.05867,-0.645328 -0.176,-0.858 -0.110004,-0.21266 -0.245671,-0.37766 -0.407,-0.495 -0.154004,-0.117327 -0.315337,-0.194327 -0.484,-0.231 -0.161336,-0.03666 -0.297003,-0.05499 -0.407,-0.055 -0.146669,7e-6 -0.308003,0.02567 -0.484,0.077 -0.168669,0.04401 -0.330002,0.12834 -0.484,0.253 -0.154002,0.124673 -0.282335,0.29334 -0.385,0.506 -0.102668,0.205339 -0.154001,0.473005 -0.154,0.803 l 0,3.003 c -10e-7,0.418002 0.06967,0.744335 0.209,0.979 0.139332,0.234668 0.296998,0.407001 0.473,0.517 0.175998,0.110001 0.344664,0.176 0.506,0.198 0.168664,0.022 0.278664,0.033 0.33,0.033 0.22733,0 0.432663,-0.04767 0.616,-0.143 0.18333,-0.09533 0.344663,-0.219999 0.484,-0.374 0.183329,-0.212666 0.289662,-0.414332 0.319,-0.605 0.02933,-0.190665 0.044,-0.392331 0.044,-0.605 l 0,-3.003 m 1.144,3.003 c -5e-6,0.315335 -0.03301,0.623335 -0.099,0.924 -0.066,0.300668 -0.231005,0.605001 -0.495,0.913 -0.09534,0.102667 -0.209005,0.209 -0.341,0.319 -0.132004,0.11 -0.282338,0.212666 -0.451,0.308 -0.168671,0.088 -0.359337,0.161333 -0.572,0.22 -0.21267,0.05867 -0.44367,0.088 -0.693,0.088 -0.256669,-10e-7 -0.495002,-0.033 -0.715,-0.099 -0.212669,-0.05867 -0.403335,-0.135667 -0.572,-0.231 -0.168668,-0.102667 -0.319001,-0.209 -0.451,-0.319 -0.124668,-0.117333 -0.231001,-0.231 -0.319,-0.341 -0.139334,-0.168666 -0.249334,-0.340999 -0.33,-0.517 -0.07333,-0.175999 -0.128334,-0.344665 -0.165,-0.506 -0.02933,-0.168665 -0.04767,-0.322665 -0.055,-0.462 -0.0073,-0.146665 -0.011,-0.274998 -0.011,-0.385 l 0,-2.838 c 0,-0.513328 0.088,-0.945994 0.264,-1.298 0.183333,-0.359327 0.406999,-0.645326 0.671,-0.858 0.271332,-0.212659 0.560998,-0.366659 0.869,-0.462 0.315331,-0.09533 0.601331,-0.142992 0.858,-0.143 0.300664,8e-6 0.604997,0.05867 0.913,0.176 0.315329,0.110008 0.597662,0.278674 0.847,0.506 0.249328,0.220007 0.450995,0.498673 0.605,0.836 0.161328,0.337339 0.241995,0.726006 0.242,1.166 l 0,3.003"
         style="text-align:justify;text-anchor:start;fill:#ffffff;fill-opacity:0.31451613;font-family:AvantGarde LT Medium;-inkscape-font-specification:AvantGarde LT Medium"
         id="path3802" />
      <path
         inkscape:connector-curvature="0"
         d="m 13.764,50.241652 0,-7.051 -1.562,0 0,-1.089 4.312,0 0,1.089 -1.562,0 0,7.051 -1.188,0"
         style="text-align:justify;text-anchor:start;fill:#ffffff;fill-opacity:0.31451613;font-family:AvantGarde LT Medium;-inkscape-font-specification:AvantGarde LT Medium"
         id="path3804" />
      <path
         inkscape:connector-curvature="0"
         d="m 23.039719,46.303652 0.814,0 c 0.08066,3e-6 0.190664,-0.0037 0.33,-0.011 0.146663,-0.0073 0.300663,-0.02566 0.462,-0.055 0.168663,-0.02933 0.337329,-0.077 0.506,-0.143 0.175996,-0.066 0.333662,-0.157663 0.473,-0.275 0.139328,-0.117329 0.252995,-0.263996 0.341,-0.44 0.08799,-0.183329 0.131995,-0.406995 0.132,-0.671 -5e-6,-0.168661 -0.03301,-0.340995 -0.099,-0.517 -0.05867,-0.183328 -0.161338,-0.348327 -0.308,-0.495 -0.139338,-0.14666 -0.322671,-0.26766 -0.55,-0.363 -0.227337,-0.09533 -0.50967,-0.142993 -0.847,-0.143 l -1.254,0 0,3.113 m 2.706,3.938 -2.684,-3.773 -0.022,0 0,3.773 -1.188,0 0,-8.14 2.519,0 c 0.571996,8e-6 1.022995,0.06234 1.353,0.187 0.329995,0.124674 0.601328,0.289674 0.814,0.495 0.256661,0.24934 0.443661,0.54634 0.561,0.891 0.12466,0.344672 0.186994,0.689339 0.187,1.034 -6e-6,0.542671 -0.09901,0.979004 -0.297,1.309 -0.190673,0.32267 -0.414339,0.572003 -0.671,0.748 -0.256672,0.176003 -0.517005,0.293336 -0.781,0.352 -0.256671,0.05867 -0.451004,0.088 -0.583,0.088 l 2.277,3.036 -1.485,0"
         style="text-align:justify;text-anchor:start;fill:#ffffff;fill-opacity:0.31451613;font-family:AvantGarde LT Medium;-inkscape-font-specification:AvantGarde LT Medium"
         id="path3806" />
      <path
         inkscape:connector-curvature="0"
         d="m 38.469937,47.612652 c -6e-6,0.462002 -0.07334,0.865335 -0.219999,1.21 -0.146673,0.337334 -0.34834,0.630667 -0.605001,0.88 -0.256671,0.212667 -0.546338,0.381333 -0.869,0.506 -0.315337,0.124666 -0.660003,0.186999 -1.034,0.187 -0.374003,-10e-7 -0.722336,-0.06233 -1.045,-0.187 -0.315335,-0.124667 -0.601335,-0.293333 -0.858,-0.506 -0.256668,-0.249333 -0.458334,-0.542666 -0.604999,-0.88 -0.146668,-0.344665 -0.220001,-0.747998 -0.220001,-1.21 l 0,-5.511 1.188,0 0,5.478 c -10e-7,0.374002 0.05866,0.674668 0.176001,0.902 0.117331,0.227334 0.256664,0.403334 0.417999,0.528 0.168664,0.117334 0.340998,0.198001 0.517001,0.242 0.175996,0.03667 0.318996,0.055 0.428999,0.055 0.109997,0 0.24933,-0.01833 0.418,-0.055 0.175996,-0.044 0.344663,-0.124666 0.506,-0.242 0.168663,-0.124666 0.311662,-0.300666 0.429,-0.528 0.124662,-0.227332 0.186995,-0.527998 0.187,-0.902 l 0,-5.478 1.188,0 0,5.511"
         style="text-align:justify;text-anchor:start;fill:#ffffff;fill-opacity:0.31451613;font-family:AvantGarde LT Medium;-inkscape-font-specification:AvantGarde LT Medium"
         id="path3808" />
      <path
         inkscape:connector-curvature="0"
         d="m 44.537266,50.241652 0,-8.14 4.389,0 0,1.089 -3.201,0 0,2.398 3.201,0 0,1.089 -3.201,0 0,2.475 3.201,0 0,1.089 -4.389,0"
         style="text-align:justify;text-anchor:start;fill:#ffffff;fill-opacity:0.31451613;font-family:AvantGarde LT Medium;-inkscape-font-specification:AvantGarde LT Medium"
         id="path3810" />
      <path
         inkscape:connector-curvature="0"
         d="m 60.999078,44.180652 c -0.05867,-0.06599 -0.15034,-0.161328 -0.275,-0.286 -0.124673,-0.131994 -0.28234,-0.260327 -0.473,-0.385 -0.183339,-0.131994 -0.403339,-0.241993 -0.66,-0.33 -0.256672,-0.09533 -0.550005,-0.142993 -0.88,-0.143 -0.425337,7e-6 -0.821337,0.08434 -1.188,0.253 -0.36667,0.16134 -0.685669,0.381339 -0.957,0.66 -0.271335,0.278672 -0.487669,0.608672 -0.649,0.99 -0.154002,0.381338 -0.231001,0.784671 -0.231,1.21 -1e-6,0.440003 0.08066,0.850669 0.242,1.232 0.168665,0.381335 0.388665,0.715002 0.66,1.001 0.278664,0.286001 0.597664,0.513334 0.957,0.682 0.366663,0.161334 0.747996,0.242 1.144,0.242 0.432662,0 0.839661,-0.09533 1.221,-0.286 0.388661,-0.197999 0.722327,-0.461999 1.001,-0.792 l 1.463,0 c -0.227341,0.396001 -0.487674,0.733334 -0.781,1.012 -0.29334,0.278667 -0.605007,0.502333 -0.935,0.671 -0.322673,0.168666 -0.656339,0.289666 -1.001,0.363 -0.337338,0.08067 -0.663671,0.120999 -0.979,0.121 -0.579337,-10e-7 -1.122003,-0.113667 -1.628,-0.341 -0.506002,-0.227333 -0.949669,-0.535333 -1.331,-0.924 -0.374001,-0.388666 -0.671001,-0.839665 -0.891,-1.353 -0.22,-0.513331 -0.33,-1.059664 -0.33,-1.639 0,-0.593996 0.11,-1.143995 0.33,-1.65 0.227332,-0.513328 0.531666,-0.956994 0.913,-1.331 0.381331,-0.381326 0.824998,-0.678326 1.331,-0.891 0.505997,-0.212659 1.044996,-0.318992 1.617,-0.319 0.153995,8e-6 0.326329,0.01101 0.517,0.033 0.197995,0.02201 0.406995,0.06234 0.627,0.121 0.219994,0.05867 0.443661,0.139341 0.671,0.242 0.227327,0.102674 0.450993,0.234674 0.671,0.396 0.366659,0.264007 0.641659,0.52434 0.825,0.781 0.183325,0.256673 0.326325,0.476672 0.429,0.66 l -1.43,0"
         style="text-align:justify;text-anchor:start;fill:#ffffff;fill-opacity:0.31451613;font-family:AvantGarde LT Medium;-inkscape-font-specification:AvantGarde LT Medium"
         id="path3812" />
      <path
         inkscape:connector-curvature="0"
         d="m 69.119797,46.303652 0.814,0 c 0.08066,3e-6 0.190664,-0.0037 0.33,-0.011 0.146663,-0.0073 0.300663,-0.02566 0.462,-0.055 0.168663,-0.02933 0.337329,-0.077 0.506,-0.143 0.175996,-0.066 0.333662,-0.157663 0.473,-0.275 0.139329,-0.117329 0.252995,-0.263996 0.341,-0.44 0.088,-0.183329 0.131995,-0.406995 0.132,-0.671 -5e-6,-0.168661 -0.03301,-0.340995 -0.099,-0.517 -0.05867,-0.183328 -0.161338,-0.348327 -0.308,-0.495 -0.139338,-0.14666 -0.322671,-0.26766 -0.55,-0.363 -0.227337,-0.09533 -0.50967,-0.142993 -0.847,-0.143 l -1.254,0 0,3.113 m 2.706,3.938 -2.684,-3.773 -0.022,0 0,3.773 -1.188,0 0,-8.14 2.519,0 c 0.571996,8e-6 1.022996,0.06234 1.353,0.187 0.329995,0.124674 0.601328,0.289674 0.814,0.495 0.256661,0.24934 0.443661,0.54634 0.561,0.891 0.12466,0.344672 0.186994,0.689339 0.187,1.034 -6e-6,0.542671 -0.09901,0.979004 -0.297,1.309 -0.190672,0.32267 -0.414339,0.572003 -0.671,0.748 -0.256672,0.176003 -0.517005,0.293336 -0.781,0.352 -0.256671,0.05867 -0.451004,0.088 -0.583,0.088 l 2.277,3.036 -1.485,0"
         style="text-align:justify;text-anchor:start;fill:#ffffff;fill-opacity:0.31451613;font-family:AvantGarde LT Medium;-inkscape-font-specification:AvantGarde LT Medium"
         id="path3814" />
      <path
         inkscape:connector-curvature="0"
         d="m 80.298,50.241652 0,-2.937 -2.53,-5.203 1.331,0 1.793,3.817 1.782,-3.817 1.32,0 -2.508,5.203 0,2.937 -1.188,0"
         style="text-align:justify;text-anchor:start;fill:#ffffff;fill-opacity:0.31451613;font-family:AvantGarde LT Medium;-inkscape-font-specification:AvantGarde LT Medium"
         id="path3816" />
      <path
         inkscape:connector-curvature="0"
         d="m 14.028,59.690652 1.166,0 c 0.33733,4e-6 0.61233,-0.044 0.825,-0.132 0.219996,-0.088 0.392329,-0.197996 0.517,-0.33 0.131995,-0.131996 0.219995,-0.278662 0.264,-0.44 0.05133,-0.161328 0.077,-0.318995 0.077,-0.473 -5e-6,-0.153995 -0.02567,-0.311661 -0.077,-0.473 -0.04401,-0.161327 -0.132005,-0.307994 -0.264,-0.44 -0.124671,-0.131994 -0.297004,-0.241994 -0.517,-0.33 -0.21267,-0.08799 -0.48767,-0.131993 -0.825,-0.132 l -1.166,0 0,2.75 m 0,4.301 -1.188,0 0,-8.14 2.354,0 c 0.483996,8e-6 0.905663,0.06234 1.265,0.187 0.366662,0.117341 0.667328,0.286007 0.902,0.506 0.234661,0.212673 0.410661,0.473007 0.528,0.781 0.117327,0.300673 0.175994,0.630672 0.176,0.99 -6e-6,0.366672 -0.05867,0.700338 -0.176,1.001 -0.117339,0.300671 -0.293339,0.561004 -0.528,0.781 -0.234672,0.21267 -0.535338,0.381336 -0.902,0.506 -0.359337,0.117336 -0.781004,0.176003 -1.265,0.176 l -1.166,0 0,3.212"
         style="text-align:justify;text-anchor:start;fill:#ffffff;fill-opacity:0.31451613;font-family:AvantGarde LT Medium;-inkscape-font-specification:AvantGarde LT Medium"
         id="path3818" />
      <path
         inkscape:connector-curvature="0"
         d="m 23.213219,63.991652 0,-7.051 -1.562,0 0,-1.089 4.312,0 0,1.089 -1.562,0 0,7.051 -1.188,0"
         style="text-align:justify;text-anchor:start;fill:#ffffff;fill-opacity:0.31451613;font-family:AvantGarde LT Medium;-inkscape-font-specification:AvantGarde LT Medium"
         id="path3820" />
      <path
         inkscape:connector-curvature="0"
         d="m 34.169953,58.370652 c -4e-6,-0.359328 -0.05867,-0.645328 -0.176,-0.858 -0.110004,-0.21266 -0.245671,-0.37766 -0.407,-0.495 -0.154004,-0.117327 -0.315337,-0.194327 -0.484,-0.231 -0.161337,-0.03666 -0.297003,-0.05499 -0.407,-0.055 -0.146669,7e-6 -0.308003,0.02567 -0.484,0.077 -0.168669,0.04401 -0.330002,0.12834 -0.484,0.253 -0.154002,0.124673 -0.282335,0.29334 -0.385,0.506 -0.102668,0.205339 -0.154001,0.473005 -0.154,0.803 l 0,3.003 c -1e-6,0.418002 0.06966,0.744335 0.209,0.979 0.139332,0.234668 0.296998,0.407001 0.473,0.517 0.175998,0.110001 0.344664,0.176 0.506,0.198 0.168664,0.022 0.278664,0.033 0.33,0.033 0.22733,0 0.432663,-0.04767 0.616,-0.143 0.18333,-0.09533 0.344663,-0.219999 0.484,-0.374 0.183329,-0.212666 0.289662,-0.414332 0.319,-0.605 0.02933,-0.190665 0.044,-0.392331 0.044,-0.605 l 0,-3.003 m 1.144,3.003 c -6e-6,0.315335 -0.03301,0.623335 -0.099,0.924 -0.06601,0.300668 -0.231005,0.605001 -0.495,0.913 -0.09534,0.102667 -0.209005,0.209 -0.341,0.319 -0.132004,0.11 -0.282338,0.212666 -0.451,0.308 -0.168671,0.088 -0.359337,0.161333 -0.572,0.22 -0.21267,0.05867 -0.44367,0.088 -0.693,0.088 -0.256669,-10e-7 -0.495002,-0.033 -0.715,-0.099 -0.212669,-0.05867 -0.403335,-0.135667 -0.572,-0.231 -0.168668,-0.102667 -0.319001,-0.209 -0.451,-0.319 -0.124668,-0.117333 -0.231001,-0.231 -0.319,-0.341 -0.139334,-0.168666 -0.249334,-0.340999 -0.33,-0.517 -0.07333,-0.175999 -0.128334,-0.344665 -0.165,-0.506 -0.02933,-0.168665 -0.04767,-0.322665 -0.055,-0.462 -0.0073,-0.146665 -0.011,-0.274998 -0.011,-0.385 l 0,-2.838 c 0,-0.513328 0.088,-0.945994 0.264,-1.298 0.183333,-0.359327 0.406999,-0.645326 0.671,-0.858 0.271332,-0.212659 0.560998,-0.366659 0.869,-0.462 0.315331,-0.09533 0.601331,-0.142992 0.858,-0.143 0.300663,8e-6 0.604996,0.05867 0.913,0.176 0.315329,0.110008 0.597662,0.278674 0.847,0.506 0.249328,0.220007 0.450995,0.498673 0.605,0.836 0.161328,0.337339 0.241994,0.726006 0.242,1.166 l 0,3.003"
         style="text-align:justify;text-anchor:start;fill:#ffffff;fill-opacity:0.31451613;font-family:AvantGarde LT Medium;-inkscape-font-specification:AvantGarde LT Medium"
         id="path3822" />
      <path
         inkscape:connector-curvature="0"
         d="m 43.8555,58.370652 c -5e-6,-0.359328 -0.05867,-0.645328 -0.176,-0.858 -0.110004,-0.21266 -0.245671,-0.37766 -0.407,-0.495 -0.154004,-0.117327 -0.315337,-0.194327 -0.484,-0.231 -0.161337,-0.03666 -0.297003,-0.05499 -0.407,-0.055 -0.14667,7e-6 -0.308003,0.02567 -0.484,0.077 -0.168669,0.04401 -0.330002,0.12834 -0.484,0.253 -0.154002,0.124673 -0.282335,0.29334 -0.385,0.506 -0.102668,0.205339 -0.154002,0.473005 -0.154,0.803 l 0,3.003 c -2e-6,0.418002 0.06967,0.744335 0.209,0.979 0.139331,0.234668 0.296998,0.407001 0.473,0.517 0.175998,0.110001 0.344664,0.176 0.506,0.198 0.168664,0.022 0.278664,0.033 0.33,0.033 0.22733,0 0.432663,-0.04767 0.616,-0.143 0.183329,-0.09533 0.344663,-0.219999 0.484,-0.374 0.183329,-0.212666 0.289662,-0.414332 0.319,-0.605 0.02933,-0.190665 0.04399,-0.392331 0.044,-0.605 l 0,-3.003 m 1.144,3.003 c -6e-6,0.315335 -0.03301,0.623335 -0.099,0.924 -0.06601,0.300668 -0.231005,0.605001 -0.495,0.913 -0.09534,0.102667 -0.209005,0.209 -0.341,0.319 -0.132005,0.11 -0.282338,0.212666 -0.451,0.308 -0.168671,0.088 -0.359337,0.161333 -0.572,0.22 -0.21267,0.05867 -0.44367,0.088 -0.693,0.088 -0.256669,-10e-7 -0.495003,-0.033 -0.715,-0.099 -0.212669,-0.05867 -0.403335,-0.135667 -0.572,-0.231 -0.168668,-0.102667 -0.319001,-0.209 -0.451,-0.319 -0.124668,-0.117333 -0.231001,-0.231 -0.319,-0.341 -0.139334,-0.168666 -0.249334,-0.340999 -0.33,-0.517 -0.07333,-0.175999 -0.128334,-0.344665 -0.165,-0.506 -0.02933,-0.168665 -0.04767,-0.322665 -0.055,-0.462 -0.0073,-0.146665 -0.011,-0.274998 -0.011,-0.385 l 0,-2.838 c 0,-0.513328 0.088,-0.945994 0.264,-1.298 0.183332,-0.359327 0.406999,-0.645326 0.671,-0.858 0.271332,-0.212659 0.560998,-0.366659 0.869,-0.462 0.315331,-0.09533 0.601331,-0.142992 0.858,-0.143 0.300663,8e-6 0.604996,0.05867 0.913,0.176 0.315329,0.110008 0.597662,0.278674 0.847,0.506 0.249328,0.220007 0.450995,0.498673 0.605,0.836 0.161328,0.337339 0.241994,0.726006 0.242,1.166 l 0,3.003"
         style="text-align:justify;text-anchor:start;fill:#ffffff;fill-opacity:0.31451613;font-family:AvantGarde LT Medium;-inkscape-font-specification:AvantGarde LT Medium"
         id="path3824" />
      <path
         inkscape:connector-curvature="0"
         d="m 52.969047,63.991652 -1.144,0 0,-7.095 -1.199,0 0,-1.045 2.343,0 0,8.14"
         style="text-align:justify;text-anchor:start;fill:#ffffff;fill-opacity:0.31451613;font-family:AvantGarde LT Medium;-inkscape-font-specification:AvantGarde LT Medium"
         id="path3826" />
      <path
         inkscape:connector-curvature="0"
         d="m 62.654594,63.991652 -1.144,0 0,-7.095 -1.199,0 0,-1.045 2.343,0 0,8.14"
         style="text-align:justify;text-anchor:start;fill:#ffffff;fill-opacity:0.31451613;font-family:AvantGarde LT Medium;-inkscape-font-specification:AvantGarde LT Medium"
         id="path3828" />
      <path
         inkscape:connector-curvature="0"
         d="m 72.912141,58.370652 c -5e-6,-0.359328 -0.05867,-0.645328 -0.176,-0.858 -0.110005,-0.21266 -0.245671,-0.37766 -0.407,-0.495 -0.154004,-0.117327 -0.315337,-0.194327 -0.484,-0.231 -0.161337,-0.03666 -0.297004,-0.05499 -0.407,-0.055 -0.14667,7e-6 -0.308003,0.02567 -0.484,0.077 -0.168669,0.04401 -0.330003,0.12834 -0.484,0.253 -0.154002,0.124673 -0.282336,0.29334 -0.385,0.506 -0.102669,0.205339 -0.154002,0.473005 -0.154,0.803 l 0,3.003 c -2e-6,0.418002 0.06967,0.744335 0.209,0.979 0.139331,0.234668 0.296998,0.407001 0.473,0.517 0.175997,0.110001 0.344664,0.176 0.506,0.198 0.168663,0.022 0.278663,0.033 0.33,0.033 0.22733,0 0.432663,-0.04767 0.616,-0.143 0.183329,-0.09533 0.344662,-0.219999 0.484,-0.374 0.183329,-0.212666 0.289662,-0.414332 0.319,-0.605 0.02933,-0.190665 0.044,-0.392331 0.044,-0.605 l 0,-3.003 m 1.144,3.003 c -6e-6,0.315335 -0.03301,0.623335 -0.099,0.924 -0.06601,0.300668 -0.231006,0.605001 -0.495,0.913 -0.09534,0.102667 -0.209005,0.209 -0.341,0.319 -0.132005,0.11 -0.282338,0.212666 -0.451,0.308 -0.168671,0.088 -0.359338,0.161333 -0.572,0.22 -0.212671,0.05867 -0.44367,0.088 -0.693,0.088 -0.25667,-10e-7 -0.495003,-0.033 -0.715,-0.099 -0.212669,-0.05867 -0.403336,-0.135667 -0.572,-0.231 -0.168669,-0.102667 -0.319002,-0.209 -0.451,-0.319 -0.124668,-0.117333 -0.231001,-0.231 -0.319,-0.341 -0.139335,-0.168666 -0.249334,-0.340999 -0.33,-0.517 -0.07333,-0.175999 -0.128334,-0.344665 -0.165,-0.506 -0.02933,-0.168665 -0.04767,-0.322665 -0.055,-0.462 -0.0073,-0.146665 -0.011,-0.274998 -0.011,-0.385 l 0,-2.838 c -1e-6,-0.513328 0.088,-0.945994 0.264,-1.298 0.183332,-0.359327 0.406999,-0.645326 0.671,-0.858 0.271331,-0.212659 0.560998,-0.366659 0.869,-0.462 0.31533,-0.09533 0.60133,-0.142992 0.858,-0.143 0.300663,8e-6 0.604996,0.05867 0.913,0.176 0.315329,0.110008 0.597662,0.278674 0.847,0.506 0.249328,0.220007 0.450994,0.498673 0.605,0.836 0.161327,0.337339 0.241994,0.726006 0.242,1.166 l 0,3.003"
         style="text-align:justify;text-anchor:start;fill:#ffffff;fill-opacity:0.31451613;font-family:AvantGarde LT Medium;-inkscape-font-specification:AvantGarde LT Medium"
         id="path3830" />
      <path
         inkscape:connector-curvature="0"
         d="m 82.025688,63.991652 -1.144001,0 0,-7.095 -1.199,0 0,-1.045 2.343001,0 0,8.14"
         style="text-align:justify;text-anchor:start;fill:#ffffff;fill-opacity:0.31451613;font-family:AvantGarde LT Medium;-inkscape-font-specification:AvantGarde LT Medium"
         id="path3832" />
      <path
         inkscape:connector-curvature="0"
         d="m 16.668,72.120652 c -5e-6,-0.359328 -0.05867,-0.645328 -0.176,-0.858 -0.110004,-0.21266 -0.245671,-0.37766 -0.407,-0.495 -0.154004,-0.117327 -0.315337,-0.194327 -0.484,-0.231 -0.161337,-0.03666 -0.297003,-0.05499 -0.407,-0.055 -0.14667,7e-6 -0.308003,0.02567 -0.484,0.077 -0.168669,0.04401 -0.330002,0.12834 -0.484,0.253 -0.154002,0.124673 -0.282335,0.29334 -0.385,0.506 -0.102668,0.205339 -0.154002,0.473005 -0.154,0.803 l 0,3.003 c -2e-6,0.418002 0.06967,0.744335 0.209,0.979 0.139331,0.234668 0.296998,0.407001 0.473,0.517 0.175998,0.110001 0.344664,0.176 0.506,0.198 0.168664,0.022 0.278664,0.033 0.33,0.033 0.22733,0 0.432663,-0.04767 0.616,-0.143 0.183329,-0.09533 0.344663,-0.219999 0.484,-0.374 0.183329,-0.212666 0.289662,-0.414332 0.319,-0.605 0.02933,-0.190665 0.044,-0.392331 0.044,-0.605 l 0,-3.003 m 1.144,3.003 c -6e-6,0.315335 -0.03301,0.623335 -0.099,0.924 -0.06601,0.300668 -0.231005,0.605001 -0.495,0.913 -0.09534,0.102667 -0.209005,0.209 -0.341,0.319 -0.132005,0.11 -0.282338,0.212666 -0.451,0.308 -0.168671,0.088 -0.359337,0.161333 -0.572,0.22 -0.21267,0.05867 -0.44367,0.088 -0.693,0.088 -0.256669,-10e-7 -0.495003,-0.033 -0.715,-0.099 -0.212669,-0.05867 -0.403335,-0.135667 -0.572,-0.231 -0.168668,-0.102667 -0.319001,-0.209 -0.451,-0.319 -0.124668,-0.117333 -0.231001,-0.231 -0.319,-0.341 -0.139334,-0.168666 -0.249334,-0.340999 -0.33,-0.517 -0.07333,-0.175999 -0.128334,-0.344665 -0.165,-0.506 -0.02933,-0.168665 -0.04767,-0.322665 -0.055,-0.462 -0.0073,-0.146665 -0.011,-0.274998 -0.011,-0.385 l 0,-2.838 c 0,-0.513328 0.088,-0.945994 0.264,-1.298 0.183332,-0.359327 0.406999,-0.645326 0.671,-0.858 0.271332,-0.212659 0.560998,-0.366659 0.869,-0.462 0.315331,-0.09533 0.601331,-0.142992 0.858,-0.143 0.300663,8e-6 0.604996,0.05867 0.913,0.176 0.315329,0.110008 0.597662,0.278674 0.847,0.506 0.249328,0.220007 0.450995,0.498673 0.605,0.836 0.161328,0.337339 0.241994,0.726006 0.242,1.166 l 0,3.003"
         style="text-align:justify;text-anchor:start;fill:#ffffff;fill-opacity:0.31451613;font-family:AvantGarde LT Medium;-inkscape-font-specification:AvantGarde LT Medium"
         id="path3834" />
      <path
         inkscape:connector-curvature="0"
         d="m 25.820344,72.120652 c -5e-6,-0.359328 -0.05867,-0.645328 -0.176,-0.858 -0.110005,-0.21266 -0.245671,-0.37766 -0.407,-0.495 -0.154004,-0.117327 -0.315337,-0.194327 -0.484,-0.231 -0.161337,-0.03666 -0.297003,-0.05499 -0.407,-0.055 -0.14667,7e-6 -0.308003,0.02567 -0.484,0.077 -0.168669,0.04401 -0.330003,0.12834 -0.484,0.253 -0.154002,0.124673 -0.282335,0.29334 -0.385,0.506 -0.102669,0.205339 -0.154002,0.473005 -0.154,0.803 l 0,3.003 c -2e-6,0.418002 0.06967,0.744335 0.209,0.979 0.139331,0.234668 0.296998,0.407001 0.473,0.517 0.175997,0.110001 0.344664,0.176 0.506,0.198 0.168663,0.022 0.278663,0.033 0.33,0.033 0.22733,0 0.432663,-0.04767 0.616,-0.143 0.183329,-0.09533 0.344662,-0.219999 0.484,-0.374 0.183329,-0.212666 0.289662,-0.414332 0.319,-0.605 0.02933,-0.190665 0.04399,-0.392331 0.044,-0.605 l 0,-3.003 m 1.144,3.003 c -6e-6,0.315335 -0.03301,0.623335 -0.099,0.924 -0.06601,0.300668 -0.231006,0.605001 -0.495,0.913 -0.09534,0.102667 -0.209005,0.209 -0.341,0.319 -0.132005,0.11 -0.282338,0.212666 -0.451,0.308 -0.168671,0.088 -0.359338,0.161333 -0.572,0.22 -0.21267,0.05867 -0.44367,0.088 -0.693,0.088 -0.25667,-10e-7 -0.495003,-0.033 -0.715,-0.099 -0.212669,-0.05867 -0.403336,-0.135667 -0.572,-0.231 -0.168668,-0.102667 -0.319002,-0.209 -0.451,-0.319 -0.124668,-0.117333 -0.231001,-0.231 -0.319,-0.341 -0.139334,-0.168666 -0.249334,-0.340999 -0.33,-0.517 -0.07333,-0.175999 -0.128334,-0.344665 -0.165,-0.506 -0.02933,-0.168665 -0.04767,-0.322665 -0.055,-0.462 -0.0073,-0.146665 -0.011,-0.274998 -0.011,-0.385 l 0,-2.838 c -10e-7,-0.513328 0.088,-0.945994 0.264,-1.298 0.183332,-0.359327 0.406999,-0.645326 0.671,-0.858 0.271331,-0.212659 0.560998,-0.366659 0.869,-0.462 0.315331,-0.09533 0.60133,-0.142992 0.858,-0.143 0.300663,8e-6 0.604996,0.05867 0.913,0.176 0.315329,0.110008 0.597662,0.278674 0.847,0.506 0.249328,0.220007 0.450994,0.498673 0.605,0.836 0.161327,0.337339 0.241994,0.726006 0.242,1.166 l 0,3.003"
         style="text-align:justify;text-anchor:start;fill:#ffffff;fill-opacity:0.31451613;font-family:AvantGarde LT Medium;-inkscape-font-specification:AvantGarde LT Medium"
         id="path3836" />
      <path
         inkscape:connector-curvature="0"
         d="m 34.400688,77.741652 -1.144001,0 0,-7.095 -1.199,0 0,-1.045 2.343001,0 0,8.14"
         style="text-align:justify;text-anchor:start;fill:#ffffff;fill-opacity:0.31451613;font-family:AvantGarde LT Medium;-inkscape-font-specification:AvantGarde LT Medium"
         id="path3838" />
      <path
         inkscape:connector-curvature="0"
         d="m 44.125031,72.120652 c -4e-6,-0.359328 -0.05867,-0.645328 -0.176,-0.858 -0.110004,-0.21266 -0.245671,-0.37766 -0.407,-0.495 -0.154004,-0.117327 -0.315337,-0.194327 -0.484,-0.231 -0.161336,-0.03666 -0.297003,-0.05499 -0.407,-0.055 -0.146669,7e-6 -0.308003,0.02567 -0.484,0.077 -0.168669,0.04401 -0.330002,0.12834 -0.484,0.253 -0.154002,0.124673 -0.282335,0.29334 -0.385,0.506 -0.102668,0.205339 -0.154001,0.473005 -0.154,0.803 l 0,3.003 c -10e-7,0.418002 0.06967,0.744335 0.209,0.979 0.139332,0.234668 0.296998,0.407001 0.473,0.517 0.175998,0.110001 0.344664,0.176 0.506,0.198 0.168664,0.022 0.278664,0.033 0.33,0.033 0.22733,0 0.432663,-0.04767 0.616,-0.143 0.18333,-0.09533 0.344663,-0.219999 0.484,-0.374 0.183329,-0.212666 0.289662,-0.414332 0.319,-0.605 0.02933,-0.190665 0.044,-0.392331 0.044,-0.605 l 0,-3.003 m 1.144,3.003 c -5e-6,0.315335 -0.033,0.623335 -0.099,0.924 -0.06601,0.300668 -0.231005,0.605001 -0.495,0.913 -0.09534,0.102667 -0.209005,0.209 -0.341,0.319 -0.132004,0.11 -0.282338,0.212666 -0.451,0.308 -0.168671,0.088 -0.359337,0.161333 -0.572,0.22 -0.21267,0.05867 -0.44367,0.088 -0.693,0.088 -0.256669,-10e-7 -0.495002,-0.033 -0.715,-0.099 -0.212669,-0.05867 -0.403335,-0.135667 -0.572,-0.231 -0.168668,-0.102667 -0.319001,-0.209 -0.451,-0.319 -0.124668,-0.117333 -0.231001,-0.231 -0.319,-0.341 -0.139334,-0.168666 -0.249334,-0.340999 -0.33,-0.517 -0.07333,-0.175999 -0.128334,-0.344665 -0.165,-0.506 -0.02933,-0.168665 -0.04767,-0.322665 -0.055,-0.462 -0.0073,-0.146665 -0.011,-0.274998 -0.011,-0.385 l 0,-2.838 c 0,-0.513328 0.088,-0.945994 0.264,-1.298 0.183333,-0.359327 0.406999,-0.645326 0.671,-0.858 0.271332,-0.212659 0.560998,-0.366659 0.869,-0.462 0.315331,-0.09533 0.601331,-0.142992 0.858,-0.143 0.300664,8e-6 0.604997,0.05867 0.913,0.176 0.315329,0.110008 0.597662,0.278674 0.847,0.506 0.249328,0.220007 0.450995,0.498673 0.605,0.836 0.161328,0.337339 0.241995,0.726006 0.242,1.166 l 0,3.003"
         style="text-align:justify;text-anchor:start;fill:#ffffff;fill-opacity:0.31451613;font-family:AvantGarde LT Medium;-inkscape-font-specification:AvantGarde LT Medium"
         id="path3840" />
      <path
         inkscape:connector-curvature="0"
         d="m 52.705375,77.741652 -1.144,0 0,-7.095 -1.199,0 0,-1.045 2.343,0 0,8.14"
         style="text-align:justify;text-anchor:start;fill:#ffffff;fill-opacity:0.31451613;font-family:AvantGarde LT Medium;-inkscape-font-specification:AvantGarde LT Medium"
         id="path3842" />
      <path
         inkscape:connector-curvature="0"
         d="m 62.429719,72.120652 c -5e-6,-0.359328 -0.05867,-0.645328 -0.176,-0.858 -0.110005,-0.21266 -0.245671,-0.37766 -0.407,-0.495 -0.154004,-0.117327 -0.315337,-0.194327 -0.484,-0.231 -0.161337,-0.03666 -0.297003,-0.05499 -0.407,-0.055 -0.14667,7e-6 -0.308003,0.02567 -0.484,0.077 -0.168669,0.04401 -0.330003,0.12834 -0.484,0.253 -0.154002,0.124673 -0.282335,0.29334 -0.385,0.506 -0.102669,0.205339 -0.154002,0.473005 -0.154,0.803 l 0,3.003 c -2e-6,0.418002 0.06967,0.744335 0.209,0.979 0.139331,0.234668 0.296998,0.407001 0.473,0.517 0.175997,0.110001 0.344664,0.176 0.506,0.198 0.168663,0.022 0.278663,0.033 0.33,0.033 0.22733,0 0.432663,-0.04767 0.616,-0.143 0.183329,-0.09533 0.344662,-0.219999 0.484,-0.374 0.183329,-0.212666 0.289662,-0.414332 0.319,-0.605 0.02933,-0.190665 0.04399,-0.392331 0.044,-0.605 l 0,-3.003 m 1.144,3.003 c -6e-6,0.315335 -0.03301,0.623335 -0.099,0.924 -0.06601,0.300668 -0.231006,0.605001 -0.495,0.913 -0.09534,0.102667 -0.209005,0.209 -0.341,0.319 -0.132005,0.11 -0.282338,0.212666 -0.451,0.308 -0.168671,0.088 -0.359338,0.161333 -0.572,0.22 -0.21267,0.05867 -0.44367,0.088 -0.693,0.088 -0.25667,-10e-7 -0.495003,-0.033 -0.715,-0.099 -0.212669,-0.05867 -0.403336,-0.135667 -0.572,-0.231 -0.168668,-0.102667 -0.319002,-0.209 -0.451,-0.319 -0.124668,-0.117333 -0.231001,-0.231 -0.319,-0.341 -0.139334,-0.168666 -0.249334,-0.340999 -0.33,-0.517 -0.07333,-0.175999 -0.128334,-0.344665 -0.165,-0.506 -0.02933,-0.168665 -0.04767,-0.322665 -0.055,-0.462 -0.0073,-0.146665 -0.011,-0.274998 -0.011,-0.385 l 0,-2.838 c -10e-7,-0.513328 0.088,-0.945994 0.264,-1.298 0.183332,-0.359327 0.406999,-0.645326 0.671,-0.858 0.271331,-0.212659 0.560998,-0.366659 0.869,-0.462 0.315331,-0.09533 0.60133,-0.142992 0.858,-0.143 0.300663,8e-6 0.604996,0.05867 0.913,0.176 0.315329,0.110008 0.597662,0.278674 0.847,0.506 0.249328,0.220007 0.450994,0.498673 0.605,0.836 0.161327,0.337339 0.241994,0.726006 0.242,1.166 l 0,3.003"
         style="text-align:justify;text-anchor:start;fill:#ffffff;fill-opacity:0.31451613;font-family:AvantGarde LT Medium;-inkscape-font-specification:AvantGarde LT Medium"
         id="path3844" />
      <path
         inkscape:connector-curvature="0"
         d="m 71.582063,72.120652 c -5e-6,-0.359328 -0.05867,-0.645328 -0.176,-0.858 -0.110005,-0.21266 -0.245671,-0.37766 -0.407001,-0.495 -0.154003,-0.117327 -0.315336,-0.194327 -0.484,-0.231 -0.161336,-0.03666 -0.297003,-0.05499 -0.406999,-0.055 -0.14667,7e-6 -0.308003,0.02567 -0.484001,0.077 -0.168669,0.04401 -0.330002,0.12834 -0.484,0.253 -0.154001,0.124673 -0.282335,0.29334 -0.385,0.506 -0.102668,0.205339 -0.154001,0.473005 -0.154,0.803 l 0,3.003 c -10e-7,0.418002 0.06967,0.744335 0.209,0.979 0.139332,0.234668 0.296998,0.407001 0.473,0.517 0.175998,0.110001 0.344665,0.176 0.506,0.198 0.168664,0.022 0.278664,0.033 0.33,0.033 0.227331,0 0.432664,-0.04767 0.616,-0.143 0.18333,-0.09533 0.344663,-0.219999 0.484001,-0.374 0.183328,-0.212666 0.289662,-0.414332 0.318999,-0.605 0.02933,-0.190665 0.044,-0.392331 0.044,-0.605 l 0,-3.003 m 1.143999,3.003 c -5e-6,0.315335 -0.03301,0.623335 -0.099,0.924 -0.066,0.300668 -0.231005,0.605001 -0.494999,0.913 -0.09534,0.102667 -0.209005,0.209 -0.341001,0.319 -0.132004,0.11 -0.282337,0.212666 -0.450999,0.308 -0.168671,0.088 -0.359338,0.161333 -0.572001,0.22 -0.21267,0.05867 -0.443669,0.088 -0.692999,0.088 -0.25667,-10e-7 -0.495003,-0.033 -0.715001,-0.099 -0.212668,-0.05867 -0.403335,-0.135667 -0.572,-0.231 -0.168668,-0.102667 -0.319001,-0.209 -0.450999,-0.319 -0.124668,-0.117333 -0.231002,-0.231 -0.319001,-0.341 -0.139334,-0.168666 -0.249334,-0.340999 -0.33,-0.517 -0.07333,-0.175999 -0.128333,-0.344665 -0.165,-0.506 -0.02933,-0.168665 -0.04767,-0.322665 -0.055,-0.462 -0.0073,-0.146665 -0.011,-0.274998 -0.011,-0.385 l 0,-2.838 c -10e-7,-0.513328 0.088,-0.945994 0.264,-1.298 0.183332,-0.359327 0.406998,-0.645326 0.670999,-0.858 0.271332,-0.212659 0.560999,-0.366659 0.869,-0.462 0.315331,-0.09533 0.601331,-0.142992 0.858,-0.143 0.300664,8e-6 0.604997,0.05867 0.913,0.176 0.31533,0.110008 0.597663,0.278674 0.847001,0.506 0.249328,0.220007 0.450994,0.498673 0.604999,0.836 0.161328,0.337339 0.241995,0.726006 0.242,1.166 l 0,3.003"
         style="text-align:justify;text-anchor:start;fill:#ffffff;fill-opacity:0.31451613;font-family:AvantGarde LT Medium;-inkscape-font-specification:AvantGarde LT Medium"
         id="path3846" />
      <path
         inkscape:connector-curvature="0"
         d="m 80.734406,72.120652 c -4e-6,-0.359328 -0.05867,-0.645328 -0.176,-0.858 -0.110004,-0.21266 -0.245671,-0.37766 -0.407,-0.495 -0.154004,-0.117327 -0.315337,-0.194327 -0.484,-0.231 -0.161336,-0.03666 -0.297003,-0.05499 -0.407,-0.055 -0.146669,7e-6 -0.308003,0.02567 -0.484,0.077 -0.168669,0.04401 -0.330002,0.12834 -0.484,0.253 -0.154002,0.124673 -0.282335,0.29334 -0.385,0.506 -0.102668,0.205339 -0.154001,0.473005 -0.154,0.803 l 0,3.003 c -10e-7,0.418002 0.06967,0.744335 0.209,0.979 0.139332,0.234668 0.296998,0.407001 0.473,0.517 0.175998,0.110001 0.344664,0.176 0.506,0.198 0.168664,0.022 0.278664,0.033 0.33,0.033 0.22733,0 0.432663,-0.04767 0.616,-0.143 0.18333,-0.09533 0.344663,-0.219999 0.484,-0.374 0.183329,-0.212666 0.289662,-0.414332 0.319,-0.605 0.02933,-0.190665 0.044,-0.392331 0.044,-0.605 l 0,-3.003 m 1.144,3.003 c -5e-6,0.315335 -0.03301,0.623335 -0.099,0.924 -0.066,0.300668 -0.231005,0.605001 -0.495,0.913 -0.09534,0.102667 -0.209005,0.209 -0.341,0.319 -0.132004,0.11 -0.282338,0.212666 -0.451,0.308 -0.168671,0.088 -0.359337,0.161333 -0.572,0.22 -0.21267,0.05867 -0.44367,0.088 -0.693,0.088 -0.256669,-10e-7 -0.495002,-0.033 -0.715,-0.099 -0.212669,-0.05867 -0.403335,-0.135667 -0.572,-0.231 -0.168668,-0.102667 -0.319001,-0.209 -0.451,-0.319 -0.124668,-0.117333 -0.231001,-0.231 -0.319,-0.341 -0.139334,-0.168666 -0.249334,-0.340999 -0.33,-0.517 -0.07333,-0.175999 -0.128334,-0.344665 -0.165,-0.506 -0.02933,-0.168665 -0.04767,-0.322665 -0.055,-0.462 -0.0073,-0.146665 -0.011,-0.274998 -0.011,-0.385 l 0,-2.838 c 0,-0.513328 0.088,-0.945994 0.264,-1.298 0.183333,-0.359327 0.406999,-0.645326 0.671,-0.858 0.271332,-0.212659 0.560998,-0.366659 0.869,-0.462 0.315331,-0.09533 0.601331,-0.142992 0.858,-0.143 0.300664,8e-6 0.604997,0.05867 0.913,0.176 0.315329,0.110008 0.597662,0.278674 0.847,0.506 0.249328,0.220007 0.450995,0.498673 0.605,0.836 0.161328,0.337339 0.241995,0.726006 0.242,1.166 l 0,3.003"
         style="text-align:justify;text-anchor:start;fill:#ffffff;fill-opacity:0.31451613;font-family:AvantGarde LT Medium;-inkscape-font-specification:AvantGarde LT Medium"
         id="path3848" />
    </g>
    <path
       style="font-size:11px;font-style:normal;font-variant:normal;font-weight:normal;font-stretch:normal;text-align:justify;line-height:125%;letter-spacing:0px;word-spacing:0px;text-anchor:start;fill:#ffff00;fill-opacity:1;stroke:none;font-family:AvantGarde LT Medium;-inkscape-font-specification:AvantGarde LT Medium"
       d="m 58.6875,993.29968 c -0.572004,1e-5 -1.119003,0.13109 -1.625,0.34375 -0.506002,0.21268 -0.931169,0.49368 -1.3125,0.875 -0.381334,0.37401 -0.710168,0.83047 -0.9375,1.34377 -0.22,0.506 -0.3125,1.031 -0.3125,1.625 0,0.5794 0.0925,1.1429 0.3125,1.6562 0.219999,0.5134 0.532249,0.9552 0.90625,1.3438 0.381331,0.3887 0.837748,0.7102 1.34375,0.9375 0.505997,0.2274 1.045663,0.3437 1.625,0.3437 0.315329,0 0.631412,-0.044 0.96875,-0.125 0.344661,-0.073 0.677327,-0.2063 1,-0.375 0.329993,-0.1686 0.64416,-0.3775 0.9375,-0.6562 0.293326,-0.2786 0.553909,-0.6353 0.78125,-1.0313 l -1.46875,0 c -0.278673,0.33 -0.611339,0.6145 -1,0.8125 -0.381339,0.191 -0.786088,0.2813 -1.21875,0.2813 -0.396004,0 -0.789587,-0.089 -1.15625,-0.25 -0.359336,-0.1686 -0.658836,-0.4015 -0.9375,-0.6875 -0.271335,-0.286 -0.487585,-0.6186 -0.65625,-1 -0.16134,-0.3813 -0.250001,-0.7788 -0.25,-1.2188 -10e-7,-0.4253 0.06475,-0.8373 0.21875,-1.2187 0.161331,-0.3813 0.384915,-0.7213 0.65625,-1 0.271331,-0.2786 0.60208,-0.49493 0.96875,-0.65627 0.366663,-0.1687 0.762163,-0.24999 1.1875,-0.25 0.329995,1e-5 0.618328,0.061 0.875,0.15625 0.256661,0.088 0.472911,0.18051 0.65625,0.3125 0.19066,0.12467 0.344077,0.27422 0.46875,0.40622 0.12466,0.1247 0.22258,0.2153 0.28125,0.2813 l 1.4375,0 c -0.102675,-0.1833 -0.254175,-0.3996 -0.4375,-0.65627 -0.183341,-0.25666 -0.445841,-0.51724 -0.8125,-0.78125 -0.220007,-0.16132 -0.460173,-0.30357 -0.6875,-0.40625 -0.227339,-0.10266 -0.436256,-0.1913 -0.65625,-0.25 -0.220005,-0.0587 -0.427005,-0.103 -0.625,-0.125 -0.190671,-0.022 -0.377255,-0.0312 -0.53125,-0.0312 z m -46.5,0.15625 0,1.09375 1.5625,0 0,7.06252 1.1875,0 0,-7.06252 1.5625,0 0,-1.09375 -4.3125,0 z m 9.65625,0 0,8.15627 1.1875,0 0,-3.7813 0.03125,0 2.6875,3.7813 1.46875,0 -2.25,-3.0313 c 0.131996,0 0.305829,-0.035 0.5625,-0.094 0.263995,-0.059 0.524578,-0.199 0.78125,-0.375 0.256661,-0.176 0.496827,-0.3961 0.6875,-0.7188 0.19799,-0.33 0.281244,-0.7698 0.28125,-1.3125 -6e-6,-0.3446 -0.06284,-0.6865 -0.1875,-1.0312 -0.117339,-0.34465 -0.305839,-0.65693 -0.5625,-0.90627 -0.212672,-0.20532 -0.482505,-0.37532 -0.8125,-0.5 -0.330005,-0.1247 -0.771754,-0.18749 -1.34375,-0.1875 l -2.53125,0 z m 11.15625,0 0,5.53127 c 0,0.462 0.07208,0.8429 0.21875,1.1875 0.146665,0.3374 0.368332,0.6257 0.625,0.875 0.256665,0.2127 0.528415,0.4066 0.84375,0.5312 0.322664,0.125 0.688497,0.1875 1.0625,0.1875 0.373997,0 0.715913,-0.063 1.03125,-0.1875 0.322662,-0.1246 0.618329,-0.3185 0.875,-0.5312 0.256661,-0.2493 0.447077,-0.5376 0.59375,-0.875 0.146659,-0.3446 0.218744,-0.7255 0.21875,-1.1875 l 0,-5.53127 -1.1875,0 0,5.49997 c -5e-6,0.374 -0.06284,0.6477 -0.1875,0.875 -0.117338,0.2274 -0.268837,0.4067 -0.4375,0.5313 -0.161337,0.1174 -0.324004,0.206 -0.5,0.25 -0.16867,0.037 -0.296253,0.062 -0.40625,0.062 -0.110003,0 -0.261504,-0.026 -0.4375,-0.062 -0.176003,-0.044 -0.362586,-0.1326 -0.53125,-0.25 -0.161335,-0.1246 -0.288919,-0.3039 -0.40625,-0.5313 -0.117341,-0.2273 -0.187501,-0.501 -0.1875,-0.875 l 0,-5.49997 -1.1875,0 z m 11.53125,0 0,8.15627 4.40625,0 0,-1.0938 -3.21875,0 0,-2.4687 3.21875,0 0,-1.0938 -3.21875,0 0,-2.40622 3.21875,0 0,-1.09375 -4.40625,0 z m 23.40625,0 0,8.15627 1.1875,0 0,-3.7813 0.03125,0 2.65625,3.7813 1.5,0 -2.28125,-3.0313 c 0.131996,0 0.337079,-0.035 0.59375,-0.094 0.263995,-0.059 0.524578,-0.199 0.78125,-0.375 0.256661,-0.176 0.465578,-0.3961 0.65625,-0.7188 0.19799,-0.33 0.312494,-0.7698 0.3125,-1.3125 -6e-6,-0.3446 -0.06284,-0.6865 -0.1875,-1.0312 -0.117339,-0.34465 -0.305839,-0.65693 -0.5625,-0.90627 -0.212672,-0.20532 -0.482505,-0.37532 -0.8125,-0.5 -0.330004,-0.1247 -0.803004,-0.18749 -1.375,-0.1875 l -2.5,0 z m 9.84375,0 2.53125,5.21877 0,2.9375 1.1875,0 0,-2.9375 2.5,-5.21877 -1.3125,0 -1.78125,3.81247 -1.8125,-3.81247 -1.3125,0 z m -54.75,1.09375 1.25,0 c 0.33733,1e-5 0.647663,0.061 0.875,0.15625 0.227329,0.0953 0.391912,0.19712 0.53125,0.34377 0.146662,0.1467 0.25383,0.3167 0.3125,0.5 0.06599,0.176 0.09374,0.3626 0.09375,0.5312 -5e-6,0.264 -0.03701,0.473 -0.125,0.6563 -0.08801,0.176 -0.204422,0.3202 -0.34375,0.4375 -0.139338,0.1174 -0.292754,0.2152 -0.46875,0.2812 -0.168671,0.066 -0.331337,0.1273 -0.5,0.1563 -0.161337,0.029 -0.322087,0.021 -0.46875,0.031 -0.139336,0.011 -0.26309,0.031 -0.34375,0.031 l -0.8125,0 0,-3.12502 z m 46.09375,0 1.25,0 c 0.33733,1e-5 0.616413,0.061 0.84375,0.15625 0.227329,0.0953 0.423162,0.19712 0.5625,0.34377 0.146662,0.1467 0.25383,0.3167 0.3125,0.5 0.06599,0.176 0.09375,0.3626 0.09375,0.5312 -5e-6,0.264 -0.06825,0.473 -0.15625,0.6563 -0.08801,0.176 -0.173171,0.3202 -0.3125,0.4375 -0.139338,0.1174 -0.324004,0.2152 -0.5,0.2812 -0.168671,0.066 -0.331337,0.1273 -0.5,0.1563 -0.161337,0.029 -0.322087,0.021 -0.46875,0.031 -0.139336,0.011 -0.23184,0.031 -0.3125,0.031 l -0.8125,0 0,-3.12502 z m -56.28125,12.65622 0,8.1563 1.1875,0 0,-3.2188 1.15625,0 c 0.483996,0 0.921913,-0.07 1.28125,-0.1875 0.366662,-0.1246 0.671578,-0.2873 0.90625,-0.5 0.234661,-0.22 0.382661,-0.4805 0.5,-0.7812 0.11733,-0.3007 0.187494,-0.6333 0.1875,-1 -6e-6,-0.3593 -0.07017,-0.6993 -0.1875,-1 -0.117339,-0.308 -0.265339,-0.5686 -0.5,-0.7813 -0.234672,-0.22 -0.539588,-0.3826 -0.90625,-0.5 -0.359337,-0.125 -0.797254,-0.1875 -1.28125,-0.1875 l -2.34375,0 z m 8.8125,0 0,1.0938 1.5625,0 0,7.0625 1.1875,0 0,-7.0625 1.5625,0 0,-1.0938 -4.3125,0 z m -7.625,1.0938 1.15625,0 c 0.33733,0 0.63108,0.037 0.84375,0.125 0.219996,0.088 0.375329,0.2117 0.5,0.3437 0.131995,0.132 0.23724,0.2762 0.28125,0.4375 0.05133,0.1614 0.06249,0.3148 0.0625,0.4688 0,0.154 -0.01117,0.3074 -0.0625,0.4687 -0.044,0.1614 -0.149255,0.3055 -0.28125,0.4375 -0.124671,0.1319 -0.280004,0.2558 -0.5,0.3438 -0.21267,0.088 -0.50642,0.125 -0.84375,0.125 l -1.15625,0 0,-2.75 z"
       id="path3884"
       inkscape:connector-curvature="0" />
  </g>
</svg>
