<?xml version="1.0" encoding="UTF-8" standalone="no"?>
<!-- Created with Inkscape (http://www.inkscape.org/) -->

<svg
   xmlns:dc="http://purl.org/dc/elements/1.1/"
   xmlns:cc="http://creativecommons.org/ns#"
   xmlns:rdf="http://www.w3.org/1999/02/22-rdf-syntax-ns#"
   xmlns:svg="http://www.w3.org/2000/svg"
   xmlns="http://www.w3.org/2000/svg"
   xmlns:xlink="http://www.w3.org/1999/xlink"
   xmlns:sodipodi="http://sodipodi.sourceforge.net/DTD/sodipodi-0.dtd"
   xmlns:inkscape="http://www.inkscape.org/namespaces/inkscape"
   width="96"
   height="96"
   id="svg2"
   version="1.1"
   inkscape:version="0.48.4 r9939"
   sodipodi:docname="chrome-https___www.tumblr.com_.svg">
  <defs
     id="defs4">
    <linearGradient
       id="linearGradient3786">
      <stop
         style="stop-color:#006fa3;stop-opacity:1;"
         offset="0"
         id="stop3788" />
      <stop
         style="stop-color:#28b6e8;stop-opacity:1;"
         offset="1"
         id="stop3790" />
    </linearGradient>
    <linearGradient
       inkscape:collect="always"
       xlink:href="#linearGradient3786"
       id="linearGradient3792"
       x1="30"
       y1="1047.3622"
       x2="30"
       y2="957.36218"
       gradientUnits="userSpaceOnUse" />
  </defs>
  <sodipodi:namedview
     id="base"
     pagecolor="#ffffff"
     bordercolor="#666666"
     borderopacity="1.0"
     inkscape:pageopacity="0.0"
     inkscape:pageshadow="2"
     inkscape:zoom="5.7738685"
     inkscape:cx="11.904812"
     inkscape:cy="47.407407"
     inkscape:document-units="px"
     inkscape:current-layer="layer1"
     showgrid="true"
     inkscape:snap-page="true"
     inkscape:snap-global="true"
     inkscape:snap-center="true"
     inkscape:snap-object-midpoints="false"
     showguides="true"
     inkscape:guide-bbox="true"
     inkscape:snap-bbox="true"
     inkscape:object-paths="true"
     inkscape:object-nodes="true"
     inkscape:window-width="1305"
     inkscape:window-height="744"
     inkscape:window-x="61"
     inkscape:window-y="24"
     inkscape:window-maximized="1"
     inkscape:snap-midpoints="true"
     inkscape:snap-grids="true"
     inkscape:snap-to-guides="false">
    <inkscape:grid
       type="xygrid"
       id="grid3002"
       empspacing="5"
       visible="true"
       enabled="true"
       snapvisiblegridlinesonly="true" />
  </sodipodi:namedview>
  <metadata
     id="metadata7">
    <rdf:RDF>
      <cc:Work
         rdf:about="">
        <dc:format>image/svg+xml</dc:format>
        <dc:type
           rdf:resource="http://purl.org/dc/dcmitype/StillImage" />
        <dc:title />
      </cc:Work>
    </rdf:RDF>
  </metadata>
  <g
     inkscape:label="Layer 1"
     inkscape:groupmode="layer"
     id="layer1"
     transform="translate(0,-956.36218)">
    <rect
       style="fill:#ffffff;fill-opacity:0;fill-rule:nonzero;stroke:none"
       id="rect3775"
       width="96"
       height="96"
       x="0"
       y="956.36218"
       ry="0" />
    <path
       style="fill:#000000;fill-opacity:0.09589041;fill-rule:nonzero;stroke:none"
       d="m 3.353015,956.30662 c -1.884176,0 -3.4111555,1.43156 -3.4111555,3.19799 l 0,83.65949 c 0,1.7665 1.5269795,3.1981 3.4111555,3.1981 l 89.23583,0 c 1.884174,0 3.411155,-1.4316 3.411155,-3.1981 l 0,-83.65949 c 0,-1.76643 -1.526981,-3.19799 -3.411155,-3.19799 z"
       id="rect3772"
       inkscape:connector-curvature="0"
       sodipodi:nodetypes="sssssssss" />
    <path
       style="fill:#000000;fill-opacity:0.18721463;fill-rule:nonzero;stroke:none"
       d="m 1.0459761,1041.8066 0,7.4219 c 0,1.7392 1.461916,3.1337 3.2852054,3.1337 l 86.3836135,0 c 1.823288,0 3.285205,-1.3945 3.285205,-3.1337 l 0,-7.4219 -92.9540239,0 z"
       id="rect3785"
       inkscape:connector-curvature="0" />
    <path
       style="fill:#000000;fill-opacity:0.38356168;fill-rule:nonzero;stroke:none"
       d="m 1.0459761,1041.8066 0,5.3807 c 0,1.762 1.461916,3.1749 3.2852054,3.1749 l 86.3836135,0 c 1.823288,0 3.285205,-1.4129 3.285205,-3.1749 l 0,-5.3807 -92.9540239,0 z"
       id="rect3783"
       inkscape:connector-curvature="0" />
    <rect
       style="fill:url(#linearGradient3792);fill-opacity:1;fill-rule:nonzero;stroke:none"
       id="rect2985"
       width="92.954025"
       height="89"
       x="1.045977"
       y="957.36218"
       ry="3.1511393" />
    <path
       style="fill:#000000;fill-opacity:0.38356168;fill-rule:nonzero;stroke:none"
       d="m 1,1042.3622 0.045976,2.7457 c 0.03024,1.8058 1.461916,3.2543 3.2852054,3.2543 l 86.3836136,0 c 1.823288,0 3.285205,-1.4481 3.285205,-3.2543 l -0.04598,-2.7457 z"
       id="rect3781"
       inkscape:connector-curvature="0"
       sodipodi:nodetypes="csssscc" />
    <rect
       style="fill:#ffffff;fill-opacity:0.30000001;fill-rule:nonzero;stroke:none"
       id="rect3770"
       width="92.954033"
       height="2.000005"
       x="1.045976"
       y="1040.3622" />
    <g
       transform="matrix(0.73723212,0,0,0.75773618,13.828624,232.86884)"
       id="g3018"
       style="font-size:104.58291626px;font-style:normal;font-variant:normal;font-weight:bold;font-stretch:normal;text-align:end;line-height:125%;letter-spacing:0px;word-spacing:0px;writing-mode:lr-tb;text-anchor:end;fill:#000000;fill-opacity:0.18264842;stroke:none;font-family:Droid Serif;-inkscape-font-specification:Droid Serif Bold">
      <path
         inkscape:connector-curvature="0"
         id="path3020"
         d="m 57.968393,1031.5637 c 1.361723,0 2.655391,-0.085 3.881007,-0.2553 1.259587,-0.2043 2.434101,-0.4426 3.523546,-0.7149 l 0,6.7917 c -0.544743,0.2724 -1.293708,0.5617 -2.246899,0.8681 -0.919223,0.3064 -2.008627,0.5788 -3.268216,0.8171 -1.225615,0.2723 -2.621414,0.4936 -4.187402,0.6638 -1.566049,0.1703 -3.268243,0.2554 -5.106588,0.2554 -2.349053,0 -4.476796,-0.2894 -6.383234,-0.8681 -1.906477,-0.5447 -3.523561,-1.4639 -4.851259,-2.7576 -1.327725,-1.3277 -2.349042,-3.0299 -3.063952,-5.1066 -0.714933,-2.1107 -1.072394,-4.698 -1.072384,-7.762 l 0,-33.44815 -7.864145,0 0,-5.36192 c 2.246894,6e-5 4.255484,-0.44251 6.025774,-1.32771 1.770273,-0.88508 3.183095,-1.9064 4.238468,-3.06395 2.144752,-2.24684 3.744814,-5.70229 4.800192,-10.36637 l 8.681199,0 0,12.97073 13.37926,0 0,7.14922 -13.37926,0 0,32.37575 c -2.6e-5,3.1661 0.527654,5.4811 1.583042,6.945 1.089377,1.4639 2.859659,2.1958 5.310851,2.1958"
         style="fill:#000000;fill-opacity:0.18264842" />
    </g>
    <g
       style="font-size:104.58291626px;font-style:normal;font-variant:normal;font-weight:bold;font-stretch:normal;text-align:end;line-height:125%;letter-spacing:0px;word-spacing:0px;writing-mode:lr-tb;text-anchor:end;fill:#000000;fill-opacity:0.18264842;stroke:none;font-family:Droid Serif;-inkscape-font-specification:Droid Serif Bold"
       id="g3790"
       transform="matrix(0.73723212,0,0,0.75773618,13.828624,234.83555)">
      <path
         style="fill:#000000;fill-opacity:0.18264842"
         d="m 57.968393,1031.5637 c 1.361723,0 2.655391,-0.085 3.881007,-0.2553 1.259587,-0.2043 2.434101,-0.4426 3.523546,-0.7149 l 0,6.7917 c -0.544743,0.2724 -1.293708,0.5617 -2.246899,0.8681 -0.919223,0.3064 -2.008627,0.5788 -3.268216,0.8171 -1.225615,0.2723 -2.621414,0.4936 -4.187402,0.6638 -1.566049,0.1703 -3.268243,0.2554 -5.106588,0.2554 -2.349053,0 -4.476796,-0.2894 -6.383234,-0.8681 -1.906477,-0.5447 -3.523561,-1.4639 -4.851259,-2.7576 -1.327725,-1.3277 -2.349042,-3.0299 -3.063952,-5.1066 -0.714933,-2.1107 -1.072394,-4.698 -1.072384,-7.762 l 0,-33.44815 -7.864145,0 0,-5.36192 c 2.246894,6e-5 4.255484,-0.44251 6.025774,-1.32771 1.770273,-0.88508 3.183095,-1.9064 4.238468,-3.06395 2.144752,-2.24684 3.744814,-5.70229 4.800192,-10.36637 l 8.681199,0 0,12.97073 13.37926,0 0,7.14922 -13.37926,0 0,32.37575 c -2.6e-5,3.1661 0.527654,5.4811 1.583042,6.945 1.089377,1.4639 2.859659,2.1958 5.310851,2.1958"
         id="path3792"
         inkscape:connector-curvature="0" />
    </g>
    <g
       style="font-size:104.58291626px;font-style:normal;font-variant:normal;font-weight:bold;font-stretch:normal;text-align:end;line-height:125%;letter-spacing:0px;word-spacing:0px;writing-mode:lr-tb;text-anchor:end;fill:#ffffff;fill-opacity:1;stroke:none;font-family:Droid Serif;-inkscape-font-specification:Droid Serif Bold"
       id="text3011"
       transform="matrix(0.73723212,0,0,0.75773618,13.828624,230.90213)">
      <path
         d="m 57.968393,1031.5637 c 1.361723,0 2.655391,-0.085 3.881007,-0.2553 1.259587,-0.2043 2.434101,-0.4426 3.523546,-0.7149 l 0,6.7917 c -0.544743,0.2724 -1.293708,0.5617 -2.246899,0.8681 -0.919223,0.3064 -2.008627,0.5788 -3.268216,0.8171 -1.225615,0.2723 -2.621414,0.4936 -4.187402,0.6638 -1.566049,0.1703 -3.268243,0.2554 -5.106588,0.2554 -2.349053,0 -4.476796,-0.2894 -6.383234,-0.8681 -1.906477,-0.5447 -3.523561,-1.4639 -4.851259,-2.7576 -1.327725,-1.3277 -2.349042,-3.0299 -3.063952,-5.1066 -0.714933,-2.1107 -1.072394,-4.698 -1.072384,-7.762 l 0,-33.44815 -7.864145,0 0,-5.36192 c 2.246894,6e-5 4.255484,-0.44251 6.025774,-1.32771 1.770273,-0.88508 3.183095,-1.9064 4.238468,-3.06395 2.144752,-2.24684 3.744814,-5.70229 4.800192,-10.36637 l 8.681199,0 0,12.97073 13.37926,0 0,7.14922 -13.37926,0 0,32.37575 c -2.6e-5,3.1661 0.527654,5.4811 1.583042,6.945 1.089377,1.4639 2.859659,2.1958 5.310851,2.1958"
         id="path3016"
         inkscape:connector-curvature="0" />
    </g>
  </g>
</svg>
