<?xml version="1.0" encoding="UTF-8" standalone="no"?>
<!-- Created with Inkscape (http://www.inkscape.org/) -->

<svg
   xmlns:dc="http://purl.org/dc/elements/1.1/"
   xmlns:cc="http://creativecommons.org/ns#"
   xmlns:rdf="http://www.w3.org/1999/02/22-rdf-syntax-ns#"
   xmlns:svg="http://www.w3.org/2000/svg"
   xmlns="http://www.w3.org/2000/svg"
   xmlns:xlink="http://www.w3.org/1999/xlink"
   xmlns:sodipodi="http://sodipodi.sourceforge.net/DTD/sodipodi-0.dtd"
   xmlns:inkscape="http://www.inkscape.org/namespaces/inkscape"
   width="96"
   height="96"
   id="svg2"
   version="1.1"
   inkscape:version="0.48.4 r9939"
   sodipodi:docname="turpial.svg">
  <defs
     id="defs4">
    <linearGradient
       id="linearGradient3790">
      <stop
         style="stop-color:#6a0050;stop-opacity:1;"
         offset="0"
         id="stop3792" />
      <stop
         style="stop-color:#9b0070;stop-opacity:1;"
         offset="1"
         id="stop3794" />
    </linearGradient>
    <linearGradient
       inkscape:collect="always"
       xlink:href="#linearGradient3790"
       id="linearGradient3796"
       x1="45"
       y1="1047.3622"
       x2="45"
       y2="957.36218"
       gradientUnits="userSpaceOnUse" />
  </defs>
  <sodipodi:namedview
     id="base"
     pagecolor="#ffffff"
     bordercolor="#666666"
     borderopacity="1.0"
     inkscape:pageopacity="0.0"
     inkscape:pageshadow="2"
     inkscape:zoom="4.6771561"
     inkscape:cx="33.953264"
     inkscape:cy="55.703704"
     inkscape:document-units="px"
     inkscape:current-layer="layer1"
     showgrid="true"
     inkscape:snap-page="true"
     inkscape:snap-global="true"
     inkscape:snap-center="true"
     inkscape:snap-object-midpoints="false"
     showguides="true"
     inkscape:guide-bbox="true"
     inkscape:snap-bbox="true"
     inkscape:object-paths="true"
     inkscape:object-nodes="true"
     inkscape:window-width="1305"
     inkscape:window-height="744"
     inkscape:window-x="61"
     inkscape:window-y="24"
     inkscape:window-maximized="1"
     inkscape:snap-midpoints="true"
     inkscape:snap-grids="true"
     inkscape:snap-to-guides="false">
    <inkscape:grid
       type="xygrid"
       id="grid3002"
       empspacing="5"
       visible="true"
       enabled="true"
       snapvisiblegridlinesonly="true" />
  </sodipodi:namedview>
  <metadata
     id="metadata7">
    <rdf:RDF>
      <cc:Work
         rdf:about="">
        <dc:format>image/svg+xml</dc:format>
        <dc:type
           rdf:resource="http://purl.org/dc/dcmitype/StillImage" />
        <dc:title />
      </cc:Work>
    </rdf:RDF>
  </metadata>
  <g
     inkscape:label="Layer 1"
     inkscape:groupmode="layer"
     id="layer1"
     transform="translate(0,-956.36218)">
    <rect
       style="fill:#ffffff;fill-opacity:0;fill-rule:nonzero;stroke:none"
       id="rect3775"
       width="96"
       height="96"
       x="0"
       y="956.36218"
       ry="0" />
    <path
       style="fill:#000000;fill-opacity:0.09589041;fill-rule:nonzero;stroke:none"
       d="m 3.353015,956.30662 c -1.884176,0 -3.4111555,1.43156 -3.4111555,3.19799 l 0,83.65949 c 0,1.7665 1.5269795,3.1981 3.4111555,3.1981 l 89.23583,0 c 1.884174,0 3.411155,-1.4316 3.411155,-3.1981 l 0,-83.65949 c 0,-1.76643 -1.526981,-3.19799 -3.411155,-3.19799 z"
       id="rect3772"
       inkscape:connector-curvature="0"
       sodipodi:nodetypes="sssssssss" />
    <path
       style="fill:#000000;fill-opacity:0.18721463;fill-rule:nonzero;stroke:none"
       d="m 1.0459761,1041.8066 0,7.4219 c 0,1.7392 1.461916,3.1337 3.2852054,3.1337 l 86.3836135,0 c 1.823288,0 3.285205,-1.3945 3.285205,-3.1337 l 0,-7.4219 -92.9540239,0 z"
       id="rect3785"
       inkscape:connector-curvature="0" />
    <path
       style="fill:#000000;fill-opacity:0.38356168;fill-rule:nonzero;stroke:none"
       d="m 1.0459761,1041.8066 0,5.3807 c 0,1.762 1.461916,3.1749 3.2852054,3.1749 l 86.3836135,0 c 1.823288,0 3.285205,-1.4129 3.285205,-3.1749 l 0,-5.3807 -92.9540239,0 z"
       id="rect3783"
       inkscape:connector-curvature="0" />
    <rect
       style="fill:url(#linearGradient3796);fill-opacity:1;fill-rule:nonzero;stroke:none"
       id="rect2985"
       width="92.954025"
       height="89"
       x="1.045977"
       y="957.36218"
       ry="3.1511393" />
    <path
       style="fill:#000000;fill-opacity:0.38356168;fill-rule:nonzero;stroke:none"
       d="m 1,1042.3622 0.045976,2.7457 c 0.03024,1.8058 1.461916,3.2543 3.2852054,3.2543 l 86.3836136,0 c 1.823288,0 3.285205,-1.4481 3.285205,-3.2543 l -0.04598,-2.7457 z"
       id="rect3781"
       inkscape:connector-curvature="0"
       sodipodi:nodetypes="csssscc" />
    <rect
       style="fill:#ffffff;fill-opacity:0.30000001;fill-rule:nonzero;stroke:none"
       id="rect3770"
       width="92.954033"
       height="2.000005"
       x="1.045976"
       y="1040.3622" />
    <path
       inkscape:connector-curvature="0"
       id="path4757"
       d="m 62.191395,988.44428 c -13.90652,0.20029 -23.856253,17.21382 -32.027015,27.58712 2.858378,1.6199 8.037126,3.3852 13.862807,3.3852 3.809079,0 7.886669,-0.7513 11.822712,-2.7535 4.803509,-2.443 7.202637,-6.9187 7.201778,-10.9642 -9.79e-4,-2.3206 -0.780342,-4.5005 -2.335043,-6.08842 -1.556484,-1.58513 -3.897606,-2.62738 -7.152623,-2.62738 -1.085011,0 -2.281009,0.12497 -3.564015,0.37908 l -0.221209,-1.16206 c 1.347819,-0.26744 2.61941,-0.40424 3.785224,-0.40424 3.492974,0 6.170184,1.1484 7.963735,2.98096 1.794442,1.83176 2.680031,4.33036 2.679155,6.92206 -9.09e-4,4.5209 -2.66351,9.3914 -7.840832,12.0253 -4.120728,2.096 -8.385081,2.88 -12.338882,2.88 -6.106047,0 -11.462606,-1.8274 -14.501858,-3.5622 l 0.368687,-0.6821 c -0.475962,0.5985 -0.961248,1.1968 -1.425608,1.7432 5.270539,3.3884 10.399615,5.6215 15.214669,6.8463 2.079172,0.5287 4.094145,0.8679 6.046534,1.0357 l 1.278145,7.2758 1.130645,-0.2021 -1.228968,-6.9979 c 0.993316,0.05 1.971848,0.04 2.924959,0 l 1.278127,7.2 1.130647,-0.2021 -1.228972,-7.0484 c 12.631664,-1.0212 21.31754,-9.9126 21.801967,-22.2821 0.06209,-1.5814 -0.01135,-3.2172 -0.221211,-4.90097 l 4.891298,-2.60205 -5.38289,-0.35375 4.596354,-3.8146 -6.218594,0.45472 c -4.423536,-2.9228 -8.49824,-4.12202 -12.289723,-4.06737 z m 4.547199,5.27992 c 0.355153,0 0.673019,0.10331 1.007745,0.27793 0.334742,0.17563 0.682503,0.4334 1.032339,0.73267 0.698779,0.59869 1.434911,1.42866 2.163002,2.42526 l -0.909453,0.70733 c -1.021962,-1.40633 -2.097943,-2.44126 -2.802057,-2.80417 -0.230841,-0.12164 -0.407226,-0.15329 -0.491576,-0.15329 l -0.07376,0 -0.04912,0.05 c -0.05334,0.075 -0.150121,0.33625 -0.147528,0.75782 -0.0016,0.63319 0.162216,1.61862 0.565324,2.98113 l -1.081493,0.35359 c -0.42086,-1.43 -0.637337,-2.50608 -0.639071,-3.33472 9.79e-4,-0.41424 0.0522,-0.77048 0.172056,-1.08624 0.116401,-0.3131 0.343399,-0.60103 0.639071,-0.75783 0.195304,-0.10497 0.408474,-0.14996 0.614462,-0.14996 z m -10.05299,4.87585 -0.294959,2.65255 c -7.473734,2.8218 -12.417131,9.4618 -14.108598,15.3094 l -2.556254,0.4547 0.344117,-1.1369 c 1.881581,-6.505 7.067023,-13.6626 15.509608,-16.85035 l 1.106086,-0.4294 z"
       style="fill:#000000;fill-opacity:0.42922375;fill-rule:nonzero;stroke:none" />
    <path
       style="fill:#ffffff;fill-opacity:1;fill-rule:nonzero;stroke:none"
       d="m 62.191395,987.394 c -13.90652,0.20028 -23.856253,17.2138 -32.027015,27.5872 2.858378,1.6197 8.037126,3.3852 13.862807,3.3852 3.809079,0 7.886669,-0.7514 11.822712,-2.7536 4.803509,-2.4431 7.202637,-6.9187 7.201778,-10.9642 -9.79e-4,-2.3206 -0.780342,-4.5004 -2.335043,-6.0884 -1.556484,-1.58513 -3.897606,-2.62738 -7.152623,-2.62738 -1.085011,0 -2.281009,0.12497 -3.564015,0.37907 l -0.221209,-1.16206 c 1.347819,-0.26743 2.61941,-0.40424 3.785224,-0.40424 3.492974,0 6.170184,1.1484 7.963735,2.98097 1.794442,1.83174 2.680031,4.33034 2.679155,6.92204 -9.09e-4,4.5209 -2.66351,9.3914 -7.840832,12.0254 -4.120728,2.0959 -8.385081,2.8799 -12.338882,2.8799 -6.106047,0 -11.462606,-1.8274 -14.501858,-3.5621 l 0.368687,-0.6822 c -0.475962,0.5985 -0.961248,1.1969 -1.425608,1.7432 5.270539,3.3884 10.399615,5.6216 15.214669,6.8462 2.079172,0.5287 4.094145,0.868 6.046534,1.0358 l 1.278145,7.2758 1.130645,-0.2021 -1.228968,-6.9979 c 0.993316,0.05 1.971848,0.04 2.924959,0 l 1.278127,7.2 1.130647,-0.2021 -1.228972,-7.0484 c 12.631664,-1.0213 21.31754,-9.9126 21.801967,-22.282 0.06209,-1.5815 -0.01135,-3.21728 -0.221211,-4.90105 l 4.891298,-2.60205 -5.38289,-0.35375 4.596354,-3.81461 -6.218594,0.45473 c -4.423536,-2.92281 -8.49824,-4.12202 -12.289723,-4.06737 z m 4.547199,5.27992 c 0.355153,0 0.673019,0.10331 1.007745,0.27793 0.334742,0.17563 0.682503,0.4334 1.032339,0.73266 0.698779,0.5987 1.434911,1.42867 2.163002,2.42526 l -0.909453,0.70734 c -1.021962,-1.40634 -2.097943,-2.44126 -2.802057,-2.80417 -0.230841,-0.12164 -0.407226,-0.1533 -0.491576,-0.1533 l -0.07376,0 -0.04912,0.05 c -0.05334,0.075 -0.150121,0.33626 -0.147528,0.75782 -0.0016,0.63319 0.162216,1.61862 0.565324,2.98113 l -1.081493,0.35358 c -0.42086,-1.42999 -0.637337,-2.50607 -0.639071,-3.33471 9.79e-4,-0.41423 0.0522,-0.77049 0.172056,-1.08625 0.116401,-0.31309 0.343399,-0.60101 0.639071,-0.75781 0.195304,-0.10498 0.408474,-0.14997 0.614462,-0.14997 z m -10.05299,4.87585 -0.294959,2.65253 c -7.473734,2.8218 -12.417131,9.4618 -14.108598,15.3094 l -2.556254,0.4548 0.344117,-1.137 c 1.881581,-6.5049 7.067023,-13.6626 15.509608,-16.85034 l 1.106086,-0.42939 z"
       id="path5988"
       inkscape:connector-curvature="0" />
  </g>
</svg>
