<?xml version="1.0" encoding="UTF-8" standalone="no"?>
<!-- Created with Inkscape (http://www.inkscape.org/) -->

<svg
   xmlns:dc="http://purl.org/dc/elements/1.1/"
   xmlns:cc="http://creativecommons.org/ns#"
   xmlns:rdf="http://www.w3.org/1999/02/22-rdf-syntax-ns#"
   xmlns:svg="http://www.w3.org/2000/svg"
   xmlns="http://www.w3.org/2000/svg"
   xmlns:sodipodi="http://sodipodi.sourceforge.net/DTD/sodipodi-0.dtd"
   xmlns:inkscape="http://www.inkscape.org/namespaces/inkscape"
   width="96"
   height="96"
   id="svg2"
   version="1.1"
   inkscape:version="0.48.4 r9939"
   sodipodi:docname="tweetdeck.svg">
  <defs
     id="defs4" />
  <sodipodi:namedview
     id="base"
     pagecolor="#ffffff"
     bordercolor="#666666"
     borderopacity="1.0"
     inkscape:pageopacity="0.0"
     inkscape:pageshadow="2"
     inkscape:zoom="5.90625"
     inkscape:cx="22.010582"
     inkscape:cy="48"
     inkscape:document-units="px"
     inkscape:current-layer="layer1"
     showgrid="true"
     inkscape:snap-page="true"
     inkscape:snap-global="true"
     inkscape:snap-center="true"
     inkscape:snap-object-midpoints="false"
     showguides="true"
     inkscape:guide-bbox="true"
     inkscape:snap-bbox="true"
     inkscape:object-paths="true"
     inkscape:object-nodes="true"
     inkscape:window-width="1305"
     inkscape:window-height="744"
     inkscape:window-x="61"
     inkscape:window-y="24"
     inkscape:window-maximized="1"
     inkscape:snap-midpoints="true"
     inkscape:snap-grids="true"
     inkscape:snap-to-guides="false">
    <inkscape:grid
       type="xygrid"
       id="grid3002"
       empspacing="5"
       visible="true"
       enabled="true"
       snapvisiblegridlinesonly="true" />
  </sodipodi:namedview>
  <metadata
     id="metadata7">
    <rdf:RDF>
      <cc:Work
         rdf:about="">
        <dc:format>image/svg+xml</dc:format>
        <dc:type
           rdf:resource="http://purl.org/dc/dcmitype/StillImage" />
        <dc:title />
      </cc:Work>
    </rdf:RDF>
  </metadata>
  <g
     inkscape:label="Layer 1"
     inkscape:groupmode="layer"
     id="layer1"
     transform="translate(0,-956.36218)">
    <rect
       style="fill:#ffffff;fill-opacity:0;fill-rule:nonzero;stroke:none"
       id="rect3775"
       width="96"
       height="96"
       x="0"
       y="956.36218"
       ry="0" />
    <path
       style="fill:#000000;fill-opacity:0.09589041;fill-rule:nonzero;stroke:none"
       d="m 3.353015,956.30662 c -1.884176,0 -3.4111555,1.43156 -3.4111555,3.19799 l 0,83.65949 c 0,1.7665 1.5269795,3.1981 3.4111555,3.1981 l 89.23583,0 c 1.884174,0 3.411155,-1.4316 3.411155,-3.1981 l 0,-83.65949 c 0,-1.76643 -1.526981,-3.19799 -3.411155,-3.19799 z"
       id="rect3772"
       inkscape:connector-curvature="0"
       sodipodi:nodetypes="sssssssss" />
    <path
       style="fill:#000000;fill-opacity:0.18721463;fill-rule:nonzero;stroke:none"
       d="m 1.0459761,1041.8066 0,7.4219 c 0,1.7392 1.461916,3.1337 3.2852054,3.1337 l 86.3836135,0 c 1.823288,0 3.285205,-1.3945 3.285205,-3.1337 l 0,-7.4219 -92.9540239,0 z"
       id="rect3785"
       inkscape:connector-curvature="0" />
    <path
       style="fill:#000000;fill-opacity:0.38356168;fill-rule:nonzero;stroke:none"
       d="m 1.0459761,1041.8066 0,5.3807 c 0,1.762 1.461916,3.1749 3.2852054,3.1749 l 86.3836135,0 c 1.823288,0 3.285205,-1.4129 3.285205,-3.1749 l 0,-5.3807 -92.9540239,0 z"
       id="rect3783"
       inkscape:connector-curvature="0" />
    <rect
       style="fill:#008ed6;fill-opacity:1;fill-rule:nonzero;stroke:none"
       id="rect2985"
       width="92.954025"
       height="89"
       x="1.045977"
       y="957.36218"
       ry="3.1511393" />
    <path
       style="fill:#000000;fill-opacity:0.38356168;fill-rule:nonzero;stroke:none"
       d="m 1,1042.3622 0.045976,2.7457 c 0.03024,1.8058 1.461916,3.2543 3.2852054,3.2543 l 86.3836136,0 c 1.823288,0 3.285205,-1.4481 3.285205,-3.2543 l -0.04598,-2.7457 z"
       id="rect3781"
       inkscape:connector-curvature="0"
       sodipodi:nodetypes="csssscc" />
    <rect
       style="fill:#ffffff;fill-opacity:0.37442923;fill-rule:nonzero;stroke:none"
       id="rect3770"
       width="92.954033"
       height="2.000005"
       x="1.045976"
       y="1040.3622" />
    <g
       style="fill:#000000;fill-opacity:0.26940637"
       inkscape:label="Layer 1"
       id="g3776"
       transform="matrix(0.23610448,0,0,0.26558325,-37.15034,875.62042)">
      <path
         style="fill:#000000;fill-opacity:0.26940637"
         inkscape:connector-curvature="0"
         id="path3778"
         d="m 453.82593,412.80619 c -6.3097,2.79897 -13.09189,4.68982 -20.20852,5.54049 7.26413,-4.35454 12.84406,-11.24992 15.47067,-19.46675 -6.79934,4.03295 -14.3293,6.96055 -22.34461,8.53841 -6.41775,-6.83879 -15.56243,-11.111 -25.68298,-11.111 -19.43159,0 -35.18696,15.75365 -35.18696,35.18525 0,2.75781 0.31128,5.44359 0.91155,8.01875 -29.24344,-1.46723 -55.16995,-15.47582 -72.52461,-36.76396 -3.02879,5.19662 -4.76443,11.24048 -4.76443,17.6891 0,12.20777 6.21194,22.97747 15.65332,29.28716 -5.76773,-0.18265 -11.19331,-1.76565 -15.93716,-4.40083 -0.004,0.14663 -0.004,0.29412 -0.004,0.44248 0,17.04767 12.12889,31.26806 28.22555,34.50266 -2.95247,0.80436 -6.06101,1.23398 -9.26989,1.23398 -2.2673,0 -4.47114,-0.22124 -6.62011,-0.63114 4.47801,13.97857 17.47214,24.15143 32.86992,24.43441 -12.04227,9.43796 -27.21366,15.06335 -43.69965,15.06335 -2.84014,0 -5.64082,-0.16722 -8.39349,-0.49223 15.57186,9.98421 34.06703,15.8094 53.93768,15.8094 64.72024,0 100.11301,-53.61524 100.11301,-100.11387 0,-1.52554 -0.0343,-3.04251 -0.10204,-4.55261 6.87394,-4.95995 12.83891,-11.15646 17.55618,-18.21305 z" />
    </g>
    <g
       transform="matrix(0.23610448,0,0,0.25421162,-37.15034,880.12707)"
       id="g3772"
       inkscape:label="Layer 1"
       style="fill:#000000;fill-opacity:0.26940637">
      <path
         d="m 453.82593,412.80619 c -6.3097,2.79897 -13.09189,4.68982 -20.20852,5.54049 7.26413,-4.35454 12.84406,-11.24992 15.47067,-19.46675 -6.79934,4.03295 -14.3293,6.96055 -22.34461,8.53841 -6.41775,-6.83879 -15.56243,-11.111 -25.68298,-11.111 -19.43159,0 -35.18696,15.75365 -35.18696,35.18525 0,2.75781 0.31128,5.44359 0.91155,8.01875 -29.24344,-1.46723 -55.16995,-15.47582 -72.52461,-36.76396 -3.02879,5.19662 -4.76443,11.24048 -4.76443,17.6891 0,12.20777 6.21194,22.97747 15.65332,29.28716 -5.76773,-0.18265 -11.19331,-1.76565 -15.93716,-4.40083 -0.004,0.14663 -0.004,0.29412 -0.004,0.44248 0,17.04767 12.12889,31.26806 28.22555,34.50266 -2.95247,0.80436 -6.06101,1.23398 -9.26989,1.23398 -2.2673,0 -4.47114,-0.22124 -6.62011,-0.63114 4.47801,13.97857 17.47214,24.15143 32.86992,24.43441 -12.04227,9.43796 -27.21366,15.06335 -43.69965,15.06335 -2.84014,0 -5.64082,-0.16722 -8.39349,-0.49223 15.57186,9.98421 34.06703,15.8094 53.93768,15.8094 64.72024,0 100.11301,-53.61524 100.11301,-100.11387 0,-1.52554 -0.0343,-3.04251 -0.10204,-4.55261 6.87394,-4.95995 12.83891,-11.15646 17.55618,-18.21305 z"
         id="path3774"
         inkscape:connector-curvature="0"
         style="fill:#000000;fill-opacity:0.26940637" />
    </g>
    <g
       style="fill:#000000;fill-opacity:0.26940637"
       inkscape:label="Layer 1"
       id="g3167"
       transform="matrix(0.23610448,0,0,0.24473526,-37.15034,883.88262)">
      <path
         style="fill:#000000;fill-opacity:0.26940637"
         inkscape:connector-curvature="0"
         id="path3169"
         d="m 453.82593,412.80619 c -6.3097,2.79897 -13.09189,4.68982 -20.20852,5.54049 7.26413,-4.35454 12.84406,-11.24992 15.47067,-19.46675 -6.79934,4.03295 -14.3293,6.96055 -22.34461,8.53841 -6.41775,-6.83879 -15.56243,-11.111 -25.68298,-11.111 -19.43159,0 -35.18696,15.75365 -35.18696,35.18525 0,2.75781 0.31128,5.44359 0.91155,8.01875 -29.24344,-1.46723 -55.16995,-15.47582 -72.52461,-36.76396 -3.02879,5.19662 -4.76443,11.24048 -4.76443,17.6891 0,12.20777 6.21194,22.97747 15.65332,29.28716 -5.76773,-0.18265 -11.19331,-1.76565 -15.93716,-4.40083 -0.004,0.14663 -0.004,0.29412 -0.004,0.44248 0,17.04767 12.12889,31.26806 28.22555,34.50266 -2.95247,0.80436 -6.06101,1.23398 -9.26989,1.23398 -2.2673,0 -4.47114,-0.22124 -6.62011,-0.63114 4.47801,13.97857 17.47214,24.15143 32.86992,24.43441 -12.04227,9.43796 -27.21366,15.06335 -43.69965,15.06335 -2.84014,0 -5.64082,-0.16722 -8.39349,-0.49223 15.57186,9.98421 34.06703,15.8094 53.93768,15.8094 64.72024,0 100.11301,-53.61524 100.11301,-100.11387 0,-1.52554 -0.0343,-3.04251 -0.10204,-4.55261 6.87394,-4.95995 12.83891,-11.15646 17.55618,-18.21305 z" />
    </g>
    <g
       transform="matrix(0.23123764,0,0,0.23123764,-35.77633,889.23182)"
       id="layer1-6"
       inkscape:label="Layer 1"
       style="fill:#ffffff">
      <path
         d="m 453.82593,412.80619 c -6.3097,2.79897 -13.09189,4.68982 -20.20852,5.54049 7.26413,-4.35454 12.84406,-11.24992 15.47067,-19.46675 -6.79934,4.03295 -14.3293,6.96055 -22.34461,8.53841 -6.41775,-6.83879 -15.56243,-11.111 -25.68298,-11.111 -19.43159,0 -35.18696,15.75365 -35.18696,35.18525 0,2.75781 0.31128,5.44359 0.91155,8.01875 -29.24344,-1.46723 -55.16995,-15.47582 -72.52461,-36.76396 -3.02879,5.19662 -4.76443,11.24048 -4.76443,17.6891 0,12.20777 6.21194,22.97747 15.65332,29.28716 -5.76773,-0.18265 -11.19331,-1.76565 -15.93716,-4.40083 -0.004,0.14663 -0.004,0.29412 -0.004,0.44248 0,17.04767 12.12889,31.26806 28.22555,34.50266 -2.95247,0.80436 -6.06101,1.23398 -9.26989,1.23398 -2.2673,0 -4.47114,-0.22124 -6.62011,-0.63114 4.47801,13.97857 17.47214,24.15143 32.86992,24.43441 -12.04227,9.43796 -27.21366,15.06335 -43.69965,15.06335 -2.84014,0 -5.64082,-0.16722 -8.39349,-0.49223 15.57186,9.98421 34.06703,15.8094 53.93768,15.8094 64.72024,0 100.11301,-53.61524 100.11301,-100.11387 0,-1.52554 -0.0343,-3.04251 -0.10204,-4.55261 6.87394,-4.95995 12.83891,-11.15646 17.55618,-18.21305 z"
         id="path5"
         inkscape:connector-curvature="0"
         style="fill:#ffffff" />
    </g>
    <path
       style="font-size:medium;font-style:normal;font-variant:normal;font-weight:normal;font-stretch:normal;text-indent:0;text-align:start;text-decoration:none;line-height:normal;letter-spacing:normal;word-spacing:normal;text-transform:none;direction:ltr;block-progression:tb;writing-mode:lr-tb;text-anchor:start;baseline-shift:baseline;color:#000000;fill:#ffffff;fill-opacity:0.42465754;fill-rule:nonzero;stroke:none;stroke-width:6;marker:none;visibility:visible;display:inline;overflow:visible;enable-background:accumulate;font-family:Sans;-inkscape-font-specification:Sans"
       d="M 49.366187,962.36218 C 30.426304,962.36218 15,977.78848 15,996.72836 c 0,18.93984 15.426304,34.36614 34.366187,34.36614 5.5536,0 10.733851,-1.4521 15.387319,-3.8028 l 14.788727,3.6971 5.457745,1.3734 -1.373239,-5.4579 -3.697182,-14.7887 c 2.350622,-4.6534 3.802817,-9.8336 3.802817,-15.38724 0,-18.93988 -15.426305,-34.36618 -34.366187,-34.36618 z m 0,6.76055 c 15.286204,0 27.605625,12.31943 27.605625,27.60563 0,4.92154 -1.278934,9.49514 -3.521126,13.48584 l -0.633802,1.162 0.316901,1.3028 2.605634,10.4226 -10.422533,-2.6057 -1.302817,-0.3168 -1.161971,0.6338 c -3.990692,2.2421 -8.564396,3.5211 -13.485911,3.5211 -15.286205,0 -27.605626,-12.3194 -27.605626,-27.60564 0,-15.2862 12.319421,-27.60563 27.605626,-27.60563 z"
       id="path2996"
       inkscape:connector-curvature="0" />
  </g>
</svg>
