<?xml version="1.0" encoding="UTF-8" standalone="no"?>
<!-- Created with Inkscape (http://www.inkscape.org/) -->

<svg
   xmlns:dc="http://purl.org/dc/elements/1.1/"
   xmlns:cc="http://creativecommons.org/ns#"
   xmlns:rdf="http://www.w3.org/1999/02/22-rdf-syntax-ns#"
   xmlns:svg="http://www.w3.org/2000/svg"
   xmlns="http://www.w3.org/2000/svg"
   xmlns:sodipodi="http://sodipodi.sourceforge.net/DTD/sodipodi-0.dtd"
   xmlns:inkscape="http://www.inkscape.org/namespaces/inkscape"
   width="96"
   height="96"
   id="svg2"
   version="1.1"
   inkscape:version="0.48.4 r9939"
   sodipodi:docname="ubuntu-tweak.svg">
  <defs
     id="defs4" />
  <sodipodi:namedview
     id="base"
     pagecolor="#ffffff"
     bordercolor="#666666"
     borderopacity="1.0"
     inkscape:pageopacity="0.0"
     inkscape:pageshadow="2"
     inkscape:zoom="5.90625"
     inkscape:cx="20.55754"
     inkscape:cy="48"
     inkscape:document-units="px"
     inkscape:current-layer="layer1"
     showgrid="true"
     inkscape:snap-page="true"
     inkscape:snap-global="false"
     inkscape:snap-center="true"
     inkscape:snap-object-midpoints="false"
     showguides="true"
     inkscape:guide-bbox="true"
     inkscape:snap-bbox="true"
     inkscape:object-paths="true"
     inkscape:object-nodes="true"
     inkscape:window-width="1305"
     inkscape:window-height="744"
     inkscape:window-x="61"
     inkscape:window-y="24"
     inkscape:window-maximized="1"
     inkscape:snap-midpoints="false"
     inkscape:snap-grids="true"
     inkscape:snap-to-guides="false">
    <inkscape:grid
       type="xygrid"
       id="grid3002"
       empspacing="5"
       visible="true"
       enabled="true"
       snapvisiblegridlinesonly="true" />
  </sodipodi:namedview>
  <metadata
     id="metadata7">
    <rdf:RDF>
      <cc:Work
         rdf:about="">
        <dc:format>image/svg+xml</dc:format>
        <dc:type
           rdf:resource="http://purl.org/dc/dcmitype/StillImage" />
        <dc:title />
      </cc:Work>
    </rdf:RDF>
  </metadata>
  <g
     inkscape:label="Layer 1"
     inkscape:groupmode="layer"
     id="layer1"
     transform="translate(0,-956.36218)">
    <rect
       style="fill:#ffffff;fill-opacity:0;fill-rule:nonzero;stroke:none"
       id="rect3775"
       width="96"
       height="96"
       x="0"
       y="956.36218"
       ry="0" />
    <path
       style="fill:#000000;fill-opacity:0.09589041;fill-rule:nonzero;stroke:none"
       d="m 3.353015,956.30662 c -1.884176,0 -3.4111555,1.43156 -3.4111555,3.19799 l 0,83.65949 c 0,1.7665 1.5269795,3.1981 3.4111555,3.1981 l 89.23583,0 c 1.884174,0 3.411155,-1.4316 3.411155,-3.1981 l 0,-83.65949 c 0,-1.76643 -1.526981,-3.19799 -3.411155,-3.19799 z"
       id="rect3772"
       inkscape:connector-curvature="0"
       sodipodi:nodetypes="sssssssss" />
    <path
       style="fill:#000000;fill-opacity:0.18721463;fill-rule:nonzero;stroke:none"
       d="m 1.0459761,1041.8066 0,7.4219 c 0,1.7392 1.461916,3.1337 3.2852054,3.1337 l 86.3836135,0 c 1.823288,0 3.285205,-1.3945 3.285205,-3.1337 l 0,-7.4219 -92.9540239,0 z"
       id="rect3785"
       inkscape:connector-curvature="0" />
    <path
       style="fill:#000000;fill-opacity:0.38356168;fill-rule:nonzero;stroke:none"
       d="m 1.0459761,1041.8066 0,5.3807 c 0,1.762 1.461916,3.1749 3.2852054,3.1749 l 86.3836135,0 c 1.823288,0 3.285205,-1.4129 3.285205,-3.1749 l 0,-5.3807 -92.9540239,0 z"
       id="rect3783"
       inkscape:connector-curvature="0" />
    <rect
       style="fill:#56aa1c;fill-opacity:1;fill-rule:nonzero;stroke:none"
       id="rect2985-6"
       width="93"
       height="88.999977"
       x="1"
       y="957.36218"
       ry="3.1511388" />
    <path
       style="fill:#000000;fill-opacity:0.38356168;fill-rule:nonzero;stroke:none"
       d="m 1,1042.3622 0.045976,2.7457 c 0.03024,1.8058 1.461916,3.2543 3.2852054,3.2543 l 86.3836136,0 c 1.823288,0 3.285205,-1.4481 3.285205,-3.2543 l -0.04598,-2.7457 z"
       id="rect3781"
       inkscape:connector-curvature="0"
       sodipodi:nodetypes="csssscc" />
    <rect
       style="fill:#ffffff;fill-opacity:0.30000001;fill-rule:nonzero;stroke:none"
       id="rect3770"
       width="92.954033"
       height="2.000005"
       x="1.045976"
       y="1040.3622" />
    <path
       style="fill:#000000;overflow:visible"
       id="path3324"
       inkscape:connector-curvature="0"
       d="m 56.829539,977.1484 c -2.318759,0 -4.196314,1.88782 -4.196314,4.21506 0,2.32725 1.877555,4.21507 4.196314,4.21507 2.318748,0 4.196313,-1.88782 4.196313,-4.21507 0,-2.32724 -1.877565,-4.21506 -4.196313,-4.21506 z m -8.862149,3.30131 c -2.587883,3.4e-4 -5.211638,0.65639 -7.570975,1.82751 -0.08391,0.0417 -0.136223,0.11599 -0.161398,0.20633 -0.02552,0.0903 -0.02031,0.18573 0.02933,0.26528 l 3.404005,5.40885 c 0.08621,0.13754 0.261486,0.19568 0.410826,0.13263 1.259877,-0.53498 2.567241,-0.79584 3.888199,-0.79584 4.858943,0 9.098035,3.61665 9.859868,8.41538 0.02552,0.16115 0.160692,0.28003 0.322795,0.28003 l 6.397178,0 c 0.09329,0 0.186668,-0.0338 0.249427,-0.10317 0.06272,-0.0695 0.09676,-0.15682 0.08806,-0.25054 -0.345001,-3.56055 -1.860427,-7.00791 -4.255,-9.68286 -0.108063,-0.12136 -0.288911,-0.13287 -0.425506,-0.0443 -0.965541,0.62634 -2.061062,0.95796 -3.16924,0.95796 -3.232927,0 -5.853961,-2.63824 -5.854297,-5.86572 3.36e-4,-0.002 0,-0.1125 0,-0.1179 0,-0.16079 -0.120032,-0.31133 -0.27878,-0.33898 -1.010856,-0.17595 -1.992093,-0.29476 -2.934484,-0.29476 z m -10.270703,3.53712 c -0.04434,0.0109 -0.09563,0.0305 -0.132045,0.0589 -2.774818,2.14672 -4.855772,5.16577 -5.868977,8.50383 -0.03957,0.13045 -0.0044,0.26875 0.102711,0.35371 1.394457,1.10942 2.230206,2.81715 2.230206,4.56877 0,1.75168 -0.835413,3.45934 -2.230206,4.56884 -0.106386,0.085 -0.14231,0.2229 -0.102711,0.3538 1.00515,3.31 3.0697,6.3175 5.810281,8.4595 0.07349,0.057 0.157475,0.09 0.249437,0.074 0.09161,-0.016 0.17008,-0.084 0.220085,-0.1622 l 3.433348,-5.3941 c 0.08762,-0.1379 0.06377,-0.3192 -0.05874,-0.4274 -2.15092,-1.901 -3.389333,-4.6266 -3.389333,-7.47221 0,-2.86677 1.245267,-5.60001 3.418677,-7.50163 0.122497,-0.10754 0.160285,-0.28886 0.07331,-0.4274 l -3.404006,-5.40884 c -0.04964,-0.0789 -0.128459,-0.1312 -0.220084,-0.14737 -0.04585,-0.008 -0.08772,-0.0109 -0.132055,0 z m -9.463705,9.25545 c -2.373064,0 -4.299025,1.93624 -4.299025,4.31823 0,2.3821 1.925961,4.30359 4.299025,4.30359 2.373054,0 4.299015,-1.92149 4.299015,-4.30359 0,-2.38199 -1.925961,-4.31823 -4.299015,-4.31823 z m 36.314249,5.57096 -6.397176,0.015 c -0.161424,3.4e-4 -0.311622,0.12031 -0.337467,0.28011 -0.77224,4.76301 -4.999672,8.35641 -9.845198,8.35641 -1.336397,0 -2.658238,-0.2772 -3.932213,-0.8253 -0.149005,-0.063 -0.323228,-0.018 -0.410826,0.1179 l -3.433349,5.4088 c -0.04999,0.08 -0.05414,0.1745 -0.02933,0.2653 0.02482,0.09 0.07782,0.1646 0.161397,0.2063 2.377789,1.1957 5.026586,1.8275 7.644334,1.8275 0.970922,0 1.984577,-0.097 3.007851,-0.28 0.143635,-0.026 0.246981,-0.1347 0.2641,-0.28 0.340983,-2.9581 2.831508,-5.1878 5.79561,-5.1878 0.918894,0 1.864633,0.2329 2.7144,0.678 0.12921,0.067 0.279124,0.046 0.381482,-0.059 2.679835,-2.7451 4.373955,-6.3643 4.753865,-10.16925 0.0094,-0.0934 -0.02491,-0.18074 -0.08807,-0.25053 -0.06306,-0.0698 -0.156133,-0.10353 -0.249428,-0.10317 z m -7.556295,11.39256 c -2.373064,0 -4.299024,1.919 -4.299024,4.2887 0,2.3698 1.92596,4.2888 4.299024,4.2888 2.373055,0 4.299015,-1.919 4.299015,-4.2888 0,-2.3697 -1.92596,-4.2887 -4.299015,-4.2887 z" />
    <path
       style="fill:#ffffff;fill-opacity:0.42465754;stroke:none"
       d="m 44.623002,960.39173 -8.240332,1.54271 1.01593,5.41831 c -2.77023,0.89899 -5.358967,2.14315 -7.713553,3.68744 l -3.574575,-4.17661 -6.358976,5.45593 3.574572,4.17661 c -1.903331,2.12458 -3.527937,4.49075 -4.816267,7.03628 l -5.192537,-1.84373 -2.784406,7.90168 5.192539,1.84373 c -0.580657,2.73512 -0.798623,5.5794 -0.639661,8.46605 l -5.4183005,1.01607 1.5427095,8.2779 5.418302,-1.016 c 0.894664,2.7613 2.11569,5.3278 3.649828,7.6759 l -4.176607,3.5747 5.455928,6.3588 4.214234,-3.5745 c 2.119164,1.904 4.458247,3.5271 6.998638,4.8164 l -1.843727,5.1925 7.939316,2.7842 1.843727,-5.1924 c 2.73195,0.5775 5.581202,0.8386 8.466097,0.6774 l 1.015931,5.4182 8.240332,-1.5428 -1.01593,-5.4182 c 2.76848,-0.8956 5.360189,-2.1119 7.713553,-3.6498 l 3.536946,4.139 6.396605,-5.456 -3.574572,-4.1766 c 1.903923,-2.1201 3.489759,-4.495 4.77864,-7.0364 l 5.230164,1.8438 2.784406,-7.9016 -5.192539,-1.8437 c 0.581953,-2.737 0.799578,-5.57531 0.639661,-8.46607 l 5.4183,-1.01604 -1.542709,-8.27792 -5.418302,1.01593 c -0.894212,-2.75413 -2.119174,-5.33324 -3.649828,-7.67594 l 4.176607,-3.57456 -5.455928,-6.35899 -4.214234,3.57457 c -2.117931,-1.902 -4.460163,-3.528 -6.998638,-4.81626 l 1.843727,-5.19254 -7.939316,-2.78439 -1.843727,5.19252 c -2.733865,-0.57847 -5.579026,-0.8012 -8.466097,-0.63965 l -1.015931,-5.45593 z m 1.956609,11.77728 c 12.601402,-0.41039 23.992755,8.4537 26.37659,21.22169 2.630456,14.0889 -6.71887,27.6217 -20.80778,30.252 -14.088912,2.6306 -27.621726,-6.6435 -30.252182,-20.7324 -2.630439,-14.0888 6.643618,-27.65931 20.732528,-30.28977 1.320834,-0.24661 2.647251,-0.40906 3.950844,-0.45152 z"
       id="path3782"
       inkscape:connector-curvature="0" />
  </g>
</svg>
