<?xml version="1.0" encoding="UTF-8" standalone="no"?>
<!-- Created with Inkscape (http://www.inkscape.org/) -->

<svg
   xmlns:dc="http://purl.org/dc/elements/1.1/"
   xmlns:cc="http://creativecommons.org/ns#"
   xmlns:rdf="http://www.w3.org/1999/02/22-rdf-syntax-ns#"
   xmlns:svg="http://www.w3.org/2000/svg"
   xmlns="http://www.w3.org/2000/svg"
   xmlns:sodipodi="http://sodipodi.sourceforge.net/DTD/sodipodi-0.dtd"
   xmlns:inkscape="http://www.inkscape.org/namespaces/inkscape"
   width="96"
   height="96"
   id="svg2"
   version="1.1"
   inkscape:version="0.48.4 r9939"
   sodipodi:docname="viber.svg">
  <defs
     id="defs4" />
  <sodipodi:namedview
     id="base"
     pagecolor="#ffffff"
     bordercolor="#666666"
     borderopacity="1.0"
     inkscape:pageopacity="0.0"
     inkscape:pageshadow="2"
     inkscape:zoom="5.90625"
     inkscape:cx="48.720958"
     inkscape:cy="48"
     inkscape:document-units="px"
     inkscape:current-layer="layer1"
     showgrid="true"
     inkscape:snap-page="true"
     inkscape:snap-global="true"
     inkscape:snap-center="true"
     inkscape:snap-object-midpoints="false"
     showguides="true"
     inkscape:guide-bbox="true"
     inkscape:snap-bbox="true"
     inkscape:object-paths="true"
     inkscape:object-nodes="true"
     inkscape:window-width="1305"
     inkscape:window-height="744"
     inkscape:window-x="61"
     inkscape:window-y="24"
     inkscape:window-maximized="1"
     inkscape:snap-midpoints="false"
     inkscape:snap-grids="true"
     inkscape:snap-to-guides="false">
    <inkscape:grid
       type="xygrid"
       id="grid3002"
       empspacing="5"
       visible="true"
       enabled="true"
       snapvisiblegridlinesonly="true" />
  </sodipodi:namedview>
  <metadata
     id="metadata7">
    <rdf:RDF>
      <cc:Work
         rdf:about="">
        <dc:format>image/svg+xml</dc:format>
        <dc:type
           rdf:resource="http://purl.org/dc/dcmitype/StillImage" />
        <dc:title />
      </cc:Work>
    </rdf:RDF>
  </metadata>
  <g
     inkscape:label="Layer 1"
     inkscape:groupmode="layer"
     id="layer1"
     transform="translate(0,-956.36218)">
    <rect
       style="fill:#ffffff;fill-opacity:0;fill-rule:nonzero;stroke:none"
       id="rect3775"
       width="96"
       height="96"
       x="0"
       y="956.36218"
       ry="0" />
    <path
       style="fill:#000000;fill-opacity:0.09589041;fill-rule:nonzero;stroke:none"
       d="m 3.353015,956.30662 c -1.884176,0 -3.4111555,1.43156 -3.4111555,3.19799 l 0,83.65949 c 0,1.7665 1.5269795,3.1981 3.4111555,3.1981 l 89.23583,0 c 1.884174,0 3.411155,-1.4316 3.411155,-3.1981 l 0,-83.65949 c 0,-1.76643 -1.526981,-3.19799 -3.411155,-3.19799 z"
       id="rect3772"
       inkscape:connector-curvature="0"
       sodipodi:nodetypes="sssssssss" />
    <path
       style="fill:#000000;fill-opacity:0.18721463;fill-rule:nonzero;stroke:none"
       d="m 1.0459761,1041.8066 0,7.4219 c 0,1.7392 1.461916,3.1337 3.2852054,3.1337 l 86.3836135,0 c 1.823288,0 3.285205,-1.3945 3.285205,-3.1337 l 0,-7.4219 -92.9540239,0 z"
       id="rect3785"
       inkscape:connector-curvature="0" />
    <path
       style="fill:#000000;fill-opacity:0.38356168;fill-rule:nonzero;stroke:none"
       d="m 1.0459761,1041.8066 0,5.3807 c 0,1.762 1.461916,3.1749 3.2852054,3.1749 l 86.3836135,0 c 1.823288,0 3.285205,-1.4129 3.285205,-3.1749 l 0,-5.3807 -92.9540239,0 z"
       id="rect3783"
       inkscape:connector-curvature="0" />
    <rect
       style="fill:#b7008e;fill-opacity:1;fill-rule:nonzero;stroke:none"
       id="rect2985"
       width="92.954025"
       height="89"
       x="1.045977"
       y="957.36218"
       ry="3.1511393" />
    <path
       style="fill:#000000;fill-opacity:0.38356168;fill-rule:nonzero;stroke:none"
       d="m 1,1042.3622 0.045976,2.7457 c 0.03024,1.8058 1.461916,3.2543 3.2852054,3.2543 l 86.3836136,0 c 1.823288,0 3.285205,-1.4481 3.285205,-3.2543 l -0.04598,-2.7457 z"
       id="rect3781"
       inkscape:connector-curvature="0"
       sodipodi:nodetypes="csssscc" />
    <rect
       style="fill:#ffffff;fill-opacity:0.30000001;fill-rule:nonzero;stroke:none"
       id="rect3770"
       width="92.954033"
       height="2.000005"
       x="1.045976"
       y="1040.3622" />
    <path
       style="fill:#ffffff;fill-opacity:1"
       d="m 66.027677,1020.106 c -2.279757,-3.4499 -8.499156,-8.7789 -11.270356,-9.6567 -2.009084,-0.6364 -2.283465,-0.5518 -4.360637,1.3455 -1.21918,1.1137 -2.626263,2.9421 -3.126813,4.0633 l -0.910255,2.0382 -2.217562,-2.0382 c -4.423338,-4.0661 -10.623686,-13.6672 -11.770562,-18.22698 -0.579078,-2.30195 0.302855,-3.16325 4.412212,-4.3099 4.208282,-1.17407 5.891601,-2.68312 5.890927,-5.28066 -9.87e-4,-3.99639 -6.382204,-14.29964 -9.431647,-15.22858 -2.730419,-0.83168 -9.190314,4.40327 -10.757346,8.71767 -0.883456,2.43188 0.356959,13.86668 2.036897,18.77785 3.749873,10.9631 10.533019,19.7601 20.946552,27.165 7.119035,5.0624 10.424658,5.6555 16.114688,2.892 2.687276,-1.305 6.223616,-4.9973 6.223616,-6.4981 0,-0.5868 -0.800866,-2.279 -1.779714,-3.7604 z"
       id="path2998"
       inkscape:connector-curvature="0"
       sodipodi:nodetypes="ccsccscsscccsssc" />
  </g>
</svg>
