<?xml version="1.0" encoding="UTF-8" standalone="no"?>
<!-- Created with Inkscape (http://www.inkscape.org/) -->

<svg
   xmlns:dc="http://purl.org/dc/elements/1.1/"
   xmlns:cc="http://creativecommons.org/ns#"
   xmlns:rdf="http://www.w3.org/1999/02/22-rdf-syntax-ns#"
   xmlns:svg="http://www.w3.org/2000/svg"
   xmlns="http://www.w3.org/2000/svg"
   xmlns:xlink="http://www.w3.org/1999/xlink"
   xmlns:sodipodi="http://sodipodi.sourceforge.net/DTD/sodipodi-0.dtd"
   xmlns:inkscape="http://www.inkscape.org/namespaces/inkscape"
   width="96"
   height="96"
   id="svg2"
   version="1.1"
   inkscape:version="0.48.4 r9939"
   sodipodi:docname="input-tablet.svg">
  <defs
     id="defs4">
    <linearGradient
       id="linearGradient3838">
      <stop
         id="stop3840"
         offset="0"
         style="stop-color:#c31ac5;stop-opacity:1;" />
      <stop
         id="stop3842"
         offset="1"
         style="stop-color:#5e68c4;stop-opacity:0;" />
    </linearGradient>
    <linearGradient
       id="linearGradient3828">
      <stop
         style="stop-color:#212121;stop-opacity:1;"
         offset="0"
         id="stop3830" />
      <stop
         style="stop-color:#ffffff;stop-opacity:1;"
         offset="1"
         id="stop3832" />
    </linearGradient>
    <linearGradient
       id="linearGradient3808">
      <stop
         style="stop-color:#3db6e5;stop-opacity:1;"
         offset="0"
         id="stop3810" />
      <stop
         style="stop-color:#5e68c4;stop-opacity:1;"
         offset="1"
         id="stop3812" />
    </linearGradient>
    <linearGradient
       id="linearGradient3790">
      <stop
         style="stop-color:#414141;stop-opacity:1;"
         offset="0"
         id="stop3792" />
      <stop
         style="stop-color:#000000;stop-opacity:1;"
         offset="1"
         id="stop3794" />
    </linearGradient>
    <linearGradient
       id="linearGradient3782">
      <stop
         style="stop-color:#000000;stop-opacity:1;"
         offset="0"
         id="stop3784" />
      <stop
         style="stop-color:#464646;stop-opacity:0.90769231;"
         offset="1"
         id="stop3786" />
    </linearGradient>
    <linearGradient
       inkscape:collect="always"
       xlink:href="#linearGradient3782"
       id="linearGradient3788"
       x1="46"
       y1="1032.3622"
       x2="54"
       y2="1032.3622"
       gradientUnits="userSpaceOnUse"
       gradientTransform="matrix(1.5,0,0,1.5,-27.507936,-519.18358)" />
    <linearGradient
       inkscape:collect="always"
       xlink:href="#linearGradient3790"
       id="linearGradient3796"
       x1="46.007938"
       y1="1025.1271"
       x2="52.976189"
       y2="1032.9154"
       gradientUnits="userSpaceOnUse"
       gradientTransform="translate(-2.5079366,0)" />
    <radialGradient
       inkscape:collect="always"
       xlink:href="#linearGradient3808"
       id="radialGradient3816"
       cx="10.950003"
       cy="1035.3179"
       fx="10.950003"
       fy="1035.3179"
       r="41.5"
       gradientTransform="matrix(2.0481928,2.1535791e-7,-1.7092193e-7,1.4143394,-17.427539,-441.92705)"
       gradientUnits="userSpaceOnUse" />
    <radialGradient
       inkscape:collect="always"
       xlink:href="#linearGradient3828"
       id="radialGradient3834"
       cx="47.53125"
       cy="998.86218"
       fx="47.53125"
       fy="998.86218"
       r="45.375"
       gradientTransform="matrix(1.3597727,1.1814688,-0.26243188,0.30203735,245.03284,-315.35037)"
       gradientUnits="userSpaceOnUse" />
    <radialGradient
       inkscape:collect="always"
       xlink:href="#linearGradient3838"
       id="radialGradient3844"
       gradientUnits="userSpaceOnUse"
       gradientTransform="matrix(2.0481928,2.1535791e-7,-1.7092193e-7,1.4143394,-112.42754,-441.92694)"
       cx="10.950003"
       cy="1035.3179"
       fx="10.950003"
       fy="1035.3179"
       r="41.5" />
    <linearGradient
       inkscape:collect="always"
       xlink:href="#linearGradient4008"
       id="linearGradient3102"
       gradientUnits="userSpaceOnUse"
       x1="-29.625"
       y1="21.8125"
       x2="-29.625"
       y2="19.5625" />
    <linearGradient
       id="linearGradient4008">
      <stop
         style="stop-color:#9b9b9b;stop-opacity:1;"
         offset="0"
         id="stop4010" />
      <stop
         style="stop-color:#d9d9d9;stop-opacity:1;"
         offset="1"
         id="stop4012" />
    </linearGradient>
    <linearGradient
       id="linearGradient4000">
      <stop
         style="stop-color:#333333;stop-opacity:1;"
         offset="0"
         id="stop4002" />
      <stop
         style="stop-color:#b9b9b9;stop-opacity:1;"
         offset="1"
         id="stop4004" />
    </linearGradient>
    <linearGradient
       y2="19.5625"
       x2="-29.625"
       y1="21.8125"
       x1="-29.625"
       gradientUnits="userSpaceOnUse"
       id="linearGradient3127"
       xlink:href="#linearGradient4000"
       inkscape:collect="always" />
    <linearGradient
       inkscape:collect="always"
       xlink:href="#linearGradient4008"
       id="linearGradient3893"
       gradientUnits="userSpaceOnUse"
       x1="-29.625"
       y1="21.8125"
       x2="-29.625"
       y2="19.5625" />
    <linearGradient
       inkscape:collect="always"
       xlink:href="#linearGradient4000"
       id="linearGradient3895"
       gradientUnits="userSpaceOnUse"
       x1="-29.625"
       y1="21.8125"
       x2="-29.625"
       y2="19.5625" />
    <linearGradient
       inkscape:collect="always"
       xlink:href="#linearGradient4000"
       id="linearGradient3898"
       gradientUnits="userSpaceOnUse"
       x1="-29.625"
       y1="21.8125"
       x2="-29.625"
       y2="19.5625"
       gradientTransform="matrix(1.1732269,-1.3407516,1.3378374,1.1757826,69.887014,930.63783)" />
    <linearGradient
       inkscape:collect="always"
       xlink:href="#linearGradient4008"
       id="linearGradient3901"
       gradientUnits="userSpaceOnUse"
       x1="-29.625"
       y1="21.8125"
       x2="-29.625"
       y2="19.5625"
       gradientTransform="matrix(1.1732269,-1.3407516,1.3378374,1.1757826,69.887017,-25.724353)" />
  </defs>
  <sodipodi:namedview
     id="base"
     pagecolor="#ffffff"
     bordercolor="#666666"
     borderopacity="1.0"
     inkscape:pageopacity="0.0"
     inkscape:pageshadow="2"
     inkscape:zoom="5.90625"
     inkscape:cx="48"
     inkscape:cy="62.956635"
     inkscape:document-units="px"
     inkscape:current-layer="layer1"
     showgrid="true"
     inkscape:snap-page="true"
     inkscape:snap-global="true"
     inkscape:snap-center="true"
     inkscape:snap-object-midpoints="false"
     showguides="true"
     inkscape:guide-bbox="true"
     inkscape:snap-bbox="true"
     inkscape:object-paths="true"
     inkscape:object-nodes="true"
     inkscape:window-width="1305"
     inkscape:window-height="744"
     inkscape:window-x="61"
     inkscape:window-y="24"
     inkscape:window-maximized="1"
     inkscape:snap-midpoints="false"
     inkscape:snap-grids="false"
     inkscape:snap-to-guides="false">
    <inkscape:grid
       type="xygrid"
       id="grid3002"
       empspacing="5"
       visible="true"
       enabled="true"
       snapvisiblegridlinesonly="true" />
  </sodipodi:namedview>
  <metadata
     id="metadata7">
    <rdf:RDF>
      <cc:Work
         rdf:about="">
        <dc:format>image/svg+xml</dc:format>
        <dc:type
           rdf:resource="http://purl.org/dc/dcmitype/StillImage" />
        <dc:title />
      </cc:Work>
    </rdf:RDF>
  </metadata>
  <g
     inkscape:label="Layer 1"
     inkscape:groupmode="layer"
     id="layer1"
     transform="translate(0,-956.36218)">
    <rect
       style="fill:#ffffff;fill-opacity:0;fill-rule:nonzero;stroke:none"
       id="rect3775"
       width="96"
       height="96"
       x="0"
       y="956.36218"
       ry="0" />
    <path
       style="fill:#000000;fill-opacity:0.09589041;fill-rule:nonzero;stroke:none"
       d="m 3.353015,956.30662 c -1.884176,0 -3.4111555,1.43156 -3.4111555,3.19799 l 0,83.65949 c 0,1.7665 1.5269795,3.1981 3.4111555,3.1981 l 89.23583,0 c 1.884174,0 3.411155,-1.4316 3.411155,-3.1981 l 0,-83.65949 c 0,-1.76643 -1.526981,-3.19799 -3.411155,-3.19799 z"
       id="rect3772"
       inkscape:connector-curvature="0"
       sodipodi:nodetypes="sssssssss" />
    <path
       style="fill:#000000;fill-opacity:0.18721463;fill-rule:nonzero;stroke:none"
       d="m 1.0459761,1041.8066 0,7.4219 c 0,1.7392 1.461916,3.1337 3.2852054,3.1337 l 86.3836135,0 c 1.823288,0 3.285205,-1.3945 3.285205,-3.1337 l 0,-7.4219 -92.9540239,0 z"
       id="rect3785"
       inkscape:connector-curvature="0" />
    <path
       style="fill:#000000;fill-opacity:0.38356168;fill-rule:nonzero;stroke:none"
       d="m 1.0459761,1041.8066 0,5.3807 c 0,1.762 1.461916,3.1749 3.2852054,3.1749 l 86.3836135,0 c 1.823288,0 3.285205,-1.4129 3.285205,-3.1749 l 0,-5.3807 -92.9540239,0 z"
       id="rect3783"
       inkscape:connector-curvature="0" />
    <rect
       style="fill:#000000;fill-opacity:1;fill-rule:nonzero;stroke:none"
       id="rect2985"
       width="92.954025"
       height="89"
       x="1.045977"
       y="-1046.3622"
       ry="3.1511393"
       transform="scale(1,-1)" />
    <path
       style="fill:#000000;fill-opacity:1;fill-rule:nonzero;stroke:none"
       d="m 1,1036.3622 0.045976,8.7457 c 0.00949,1.806 1.461916,3.2543 3.2852054,3.2543 l 86.3836136,0 c 1.823288,0 3.285205,-1.4481 3.285205,-3.2543 l -0.04598,-8.7457 z"
       id="rect3781"
       inkscape:connector-curvature="0"
       sodipodi:nodetypes="csssscc" />
    <path
       style="fill:url(#radialGradient3834);fill-opacity:1;fill-rule:nonzero;stroke:none"
       d="M 5.21875 2.0625 C 3.514514 2.0625 2.15625 3.42076 2.15625 5.125 L 2.15625 79.875 C 2.15625 81.5792 3.514514 82.9375 5.21875 82.9375 L 89.8125 82.9375 C 91.516736 82.9375 92.90625 81.5792 92.90625 79.875 L 92.90625 5.125 C 92.90625 3.42076 91.516736 2.0625 89.8125 2.0625 L 5.21875 2.0625 z M 6.8125 3.71875 L 88.21875 3.71875 C 89.859229 3.71875 91.1875 5.01577 91.1875 6.65625 L 91.1875 78.34375 C 91.1875 79.98415 89.859229 81.28125 88.21875 81.28125 L 6.8125 81.28125 C 5.1720207 81.28125 3.84375 79.98415 3.84375 78.34375 L 3.84375 6.65625 C 3.84375 5.01577 5.1720207 3.71875 6.8125 3.71875 z "
       transform="translate(0,956.36218)"
       id="rect3771" />
    <path
       style="fill:#2b2b2b;fill-opacity:1;fill-rule:nonzero;stroke:none"
       d="m 6.800828,960.08769 c -1.6404793,0 -2.9656652,1.29363 -2.9656652,2.93411 l 0,71.6808 c 0,1.6404 1.3251859,2.9341 2.9656652,2.9341 l 81.429594,0 c 1.640479,0 2.965665,-1.2937 2.965665,-2.9341 l 0,-71.6808 c 0,-1.64048 -1.325186,-2.93411 -2.965665,-2.93411 z"
       id="rect2991"
       inkscape:connector-curvature="0"
       sodipodi:nodetypes="sssssssss" />
    <rect
       style="fill:url(#radialGradient3816);fill-opacity:1;fill-rule:evenodd;stroke:none"
       id="rect3774"
       width="83"
       height="55.046398"
       x="6"
       y="967.36218" />
    <rect
       ry="4"
       y="1023.3604"
       x="41.492065"
       height="12"
       width="12"
       id="rect3780"
       style="fill:url(#linearGradient3788);fill-opacity:1;fill-rule:evenodd;stroke:#828282;stroke-opacity:1" />
    <rect
       style="fill:url(#linearGradient3796);fill-opacity:1;fill-rule:evenodd;stroke:none"
       id="rect3776"
       width="9"
       height="9"
       x="42.992065"
       y="1024.8599"
       ry="3" />
    <rect
       y="962.36218"
       x="6"
       height="4.9999928"
       width="83"
       id="rect3798"
       style="fill:#000000;fill-opacity:1;fill-rule:evenodd;stroke:none" />
    <path
       style="fill:#ffffff;fill-opacity:0.369863;fill-rule:nonzero;stroke:none"
       d="m 1,1036.3622 0.03125,2.75 c 0.03024,1.8058 1.4892106,3.25 3.3125,3.25 l 86.375,0 c 1.823288,0 3.28125,-1.4438 3.28125,-3.25 l -0.03125,-1.7813 c -0.115405,1.7001 -1.503024,3.0313 -3.25,3.0313 l -86.375,0 c -1.8232894,0 -3.28226,-1.4442 -3.3125,-3.25 l 0,-0.75 -0.03125,0 z"
       id="path3823"
       inkscape:connector-curvature="0" />
    <rect
       y="967.36224"
       x="-89"
       height="55.046398"
       width="83"
       id="rect3836"
       style="fill:url(#radialGradient3844);fill-opacity:1;fill-rule:evenodd;stroke:none"
       transform="scale(-1,1)" />
    <path
       style="fill:#ffffff;fill-opacity:0.23287671;fill-rule:evenodd;stroke:none"
       d="m 6.5079365,963.03943 0,58.67677 28.6223035,-0.031 L 45,963.03903 z"
       id="rect3818"
       inkscape:connector-curvature="0"
       sodipodi:nodetypes="ccccc" />
    <path
       style="fill:none;stroke:#6c6c6c;stroke-width:0.99999994;stroke-opacity:1"
       d="m 71.787508,1046.8622 0,-1.125 c -0.57211,0 -1.032691,-0.3345 -1.032691,-0.75 l 0,-0.375 c 0,-0.4155 0.460581,-0.75 1.032691,-0.75 l 5.6798,0 c 0.572112,0 1.032692,0.3345 1.032692,0.75 l 0,0.375 c 0,0.4155 -0.46058,0.75 -1.032692,0.75 l 0,1.125 -5.6798,0 z"
       id="rect3849"
       inkscape:connector-curvature="0" />
    <path
       sodipodi:type="arc"
       style="fill:none;stroke:#6c6c6c;stroke-width:1.49071193;stroke-linecap:round;stroke-linejoin:round;stroke-miterlimit:4;stroke-opacity:1;stroke-dasharray:none;stroke-dashoffset:0"
       id="path3854"
       sodipodi:cx="17.5"
       sodipodi:cy="89"
       sodipodi:rx="2.5"
       sodipodi:ry="2"
       d="m 20,89 a 2.5,2 0 1 1 -5,0 2.5,2 0 1 1 5,0 z"
       transform="matrix(0.6,0,0,0.75,10,978.61218)" />
    <rect
       style="fill:none;stroke:#6c6c6c;stroke-width:1;stroke-linecap:round;stroke-linejoin:round;stroke-miterlimit:4;stroke-opacity:1;stroke-dasharray:none;stroke-dashoffset:0"
       id="rect3856"
       width="23.5"
       height="2"
       x="30"
       y="1044.3622" />
    <path
       style="fill:#000000;fill-opacity:0.369863;fill-rule:nonzero;stroke:none"
       d="M 91.1875 42.21875 L 91.1875 37.8125 L 70.3125 47.34375 L 42.8125 59.875 C 42.694273 59.931 42.570648 59.9884 42.46875 60.0625 C 42.134047 60.2993 41.887435 60.6333 41.75 61 C 41.70483 61.1205 41.67771 61.2476 41.65625 61.375 C 41.6084 61.6373 41.62523 61.88585 41.6875 62.15625 C 41.71741 62.28675 41.754935 62.40435 41.8125 62.53125 C 41.8156 62.54125 41.8093 62.5545 41.8125 62.5625 C 41.87006 62.6894 41.921784 62.7667 42 62.875 C 42.477511 63.5361 43.300369 63.85835 44.09375 63.65625 C 44.210476 63.62925 44.323554 63.58045 44.4375 63.53125 L 44.5 63.53125 L 71.96875 51 L 91.1875 42.21875 z "
       id="path3916"
       transform="translate(0,956.36218)" />
    <path
       style="fill:#000000;fill-opacity:0.369863;fill-rule:nonzero;stroke:none"
       d="M 92.90625 41.4375 L 92.90625 37.03125 L 91.1875 37.8125 L 91.1875 42.21875 L 92.90625 41.4375 z "
       id="rect3889"
       transform="translate(0,956.36218)" />
    <g
       id="g4016"
       transform="matrix(1.1732269,-1.3407516,1.3378374,1.1757826,-1273.7863,-250.27377)">
      <rect
         ry="1.1296545"
         transform="translate(0,1004.3622)"
         y="19.559288"
         x="-47.711288"
         height="2.2593091"
         width="44.787479"
         id="rect3991"
         style="fill:url(#linearGradient3102);fill-opacity:1;fill-rule:nonzero;stroke:#606060;stroke-width:0.22433332;stroke-linecap:square;stroke-linejoin:round;stroke-miterlimit:4;stroke-opacity:1;stroke-dasharray:none;stroke-dashoffset:0" />
      <path
         transform="translate(0,1004.3622)"
         id="rect3995"
         d="m -29.625,21.8125 0,-2.25 -16.96875,0 c -0.625829,0 -1.125,0.499171 -1.125,1.125 0,0.625829 0.499171,1.125 1.125,1.125 l 16.96875,0 z"
         style="fill:url(#linearGradient3127);fill-opacity:1;fill-rule:nonzero;stroke:none"
         inkscape:connector-curvature="0" />
    </g>
  </g>
</svg>
