<?xml version="1.0" encoding="UTF-8" standalone="no"?>
<!-- Created with Inkscape (http://www.inkscape.org/) -->

<svg
   xmlns:dc="http://purl.org/dc/elements/1.1/"
   xmlns:cc="http://creativecommons.org/ns#"
   xmlns:rdf="http://www.w3.org/1999/02/22-rdf-syntax-ns#"
   xmlns:svg="http://www.w3.org/2000/svg"
   xmlns="http://www.w3.org/2000/svg"
   xmlns:sodipodi="http://sodipodi.sourceforge.net/DTD/sodipodi-0.dtd"
   xmlns:inkscape="http://www.inkscape.org/namespaces/inkscape"
   width="96"
   height="96"
   id="svg2"
   version="1.1"
   inkscape:version="0.48.4 r9939"
   sodipodi:docname="webservice-office-zoho.svg">
  <defs
     id="defs4" />
  <sodipodi:namedview
     id="base"
     pagecolor="#ffffff"
     bordercolor="#666666"
     borderopacity="1.0"
     inkscape:pageopacity="0.0"
     inkscape:pageshadow="2"
     inkscape:zoom="5.90625"
     inkscape:cx="48"
     inkscape:cy="48"
     inkscape:document-units="px"
     inkscape:current-layer="layer1"
     showgrid="true"
     inkscape:snap-page="true"
     inkscape:snap-global="true"
     inkscape:snap-center="true"
     inkscape:snap-object-midpoints="false"
     showguides="true"
     inkscape:guide-bbox="true"
     inkscape:snap-bbox="true"
     inkscape:object-paths="true"
     inkscape:object-nodes="true"
     inkscape:window-width="1305"
     inkscape:window-height="744"
     inkscape:window-x="61"
     inkscape:window-y="24"
     inkscape:window-maximized="1"
     inkscape:snap-midpoints="false"
     inkscape:snap-grids="true"
     inkscape:snap-to-guides="false">
    <inkscape:grid
       type="xygrid"
       id="grid3002"
       empspacing="5"
       visible="true"
       enabled="true"
       snapvisiblegridlinesonly="true" />
  </sodipodi:namedview>
  <metadata
     id="metadata7">
    <rdf:RDF>
      <cc:Work
         rdf:about="">
        <dc:format>image/svg+xml</dc:format>
        <dc:type
           rdf:resource="http://purl.org/dc/dcmitype/StillImage" />
        <dc:title />
      </cc:Work>
    </rdf:RDF>
  </metadata>
  <g
     inkscape:label="Layer 1"
     inkscape:groupmode="layer"
     id="layer1"
     transform="translate(0,-956.36218)">
    <rect
       style="fill:#ffffff;fill-opacity:0;fill-rule:nonzero;stroke:none"
       id="rect3775"
       width="96"
       height="96"
       x="0"
       y="956.36218"
       ry="0" />
    <path
       style="fill:#000000;fill-opacity:0.09589041;fill-rule:nonzero;stroke:none"
       d="m 3.353015,956.30662 c -1.884176,0 -3.4111555,1.43156 -3.4111555,3.19799 l 0,83.65949 c 0,1.7665 1.5269795,3.1981 3.4111555,3.1981 l 89.23583,0 c 1.884174,0 3.411155,-1.4316 3.411155,-3.1981 l 0,-83.65949 c 0,-1.76643 -1.526981,-3.19799 -3.411155,-3.19799 z"
       id="rect3772"
       inkscape:connector-curvature="0"
       sodipodi:nodetypes="sssssssss" />
    <path
       style="fill:#000000;fill-opacity:0.18721463;fill-rule:nonzero;stroke:none"
       d="m 1.0459761,1041.8066 0,7.4219 c 0,1.7392 1.461916,3.1337 3.2852054,3.1337 l 86.3836135,0 c 1.823288,0 3.285205,-1.3945 3.285205,-3.1337 l 0,-7.4219 -92.9540239,0 z"
       id="rect3785"
       inkscape:connector-curvature="0" />
    <path
       style="fill:#000000;fill-opacity:0.38356168;fill-rule:nonzero;stroke:none"
       d="m 1.0459761,1041.8066 0,5.3807 c 0,1.762 1.461916,3.1749 3.2852054,3.1749 l 86.3836135,0 c 1.823288,0 3.285205,-1.4129 3.285205,-3.1749 l 0,-5.3807 -92.9540239,0 z"
       id="rect3783"
       inkscape:connector-curvature="0" />
    <rect
       style="fill:#ff993f;fill-opacity:1;fill-rule:nonzero;stroke:none"
       id="rect2985"
       width="92.954025"
       height="89"
       x="1.045977"
       y="957.36218"
       ry="3.1511393" />
    <path
       style="fill:#000000;fill-opacity:0.38356168;fill-rule:nonzero;stroke:none"
       d="m 1,1042.3622 0.045976,2.7457 c 0.03024,1.8058 1.461916,3.2543 3.2852054,3.2543 l 86.3836136,0 c 1.823288,0 3.285205,-1.4481 3.285205,-3.2543 l -0.04598,-2.7457 z"
       id="rect3781"
       inkscape:connector-curvature="0"
       sodipodi:nodetypes="csssscc" />
    <rect
       style="fill:#ffffff;fill-opacity:0.30000001;fill-rule:nonzero;stroke:none"
       id="rect3770"
       width="92.954033"
       height="2.000005"
       x="1.045976"
       y="1040.3622" />
    <path
       sodipodi:nodetypes="cssssccssssscsccsscscsccssscssscssssssscsssssssssc"
       inkscape:connector-curvature="0"
       id="path3125"
       d="m 67.410743,963.76931 c -2.957211,0.076 -5.542087,1.2522 -7.646186,3.4924 -3.36203,3.5795 -4.79996,9.5771 -3.172983,13.2489 0.957315,2.1604 2.95371,2.8985 5.3559,1.9992 3.276163,-1.2262 7.917752,-5.9744 9.900688,-10.1358 2.429212,-5.098 1.287632,-8.2336 -3.137209,-8.5796 -0.43714,-0.034 -0.877752,-0.036 -1.30021,-0.025 z m -19.395793,2.2649 c -1.618368,0.034 -3.363609,1.16 -4.258482,3.1004 -1.267047,2.7472 -0.707635,7.7287 1.1332,10.0978 1.287641,1.6573 2.30252,1.7242 3.745567,0.2406 1.905612,-1.9594 3.358415,-7.2174 2.791274,-10.0979 -0.15817,-0.8036 -0.535441,-1.7436 -0.858851,-2.1514 -0.656824,-0.8281 -1.581695,-1.2096 -2.552708,-1.1895 z m -12.05974,5.2262 c -0.14344,8e-4 -0.291404,0.021 -0.441358,0.038 -1.329393,0.2551 -2.507857,1.2047 -3.101426,2.5054 -0.446285,0.9782 -0.506096,1.4274 -0.393638,2.8219 0.278779,3.4572 2.694666,7.2089 4.65213,7.2382 0.20834,0 0.648397,-0.2183 0.978139,-0.4934 1.05667,-0.8817 1.459423,-2.4962 1.455281,-5.8462 -0.0038,-2.7417 -0.06428,-3.0843 -0.632213,-4.2266 -0.678748,-1.3651 -1.512806,-2.0423 -2.516915,-2.0372 z m -9.507042,8.1493 c -0.42502,0.042 -0.859721,0.2251 -1.300209,0.5441 -2.183471,1.5811 -2.163538,5.0102 0.04773,7.972 1.213654,1.6256 2.470734,2.4529 3.578559,2.3664 0.813617,-0.063 1.005352,-0.2005 1.371786,-0.949 0.631974,-1.2913 0.434031,-4.5332 -0.417503,-6.7701 -0.832949,-2.1881 -2.0053,-3.2909 -3.280353,-3.1634 z m 26.469415,6.213 c -3.45796,0 -7.715715,0.6644 -10.86689,1.7716 -5.931105,2.0843 -11.102166,6.24064 -12.990178,10.43964 -1.16709,2.59575 -1.414619,3.74235 -1.407569,6.44085 0.0077,2.992 0.508468,5.1479 1.94435,8.3391 1.874132,4.165 4.26097,7.3646 7.598475,10.2118 5.491831,4.6853 11.904047,6.6344 16.711879,5.0617 5.620656,-1.8385 10.31427,-6.9419 11.558752,-12.5655 0.408215,-1.8446 -0.04237,-2.9295 -1.538785,-3.6317 -0.965934,-0.4533 -1.418091,-0.4951 -3.471198,-0.3797 -2.770297,0.1561 -4.653029,0.8089 -5.880772,2.0372 -0.756351,0.7568 -0.81115,0.9302 -0.81115,2.2905 0,4.7168 -4.008505,6.0801 -7.586537,2.5816 -3.019634,-2.953 -2.304261,-5.4392 2.660058,-9.2375 0.451478,-0.3456 2.539986,-1.7807 4.640202,-3.1888 4.69699,-3.1496 5.831253,-4.0496 7.860906,-6.18795 2.140552,-2.2551 3.041768,-4.1729 3.041768,-6.46638 0,-3.95676 -2.718932,-6.33416 -8.349976,-7.28866 -0.904573,-0.154 -1.960688,-0.2285 -3.113335,-0.2278 z"
       style="fill:#552200" />
    <path
       style="fill:#ffffff"
       d="m 67.410743,965.77391 c -2.957211,0.073 -5.542087,1.2133 -7.646186,3.3841 -3.36203,3.4685 -4.79996,9.2802 -3.172983,12.8381 0.957315,2.0935 2.95371,2.8086 5.3559,1.9373 3.276163,-1.1882 7.917752,-5.7892 9.900688,-9.8216 2.429212,-4.9399 1.287632,-7.9783 -3.137209,-8.3136 -0.43714,-0.033 -0.877752,-0.035 -1.30021,-0.025 z m -19.395793,2.1946 c -1.618368,0.033 -3.363609,1.1241 -4.258482,3.0043 -1.267047,2.662 -0.707635,7.4891 1.1332,9.7848 1.287641,1.6059 2.30252,1.6707 3.745567,0.233 1.905612,-1.8986 3.358415,-6.9935 2.791274,-9.7847 -0.15817,-0.7788 -0.535441,-1.6895 -0.858851,-2.0847 -0.656824,-0.8025 -1.581695,-1.1721 -2.552708,-1.1527 z m -12.05974,5.0643 c -0.14344,7e-4 -0.291404,0.02 -0.441358,0.037 -1.329393,0.2471 -2.507857,1.1673 -3.101426,2.4277 -0.446285,0.9478 -0.506096,1.383 -0.393638,2.7344 0.278779,3.35 2.694666,6.9854 4.65213,7.0138 0.20834,0 0.648397,-0.2116 0.978139,-0.4782 1.05667,-0.8544 1.459423,-2.4188 1.455281,-5.6649 -0.0038,-2.6567 -0.06428,-2.9887 -0.632213,-4.0956 -0.678748,-1.3227 -1.512806,-1.979 -2.516915,-1.974 z m -9.507042,7.8965 c -0.42502,0.041 -0.859721,0.2182 -1.300209,0.5273 -2.183471,1.532 -2.163538,4.8548 0.04773,7.7248 1.213654,1.5752 2.470734,2.3768 3.578559,2.293 0.813617,-0.061 1.005352,-0.1942 1.371786,-0.9196 0.631974,-1.2512 0.434031,-4.3926 -0.417503,-6.5601 -0.832949,-2.1203 -2.0053,-3.1889 -3.280353,-3.0654 z m 26.469415,6.0204 c -3.45796,0 -7.715715,0.6438 -10.86689,1.7167 -5.931105,2.0197 -11.102166,6.04714 -12.990178,10.11604 -1.16709,2.51515 -1.414619,3.62635 -1.407569,6.24115 0.0077,2.8991 0.508468,4.9882 1.94435,8.0805 1.874132,4.0359 4.26097,7.1362 7.598475,9.8952 5.491831,4.54 11.904047,6.4286 16.711879,4.9047 5.620656,-1.7815 10.31427,-6.7267 11.558752,-12.1759 0.408215,-1.7874 -0.04237,-2.8387 -1.538785,-3.5191 -0.965934,-0.4393 -1.418091,-0.4797 -3.471198,-0.3679 -2.770297,0.1512 -4.653029,0.7838 -5.880772,1.974 -0.756351,0.7333 -0.81115,0.9014 -0.81115,2.2195 0,4.5705 -4.008505,5.8916 -7.586537,2.5016 -3.019634,-2.8615 -2.304261,-5.2706 2.660058,-8.9512 0.451478,-0.3349 2.539986,-1.7255 4.640202,-3.0899 4.69699,-3.0519 5.831253,-3.924 7.860906,-5.9961 2.140552,-2.18515 3.041768,-4.04355 3.041768,-6.26585 0,-3.83414 -2.718932,-6.13774 -8.349976,-7.06264 -0.904573,-0.1492 -1.960688,-0.2214 -3.113335,-0.2208 z"
       id="path128"
       inkscape:connector-curvature="0"
       sodipodi:nodetypes="cssssccssssscsccsscscsccssscssscssssssscsssssssssc" />
  </g>
</svg>
