<?xml version="1.0" encoding="UTF-8" standalone="no"?>
<!-- Created with Inkscape (http://www.inkscape.org/) -->

<svg
   xmlns:dc="http://purl.org/dc/elements/1.1/"
   xmlns:cc="http://creativecommons.org/ns#"
   xmlns:rdf="http://www.w3.org/1999/02/22-rdf-syntax-ns#"
   xmlns:svg="http://www.w3.org/2000/svg"
   xmlns="http://www.w3.org/2000/svg"
   xmlns:xlink="http://www.w3.org/1999/xlink"
   xmlns:sodipodi="http://sodipodi.sourceforge.net/DTD/sodipodi-0.dtd"
   xmlns:inkscape="http://www.inkscape.org/namespaces/inkscape"
   width="96"
   height="96"
   id="svg2"
   version="1.1"
   inkscape:version="0.48.4 r9939"
   sodipodi:docname="wine-winecfg.svg">
  <defs
     id="defs4">
    <linearGradient
       id="linearGradient3851">
      <stop
         style="stop-color:#ffa3d6;stop-opacity:1;"
         offset="0"
         id="stop3853" />
      <stop
         style="stop-color:#d90078;stop-opacity:1;"
         offset="1"
         id="stop3855" />
    </linearGradient>
    <linearGradient
       id="linearGradient3843">
      <stop
         style="stop-color:#a9dcff;stop-opacity:1;"
         offset="0"
         id="stop3845" />
      <stop
         style="stop-color:#0098ff;stop-opacity:1;"
         offset="1"
         id="stop3847" />
    </linearGradient>
    <linearGradient
       id="linearGradient3835">
      <stop
         style="stop-color:#ffe6b0;stop-opacity:1;"
         offset="0"
         id="stop3837" />
      <stop
         style="stop-color:#ffaf01;stop-opacity:1;"
         offset="1"
         id="stop3839" />
    </linearGradient>
    <linearGradient
       id="linearGradient3827">
      <stop
         style="stop-color:#c0fba6;stop-opacity:1;"
         offset="0"
         id="stop3829" />
      <stop
         style="stop-color:#3ab106;stop-opacity:1;"
         offset="1"
         id="stop3831" />
    </linearGradient>
    <linearGradient
       id="linearGradient3770">
      <stop
         style="stop-color:#004ae2;stop-opacity:1;"
         offset="0"
         id="stop3772" />
      <stop
         style="stop-color:#00bce2;stop-opacity:1;"
         offset="1"
         id="stop3774" />
    </linearGradient>
    <linearGradient
       inkscape:collect="always"
       xlink:href="#linearGradient3770"
       id="linearGradient3776"
       x1="45"
       y1="-1047.3622"
       x2="45"
       y2="-957.36218"
       gradientUnits="userSpaceOnUse" />
    <radialGradient
       inkscape:collect="always"
       xlink:href="#linearGradient3827"
       id="radialGradient3833"
       cx="52.026966"
       cy="38.690098"
       fx="52.026966"
       fy="38.690098"
       r="12.5"
       gradientUnits="userSpaceOnUse" />
    <radialGradient
       inkscape:collect="always"
       xlink:href="#linearGradient3835"
       id="radialGradient3841"
       cx="49.458385"
       cy="40.072826"
       fx="49.458385"
       fy="40.072826"
       r="12.5"
       gradientUnits="userSpaceOnUse" />
    <radialGradient
       inkscape:collect="always"
       xlink:href="#linearGradient3843"
       id="radialGradient3849"
       cx="53.375153"
       cy="40.888821"
       fx="53.375153"
       fy="40.888821"
       r="12.5"
       gradientUnits="userSpaceOnUse" />
    <radialGradient
       inkscape:collect="always"
       xlink:href="#linearGradient3851"
       id="radialGradient3857"
       cx="51.612606"
       cy="39.779068"
       fx="51.612606"
       fy="39.779068"
       r="12.5"
       gradientUnits="userSpaceOnUse" />
  </defs>
  <sodipodi:namedview
     id="base"
     pagecolor="#ffffff"
     bordercolor="#666666"
     borderopacity="1.0"
     inkscape:pageopacity="0.0"
     inkscape:pageshadow="2"
     inkscape:zoom="5.90625"
     inkscape:cx="48"
     inkscape:cy="48"
     inkscape:document-units="px"
     inkscape:current-layer="layer1"
     showgrid="true"
     inkscape:snap-page="true"
     inkscape:snap-global="true"
     inkscape:snap-center="true"
     inkscape:snap-object-midpoints="false"
     showguides="true"
     inkscape:guide-bbox="true"
     inkscape:snap-bbox="true"
     inkscape:object-paths="true"
     inkscape:object-nodes="true"
     inkscape:window-width="1305"
     inkscape:window-height="744"
     inkscape:window-x="61"
     inkscape:window-y="24"
     inkscape:window-maximized="1"
     inkscape:snap-midpoints="true"
     inkscape:snap-grids="true"
     inkscape:snap-to-guides="false">
    <inkscape:grid
       type="xygrid"
       id="grid3002"
       empspacing="5"
       visible="true"
       enabled="true"
       snapvisiblegridlinesonly="true" />
  </sodipodi:namedview>
  <metadata
     id="metadata7">
    <rdf:RDF>
      <cc:Work
         rdf:about="">
        <dc:format>image/svg+xml</dc:format>
        <dc:type
           rdf:resource="http://purl.org/dc/dcmitype/StillImage" />
        <dc:title />
      </cc:Work>
    </rdf:RDF>
  </metadata>
  <g
     inkscape:label="Layer 1"
     inkscape:groupmode="layer"
     id="layer1"
     transform="translate(0,-956.36218)">
    <rect
       style="fill:#ffffff;fill-opacity:0;fill-rule:nonzero;stroke:none"
       id="rect3775"
       width="96"
       height="96"
       x="0"
       y="956.36218"
       ry="0" />
    <path
       style="fill:#000000;fill-opacity:0.09589041;fill-rule:nonzero;stroke:none"
       d="m 3.353015,956.30662 c -1.884176,0 -3.4111555,1.43156 -3.4111555,3.19799 l 0,83.65949 c 0,1.7665 1.5269795,3.1981 3.4111555,3.1981 l 89.23583,0 c 1.884174,0 3.411155,-1.4316 3.411155,-3.1981 l 0,-83.65949 c 0,-1.76643 -1.526981,-3.19799 -3.411155,-3.19799 z"
       id="rect3772"
       inkscape:connector-curvature="0"
       sodipodi:nodetypes="sssssssss" />
    <path
       style="fill:#000000;fill-opacity:0.18721463;fill-rule:nonzero;stroke:none"
       d="m 1.0459761,1041.8066 0,7.4219 c 0,1.7392 1.461916,3.1337 3.2852054,3.1337 l 86.3836135,0 c 1.823288,0 3.285205,-1.3945 3.285205,-3.1337 l 0,-7.4219 -92.9540239,0 z"
       id="rect3785"
       inkscape:connector-curvature="0" />
    <path
       style="fill:#000000;fill-opacity:0.38356168;fill-rule:nonzero;stroke:none"
       d="m 1.0459761,1041.8066 0,5.3807 c 0,1.762 1.461916,3.1749 3.2852054,3.1749 l 86.3836135,0 c 1.823288,0 3.285205,-1.4129 3.285205,-3.1749 l 0,-5.3807 -92.9540239,0 z"
       id="rect3783"
       inkscape:connector-curvature="0" />
    <rect
       style="fill:url(#linearGradient3776);fill-opacity:1;fill-rule:nonzero;stroke:none"
       id="rect2985"
       width="92.954025"
       height="89"
       x="1.045977"
       y="-1046.3622"
       ry="3.1511393"
       transform="scale(1,-1)" />
    <path
       style="fill:#000000;fill-opacity:0.38356168;fill-rule:nonzero;stroke:none"
       d="m 1,1042.3622 0.045976,2.7457 c 0.03024,1.8058 1.461916,3.2543 3.2852054,3.2543 l 86.3836136,0 c 1.823288,0 3.285205,-1.4481 3.285205,-3.2543 l -0.04598,-2.7457 z"
       id="rect3781"
       inkscape:connector-curvature="0"
       sodipodi:nodetypes="csssscc" />
    <rect
       style="fill:#ffffff;fill-opacity:0.30000001;fill-rule:nonzero;stroke:none"
       id="rect3770"
       width="92.954033"
       height="2.000005"
       x="1.045976"
       y="1040.3622" />
    <path
       sodipodi:type="arc"
       style="fill:url(#radialGradient3841);fill-opacity:1;fill-rule:nonzero;stroke:none"
       id="path3784"
       sodipodi:cx="47.5"
       sodipodi:cy="43.5"
       sodipodi:rx="12.5"
       sodipodi:ry="12.5"
       d="m 60,43.5 a 12.5,12.5 0 1 1 -25,0 12.5,12.5 0 1 1 25,0 z"
       transform="matrix(-0.59999998,0,0,0.60000014,65.999999,981.76217)" />
    <path
       sodipodi:type="arc"
       style="fill:url(#radialGradient3849);fill-opacity:1;fill-rule:nonzero;stroke:none"
       id="path3782"
       sodipodi:cx="47.5"
       sodipodi:cy="43.5"
       sodipodi:rx="12.5"
       sodipodi:ry="12.5"
       d="m 60,43.5 a 12.5,12.5 0 1 1 -25,0 12.5,12.5 0 1 1 25,0 z"
       transform="matrix(-0.60000002,0,0,0.5999998,85.984129,981.76219)" />
    <path
       sodipodi:type="arc"
       style="fill:url(#radialGradient3833);fill-opacity:1;fill-rule:nonzero;stroke:none"
       id="path3778"
       sodipodi:cx="47.5"
       sodipodi:cy="43.5"
       sodipodi:rx="12.5"
       sodipodi:ry="12.5"
       d="m 60,43.5 a 12.5,12.5 0 1 1 -25,0 12.5,12.5 0 1 1 25,0 z"
       transform="matrix(-0.6,0,0,0.6000001,65.984128,1001.7622)" />
    <path
       transform="matrix(-0.59999998,0,0,0.60000008,85.984127,1001.7622)"
       d="m 60,43.5 a 12.5,12.5 0 1 1 -25,0 12.5,12.5 0 1 1 25,0 z"
       sodipodi:ry="12.5"
       sodipodi:rx="12.5"
       sodipodi:cy="43.5"
       sodipodi:cx="47.5"
       id="path3780"
       style="fill:url(#radialGradient3857);fill-opacity:1;fill-rule:nonzero;stroke:none"
       sodipodi:type="arc" />
    <path
       style="fill:#ffffff;fill-opacity:1;fill-rule:nonzero;stroke:none"
       d="m 74.175296,996.04298 c 4.676571,0 8.44896,-3.77219 8.44896,-8.44879 l 0,-11.8186 c 0,-4.6765 -3.772389,-8.4489 -8.44896,-8.4489 l -53.197154,0 c -4.676571,0 -8.44896,3.7724 -8.44896,8.4489 l 0,11.8186 c 0,4.6766 3.772389,8.44879 8.44896,8.44879 z"
       id="rect2987"
       inkscape:connector-curvature="0"
       sodipodi:nodetypes="sssssssss" />
    <path
       style="fill:#aaccff;fill-opacity:1;fill-rule:nonzero;stroke:none"
       d="m 40.170469,994.96608 c 4.001133,0 7.375,-3.33989 7.375,-7.34369 l 0,-11.8437 c 0,-4.0039 -3.373922,-7.3438 -7.375,-7.3438 l -19.1875,0 c -4.001129,0 -7.375,3.3399 -7.375,7.3438 l 0,11.8437 c 0,4.0038 3.373867,7.34369 7.375,7.34369 z"
       id="path2997"
       inkscape:connector-curvature="0"
       sodipodi:nodetypes="sssssssss" />
    <path
       style="fill:#003380;fill-opacity:1;fill-rule:nonzero;stroke:none"
       d="m 40.170469,992.09119 c 2.54784,0 4.5,-1.9386 4.5,-4.4688 l 0,-11.8437 c 0,-2.5302 -1.9522,-4.4688 -4.5,-4.4688 l -19.1875,0 c -2.547744,0 -4.5,1.9387 -4.5,4.4688 l 0,11.8437 c 0,2.5302 1.95216,4.4688 4.5,4.4688 z"
       id="path2992"
       inkscape:connector-curvature="0"
       sodipodi:nodetypes="sssssssss" />
    <path
       style="fill:#ffffff;fill-opacity:1;fill-rule:nonzero;stroke:none"
       d="m 20.920449,974.09112 c -0.690831,0 -1.25,0.55917 -1.25,1.25 l 0,0.71875 c 0,0.69083 0.559169,1.25 1.25,1.25 l 0.5,0 c 0.690831,0 1.25,-0.55917 1.25,-1.25 l 0,-0.71875 c 0,-0.69083 -0.559169,-1.25 -1.25,-1.25 z m 6,0 c -0.690831,0 -1.25,0.55917 -1.25,1.25 l 0,0.71875 c 0,0.69083 0.559169,1.25 1.25,1.25 l 0.5,0 c 0.690831,0 1.25,-0.55917 1.25,-1.25 l 0,-0.71875 c 0,-0.69083 -0.559169,-1.25 -1.25,-1.25 z m 6,0 c -0.690831,0 -1.25,0.55917 -1.25,1.25 l 0,0.71875 c 0,0.69083 0.559169,1.25 1.25,1.25 l 0.5,0 c 0.690831,0 1.25,-0.55917 1.25,-1.25 l 0,-0.71875 c 0,-0.69083 -0.559169,-1.25 -1.25,-1.25 z m 6,0 c -0.690831,0 -1.25,0.55917 -1.25,1.25 l 0,0.71875 c 0,0.69083 0.559169,1.25 1.25,1.25 l 0.5,0 c 0.690831,0 1.25,-0.55917 1.25,-1.25 l 0,-0.71875 c 0,-0.69083 -0.559169,-1.25 -1.25,-1.25 z"
       id="rect2989"
       inkscape:connector-curvature="0"
       sodipodi:nodetypes="ssssssssssssssssssssssssssssssssssss" />
    <path
       sodipodi:nodetypes="ssssssssssssssssssssssssssssssssssss"
       inkscape:connector-curvature="0"
       id="path2994"
       d="m 20.920449,980.09112 c -0.690831,0 -1.25,0.55917 -1.25,1.25 l 0,0.71875 c 0,0.69083 0.559169,1.25 1.25,1.25 l 0.5,0 c 0.690831,0 1.25,-0.55917 1.25,-1.25 l 0,-0.71875 c 0,-0.69083 -0.559169,-1.25 -1.25,-1.25 z m 6,0 c -0.690831,0 -1.25,0.55917 -1.25,1.25 l 0,0.71875 c 0,0.69083 0.559169,1.25 1.25,1.25 l 0.5,0 c 0.690831,0 1.25,-0.55917 1.25,-1.25 l 0,-0.71875 c 0,-0.69083 -0.559169,-1.25 -1.25,-1.25 z m 6,0 c -0.690831,0 -1.25,0.55917 -1.25,1.25 l 0,0.71875 c 0,0.69083 0.559169,1.25 1.25,1.25 l 0.5,0 c 0.690831,0 1.25,-0.55917 1.25,-1.25 l 0,-0.71875 c 0,-0.69083 -0.559169,-1.25 -1.25,-1.25 z m 6,0 c -0.690831,0 -1.25,0.55917 -1.25,1.25 l 0,0.71875 c 0,0.69083 0.559169,1.25 1.25,1.25 l 0.5,0 c 0.690831,0 1.25,-0.55917 1.25,-1.25 l 0,-0.71875 c 0,-0.69083 -0.559169,-1.25 -1.25,-1.25 z"
       style="fill:#ffffff;fill-opacity:1;fill-rule:nonzero;stroke:none" />
    <path
       style="fill:#ffffff;fill-opacity:1;fill-rule:nonzero;stroke:none"
       d="m 20.920449,986.09112 c -0.690831,0 -1.25,0.55917 -1.25,1.25 l 0,0.71875 c 0,0.69083 0.559169,1.25 1.25,1.25 l 0.5,0 c 0.690831,0 1.25,-0.55917 1.25,-1.25 l 0,-0.71875 c 0,-0.69083 -0.559169,-1.25 -1.25,-1.25 z m 6,0 c -0.690831,0 -1.25,0.55917 -1.25,1.25 l 0,0.71875 c 0,0.69083 0.559169,1.25 1.25,1.25 l 0.5,0 c 0.690831,0 1.25,-0.55917 1.25,-1.25 l 0,-0.71875 c 0,-0.69083 -0.559169,-1.25 -1.25,-1.25 z m 6,0 c -0.690831,0 -1.25,0.55917 -1.25,1.25 l 0,0.71875 c 0,0.69083 0.559169,1.25 1.25,1.25 l 0.5,0 c 0.690831,0 1.25,-0.55917 1.25,-1.25 l 0,-0.71875 c 0,-0.69083 -0.559169,-1.25 -1.25,-1.25 z m 6,0 c -0.690831,0 -1.25,0.55917 -1.25,1.25 l 0,0.71875 c 0,0.69083 0.559169,1.25 1.25,1.25 l 0.5,0 c 0.690831,0 1.25,-0.55917 1.25,-1.25 l 0,-0.71875 c 0,-0.69083 -0.559169,-1.25 -1.25,-1.25 z"
       id="path2996"
       inkscape:connector-curvature="0"
       sodipodi:nodetypes="ssssssssssssssssssssssssssssssssssss" />
  </g>
</svg>
