<?xml version="1.0" encoding="UTF-8" standalone="no"?>
<!-- Created with Inkscape (http://www.inkscape.org/) -->

<svg
   xmlns:dc="http://purl.org/dc/elements/1.1/"
   xmlns:cc="http://creativecommons.org/ns#"
   xmlns:rdf="http://www.w3.org/1999/02/22-rdf-syntax-ns#"
   xmlns:svg="http://www.w3.org/2000/svg"
   xmlns="http://www.w3.org/2000/svg"
   xmlns:xlink="http://www.w3.org/1999/xlink"
   xmlns:sodipodi="http://sodipodi.sourceforge.net/DTD/sodipodi-0.dtd"
   xmlns:inkscape="http://www.inkscape.org/namespaces/inkscape"
   width="96"
   height="96"
   id="svg2"
   version="1.1"
   inkscape:version="0.48.4 r9939"
   sodipodi:docname="winff.svg">
  <defs
     id="defs4">
    <linearGradient
       id="linearGradient3770">
      <stop
         style="stop-color:#004ae2;stop-opacity:1;"
         offset="0"
         id="stop3772" />
      <stop
         style="stop-color:#00bce2;stop-opacity:1;"
         offset="1"
         id="stop3774" />
    </linearGradient>
    <linearGradient
       inkscape:collect="always"
       xlink:href="#linearGradient3770"
       id="linearGradient3776"
       x1="45"
       y1="-1047.3622"
       x2="45"
       y2="-957.36218"
       gradientUnits="userSpaceOnUse" />
    <linearGradient
       inkscape:collect="always"
       xlink:href="#linearGradient3965"
       id="linearGradient3203"
       gradientUnits="userSpaceOnUse"
       x1="2.25"
       y1="1005.081"
       x2="94.25"
       y2="1005.081"
       gradientTransform="matrix(1.0111916,0,0,1.1464564,-1.3047699,-152.56465)" />
    <linearGradient
       id="linearGradient3965">
      <stop
         style="stop-color:#00002b;stop-opacity:1;"
         offset="0"
         id="stop3967" />
      <stop
         style="stop-color:#760063;stop-opacity:1;"
         offset="1"
         id="stop3969" />
    </linearGradient>
  </defs>
  <sodipodi:namedview
     id="base"
     pagecolor="#ffffff"
     bordercolor="#666666"
     borderopacity="1.0"
     inkscape:pageopacity="0.0"
     inkscape:pageshadow="2"
     inkscape:zoom="4.1763494"
     inkscape:cx="5.6184888"
     inkscape:cy="48"
     inkscape:document-units="px"
     inkscape:current-layer="layer1"
     showgrid="true"
     inkscape:snap-page="true"
     inkscape:snap-global="true"
     inkscape:snap-center="true"
     inkscape:snap-object-midpoints="false"
     showguides="true"
     inkscape:guide-bbox="true"
     inkscape:snap-bbox="true"
     inkscape:object-paths="true"
     inkscape:object-nodes="true"
     inkscape:window-width="1305"
     inkscape:window-height="744"
     inkscape:window-x="61"
     inkscape:window-y="24"
     inkscape:window-maximized="1"
     inkscape:snap-midpoints="false"
     inkscape:snap-grids="true"
     inkscape:snap-to-guides="false">
    <inkscape:grid
       type="xygrid"
       id="grid3002"
       empspacing="5"
       visible="true"
       enabled="true"
       snapvisiblegridlinesonly="true" />
  </sodipodi:namedview>
  <metadata
     id="metadata7">
    <rdf:RDF>
      <cc:Work
         rdf:about="">
        <dc:format>image/svg+xml</dc:format>
        <dc:type
           rdf:resource="http://purl.org/dc/dcmitype/StillImage" />
        <dc:title />
      </cc:Work>
    </rdf:RDF>
  </metadata>
  <g
     inkscape:label="Layer 1"
     inkscape:groupmode="layer"
     id="layer1"
     transform="translate(0,-956.36218)">
    <rect
       style="fill:#ffffff;fill-opacity:0;fill-rule:nonzero;stroke:none"
       id="rect3775"
       width="96"
       height="96"
       x="0"
       y="956.36218"
       ry="0" />
    <path
       style="fill:#000000;fill-opacity:0.09589041;fill-rule:nonzero;stroke:none"
       d="m 3.353015,956.30662 c -1.884176,0 -3.4111555,1.43156 -3.4111555,3.19799 l 0,83.65949 c 0,1.7665 1.5269795,3.1981 3.4111555,3.1981 l 89.23583,0 c 1.884174,0 3.411155,-1.4316 3.411155,-3.1981 l 0,-83.65949 c 0,-1.76643 -1.526981,-3.19799 -3.411155,-3.19799 z"
       id="rect3772"
       inkscape:connector-curvature="0"
       sodipodi:nodetypes="sssssssss" />
    <path
       style="fill:#000000;fill-opacity:0.18721463;fill-rule:nonzero;stroke:none"
       d="m 1.0459761,1041.8066 0,7.4219 c 0,1.7392 1.461916,3.1337 3.2852054,3.1337 l 86.3836135,0 c 1.823288,0 3.285205,-1.3945 3.285205,-3.1337 l 0,-7.4219 -92.9540239,0 z"
       id="rect3785"
       inkscape:connector-curvature="0" />
    <path
       style="fill:#000000;fill-opacity:0.38356168;fill-rule:nonzero;stroke:none"
       d="m 1.0459761,1041.8066 0,5.3807 c 0,1.762 1.461916,3.1749 3.2852054,3.1749 l 86.3836135,0 c 1.823288,0 3.285205,-1.4129 3.285205,-3.1749 l 0,-5.3807 -92.9540239,0 z"
       id="rect3783"
       inkscape:connector-curvature="0" />
    <rect
       style="fill:url(#linearGradient3776);fill-opacity:1;fill-rule:nonzero;stroke:none"
       id="rect2985"
       width="92.954025"
       height="89"
       x="1.045977"
       y="-1046.3622"
       ry="3.1511393"
       transform="scale(1,-1)" />
    <path
       style="fill:#000000;fill-opacity:0.38356168;fill-rule:nonzero;stroke:none"
       d="m 1,1042.3622 0.045976,2.7457 c 0.03024,1.8058 1.461916,3.2543 3.2852054,3.2543 l 86.3836136,0 c 1.823288,0 3.285205,-1.4481 3.285205,-3.2543 l -0.04598,-2.7457 z"
       id="rect3781"
       inkscape:connector-curvature="0"
       sodipodi:nodetypes="csssscc" />
    <rect
       style="fill:#ffffff;fill-opacity:0.30000001;fill-rule:nonzero;stroke:none"
       id="rect3770"
       width="92.954033"
       height="2.000005"
       x="1.045976"
       y="1040.3622" />
    <path
       inkscape:connector-curvature="0"
       style="fill:url(#linearGradient3203);fill-opacity:1;stroke:none"
       d="m 1.0020053,976.14286 c -0.005335,0.43349 -0.0315853,0.9001 -0.0315853,1.32559 l 0,42.52635 c 0,1.052 0.0607164,2.19 0.094756,3.2961 l 43.038841,0 49.801184,0 c 0.03411,-1.1061 0.0948,-2.2441 0.0948,-3.2961 l 0,-28.23146 -0.0316,-0.2508 -2.685977,19.74046 a 0.91245048,1.034507 0 0 1 -1.801185,0 l -1.327189,-10.0673 -0.252798,1.1465 a 0.91245048,1.034507 0 0 1 -1.769585,-0.035 l -0.789994,-3.58265 -2.243581,22.49915 a 0.91245048,1.034507 0 0 1 -1.801185,0 l 0,-0.2149 -1.990783,-24.82801 -1.516787,11.78701 a 0.91245048,1.034507 0 0 1 -1.801185,0 l -2.622779,-19.0598 -2.022383,24.8278 a 0.91652855,1.0391306 0 0 1 -1.832785,0.035 l -1.801184,-14.65319 -0.916393,6.23389 a 0.91245048,1.034507 0 0 1 -1.801185,0 l -2.43318,-13.68576 -0.979591,7.41607 0,0.035 -1.769586,18.80911 a 0.91245048,1.034507 0 0 1 -1.801184,0 L 56.017117,999.14271 53.36274,985.49272 50.708362,999.0352 a 0.91245048,1.034507 0 0 1 -0.916392,0.7881 l -2.306781,-0.035 a 0.91245048,1.034507 0 1 1 0,-2.04204 l 1.611587,0 3.381171,-17.19684 a 0.91245048,1.034507 0 0 1 1.769586,0 l 3.57077,18.16418 a 0.91245048,1.034507 0 0 1 0,0.0711 l 1.042791,9.88826 0.916392,-9.81655 a 0.91245048,1.034507 0 0 1 0,-0.035 l 1.769586,-13.29164 a 0.91245048,1.034507 0 0 1 1.801184,-0.0358 l 2.46478,13.90076 1.074391,-7.30862 a 0.91247064,1.0345298 0 1 1 1.801185,0.0358 l 1.548387,12.57514 1.990784,-24.32631 a 0.91245048,1.034507 0 0 1 0.758393,-0.9315 0.91245048,1.034507 0 0 1 1.074391,0.85985 l 2.812377,20.52866 1.706386,-13.4708 0.0316,-0.21496 a 0.91245048,1.034507 0 0 1 1.801184,0.0358 l 1.895985,23.78886 1.801185,-18.30736 a 0.91245048,1.034507 0 0 1 1.801184,-0.14332 l 1.105991,5.23073 0.473996,-2.04201 a 0.91245048,1.034507 0 0 1 1.801185,0.10727 l 1.10599,8.45499 2.685978,-19.74047 A 0.91245048,1.034507 0 0 1 94,983.70258 l 0,-6.23386 c 0,-0.4255 -0.02632,-0.8921 -0.0316,-1.32559 l -49.864383,0 -43.102037,0 z m 4.6767639,2.04212 2.7807794,0 c 0.922964,0 1.6431844,0.71408 1.6431844,1.61222 l 0,3.6185 c 0,0.89812 -0.7202204,1.6122 -1.6431844,1.6122 l -2.7807794,0 c -0.9229641,0 -1.6431844,-0.71408 -1.6431844,-1.6122 l 0,-3.6185 c 0,-0.89814 0.7202203,-1.61222 1.6431844,-1.61222 z m 10.1435158,0 2.780777,0 c 0.922961,0 1.643186,0.71408 1.643186,1.61222 l 0,3.6185 c 0,0.89812 -0.720225,1.6122 -1.643186,1.6122 l -2.780777,0 c -0.922961,0 -1.643186,-0.71408 -1.643186,-1.6122 l 0,-3.6185 c 0,-0.89814 0.720225,-1.61222 1.643186,-1.61222 z m 10.175115,0 2.749177,0 c 0.922961,0 1.643187,0.71408 1.643187,1.61222 l 0,3.6185 c 0,0.89812 -0.720226,1.6122 -1.643187,1.6122 l -2.749177,0 c -0.92296,0 -1.674786,-0.71408 -1.674786,-1.6122 l 0,-3.6185 c 0,-0.89814 0.751826,-1.61222 1.674786,-1.61222 z m 10.143516,0 2.749177,0 c 0.92296,0 1.643186,0.71408 1.643186,1.61222 l 0,3.6185 c 0,0.89812 -0.720226,1.6122 -1.643186,1.6122 l -2.749177,0 c -0.922961,0 -1.643187,-0.71408 -1.643187,-1.6122 l 0,-3.6185 c 0,-0.89814 0.720226,-1.61222 1.643187,-1.61222 z m -30.4621468,35.50422 2.7807794,0 c 0.922964,0 1.6431844,0.7499 1.6431844,1.6481 l 0,3.5827 c 0,0.8982 -0.7202204,1.648 -1.6431844,1.648 l -2.7807794,0 c -0.9229641,0 -1.6431844,-0.7498 -1.6431844,-1.648 l 0,-3.5827 c 0,-0.8982 0.7202203,-1.6481 1.6431844,-1.6481 z m 10.1435158,0 2.780777,0 c 0.922961,0 1.643186,0.7499 1.643186,1.6481 l 0,3.5827 c 0,0.8982 -0.720225,1.648 -1.643186,1.648 l -2.780777,0 c -0.922961,0 -1.643186,-0.7498 -1.643186,-1.648 l 0,-3.5827 c 0,-0.8982 0.720225,-1.6481 1.643186,-1.6481 z m 10.175115,0 2.749177,0 c 0.922961,0 1.643187,0.7499 1.643187,1.6481 l 0,3.5827 c 0,0.8982 -0.720226,1.648 -1.643187,1.648 l -2.749177,0 c -0.92296,0 -1.674786,-0.7498 -1.674786,-1.648 l 0,-3.5827 c 0,-0.8982 0.751826,-1.6481 1.674786,-1.6481 z"
       id="rect4347" />
    <path
       style="fill:#000000;fill-opacity:0.72602737;stroke:none"
       d="M 1 19.78125 C 0.994665 20.21474 0.96875 20.66826 0.96875 21.09375 L 0.96875 21.9375 C 0.96875 21.51201 0.994665 21.05849 1 20.625 L 44.09375 20.625 L 93.96875 20.625 C 93.97403 21.05849 94 21.512 94 21.9375 L 94 21.09375 C 94 20.66825 93.97403 20.21474 93.96875 19.78125 L 44.09375 19.78125 L 1 19.78125 z M 4.03125 27.0625 L 4.03125 27.90625 C 4.03125 28.80437 4.7645359 29.5 5.6875 29.5 L 8.46875 29.5 C 9.391714 29.5 10.09375 28.80437 10.09375 27.90625 L 10.09375 27.0625 C 10.09375 27.96062 9.391714 28.65625 8.46875 28.65625 L 5.6875 28.65625 C 4.7645359 28.65625 4.03125 27.96062 4.03125 27.0625 z M 14.1875 27.0625 L 14.1875 27.90625 C 14.1875 28.80437 14.889539 29.5 15.8125 29.5 L 18.59375 29.5 C 19.516711 29.5 20.25 28.80437 20.25 27.90625 L 20.25 27.0625 C 20.25 27.96062 19.516711 28.65625 18.59375 28.65625 L 15.8125 28.65625 C 14.889539 28.65625 14.1875 27.96062 14.1875 27.0625 z M 24.3125 27.0625 L 24.3125 27.90625 C 24.3125 28.80437 25.07704 29.5 26 29.5 L 28.75 29.5 C 29.672961 29.5 30.375 28.80437 30.375 27.90625 L 30.375 27.0625 C 30.375 27.96062 29.672961 28.65625 28.75 28.65625 L 26 28.65625 C 25.07704 28.65625 24.3125 27.96062 24.3125 27.0625 z M 34.5 27.0625 L 34.5 27.90625 C 34.5 28.80437 35.233289 29.5 36.15625 29.5 L 38.875 29.5 C 39.79796 29.5 40.53125 28.80437 40.53125 27.90625 L 40.53125 27.0625 C 40.53125 27.96062 39.79796 28.65625 38.875 28.65625 L 36.15625 28.65625 C 35.233289 28.65625 34.5 27.96062 34.5 27.0625 z M 53.375 29.125 L 50.71875 42.6875 A 0.91245048 1.034507 0 0 1 49.78125 43.46875 L 47.5 43.4375 A 0.91245048 1.034507 0 0 1 46.5 42.875 A 0.91245048 1.034507 0 0 0 47.5 44.28125 L 49.78125 44.3125 A 0.91245048 1.034507 0 0 0 50.71875 43.5 L 53.375 29.96875 L 56.03125 43.625 L 58 62.40625 A 0.91245048 1.034507 0 0 0 59.8125 62.40625 L 61.59375 43.59375 L 61.59375 43.5625 L 62.5625 36.125 L 65 49.8125 A 0.91245048 1.034507 0 0 0 66.78125 49.8125 L 67.71875 43.59375 L 69.5 58.25 A 0.91652855 1.0391306 0 0 0 71.34375 58.21875 L 73.375 33.375 L 76 52.4375 A 0.91245048 1.034507 0 0 0 77.78125 52.4375 L 79.3125 40.65625 L 81.3125 65.46875 L 81.3125 65.6875 A 0.91245048 1.034507 0 0 0 83.09375 65.6875 L 85.34375 43.1875 L 86.125 46.78125 A 0.91245048 1.034507 0 0 0 87.90625 46.8125 L 88.15625 45.65625 L 89.46875 55.71875 A 0.91245048 1.034507 0 0 0 91.28125 55.71875 L 93.96875 36 L 94 36.25 L 94 35.40625 L 93.96875 35.15625 L 91.28125 54.90625 A 0.91245048 1.034507 0 0 1 89.46875 54.90625 L 88.15625 44.8125 L 87.90625 45.96875 A 0.91245048 1.034507 0 0 1 86.125 45.9375 L 85.34375 42.34375 L 83.09375 64.84375 A 0.91245048 1.034507 0 0 1 81.3125 64.84375 L 81.3125 64.625 L 79.3125 39.8125 L 77.78125 51.59375 A 0.91245048 1.034507 0 0 1 76 51.59375 L 73.375 32.53125 L 71.34375 57.375 A 0.91652855 1.0391306 0 0 1 69.5 57.40625 L 67.71875 42.75 L 66.78125 48.96875 A 0.91245048 1.034507 0 0 1 65 48.96875 L 62.5625 35.28125 L 61.59375 42.71875 L 61.59375 42.75 L 59.8125 61.5625 A 0.91245048 1.034507 0 0 1 58 61.5625 L 56.03125 42.78125 L 53.375 29.125 z M 4.03125 62.5625 L 4.03125 63.40625 C 4.03125 64.30445 4.7645359 65.0625 5.6875 65.0625 L 8.46875 65.0625 C 9.391714 65.0625 10.09375 64.30445 10.09375 63.40625 L 10.09375 62.5625 C 10.09375 63.4607 9.391714 64.21875 8.46875 64.21875 L 5.6875 64.21875 C 4.7645359 64.21875 4.03125 63.4607 4.03125 62.5625 z M 14.1875 62.5625 L 14.1875 63.40625 C 14.1875 64.30445 14.889539 65.0625 15.8125 65.0625 L 18.59375 65.0625 C 19.516711 65.0625 20.25 64.30445 20.25 63.40625 L 20.25 62.5625 C 20.25 63.4607 19.516711 64.21875 18.59375 64.21875 L 15.8125 64.21875 C 14.889539 64.21875 14.1875 63.4607 14.1875 62.5625 z M 24.3125 62.5625 L 24.3125 63.40625 C 24.3125 64.30445 25.07704 65.0625 26 65.0625 L 28.75 65.0625 C 29.672961 65.0625 30.375 64.30445 30.375 63.40625 L 30.375 62.5625 C 30.375 63.4607 29.672961 64.21875 28.75 64.21875 L 26 64.21875 C 25.07704 64.21875 24.3125 63.4607 24.3125 62.5625 z "
       transform="translate(0,956.36218)"
       id="path3043" />
    <path
       style="fill:#ffffff;fill-opacity:1;stroke:none"
       d="m 5.6875,978.18318 c -0.9229641,0 -1.65625,0.72686 -1.65625,1.625 l 0,0.40625 c 0,-0.89814 0.7332859,-1.625 1.65625,-1.625 l 2.78125,0 c 0.922964,0 1.625,0.72686 1.625,1.625 l 0,-0.40625 c 0,-0.89814 -0.702036,-1.625 -1.625,-1.625 l -2.78125,0 z m 10.125,0 c -0.922961,0 -1.625,0.72686 -1.625,1.625 l 0,0.40625 c 0,-0.89814 0.702039,-1.625 1.625,-1.625 l 2.78125,0 c 0.922961,0 1.65625,0.72686 1.65625,1.625 l 0,-0.40625 c 0,-0.89814 -0.733289,-1.625 -1.65625,-1.625 l -2.78125,0 z m 10.1875,0 c -0.92296,0 -1.6875,0.72686 -1.6875,1.625 l 0,0.40625 c 0,-0.89814 0.76454,-1.625 1.6875,-1.625 l 2.75,0 c 0.922961,0 1.625,0.72686 1.625,1.625 l 0,-0.40625 c 0,-0.89814 -0.702039,-1.625 -1.625,-1.625 l -2.75,0 z m 10.15625,0 c -0.922961,0 -1.65625,0.72686 -1.65625,1.625 l 0,0.40625 c 0,-0.89814 0.733289,-1.625 1.65625,-1.625 l 2.71875,0 c 0.92296,0 1.65625,0.72686 1.65625,1.625 l 0,-0.40625 c 0,-0.89814 -0.73329,-1.625 -1.65625,-1.625 l -2.71875,0 z m 36.8125,1.25 a 0.91245048,1.034507 0 0 0 -0.75,0.9375 L 70.25,1004.6833 68.6875,992.15193 a 0.91247064,1.0345298 0 0 1 0,0.375 l 1.5625,12.59387 1.96875,-24.34387 A 0.91245048,1.034507 0 0 1 73,979.83943 a 0.91245048,1.034507 0 0 1 1.0625,0.875 l 2.8125,20.53137 1.71875,-13.46887 0.03125,-0.21875 a 0.91245048,1.034507 0 0 1 1.78125,0.0312 l 1.90625,23.78132 1.78125,-18.28132 a 0.91245048,1.034507 0 0 1 1.8125,-0.15625 l 1.125,5.21875 0.46875,-2.03125 a 0.91245048,1.034507 0 0 1 1.78125,0.0937 l 1.125,8.46887 2.6875,-19.75012 A 0.91245048,1.034507 0 0 1 94,984.12068 l 0,-0.40625 a 0.91245048,1.034507 0 0 0 -0.90625,0.8125 l -2.6875,19.75007 -1.125,-8.46882 A 0.91245048,1.034507 0 0 0 87.5,995.71443 l -0.46875,2.03125 -1.125,-5.21875 a 0.91245048,1.034507 0 0 0 -1.8125,0.125 l -1.78125,18.31257 -1.90625,-23.78132 a 0.91245048,1.034507 0 0 0 -1.78125,-0.0312 l -0.03125,0.21875 -1.71875,13.46877 -2.8125,-20.53127 a 0.91245048,1.034507 0 0 0 -1.0625,-0.875 0.91245048,1.034507 0 0 0 -0.03125,0 z M 53.25,979.77693 a 0.91245048,1.034507 0 0 0 -0.78125,0.78125 l -3.375,17.1875 -1.59375,0 a 0.91245048,1.034507 0 0 0 -1.0625,1.25 0.91245048,1.034507 0 0 1 1.0625,-0.84375 l 1.59375,0 3.375,-17.1875 a 0.91245048,1.034507 0 0 1 1.78125,0 l 3.5625,18.15625 a 0.91245048,1.034507 0 0 1 0,0.0937 l 1.0625,9.87502 0.90625,-9.81252 a 0.91245048,1.034507 0 0 1 0,-0.0312 l 1.78125,-13.3125 a 0.91245048,1.034507 0 0 1 1.78125,-0.0312 l 2.46875,13.90625 1.0625,-7.3125 a 0.91247064,1.0345298 0 0 1 0,-0.3125 l -1.0625,7.21875 -2.46875,-13.90625 a 0.91245048,1.034507 0 0 0 -1.78125,0.0312 l -1.78125,13.28125 a 0.91245048,1.034507 0 0 0 0,0.0625 l -0.90625,9.81262 -1.0625,-9.90637 a 0.91245048,1.034507 0 0 0 0,-0.0625 L 54.25,980.55818 a 0.91245048,1.034507 0 0 0 -1,-0.78125 z m 13.625,12.40625 a 0.91247064,1.0345298 0 0 1 1.8125,-0.0625 0.91247064,1.0345298 0 1 0 -1.8125,-0.0312 l 0,0.0937 z M 5.6875,1013.6833 c -0.9229641,0 -1.65625,0.758 -1.65625,1.6562 l 0,0.4063 c 0,-0.8982 0.7332859,-1.6563 1.65625,-1.6563 l 2.78125,0 c 0.922964,0 1.625,0.7581 1.625,1.6563 l 0,-0.4063 c 0,-0.8982 -0.702036,-1.6562 -1.625,-1.6562 l -2.78125,0 z m 10.125,0 c -0.922961,0 -1.625,0.758 -1.625,1.6562 l 0,0.4063 c 0,-0.8982 0.702039,-1.6563 1.625,-1.6563 l 2.78125,0 c 0.922961,0 1.65625,0.7581 1.65625,1.6563 l 0,-0.4063 c 0,-0.8982 -0.733289,-1.6562 -1.65625,-1.6562 l -2.78125,0 z m 10.1875,0 c -0.92296,0 -1.6875,0.758 -1.6875,1.6562 l 0,0.4063 c 0,-0.8982 0.76454,-1.6563 1.6875,-1.6563 l 2.75,0 c 0.922961,0 1.625,0.7581 1.625,1.6563 l 0,-0.4063 c 0,-0.8982 -0.702039,-1.6562 -1.625,-1.6562 l -2.75,0 z m -24.9375,9.5937 c 0.00522,0.1468 -0.00449,0.2916 0,0.4375 l 43.03125,0 49.8125,0 c 0.0045,-0.1459 -0.0052,-0.2907 0,-0.4375 l -49.8125,0 -43.03125,0 z"
       id="path3818"
       inkscape:connector-curvature="0" />
    <path
       sodipodi:type="inkscape:offset"
       inkscape:radius="0.60926121"
       inkscape:original="M -88.65625 10.46875 L -104.21875 37.375 L -73.125 37.40625 L -88.65625 10.46875 z "
       style="fill:#ffffff;fill-opacity:0.21917808;stroke:none"
       id="path3829"
       d="m -88.8125,9.875 a 0.60932214,0.60932214 0 0 0 -0.375,0.28125 L -104.75,37.0625 a 0.60932214,0.60932214 0 0 0 0.53125,0.90625 L -73.125,38 a 0.60932214,0.60932214 0 0 0 0.53125,-0.90625 L -88.125,10.15625 A 0.60932214,0.60932214 0 0 0 -88.8125,9.875 z"
       transform="matrix(0,1.8396609,-1.3615068,0,86.167942,1161.8638)" />
    <path
       transform="matrix(0,1.8396609,-1.3615068,0,86.167942,1161.8638)"
       d="M -88.84375,9.15625 A 1.326087,1.326087 0 0 0 -89.8125,9.8125 l -15.5625,26.90625 a 1.326087,1.326087 0 0 0 1.15625,1.96875 L -73.125,38.71875 A 1.326087,1.326087 0 0 0 -71.96875,36.75 L -87.5,9.8125 a 1.326087,1.326087 0 0 0 -1.34375,-0.65625 z"
       id="path3831"
       style="fill:#ffffff;fill-opacity:0.21917808;stroke:none"
       inkscape:original="M -88.65625 10.46875 L -104.21875 37.375 L -73.125 37.40625 L -88.65625 10.46875 z "
       inkscape:radius="1.3259544"
       sodipodi:type="inkscape:offset" />
    <path
       sodipodi:type="inkscape:offset"
       inkscape:radius="2.0365567"
       inkscape:original="M -88.65625 10.46875 L -104.21875 37.375 L -73.125 37.40625 L -88.65625 10.46875 z "
       style="fill:#ffffff;fill-opacity:0.08219178;stroke:none"
       id="path3833"
       d="m -88.75,8.4375 a 2.0367604,2.0367604 0 0 0 -1.65625,1 l -15.5625,26.90625 a 2.0367604,2.0367604 0 0 0 1.75,3.0625 L -73.125,39.4375 a 2.0367604,2.0367604 0 0 0 1.75,-3.0625 L -86.90625,9.4375 a 2.0367604,2.0367604 0 0 0 -1.84375,-1 z"
       transform="matrix(0,1.8396609,-1.3615068,0,86.167942,1161.8638)" />
    <path
       sodipodi:type="star"
       style="fill:#ffffff;fill-opacity:1;stroke:none"
       id="path4395"
       sodipodi:sides="3"
       sodipodi:cx="-88.657646"
       sodipodi:cy="28.411963"
       sodipodi:r1="17.956364"
       sodipodi:r2="8.9781818"
       sodipodi:arg1="0.52417963"
       sodipodi:arg2="1.5713772"
       inkscape:flatsided="true"
       inkscape:rounded="0"
       inkscape:randomized="0"
       d="M -73.112197,37.399176 -104.21353,37.38111 -88.647216,10.455602 z"
       transform="matrix(0,1.8396609,-1.3615068,0,86.167942,1161.8638)"
       inkscape:transform-center-x="-6.4431933"
       inkscape:transform-center-y="-0.0098641997" />
  </g>
</svg>
