<?xml version="1.0" encoding="UTF-8" standalone="no"?>
<!-- Created with Inkscape (http://www.inkscape.org/) -->

<svg
   xmlns:dc="http://purl.org/dc/elements/1.1/"
   xmlns:cc="http://creativecommons.org/ns#"
   xmlns:rdf="http://www.w3.org/1999/02/22-rdf-syntax-ns#"
   xmlns:svg="http://www.w3.org/2000/svg"
   xmlns="http://www.w3.org/2000/svg"
   xmlns:sodipodi="http://sodipodi.sourceforge.net/DTD/sodipodi-0.dtd"
   xmlns:inkscape="http://www.inkscape.org/namespaces/inkscape"
   width="96"
   height="96"
   id="svg2"
   version="1.1"
   inkscape:version="0.48.4 r9939"
   sodipodi:docname="xchat.svg">
  <defs
     id="defs4" />
  <sodipodi:namedview
     id="base"
     pagecolor="#ffffff"
     bordercolor="#666666"
     borderopacity="1.0"
     inkscape:pageopacity="0.0"
     inkscape:pageshadow="2"
     inkscape:zoom="5.90625"
     inkscape:cx="48"
     inkscape:cy="48"
     inkscape:document-units="px"
     inkscape:current-layer="layer1"
     showgrid="true"
     inkscape:snap-page="true"
     inkscape:snap-global="false"
     inkscape:snap-center="true"
     inkscape:snap-object-midpoints="false"
     showguides="true"
     inkscape:guide-bbox="true"
     inkscape:snap-bbox="true"
     inkscape:object-paths="true"
     inkscape:object-nodes="true"
     inkscape:window-width="1305"
     inkscape:window-height="744"
     inkscape:window-x="61"
     inkscape:window-y="24"
     inkscape:window-maximized="1"
     inkscape:snap-midpoints="false"
     inkscape:snap-grids="false"
     inkscape:snap-to-guides="false">
    <inkscape:grid
       type="xygrid"
       id="grid3002"
       empspacing="5"
       visible="true"
       enabled="true"
       snapvisiblegridlinesonly="true" />
  </sodipodi:namedview>
  <metadata
     id="metadata7">
    <rdf:RDF>
      <cc:Work
         rdf:about="">
        <dc:format>image/svg+xml</dc:format>
        <dc:type
           rdf:resource="http://purl.org/dc/dcmitype/StillImage" />
        <dc:title />
      </cc:Work>
    </rdf:RDF>
  </metadata>
  <g
     inkscape:label="Layer 1"
     inkscape:groupmode="layer"
     id="layer1"
     transform="translate(0,-956.36218)">
    <rect
       style="fill:#ffffff;fill-opacity:0;fill-rule:nonzero;stroke:none"
       id="rect3775"
       width="96"
       height="96"
       x="0"
       y="956.36218"
       ry="0" />
    <path
       style="fill:#000000;fill-opacity:0.09589041;fill-rule:nonzero;stroke:none"
       d="m 3.353015,956.30662 c -1.884176,0 -3.4111555,1.43156 -3.4111555,3.19799 l 0,83.65949 c 0,1.7665 1.5269795,3.1981 3.4111555,3.1981 l 89.23583,0 c 1.884174,0 3.411155,-1.4316 3.411155,-3.1981 l 0,-83.65949 c 0,-1.76643 -1.526981,-3.19799 -3.411155,-3.19799 z"
       id="rect3772"
       inkscape:connector-curvature="0"
       sodipodi:nodetypes="sssssssss" />
    <path
       style="fill:#000000;fill-opacity:0.18721463;fill-rule:nonzero;stroke:none"
       d="m 1.0459761,1041.8066 0,7.4219 c 0,1.7392 1.461916,3.1337 3.2852054,3.1337 l 86.3836135,0 c 1.823288,0 3.285205,-1.3945 3.285205,-3.1337 l 0,-7.4219 -92.9540239,0 z"
       id="rect3785"
       inkscape:connector-curvature="0" />
    <path
       style="fill:#000000;fill-opacity:0.38356168;fill-rule:nonzero;stroke:none"
       d="m 1.0459761,1041.8066 0,5.3807 c 0,1.762 1.461916,3.1749 3.2852054,3.1749 l 86.3836135,0 c 1.823288,0 3.285205,-1.4129 3.285205,-3.1749 l 0,-5.3807 -92.9540239,0 z"
       id="rect3783"
       inkscape:connector-curvature="0" />
    <rect
       style="fill:#6ed406;fill-opacity:1;fill-rule:nonzero;stroke:none"
       id="rect2985"
       width="92.954025"
       height="89"
       x="1.045977"
       y="-1046.3622"
       ry="3.1511393"
       transform="scale(1,-1)" />
    <g
       id="g3167"
       transform="matrix(0.77957688,0,0,0.80135246,84.779713,194.81374)">
      <g
         transform="matrix(2.1884915,0,0,2.1884915,-106.25913,-1260.503)"
         id="g852">
        <rect
           style="fill:none;stroke:#ffffff;stroke-width:3.65761065;stroke-linecap:round;stroke-linejoin:round;stroke-miterlimit:4;stroke-opacity:1;stroke-dasharray:none"
           id="rect3792"
           width="20.293354"
           height="14.999999"
           x="13.853323"
           y="1018.5487"
           ry="7.4999995" />
        <path
           style="fill:#ffffff;fill-opacity:1;stroke:none"
           inkscape:transform-center-x="-0.86382428"
           inkscape:transform-center-y="-2.9812608e-05"
           d="m 23.293425,1040.0045 0,-7.7972 5.182909,2.9923 z"
           id="path3794"
           inkscape:connector-curvature="0"
           sodipodi:nodetypes="cccc" />
        <g
           style="font-size:14.19724941px;font-style:normal;font-variant:normal;font-weight:normal;font-stretch:normal;line-height:125%;letter-spacing:0px;word-spacing:0px;fill:#ffffff;fill-opacity:1;stroke:none;font-family:Anonymous;-inkscape-font-specification:Anonymous"
           id="text3790">
          <path
             inkscape:connector-curvature="0"
             d="m 27.949416,1028.0815 -1.910175,0 0,1.9102 -0.942181,0 0,-1.9102 -2.194121,0 0,1.9102 -0.942181,0 0,-1.9102 -1.910175,0 0,-0.9422 1.910175,0 0,-2.1941 -1.910175,0 0,-0.9293 1.910175,0 0,-1.9102 0.942181,0 0,1.9102 2.194121,0 0,-1.9102 0.942181,0 0,1.9102 1.910175,0 0,0.9293 -1.910175,0 0,2.1941 1.910175,0 0,0.9422 z m -2.852356,-0.9422 0,-2.1941 -2.194121,0 0,2.1941 2.194121,0 z"
             style="fill:#ffffff;font-family:Anonymous;-inkscape-font-specification:Anonymous"
             id="path50" />
        </g>
      </g>
      <g
         inkscape:transform-center-x="-4.8286526"
         inkscape:transform-center-y="11.850263"
         style="opacity:0.3374486"
         id="g3959"
         transform="matrix(1.4229404,0,-0.34599598,-1.0028024,271.41056,2058.457)">
        <rect
           ry="7.4999995"
           y="1018.5487"
           x="13.853323"
           height="14.999999"
           width="20.293354"
           id="rect3961"
           style="fill:none;stroke:#ffffff;stroke-width:3.65761065;stroke-linecap:round;stroke-linejoin:round;stroke-miterlimit:4;stroke-opacity:1;stroke-dasharray:none" />
        <path
           sodipodi:nodetypes="cccc"
           inkscape:connector-curvature="0"
           id="path3963"
           d="m 23.293425,1040.0045 0,-7.7972 5.182909,2.9923 z"
           inkscape:transform-center-y="-2.9812608e-05"
           inkscape:transform-center-x="-0.86382428"
           style="fill:#ffffff;fill-opacity:1;stroke:none" />
        <g
           id="g3965"
           style="font-size:14.19724941px;font-style:normal;font-variant:normal;font-weight:normal;font-stretch:normal;line-height:125%;letter-spacing:0px;word-spacing:0px;fill:#ffffff;fill-opacity:1;stroke:none;font-family:Anonymous;-inkscape-font-specification:Anonymous">
          <path
             id="path3967"
             style="fill:#ffffff;font-family:Anonymous;-inkscape-font-specification:Anonymous"
             d="m 27.949416,1028.0815 -1.910175,0 0,1.9102 -0.942181,0 0,-1.9102 -2.194121,0 0,1.9102 -0.942181,0 0,-1.9102 -1.910175,0 0,-0.9422 1.910175,0 0,-2.1941 -1.910175,0 0,-0.9293 1.910175,0 0,-1.9102 0.942181,0 0,1.9102 2.194121,0 0,-1.9102 0.942181,0 0,1.9102 1.910175,0 0,0.9293 -1.910175,0 0,2.1941 1.910175,0 0,0.9422 z m -2.852356,-0.9422 0,-2.1941 -2.194121,0 0,2.1941 2.194121,0 z"
             inkscape:connector-curvature="0" />
        </g>
      </g>
    </g>
    <path
       style="fill:#000000;fill-opacity:0.38356168;fill-rule:nonzero;stroke:none"
       d="m 1,1042.3622 0.045976,2.7457 c 0.03024,1.8058 1.461916,3.2543 3.2852054,3.2543 l 86.3836136,0 c 1.823288,0 3.285205,-1.4481 3.285205,-3.2543 l -0.04598,-2.7457 z"
       id="rect3781"
       inkscape:connector-curvature="0"
       sodipodi:nodetypes="csssscc" />
    <rect
       style="fill:#ffffff;fill-opacity:0.30000001;fill-rule:nonzero;stroke:none"
       id="rect3770"
       width="92.954033"
       height="2.000005"
       x="1.045976"
       y="1040.3622" />
  </g>
</svg>
