<?xml version="1.0" encoding="UTF-8" standalone="no"?>
<!-- Created with Inkscape (http://www.inkscape.org/) -->

<svg
   xmlns:dc="http://purl.org/dc/elements/1.1/"
   xmlns:cc="http://creativecommons.org/ns#"
   xmlns:rdf="http://www.w3.org/1999/02/22-rdf-syntax-ns#"
   xmlns:svg="http://www.w3.org/2000/svg"
   xmlns="http://www.w3.org/2000/svg"
   xmlns:sodipodi="http://sodipodi.sourceforge.net/DTD/sodipodi-0.dtd"
   xmlns:inkscape="http://www.inkscape.org/namespaces/inkscape"
   width="96"
   height="96"
   id="svg2"
   version="1.1"
   inkscape:version="0.48.4 r9939"
   sodipodi:docname="xfce4-panel.svg">
  <defs
     id="defs4" />
  <sodipodi:namedview
     id="base"
     pagecolor="#ffffff"
     bordercolor="#666666"
     borderopacity="1.0"
     inkscape:pageopacity="0.0"
     inkscape:pageshadow="2"
     inkscape:zoom="5.90625"
     inkscape:cx="47.830688"
     inkscape:cy="48"
     inkscape:document-units="px"
     inkscape:current-layer="layer1"
     showgrid="true"
     inkscape:snap-page="true"
     inkscape:snap-global="false"
     inkscape:snap-center="true"
     inkscape:snap-object-midpoints="false"
     showguides="true"
     inkscape:guide-bbox="true"
     inkscape:snap-bbox="true"
     inkscape:object-paths="true"
     inkscape:object-nodes="true"
     inkscape:window-width="1305"
     inkscape:window-height="744"
     inkscape:window-x="61"
     inkscape:window-y="24"
     inkscape:window-maximized="1"
     inkscape:snap-midpoints="false"
     inkscape:snap-grids="true"
     inkscape:snap-to-guides="false">
    <inkscape:grid
       type="xygrid"
       id="grid3002"
       empspacing="5"
       visible="true"
       enabled="true"
       snapvisiblegridlinesonly="true" />
  </sodipodi:namedview>
  <metadata
     id="metadata7">
    <rdf:RDF>
      <cc:Work
         rdf:about="">
        <dc:format>image/svg+xml</dc:format>
        <dc:type
           rdf:resource="http://purl.org/dc/dcmitype/StillImage" />
        <dc:title />
      </cc:Work>
    </rdf:RDF>
  </metadata>
  <g
     inkscape:label="Layer 1"
     inkscape:groupmode="layer"
     id="layer1"
     transform="translate(0,-956.36218)">
    <rect
       style="fill:#ffffff;fill-opacity:0;fill-rule:nonzero;stroke:none"
       id="rect3775"
       width="96"
       height="96"
       x="0"
       y="956.36218"
       ry="0" />
    <path
       style="fill:#000000;fill-opacity:0.09589041;fill-rule:nonzero;stroke:none"
       d="m 3.353015,956.30662 c -1.884176,0 -3.4111555,1.43156 -3.4111555,3.19799 l 0,83.65949 c 0,1.7665 1.5269795,3.1981 3.4111555,3.1981 l 89.23583,0 c 1.884174,0 3.411155,-1.4316 3.411155,-3.1981 l 0,-83.65949 c 0,-1.76643 -1.526981,-3.19799 -3.411155,-3.19799 z"
       id="rect3772"
       inkscape:connector-curvature="0"
       sodipodi:nodetypes="sssssssss" />
    <path
       style="fill:#000000;fill-opacity:0.18721463;fill-rule:nonzero;stroke:none"
       d="m 1.0459761,1041.8066 0,7.4219 c 0,1.7392 1.461916,3.1337 3.2852054,3.1337 l 86.3836135,0 c 1.823288,0 3.285205,-1.3945 3.285205,-3.1337 l 0,-7.4219 -92.9540239,0 z"
       id="rect3785"
       inkscape:connector-curvature="0" />
    <path
       style="fill:#000000;fill-opacity:0.38356168;fill-rule:nonzero;stroke:none"
       d="m 1.0459761,1041.8066 0,5.3807 c 0,1.762 1.461916,3.1749 3.2852054,3.1749 l 86.3836135,0 c 1.823288,0 3.285205,-1.4129 3.285205,-3.1749 l 0,-5.3807 -92.9540239,0 z"
       id="rect3783"
       inkscape:connector-curvature="0" />
    <rect
       style="fill:#a3057f;fill-opacity:1;fill-rule:nonzero;stroke:none"
       id="rect2985-6"
       width="93"
       height="88.999977"
       x="1"
       y="957.36218"
       ry="3.1511388" />
    <path
       inkscape:connector-curvature="0"
       style="fill:#ffffff;fill-opacity:0.18518521;fill-rule:nonzero;stroke:none"
       d="m 21.239955,957.36218 -16.9531246,0 c -0.9120953,0 -1.7229136,0.35752 -2.3180804,0.92708 C 1.3735832,958.85883 1,959.63477 1,960.50764 l 0,82.70906 c 0,0.8729 0.3735832,1.6488 0.96875,2.2184 0.5951668,0.5696 1.4059851,0.9271 2.3180804,0.9271 l 16.9531246,0 0,-89.00002 z"
       id="path3869" />
    <path
       style="opacity:0.8;fill:#ffffff;fill-opacity:1;stroke:none"
       id="path4000"
       inkscape:connector-curvature="0"
       d="m 8.0364254,1000.8203 7.4147696,5.2094 0,-10.41889 -7.4147696,5.20949 z" />
    <path
       style="fill:#000000;fill-opacity:0.38356168;fill-rule:nonzero;stroke:none"
       d="m 1,1042.3622 0.045976,2.7457 c 0.03024,1.8058 1.461916,3.2543 3.2852054,3.2543 l 86.3836136,0 c 1.823288,0 3.285205,-1.4481 3.285205,-3.2543 l -0.04598,-2.7457 z"
       id="rect3781"
       inkscape:connector-curvature="0"
       sodipodi:nodetypes="csssscc" />
    <rect
       style="fill:#ffffff;fill-opacity:0.30000001;fill-rule:nonzero;stroke:none"
       id="rect3770"
       width="92.954033"
       height="2.000005"
       x="1.045976"
       y="1040.3622" />
    <path
       style="opacity:0.2;fill:#ffffff;fill-opacity:1;stroke:none"
       id="path2870"
       inkscape:connector-curvature="0"
       d="m 70.206887,976.53271 -11.99075,13.71204 -11.11551,-13.68286 -9.83183,9.13163 3.96774,4.31785 c 2.08653,0.77369 5.35933,2.63088 7.64374,5.01796 0.34451,0.3427 1.29514,-1.11941 3.41342,-0.75849 0.60898,0.0575 5.51695,1.34999 7.55622,0.96279 0.65098,-0.4104 0.68062,-1.47013 1.22533,-2.04225 0.068,0.33697 0.11567,0.64813 0.1167,0.81689 -0.66713,0.53128 -0.64477,1.71936 -1.34203,2.15886 -2.03927,0.3873 -6.94724,-0.9052 -7.55622,-0.9627 -2.11828,-0.3609 -3.06891,1.1012 -3.41342,0.7585 -1.82262,-1.90454 -4.26196,-3.47969 -6.24336,-4.4345 l 4.98885,5.4265 c 0.0447,-0.087 0.0684,-0.1746 0.1167,-0.2626 0.16645,0.1641 0.28254,0.3096 0.32092,0.3793 -0.0474,0.075 -0.072,0.1584 -0.1167,0.2334 l 1.66295,1.8088 -13.6537,14.58727 8.89825,8.84 12.54506,-14.7041 12.48672,14.4998 9.89018,-9.1609 -13.62453,-14.52887 1.48791,-1.5171 c -0.2621,0.059 -0.55589,0.094 -0.81689,-0.029 -0.5587,-0.3127 -0.59852,-1.4603 -0.46679,-1.6046 7.7e-4,0 0.0284,0 0.0292,0 0.0452,0.155 0.116,0.3143 0.20422,0.4376 0.004,0.01 -0.004,0.021 0,0.029 0.007,0.01 0.0215,0.02 0.0292,0.029 0.19091,0.3746 0.54442,0.6983 1.28368,0.8461 l 2.88828,-2.94663 c -2.09168,-0.56623 -3.70308,-0.45978 -3.73435,-0.7002 -0.0245,-0.41545 -0.0278,-1.57357 -0.0875,-1.98387 -0.3421,-2.77721 -1.67217,-2.09945 -1.86717,-2.10056 -0.557,0.0783 -0.81783,0.44596 -0.90441,0.96276 -0.12319,-1.00314 0.0505,-1.77637 0.90441,-1.89635 0.0488,2.8e-4 0.16198,-0.039 0.32092,-0.0584 0.47683,-0.0581 1.28968,0.076 1.54625,2.15892 0.0597,0.4103 0.063,1.56842 0.0875,1.98387 0.0349,0.2682 2.02186,0.0803 4.46371,0.90441 l 1.54626,-1.6046 c 0.0752,-0.46196 0.21094,-0.88672 0.43762,-1.10864 0.0586,-0.0573 0.0997,0.20494 0.11669,0.55432 l 5.83492,-5.98079 -9.24834,-8.4898 z m -8.11053,12.80764 c 0.30162,0.077 0.75623,-0.0218 1.838,2.62571 0.18042,0.2791 0.4214,0.47212 0.58349,0.49597 0.0649,0.22707 0.13109,0.44418 0.20422,0.67102 0.0509,0.47377 -0.46697,0.26278 -0.78771,-0.2334 -1.08177,-2.6475 -1.53638,-2.54872 -1.838,-2.62571 -0.23619,-0.0487 -0.95577,0.30873 -1.19616,1.02111 -0.024,-0.13112 -0.0868,-0.3484 -0.0875,-0.40845 -0.0223,-1.07098 0.99477,-1.6058 1.28368,-1.54625 z m 5.2806,5.71818 c 0.12684,0.1527 0.29621,0.2626 0.49596,0.2626 0.18616,0 0.37695,-0.098 0.49597,-0.2334 0.0956,0.1217 0.17505,0.2679 0.17505,0.4376 0,0.3894 -0.2987,0.7294 -0.67102,0.7294 -0.0931,0 -0.18072,-0.02 -0.26257,-0.058 0.37346,-0.08 0.67469,-0.2232 0.58349,-0.2334 -0.41421,-0.046 -0.72903,-0.1396 -0.96276,-0.2626 -0.0159,-0.061 -0.0292,-0.1109 -0.0292,-0.175 0,-0.179 0.07,-0.3424 0.17505,-0.4668 z m 0.72936,7.38117 c 0.006,0.012 0.023,0.018 0.0292,0.029 0.30761,0.5765 0.44454,0.409 1.45873,1.6629 0.64605,0.7988 0.77451,1.316 0.37927,1.4879 -0.0991,-0.1673 -0.21412,-0.3501 -0.37928,-0.5543 -1.01418,-1.2539 -1.15112,-1.0864 -1.45872,-1.6629 -0.18485,-0.3465 -0.14503,-0.7321 -0.0292,-0.9628 z m -21.56001,1.0503 c 0.0355,0.5376 0.0522,0.9186 -0.0292,1.0211 -0.12507,0.1842 -0.85437,0.9872 -1.28368,1.6338 -0.0736,-0.016 -0.13745,-0.057 -0.20422,-0.088 -0.59988,-0.2735 1.28449,-2.1802 1.4879,-2.4799 0.012,-0.015 0.022,-0.062 0.0292,-0.088 z m 19.98458,2.3048 c 0.10711,0 0.22276,0 0.3501,0.029 0.0105,0 0.0185,0.027 0.0292,0.029 0.38455,0.4602 0.79923,0.96 0.90441,1.2545 0.1839,0.4918 0.15265,0.7708 0,0.9335 -0.21522,-0.6025 -1.81179,-2.1233 -1.54625,-2.2172 0.0709,-0.025 0.16929,-0.03 0.26257,-0.029 z m -19.31356,0.7585 c 0.059,0.01 0.0761,0.082 0.0292,0.2626 -0.11894,0.4585 -0.4554,1.2075 -0.61267,1.838 -0.22579,-0.361 0.0824,-1.2395 0.35009,-1.9839 0.0853,-0.048 0.18529,-0.1253 0.2334,-0.1167 z" />
    <path
       style="fill:#ffffff;fill-opacity:1;fill-rule:evenodd;stroke:none"
       id="path602"
       inkscape:connector-curvature="0"
       d="m 69.769107,997.67443 c -0.65954,-0.1313 -2.65547,1.0849 -2.51065,1.2074 0.2048,0.1731 2.82405,-1.1388 2.51065,-1.2074 z m -3.23457,-1.4037 c 0.59964,0.2821 1.47669,-0.1881 1.3278,-0.2047 -1.29454,-0.1436 -1.51686,-0.7494 -1.71469,-1.34289 -0.19168,-0.19835 -0.23173,1.20139 0.38689,1.54759 z m 1.68149,-1.53569 c 0,0.37719 -0.2809,0.71339 -0.64161,0.71339 -0.36071,0 -0.66546,-0.3362 -0.66546,-0.71339 0,-0.37732 0.29285,-0.68352 0.65351,-0.68352 0.36071,0 0.65356,0.3062 0.65356,0.68352 z m -33.10509,-6.90779 c -0.1453,-0.24645 0.96088,0.1958 1.79164,0.65988 0.83075,0.46407 3.08193,1.33208 3.76396,1.47016 1.76238,0.35679 5.84841,2.43696 8.50429,5.21224 0.33378,0.332 1.24604,-1.08359 3.29832,-0.7339 0.59,0.0557 5.34294,1.3206 7.31867,0.9455 0.67554,-0.4259 0.66656,-1.58098 1.3129,-2.09571 -0.003,-0.436 -0.37443,-1.84045 -0.3781,-2.13853 -0.0216,-1.03761 0.9504,-1.54936 1.23031,-1.49166 0.29222,0.0746 0.75536,-0.007 1.80342,2.55813 0.31075,0.48072 0.78883,0.67231 0.73947,0.2133 -0.57809,-1.79315 -0.98768,-3.7068 0.37653,-3.89847 0.18892,10e-4 1.49287,-0.64912 1.82431,2.04156 0.0578,0.39752 0.0434,1.51692 0.0672,1.91942 0.0453,0.34824 3.47783,-0.10955 6.83512,2.08624 0.39142,0.23542 2.0529,1.92382 0.43249,3.26392 -1.08695,0.9014 -5.80287,3.22477 -6.11831,3.44637 -0.17974,0.1232 -0.349,0.6583 -0.11021,1.1059 0.29802,0.5586 0.43529,0.3801 1.41788,1.595 0.98259,1.2149 0.76998,1.7828 -0.78811,1.3856 -0.52087,-0.1328 -1.86419,-0.8362 -2.41397,-0.6419 -0.25726,0.091 1.28206,1.5677 1.49057,2.1515 0.69109,1.8482 -1.65402,0.8565 -2.50993,0.4488 -0.8559,-0.4078 -2.34041,-1.2776 -2.86738,-1.3058 -1.02386,0.4392 -6.55598,0.9238 -11.47273,-0.2421 -0.2993,0.081 -2.79358,2.5849 -2.97742,2.6801 -1.53986,0.4867 -0.35207,-1.8125 -0.10495,-2.7652 0.1213,-0.4677 -0.21739,-0.186 -0.50924,-0.019 -0.13742,0.079 -1.0493,0.4417 -1.63048,0.1767 -0.58118,-0.2649 1.24932,-2.1134 1.44639,-2.4038 0.27196,-0.3423 -0.81999,-3.53937 1.48511,-7.19877 -0.23504,-0.4266 -3.22916,-2.94895 -5.44707,-4.18451 -2.09589,-1.19464 -7.15808,-3.46974 -7.29516,-3.62757 -0.21993,-0.1565 -0.84352,-0.60147 -0.51548,-0.61337 z m 35.04257,10.65198 c -0.55547,-0.041 -1.91986,1.4208 -1.77504,1.54327 0.20486,0.1731 2.05088,-1.52217 1.77504,-1.54327 z m 4.70129,-7.4067 c -0.0722,-0.19103 -1.78134,1.96414 -1.48012,2.7564 0.13143,0.34566 1.70716,-2.15578 1.48012,-2.7564 z m -1.84281,-0.33846 c -0.63889,0.62546 -0.52302,2.93454 -0.38344,2.90889 0.65418,-0.12028 0.57638,-3.09779 0.38344,-2.90889 z" />
  </g>
</svg>
