<?xml version="1.0" encoding="UTF-8" standalone="no"?>
<!-- Created with Inkscape (http://www.inkscape.org/) -->

<svg
   xmlns:dc="http://purl.org/dc/elements/1.1/"
   xmlns:cc="http://creativecommons.org/ns#"
   xmlns:rdf="http://www.w3.org/1999/02/22-rdf-syntax-ns#"
   xmlns:svg="http://www.w3.org/2000/svg"
   xmlns="http://www.w3.org/2000/svg"
   xmlns:sodipodi="http://sodipodi.sourceforge.net/DTD/sodipodi-0.dtd"
   xmlns:inkscape="http://www.inkscape.org/namespaces/inkscape"
   width="96"
   height="96"
   id="svg2"
   version="1.1"
   inkscape:version="0.48.4 r9939"
   sodipodi:docname="xmind.svg">
  <defs
     id="defs4" />
  <sodipodi:namedview
     id="base"
     pagecolor="#ffffff"
     bordercolor="#666666"
     borderopacity="1.0"
     inkscape:pageopacity="0.0"
     inkscape:pageshadow="2"
     inkscape:zoom="5.90625"
     inkscape:cx="57.03208"
     inkscape:cy="48"
     inkscape:document-units="px"
     inkscape:current-layer="layer1"
     showgrid="true"
     inkscape:snap-page="true"
     inkscape:snap-global="false"
     inkscape:snap-center="true"
     inkscape:snap-object-midpoints="false"
     showguides="true"
     inkscape:guide-bbox="true"
     inkscape:snap-bbox="true"
     inkscape:object-paths="true"
     inkscape:object-nodes="true"
     inkscape:window-width="1305"
     inkscape:window-height="744"
     inkscape:window-x="61"
     inkscape:window-y="24"
     inkscape:window-maximized="1"
     inkscape:snap-midpoints="true"
     inkscape:snap-grids="true"
     inkscape:snap-to-guides="false">
    <inkscape:grid
       type="xygrid"
       id="grid3002"
       empspacing="5"
       visible="true"
       enabled="true"
       snapvisiblegridlinesonly="true" />
  </sodipodi:namedview>
  <metadata
     id="metadata7">
    <rdf:RDF>
      <cc:Work
         rdf:about="">
        <dc:format>image/svg+xml</dc:format>
        <dc:type
           rdf:resource="http://purl.org/dc/dcmitype/StillImage" />
        <dc:title />
      </cc:Work>
    </rdf:RDF>
  </metadata>
  <g
     inkscape:label="Layer 1"
     inkscape:groupmode="layer"
     id="layer1"
     transform="translate(0,-956.36218)">
    <rect
       style="fill:#ffffff;fill-opacity:0;fill-rule:nonzero;stroke:none"
       id="rect3775"
       width="96"
       height="96"
       x="0"
       y="956.36218"
       ry="0" />
    <path
       style="fill:#000000;fill-opacity:0.09589041;fill-rule:nonzero;stroke:none"
       d="m 3.353015,956.30662 c -1.884176,0 -3.4111555,1.43156 -3.4111555,3.19799 l 0,83.65949 c 0,1.7665 1.5269795,3.1981 3.4111555,3.1981 l 89.23583,0 c 1.884174,0 3.411155,-1.4316 3.411155,-3.1981 l 0,-83.65949 c 0,-1.76643 -1.526981,-3.19799 -3.411155,-3.19799 z"
       id="rect3772"
       inkscape:connector-curvature="0"
       sodipodi:nodetypes="sssssssss" />
    <path
       style="fill:#000000;fill-opacity:0.18721463;fill-rule:nonzero;stroke:none"
       d="m 1.0459761,1041.8066 0,7.4219 c 0,1.7392 1.461916,3.1337 3.2852054,3.1337 l 86.3836135,0 c 1.823288,0 3.285205,-1.3945 3.285205,-3.1337 l 0,-7.4219 -92.9540239,0 z"
       id="rect3785"
       inkscape:connector-curvature="0" />
    <path
       style="fill:#000000;fill-opacity:0.38356168;fill-rule:nonzero;stroke:none"
       d="m 1.0459761,1041.8066 0,5.3807 c 0,1.762 1.461916,3.1749 3.2852054,3.1749 l 86.3836135,0 c 1.823288,0 3.285205,-1.4129 3.285205,-3.1749 l 0,-5.3807 -92.9540239,0 z"
       id="rect3783"
       inkscape:connector-curvature="0" />
    <rect
       style="fill:#c4008c;fill-opacity:1;fill-rule:nonzero;stroke:none"
       id="rect2985"
       width="92.954025"
       height="89"
       x="1.045977"
       y="957.36218"
       ry="3.1511393" />
    <path
       style="fill:#000000;fill-opacity:0.38356168;fill-rule:nonzero;stroke:none"
       d="m 1,1042.3622 0.045976,2.7457 c 0.03024,1.8058 1.461916,3.2543 3.2852054,3.2543 l 86.3836136,0 c 1.823288,0 3.285205,-1.4481 3.285205,-3.2543 l -0.04598,-2.7457 z"
       id="rect3781"
       inkscape:connector-curvature="0"
       sodipodi:nodetypes="csssscc" />
    <rect
       style="fill:#ffffff;fill-opacity:0.2283105;fill-rule:nonzero;stroke:none"
       id="rect3770"
       width="92.954033"
       height="2.000005"
       x="1.045976"
       y="1040.3622" />
    <path
       sodipodi:nodetypes="cscsccssssccscsccsssscc"
       inkscape:connector-curvature="0"
       id="path3783"
       d="m 38.12498,1007.3622 -3.749957,2.8571 c -1.12637,0.8582 -0.803288,1.62 0.593713,2.1429 -2.769579,0.5229 -5.092407,1.2847 -6.21878,2.1429 L 25,1017.3622 l 5,0 3.128869,-2.3839 c 1.384961,-1.0552 5.459026,-1.9018 9.152359,-1.9018 l 21.6875,0 c 3.693333,0 5.027396,0.8564 4.160141,1.9018 L 65,1017.3622 l 5,0 3.749956,-2.8571 c 1.126373,-0.8582 0.803293,-1.62 -0.59372,-2.1429 2.769591,-0.5229 4.744062,-1.2908 6.218787,-2.1429 l 3.749957,-2.8571 -5,0 -3.128875,2.3839 c -1.385054,1.0553 -5.459022,1.9018 -9.152355,1.9018 l -21.6875,0 c -3.693333,0 -5.545199,-0.8465 -4.160145,-1.9018 l 3.128875,-2.3839 z"
       style="fill:#000000;fill-opacity:0.16894977;fill-rule:evenodd;stroke:none"
       inkscape:transform-center-x="-29.06249"
       inkscape:transform-center-y="-5" />
    <path
       inkscape:transform-center-y="-5"
       inkscape:transform-center-x="-29.909051"
       style="fill:#000000;fill-opacity:0.16894977;fill-rule:evenodd;stroke:none"
       d="m 39.818102,1007.3622 -4.233699,2.8571 c -1.271674,0.8582 -1.077574,1.62 0.230894,2.1429 -2.858112,0.5229 -5.309922,1.2847 -6.581599,2.1429 L 25,1017.3622 l 5,0 3.532492,-2.3839 c 1.563619,-1.0552 5.781024,-1.9018 9.474357,-1.9018 l 21.6875,0 c 3.693333,0 4.882397,0.8564 3.838143,1.9018 L 65,1017.3622 l 5,0 4.233698,-2.8571 c 1.271677,-0.8582 1.077579,-1.62 -0.230901,-2.1429 2.858124,-0.5229 4.96261,-1.2908 6.581606,-2.1429 l 4.233699,-2.8571 -5,0 -3.532499,2.3839 c -1.563729,1.0553 -5.781019,1.9018 -9.474352,1.9018 l -21.6875,0 c -3.693333,0 -5.401877,-0.8465 -3.838148,-1.9018 l 3.532499,-2.3839 z"
       id="path3785"
       inkscape:connector-curvature="0"
       sodipodi:nodetypes="cscsccssssccscsccsssscc" />
    <path
       sodipodi:nodetypes="cscsccssssccscsccsssscc"
       inkscape:connector-curvature="0"
       id="path3787"
       d="m 41.511224,1007.3622 -4.717441,2.8571 c -1.416978,0.8582 -1.35186,1.62 -0.131925,2.1429 -2.946645,0.5229 -5.527437,1.2847 -6.944418,2.1429 L 25,1017.3622 l 5,0 3.936115,-2.3839 c 1.742277,-1.0552 6.103022,-1.9018 9.796355,-1.9018 l 21.6875,0 c 3.693333,0 4.737398,0.8564 3.516145,1.9018 L 65,1017.3622 l 5,0 4.71744,-2.8571 c 1.416981,-0.8582 1.351865,-1.62 0.131918,-2.1429 2.946657,-0.5229 5.181158,-1.2908 6.944425,-2.1429 l 4.717441,-2.8571 -5,0 -3.936123,2.3839 c -1.742404,1.0553 -6.103016,1.9018 -9.796349,1.9018 l -21.6875,0 c -3.693333,0 -5.258555,-0.8465 -3.516151,-1.9018 l 3.936123,-2.3839 z"
       style="fill:#000000;fill-opacity:0.16894977;fill-rule:evenodd;stroke:none"
       inkscape:transform-center-x="-30.755612"
       inkscape:transform-center-y="-5" />
    <path
       style="fill:#ffffff;fill-opacity:1;fill-rule:evenodd;stroke:none"
       d="m 25,982.36218 0,10.00001 c 0,3.00358 1.322954,5.66996 3.40625,7.50003 C 26.322954,1001.6922 25,1004.3586 25,1007.3622 l 0,10 5,0 0,-8.3437 c 0,-3.6933 2.962917,-6.6563 6.65625,-6.6563 l 21.6875,0 c 3.693333,0 6.151444,2.9976 6.65625,6.6563 l 0,8.3437 5,0 0,-10 c 0,-3.0036 -1.322954,-5.67 -3.40625,-7.49998 2.083296,-1.83007 3.049907,-4.51766 3.40625,-7.50003 l 0,-10.00001 -5,0 0,8.34375 c 0,3.69335 -2.962917,6.65627 -6.65625,6.65627 l -21.6875,0 C 32.962917,997.3622 30,994.39928 30,990.70593 l 0,-8.34375 z"
       id="rect3771"
       inkscape:connector-curvature="0"
       sodipodi:nodetypes="cscsccssssccscsccsssscc" />
  </g>
</svg>
