<?xml version="1.0" encoding="UTF-8" standalone="no"?>
<!-- Created with Inkscape (http://www.inkscape.org/) -->

<svg
   xmlns:dc="http://purl.org/dc/elements/1.1/"
   xmlns:cc="http://creativecommons.org/ns#"
   xmlns:rdf="http://www.w3.org/1999/02/22-rdf-syntax-ns#"
   xmlns:svg="http://www.w3.org/2000/svg"
   xmlns="http://www.w3.org/2000/svg"
   xmlns:xlink="http://www.w3.org/1999/xlink"
   xmlns:sodipodi="http://sodipodi.sourceforge.net/DTD/sodipodi-0.dtd"
   xmlns:inkscape="http://www.inkscape.org/namespaces/inkscape"
   width="96"
   height="96"
   id="svg2"
   version="1.1"
   inkscape:version="0.48.4 r9939"
   sodipodi:docname="xorg.svg">
  <defs
     id="defs4">
    <linearGradient
       id="linearGradient3763">
      <stop
         style="stop-color:#a3057f;stop-opacity:1;"
         offset="0"
         id="stop3765" />
      <stop
         style="stop-color:#f855d3;stop-opacity:1;"
         offset="1"
         id="stop3767" />
    </linearGradient>
    <linearGradient
       inkscape:collect="always"
       xlink:href="#linearGradient3763"
       id="linearGradient3769"
       x1="50"
       y1="1047.3622"
       x2="50"
       y2="957.36218"
       gradientUnits="userSpaceOnUse" />
  </defs>
  <sodipodi:namedview
     id="base"
     pagecolor="#ffffff"
     bordercolor="#666666"
     borderopacity="1.0"
     inkscape:pageopacity="0.0"
     inkscape:pageshadow="2"
     inkscape:zoom="5.90625"
     inkscape:cx="48"
     inkscape:cy="48"
     inkscape:document-units="px"
     inkscape:current-layer="layer1"
     showgrid="true"
     inkscape:snap-page="true"
     inkscape:snap-global="true"
     inkscape:snap-center="true"
     inkscape:snap-object-midpoints="false"
     showguides="true"
     inkscape:guide-bbox="true"
     inkscape:snap-bbox="true"
     inkscape:object-paths="true"
     inkscape:object-nodes="true"
     inkscape:window-width="1305"
     inkscape:window-height="744"
     inkscape:window-x="61"
     inkscape:window-y="24"
     inkscape:window-maximized="1"
     inkscape:snap-midpoints="true"
     inkscape:snap-grids="true"
     inkscape:snap-to-guides="false">
    <inkscape:grid
       type="xygrid"
       id="grid3002"
       empspacing="5"
       visible="true"
       enabled="true"
       snapvisiblegridlinesonly="true" />
  </sodipodi:namedview>
  <metadata
     id="metadata7">
    <rdf:RDF>
      <cc:Work
         rdf:about="">
        <dc:format>image/svg+xml</dc:format>
        <dc:type
           rdf:resource="http://purl.org/dc/dcmitype/StillImage" />
        <dc:title />
      </cc:Work>
    </rdf:RDF>
  </metadata>
  <g
     inkscape:label="Layer 1"
     inkscape:groupmode="layer"
     id="layer1"
     transform="translate(0,-956.36218)">
    <rect
       style="fill:#ffffff;fill-opacity:0;fill-rule:nonzero;stroke:none"
       id="rect3775"
       width="96"
       height="96"
       x="0"
       y="956.36218"
       ry="0" />
    <path
       style="fill:#000000;fill-opacity:0.09589041;fill-rule:nonzero;stroke:none"
       d="m 3.353015,956.30662 c -1.884176,0 -3.4111555,1.43156 -3.4111555,3.19799 l 0,83.65949 c 0,1.7665 1.5269795,3.1981 3.4111555,3.1981 l 89.23583,0 c 1.884174,0 3.411155,-1.4316 3.411155,-3.1981 l 0,-83.65949 c 0,-1.76643 -1.526981,-3.19799 -3.411155,-3.19799 z"
       id="rect3772"
       inkscape:connector-curvature="0"
       sodipodi:nodetypes="sssssssss" />
    <path
       style="fill:#000000;fill-opacity:0.18721463;fill-rule:nonzero;stroke:none"
       d="m 1.0459761,1041.8066 0,7.4219 c 0,1.7392 1.461916,3.1337 3.2852054,3.1337 l 86.3836135,0 c 1.823288,0 3.285205,-1.3945 3.285205,-3.1337 l 0,-7.4219 -92.9540239,0 z"
       id="rect3785"
       inkscape:connector-curvature="0" />
    <path
       style="fill:#000000;fill-opacity:0.38356168;fill-rule:nonzero;stroke:none"
       d="m 1.0459761,1041.8066 0,5.3807 c 0,1.762 1.461916,3.1749 3.2852054,3.1749 l 86.3836135,0 c 1.823288,0 3.285205,-1.4129 3.285205,-3.1749 l 0,-5.3807 -92.9540239,0 z"
       id="rect3783"
       inkscape:connector-curvature="0" />
    <rect
       style="fill:url(#linearGradient3769);fill-opacity:1;fill-rule:nonzero;stroke:none"
       id="rect2985"
       width="92.954025"
       height="89"
       x="1.045977"
       y="957.36218"
       ry="3.1511393" />
    <path
       style="fill:#000000;fill-opacity:0.38356168;fill-rule:nonzero;stroke:none"
       d="m 1,1042.3622 0.045976,2.7457 c 0.03024,1.8058 1.461916,3.2543 3.2852054,3.2543 l 86.3836136,0 c 1.823288,0 3.285205,-1.4481 3.285205,-3.2543 l -0.04598,-2.7457 z"
       id="rect3781"
       inkscape:connector-curvature="0"
       sodipodi:nodetypes="csssscc" />
    <rect
       style="fill:#ffffff;fill-opacity:0.10502283;fill-rule:nonzero;stroke:none"
       id="rect3770"
       width="92.954033"
       height="2.000005"
       x="1.045976"
       y="1040.3622" />
    <path
       style="fill:#ffffff;fill-opacity:0.28310505;fill-rule:nonzero;stroke:none"
       d="m 65,967.36218 -15,25 15,30.00002 29,0 0,-55.00002 z"
       id="rect3784"
       inkscape:connector-curvature="0"
       sodipodi:nodetypes="cccccc" />
    <path
       sodipodi:nodetypes="cccccc"
       inkscape:connector-curvature="0"
       id="path3787"
       d="m 35,967.36218 0.671593,6.72626 6.828407,15.14874 51.5,0 0,-21.875 z"
       style="fill:#ffffff;fill-opacity:0.28310505;fill-rule:nonzero;stroke:none" />
    <path
       style="fill:#ffffff;fill-opacity:0.28310505;fill-rule:nonzero;stroke:none"
       d="m 25,1022.0619 10.671593,-7.7808 6.828407,-18.2002 51.5,0 0,26.2813 z"
       id="path3789"
       inkscape:connector-curvature="0"
       sodipodi:nodetypes="cccccc" />
    <rect
       style="fill:#ffffff;fill-opacity:0.28310505;fill-rule:nonzero;stroke:none"
       id="rect3791"
       width="51.610615"
       height="7.4688001"
       x="42.389385"
       y="996.08087" />
    <rect
       y="981.76837"
       x="42.3405"
       height="7.4688001"
       width="51.6595"
       id="rect3793"
       style="fill:#ffffff;fill-opacity:0.28310505;fill-rule:nonzero;stroke:none" />
    <path
       style="fill:#000000;fill-opacity:0.15525118;fill-rule:nonzero;stroke:none"
       d="m 25,971.36218 17.5,21.875 5,-6.25 -12.5,-15.625 -10,0 z m 40,0 -20,25.00002 20,29.75 10,0 -20,-29.75 20,-25.00002 -10,0 z m -22.5,28.71872 -17.5,26.0313 10,0 12.46875,-18.5625 -4.96875,-7.4688 z"
       id="path3797"
       inkscape:connector-curvature="0" />
    <path
       inkscape:connector-curvature="0"
       id="path3795"
       d="m 25,969.36218 17.5,21.875 5,-6.25 -12.5,-15.625 -10,0 z m 40,0 -20,25 20,29.75002 10,0 -20,-29.75002 20,-25 -10,0 z m -22.5,28.71872 -17.5,26.0313 10,0 12.46875,-18.5625 L 42.5,998.0809 z"
       style="fill:#000000;fill-opacity:0.15525118;fill-rule:nonzero;stroke:none" />
    <path
       inkscape:connector-curvature="0"
       id="path3799"
       d="m 25,973.20873 17.5,21.87502 5,-6.25002 -12.5,-15.625 -10,0 z m 40,0 -20,25.00002 20,29.74995 10,0 -20,-29.74995 20,-25.00002 -10,0 z m -22.5,28.71867 -17.5,26.0313 10,0 12.46875,-18.5625 -4.96875,-7.4688 z"
       style="fill:#000000;fill-opacity:0.15525118;fill-rule:nonzero;stroke:none" />
    <path
       style="fill:#ffffff;fill-opacity:1;fill-rule:nonzero;stroke:none"
       d="m 25,967.36218 17.5,21.875 5,-6.25 -12.5,-15.625 -10,0 z m 40,0 -20,25 20,29.75002 10,0 -20,-29.75002 20,-25 -10,0 z m -22.5,28.71872 -17.5,26.0313 10,0 12.46875,-18.5625 L 42.5,996.0809 z"
       id="rect3771"
       inkscape:connector-curvature="0" />
  </g>
</svg>
