<?xml version="1.0" encoding="UTF-8" standalone="no"?>
<!-- Created with Inkscape (http://www.inkscape.org/) -->

<svg
   xmlns:dc="http://purl.org/dc/elements/1.1/"
   xmlns:cc="http://creativecommons.org/ns#"
   xmlns:rdf="http://www.w3.org/1999/02/22-rdf-syntax-ns#"
   xmlns:svg="http://www.w3.org/2000/svg"
   xmlns="http://www.w3.org/2000/svg"
   xmlns:sodipodi="http://sodipodi.sourceforge.net/DTD/sodipodi-0.dtd"
   xmlns:inkscape="http://www.inkscape.org/namespaces/inkscape"
   width="96"
   height="96"
   id="svg2"
   version="1.1"
   inkscape:version="0.48.4 r9939"
   sodipodi:docname="youtube.svg">
  <defs
     id="defs4" />
  <sodipodi:namedview
     id="base"
     pagecolor="#ffffff"
     bordercolor="#666666"
     borderopacity="1.0"
     inkscape:pageopacity="0.0"
     inkscape:pageshadow="2"
     inkscape:zoom="5.90625"
     inkscape:cx="44.500806"
     inkscape:cy="48"
     inkscape:document-units="px"
     inkscape:current-layer="layer1"
     showgrid="true"
     inkscape:snap-page="true"
     inkscape:snap-global="true"
     inkscape:snap-center="true"
     inkscape:snap-object-midpoints="false"
     showguides="true"
     inkscape:guide-bbox="true"
     inkscape:snap-bbox="true"
     inkscape:object-paths="true"
     inkscape:object-nodes="true"
     inkscape:window-width="1305"
     inkscape:window-height="744"
     inkscape:window-x="61"
     inkscape:window-y="24"
     inkscape:window-maximized="1"
     inkscape:snap-midpoints="false"
     inkscape:snap-grids="true"
     inkscape:snap-to-guides="false">
    <inkscape:grid
       type="xygrid"
       id="grid3002"
       empspacing="5"
       visible="true"
       enabled="true"
       snapvisiblegridlinesonly="true" />
  </sodipodi:namedview>
  <metadata
     id="metadata7">
    <rdf:RDF>
      <cc:Work
         rdf:about="">
        <dc:format>image/svg+xml</dc:format>
        <dc:type
           rdf:resource="http://purl.org/dc/dcmitype/StillImage" />
        <dc:title />
      </cc:Work>
    </rdf:RDF>
  </metadata>
  <g
     inkscape:label="Layer 1"
     inkscape:groupmode="layer"
     id="layer1"
     transform="translate(0,-956.36218)">
    <rect
       style="fill:#ffffff;fill-opacity:0;fill-rule:nonzero;stroke:none"
       id="rect3775"
       width="96"
       height="96"
       x="0"
       y="956.36218"
       ry="0" />
    <path
       style="fill:#000000;fill-opacity:0.09589041;fill-rule:nonzero;stroke:none"
       d="m 3.353015,956.30662 c -1.884176,0 -3.4111555,1.43156 -3.4111555,3.19799 l 0,83.65949 c 0,1.7665 1.5269795,3.1981 3.4111555,3.1981 l 89.23583,0 c 1.884174,0 3.411155,-1.4316 3.411155,-3.1981 l 0,-83.65949 c 0,-1.76643 -1.526981,-3.19799 -3.411155,-3.19799 z"
       id="rect3772"
       inkscape:connector-curvature="0"
       sodipodi:nodetypes="sssssssss" />
    <path
       style="fill:#000000;fill-opacity:0.18721463;fill-rule:nonzero;stroke:none"
       d="m 1.0459761,1041.8066 0,7.4219 c 0,1.7392 1.461916,3.1337 3.2852054,3.1337 l 86.3836135,0 c 1.823288,0 3.285205,-1.3945 3.285205,-3.1337 l 0,-7.4219 -92.9540239,0 z"
       id="rect3785"
       inkscape:connector-curvature="0" />
    <path
       style="fill:#000000;fill-opacity:0.38356168;fill-rule:nonzero;stroke:none"
       d="m 1.0459761,1041.8066 0,5.3807 c 0,1.762 1.461916,3.1749 3.2852054,3.1749 l 86.3836135,0 c 1.823288,0 3.285205,-1.4129 3.285205,-3.1749 l 0,-5.3807 -92.9540239,0 z"
       id="rect3783"
       inkscape:connector-curvature="0" />
    <rect
       style="fill:#d3001b;fill-opacity:1;fill-rule:nonzero;stroke:none"
       id="rect2985"
       width="92.954025"
       height="89"
       x="1.045977"
       y="-1046.3622"
       ry="3.1511393"
       transform="scale(1,-1)" />
    <path
       style="fill:#000000;fill-opacity:0.38356168;fill-rule:nonzero;stroke:none"
       d="m 1,1042.3622 0.045976,2.7457 c 0.03024,1.8058 1.461916,3.2543 3.2852054,3.2543 l 86.3836136,0 c 1.823288,0 3.285205,-1.4481 3.285205,-3.2543 l -0.04598,-2.7457 z"
       id="rect3781"
       inkscape:connector-curvature="0"
       sodipodi:nodetypes="csssscc" />
    <rect
       style="fill:#ffffff;fill-opacity:0.30000001;fill-rule:nonzero;stroke:none"
       id="rect3770"
       width="92.954033"
       height="2.000005"
       x="1.045976"
       y="1040.3622" />
    <path
       style="fill:#ffffff;fill-opacity:1;display:inline"
       id="path3209"
       inkscape:connector-curvature="0"
       d="m 63.069754,975.42194 0,16.2085 -2.917122,0 0,-1.7893 c -0.53771,0.6592 -1.097049,1.1618 -1.678539,1.5065 -0.581482,0.3441 -1.146176,0.5169 -1.693152,0.5169 -0.674387,0 -1.182865,-0.241 -1.524944,-0.7238 -0.342079,-0.4825 -0.512895,-1.2063 -0.512895,-2.1714 l 0,-13.5474 2.917189,0 0,12.4248 c 0,0.3845 0.06102,0.6622 0.183194,0.8341 0.122122,0.1719 0.319937,0.258 0.593853,0.258 0.215101,0 0.485911,-0.1136 0.81337,-0.3411 0.327458,-0.2278 0.627934,-0.5184 0.901924,-0.8726 l 0,-12.3032 2.917122,0 z m -19.271096,3.7055 c 0,-1.2552 0.3925,-2.2546 1.178015,-2.9988 0.785516,-0.7442 1.840895,-1.1164 3.166729,-1.1164 1.207248,0 2.196283,0.3927 2.967186,1.1772 0.770894,0.7845 1.156304,1.7943 1.156304,3.0295 l 0,8.3716 c 0,1.3872 -0.378394,2.4754 -1.13417,3.265 -0.75585,0.7895 -1.796692,1.1845 -3.122086,1.1845 -1.276267,0 -2.297573,-0.4078 -3.063196,-1.2225 -0.765979,-0.8147 -1.148782,-1.9106 -1.148782,-3.2877 l 0,-8.4024 z m 3.002123,8.7059 c 0,0.4463 0.10354,0.7904 0.311542,1.0338 0.207505,0.243 0.503995,0.3641 0.88992,0.3641 0.395613,0 0.709398,-0.1237 0.94215,-0.3719 0.23232,-0.2484 0.348738,-0.5901 0.348738,-1.026 l 0,-8.8275 c 0,-0.3542 -0.1191,-0.6404 -0.35626,-0.858 -0.237169,-0.2176 -0.548712,-0.3268 -0.934628,-0.3268 -0.35582,0 -0.645229,0.1092 -0.867777,0.3268 -0.222623,0.2176 -0.333685,0.5038 -0.333685,0.858 l 0,8.8275 z m -13.870534,-18.1751 3.308826,0 2.131598,8.7826 0.206275,0 2.032484,-8.7826 3.33805,0 -3.823455,12.8549 0,9.1173 -3.28538,0 0,-8.7068 -3.908398,-13.2654 z" />
    <path
       d="m 72.574389,1003.2254 c 0,-3.887 -3.222272,-7.041 -7.193229,-7.041 -5.667389,-0.2342 -11.466406,-0.3382 -17.381159,-0.3275 -5.914753,-0.011 -11.713471,0.093 -17.381234,0.3275 -3.970584,0 -7.193154,3.154 -7.193154,7.041 -0.238365,3.0786 -0.341814,6.1571 -0.332515,9.2358 -0.0092,3.0785 0.09415,6.157 0.332589,9.2358 0,3.887 3.222496,7.0411 7.19323,7.0411 5.667613,0.2343 11.466331,0.3382 17.381084,0.3272 5.914753,0.011 11.71377,-0.093 17.381159,-0.3272 3.970957,0 7.193229,-3.1541 7.193229,-7.0411 0.238365,-3.0788 0.341805,-6.1573 0.332515,-9.2358 0.0092,-3.0787 -0.09413,-6.1572 -0.332515,-9.2358 z"
       inkscape:connector-curvature="0"
       id="path3149"
       style="fill:#ffffff" />
    <path
       style="fill:#333333;fill-opacity:1"
       id="path3215"
       inkscape:connector-curvature="0"
       d="M 37.398903,1001.2385 H 26.95304 v 3.1668 h 3.521058 v 18.6526 h 3.403598 v -18.6526 h 3.521207 v -3.1668 z m 5.563051,17.9412 c -0.283639,0.3519 -0.595163,0.6407 -0.93427,0.8666 -0.339408,0.2263 -0.62005,0.3388 -0.842824,0.3388 -0.283638,0 -0.488723,-0.086 -0.615251,-0.2562 -0.126529,-0.1707 -0.189793,-0.4465 -0.189793,-0.8283 v -12.3385 h -3.02229 v 13.4533 c 0,0.9583 0.177201,1.6771 0.531599,2.1565 0.354401,0.4792 0.881203,0.7185 1.579807,0.7185 0.566678,0 1.151648,-0.1716 1.754007,-0.5133 0.602659,-0.3423 1.181931,-0.8414 1.739015,-1.496 v 1.7768 h 3.022289 v -16.0958 h -3.022289 v 12.2176 z m 11.709573,-12.421 c -0.468635,0 -0.931573,0.1281 -1.389714,0.3836 -0.457841,0.2561 -0.890195,0.6292 -1.297366,1.1204 v -7.0242 h -3.051671 v 21.8194 h 3.051671 v -1.2374 c 0.396976,0.4902 0.827232,0.853 1.290171,1.0881 0.462937,0.2351 0.989739,0.3527 1.580405,0.3527 0.895293,0 1.579806,-0.3031 2.052938,-0.9105 0.473132,-0.6075 0.710298,-1.4833 0.710298,-2.6278 v -8.9294 c 0,-1.3147 -0.252158,-2.3161 -0.756172,-3.0035 -0.503715,-0.6873 -1.234101,-1.0314 -2.19056,-1.0314 z m -0.163708,12.5267 c 0,0.5131 -0.08755,0.883 -0.261752,1.1092 -0.1742,0.2259 -0.446147,0.339 -0.815237,0.339 -0.256656,0 -0.500119,-0.058 -0.730987,-0.1733 -0.231169,-0.1152 -0.469535,-0.3041 -0.715396,-0.5656 v -10.0305 c 0.205085,-0.2211 0.412567,-0.3846 0.623049,-0.4903 0.210181,-0.1053 0.42336,-0.1584 0.638637,-0.1584 0.409868,0 0.723191,0.1412 0.938469,0.4226 0.215578,0.2815 0.323217,0.6937 0.323217,1.2366 v 8.3107 z m 14.280918,-3.8977 v -4.0979 c 0,-1.5276 -0.371491,-2.6984 -1.113271,-3.5128 -0.742379,-0.8145 -1.804679,-1.2216 -3.187196,-1.2216 -1.352534,0 -2.45561,0.4399 -3.309227,1.3192 -0.854216,0.8798 -1.281174,2.0179 -1.281174,3.4152 v 7.2243 c 0,1.5495 0.388879,2.7667 1.16634,3.652 0.777759,0.885 1.842756,1.3277 3.195291,1.3277 1.504548,0 2.635808,-0.4178 3.39318,-1.2526 0.757371,-0.8348 1.136057,-2.0773 1.136057,-3.7271 v -1.2089 h -3.11044 v 1.1187 c 0,0.947 -0.09984,1.5595 -0.29923,1.8362 -0.199388,0.277 -0.549889,0.4153 -1.050905,0.4153 -0.481528,0 -0.821536,-0.1632 -1.020924,-0.491 -0.199386,-0.3275 -0.29893,-0.9144 -0.29893,-1.7605 v -3.0362 h 5.780429 z m -5.780429,-4.1279 c 0,-0.6736 0.104342,-1.1567 0.314523,-1.4486 0.20958,-0.2915 0.554685,-0.4376 1.035613,-0.4376 0.46024,0 0.79545,0.1461 1.005331,0.4376 0.209581,0.2919 0.314522,0.775 0.314522,1.4486 v 1.6293 h -2.669989 v -1.6293 z" />
  </g>
</svg>
