<?xml version="1.0" encoding="UTF-8" standalone="no"?>
<!-- Created with Inkscape (http://www.inkscape.org/) -->

<svg
   xmlns:dc="http://purl.org/dc/elements/1.1/"
   xmlns:cc="http://creativecommons.org/ns#"
   xmlns:rdf="http://www.w3.org/1999/02/22-rdf-syntax-ns#"
   xmlns:svg="http://www.w3.org/2000/svg"
   xmlns="http://www.w3.org/2000/svg"
   xmlns:sodipodi="http://sodipodi.sourceforge.net/DTD/sodipodi-0.dtd"
   xmlns:inkscape="http://www.inkscape.org/namespaces/inkscape"
   width="96"
   height="96"
   id="svg2"
   version="1.1"
   inkscape:version="0.48.4 r9939"
   sodipodi:docname="zim.svg">
  <defs
     id="defs4" />
  <sodipodi:namedview
     id="base"
     pagecolor="#ffffff"
     bordercolor="#666666"
     borderopacity="1.0"
     inkscape:pageopacity="0.0"
     inkscape:pageshadow="2"
     inkscape:zoom="5.90625"
     inkscape:cx="18.031746"
     inkscape:cy="48"
     inkscape:document-units="px"
     inkscape:current-layer="layer1"
     showgrid="true"
     inkscape:snap-page="true"
     inkscape:snap-global="true"
     inkscape:snap-center="true"
     inkscape:snap-object-midpoints="false"
     showguides="true"
     inkscape:guide-bbox="true"
     inkscape:snap-bbox="true"
     inkscape:object-paths="true"
     inkscape:object-nodes="true"
     inkscape:window-width="1305"
     inkscape:window-height="744"
     inkscape:window-x="61"
     inkscape:window-y="24"
     inkscape:window-maximized="1"
     inkscape:snap-midpoints="false"
     inkscape:snap-grids="true"
     inkscape:snap-to-guides="false">
    <inkscape:grid
       type="xygrid"
       id="grid3002"
       empspacing="5"
       visible="true"
       enabled="true"
       snapvisiblegridlinesonly="true" />
  </sodipodi:namedview>
  <metadata
     id="metadata7">
    <rdf:RDF>
      <cc:Work
         rdf:about="">
        <dc:format>image/svg+xml</dc:format>
        <dc:type
           rdf:resource="http://purl.org/dc/dcmitype/StillImage" />
        <dc:title />
      </cc:Work>
    </rdf:RDF>
  </metadata>
  <g
     inkscape:label="Layer 1"
     inkscape:groupmode="layer"
     id="layer1"
     transform="translate(0,-956.36218)">
    <rect
       style="fill:#ffffff;fill-opacity:0;fill-rule:nonzero;stroke:none"
       id="rect3775"
       width="96"
       height="96"
       x="0"
       y="956.36218"
       ry="0" />
    <path
       style="fill:#000000;fill-opacity:0.09589041;fill-rule:nonzero;stroke:none"
       d="m 3.353015,956.30662 c -1.884176,0 -3.4111555,1.43156 -3.4111555,3.19799 l 0,83.65949 c 0,1.7665 1.5269795,3.1981 3.4111555,3.1981 l 89.23583,0 c 1.884174,0 3.411155,-1.4316 3.411155,-3.1981 l 0,-83.65949 c 0,-1.76643 -1.526981,-3.19799 -3.411155,-3.19799 z"
       id="rect3772"
       inkscape:connector-curvature="0"
       sodipodi:nodetypes="sssssssss" />
    <path
       style="fill:#000000;fill-opacity:0.18721463;fill-rule:nonzero;stroke:none"
       d="m 1.0459761,1041.8066 0,7.4219 c 0,1.7392 1.461916,3.1337 3.2852054,3.1337 l 86.3836135,0 c 1.823288,0 3.285205,-1.3945 3.285205,-3.1337 l 0,-7.4219 -92.9540239,0 z"
       id="rect3785"
       inkscape:connector-curvature="0" />
    <path
       style="fill:#000000;fill-opacity:0.38356168;fill-rule:nonzero;stroke:none"
       d="m 1.0459761,1041.8066 0,5.3807 c 0,1.762 1.461916,3.1749 3.2852054,3.1749 l 86.3836135,0 c 1.823288,0 3.285205,-1.4129 3.285205,-3.1749 l 0,-5.3807 -92.9540239,0 z"
       id="rect3783"
       inkscape:connector-curvature="0" />
    <rect
       style="fill:#aa0066;fill-opacity:1;fill-rule:nonzero;stroke:none"
       id="rect2985-6"
       width="93"
       height="88.999977"
       x="1"
       y="957.36218"
       ry="3.1511388" />
    <path
       style="fill:#000000;fill-opacity:0.38356168;fill-rule:nonzero;stroke:none"
       d="m 1,1042.3622 0.045976,2.7457 c 0.03024,1.8058 1.461916,3.2543 3.2852054,3.2543 l 86.3836136,0 c 1.823288,0 3.285205,-1.4481 3.285205,-3.2543 l -0.04598,-2.7457 z"
       id="rect3781"
       inkscape:connector-curvature="0"
       sodipodi:nodetypes="csssscc" />
    <rect
       style="fill:#ffffff;fill-opacity:0.30000001;fill-rule:nonzero;stroke:none"
       id="rect3770"
       width="92.954033"
       height="2.000005"
       x="1.045976"
       y="1040.3622" />
    <path
       style="color:#000000;fill:#ffffff;fill-opacity:1;fill-rule:nonzero;stroke:none;stroke-width:2;marker:none;visibility:visible;display:inline;overflow:visible;enable-background:accumulate"
       id="path4111"
       inkscape:connector-curvature="0"
       d="m 48.873965,1001.0502 0,3.3125 0,2.4662 0,7.3747 c -0.0036,0.1535 -0.116764,0.3011 -0.278966,0.3627 -0.985797,0.4273 -2.535506,0.3333 -4.714517,-1.0639 -0.320485,-0.1466 -0.761508,-0.3727 -1.227447,-0.5561 -0.465939,-0.1834 -0.951626,-0.3103 -1.22745,-0.3142 -1.148649,0 -2.208763,0.5804 -3.012826,1.5956 -0.804063,1.0154 -1.311139,2.4462 -1.311139,4.0381 0,1.5917 0.507611,3.0288 1.311139,4.0379 0.790369,0.9924 1.828541,1.553 2.957034,1.5716 0.01884,3e-4 0.03696,0 0.05579,0 0.847386,-0.098 2.099179,-0.6219 2.399105,-0.8221 2.218038,-1.4418 3.781683,-1.5165 4.770309,-1.0881 0.162202,0.062 0.275787,0.2093 0.278966,0.3628 l 0,10.0343 30.769893,0 c 2.9673,0 5.356138,-2.0705 5.356138,-4.6424 l 0,-26.6696 -15.873137,0 c -0.207363,0.5686 -0.137465,1.4933 1.227448,3.0707 0.420082,0.473 1.070282,1.5198 1.199552,2.5146 8.93e-4,0.017 8.93e-4,0.033 0,0.048 0,1.312 -0.905428,2.4829 -2.25962,3.2884 -1.354193,0.8057 -3.179725,1.2816 -5.188758,1.2816 -2.009035,0 -3.84127,-0.4755 -5.188759,-1.2816 -1.347488,-0.806 -2.231723,-1.9778 -2.231723,-3.2884 0.0092,-0.4691 0.240838,-0.9568 0.47424,-1.4023 0.233404,-0.4456 0.484178,-0.8538 0.641621,-1.1123 0.01696,-0.018 0.03562,-0.033 0.05579,-0.047 1.364913,-1.5774 1.43481,-2.5021 1.227447,-3.0707 l -4.435551,0 -2.845448,0 z" />
    <path
       style="color:#000000;fill:#ffffff;fill-opacity:0.369863;fill-rule:nonzero;stroke:none;stroke-width:2;marker:none;visibility:visible;display:inline;overflow:visible;enable-background:accumulate"
       id="path4113"
       inkscape:connector-curvature="0"
       d="m 48.762378,967.36859 0,12.25887 c 0.681614,0.2185 1.801752,0.17672 3.710242,-1.06388 0.522714,-0.3488 1.756527,-0.88237 2.873344,-0.99139 0.0093,-3.1e-4 0.01856,-3.1e-4 0.02785,0 1.477151,0 2.793315,0.75223 3.710241,1.91019 0.916926,1.15789 1.450621,2.72254 1.450621,4.44897 0,1.72636 -0.533267,3.29688 -1.450621,4.44897 -0.917355,1.152 -2.234394,1.88597 -3.710241,1.88597 -0.514725,-0.008 -1.052901,-0.18648 -1.562208,-0.38686 -0.509305,-0.20048 -0.982735,-0.41867 -1.28324,-0.55617 -0.01938,-0.008 -0.03802,-0.0146 -0.05579,-0.024 -1.90849,-1.24068 -3.028628,-1.28246 -3.710241,-1.06388 l 0,5.44026 0,2.46629 0,4.18299 3.040724,0 2.845448,0 4.798205,0 c 0.135825,0 0.270102,0.066 0.33476,0.1693 0.474759,0.823 0.382714,2.1321 -1.227448,4.0137 -0.0072,0.013 -0.02018,0.036 -0.02785,0.047 -0.167745,0.2737 -0.409467,0.6497 -0.613724,1.0398 -0.213711,0.408 -0.385427,0.826 -0.390552,1.0881 0,1.0271 0.707207,1.9761 1.896967,2.6838 1.189758,0.7079 2.860748,1.1606 4.714515,1.1606 1.853769,0 3.531953,-0.4531 4.714518,-1.1606 1.17327,-0.7018 1.858356,-1.6407 1.869067,-2.6596 -8.65e-4,-0.01 8.94e-4,-0.018 0,-0.025 -0.107074,-0.759 -0.752126,-1.8438 -1.004274,-2.1278 -1.65219,-1.9093 -1.703244,-3.2372 -1.227449,-4.0621 0.06463,-0.1035 0.198936,-0.1714 0.334758,-0.1691 l 16.179999,0 0,-28.31393 c 0,-2.57189 -2.388837,-4.6424 -5.356138,-4.6424 z" />
    <path
       style="color:#000000;fill:#ffffff;fill-opacity:0.5479452;fill-rule:nonzero;stroke:none;stroke-width:2;marker:none;visibility:visible;display:inline;overflow:visible;enable-background:accumulate"
       id="path4109"
       inkscape:connector-curvature="0"
       d="m 10.014072,1001.0502 0,26.6696 c 0,2.5719 2.388837,4.6424 5.356137,4.6424 l 32.555273,0 0,-9.72 c -0.6561,-0.1798 -1.722971,-0.1193 -3.542861,1.0638 -0.555754,0.3708 -1.76209,0.9043 -2.901241,1.0156 -0.01856,0 -0.03723,0 -0.05579,0 -1.512028,0 -2.863926,-0.7664 -3.793931,-1.9344 -0.930003,-1.1679 -1.478517,-2.756 -1.478517,-4.4973 0,-1.7413 0.54905,-3.3236 1.478517,-4.4972 0.929469,-1.1739 2.280278,-1.9585 3.793931,-1.9585 0.541265,0.01 1.103874,0.2086 1.618001,0.4109 0.514127,0.2024 0.984957,0.4197 1.28324,0.5562 0.02009,0.015 0.03883,0.031 0.05579,0.048 1.821711,1.1842 2.890957,1.2617 3.542861,1.088 l 0,-7.1087 0,-2.4663 0,-3.3125 -3.821827,0 -2.845448,0 -13.195068,0 c -0.207363,0.5686 -0.137466,1.4934 1.227449,3.0708 0.420081,0.4729 1.070289,1.5197 1.199551,2.5147 8.93e-4,0.017 8.93e-4,0.032 0,0.047 0,1.3121 -0.905428,2.4829 -2.25962,3.2884 -1.354193,0.8057 -3.179725,1.2816 -5.188759,1.2816 -2.009034,0 -3.84127,-0.4755 -5.188758,-1.2816 -1.347488,-0.806 -2.231724,-1.9778 -2.231724,-3.2884 0.0092,-0.4691 0.240839,-0.9568 0.474242,-1.4023 0.233403,-0.4456 0.484177,-0.8538 0.64162,-1.1123 0.01696,-0.018 0.0357,-0.033 0.05579,-0.047 1.364913,-1.5774 1.434811,-2.5022 1.227448,-3.0708 z" />
    <path
       style="color:#000000;fill:#ffffff;fill-opacity:0.72146118;fill-rule:nonzero;stroke:none;stroke-width:2;marker:none;visibility:visible;display:inline;overflow:visible;enable-background:accumulate"
       d="M 15.362969,967.36218 C 12.39567,967.36218 10,969.43861 10,972.0105 l 0,28.3152 8.37745,0 c 0.135822,0 0.285863,0.08 0.35052,0.1823 0.474761,0.8231 0.383339,2.1289 -1.226823,4.0104 -0.0072,0.013 -0.02728,0.019 -0.03505,0.03 -0.167745,0.2736 -0.426682,0.643 -0.630937,1.033 -0.21371,0.408 -0.380449,0.8316 -0.385573,1.0938 0,1.0271 0.703054,1.996 1.892813,2.7038 1.189758,0.7077 2.878263,1.1545 4.732031,1.1545 1.853768,0 3.514417,-0.4471 4.696981,-1.1545 1.173271,-0.7018 1.8821,-1.6546 1.892812,-2.6735 -8.66e-4,-0.01 8.93e-4,-0.024 0,-0.03 -0.107074,-0.7592 -0.764361,-1.8429 -1.01651,-2.1268 -1.652191,-1.9092 -1.702617,-3.216 -1.226824,-4.0407 0.06463,-0.1036 0.2147,-0.1845 0.350522,-0.1823 l 12.583699,0 3.750574,0 3.925834,0 0,-4.19254 0,-2.46088 0,-5.6509 c -0.0026,-0.11776 0.09083,-0.24779 0.210313,-0.30381 0.943395,-0.40883 2.454373,-0.33286 4.626876,1.06334 0.01884,0.0124 0.01604,-0.0125 0.03505,0 0.318994,0.14748 0.776523,0.39449 1.226822,0.57725 0.470939,0.19104 0.928692,0.32979 1.226824,0.33419 1.185143,0 2.30303,-0.60943 3.119635,-1.64059 0.816607,-1.03123 1.33198,-2.49472 1.33198,-4.10145 0,-1.60674 -0.515802,-3.04611 -1.33198,-4.07109 -0.809757,-1.01699 -1.908999,-1.63129 -3.084583,-1.64058 -0.0093,-8e-5 -0.02576,0 -0.03505,0 -0.875836,0.0927 -2.126073,0.66248 -2.453646,0.88106 -2.202917,1.43202 -3.710339,1.47574 -4.661928,1.06334 -0.119478,-0.0557 -0.21284,-0.18605 -0.210313,-0.30382 l 0,-12.51704 -32.668548,0 z m 0.210314,7.7472 c 0.567973,0 1.168967,0.009 1.787655,0.0608 0.57625,0.0518 1.103895,0.0912 1.612397,0.0912 0.516779,0 1.119171,-0.0394 1.822709,-0.0912 0.737638,-0.0526 1.39545,-0.0608 1.962917,-0.0608 0.13601,0 0.210312,0.12085 0.210312,0.36457 0,0.24373 -0.05549,0.36458 -0.140209,0.36458 -0.567991,0.0434 -1.005585,0.20356 -1.331979,0.45572 -0.326421,0.25224 -0.490747,0.56335 -0.490729,0.97219 -1.8e-5,0.20867 0.07436,0.47662 0.210313,0.78992 l 5.257813,12.21323 2.979428,-5.8028 -2.769115,-5.9851 c -0.500219,-1.07038 -0.90483,-1.75712 -1.226824,-2.06591 -0.32202,-0.30873 -0.819382,-0.50769 -1.472187,-0.57725 -0.05892,0 -0.120199,-0.0476 -0.175261,-0.12152 -0.05507,-0.0743 -0.0701,-0.1475 -0.0701,-0.24306 0,-0.24372 0.05687,-0.36457 0.17526,-0.36457 0.567974,0 1.102987,0.009 1.577344,0.0608 0.45779,0.0518 0.92035,0.0912 1.437137,0.0912 0.508476,0 1.044404,-0.0394 1.612395,-0.0912 0.585043,-0.0526 1.185122,-0.0608 1.752605,-0.0608 0.136011,0 0.175251,0.12085 0.17526,0.36457 -9e-6,0.24373 -0.02027,0.36458 -0.105152,0.36458 -1.135984,0.078 -1.71757,0.41957 -1.717552,1.00258 -1.8e-5,0.26128 0.122844,0.6673 0.385573,1.21525 l 1.857761,3.82803 1.822708,-3.52422 c 0.254506,-0.49534 0.385555,-0.90627 0.385573,-1.24563 -1.8e-5,-0.80066 -0.546553,-1.224 -1.6825,-1.27601 -0.101456,0 -0.17526,-0.12085 -0.17526,-0.36458 -1.8e-5,-0.0871 0.0193,-0.16467 0.0701,-0.24304 0.05061,-0.0783 0.124091,-0.12153 0.17526,-0.12153 0.406566,0 0.913905,0.009 1.50724,0.0608 0.567974,0.0518 1.002841,0.0912 1.367032,0.0912 0.262762,0 0.648216,-0.0166 1.156718,-0.0608 0.644004,-0.0612 1.179916,-0.0911 1.612396,-0.0911 0.101277,0 0.175261,0.0946 0.175261,0.30381 -3.6e-5,0.27823 -0.09423,0.42534 -0.280417,0.42534 -0.661117,0.0696 -1.209962,0.24232 -1.612396,0.54686 -0.402468,0.30454 -0.905138,1.01741 -1.507239,2.0963 l -2.418595,4.61794 3.294897,6.92691 4.872239,-11.66637 c 0.169648,-0.42579 0.280381,-0.79765 0.280417,-1.15449 -3.6e-5,-0.85273 -0.581604,-1.31515 -1.717552,-1.36715 -0.101964,0 -0.140387,-0.12085 -0.140208,-0.36458 -1.8e-5,-0.24372 0.05765,-0.36457 0.210313,-0.36457 0.415359,0 0.904179,0.009 1.472187,0.0608 0.525545,0.0518 0.976047,0.0912 1.33198,0.0912 0.372947,0 0.805465,-0.0394 1.296927,-0.0912 0.508467,-0.0526 0.960412,-0.0608 1.367032,-0.0608 0.118905,0 0.175224,0.0946 0.17526,0.30381 -1.8e-5,0.10406 -0.04168,0.21669 -0.105152,0.30382 -0.06365,0.087 -0.13429,0.12152 -0.210312,0.12152 -0.627507,0.0612 -1.108975,0.25534 -1.50724,0.60762 -0.398352,0.35236 -0.838231,1.04369 -1.261875,2.03554 l -6.484636,14.97793 c -0.04231,0.13912 -0.155451,0.21266 -0.350521,0.21266 -0.152615,0 -0.266216,-0.0735 -0.350521,-0.21266 l -3.645417,-7.80797 -4.171199,7.80797 c -0.08436,0.13912 -0.197942,0.21266 -0.350521,0.21266 -0.186758,0 -0.326611,-0.0735 -0.385573,-0.21266 l -6.344438,-14.97793 c -0.398326,-0.93135 -0.821145,-1.60516 -1.261875,-1.97478 -0.440739,-0.36953 -1.069417,-0.58133 -1.857761,-0.66838 -0.06776,0 -0.116049,-0.0476 -0.17526,-0.12152 -0.05928,-0.0743 -0.105162,-0.14742 -0.105162,-0.24306 0,-0.24372 0.07478,-0.36457 0.210313,-0.36457 z"
       id="path4115"
       inkscape:connector-curvature="0" />
  </g>
</svg>
