<svg width="128" version="1.0" xmlns="http://www.w3.org/2000/svg" height="128" xmlns:xlink="http://www.w3.org/1999/xlink">
<defs id="defs16">
<linearGradient id="linearGradient4168">
<stop offset="0" style="stop-color:#fff;stop-opacity:.392" id="stop4170"/>
<stop offset="1" style="stop-color:#fff;stop-opacity:0" id="stop4172"/>
</linearGradient>
<linearGradient xlink:href="#linearGradient4168" id="linearGradient4174" y1="23.54096" x1="18.0989" y2="78.462845" x2="58.963066" gradientUnits="userSpaceOnUse"/>
</defs>
<g style="fill-rule:evenodd">
<g style="stroke:none">
<path id="path4871" d="m 13,11.625 c -1.90391,0 -3.74912,0.63995 -5.09375,1.9375 -1.33738,1.29055 -2,3.09835 -2,4.96875 v 70.8438 a 2.10538,2.10538 0 0,0 0,0.03125 c 0.02824,1.66459 1.2655,2.78759 2.84375,2.8125 a 2.10538,2.10538 0 0,0 0.03125,0 h 110.438 a 2.10538,2.10538 0 0,0 0.0312,0 c 1.57812,-0.02499 2.81551,-1.14791 2.84375,-2.8125 a 2.10538,2.10538 0 0,0 0,-0.03125 v -70.875 c 0,-1.83481 -0.62837,-3.6427 -1.96875,-4.9375 -1.34821,-1.3024 -3.20289,-1.9375 -5.12495,-1.9375 h -102 z "/>
<path style="fill:#7fff2a" id="path4869" d="m 64.25,13.9688 c 2.35683,0 4.25,1.92442 4.25,4.28125 0,2.35683 -1.89317,4.25 -4.25,4.25 -2.35683,0 -4.28125,-1.89317 -4.28125,-4.25 0,-2.35683 1.92442,-4.28125 4.28125,-4.28125 z"/>
<path style="fill:#2d79d7" id="path4673" d="m 17.6875,23.25 92.9062,0 0,63.9375 -92.9062,0 0,-63.9375 z"/>
</g>
<g style="stroke-width:0;stroke-linecap:round;stroke-linejoin:round;stroke:#fff">
<path id="path4881" d="m -.0003,93 0,5.8125 0,5.8125 c 0,3.22323 2.58927,5.8125 5.8125,5.8125 h 116.376 c 3.22323,0 5.75705,-2.58975 5.8125,-5.8125 v -5.8125 -5.8125 z "/>
<path style="fill:#fff" id="path4873" d="m 46.5448,93.0914 34.9239,.0024 0,5.8125 -34.9375,0 z "/>
</g>
<path style="fill:url(#linearGradient4174);stroke:none" id="path4162" d="m 17.6875,23.25 v 63.9375 h 5.09961 c 32.3022,-15.042 61.5632,-37.3497 87.8066,-62.8418 v -1.0957 h -92.9062 z "/>
</g>
</svg>
